M48
; DRILL file {KiCad (5.1.5-0-10_14)} date Wednesday, June 02, 2021 at 09:42:09 AM
; FORMAT={-:-/ absolute / inch / decimal}
; #@! TF.CreationDate,2021-06-02T09:42:09-04:00
; #@! TF.GenerationSoftware,Kicad,Pcbnew,(5.1.5-0-10_14)
; #@! TF.FileFunction,Plated,1,2,PTH
FMAT,2
INCH
T1C0.0157
T2C0.0315
%
G90
G05
T1
X4.7638Y-2.9252
X4.8022Y-2.8661
X4.8445Y-2.9646
X4.8898Y-2.9252
X5.0551Y-2.9252
X5.2244Y-2.9862
X5.435Y-2.9931
T2
X4.7402Y-3.1567
X4.7402Y-3.2567
X4.7402Y-3.3567
X4.7402Y-3.4567
X4.7402Y-3.5567
X4.7402Y-3.6567
X4.7402Y-3.7567
X4.7402Y-3.8567
X4.7402Y-3.9567
X4.7402Y-4.0567
X4.7402Y-4.1567
X4.7402Y-4.2567
X4.7402Y-4.3567
X4.7402Y-4.4567
X4.7402Y-4.5567
X4.7402Y-4.6567
X5.5402Y-3.5567
X5.5402Y-3.6567
X5.5402Y-3.7567
X5.5402Y-3.8567
X5.5402Y-3.9567
X5.5402Y-4.0567
X5.5402Y-4.1567
X5.5402Y-4.2567
X5.5402Y-4.3567
X5.5402Y-4.4567
X5.5402Y-4.5567
X5.5402Y-4.6567
T0
M30
