G04 ================== begin FILE IDENTIFICATION RECORD ==================*
G04 Layout Name:  CC26xx_5x5_JohBal.brd*
G04 Film Name:    drill*
G04 File Format:  Gerber RS274X*
G04 File Origin:  Cadence Allegro 16.6-S021*
G04 Origin Date:  Tue Jun 28 07:27:49 2016*
G04 *
G04 Layer:  BOARD GEOMETRY/DIMENSION*
G04 Layer:  MANUFACTURING/XSECTION_CHART*
G04 Layer:  MANUFACTURING/NCDRILL_LEGEND*
G04 Layer:  MANUFACTURING/NCLEGEND-1-2*
G04 Layer:  MANUFACTURING/NCLEGEND-1-4*
G04 Layer:  BOARD GEOMETRY/OUTLINE*
G04 *
G04 Offset:    (0.000 0.000)*
G04 Mirror:    No*
G04 Mode:      Positive*
G04 Rotation:  0*
G04 FullContactRelief:  No*
G04 UndefLineWidth:     0.020*
G04 ================== end FILE IDENTIFICATION RECORD ====================*
%FSLAX44Y44*MOMM*%
%IR0*IPPOS*OFA0.00000B0.00000*MIA0B0*SFA1.00000B1.00000*%
%AMMACRO10*
1,1,.02,.635,0.0*
20,1,.02,.635,0.0,.625353,-.110267,0.0*
1,1,.02,.625353,-.110267*
20,1,.02,.625353,-.110267,.596705,-.217183,0.0*
1,1,.02,.596705,-.217183*
20,1,.02,.596705,-.217183,.549926,-.3175,0.0*
1,1,.02,.549926,-.3175*
20,1,.02,.549926,-.3175,.486438,-.40817,0.0*
1,1,.02,.486438,-.40817*
20,1,.02,.486438,-.40817,.40817,-.486438,0.0*
1,1,.02,.40817,-.486438*
20,1,.02,.40817,-.486438,.3175,-.549926,0.0*
1,1,.02,.3175,-.549926*
20,1,.02,.3175,-.549926,.217183,-.596705,0.0*
1,1,.02,.217183,-.596705*
20,1,.02,.217183,-.596705,.110267,-.625353,0.0*
1,1,.02,.110267,-.625353*
20,1,.02,.110267,-.625353,0.0,-.635,0.0*
1,1,.02,0.0,-.635*
20,1,.02,0.0,-.635,-.110267,-.625353,0.0*
1,1,.02,-.110267,-.625353*
20,1,.02,-.110267,-.625353,-.217183,-.596705,0.0*
1,1,.02,-.217183,-.596705*
20,1,.02,-.217183,-.596705,-.3175,-.549926,0.0*
1,1,.02,-.3175,-.549926*
20,1,.02,-.3175,-.549926,-.40817,-.486438,0.0*
1,1,.02,-.40817,-.486438*
20,1,.02,-.40817,-.486438,-.486438,-.40817,0.0*
1,1,.02,-.486438,-.40817*
20,1,.02,-.486438,-.40817,-.549926,-.3175,0.0*
1,1,.02,-.549926,-.3175*
20,1,.02,-.549926,-.3175,-.596705,-.217183,0.0*
1,1,.02,-.596705,-.217183*
20,1,.02,-.596705,-.217183,-.625353,-.110267,0.0*
1,1,.02,-.625353,-.110267*
20,1,.02,-.625353,-.110267,-.635,0.0,0.0*
1,1,.02,-.635,0.0*
20,1,.02,-.635,0.0,-.625353,.110267,0.0*
1,1,.02,-.625353,.110267*
20,1,.02,-.625353,.110267,-.596705,.217183,0.0*
1,1,.02,-.596705,.217183*
20,1,.02,-.596705,.217183,-.549926,.3175,0.0*
1,1,.02,-.549926,.3175*
20,1,.02,-.549926,.3175,-.486438,.40817,0.0*
1,1,.02,-.486438,.40817*
20,1,.02,-.486438,.40817,-.40817,.486438,0.0*
1,1,.02,-.40817,.486438*
20,1,.02,-.40817,.486438,-.3175,.549926,0.0*
1,1,.02,-.3175,.549926*
20,1,.02,-.3175,.549926,-.217183,.596705,0.0*
1,1,.02,-.217183,.596705*
20,1,.02,-.217183,.596705,-.110267,.625353,0.0*
1,1,.02,-.110267,.625353*
20,1,.02,-.110267,.625353,0.0,.635,0.0*
1,1,.02,0.0,.635*
20,1,.02,0.0,.635,.110267,.625353,0.0*
1,1,.02,.110267,.625353*
20,1,.02,.110267,.625353,.217183,.596705,0.0*
1,1,.02,.217183,.596705*
20,1,.02,.217183,.596705,.3175,.549926,0.0*
1,1,.02,.3175,.549926*
20,1,.02,.3175,.549926,.40817,.486438,0.0*
1,1,.02,.40817,.486438*
20,1,.02,.40817,.486438,.486438,.40817,0.0*
1,1,.02,.486438,.40817*
20,1,.02,.486438,.40817,.549926,.3175,0.0*
1,1,.02,.549926,.3175*
20,1,.02,.549926,.3175,.596705,.217183,0.0*
1,1,.02,.596705,.217183*
20,1,.02,.596705,.217183,.625353,.110267,0.0*
1,1,.02,.625353,.110267*
20,1,.02,.625353,.110267,.635,0.0,0.0*
1,1,.02,.635,0.0*
1,1,.02,.3175,0.0*
20,1,.02,.3175,0.0,-.3175,0.0,0.0*
1,1,.02,-.3175,0.0*
1,1,.02,0.0,.3175*
20,1,.02,0.0,.3175,0.0,-.3175,0.0*
1,1,.02,0.0,-.3175*
%
%ADD10MACRO10*%
%AMMACRO11*
1,1,.02,0.0,1.*
20,1,.02,0.0,1.,1.,-1.,0.0*
1,1,.02,1.,-1.*
20,1,.02,1.,-1.,-1.,-1.,0.0*
1,1,.02,-1.,-1.*
20,1,.02,-1.,-1.,0.0,1.,0.0*
1,1,.02,0.0,1.*
1,1,.02,.5,0.0*
20,1,.02,.5,0.0,-.5,0.0,0.0*
1,1,.02,-.5,0.0*
1,1,.02,0.0,.5*
20,1,.02,0.0,.5,0.0,-.5,0.0*
1,1,.02,0.0,-.5*
%
%ADD11MACRO11*%
%ADD12C,.02*%
G75*
%LPD*%
G75*
G36*
G01X1094580Y1563490D02*
Y1685990D01*
X1297780D01*
Y1563490D01*
X1094580D01*
G37*
G36*
G01Y1941490D02*
Y2063990D01*
X1297780D01*
Y1941490D01*
X1094580D01*
G37*
G54D10*
X1078000Y1013000D03*
Y1051000D03*
X1080000Y1118000D03*
Y1278000D03*
X1117000Y949000D03*
X1081000Y967000D03*
X1114000Y1017000D03*
X1089000Y1055000D03*
Y1068000D03*
X1112000Y1043000D03*
X1113000Y1068560D03*
X1105000Y1147000D03*
X1118000Y1166000D03*
X1108000Y1214000D03*
X1097000Y1177000D03*
X1086000Y1203500D03*
X1084500Y1234000D03*
X1108000Y1258000D03*
X1159000Y946000D03*
X1142000Y994750D03*
X1144000Y1012000D03*
X1143760Y1003240D03*
X1139000Y1018000D03*
X1153000Y1029000D03*
X1140000Y1027500D03*
X1137000Y1005000D03*
X1142000Y1036000D03*
X1137250Y1056000D03*
X1153000D03*
X1132990Y1107020D03*
X1137000Y1092810D03*
X1153000Y1096000D03*
X1158000Y1120000D03*
X1152000Y1137000D03*
Y1167000D03*
X1168000Y1180000D03*
X1136000Y1201000D03*
X1155500Y1237500D03*
X1127000Y1224000D03*
X1153000Y1278000D03*
X1126000Y1274000D03*
X1179650Y573580D03*
X1196000Y980000D03*
X1190000Y977000D03*
X1202000Y987000D03*
X1208000Y947000D03*
X1185000Y965000D03*
X1189750Y1027000D03*
X1185000Y1032000D03*
X1196250Y1027000D03*
X1202000Y996000D03*
X1201000Y1032000D03*
X1174000Y1029000D03*
X1182990Y1038000D03*
X1172000Y1073000D03*
X1208000Y1086000D03*
X1213000Y1091000D03*
X1199000Y1106000D03*
X1190000Y1112000D03*
X1188000Y1096000D03*
X1184000Y1136000D03*
X1175000Y1165000D03*
X1207000Y1140000D03*
X1199000Y1132000D03*
X1187000Y1196000D03*
X1192000Y1261000D03*
X1208000Y1277000D03*
X1185000Y1276000D03*
X1253000Y974000D03*
X1245000Y948000D03*
X1259250Y1029500D03*
X1251000Y1035000D03*
X1245000Y1040000D03*
X1246000Y1068000D03*
X1232000Y1100000D03*
X1241000D03*
X1250000D03*
X1259000D03*
Y1109000D03*
X1250000D03*
X1241000D03*
X1232000D03*
X1259000Y1118000D03*
X1250000D03*
X1241000D03*
X1232000D03*
X1218000Y1086000D03*
X1259000Y1127000D03*
X1250000D03*
X1241000D03*
X1232000D03*
X1241000Y1162000D03*
X1230000Y1183000D03*
X1244000Y1180000D03*
Y1216000D03*
X1246500Y1248000D03*
X1240000Y1265000D03*
X1233000Y1276000D03*
X1293000Y948000D03*
X1291000Y1027000D03*
X1289750Y1035000D03*
X1282000Y1004000D03*
X1295250Y1041000D03*
X1300500Y1101000D03*
X1298000Y1094000D03*
X1271000Y1165000D03*
Y1159000D03*
X1279000Y1151000D03*
Y1160000D03*
X1272000Y1200000D03*
X1289000Y1208000D03*
X1267000Y1170000D03*
X1280000Y1175000D03*
X1273000Y1225000D03*
X1291500Y1243000D03*
X1267000Y1278000D03*
X1313000Y968000D03*
X1334000Y947000D03*
X1308000Y1021000D03*
X1331000Y1011000D03*
X1310000Y1045000D03*
X1315000Y1074500D03*
X1341500Y1058000D03*
X1347000Y1069000D03*
X1333000Y1106000D03*
X1312000Y1120000D03*
X1316000Y1089500D03*
X1305000Y1118000D03*
X1347000Y1146000D03*
X1307000Y1152000D03*
X1323000Y1208000D03*
X1306000Y1170000D03*
Y1278000D03*
X1312500Y1266000D03*
X1374000Y968000D03*
X1375000Y947000D03*
X1391000Y988000D03*
X1393000Y1018000D03*
X1354000Y1024000D03*
X1382000Y1009000D03*
X1391000Y994270D03*
X1385000Y1059000D03*
X1389000Y1056000D03*
X1381000D03*
X1389000Y1062000D03*
X1381000D03*
X1378000Y1071000D03*
X1366000Y1043000D03*
X1373000Y1051000D03*
X1368000Y1113000D03*
X1391000Y1107000D03*
X1392500Y1114000D03*
X1389500Y1090500D03*
X1391000Y1172000D03*
X1370000Y1188000D03*
X1353000Y1186000D03*
X1357000Y1238000D03*
X1368500Y1277000D03*
X1420000Y947000D03*
X1418000Y1094000D03*
Y1083000D03*
X1430000Y1121500D03*
X1423500Y1140500D03*
X1403500Y1156500D03*
X1413000Y1191000D03*
X1414000Y1243500D03*
X1437000Y1239000D03*
X1404500Y1220500D03*
X1403000Y1267500D03*
X1451000Y972000D03*
Y1009000D03*
Y1050000D03*
X1449000Y1084000D03*
X1444000Y1166000D03*
X1447000Y1213000D03*
Y1278000D03*
X1442000Y1264500D03*
G54D11*
X1113020Y969820D03*
Y1115880D03*
X1179650Y502200D03*
X1417820Y969820D03*
Y1115880D03*
G54D12*
G01X1065500Y466520D02*
Y817000D01*
X2293600D01*
Y466520D01*
X1065500D01*
G01Y537890D02*
X2293600D01*
G01X1065500Y609260D02*
X2293600D01*
G01X1065500Y680630D02*
X2293600D01*
G01X1065500Y752000D02*
X2293600D01*
G01X1070000Y937000D02*
X1461000D01*
Y1360000D01*
X1070000D01*
Y937000D01*
G01Y1339540D02*
Y1435000D01*
G01X1276000Y1410000D02*
X1070000D01*
G01X1110000Y1416250D02*
X1070000Y1410000D01*
X1110000Y1403750D01*
Y1416250D01*
G01X1071000Y2231500D02*
X1094620D01*
G01X1102490D02*
X1126110D01*
G01X1133980D02*
X1157600D01*
G01X1165470D02*
X1189090D01*
G01X1196960D02*
X1220580D01*
G01X1228450D02*
X1252070D01*
G01X1259940D02*
X1283560D01*
G01X1291430D02*
X1315050D01*
G01X1322920D02*
X1346540D01*
G01X1354410D02*
X1378030D01*
G01X1385900D02*
X1409520D01*
G01X1417390D02*
X1441010D01*
G01X1448880D02*
X1472500D01*
G01X1480370D02*
X1503990D01*
G01X1511860D02*
X1535480D01*
G01X1543350D02*
X1566970D01*
G01X1574840D02*
X1598460D01*
G01X1606330D02*
X1629950D01*
G01X1637820D02*
X1661440D01*
G01X1669310D02*
X1692930D01*
G01X1700800D02*
X1724420D01*
G01X1732290D02*
X1755910D01*
G01X1763780D02*
X1787400D01*
G01X1795270D02*
X1818890D01*
G01X1826760D02*
X1850380D01*
G01X1858250D02*
X1881870D01*
G01X1889740D02*
X1913360D01*
G01X1093440Y633000D02*
Y664750D01*
X1108400D01*
G01X1102890Y649400D02*
X1093440D01*
G01X1127690Y664750D02*
X1137130D01*
G01X1132410D02*
Y633000D01*
G01X1127690D02*
X1137130D01*
G01X1166260Y648870D02*
X1174140D01*
Y639350D01*
X1171770Y636170D01*
X1169020Y634060D01*
X1165080Y633000D01*
X1161140Y634060D01*
X1158390Y636170D01*
X1156030Y639350D01*
X1154450Y643050D01*
X1153660Y647290D01*
Y650990D01*
X1154450Y654170D01*
X1156030Y657870D01*
X1158390Y661050D01*
X1160750Y663160D01*
X1163900Y664750D01*
X1166660D01*
X1169800Y663690D01*
X1172170Y661570D01*
G01X1186730Y664750D02*
Y642000D01*
X1188300Y637230D01*
X1191450Y634060D01*
X1195390Y633000D01*
X1199330Y634060D01*
X1202480Y637230D01*
X1204050Y642000D01*
Y664750D01*
G01X1219010Y633000D02*
Y664750D01*
X1228850D01*
X1232000Y663160D01*
X1233970Y661050D01*
X1234750Y656810D01*
X1233970Y652580D01*
X1231600Y649930D01*
X1228850Y648350D01*
X1219010D01*
G01X1228850D02*
X1234750Y633000D01*
G01X1266240D02*
X1250500D01*
Y664750D01*
X1266240D01*
G01X1259940Y649400D02*
X1250500D01*
G01X1094580Y1685990D02*
Y1941490D01*
X1297780D01*
Y1685990D01*
X1094580D01*
G01X1089890Y2242080D02*
Y2273830D01*
X1097760D01*
X1100910Y2272240D01*
X1103270Y2270130D01*
X1105240Y2266950D01*
X1106820Y2263250D01*
X1107210Y2257950D01*
X1106820Y2252660D01*
X1105240Y2248960D01*
X1103270Y2245780D01*
X1100910Y2243670D01*
X1097760Y2242080D01*
X1089890D01*
G01X1137910D02*
X1122170D01*
Y2273830D01*
X1137910D01*
G01X1131610Y2258480D02*
X1122170D01*
G01X1153260Y2246310D02*
X1156410Y2243670D01*
X1159960Y2242080D01*
X1163100D01*
X1166250Y2243670D01*
X1168620Y2246310D01*
X1169800Y2250020D01*
X1169010Y2253720D01*
X1167040Y2256900D01*
X1163500Y2259010D01*
X1158770Y2260070D01*
X1156020Y2262190D01*
X1154840Y2265890D01*
X1155630Y2269600D01*
X1157590Y2272240D01*
X1160350Y2273830D01*
X1163100D01*
X1165860Y2272770D01*
X1168220Y2270130D01*
G01X1188300Y2273830D02*
X1197740D01*
G01X1193020D02*
Y2242080D01*
G01X1188300D02*
X1197740D01*
G01X1226870Y2257950D02*
X1234750D01*
Y2248430D01*
X1232380Y2245250D01*
X1229630Y2243140D01*
X1225690Y2242080D01*
X1221750Y2243140D01*
X1219000Y2245250D01*
X1216640Y2248430D01*
X1215060Y2252130D01*
X1214270Y2256370D01*
Y2260070D01*
X1215060Y2263250D01*
X1216640Y2266950D01*
X1219000Y2270130D01*
X1221360Y2272240D01*
X1224510Y2273830D01*
X1227270D01*
X1230410Y2272770D01*
X1232780Y2270650D01*
G01X1246950Y2242080D02*
Y2273830D01*
X1265050Y2242080D01*
Y2273830D01*
G01X1327640Y2271180D02*
X1325280Y2272770D01*
X1322520Y2273830D01*
X1319370D01*
X1315830Y2272240D01*
X1313080Y2269600D01*
X1311110Y2266420D01*
X1309530Y2261130D01*
X1309140Y2256370D01*
X1309930Y2251600D01*
X1311110Y2248430D01*
X1313470Y2245250D01*
X1316220Y2243140D01*
X1318980Y2242080D01*
X1321740D01*
X1324490Y2243140D01*
X1326850Y2244730D01*
X1328820Y2246840D01*
G01X1342600Y2242080D02*
Y2273830D01*
X1352440D01*
X1355590Y2272240D01*
X1357560Y2270130D01*
X1358340Y2265890D01*
X1357560Y2261660D01*
X1355190Y2259010D01*
X1352440Y2257430D01*
X1342600D01*
G01X1352440D02*
X1358340Y2242080D01*
G01X1381960D02*
X1378810Y2242610D01*
X1376060Y2244730D01*
X1373690Y2247900D01*
X1372120Y2251600D01*
X1371330Y2255840D01*
Y2260070D01*
X1372120Y2264310D01*
X1373690Y2268010D01*
X1376060Y2271180D01*
X1378810Y2273300D01*
X1381960Y2273830D01*
X1385110Y2273300D01*
X1387860Y2271180D01*
X1390230Y2268010D01*
X1391800Y2264310D01*
X1392590Y2260070D01*
Y2255840D01*
X1391800Y2251600D01*
X1390230Y2247900D01*
X1387860Y2244730D01*
X1385110Y2242610D01*
X1381960Y2242080D01*
G01X1405180Y2246310D02*
X1408330Y2243670D01*
X1411880Y2242080D01*
X1415020D01*
X1418170Y2243670D01*
X1420540Y2246310D01*
X1421720Y2250020D01*
X1420930Y2253720D01*
X1418960Y2256900D01*
X1415420Y2259010D01*
X1410690Y2260070D01*
X1407940Y2262190D01*
X1406760Y2265890D01*
X1407550Y2269600D01*
X1409510Y2272240D01*
X1412270Y2273830D01*
X1415020D01*
X1417780Y2272770D01*
X1420140Y2270130D01*
G01X1436670Y2246310D02*
X1439820Y2243670D01*
X1443370Y2242080D01*
X1446510D01*
X1449660Y2243670D01*
X1452030Y2246310D01*
X1453210Y2250020D01*
X1452420Y2253720D01*
X1450450Y2256900D01*
X1446910Y2259010D01*
X1442180Y2260070D01*
X1439430Y2262190D01*
X1438250Y2265890D01*
X1439040Y2269600D01*
X1441000Y2272240D01*
X1443760Y2273830D01*
X1446510D01*
X1449270Y2272770D01*
X1451630Y2270130D01*
G01X1499650Y2246310D02*
X1502800Y2243670D01*
X1506350Y2242080D01*
X1509490D01*
X1512640Y2243670D01*
X1515010Y2246310D01*
X1516190Y2250020D01*
X1515400Y2253720D01*
X1513430Y2256900D01*
X1509890Y2259010D01*
X1505160Y2260070D01*
X1502410Y2262190D01*
X1501230Y2265890D01*
X1502020Y2269600D01*
X1503980Y2272240D01*
X1506740Y2273830D01*
X1509490D01*
X1512250Y2272770D01*
X1514610Y2270130D01*
G01X1547280Y2242080D02*
X1531540D01*
Y2273830D01*
X1547280D01*
G01X1540980Y2258480D02*
X1531540D01*
G01X1579560Y2271180D02*
X1577200Y2272770D01*
X1574440Y2273830D01*
X1571290D01*
X1567750Y2272240D01*
X1565000Y2269600D01*
X1563030Y2266420D01*
X1561450Y2261130D01*
X1561060Y2256370D01*
X1561850Y2251600D01*
X1563030Y2248430D01*
X1565390Y2245250D01*
X1568140Y2243140D01*
X1570900Y2242080D01*
X1573660D01*
X1576410Y2243140D01*
X1578770Y2244730D01*
X1580740Y2246840D01*
G01X1602390Y2273830D02*
Y2242080D01*
G01X1593340Y2273830D02*
X1611440D01*
G01X1629160D02*
X1638600D01*
G01X1633880D02*
Y2242080D01*
G01X1629160D02*
X1638600D01*
G01X1665370D02*
X1662220Y2242610D01*
X1659470Y2244730D01*
X1657100Y2247900D01*
X1655530Y2251600D01*
X1654740Y2255840D01*
Y2260070D01*
X1655530Y2264310D01*
X1657100Y2268010D01*
X1659470Y2271180D01*
X1662220Y2273300D01*
X1665370Y2273830D01*
X1668520Y2273300D01*
X1671270Y2271180D01*
X1673640Y2268010D01*
X1675210Y2264310D01*
X1676000Y2260070D01*
Y2255840D01*
X1675210Y2251600D01*
X1673640Y2247900D01*
X1671270Y2244730D01*
X1668520Y2242610D01*
X1665370Y2242080D01*
G01X1687810D02*
Y2273830D01*
X1705910Y2242080D01*
Y2273830D01*
G01X1768500Y2271180D02*
X1766140Y2272770D01*
X1763380Y2273830D01*
X1760230D01*
X1756690Y2272240D01*
X1753940Y2269600D01*
X1751970Y2266420D01*
X1750390Y2261130D01*
X1750000Y2256370D01*
X1750790Y2251600D01*
X1751970Y2248430D01*
X1754330Y2245250D01*
X1757080Y2243140D01*
X1759840Y2242080D01*
X1762600D01*
X1765350Y2243140D01*
X1767710Y2244730D01*
X1769680Y2246840D01*
G01X1783060Y2242080D02*
Y2273830D01*
G01X1799600D02*
Y2242080D01*
G01Y2257950D02*
X1783060D01*
G01X1812980Y2242080D02*
X1822820Y2273830D01*
X1832660Y2242080D01*
G01X1829120Y2253190D02*
X1816520D01*
G01X1846440Y2242080D02*
Y2273830D01*
X1856280D01*
X1859430Y2272240D01*
X1861400Y2270130D01*
X1862180Y2265890D01*
X1861400Y2261660D01*
X1859030Y2259010D01*
X1856280Y2257430D01*
X1846440D01*
G01X1856280D02*
X1862180Y2242080D01*
G01X1885800Y2273830D02*
Y2242080D01*
G01X1876750Y2273830D02*
X1894850D01*
G01X1161530Y2210330D02*
Y2178580D01*
G01X1152480Y2210330D02*
X1170580D01*
G01X1193020Y2178580D02*
X1189870Y2179110D01*
X1187120Y2181230D01*
X1184750Y2184400D01*
X1183180Y2188100D01*
X1182390Y2192340D01*
Y2196570D01*
X1183180Y2200810D01*
X1184750Y2204510D01*
X1187120Y2207680D01*
X1189870Y2209800D01*
X1193020Y2210330D01*
X1196170Y2209800D01*
X1198920Y2207680D01*
X1201290Y2204510D01*
X1202860Y2200810D01*
X1203650Y2196570D01*
Y2192340D01*
X1202860Y2188100D01*
X1201290Y2184400D01*
X1198920Y2181230D01*
X1196170Y2179110D01*
X1193020Y2178580D01*
G01X1224510Y2210330D02*
Y2178580D01*
G01X1215460Y2210330D02*
X1233560D01*
G01X1246160Y2178580D02*
X1256000Y2210330D01*
X1265840Y2178580D01*
G01X1262300Y2189690D02*
X1249700D01*
G01X1279620Y2210330D02*
Y2178580D01*
X1295360D01*
G01X1350470Y2210330D02*
Y2178580D01*
G01X1341420Y2210330D02*
X1359520D01*
G01X1373690Y2178580D02*
Y2210330D01*
G01X1390230D02*
Y2178580D01*
G01Y2194450D02*
X1373690D01*
G01X1408730Y2210330D02*
X1418170D01*
G01X1413450D02*
Y2178580D01*
G01X1408730D02*
X1418170D01*
G01X1453600Y2207680D02*
X1451240Y2209270D01*
X1448480Y2210330D01*
X1445330D01*
X1441790Y2208740D01*
X1439040Y2206100D01*
X1437070Y2202920D01*
X1435490Y2197630D01*
X1435100Y2192870D01*
X1435890Y2188100D01*
X1437070Y2184930D01*
X1439430Y2181750D01*
X1442180Y2179640D01*
X1444940Y2178580D01*
X1447700D01*
X1450450Y2179640D01*
X1452810Y2181230D01*
X1454780Y2183340D01*
G01X1467770Y2178580D02*
Y2210330D01*
G01X1482730D02*
X1467770Y2190750D01*
G01X1485090Y2178580D02*
X1474460Y2199750D01*
G01X1498870Y2178580D02*
Y2210330D01*
X1516970Y2178580D01*
Y2210330D01*
G01X1547280Y2178580D02*
X1531540D01*
Y2210330D01*
X1547280D01*
G01X1540980Y2194980D02*
X1531540D01*
G01X1562630Y2182810D02*
X1565780Y2180170D01*
X1569330Y2178580D01*
X1572470D01*
X1575620Y2180170D01*
X1577990Y2182810D01*
X1579170Y2186520D01*
X1578380Y2190220D01*
X1576410Y2193400D01*
X1572870Y2195510D01*
X1568140Y2196570D01*
X1565390Y2198690D01*
X1564210Y2202390D01*
X1565000Y2206100D01*
X1566960Y2208740D01*
X1569720Y2210330D01*
X1572470D01*
X1575230Y2209270D01*
X1577590Y2206630D01*
G01X1594120Y2182810D02*
X1597270Y2180170D01*
X1600820Y2178580D01*
X1603960D01*
X1607110Y2180170D01*
X1609480Y2182810D01*
X1610660Y2186520D01*
X1609870Y2190220D01*
X1607900Y2193400D01*
X1604360Y2195510D01*
X1599630Y2196570D01*
X1596880Y2198690D01*
X1595700Y2202390D01*
X1596490Y2206100D01*
X1598450Y2208740D01*
X1601210Y2210330D01*
X1603960D01*
X1606720Y2209270D01*
X1609080Y2206630D01*
G01X1665370Y2210330D02*
X1662220Y2209270D01*
X1659860Y2206630D01*
X1658280Y2203450D01*
X1657100Y2199220D01*
X1656710Y2194450D01*
X1657100Y2189690D01*
X1658280Y2185460D01*
X1659860Y2182280D01*
X1662220Y2179640D01*
X1665370Y2178580D01*
X1668520Y2179640D01*
X1670880Y2182280D01*
X1672460Y2185460D01*
X1673640Y2189690D01*
X1674030Y2194450D01*
X1673640Y2199220D01*
X1672460Y2203450D01*
X1670880Y2206630D01*
X1668520Y2209270D01*
X1665370Y2210330D01*
G01X1696860Y2177520D02*
X1696070Y2178050D01*
Y2179110D01*
X1696860Y2179640D01*
X1697650Y2179110D01*
Y2178050D01*
X1696860Y2177520D01*
G01X1728350Y2178580D02*
X1731110Y2179110D01*
X1734250Y2180700D01*
X1736220Y2183340D01*
X1737010Y2187050D01*
X1736220Y2190750D01*
X1733860Y2193930D01*
X1730320Y2195510D01*
X1726380D01*
X1724020Y2196570D01*
X1722050Y2199220D01*
X1721260Y2202920D01*
X1722450Y2206630D01*
X1725200Y2209270D01*
X1728350Y2210330D01*
X1731500Y2209270D01*
X1734250Y2206630D01*
X1735440Y2202920D01*
X1734650Y2199220D01*
X1732680Y2196570D01*
X1730320Y2195510D01*
X1726380D01*
X1722840Y2193930D01*
X1720480Y2190750D01*
X1719690Y2187050D01*
X1720480Y2183340D01*
X1722450Y2180700D01*
X1725590Y2179110D01*
X1728350Y2178580D01*
G01X1781090D02*
Y2210330D01*
X1791330Y2183870D01*
X1801570Y2210330D01*
Y2178580D01*
G01X1812580D02*
Y2210330D01*
X1822820Y2183870D01*
X1833060Y2210330D01*
Y2178580D01*
G01X1244590Y704380D02*
X1254430Y736130D01*
X1264270Y704380D01*
G01X1260730Y715490D02*
X1248130D01*
G01X1278050Y736130D02*
Y704380D01*
X1293790D01*
G01X1309540Y736130D02*
Y704380D01*
X1325280D01*
G01X1371730Y736130D02*
Y713380D01*
X1373300Y708610D01*
X1376450Y705440D01*
X1380390Y704380D01*
X1384330Y705440D01*
X1387480Y708610D01*
X1389050Y713380D01*
Y736130D01*
G01X1402830Y704380D02*
Y736130D01*
X1420930Y704380D01*
Y736130D01*
G01X1438650D02*
X1448090D01*
G01X1443370D02*
Y704380D01*
G01X1438650D02*
X1448090D01*
G01X1474860Y736130D02*
Y704380D01*
G01X1465810Y736130D02*
X1483910D01*
G01X1498080Y708610D02*
X1501230Y705970D01*
X1504780Y704380D01*
X1507920D01*
X1511070Y705970D01*
X1513440Y708610D01*
X1514620Y712320D01*
X1513830Y716020D01*
X1511860Y719200D01*
X1508320Y721310D01*
X1503590Y722370D01*
X1500840Y724490D01*
X1499660Y728190D01*
X1500450Y731900D01*
X1502410Y734540D01*
X1505170Y736130D01*
X1507920D01*
X1510680Y735070D01*
X1513040Y732430D01*
G01X1559490Y704380D02*
X1569330Y736130D01*
X1579170Y704380D01*
G01X1575630Y715490D02*
X1563030D01*
G01X1592950Y704380D02*
Y736130D01*
X1602790D01*
X1605940Y734540D01*
X1607910Y732430D01*
X1608690Y728190D01*
X1607910Y723960D01*
X1605540Y721310D01*
X1602790Y719730D01*
X1592950D01*
G01X1602790D02*
X1608690Y704380D01*
G01X1640180D02*
X1624440D01*
Y736130D01*
X1640180D01*
G01X1633880Y720780D02*
X1624440D01*
G01X1690570Y736130D02*
X1700010D01*
G01X1695290D02*
Y704380D01*
G01X1690570D02*
X1700010D01*
G01X1717730D02*
Y736130D01*
X1735830Y704380D01*
Y736130D01*
G01X1779520Y704380D02*
Y736130D01*
X1789760Y709670D01*
X1800000Y736130D01*
Y704380D01*
G01X1816530Y736130D02*
X1825970D01*
G01X1821250D02*
Y704380D01*
G01X1816530D02*
X1825970D01*
G01X1844870Y736130D02*
Y704380D01*
X1860610D01*
G01X1876360Y736130D02*
Y704380D01*
X1892100D01*
G01X1911000Y736130D02*
X1920440D01*
G01X1915720D02*
Y704380D01*
G01X1911000D02*
X1920440D01*
G01X1936970D02*
Y736130D01*
X1947210Y709670D01*
X1957450Y736130D01*
Y704380D01*
G01X1986570D02*
X1970830D01*
Y736130D01*
X1986570D01*
G01X1980270Y720780D02*
X1970830D01*
G01X2010190Y736130D02*
Y704380D01*
G01X2001140Y736130D02*
X2019240D01*
G01X2049550Y704380D02*
X2033810D01*
Y736130D01*
X2049550D01*
G01X2043250Y720780D02*
X2033810D01*
G01X2065300Y704380D02*
Y736130D01*
X2075140D01*
X2078290Y734540D01*
X2080260Y732430D01*
X2081040Y728190D01*
X2080260Y723960D01*
X2077890Y721310D01*
X2075140Y719730D01*
X2065300D01*
G01X2075140D02*
X2081040Y704380D01*
G01X2096390Y708610D02*
X2099540Y705970D01*
X2103090Y704380D01*
X2106230D01*
X2109380Y705970D01*
X2111750Y708610D01*
X2112930Y712320D01*
X2112140Y716020D01*
X2110170Y719200D01*
X2106630Y721310D01*
X2101900Y722370D01*
X2099150Y724490D01*
X2097970Y728190D01*
X2098760Y731900D01*
X2100720Y734540D01*
X2103480Y736130D01*
X2106230D01*
X2108990Y735070D01*
X2111350Y732430D01*
G01X1220100Y1432220D02*
X1222460Y1428520D01*
X1225610Y1426400D01*
X1229150Y1425870D01*
X1232300Y1426400D01*
X1235450Y1429040D01*
X1237420Y1432220D01*
X1237810Y1435390D01*
X1237030Y1439100D01*
X1234270Y1441740D01*
X1231520Y1442800D01*
X1227970D01*
G01X1231520D02*
X1233880Y1444390D01*
X1235850Y1447040D01*
X1236630Y1450210D01*
X1235850Y1453390D01*
X1233880Y1456030D01*
X1230330Y1457620D01*
X1226790Y1457090D01*
X1223250Y1454970D01*
G01X1253560Y1429570D02*
X1256310Y1426930D01*
X1259460Y1425870D01*
X1262610Y1426930D01*
X1265370Y1430100D01*
X1267340Y1434870D01*
X1268120Y1439630D01*
Y1445450D01*
X1267340Y1450210D01*
X1265370Y1454440D01*
X1263010Y1456560D01*
X1260250Y1457620D01*
X1257100Y1456560D01*
X1254740Y1454440D01*
X1253160Y1451270D01*
X1252380Y1447040D01*
X1253160Y1443330D01*
X1255130Y1439630D01*
X1257490Y1437510D01*
X1260250Y1436980D01*
X1263400Y1438040D01*
X1265760Y1440690D01*
X1268120Y1445450D01*
G01X1291740Y1424810D02*
X1290950Y1425340D01*
Y1426400D01*
X1291740Y1426930D01*
X1292530Y1426400D01*
Y1425340D01*
X1291740Y1424810D01*
G01X1323230Y1425870D02*
Y1457620D01*
X1318510Y1451270D01*
G01Y1425870D02*
X1327950D01*
G01X1293800Y680630D02*
Y466520D01*
G01X1277260Y769380D02*
Y801130D01*
X1285130D01*
X1288280Y799540D01*
X1290640Y797430D01*
X1292610Y794250D01*
X1294190Y790550D01*
X1294580Y785250D01*
X1294190Y779960D01*
X1292610Y776260D01*
X1290640Y773080D01*
X1288280Y770970D01*
X1285130Y769380D01*
X1277260D01*
G01X1309540D02*
Y801130D01*
X1319380D01*
X1322530Y799540D01*
X1324500Y797430D01*
X1325280Y793190D01*
X1324500Y788960D01*
X1322130Y786310D01*
X1319380Y784730D01*
X1309540D01*
G01X1319380D02*
X1325280Y769380D01*
G01X1344180Y801130D02*
X1353620D01*
G01X1348900D02*
Y769380D01*
G01X1344180D02*
X1353620D01*
G01X1372520Y801130D02*
Y769380D01*
X1388260D01*
G01X1404010Y801130D02*
Y769380D01*
X1419750D01*
G01X1483520Y798480D02*
X1481160Y800070D01*
X1478400Y801130D01*
X1475250D01*
X1471710Y799540D01*
X1468960Y796900D01*
X1466990Y793720D01*
X1465410Y788430D01*
X1465020Y783670D01*
X1465810Y778900D01*
X1466990Y775730D01*
X1469350Y772550D01*
X1472100Y770440D01*
X1474860Y769380D01*
X1477620D01*
X1480370Y770440D01*
X1482730Y772030D01*
X1484700Y774140D01*
G01X1498080Y769380D02*
Y801130D01*
G01X1514620D02*
Y769380D01*
G01Y785250D02*
X1498080D01*
G01X1528000Y769380D02*
X1537840Y801130D01*
X1547680Y769380D01*
G01X1544140Y780490D02*
X1531540D01*
G01X1561460Y769380D02*
Y801130D01*
X1571300D01*
X1574450Y799540D01*
X1576420Y797430D01*
X1577200Y793190D01*
X1576420Y788960D01*
X1574050Y786310D01*
X1571300Y784730D01*
X1561460D01*
G01X1571300D02*
X1577200Y769380D01*
G01X1600820Y801130D02*
Y769380D01*
G01X1591770Y801130D02*
X1609870D01*
G01X1632310Y768320D02*
X1631520Y768850D01*
Y769910D01*
X1632310Y770440D01*
X1633100Y769910D01*
Y768850D01*
X1632310Y768320D01*
G01Y782610D02*
X1631520Y783140D01*
Y784200D01*
X1632310Y784730D01*
X1633100Y784200D01*
Y783140D01*
X1632310Y782610D01*
G01X1695290Y801130D02*
Y769380D01*
G01X1686240Y801130D02*
X1704340D01*
G01X1726780Y769380D02*
X1723630Y769910D01*
X1720880Y772030D01*
X1718510Y775200D01*
X1716940Y778900D01*
X1716150Y783140D01*
Y787370D01*
X1716940Y791610D01*
X1718510Y795310D01*
X1720880Y798480D01*
X1723630Y800600D01*
X1726780Y801130D01*
X1729930Y800600D01*
X1732680Y798480D01*
X1735050Y795310D01*
X1736620Y791610D01*
X1737410Y787370D01*
Y783140D01*
X1736620Y778900D01*
X1735050Y775200D01*
X1732680Y772030D01*
X1729930Y769910D01*
X1726780Y769380D01*
G01X1750400D02*
Y801130D01*
X1759840D01*
X1762990Y799540D01*
X1765360Y795840D01*
X1766140Y791610D01*
X1765360Y787370D01*
X1763390Y784200D01*
X1759840Y782610D01*
X1750400D01*
G01X1821250Y801130D02*
Y769380D01*
G01X1815740Y790550D02*
X1826760D01*
G01X1852740Y769380D02*
X1850380Y769910D01*
X1848020Y772030D01*
X1846440Y775730D01*
X1845650Y779960D01*
X1846440Y784200D01*
X1848020Y787900D01*
X1850380Y790020D01*
X1852740Y790550D01*
X1855100Y790020D01*
X1857460Y787900D01*
X1859040Y784200D01*
X1859430Y779960D01*
X1859040Y775730D01*
X1857460Y772030D01*
X1855100Y769910D01*
X1852740Y769380D01*
G01X1918870Y786310D02*
X1920440Y787900D01*
X1921620Y790550D01*
X1922410Y794250D01*
X1921620Y797430D01*
X1920050Y799540D01*
X1917290Y801130D01*
X1906670D01*
Y769380D01*
X1919660D01*
X1922410Y771500D01*
X1923990Y774670D01*
X1924770Y778380D01*
X1923990Y782080D01*
X1921620Y785250D01*
X1918870Y786310D01*
X1906670D01*
G01X1947210Y769380D02*
X1944060Y769910D01*
X1941310Y772030D01*
X1938940Y775200D01*
X1937370Y778900D01*
X1936580Y783140D01*
Y787370D01*
X1937370Y791610D01*
X1938940Y795310D01*
X1941310Y798480D01*
X1944060Y800600D01*
X1947210Y801130D01*
X1950360Y800600D01*
X1953110Y798480D01*
X1955480Y795310D01*
X1957050Y791610D01*
X1957840Y787370D01*
Y783140D01*
X1957050Y778900D01*
X1955480Y775200D01*
X1953110Y772030D01*
X1950360Y769910D01*
X1947210Y769380D01*
G01X1978700Y801130D02*
Y769380D01*
G01X1969650Y801130D02*
X1987750D01*
G01X2010190D02*
Y769380D01*
G01X2001140Y801130D02*
X2019240D01*
G01X2041680Y769380D02*
X2038530Y769910D01*
X2035780Y772030D01*
X2033410Y775200D01*
X2031840Y778900D01*
X2031050Y783140D01*
Y787370D01*
X2031840Y791610D01*
X2033410Y795310D01*
X2035780Y798480D01*
X2038530Y800600D01*
X2041680Y801130D01*
X2044830Y800600D01*
X2047580Y798480D01*
X2049950Y795310D01*
X2051520Y791610D01*
X2052310Y787370D01*
Y783140D01*
X2051520Y778900D01*
X2049950Y775200D01*
X2047580Y772030D01*
X2044830Y769910D01*
X2041680Y769380D01*
G01X2062930D02*
Y801130D01*
X2073170Y774670D01*
X2083410Y801130D01*
Y769380D01*
G01X1276000Y1410000D02*
X1461000D01*
G01X1333210Y1656490D02*
Y1624740D01*
X1348950D01*
G01X1365090Y1651200D02*
X1367450Y1654370D01*
X1370210Y1655960D01*
X1373360Y1656490D01*
X1377290Y1655430D01*
X1380050Y1652790D01*
X1380840Y1649610D01*
X1380440Y1646440D01*
X1378870Y1643790D01*
X1371000Y1638500D01*
X1367450Y1634790D01*
X1365090Y1629500D01*
X1364300Y1624740D01*
X1380840D01*
G01X1404060Y1623680D02*
X1403270Y1624210D01*
Y1625270D01*
X1404060Y1625800D01*
X1404850Y1625270D01*
Y1624210D01*
X1404060Y1623680D01*
G01Y1637970D02*
X1403270Y1638500D01*
Y1639560D01*
X1404060Y1640090D01*
X1404850Y1639560D01*
Y1638500D01*
X1404060Y1637970D01*
G01X1470190Y1641670D02*
X1471760Y1643260D01*
X1472940Y1645910D01*
X1473730Y1649610D01*
X1472940Y1652790D01*
X1471370Y1654900D01*
X1468610Y1656490D01*
X1457990D01*
Y1624740D01*
X1470980D01*
X1473730Y1626860D01*
X1475310Y1630030D01*
X1476090Y1633740D01*
X1475310Y1637440D01*
X1472940Y1640610D01*
X1470190Y1641670D01*
X1457990D01*
G01X1498530Y1624740D02*
X1495380Y1625270D01*
X1492630Y1627390D01*
X1490260Y1630560D01*
X1488690Y1634260D01*
X1487900Y1638500D01*
Y1642730D01*
X1488690Y1646970D01*
X1490260Y1650670D01*
X1492630Y1653840D01*
X1495380Y1655960D01*
X1498530Y1656490D01*
X1501680Y1655960D01*
X1504430Y1653840D01*
X1506800Y1650670D01*
X1508370Y1646970D01*
X1509160Y1642730D01*
Y1638500D01*
X1508370Y1634260D01*
X1506800Y1630560D01*
X1504430Y1627390D01*
X1501680Y1625270D01*
X1498530Y1624740D01*
G01X1530020Y1656490D02*
Y1624740D01*
G01X1520970Y1656490D02*
X1539070D01*
G01X1561510D02*
Y1624740D01*
G01X1552460Y1656490D02*
X1570560D01*
G01X1593000Y1624740D02*
X1589850Y1625270D01*
X1587100Y1627390D01*
X1584730Y1630560D01*
X1583160Y1634260D01*
X1582370Y1638500D01*
Y1642730D01*
X1583160Y1646970D01*
X1584730Y1650670D01*
X1587100Y1653840D01*
X1589850Y1655960D01*
X1593000Y1656490D01*
X1596150Y1655960D01*
X1598900Y1653840D01*
X1601270Y1650670D01*
X1602840Y1646970D01*
X1603630Y1642730D01*
Y1638500D01*
X1602840Y1634260D01*
X1601270Y1630560D01*
X1598900Y1627390D01*
X1596150Y1625270D01*
X1593000Y1624740D01*
G01X1614250D02*
Y1656490D01*
X1624490Y1630030D01*
X1634730Y1656490D01*
Y1624740D01*
G01X1696130Y1653840D02*
X1693770Y1655430D01*
X1691010Y1656490D01*
X1687860D01*
X1684320Y1654900D01*
X1681570Y1652260D01*
X1679600Y1649080D01*
X1678020Y1643790D01*
X1677630Y1639030D01*
X1678420Y1634260D01*
X1679600Y1631090D01*
X1681960Y1627910D01*
X1684710Y1625800D01*
X1687470Y1624740D01*
X1690230D01*
X1692980Y1625800D01*
X1695340Y1627390D01*
X1697310Y1629500D01*
G01X1718960Y1624740D02*
X1715810Y1625270D01*
X1713060Y1627390D01*
X1710690Y1630560D01*
X1709120Y1634260D01*
X1708330Y1638500D01*
Y1642730D01*
X1709120Y1646970D01*
X1710690Y1650670D01*
X1713060Y1653840D01*
X1715810Y1655960D01*
X1718960Y1656490D01*
X1722110Y1655960D01*
X1724860Y1653840D01*
X1727230Y1650670D01*
X1728800Y1646970D01*
X1729590Y1642730D01*
Y1638500D01*
X1728800Y1634260D01*
X1727230Y1630560D01*
X1724860Y1627390D01*
X1722110Y1625270D01*
X1718960Y1624740D01*
G01X1741400D02*
Y1656490D01*
X1759500Y1624740D01*
Y1656490D01*
G01X1773280Y1624740D02*
Y1656490D01*
X1781150D01*
X1784300Y1654900D01*
X1786660Y1652790D01*
X1788630Y1649610D01*
X1790210Y1645910D01*
X1790600Y1640610D01*
X1790210Y1635320D01*
X1788630Y1631620D01*
X1786660Y1628440D01*
X1784300Y1626330D01*
X1781150Y1624740D01*
X1773280D01*
G01X1804770Y1656490D02*
Y1633740D01*
X1806340Y1628970D01*
X1809490Y1625800D01*
X1813430Y1624740D01*
X1817370Y1625800D01*
X1820520Y1628970D01*
X1822090Y1633740D01*
Y1656490D01*
G01X1853580Y1653840D02*
X1851220Y1655430D01*
X1848460Y1656490D01*
X1845310D01*
X1841770Y1654900D01*
X1839020Y1652260D01*
X1837050Y1649080D01*
X1835470Y1643790D01*
X1835080Y1639030D01*
X1835870Y1634260D01*
X1837050Y1631090D01*
X1839410Y1627910D01*
X1842160Y1625800D01*
X1844920Y1624740D01*
X1847680D01*
X1850430Y1625800D01*
X1852790Y1627390D01*
X1854760Y1629500D01*
G01X1876410Y1656490D02*
Y1624740D01*
G01X1867360Y1656490D02*
X1885460D01*
G01X1907900Y1624740D02*
X1904750Y1625270D01*
X1902000Y1627390D01*
X1899630Y1630560D01*
X1898060Y1634260D01*
X1897270Y1638500D01*
Y1642730D01*
X1898060Y1646970D01*
X1899630Y1650670D01*
X1902000Y1653840D01*
X1904750Y1655960D01*
X1907900Y1656490D01*
X1911050Y1655960D01*
X1913800Y1653840D01*
X1916170Y1650670D01*
X1917740Y1646970D01*
X1918530Y1642730D01*
Y1638500D01*
X1917740Y1634260D01*
X1916170Y1630560D01*
X1913800Y1627390D01*
X1911050Y1625270D01*
X1907900Y1624740D01*
G01X1931520D02*
Y1656490D01*
X1941360D01*
X1944510Y1654900D01*
X1946480Y1652790D01*
X1947260Y1648550D01*
X1946480Y1644320D01*
X1944110Y1641670D01*
X1941360Y1640090D01*
X1931520D01*
G01X1941360D02*
X1947260Y1624740D01*
G01X1997250Y1635320D02*
X2007490D01*
G01X2074010Y1653840D02*
X2071650Y1655430D01*
X2068890Y1656490D01*
X2065740D01*
X2062200Y1654900D01*
X2059450Y1652260D01*
X2057480Y1649080D01*
X2055900Y1643790D01*
X2055510Y1639030D01*
X2056300Y1634260D01*
X2057480Y1631090D01*
X2059840Y1627910D01*
X2062590Y1625800D01*
X2065350Y1624740D01*
X2068110D01*
X2070860Y1625800D01*
X2073220Y1627390D01*
X2075190Y1629500D01*
G01X2096840Y1624740D02*
X2093690Y1625270D01*
X2090940Y1627390D01*
X2088570Y1630560D01*
X2087000Y1634260D01*
X2086210Y1638500D01*
Y1642730D01*
X2087000Y1646970D01*
X2088570Y1650670D01*
X2090940Y1653840D01*
X2093690Y1655960D01*
X2096840Y1656490D01*
X2099990Y1655960D01*
X2102740Y1653840D01*
X2105110Y1650670D01*
X2106680Y1646970D01*
X2107470Y1642730D01*
Y1638500D01*
X2106680Y1634260D01*
X2105110Y1630560D01*
X2102740Y1627390D01*
X2099990Y1625270D01*
X2096840Y1624740D01*
G01X2120460D02*
Y1656490D01*
X2129900D01*
X2133050Y1654900D01*
X2135420Y1651200D01*
X2136200Y1646970D01*
X2135420Y1642730D01*
X2133450Y1639560D01*
X2129900Y1637970D01*
X2120460D01*
G01X2151950Y1624740D02*
Y1656490D01*
X2161390D01*
X2164540Y1654900D01*
X2166910Y1651200D01*
X2167690Y1646970D01*
X2166910Y1642730D01*
X2164940Y1639560D01*
X2161390Y1637970D01*
X2151950D01*
G01X2199180Y1624740D02*
X2183440D01*
Y1656490D01*
X2199180D01*
G01X2192880Y1641140D02*
X2183440D01*
G01X2214930Y1624740D02*
Y1656490D01*
X2224770D01*
X2227920Y1654900D01*
X2229890Y1652790D01*
X2230670Y1648550D01*
X2229890Y1644320D01*
X2227520Y1641670D01*
X2224770Y1640090D01*
X2214930D01*
G01X2224770D02*
X2230670Y1624740D01*
G01X2285780Y1656490D02*
X2282630Y1655430D01*
X2280270Y1652790D01*
X2278690Y1649610D01*
X2277510Y1645380D01*
X2277120Y1640610D01*
X2277510Y1635850D01*
X2278690Y1631620D01*
X2280270Y1628440D01*
X2282630Y1625800D01*
X2285780Y1624740D01*
X2288930Y1625800D01*
X2291290Y1628440D01*
X2292870Y1631620D01*
X2294050Y1635850D01*
X2294440Y1640610D01*
X2294050Y1645380D01*
X2292870Y1649610D01*
X2291290Y1652790D01*
X2288930Y1655430D01*
X2285780Y1656490D01*
G01X2317270Y1623680D02*
X2316480Y1624210D01*
Y1625270D01*
X2317270Y1625800D01*
X2318060Y1625270D01*
Y1624210D01*
X2317270Y1623680D01*
G01X2348760Y1656490D02*
X2345610Y1655430D01*
X2343250Y1652790D01*
X2341670Y1649610D01*
X2340490Y1645380D01*
X2340100Y1640610D01*
X2340490Y1635850D01*
X2341670Y1631620D01*
X2343250Y1628440D01*
X2345610Y1625800D01*
X2348760Y1624740D01*
X2351910Y1625800D01*
X2354270Y1628440D01*
X2355850Y1631620D01*
X2357030Y1635850D01*
X2357420Y1640610D01*
X2357030Y1645380D01*
X2355850Y1649610D01*
X2354270Y1652790D01*
X2351910Y1655430D01*
X2348760Y1656490D01*
G01X2371590Y1631090D02*
X2373950Y1627390D01*
X2377100Y1625270D01*
X2380640Y1624740D01*
X2383790Y1625270D01*
X2386940Y1627910D01*
X2388910Y1631090D01*
X2389300Y1634260D01*
X2388520Y1637970D01*
X2385760Y1640610D01*
X2383010Y1641670D01*
X2379460D01*
G01X2383010D02*
X2385370Y1643260D01*
X2387340Y1645910D01*
X2388120Y1649080D01*
X2387340Y1652260D01*
X2385370Y1654900D01*
X2381820Y1656490D01*
X2378280Y1655960D01*
X2374740Y1653840D01*
G01X2403080Y1629500D02*
X2405440Y1626860D01*
X2408200Y1625270D01*
X2411740Y1624740D01*
X2415280Y1625800D01*
X2418040Y1627910D01*
X2420010Y1631620D01*
X2420400Y1635850D01*
X2419610Y1640090D01*
X2417640Y1642730D01*
X2414890Y1644850D01*
X2412130Y1645380D01*
X2409380Y1644850D01*
X2405840Y1642730D01*
X2407020Y1656490D01*
X2417640D01*
G01X2464480Y1624740D02*
Y1656490D01*
X2474720Y1630030D01*
X2484960Y1656490D01*
Y1624740D01*
G01X2495970D02*
Y1656490D01*
X2506210Y1630030D01*
X2516450Y1656490D01*
Y1624740D01*
G01X1395400Y1812680D02*
X1412720Y1835970D01*
G01X1404060Y1840200D02*
Y1808450D01*
G01X1412720Y1812680D02*
X1395400Y1835970D01*
G01X1392250Y1824320D02*
X1415870D01*
G01X1489870Y1813740D02*
Y1845490D01*
X1497740D01*
X1500890Y1843900D01*
X1503250Y1841790D01*
X1505220Y1838610D01*
X1506800Y1834910D01*
X1507190Y1829610D01*
X1506800Y1824320D01*
X1505220Y1820620D01*
X1503250Y1817440D01*
X1500890Y1815330D01*
X1497740Y1813740D01*
X1489870D01*
G01X1525300Y1845490D02*
X1534740D01*
G01X1530020D02*
Y1813740D01*
G01X1525300D02*
X1534740D01*
G01X1569380D02*
X1553640D01*
Y1845490D01*
X1569380D01*
G01X1563080Y1830140D02*
X1553640D01*
G01X1585130Y1845490D02*
Y1813740D01*
X1600870D01*
G01X1632360D02*
X1616620D01*
Y1845490D01*
X1632360D01*
G01X1626060Y1830140D02*
X1616620D01*
G01X1664640Y1842840D02*
X1662280Y1844430D01*
X1659520Y1845490D01*
X1656370D01*
X1652830Y1843900D01*
X1650080Y1841260D01*
X1648110Y1838080D01*
X1646530Y1832790D01*
X1646140Y1828030D01*
X1646930Y1823260D01*
X1648110Y1820090D01*
X1650470Y1816910D01*
X1653220Y1814800D01*
X1655980Y1813740D01*
X1658740D01*
X1661490Y1814800D01*
X1663850Y1816390D01*
X1665820Y1818500D01*
G01X1687470Y1845490D02*
Y1813740D01*
G01X1678420Y1845490D02*
X1696520D01*
G01X1711090Y1813740D02*
Y1845490D01*
X1720930D01*
X1724080Y1843900D01*
X1726050Y1841790D01*
X1726830Y1837550D01*
X1726050Y1833320D01*
X1723680Y1830670D01*
X1720930Y1829090D01*
X1711090D01*
G01X1720930D02*
X1726830Y1813740D01*
G01X1745730Y1845490D02*
X1755170D01*
G01X1750450D02*
Y1813740D01*
G01X1745730D02*
X1755170D01*
G01X1790600Y1842840D02*
X1788240Y1844430D01*
X1785480Y1845490D01*
X1782330D01*
X1778790Y1843900D01*
X1776040Y1841260D01*
X1774070Y1838080D01*
X1772490Y1832790D01*
X1772100Y1828030D01*
X1772890Y1823260D01*
X1774070Y1820090D01*
X1776430Y1816910D01*
X1779180Y1814800D01*
X1781940Y1813740D01*
X1784700D01*
X1787450Y1814800D01*
X1789810Y1816390D01*
X1791780Y1818500D01*
G01X1839800Y1824320D02*
X1850040D01*
G01X1900420Y1813740D02*
Y1845490D01*
X1915380D01*
G01X1909870Y1830140D02*
X1900420D01*
G01X1931520Y1813740D02*
Y1845490D01*
X1941360D01*
X1944510Y1843900D01*
X1946480Y1841790D01*
X1947260Y1837550D01*
X1946480Y1833320D01*
X1944110Y1830670D01*
X1941360Y1829090D01*
X1931520D01*
G01X1941360D02*
X1947260Y1813740D01*
G01X1965760Y1824320D02*
X1976000D01*
G01X2007090Y1813740D02*
Y1845490D01*
X1992530Y1822740D01*
X2012210D01*
G01X2065350Y1845490D02*
X2062200Y1844430D01*
X2059840Y1841790D01*
X2058260Y1838610D01*
X2057080Y1834380D01*
X2056690Y1829610D01*
X2057080Y1824850D01*
X2058260Y1820620D01*
X2059840Y1817440D01*
X2062200Y1814800D01*
X2065350Y1813740D01*
X2068500Y1814800D01*
X2070860Y1817440D01*
X2072440Y1820620D01*
X2073620Y1824850D01*
X2074010Y1829610D01*
X2073620Y1834380D01*
X2072440Y1838610D01*
X2070860Y1841790D01*
X2068500Y1844430D01*
X2065350Y1845490D01*
G01X2096840Y1812680D02*
X2096050Y1813210D01*
Y1814270D01*
X2096840Y1814800D01*
X2097630Y1814270D01*
Y1813210D01*
X2096840Y1812680D01*
G01X2127540Y1813740D02*
X2128330Y1820620D01*
X2129510Y1826440D01*
X2131090Y1831730D01*
X2133050Y1837550D01*
X2136200Y1845490D01*
X2120460D01*
G01X2151160Y1820090D02*
X2153520Y1816390D01*
X2156670Y1814270D01*
X2160210Y1813740D01*
X2163360Y1814270D01*
X2166510Y1816910D01*
X2168480Y1820090D01*
X2168870Y1823260D01*
X2168090Y1826970D01*
X2165330Y1829610D01*
X2162580Y1830670D01*
X2159030D01*
G01X2162580D02*
X2164940Y1832260D01*
X2166910Y1834910D01*
X2167690Y1838080D01*
X2166910Y1841260D01*
X2164940Y1843900D01*
X2161390Y1845490D01*
X2157850Y1844960D01*
X2154310Y1842840D01*
G01X2212560Y1813740D02*
Y1845490D01*
X2222800Y1819030D01*
X2233040Y1845490D01*
Y1813740D01*
G01X2244050D02*
Y1845490D01*
X2254290Y1819030D01*
X2264530Y1845490D01*
Y1813740D01*
G01X1333210Y2034490D02*
Y2002740D01*
X1348950D01*
G01X1372570D02*
Y2034490D01*
X1367850Y2028140D01*
G01Y2002740D02*
X1377290D01*
G01X1404060Y2001680D02*
X1403270Y2002210D01*
Y2003270D01*
X1404060Y2003800D01*
X1404850Y2003270D01*
Y2002210D01*
X1404060Y2001680D01*
G01Y2015970D02*
X1403270Y2016500D01*
Y2017560D01*
X1404060Y2018090D01*
X1404850Y2017560D01*
Y2016500D01*
X1404060Y2015970D01*
G01X1467040Y2034490D02*
Y2002740D01*
G01X1457990Y2034490D02*
X1476090D01*
G01X1498530Y2002740D02*
X1495380Y2003270D01*
X1492630Y2005390D01*
X1490260Y2008560D01*
X1488690Y2012260D01*
X1487900Y2016500D01*
Y2020730D01*
X1488690Y2024970D01*
X1490260Y2028670D01*
X1492630Y2031840D01*
X1495380Y2033960D01*
X1498530Y2034490D01*
X1501680Y2033960D01*
X1504430Y2031840D01*
X1506800Y2028670D01*
X1508370Y2024970D01*
X1509160Y2020730D01*
Y2016500D01*
X1508370Y2012260D01*
X1506800Y2008560D01*
X1504430Y2005390D01*
X1501680Y2003270D01*
X1498530Y2002740D01*
G01X1522150D02*
Y2034490D01*
X1531590D01*
X1534740Y2032900D01*
X1537110Y2029200D01*
X1537890Y2024970D01*
X1537110Y2020730D01*
X1535140Y2017560D01*
X1531590Y2015970D01*
X1522150D01*
G01X1601660Y2031840D02*
X1599300Y2033430D01*
X1596540Y2034490D01*
X1593390D01*
X1589850Y2032900D01*
X1587100Y2030260D01*
X1585130Y2027080D01*
X1583550Y2021790D01*
X1583160Y2017030D01*
X1583950Y2012260D01*
X1585130Y2009090D01*
X1587490Y2005910D01*
X1590240Y2003800D01*
X1593000Y2002740D01*
X1595760D01*
X1598510Y2003800D01*
X1600870Y2005390D01*
X1602840Y2007500D01*
G01X1624490Y2002740D02*
X1621340Y2003270D01*
X1618590Y2005390D01*
X1616220Y2008560D01*
X1614650Y2012260D01*
X1613860Y2016500D01*
Y2020730D01*
X1614650Y2024970D01*
X1616220Y2028670D01*
X1618590Y2031840D01*
X1621340Y2033960D01*
X1624490Y2034490D01*
X1627640Y2033960D01*
X1630390Y2031840D01*
X1632760Y2028670D01*
X1634330Y2024970D01*
X1635120Y2020730D01*
Y2016500D01*
X1634330Y2012260D01*
X1632760Y2008560D01*
X1630390Y2005390D01*
X1627640Y2003270D01*
X1624490Y2002740D01*
G01X1646930D02*
Y2034490D01*
X1665030Y2002740D01*
Y2034490D01*
G01X1678810Y2002740D02*
Y2034490D01*
X1686680D01*
X1689830Y2032900D01*
X1692190Y2030790D01*
X1694160Y2027610D01*
X1695740Y2023910D01*
X1696130Y2018610D01*
X1695740Y2013320D01*
X1694160Y2009620D01*
X1692190Y2006440D01*
X1689830Y2004330D01*
X1686680Y2002740D01*
X1678810D01*
G01X1710300Y2034490D02*
Y2011740D01*
X1711870Y2006970D01*
X1715020Y2003800D01*
X1718960Y2002740D01*
X1722900Y2003800D01*
X1726050Y2006970D01*
X1727620Y2011740D01*
Y2034490D01*
G01X1759110Y2031840D02*
X1756750Y2033430D01*
X1753990Y2034490D01*
X1750840D01*
X1747300Y2032900D01*
X1744550Y2030260D01*
X1742580Y2027080D01*
X1741000Y2021790D01*
X1740610Y2017030D01*
X1741400Y2012260D01*
X1742580Y2009090D01*
X1744940Y2005910D01*
X1747690Y2003800D01*
X1750450Y2002740D01*
X1753210D01*
X1755960Y2003800D01*
X1758320Y2005390D01*
X1760290Y2007500D01*
G01X1781940Y2034490D02*
Y2002740D01*
G01X1772890Y2034490D02*
X1790990D01*
G01X1813430Y2002740D02*
X1810280Y2003270D01*
X1807530Y2005390D01*
X1805160Y2008560D01*
X1803590Y2012260D01*
X1802800Y2016500D01*
Y2020730D01*
X1803590Y2024970D01*
X1805160Y2028670D01*
X1807530Y2031840D01*
X1810280Y2033960D01*
X1813430Y2034490D01*
X1816580Y2033960D01*
X1819330Y2031840D01*
X1821700Y2028670D01*
X1823270Y2024970D01*
X1824060Y2020730D01*
Y2016500D01*
X1823270Y2012260D01*
X1821700Y2008560D01*
X1819330Y2005390D01*
X1816580Y2003270D01*
X1813430Y2002740D01*
G01X1837050D02*
Y2034490D01*
X1846890D01*
X1850040Y2032900D01*
X1852010Y2030790D01*
X1852790Y2026550D01*
X1852010Y2022320D01*
X1849640Y2019670D01*
X1846890Y2018090D01*
X1837050D01*
G01X1846890D02*
X1852790Y2002740D01*
G01X1902780Y2013320D02*
X1913020D01*
G01X1979540Y2031840D02*
X1977180Y2033430D01*
X1974420Y2034490D01*
X1971270D01*
X1967730Y2032900D01*
X1964980Y2030260D01*
X1963010Y2027080D01*
X1961430Y2021790D01*
X1961040Y2017030D01*
X1961830Y2012260D01*
X1963010Y2009090D01*
X1965370Y2005910D01*
X1968120Y2003800D01*
X1970880Y2002740D01*
X1973640D01*
X1976390Y2003800D01*
X1978750Y2005390D01*
X1980720Y2007500D01*
G01X2002370Y2002740D02*
X1999220Y2003270D01*
X1996470Y2005390D01*
X1994100Y2008560D01*
X1992530Y2012260D01*
X1991740Y2016500D01*
Y2020730D01*
X1992530Y2024970D01*
X1994100Y2028670D01*
X1996470Y2031840D01*
X1999220Y2033960D01*
X2002370Y2034490D01*
X2005520Y2033960D01*
X2008270Y2031840D01*
X2010640Y2028670D01*
X2012210Y2024970D01*
X2013000Y2020730D01*
Y2016500D01*
X2012210Y2012260D01*
X2010640Y2008560D01*
X2008270Y2005390D01*
X2005520Y2003270D01*
X2002370Y2002740D01*
G01X2025990D02*
Y2034490D01*
X2035430D01*
X2038580Y2032900D01*
X2040950Y2029200D01*
X2041730Y2024970D01*
X2040950Y2020730D01*
X2038980Y2017560D01*
X2035430Y2015970D01*
X2025990D01*
G01X2057480Y2002740D02*
Y2034490D01*
X2066920D01*
X2070070Y2032900D01*
X2072440Y2029200D01*
X2073220Y2024970D01*
X2072440Y2020730D01*
X2070470Y2017560D01*
X2066920Y2015970D01*
X2057480D01*
G01X2104710Y2002740D02*
X2088970D01*
Y2034490D01*
X2104710D01*
G01X2098410Y2019140D02*
X2088970D01*
G01X2120460Y2002740D02*
Y2034490D01*
X2130300D01*
X2133450Y2032900D01*
X2135420Y2030790D01*
X2136200Y2026550D01*
X2135420Y2022320D01*
X2133050Y2019670D01*
X2130300Y2018090D01*
X2120460D01*
G01X2130300D02*
X2136200Y2002740D01*
G01X2191310Y2034490D02*
X2188160Y2033430D01*
X2185800Y2030790D01*
X2184220Y2027610D01*
X2183040Y2023380D01*
X2182650Y2018610D01*
X2183040Y2013850D01*
X2184220Y2009620D01*
X2185800Y2006440D01*
X2188160Y2003800D01*
X2191310Y2002740D01*
X2194460Y2003800D01*
X2196820Y2006440D01*
X2198400Y2009620D01*
X2199580Y2013850D01*
X2199970Y2018610D01*
X2199580Y2023380D01*
X2198400Y2027610D01*
X2196820Y2030790D01*
X2194460Y2033430D01*
X2191310Y2034490D01*
G01X2222800Y2001680D02*
X2222010Y2002210D01*
Y2003270D01*
X2222800Y2003800D01*
X2223590Y2003270D01*
Y2002210D01*
X2222800Y2001680D01*
G01X2254290Y2034490D02*
X2251140Y2033430D01*
X2248780Y2030790D01*
X2247200Y2027610D01*
X2246020Y2023380D01*
X2245630Y2018610D01*
X2246020Y2013850D01*
X2247200Y2009620D01*
X2248780Y2006440D01*
X2251140Y2003800D01*
X2254290Y2002740D01*
X2257440Y2003800D01*
X2259800Y2006440D01*
X2261380Y2009620D01*
X2262560Y2013850D01*
X2262950Y2018610D01*
X2262560Y2023380D01*
X2261380Y2027610D01*
X2259800Y2030790D01*
X2257440Y2033430D01*
X2254290Y2034490D01*
G01X2277120Y2009090D02*
X2279480Y2005390D01*
X2282630Y2003270D01*
X2286170Y2002740D01*
X2289320Y2003270D01*
X2292470Y2005910D01*
X2294440Y2009090D01*
X2294830Y2012260D01*
X2294050Y2015970D01*
X2291290Y2018610D01*
X2288540Y2019670D01*
X2284990D01*
G01X2288540D02*
X2290900Y2021260D01*
X2292870Y2023910D01*
X2293650Y2027080D01*
X2292870Y2030260D01*
X2290900Y2032900D01*
X2287350Y2034490D01*
X2283810Y2033960D01*
X2280270Y2031840D01*
G01X2308610Y2007500D02*
X2310970Y2004860D01*
X2313730Y2003270D01*
X2317270Y2002740D01*
X2320810Y2003800D01*
X2323570Y2005910D01*
X2325540Y2009620D01*
X2325930Y2013850D01*
X2325140Y2018090D01*
X2323170Y2020730D01*
X2320420Y2022850D01*
X2317660Y2023380D01*
X2314910Y2022850D01*
X2311370Y2020730D01*
X2312550Y2034490D01*
X2323170D01*
G01X2370010Y2002740D02*
Y2034490D01*
X2380250Y2008030D01*
X2390490Y2034490D01*
Y2002740D01*
G01X2401500D02*
Y2034490D01*
X2411740Y2008030D01*
X2421980Y2034490D01*
Y2002740D01*
G01X1421000Y1403750D02*
X1461000Y1410000D01*
X1421000Y1416250D01*
Y1403750D01*
G01X1470930Y486330D02*
Y518080D01*
X1466210Y511730D01*
G01Y486330D02*
X1475650D01*
G01X1502420Y485270D02*
X1501630Y485800D01*
Y486860D01*
X1502420Y487390D01*
X1503210Y486860D01*
Y485800D01*
X1502420Y485270D01*
G01X1525250Y491090D02*
X1527610Y488450D01*
X1530370Y486860D01*
X1533910Y486330D01*
X1537450Y487390D01*
X1540210Y489500D01*
X1542180Y493210D01*
X1542570Y497440D01*
X1541780Y501680D01*
X1539810Y504320D01*
X1537060Y506440D01*
X1534300Y506970D01*
X1531550Y506440D01*
X1528010Y504320D01*
X1529190Y518080D01*
X1539810D01*
G01X1565400D02*
X1562250Y517020D01*
X1559890Y514380D01*
X1558310Y511200D01*
X1557130Y506970D01*
X1556740Y502200D01*
X1557130Y497440D01*
X1558310Y493210D01*
X1559890Y490030D01*
X1562250Y487390D01*
X1565400Y486330D01*
X1568550Y487390D01*
X1570910Y490030D01*
X1572490Y493210D01*
X1573670Y497440D01*
X1574060Y502200D01*
X1573670Y506970D01*
X1572490Y511200D01*
X1570910Y514380D01*
X1568550Y517020D01*
X1565400Y518080D01*
G01X1596890Y486330D02*
Y518080D01*
X1592170Y511730D01*
G01Y486330D02*
X1601610D01*
G01X1478400Y637230D02*
X1481550Y634590D01*
X1485100Y633000D01*
X1488240D01*
X1491390Y634590D01*
X1493760Y637230D01*
X1494940Y640940D01*
X1494150Y644640D01*
X1492180Y647820D01*
X1488640Y649930D01*
X1483910Y650990D01*
X1481160Y653110D01*
X1479980Y656810D01*
X1480770Y660520D01*
X1482730Y663160D01*
X1485490Y664750D01*
X1488240D01*
X1491000Y663690D01*
X1493360Y661050D01*
G01X1513440Y664750D02*
X1522880D01*
G01X1518160D02*
Y633000D01*
G01X1513440D02*
X1522880D01*
G01X1542170Y664750D02*
X1557130D01*
X1542170Y633000D01*
X1557130D01*
G01X1589010D02*
X1573270D01*
Y664750D01*
X1589010D01*
G01X1582710Y649400D02*
X1573270D01*
G01X1444330Y937000D02*
X1562000D01*
G01X1461000Y1342910D02*
Y1435000D01*
G01X1443440Y1360000D02*
X1562000D01*
G01X1502420Y589450D02*
X1499270Y588390D01*
X1496910Y585750D01*
X1495330Y582570D01*
X1494150Y578340D01*
X1493760Y573570D01*
X1494150Y568810D01*
X1495330Y564580D01*
X1496910Y561400D01*
X1499270Y558760D01*
X1502420Y557700D01*
X1505570Y558760D01*
X1507930Y561400D01*
X1509510Y564580D01*
X1510690Y568810D01*
X1511080Y573570D01*
X1510690Y578340D01*
X1509510Y582570D01*
X1507930Y585750D01*
X1505570Y588390D01*
X1502420Y589450D01*
G01X1533910Y556640D02*
X1533120Y557170D01*
Y558230D01*
X1533910Y558760D01*
X1534700Y558230D01*
Y557170D01*
X1533910Y556640D01*
G01X1557920Y584160D02*
X1560280Y587330D01*
X1563040Y588920D01*
X1566190Y589450D01*
X1570120Y588390D01*
X1572880Y585750D01*
X1573670Y582570D01*
X1573270Y579400D01*
X1571700Y576750D01*
X1563830Y571460D01*
X1560280Y567750D01*
X1557920Y562460D01*
X1557130Y557700D01*
X1573670D01*
G01X1521130Y1126660D02*
X1489380D01*
X1512130Y1112100D01*
Y1131780D01*
G01X1494670Y1145950D02*
X1491500Y1148310D01*
X1489910Y1151070D01*
X1489380Y1154220D01*
X1490440Y1158150D01*
X1493080Y1160910D01*
X1496260Y1161700D01*
X1499430Y1161300D01*
X1502080Y1159730D01*
X1507370Y1151860D01*
X1511080Y1148310D01*
X1516370Y1145950D01*
X1521130Y1145160D01*
Y1161700D01*
G01X1522190Y1184920D02*
X1521660Y1184130D01*
X1520600D01*
X1520070Y1184920D01*
X1520600Y1185710D01*
X1521660D01*
X1522190Y1184920D01*
G01X1514780Y1207750D02*
X1518480Y1210110D01*
X1520600Y1213260D01*
X1521130Y1216800D01*
X1520600Y1219950D01*
X1517960Y1223100D01*
X1514780Y1225070D01*
X1511610Y1225460D01*
X1507900Y1224680D01*
X1505260Y1221920D01*
X1504200Y1219170D01*
Y1215620D01*
G01Y1219170D02*
X1502610Y1221530D01*
X1499960Y1223500D01*
X1496790Y1224280D01*
X1493610Y1223500D01*
X1490970Y1221530D01*
X1489380Y1217980D01*
X1489910Y1214440D01*
X1492030Y1210900D01*
G01X1537000Y1169180D02*
Y937000D01*
G01X1530750Y977000D02*
X1537000Y937000D01*
X1543250Y977000D01*
X1530750D01*
G01X1537000Y1169180D02*
Y1360000D01*
G01X1543250Y1320000D02*
X1537000Y1360000D01*
X1530750Y1320000D01*
X1543250D01*
G01X1784640Y486330D02*
Y518080D01*
X1802740Y486330D01*
Y518080D01*
G01X1825180Y486330D02*
X1822030Y486860D01*
X1819280Y488980D01*
X1816910Y492150D01*
X1815340Y495850D01*
X1814550Y500090D01*
Y504320D01*
X1815340Y508560D01*
X1816910Y512260D01*
X1819280Y515430D01*
X1822030Y517550D01*
X1825180Y518080D01*
X1828330Y517550D01*
X1831080Y515430D01*
X1833450Y512260D01*
X1835020Y508560D01*
X1835810Y504320D01*
Y500090D01*
X1835020Y495850D01*
X1833450Y492150D01*
X1831080Y488980D01*
X1828330Y486860D01*
X1825180Y486330D01*
G01X1847620D02*
Y518080D01*
X1865720Y486330D01*
Y518080D01*
G01X1883040Y496910D02*
X1893280D01*
G01X1911780Y486330D02*
Y518080D01*
X1921220D01*
X1924370Y516490D01*
X1926740Y512790D01*
X1927520Y508560D01*
X1926740Y504320D01*
X1924770Y501150D01*
X1921220Y499560D01*
X1911780D01*
G01X1943270Y518080D02*
Y486330D01*
X1959010D01*
G01X1972790D02*
X1982630Y518080D01*
X1992470Y486330D01*
G01X1988930Y497440D02*
X1976330D01*
G01X2014120Y518080D02*
Y486330D01*
G01X2005070Y518080D02*
X2023170D01*
G01X2053480Y486330D02*
X2037740D01*
Y518080D01*
X2053480D01*
G01X2047180Y502730D02*
X2037740D01*
G01X2068440Y486330D02*
Y518080D01*
X2076310D01*
X2079460Y516490D01*
X2081820Y514380D01*
X2083790Y511200D01*
X2085370Y507500D01*
X2085760Y502200D01*
X2085370Y496910D01*
X2083790Y493210D01*
X2081820Y490030D01*
X2079460Y487920D01*
X2076310Y486330D01*
X2068440D01*
G01X1774020Y680630D02*
Y466520D01*
G01X1848800Y557700D02*
Y589450D01*
X1858240D01*
X1861390Y587860D01*
X1863760Y584160D01*
X1864540Y579930D01*
X1863760Y575690D01*
X1861790Y572520D01*
X1858240Y570930D01*
X1848800D01*
G01X1880290Y589450D02*
Y557700D01*
X1896030D01*
G01X1909810D02*
X1919650Y589450D01*
X1929490Y557700D01*
G01X1925950Y568810D02*
X1913350D01*
G01X1951140Y589450D02*
Y557700D01*
G01X1942090Y589450D02*
X1960190D01*
G01X1990500Y557700D02*
X1974760D01*
Y589450D01*
X1990500D01*
G01X1984200Y574100D02*
X1974760D01*
G01X2005460Y557700D02*
Y589450D01*
X2013330D01*
X2016480Y587860D01*
X2018840Y585750D01*
X2020810Y582570D01*
X2022390Y578870D01*
X2022780Y573570D01*
X2022390Y568280D01*
X2020810Y564580D01*
X2018840Y561400D01*
X2016480Y559290D01*
X2013330Y557700D01*
X2005460D01*
G01X1848800Y633000D02*
Y664750D01*
X1858240D01*
X1861390Y663160D01*
X1863760Y659460D01*
X1864540Y655230D01*
X1863760Y650990D01*
X1861790Y647820D01*
X1858240Y646230D01*
X1848800D01*
G01X1880290Y664750D02*
Y633000D01*
X1896030D01*
G01X1909810D02*
X1919650Y664750D01*
X1929490Y633000D01*
G01X1925950Y644110D02*
X1913350D01*
G01X1951140Y664750D02*
Y633000D01*
G01X1942090Y664750D02*
X1960190D01*
G01X1990500Y633000D02*
X1974760D01*
Y664750D01*
X1990500D01*
G01X1984200Y649400D02*
X1974760D01*
G01X2005460Y633000D02*
Y664750D01*
X2013330D01*
X2016480Y663160D01*
X2018840Y661050D01*
X2020810Y657870D01*
X2022390Y654170D01*
X2022780Y648870D01*
X2022390Y643580D01*
X2020810Y639880D01*
X2018840Y636700D01*
X2016480Y634590D01*
X2013330Y633000D01*
X2005460D01*
G01X2096790Y680630D02*
Y466520D01*
G01X2163700Y557700D02*
Y589450D01*
X2158980Y583100D01*
G01Y557700D02*
X2168420D01*
G01X2194400D02*
X2195190Y564580D01*
X2196370Y570400D01*
X2197950Y575690D01*
X2199910Y581510D01*
X2203060Y589450D01*
X2187320D01*
G01X2219200Y570930D02*
X2221960Y574630D01*
X2224320Y576750D01*
X2227470Y577810D01*
X2230220Y576750D01*
X2232190Y574630D01*
X2233770Y571460D01*
X2234160Y567750D01*
X2233770Y564580D01*
X2232190Y561400D01*
X2229830Y558760D01*
X2227070Y557700D01*
X2223920Y558760D01*
X2221170Y561930D01*
X2219590Y566700D01*
X2219200Y571990D01*
X2219990Y578870D01*
X2221170Y582570D01*
X2223140Y586270D01*
X2225890Y588920D01*
X2228650Y589450D01*
X2231400Y588390D01*
X2233370Y585750D01*
G01X2163700Y633000D02*
X2160550Y633530D01*
X2157800Y635650D01*
X2155430Y638820D01*
X2153860Y642520D01*
X2153070Y646760D01*
Y650990D01*
X2153860Y655230D01*
X2155430Y658930D01*
X2157800Y662100D01*
X2160550Y664220D01*
X2163700Y664750D01*
X2166850Y664220D01*
X2169600Y662100D01*
X2171970Y658930D01*
X2173540Y655230D01*
X2174330Y650990D01*
Y646760D01*
X2173540Y642520D01*
X2171970Y638820D01*
X2169600Y635650D01*
X2166850Y633530D01*
X2163700Y633000D01*
G01X2166850Y641470D02*
X2171570Y633000D01*
G01X2195190Y664750D02*
Y633000D01*
G01X2186140Y664750D02*
X2204240D01*
G01X2226680Y633000D02*
Y647290D01*
X2218810Y664750D01*
G01X2234550D02*
X2226680Y647290D01*
G01X2199910Y486330D02*
Y518080D01*
X2185350Y495330D01*
X2205030D01*
M02*
