G04 ================== begin FILE IDENTIFICATION RECORD ==================*
G04 Layout Name:  CC26xx_5x5_JohBal.brd*
G04 Film Name:    paste_top*
G04 File Format:  Gerber RS274X*
G04 File Origin:  Cadence Allegro 16.6-S021*
G04 Origin Date:  Tue Jun 28 07:27:49 2016*
G04 *
G04 Layer:  PIN/FILMMASKTOP*
G04 Layer:  BOARD GEOMETRY/OUTLINE*
G04 *
G04 Offset:    (0.000 0.000)*
G04 Mirror:    No*
G04 Mode:      Positive*
G04 Rotation:  0*
G04 FullContactRelief:  No*
G04 UndefLineWidth:     0.020*
G04 ================== end FILE IDENTIFICATION RECORD ====================*
%FSLAX44Y44*MOMM*%
%IR0*IPPOS*OFA0.00000B0.00000*MIA0B0*SFA1.00000B1.00000*%
%AMMACRO15*
4,1,41,-.676,0.0,
-.676,-.163,
-.673381,-.191263,
-.665895,-.218641,
-.653768,-.244304,
-.637369,-.267471,
-.617196,-.287439,
-.593862,-.3036,
-.568076,-.315463,
-.540622,-.322669,
-.513,-.325,
.513,-.325,
.541278,-.322555,
.568703,-.315237,
.594439,-.303268,
.617707,-.287012,
.637798,-.266962,
.654102,-.243729,
.666124,-.218017,
.673499,-.190607,
.676,-.163,
.676,.163,
.673381,.191263,
.665895,.218641,
.653768,.244304,
.637369,.267471,
.617196,.287439,
.593862,.3036,
.568076,.315463,
.540622,.322669,
.513,.325,
-.513,.325,
-.541278,.322555,
-.568703,.315237,
-.594439,.303268,
-.617707,.287012,
-.637798,.266962,
-.654102,.243729,
-.666124,.218017,
-.673499,.190607,
-.676,.163,
-.676,0.0,
0.0*
%
%ADD15MACRO15*%
%AMMACRO16*
4,1,40,.275,.135,
.275,-.135,
.272949,-.158443,
.266859,-.181173,
.256913,-.2025,
.243416,-.221776,
.226776,-.238416,
.2075,-.251913,
.186173,-.261859,
.163443,-.267949,
.14,-.27,
-.14,-.27,
-.163443,-.267949,
-.186173,-.261859,
-.2075,-.251913,
-.226776,-.238416,
-.243416,-.221776,
-.256913,-.2025,
-.266859,-.181173,
-.272949,-.158443,
-.275,-.135,
-.275,.135,
-.272949,.158443,
-.266859,.181173,
-.256913,.2025,
-.243416,.221776,
-.226776,.238416,
-.2075,.251913,
-.186173,.261859,
-.163443,.267949,
-.14,.27,
.14,.27,
.163443,.267949,
.186173,.261859,
.2075,.251913,
.226776,.238416,
.243416,.221776,
.256913,.2025,
.266859,.181173,
.272949,.158443,
.275,.135,
0.0*
%
%ADD16MACRO16*%
%AMMACRO23*
4,1,40,.135,-.275,
-.135,-.275,
-.158443,-.272949,
-.181173,-.266859,
-.2025,-.256913,
-.221776,-.243416,
-.238416,-.226776,
-.251913,-.2075,
-.261859,-.186173,
-.267949,-.163443,
-.27,-.14,
-.27,.14,
-.267949,.163443,
-.261859,.186173,
-.251913,.2075,
-.238416,.226776,
-.221776,.243416,
-.2025,.256913,
-.181173,.266859,
-.158443,.272949,
-.135,.275,
.135,.275,
.158443,.272949,
.181173,.266859,
.2025,.256913,
.221776,.243416,
.238416,.226776,
.251913,.2075,
.261859,.186173,
.267949,.163443,
.27,.14,
.27,-.14,
.267949,-.163443,
.261859,-.186173,
.251913,-.2075,
.238416,-.226776,
.221776,-.243416,
.2025,-.256913,
.181173,-.266859,
.158443,-.272949,
.135,-.275,
0.0*
%
%ADD23MACRO23*%
%AMMACRO13*
4,1,41,.45,.188,
.45,-.188,
.447065,-.220551,
.438521,-.252099,
.42463,-.281683,
.405812,-.308406,
.38264,-.331455,
.355817,-.35013,
.326159,-.363863,
.294567,-.372238,
.262,-.375,
-.262,-.375,
-.294567,-.372238,
-.326159,-.363863,
-.355817,-.35013,
-.38264,-.331455,
-.405812,-.308406,
-.42463,-.281683,
-.438521,-.252099,
-.447065,-.220551,
-.45,-.188,
-.45,.188,
-.447065,.220551,
-.438521,.252099,
-.42463,.281683,
-.405812,.308406,
-.38264,.331455,
-.355817,.35013,
-.326159,.363863,
-.294567,.372238,
-.262,.375,
-.262,.375,
.262,.375,
.294567,.372238,
.326159,.363863,
.355817,.35013,
.38264,.331455,
.405812,.308406,
.42463,.281683,
.438521,.252099,
.447065,.220551,
.45,.188,
0.0*
%
%ADD13MACRO13*%
%ADD17C,1.801*%
%ADD21R,3.55X3.55*%
%AMMACRO24*
4,1,45,0.0,.625,
-.262,.625,
-.30759,.621099,
-.35181,.60934,
-.393317,.590082,
-.430849,.563908,
-.463265,.531615,
-.489582,.494183,
-.508998,.45275,
-.520925,.408575,
-.525,.363,
-.525,.362,
-.525,-.362,
-.521099,-.40759,
-.50934,-.45181,
-.490082,-.493317,
-.463908,-.530849,
-.431615,-.563265,
-.394183,-.589582,
-.35275,-.608998,
-.308575,-.620925,
-.263,-.625,
-.262,-.625,
.262,-.625,
.30759,-.621099,
.35181,-.60934,
.393317,-.590082,
.430849,-.563908,
.463265,-.531615,
.489582,-.494183,
.508998,-.45275,
.520925,-.408575,
.525,-.363,
.525,-.362,
.525,.362,
.521099,.40759,
.50934,.45181,
.490082,.493317,
.463908,.530849,
.431615,.563265,
.394183,.589582,
.35275,.608998,
.308575,.620925,
.263,.625,
.262,.625,
0.0,.625,
0.0*
%
%ADD24MACRO24*%
%AMMACRO22*
4,1,45,-.225,0.0,
-.225,-.062,
-.224137,-.072861,
-.221402,-.083406,
-.216877,-.093317,
-.210699,-.102291,
-.203057,-.110056,
-.194183,-.116377,
-.184346,-.12106,
-.173845,-.123964,
-.163,-.125,
-.162,-.125,
.162,-.125,
.172861,-.124137,
.183406,-.121402,
.193317,-.116877,
.202291,-.110699,
.210056,-.103057,
.216377,-.094183,
.22106,-.084346,
.223964,-.073845,
.225,-.063,
.225,-.062,
.225,.062,
.224137,.072861,
.221402,.083406,
.216877,.093317,
.210699,.102291,
.203057,.110056,
.194183,.116377,
.184346,.12106,
.173845,.123964,
.163,.125,
.162,.125,
-.162,.125,
-.172861,.124137,
-.183406,.121402,
-.193317,.116877,
-.202291,.110699,
-.210056,.103057,
-.216377,.094183,
-.22106,.084346,
-.223964,.073845,
-.225,.063,
-.225,.062,
-.225,0.0,
0.0*
%
%ADD22MACRO22*%
%AMMACRO14*
4,1,40,-.135,.275,
.135,.275,
.158443,.272949,
.181173,.266859,
.2025,.256913,
.221776,.243416,
.238416,.226776,
.251913,.2075,
.261859,.186173,
.267949,.163443,
.27,.14,
.27,-.14,
.267949,-.163443,
.261859,-.186173,
.251913,-.2075,
.238416,-.226776,
.221776,-.243416,
.2025,-.256913,
.181173,-.266859,
.158443,-.272949,
.135,-.275,
-.135,-.275,
-.158443,-.272949,
-.181173,-.266859,
-.2025,-.256913,
-.221776,-.243416,
-.238416,-.226776,
-.251913,-.2075,
-.261859,-.186173,
-.267949,-.163443,
-.27,-.14,
-.27,.14,
-.267949,.163443,
-.261859,.186173,
-.251913,.2075,
-.238416,.226776,
-.221776,.243416,
-.2025,.256913,
-.181173,.266859,
-.158443,.272949,
-.135,.275,
0.0*
%
%ADD14MACRO14*%
%AMMACRO11*
4,1,40,-.275,-.135,
-.275,.135,
-.272949,.158443,
-.266859,.181173,
-.256913,.2025,
-.243416,.221776,
-.226776,.238416,
-.2075,.251913,
-.186173,.261859,
-.163443,.267949,
-.14,.27,
.14,.27,
.163443,.267949,
.186173,.261859,
.2075,.251913,
.226776,.238416,
.243416,.221776,
.256913,.2025,
.266859,.181173,
.272949,.158443,
.275,.135,
.275,-.135,
.272949,-.158443,
.266859,-.181173,
.256913,-.2025,
.243416,-.221776,
.226776,-.238416,
.2075,-.251913,
.186173,-.261859,
.163443,-.267949,
.14,-.27,
-.14,-.27,
-.163443,-.267949,
-.186173,-.261859,
-.2075,-.251913,
-.226776,-.238416,
-.243416,-.221776,
-.256913,-.2025,
-.266859,-.181173,
-.272949,-.158443,
-.275,-.135,
0.0*
%
%ADD11MACRO11*%
%AMMACRO18*
4,1,40,-.188,.45,
.188,.45,
.220551,.447065,
.252099,.438521,
.281683,.42463,
.308406,.405812,
.331455,.38264,
.35013,.355817,
.363863,.326159,
.372238,.294567,
.375,.262,
.375,-.262,
.372238,-.294567,
.363863,-.326159,
.35013,-.355817,
.331455,-.38264,
.308406,-.405812,
.281683,-.42463,
.252099,-.438521,
.220551,-.447065,
.188,-.45,
-.188,-.45,
-.220551,-.447065,
-.252099,-.438521,
-.281683,-.42463,
-.308406,-.405812,
-.331455,-.38264,
-.35013,-.355817,
-.363863,-.326159,
-.372238,-.294567,
-.375,-.262,
-.375,.262,
-.372238,.294567,
-.363863,.326159,
-.35013,.355817,
-.331455,.38264,
-.308406,.405812,
-.281683,.42463,
-.252099,.438521,
-.220551,.447065,
-.188,.45,
0.0*
%
%ADD18MACRO18*%
%AMMACRO12*
4,1,40,.238,-.675,
-.238,-.675,
-.279234,-.671305,
-.3192,-.660506,
-.356683,-.642931,
-.390545,-.619114,
-.419757,-.589779,
-.443431,-.555817,
-.460848,-.51826,
-.471479,-.478249,
-.475,-.438,
-.475,.438,
-.471305,.479234,
-.460506,.5192,
-.442931,.556683,
-.419114,.590545,
-.389779,.619757,
-.355817,.643431,
-.31826,.660848,
-.278249,.671479,
-.238,.675,
.238,.675,
.279234,.671305,
.3192,.660506,
.356683,.642931,
.390545,.619114,
.419757,.589779,
.443431,.555817,
.460848,.51826,
.471479,.478249,
.475,.438,
.475,-.438,
.471305,-.479234,
.460506,-.5192,
.442931,-.556683,
.419114,-.590545,
.389779,-.619757,
.355817,-.643431,
.31826,-.660848,
.278249,-.671479,
.238,-.675,
0.0*
%
%ADD12MACRO12*%
%ADD20O,.8X.3*%
%ADD19O,.3X.8*%
%AMMACRO10*
4,1,41,0.0,-1.,
.519,-1.,
.602564,-.992645,
.683582,-.970892,
.759592,-.9354,
.828283,-.887248,
.88757,-.8279,
.93565,-.759158,
.971063,-.683112,
.992732,-.602072,
1.,-.519,
1.,.519,
.992645,.602564,
.970892,.683582,
.9354,.759592,
.887248,.828283,
.8279,.88757,
.759158,.93565,
.683112,.971063,
.602072,.992732,
.519,1.,
-.519,1.,
-.602564,.992645,
-.683582,.970892,
-.759592,.9354,
-.828283,.887248,
-.88757,.8279,
-.93565,.759158,
-.971063,.683112,
-.992732,.602072,
-1.,.519,
-1.,-.519,
-.992645,-.602564,
-.970892,-.683582,
-.9354,-.759592,
-.887248,-.828283,
-.8279,-.88757,
-.759158,-.93565,
-.683112,-.971063,
-.602072,-.992732,
-.519,-1.,
0.0,-1.,
0.0*
%
%ADD10MACRO10*%
%ADD25C,.02*%
G75*
%LPD*%
G75*
G54D10*
X1164000Y1200000D03*
Y1256000D03*
X1220000Y1200000D03*
Y1256000D03*
G54D20*
X1221000Y1096500D03*
Y1101500D03*
Y1106500D03*
Y1111500D03*
Y1116500D03*
Y1121500D03*
Y1126500D03*
Y1131500D03*
X1269000Y1121500D03*
Y1116500D03*
Y1111500D03*
Y1106500D03*
Y1101500D03*
Y1096500D03*
Y1131500D03*
Y1126500D03*
G54D11*
X1210000Y987000D03*
X1186000D03*
X1194000D03*
X1210000Y996000D03*
X1186000D03*
X1194000D03*
X1199000Y1115000D03*
X1207000D03*
X1218000Y987000D03*
Y996000D03*
X1248000Y1052000D03*
X1256000D03*
X1248000Y1061000D03*
X1256000D03*
X1248000Y1274000D03*
X1256000D03*
G54D12*
X1210000Y1049000D03*
X1226000D03*
G54D21*
X1245000Y1114000D03*
G54D22*
X1256000Y1154000D03*
Y1159000D03*
Y1164000D03*
X1264250Y1154000D03*
Y1159000D03*
Y1164000D03*
G54D13*
X1207000Y1077000D03*
Y1063000D03*
X1385000Y1035000D03*
X1374000D03*
X1385000Y1049000D03*
X1374000D03*
G54D14*
X1207000Y1124000D03*
Y1132000D03*
X1279000Y1143000D03*
Y1135000D03*
G54D23*
X1256000Y1228000D03*
Y1236000D03*
Y1257000D03*
Y1265000D03*
G54D24*
X1297700Y1140000D03*
Y1162300D03*
X1315000D03*
Y1140000D03*
G54D15*
X1207000Y1166000D03*
Y1181000D03*
G54D25*
G01X1070000Y937000D02*
X1461000D01*
Y1360000D01*
X1070000D01*
Y937000D01*
G54D16*
X1194000Y1166000D03*
X1186000D03*
X1194000Y1181000D03*
X1186000D03*
X1256000Y1228000D03*
X1248000D03*
X1295000Y1106000D03*
X1287000D03*
X1295000Y1118000D03*
X1287000D03*
G54D17*
X1192000Y1228000D03*
G54D18*
X1219000Y1075000D03*
X1233000D03*
X1219000Y1063000D03*
X1233000D03*
G54D19*
X1257500Y1090000D03*
X1252500D03*
X1247500D03*
X1242500D03*
X1237500D03*
X1232500D03*
X1227500D03*
Y1138000D03*
X1232500D03*
X1237500D03*
X1242500D03*
X1247500D03*
X1252500D03*
X1257500D03*
X1262500Y1090000D03*
Y1138000D03*
M02*
