G04 ================== begin FILE IDENTIFICATION RECORD ==================*
G04 Layout Name:  LP-CC2652RB.brd*
G04 Film Name:    LP-CC2652RB_silk_top*
G04 File Format:  Gerber RS274X*
G04 File Origin:  Cadence Allegro 17.2-S041*
G04 Origin Date:  Mon Oct 08 09:56:39 2018*
G04 *
G04 Layer:  DRAWING FORMAT/TITLE_BLOCK*
G04 Layer:  BOARD GEOMETRY/TOP SILK*
G04 Layer:  DEVICE TYPE/SILKSCREEN_TOP*
G04 Layer:  PACKAGE GEOMETRY/SILKSCREEN_TOP*
G04 Layer:  MANUFACTURING/AUTOSILK_TOP*
G04 Layer:  BOARD GEOMETRY/OUTLINE*
G04 *
G04 Offset:    (0.000 0.000)*
G04 Mirror:    No*
G04 Mode:      Positive*
G04 Rotation:  0*
G04 FullContactRelief:  No*
G04 UndefLineWidth:     0.099*
G04 ================== end FILE IDENTIFICATION RECORD ====================*
%FSLAX25Y25*MOMM*%
%IR0*IPPOS*OFA0.00000B0.00000*MIA0B0*SFA1.00000B1.00000*%
%ADD10C,.1*%
%ADD11C,.3*%
%ADD12C,.5*%
%ADD13C,.099*%
%ADD14C,.15*%
%ADD15C,.18*%
G75*
%LPD*%
G75*
G36*
G01X20045500Y21027700D02*
X20406200D01*
X20522400Y21143900D01*
X20407500Y21258800D01*
X20045500D01*
Y21143300D01*
Y21027700D01*
G37*
G36*
G01X20041400Y21532500D02*
X20402100D01*
X20518300Y21648700D01*
X20460800Y21706100D01*
X20403400Y21763600D01*
X20041400D01*
Y21648000D01*
Y21532500D01*
G37*
G36*
G01Y21282500D02*
X20402100D01*
X20518300Y21398700D01*
X20460800Y21456100D01*
X20403400Y21513600D01*
X20041400D01*
Y21398000D01*
Y21282500D01*
G37*
G36*
G01X21483500Y24560300D02*
X21122800D01*
X21006600Y24444100D01*
X21121500Y24329200D01*
X21483500D01*
Y24444700D01*
Y24560300D01*
G37*
G36*
G01X20424300Y24564200D02*
X20063600D01*
Y24334400D01*
X20424300D01*
X20481800Y24391800D01*
X20539200Y24449300D01*
X20481800Y24506700D01*
X20424300Y24564200D01*
G37*
G36*
G01X21488600Y24317500D02*
X21127900D01*
X21011700Y24201300D01*
X21069200Y24143900D01*
X21126600Y24086400D01*
X21488600D01*
Y24202000D01*
Y24317500D01*
G37*
G36*
G01X21267500Y24881400D02*
Y25242100D01*
X21151300Y25358300D01*
X21093900Y25300800D01*
X21036400Y25243400D01*
Y24881400D01*
X21152000D01*
X21267500D01*
G37*
G36*
G01X21535800Y25244300D02*
Y24883600D01*
X21765600D01*
Y25244300D01*
X21708200Y25301800D01*
X21650700Y25359200D01*
X21593300Y25301800D01*
X21535800Y25244300D01*
G37*
G36*
G01X21512300Y24885500D02*
Y25246200D01*
X21396100Y25362400D01*
X21281200Y25247500D01*
Y24885500D01*
X21396700D01*
X21512300D01*
G37*
G36*
G01X23687700Y20918100D02*
Y20908700D01*
X23636300D01*
Y20918100D01*
X23642000D01*
G03X23646900Y20923000I-25J4925D01*
G01Y21037400D01*
G03X23642000Y21042400I-4934J65D01*
G01X23612800D01*
G03X23609300Y21040900I45J-4939D01*
G01X23596200Y21027900D01*
X23601000Y21058500D01*
X23722900D01*
X23727800Y21027900D01*
X23714600Y21040900D01*
G03X23711200Y21042400I-3542J-3425D01*
G01X23682000D01*
G03X23677000Y21037400I-48J-4952D01*
G01Y20923000D01*
G03X23682000Y20918100I4943J43D01*
G01X23687700D01*
G37*
G36*
G01X23988300Y20740100D02*
Y20732700D01*
X23947700D01*
Y20740100D01*
X23952200D01*
G03X23956100Y20743900I28J3872D01*
G01Y20834300D01*
G03X23952200Y20838200I-3881J19D01*
G01X23929200D01*
G03X23926400Y20837100I-86J-3895D01*
G01X23916100Y20826800D01*
X23919900Y20851000D01*
X24016200D01*
X24020000Y20826800D01*
X24009600Y20837100D01*
G03X24006900Y20838200I-2710J-2789D01*
G01X23983800D01*
G03X23979900Y20834300I-8J-3892D01*
G01Y20743900D01*
G03X23983800Y20740100I3882J83D01*
G01X23988300D01*
G37*
G36*
G01X23822100Y21013200D02*
X23852900Y20969700D01*
G02Y20965100I-3243J-2300D01*
G01X23822400Y20921100D01*
G02X23819100Y20919400I-3258J2272D01*
G01X23811400D01*
Y20908700D01*
X23847600D01*
Y20919400D01*
X23840800D01*
X23863800Y20954300D01*
X23888400Y20919400D01*
X23881100D01*
Y20908700D01*
X23922200D01*
Y20919400D01*
X23921000D01*
G02X23917800Y20921100I48J3952D01*
G01X23886900Y20965200D01*
G02Y20969600I3294J2200D01*
G01X23914600Y21013000D01*
G02X23917900Y21014900I3386J-2065D01*
G01X23926900D01*
Y21027800D01*
X23884200D01*
Y21018500D01*
Y21014900D01*
X23895700D01*
X23875100Y20983500D01*
X23854400Y21014900D01*
X23867000D01*
Y21027800D01*
X23811100D01*
Y21014900D01*
X23818900D01*
G02X23822100Y21013200I-60J-3975D01*
G37*
G36*
G01X23998800Y20908700D02*
Y20919400D01*
X24002200D01*
G03X24006000Y20924700I55J3973D01*
G01X23978000Y21002900D01*
X23959100Y20954200D01*
X23994800D01*
X23998900Y20942800D01*
X23954700Y20942700D01*
X23947700Y20924800D01*
G03X23951400Y20919400I3702J-1431D01*
G01X23952100D01*
Y20908700D01*
X23924700D01*
Y20919400D01*
X23925300D01*
G03X23929000Y20921900I9J3975D01*
G01X23969900Y21027800D01*
X23996700D01*
X24035500Y20922000D01*
G03X24039200Y20919400I3714J1352D01*
G01X24043500D01*
Y20908700D01*
X23998800D01*
G37*
G36*
G01X24036500Y20743800D02*
Y20840100D01*
G03X24032500Y20844100I-3973J27D01*
G01X24025200D01*
Y20850800D01*
X24099000D01*
X24101400Y20850400D01*
X24103800Y20850000D01*
X24105000Y20849800D01*
X24106100Y20849500D01*
X24107600Y20849100D01*
X24108500Y20848900D01*
X24109600Y20848500D01*
X24110800Y20848000D01*
X24111900Y20847500D01*
X24113000Y20847000D01*
X24114100Y20846400D01*
X24115100Y20845800D01*
X24116200Y20845100D01*
X24117100Y20844400D01*
X24118100Y20843700D01*
X24119100Y20842900D01*
X24120000Y20842000D01*
X24120500Y20841500D01*
X24121700Y20840200D01*
X24122500Y20839300D01*
X24123200Y20838300D01*
X24123900Y20837300D01*
X24124600Y20836200D01*
X24125200Y20835100D01*
X24125700Y20834000D01*
X24126200Y20832900D01*
X24126600Y20831800D01*
X24127000Y20830600D01*
X24127300Y20829300D01*
X24127500Y20828300D01*
X24127700Y20827100D01*
X24127800Y20825900D01*
X24127900Y20824700D01*
X24128000Y20823500D01*
X24128100Y20818600D01*
Y20817500D01*
X24128200Y20816100D01*
X24128300Y20813700D01*
X24128400Y20812400D01*
Y20811200D01*
Y20810000D01*
X24128300Y20808800D01*
X24128200Y20807600D01*
X24128000Y20807000D01*
X24127900Y20806400D01*
X24127800Y20806000D01*
X24127600Y20805300D01*
X24127300Y20804700D01*
X24127100Y20804100D01*
X24126800Y20803600D01*
X24126500Y20803100D01*
X24125900Y20802000D01*
X24125200Y20800900D01*
X24124400Y20800000D01*
X24123600Y20799000D01*
X24122700Y20798100D01*
X24121800Y20797300D01*
X24120900Y20796500D01*
X24120200Y20796000D01*
X24118900Y20795200D01*
X24117900Y20794600D01*
X24117000Y20794100D01*
X24115900Y20793500D01*
X24114900Y20793100D01*
X24112800Y20792100D01*
X24111800Y20791700D01*
X24110700Y20791200D01*
X24109600Y20790700D01*
X24108500Y20790100D01*
X24107300Y20789500D01*
X24106200Y20788800D01*
X24105000Y20788100D01*
X24103700Y20787200D01*
X24103300Y20786800D01*
X24103000Y20786600D01*
X24102700Y20786400D01*
X24102500Y20786200D01*
X24102300Y20785900D01*
X24102200Y20785700D01*
X24102100Y20785400D01*
Y20785300D01*
X24102200Y20785100D01*
X24102300Y20784900D01*
X24102500Y20784700D01*
X24102700Y20784500D01*
X24103000Y20784300D01*
X24103600Y20783900D01*
X24104700Y20783300D01*
X24105500Y20782800D01*
X24106100Y20782400D01*
X24106700Y20782100D01*
X24107300Y20781700D01*
X24107800Y20781300D01*
X24108300Y20781000D01*
X24109200Y20780200D01*
X24110000Y20779400D01*
X24110800Y20778600D01*
X24111600Y20777800D01*
X24112400Y20776800D01*
X24113100Y20776100D01*
X24113800Y20775200D01*
X24114600Y20774300D01*
X24115300Y20773300D01*
X24116000Y20772300D01*
X24117500Y20770300D01*
X24118200Y20769300D01*
X24118800Y20768300D01*
X24119500Y20767200D01*
X24119800Y20766600D01*
X24121300Y20764000D01*
X24122400Y20761800D01*
X24123500Y20759700D01*
X24124700Y20757500D01*
X24125300Y20756500D01*
X24125900Y20755500D01*
X24126400Y20754900D01*
X24127300Y20753500D01*
X24128100Y20752600D01*
X24128800Y20751600D01*
X24129600Y20750700D01*
X24130500Y20749800D01*
X24132200Y20748100D01*
X24134300Y20746000D01*
X24135700Y20744700D01*
X24137500Y20743100D01*
X24140000Y20740900D01*
G03X24142600Y20739900I2617J2925D01*
G01X24147600D01*
Y20732400D01*
X24120100D01*
G02X24117100Y20733700I-52J3992D01*
G01X24111600Y20739900D01*
X24110700Y20740900D01*
X24109800Y20741900D01*
X24108900Y20742900D01*
X24108000Y20743900D01*
X24107100Y20744900D01*
X24106300Y20746000D01*
X24105500Y20747100D01*
X24104600Y20748100D01*
X24103900Y20749100D01*
X24103100Y20750300D01*
X24102300Y20751500D01*
X24101600Y20752700D01*
X24100900Y20753800D01*
X24100300Y20755000D01*
X24099700Y20756300D01*
X24099100Y20757500D01*
X24098600Y20758700D01*
X24098100Y20760000D01*
X24097600Y20761300D01*
X24097200Y20762600D01*
X24096700Y20763800D01*
X24096200Y20765100D01*
X24095700Y20766400D01*
X24095200Y20767600D01*
X24094900Y20768300D01*
X24093900Y20770000D01*
X24093300Y20771200D01*
X24092600Y20772300D01*
X24091800Y20773500D01*
X24091100Y20774600D01*
X24090600Y20775400D01*
X24089600Y20777000D01*
X24088900Y20778100D01*
X24088100Y20779200D01*
X24087300Y20780300D01*
X24086300Y20781300D01*
X24085600Y20781900D01*
X24084200Y20782900D01*
X24083000Y20783500D01*
X24081800Y20784100D01*
X24080500Y20784700D01*
X24060100D01*
Y20795900D01*
X24083600D01*
X24085000Y20796000D01*
X24086400Y20796100D01*
X24087400Y20796200D01*
X24089100Y20796400D01*
X24090500Y20796700D01*
X24091800Y20797000D01*
X24092500Y20797200D01*
X24094400Y20798000D01*
X24095700Y20798700D01*
X24096900Y20799400D01*
X24098000Y20800300D01*
X24099100Y20801200D01*
X24100100Y20802200D01*
X24101000Y20803300D01*
X24101900Y20804500D01*
X24102600Y20805700D01*
X24103100Y20806800D01*
X24103600Y20808200D01*
X24104000Y20809500D01*
X24104200Y20810900D01*
X24104400Y20812200D01*
X24104500Y20813600D01*
Y20815000D01*
Y20816400D01*
Y20818100D01*
X24104400Y20819300D01*
X24104300Y20820700D01*
X24104200Y20822100D01*
X24104000Y20823500D01*
X24103800Y20824800D01*
X24103500Y20826200D01*
X24103100Y20827500D01*
X24102700Y20828800D01*
X24102100Y20830000D01*
X24101700Y20830700D01*
X24100600Y20832400D01*
X24099700Y20833500D01*
X24098800Y20834500D01*
X24097700Y20835400D01*
X24096600Y20836300D01*
X24095400Y20837000D01*
X24094600Y20837400D01*
X24092800Y20838000D01*
X24091500Y20838300D01*
X24090100Y20838500D01*
X24088800Y20838700D01*
X24087400Y20838900D01*
X24059700D01*
Y20743800D01*
G03X24063700Y20739900I3943J43D01*
G01X24072700D01*
Y20732400D01*
X24025200D01*
Y20739900D01*
X24032500D01*
G03X24036500Y20743800I45J3956D01*
G37*
G36*
G01X24176700Y20732700D02*
X24231000D01*
G03X24251200Y20754700I-2081J22185D01*
G01Y20840100D01*
G02X24255100Y20844100I3953J47D01*
G01X24261000D01*
Y20851400D01*
X24222500D01*
Y20844100D01*
X24230700D01*
G02X24234700Y20840100I35J-3965D01*
G01Y20761000D01*
G02X24215800Y20746400I-17966J3724D01*
G01X24194100D01*
G02X24177000Y20761000I494J17892D01*
G01Y20840100D01*
G02X24180900Y20844100I3952J48D01*
G01X24189500D01*
Y20851400D01*
X24137300D01*
Y20844100D01*
X24147500D01*
G02X24151500Y20840100I24J-3976D01*
G01Y20763900D01*
G03X24176700Y20732700I32209J238D01*
G37*
G36*
G01X24267000Y20732500D02*
X24304400D01*
Y20741700D01*
X24296300D01*
G02X24292300Y20745700I-34J3966D01*
G01Y20821300D01*
X24336100Y20732500D01*
X24378200Y20819900D01*
Y20745700D01*
G02X24374200Y20741700I-3982J-18D01*
G01X24369600D01*
Y20732700D01*
X24414900D01*
Y20741700D01*
X24413200D01*
G02X24409200Y20745700I-36J3964D01*
G01Y20840600D01*
G02X24413200Y20844600I3959J41D01*
G01X24417200D01*
Y20851400D01*
X24378200D01*
G03X24374600Y20849000I48J-3973D01*
G01X24344100Y20778600D01*
X24311600Y20849100D01*
G03X24308000Y20851400I-3598J-1665D01*
G01X24267000D01*
Y20844100D01*
X24276200D01*
G02X24280200Y20840100I40J-3960D01*
G01Y20745700D01*
G02X24276200Y20741700I-3963J-37D01*
G01X24267000D01*
Y20732500D01*
G37*
G36*
G01X23787000Y20983900D02*
X23789800D01*
Y20954300D01*
X23787000D01*
X23783000Y20959400D01*
G03X23779900Y20960900I-3099J-2451D01*
G01X23739400D01*
Y20922600D01*
X23790400D01*
G03X23793300Y20923800I50J3984D01*
G01X23805600Y20936700D01*
X23809000D01*
X23800300Y20911400D01*
G02X23796500Y20908700I-3767J1277D01*
G01X23705900D01*
Y20913000D01*
X23717000Y20918800D01*
G03X23719200Y20922300I-1776J3558D01*
G01Y21010700D01*
G03X23717200Y21014100I-3959J-41D01*
G01X23705900Y21020800D01*
Y21027600D01*
X23791800D01*
G02X23795400Y21025100I-69J-3942D01*
G01X23806200Y20999200D01*
X23800300Y20996700D01*
X23789800Y21008200D01*
G03X23786900Y21009500I-2940J-2673D01*
G01X23739400D01*
Y20979000D01*
X23780200D01*
G03X23782900Y20980100I-32J3943D01*
G01X23787000Y20983900D01*
G37*
G36*
G01X23676300Y20749600D02*
G03X23684200Y20741700I7928J28D01*
G01X23688500D01*
Y20732700D01*
X23636300Y20732500D01*
Y20741700D01*
X23640500D01*
G03X23648500Y20749600I59J7941D01*
G01Y20872400D01*
G03X23640500Y20880300I-7925J-25D01*
G01X23636300D01*
Y20887100D01*
X23687700D01*
Y20880300D01*
X23684200D01*
G03X23676300Y20872400I13J-7913D01*
G01Y20749600D01*
G37*
G36*
G01X23695400Y20741700D02*
X23702900D01*
G03X23706900Y20745700I21J3979D01*
G01Y20838700D01*
G03X23702900Y20842600I-3970J-71D01*
G01X23694800D01*
Y20851400D01*
X23731300D01*
G02X23734300Y20850000I-17J-3952D01*
G01X23791100Y20784300D01*
Y20837900D01*
G03X23787100Y20841800I-3959J-59D01*
G01X23777400D01*
Y20851400D01*
X23817300D01*
Y20841800D01*
X23808900D01*
G03X23805000Y20837900I42J-3942D01*
G01Y20732700D01*
X23798800D01*
G02X23795800Y20734000I-71J3948D01*
G01X23727200Y20813500D01*
Y20745700D01*
G03X23731100Y20741700I3957J-43D01*
G01X23737100D01*
Y20732700D01*
X23695400D01*
Y20741700D01*
G37*
G36*
G01X23829700Y20733800D02*
X23819700Y20770500D01*
X23824300Y20771600D01*
X23826200Y20769000D01*
X23828200Y20766400D01*
X23830200Y20763800D01*
X23832200Y20761400D01*
X23834300Y20759100D01*
X23836500Y20757000D01*
X23838900Y20755000D01*
X23841300Y20753300D01*
X23844100Y20751900D01*
X23846700Y20750700D01*
X23849700Y20749800D01*
X23852700Y20749100D01*
X23856400Y20748300D01*
X23858900Y20747800D01*
X23862100Y20747200D01*
X23865300Y20746700D01*
X23868400Y20746400D01*
X23871600Y20746300D01*
X23874700Y20746400D01*
X23877700Y20746900D01*
X23880700Y20747600D01*
X23883900Y20748900D01*
X23886400Y20750400D01*
X23889000Y20752400D01*
X23891100Y20754800D01*
X23893000Y20758700D01*
X23893300Y20760500D01*
X23893200Y20763600D01*
X23892400Y20766800D01*
X23891000Y20769800D01*
X23888400Y20773200D01*
X23886900Y20774600D01*
X23884300Y20776300D01*
X23881400Y20777700D01*
X23878500Y20778700D01*
X23874200Y20779700D01*
X23872300Y20780100D01*
X23869200Y20780600D01*
X23866200Y20781100D01*
X23863200Y20781500D01*
X23860100Y20782000D01*
X23857100Y20782400D01*
X23854100Y20782900D01*
X23851000Y20783400D01*
X23848000Y20784100D01*
X23846000Y20784500D01*
X23841800Y20785700D01*
X23838800Y20786800D01*
X23835900Y20788100D01*
X23833200Y20789600D01*
X23830700Y20791300D01*
X23828500Y20793300D01*
X23826600Y20795700D01*
X23825000Y20798300D01*
X23823800Y20801100D01*
X23822800Y20804100D01*
X23822100Y20807300D01*
X23821700Y20810500D01*
X23821400Y20815300D01*
Y20817100D01*
X23821600Y20820400D01*
X23822000Y20823600D01*
X23822600Y20826700D01*
X23823500Y20829700D01*
X23824600Y20832600D01*
X23826000Y20835300D01*
X23827900Y20837900D01*
X23829700Y20840100D01*
X23832000Y20842100D01*
X23834500Y20844000D01*
X23837200Y20845700D01*
X23840000Y20847100D01*
X23842900Y20848400D01*
X23847300Y20849900D01*
X23848900Y20850400D01*
X23852000Y20851100D01*
X23855000Y20851700D01*
X23858000Y20852100D01*
X23861100Y20852400D01*
X23864100Y20852500D01*
X23867300D01*
X23870500Y20852300D01*
X23873600Y20851900D01*
X23876600Y20851300D01*
X23879600Y20850400D01*
X23881900Y20849600D01*
X23885300Y20848100D01*
X23888000Y20846600D01*
X23890700Y20845100D01*
Y20852600D01*
X23899400D01*
X23907100Y20819100D01*
X23904300Y20816300D01*
X23901900Y20818100D01*
X23899500Y20820000D01*
X23897100Y20821700D01*
X23894700Y20823500D01*
X23892100Y20825100D01*
X23889400Y20826600D01*
X23886900Y20827900D01*
X23884100Y20829100D01*
X23881200Y20830100D01*
X23878300Y20830900D01*
X23875400Y20831600D01*
X23872400Y20832200D01*
X23870600Y20832400D01*
X23866500Y20832800D01*
X23863500Y20832900D01*
X23860500Y20832700D01*
X23858000Y20832400D01*
X23854400Y20831700D01*
X23851500Y20830700D01*
X23848900Y20829200D01*
X23847600Y20827900D01*
X23845500Y20824100D01*
X23844800Y20821000D01*
X23844900Y20817800D01*
X23845700Y20815300D01*
X23847500Y20812600D01*
X23849900Y20810800D01*
X23852700Y20809400D01*
X23855800Y20808300D01*
X23858600Y20807500D01*
X23862000Y20806800D01*
X23865000Y20806300D01*
X23868000Y20805900D01*
X23870900Y20805500D01*
X23873800Y20805100D01*
X23876800Y20804600D01*
X23879600Y20804100D01*
X23882500Y20803400D01*
X23885400Y20802700D01*
X23888300Y20801900D01*
X23891000Y20801100D01*
X23894100Y20800000D01*
X23897000Y20798900D01*
X23899700Y20797700D01*
X23902400Y20796300D01*
X23904900Y20794600D01*
X23906900Y20793000D01*
X23909200Y20790500D01*
X23910900Y20788100D01*
X23912500Y20785500D01*
X23913700Y20782700D01*
X23914800Y20779800D01*
X23915600Y20776800D01*
X23916200Y20773900D01*
X23916500Y20770800D01*
X23916700Y20767800D01*
X23916600Y20764800D01*
X23916200Y20761800D01*
X23915600Y20758700D01*
X23914900Y20755900D01*
X23913900Y20753100D01*
X23912700Y20750300D01*
X23911300Y20747600D01*
X23909600Y20745000D01*
X23907800Y20742600D01*
X23905600Y20740200D01*
X23903500Y20738300D01*
X23901100Y20736500D01*
X23898500Y20734900D01*
X23895800Y20733400D01*
X23893000Y20732200D01*
X23890100Y20731200D01*
X23887100Y20730300D01*
X23884100Y20729700D01*
X23881000Y20729200D01*
X23877900Y20728900D01*
X23874500D01*
X23871900Y20729000D01*
X23868900Y20729300D01*
X23865900Y20729700D01*
X23863000Y20730300D01*
X23860100Y20731000D01*
X23857200Y20731800D01*
X23854300Y20732800D01*
X23851500Y20733800D01*
X23848600Y20734800D01*
X23845800Y20735900D01*
X23843000Y20737100D01*
X23840200Y20738300D01*
Y20733800D01*
X23829700D01*
G37*
G36*
G01X24051700Y20910000D02*
X24041700Y20946700D01*
X24046300Y20947800D01*
X24048300Y20945200D01*
X24050200Y20942600D01*
X24052200Y20940100D01*
X24054300Y20937600D01*
X24056400Y20935300D01*
X24058600Y20933200D01*
X24060900Y20931300D01*
X24063400Y20929600D01*
X24066100Y20928100D01*
X24068800Y20927000D01*
X24071700Y20926100D01*
X24074700Y20925300D01*
X24078400Y20924500D01*
X24081000Y20924000D01*
X24084100Y20923400D01*
X24087300Y20923000D01*
X24090500Y20922700D01*
X24093600Y20922500D01*
X24096700Y20922700D01*
X24099800Y20923100D01*
X24102800Y20923900D01*
X24105900Y20925200D01*
X24108500Y20926600D01*
X24111000Y20928700D01*
X24113100Y20931000D01*
X24115000Y20934900D01*
X24115300Y20936700D01*
Y20939900D01*
X24114500Y20943000D01*
X24113100Y20946000D01*
X24110500Y20949400D01*
X24108900Y20950900D01*
X24106300Y20952600D01*
X24103500Y20953900D01*
X24100500Y20954900D01*
X24096200Y20955900D01*
X24094300Y20956300D01*
X24091300Y20956800D01*
X24088200Y20957300D01*
X24085200Y20957800D01*
X24082200Y20958200D01*
X24079100Y20958600D01*
X24076100Y20959100D01*
X24073100Y20959700D01*
X24070000Y20960300D01*
X24068100Y20960800D01*
X24063900Y20961900D01*
X24060800Y20963000D01*
X24057900Y20964300D01*
X24055200Y20965800D01*
X24052700Y20967500D01*
X24050600Y20969500D01*
X24048600Y20971900D01*
X24047100Y20974500D01*
X24045800Y20977400D01*
X24044900Y20980400D01*
X24044100Y20983500D01*
X24043700Y20986700D01*
X24043400Y20991500D01*
Y20993300D01*
X24043600Y20996600D01*
X24044000Y20999800D01*
X24044700Y21002900D01*
X24045500Y21005900D01*
X24046700Y21008800D01*
X24048100Y21011500D01*
X24049900Y21014200D01*
X24051800Y21016300D01*
X24054000Y21018400D01*
X24056500Y21020200D01*
X24059200Y21021900D01*
X24062000Y21023300D01*
X24064900Y21024600D01*
X24069300Y21026100D01*
X24071000Y21026600D01*
X24074000Y21027400D01*
X24077000Y21027900D01*
X24080100Y21028400D01*
X24083200Y21028600D01*
X24086200Y21028700D01*
X24089400D01*
X24092500Y21028500D01*
X24095600Y21028100D01*
X24098700Y21027500D01*
X24101600Y21026700D01*
X24104000Y21025800D01*
X24107300Y21024300D01*
X24110100Y21022800D01*
X24112700Y21021300D01*
Y21028900D01*
X24121400D01*
X24129200Y20995300D01*
X24126300Y20992500D01*
X24124000Y20994300D01*
X24121600Y20996200D01*
X24119200Y20998000D01*
X24116700Y20999700D01*
X24114200Y21001300D01*
X24111400Y21002900D01*
X24108900Y21004100D01*
X24106100Y21005300D01*
X24103300Y21006300D01*
X24100400Y21007100D01*
X24097400Y21007900D01*
X24094500Y21008400D01*
X24092700Y21008700D01*
X24088600Y21009000D01*
X24085600Y21009100D01*
X24082600Y21009000D01*
X24080000Y21008700D01*
X24076500Y21008000D01*
X24073500Y21007000D01*
X24071000Y21005400D01*
X24069700Y21004100D01*
X24067600Y21000300D01*
X24066900Y20997200D01*
X24067000Y20994000D01*
X24067700Y20991500D01*
X24069600Y20988900D01*
X24071900Y20987000D01*
X24074700Y20985600D01*
X24077800Y20984500D01*
X24080700Y20983700D01*
X24084000Y20983000D01*
X24087100Y20982500D01*
X24090000Y20982100D01*
X24092900Y20981700D01*
X24095800Y20981300D01*
X24098800Y20980800D01*
X24101600Y20980300D01*
X24104500Y20979700D01*
X24107400Y20978900D01*
X24110300Y20978100D01*
X24113100Y20977300D01*
X24116100Y20976200D01*
X24119000Y20975200D01*
X24121800Y20973900D01*
X24124400Y20972500D01*
X24126900Y20970900D01*
X24128900Y20969200D01*
X24131200Y20966800D01*
X24133000Y20964300D01*
X24134500Y20961700D01*
X24135800Y20958900D01*
X24136800Y20956000D01*
X24137700Y20953000D01*
X24138200Y20950100D01*
X24138600Y20947100D01*
X24138700Y20944100D01*
X24138600Y20941100D01*
X24138300Y20938100D01*
X24137700Y20934900D01*
X24137000Y20932200D01*
X24135900Y20929300D01*
X24134700Y20926500D01*
X24133300Y20923800D01*
X24131700Y20921200D01*
X24129900Y20918800D01*
X24127600Y20916400D01*
X24125600Y20914600D01*
X24123200Y20912700D01*
X24120600Y20911100D01*
X24117900Y20909700D01*
X24115100Y20908400D01*
X24112100Y20907400D01*
X24109200Y20906500D01*
X24106100Y20905900D01*
X24103100Y20905400D01*
X24100000Y20905200D01*
X24096500Y20905100D01*
X24093900Y20905200D01*
X24090900Y20905500D01*
X24087900Y20905900D01*
X24085000Y20906500D01*
X24082100Y20907200D01*
X24079200Y20908100D01*
X24076400Y20909000D01*
X24073500Y20910000D01*
X24070700Y20911100D01*
X24067900Y20912200D01*
X24065000Y20913300D01*
X24062200Y20914500D01*
Y20910000D01*
X24051700D01*
G37*
G36*
G01X23389700Y21065000D02*
X23366900D01*
Y21132500D01*
X23272500D01*
Y20991400D01*
X23172300D01*
X23173100Y20987800D01*
X23174000Y20984300D01*
X23174900Y20980800D01*
X23175900Y20977400D01*
X23177100Y20974000D01*
X23178300Y20970800D01*
X23179800Y20967700D01*
X23181500Y20964800D01*
X23183400Y20962000D01*
X23184500Y20960700D01*
X23188000Y20957100D01*
X23190600Y20954800D01*
X23193400Y20952600D01*
X23196100Y20950500D01*
X23198900Y20948300D01*
X23202000Y20945800D01*
X23204200Y20943800D01*
X23206700Y20941300D01*
X23209100Y20938800D01*
X23211300Y20936100D01*
X23213500Y20933500D01*
X23215700Y20930700D01*
X23217800Y20928000D01*
X23218900Y20924400D01*
X23219900Y20920900D01*
X23220900Y20917300D01*
X23222000Y20913700D01*
X23223100Y20910200D01*
X23224200Y20906700D01*
X23225500Y20903200D01*
X23226700Y20899700D01*
X23228100Y20896300D01*
X23229600Y20892900D01*
X23231700Y20888400D01*
X23232900Y20886200D01*
X23234700Y20882900D01*
X23236800Y20879900D01*
X23239300Y20877000D01*
X23242200Y20874500D01*
X23245400Y20872500D01*
X23249100Y20871000D01*
X23252900Y20870100D01*
X23256600Y20870000D01*
X23259400Y20870600D01*
X23263300Y20872400D01*
X23266200Y20874700D01*
X23268900Y20877500D01*
X23271300Y20880500D01*
X23273800Y20883600D01*
X23276100Y20886600D01*
X23278600Y20889500D01*
X23281100Y20892100D01*
X23283900Y20894400D01*
X23287200Y20896300D01*
X23290500Y20897600D01*
X23295100Y20898300D01*
X23297900Y20898000D01*
X23301500Y20897000D01*
X23304900Y20895300D01*
X23308900Y20892300D01*
X23310900Y20890600D01*
X23313400Y20887800D01*
X23315700Y20884900D01*
X23317700Y20881800D01*
X23319600Y20878600D01*
X23320800Y20876500D01*
X23323200Y20872100D01*
X23324900Y20868800D01*
X23326600Y20865500D01*
X23328300Y20862200D01*
X23329900Y20858900D01*
X23331400Y20855500D01*
X23332700Y20852700D01*
X23334500Y20848800D01*
X23336000Y20845400D01*
X23337600Y20842000D01*
X23339100Y20838600D01*
X23340600Y20835300D01*
X23342200Y20831900D01*
X23344600Y20827000D01*
X23345500Y20825300D01*
X23347100Y20822000D01*
X23348900Y20818700D01*
X23350700Y20815500D01*
X23352700Y20812400D01*
X23354700Y20809200D01*
X23356700Y20806200D01*
X23359000Y20803100D01*
X23360400Y20801200D01*
X23363700Y20797300D01*
X23366300Y20794500D01*
X23368900Y20791800D01*
X23371700Y20789200D01*
X23374500Y20786700D01*
X23377400Y20784400D01*
X23380300Y20782200D01*
X23384200Y20779500D01*
X23386100Y20778300D01*
X23389100Y20776600D01*
X23392100Y20775000D01*
X23395300Y20773700D01*
X23398500Y20772600D01*
X23401900Y20771600D01*
X23405500Y20770800D01*
X23409200Y20770200D01*
X23413200Y20769800D01*
X23417500Y20769600D01*
X23423800Y20769500D01*
X23426900Y20769700D01*
X23431900Y20770000D01*
X23436700Y20770700D01*
X23441000Y20771700D01*
X23444400Y20773000D01*
X23446700Y20774800D01*
X23447600Y20777500D01*
X23446800Y20779900D01*
X23444700Y20783100D01*
X23442000Y20786500D01*
X23440600Y20796000D01*
X23439400Y20805400D01*
X23438800Y20814500D01*
X23439000Y20823200D01*
X23440000Y20830100D01*
X23442900Y20839100D01*
X23446800Y20846200D01*
X23451700Y20852700D01*
X23457600Y20858900D01*
X23464400Y20864600D01*
X23471900Y20869900D01*
X23480100Y20875000D01*
X23488900Y20879700D01*
X23498100Y20884300D01*
X23507600Y20888800D01*
X23517300Y20893100D01*
X23527100Y20897400D01*
X23544600D01*
Y20977500D01*
X23526800Y20995300D01*
Y21065000D01*
X23445600D01*
X23435700Y21012200D01*
X23459500D01*
X23453500Y20978600D01*
X23431700D01*
X23418400Y20908100D01*
X23435600Y20908200D01*
Y20879900D01*
G02X23428400Y20870700I-8030J-1133D01*
G01X23372900D01*
G02X23356500Y20883500I-1092J15508D01*
G01Y20891500D01*
X23372100Y20978600D01*
X23348900D01*
X23356100Y21012200D01*
X23380900D01*
X23389700Y21065000D01*
G37*
G36*
G01X23398100Y21070600D02*
X23407200Y21110400D01*
X23448800D01*
X23439700Y21070600D01*
X23398100D01*
G37*
G36*
G01Y21065000D02*
X23366400Y20908200D01*
X23408000D01*
X23439700Y21065000D01*
X23398100D01*
G37*
G36*
G01X25446900Y21023000D02*
X25807600D01*
Y21252800D01*
X25446900D01*
X25389400Y21195400D01*
X25332000Y21137900D01*
X25389400Y21080500D01*
X25446900Y21023000D01*
G37*
G36*
G01X24727200Y20740100D02*
Y20732700D01*
X24686600D01*
Y20740100D01*
X24691100D01*
G03X24695000Y20743900I16J3884D01*
G01Y20834300D01*
G03X24691100Y20838200I-3893J7D01*
G01X24668000D01*
G03X24665300Y20837100I10J-3888D01*
G01X24654900Y20826800D01*
X24658700Y20851000D01*
X24755100D01*
X24758900Y20826800D01*
X24748500Y20837100D01*
G03X24745700Y20838200I-2715J-2796D01*
G01X24722700D01*
G03X24718800Y20834300I-20J-3880D01*
G01Y20743900D01*
G03X24722700Y20740100I3870J71D01*
G01X24727200D01*
G37*
G36*
G01X24506500Y20807700D02*
X24509400D01*
Y20778100D01*
X24506500D01*
X24502500Y20783200D01*
G03X24499400Y20784700I-3103J-2459D01*
G01X24458900D01*
Y20746400D01*
X24509900D01*
G03X24512800Y20747600I59J3961D01*
G01X24525100Y20760500D01*
X24528600D01*
X24519800Y20735200D01*
G02X24516100Y20732500I-3752J1256D01*
G01X24425400D01*
Y20736800D01*
X24436600Y20742600D01*
G03X24438700Y20746100I-1871J3502D01*
G01Y20834500D01*
G03X24436700Y20837900I-3954J-37D01*
G01X24425400Y20844600D01*
Y20851400D01*
X24511300D01*
G02X24515000Y20848900I7J-3977D01*
G01X24525700Y20822900D01*
X24519800Y20820500D01*
X24509300Y20832000D01*
G03X24506400Y20833300I-2944J-2682D01*
G01X24458900D01*
Y20802800D01*
X24499700D01*
G03X24502500Y20803900I67J3943D01*
G01X24506500Y20807700D01*
G37*
G36*
G01X24530200Y20741700D02*
X24537700D01*
G03X24541700Y20745700I38J3962D01*
G01Y20838700D01*
G03X24537700Y20842600I-3953J-53D01*
G01X24529700D01*
Y20851400D01*
X24566200D01*
G02X24569200Y20850000I-23J-3964D01*
G01X24625900Y20784300D01*
Y20837900D01*
G03X24622000Y20841800I-3941J-41D01*
G01X24612300D01*
Y20851400D01*
X24652200D01*
Y20841800D01*
X24643800D01*
G03X24639800Y20837900I-41J-3960D01*
G01Y20732700D01*
X24633700D01*
G02X24630700Y20734000I-76J3936D01*
G01X24562000Y20813500D01*
Y20745700D01*
G03X24566000Y20741700I3975J-25D01*
G01X24571900D01*
Y20732700D01*
X24530200D01*
Y20741700D01*
G37*
G36*
G01X24774000Y20734500D02*
X24764100Y20771100D01*
X24768700Y20772300D01*
X24770600Y20769600D01*
X24772500Y20767000D01*
X24774500Y20764500D01*
X24776600Y20762100D01*
X24778700Y20759800D01*
X24780900Y20757700D01*
X24783200Y20755700D01*
X24785700Y20754000D01*
X24788400Y20752500D01*
X24791100Y20751400D01*
X24794000Y20750500D01*
X24797100Y20749700D01*
X24800700Y20749000D01*
X24803300Y20748500D01*
X24806500Y20747900D01*
X24809600Y20747400D01*
X24812800Y20747100D01*
X24815900Y20747000D01*
X24819000Y20747100D01*
X24822100Y20747500D01*
X24825100Y20748300D01*
X24828300Y20749600D01*
X24830800Y20751100D01*
X24833300Y20753100D01*
X24835500Y20755500D01*
X24837300Y20759300D01*
X24837700Y20761200D01*
X24837600Y20764300D01*
X24836800Y20767500D01*
X24835400Y20770500D01*
X24832800Y20773900D01*
X24831200Y20775300D01*
X24828600Y20777000D01*
X24825800Y20778300D01*
X24822800Y20779300D01*
X24818500Y20780400D01*
X24816700Y20780700D01*
X24813600Y20781300D01*
X24810600Y20781800D01*
X24807500Y20782200D01*
X24804500Y20782600D01*
X24801500Y20783100D01*
X24798400Y20783600D01*
X24795400Y20784100D01*
X24792300Y20784700D01*
X24790400Y20785200D01*
X24786200Y20786400D01*
X24783200Y20787500D01*
X24780300Y20788700D01*
X24777500Y20790200D01*
X24775000Y20792000D01*
X24772900Y20794000D01*
X24770900Y20796400D01*
X24769400Y20799000D01*
X24768100Y20801800D01*
X24767200Y20804800D01*
X24766500Y20808000D01*
X24766000Y20811200D01*
X24765800Y20816000D01*
Y20817800D01*
X24765900Y20821000D01*
X24766300Y20824200D01*
X24767000Y20827400D01*
X24767900Y20830400D01*
X24769000Y20833200D01*
X24770400Y20835900D01*
X24772200Y20838600D01*
X24774100Y20840700D01*
X24776400Y20842800D01*
X24778900Y20844700D01*
X24781500Y20846300D01*
X24784300Y20847800D01*
X24787300Y20849100D01*
X24791700Y20850600D01*
X24793300Y20851100D01*
X24796300Y20851800D01*
X24799400Y20852400D01*
X24802400Y20852800D01*
X24805500Y20853100D01*
X24808500Y20853200D01*
X24811700Y20853100D01*
X24814800Y20852900D01*
X24817900Y20852600D01*
X24821000Y20851900D01*
X24824000Y20851100D01*
X24826300Y20850300D01*
X24829600Y20848800D01*
X24832400Y20847300D01*
X24835100Y20845700D01*
Y20853300D01*
X24843800D01*
X24851500Y20819800D01*
X24848700Y20816900D01*
X24846300Y20818800D01*
X24843900Y20820600D01*
X24841500Y20822400D01*
X24839000Y20824100D01*
X24836500Y20825700D01*
X24833800Y20827300D01*
X24831200Y20828500D01*
X24828400Y20829700D01*
X24825600Y20830700D01*
X24822700Y20831600D01*
X24819800Y20832300D01*
X24816800Y20832900D01*
X24815000Y20833100D01*
X24810900Y20833500D01*
X24807900D01*
X24804900Y20833400D01*
X24802300Y20833100D01*
X24798800Y20832400D01*
X24795900Y20831400D01*
X24793300Y20829900D01*
X24792000Y20828600D01*
X24789900Y20824800D01*
X24789200Y20821600D01*
X24789300Y20818500D01*
X24790100Y20816000D01*
X24791900Y20813300D01*
X24794300Y20811500D01*
X24797100Y20810000D01*
X24800100Y20809000D01*
X24803000Y20808200D01*
X24806400Y20807500D01*
X24809400Y20807000D01*
X24812300Y20806500D01*
X24815300Y20806200D01*
X24818100Y20805800D01*
X24821100Y20805300D01*
X24823900Y20804800D01*
X24826800Y20804100D01*
X24829700Y20803400D01*
X24832600Y20802600D01*
X24835400Y20801700D01*
X24838500Y20800700D01*
X24841300Y20799600D01*
X24844100Y20798400D01*
X24846800Y20796900D01*
X24849200Y20795300D01*
X24851300Y20793600D01*
X24853500Y20791200D01*
X24855300Y20788800D01*
X24856800Y20786200D01*
X24858100Y20783400D01*
X24859200Y20780500D01*
X24860000Y20777500D01*
X24860600Y20774500D01*
X24860900Y20771500D01*
X24861000Y20768500D01*
X24860900Y20765500D01*
X24860600Y20762500D01*
X24860000Y20759300D01*
X24859300Y20756600D01*
X24858300Y20753700D01*
X24857100Y20750900D01*
X24855600Y20748300D01*
X24854000Y20745700D01*
X24852200Y20743300D01*
X24850000Y20740900D01*
X24847900Y20739000D01*
X24845500Y20737200D01*
X24842900Y20735500D01*
X24840200Y20734100D01*
X24837400Y20732900D01*
X24834500Y20731800D01*
X24831500Y20731000D01*
X24828500Y20730300D01*
X24825400Y20729900D01*
X24822300Y20729600D01*
X24818900Y20729500D01*
X24816200Y20729700D01*
X24813200Y20729900D01*
X24810300Y20730400D01*
X24807300Y20731000D01*
X24804400Y20731700D01*
X24801500Y20732500D01*
X24798700Y20733400D01*
X24795800Y20734400D01*
X24793000Y20735500D01*
X24790200Y20736600D01*
X24787400Y20737800D01*
X24784500Y20738900D01*
Y20734500D01*
X24774000D01*
G37*
G36*
G01X25808600Y21767500D02*
X25447900D01*
X25331700Y21651300D01*
X25389200Y21593900D01*
X25446600Y21536400D01*
X25808600D01*
Y21652000D01*
Y21767500D01*
G37*
G36*
G01Y21517500D02*
X25447900D01*
X25331700Y21401300D01*
X25389200Y21343900D01*
X25446600Y21286400D01*
X25808600D01*
Y21402000D01*
Y21517500D01*
G37*
G36*
G01X25798600Y24557500D02*
X25437900D01*
X25321700Y24441300D01*
X25379200Y24383900D01*
X25436600Y24326400D01*
X25798600D01*
Y24442000D01*
Y24557500D01*
G37*
%LPC*%
G75*
G36*
G01X20157800Y21202900D02*
X20189900Y21202500D01*
X20222000Y21202200D01*
Y21183000D01*
X20198200Y21182700D01*
X20174400Y21182300D01*
X20172300Y21171000D01*
X20170600Y21161300D01*
X20170400Y21158300D01*
G03X20171100Y21157800I585J79D01*
G03X20172500Y21158400I-355J2763D01*
G01X20176500Y21161300D01*
X20181000Y21163300D01*
G02X20186100Y21164500I9093J-27209D01*
G01X20192000Y21164900D01*
X20199500Y21164500D01*
G02X20205600Y21163000I-3406J-27005D01*
G02X20211000Y21160200I-8792J-23563D01*
G02X20216400Y21155900I-24853J-36751D01*
G02X20221500Y21150000I-25151J-26895D01*
G02X20225100Y21143300I-26957J-18801D01*
G02X20227200Y21135700I-33929J-13465D01*
G02X20227900Y21126900I-55131J-8813D01*
G02X20225700Y21112600I-47491J-13D01*
G02X20219400Y21100600I-36257J11381D01*
G02X20209200Y21091500I-30212J23598D01*
G01X20195800Y21085900D01*
X20191100Y21084800D01*
X20187300Y21084400D01*
G02X20183500Y21084500I-1163J28038D01*
G01X20178300Y21085200D01*
X20164700Y21088900D01*
G02X20154200Y21095400I13776J33984D01*
G01X20146900Y21104600D01*
G02X20142900Y21116300I35429J18646D01*
G01X20142100Y21121100D01*
X20154300D01*
X20161300Y21121000D01*
G02X20164400Y21120700I-297J-19231D01*
G02X20165900Y21120000I-631J-3309D01*
G02X20166400Y21118900I-986J-1112D01*
G03X20167100Y21115800I7241J6D01*
G01X20169400Y21112100D01*
X20172300Y21108600D01*
X20175500Y21106400D01*
X20179900Y21104800D01*
X20185300Y21104400D01*
G03X20190500Y21105000I-386J26178D01*
G01X20194800Y21106600D01*
X20198500Y21109800D01*
X20201800Y21114700D01*
X20204000Y21120400D01*
X20204700Y21125800D01*
G03X20201600Y21137800I-24412J94D01*
G03X20193100Y21145800I-16887J-9427D01*
G01X20181600Y21147300D01*
G03X20170500Y21142100I4126J-23254D01*
G01X20168000Y21140400D01*
G02X20165600Y21139500I-4285J7776D01*
G01X20162400Y21139100D01*
X20156500Y21139000D01*
X20146300D01*
X20149300Y21155900D01*
X20150700Y21163500D01*
X20152200Y21172300D01*
X20153800Y21180900D01*
X20155000Y21187800D01*
X20157800Y21202900D01*
G37*
G36*
G01X20230500Y21204100D02*
X20257000D01*
X20265200Y21178200D01*
X20268700Y21167200D01*
X20272500Y21155500D01*
X20275900Y21144800D01*
X20278300Y21137300D01*
G03X20280300Y21131300I205064J65021D01*
G03X20282000Y21126900I68915J24098D01*
G01X20283400Y21123900D01*
G03X20284000I300J144D01*
G01X20284500Y21125200D01*
X20288300Y21136600D01*
X20292500Y21149700D01*
X20297400Y21164800D01*
X20309900Y21204100D01*
X20323100D01*
X20328100Y21204000D01*
X20332400Y21203800D01*
X20335900Y21203500D01*
G02X20336300Y21203100I5J-395D01*
G01X20336100Y21202400D01*
X20330600Y21185500D01*
X20324400Y21166600D01*
X20317000Y21144400D01*
X20297700Y21086500D01*
X20283100Y21086900D01*
X20268400Y21087300D01*
X20252500Y21135800D01*
X20246200Y21155100D01*
X20240400Y21173000D01*
X20235600Y21188000D01*
X20233600Y21194200D01*
X20230500Y21204100D01*
G37*
G36*
G01X20395600Y21551600D02*
X20060500D01*
Y21744400D01*
X20395700D01*
X20443300Y21696900D01*
G02X20461500Y21678600I-3551391J-3550184D01*
G01X20476800Y21662900D01*
X20490500Y21648900D01*
G02X20490800Y21648000I-987J-829D01*
G01X20490500Y21647100D01*
X20476800Y21633100D01*
G02X20461500Y21617500I-1868318J1817086D01*
G01X20395600Y21551600D01*
G37*
G36*
G01Y21301600D02*
X20060500D01*
Y21494400D01*
X20395700D01*
X20443300Y21446900D01*
G02X20461500Y21428600I-3551391J-3550184D01*
G01X20476800Y21412900D01*
X20490500Y21398900D01*
G02X20490800Y21398000I-987J-829D01*
G01X20490500Y21397100D01*
X20476800Y21383100D01*
G02X20461500Y21367500I-1868318J1817086D01*
G01X20395600Y21301600D01*
G37*
G36*
G01X21197800Y24502900D02*
X21229900Y24502500D01*
X21262000Y24502200D01*
Y24483000D01*
X21238200Y24482700D01*
X21214400Y24482300D01*
X21212300Y24471000D01*
X21210600Y24461300D01*
X21210400Y24458300D01*
G03X21211100Y24457800I585J79D01*
G03X21212500Y24458400I-355J2763D01*
G01X21216500Y24461300D01*
X21221000Y24463300D01*
G02X21226100Y24464500I9093J-27209D01*
G01X21232000Y24464900D01*
X21239500Y24464500D01*
G02X21245600Y24463000I-3406J-27005D01*
G02X21251000Y24460200I-8792J-23563D01*
G02X21256400Y24455900I-24853J-36751D01*
G02X21261500Y24450000I-25151J-26895D01*
G02X21265100Y24443300I-26957J-18801D01*
G02X21267200Y24435700I-33929J-13465D01*
G02X21267900Y24426900I-55131J-8813D01*
G02X21265700Y24412600I-47491J-13D01*
G02X21259400Y24400600I-36257J11381D01*
G02X21249200Y24391500I-30212J23598D01*
G01X21235800Y24385900D01*
X21231100Y24384800D01*
X21227300Y24384400D01*
G02X21223500Y24384500I-1163J28038D01*
G01X21218300Y24385200D01*
X21204700Y24388900D01*
G02X21194200Y24395400I13776J33984D01*
G01X21186900Y24404600D01*
G02X21182900Y24416300I35429J18646D01*
G01X21182100Y24421100D01*
X21194300D01*
X21201300Y24421000D01*
G02X21204400Y24420700I-297J-19231D01*
G02X21205900Y24420000I-631J-3309D01*
G02X21206400Y24418900I-986J-1112D01*
G03X21207100Y24415800I7241J6D01*
G01X21209400Y24412100D01*
X21212300Y24408600D01*
X21215500Y24406400D01*
X21219900Y24404800D01*
X21225300Y24404400D01*
G03X21230500Y24405000I-386J26178D01*
G01X21234800Y24406600D01*
X21238500Y24409800D01*
X21241800Y24414700D01*
X21244000Y24420400D01*
X21244700Y24425800D01*
G03X21241600Y24437800I-24412J94D01*
G03X21233100Y24445800I-16887J-9427D01*
G01X21221600Y24447300D01*
G03X21210500Y24442100I4126J-23254D01*
G01X21208000Y24440400D01*
G02X21205600Y24439500I-4285J7776D01*
G01X21202400Y24439100D01*
X21196500Y24439000D01*
X21186300D01*
X21189300Y24455900D01*
X21190700Y24463500D01*
X21192200Y24472300D01*
X21193800Y24480900D01*
X21195000Y24487800D01*
X21197800Y24502900D01*
G37*
G36*
G01X21270500Y24504100D02*
X21297000D01*
X21305200Y24478200D01*
X21308700Y24467200D01*
X21312500Y24455500D01*
X21315900Y24444800D01*
X21318300Y24437300D01*
G03X21320300Y24431300I205064J65021D01*
G03X21322000Y24426900I68915J24098D01*
G01X21323400Y24423900D01*
G03X21324000I300J144D01*
G01X21324500Y24425200D01*
X21328300Y24436600D01*
X21332500Y24449700D01*
X21337400Y24464800D01*
X21349900Y24504100D01*
X21363100D01*
X21368100Y24504000D01*
X21372400Y24503800D01*
X21375900Y24503500D01*
G02X21376300Y24503100I5J-395D01*
G01X21376100Y24502400D01*
X21370600Y24485500D01*
X21364400Y24466600D01*
X21357000Y24444400D01*
X21337700Y24386500D01*
X21323100Y24386900D01*
X21308400Y24387300D01*
X21292500Y24435800D01*
X21286200Y24455100D01*
X21280400Y24473000D01*
X21275600Y24488000D01*
X21273600Y24494200D01*
X21270500Y24504100D01*
G37*
G36*
G01X20162300Y24509100D02*
X20171300Y24508700D01*
X20180400Y24507600D01*
X20186300Y24505800D01*
X20191900Y24502700D01*
X20197100Y24498700D01*
G02X20201400Y24494100I-26281J-28877D01*
G02X20204200Y24489500I-17334J-13704D01*
G01X20206600Y24480300D01*
X20205700Y24470400D01*
G02X20201900Y24461800I-27046J6811D01*
G02X20195800Y24456100I-14884J9815D01*
G01X20191000Y24453400D01*
X20195600Y24451900D01*
G02X20202800Y24447400I-5638J-17030D01*
G01X20208200Y24439500D01*
X20211000Y24429700D01*
G02X20210500Y24419700I-30736J-3476D01*
G02X20208800Y24413900I-40104J8606D01*
G01X20206400Y24408900D01*
X20202900Y24404400D01*
X20198200Y24399600D01*
X20184500Y24392000D01*
X20167600Y24389500D01*
G02X20150700Y24392500I869J53999D01*
G02X20137200Y24400600I12408J35980D01*
G02X20133400Y24405100I17094J18289D01*
G01X20130100Y24411000D01*
X20127700Y24417600D01*
G02X20126500Y24424000I33412J9577D01*
G01X20125800Y24431400D01*
X20147600D01*
X20148500Y24426700D01*
X20152100Y24417200D01*
X20158600Y24411000D01*
X20167000Y24408700D01*
G03X20176400Y24410700I-65J23395D01*
G01X20180800Y24413500D01*
G03X20184000Y24417100I-9110J11320D01*
G03X20185900Y24421700I-13109J8107D01*
G01X20186600Y24427300D01*
X20185500Y24434200D01*
X20182500Y24439000D01*
X20176900Y24442000D01*
G03X20168300Y24443700I-13756J-46985D01*
G01X20160600Y24444500D01*
Y24460800D01*
X20166400D01*
G03X20172000Y24461300I45J31107D01*
G01X20176800Y24462800D01*
X20180500Y24465300D01*
G03X20183000Y24468500I-7642J8547D01*
G03X20184500Y24475800I-12100J6290D01*
G03X20182000Y24483000I-14685J-1065D01*
G01X20176100Y24488300D01*
X20168300Y24490100D01*
X20162600Y24489200D01*
X20157700Y24486300D01*
G03X20153900Y24481800I11233J-13340D01*
G03X20151500Y24475900I19850J-11513D01*
G01X20149900Y24469700D01*
X20128400D01*
X20129200Y24475600D01*
G02X20132200Y24486400I41075J-5593D01*
G02X20138000Y24495800I34603J-14862D01*
G02X20146400Y24503200I29366J-24867D01*
G02X20156800Y24508200I24556J-37761D01*
G02X20162300Y24509100I5537J-16583D01*
G37*
G36*
G01X20213200Y24509300D02*
X20239700D01*
X20247500Y24484700D01*
X20250900Y24474100D01*
X20254600Y24462600D01*
X20258000Y24451800D01*
X20260500Y24443800D01*
X20262600Y24437600D01*
X20264500Y24432700D01*
G03X20266100Y24428900I126235J50915D01*
G03X20266600Y24428800I276J82D01*
G03X20267100Y24429900I-4502J2710D01*
G01X20270900Y24441400D01*
X20275200Y24454500D01*
G03X20280100Y24469700I-4412284J1430771D01*
G01X20292700Y24509300D01*
X20305800D01*
X20310900Y24509200D01*
X20315100Y24509000D01*
X20318600Y24508700D01*
G02X20319000Y24508300I8J-392D01*
G01X20318800Y24507600D01*
X20313300Y24490700D01*
X20307100Y24471800D01*
X20299700Y24449600D01*
X20280400Y24391700D01*
X20251000Y24392500D01*
X20237700Y24433300D01*
X20226700Y24467300D01*
X20221900Y24482300D01*
X20218900Y24491700D01*
X20213200Y24509300D01*
G37*
G36*
G01X20366500Y24508800D02*
G02X20375100Y24507800I-4083J-72590D01*
G01X20381600Y24505900D01*
X20390400Y24500700D01*
G02X20396800Y24494100I-17624J-23493D01*
G02X20400600Y24486200I-21697J-15300D01*
G02X20401900Y24477100I-30870J-9053D01*
G01X20401300Y24470200D01*
G02X20399300Y24464400I-22283J4439D01*
G01X20396000Y24459800D01*
X20391400Y24456300D01*
X20386700Y24453600D01*
X20391000Y24452000D01*
X20393000Y24451100D01*
X20395400Y24449500D01*
X20397800Y24447500D01*
X20399900Y24445500D01*
G02X20406300Y24432200I-19645J-17643D01*
G02X20405200Y24416500I-32638J-5602D01*
G02X20396700Y24402200I-35847J11632D01*
G02X20382900Y24392900I-27835J26415D01*
G02X20373900Y24390500I-14709J37082D01*
G02X20363200Y24389800I-9953J70009D01*
G02X20352700Y24390700I593J68624D01*
G01X20344500Y24393200D01*
X20341500Y24394700D01*
X20338300Y24396600D01*
X20335500Y24398400D01*
X20333400Y24400000D01*
G02X20329500Y24404300I13793J16428D01*
G01X20325900Y24410500D01*
X20323300Y24417500D01*
X20321900Y24424200D01*
X20321200Y24431400D01*
X20343000D01*
X20344500Y24424900D01*
G03X20348200Y24416600I24087J5763D01*
G01X20354500Y24411000D01*
X20362400Y24408800D01*
X20371000Y24410400D01*
G03X20376900Y24414200I-6755J16968D01*
G01X20380900Y24419900D01*
G03X20382400Y24426800I-16626J7227D01*
G03X20381200Y24433900I-20113J252D01*
G03X20379000Y24437700I-11248J-3975D01*
G03X20375500Y24440600I-10211J-8761D01*
G03X20370500Y24442600I-9812J-17279D01*
G01X20363900Y24443700D01*
X20356000Y24444500D01*
Y24460800D01*
X20361800D01*
X20369400Y24461700D01*
G03X20375200Y24464500I-4197J16100D01*
G03X20378900Y24468900I-7404J9982D01*
G01X20380200Y24474600D01*
X20378000Y24482500D01*
G03X20371700Y24488200I-13588J-8686D01*
G03X20363300Y24490100I-7846J-15171D01*
G03X20355000Y24487600I617J-17078D01*
G03X20352200Y24485300I7091J-11487D01*
G03X20349700Y24482000I13852J-13091D01*
G03X20347800Y24478000I20355J-12120D01*
G01X20346500Y24473200D01*
G02X20345700Y24471100I-7097J1501D01*
G01X20344400Y24470200D01*
X20342000Y24469800D01*
X20334800Y24469700D01*
X20323800D01*
X20324700Y24475600D01*
X20327700Y24486600D01*
X20333300Y24495700D01*
G02X20341200Y24502700I27029J-22547D01*
G02X20351300Y24507500I23564J-36557D01*
G01X20366500Y24508800D01*
G37*
G36*
G01X21134400Y24298400D02*
X21469500D01*
Y24105600D01*
X21134300D01*
X21086700Y24153100D01*
G02X21068500Y24171400I3551391J3550184D01*
G01X21053200Y24187100D01*
X21039500Y24201100D01*
G02X21039200Y24202000I987J829D01*
G01X21039500Y24202900D01*
X21053200Y24216900D01*
G02X21068500Y24232500I1868318J-1817086D01*
G01X21134400Y24298400D01*
G37*
G36*
G01X21248400Y25235600D02*
Y24900500D01*
X21055600D01*
Y25235700D01*
X21103100Y25283300D01*
G02X21121400Y25301500I3550184J-3551391D01*
G01X21137100Y25316800D01*
X21151100Y25330500D01*
G02X21152000Y25330800I829J-987D01*
G01X21152900Y25330500D01*
X21166900Y25316800D01*
G02X21182500Y25301500I-1817086J-1868318D01*
G01X21248400Y25235600D01*
G37*
G36*
G01X21591200Y25186500D02*
G02X21592200Y25195100I72590J-4083D01*
G01X21594100Y25201600D01*
X21599300Y25210400D01*
G02X21605900Y25216800I23493J-17624D01*
G02X21613800Y25220600I15300J-21697D01*
G02X21622900Y25221900I9053J-30870D01*
G01X21629800Y25221300D01*
G02X21635600Y25219300I-4439J-22283D01*
G01X21640200Y25216000D01*
X21643700Y25211400D01*
X21646400Y25206700D01*
X21648000Y25211000D01*
X21648900Y25213000D01*
X21650500Y25215400D01*
X21652500Y25217800D01*
X21654500Y25219900D01*
G02X21667800Y25226300I17643J-19645D01*
G02X21683500Y25225200I5602J-32638D01*
G02X21697800Y25216700I-11632J-35847D01*
G02X21707100Y25202900I-26415J-27835D01*
G02X21709500Y25193900I-37082J-14709D01*
G02X21710200Y25183200I-70009J-9953D01*
G02X21709300Y25172700I-68624J593D01*
G01X21706800Y25164500D01*
X21705300Y25161500D01*
X21703400Y25158300D01*
X21701600Y25155500D01*
X21700000Y25153400D01*
G02X21695700Y25149500I-16428J13793D01*
G01X21689500Y25145900D01*
X21682500Y25143300D01*
X21675800Y25141900D01*
X21668600Y25141200D01*
Y25163000D01*
X21675100Y25164500D01*
G03X21683400Y25168200I-5763J24087D01*
G01X21689000Y25174500D01*
X21691200Y25182400D01*
X21689600Y25191000D01*
G03X21685800Y25196900I-16968J-6755D01*
G01X21680100Y25200900D01*
G03X21673200Y25202400I-7227J-16626D01*
G03X21666100Y25201200I-252J-20113D01*
G03X21662300Y25199000I3975J-11248D01*
G03X21659400Y25195500I8761J-10211D01*
G03X21657400Y25190500I17279J-9812D01*
G01X21656300Y25183900D01*
X21655500Y25176000D01*
X21639200D01*
Y25181800D01*
X21638300Y25189400D01*
G03X21635500Y25195200I-16100J-4197D01*
G03X21631100Y25198900I-9982J-7404D01*
G01X21625400Y25200200D01*
X21617500Y25198000D01*
G03X21611800Y25191700I8686J-13588D01*
G03X21609900Y25183300I15171J-7846D01*
G03X21612400Y25175000I17078J617D01*
G03X21614700Y25172200I11487J7091D01*
G03X21618000Y25169700I13091J13852D01*
G03X21622000Y25167800I12120J20355D01*
G01X21626800Y25166500D01*
G02X21628900Y25165700I-1501J-7097D01*
G01X21629800Y25164400D01*
X21630200Y25162000D01*
X21630300Y25154800D01*
Y25143800D01*
X21624400Y25144700D01*
X21613400Y25147700D01*
X21604300Y25153300D01*
G02X21597300Y25161200I22547J27029D01*
G02X21592500Y25171300I36557J23564D01*
G01X21591200Y25186500D01*
G37*
G36*
G01X21590700Y25033200D02*
Y25059700D01*
X21615300Y25067500D01*
X21625900Y25070900D01*
X21637400Y25074600D01*
X21648200Y25078000D01*
X21656200Y25080500D01*
X21662400Y25082600D01*
X21667300Y25084500D01*
G03X21671100Y25086100I-50915J126235D01*
G03X21671200Y25086600I-82J276D01*
G03X21670100Y25087100I-2710J-4502D01*
G01X21658600Y25090900D01*
X21645500Y25095200D01*
G03X21630300Y25100100I-1430771J-4412284D01*
G01X21590700Y25112700D01*
Y25125800D01*
X21590800Y25130900D01*
X21591000Y25135100D01*
X21591300Y25138600D01*
G02X21591700Y25139000I392J8D01*
G01X21592400Y25138800D01*
X21609300Y25133300D01*
X21628200Y25127100D01*
X21650400Y25119700D01*
X21708300Y25100400D01*
X21707500Y25071000D01*
X21666700Y25057700D01*
X21632700Y25046700D01*
X21617700Y25041900D01*
X21608300Y25038900D01*
X21590700Y25033200D01*
G37*
G36*
G01X21590900Y24982300D02*
X21591300Y24991300D01*
X21592400Y25000400D01*
X21594200Y25006300D01*
X21597300Y25011900D01*
X21601300Y25017100D01*
G02X21605900Y25021400I28877J-26281D01*
G02X21610500Y25024200I13704J-17334D01*
G01X21619700Y25026600D01*
X21629600Y25025700D01*
G02X21638200Y25021900I-6811J-27046D01*
G02X21643900Y25015800I-9815J-14884D01*
G01X21646600Y25011000D01*
X21648100Y25015600D01*
G02X21652600Y25022800I17030J-5638D01*
G01X21660500Y25028200D01*
X21670300Y25031000D01*
G02X21680300Y25030500I3476J-30736D01*
G02X21686100Y25028800I-8606J-40104D01*
G01X21691100Y25026400D01*
X21695600Y25022900D01*
X21700400Y25018200D01*
X21708000Y25004500D01*
X21710500Y24987600D01*
G02X21707500Y24970700I-53999J869D01*
G02X21699400Y24957200I-35980J12408D01*
G02X21694900Y24953400I-18289J17094D01*
G01X21689000Y24950100D01*
X21682400Y24947700D01*
G02X21676000Y24946500I-9577J33412D01*
G01X21668600Y24945800D01*
Y24967600D01*
X21673300Y24968500D01*
X21682800Y24972100D01*
X21689000Y24978600D01*
X21691300Y24987000D01*
G03X21689300Y24996400I-23395J-65D01*
G01X21686500Y25000800D01*
G03X21682900Y25004000I-11320J-9110D01*
G03X21678300Y25005900I-8107J-13109D01*
G01X21672700Y25006600D01*
X21665800Y25005500D01*
X21661000Y25002500D01*
X21658000Y24996900D01*
G03X21656300Y24988300I46985J-13756D01*
G01X21655500Y24980600D01*
X21639200D01*
Y24986400D01*
G03X21638700Y24992000I-31107J45D01*
G01X21637200Y24996800D01*
X21634700Y25000500D01*
G03X21631500Y25003000I-8547J-7642D01*
G03X21624200Y25004500I-6290J-12100D01*
G03X21617000Y25002000I1065J-14685D01*
G01X21611700Y24996100D01*
X21609900Y24988300D01*
X21610800Y24982600D01*
X21613700Y24977700D01*
G03X21618200Y24973900I13340J11233D01*
G03X21624100Y24971500I11513J19850D01*
G01X21630300Y24969900D01*
Y24948400D01*
X21624400Y24949200D01*
G02X21613600Y24952200I5593J41075D01*
G02X21604200Y24958000I14862J34603D01*
G02X21596800Y24966400I24867J29366D01*
G02X21591800Y24976800I37761J24556D01*
G02X21590900Y24982300I16583J5537D01*
G37*
G36*
G01X21335900Y25070500D02*
Y25097000D01*
X21361800Y25105200D01*
X21372800Y25108700D01*
X21384500Y25112500D01*
X21395200Y25115900D01*
X21402700Y25118300D01*
G03X21408700Y25120300I-65021J205064D01*
G03X21413100Y25122000I-24098J68915D01*
G01X21416100Y25123400D01*
G03Y25124000I-144J300D01*
G01X21414800Y25124500D01*
X21403400Y25128300D01*
X21390300Y25132500D01*
X21375200Y25137400D01*
X21335900Y25149900D01*
Y25163100D01*
X21336000Y25168100D01*
X21336200Y25172400D01*
X21336500Y25175900D01*
G02X21336900Y25176300I395J5D01*
G01X21337600Y25176100D01*
X21354500Y25170600D01*
X21373400Y25164400D01*
X21395600Y25157000D01*
X21453500Y25137700D01*
X21453100Y25123100D01*
X21452700Y25108400D01*
X21404200Y25092500D01*
X21384900Y25086200D01*
X21367000Y25080400D01*
X21352000Y25075600D01*
X21345800Y25073600D01*
X21335900Y25070500D01*
G37*
G36*
G01X21337100Y24997800D02*
X21337500Y25029900D01*
X21337800Y25062000D01*
X21357000D01*
X21357300Y25038200D01*
X21357700Y25014400D01*
X21369000Y25012300D01*
X21378700Y25010600D01*
X21381700Y25010400D01*
G03X21382200Y25011100I-79J585D01*
G03X21381600Y25012500I-2763J-355D01*
G01X21378700Y25016500D01*
X21376700Y25021000D01*
G02X21375500Y25026100I27209J9093D01*
G01X21375100Y25032000D01*
X21375500Y25039500D01*
G02X21377000Y25045600I27005J-3406D01*
G02X21379800Y25051000I23563J-8792D01*
G02X21384100Y25056400I36751J-24853D01*
G02X21390000Y25061500I26895J-25151D01*
G02X21396700Y25065100I18801J-26957D01*
G02X21404300Y25067200I13465J-33929D01*
G02X21413100Y25067900I8813J-55131D01*
G02X21427400Y25065700I13J-47491D01*
G02X21439400Y25059400I-11381J-36257D01*
G02X21448500Y25049200I-23598J-30212D01*
G01X21454100Y25035800D01*
X21455200Y25031100D01*
X21455600Y25027300D01*
G02X21455500Y25023500I-28038J-1163D01*
G01X21454800Y25018300D01*
X21451100Y25004700D01*
G02X21444600Y24994200I-33984J13776D01*
G01X21435400Y24986900D01*
G02X21423700Y24982900I-18646J35429D01*
G01X21418900Y24982100D01*
Y24994300D01*
X21419000Y25001300D01*
G02X21419300Y25004400I19231J-297D01*
G02X21420000Y25005900I3309J-631D01*
G02X21421100Y25006400I1112J-986D01*
G03X21424200Y25007100I-6J7241D01*
G01X21427900Y25009400D01*
X21431400Y25012300D01*
X21433600Y25015500D01*
X21435200Y25019900D01*
X21435600Y25025300D01*
G03X21435000Y25030500I-26178J-386D01*
G01X21433400Y25034800D01*
X21430200Y25038500D01*
X21425300Y25041800D01*
X21419600Y25044000D01*
X21414200Y25044700D01*
G03X21402200Y25041600I-94J-24412D01*
G03X21394200Y25033100I9427J-16887D01*
G01X21392700Y25021600D01*
G03X21397900Y25010500I23254J4126D01*
G01X21399600Y25008000D01*
G02X21400500Y25005600I-7776J-4285D01*
G01X21400900Y25002400D01*
X21401000Y24996500D01*
Y24986300D01*
X21384100Y24989300D01*
X21376500Y24990700D01*
X21367700Y24992200D01*
X21359100Y24993800D01*
X21352200Y24995000D01*
X21337100Y24997800D01*
G37*
G36*
G01X25535100Y21186900D02*
X25544100Y21186500D01*
X25553200Y21185400D01*
X25559100Y21183600D01*
X25564700Y21180500D01*
X25569900Y21176500D01*
G02X25574200Y21171900I-26281J-28877D01*
G02X25577000Y21167300I-17334J-13704D01*
G01X25579400Y21158100D01*
X25578500Y21148200D01*
G02X25574700Y21139600I-27046J6811D01*
G02X25568600Y21133900I-14884J9815D01*
G01X25563800Y21131200D01*
X25568400Y21129700D01*
G02X25575600Y21125200I-5638J-17030D01*
G01X25581000Y21117300D01*
X25583800Y21107500D01*
G02X25583300Y21097500I-30736J-3476D01*
G02X25581600Y21091700I-40104J8606D01*
G01X25579200Y21086700D01*
X25575700Y21082200D01*
X25571000Y21077400D01*
X25557300Y21069800D01*
X25540400Y21067300D01*
G02X25523500Y21070300I869J53999D01*
G02X25510000Y21078400I12408J35980D01*
G02X25506200Y21082900I17094J18289D01*
G01X25502900Y21088800D01*
X25500500Y21095400D01*
G02X25499300Y21101800I33412J9577D01*
G01X25498600Y21109200D01*
X25520400D01*
X25521300Y21104500D01*
X25524900Y21095000D01*
X25531400Y21088800D01*
X25539800Y21086500D01*
G03X25549200Y21088500I-65J23395D01*
G01X25553600Y21091300D01*
G03X25556800Y21094900I-9110J11320D01*
G03X25558700Y21099500I-13109J8107D01*
G01X25559400Y21105100D01*
X25558300Y21112000D01*
X25555300Y21116800D01*
X25549700Y21119800D01*
G03X25541100Y21121500I-13756J-46985D01*
G01X25533400Y21122300D01*
Y21138600D01*
X25539200D01*
G03X25544800Y21139100I45J31107D01*
G01X25549600Y21140600D01*
X25553300Y21143100D01*
G03X25555800Y21146300I-7642J8547D01*
G03X25557300Y21153600I-12100J6290D01*
G03X25554800Y21160800I-14685J-1065D01*
G01X25548900Y21166100D01*
X25541100Y21167900D01*
X25535400Y21167000D01*
X25530500Y21164100D01*
G03X25526700Y21159600I11233J-13340D01*
G03X25524300Y21153700I19850J-11513D01*
G01X25522700Y21147500D01*
X25501200D01*
X25502000Y21153400D01*
G02X25505000Y21164200I41075J-5593D01*
G02X25510800Y21173600I34603J-14862D01*
G02X25519200Y21181000I29366J-24867D01*
G02X25529600Y21186000I24556J-37761D01*
G02X25535100Y21186900I5537J-16583D01*
G37*
G36*
G01X25586000Y21187100D02*
X25612500D01*
X25620300Y21162500D01*
X25623700Y21151900D01*
X25627400Y21140400D01*
X25630800Y21129600D01*
X25633300Y21121600D01*
X25635400Y21115400D01*
X25637300Y21110500D01*
G03X25638900Y21106700I126235J50915D01*
G03X25639400Y21106600I276J82D01*
G03X25639900Y21107700I-4502J2710D01*
G01X25643700Y21119200D01*
X25648000Y21132300D01*
G03X25652900Y21147500I-4412284J1430771D01*
G01X25665500Y21187100D01*
X25678600D01*
X25683700Y21187000D01*
X25687900Y21186800D01*
X25691400Y21186500D01*
G02X25691800Y21186100I8J-392D01*
G01X25691600Y21185400D01*
X25686100Y21168500D01*
X25679900Y21149600D01*
X25672500Y21127400D01*
X25653200Y21069500D01*
X25623800Y21070300D01*
X25610500Y21111100D01*
X25599500Y21145100D01*
X25594700Y21160100D01*
X25591700Y21169500D01*
X25586000Y21187100D01*
G37*
G36*
G01X25739300Y21186600D02*
G02X25747900Y21185600I-4083J-72590D01*
G01X25754400Y21183700D01*
X25763200Y21178500D01*
G02X25769600Y21171900I-17624J-23493D01*
G02X25773400Y21164000I-21697J-15300D01*
G02X25774700Y21154900I-30870J-9053D01*
G01X25774100Y21148000D01*
G02X25772100Y21142200I-22283J4439D01*
G01X25768800Y21137600D01*
X25764200Y21134100D01*
X25759500Y21131400D01*
X25763800Y21129800D01*
X25765800Y21128900D01*
X25768200Y21127300D01*
X25770600Y21125300D01*
X25772700Y21123300D01*
G02X25779100Y21110000I-19645J-17643D01*
G02X25778000Y21094300I-32638J-5602D01*
G02X25769500Y21080000I-35847J11632D01*
G02X25755700Y21070700I-27835J26415D01*
G02X25746700Y21068300I-14709J37082D01*
G02X25736000Y21067600I-9953J70009D01*
G02X25725500Y21068500I593J68624D01*
G01X25717300Y21071000D01*
X25714300Y21072500D01*
X25711100Y21074400D01*
X25708300Y21076200D01*
X25706200Y21077800D01*
G02X25702300Y21082100I13793J16428D01*
G01X25698700Y21088300D01*
X25696100Y21095300D01*
X25694700Y21102000D01*
X25694000Y21109200D01*
X25715800D01*
X25717300Y21102700D01*
G03X25721000Y21094400I24087J5763D01*
G01X25727300Y21088800D01*
X25735200Y21086600D01*
X25743800Y21088200D01*
G03X25749700Y21092000I-6755J16968D01*
G01X25753700Y21097700D01*
G03X25755200Y21104600I-16626J7227D01*
G03X25754000Y21111700I-20113J252D01*
G03X25751800Y21115500I-11248J-3975D01*
G03X25748300Y21118400I-10211J-8761D01*
G03X25743300Y21120400I-9812J-17279D01*
G01X25736700Y21121500D01*
X25728800Y21122300D01*
Y21138600D01*
X25734600D01*
X25742200Y21139500D01*
G03X25748000Y21142300I-4197J16100D01*
G03X25751700Y21146700I-7404J9982D01*
G01X25753000Y21152400D01*
X25750800Y21160300D01*
G03X25744500Y21166000I-13588J-8686D01*
G03X25736100Y21167900I-7846J-15171D01*
G03X25727800Y21165400I617J-17078D01*
G03X25725000Y21163100I7091J-11487D01*
G03X25722500Y21159800I13852J-13091D01*
G03X25720600Y21155800I20355J-12120D01*
G01X25719300Y21151000D01*
G02X25718500Y21148900I-7097J1501D01*
G01X25717200Y21148000D01*
X25714800Y21147600D01*
X25707600Y21147500D01*
X25696600D01*
X25697500Y21153400D01*
X25700500Y21164400D01*
X25706100Y21173500D01*
G02X25714000Y21180500I27029J-22547D01*
G02X25724100Y21185300I23564J-36557D01*
G01X25739300Y21186600D01*
G37*
G36*
G01X25454400Y21748400D02*
X25789500D01*
Y21555600D01*
X25454300D01*
X25406700Y21603100D01*
G02X25388500Y21621400I3551391J3550184D01*
G01X25373200Y21637100D01*
X25359500Y21651100D01*
G02X25359200Y21652000I987J829D01*
G01X25359500Y21652900D01*
X25373200Y21666900D01*
G02X25388500Y21682500I1868318J-1817086D01*
G01X25454400Y21748400D01*
G37*
G36*
G01Y21498400D02*
X25789500D01*
Y21305600D01*
X25454300D01*
X25406700Y21353100D01*
G02X25388500Y21371400I3551391J3550184D01*
G01X25373200Y21387100D01*
X25359500Y21401100D01*
G02X25359200Y21402000I987J829D01*
G01X25359500Y21402900D01*
X25373200Y21416900D01*
G02X25388500Y21432500I1868318J-1817086D01*
G01X25454400Y21498400D01*
G37*
G36*
G01X25444400Y24538400D02*
X25779500D01*
Y24345600D01*
X25444300D01*
X25396700Y24393100D01*
G02X25378500Y24411400I3551391J3550184D01*
G01X25363200Y24427100D01*
X25349500Y24441100D01*
G02X25349200Y24442000I987J829D01*
G01X25349500Y24442900D01*
X25363200Y24456900D01*
G02X25378500Y24472500I1868318J-1817086D01*
G01X25444400Y24538400D01*
G37*
%LPD*%
G75*
G36*
G01X20377200Y21705200D02*
X20369500Y21705600D01*
X20349100Y21706000D01*
X20318200Y21706400D01*
Y21596200D01*
X20348500Y21596600D01*
X20368400Y21597000D01*
X20376000Y21597500D01*
X20381100Y21598600D01*
X20386800Y21600700D01*
G03X20397100Y21607300I-18814J40698D01*
G01X20405200Y21616500D01*
X20411000Y21628100D01*
X20414200Y21641800D01*
X20414500Y21661400D01*
X20409800Y21678700D01*
X20400700Y21692600D01*
G03X20387800Y21702000I-30877J-28822D01*
G01X20377200Y21705200D01*
G37*
G36*
G01X20229200Y21705600D02*
X20216900Y21705900D01*
X20204500Y21706300D01*
Y21596400D01*
X20227500D01*
X20227800Y21632800D01*
X20228200Y21669100D01*
X20250500Y21632800D01*
X20272800Y21596400D01*
X20285000Y21596700D01*
X20297100Y21597100D01*
X20297400Y21651600D01*
X20297800Y21706200D01*
X20274800D01*
X20274500Y21669500D01*
X20274100Y21632900D01*
X20251700Y21669200D01*
X20229200Y21705600D01*
G37*
G36*
G01X20137400Y21708700D02*
X20128100Y21708400D01*
G03X20120600Y21706900I3160J-35301D01*
G03X20111500Y21702900I13272J-42546D01*
G01X20102700Y21696600D01*
G03X20095200Y21688900I38705J-45202D01*
G01X20089800Y21680500D01*
G03X20087400Y21674400I39086J-18900D01*
G01X20085300Y21666300D01*
X20083800Y21658100D01*
G03X20083300Y21651300I46142J-6811D01*
G03X20085300Y21635500I63461J6D01*
G03X20091100Y21620800I61479J15763D01*
G01X20100100Y21608500D01*
G03X20111300Y21600200I29984J28754D01*
G01X20125300Y21595200D01*
X20139100Y21594200D01*
X20151800Y21597200D01*
G03X20162900Y21604100I-15515J37337D01*
G01X20167300Y21608000D01*
X20168400Y21602500D01*
X20169500Y21597100D01*
X20177400Y21596700D01*
X20185400Y21596300D01*
Y21656400D01*
X20139400D01*
Y21638500D01*
X20155100D01*
X20158900Y21638300D01*
X20162100Y21638100D01*
G02X20162700Y21637800I-141J-1032D01*
G02X20163200Y21635800I-1389J-1410D01*
G01X20161500Y21630600D01*
X20159000Y21625300D01*
G02X20156500Y21621800I-13849J7250D01*
G02X20149800Y21617100I-15230J14586D01*
G02X20141200Y21614700I-12474J28091D01*
G01X20131900Y21614900D01*
G02X20123300Y21617700I4472J28343D01*
G01X20118600Y21621100D01*
X20114300Y21626400D01*
X20110800Y21632800D01*
G02X20108700Y21639500I32656J13915D01*
G02X20107600Y21650700I51067J10670D01*
G02X20108800Y21662400I63779J-630D01*
G01X20112000Y21672900D01*
G02X20116800Y21680500I23605J-9593D01*
G02X20122800Y21684900I14361J-13292D01*
G01X20131100Y21687700D01*
X20139900Y21688300D01*
G02X20147500Y21686600I-1073J-22634D01*
G02X20151100Y21684500I-5857J-14175D01*
G01X20154800Y21681000D01*
G02X20157800Y21677100I-22355J-20300D01*
G02X20159300Y21673600I-10006J-6360D01*
G03X20160200Y21671800I4617J1184D01*
G03X20161600Y21670900I2001J1574D01*
G01X20164300Y21670500D01*
X20171500D01*
G03X20180000Y21670700I-170J187931D01*
G03X20182300Y21671800I-146J3260D01*
G03X20182900Y21674200I-1995J1774D01*
G01X20180700Y21681400D01*
G03X20176900Y21688700I-25645J-8710D01*
G03X20170500Y21696000I-43425J-31616D01*
G01X20162700Y21702100D01*
X20154800Y21706000D01*
G03X20137400Y21708700I-21320J-79977D01*
G37*
G36*
G01Y21458700D02*
X20128100Y21458400D01*
G03X20120600Y21456900I3160J-35301D01*
G03X20111500Y21452900I13272J-42546D01*
G01X20102700Y21446600D01*
G03X20095200Y21438900I38705J-45202D01*
G01X20089800Y21430500D01*
G03X20087400Y21424400I39086J-18900D01*
G01X20085300Y21416300D01*
X20083800Y21408100D01*
G03X20083300Y21401300I46142J-6811D01*
G03X20085300Y21385500I63461J6D01*
G03X20091100Y21370800I61479J15763D01*
G01X20100100Y21358500D01*
G03X20111300Y21350200I29984J28754D01*
G01X20125300Y21345200D01*
X20139100Y21344200D01*
X20151800Y21347200D01*
G03X20162900Y21354100I-15515J37337D01*
G01X20167300Y21358000D01*
X20168400Y21352500D01*
X20169500Y21347100D01*
X20177400Y21346700D01*
X20185400Y21346300D01*
Y21406400D01*
X20139400D01*
Y21388500D01*
X20155100D01*
X20158900Y21388300D01*
X20162100Y21388100D01*
G02X20162700Y21387800I-141J-1032D01*
G02X20163200Y21385800I-1389J-1410D01*
G01X20161500Y21380600D01*
X20159000Y21375300D01*
G02X20156500Y21371800I-13849J7250D01*
G02X20149800Y21367100I-15230J14586D01*
G02X20141200Y21364700I-12474J28091D01*
G01X20131900Y21364900D01*
G02X20123300Y21367700I4472J28343D01*
G01X20118600Y21371100D01*
X20114300Y21376400D01*
X20110800Y21382800D01*
G02X20108700Y21389500I32656J13915D01*
G02X20107600Y21400700I51067J10670D01*
G02X20108800Y21412400I63779J-630D01*
G01X20112000Y21422900D01*
G02X20116800Y21430500I23605J-9593D01*
G02X20122800Y21434900I14361J-13292D01*
G01X20131100Y21437700D01*
X20139900Y21438300D01*
G02X20147500Y21436600I-1073J-22634D01*
G02X20151100Y21434500I-5857J-14175D01*
G01X20154800Y21431000D01*
G02X20157800Y21427100I-22355J-20300D01*
G02X20159300Y21423600I-10006J-6360D01*
G03X20160200Y21421800I4617J1184D01*
G03X20161600Y21420900I2001J1574D01*
G01X20164300Y21420500D01*
X20171500D01*
G03X20180000Y21420700I-170J187931D01*
G03X20182300Y21421800I-146J3260D01*
G03X20182900Y21424200I-1995J1774D01*
G01X20180700Y21431400D01*
G03X20176900Y21438700I-25645J-8710D01*
G03X20170500Y21446000I-43425J-31616D01*
G01X20162700Y21452100D01*
X20154800Y21456000D01*
G03X20137400Y21458700I-21320J-79977D01*
G37*
G36*
G01X20229200Y21455600D02*
X20216900Y21455900D01*
X20204500Y21456300D01*
Y21346400D01*
X20227500D01*
X20227800Y21382800D01*
X20228200Y21419100D01*
X20250500Y21382800D01*
X20272800Y21346400D01*
X20285000Y21346700D01*
X20297100Y21347100D01*
X20297400Y21401600D01*
X20297800Y21456200D01*
X20274800D01*
X20274500Y21419500D01*
X20274100Y21382900D01*
X20251700Y21419200D01*
X20229200Y21455600D01*
G37*
G36*
G01X20377200Y21455200D02*
X20369500Y21455600D01*
X20349100Y21456000D01*
X20318200Y21456400D01*
Y21346200D01*
X20348500Y21346600D01*
X20368400Y21347000D01*
X20376000Y21347500D01*
X20381100Y21348600D01*
X20386800Y21350700D01*
G03X20397100Y21357300I-18814J40698D01*
G01X20405200Y21366500D01*
X20411000Y21378100D01*
X20414200Y21391800D01*
X20414500Y21411400D01*
X20409800Y21428700D01*
X20400700Y21442600D01*
G03X20387800Y21452000I-30877J-28822D01*
G01X20377200Y21455200D01*
G37*
G36*
G01X21259200Y24255600D02*
X21246900Y24255900D01*
X21234500Y24256300D01*
Y24146400D01*
X21257500D01*
X21257800Y24182800D01*
X21258200Y24219100D01*
X21280500Y24182800D01*
X21302800Y24146400D01*
X21315000Y24146700D01*
X21327100Y24147100D01*
X21327400Y24201600D01*
X21327800Y24256200D01*
X21304800D01*
X21304500Y24219500D01*
X21304100Y24182900D01*
X21281700Y24219200D01*
X21259200Y24255600D01*
G37*
G36*
G01X21167400Y24258700D02*
X21158100Y24258400D01*
G03X21150600Y24256900I3160J-35301D01*
G03X21141500Y24252900I13272J-42546D01*
G01X21132700Y24246600D01*
G03X21125200Y24238900I38705J-45202D01*
G01X21119800Y24230500D01*
G03X21117400Y24224400I39086J-18900D01*
G01X21115300Y24216300D01*
X21113800Y24208100D01*
G03X21113300Y24201300I46142J-6811D01*
G03X21115300Y24185500I63461J6D01*
G03X21121100Y24170800I61479J15763D01*
G01X21130100Y24158500D01*
G03X21141300Y24150200I29984J28754D01*
G01X21155300Y24145200D01*
X21169100Y24144200D01*
X21181800Y24147200D01*
G03X21192900Y24154100I-15515J37337D01*
G01X21197300Y24158000D01*
X21198400Y24152500D01*
X21199500Y24147100D01*
X21207400Y24146700D01*
X21215400Y24146300D01*
Y24206400D01*
X21169400D01*
Y24188500D01*
X21185100D01*
X21188900Y24188300D01*
X21192100Y24188100D01*
G02X21192700Y24187800I-141J-1032D01*
G02X21193200Y24185800I-1389J-1410D01*
G01X21191500Y24180600D01*
X21189000Y24175300D01*
G02X21186500Y24171800I-13849J7250D01*
G02X21179800Y24167100I-15230J14586D01*
G02X21171200Y24164700I-12474J28091D01*
G01X21161900Y24164900D01*
G02X21153300Y24167700I4472J28343D01*
G01X21148600Y24171100D01*
X21144300Y24176400D01*
X21140800Y24182800D01*
G02X21138700Y24189500I32656J13915D01*
G02X21137600Y24200700I51067J10670D01*
G02X21138800Y24212400I63779J-630D01*
G01X21142000Y24222900D01*
G02X21146800Y24230500I23605J-9593D01*
G02X21152800Y24234900I14361J-13292D01*
G01X21161100Y24237700D01*
X21169900Y24238300D01*
G02X21177500Y24236600I-1073J-22634D01*
G02X21181100Y24234500I-5857J-14175D01*
G01X21184800Y24231000D01*
G02X21187800Y24227100I-22355J-20300D01*
G02X21189300Y24223600I-10006J-6360D01*
G03X21190200Y24221800I4617J1184D01*
G03X21191600Y24220900I2001J1574D01*
G01X21194300Y24220500D01*
X21201500D01*
G03X21210000Y24220700I-170J187931D01*
G03X21212300Y24221800I-146J3260D01*
G03X21212900Y24224200I-1995J1774D01*
G01X21210700Y24231400D01*
G03X21206900Y24238700I-25645J-8710D01*
G03X21200500Y24246000I-43425J-31616D01*
G01X21192700Y24252100D01*
X21184800Y24256000D01*
G03X21167400Y24258700I-21320J-79977D01*
G37*
G36*
G01X21091300Y24977400D02*
X21091600Y24968100D01*
G03X21093100Y24960600I35301J3160D01*
G03X21097100Y24951500I42546J13272D01*
G01X21103400Y24942700D01*
G03X21111100Y24935200I45202J38705D01*
G01X21119500Y24929800D01*
G03X21125600Y24927400I18900J39086D01*
G01X21133700Y24925300D01*
X21141900Y24923800D01*
G03X21148700Y24923300I6811J46142D01*
G03X21164500Y24925300I-6J63461D01*
G03X21179200Y24931100I-15763J61479D01*
G01X21191500Y24940100D01*
G03X21199800Y24951300I-28754J29984D01*
G01X21204800Y24965300D01*
X21205800Y24979100D01*
X21202800Y24991800D01*
G03X21195900Y25002900I-37337J-15515D01*
G01X21192000Y25007300D01*
X21197500Y25008400D01*
X21202900Y25009500D01*
X21203300Y25017400D01*
X21203700Y25025400D01*
X21143600D01*
Y24979400D01*
X21161500D01*
Y24995100D01*
X21161700Y24998900D01*
X21161900Y25002100D01*
G02X21162200Y25002700I1032J-141D01*
G02X21164200Y25003200I1410J-1389D01*
G01X21169400Y25001500D01*
X21174700Y24999000D01*
G02X21178200Y24996500I-7250J-13849D01*
G02X21182900Y24989800I-14586J-15230D01*
G02X21185300Y24981200I-28091J-12474D01*
G01X21185100Y24971900D01*
G02X21182300Y24963300I-28343J4472D01*
G01X21178900Y24958600D01*
X21173600Y24954300D01*
X21167200Y24950800D01*
G02X21160500Y24948700I-13915J32656D01*
G02X21149300Y24947600I-10670J51067D01*
G02X21137600Y24948800I630J63779D01*
G01X21127100Y24952000D01*
G02X21119500Y24956800I9593J23605D01*
G02X21115100Y24962800I13292J14361D01*
G01X21112300Y24971100D01*
X21111700Y24979900D01*
G02X21113400Y24987500I22634J-1073D01*
G02X21115500Y24991100I14175J-5857D01*
G01X21119000Y24994800D01*
G02X21122900Y24997800I20300J-22355D01*
G02X21126400Y24999300I6360J-10006D01*
G03X21128200Y25000200I-1184J4617D01*
G03X21129100Y25001600I-1574J2001D01*
G01X21129500Y25004300D01*
Y25011500D01*
G03X21129300Y25020000I-187931J-170D01*
G03X21128200Y25022300I-3260J-146D01*
G03X21125800Y25022900I-1774J-1995D01*
G01X21118600Y25020700D01*
G03X21111300Y25016900I8710J-25645D01*
G03X21104000Y25010500I31616J-43425D01*
G01X21097900Y25002700D01*
X21094000Y24994800D01*
G03X21091300Y24977400I79977J-21320D01*
G37*
G36*
G01X21094400Y25069200D02*
X21094100Y25056900D01*
X21093700Y25044500D01*
X21203600D01*
Y25067500D01*
X21167200Y25067800D01*
X21130900Y25068200D01*
X21167200Y25090500D01*
X21203600Y25112800D01*
X21203300Y25125000D01*
X21202900Y25137100D01*
X21148400Y25137400D01*
X21093800Y25137800D01*
Y25114800D01*
X21130500Y25114500D01*
X21167100Y25114100D01*
X21130800Y25091700D01*
X21094400Y25069200D01*
G37*
G36*
G01X21094800Y25217200D02*
X21094400Y25209500D01*
X21094000Y25189100D01*
X21093600Y25158200D01*
X21203800D01*
X21203400Y25188500D01*
X21203000Y25208400D01*
X21202500Y25216000D01*
X21201400Y25221100D01*
X21199300Y25226800D01*
G03X21192700Y25237100I-40698J-18814D01*
G01X21183500Y25245200D01*
X21171900Y25251000D01*
X21158200Y25254200D01*
X21138600Y25254500D01*
X21121300Y25249800D01*
X21107400Y25240700D01*
G03X21098000Y25227800I28822J-30877D01*
G01X21094800Y25217200D01*
G37*
G36*
G01X21407200Y24255200D02*
X21399500Y24255600D01*
X21379100Y24256000D01*
X21348200Y24256400D01*
Y24146200D01*
X21378500Y24146600D01*
X21398400Y24147000D01*
X21406000Y24147500D01*
X21411100Y24148600D01*
X21416800Y24150700D01*
G03X21427100Y24157300I-18814J40698D01*
G01X21435200Y24166500D01*
X21441000Y24178100D01*
X21444200Y24191800D01*
X21444500Y24211400D01*
X21439800Y24228700D01*
X21430700Y24242600D01*
G03X21417800Y24252000I-30877J-28822D01*
G01X21407200Y24255200D01*
G37*
G36*
G01X25487400Y21708700D02*
X25478100Y21708400D01*
G03X25470600Y21706900I3160J-35301D01*
G03X25461500Y21702900I13272J-42546D01*
G01X25452700Y21696600D01*
G03X25445200Y21688900I38705J-45202D01*
G01X25439800Y21680500D01*
G03X25437400Y21674400I39086J-18900D01*
G01X25435300Y21666300D01*
X25433800Y21658100D01*
G03X25433300Y21651300I46142J-6811D01*
G03X25435300Y21635500I63461J6D01*
G03X25441100Y21620800I61479J15763D01*
G01X25450100Y21608500D01*
G03X25461300Y21600200I29984J28754D01*
G01X25475300Y21595200D01*
X25489100Y21594200D01*
X25501800Y21597200D01*
G03X25512900Y21604100I-15515J37337D01*
G01X25517300Y21608000D01*
X25518400Y21602500D01*
X25519500Y21597100D01*
X25527400Y21596700D01*
X25535400Y21596300D01*
Y21656400D01*
X25489400D01*
Y21638500D01*
X25505100D01*
X25508900Y21638300D01*
X25512100Y21638100D01*
G02X25512700Y21637800I-141J-1032D01*
G02X25513200Y21635800I-1389J-1410D01*
G01X25511500Y21630600D01*
X25509000Y21625300D01*
G02X25506500Y21621800I-13849J7250D01*
G02X25499800Y21617100I-15230J14586D01*
G02X25491200Y21614700I-12474J28091D01*
G01X25481900Y21614900D01*
G02X25473300Y21617700I4472J28343D01*
G01X25468600Y21621100D01*
X25464300Y21626400D01*
X25460800Y21632800D01*
G02X25458700Y21639500I32656J13915D01*
G02X25457600Y21650700I51067J10670D01*
G02X25458800Y21662400I63779J-630D01*
G01X25462000Y21672900D01*
G02X25466800Y21680500I23605J-9593D01*
G02X25472800Y21684900I14361J-13292D01*
G01X25481100Y21687700D01*
X25489900Y21688300D01*
G02X25497500Y21686600I-1073J-22634D01*
G02X25501100Y21684500I-5857J-14175D01*
G01X25504800Y21681000D01*
G02X25507800Y21677100I-22355J-20300D01*
G02X25509300Y21673600I-10006J-6360D01*
G03X25510200Y21671800I4617J1184D01*
G03X25511600Y21670900I2001J1574D01*
G01X25514300Y21670500D01*
X25521500D01*
G03X25530000Y21670700I-170J187931D01*
G03X25532300Y21671800I-146J3260D01*
G03X25532900Y21674200I-1995J1774D01*
G01X25530700Y21681400D01*
G03X25526900Y21688700I-25645J-8710D01*
G03X25520500Y21696000I-43425J-31616D01*
G01X25512700Y21702100D01*
X25504800Y21706000D01*
G03X25487400Y21708700I-21320J-79977D01*
G37*
G36*
G01X25579200Y21705600D02*
X25566900Y21705900D01*
X25554500Y21706300D01*
Y21596400D01*
X25577500D01*
X25577800Y21632800D01*
X25578200Y21669100D01*
X25600500Y21632800D01*
X25622800Y21596400D01*
X25635000Y21596700D01*
X25647100Y21597100D01*
X25647400Y21651600D01*
X25647800Y21706200D01*
X25624800D01*
X25624500Y21669500D01*
X25624100Y21632900D01*
X25601700Y21669200D01*
X25579200Y21705600D01*
G37*
G36*
G01X25727200Y21705200D02*
X25719500Y21705600D01*
X25699100Y21706000D01*
X25668200Y21706400D01*
Y21596200D01*
X25698500Y21596600D01*
X25718400Y21597000D01*
X25726000Y21597500D01*
X25731100Y21598600D01*
X25736800Y21600700D01*
G03X25747100Y21607300I-18814J40698D01*
G01X25755200Y21616500D01*
X25761000Y21628100D01*
X25764200Y21641800D01*
X25764500Y21661400D01*
X25759800Y21678700D01*
X25750700Y21692600D01*
G03X25737800Y21702000I-30877J-28822D01*
G01X25727200Y21705200D01*
G37*
G36*
G01X25487400Y21458700D02*
X25478100Y21458400D01*
G03X25470600Y21456900I3160J-35301D01*
G03X25461500Y21452900I13272J-42546D01*
G01X25452700Y21446600D01*
G03X25445200Y21438900I38705J-45202D01*
G01X25439800Y21430500D01*
G03X25437400Y21424400I39086J-18900D01*
G01X25435300Y21416300D01*
X25433800Y21408100D01*
G03X25433300Y21401300I46142J-6811D01*
G03X25435300Y21385500I63461J6D01*
G03X25441100Y21370800I61479J15763D01*
G01X25450100Y21358500D01*
G03X25461300Y21350200I29984J28754D01*
G01X25475300Y21345200D01*
X25489100Y21344200D01*
X25501800Y21347200D01*
G03X25512900Y21354100I-15515J37337D01*
G01X25517300Y21358000D01*
X25518400Y21352500D01*
X25519500Y21347100D01*
X25527400Y21346700D01*
X25535400Y21346300D01*
Y21406400D01*
X25489400D01*
Y21388500D01*
X25505100D01*
X25508900Y21388300D01*
X25512100Y21388100D01*
G02X25512700Y21387800I-141J-1032D01*
G02X25513200Y21385800I-1389J-1410D01*
G01X25511500Y21380600D01*
X25509000Y21375300D01*
G02X25506500Y21371800I-13849J7250D01*
G02X25499800Y21367100I-15230J14586D01*
G02X25491200Y21364700I-12474J28091D01*
G01X25481900Y21364900D01*
G02X25473300Y21367700I4472J28343D01*
G01X25468600Y21371100D01*
X25464300Y21376400D01*
X25460800Y21382800D01*
G02X25458700Y21389500I32656J13915D01*
G02X25457600Y21400700I51067J10670D01*
G02X25458800Y21412400I63779J-630D01*
G01X25462000Y21422900D01*
G02X25466800Y21430500I23605J-9593D01*
G02X25472800Y21434900I14361J-13292D01*
G01X25481100Y21437700D01*
X25489900Y21438300D01*
G02X25497500Y21436600I-1073J-22634D01*
G02X25501100Y21434500I-5857J-14175D01*
G01X25504800Y21431000D01*
G02X25507800Y21427100I-22355J-20300D01*
G02X25509300Y21423600I-10006J-6360D01*
G03X25510200Y21421800I4617J1184D01*
G03X25511600Y21420900I2001J1574D01*
G01X25514300Y21420500D01*
X25521500D01*
G03X25530000Y21420700I-170J187931D01*
G03X25532300Y21421800I-146J3260D01*
G03X25532900Y21424200I-1995J1774D01*
G01X25530700Y21431400D01*
G03X25526900Y21438700I-25645J-8710D01*
G03X25520500Y21446000I-43425J-31616D01*
G01X25512700Y21452100D01*
X25504800Y21456000D01*
G03X25487400Y21458700I-21320J-79977D01*
G37*
G36*
G01X25579200Y21455600D02*
X25566900Y21455900D01*
X25554500Y21456300D01*
Y21346400D01*
X25577500D01*
X25577800Y21382800D01*
X25578200Y21419100D01*
X25600500Y21382800D01*
X25622800Y21346400D01*
X25635000Y21346700D01*
X25647100Y21347100D01*
X25647400Y21401600D01*
X25647800Y21456200D01*
X25624800D01*
X25624500Y21419500D01*
X25624100Y21382900D01*
X25601700Y21419200D01*
X25579200Y21455600D01*
G37*
G36*
G01X25727200Y21455200D02*
X25719500Y21455600D01*
X25699100Y21456000D01*
X25668200Y21456400D01*
Y21346200D01*
X25698500Y21346600D01*
X25718400Y21347000D01*
X25726000Y21347500D01*
X25731100Y21348600D01*
X25736800Y21350700D01*
G03X25747100Y21357300I-18814J40698D01*
G01X25755200Y21366500D01*
X25761000Y21378100D01*
X25764200Y21391800D01*
X25764500Y21411400D01*
X25759800Y21428700D01*
X25750700Y21442600D01*
G03X25737800Y21452000I-30877J-28822D01*
G01X25727200Y21455200D01*
G37*
G36*
G01X25717200Y24495200D02*
X25709500Y24495600D01*
X25689100Y24496000D01*
X25658200Y24496400D01*
Y24386200D01*
X25688500Y24386600D01*
X25708400Y24387000D01*
X25716000Y24387500D01*
X25721100Y24388600D01*
X25726800Y24390700D01*
G03X25737100Y24397300I-18814J40698D01*
G01X25745200Y24406500D01*
X25751000Y24418100D01*
X25754200Y24431800D01*
X25754500Y24451400D01*
X25749800Y24468700D01*
X25740700Y24482600D01*
G03X25727800Y24492000I-30877J-28822D01*
G01X25717200Y24495200D01*
G37*
G36*
G01X25569200Y24495600D02*
X25556900Y24495900D01*
X25544500Y24496300D01*
Y24386400D01*
X25567500D01*
X25567800Y24422800D01*
X25568200Y24459100D01*
X25590500Y24422800D01*
X25612800Y24386400D01*
X25625000Y24386700D01*
X25637100Y24387100D01*
X25637400Y24441600D01*
X25637800Y24496200D01*
X25614800D01*
X25614500Y24459500D01*
X25614100Y24422900D01*
X25591700Y24459200D01*
X25569200Y24495600D01*
G37*
G36*
G01X25477400Y24498700D02*
X25468100Y24498400D01*
G03X25460600Y24496900I3160J-35301D01*
G03X25451500Y24492900I13272J-42546D01*
G01X25442700Y24486600D01*
G03X25435200Y24478900I38705J-45202D01*
G01X25429800Y24470500D01*
G03X25427400Y24464400I39086J-18900D01*
G01X25425300Y24456300D01*
X25423800Y24448100D01*
G03X25423300Y24441300I46142J-6811D01*
G03X25425300Y24425500I63461J6D01*
G03X25431100Y24410800I61479J15763D01*
G01X25440100Y24398500D01*
G03X25451300Y24390200I29984J28754D01*
G01X25465300Y24385200D01*
X25479100Y24384200D01*
X25491800Y24387200D01*
G03X25502900Y24394100I-15515J37337D01*
G01X25507300Y24398000D01*
X25508400Y24392500D01*
X25509500Y24387100D01*
X25517400Y24386700D01*
X25525400Y24386300D01*
Y24446400D01*
X25479400D01*
Y24428500D01*
X25495100D01*
X25498900Y24428300D01*
X25502100Y24428100D01*
G02X25502700Y24427800I-141J-1032D01*
G02X25503200Y24425800I-1389J-1410D01*
G01X25501500Y24420600D01*
X25499000Y24415300D01*
G02X25496500Y24411800I-13849J7250D01*
G02X25489800Y24407100I-15230J14586D01*
G02X25481200Y24404700I-12474J28091D01*
G01X25471900Y24404900D01*
G02X25463300Y24407700I4472J28343D01*
G01X25458600Y24411100D01*
X25454300Y24416400D01*
X25450800Y24422800D01*
G02X25448700Y24429500I32656J13915D01*
G02X25447600Y24440700I51067J10670D01*
G02X25448800Y24452400I63779J-630D01*
G01X25452000Y24462900D01*
G02X25456800Y24470500I23605J-9593D01*
G02X25462800Y24474900I14361J-13292D01*
G01X25471100Y24477700D01*
X25479900Y24478300D01*
G02X25487500Y24476600I-1073J-22634D01*
G02X25491100Y24474500I-5857J-14175D01*
G01X25494800Y24471000D01*
G02X25497800Y24467100I-22355J-20300D01*
G02X25499300Y24463600I-10006J-6360D01*
G03X25500200Y24461800I4617J1184D01*
G03X25501600Y24460900I2001J1574D01*
G01X25504300Y24460500D01*
X25511500D01*
G03X25520000Y24460700I-170J187931D01*
G03X25522300Y24461800I-146J3260D01*
G03X25522900Y24464200I-1995J1774D01*
G01X25520700Y24471400D01*
G03X25516900Y24478700I-25645J-8710D01*
G03X25510500Y24486000I-43425J-31616D01*
G01X25502700Y24492100D01*
X25494800Y24496000D01*
G03X25477400Y24498700I-21320J-79977D01*
G37*
%LPC*%
G75*
G36*
G01X20342400Y21686100D02*
X20357600Y21685600D01*
X20367100Y21685200D01*
X20371500Y21684700D01*
X20374600Y21683500D01*
X20378300Y21681300D01*
X20383500Y21676600D01*
X20387100Y21670900D01*
G02X20389400Y21663800I-28730J-13229D01*
G01X20390600Y21654800D01*
Y21645000D01*
G02X20389200Y21636800I-40908J2765D01*
G02X20386400Y21630000I-30070J8405D01*
G02X20382200Y21624400I-22066J12174D01*
G01X20377400Y21620700D01*
X20372200Y21618400D01*
G02X20365200Y21617200I-9431J33996D01*
G01X20354900Y21616800D01*
X20342400D01*
Y21686100D01*
G37*
G36*
G01Y21436100D02*
X20357600Y21435600D01*
X20367100Y21435200D01*
X20371500Y21434700D01*
X20374600Y21433500D01*
X20378300Y21431300D01*
X20383500Y21426600D01*
X20387100Y21420900D01*
G02X20389400Y21413800I-28730J-13229D01*
G01X20390600Y21404800D01*
Y21395000D01*
G02X20389200Y21386800I-40908J2765D01*
G02X20386400Y21380000I-30070J8405D01*
G02X20382200Y21374400I-22066J12174D01*
G01X20377400Y21370700D01*
X20372200Y21368400D01*
G02X20365200Y21367200I-9431J33996D01*
G01X20354900Y21366800D01*
X20342400D01*
Y21436100D01*
G37*
G36*
G01X21113900Y25182400D02*
X21114400Y25197600D01*
X21114800Y25207100D01*
X21115300Y25211500D01*
X21116500Y25214600D01*
X21118700Y25218300D01*
X21123400Y25223500D01*
X21129100Y25227100D01*
G02X21136200Y25229400I13229J-28730D01*
G01X21145200Y25230600D01*
X21155000D01*
G02X21163200Y25229200I-2765J-40908D01*
G02X21170000Y25226400I-8405J-30070D01*
G02X21175600Y25222200I-12174J-22066D01*
G01X21179300Y25217400D01*
X21181600Y25212200D01*
G02X21182800Y25205200I-33996J-9431D01*
G01X21183200Y25194900D01*
Y25182400D01*
X21113900D01*
G37*
G36*
G01X21372400Y24236100D02*
X21387600Y24235600D01*
X21397100Y24235200D01*
X21401500Y24234700D01*
X21404600Y24233500D01*
X21408300Y24231300D01*
X21413500Y24226600D01*
X21417100Y24220900D01*
G02X21419400Y24213800I-28730J-13229D01*
G01X21420600Y24204800D01*
Y24195000D01*
G02X21419200Y24186800I-40908J2765D01*
G02X21416400Y24180000I-30070J8405D01*
G02X21412200Y24174400I-22066J12174D01*
G01X21407400Y24170700D01*
X21402200Y24168400D01*
G02X21395200Y24167200I-9431J33996D01*
G01X21384900Y24166800D01*
X21372400D01*
Y24236100D01*
G37*
G36*
G01X25692400Y21686100D02*
X25707600Y21685600D01*
X25717100Y21685200D01*
X25721500Y21684700D01*
X25724600Y21683500D01*
X25728300Y21681300D01*
X25733500Y21676600D01*
X25737100Y21670900D01*
G02X25739400Y21663800I-28730J-13229D01*
G01X25740600Y21654800D01*
Y21645000D01*
G02X25739200Y21636800I-40908J2765D01*
G02X25736400Y21630000I-30070J8405D01*
G02X25732200Y21624400I-22066J12174D01*
G01X25727400Y21620700D01*
X25722200Y21618400D01*
G02X25715200Y21617200I-9431J33996D01*
G01X25704900Y21616800D01*
X25692400D01*
Y21686100D01*
G37*
G36*
G01Y21436100D02*
X25707600Y21435600D01*
X25717100Y21435200D01*
X25721500Y21434700D01*
X25724600Y21433500D01*
X25728300Y21431300D01*
X25733500Y21426600D01*
X25737100Y21420900D01*
G02X25739400Y21413800I-28730J-13229D01*
G01X25740600Y21404800D01*
Y21395000D01*
G02X25739200Y21386800I-40908J2765D01*
G02X25736400Y21380000I-30070J8405D01*
G02X25732200Y21374400I-22066J12174D01*
G01X25727400Y21370700D01*
X25722200Y21368400D01*
G02X25715200Y21367200I-9431J33996D01*
G01X25704900Y21366800D01*
X25692400D01*
Y21436100D01*
G37*
G36*
G01X25682400Y24476100D02*
X25697600Y24475600D01*
X25707100Y24475200D01*
X25711500Y24474700D01*
X25714600Y24473500D01*
X25718300Y24471300D01*
X25723500Y24466600D01*
X25727100Y24460900D01*
G02X25729400Y24453800I-28730J-13229D01*
G01X25730600Y24444800D01*
Y24435000D01*
G02X25729200Y24426800I-40908J2765D01*
G02X25726400Y24420000I-30070J8405D01*
G02X25722200Y24414400I-22066J12174D01*
G01X25717400Y24410700D01*
X25712200Y24408400D01*
G02X25705200Y24407200I-9431J33996D01*
G01X25694900Y24406800D01*
X25682400D01*
Y24476100D01*
G37*
%LPD*%
G75*
G54D10*
G01X20107500Y18320000D02*
Y16820000D01*
X27607500D01*
Y18320000D01*
X20107500D01*
G01X20847700Y21967800D02*
X20853500Y21957400D01*
X20861300Y21951500D01*
X20870000Y21950000D01*
X20877700Y21951500D01*
X20885400Y21958900D01*
X20890300Y21967800D01*
X20891200Y21976700D01*
X20889300Y21987100D01*
X20882500Y21994500D01*
X20875800Y21997500D01*
X20867100D01*
G01X20875800D02*
X20881600Y22001900D01*
X20886400Y22009300D01*
X20888300Y22018200D01*
X20886400Y22027100D01*
X20881600Y22034500D01*
X20872900Y22039000D01*
X20864200Y22037500D01*
X20855500Y22031600D01*
G01X20935000Y22039000D02*
X20927300Y22036000D01*
X20921500Y22028600D01*
X20917600Y22019700D01*
X20914700Y22007800D01*
X20913700Y21994500D01*
X20914700Y21981100D01*
X20917600Y21969300D01*
X20921500Y21960400D01*
X20927300Y21953000D01*
X20935000Y21950000D01*
X20942700Y21953000D01*
X20948500Y21960400D01*
X20952400Y21969300D01*
X20955300Y21981100D01*
X20956300Y21994500D01*
X20955300Y22007800D01*
X20952400Y22019700D01*
X20948500Y22028600D01*
X20942700Y22036000D01*
X20935000Y22039000D01*
G01X20609000Y21950000D02*
Y22039000D01*
X20597400Y22021200D01*
G01Y21950000D02*
X20620600D01*
G01X20675000Y22039000D02*
X20667300Y22036000D01*
X20661500Y22028600D01*
X20657600Y22019700D01*
X20654700Y22007800D01*
X20653700Y21994500D01*
X20654700Y21981100D01*
X20657600Y21969300D01*
X20661500Y21960400D01*
X20667300Y21953000D01*
X20675000Y21950000D01*
X20682700Y21953000D01*
X20688500Y21960400D01*
X20692400Y21969300D01*
X20695300Y21981100D01*
X20696300Y21994500D01*
X20695300Y22007800D01*
X20692400Y22019700D01*
X20688500Y22028600D01*
X20682700Y22036000D01*
X20675000Y22039000D01*
G01X20639000Y24570000D02*
Y24659000D01*
X20627400Y24641200D01*
G01Y24570000D02*
X20650600D01*
G01X20850600Y24644200D02*
X20856400Y24653100D01*
X20863200Y24657500D01*
X20870900Y24659000D01*
X20880600Y24656000D01*
X20887400Y24648600D01*
X20889300Y24639700D01*
X20888300Y24630800D01*
X20884500Y24623400D01*
X20865100Y24608600D01*
X20856400Y24598200D01*
X20850600Y24583300D01*
X20848700Y24570000D01*
X20889300D01*
G01X20935000D02*
Y24659000D01*
X20923400Y24641200D01*
G01Y24570000D02*
X20946600D01*
G01X20459700Y24647800D02*
X20464500Y24638900D01*
X20470300Y24633000D01*
X20477100Y24630000D01*
X20484800Y24633000D01*
X20490600Y24638900D01*
X20496400Y24647800D01*
X20498300Y24659700D01*
Y24719000D01*
G01X20545000Y24630000D02*
Y24719000D01*
X20533400Y24701200D01*
G01Y24630000D02*
X20556600D01*
G01X20999700Y24647800D02*
X21004500Y24638900D01*
X21010300Y24633000D01*
X21017100Y24630000D01*
X21024800Y24633000D01*
X21030600Y24638900D01*
X21036400Y24647800D01*
X21038300Y24659700D01*
Y24719000D01*
G01X21063700Y24647800D02*
X21069500Y24637400D01*
X21077300Y24631500D01*
X21086000Y24630000D01*
X21093700Y24631500D01*
X21101400Y24638900D01*
X21106300Y24647800D01*
X21107200Y24656700D01*
X21105300Y24667100D01*
X21098500Y24674500D01*
X21091800Y24677500D01*
X21083100D01*
G01X21091800D02*
X21097600Y24681900D01*
X21102400Y24689300D01*
X21104300Y24698200D01*
X21102400Y24707100D01*
X21097600Y24714500D01*
X21088900Y24719000D01*
X21080200Y24717500D01*
X21071500Y24711600D01*
G01X23857500Y18320000D02*
Y16820000D01*
G01Y17320000D02*
X27607500D01*
G01Y17820000D02*
X23857500D01*
G01X23455000Y22295300D02*
X23544000D01*
Y22271200D01*
X23539500Y22263400D01*
X23533600Y22258600D01*
X23521700Y22256700D01*
X23509900Y22258600D01*
X23502500Y22264400D01*
X23498000Y22271200D01*
Y22295300D01*
G01Y22271200D02*
X23455000Y22256700D01*
G01Y22210000D02*
X23456500Y22203200D01*
X23460900Y22195500D01*
X23468300Y22190700D01*
X23478700Y22188700D01*
X23489100Y22190700D01*
X23498000Y22196500D01*
X23502500Y22205200D01*
Y22214800D01*
X23505400Y22220600D01*
X23512800Y22225500D01*
X23523200Y22227400D01*
X23533600Y22224500D01*
X23541000Y22217700D01*
X23544000Y22210000D01*
X23541000Y22202300D01*
X23533600Y22195500D01*
X23523200Y22192600D01*
X23512800Y22194500D01*
X23505400Y22199400D01*
X23502500Y22205200D01*
Y22214800D01*
X23498000Y22223500D01*
X23489100Y22229300D01*
X23478700Y22231300D01*
X23468300Y22229300D01*
X23460900Y22224500D01*
X23456500Y22216800D01*
X23455000Y22210000D01*
G01X23465400Y22160400D02*
X23458000Y22153700D01*
X23455000Y22145900D01*
X23458000Y22138200D01*
X23466900Y22131400D01*
X23480200Y22126600D01*
X23493600Y22124700D01*
X23509900D01*
X23523200Y22126600D01*
X23535100Y22131400D01*
X23541000Y22137200D01*
X23544000Y22144000D01*
X23541000Y22151700D01*
X23535100Y22157500D01*
X23526200Y22161400D01*
X23514300Y22163300D01*
X23504000Y22161400D01*
X23493600Y22156600D01*
X23487600Y22150800D01*
X23486100Y22144000D01*
X23489100Y22136300D01*
X23496500Y22130500D01*
X23509900Y22124700D01*
G01X24370000Y24440300D02*
X24459000D01*
Y24416200D01*
X24454500Y24408400D01*
X24448600Y24403600D01*
X24436700Y24401700D01*
X24424900Y24403600D01*
X24417500Y24409400D01*
X24413000Y24416200D01*
Y24440300D01*
G01Y24416200D02*
X24370000Y24401700D01*
G01X24383300Y24376300D02*
X24375900Y24370500D01*
X24371500Y24363700D01*
X24370000Y24355000D01*
X24373000Y24346300D01*
X24378900Y24339500D01*
X24389300Y24334700D01*
X24401100Y24333700D01*
X24413000Y24335700D01*
X24420400Y24340500D01*
X24426400Y24347300D01*
X24427800Y24354000D01*
X24426400Y24360800D01*
X24420400Y24369500D01*
X24459000Y24366600D01*
Y24340500D01*
G01X24370000Y24289000D02*
X24459000D01*
X24441200Y24300600D01*
G01X24370000D02*
Y24277400D01*
G01X24210000Y24440300D02*
X24299000D01*
Y24416200D01*
X24294500Y24408400D01*
X24288600Y24403600D01*
X24276700Y24401700D01*
X24264900Y24403600D01*
X24257500Y24409400D01*
X24253000Y24416200D01*
Y24440300D01*
G01Y24416200D02*
X24210000Y24401700D01*
G01X24223300Y24376300D02*
X24215900Y24370500D01*
X24211500Y24363700D01*
X24210000Y24355000D01*
X24213000Y24346300D01*
X24218900Y24339500D01*
X24229300Y24334700D01*
X24241100Y24333700D01*
X24253000Y24335700D01*
X24260400Y24340500D01*
X24266400Y24347300D01*
X24267800Y24354000D01*
X24266400Y24360800D01*
X24260400Y24369500D01*
X24299000Y24366600D01*
Y24340500D01*
G01X24284200Y24307400D02*
X24293100Y24301600D01*
X24297500Y24294800D01*
X24299000Y24287100D01*
X24296000Y24277400D01*
X24288600Y24270600D01*
X24279700Y24268700D01*
X24270800Y24269700D01*
X24263400Y24273500D01*
X24248600Y24292900D01*
X24238200Y24301600D01*
X24223300Y24307400D01*
X24210000Y24309300D01*
Y24268700D01*
G01X23389000Y24929000D02*
Y24840000D01*
G01X23366800Y24929000D02*
X23411200D01*
G01X23472400Y24840000D02*
Y24899300D01*
G01Y24889000D02*
X23468500Y24894900D01*
X23462700Y24897800D01*
X23456000Y24899300D01*
X23449200Y24896400D01*
X23443400Y24890400D01*
X23439500Y24881500D01*
X23437600Y24869700D01*
X23439500Y24857800D01*
X23443400Y24848900D01*
X23449200Y24843000D01*
X23456000Y24840000D01*
X23462700Y24841500D01*
X23468500Y24845900D01*
X23472400Y24851900D01*
G01X23507500Y24840000D02*
Y24899300D01*
G01Y24887500D02*
X23512300Y24893400D01*
X23517100Y24897800D01*
X23523900Y24899300D01*
X23528700Y24897800D01*
X23534500Y24893400D01*
G01X23573500Y24817700D02*
X23580200Y24811800D01*
X23588000Y24810300D01*
X23594700Y24811800D01*
X23600500Y24819200D01*
X23604400Y24829600D01*
Y24899300D01*
G01Y24887500D02*
X23600500Y24893400D01*
X23594700Y24897800D01*
X23588000Y24899300D01*
X23580200Y24896400D01*
X23575400Y24890400D01*
X23571500Y24880000D01*
X23569600Y24869700D01*
X23570600Y24860800D01*
X23574400Y24850400D01*
X23580200Y24843000D01*
X23588000Y24840000D01*
X23593800Y24841500D01*
X23600500Y24847400D01*
X23604400Y24853300D01*
G01X23638500Y24880000D02*
X23669400D01*
X23666500Y24890400D01*
X23661700Y24896400D01*
X23654900Y24899300D01*
X23648200Y24897800D01*
X23642400Y24893400D01*
X23638500Y24883000D01*
X23636600Y24874100D01*
Y24865200D01*
X23638500Y24856300D01*
X23643300Y24847400D01*
X23649100Y24841500D01*
X23655900Y24840000D01*
X23662700Y24843000D01*
X23669400Y24851900D01*
G01X23719000Y24929000D02*
Y24840000D01*
G01X23705500Y24899300D02*
X23732500D01*
G01X23839400Y24929000D02*
X23862600D01*
G01X23851000D02*
Y24840000D01*
G01X23839400D02*
X23862600D01*
G01X23900600D02*
Y24899300D01*
G01Y24884500D02*
X23904400Y24891900D01*
X23910200Y24897800D01*
X23918000Y24899300D01*
X23924700Y24897800D01*
X23930500Y24891900D01*
X23933400Y24881500D01*
Y24840000D01*
G01X23483700Y26315000D02*
X23524300Y26404000D01*
G01X23483700D02*
X23524300Y26315000D01*
G01X23548700D02*
Y26404000D01*
X23568100D01*
X23575800Y26399500D01*
X23581600Y26393600D01*
X23586400Y26384700D01*
X23590300Y26374300D01*
X23591300Y26359500D01*
X23590300Y26344700D01*
X23586400Y26334300D01*
X23581600Y26325400D01*
X23575800Y26319400D01*
X23568100Y26315000D01*
X23548700D01*
G01X23615700Y26326900D02*
X23623400Y26319400D01*
X23632100Y26315000D01*
X23639900D01*
X23647600Y26319400D01*
X23653400Y26326900D01*
X23656300Y26337300D01*
X23654400Y26347600D01*
X23649500Y26356500D01*
X23640800Y26362500D01*
X23629200Y26365400D01*
X23622500Y26371400D01*
X23619600Y26381700D01*
X23621500Y26392100D01*
X23626300Y26399500D01*
X23633100Y26404000D01*
X23639900D01*
X23646600Y26401000D01*
X23652400Y26393600D01*
G01X23702000Y26315000D02*
Y26404000D01*
X23690400Y26386200D01*
G01Y26315000D02*
X23713600D01*
G01X23768000D02*
Y26404000D01*
X23756400Y26386200D01*
G01Y26315000D02*
X23779600D01*
G01X23834000Y26404000D02*
X23826300Y26401000D01*
X23820500Y26393600D01*
X23816600Y26384700D01*
X23813700Y26372800D01*
X23812700Y26359500D01*
X23813700Y26346100D01*
X23816600Y26334300D01*
X23820500Y26325400D01*
X23826300Y26318000D01*
X23834000Y26315000D01*
X23841700Y26318000D01*
X23847500Y26325400D01*
X23851400Y26334300D01*
X23854300Y26346100D01*
X23855300Y26359500D01*
X23854300Y26372800D01*
X23851400Y26384700D01*
X23847500Y26393600D01*
X23841700Y26401000D01*
X23834000Y26404000D01*
G01X23509000Y26195000D02*
X23501300Y26196500D01*
X23494500Y26202400D01*
X23488700Y26211300D01*
X23484800Y26221700D01*
X23482900Y26233600D01*
Y26245400D01*
X23484800Y26257300D01*
X23488700Y26267700D01*
X23494500Y26276600D01*
X23501300Y26282500D01*
X23509000Y26284000D01*
X23516700Y26282500D01*
X23523500Y26276600D01*
X23529300Y26267700D01*
X23533200Y26257300D01*
X23535100Y26245400D01*
Y26233600D01*
X23533200Y26221700D01*
X23529300Y26211300D01*
X23523500Y26202400D01*
X23516700Y26196500D01*
X23509000Y26195000D01*
G01X23558600Y26254300D02*
Y26212800D01*
X23562400Y26202400D01*
X23568200Y26196500D01*
X23575000Y26195000D01*
X23581800Y26196500D01*
X23587600Y26202400D01*
X23591400Y26212800D01*
G01Y26195000D02*
Y26254300D01*
G01X23641000Y26284000D02*
Y26195000D01*
G01X23627500Y26254300D02*
X23654500D01*
G01X25125100Y17820000D02*
Y17320000D01*
G01X24897700Y21977800D02*
X24903500Y21967400D01*
X24911300Y21961500D01*
X24920000Y21960000D01*
X24927700Y21961500D01*
X24935400Y21968900D01*
X24940300Y21977800D01*
X24941200Y21986700D01*
X24939300Y21997100D01*
X24932500Y22004500D01*
X24925800Y22007500D01*
X24917100D01*
G01X24925800D02*
X24931600Y22011900D01*
X24936400Y22019300D01*
X24938300Y22028200D01*
X24936400Y22037100D01*
X24931600Y22044500D01*
X24922900Y22049000D01*
X24914200Y22047500D01*
X24905500Y22041600D01*
G01X24985000Y21960000D02*
Y22049000D01*
X24973400Y22031200D01*
G01Y21960000D02*
X24996600D01*
G01X25179000D02*
Y22049000D01*
X25167400Y22031200D01*
G01Y21960000D02*
X25190600D01*
G01X25245000D02*
Y22049000D01*
X25233400Y22031200D01*
G01Y21960000D02*
X25256600D01*
G01X25036700Y25137500D02*
X25040600Y25141900D01*
X25043500Y25149300D01*
X25045400Y25159700D01*
X25043500Y25168600D01*
X25039600Y25174500D01*
X25032900Y25179000D01*
X25006800D01*
Y25090000D01*
X25038700D01*
X25045400Y25095900D01*
X25049300Y25104800D01*
X25051200Y25115200D01*
X25049300Y25125600D01*
X25043500Y25134500D01*
X25036700Y25137500D01*
X25006800D01*
G01X25095000Y25179000D02*
Y25090000D01*
G01X25072800Y25179000D02*
X25117200D01*
G01X25138800Y25090000D02*
Y25179000D01*
X25183200Y25090000D01*
Y25179000D01*
G01X25214400Y25119700D02*
X25239600D01*
G01X25274600Y25164200D02*
X25280400Y25173100D01*
X25287200Y25177500D01*
X25294900Y25179000D01*
X25304600Y25176000D01*
X25311400Y25168600D01*
X25313300Y25159700D01*
X25312300Y25150800D01*
X25308500Y25143400D01*
X25289100Y25128600D01*
X25280400Y25118200D01*
X25274600Y25103300D01*
X25272700Y25090000D01*
X25313300D01*
G01X25160600Y24644200D02*
X25166400Y24653100D01*
X25173200Y24657500D01*
X25180900Y24659000D01*
X25190600Y24656000D01*
X25197400Y24648600D01*
X25199300Y24639700D01*
X25198300Y24630800D01*
X25194500Y24623400D01*
X25175100Y24608600D01*
X25166400Y24598200D01*
X25160600Y24583300D01*
X25158700Y24570000D01*
X25199300D01*
G01X25245000Y24659000D02*
X25237300Y24656000D01*
X25231500Y24648600D01*
X25227600Y24639700D01*
X25224700Y24627800D01*
X25223700Y24614500D01*
X25224700Y24601100D01*
X25227600Y24589300D01*
X25231500Y24580400D01*
X25237300Y24573000D01*
X25245000Y24570000D01*
X25252700Y24573000D01*
X25258500Y24580400D01*
X25262400Y24589300D01*
X25265300Y24601100D01*
X25266300Y24614500D01*
X25265300Y24627800D01*
X25262400Y24639700D01*
X25258500Y24648600D01*
X25252700Y24656000D01*
X25245000Y24659000D01*
G01X24930600Y24570000D02*
Y24659000D01*
X24894800Y24595200D01*
X24943200D01*
G01X24985000Y24659000D02*
X24977300Y24656000D01*
X24971500Y24648600D01*
X24967600Y24639700D01*
X24964700Y24627800D01*
X24963700Y24614500D01*
X24964700Y24601100D01*
X24967600Y24589300D01*
X24971500Y24580400D01*
X24977300Y24573000D01*
X24985000Y24570000D01*
X24992700Y24573000D01*
X24998500Y24580400D01*
X25002400Y24589300D01*
X25005300Y24601100D01*
X25006300Y24614500D01*
X25005300Y24627800D01*
X25002400Y24639700D01*
X24998500Y24648600D01*
X24992700Y24656000D01*
X24985000Y24659000D01*
G01X25002700Y24950000D02*
Y25039000D01*
X25022100D01*
X25029800Y25034500D01*
X25035600Y25028600D01*
X25040400Y25019700D01*
X25044300Y25009300D01*
X25045300Y24994500D01*
X25044300Y24979700D01*
X25040400Y24969300D01*
X25035600Y24960400D01*
X25029800Y24954400D01*
X25022100Y24950000D01*
X25002700D01*
G01X25078400Y25039000D02*
X25101600D01*
G01X25090000D02*
Y24950000D01*
G01X25078400D02*
X25101600D01*
G01X25156000D02*
X25148300Y24951500D01*
X25141500Y24957400D01*
X25135700Y24966300D01*
X25131800Y24976700D01*
X25129900Y24988600D01*
Y25000400D01*
X25131800Y25012300D01*
X25135700Y25022700D01*
X25141500Y25031600D01*
X25148300Y25037500D01*
X25156000Y25039000D01*
X25163700Y25037500D01*
X25170500Y25031600D01*
X25176300Y25022700D01*
X25180200Y25012300D01*
X25182100Y25000400D01*
Y24988600D01*
X25180200Y24976700D01*
X25176300Y24966300D01*
X25170500Y24957400D01*
X25163700Y24951500D01*
X25156000Y24950000D01*
G01X25222000D02*
Y25039000D01*
X25210400Y25021200D01*
G01Y24950000D02*
X25233600D01*
G01X25299600D02*
Y25039000D01*
X25263800Y24975200D01*
X25312200D01*
G01X25309700Y24647800D02*
X25314500Y24638900D01*
X25320300Y24633000D01*
X25327100Y24630000D01*
X25334800Y24633000D01*
X25340600Y24638900D01*
X25346400Y24647800D01*
X25348300Y24659700D01*
Y24719000D01*
G01X25376600Y24704200D02*
X25382400Y24713100D01*
X25389200Y24717500D01*
X25396900Y24719000D01*
X25406600Y24716000D01*
X25413400Y24708600D01*
X25415300Y24699700D01*
X25414300Y24690800D01*
X25410500Y24683400D01*
X25391100Y24668600D01*
X25382400Y24658200D01*
X25376600Y24643300D01*
X25374700Y24630000D01*
X25415300D01*
G01X24749700Y24647800D02*
X24754500Y24638900D01*
X24760300Y24633000D01*
X24767100Y24630000D01*
X24774800Y24633000D01*
X24780600Y24638900D01*
X24786400Y24647800D01*
X24788300Y24659700D01*
Y24719000D01*
G01X24846600Y24630000D02*
Y24719000D01*
X24810800Y24655200D01*
X24859200D01*
G01X25268700Y25865000D02*
X25309300Y25954000D01*
G01X25268700D02*
X25309300Y25865000D01*
G01X25333700D02*
Y25954000D01*
X25353100D01*
X25360800Y25949500D01*
X25366600Y25943600D01*
X25371400Y25934700D01*
X25375300Y25924300D01*
X25376300Y25909500D01*
X25375300Y25894700D01*
X25371400Y25884300D01*
X25366600Y25875400D01*
X25360800Y25869400D01*
X25353100Y25865000D01*
X25333700D01*
G01X25400700Y25876900D02*
X25408400Y25869400D01*
X25417100Y25865000D01*
X25424900D01*
X25432600Y25869400D01*
X25438400Y25876900D01*
X25441300Y25887300D01*
X25439400Y25897600D01*
X25434500Y25906500D01*
X25425800Y25912500D01*
X25414200Y25915400D01*
X25407500Y25921400D01*
X25404600Y25931700D01*
X25406500Y25942100D01*
X25411300Y25949500D01*
X25418100Y25954000D01*
X25424900D01*
X25431600Y25951000D01*
X25437400Y25943600D01*
G01X25487000Y25865000D02*
Y25954000D01*
X25475400Y25936200D01*
G01Y25865000D02*
X25498600D01*
G01X25553000D02*
Y25954000D01*
X25541400Y25936200D01*
G01Y25865000D02*
X25564600D01*
G01X25619000Y25954000D02*
X25611300Y25951000D01*
X25605500Y25943600D01*
X25601600Y25934700D01*
X25598700Y25922800D01*
X25597700Y25909500D01*
X25598700Y25896100D01*
X25601600Y25884300D01*
X25605500Y25875400D01*
X25611300Y25868000D01*
X25619000Y25865000D01*
X25626700Y25868000D01*
X25632500Y25875400D01*
X25636400Y25884300D01*
X25639300Y25896100D01*
X25640300Y25909500D01*
X25639300Y25922800D01*
X25636400Y25934700D01*
X25632500Y25943600D01*
X25626700Y25951000D01*
X25619000Y25954000D01*
G01X25274700Y25710000D02*
Y25799000D01*
X25297900D01*
X25305600Y25794500D01*
X25311400Y25784200D01*
X25313300Y25772300D01*
X25311400Y25760400D01*
X25306600Y25751500D01*
X25297900Y25747100D01*
X25274700D01*
G01X25360000Y25710000D02*
X25354200Y25711500D01*
X25348400Y25717400D01*
X25344500Y25727800D01*
X25342600Y25739700D01*
X25344500Y25751500D01*
X25348400Y25761900D01*
X25354200Y25767800D01*
X25360000Y25769300D01*
X25365800Y25767800D01*
X25371600Y25761900D01*
X25375500Y25751500D01*
X25376400Y25739700D01*
X25375500Y25727800D01*
X25371600Y25717400D01*
X25365800Y25711500D01*
X25360000Y25710000D01*
G01X25401800Y25769300D02*
X25413400Y25710000D01*
X25426000Y25769300D01*
X25438600Y25710000D01*
X25450200Y25769300D01*
G01X25477500Y25750000D02*
X25508400D01*
X25505500Y25760400D01*
X25500700Y25766400D01*
X25493900Y25769300D01*
X25487200Y25767800D01*
X25481400Y25763400D01*
X25477500Y25753000D01*
X25475600Y25744100D01*
Y25735200D01*
X25477500Y25726300D01*
X25482300Y25717400D01*
X25488100Y25711500D01*
X25494900Y25710000D01*
X25501700Y25713000D01*
X25508400Y25721900D01*
G01X25544500Y25710000D02*
Y25769300D01*
G01Y25757500D02*
X25549300Y25763400D01*
X25554100Y25767800D01*
X25560900Y25769300D01*
X25565700Y25767800D01*
X25571500Y25763400D01*
G01X25323300Y25560000D02*
X25284700D01*
Y25649000D01*
X25323300D01*
G01X25307900Y25606000D02*
X25284700D01*
G01X25355500Y25619300D02*
X25384500Y25560000D01*
G01Y25619300D02*
X25355500Y25560000D01*
G01X25436000Y25649000D02*
Y25560000D01*
G01X25422500Y25619300D02*
X25449500D01*
G01X25487500Y25600000D02*
X25518400D01*
X25515500Y25610400D01*
X25510700Y25616400D01*
X25503900Y25619300D01*
X25497200Y25617800D01*
X25491400Y25613400D01*
X25487500Y25603000D01*
X25485600Y25594100D01*
Y25585200D01*
X25487500Y25576300D01*
X25492300Y25567400D01*
X25498100Y25561500D01*
X25504900Y25560000D01*
X25511700Y25563000D01*
X25518400Y25571900D01*
G01X25554500Y25560000D02*
Y25619300D01*
G01Y25607500D02*
X25559300Y25613400D01*
X25564100Y25617800D01*
X25570900Y25619300D01*
X25575700Y25617800D01*
X25581500Y25613400D01*
G01X25617600Y25560000D02*
Y25619300D01*
G01Y25604500D02*
X25621400Y25611900D01*
X25627200Y25617800D01*
X25635000Y25619300D01*
X25641700Y25617800D01*
X25647500Y25611900D01*
X25650400Y25601500D01*
Y25560000D01*
G01X25284700Y25410000D02*
Y25499000D01*
X25307900D01*
X25315600Y25494500D01*
X25321400Y25484200D01*
X25323300Y25472300D01*
X25321400Y25460400D01*
X25316600Y25451500D01*
X25307900Y25447100D01*
X25284700D01*
G01X25345800Y25469300D02*
X25357400Y25410000D01*
X25370000Y25469300D01*
X25382600Y25410000D01*
X25394200Y25469300D01*
G01X25422500Y25410000D02*
Y25469300D01*
G01Y25457500D02*
X25427300Y25463400D01*
X25432100Y25467800D01*
X25438900Y25469300D01*
X25443700Y25467800D01*
X25449500Y25463400D01*
G54D11*
G01X21248700Y25580000D02*
X21370600D01*
G01X21040400D02*
X21162300D01*
G01X22310400D02*
X22432300D01*
G01X22097000D02*
X22219000D01*
G01X21883700D02*
X22005600D01*
G01X21675400D02*
X21797300D01*
G01X21462000D02*
X21584000D01*
G01X22523800D02*
X22645700D01*
G01X22732000D02*
X22854000D01*
G01X22945400D02*
X23067300D01*
G01X23158800D02*
X23280700D01*
G01X23367000D02*
X23489000D01*
G01X23580400D02*
X23702300D01*
G01X23793800D02*
X23915700D01*
G01X24002000D02*
X24124000D01*
G01X24215400D02*
X24337300D01*
G01X24428800D02*
X24550700D01*
G01X24637000D02*
X24759000D01*
G01X24850400D02*
X24972300D01*
G54D12*
G01X25200000Y25950000D02*
Y25720000D01*
G01X25199800Y25630500D02*
Y25400500D01*
G54D13*
G01X20146200Y20000000D02*
X25703800D01*
G03X25850000Y20146200I0J146200D01*
G01Y24450000D01*
G03X25740000Y24765000I-506023J0D01*
G02X25630000Y25080000I396023J315000D01*
G02X25740000Y25395000I506023J0D01*
G03X25850000Y25710000I-396023J315000D01*
G01Y29383800D01*
G03X25703800Y29530000I-146200J0D01*
G01X21580000D01*
Y29410000D01*
X21420000D01*
Y29200000D01*
X21330000D01*
Y29410000D01*
X20950000D01*
Y29200000D01*
X20860000D01*
Y29410000D01*
X20700000D01*
Y29530000D01*
X20146200D01*
G03X20000000Y29383800I0J-146200D01*
G01Y25710000D01*
G03X20110000Y25395000I506023J0D01*
G02X20220000Y25080000I-396023J-315000D01*
G02X20110000Y24765000I-506023J0D01*
G03X20000000Y24450000I396023J-315000D01*
G01Y20146200D01*
G03X20146200Y20000000I146200J0D01*
G01X23873800Y17520400D02*
X23892800Y17504500D01*
X23914100Y17495000D01*
X23933100D01*
X23952000Y17504500D01*
X23966300Y17520400D01*
X23973400Y17542600D01*
X23968600Y17564800D01*
X23956800Y17583900D01*
X23935400Y17596600D01*
X23907000Y17603000D01*
X23890400Y17615600D01*
X23883300Y17637900D01*
X23888100Y17660100D01*
X23899900Y17676000D01*
X23916500Y17685500D01*
X23933100D01*
X23949700Y17679200D01*
X23963900Y17663300D01*
G01X24085700Y17685500D02*
X24142500D01*
G01X24114100D02*
Y17495000D01*
G01X24085700D02*
X24142500D01*
G01X24257200Y17685500D02*
Y17495000D01*
X24352000D01*
G01X24443000D02*
Y17685500D01*
G01X24533000D02*
X24443000Y17568000D01*
G01X24547200Y17495000D02*
X24483300Y17622000D01*
G01X24685600Y17685500D02*
Y17495000D01*
G01X24631100Y17685500D02*
X24740100D01*
G01X24876100Y17495000D02*
X24857100Y17498200D01*
X24840600Y17510900D01*
X24826300Y17529900D01*
X24816800Y17552100D01*
X24812100Y17577500D01*
Y17603000D01*
X24816800Y17628400D01*
X24826300Y17650600D01*
X24840600Y17669600D01*
X24857100Y17682300D01*
X24876100Y17685500D01*
X24895100Y17682300D01*
X24911600Y17669600D01*
X24925900Y17650600D01*
X24935400Y17628400D01*
X24940100Y17603000D01*
Y17577500D01*
X24935400Y17552100D01*
X24925900Y17529900D01*
X24911600Y17510900D01*
X24895100Y17498200D01*
X24876100Y17495000D01*
G01X25019200D02*
Y17685500D01*
X25076100D01*
X25095000Y17676000D01*
X25109300Y17653800D01*
X25114000Y17628400D01*
X25109300Y17603000D01*
X25097400Y17583900D01*
X25076100Y17574400D01*
X25019200D01*
G01X24170700Y16983700D02*
Y17174200D01*
X24218100D01*
X24237000Y17164700D01*
X24251200Y17152000D01*
X24263100Y17132900D01*
X24272600Y17110700D01*
X24274900Y17078900D01*
X24272600Y17047200D01*
X24263100Y17025000D01*
X24251200Y17005900D01*
X24237000Y16993200D01*
X24218100Y16983700D01*
X24170700D01*
G01X24354000D02*
X24413300Y17174200D01*
X24472600Y16983700D01*
G01X24451200Y17050400D02*
X24375400D01*
G01X24603800Y17174200D02*
Y16983700D01*
G01X24549300Y17174200D02*
X24658300D01*
G01X24841700Y16983700D02*
X24746900D01*
Y17174200D01*
X24841700D01*
G01X24803800Y17082100D02*
X24746900D01*
G01X24984800Y16977400D02*
X24980100Y16980500D01*
Y16986900D01*
X24984800Y16990000D01*
X24989500Y16986900D01*
Y16980500D01*
X24984800Y16977400D01*
G01Y17063100D02*
X24980100Y17066200D01*
Y17072600D01*
X24984800Y17075800D01*
X24989500Y17072600D01*
Y17066200D01*
X24984800Y17063100D01*
G01X25320800Y17142500D02*
X25335000Y17161500D01*
X25351600Y17171000D01*
X25370500Y17174200D01*
X25394200Y17167900D01*
X25410800Y17152000D01*
X25415600Y17132900D01*
X25413200Y17113900D01*
X25403700Y17098000D01*
X25356300Y17066200D01*
X25335000Y17044000D01*
X25320800Y17012300D01*
X25316000Y16983700D01*
X25415600D01*
G01X25556300Y17174200D02*
X25537300Y17167900D01*
X25523100Y17152000D01*
X25513600Y17132900D01*
X25506500Y17107500D01*
X25504200Y17078900D01*
X25506500Y17050400D01*
X25513600Y17025000D01*
X25523100Y17005900D01*
X25537300Y16990000D01*
X25556300Y16983700D01*
X25575300Y16990000D01*
X25589500Y17005900D01*
X25599000Y17025000D01*
X25606100Y17050400D01*
X25608400Y17078900D01*
X25606100Y17107500D01*
X25599000Y17132900D01*
X25589500Y17152000D01*
X25575300Y17167900D01*
X25556300Y17174200D01*
G01X25746800Y16983700D02*
Y17174200D01*
X25718400Y17136100D01*
G01Y16983700D02*
X25775200D01*
G01X25937300D02*
X25953900Y16986900D01*
X25972800Y16996400D01*
X25984700Y17012300D01*
X25989400Y17034500D01*
X25984700Y17056700D01*
X25970500Y17075800D01*
X25949100Y17085300D01*
X25925500D01*
X25911200Y17091700D01*
X25899400Y17107500D01*
X25894600Y17129700D01*
X25901800Y17152000D01*
X25918300Y17167900D01*
X25937300Y17174200D01*
X25956300Y17167900D01*
X25972800Y17152000D01*
X25980000Y17129700D01*
X25975200Y17107500D01*
X25963400Y17091700D01*
X25949100Y17085300D01*
X25925500D01*
X25904100Y17075800D01*
X25889900Y17056700D01*
X25885200Y17034500D01*
X25889900Y17012300D01*
X25901800Y16996400D01*
X25920700Y16986900D01*
X25937300Y16983700D01*
G01X26097000Y17047200D02*
X26158600D01*
G01X26318300Y16983700D02*
Y17174200D01*
X26289900Y17136100D01*
G01Y16983700D02*
X26346700D01*
G01X26508800Y17174200D02*
X26489800Y17167900D01*
X26475600Y17152000D01*
X26466100Y17132900D01*
X26459000Y17107500D01*
X26456700Y17078900D01*
X26459000Y17050400D01*
X26466100Y17025000D01*
X26475600Y17005900D01*
X26489800Y16990000D01*
X26508800Y16983700D01*
X26527800Y16990000D01*
X26542000Y17005900D01*
X26551500Y17025000D01*
X26558600Y17050400D01*
X26560900Y17078900D01*
X26558600Y17107500D01*
X26551500Y17132900D01*
X26542000Y17152000D01*
X26527800Y17167900D01*
X26508800Y17174200D01*
G01X26668500Y17047200D02*
X26730100D01*
G01X26889800Y17174200D02*
X26870800Y17167900D01*
X26856600Y17152000D01*
X26847100Y17132900D01*
X26840000Y17107500D01*
X26837700Y17078900D01*
X26840000Y17050400D01*
X26847100Y17025000D01*
X26856600Y17005900D01*
X26870800Y16990000D01*
X26889800Y16983700D01*
X26908800Y16990000D01*
X26923000Y17005900D01*
X26932500Y17025000D01*
X26939600Y17050400D01*
X26941900Y17078900D01*
X26939600Y17107500D01*
X26932500Y17132900D01*
X26923000Y17152000D01*
X26908800Y17167900D01*
X26889800Y17174200D01*
G01X27080300Y16983700D02*
X27096900Y16986900D01*
X27115800Y16996400D01*
X27127700Y17012300D01*
X27132400Y17034500D01*
X27127700Y17056700D01*
X27113500Y17075800D01*
X27092100Y17085300D01*
X27068500D01*
X27054200Y17091700D01*
X27042400Y17107500D01*
X27037600Y17129700D01*
X27044800Y17152000D01*
X27061300Y17167900D01*
X27080300Y17174200D01*
X27099300Y17167900D01*
X27115800Y17152000D01*
X27123000Y17129700D01*
X27118200Y17107500D01*
X27106400Y17091700D01*
X27092100Y17085300D01*
X27068500D01*
X27047100Y17075800D01*
X27032900Y17056700D01*
X27028200Y17034500D01*
X27032900Y17012300D01*
X27044800Y16996400D01*
X27063700Y16986900D01*
X27080300Y16983700D01*
G01X24217800Y18169200D02*
Y17978700D01*
G01X24163300Y18169200D02*
X24272300D01*
G01X24455700Y17978700D02*
X24360900D01*
Y18169200D01*
X24455700D01*
G01X24417800Y18077100D02*
X24360900D01*
G01X24549000Y17978700D02*
X24648600Y18169200D01*
G01X24549000D02*
X24648600Y17978700D01*
G01X24730000D02*
X24789300Y18169200D01*
X24848600Y17978700D01*
G01X24827200Y18045400D02*
X24751400D01*
G01X24930000Y18004100D02*
X24949000Y17988200D01*
X24970300Y17978700D01*
X24989300D01*
X25008200Y17988200D01*
X25022500Y18004100D01*
X25029600Y18026300D01*
X25024800Y18048500D01*
X25013000Y18067600D01*
X24991600Y18080300D01*
X24963200Y18086700D01*
X24946600Y18099300D01*
X24939500Y18121600D01*
X24944300Y18143800D01*
X24956100Y18159700D01*
X24972700Y18169200D01*
X24989300D01*
X25005900Y18162900D01*
X25020100Y18147000D01*
G01X25332400Y18169200D02*
X25389200D01*
G01X25360800D02*
Y17978700D01*
G01X25332400D02*
X25389200D01*
G01X25496800D02*
Y18169200D01*
X25605800Y17978700D01*
Y18169200D01*
G01X25692000Y18004100D02*
X25711000Y17988200D01*
X25732300Y17978700D01*
X25751300D01*
X25770200Y17988200D01*
X25784500Y18004100D01*
X25791600Y18026300D01*
X25786800Y18048500D01*
X25775000Y18067600D01*
X25753600Y18080300D01*
X25725200Y18086700D01*
X25708600Y18099300D01*
X25701500Y18121600D01*
X25706300Y18143800D01*
X25718100Y18159700D01*
X25734700Y18169200D01*
X25751300D01*
X25767900Y18162900D01*
X25782100Y18147000D01*
G01X25932300Y18169200D02*
Y17978700D01*
G01X25877800Y18169200D02*
X25986800D01*
G01X26075400Y17978700D02*
Y18169200D01*
X26134600D01*
X26153600Y18159700D01*
X26165500Y18147000D01*
X26170200Y18121600D01*
X26165500Y18096200D01*
X26151200Y18080300D01*
X26134600Y18070800D01*
X26075400D01*
G01X26134600D02*
X26170200Y17978700D01*
G01X26261200Y18169200D02*
Y18032700D01*
X26270600Y18004100D01*
X26289600Y17985000D01*
X26313300Y17978700D01*
X26337000Y17985000D01*
X26356000Y18004100D01*
X26365400Y18032700D01*
Y18169200D01*
G01X26442200Y17978700D02*
Y18169200D01*
X26503800Y18010400D01*
X26565400Y18169200D01*
Y17978700D01*
G01X26741700D02*
X26646900D01*
Y18169200D01*
X26741700D01*
G01X26703800Y18077100D02*
X26646900D01*
G01X26830300Y17978700D02*
Y18169200D01*
X26939300Y17978700D01*
Y18169200D01*
G01X27075300D02*
Y17978700D01*
G01X27020800Y18169200D02*
X27129800D01*
G01X27216000Y18004100D02*
X27235000Y17988200D01*
X27256300Y17978700D01*
X27275300D01*
X27294200Y17988200D01*
X27308500Y18004100D01*
X27315600Y18026300D01*
X27310800Y18048500D01*
X27299000Y18067600D01*
X27277600Y18080300D01*
X27249200Y18086700D01*
X27232600Y18099300D01*
X27225500Y18121600D01*
X27230300Y18143800D01*
X27242100Y18159700D01*
X27258700Y18169200D01*
X27275300D01*
X27291900Y18162900D01*
X27306100Y18147000D01*
G54D14*
G01X25236800Y17365000D02*
Y17516900D01*
X25281000Y17390300D01*
X25325300Y17516900D01*
Y17365000D01*
G01X25435600Y17504200D02*
X25425400Y17511800D01*
X25413500Y17516900D01*
X25399900D01*
X25384500Y17509300D01*
X25372600Y17496600D01*
X25364100Y17481500D01*
X25357300Y17456100D01*
X25355600Y17433400D01*
X25359000Y17410600D01*
X25364100Y17395400D01*
X25374300Y17380200D01*
X25386200Y17370100D01*
X25398100Y17365000D01*
X25410100D01*
X25422000Y17370100D01*
X25432200Y17377700D01*
X25440700Y17387800D01*
G01X25477800Y17516900D02*
Y17408000D01*
X25484600Y17385200D01*
X25498200Y17370100D01*
X25515200Y17365000D01*
X25532300Y17370100D01*
X25545900Y17385200D01*
X25552700Y17408000D01*
Y17516900D01*
G01X25632300D02*
X25618700Y17511800D01*
X25608500Y17499200D01*
X25601700Y17484000D01*
X25596600Y17463700D01*
X25594900Y17440900D01*
X25596600Y17418200D01*
X25601700Y17397900D01*
X25608500Y17382700D01*
X25618700Y17370100D01*
X25632300Y17365000D01*
X25646000Y17370100D01*
X25656200Y17382700D01*
X25663000Y17397900D01*
X25668100Y17418200D01*
X25669800Y17440900D01*
X25668100Y17463700D01*
X25663000Y17484000D01*
X25656200Y17499200D01*
X25646000Y17511800D01*
X25632300Y17516900D01*
G01X25717100Y17428300D02*
X25729000Y17446000D01*
X25739200Y17456100D01*
X25752900Y17461200D01*
X25764800Y17456100D01*
X25773300Y17446000D01*
X25780100Y17430800D01*
X25781800Y17413100D01*
X25780100Y17397900D01*
X25773300Y17382700D01*
X25763100Y17370100D01*
X25751200Y17365000D01*
X25737500Y17370100D01*
X25725600Y17385200D01*
X25718800Y17408000D01*
X25717100Y17433400D01*
X25720500Y17466300D01*
X25725600Y17484000D01*
X25734100Y17501700D01*
X25746000Y17514400D01*
X25758000Y17516900D01*
X25769900Y17511800D01*
X25778400Y17499200D01*
G01X25863100Y17365000D02*
X25866500Y17397900D01*
X25871700Y17425800D01*
X25878500Y17451100D01*
X25887000Y17478900D01*
X25900600Y17516900D01*
X25832500D01*
G01X26066700Y17365000D02*
Y17516900D01*
X26109300D01*
X26122900Y17509300D01*
X26131400Y17499200D01*
X26134800Y17478900D01*
X26131400Y17458700D01*
X26121200Y17446000D01*
X26109300Y17438400D01*
X26066700D01*
G01X26109300D02*
X26134800Y17365000D01*
G01X26192300Y17433400D02*
X26246800D01*
X26241700Y17451100D01*
X26233200Y17461200D01*
X26221300Y17466300D01*
X26209300Y17463700D01*
X26199100Y17456100D01*
X26192300Y17438400D01*
X26188900Y17423200D01*
Y17408000D01*
X26192300Y17392800D01*
X26200800Y17377700D01*
X26211000Y17367500D01*
X26223000Y17365000D01*
X26234900Y17370100D01*
X26246800Y17385200D01*
G01X26304300Y17466300D02*
X26334900Y17365000D01*
X26365600Y17466300D01*
G01X26452000Y17359900D02*
X26448600Y17362500D01*
Y17367500D01*
X26452000Y17370100D01*
X26455500Y17367500D01*
Y17362500D01*
X26452000Y17359900D01*
G01X26643700Y17365000D02*
X26686200Y17516900D01*
X26728800Y17365000D01*
G01X26713500Y17418200D02*
X26659000D01*
G01X25237000Y17766900D02*
Y17615000D01*
X25305100D01*
G01X25354100D02*
Y17766900D01*
X25395000D01*
X25408600Y17759300D01*
X25418800Y17741600D01*
X25422200Y17721300D01*
X25418800Y17701100D01*
X25410300Y17685900D01*
X25395000Y17678300D01*
X25354100D01*
G01X25483100Y17665600D02*
X25527400D01*
G01X25659800Y17754200D02*
X25649600Y17761800D01*
X25637700Y17766900D01*
X25624100D01*
X25608700Y17759300D01*
X25596800Y17746600D01*
X25588300Y17731500D01*
X25581500Y17706100D01*
X25579800Y17683400D01*
X25583200Y17660600D01*
X25588300Y17645400D01*
X25598500Y17630200D01*
X25610400Y17620100D01*
X25622300Y17615000D01*
X25634300D01*
X25646200Y17620100D01*
X25656400Y17627700D01*
X25664900Y17637800D01*
G01X25776900Y17754200D02*
X25766700Y17761800D01*
X25754800Y17766900D01*
X25741200D01*
X25725800Y17759300D01*
X25713900Y17746600D01*
X25705400Y17731500D01*
X25698600Y17706100D01*
X25696900Y17683400D01*
X25700300Y17660600D01*
X25705400Y17645400D01*
X25715600Y17630200D01*
X25727500Y17620100D01*
X25739400Y17615000D01*
X25751400D01*
X25763300Y17620100D01*
X25773500Y17627700D01*
X25782000Y17637800D01*
G01X25824200Y17741600D02*
X25834400Y17756800D01*
X25846300Y17764400D01*
X25860000Y17766900D01*
X25877000Y17761800D01*
X25888900Y17749200D01*
X25892300Y17734000D01*
X25890600Y17718800D01*
X25883800Y17706100D01*
X25849700Y17680800D01*
X25834400Y17663100D01*
X25824200Y17637800D01*
X25820800Y17615000D01*
X25892300D01*
G01X25941300Y17678300D02*
X25953200Y17696000D01*
X25963400Y17706100D01*
X25977100Y17711200D01*
X25989000Y17706100D01*
X25997500Y17696000D01*
X26004300Y17680800D01*
X26006000Y17663100D01*
X26004300Y17647900D01*
X25997500Y17632700D01*
X25987300Y17620100D01*
X25975400Y17615000D01*
X25961700Y17620100D01*
X25949800Y17635200D01*
X25943000Y17658000D01*
X25941300Y17683400D01*
X25944700Y17716300D01*
X25949800Y17734000D01*
X25958300Y17751700D01*
X25970200Y17764400D01*
X25982200Y17766900D01*
X25994100Y17761800D01*
X26002600Y17749200D01*
G01X26053300Y17637800D02*
X26063500Y17625100D01*
X26075400Y17617500D01*
X26090700Y17615000D01*
X26106100Y17620100D01*
X26118000Y17630200D01*
X26126500Y17647900D01*
X26128200Y17668200D01*
X26124800Y17688400D01*
X26116300Y17701100D01*
X26104400Y17711200D01*
X26092500Y17713700D01*
X26080500Y17711200D01*
X26065200Y17701100D01*
X26070300Y17766900D01*
X26116300D01*
G01X26175500Y17741600D02*
X26185700Y17756800D01*
X26197600Y17764400D01*
X26211300Y17766900D01*
X26228300Y17761800D01*
X26240200Y17749200D01*
X26243600Y17734000D01*
X26241900Y17718800D01*
X26235100Y17706100D01*
X26201000Y17680800D01*
X26185700Y17663100D01*
X26175500Y17637800D01*
X26172100Y17615000D01*
X26243600D01*
G01X26290900D02*
Y17766900D01*
X26333500D01*
X26347100Y17759300D01*
X26355600Y17749200D01*
X26359000Y17728900D01*
X26355600Y17708700D01*
X26345400Y17696000D01*
X26333500Y17688400D01*
X26290900D01*
G01X26333500D02*
X26359000Y17615000D01*
G01X26455700Y17696000D02*
X26462500Y17703600D01*
X26467600Y17716300D01*
X26471000Y17734000D01*
X26467600Y17749200D01*
X26460800Y17759300D01*
X26448900Y17766900D01*
X26402900D01*
Y17615000D01*
X26459100D01*
X26471000Y17625100D01*
X26477800Y17640300D01*
X26481200Y17658000D01*
X26477800Y17675800D01*
X26467600Y17690900D01*
X26455700Y17696000D01*
X26402900D01*
G54D15*
G01X21279300Y21310000D02*
Y21415000D01*
X21302700D01*
X21312000Y21409700D01*
X21319000Y21402700D01*
X21324800Y21392300D01*
X21329500Y21380000D01*
X21330700Y21362500D01*
X21329500Y21345000D01*
X21324800Y21332700D01*
X21319000Y21322200D01*
X21312000Y21315200D01*
X21302700Y21310000D01*
X21279300D01*
G01X21371000Y21415000D02*
X21399000D01*
G01X21385000D02*
Y21310000D01*
G01X21371000D02*
X21399000D01*
G01X21465000D02*
X21455700Y21311700D01*
X21447500Y21318700D01*
X21440500Y21329200D01*
X21435800Y21341500D01*
X21433500Y21355500D01*
Y21369500D01*
X21435800Y21383500D01*
X21440500Y21395800D01*
X21447500Y21406200D01*
X21455700Y21413300D01*
X21465000Y21415000D01*
X21474300Y21413300D01*
X21482500Y21406200D01*
X21489500Y21395800D01*
X21494200Y21383500D01*
X21496500Y21369500D01*
Y21355500D01*
X21494200Y21341500D01*
X21489500Y21329200D01*
X21482500Y21318700D01*
X21474300Y21311700D01*
X21465000Y21310000D01*
G01X21522800Y21353700D02*
X21531000Y21366000D01*
X21538000Y21373000D01*
X21547300Y21376500D01*
X21555500Y21373000D01*
X21561300Y21366000D01*
X21566000Y21355500D01*
X21567200Y21343200D01*
X21566000Y21332700D01*
X21561300Y21322200D01*
X21554300Y21313500D01*
X21546200Y21310000D01*
X21536800Y21313500D01*
X21528700Y21324000D01*
X21524000Y21339800D01*
X21522800Y21357200D01*
X21525200Y21380000D01*
X21528700Y21392300D01*
X21534500Y21404500D01*
X21542700Y21413300D01*
X21550800Y21415000D01*
X21559000Y21411500D01*
X21564800Y21402700D01*
G01X20129300Y22330100D02*
X20128700Y22435100D01*
X20152000Y22435200D01*
X20161400Y22430000D01*
X20168400Y22423100D01*
X20174300Y22412600D01*
X20179100Y22400400D01*
X20180300Y22382900D01*
X20179300Y22365400D01*
X20174700Y22353100D01*
X20168900Y22342600D01*
X20162000Y22335500D01*
X20152700Y22330200D01*
X20129300Y22330100D01*
G01X20220300Y22435600D02*
X20248300Y22435800D01*
G01X20234300Y22435700D02*
X20235000Y22330700D01*
G01X20221000Y22330600D02*
X20249000Y22330800D01*
G01X20315000Y22331200D02*
X20305700Y22332900D01*
X20297400Y22339900D01*
X20290400Y22350300D01*
X20285600Y22362500D01*
X20283200Y22376500D01*
X20283100Y22390500D01*
X20285400Y22404500D01*
X20290000Y22416800D01*
X20296900Y22427400D01*
X20305000Y22434400D01*
X20314300Y22436200D01*
X20323700Y22434500D01*
X20331900Y22427600D01*
X20339000Y22417100D01*
X20343700Y22404900D01*
X20346100Y22390900D01*
X20346200Y22376900D01*
X20344000Y22362900D01*
X20339400Y22350600D01*
X20332400Y22340100D01*
X20324300Y22333000D01*
X20315000Y22331200D01*
G01X20409000Y22331800D02*
X20408300Y22436800D01*
X20365600Y22361300D01*
X20424000Y22361700D01*
G01X20139300Y22090100D02*
X20138700Y22195100D01*
X20162000Y22195200D01*
X20171400Y22190000D01*
X20178400Y22183100D01*
X20184300Y22172600D01*
X20189100Y22160400D01*
X20190300Y22142900D01*
X20189300Y22125400D01*
X20184700Y22113100D01*
X20178900Y22102600D01*
X20172000Y22095500D01*
X20162700Y22090200D01*
X20139300Y22090100D01*
G01X20230300Y22195600D02*
X20258300Y22195800D01*
G01X20244300Y22195700D02*
X20245000Y22090700D01*
G01X20231000Y22090600D02*
X20259000Y22090800D01*
G01X20325000Y22091200D02*
X20315700Y22092900D01*
X20307400Y22099900D01*
X20300400Y22110300D01*
X20295600Y22122500D01*
X20293200Y22136500D01*
X20293100Y22150500D01*
X20295400Y22164500D01*
X20300000Y22176800D01*
X20306900Y22187400D01*
X20315000Y22194400D01*
X20324300Y22196200D01*
X20333700Y22194500D01*
X20341900Y22187600D01*
X20349000Y22177100D01*
X20353700Y22164900D01*
X20356100Y22150900D01*
X20356200Y22136900D01*
X20354000Y22122900D01*
X20349400Y22110600D01*
X20342400Y22100100D01*
X20334300Y22093000D01*
X20325000Y22091200D01*
G01X20379200Y22107300D02*
X20386300Y22098600D01*
X20394500Y22093400D01*
X20405000Y22091700D01*
X20415500Y22095300D01*
X20423600Y22102300D01*
X20429400Y22114600D01*
X20430400Y22128600D01*
X20428000Y22142600D01*
X20422100Y22151300D01*
X20413900Y22158300D01*
X20405700Y22160000D01*
X20397600Y22158200D01*
X20387100Y22151100D01*
X20390300Y22196600D01*
X20421800Y22196800D01*
G01X20129300Y22840100D02*
X20128700Y22945100D01*
X20152000Y22945200D01*
X20161400Y22940000D01*
X20168400Y22933100D01*
X20174300Y22922600D01*
X20179100Y22910400D01*
X20180300Y22892900D01*
X20179300Y22875400D01*
X20174700Y22863100D01*
X20168900Y22852600D01*
X20162000Y22845500D01*
X20152700Y22840200D01*
X20129300Y22840100D01*
G01X20220300Y22945600D02*
X20248300Y22945800D01*
G01X20234300Y22945700D02*
X20235000Y22840700D01*
G01X20221000Y22840600D02*
X20249000Y22840800D01*
G01X20315000Y22841200D02*
X20305700Y22842900D01*
X20297400Y22849900D01*
X20290400Y22860300D01*
X20285600Y22872500D01*
X20283200Y22886500D01*
X20283100Y22900500D01*
X20285400Y22914500D01*
X20290000Y22926800D01*
X20296900Y22937400D01*
X20305000Y22944400D01*
X20314300Y22946200D01*
X20323700Y22944500D01*
X20331900Y22937600D01*
X20339000Y22927100D01*
X20343700Y22914900D01*
X20346100Y22900900D01*
X20346200Y22886900D01*
X20344000Y22872900D01*
X20339400Y22860600D01*
X20332400Y22850100D01*
X20324300Y22843000D01*
X20315000Y22841200D01*
G01X20395000Y22841700D02*
X20394300Y22946700D01*
X20380500Y22925600D01*
G01X20381000Y22841600D02*
X20409000Y22841800D01*
G01X20474300Y22947200D02*
X20465000Y22943700D01*
X20458100Y22934900D01*
X20453500Y22924300D01*
X20450100Y22910300D01*
X20449000Y22894600D01*
X20450300Y22878800D01*
X20453900Y22864800D01*
X20458600Y22854400D01*
X20465600Y22845700D01*
X20475000Y22842200D01*
X20484300Y22845800D01*
X20491300Y22854600D01*
X20495900Y22865100D01*
X20499300Y22879100D01*
X20500300Y22894900D01*
X20499100Y22910600D01*
X20495500Y22924600D01*
X20490700Y22935100D01*
X20483700Y22943800D01*
X20474300Y22947200D01*
G01X20129300Y22590100D02*
X20128700Y22695100D01*
X20152000Y22695200D01*
X20161400Y22690000D01*
X20168400Y22683100D01*
X20174300Y22672600D01*
X20179100Y22660400D01*
X20180300Y22642900D01*
X20179300Y22625400D01*
X20174700Y22613100D01*
X20168900Y22602600D01*
X20162000Y22595500D01*
X20152700Y22590200D01*
X20129300Y22590100D01*
G01X20220300Y22695600D02*
X20248300Y22695800D01*
G01X20234300Y22695700D02*
X20235000Y22590700D01*
G01X20221000Y22590600D02*
X20249000Y22590800D01*
G01X20315000Y22591200D02*
X20305700Y22592900D01*
X20297400Y22599900D01*
X20290400Y22610300D01*
X20285600Y22622500D01*
X20283200Y22636500D01*
X20283100Y22650500D01*
X20285400Y22664500D01*
X20290000Y22676800D01*
X20296900Y22687400D01*
X20305000Y22694400D01*
X20314300Y22696200D01*
X20323700Y22694500D01*
X20331900Y22687600D01*
X20339000Y22677100D01*
X20343700Y22664900D01*
X20346100Y22650900D01*
X20346200Y22636900D01*
X20344000Y22622900D01*
X20339400Y22610600D01*
X20332400Y22600100D01*
X20324300Y22593000D01*
X20315000Y22591200D01*
G01X20372300Y22679100D02*
X20379200Y22689600D01*
X20387300Y22694900D01*
X20396700Y22696700D01*
X20408400Y22693300D01*
X20416600Y22684600D01*
X20419000Y22674100D01*
X20417900Y22663600D01*
X20413300Y22654800D01*
X20390000Y22637200D01*
X20379600Y22624900D01*
X20372700Y22607300D01*
X20370500Y22591600D01*
X20419500Y22591900D01*
G01X20475000Y22592200D02*
X20474300Y22697200D01*
X20460500Y22676100D01*
G01X20461000Y22592100D02*
X20489000Y22592300D01*
G01X21049300Y22090000D02*
Y22195000D01*
X21072700D01*
X21082000Y22189700D01*
X21089000Y22182700D01*
X21094800Y22172300D01*
X21099500Y22160000D01*
X21100700Y22142500D01*
X21099500Y22125000D01*
X21094800Y22112700D01*
X21089000Y22102200D01*
X21082000Y22095200D01*
X21072700Y22090000D01*
X21049300D01*
G01X21141000Y22195000D02*
X21169000D01*
G01X21155000D02*
Y22090000D01*
G01X21141000D02*
X21169000D01*
G01X21235000D02*
X21225700Y22091700D01*
X21217500Y22098700D01*
X21210500Y22109200D01*
X21205800Y22121500D01*
X21203500Y22135500D01*
Y22149500D01*
X21205800Y22163500D01*
X21210500Y22175800D01*
X21217500Y22186200D01*
X21225700Y22193300D01*
X21235000Y22195000D01*
X21244300Y22193300D01*
X21252500Y22186200D01*
X21259500Y22175800D01*
X21264200Y22163500D01*
X21266500Y22149500D01*
Y22135500D01*
X21264200Y22121500D01*
X21259500Y22109200D01*
X21252500Y22098700D01*
X21244300Y22091700D01*
X21235000Y22090000D01*
G01X21315000D02*
Y22195000D01*
X21301000Y22174000D01*
G01Y22090000D02*
X21329000D01*
G01X21044300Y22335000D02*
Y22440000D01*
X21067700D01*
X21077000Y22434700D01*
X21084000Y22427700D01*
X21089800Y22417300D01*
X21094500Y22405000D01*
X21095700Y22387500D01*
X21094500Y22370000D01*
X21089800Y22357700D01*
X21084000Y22347200D01*
X21077000Y22340200D01*
X21067700Y22335000D01*
X21044300D01*
G01X21136000Y22440000D02*
X21164000D01*
G01X21150000D02*
Y22335000D01*
G01X21136000D02*
X21164000D01*
G01X21230000D02*
X21220700Y22336700D01*
X21212500Y22343700D01*
X21205500Y22354200D01*
X21200800Y22366500D01*
X21198500Y22380500D01*
Y22394500D01*
X21200800Y22408500D01*
X21205500Y22420800D01*
X21212500Y22431200D01*
X21220700Y22438300D01*
X21230000Y22440000D01*
X21239300Y22438300D01*
X21247500Y22431200D01*
X21254500Y22420800D01*
X21259200Y22408500D01*
X21261500Y22394500D01*
Y22380500D01*
X21259200Y22366500D01*
X21254500Y22354200D01*
X21247500Y22343700D01*
X21239300Y22336700D01*
X21230000Y22335000D01*
G01X21310000Y22440000D02*
X21300700Y22436500D01*
X21293700Y22427700D01*
X21289000Y22417300D01*
X21285500Y22403200D01*
X21284300Y22387500D01*
X21285500Y22371700D01*
X21289000Y22357700D01*
X21293700Y22347200D01*
X21300700Y22338500D01*
X21310000Y22335000D01*
X21319300Y22338500D01*
X21326300Y22347200D01*
X21331000Y22357700D01*
X21334500Y22371700D01*
X21335700Y22387500D01*
X21334500Y22403200D01*
X21331000Y22417300D01*
X21326300Y22427700D01*
X21319300Y22436500D01*
X21310000Y22440000D01*
G01X21044300Y22590000D02*
Y22695000D01*
X21067700D01*
X21077000Y22689700D01*
X21084000Y22682700D01*
X21089800Y22672300D01*
X21094500Y22660000D01*
X21095700Y22642500D01*
X21094500Y22625000D01*
X21089800Y22612700D01*
X21084000Y22602200D01*
X21077000Y22595200D01*
X21067700Y22590000D01*
X21044300D01*
G01X21136000Y22695000D02*
X21164000D01*
G01X21150000D02*
Y22590000D01*
G01X21136000D02*
X21164000D01*
G01X21230000D02*
X21220700Y22591700D01*
X21212500Y22598700D01*
X21205500Y22609200D01*
X21200800Y22621500D01*
X21198500Y22635500D01*
Y22649500D01*
X21200800Y22663500D01*
X21205500Y22675800D01*
X21212500Y22686200D01*
X21220700Y22693300D01*
X21230000Y22695000D01*
X21239300Y22693300D01*
X21247500Y22686200D01*
X21254500Y22675800D01*
X21259200Y22663500D01*
X21261500Y22649500D01*
Y22635500D01*
X21259200Y22621500D01*
X21254500Y22609200D01*
X21247500Y22598700D01*
X21239300Y22591700D01*
X21230000Y22590000D01*
G01X21284300Y22611000D02*
X21291300Y22598700D01*
X21300700Y22591700D01*
X21311200Y22590000D01*
X21320500Y22591700D01*
X21329800Y22600500D01*
X21335700Y22611000D01*
X21336800Y22621500D01*
X21334500Y22633700D01*
X21326300Y22642500D01*
X21318200Y22646000D01*
X21307700D01*
G01X21318200D02*
X21325200Y22651200D01*
X21331000Y22660000D01*
X21333300Y22670500D01*
X21331000Y22681000D01*
X21325200Y22689700D01*
X21314700Y22695000D01*
X21304200Y22693300D01*
X21293700Y22686200D01*
G01X21390000Y22695000D02*
X21380700Y22691500D01*
X21373700Y22682700D01*
X21369000Y22672300D01*
X21365500Y22658200D01*
X21364300Y22642500D01*
X21365500Y22626700D01*
X21369000Y22612700D01*
X21373700Y22602200D01*
X21380700Y22593500D01*
X21390000Y22590000D01*
X21399300Y22593500D01*
X21406300Y22602200D01*
X21411000Y22612700D01*
X21414500Y22626700D01*
X21415700Y22642500D01*
X21414500Y22658200D01*
X21411000Y22672300D01*
X21406300Y22682700D01*
X21399300Y22691500D01*
X21390000Y22695000D01*
G01X21044300Y22845000D02*
Y22950000D01*
X21067700D01*
X21077000Y22944700D01*
X21084000Y22937700D01*
X21089800Y22927300D01*
X21094500Y22915000D01*
X21095700Y22897500D01*
X21094500Y22880000D01*
X21089800Y22867700D01*
X21084000Y22857200D01*
X21077000Y22850200D01*
X21067700Y22845000D01*
X21044300D01*
G01X21136000Y22950000D02*
X21164000D01*
G01X21150000D02*
Y22845000D01*
G01X21136000D02*
X21164000D01*
G01X21230000D02*
X21220700Y22846700D01*
X21212500Y22853700D01*
X21205500Y22864200D01*
X21200800Y22876500D01*
X21198500Y22890500D01*
Y22904500D01*
X21200800Y22918500D01*
X21205500Y22930800D01*
X21212500Y22941200D01*
X21220700Y22948300D01*
X21230000Y22950000D01*
X21239300Y22948300D01*
X21247500Y22941200D01*
X21254500Y22930800D01*
X21259200Y22918500D01*
X21261500Y22904500D01*
Y22890500D01*
X21259200Y22876500D01*
X21254500Y22864200D01*
X21247500Y22853700D01*
X21239300Y22846700D01*
X21230000Y22845000D01*
G01X21287800Y22932500D02*
X21294800Y22943000D01*
X21303000Y22948300D01*
X21312300Y22950000D01*
X21324000Y22946500D01*
X21332200Y22937700D01*
X21334500Y22927300D01*
X21333300Y22916700D01*
X21328700Y22908000D01*
X21305300Y22890500D01*
X21294800Y22878200D01*
X21287800Y22860700D01*
X21285500Y22845000D01*
X21334500D01*
G01X21370200Y22857200D02*
X21378300Y22848500D01*
X21387700Y22845000D01*
X21397000Y22848500D01*
X21405200Y22859000D01*
X21411000Y22874800D01*
X21413300Y22890500D01*
Y22909700D01*
X21411000Y22925500D01*
X21405200Y22939500D01*
X21398200Y22946500D01*
X21390000Y22950000D01*
X21380700Y22946500D01*
X21373700Y22939500D01*
X21369000Y22929000D01*
X21366700Y22915000D01*
X21369000Y22902800D01*
X21374800Y22890500D01*
X21381800Y22883500D01*
X21390000Y22881700D01*
X21399300Y22885200D01*
X21406300Y22894000D01*
X21413300Y22909700D01*
G01X21281700Y21490000D02*
Y21595000D01*
X21310800D01*
X21320200Y21589700D01*
X21326000Y21582700D01*
X21328300Y21568700D01*
X21326000Y21554700D01*
X21319000Y21546000D01*
X21310800Y21540700D01*
X21281700D01*
G01X21310800D02*
X21328300Y21490000D01*
G01X21367500Y21537200D02*
X21404800D01*
X21401300Y21549500D01*
X21395500Y21556500D01*
X21387300Y21560000D01*
X21379200Y21558200D01*
X21372200Y21553000D01*
X21367500Y21540700D01*
X21365200Y21530200D01*
Y21519800D01*
X21367500Y21509200D01*
X21373300Y21498700D01*
X21380300Y21491700D01*
X21388500Y21490000D01*
X21396700Y21493500D01*
X21404800Y21504000D01*
G01X21486000Y21595000D02*
Y21490000D01*
G01Y21505700D02*
X21481300Y21497000D01*
X21474300Y21491700D01*
X21466200Y21490000D01*
X21456800Y21493500D01*
X21449800Y21502200D01*
X21445200Y21512700D01*
X21444000Y21525000D01*
X21445200Y21537200D01*
X21449800Y21547800D01*
X21456800Y21556500D01*
X21466200Y21560000D01*
X21474300Y21558200D01*
X21480200Y21554700D01*
X21486000Y21547800D01*
G01X21545000Y21486500D02*
X21542700Y21488300D01*
Y21491700D01*
X21545000Y21493500D01*
X21547300Y21491700D01*
Y21488300D01*
X21545000Y21486500D01*
G01Y21533700D02*
X21542700Y21535500D01*
Y21539000D01*
X21545000Y21540700D01*
X21547300Y21539000D01*
Y21535500D01*
X21545000Y21533700D01*
G01X20134300Y24110000D02*
Y24215000D01*
X20157700D01*
X20167000Y24209700D01*
X20174000Y24202700D01*
X20179800Y24192300D01*
X20184500Y24180000D01*
X20185700Y24162500D01*
X20184500Y24145000D01*
X20179800Y24132700D01*
X20174000Y24122200D01*
X20167000Y24115200D01*
X20157700Y24110000D01*
X20134300D01*
G01X20226000Y24215000D02*
X20254000D01*
G01X20240000D02*
Y24110000D01*
G01X20226000D02*
X20254000D01*
G01X20320000D02*
X20310700Y24111700D01*
X20302500Y24118700D01*
X20295500Y24129200D01*
X20290800Y24141500D01*
X20288500Y24155500D01*
Y24169500D01*
X20290800Y24183500D01*
X20295500Y24195800D01*
X20302500Y24206200D01*
X20310700Y24213300D01*
X20320000Y24215000D01*
X20329300Y24213300D01*
X20337500Y24206200D01*
X20344500Y24195800D01*
X20349200Y24183500D01*
X20351500Y24169500D01*
Y24155500D01*
X20349200Y24141500D01*
X20344500Y24129200D01*
X20337500Y24118700D01*
X20329300Y24111700D01*
X20320000Y24110000D01*
G01X20377800Y24197500D02*
X20384800Y24208000D01*
X20393000Y24213300D01*
X20402300Y24215000D01*
X20414000Y24211500D01*
X20422200Y24202700D01*
X20424500Y24192300D01*
X20423300Y24181700D01*
X20418700Y24173000D01*
X20395300Y24155500D01*
X20384800Y24143200D01*
X20377800Y24125700D01*
X20375500Y24110000D01*
X20424500D01*
G01X20454300Y24131000D02*
X20461300Y24118700D01*
X20470700Y24111700D01*
X20481200Y24110000D01*
X20490500Y24111700D01*
X20499800Y24120500D01*
X20505700Y24131000D01*
X20506800Y24141500D01*
X20504500Y24153700D01*
X20496300Y24162500D01*
X20488200Y24166000D01*
X20477700D01*
G01X20488200D02*
X20495200Y24171200D01*
X20501000Y24180000D01*
X20503300Y24190500D01*
X20501000Y24201000D01*
X20495200Y24209700D01*
X20484700Y24215000D01*
X20474200Y24213300D01*
X20463700Y24206200D01*
G01X20139300Y23610000D02*
Y23715000D01*
X20162700D01*
X20172000Y23709700D01*
X20179000Y23702700D01*
X20184800Y23692300D01*
X20189500Y23680000D01*
X20190700Y23662500D01*
X20189500Y23645000D01*
X20184800Y23632700D01*
X20179000Y23622200D01*
X20172000Y23615200D01*
X20162700Y23610000D01*
X20139300D01*
G01X20231000Y23715000D02*
X20259000D01*
G01X20245000D02*
Y23610000D01*
G01X20231000D02*
X20259000D01*
G01X20325000D02*
X20315700Y23611700D01*
X20307500Y23618700D01*
X20300500Y23629200D01*
X20295800Y23641500D01*
X20293500Y23655500D01*
Y23669500D01*
X20295800Y23683500D01*
X20300500Y23695800D01*
X20307500Y23706200D01*
X20315700Y23713300D01*
X20325000Y23715000D01*
X20334300Y23713300D01*
X20342500Y23706200D01*
X20349500Y23695800D01*
X20354200Y23683500D01*
X20356500Y23669500D01*
Y23655500D01*
X20354200Y23641500D01*
X20349500Y23629200D01*
X20342500Y23618700D01*
X20334300Y23611700D01*
X20325000Y23610000D01*
G01X20379300Y23631000D02*
X20386300Y23618700D01*
X20395700Y23611700D01*
X20406200Y23610000D01*
X20415500Y23611700D01*
X20424800Y23620500D01*
X20430700Y23631000D01*
X20431800Y23641500D01*
X20429500Y23653700D01*
X20421300Y23662500D01*
X20413200Y23666000D01*
X20402700D01*
G01X20413200D02*
X20420200Y23671200D01*
X20426000Y23680000D01*
X20428300Y23690500D01*
X20426000Y23701000D01*
X20420200Y23709700D01*
X20409700Y23715000D01*
X20399200Y23713300D01*
X20388700Y23706200D01*
G01X20139300Y23860000D02*
Y23965000D01*
X20162700D01*
X20172000Y23959700D01*
X20179000Y23952700D01*
X20184800Y23942300D01*
X20189500Y23930000D01*
X20190700Y23912500D01*
X20189500Y23895000D01*
X20184800Y23882700D01*
X20179000Y23872200D01*
X20172000Y23865200D01*
X20162700Y23860000D01*
X20139300D01*
G01X20231000Y23965000D02*
X20259000D01*
G01X20245000D02*
Y23860000D01*
G01X20231000D02*
X20259000D01*
G01X20325000D02*
X20315700Y23861700D01*
X20307500Y23868700D01*
X20300500Y23879200D01*
X20295800Y23891500D01*
X20293500Y23905500D01*
Y23919500D01*
X20295800Y23933500D01*
X20300500Y23945800D01*
X20307500Y23956200D01*
X20315700Y23963300D01*
X20325000Y23965000D01*
X20334300Y23963300D01*
X20342500Y23956200D01*
X20349500Y23945800D01*
X20354200Y23933500D01*
X20356500Y23919500D01*
Y23905500D01*
X20354200Y23891500D01*
X20349500Y23879200D01*
X20342500Y23868700D01*
X20334300Y23861700D01*
X20325000Y23860000D01*
G01X20382800Y23947500D02*
X20389800Y23958000D01*
X20398000Y23963300D01*
X20407300Y23965000D01*
X20419000Y23961500D01*
X20427200Y23952700D01*
X20429500Y23942300D01*
X20428300Y23931700D01*
X20423700Y23923000D01*
X20400300Y23905500D01*
X20389800Y23893200D01*
X20382800Y23875700D01*
X20380500Y23860000D01*
X20429500D01*
G01X20134300Y23350000D02*
Y23455000D01*
X20157700D01*
X20167000Y23449700D01*
X20174000Y23442700D01*
X20179800Y23432300D01*
X20184500Y23420000D01*
X20185700Y23402500D01*
X20184500Y23385000D01*
X20179800Y23372700D01*
X20174000Y23362200D01*
X20167000Y23355200D01*
X20157700Y23350000D01*
X20134300D01*
G01X20226000Y23455000D02*
X20254000D01*
G01X20240000D02*
Y23350000D01*
G01X20226000D02*
X20254000D01*
G01X20320000D02*
X20310700Y23351700D01*
X20302500Y23358700D01*
X20295500Y23369200D01*
X20290800Y23381500D01*
X20288500Y23395500D01*
Y23409500D01*
X20290800Y23423500D01*
X20295500Y23435800D01*
X20302500Y23446200D01*
X20310700Y23453300D01*
X20320000Y23455000D01*
X20329300Y23453300D01*
X20337500Y23446200D01*
X20344500Y23435800D01*
X20349200Y23423500D01*
X20351500Y23409500D01*
Y23395500D01*
X20349200Y23381500D01*
X20344500Y23369200D01*
X20337500Y23358700D01*
X20329300Y23351700D01*
X20320000Y23350000D01*
G01X20377800Y23437500D02*
X20384800Y23448000D01*
X20393000Y23453300D01*
X20402300Y23455000D01*
X20414000Y23451500D01*
X20422200Y23442700D01*
X20424500Y23432300D01*
X20423300Y23421700D01*
X20418700Y23413000D01*
X20395300Y23395500D01*
X20384800Y23383200D01*
X20377800Y23365700D01*
X20375500Y23350000D01*
X20424500D01*
G01X20457800Y23437500D02*
X20464800Y23448000D01*
X20473000Y23453300D01*
X20482300Y23455000D01*
X20494000Y23451500D01*
X20502200Y23442700D01*
X20504500Y23432300D01*
X20503300Y23421700D01*
X20498700Y23413000D01*
X20475300Y23395500D01*
X20464800Y23383200D01*
X20457800Y23365700D01*
X20455500Y23350000D01*
X20504500D01*
G01X20134300Y23095000D02*
Y23200000D01*
X20157700D01*
X20167000Y23194700D01*
X20174000Y23187700D01*
X20179800Y23177300D01*
X20184500Y23165000D01*
X20185700Y23147500D01*
X20184500Y23130000D01*
X20179800Y23117700D01*
X20174000Y23107200D01*
X20167000Y23100200D01*
X20157700Y23095000D01*
X20134300D01*
G01X20226000Y23200000D02*
X20254000D01*
G01X20240000D02*
Y23095000D01*
G01X20226000D02*
X20254000D01*
G01X20320000D02*
X20310700Y23096700D01*
X20302500Y23103700D01*
X20295500Y23114200D01*
X20290800Y23126500D01*
X20288500Y23140500D01*
Y23154500D01*
X20290800Y23168500D01*
X20295500Y23180800D01*
X20302500Y23191200D01*
X20310700Y23198300D01*
X20320000Y23200000D01*
X20329300Y23198300D01*
X20337500Y23191200D01*
X20344500Y23180800D01*
X20349200Y23168500D01*
X20351500Y23154500D01*
Y23140500D01*
X20349200Y23126500D01*
X20344500Y23114200D01*
X20337500Y23103700D01*
X20329300Y23096700D01*
X20320000Y23095000D01*
G01X20377800Y23182500D02*
X20384800Y23193000D01*
X20393000Y23198300D01*
X20402300Y23200000D01*
X20414000Y23196500D01*
X20422200Y23187700D01*
X20424500Y23177300D01*
X20423300Y23166700D01*
X20418700Y23158000D01*
X20395300Y23140500D01*
X20384800Y23128200D01*
X20377800Y23110700D01*
X20375500Y23095000D01*
X20424500D01*
G01X20494000D02*
Y23200000D01*
X20450800Y23124800D01*
X20509200D01*
G01X21044300Y23095000D02*
Y23200000D01*
X21067700D01*
X21077000Y23194700D01*
X21084000Y23187700D01*
X21089800Y23177300D01*
X21094500Y23165000D01*
X21095700Y23147500D01*
X21094500Y23130000D01*
X21089800Y23117700D01*
X21084000Y23107200D01*
X21077000Y23100200D01*
X21067700Y23095000D01*
X21044300D01*
G01X21136000Y23200000D02*
X21164000D01*
G01X21150000D02*
Y23095000D01*
G01X21136000D02*
X21164000D01*
G01X21230000D02*
X21220700Y23096700D01*
X21212500Y23103700D01*
X21205500Y23114200D01*
X21200800Y23126500D01*
X21198500Y23140500D01*
Y23154500D01*
X21200800Y23168500D01*
X21205500Y23180800D01*
X21212500Y23191200D01*
X21220700Y23198300D01*
X21230000Y23200000D01*
X21239300Y23198300D01*
X21247500Y23191200D01*
X21254500Y23180800D01*
X21259200Y23168500D01*
X21261500Y23154500D01*
Y23140500D01*
X21259200Y23126500D01*
X21254500Y23114200D01*
X21247500Y23103700D01*
X21239300Y23096700D01*
X21230000Y23095000D01*
G01X21287800Y23182500D02*
X21294800Y23193000D01*
X21303000Y23198300D01*
X21312300Y23200000D01*
X21324000Y23196500D01*
X21332200Y23187700D01*
X21334500Y23177300D01*
X21333300Y23166700D01*
X21328700Y23158000D01*
X21305300Y23140500D01*
X21294800Y23128200D01*
X21287800Y23110700D01*
X21285500Y23095000D01*
X21334500D01*
G01X21390000D02*
X21398200Y23096700D01*
X21407500Y23102000D01*
X21413300Y23110700D01*
X21415700Y23123000D01*
X21413300Y23135200D01*
X21406300Y23145700D01*
X21395800Y23151000D01*
X21384200D01*
X21377200Y23154500D01*
X21371300Y23163200D01*
X21369000Y23175500D01*
X21372500Y23187700D01*
X21380700Y23196500D01*
X21390000Y23200000D01*
X21399300Y23196500D01*
X21407500Y23187700D01*
X21411000Y23175500D01*
X21408700Y23163200D01*
X21402800Y23154500D01*
X21395800Y23151000D01*
X21384200D01*
X21373700Y23145700D01*
X21366700Y23135200D01*
X21364300Y23123000D01*
X21366700Y23110700D01*
X21372500Y23102000D01*
X21381800Y23096700D01*
X21390000Y23095000D01*
G01X21044300Y23350000D02*
Y23455000D01*
X21067700D01*
X21077000Y23449700D01*
X21084000Y23442700D01*
X21089800Y23432300D01*
X21094500Y23420000D01*
X21095700Y23402500D01*
X21094500Y23385000D01*
X21089800Y23372700D01*
X21084000Y23362200D01*
X21077000Y23355200D01*
X21067700Y23350000D01*
X21044300D01*
G01X21136000Y23455000D02*
X21164000D01*
G01X21150000D02*
Y23350000D01*
G01X21136000D02*
X21164000D01*
G01X21230000D02*
X21220700Y23351700D01*
X21212500Y23358700D01*
X21205500Y23369200D01*
X21200800Y23381500D01*
X21198500Y23395500D01*
Y23409500D01*
X21200800Y23423500D01*
X21205500Y23435800D01*
X21212500Y23446200D01*
X21220700Y23453300D01*
X21230000Y23455000D01*
X21239300Y23453300D01*
X21247500Y23446200D01*
X21254500Y23435800D01*
X21259200Y23423500D01*
X21261500Y23409500D01*
Y23395500D01*
X21259200Y23381500D01*
X21254500Y23369200D01*
X21247500Y23358700D01*
X21239300Y23351700D01*
X21230000Y23350000D01*
G01X21287800Y23437500D02*
X21294800Y23448000D01*
X21303000Y23453300D01*
X21312300Y23455000D01*
X21324000Y23451500D01*
X21332200Y23442700D01*
X21334500Y23432300D01*
X21333300Y23421700D01*
X21328700Y23413000D01*
X21305300Y23395500D01*
X21294800Y23383200D01*
X21287800Y23365700D01*
X21285500Y23350000D01*
X21334500D01*
G01X21387700D02*
X21390000Y23372700D01*
X21393500Y23392000D01*
X21398200Y23409500D01*
X21404000Y23428700D01*
X21413300Y23455000D01*
X21366700D01*
G01X21044300Y23860000D02*
Y23965000D01*
X21067700D01*
X21077000Y23959700D01*
X21084000Y23952700D01*
X21089800Y23942300D01*
X21094500Y23930000D01*
X21095700Y23912500D01*
X21094500Y23895000D01*
X21089800Y23882700D01*
X21084000Y23872200D01*
X21077000Y23865200D01*
X21067700Y23860000D01*
X21044300D01*
G01X21136000Y23965000D02*
X21164000D01*
G01X21150000D02*
Y23860000D01*
G01X21136000D02*
X21164000D01*
G01X21230000D02*
X21220700Y23861700D01*
X21212500Y23868700D01*
X21205500Y23879200D01*
X21200800Y23891500D01*
X21198500Y23905500D01*
Y23919500D01*
X21200800Y23933500D01*
X21205500Y23945800D01*
X21212500Y23956200D01*
X21220700Y23963300D01*
X21230000Y23965000D01*
X21239300Y23963300D01*
X21247500Y23956200D01*
X21254500Y23945800D01*
X21259200Y23933500D01*
X21261500Y23919500D01*
Y23905500D01*
X21259200Y23891500D01*
X21254500Y23879200D01*
X21247500Y23868700D01*
X21239300Y23861700D01*
X21230000Y23860000D01*
G01X21287800Y23947500D02*
X21294800Y23958000D01*
X21303000Y23963300D01*
X21312300Y23965000D01*
X21324000Y23961500D01*
X21332200Y23952700D01*
X21334500Y23942300D01*
X21333300Y23931700D01*
X21328700Y23923000D01*
X21305300Y23905500D01*
X21294800Y23893200D01*
X21287800Y23875700D01*
X21285500Y23860000D01*
X21334500D01*
G01X21364300Y23875700D02*
X21371300Y23867000D01*
X21379500Y23861700D01*
X21390000Y23860000D01*
X21400500Y23863500D01*
X21408700Y23870500D01*
X21414500Y23882700D01*
X21415700Y23896700D01*
X21413300Y23910700D01*
X21407500Y23919500D01*
X21399300Y23926500D01*
X21391200Y23928200D01*
X21383000Y23926500D01*
X21372500Y23919500D01*
X21376000Y23965000D01*
X21407500D01*
G01X21039300Y23610000D02*
Y23715000D01*
X21062700D01*
X21072000Y23709700D01*
X21079000Y23702700D01*
X21084800Y23692300D01*
X21089500Y23680000D01*
X21090700Y23662500D01*
X21089500Y23645000D01*
X21084800Y23632700D01*
X21079000Y23622200D01*
X21072000Y23615200D01*
X21062700Y23610000D01*
X21039300D01*
G01X21131000Y23715000D02*
X21159000D01*
G01X21145000D02*
Y23610000D01*
G01X21131000D02*
X21159000D01*
G01X21225000D02*
X21215700Y23611700D01*
X21207500Y23618700D01*
X21200500Y23629200D01*
X21195800Y23641500D01*
X21193500Y23655500D01*
Y23669500D01*
X21195800Y23683500D01*
X21200500Y23695800D01*
X21207500Y23706200D01*
X21215700Y23713300D01*
X21225000Y23715000D01*
X21234300Y23713300D01*
X21242500Y23706200D01*
X21249500Y23695800D01*
X21254200Y23683500D01*
X21256500Y23669500D01*
Y23655500D01*
X21254200Y23641500D01*
X21249500Y23629200D01*
X21242500Y23618700D01*
X21234300Y23611700D01*
X21225000Y23610000D01*
G01X21282800Y23697500D02*
X21289800Y23708000D01*
X21298000Y23713300D01*
X21307300Y23715000D01*
X21319000Y23711500D01*
X21327200Y23702700D01*
X21329500Y23692300D01*
X21328300Y23681700D01*
X21323700Y23673000D01*
X21300300Y23655500D01*
X21289800Y23643200D01*
X21282800Y23625700D01*
X21280500Y23610000D01*
X21329500D01*
G01X21362800Y23653700D02*
X21371000Y23666000D01*
X21378000Y23673000D01*
X21387300Y23676500D01*
X21395500Y23673000D01*
X21401300Y23666000D01*
X21406000Y23655500D01*
X21407200Y23643200D01*
X21406000Y23632700D01*
X21401300Y23622200D01*
X21394300Y23613500D01*
X21386200Y23610000D01*
X21376800Y23613500D01*
X21368700Y23624000D01*
X21364000Y23639800D01*
X21362800Y23657200D01*
X21365200Y23680000D01*
X21368700Y23692300D01*
X21374500Y23704500D01*
X21382700Y23713300D01*
X21390800Y23715000D01*
X21399000Y23711500D01*
X21404800Y23702700D01*
G01X20554300Y25276000D02*
X20559000Y25281200D01*
X20562500Y25290000D01*
X20564800Y25302300D01*
X20562500Y25312700D01*
X20557800Y25319700D01*
X20549700Y25325000D01*
X20518200D01*
Y25220000D01*
X20556700D01*
X20564800Y25227000D01*
X20569500Y25237500D01*
X20571800Y25249800D01*
X20569500Y25262000D01*
X20562500Y25272500D01*
X20554300Y25276000D01*
X20518200D01*
G01X20625000Y25325000D02*
Y25220000D01*
G01X20598200Y25325000D02*
X20651800D01*
G01X20678200Y25220000D02*
Y25325000D01*
X20731800Y25220000D01*
Y25325000D01*
G01X20769800Y25255000D02*
X20800200D01*
G01X20865000Y25220000D02*
Y25325000D01*
X20851000Y25304000D01*
G01Y25220000D02*
X20879000D01*
G01X20509300Y25030000D02*
Y25135000D01*
X20532700D01*
X20542000Y25129700D01*
X20549000Y25122700D01*
X20554800Y25112300D01*
X20559500Y25100000D01*
X20560700Y25082500D01*
X20559500Y25065000D01*
X20554800Y25052700D01*
X20549000Y25042200D01*
X20542000Y25035200D01*
X20532700Y25030000D01*
X20509300D01*
G01X20601000Y25135000D02*
X20629000D01*
G01X20615000D02*
Y25030000D01*
G01X20601000D02*
X20629000D01*
G01X20695000D02*
X20685700Y25031700D01*
X20677500Y25038700D01*
X20670500Y25049200D01*
X20665800Y25061500D01*
X20663500Y25075500D01*
Y25089500D01*
X20665800Y25103500D01*
X20670500Y25115800D01*
X20677500Y25126200D01*
X20685700Y25133300D01*
X20695000Y25135000D01*
X20704300Y25133300D01*
X20712500Y25126200D01*
X20719500Y25115800D01*
X20724200Y25103500D01*
X20726500Y25089500D01*
Y25075500D01*
X20724200Y25061500D01*
X20719500Y25049200D01*
X20712500Y25038700D01*
X20704300Y25031700D01*
X20695000Y25030000D01*
G01X20775000D02*
Y25135000D01*
X20761000Y25114000D01*
G01Y25030000D02*
X20789000D01*
G01X20829300Y25051000D02*
X20836300Y25038700D01*
X20845700Y25031700D01*
X20856200Y25030000D01*
X20865500Y25031700D01*
X20874800Y25040500D01*
X20880700Y25051000D01*
X20881800Y25061500D01*
X20879500Y25073700D01*
X20871300Y25082500D01*
X20863200Y25086000D01*
X20852700D01*
G01X20863200D02*
X20870200Y25091200D01*
X20876000Y25100000D01*
X20878300Y25110500D01*
X20876000Y25121000D01*
X20870200Y25129700D01*
X20859700Y25135000D01*
X20849200Y25133300D01*
X20838700Y25126200D01*
G01X22460700Y20186200D02*
X22453700Y20191500D01*
X22445500Y20195000D01*
X22436200D01*
X22425700Y20189700D01*
X22417500Y20181000D01*
X22411700Y20170500D01*
X22407000Y20153000D01*
X22405800Y20137200D01*
X22408200Y20121500D01*
X22411700Y20111000D01*
X22418700Y20100500D01*
X22426800Y20093500D01*
X22435000Y20090000D01*
X22443200D01*
X22451300Y20093500D01*
X22458300Y20098700D01*
X22464200Y20105700D01*
G01X22540700Y20186200D02*
X22533700Y20191500D01*
X22525500Y20195000D01*
X22516200D01*
X22505700Y20189700D01*
X22497500Y20181000D01*
X22491700Y20170500D01*
X22487000Y20153000D01*
X22485800Y20137200D01*
X22488200Y20121500D01*
X22491700Y20111000D01*
X22498700Y20100500D01*
X22506800Y20093500D01*
X22515000Y20090000D01*
X22523200D01*
X22531300Y20093500D01*
X22538300Y20098700D01*
X22544200Y20105700D01*
G01X22579800Y20125000D02*
X22610200D01*
G01X22645800Y20090000D02*
X22675000Y20195000D01*
X22704200Y20090000D01*
G01X22693700Y20126700D02*
X22656300D01*
G01X22728200Y20090000D02*
Y20195000D01*
X22781800Y20090000D01*
Y20195000D01*
G01X22835000D02*
Y20090000D01*
G01X22808200Y20195000D02*
X22861800D01*
G01X22938300Y20090000D02*
X22891700D01*
Y20195000D01*
X22938300D01*
G01X22919700Y20144300D02*
X22891700D01*
G01X22968200Y20090000D02*
Y20195000D01*
X23021800Y20090000D01*
Y20195000D01*
G01X23048200Y20090000D02*
Y20195000D01*
X23101800Y20090000D01*
Y20195000D01*
G01X23125800Y20090000D02*
X23155000Y20195000D01*
X23184200Y20090000D01*
G01X23173700Y20126700D02*
X23136300D01*
G01X23219800Y20125000D02*
X23250200D01*
G01X23289300Y20090000D02*
Y20195000D01*
X23312700D01*
X23322000Y20189700D01*
X23329000Y20182700D01*
X23334800Y20172300D01*
X23339500Y20160000D01*
X23340700Y20142500D01*
X23339500Y20125000D01*
X23334800Y20112700D01*
X23329000Y20102200D01*
X23322000Y20095200D01*
X23312700Y20090000D01*
X23289300D01*
G01X23369300D02*
Y20195000D01*
G01X23413700D02*
X23369300Y20130200D01*
G01X23420700Y20090000D02*
X23389200Y20160000D01*
G01X22534700Y20250000D02*
Y20355000D01*
X22565000Y20267500D01*
X22595300Y20355000D01*
Y20250000D01*
G01X22645000D02*
X22638000Y20251700D01*
X22631000Y20258700D01*
X22626300Y20271000D01*
X22624000Y20285000D01*
X22626300Y20299000D01*
X22631000Y20311200D01*
X22638000Y20318200D01*
X22645000Y20320000D01*
X22652000Y20318200D01*
X22659000Y20311200D01*
X22663700Y20299000D01*
X22664800Y20285000D01*
X22663700Y20271000D01*
X22659000Y20258700D01*
X22652000Y20251700D01*
X22645000Y20250000D01*
G01X22705200Y20320000D02*
Y20271000D01*
X22709800Y20258700D01*
X22716800Y20251700D01*
X22725000Y20250000D01*
X22733200Y20251700D01*
X22740200Y20258700D01*
X22744800Y20271000D01*
G01Y20250000D02*
Y20320000D01*
G01X22785200Y20250000D02*
Y20320000D01*
G01Y20302500D02*
X22789800Y20311200D01*
X22796800Y20318200D01*
X22806200Y20320000D01*
X22814300Y20318200D01*
X22821300Y20311200D01*
X22824800Y20299000D01*
Y20250000D01*
G01X22885000Y20355000D02*
Y20250000D01*
G01X22868700Y20320000D02*
X22901300D01*
G01X23038000Y20250000D02*
Y20339300D01*
X23040300Y20348000D01*
X23045000Y20353300D01*
X23052000Y20355000D01*
X23059000Y20351500D01*
X23062500Y20342700D01*
G01X23048500Y20313000D02*
X23025200D01*
G01X23125000Y20250000D02*
X23118000Y20251700D01*
X23111000Y20258700D01*
X23106300Y20271000D01*
X23104000Y20285000D01*
X23106300Y20299000D01*
X23111000Y20311200D01*
X23118000Y20318200D01*
X23125000Y20320000D01*
X23132000Y20318200D01*
X23139000Y20311200D01*
X23143700Y20299000D01*
X23144800Y20285000D01*
X23143700Y20271000D01*
X23139000Y20258700D01*
X23132000Y20251700D01*
X23125000Y20250000D01*
G01X23188700D02*
Y20320000D01*
G01Y20306000D02*
X23194500Y20313000D01*
X23200300Y20318200D01*
X23208500Y20320000D01*
X23214300Y20318200D01*
X23221300Y20313000D01*
G01X23285000Y20246500D02*
X23282700Y20248300D01*
Y20251700D01*
X23285000Y20253500D01*
X23287300Y20251700D01*
Y20248300D01*
X23285000Y20246500D01*
G01Y20293700D02*
X23282700Y20295500D01*
Y20299000D01*
X23285000Y20300700D01*
X23287300Y20299000D01*
Y20295500D01*
X23285000Y20293700D01*
G01X22019300Y21310000D02*
Y21415000D01*
X22042700D01*
X22052000Y21409700D01*
X22059000Y21402700D01*
X22064800Y21392300D01*
X22069500Y21380000D01*
X22070700Y21362500D01*
X22069500Y21345000D01*
X22064800Y21332700D01*
X22059000Y21322200D01*
X22052000Y21315200D01*
X22042700Y21310000D01*
X22019300D01*
G01X22111000Y21415000D02*
X22139000D01*
G01X22125000D02*
Y21310000D01*
G01X22111000D02*
X22139000D01*
G01X22205000D02*
X22195700Y21311700D01*
X22187500Y21318700D01*
X22180500Y21329200D01*
X22175800Y21341500D01*
X22173500Y21355500D01*
Y21369500D01*
X22175800Y21383500D01*
X22180500Y21395800D01*
X22187500Y21406200D01*
X22195700Y21413300D01*
X22205000Y21415000D01*
X22214300Y21413300D01*
X22222500Y21406200D01*
X22229500Y21395800D01*
X22234200Y21383500D01*
X22236500Y21369500D01*
Y21355500D01*
X22234200Y21341500D01*
X22229500Y21329200D01*
X22222500Y21318700D01*
X22214300Y21311700D01*
X22205000Y21310000D01*
G01X22282700D02*
X22285000Y21332700D01*
X22288500Y21352000D01*
X22293200Y21369500D01*
X22299000Y21388700D01*
X22308300Y21415000D01*
X22261700D01*
G01X21651700Y22455000D02*
Y22350000D01*
X21698300D01*
G01X21778300D02*
X21731700D01*
Y22455000D01*
X21778300D01*
G01X21759700Y22404300D02*
X21731700D01*
G01X21809300Y22350000D02*
Y22455000D01*
X21832700D01*
X21842000Y22449700D01*
X21849000Y22442700D01*
X21854800Y22432300D01*
X21859500Y22420000D01*
X21860700Y22402500D01*
X21859500Y22385000D01*
X21854800Y22372700D01*
X21849000Y22362200D01*
X21842000Y22355200D01*
X21832700Y22350000D01*
X21809300D01*
G01X21897500Y22362200D02*
X21903300Y22355200D01*
X21911500Y22350000D01*
X21918500D01*
X21925500Y22353500D01*
X21930200Y22358700D01*
X21932500Y22365700D01*
X21931300Y22376300D01*
X21926700Y22381500D01*
X21905700Y22392000D01*
X21901000Y22404300D01*
X21903300Y22413000D01*
X21908000Y22418200D01*
X21915000Y22420000D01*
X21922000Y22418200D01*
X21929000Y22413000D01*
G01X22042000Y21542500D02*
X22065300D01*
Y21511000D01*
X22058300Y21500500D01*
X22050200Y21493500D01*
X22038500Y21490000D01*
X22026800Y21493500D01*
X22018700Y21500500D01*
X22011700Y21511000D01*
X22007000Y21523200D01*
X22004700Y21537200D01*
Y21549500D01*
X22007000Y21560000D01*
X22011700Y21572300D01*
X22018700Y21582700D01*
X22025700Y21589700D01*
X22035000Y21595000D01*
X22043200D01*
X22052500Y21591500D01*
X22059500Y21584500D01*
G01X22098700Y21490000D02*
Y21560000D01*
G01Y21546000D02*
X22104500Y21553000D01*
X22110300Y21558200D01*
X22118500Y21560000D01*
X22124300Y21558200D01*
X22131300Y21553000D01*
G01X22177500Y21537200D02*
X22214800D01*
X22211300Y21549500D01*
X22205500Y21556500D01*
X22197300Y21560000D01*
X22189200Y21558200D01*
X22182200Y21553000D01*
X22177500Y21540700D01*
X22175200Y21530200D01*
Y21519800D01*
X22177500Y21509200D01*
X22183300Y21498700D01*
X22190300Y21491700D01*
X22198500Y21490000D01*
X22206700Y21493500D01*
X22214800Y21504000D01*
G01X22257500Y21537200D02*
X22294800D01*
X22291300Y21549500D01*
X22285500Y21556500D01*
X22277300Y21560000D01*
X22269200Y21558200D01*
X22262200Y21553000D01*
X22257500Y21540700D01*
X22255200Y21530200D01*
Y21519800D01*
X22257500Y21509200D01*
X22263300Y21498700D01*
X22270300Y21491700D01*
X22278500Y21490000D01*
X22286700Y21493500D01*
X22294800Y21504000D01*
G01X22335200Y21490000D02*
Y21560000D01*
G01Y21542500D02*
X22339800Y21551200D01*
X22346800Y21558200D01*
X22356200Y21560000D01*
X22364300Y21558200D01*
X22371300Y21551200D01*
X22374800Y21539000D01*
Y21490000D01*
G01X22435000Y21486500D02*
X22432700Y21488300D01*
Y21491700D01*
X22435000Y21493500D01*
X22437300Y21491700D01*
Y21488300D01*
X22435000Y21486500D01*
G01Y21533700D02*
X22432700Y21535500D01*
Y21539000D01*
X22435000Y21540700D01*
X22437300Y21539000D01*
Y21535500D01*
X22435000Y21533700D01*
G01X22085000Y24915000D02*
X22190000D01*
G01X22085000Y24888200D02*
Y24941800D01*
G01X22190000Y24970500D02*
X22085000Y25019500D01*
G01Y24970500D02*
X22190000Y25019500D01*
G01Y25049300D02*
X22085000D01*
Y25072700D01*
X22090300Y25082000D01*
X22097300Y25089000D01*
X22107700Y25094800D01*
X22120000Y25099500D01*
X22137500Y25100700D01*
X22155000Y25099500D01*
X22167300Y25094800D01*
X22177800Y25089000D01*
X22184800Y25082000D01*
X22190000Y25072700D01*
Y25049300D01*
G01Y25131700D02*
X22155000Y25178300D01*
X22120000Y25131700D01*
G01X22190000Y25211700D02*
X22155000Y25258300D01*
X22120000Y25211700D01*
G01X21960000Y24891700D02*
X21855000D01*
Y24920800D01*
X21860300Y24930200D01*
X21867300Y24936000D01*
X21881300Y24938300D01*
X21895300Y24936000D01*
X21904000Y24929000D01*
X21909300Y24920800D01*
Y24891700D01*
G01Y24920800D02*
X21960000Y24938300D01*
G01Y24970500D02*
X21855000Y25019500D01*
G01Y24970500D02*
X21960000Y25019500D01*
G01Y25049300D02*
X21855000D01*
Y25072700D01*
X21860300Y25082000D01*
X21867300Y25089000D01*
X21877700Y25094800D01*
X21890000Y25099500D01*
X21907500Y25100700D01*
X21925000Y25099500D01*
X21937300Y25094800D01*
X21947800Y25089000D01*
X21954800Y25082000D01*
X21960000Y25072700D01*
Y25049300D01*
G01Y25178300D02*
X21925000Y25131700D01*
X21890000Y25178300D01*
G01X21960000Y25258300D02*
X21925000Y25211700D01*
X21890000Y25258300D01*
G01X22625000Y25085000D02*
X22730000D01*
G01X22625000Y25058200D02*
Y25111800D01*
G01X22730000Y25134700D02*
X22625000D01*
X22712500Y25165000D01*
X22625000Y25195300D01*
X22730000D01*
G01X22716000Y25220500D02*
X22724800Y25229800D01*
X22730000Y25240300D01*
Y25249700D01*
X22724800Y25259000D01*
X22716000Y25266000D01*
X22703700Y25269500D01*
X22691500Y25267200D01*
X22681000Y25261300D01*
X22674000Y25250800D01*
X22670500Y25236800D01*
X22663500Y25228700D01*
X22651300Y25225200D01*
X22639000Y25227500D01*
X22630300Y25233300D01*
X22625000Y25241500D01*
Y25249700D01*
X22628500Y25257800D01*
X22637300Y25264800D01*
G01X22470000Y24901700D02*
X22365000D01*
Y24930800D01*
X22370300Y24940200D01*
X22377300Y24946000D01*
X22391300Y24948300D01*
X22405300Y24946000D01*
X22414000Y24939000D01*
X22419300Y24930800D01*
Y24901700D01*
G01Y24930800D02*
X22470000Y24948300D01*
G01Y25028300D02*
Y24981700D01*
X22365000D01*
Y25028300D01*
G01X22415700Y25009700D02*
Y24981700D01*
G01X22456000Y25060500D02*
X22464800Y25069800D01*
X22470000Y25080300D01*
Y25089700D01*
X22464800Y25099000D01*
X22456000Y25106000D01*
X22443700Y25109500D01*
X22431500Y25107200D01*
X22421000Y25101300D01*
X22414000Y25090800D01*
X22410500Y25076800D01*
X22403500Y25068700D01*
X22391300Y25065200D01*
X22379000Y25067500D01*
X22370300Y25073300D01*
X22365000Y25081500D01*
Y25089700D01*
X22368500Y25097800D01*
X22377300Y25104800D01*
G01X22470000Y25188300D02*
Y25141700D01*
X22365000D01*
Y25188300D01*
G01X22415700Y25169700D02*
Y25141700D01*
G01X22365000Y25245000D02*
X22470000D01*
G01X22365000Y25218200D02*
Y25271800D01*
G01X23365000Y25085000D02*
X23470000D01*
G01X23365000Y25058200D02*
Y25111800D01*
G01X23470000Y25139300D02*
X23365000D01*
Y25162700D01*
X23370300Y25172000D01*
X23377300Y25179000D01*
X23387700Y25184800D01*
X23400000Y25189500D01*
X23417500Y25190700D01*
X23435000Y25189500D01*
X23447300Y25184800D01*
X23457800Y25179000D01*
X23464800Y25172000D01*
X23470000Y25162700D01*
Y25139300D01*
G01X23365000Y25231000D02*
Y25259000D01*
G01Y25245000D02*
X23470000D01*
G01Y25231000D02*
Y25259000D01*
G01X23115000Y25085000D02*
X23220000D01*
G01X23115000Y25058200D02*
Y25111800D01*
G01X23220000Y25139300D02*
X23115000D01*
Y25162700D01*
X23120300Y25172000D01*
X23127300Y25179000D01*
X23137700Y25184800D01*
X23150000Y25189500D01*
X23167500Y25190700D01*
X23185000Y25189500D01*
X23197300Y25184800D01*
X23207800Y25179000D01*
X23214800Y25172000D01*
X23220000Y25162700D01*
Y25139300D01*
G01Y25245000D02*
X23218300Y25235700D01*
X23211300Y25227500D01*
X23200800Y25220500D01*
X23188500Y25215800D01*
X23174500Y25213500D01*
X23160500D01*
X23146500Y25215800D01*
X23134200Y25220500D01*
X23123800Y25227500D01*
X23116700Y25235700D01*
X23115000Y25245000D01*
X23116700Y25254300D01*
X23123800Y25262500D01*
X23134200Y25269500D01*
X23146500Y25274200D01*
X23160500Y25276500D01*
X23174500D01*
X23188500Y25274200D01*
X23200800Y25269500D01*
X23211300Y25262500D01*
X23218300Y25254300D01*
X23220000Y25245000D01*
G01X22855000Y25085000D02*
X22960000D01*
G01X22855000Y25058200D02*
Y25111800D01*
G01X22863800Y25190700D02*
X22858500Y25183700D01*
X22855000Y25175500D01*
Y25166200D01*
X22860300Y25155700D01*
X22869000Y25147500D01*
X22879500Y25141700D01*
X22897000Y25137000D01*
X22912800Y25135800D01*
X22928500Y25138200D01*
X22939000Y25141700D01*
X22949500Y25148700D01*
X22956500Y25156800D01*
X22960000Y25165000D01*
Y25173200D01*
X22956500Y25181300D01*
X22951300Y25188300D01*
X22944300Y25194200D01*
G01X22960000Y25219300D02*
X22855000D01*
G01Y25263700D02*
X22919800Y25219300D01*
G01X22960000Y25270700D02*
X22890000Y25239200D01*
G01X23706000Y25070500D02*
X23714800Y25079800D01*
X23720000Y25090300D01*
Y25099700D01*
X23714800Y25109000D01*
X23706000Y25116000D01*
X23693700Y25119500D01*
X23681500Y25117200D01*
X23671000Y25111300D01*
X23664000Y25100800D01*
X23660500Y25086800D01*
X23653500Y25078700D01*
X23641300Y25075200D01*
X23629000Y25077500D01*
X23620300Y25083300D01*
X23615000Y25091500D01*
Y25099700D01*
X23618500Y25107800D01*
X23627300Y25114800D01*
G01X23615000Y25140000D02*
X23720000Y25156300D01*
X23615000Y25175000D01*
X23720000Y25193700D01*
X23615000Y25210000D01*
G01X23720000Y25255000D02*
X23718300Y25245700D01*
X23711300Y25237500D01*
X23700800Y25230500D01*
X23688500Y25225800D01*
X23674500Y25223500D01*
X23660500D01*
X23646500Y25225800D01*
X23634200Y25230500D01*
X23623800Y25237500D01*
X23616700Y25245700D01*
X23615000Y25255000D01*
X23616700Y25264300D01*
X23623800Y25272500D01*
X23634200Y25279500D01*
X23646500Y25284200D01*
X23660500Y25286500D01*
X23674500D01*
X23688500Y25284200D01*
X23700800Y25279500D01*
X23711300Y25272500D01*
X23718300Y25264300D01*
X23720000Y25255000D01*
G01X25354300Y22080000D02*
Y22185000D01*
X25377700D01*
X25387000Y22179700D01*
X25394000Y22172700D01*
X25399800Y22162300D01*
X25404500Y22150000D01*
X25405700Y22132500D01*
X25404500Y22115000D01*
X25399800Y22102700D01*
X25394000Y22092200D01*
X25387000Y22085200D01*
X25377700Y22080000D01*
X25354300D01*
G01X25446000Y22185000D02*
X25474000D01*
G01X25460000D02*
Y22080000D01*
G01X25446000D02*
X25474000D01*
G01X25540000D02*
X25530700Y22081700D01*
X25522500Y22088700D01*
X25515500Y22099200D01*
X25510800Y22111500D01*
X25508500Y22125500D01*
Y22139500D01*
X25510800Y22153500D01*
X25515500Y22165800D01*
X25522500Y22176200D01*
X25530700Y22183300D01*
X25540000Y22185000D01*
X25549300Y22183300D01*
X25557500Y22176200D01*
X25564500Y22165800D01*
X25569200Y22153500D01*
X25571500Y22139500D01*
Y22125500D01*
X25569200Y22111500D01*
X25564500Y22099200D01*
X25557500Y22088700D01*
X25549300Y22081700D01*
X25540000Y22080000D01*
G01X25620000D02*
Y22185000D01*
X25606000Y22164000D01*
G01Y22080000D02*
X25634000D01*
G01X25674300Y22095700D02*
X25681300Y22087000D01*
X25689500Y22081700D01*
X25700000Y22080000D01*
X25710500Y22083500D01*
X25718700Y22090500D01*
X25724500Y22102700D01*
X25725700Y22116700D01*
X25723300Y22130700D01*
X25717500Y22139500D01*
X25709300Y22146500D01*
X25701200Y22148200D01*
X25693000Y22146500D01*
X25682500Y22139500D01*
X25686000Y22185000D01*
X25717500D01*
G01X25354300Y22335000D02*
Y22440000D01*
X25377700D01*
X25387000Y22434700D01*
X25394000Y22427700D01*
X25399800Y22417300D01*
X25404500Y22405000D01*
X25405700Y22387500D01*
X25404500Y22370000D01*
X25399800Y22357700D01*
X25394000Y22347200D01*
X25387000Y22340200D01*
X25377700Y22335000D01*
X25354300D01*
G01X25446000Y22440000D02*
X25474000D01*
G01X25460000D02*
Y22335000D01*
G01X25446000D02*
X25474000D01*
G01X25540000D02*
X25530700Y22336700D01*
X25522500Y22343700D01*
X25515500Y22354200D01*
X25510800Y22366500D01*
X25508500Y22380500D01*
Y22394500D01*
X25510800Y22408500D01*
X25515500Y22420800D01*
X25522500Y22431200D01*
X25530700Y22438300D01*
X25540000Y22440000D01*
X25549300Y22438300D01*
X25557500Y22431200D01*
X25564500Y22420800D01*
X25569200Y22408500D01*
X25571500Y22394500D01*
Y22380500D01*
X25569200Y22366500D01*
X25564500Y22354200D01*
X25557500Y22343700D01*
X25549300Y22336700D01*
X25540000Y22335000D01*
G01X25620000D02*
Y22440000D01*
X25606000Y22419000D01*
G01Y22335000D02*
X25634000D01*
G01X25714000D02*
Y22440000D01*
X25670800Y22364800D01*
X25729200D01*
G01X25354300Y22590000D02*
Y22695000D01*
X25377700D01*
X25387000Y22689700D01*
X25394000Y22682700D01*
X25399800Y22672300D01*
X25404500Y22660000D01*
X25405700Y22642500D01*
X25404500Y22625000D01*
X25399800Y22612700D01*
X25394000Y22602200D01*
X25387000Y22595200D01*
X25377700Y22590000D01*
X25354300D01*
G01X25446000Y22695000D02*
X25474000D01*
G01X25460000D02*
Y22590000D01*
G01X25446000D02*
X25474000D01*
G01X25540000D02*
X25530700Y22591700D01*
X25522500Y22598700D01*
X25515500Y22609200D01*
X25510800Y22621500D01*
X25508500Y22635500D01*
Y22649500D01*
X25510800Y22663500D01*
X25515500Y22675800D01*
X25522500Y22686200D01*
X25530700Y22693300D01*
X25540000Y22695000D01*
X25549300Y22693300D01*
X25557500Y22686200D01*
X25564500Y22675800D01*
X25569200Y22663500D01*
X25571500Y22649500D01*
Y22635500D01*
X25569200Y22621500D01*
X25564500Y22609200D01*
X25557500Y22598700D01*
X25549300Y22591700D01*
X25540000Y22590000D01*
G01X25620000D02*
Y22695000D01*
X25606000Y22674000D01*
G01Y22590000D02*
X25634000D01*
G01X25674300Y22611000D02*
X25681300Y22598700D01*
X25690700Y22591700D01*
X25701200Y22590000D01*
X25710500Y22591700D01*
X25719800Y22600500D01*
X25725700Y22611000D01*
X25726800Y22621500D01*
X25724500Y22633700D01*
X25716300Y22642500D01*
X25708200Y22646000D01*
X25697700D01*
G01X25708200D02*
X25715200Y22651200D01*
X25721000Y22660000D01*
X25723300Y22670500D01*
X25721000Y22681000D01*
X25715200Y22689700D01*
X25704700Y22695000D01*
X25694200Y22693300D01*
X25683700Y22686200D01*
G01X25354300Y22845000D02*
Y22950000D01*
X25377700D01*
X25387000Y22944700D01*
X25394000Y22937700D01*
X25399800Y22927300D01*
X25404500Y22915000D01*
X25405700Y22897500D01*
X25404500Y22880000D01*
X25399800Y22867700D01*
X25394000Y22857200D01*
X25387000Y22850200D01*
X25377700Y22845000D01*
X25354300D01*
G01X25446000Y22950000D02*
X25474000D01*
G01X25460000D02*
Y22845000D01*
G01X25446000D02*
X25474000D01*
G01X25540000D02*
X25530700Y22846700D01*
X25522500Y22853700D01*
X25515500Y22864200D01*
X25510800Y22876500D01*
X25508500Y22890500D01*
Y22904500D01*
X25510800Y22918500D01*
X25515500Y22930800D01*
X25522500Y22941200D01*
X25530700Y22948300D01*
X25540000Y22950000D01*
X25549300Y22948300D01*
X25557500Y22941200D01*
X25564500Y22930800D01*
X25569200Y22918500D01*
X25571500Y22904500D01*
Y22890500D01*
X25569200Y22876500D01*
X25564500Y22864200D01*
X25557500Y22853700D01*
X25549300Y22846700D01*
X25540000Y22845000D01*
G01X25620000D02*
X25628200Y22846700D01*
X25637500Y22852000D01*
X25643300Y22860700D01*
X25645700Y22873000D01*
X25643300Y22885200D01*
X25636300Y22895700D01*
X25625800Y22901000D01*
X25614200D01*
X25607200Y22904500D01*
X25601300Y22913200D01*
X25599000Y22925500D01*
X25602500Y22937700D01*
X25610700Y22946500D01*
X25620000Y22950000D01*
X25629300Y22946500D01*
X25637500Y22937700D01*
X25641000Y22925500D01*
X25638700Y22913200D01*
X25632800Y22904500D01*
X25625800Y22901000D01*
X25614200D01*
X25603700Y22895700D01*
X25596700Y22885200D01*
X25594300Y22873000D01*
X25596700Y22860700D01*
X25602500Y22852000D01*
X25611800Y22846700D01*
X25620000Y22845000D01*
G01X24614300Y22965200D02*
X24615000Y22860200D01*
G01X24587500Y22965000D02*
X24641200Y22965400D01*
G01X24664700Y22860500D02*
X24664000Y22965500D01*
X24694900Y22878200D01*
X24724700Y22965900D01*
X24725300Y22860900D01*
G01X24750400Y22875100D02*
X24759800Y22866400D01*
X24770300Y22861200D01*
X24779700Y22861300D01*
X24789000Y22866600D01*
X24795900Y22875400D01*
X24799300Y22887600D01*
X24796900Y22899900D01*
X24791000Y22910300D01*
X24780500Y22917300D01*
X24766500Y22920700D01*
X24758200Y22927600D01*
X24754700Y22939800D01*
X24756900Y22952100D01*
X24762700Y22960900D01*
X24770800Y22966200D01*
X24779000Y22966300D01*
X24787200Y22962800D01*
X24794200Y22954100D01*
G01X24449300Y22340100D02*
X24448700Y22445100D01*
X24472000Y22445200D01*
X24481400Y22440000D01*
X24488400Y22433100D01*
X24494300Y22422600D01*
X24499100Y22410400D01*
X24500300Y22392900D01*
X24499300Y22375400D01*
X24494700Y22363100D01*
X24488900Y22352600D01*
X24482000Y22345500D01*
X24472700Y22340200D01*
X24449300Y22340100D01*
G01X24540300Y22445600D02*
X24568300Y22445800D01*
G01X24554300Y22445700D02*
X24555000Y22340700D01*
G01X24541000Y22340600D02*
X24569000Y22340800D01*
G01X24635000Y22341200D02*
X24625700Y22342900D01*
X24617400Y22349900D01*
X24610400Y22360300D01*
X24605600Y22372500D01*
X24603200Y22386500D01*
X24603100Y22400500D01*
X24605400Y22414500D01*
X24610000Y22426800D01*
X24616900Y22437400D01*
X24625000Y22444400D01*
X24634300Y22446200D01*
X24643700Y22444500D01*
X24651900Y22437600D01*
X24659000Y22427100D01*
X24663700Y22414900D01*
X24666100Y22400900D01*
X24666200Y22386900D01*
X24664000Y22372900D01*
X24659400Y22360600D01*
X24652400Y22350100D01*
X24644300Y22343000D01*
X24635000Y22341200D01*
G01X24715000Y22341700D02*
X24714300Y22446700D01*
X24700500Y22425600D01*
G01X24701000Y22341600D02*
X24729000Y22341800D01*
G01X24772600Y22385800D02*
X24780600Y22398100D01*
X24787600Y22405200D01*
X24796900Y22408700D01*
X24805100Y22405300D01*
X24811000Y22398300D01*
X24815700Y22387900D01*
X24817000Y22375600D01*
X24815900Y22365100D01*
X24811300Y22354600D01*
X24804300Y22345800D01*
X24796200Y22342200D01*
X24786800Y22345700D01*
X24778600Y22356100D01*
X24773800Y22371800D01*
X24772500Y22389300D01*
X24774700Y22412100D01*
X24778100Y22424400D01*
X24783900Y22436700D01*
X24792000Y22445500D01*
X24800200Y22447300D01*
X24808400Y22443800D01*
X24814200Y22435100D01*
G01X24439300Y22090100D02*
X24438700Y22195100D01*
X24462000Y22195200D01*
X24471400Y22190000D01*
X24478400Y22183100D01*
X24484300Y22172600D01*
X24489100Y22160400D01*
X24490300Y22142900D01*
X24489300Y22125400D01*
X24484700Y22113100D01*
X24478900Y22102600D01*
X24472000Y22095500D01*
X24462700Y22090200D01*
X24439300Y22090100D01*
G01X24530300Y22195600D02*
X24558300Y22195800D01*
G01X24544300Y22195700D02*
X24545000Y22090700D01*
G01X24531000Y22090600D02*
X24559000Y22090800D01*
G01X24625000Y22091200D02*
X24615700Y22092900D01*
X24607400Y22099900D01*
X24600400Y22110300D01*
X24595600Y22122500D01*
X24593200Y22136500D01*
X24593100Y22150500D01*
X24595400Y22164500D01*
X24600000Y22176800D01*
X24606900Y22187400D01*
X24615000Y22194400D01*
X24624300Y22196200D01*
X24633700Y22194500D01*
X24641900Y22187600D01*
X24649000Y22177100D01*
X24653700Y22164900D01*
X24656100Y22150900D01*
X24656200Y22136900D01*
X24654000Y22122900D01*
X24649400Y22110600D01*
X24642400Y22100100D01*
X24634300Y22093000D01*
X24625000Y22091200D01*
G01X24705000Y22091700D02*
X24704300Y22196700D01*
X24690500Y22175600D01*
G01X24691000Y22091600D02*
X24719000Y22091800D01*
G01X24782700Y22092200D02*
X24784900Y22115000D01*
X24788200Y22134200D01*
X24792800Y22151800D01*
X24798500Y22171100D01*
X24807700Y22197400D01*
X24761000Y22197100D01*
G01X24614300Y22715200D02*
X24615000Y22610200D01*
G01X24587500Y22715000D02*
X24641200Y22715400D01*
G01X24720100Y22707100D02*
X24713000Y22712300D01*
X24704800Y22715800D01*
X24695500Y22715700D01*
X24685000Y22710400D01*
X24676900Y22701600D01*
X24671200Y22691100D01*
X24666600Y22673500D01*
X24665500Y22657800D01*
X24668000Y22642100D01*
X24671500Y22631600D01*
X24678600Y22621100D01*
X24686800Y22614200D01*
X24695000Y22610700D01*
X24703200Y22610800D01*
X24711300Y22614300D01*
X24718300Y22619600D01*
X24724100Y22626700D01*
G01X24749300Y22611100D02*
X24748700Y22716100D01*
G01X24793000Y22716300D02*
X24749100Y22651300D01*
G01X24800700Y22611400D02*
X24768700Y22681200D01*
G01X25354300Y23095000D02*
Y23200000D01*
X25377700D01*
X25387000Y23194700D01*
X25394000Y23187700D01*
X25399800Y23177300D01*
X25404500Y23165000D01*
X25405700Y23147500D01*
X25404500Y23130000D01*
X25399800Y23117700D01*
X25394000Y23107200D01*
X25387000Y23100200D01*
X25377700Y23095000D01*
X25354300D01*
G01X25446000Y23200000D02*
X25474000D01*
G01X25460000D02*
Y23095000D01*
G01X25446000D02*
X25474000D01*
G01X25540000D02*
X25530700Y23096700D01*
X25522500Y23103700D01*
X25515500Y23114200D01*
X25510800Y23126500D01*
X25508500Y23140500D01*
Y23154500D01*
X25510800Y23168500D01*
X25515500Y23180800D01*
X25522500Y23191200D01*
X25530700Y23198300D01*
X25540000Y23200000D01*
X25549300Y23198300D01*
X25557500Y23191200D01*
X25564500Y23180800D01*
X25569200Y23168500D01*
X25571500Y23154500D01*
Y23140500D01*
X25569200Y23126500D01*
X25564500Y23114200D01*
X25557500Y23103700D01*
X25549300Y23096700D01*
X25540000Y23095000D01*
G01X25600200Y23107200D02*
X25608300Y23098500D01*
X25617700Y23095000D01*
X25627000Y23098500D01*
X25635200Y23109000D01*
X25641000Y23124800D01*
X25643300Y23140500D01*
Y23159700D01*
X25641000Y23175500D01*
X25635200Y23189500D01*
X25628200Y23196500D01*
X25620000Y23200000D01*
X25610700Y23196500D01*
X25603700Y23189500D01*
X25599000Y23179000D01*
X25596700Y23165000D01*
X25599000Y23152800D01*
X25604800Y23140500D01*
X25611800Y23133500D01*
X25620000Y23131700D01*
X25629300Y23135200D01*
X25636300Y23144000D01*
X25643300Y23159700D01*
G01X25356700Y23455000D02*
Y23350000D01*
X25403300D01*
G01X25436700D02*
Y23455000D01*
X25464700D01*
X25474000Y23449700D01*
X25481000Y23437500D01*
X25483300Y23423500D01*
X25481000Y23409500D01*
X25475200Y23399000D01*
X25464700Y23393700D01*
X25436700D01*
G01X25516700Y23350000D02*
Y23455000D01*
X25545800D01*
X25555200Y23449700D01*
X25561000Y23442700D01*
X25563300Y23428700D01*
X25561000Y23414700D01*
X25554000Y23406000D01*
X25545800Y23400700D01*
X25516700D01*
G01X25545800D02*
X25563300Y23350000D01*
G01X25595500Y23364000D02*
X25604800Y23355200D01*
X25615300Y23350000D01*
X25624700D01*
X25634000Y23355200D01*
X25641000Y23364000D01*
X25644500Y23376300D01*
X25642200Y23388500D01*
X25636300Y23399000D01*
X25625800Y23406000D01*
X25611800Y23409500D01*
X25603700Y23416500D01*
X25600200Y23428700D01*
X25602500Y23441000D01*
X25608300Y23449700D01*
X25616500Y23455000D01*
X25624700D01*
X25632800Y23451500D01*
X25639800Y23442700D01*
G01X25700000Y23455000D02*
Y23350000D01*
G01X25673200Y23455000D02*
X25726800D01*
G01X25354300Y23860000D02*
Y23965000D01*
X25377700D01*
X25387000Y23959700D01*
X25394000Y23952700D01*
X25399800Y23942300D01*
X25404500Y23930000D01*
X25405700Y23912500D01*
X25404500Y23895000D01*
X25399800Y23882700D01*
X25394000Y23872200D01*
X25387000Y23865200D01*
X25377700Y23860000D01*
X25354300D01*
G01X25446000Y23965000D02*
X25474000D01*
G01X25460000D02*
Y23860000D01*
G01X25446000D02*
X25474000D01*
G01X25540000D02*
X25530700Y23861700D01*
X25522500Y23868700D01*
X25515500Y23879200D01*
X25510800Y23891500D01*
X25508500Y23905500D01*
Y23919500D01*
X25510800Y23933500D01*
X25515500Y23945800D01*
X25522500Y23956200D01*
X25530700Y23963300D01*
X25540000Y23965000D01*
X25549300Y23963300D01*
X25557500Y23956200D01*
X25564500Y23945800D01*
X25569200Y23933500D01*
X25571500Y23919500D01*
Y23905500D01*
X25569200Y23891500D01*
X25564500Y23879200D01*
X25557500Y23868700D01*
X25549300Y23861700D01*
X25540000Y23860000D01*
G01X25620000D02*
Y23965000D01*
X25606000Y23944000D01*
G01Y23860000D02*
X25634000D01*
G01X25700000D02*
Y23965000D01*
X25686000Y23944000D01*
G01Y23860000D02*
X25714000D01*
G01X25354300Y24115000D02*
Y24220000D01*
X25377700D01*
X25387000Y24214700D01*
X25394000Y24207700D01*
X25399800Y24197300D01*
X25404500Y24185000D01*
X25405700Y24167500D01*
X25404500Y24150000D01*
X25399800Y24137700D01*
X25394000Y24127200D01*
X25387000Y24120200D01*
X25377700Y24115000D01*
X25354300D01*
G01X25446000Y24220000D02*
X25474000D01*
G01X25460000D02*
Y24115000D01*
G01X25446000D02*
X25474000D01*
G01X25540000D02*
X25530700Y24116700D01*
X25522500Y24123700D01*
X25515500Y24134200D01*
X25510800Y24146500D01*
X25508500Y24160500D01*
Y24174500D01*
X25510800Y24188500D01*
X25515500Y24200800D01*
X25522500Y24211200D01*
X25530700Y24218300D01*
X25540000Y24220000D01*
X25549300Y24218300D01*
X25557500Y24211200D01*
X25564500Y24200800D01*
X25569200Y24188500D01*
X25571500Y24174500D01*
Y24160500D01*
X25569200Y24146500D01*
X25564500Y24134200D01*
X25557500Y24123700D01*
X25549300Y24116700D01*
X25540000Y24115000D01*
G01X25620000D02*
Y24220000D01*
X25606000Y24199000D01*
G01Y24115000D02*
X25634000D01*
G01X25677800Y24202500D02*
X25684800Y24213000D01*
X25693000Y24218300D01*
X25702300Y24220000D01*
X25714000Y24216500D01*
X25722200Y24207700D01*
X25724500Y24197300D01*
X25723300Y24186700D01*
X25718700Y24178000D01*
X25695300Y24160500D01*
X25684800Y24148200D01*
X25677800Y24130700D01*
X25675500Y24115000D01*
X25724500D01*
G01X24469300Y23161000D02*
X24474000Y23166200D01*
X24477500Y23175000D01*
X24479800Y23187300D01*
X24477500Y23197700D01*
X24472800Y23204700D01*
X24464700Y23210000D01*
X24433200D01*
Y23105000D01*
X24471700D01*
X24479800Y23112000D01*
X24484500Y23122500D01*
X24486800Y23134800D01*
X24484500Y23147000D01*
X24477500Y23157500D01*
X24469300Y23161000D01*
X24433200D01*
G01X24516700Y23105000D02*
Y23210000D01*
X24544700D01*
X24554000Y23204700D01*
X24561000Y23192500D01*
X24563300Y23178500D01*
X24561000Y23164500D01*
X24555200Y23154000D01*
X24544700Y23148700D01*
X24516700D01*
G01X24596700Y23105000D02*
Y23210000D01*
X24625800D01*
X24635200Y23204700D01*
X24641000Y23197700D01*
X24643300Y23183700D01*
X24641000Y23169700D01*
X24634000Y23161000D01*
X24625800Y23155700D01*
X24596700D01*
G01X24625800D02*
X24643300Y23105000D01*
G01X24675500Y23119000D02*
X24684800Y23110200D01*
X24695300Y23105000D01*
X24704700D01*
X24714000Y23110200D01*
X24721000Y23119000D01*
X24724500Y23131300D01*
X24722200Y23143500D01*
X24716300Y23154000D01*
X24705800Y23161000D01*
X24691800Y23164500D01*
X24683700Y23171500D01*
X24680200Y23183700D01*
X24682500Y23196000D01*
X24688300Y23204700D01*
X24696500Y23210000D01*
X24704700D01*
X24712800Y23206500D01*
X24719800Y23197700D01*
G01X24780000Y23210000D02*
Y23105000D01*
G01X24753200Y23210000D02*
X24806800D01*
G01X24434300Y23360000D02*
Y23465000D01*
X24457700D01*
X24467000Y23459700D01*
X24474000Y23452700D01*
X24479800Y23442300D01*
X24484500Y23430000D01*
X24485700Y23412500D01*
X24484500Y23395000D01*
X24479800Y23382700D01*
X24474000Y23372200D01*
X24467000Y23365200D01*
X24457700Y23360000D01*
X24434300D01*
G01X24526000Y23465000D02*
X24554000D01*
G01X24540000D02*
Y23360000D01*
G01X24526000D02*
X24554000D01*
G01X24620000D02*
X24610700Y23361700D01*
X24602500Y23368700D01*
X24595500Y23379200D01*
X24590800Y23391500D01*
X24588500Y23405500D01*
Y23419500D01*
X24590800Y23433500D01*
X24595500Y23445800D01*
X24602500Y23456200D01*
X24610700Y23463300D01*
X24620000Y23465000D01*
X24629300Y23463300D01*
X24637500Y23456200D01*
X24644500Y23445800D01*
X24649200Y23433500D01*
X24651500Y23419500D01*
Y23405500D01*
X24649200Y23391500D01*
X24644500Y23379200D01*
X24637500Y23368700D01*
X24629300Y23361700D01*
X24620000Y23360000D01*
G01X24700000D02*
Y23465000D01*
X24686000Y23444000D01*
G01Y23360000D02*
X24714000D01*
G01X24780000D02*
X24788200Y23361700D01*
X24797500Y23367000D01*
X24803300Y23375700D01*
X24805700Y23388000D01*
X24803300Y23400200D01*
X24796300Y23410700D01*
X24785800Y23416000D01*
X24774200D01*
X24767200Y23419500D01*
X24761300Y23428200D01*
X24759000Y23440500D01*
X24762500Y23452700D01*
X24770700Y23461500D01*
X24780000Y23465000D01*
X24789300Y23461500D01*
X24797500Y23452700D01*
X24801000Y23440500D01*
X24798700Y23428200D01*
X24792800Y23419500D01*
X24785800Y23416000D01*
X24774200D01*
X24763700Y23410700D01*
X24756700Y23400200D01*
X24754300Y23388000D01*
X24756700Y23375700D01*
X24762500Y23367000D01*
X24771800Y23361700D01*
X24780000Y23360000D01*
G01X24434300Y23615000D02*
Y23720000D01*
X24457700D01*
X24467000Y23714700D01*
X24474000Y23707700D01*
X24479800Y23697300D01*
X24484500Y23685000D01*
X24485700Y23667500D01*
X24484500Y23650000D01*
X24479800Y23637700D01*
X24474000Y23627200D01*
X24467000Y23620200D01*
X24457700Y23615000D01*
X24434300D01*
G01X24526000Y23720000D02*
X24554000D01*
G01X24540000D02*
Y23615000D01*
G01X24526000D02*
X24554000D01*
G01X24620000D02*
X24610700Y23616700D01*
X24602500Y23623700D01*
X24595500Y23634200D01*
X24590800Y23646500D01*
X24588500Y23660500D01*
Y23674500D01*
X24590800Y23688500D01*
X24595500Y23700800D01*
X24602500Y23711200D01*
X24610700Y23718300D01*
X24620000Y23720000D01*
X24629300Y23718300D01*
X24637500Y23711200D01*
X24644500Y23700800D01*
X24649200Y23688500D01*
X24651500Y23674500D01*
Y23660500D01*
X24649200Y23646500D01*
X24644500Y23634200D01*
X24637500Y23623700D01*
X24629300Y23616700D01*
X24620000Y23615000D01*
G01X24700000D02*
Y23720000D01*
X24686000Y23699000D01*
G01Y23615000D02*
X24714000D01*
G01X24760200Y23627200D02*
X24768300Y23618500D01*
X24777700Y23615000D01*
X24787000Y23618500D01*
X24795200Y23629000D01*
X24801000Y23644800D01*
X24803300Y23660500D01*
Y23679700D01*
X24801000Y23695500D01*
X24795200Y23709500D01*
X24788200Y23716500D01*
X24780000Y23720000D01*
X24770700Y23716500D01*
X24763700Y23709500D01*
X24759000Y23699000D01*
X24756700Y23685000D01*
X24759000Y23672800D01*
X24764800Y23660500D01*
X24771800Y23653500D01*
X24780000Y23651700D01*
X24789300Y23655200D01*
X24796300Y23664000D01*
X24803300Y23679700D01*
G01X24434300Y23870000D02*
Y23975000D01*
X24457700D01*
X24467000Y23969700D01*
X24474000Y23962700D01*
X24479800Y23952300D01*
X24484500Y23940000D01*
X24485700Y23922500D01*
X24484500Y23905000D01*
X24479800Y23892700D01*
X24474000Y23882200D01*
X24467000Y23875200D01*
X24457700Y23870000D01*
X24434300D01*
G01X24526000Y23975000D02*
X24554000D01*
G01X24540000D02*
Y23870000D01*
G01X24526000D02*
X24554000D01*
G01X24620000D02*
X24610700Y23871700D01*
X24602500Y23878700D01*
X24595500Y23889200D01*
X24590800Y23901500D01*
X24588500Y23915500D01*
Y23929500D01*
X24590800Y23943500D01*
X24595500Y23955800D01*
X24602500Y23966200D01*
X24610700Y23973300D01*
X24620000Y23975000D01*
X24629300Y23973300D01*
X24637500Y23966200D01*
X24644500Y23955800D01*
X24649200Y23943500D01*
X24651500Y23929500D01*
Y23915500D01*
X24649200Y23901500D01*
X24644500Y23889200D01*
X24637500Y23878700D01*
X24629300Y23871700D01*
X24620000Y23870000D01*
G01X24677800Y23957500D02*
X24684800Y23968000D01*
X24693000Y23973300D01*
X24702300Y23975000D01*
X24714000Y23971500D01*
X24722200Y23962700D01*
X24724500Y23952300D01*
X24723300Y23941700D01*
X24718700Y23933000D01*
X24695300Y23915500D01*
X24684800Y23903200D01*
X24677800Y23885700D01*
X24675500Y23870000D01*
X24724500D01*
G01X24780000Y23975000D02*
X24770700Y23971500D01*
X24763700Y23962700D01*
X24759000Y23952300D01*
X24755500Y23938200D01*
X24754300Y23922500D01*
X24755500Y23906700D01*
X24759000Y23892700D01*
X24763700Y23882200D01*
X24770700Y23873500D01*
X24780000Y23870000D01*
X24789300Y23873500D01*
X24796300Y23882200D01*
X24801000Y23892700D01*
X24804500Y23906700D01*
X24805700Y23922500D01*
X24804500Y23938200D01*
X24801000Y23952300D01*
X24796300Y23962700D01*
X24789300Y23971500D01*
X24780000Y23975000D01*
G01X24519300Y24120000D02*
Y24225000D01*
X24542700D01*
X24552000Y24219700D01*
X24559000Y24212700D01*
X24564800Y24202300D01*
X24569500Y24190000D01*
X24570700Y24172500D01*
X24569500Y24155000D01*
X24564800Y24142700D01*
X24559000Y24132200D01*
X24552000Y24125200D01*
X24542700Y24120000D01*
X24519300D01*
G01X24611000Y24225000D02*
X24639000D01*
G01X24625000D02*
Y24120000D01*
G01X24611000D02*
X24639000D01*
G01X24705000D02*
X24695700Y24121700D01*
X24687500Y24128700D01*
X24680500Y24139200D01*
X24675800Y24151500D01*
X24673500Y24165500D01*
Y24179500D01*
X24675800Y24193500D01*
X24680500Y24205800D01*
X24687500Y24216200D01*
X24695700Y24223300D01*
X24705000Y24225000D01*
X24714300Y24223300D01*
X24722500Y24216200D01*
X24729500Y24205800D01*
X24734200Y24193500D01*
X24736500Y24179500D01*
Y24165500D01*
X24734200Y24151500D01*
X24729500Y24139200D01*
X24722500Y24128700D01*
X24714300Y24121700D01*
X24705000Y24120000D01*
G01X24762800Y24163700D02*
X24771000Y24176000D01*
X24778000Y24183000D01*
X24787300Y24186500D01*
X24795500Y24183000D01*
X24801300Y24176000D01*
X24806000Y24165500D01*
X24807200Y24153200D01*
X24806000Y24142700D01*
X24801300Y24132200D01*
X24794300Y24123500D01*
X24786200Y24120000D01*
X24776800Y24123500D01*
X24768700Y24134000D01*
X24764000Y24149800D01*
X24762800Y24167200D01*
X24765200Y24190000D01*
X24768700Y24202300D01*
X24774500Y24214500D01*
X24782700Y24223300D01*
X24790800Y24225000D01*
X24799000Y24221500D01*
X24804800Y24212700D01*
G01X24539300Y24390000D02*
Y24495000D01*
X24562700D01*
X24572000Y24489700D01*
X24579000Y24482700D01*
X24584800Y24472300D01*
X24589500Y24460000D01*
X24590700Y24442500D01*
X24589500Y24425000D01*
X24584800Y24412700D01*
X24579000Y24402200D01*
X24572000Y24395200D01*
X24562700Y24390000D01*
X24539300D01*
G01X24631000Y24495000D02*
X24659000D01*
G01X24645000D02*
Y24390000D01*
G01X24631000D02*
X24659000D01*
G01X24725000D02*
X24715700Y24391700D01*
X24707500Y24398700D01*
X24700500Y24409200D01*
X24695800Y24421500D01*
X24693500Y24435500D01*
Y24449500D01*
X24695800Y24463500D01*
X24700500Y24475800D01*
X24707500Y24486200D01*
X24715700Y24493300D01*
X24725000Y24495000D01*
X24734300Y24493300D01*
X24742500Y24486200D01*
X24749500Y24475800D01*
X24754200Y24463500D01*
X24756500Y24449500D01*
Y24435500D01*
X24754200Y24421500D01*
X24749500Y24409200D01*
X24742500Y24398700D01*
X24734300Y24391700D01*
X24725000Y24390000D01*
G01X24802700D02*
X24805000Y24412700D01*
X24808500Y24432000D01*
X24813200Y24449500D01*
X24819000Y24468700D01*
X24828300Y24495000D01*
X24781700D01*
G01X25682500Y26101700D02*
X25787500D01*
Y26148300D01*
G01Y26181700D02*
X25682500D01*
Y26209700D01*
X25687800Y26219000D01*
X25700000Y26226000D01*
X25714000Y26228300D01*
X25728000Y26226000D01*
X25738500Y26220200D01*
X25743800Y26209700D01*
Y26181700D01*
G01X25752500Y26269800D02*
Y26300200D01*
G01X25691300Y26390700D02*
X25686000Y26383700D01*
X25682500Y26375500D01*
Y26366200D01*
X25687800Y26355700D01*
X25696500Y26347500D01*
X25707000Y26341700D01*
X25724500Y26337000D01*
X25740300Y26335800D01*
X25756000Y26338200D01*
X25766500Y26341700D01*
X25777000Y26348700D01*
X25784000Y26356800D01*
X25787500Y26365000D01*
Y26373200D01*
X25784000Y26381300D01*
X25778800Y26388300D01*
X25771800Y26394200D01*
G01X25691300Y26470700D02*
X25686000Y26463700D01*
X25682500Y26455500D01*
Y26446200D01*
X25687800Y26435700D01*
X25696500Y26427500D01*
X25707000Y26421700D01*
X25724500Y26417000D01*
X25740300Y26415800D01*
X25756000Y26418200D01*
X25766500Y26421700D01*
X25777000Y26428700D01*
X25784000Y26436800D01*
X25787500Y26445000D01*
Y26453200D01*
X25784000Y26461300D01*
X25778800Y26468300D01*
X25771800Y26474200D01*
G01X25700000Y26502800D02*
X25689500Y26509800D01*
X25684200Y26518000D01*
X25682500Y26527300D01*
X25686000Y26539000D01*
X25694800Y26547200D01*
X25705200Y26549500D01*
X25715800Y26548300D01*
X25724500Y26543700D01*
X25742000Y26520300D01*
X25754300Y26509800D01*
X25771800Y26502800D01*
X25787500Y26500500D01*
Y26549500D01*
G01X25743800Y26582800D02*
X25731500Y26591000D01*
X25724500Y26598000D01*
X25721000Y26607300D01*
X25724500Y26615500D01*
X25731500Y26621300D01*
X25742000Y26626000D01*
X25754300Y26627200D01*
X25764800Y26626000D01*
X25775300Y26621300D01*
X25784000Y26614300D01*
X25787500Y26606200D01*
X25784000Y26596800D01*
X25773500Y26588700D01*
X25757700Y26584000D01*
X25740300Y26582800D01*
X25717500Y26585200D01*
X25705200Y26588700D01*
X25693000Y26594500D01*
X25684200Y26602700D01*
X25682500Y26610800D01*
X25686000Y26619000D01*
X25694800Y26624800D01*
G01X25771800Y26659300D02*
X25780500Y26666300D01*
X25785800Y26674500D01*
X25787500Y26685000D01*
X25784000Y26695500D01*
X25777000Y26703700D01*
X25764800Y26709500D01*
X25750800Y26710700D01*
X25736800Y26708300D01*
X25728000Y26702500D01*
X25721000Y26694300D01*
X25719300Y26686200D01*
X25721000Y26678000D01*
X25728000Y26667500D01*
X25682500Y26671000D01*
Y26702500D01*
G01X25700000Y26742800D02*
X25689500Y26749800D01*
X25684200Y26758000D01*
X25682500Y26767300D01*
X25686000Y26779000D01*
X25694800Y26787200D01*
X25705200Y26789500D01*
X25715800Y26788300D01*
X25724500Y26783700D01*
X25742000Y26760300D01*
X25754300Y26749800D01*
X25771800Y26742800D01*
X25787500Y26740500D01*
Y26789500D01*
G01Y26821700D02*
X25682500D01*
Y26850800D01*
X25687800Y26860200D01*
X25694800Y26866000D01*
X25708800Y26868300D01*
X25722800Y26866000D01*
X25731500Y26859000D01*
X25736800Y26850800D01*
Y26821700D01*
G01Y26850800D02*
X25787500Y26868300D01*
G01X25731500Y26934300D02*
X25726300Y26939000D01*
X25717500Y26942500D01*
X25705200Y26944800D01*
X25694800Y26942500D01*
X25687800Y26937800D01*
X25682500Y26929700D01*
Y26898200D01*
X25787500D01*
Y26936700D01*
X25780500Y26944800D01*
X25770000Y26949500D01*
X25757700Y26951800D01*
X25745500Y26949500D01*
X25735000Y26942500D01*
X25731500Y26934300D01*
Y26898200D01*
G01X25820000Y27661700D02*
X25715000D01*
Y27690800D01*
X25720300Y27700200D01*
X25727300Y27706000D01*
X25741300Y27708300D01*
X25755300Y27706000D01*
X25764000Y27699000D01*
X25769300Y27690800D01*
Y27661700D01*
G01Y27690800D02*
X25820000Y27708300D01*
G01X25772800Y27747500D02*
Y27784800D01*
X25760500Y27781300D01*
X25753500Y27775500D01*
X25750000Y27767300D01*
X25751800Y27759200D01*
X25757000Y27752200D01*
X25769300Y27747500D01*
X25779800Y27745200D01*
X25790200D01*
X25800800Y27747500D01*
X25811300Y27753300D01*
X25818300Y27760300D01*
X25820000Y27768500D01*
X25816500Y27776700D01*
X25806000Y27784800D01*
G01X25750000Y27824000D02*
X25820000Y27845000D01*
X25750000Y27866000D01*
G01X25823500Y27925000D02*
X25821700Y27922700D01*
X25818300D01*
X25816500Y27925000D01*
X25818300Y27927300D01*
X25821700D01*
X25823500Y27925000D01*
G01X25776300D02*
X25774500Y27922700D01*
X25771000D01*
X25769300Y27925000D01*
X25771000Y27927300D01*
X25774500D01*
X25776300Y27925000D01*
G01X25820000Y28055800D02*
X25715000Y28085000D01*
X25820000Y28114200D01*
G01X25783300Y28103700D02*
Y28066300D01*
G01X25800000Y28424700D02*
X25695000D01*
X25782500Y28455000D01*
X25695000Y28485300D01*
X25800000D01*
G01X25703800Y28560700D02*
X25698500Y28553700D01*
X25695000Y28545500D01*
Y28536200D01*
X25700300Y28525700D01*
X25709000Y28517500D01*
X25719500Y28511700D01*
X25737000Y28507000D01*
X25752800Y28505800D01*
X25768500Y28508200D01*
X25779000Y28511700D01*
X25789500Y28518700D01*
X25796500Y28526800D01*
X25800000Y28535000D01*
Y28543200D01*
X25796500Y28551300D01*
X25791300Y28558300D01*
X25784300Y28564200D01*
G01X25695000Y28589300D02*
X25770200D01*
X25786000Y28594000D01*
X25796500Y28603300D01*
X25800000Y28615000D01*
X25796500Y28626700D01*
X25786000Y28636000D01*
X25770200Y28640700D01*
X25695000D01*
G01Y28695000D02*
X25698500Y28685700D01*
X25707300Y28678700D01*
X25717700Y28674000D01*
X25731800Y28670500D01*
X25747500Y28669300D01*
X25763300Y28670500D01*
X25777300Y28674000D01*
X25787800Y28678700D01*
X25796500Y28685700D01*
X25800000Y28695000D01*
X25796500Y28704300D01*
X25787800Y28711300D01*
X25777300Y28716000D01*
X25763300Y28719500D01*
X25747500Y28720700D01*
X25731800Y28719500D01*
X25717700Y28716000D01*
X25707300Y28711300D01*
X25698500Y28704300D01*
X25695000Y28695000D01*
G01X25756300Y28752800D02*
X25744000Y28761000D01*
X25737000Y28768000D01*
X25733500Y28777300D01*
X25737000Y28785500D01*
X25744000Y28791300D01*
X25754500Y28796000D01*
X25766800Y28797200D01*
X25777300Y28796000D01*
X25787800Y28791300D01*
X25796500Y28784300D01*
X25800000Y28776200D01*
X25796500Y28766800D01*
X25786000Y28758700D01*
X25770200Y28754000D01*
X25752800Y28752800D01*
X25730000Y28755200D01*
X25717700Y28758700D01*
X25705500Y28764500D01*
X25696700Y28772700D01*
X25695000Y28780800D01*
X25698500Y28789000D01*
X25707300Y28794800D01*
G01X25800000Y28852700D02*
X25777300Y28855000D01*
X25758000Y28858500D01*
X25740500Y28863200D01*
X25721300Y28869000D01*
X25695000Y28878300D01*
Y28831700D01*
M02*
