G04 #@! TF.GenerationSoftware,KiCad,Pcbnew,(5.1.5-0-10_14)*
G04 #@! TF.CreationDate,2020-03-25T00:06:53-04:00*
G04 #@! TF.ProjectId,NUTS_PCB,4e555453-5f50-4434-922e-6b696361645f,rev?*
G04 #@! TF.SameCoordinates,Original*
G04 #@! TF.FileFunction,Copper,L2,Inr*
G04 #@! TF.FilePolarity,Positive*
%FSLAX46Y46*%
G04 Gerber Fmt 4.6, Leading zero omitted, Abs format (unit mm)*
G04 Created by KiCad (PCBNEW (5.1.5-0-10_14)) date 2020-03-25 00:06:53*
%MOMM*%
%LPD*%
G04 APERTURE LIST*
%ADD10O,1.700000X1.700000*%
%ADD11R,1.700000X1.700000*%
%ADD12C,2.400000*%
%ADD13R,2.400000X2.400000*%
%ADD14C,3.000000*%
%ADD15O,1.350000X1.350000*%
%ADD16R,1.350000X1.350000*%
%ADD17O,1.800000X1.200000*%
%ADD18C,0.100000*%
%ADD19O,1.050000X1.300000*%
%ADD20O,1.200000X1.750000*%
%ADD21C,2.600000*%
%ADD22R,2.600000X2.600000*%
%ADD23C,1.200000*%
%ADD24C,1.450000*%
%ADD25C,0.800000*%
%ADD26C,0.250000*%
G04 APERTURE END LIST*
D10*
X98425000Y-39370000D03*
D11*
X98425000Y-36830000D03*
D10*
X98425000Y-32766000D03*
X98425000Y-30226000D03*
D11*
X98425000Y-27686000D03*
D12*
X109601000Y-37775000D03*
D13*
X109601000Y-41275000D03*
D14*
X85568000Y-51435000D03*
X80518000Y-51435000D03*
D15*
X52451000Y-40354000D03*
D16*
X52451000Y-38354000D03*
D15*
X52451000Y-31210000D03*
X52451000Y-29210000D03*
D16*
X52451000Y-27210000D03*
D17*
X61722000Y-31110000D03*
X61722000Y-29210000D03*
G04 #@! TA.AperFunction,ViaPad*
D18*
G36*
X62396865Y-26711202D02*
G01*
X62421095Y-26714796D01*
X62444855Y-26720748D01*
X62467918Y-26729000D01*
X62490061Y-26739472D01*
X62511070Y-26752065D01*
X62530745Y-26766657D01*
X62548894Y-26783106D01*
X62565343Y-26801255D01*
X62579935Y-26820930D01*
X62592528Y-26841939D01*
X62603000Y-26864082D01*
X62611252Y-26887145D01*
X62617204Y-26910905D01*
X62620798Y-26935135D01*
X62622000Y-26959600D01*
X62622000Y-27660400D01*
X62620798Y-27684865D01*
X62617204Y-27709095D01*
X62611252Y-27732855D01*
X62603000Y-27755918D01*
X62592528Y-27778061D01*
X62579935Y-27799070D01*
X62565343Y-27818745D01*
X62548894Y-27836894D01*
X62530745Y-27853343D01*
X62511070Y-27867935D01*
X62490061Y-27880528D01*
X62467918Y-27891000D01*
X62444855Y-27899252D01*
X62421095Y-27905204D01*
X62396865Y-27908798D01*
X62372400Y-27910000D01*
X61071600Y-27910000D01*
X61047135Y-27908798D01*
X61022905Y-27905204D01*
X60999145Y-27899252D01*
X60976082Y-27891000D01*
X60953939Y-27880528D01*
X60932930Y-27867935D01*
X60913255Y-27853343D01*
X60895106Y-27836894D01*
X60878657Y-27818745D01*
X60864065Y-27799070D01*
X60851472Y-27778061D01*
X60841000Y-27755918D01*
X60832748Y-27732855D01*
X60826796Y-27709095D01*
X60823202Y-27684865D01*
X60822000Y-27660400D01*
X60822000Y-26959600D01*
X60823202Y-26935135D01*
X60826796Y-26910905D01*
X60832748Y-26887145D01*
X60841000Y-26864082D01*
X60851472Y-26841939D01*
X60864065Y-26820930D01*
X60878657Y-26801255D01*
X60895106Y-26783106D01*
X60913255Y-26766657D01*
X60932930Y-26752065D01*
X60953939Y-26739472D01*
X60976082Y-26729000D01*
X60999145Y-26720748D01*
X61022905Y-26714796D01*
X61047135Y-26711202D01*
X61071600Y-26710000D01*
X62372400Y-26710000D01*
X62396865Y-26711202D01*
G37*
G04 #@! TD.AperFunction*
D14*
X75819000Y-51435000D03*
X71247000Y-51435000D03*
G04 #@! TA.AperFunction,ViaPad*
D18*
G36*
X108249594Y-28434203D02*
G01*
X108273853Y-28437802D01*
X108297642Y-28443761D01*
X108320733Y-28452023D01*
X108342902Y-28462508D01*
X108363937Y-28475116D01*
X108383635Y-28489725D01*
X108401806Y-28506194D01*
X108418275Y-28524365D01*
X108432884Y-28544063D01*
X108445492Y-28565098D01*
X108455977Y-28587267D01*
X108464239Y-28610358D01*
X108470198Y-28634147D01*
X108473797Y-28658406D01*
X108475000Y-28682900D01*
X108475000Y-29483100D01*
X108473797Y-29507594D01*
X108470198Y-29531853D01*
X108464239Y-29555642D01*
X108455977Y-29578733D01*
X108445492Y-29600902D01*
X108432884Y-29621937D01*
X108418275Y-29641635D01*
X108401806Y-29659806D01*
X108383635Y-29676275D01*
X108363937Y-29690884D01*
X108342902Y-29703492D01*
X108320733Y-29713977D01*
X108297642Y-29722239D01*
X108273853Y-29728198D01*
X108249594Y-29731797D01*
X108225100Y-29733000D01*
X107674900Y-29733000D01*
X107650406Y-29731797D01*
X107626147Y-29728198D01*
X107602358Y-29722239D01*
X107579267Y-29713977D01*
X107557098Y-29703492D01*
X107536063Y-29690884D01*
X107516365Y-29676275D01*
X107498194Y-29659806D01*
X107481725Y-29641635D01*
X107467116Y-29621937D01*
X107454508Y-29600902D01*
X107444023Y-29578733D01*
X107435761Y-29555642D01*
X107429802Y-29531853D01*
X107426203Y-29507594D01*
X107425000Y-29483100D01*
X107425000Y-28682900D01*
X107426203Y-28658406D01*
X107429802Y-28634147D01*
X107435761Y-28610358D01*
X107444023Y-28587267D01*
X107454508Y-28565098D01*
X107467116Y-28544063D01*
X107481725Y-28524365D01*
X107498194Y-28506194D01*
X107516365Y-28489725D01*
X107536063Y-28475116D01*
X107557098Y-28462508D01*
X107579267Y-28452023D01*
X107602358Y-28443761D01*
X107626147Y-28437802D01*
X107650406Y-28434203D01*
X107674900Y-28433000D01*
X108225100Y-28433000D01*
X108249594Y-28434203D01*
G37*
G04 #@! TD.AperFunction*
D19*
X105410000Y-29083000D03*
X106680000Y-29083000D03*
D20*
X45275000Y-28321000D03*
X43275000Y-28321000D03*
X41275000Y-28321000D03*
X39275000Y-28321000D03*
X37275000Y-28321000D03*
G04 #@! TA.AperFunction,ViaPad*
D18*
G36*
X35649505Y-27447204D02*
G01*
X35673773Y-27450804D01*
X35697572Y-27456765D01*
X35720671Y-27465030D01*
X35742850Y-27475520D01*
X35763893Y-27488132D01*
X35783599Y-27502747D01*
X35801777Y-27519223D01*
X35818253Y-27537401D01*
X35832868Y-27557107D01*
X35845480Y-27578150D01*
X35855970Y-27600329D01*
X35864235Y-27623428D01*
X35870196Y-27647227D01*
X35873796Y-27671495D01*
X35875000Y-27695999D01*
X35875000Y-28946001D01*
X35873796Y-28970505D01*
X35870196Y-28994773D01*
X35864235Y-29018572D01*
X35855970Y-29041671D01*
X35845480Y-29063850D01*
X35832868Y-29084893D01*
X35818253Y-29104599D01*
X35801777Y-29122777D01*
X35783599Y-29139253D01*
X35763893Y-29153868D01*
X35742850Y-29166480D01*
X35720671Y-29176970D01*
X35697572Y-29185235D01*
X35673773Y-29191196D01*
X35649505Y-29194796D01*
X35625001Y-29196000D01*
X34924999Y-29196000D01*
X34900495Y-29194796D01*
X34876227Y-29191196D01*
X34852428Y-29185235D01*
X34829329Y-29176970D01*
X34807150Y-29166480D01*
X34786107Y-29153868D01*
X34766401Y-29139253D01*
X34748223Y-29122777D01*
X34731747Y-29104599D01*
X34717132Y-29084893D01*
X34704520Y-29063850D01*
X34694030Y-29041671D01*
X34685765Y-29018572D01*
X34679804Y-28994773D01*
X34676204Y-28970505D01*
X34675000Y-28946001D01*
X34675000Y-27695999D01*
X34676204Y-27671495D01*
X34679804Y-27647227D01*
X34685765Y-27623428D01*
X34694030Y-27600329D01*
X34704520Y-27578150D01*
X34717132Y-27557107D01*
X34731747Y-27537401D01*
X34748223Y-27519223D01*
X34766401Y-27502747D01*
X34786107Y-27488132D01*
X34807150Y-27475520D01*
X34829329Y-27465030D01*
X34852428Y-27456765D01*
X34876227Y-27450804D01*
X34900495Y-27447204D01*
X34924999Y-27446000D01*
X35625001Y-27446000D01*
X35649505Y-27447204D01*
G37*
G04 #@! TD.AperFunction*
D21*
X45721000Y-42370000D03*
X41021000Y-45370000D03*
D22*
X41021000Y-39370000D03*
D23*
X84653192Y-66660592D02*
X84810658Y-67342652D01*
X77990068Y-68917310D02*
X77832602Y-68235250D01*
D24*
X83150187Y-64595774D03*
X78278337Y-65720529D03*
D25*
X112014000Y-30988000D03*
X58801000Y-29210000D03*
X31877000Y-36068000D03*
X31750000Y-43942000D03*
X62814200Y-69570600D03*
X61544200Y-59563000D03*
X61544200Y-61849000D03*
X61595000Y-52527200D03*
X108483400Y-47371000D03*
X64312800Y-38430200D03*
X32922657Y-41626343D03*
X88544400Y-64109600D03*
X67284600Y-58521600D03*
X59258200Y-66090800D03*
X96739951Y-56577390D03*
X89763600Y-51816000D03*
X82956400Y-56032400D03*
X97307400Y-53949600D03*
X78994000Y-55676800D03*
X92837000Y-50292000D03*
X72786186Y-59715968D03*
X70132568Y-58230668D03*
X52451008Y-62992000D03*
X109093000Y-27660600D03*
X51155600Y-52273200D03*
X55041798Y-52324000D03*
X69850000Y-66040000D03*
X28397200Y-38481000D03*
X89509600Y-55753000D03*
X69051231Y-57177450D03*
X70561200Y-60096402D03*
X74066400Y-67335400D03*
X57581800Y-32054800D03*
X79375002Y-61366400D03*
X57785000Y-68376800D03*
X100787200Y-57988200D03*
X69926200Y-59232800D03*
X103936800Y-57048400D03*
X77012801Y-63500000D03*
X105714800Y-55092600D03*
X71358291Y-58273992D03*
X107416600Y-53086000D03*
X67081400Y-53949600D03*
X84302600Y-54711600D03*
X68173600Y-62116091D03*
X70104000Y-62077600D03*
X88544400Y-56286400D03*
X90424000Y-55016400D03*
X71381039Y-62130829D03*
X72491600Y-62077600D03*
X92329000Y-54178200D03*
X33274000Y-37795200D03*
X68630800Y-66090800D03*
X55041800Y-63601598D03*
X76733244Y-59938223D03*
X54331190Y-62841101D03*
X76131795Y-60737148D03*
X75893818Y-64049075D03*
X51435000Y-64262000D03*
X77013147Y-62471932D03*
X50419000Y-63373000D03*
X64744600Y-66040000D03*
X70942430Y-57353789D03*
X74904600Y-66497200D03*
D26*
X68485546Y-57177450D02*
X69051231Y-57177450D01*
X28397200Y-38481000D02*
X47093650Y-57177450D01*
X69051231Y-57177450D02*
X69051231Y-59430835D01*
X69051231Y-59430835D02*
X69716798Y-60096402D01*
X69716798Y-60096402D02*
X69995515Y-60096402D01*
X69995515Y-60096402D02*
X70561200Y-60096402D01*
X47093650Y-57177450D02*
X68485546Y-57177450D01*
X106984800Y-41706800D02*
X92938600Y-55753000D01*
X106984800Y-31064200D02*
X106984800Y-41706800D01*
X107950000Y-30099000D02*
X106984800Y-31064200D01*
X92938600Y-55753000D02*
X89509600Y-55753000D01*
X107950000Y-29083000D02*
X107950000Y-30099000D01*
X52451000Y-27305000D02*
X52451000Y-27210000D01*
X53975000Y-30715143D02*
X53975000Y-28829000D01*
X53975000Y-28829000D02*
X52451000Y-27305000D01*
X55314657Y-32054800D02*
X53975000Y-30715143D01*
X57581800Y-32054800D02*
X55314657Y-32054800D01*
X100787200Y-57988200D02*
X99851111Y-58924289D01*
X72120515Y-58924289D02*
X71812004Y-59232800D01*
X99851111Y-58924289D02*
X72120515Y-58924289D01*
X70491885Y-59232800D02*
X69926200Y-59232800D01*
X71812004Y-59232800D02*
X70491885Y-59232800D01*
X77578486Y-63500000D02*
X77012801Y-63500000D01*
X103936800Y-57048400D02*
X97765816Y-63219384D01*
X97765816Y-63219384D02*
X77859102Y-63219384D01*
X77859102Y-63219384D02*
X77578486Y-63500000D01*
X71923976Y-58273992D02*
X71358291Y-58273992D01*
X105714800Y-55092600D02*
X102235000Y-55092600D01*
X102235000Y-55092600D02*
X99053608Y-58273992D01*
X99053608Y-58273992D02*
X71923976Y-58273992D01*
X103327200Y-53086000D02*
X106850915Y-53086000D01*
X90744324Y-57302400D02*
X99110800Y-57302400D01*
X90738562Y-57308162D02*
X90744324Y-57302400D01*
X99110800Y-57302400D02*
X103327200Y-53086000D01*
X88042162Y-57308162D02*
X90738562Y-57308162D01*
X84683600Y-53949600D02*
X88042162Y-57308162D01*
X67081400Y-53949600D02*
X84683600Y-53949600D01*
X106850915Y-53086000D02*
X107416600Y-53086000D01*
X33274000Y-37795200D02*
X36322000Y-37795200D01*
X37896800Y-39370000D02*
X41021000Y-39370000D01*
X36322000Y-37795200D02*
X37896800Y-39370000D01*
X77133243Y-60338222D02*
X76733244Y-59938223D01*
X55041800Y-63601598D02*
X74574402Y-63601598D01*
X77133243Y-61042757D02*
X77133243Y-60338222D01*
X74574402Y-63601598D02*
X77133243Y-61042757D01*
X54331190Y-62841101D02*
X71018309Y-62841101D01*
X75731796Y-61137147D02*
X76131795Y-60737148D01*
X71033038Y-62855830D02*
X74013113Y-62855830D01*
X71018309Y-62841101D02*
X71033038Y-62855830D01*
X74013113Y-62855830D02*
X75731796Y-61137147D01*
X74950694Y-64992199D02*
X52165199Y-64992199D01*
X51834999Y-64661999D02*
X51435000Y-64262000D01*
X75893818Y-64049075D02*
X74950694Y-64992199D01*
X52165199Y-64992199D02*
X51834999Y-64661999D01*
X77013147Y-62471932D02*
X76433783Y-62471932D01*
X50984685Y-63373000D02*
X50419000Y-63373000D01*
X74465915Y-64439800D02*
X52896246Y-64439800D01*
X52896246Y-64439800D02*
X51829446Y-63373000D01*
X76433783Y-62471932D02*
X74465915Y-64439800D01*
X51829446Y-63373000D02*
X50984685Y-63373000D01*
M02*
