G04 #@! TF.GenerationSoftware,KiCad,Pcbnew,(5.1.5-0-10_14)*
G04 #@! TF.CreationDate,2020-06-30T17:37:43-04:00*
G04 #@! TF.ProjectId,Pinky,50696e6b-792e-46b6-9963-61645f706362,rev?*
G04 #@! TF.SameCoordinates,Original*
G04 #@! TF.FileFunction,Soldermask,Top*
G04 #@! TF.FilePolarity,Negative*
%FSLAX46Y46*%
G04 Gerber Fmt 4.6, Leading zero omitted, Abs format (unit mm)*
G04 Created by KiCad (PCBNEW (5.1.5-0-10_14)) date 2020-06-30 17:37:43*
%MOMM*%
%LPD*%
G04 APERTURE LIST*
%ADD10C,0.100000*%
G04 APERTURE END LIST*
D10*
G36*
X150493591Y-114882585D02*
G01*
X150527569Y-114892893D01*
X150558890Y-114909634D01*
X150586339Y-114932161D01*
X150608866Y-114959610D01*
X150625607Y-114990931D01*
X150635915Y-115024909D01*
X150640000Y-115066390D01*
X150640000Y-115667610D01*
X150635915Y-115709091D01*
X150625607Y-115743069D01*
X150608866Y-115774390D01*
X150586339Y-115801839D01*
X150558890Y-115824366D01*
X150527569Y-115841107D01*
X150493591Y-115851415D01*
X150452110Y-115855500D01*
X149775890Y-115855500D01*
X149734409Y-115851415D01*
X149700431Y-115841107D01*
X149669110Y-115824366D01*
X149641661Y-115801839D01*
X149619134Y-115774390D01*
X149602393Y-115743069D01*
X149592085Y-115709091D01*
X149588000Y-115667610D01*
X149588000Y-115066390D01*
X149592085Y-115024909D01*
X149602393Y-114990931D01*
X149619134Y-114959610D01*
X149641661Y-114932161D01*
X149669110Y-114909634D01*
X149700431Y-114892893D01*
X149734409Y-114882585D01*
X149775890Y-114878500D01*
X150452110Y-114878500D01*
X150493591Y-114882585D01*
G37*
G36*
X144905591Y-114882585D02*
G01*
X144939569Y-114892893D01*
X144970890Y-114909634D01*
X144998339Y-114932161D01*
X145020866Y-114959610D01*
X145037607Y-114990931D01*
X145047915Y-115024909D01*
X145052000Y-115066390D01*
X145052000Y-115667610D01*
X145047915Y-115709091D01*
X145037607Y-115743069D01*
X145020866Y-115774390D01*
X144998339Y-115801839D01*
X144970890Y-115824366D01*
X144939569Y-115841107D01*
X144905591Y-115851415D01*
X144864110Y-115855500D01*
X144187890Y-115855500D01*
X144146409Y-115851415D01*
X144112431Y-115841107D01*
X144081110Y-115824366D01*
X144053661Y-115801839D01*
X144031134Y-115774390D01*
X144014393Y-115743069D01*
X144004085Y-115709091D01*
X144000000Y-115667610D01*
X144000000Y-115066390D01*
X144004085Y-115024909D01*
X144014393Y-114990931D01*
X144031134Y-114959610D01*
X144053661Y-114932161D01*
X144081110Y-114909634D01*
X144112431Y-114892893D01*
X144146409Y-114882585D01*
X144187890Y-114878500D01*
X144864110Y-114878500D01*
X144905591Y-114882585D01*
G37*
G36*
X142111591Y-114882585D02*
G01*
X142145569Y-114892893D01*
X142176890Y-114909634D01*
X142204339Y-114932161D01*
X142226866Y-114959610D01*
X142243607Y-114990931D01*
X142253915Y-115024909D01*
X142258000Y-115066390D01*
X142258000Y-115667610D01*
X142253915Y-115709091D01*
X142243607Y-115743069D01*
X142226866Y-115774390D01*
X142204339Y-115801839D01*
X142176890Y-115824366D01*
X142145569Y-115841107D01*
X142111591Y-115851415D01*
X142070110Y-115855500D01*
X141393890Y-115855500D01*
X141352409Y-115851415D01*
X141318431Y-115841107D01*
X141287110Y-115824366D01*
X141259661Y-115801839D01*
X141237134Y-115774390D01*
X141220393Y-115743069D01*
X141210085Y-115709091D01*
X141206000Y-115667610D01*
X141206000Y-115066390D01*
X141210085Y-115024909D01*
X141220393Y-114990931D01*
X141237134Y-114959610D01*
X141259661Y-114932161D01*
X141287110Y-114909634D01*
X141318431Y-114892893D01*
X141352409Y-114882585D01*
X141393890Y-114878500D01*
X142070110Y-114878500D01*
X142111591Y-114882585D01*
G37*
G36*
X147699591Y-114857085D02*
G01*
X147733569Y-114867393D01*
X147764890Y-114884134D01*
X147792339Y-114906661D01*
X147814866Y-114934110D01*
X147831607Y-114965431D01*
X147841915Y-114999409D01*
X147846000Y-115040890D01*
X147846000Y-115642110D01*
X147841915Y-115683591D01*
X147831607Y-115717569D01*
X147814866Y-115748890D01*
X147792339Y-115776339D01*
X147764890Y-115798866D01*
X147733569Y-115815607D01*
X147699591Y-115825915D01*
X147658110Y-115830000D01*
X146981890Y-115830000D01*
X146940409Y-115825915D01*
X146906431Y-115815607D01*
X146875110Y-115798866D01*
X146847661Y-115776339D01*
X146825134Y-115748890D01*
X146808393Y-115717569D01*
X146798085Y-115683591D01*
X146794000Y-115642110D01*
X146794000Y-115040890D01*
X146798085Y-114999409D01*
X146808393Y-114965431D01*
X146825134Y-114934110D01*
X146847661Y-114906661D01*
X146875110Y-114884134D01*
X146906431Y-114867393D01*
X146940409Y-114857085D01*
X146981890Y-114853000D01*
X147658110Y-114853000D01*
X147699591Y-114857085D01*
G37*
G36*
X138043855Y-113996140D02*
G01*
X138107618Y-114002420D01*
X138198404Y-114029960D01*
X138230336Y-114039646D01*
X138343425Y-114100094D01*
X138442554Y-114181446D01*
X138523906Y-114280575D01*
X138584354Y-114393664D01*
X138584355Y-114393668D01*
X138621580Y-114516382D01*
X138634149Y-114644000D01*
X138621580Y-114771618D01*
X138616307Y-114789000D01*
X138584354Y-114894336D01*
X138523906Y-115007425D01*
X138442554Y-115106554D01*
X138343425Y-115187906D01*
X138230336Y-115248354D01*
X138198404Y-115258040D01*
X138107618Y-115285580D01*
X138043855Y-115291860D01*
X138011974Y-115295000D01*
X137148026Y-115295000D01*
X137116145Y-115291860D01*
X137052382Y-115285580D01*
X136961596Y-115258040D01*
X136929664Y-115248354D01*
X136816575Y-115187906D01*
X136717446Y-115106554D01*
X136636094Y-115007425D01*
X136575646Y-114894336D01*
X136543693Y-114789000D01*
X136538420Y-114771618D01*
X136525851Y-114644000D01*
X136538420Y-114516382D01*
X136575645Y-114393668D01*
X136575646Y-114393664D01*
X136636094Y-114280575D01*
X136717446Y-114181446D01*
X136816575Y-114100094D01*
X136929664Y-114039646D01*
X136961596Y-114029960D01*
X137052382Y-114002420D01*
X137116145Y-113996140D01*
X137148026Y-113993000D01*
X138011974Y-113993000D01*
X138043855Y-113996140D01*
G37*
G36*
X117723855Y-113996140D02*
G01*
X117787618Y-114002420D01*
X117878404Y-114029960D01*
X117910336Y-114039646D01*
X118023425Y-114100094D01*
X118122554Y-114181446D01*
X118203906Y-114280575D01*
X118264354Y-114393664D01*
X118264355Y-114393668D01*
X118301580Y-114516382D01*
X118314149Y-114644000D01*
X118301580Y-114771618D01*
X118296307Y-114789000D01*
X118264354Y-114894336D01*
X118203906Y-115007425D01*
X118122554Y-115106554D01*
X118023425Y-115187906D01*
X117910336Y-115248354D01*
X117878404Y-115258040D01*
X117787618Y-115285580D01*
X117723855Y-115291860D01*
X117691974Y-115295000D01*
X116828026Y-115295000D01*
X116796145Y-115291860D01*
X116732382Y-115285580D01*
X116641596Y-115258040D01*
X116609664Y-115248354D01*
X116496575Y-115187906D01*
X116397446Y-115106554D01*
X116316094Y-115007425D01*
X116255646Y-114894336D01*
X116223693Y-114789000D01*
X116218420Y-114771618D01*
X116205851Y-114644000D01*
X116218420Y-114516382D01*
X116255645Y-114393668D01*
X116255646Y-114393664D01*
X116316094Y-114280575D01*
X116397446Y-114181446D01*
X116496575Y-114100094D01*
X116609664Y-114039646D01*
X116641596Y-114029960D01*
X116732382Y-114002420D01*
X116796145Y-113996140D01*
X116828026Y-113993000D01*
X117691974Y-113993000D01*
X117723855Y-113996140D01*
G37*
G36*
X167113000Y-114789000D02*
G01*
X164611000Y-114789000D01*
X164611000Y-112287000D01*
X167113000Y-112287000D01*
X167113000Y-114789000D01*
G37*
G36*
X142111591Y-113307585D02*
G01*
X142145569Y-113317893D01*
X142176890Y-113334634D01*
X142204339Y-113357161D01*
X142226866Y-113384610D01*
X142243607Y-113415931D01*
X142253915Y-113449909D01*
X142258000Y-113491390D01*
X142258000Y-114092610D01*
X142253915Y-114134091D01*
X142243607Y-114168069D01*
X142226866Y-114199390D01*
X142204339Y-114226839D01*
X142176890Y-114249366D01*
X142145569Y-114266107D01*
X142111591Y-114276415D01*
X142070110Y-114280500D01*
X141393890Y-114280500D01*
X141352409Y-114276415D01*
X141318431Y-114266107D01*
X141287110Y-114249366D01*
X141259661Y-114226839D01*
X141237134Y-114199390D01*
X141220393Y-114168069D01*
X141210085Y-114134091D01*
X141206000Y-114092610D01*
X141206000Y-113491390D01*
X141210085Y-113449909D01*
X141220393Y-113415931D01*
X141237134Y-113384610D01*
X141259661Y-113357161D01*
X141287110Y-113334634D01*
X141318431Y-113317893D01*
X141352409Y-113307585D01*
X141393890Y-113303500D01*
X142070110Y-113303500D01*
X142111591Y-113307585D01*
G37*
G36*
X150493591Y-113307585D02*
G01*
X150527569Y-113317893D01*
X150558890Y-113334634D01*
X150586339Y-113357161D01*
X150608866Y-113384610D01*
X150625607Y-113415931D01*
X150635915Y-113449909D01*
X150640000Y-113491390D01*
X150640000Y-114092610D01*
X150635915Y-114134091D01*
X150625607Y-114168069D01*
X150608866Y-114199390D01*
X150586339Y-114226839D01*
X150558890Y-114249366D01*
X150527569Y-114266107D01*
X150493591Y-114276415D01*
X150452110Y-114280500D01*
X149775890Y-114280500D01*
X149734409Y-114276415D01*
X149700431Y-114266107D01*
X149669110Y-114249366D01*
X149641661Y-114226839D01*
X149619134Y-114199390D01*
X149602393Y-114168069D01*
X149592085Y-114134091D01*
X149588000Y-114092610D01*
X149588000Y-113491390D01*
X149592085Y-113449909D01*
X149602393Y-113415931D01*
X149619134Y-113384610D01*
X149641661Y-113357161D01*
X149669110Y-113334634D01*
X149700431Y-113317893D01*
X149734409Y-113307585D01*
X149775890Y-113303500D01*
X150452110Y-113303500D01*
X150493591Y-113307585D01*
G37*
G36*
X144905591Y-113307585D02*
G01*
X144939569Y-113317893D01*
X144970890Y-113334634D01*
X144998339Y-113357161D01*
X145020866Y-113384610D01*
X145037607Y-113415931D01*
X145047915Y-113449909D01*
X145052000Y-113491390D01*
X145052000Y-114092610D01*
X145047915Y-114134091D01*
X145037607Y-114168069D01*
X145020866Y-114199390D01*
X144998339Y-114226839D01*
X144970890Y-114249366D01*
X144939569Y-114266107D01*
X144905591Y-114276415D01*
X144864110Y-114280500D01*
X144187890Y-114280500D01*
X144146409Y-114276415D01*
X144112431Y-114266107D01*
X144081110Y-114249366D01*
X144053661Y-114226839D01*
X144031134Y-114199390D01*
X144014393Y-114168069D01*
X144004085Y-114134091D01*
X144000000Y-114092610D01*
X144000000Y-113491390D01*
X144004085Y-113449909D01*
X144014393Y-113415931D01*
X144031134Y-113384610D01*
X144053661Y-113357161D01*
X144081110Y-113334634D01*
X144112431Y-113317893D01*
X144146409Y-113307585D01*
X144187890Y-113303500D01*
X144864110Y-113303500D01*
X144905591Y-113307585D01*
G37*
G36*
X147699591Y-113282085D02*
G01*
X147733569Y-113292393D01*
X147764890Y-113309134D01*
X147792339Y-113331661D01*
X147814866Y-113359110D01*
X147831607Y-113390431D01*
X147841915Y-113424409D01*
X147846000Y-113465890D01*
X147846000Y-114067110D01*
X147841915Y-114108591D01*
X147831607Y-114142569D01*
X147814866Y-114173890D01*
X147792339Y-114201339D01*
X147764890Y-114223866D01*
X147733569Y-114240607D01*
X147699591Y-114250915D01*
X147658110Y-114255000D01*
X146981890Y-114255000D01*
X146940409Y-114250915D01*
X146906431Y-114240607D01*
X146875110Y-114223866D01*
X146847661Y-114201339D01*
X146825134Y-114173890D01*
X146808393Y-114142569D01*
X146798085Y-114108591D01*
X146794000Y-114067110D01*
X146794000Y-113465890D01*
X146798085Y-113424409D01*
X146808393Y-113390431D01*
X146825134Y-113359110D01*
X146847661Y-113331661D01*
X146875110Y-113309134D01*
X146906431Y-113292393D01*
X146940409Y-113282085D01*
X146981890Y-113278000D01*
X147658110Y-113278000D01*
X147699591Y-113282085D01*
G37*
G36*
X156247000Y-113265000D02*
G01*
X153745000Y-113265000D01*
X153745000Y-110763000D01*
X156247000Y-110763000D01*
X156247000Y-113265000D01*
G37*
G36*
X158860903Y-110811075D02*
G01*
X159042600Y-110886336D01*
X159088571Y-110905378D01*
X159293466Y-111042285D01*
X159467715Y-111216534D01*
X159516135Y-111289000D01*
X159604623Y-111421431D01*
X159698925Y-111649097D01*
X159747000Y-111890786D01*
X159747000Y-112137214D01*
X159698925Y-112378903D01*
X159649674Y-112497807D01*
X159604622Y-112606571D01*
X159467715Y-112811466D01*
X159293466Y-112985715D01*
X159088571Y-113122622D01*
X159088570Y-113122623D01*
X159088569Y-113122623D01*
X158860903Y-113216925D01*
X158619214Y-113265000D01*
X158372786Y-113265000D01*
X158131097Y-113216925D01*
X157903431Y-113122623D01*
X157903430Y-113122623D01*
X157903429Y-113122622D01*
X157698534Y-112985715D01*
X157524285Y-112811466D01*
X157387378Y-112606571D01*
X157342327Y-112497807D01*
X157293075Y-112378903D01*
X157245000Y-112137214D01*
X157245000Y-111890786D01*
X157293075Y-111649097D01*
X157387377Y-111421431D01*
X157475865Y-111289000D01*
X157524285Y-111216534D01*
X157698534Y-111042285D01*
X157903429Y-110905378D01*
X157949401Y-110886336D01*
X158131097Y-110811075D01*
X158372786Y-110763000D01*
X158619214Y-110763000D01*
X158860903Y-110811075D01*
G37*
G36*
X117723855Y-111456140D02*
G01*
X117787618Y-111462420D01*
X117878404Y-111489960D01*
X117910336Y-111499646D01*
X118023425Y-111560094D01*
X118122554Y-111641446D01*
X118203906Y-111740575D01*
X118264354Y-111853664D01*
X118264355Y-111853668D01*
X118301580Y-111976382D01*
X118314149Y-112104000D01*
X118301580Y-112231618D01*
X118293501Y-112258250D01*
X118264354Y-112354336D01*
X118203906Y-112467425D01*
X118122554Y-112566554D01*
X118023425Y-112647906D01*
X117910336Y-112708354D01*
X117878404Y-112718040D01*
X117787618Y-112745580D01*
X117723855Y-112751860D01*
X117691974Y-112755000D01*
X116828026Y-112755000D01*
X116796145Y-112751860D01*
X116732382Y-112745580D01*
X116641596Y-112718040D01*
X116609664Y-112708354D01*
X116496575Y-112647906D01*
X116397446Y-112566554D01*
X116316094Y-112467425D01*
X116255646Y-112354336D01*
X116226499Y-112258250D01*
X116218420Y-112231618D01*
X116205851Y-112104000D01*
X116218420Y-111976382D01*
X116255645Y-111853668D01*
X116255646Y-111853664D01*
X116316094Y-111740575D01*
X116397446Y-111641446D01*
X116496575Y-111560094D01*
X116609664Y-111499646D01*
X116641596Y-111489960D01*
X116732382Y-111462420D01*
X116796145Y-111456140D01*
X116828026Y-111453000D01*
X117691974Y-111453000D01*
X117723855Y-111456140D01*
G37*
G36*
X138043855Y-111456140D02*
G01*
X138107618Y-111462420D01*
X138198404Y-111489960D01*
X138230336Y-111499646D01*
X138343425Y-111560094D01*
X138442554Y-111641446D01*
X138523906Y-111740575D01*
X138584354Y-111853664D01*
X138584355Y-111853668D01*
X138621580Y-111976382D01*
X138634149Y-112104000D01*
X138621580Y-112231618D01*
X138613501Y-112258250D01*
X138584354Y-112354336D01*
X138523906Y-112467425D01*
X138442554Y-112566554D01*
X138343425Y-112647906D01*
X138230336Y-112708354D01*
X138198404Y-112718040D01*
X138107618Y-112745580D01*
X138043855Y-112751860D01*
X138011974Y-112755000D01*
X137148026Y-112755000D01*
X137116145Y-112751860D01*
X137052382Y-112745580D01*
X136961596Y-112718040D01*
X136929664Y-112708354D01*
X136816575Y-112647906D01*
X136717446Y-112566554D01*
X136636094Y-112467425D01*
X136575646Y-112354336D01*
X136546499Y-112258250D01*
X136538420Y-112231618D01*
X136525851Y-112104000D01*
X136538420Y-111976382D01*
X136575645Y-111853668D01*
X136575646Y-111853664D01*
X136636094Y-111740575D01*
X136717446Y-111641446D01*
X136816575Y-111560094D01*
X136929664Y-111499646D01*
X136961596Y-111489960D01*
X137052382Y-111462420D01*
X137116145Y-111456140D01*
X137148026Y-111453000D01*
X138011974Y-111453000D01*
X138043855Y-111456140D01*
G37*
G36*
X147699591Y-111555085D02*
G01*
X147733569Y-111565393D01*
X147764890Y-111582134D01*
X147792339Y-111604661D01*
X147814866Y-111632110D01*
X147831607Y-111663431D01*
X147841915Y-111697409D01*
X147846000Y-111738890D01*
X147846000Y-112340110D01*
X147841915Y-112381591D01*
X147831607Y-112415569D01*
X147814866Y-112446890D01*
X147792339Y-112474339D01*
X147764890Y-112496866D01*
X147733569Y-112513607D01*
X147699591Y-112523915D01*
X147658110Y-112528000D01*
X146981890Y-112528000D01*
X146940409Y-112523915D01*
X146906431Y-112513607D01*
X146875110Y-112496866D01*
X146847661Y-112474339D01*
X146825134Y-112446890D01*
X146808393Y-112415569D01*
X146798085Y-112381591D01*
X146794000Y-112340110D01*
X146794000Y-111738890D01*
X146798085Y-111697409D01*
X146808393Y-111663431D01*
X146825134Y-111632110D01*
X146847661Y-111604661D01*
X146875110Y-111582134D01*
X146906431Y-111565393D01*
X146940409Y-111555085D01*
X146981890Y-111551000D01*
X147658110Y-111551000D01*
X147699591Y-111555085D01*
G37*
G36*
X142111591Y-111555085D02*
G01*
X142145569Y-111565393D01*
X142176890Y-111582134D01*
X142204339Y-111604661D01*
X142226866Y-111632110D01*
X142243607Y-111663431D01*
X142253915Y-111697409D01*
X142258000Y-111738890D01*
X142258000Y-112340110D01*
X142253915Y-112381591D01*
X142243607Y-112415569D01*
X142226866Y-112446890D01*
X142204339Y-112474339D01*
X142176890Y-112496866D01*
X142145569Y-112513607D01*
X142111591Y-112523915D01*
X142070110Y-112528000D01*
X141393890Y-112528000D01*
X141352409Y-112523915D01*
X141318431Y-112513607D01*
X141287110Y-112496866D01*
X141259661Y-112474339D01*
X141237134Y-112446890D01*
X141220393Y-112415569D01*
X141210085Y-112381591D01*
X141206000Y-112340110D01*
X141206000Y-111738890D01*
X141210085Y-111697409D01*
X141220393Y-111663431D01*
X141237134Y-111632110D01*
X141259661Y-111604661D01*
X141287110Y-111582134D01*
X141318431Y-111565393D01*
X141352409Y-111555085D01*
X141393890Y-111551000D01*
X142070110Y-111551000D01*
X142111591Y-111555085D01*
G37*
G36*
X144905591Y-111555085D02*
G01*
X144939569Y-111565393D01*
X144970890Y-111582134D01*
X144998339Y-111604661D01*
X145020866Y-111632110D01*
X145037607Y-111663431D01*
X145047915Y-111697409D01*
X145052000Y-111738890D01*
X145052000Y-112340110D01*
X145047915Y-112381591D01*
X145037607Y-112415569D01*
X145020866Y-112446890D01*
X144998339Y-112474339D01*
X144970890Y-112496866D01*
X144939569Y-112513607D01*
X144905591Y-112523915D01*
X144864110Y-112528000D01*
X144187890Y-112528000D01*
X144146409Y-112523915D01*
X144112431Y-112513607D01*
X144081110Y-112496866D01*
X144053661Y-112474339D01*
X144031134Y-112446890D01*
X144014393Y-112415569D01*
X144004085Y-112381591D01*
X144000000Y-112340110D01*
X144000000Y-111738890D01*
X144004085Y-111697409D01*
X144014393Y-111663431D01*
X144031134Y-111632110D01*
X144053661Y-111604661D01*
X144081110Y-111582134D01*
X144112431Y-111565393D01*
X144146409Y-111555085D01*
X144187890Y-111551000D01*
X144864110Y-111551000D01*
X144905591Y-111555085D01*
G37*
G36*
X150493591Y-111529585D02*
G01*
X150527569Y-111539893D01*
X150558890Y-111556634D01*
X150586339Y-111579161D01*
X150608866Y-111606610D01*
X150625607Y-111637931D01*
X150635915Y-111671909D01*
X150640000Y-111713390D01*
X150640000Y-112314610D01*
X150635915Y-112356091D01*
X150625607Y-112390069D01*
X150608866Y-112421390D01*
X150586339Y-112448839D01*
X150558890Y-112471366D01*
X150527569Y-112488107D01*
X150493591Y-112498415D01*
X150452110Y-112502500D01*
X149775890Y-112502500D01*
X149734409Y-112498415D01*
X149700431Y-112488107D01*
X149669110Y-112471366D01*
X149641661Y-112448839D01*
X149619134Y-112421390D01*
X149602393Y-112390069D01*
X149592085Y-112356091D01*
X149588000Y-112314610D01*
X149588000Y-111713390D01*
X149592085Y-111671909D01*
X149602393Y-111637931D01*
X149619134Y-111606610D01*
X149641661Y-111579161D01*
X149669110Y-111556634D01*
X149700431Y-111539893D01*
X149734409Y-111529585D01*
X149775890Y-111525500D01*
X150452110Y-111525500D01*
X150493591Y-111529585D01*
G37*
G36*
X166226903Y-108835075D02*
G01*
X166418414Y-108914401D01*
X166454571Y-108929378D01*
X166659466Y-109066285D01*
X166833715Y-109240534D01*
X166964577Y-109436382D01*
X166970623Y-109445431D01*
X167064925Y-109673097D01*
X167113000Y-109914786D01*
X167113000Y-110161214D01*
X167110735Y-110172599D01*
X167064925Y-110402903D01*
X166970622Y-110630571D01*
X166833715Y-110835466D01*
X166659466Y-111009715D01*
X166454571Y-111146622D01*
X166454570Y-111146623D01*
X166454569Y-111146623D01*
X166226903Y-111240925D01*
X165985214Y-111289000D01*
X165738786Y-111289000D01*
X165497097Y-111240925D01*
X165269431Y-111146623D01*
X165269430Y-111146623D01*
X165269429Y-111146622D01*
X165064534Y-111009715D01*
X164890285Y-110835466D01*
X164753378Y-110630571D01*
X164659075Y-110402903D01*
X164613265Y-110172599D01*
X164611000Y-110161214D01*
X164611000Y-109914786D01*
X164659075Y-109673097D01*
X164753377Y-109445431D01*
X164759423Y-109436382D01*
X164890285Y-109240534D01*
X165064534Y-109066285D01*
X165269429Y-108929378D01*
X165305587Y-108914401D01*
X165497097Y-108835075D01*
X165738786Y-108787000D01*
X165985214Y-108787000D01*
X166226903Y-108835075D01*
G37*
G36*
X144905591Y-109980085D02*
G01*
X144939569Y-109990393D01*
X144970890Y-110007134D01*
X144998339Y-110029661D01*
X145020866Y-110057110D01*
X145037607Y-110088431D01*
X145047915Y-110122409D01*
X145052000Y-110163890D01*
X145052000Y-110765110D01*
X145047915Y-110806591D01*
X145037607Y-110840569D01*
X145020866Y-110871890D01*
X144998339Y-110899339D01*
X144970890Y-110921866D01*
X144939569Y-110938607D01*
X144905591Y-110948915D01*
X144864110Y-110953000D01*
X144187890Y-110953000D01*
X144146409Y-110948915D01*
X144112431Y-110938607D01*
X144081110Y-110921866D01*
X144053661Y-110899339D01*
X144031134Y-110871890D01*
X144014393Y-110840569D01*
X144004085Y-110806591D01*
X144000000Y-110765110D01*
X144000000Y-110163890D01*
X144004085Y-110122409D01*
X144014393Y-110088431D01*
X144031134Y-110057110D01*
X144053661Y-110029661D01*
X144081110Y-110007134D01*
X144112431Y-109990393D01*
X144146409Y-109980085D01*
X144187890Y-109976000D01*
X144864110Y-109976000D01*
X144905591Y-109980085D01*
G37*
G36*
X147699591Y-109980085D02*
G01*
X147733569Y-109990393D01*
X147764890Y-110007134D01*
X147792339Y-110029661D01*
X147814866Y-110057110D01*
X147831607Y-110088431D01*
X147841915Y-110122409D01*
X147846000Y-110163890D01*
X147846000Y-110765110D01*
X147841915Y-110806591D01*
X147831607Y-110840569D01*
X147814866Y-110871890D01*
X147792339Y-110899339D01*
X147764890Y-110921866D01*
X147733569Y-110938607D01*
X147699591Y-110948915D01*
X147658110Y-110953000D01*
X146981890Y-110953000D01*
X146940409Y-110948915D01*
X146906431Y-110938607D01*
X146875110Y-110921866D01*
X146847661Y-110899339D01*
X146825134Y-110871890D01*
X146808393Y-110840569D01*
X146798085Y-110806591D01*
X146794000Y-110765110D01*
X146794000Y-110163890D01*
X146798085Y-110122409D01*
X146808393Y-110088431D01*
X146825134Y-110057110D01*
X146847661Y-110029661D01*
X146875110Y-110007134D01*
X146906431Y-109990393D01*
X146940409Y-109980085D01*
X146981890Y-109976000D01*
X147658110Y-109976000D01*
X147699591Y-109980085D01*
G37*
G36*
X142111591Y-109980085D02*
G01*
X142145569Y-109990393D01*
X142176890Y-110007134D01*
X142204339Y-110029661D01*
X142226866Y-110057110D01*
X142243607Y-110088431D01*
X142253915Y-110122409D01*
X142258000Y-110163890D01*
X142258000Y-110765110D01*
X142253915Y-110806591D01*
X142243607Y-110840569D01*
X142226866Y-110871890D01*
X142204339Y-110899339D01*
X142176890Y-110921866D01*
X142145569Y-110938607D01*
X142111591Y-110948915D01*
X142070110Y-110953000D01*
X141393890Y-110953000D01*
X141352409Y-110948915D01*
X141318431Y-110938607D01*
X141287110Y-110921866D01*
X141259661Y-110899339D01*
X141237134Y-110871890D01*
X141220393Y-110840569D01*
X141210085Y-110806591D01*
X141206000Y-110765110D01*
X141206000Y-110163890D01*
X141210085Y-110122409D01*
X141220393Y-110088431D01*
X141237134Y-110057110D01*
X141259661Y-110029661D01*
X141287110Y-110007134D01*
X141318431Y-109990393D01*
X141352409Y-109980085D01*
X141393890Y-109976000D01*
X142070110Y-109976000D01*
X142111591Y-109980085D01*
G37*
G36*
X150493591Y-109954585D02*
G01*
X150527569Y-109964893D01*
X150558890Y-109981634D01*
X150586339Y-110004161D01*
X150608866Y-110031610D01*
X150625607Y-110062931D01*
X150635915Y-110096909D01*
X150640000Y-110138390D01*
X150640000Y-110739610D01*
X150635915Y-110781091D01*
X150625607Y-110815069D01*
X150608866Y-110846390D01*
X150586339Y-110873839D01*
X150558890Y-110896366D01*
X150527569Y-110913107D01*
X150493591Y-110923415D01*
X150452110Y-110927500D01*
X149775890Y-110927500D01*
X149734409Y-110923415D01*
X149700431Y-110913107D01*
X149669110Y-110896366D01*
X149641661Y-110873839D01*
X149619134Y-110846390D01*
X149602393Y-110815069D01*
X149592085Y-110781091D01*
X149588000Y-110739610D01*
X149588000Y-110138390D01*
X149592085Y-110096909D01*
X149602393Y-110062931D01*
X149619134Y-110031610D01*
X149641661Y-110004161D01*
X149669110Y-109981634D01*
X149700431Y-109964893D01*
X149734409Y-109954585D01*
X149775890Y-109950500D01*
X150452110Y-109950500D01*
X150493591Y-109954585D01*
G37*
G36*
X138026198Y-108914401D02*
G01*
X138107618Y-108922420D01*
X138198404Y-108949960D01*
X138230336Y-108959646D01*
X138343425Y-109020094D01*
X138442554Y-109101446D01*
X138523906Y-109200575D01*
X138584354Y-109313664D01*
X138584355Y-109313668D01*
X138621580Y-109436382D01*
X138634149Y-109564000D01*
X138621580Y-109691618D01*
X138594040Y-109782404D01*
X138584354Y-109814336D01*
X138523906Y-109927425D01*
X138442554Y-110026554D01*
X138343425Y-110107906D01*
X138230336Y-110168354D01*
X138198404Y-110178040D01*
X138107618Y-110205580D01*
X138043855Y-110211860D01*
X138011974Y-110215000D01*
X137148026Y-110215000D01*
X137116145Y-110211860D01*
X137052382Y-110205580D01*
X136961596Y-110178040D01*
X136929664Y-110168354D01*
X136816575Y-110107906D01*
X136717446Y-110026554D01*
X136636094Y-109927425D01*
X136575646Y-109814336D01*
X136565960Y-109782404D01*
X136538420Y-109691618D01*
X136525851Y-109564000D01*
X136538420Y-109436382D01*
X136575645Y-109313668D01*
X136575646Y-109313664D01*
X136636094Y-109200575D01*
X136717446Y-109101446D01*
X136816575Y-109020094D01*
X136929664Y-108959646D01*
X136961596Y-108949960D01*
X137052382Y-108922420D01*
X137133802Y-108914401D01*
X137148026Y-108913000D01*
X138011974Y-108913000D01*
X138026198Y-108914401D01*
G37*
G36*
X117706198Y-108914401D02*
G01*
X117787618Y-108922420D01*
X117878404Y-108949960D01*
X117910336Y-108959646D01*
X118023425Y-109020094D01*
X118122554Y-109101446D01*
X118203906Y-109200575D01*
X118264354Y-109313664D01*
X118264355Y-109313668D01*
X118301580Y-109436382D01*
X118314149Y-109564000D01*
X118301580Y-109691618D01*
X118274040Y-109782404D01*
X118264354Y-109814336D01*
X118203906Y-109927425D01*
X118122554Y-110026554D01*
X118023425Y-110107906D01*
X117910336Y-110168354D01*
X117878404Y-110178040D01*
X117787618Y-110205580D01*
X117723855Y-110211860D01*
X117691974Y-110215000D01*
X116828026Y-110215000D01*
X116796145Y-110211860D01*
X116732382Y-110205580D01*
X116641596Y-110178040D01*
X116609664Y-110168354D01*
X116496575Y-110107906D01*
X116397446Y-110026554D01*
X116316094Y-109927425D01*
X116255646Y-109814336D01*
X116245960Y-109782404D01*
X116218420Y-109691618D01*
X116205851Y-109564000D01*
X116218420Y-109436382D01*
X116255645Y-109313668D01*
X116255646Y-109313664D01*
X116316094Y-109200575D01*
X116397446Y-109101446D01*
X116496575Y-109020094D01*
X116609664Y-108959646D01*
X116641596Y-108949960D01*
X116732382Y-108922420D01*
X116813802Y-108914401D01*
X116828026Y-108913000D01*
X117691974Y-108913000D01*
X117706198Y-108914401D01*
G37*
G36*
X143217091Y-108063085D02*
G01*
X143251069Y-108073393D01*
X143282390Y-108090134D01*
X143309839Y-108112661D01*
X143332366Y-108140110D01*
X143349107Y-108171431D01*
X143359415Y-108205409D01*
X143363500Y-108246890D01*
X143363500Y-108923110D01*
X143359415Y-108964591D01*
X143349107Y-108998569D01*
X143332366Y-109029890D01*
X143309839Y-109057339D01*
X143282390Y-109079866D01*
X143251069Y-109096607D01*
X143217091Y-109106915D01*
X143175610Y-109111000D01*
X142574390Y-109111000D01*
X142532909Y-109106915D01*
X142498931Y-109096607D01*
X142467610Y-109079866D01*
X142440161Y-109057339D01*
X142417634Y-109029890D01*
X142400893Y-108998569D01*
X142390585Y-108964591D01*
X142386500Y-108923110D01*
X142386500Y-108246890D01*
X142390585Y-108205409D01*
X142400893Y-108171431D01*
X142417634Y-108140110D01*
X142440161Y-108112661D01*
X142467610Y-108090134D01*
X142498931Y-108073393D01*
X142532909Y-108063085D01*
X142574390Y-108059000D01*
X143175610Y-108059000D01*
X143217091Y-108063085D01*
G37*
G36*
X141642091Y-108063085D02*
G01*
X141676069Y-108073393D01*
X141707390Y-108090134D01*
X141734839Y-108112661D01*
X141757366Y-108140110D01*
X141774107Y-108171431D01*
X141784415Y-108205409D01*
X141788500Y-108246890D01*
X141788500Y-108923110D01*
X141784415Y-108964591D01*
X141774107Y-108998569D01*
X141757366Y-109029890D01*
X141734839Y-109057339D01*
X141707390Y-109079866D01*
X141676069Y-109096607D01*
X141642091Y-109106915D01*
X141600610Y-109111000D01*
X140999390Y-109111000D01*
X140957909Y-109106915D01*
X140923931Y-109096607D01*
X140892610Y-109079866D01*
X140865161Y-109057339D01*
X140842634Y-109029890D01*
X140825893Y-108998569D01*
X140815585Y-108964591D01*
X140811500Y-108923110D01*
X140811500Y-108246890D01*
X140815585Y-108205409D01*
X140825893Y-108171431D01*
X140842634Y-108140110D01*
X140865161Y-108112661D01*
X140892610Y-108090134D01*
X140923931Y-108073393D01*
X140957909Y-108063085D01*
X140999390Y-108059000D01*
X141600610Y-108059000D01*
X141642091Y-108063085D01*
G37*
G36*
X166180727Y-105325890D02*
G01*
X166226903Y-105335075D01*
X166454571Y-105429378D01*
X166659466Y-105566285D01*
X166833715Y-105740534D01*
X166833716Y-105740536D01*
X166970623Y-105945431D01*
X167064925Y-106173097D01*
X167113000Y-106414786D01*
X167113000Y-106661214D01*
X167090632Y-106773664D01*
X167064925Y-106902903D01*
X166970622Y-107130571D01*
X166833715Y-107335466D01*
X166659466Y-107509715D01*
X166454571Y-107646622D01*
X166454570Y-107646623D01*
X166454569Y-107646623D01*
X166226903Y-107740925D01*
X165985214Y-107789000D01*
X165738786Y-107789000D01*
X165497097Y-107740925D01*
X165269431Y-107646623D01*
X165269430Y-107646623D01*
X165269429Y-107646622D01*
X165064534Y-107509715D01*
X164890285Y-107335466D01*
X164753378Y-107130571D01*
X164659075Y-106902903D01*
X164633368Y-106773664D01*
X164611000Y-106661214D01*
X164611000Y-106414786D01*
X164659075Y-106173097D01*
X164753377Y-105945431D01*
X164890284Y-105740536D01*
X164890285Y-105740534D01*
X165064534Y-105566285D01*
X165269429Y-105429378D01*
X165497097Y-105335075D01*
X165543273Y-105325890D01*
X165738786Y-105287000D01*
X165985214Y-105287000D01*
X166180727Y-105325890D01*
G37*
G36*
X138043855Y-106376140D02*
G01*
X138107618Y-106382420D01*
X138198404Y-106409960D01*
X138230336Y-106419646D01*
X138343425Y-106480094D01*
X138442554Y-106561446D01*
X138523906Y-106660575D01*
X138584354Y-106773664D01*
X138584355Y-106773668D01*
X138621580Y-106896382D01*
X138634149Y-107024000D01*
X138621580Y-107151618D01*
X138594040Y-107242404D01*
X138584354Y-107274336D01*
X138523906Y-107387425D01*
X138442554Y-107486554D01*
X138343425Y-107567906D01*
X138230336Y-107628354D01*
X138198404Y-107638040D01*
X138107618Y-107665580D01*
X138043855Y-107671860D01*
X138011974Y-107675000D01*
X137148026Y-107675000D01*
X137116145Y-107671860D01*
X137052382Y-107665580D01*
X136961596Y-107638040D01*
X136929664Y-107628354D01*
X136816575Y-107567906D01*
X136717446Y-107486554D01*
X136636094Y-107387425D01*
X136575646Y-107274336D01*
X136565960Y-107242404D01*
X136538420Y-107151618D01*
X136525851Y-107024000D01*
X136538420Y-106896382D01*
X136575645Y-106773668D01*
X136575646Y-106773664D01*
X136636094Y-106660575D01*
X136717446Y-106561446D01*
X136816575Y-106480094D01*
X136929664Y-106419646D01*
X136961596Y-106409960D01*
X137052382Y-106382420D01*
X137116145Y-106376140D01*
X137148026Y-106373000D01*
X138011974Y-106373000D01*
X138043855Y-106376140D01*
G37*
G36*
X117723855Y-106376140D02*
G01*
X117787618Y-106382420D01*
X117878404Y-106409960D01*
X117910336Y-106419646D01*
X118023425Y-106480094D01*
X118122554Y-106561446D01*
X118203906Y-106660575D01*
X118264354Y-106773664D01*
X118264355Y-106773668D01*
X118301580Y-106896382D01*
X118314149Y-107024000D01*
X118301580Y-107151618D01*
X118274040Y-107242404D01*
X118264354Y-107274336D01*
X118203906Y-107387425D01*
X118122554Y-107486554D01*
X118023425Y-107567906D01*
X117910336Y-107628354D01*
X117878404Y-107638040D01*
X117787618Y-107665580D01*
X117723855Y-107671860D01*
X117691974Y-107675000D01*
X116828026Y-107675000D01*
X116796145Y-107671860D01*
X116732382Y-107665580D01*
X116641596Y-107638040D01*
X116609664Y-107628354D01*
X116496575Y-107567906D01*
X116397446Y-107486554D01*
X116316094Y-107387425D01*
X116255646Y-107274336D01*
X116245960Y-107242404D01*
X116218420Y-107151618D01*
X116205851Y-107024000D01*
X116218420Y-106896382D01*
X116255645Y-106773668D01*
X116255646Y-106773664D01*
X116316094Y-106660575D01*
X116397446Y-106561446D01*
X116496575Y-106480094D01*
X116609664Y-106419646D01*
X116641596Y-106409960D01*
X116732382Y-106382420D01*
X116796145Y-106376140D01*
X116828026Y-106373000D01*
X117691974Y-106373000D01*
X117723855Y-106376140D01*
G37*
G36*
X160381928Y-106204764D02*
G01*
X160403009Y-106211160D01*
X160422445Y-106221548D01*
X160439476Y-106235524D01*
X160453452Y-106252555D01*
X160463840Y-106271991D01*
X160470236Y-106293072D01*
X160473000Y-106321140D01*
X160473000Y-106784860D01*
X160470236Y-106812928D01*
X160463840Y-106834009D01*
X160453452Y-106853445D01*
X160439476Y-106870476D01*
X160422445Y-106884452D01*
X160403009Y-106894840D01*
X160381928Y-106901236D01*
X160353860Y-106904000D01*
X158540140Y-106904000D01*
X158512072Y-106901236D01*
X158490991Y-106894840D01*
X158471555Y-106884452D01*
X158454524Y-106870476D01*
X158440548Y-106853445D01*
X158430160Y-106834009D01*
X158423764Y-106812928D01*
X158421000Y-106784860D01*
X158421000Y-106321140D01*
X158423764Y-106293072D01*
X158430160Y-106271991D01*
X158440548Y-106252555D01*
X158454524Y-106235524D01*
X158471555Y-106221548D01*
X158490991Y-106211160D01*
X158512072Y-106204764D01*
X158540140Y-106202000D01*
X160353860Y-106202000D01*
X160381928Y-106204764D01*
G37*
G36*
X155431928Y-106204764D02*
G01*
X155453009Y-106211160D01*
X155472445Y-106221548D01*
X155489476Y-106235524D01*
X155503452Y-106252555D01*
X155513840Y-106271991D01*
X155520236Y-106293072D01*
X155523000Y-106321140D01*
X155523000Y-106784860D01*
X155520236Y-106812928D01*
X155513840Y-106834009D01*
X155503452Y-106853445D01*
X155489476Y-106870476D01*
X155472445Y-106884452D01*
X155453009Y-106894840D01*
X155431928Y-106901236D01*
X155403860Y-106904000D01*
X153590140Y-106904000D01*
X153562072Y-106901236D01*
X153540991Y-106894840D01*
X153521555Y-106884452D01*
X153504524Y-106870476D01*
X153490548Y-106853445D01*
X153480160Y-106834009D01*
X153473764Y-106812928D01*
X153471000Y-106784860D01*
X153471000Y-106321140D01*
X153473764Y-106293072D01*
X153480160Y-106271991D01*
X153490548Y-106252555D01*
X153504524Y-106235524D01*
X153521555Y-106221548D01*
X153540991Y-106211160D01*
X153562072Y-106204764D01*
X153590140Y-106202000D01*
X155403860Y-106202000D01*
X155431928Y-106204764D01*
G37*
G36*
X151226000Y-106844000D02*
G01*
X149674000Y-106844000D01*
X149674000Y-104342000D01*
X151226000Y-104342000D01*
X151226000Y-106844000D01*
G37*
G36*
X146826000Y-106844000D02*
G01*
X145274000Y-106844000D01*
X145274000Y-104342000D01*
X146826000Y-104342000D01*
X146826000Y-106844000D01*
G37*
G36*
X143242591Y-105142085D02*
G01*
X143276569Y-105152393D01*
X143307890Y-105169134D01*
X143335339Y-105191661D01*
X143357866Y-105219110D01*
X143374607Y-105250431D01*
X143384915Y-105284409D01*
X143389000Y-105325890D01*
X143389000Y-106002110D01*
X143384915Y-106043591D01*
X143374607Y-106077569D01*
X143357866Y-106108890D01*
X143335339Y-106136339D01*
X143307890Y-106158866D01*
X143276569Y-106175607D01*
X143242591Y-106185915D01*
X143201110Y-106190000D01*
X142599890Y-106190000D01*
X142558409Y-106185915D01*
X142524431Y-106175607D01*
X142493110Y-106158866D01*
X142465661Y-106136339D01*
X142443134Y-106108890D01*
X142426393Y-106077569D01*
X142416085Y-106043591D01*
X142412000Y-106002110D01*
X142412000Y-105325890D01*
X142416085Y-105284409D01*
X142426393Y-105250431D01*
X142443134Y-105219110D01*
X142465661Y-105191661D01*
X142493110Y-105169134D01*
X142524431Y-105152393D01*
X142558409Y-105142085D01*
X142599890Y-105138000D01*
X143201110Y-105138000D01*
X143242591Y-105142085D01*
G37*
G36*
X141667591Y-105142085D02*
G01*
X141701569Y-105152393D01*
X141732890Y-105169134D01*
X141760339Y-105191661D01*
X141782866Y-105219110D01*
X141799607Y-105250431D01*
X141809915Y-105284409D01*
X141814000Y-105325890D01*
X141814000Y-106002110D01*
X141809915Y-106043591D01*
X141799607Y-106077569D01*
X141782866Y-106108890D01*
X141760339Y-106136339D01*
X141732890Y-106158866D01*
X141701569Y-106175607D01*
X141667591Y-106185915D01*
X141626110Y-106190000D01*
X141024890Y-106190000D01*
X140983409Y-106185915D01*
X140949431Y-106175607D01*
X140918110Y-106158866D01*
X140890661Y-106136339D01*
X140868134Y-106108890D01*
X140851393Y-106077569D01*
X140841085Y-106043591D01*
X140837000Y-106002110D01*
X140837000Y-105325890D01*
X140841085Y-105284409D01*
X140851393Y-105250431D01*
X140868134Y-105219110D01*
X140890661Y-105191661D01*
X140918110Y-105169134D01*
X140949431Y-105152393D01*
X140983409Y-105142085D01*
X141024890Y-105138000D01*
X141626110Y-105138000D01*
X141667591Y-105142085D01*
G37*
G36*
X155431928Y-104934764D02*
G01*
X155453009Y-104941160D01*
X155472445Y-104951548D01*
X155489476Y-104965524D01*
X155503452Y-104982555D01*
X155513840Y-105001991D01*
X155520236Y-105023072D01*
X155523000Y-105051140D01*
X155523000Y-105514860D01*
X155520236Y-105542928D01*
X155513840Y-105564009D01*
X155503452Y-105583445D01*
X155489476Y-105600476D01*
X155472445Y-105614452D01*
X155453009Y-105624840D01*
X155431928Y-105631236D01*
X155403860Y-105634000D01*
X153590140Y-105634000D01*
X153562072Y-105631236D01*
X153540991Y-105624840D01*
X153521555Y-105614452D01*
X153504524Y-105600476D01*
X153490548Y-105583445D01*
X153480160Y-105564009D01*
X153473764Y-105542928D01*
X153471000Y-105514860D01*
X153471000Y-105051140D01*
X153473764Y-105023072D01*
X153480160Y-105001991D01*
X153490548Y-104982555D01*
X153504524Y-104965524D01*
X153521555Y-104951548D01*
X153540991Y-104941160D01*
X153562072Y-104934764D01*
X153590140Y-104932000D01*
X155403860Y-104932000D01*
X155431928Y-104934764D01*
G37*
G36*
X160381928Y-104934764D02*
G01*
X160403009Y-104941160D01*
X160422445Y-104951548D01*
X160439476Y-104965524D01*
X160453452Y-104982555D01*
X160463840Y-105001991D01*
X160470236Y-105023072D01*
X160473000Y-105051140D01*
X160473000Y-105514860D01*
X160470236Y-105542928D01*
X160463840Y-105564009D01*
X160453452Y-105583445D01*
X160439476Y-105600476D01*
X160422445Y-105614452D01*
X160403009Y-105624840D01*
X160381928Y-105631236D01*
X160353860Y-105634000D01*
X158540140Y-105634000D01*
X158512072Y-105631236D01*
X158490991Y-105624840D01*
X158471555Y-105614452D01*
X158454524Y-105600476D01*
X158440548Y-105583445D01*
X158430160Y-105564009D01*
X158423764Y-105542928D01*
X158421000Y-105514860D01*
X158421000Y-105051140D01*
X158423764Y-105023072D01*
X158430160Y-105001991D01*
X158440548Y-104982555D01*
X158454524Y-104965524D01*
X158471555Y-104951548D01*
X158490991Y-104941160D01*
X158512072Y-104934764D01*
X158540140Y-104932000D01*
X160353860Y-104932000D01*
X160381928Y-104934764D01*
G37*
G36*
X117716991Y-103835464D02*
G01*
X117787618Y-103842420D01*
X117878404Y-103869960D01*
X117910336Y-103879646D01*
X118023425Y-103940094D01*
X118122554Y-104021446D01*
X118203906Y-104120575D01*
X118264354Y-104233664D01*
X118267750Y-104244860D01*
X118301580Y-104356382D01*
X118314149Y-104484000D01*
X118301580Y-104611618D01*
X118274040Y-104702404D01*
X118264354Y-104734336D01*
X118203906Y-104847425D01*
X118122554Y-104946554D01*
X118023425Y-105027906D01*
X117910336Y-105088354D01*
X117878404Y-105098040D01*
X117787618Y-105125580D01*
X117723855Y-105131860D01*
X117691974Y-105135000D01*
X116828026Y-105135000D01*
X116796145Y-105131860D01*
X116732382Y-105125580D01*
X116641596Y-105098040D01*
X116609664Y-105088354D01*
X116496575Y-105027906D01*
X116397446Y-104946554D01*
X116316094Y-104847425D01*
X116255646Y-104734336D01*
X116245960Y-104702404D01*
X116218420Y-104611618D01*
X116205851Y-104484000D01*
X116218420Y-104356382D01*
X116252250Y-104244860D01*
X116255646Y-104233664D01*
X116316094Y-104120575D01*
X116397446Y-104021446D01*
X116496575Y-103940094D01*
X116609664Y-103879646D01*
X116641596Y-103869960D01*
X116732382Y-103842420D01*
X116803009Y-103835464D01*
X116828026Y-103833000D01*
X117691974Y-103833000D01*
X117716991Y-103835464D01*
G37*
G36*
X138036991Y-103835464D02*
G01*
X138107618Y-103842420D01*
X138198404Y-103869960D01*
X138230336Y-103879646D01*
X138343425Y-103940094D01*
X138442554Y-104021446D01*
X138523906Y-104120575D01*
X138584354Y-104233664D01*
X138587750Y-104244860D01*
X138621580Y-104356382D01*
X138634149Y-104484000D01*
X138621580Y-104611618D01*
X138594040Y-104702404D01*
X138584354Y-104734336D01*
X138523906Y-104847425D01*
X138442554Y-104946554D01*
X138343425Y-105027906D01*
X138230336Y-105088354D01*
X138198404Y-105098040D01*
X138107618Y-105125580D01*
X138043855Y-105131860D01*
X138011974Y-105135000D01*
X137148026Y-105135000D01*
X137116145Y-105131860D01*
X137052382Y-105125580D01*
X136961596Y-105098040D01*
X136929664Y-105088354D01*
X136816575Y-105027906D01*
X136717446Y-104946554D01*
X136636094Y-104847425D01*
X136575646Y-104734336D01*
X136565960Y-104702404D01*
X136538420Y-104611618D01*
X136525851Y-104484000D01*
X136538420Y-104356382D01*
X136572250Y-104244860D01*
X136575646Y-104233664D01*
X136636094Y-104120575D01*
X136717446Y-104021446D01*
X136816575Y-103940094D01*
X136929664Y-103879646D01*
X136961596Y-103869960D01*
X137052382Y-103842420D01*
X137123009Y-103835464D01*
X137148026Y-103833000D01*
X138011974Y-103833000D01*
X138036991Y-103835464D01*
G37*
G36*
X160381928Y-103664764D02*
G01*
X160403009Y-103671160D01*
X160422445Y-103681548D01*
X160439476Y-103695524D01*
X160453452Y-103712555D01*
X160463840Y-103731991D01*
X160470236Y-103753072D01*
X160473000Y-103781140D01*
X160473000Y-104244860D01*
X160470236Y-104272928D01*
X160463840Y-104294009D01*
X160453452Y-104313445D01*
X160439476Y-104330476D01*
X160422445Y-104344452D01*
X160403009Y-104354840D01*
X160381928Y-104361236D01*
X160353860Y-104364000D01*
X158540140Y-104364000D01*
X158512072Y-104361236D01*
X158490991Y-104354840D01*
X158471555Y-104344452D01*
X158454524Y-104330476D01*
X158440548Y-104313445D01*
X158430160Y-104294009D01*
X158423764Y-104272928D01*
X158421000Y-104244860D01*
X158421000Y-103781140D01*
X158423764Y-103753072D01*
X158430160Y-103731991D01*
X158440548Y-103712555D01*
X158454524Y-103695524D01*
X158471555Y-103681548D01*
X158490991Y-103671160D01*
X158512072Y-103664764D01*
X158540140Y-103662000D01*
X160353860Y-103662000D01*
X160381928Y-103664764D01*
G37*
G36*
X155431928Y-103664764D02*
G01*
X155453009Y-103671160D01*
X155472445Y-103681548D01*
X155489476Y-103695524D01*
X155503452Y-103712555D01*
X155513840Y-103731991D01*
X155520236Y-103753072D01*
X155523000Y-103781140D01*
X155523000Y-104244860D01*
X155520236Y-104272928D01*
X155513840Y-104294009D01*
X155503452Y-104313445D01*
X155489476Y-104330476D01*
X155472445Y-104344452D01*
X155453009Y-104354840D01*
X155431928Y-104361236D01*
X155403860Y-104364000D01*
X153590140Y-104364000D01*
X153562072Y-104361236D01*
X153540991Y-104354840D01*
X153521555Y-104344452D01*
X153504524Y-104330476D01*
X153490548Y-104313445D01*
X153480160Y-104294009D01*
X153473764Y-104272928D01*
X153471000Y-104244860D01*
X153471000Y-103781140D01*
X153473764Y-103753072D01*
X153480160Y-103731991D01*
X153490548Y-103712555D01*
X153504524Y-103695524D01*
X153521555Y-103681548D01*
X153540991Y-103671160D01*
X153562072Y-103664764D01*
X153590140Y-103662000D01*
X155403860Y-103662000D01*
X155431928Y-103664764D01*
G37*
G36*
X166132927Y-101816382D02*
G01*
X166226903Y-101835075D01*
X166454571Y-101929378D01*
X166659466Y-102066285D01*
X166833715Y-102240534D01*
X166969268Y-102443403D01*
X166970623Y-102445431D01*
X166997840Y-102511140D01*
X167064925Y-102673097D01*
X167113000Y-102914787D01*
X167113000Y-103161213D01*
X167064925Y-103402903D01*
X166970622Y-103630571D01*
X166833715Y-103835466D01*
X166659466Y-104009715D01*
X166454571Y-104146622D01*
X166454570Y-104146623D01*
X166454569Y-104146623D01*
X166226903Y-104240925D01*
X165985214Y-104289000D01*
X165738786Y-104289000D01*
X165497097Y-104240925D01*
X165269431Y-104146623D01*
X165269430Y-104146623D01*
X165269429Y-104146622D01*
X165064534Y-104009715D01*
X164890285Y-103835466D01*
X164753378Y-103630571D01*
X164659075Y-103402903D01*
X164611000Y-103161213D01*
X164611000Y-102914787D01*
X164659075Y-102673097D01*
X164726160Y-102511140D01*
X164753377Y-102445431D01*
X164754732Y-102443403D01*
X164890285Y-102240534D01*
X165064534Y-102066285D01*
X165269429Y-101929378D01*
X165497097Y-101835075D01*
X165591073Y-101816382D01*
X165738786Y-101787000D01*
X165985214Y-101787000D01*
X166132927Y-101816382D01*
G37*
G36*
X160381928Y-102394764D02*
G01*
X160403009Y-102401160D01*
X160422445Y-102411548D01*
X160439476Y-102425524D01*
X160453452Y-102442555D01*
X160463840Y-102461991D01*
X160470236Y-102483072D01*
X160473000Y-102511140D01*
X160473000Y-102974860D01*
X160470236Y-103002928D01*
X160463840Y-103024009D01*
X160453452Y-103043445D01*
X160439476Y-103060476D01*
X160422445Y-103074452D01*
X160403009Y-103084840D01*
X160381928Y-103091236D01*
X160353860Y-103094000D01*
X158540140Y-103094000D01*
X158512072Y-103091236D01*
X158490991Y-103084840D01*
X158471555Y-103074452D01*
X158454524Y-103060476D01*
X158440548Y-103043445D01*
X158430160Y-103024009D01*
X158423764Y-103002928D01*
X158421000Y-102974860D01*
X158421000Y-102511140D01*
X158423764Y-102483072D01*
X158430160Y-102461991D01*
X158440548Y-102442555D01*
X158454524Y-102425524D01*
X158471555Y-102411548D01*
X158490991Y-102401160D01*
X158512072Y-102394764D01*
X158540140Y-102392000D01*
X160353860Y-102392000D01*
X160381928Y-102394764D01*
G37*
G36*
X155431928Y-102394764D02*
G01*
X155453009Y-102401160D01*
X155472445Y-102411548D01*
X155489476Y-102425524D01*
X155503452Y-102442555D01*
X155513840Y-102461991D01*
X155520236Y-102483072D01*
X155523000Y-102511140D01*
X155523000Y-102974860D01*
X155520236Y-103002928D01*
X155513840Y-103024009D01*
X155503452Y-103043445D01*
X155489476Y-103060476D01*
X155472445Y-103074452D01*
X155453009Y-103084840D01*
X155431928Y-103091236D01*
X155403860Y-103094000D01*
X153590140Y-103094000D01*
X153562072Y-103091236D01*
X153540991Y-103084840D01*
X153521555Y-103074452D01*
X153504524Y-103060476D01*
X153490548Y-103043445D01*
X153480160Y-103024009D01*
X153473764Y-103002928D01*
X153471000Y-102974860D01*
X153471000Y-102511140D01*
X153473764Y-102483072D01*
X153480160Y-102461991D01*
X153490548Y-102442555D01*
X153504524Y-102425524D01*
X153521555Y-102411548D01*
X153540991Y-102401160D01*
X153562072Y-102394764D01*
X153590140Y-102392000D01*
X155403860Y-102392000D01*
X155431928Y-102394764D01*
G37*
G36*
X138043855Y-101296140D02*
G01*
X138107618Y-101302420D01*
X138198404Y-101329960D01*
X138230336Y-101339646D01*
X138343425Y-101400094D01*
X138442554Y-101481446D01*
X138523906Y-101580575D01*
X138584354Y-101693664D01*
X138584355Y-101693668D01*
X138621580Y-101816382D01*
X138634149Y-101944000D01*
X138621580Y-102071618D01*
X138594040Y-102162404D01*
X138584354Y-102194336D01*
X138523906Y-102307425D01*
X138442554Y-102406554D01*
X138343425Y-102487906D01*
X138230336Y-102548354D01*
X138198404Y-102558040D01*
X138107618Y-102585580D01*
X138043855Y-102591860D01*
X138011974Y-102595000D01*
X137148026Y-102595000D01*
X137116145Y-102591860D01*
X137052382Y-102585580D01*
X136961596Y-102558040D01*
X136929664Y-102548354D01*
X136816575Y-102487906D01*
X136717446Y-102406554D01*
X136636094Y-102307425D01*
X136575646Y-102194336D01*
X136565960Y-102162404D01*
X136538420Y-102071618D01*
X136525851Y-101944000D01*
X136538420Y-101816382D01*
X136575645Y-101693668D01*
X136575646Y-101693664D01*
X136636094Y-101580575D01*
X136717446Y-101481446D01*
X136816575Y-101400094D01*
X136929664Y-101339646D01*
X136961596Y-101329960D01*
X137052382Y-101302420D01*
X137116145Y-101296140D01*
X137148026Y-101293000D01*
X138011974Y-101293000D01*
X138043855Y-101296140D01*
G37*
G36*
X117723855Y-101296140D02*
G01*
X117787618Y-101302420D01*
X117878404Y-101329960D01*
X117910336Y-101339646D01*
X118023425Y-101400094D01*
X118122554Y-101481446D01*
X118203906Y-101580575D01*
X118264354Y-101693664D01*
X118264355Y-101693668D01*
X118301580Y-101816382D01*
X118314149Y-101944000D01*
X118301580Y-102071618D01*
X118274040Y-102162404D01*
X118264354Y-102194336D01*
X118203906Y-102307425D01*
X118122554Y-102406554D01*
X118023425Y-102487906D01*
X117910336Y-102548354D01*
X117878404Y-102558040D01*
X117787618Y-102585580D01*
X117723855Y-102591860D01*
X117691974Y-102595000D01*
X116828026Y-102595000D01*
X116796145Y-102591860D01*
X116732382Y-102585580D01*
X116641596Y-102558040D01*
X116609664Y-102548354D01*
X116496575Y-102487906D01*
X116397446Y-102406554D01*
X116316094Y-102307425D01*
X116255646Y-102194336D01*
X116245960Y-102162404D01*
X116218420Y-102071618D01*
X116205851Y-101944000D01*
X116218420Y-101816382D01*
X116255645Y-101693668D01*
X116255646Y-101693664D01*
X116316094Y-101580575D01*
X116397446Y-101481446D01*
X116496575Y-101400094D01*
X116609664Y-101339646D01*
X116641596Y-101329960D01*
X116732382Y-101302420D01*
X116796145Y-101296140D01*
X116828026Y-101293000D01*
X117691974Y-101293000D01*
X117723855Y-101296140D01*
G37*
G36*
X143250228Y-100019703D02*
G01*
X143405100Y-100083853D01*
X143544481Y-100176985D01*
X143663015Y-100295519D01*
X143756147Y-100434900D01*
X143820297Y-100589772D01*
X143853000Y-100754184D01*
X143853000Y-100921816D01*
X143820297Y-101086228D01*
X143756147Y-101241100D01*
X143663015Y-101380481D01*
X143544481Y-101499015D01*
X143405100Y-101592147D01*
X143250228Y-101656297D01*
X143085816Y-101689000D01*
X142918184Y-101689000D01*
X142753772Y-101656297D01*
X142598900Y-101592147D01*
X142459519Y-101499015D01*
X142340985Y-101380481D01*
X142247853Y-101241100D01*
X142183703Y-101086228D01*
X142151000Y-100921816D01*
X142151000Y-100754184D01*
X142183703Y-100589772D01*
X142247853Y-100434900D01*
X142340985Y-100295519D01*
X142459519Y-100176985D01*
X142598900Y-100083853D01*
X142753772Y-100019703D01*
X142918184Y-99987000D01*
X143085816Y-99987000D01*
X143250228Y-100019703D01*
G37*
G36*
X150870228Y-100019703D02*
G01*
X151025100Y-100083853D01*
X151164481Y-100176985D01*
X151283015Y-100295519D01*
X151376147Y-100434900D01*
X151440297Y-100589772D01*
X151473000Y-100754184D01*
X151473000Y-100921816D01*
X151440297Y-101086228D01*
X151376147Y-101241100D01*
X151283015Y-101380481D01*
X151164481Y-101499015D01*
X151025100Y-101592147D01*
X150870228Y-101656297D01*
X150705816Y-101689000D01*
X150538184Y-101689000D01*
X150373772Y-101656297D01*
X150218900Y-101592147D01*
X150079519Y-101499015D01*
X149960985Y-101380481D01*
X149867853Y-101241100D01*
X149803703Y-101086228D01*
X149771000Y-100921816D01*
X149771000Y-100754184D01*
X149803703Y-100589772D01*
X149867853Y-100434900D01*
X149960985Y-100295519D01*
X150079519Y-100176985D01*
X150218900Y-100083853D01*
X150373772Y-100019703D01*
X150538184Y-99987000D01*
X150705816Y-99987000D01*
X150870228Y-100019703D01*
G37*
G36*
X159295091Y-99808085D02*
G01*
X159329069Y-99818393D01*
X159360390Y-99835134D01*
X159387839Y-99857661D01*
X159410366Y-99885110D01*
X159427107Y-99916431D01*
X159437415Y-99950409D01*
X159441500Y-99991890D01*
X159441500Y-100668110D01*
X159437415Y-100709591D01*
X159427107Y-100743569D01*
X159410366Y-100774890D01*
X159387839Y-100802339D01*
X159360390Y-100824866D01*
X159329069Y-100841607D01*
X159295091Y-100851915D01*
X159253610Y-100856000D01*
X158652390Y-100856000D01*
X158610909Y-100851915D01*
X158576931Y-100841607D01*
X158545610Y-100824866D01*
X158518161Y-100802339D01*
X158495634Y-100774890D01*
X158478893Y-100743569D01*
X158468585Y-100709591D01*
X158464500Y-100668110D01*
X158464500Y-99991890D01*
X158468585Y-99950409D01*
X158478893Y-99916431D01*
X158495634Y-99885110D01*
X158518161Y-99857661D01*
X158545610Y-99835134D01*
X158576931Y-99818393D01*
X158610909Y-99808085D01*
X158652390Y-99804000D01*
X159253610Y-99804000D01*
X159295091Y-99808085D01*
G37*
G36*
X160870091Y-99808085D02*
G01*
X160904069Y-99818393D01*
X160935390Y-99835134D01*
X160962839Y-99857661D01*
X160985366Y-99885110D01*
X161002107Y-99916431D01*
X161012415Y-99950409D01*
X161016500Y-99991890D01*
X161016500Y-100668110D01*
X161012415Y-100709591D01*
X161002107Y-100743569D01*
X160985366Y-100774890D01*
X160962839Y-100802339D01*
X160935390Y-100824866D01*
X160904069Y-100841607D01*
X160870091Y-100851915D01*
X160828610Y-100856000D01*
X160227390Y-100856000D01*
X160185909Y-100851915D01*
X160151931Y-100841607D01*
X160120610Y-100824866D01*
X160093161Y-100802339D01*
X160070634Y-100774890D01*
X160053893Y-100743569D01*
X160043585Y-100709591D01*
X160039500Y-100668110D01*
X160039500Y-99991890D01*
X160043585Y-99950409D01*
X160053893Y-99916431D01*
X160070634Y-99885110D01*
X160093161Y-99857661D01*
X160120610Y-99835134D01*
X160151931Y-99818393D01*
X160185909Y-99808085D01*
X160227390Y-99804000D01*
X160828610Y-99804000D01*
X160870091Y-99808085D01*
G37*
G36*
X138043855Y-98756140D02*
G01*
X138107618Y-98762420D01*
X138198404Y-98789960D01*
X138230336Y-98799646D01*
X138343425Y-98860094D01*
X138442554Y-98941446D01*
X138523906Y-99040575D01*
X138584354Y-99153664D01*
X138584355Y-99153668D01*
X138621580Y-99276382D01*
X138634149Y-99404000D01*
X138621580Y-99531618D01*
X138594040Y-99622404D01*
X138584354Y-99654336D01*
X138523906Y-99767425D01*
X138442554Y-99866554D01*
X138343425Y-99947906D01*
X138230336Y-100008354D01*
X138198404Y-100018040D01*
X138107618Y-100045580D01*
X138043855Y-100051860D01*
X138011974Y-100055000D01*
X137148026Y-100055000D01*
X137116145Y-100051860D01*
X137052382Y-100045580D01*
X136961596Y-100018040D01*
X136929664Y-100008354D01*
X136816575Y-99947906D01*
X136717446Y-99866554D01*
X136636094Y-99767425D01*
X136575646Y-99654336D01*
X136565960Y-99622404D01*
X136538420Y-99531618D01*
X136525851Y-99404000D01*
X136538420Y-99276382D01*
X136575645Y-99153668D01*
X136575646Y-99153664D01*
X136636094Y-99040575D01*
X136717446Y-98941446D01*
X136816575Y-98860094D01*
X136929664Y-98799646D01*
X136961596Y-98789960D01*
X137052382Y-98762420D01*
X137116145Y-98756140D01*
X137148026Y-98753000D01*
X138011974Y-98753000D01*
X138043855Y-98756140D01*
G37*
G36*
X117723855Y-98756140D02*
G01*
X117787618Y-98762420D01*
X117878404Y-98789960D01*
X117910336Y-98799646D01*
X118023425Y-98860094D01*
X118122554Y-98941446D01*
X118203906Y-99040575D01*
X118264354Y-99153664D01*
X118264355Y-99153668D01*
X118301580Y-99276382D01*
X118314149Y-99404000D01*
X118301580Y-99531618D01*
X118274040Y-99622404D01*
X118264354Y-99654336D01*
X118203906Y-99767425D01*
X118122554Y-99866554D01*
X118023425Y-99947906D01*
X117910336Y-100008354D01*
X117878404Y-100018040D01*
X117787618Y-100045580D01*
X117723855Y-100051860D01*
X117691974Y-100055000D01*
X116828026Y-100055000D01*
X116796145Y-100051860D01*
X116732382Y-100045580D01*
X116641596Y-100018040D01*
X116609664Y-100008354D01*
X116496575Y-99947906D01*
X116397446Y-99866554D01*
X116316094Y-99767425D01*
X116255646Y-99654336D01*
X116245960Y-99622404D01*
X116218420Y-99531618D01*
X116205851Y-99404000D01*
X116218420Y-99276382D01*
X116255645Y-99153668D01*
X116255646Y-99153664D01*
X116316094Y-99040575D01*
X116397446Y-98941446D01*
X116496575Y-98860094D01*
X116609664Y-98799646D01*
X116641596Y-98789960D01*
X116732382Y-98762420D01*
X116796145Y-98756140D01*
X116828026Y-98753000D01*
X117691974Y-98753000D01*
X117723855Y-98756140D01*
G37*
G36*
X156520000Y-99961000D02*
G01*
X155768000Y-99961000D01*
X155768000Y-99459000D01*
X156520000Y-99459000D01*
X156520000Y-99961000D01*
G37*
G36*
X154620000Y-99961000D02*
G01*
X153868000Y-99961000D01*
X153868000Y-98159000D01*
X154620000Y-98159000D01*
X154620000Y-99961000D01*
G37*
G36*
X143250228Y-97479703D02*
G01*
X143405100Y-97543853D01*
X143544481Y-97636985D01*
X143663015Y-97755519D01*
X143756147Y-97894900D01*
X143820297Y-98049772D01*
X143853000Y-98214184D01*
X143853000Y-98381816D01*
X143820297Y-98546228D01*
X143756147Y-98701100D01*
X143663015Y-98840481D01*
X143544481Y-98959015D01*
X143405100Y-99052147D01*
X143250228Y-99116297D01*
X143085816Y-99149000D01*
X142918184Y-99149000D01*
X142753772Y-99116297D01*
X142598900Y-99052147D01*
X142459519Y-98959015D01*
X142340985Y-98840481D01*
X142247853Y-98701100D01*
X142183703Y-98546228D01*
X142151000Y-98381816D01*
X142151000Y-98214184D01*
X142183703Y-98049772D01*
X142247853Y-97894900D01*
X142340985Y-97755519D01*
X142459519Y-97636985D01*
X142598900Y-97543853D01*
X142753772Y-97479703D01*
X142918184Y-97447000D01*
X143085816Y-97447000D01*
X143250228Y-97479703D01*
G37*
G36*
X150870228Y-97479703D02*
G01*
X151025100Y-97543853D01*
X151164481Y-97636985D01*
X151283015Y-97755519D01*
X151376147Y-97894900D01*
X151440297Y-98049772D01*
X151473000Y-98214184D01*
X151473000Y-98381816D01*
X151440297Y-98546228D01*
X151376147Y-98701100D01*
X151283015Y-98840481D01*
X151164481Y-98959015D01*
X151025100Y-99052147D01*
X150870228Y-99116297D01*
X150705816Y-99149000D01*
X150538184Y-99149000D01*
X150373772Y-99116297D01*
X150218900Y-99052147D01*
X150079519Y-98959015D01*
X149960985Y-98840481D01*
X149867853Y-98701100D01*
X149803703Y-98546228D01*
X149771000Y-98381816D01*
X149771000Y-98214184D01*
X149803703Y-98049772D01*
X149867853Y-97894900D01*
X149960985Y-97755519D01*
X150079519Y-97636985D01*
X150218900Y-97543853D01*
X150373772Y-97479703D01*
X150538184Y-97447000D01*
X150705816Y-97447000D01*
X150870228Y-97479703D01*
G37*
G36*
X156520000Y-98661000D02*
G01*
X155768000Y-98661000D01*
X155768000Y-98159000D01*
X156520000Y-98159000D01*
X156520000Y-98661000D01*
G37*
G36*
X160870091Y-96760085D02*
G01*
X160904069Y-96770393D01*
X160935390Y-96787134D01*
X160962839Y-96809661D01*
X160985366Y-96837110D01*
X161002107Y-96868431D01*
X161012415Y-96902409D01*
X161016500Y-96943890D01*
X161016500Y-97620110D01*
X161012415Y-97661591D01*
X161002107Y-97695569D01*
X160985366Y-97726890D01*
X160962839Y-97754339D01*
X160935390Y-97776866D01*
X160904069Y-97793607D01*
X160870091Y-97803915D01*
X160828610Y-97808000D01*
X160227390Y-97808000D01*
X160185909Y-97803915D01*
X160151931Y-97793607D01*
X160120610Y-97776866D01*
X160093161Y-97754339D01*
X160070634Y-97726890D01*
X160053893Y-97695569D01*
X160043585Y-97661591D01*
X160039500Y-97620110D01*
X160039500Y-96943890D01*
X160043585Y-96902409D01*
X160053893Y-96868431D01*
X160070634Y-96837110D01*
X160093161Y-96809661D01*
X160120610Y-96787134D01*
X160151931Y-96770393D01*
X160185909Y-96760085D01*
X160227390Y-96756000D01*
X160828610Y-96756000D01*
X160870091Y-96760085D01*
G37*
G36*
X159295091Y-96760085D02*
G01*
X159329069Y-96770393D01*
X159360390Y-96787134D01*
X159387839Y-96809661D01*
X159410366Y-96837110D01*
X159427107Y-96868431D01*
X159437415Y-96902409D01*
X159441500Y-96943890D01*
X159441500Y-97620110D01*
X159437415Y-97661591D01*
X159427107Y-97695569D01*
X159410366Y-97726890D01*
X159387839Y-97754339D01*
X159360390Y-97776866D01*
X159329069Y-97793607D01*
X159295091Y-97803915D01*
X159253610Y-97808000D01*
X158652390Y-97808000D01*
X158610909Y-97803915D01*
X158576931Y-97793607D01*
X158545610Y-97776866D01*
X158518161Y-97754339D01*
X158495634Y-97726890D01*
X158478893Y-97695569D01*
X158468585Y-97661591D01*
X158464500Y-97620110D01*
X158464500Y-96943890D01*
X158468585Y-96902409D01*
X158478893Y-96868431D01*
X158495634Y-96837110D01*
X158518161Y-96809661D01*
X158545610Y-96787134D01*
X158576931Y-96770393D01*
X158610909Y-96760085D01*
X158652390Y-96756000D01*
X159253610Y-96756000D01*
X159295091Y-96760085D01*
G37*
G36*
X167113000Y-97517000D02*
G01*
X164611000Y-97517000D01*
X164611000Y-95015000D01*
X167113000Y-95015000D01*
X167113000Y-97517000D01*
G37*
G36*
X138043855Y-96216140D02*
G01*
X138107618Y-96222420D01*
X138198404Y-96249960D01*
X138230336Y-96259646D01*
X138343425Y-96320094D01*
X138442554Y-96401446D01*
X138523906Y-96500575D01*
X138584354Y-96613664D01*
X138584355Y-96613668D01*
X138621580Y-96736382D01*
X138634149Y-96864000D01*
X138621580Y-96991618D01*
X138594040Y-97082404D01*
X138584354Y-97114336D01*
X138523906Y-97227425D01*
X138442554Y-97326554D01*
X138343425Y-97407906D01*
X138230336Y-97468354D01*
X138198404Y-97478040D01*
X138107618Y-97505580D01*
X138043855Y-97511860D01*
X138011974Y-97515000D01*
X137148026Y-97515000D01*
X137116145Y-97511860D01*
X137052382Y-97505580D01*
X136961596Y-97478040D01*
X136929664Y-97468354D01*
X136816575Y-97407906D01*
X136717446Y-97326554D01*
X136636094Y-97227425D01*
X136575646Y-97114336D01*
X136565960Y-97082404D01*
X136538420Y-96991618D01*
X136525851Y-96864000D01*
X136538420Y-96736382D01*
X136575645Y-96613668D01*
X136575646Y-96613664D01*
X136636094Y-96500575D01*
X136717446Y-96401446D01*
X136816575Y-96320094D01*
X136929664Y-96259646D01*
X136961596Y-96249960D01*
X137052382Y-96222420D01*
X137116145Y-96216140D01*
X137148026Y-96213000D01*
X138011974Y-96213000D01*
X138043855Y-96216140D01*
G37*
G36*
X117723855Y-96216140D02*
G01*
X117787618Y-96222420D01*
X117878404Y-96249960D01*
X117910336Y-96259646D01*
X118023425Y-96320094D01*
X118122554Y-96401446D01*
X118203906Y-96500575D01*
X118264354Y-96613664D01*
X118264355Y-96613668D01*
X118301580Y-96736382D01*
X118314149Y-96864000D01*
X118301580Y-96991618D01*
X118274040Y-97082404D01*
X118264354Y-97114336D01*
X118203906Y-97227425D01*
X118122554Y-97326554D01*
X118023425Y-97407906D01*
X117910336Y-97468354D01*
X117878404Y-97478040D01*
X117787618Y-97505580D01*
X117723855Y-97511860D01*
X117691974Y-97515000D01*
X116828026Y-97515000D01*
X116796145Y-97511860D01*
X116732382Y-97505580D01*
X116641596Y-97478040D01*
X116609664Y-97468354D01*
X116496575Y-97407906D01*
X116397446Y-97326554D01*
X116316094Y-97227425D01*
X116255646Y-97114336D01*
X116245960Y-97082404D01*
X116218420Y-96991618D01*
X116205851Y-96864000D01*
X116218420Y-96736382D01*
X116255645Y-96613668D01*
X116255646Y-96613664D01*
X116316094Y-96500575D01*
X116397446Y-96401446D01*
X116496575Y-96320094D01*
X116609664Y-96259646D01*
X116641596Y-96249960D01*
X116732382Y-96222420D01*
X116796145Y-96216140D01*
X116828026Y-96213000D01*
X117691974Y-96213000D01*
X117723855Y-96216140D01*
G37*
G36*
X150870228Y-94939703D02*
G01*
X151025100Y-95003853D01*
X151164481Y-95096985D01*
X151283015Y-95215519D01*
X151376147Y-95354900D01*
X151440297Y-95509772D01*
X151473000Y-95674184D01*
X151473000Y-95841816D01*
X151440297Y-96006228D01*
X151376147Y-96161100D01*
X151283015Y-96300481D01*
X151164481Y-96419015D01*
X151025100Y-96512147D01*
X150870228Y-96576297D01*
X150705816Y-96609000D01*
X150538184Y-96609000D01*
X150373772Y-96576297D01*
X150218900Y-96512147D01*
X150079519Y-96419015D01*
X149960985Y-96300481D01*
X149867853Y-96161100D01*
X149803703Y-96006228D01*
X149771000Y-95841816D01*
X149771000Y-95674184D01*
X149803703Y-95509772D01*
X149867853Y-95354900D01*
X149960985Y-95215519D01*
X150079519Y-95096985D01*
X150218900Y-95003853D01*
X150373772Y-94939703D01*
X150538184Y-94907000D01*
X150705816Y-94907000D01*
X150870228Y-94939703D01*
G37*
G36*
X143250228Y-94939703D02*
G01*
X143405100Y-95003853D01*
X143544481Y-95096985D01*
X143663015Y-95215519D01*
X143756147Y-95354900D01*
X143820297Y-95509772D01*
X143853000Y-95674184D01*
X143853000Y-95841816D01*
X143820297Y-96006228D01*
X143756147Y-96161100D01*
X143663015Y-96300481D01*
X143544481Y-96419015D01*
X143405100Y-96512147D01*
X143250228Y-96576297D01*
X143085816Y-96609000D01*
X142918184Y-96609000D01*
X142753772Y-96576297D01*
X142598900Y-96512147D01*
X142459519Y-96419015D01*
X142340985Y-96300481D01*
X142247853Y-96161100D01*
X142183703Y-96006228D01*
X142151000Y-95841816D01*
X142151000Y-95674184D01*
X142183703Y-95509772D01*
X142247853Y-95354900D01*
X142340985Y-95215519D01*
X142459519Y-95096985D01*
X142598900Y-95003853D01*
X142753772Y-94939703D01*
X142918184Y-94907000D01*
X143085816Y-94907000D01*
X143250228Y-94939703D01*
G37*
G36*
X154591000Y-95306000D02*
G01*
X153429000Y-95306000D01*
X153429000Y-92654000D01*
X154591000Y-92654000D01*
X154591000Y-95306000D01*
G37*
G36*
X156791000Y-95306000D02*
G01*
X155629000Y-95306000D01*
X155629000Y-94554000D01*
X156791000Y-94554000D01*
X156791000Y-95306000D01*
G37*
G36*
X138043855Y-93676140D02*
G01*
X138107618Y-93682420D01*
X138191944Y-93708000D01*
X138230336Y-93719646D01*
X138343425Y-93780094D01*
X138442554Y-93861446D01*
X138523906Y-93960575D01*
X138584354Y-94073664D01*
X138584355Y-94073668D01*
X138621580Y-94196382D01*
X138634149Y-94324000D01*
X138621580Y-94451618D01*
X138602126Y-94515750D01*
X138584354Y-94574336D01*
X138523906Y-94687425D01*
X138442554Y-94786554D01*
X138343425Y-94867906D01*
X138230336Y-94928354D01*
X138198404Y-94938040D01*
X138107618Y-94965580D01*
X138043855Y-94971860D01*
X138011974Y-94975000D01*
X137148026Y-94975000D01*
X137116145Y-94971860D01*
X137052382Y-94965580D01*
X136961596Y-94938040D01*
X136929664Y-94928354D01*
X136816575Y-94867906D01*
X136717446Y-94786554D01*
X136636094Y-94687425D01*
X136575646Y-94574336D01*
X136557874Y-94515750D01*
X136538420Y-94451618D01*
X136525851Y-94324000D01*
X136538420Y-94196382D01*
X136575645Y-94073668D01*
X136575646Y-94073664D01*
X136636094Y-93960575D01*
X136717446Y-93861446D01*
X136816575Y-93780094D01*
X136929664Y-93719646D01*
X136968056Y-93708000D01*
X137052382Y-93682420D01*
X137116145Y-93676140D01*
X137148026Y-93673000D01*
X138011974Y-93673000D01*
X138043855Y-93676140D01*
G37*
G36*
X117723855Y-93676140D02*
G01*
X117787618Y-93682420D01*
X117871944Y-93708000D01*
X117910336Y-93719646D01*
X118023425Y-93780094D01*
X118122554Y-93861446D01*
X118203906Y-93960575D01*
X118264354Y-94073664D01*
X118264355Y-94073668D01*
X118301580Y-94196382D01*
X118314149Y-94324000D01*
X118301580Y-94451618D01*
X118282126Y-94515750D01*
X118264354Y-94574336D01*
X118203906Y-94687425D01*
X118122554Y-94786554D01*
X118023425Y-94867906D01*
X117910336Y-94928354D01*
X117878404Y-94938040D01*
X117787618Y-94965580D01*
X117723855Y-94971860D01*
X117691974Y-94975000D01*
X116828026Y-94975000D01*
X116796145Y-94971860D01*
X116732382Y-94965580D01*
X116641596Y-94938040D01*
X116609664Y-94928354D01*
X116496575Y-94867906D01*
X116397446Y-94786554D01*
X116316094Y-94687425D01*
X116255646Y-94574336D01*
X116237874Y-94515750D01*
X116218420Y-94451618D01*
X116205851Y-94324000D01*
X116218420Y-94196382D01*
X116255645Y-94073668D01*
X116255646Y-94073664D01*
X116316094Y-93960575D01*
X116397446Y-93861446D01*
X116496575Y-93780094D01*
X116609664Y-93719646D01*
X116648056Y-93708000D01*
X116732382Y-93682420D01*
X116796145Y-93676140D01*
X116828026Y-93673000D01*
X117691974Y-93673000D01*
X117723855Y-93676140D01*
G37*
G36*
X160870091Y-93712085D02*
G01*
X160904069Y-93722393D01*
X160935390Y-93739134D01*
X160962839Y-93761661D01*
X160985366Y-93789110D01*
X161002107Y-93820431D01*
X161012415Y-93854409D01*
X161016500Y-93895890D01*
X161016500Y-94572110D01*
X161012415Y-94613591D01*
X161002107Y-94647569D01*
X160985366Y-94678890D01*
X160962839Y-94706339D01*
X160935390Y-94728866D01*
X160904069Y-94745607D01*
X160870091Y-94755915D01*
X160828610Y-94760000D01*
X160227390Y-94760000D01*
X160185909Y-94755915D01*
X160151931Y-94745607D01*
X160120610Y-94728866D01*
X160093161Y-94706339D01*
X160070634Y-94678890D01*
X160053893Y-94647569D01*
X160043585Y-94613591D01*
X160039500Y-94572110D01*
X160039500Y-93895890D01*
X160043585Y-93854409D01*
X160053893Y-93820431D01*
X160070634Y-93789110D01*
X160093161Y-93761661D01*
X160120610Y-93739134D01*
X160151931Y-93722393D01*
X160185909Y-93712085D01*
X160227390Y-93708000D01*
X160828610Y-93708000D01*
X160870091Y-93712085D01*
G37*
G36*
X159295091Y-93712085D02*
G01*
X159329069Y-93722393D01*
X159360390Y-93739134D01*
X159387839Y-93761661D01*
X159410366Y-93789110D01*
X159427107Y-93820431D01*
X159437415Y-93854409D01*
X159441500Y-93895890D01*
X159441500Y-94572110D01*
X159437415Y-94613591D01*
X159427107Y-94647569D01*
X159410366Y-94678890D01*
X159387839Y-94706339D01*
X159360390Y-94728866D01*
X159329069Y-94745607D01*
X159295091Y-94755915D01*
X159253610Y-94760000D01*
X158652390Y-94760000D01*
X158610909Y-94755915D01*
X158576931Y-94745607D01*
X158545610Y-94728866D01*
X158518161Y-94706339D01*
X158495634Y-94678890D01*
X158478893Y-94647569D01*
X158468585Y-94613591D01*
X158464500Y-94572110D01*
X158464500Y-93895890D01*
X158468585Y-93854409D01*
X158478893Y-93820431D01*
X158495634Y-93789110D01*
X158518161Y-93761661D01*
X158545610Y-93739134D01*
X158576931Y-93722393D01*
X158610909Y-93712085D01*
X158652390Y-93708000D01*
X159253610Y-93708000D01*
X159295091Y-93712085D01*
G37*
G36*
X150870228Y-92399703D02*
G01*
X151025100Y-92463853D01*
X151164481Y-92556985D01*
X151283015Y-92675519D01*
X151376147Y-92814900D01*
X151440297Y-92969772D01*
X151473000Y-93134184D01*
X151473000Y-93301816D01*
X151440297Y-93466228D01*
X151376147Y-93621100D01*
X151283015Y-93760481D01*
X151164481Y-93879015D01*
X151025100Y-93972147D01*
X150870228Y-94036297D01*
X150705816Y-94069000D01*
X150538184Y-94069000D01*
X150373772Y-94036297D01*
X150218900Y-93972147D01*
X150079519Y-93879015D01*
X149960985Y-93760481D01*
X149867853Y-93621100D01*
X149803703Y-93466228D01*
X149771000Y-93301816D01*
X149771000Y-93134184D01*
X149803703Y-92969772D01*
X149867853Y-92814900D01*
X149960985Y-92675519D01*
X150079519Y-92556985D01*
X150218900Y-92463853D01*
X150373772Y-92399703D01*
X150538184Y-92367000D01*
X150705816Y-92367000D01*
X150870228Y-92399703D01*
G37*
G36*
X143853000Y-94069000D02*
G01*
X142151000Y-94069000D01*
X142151000Y-92367000D01*
X143853000Y-92367000D01*
X143853000Y-94069000D01*
G37*
G36*
X166226903Y-91563075D02*
G01*
X166452172Y-91656384D01*
X166454571Y-91657378D01*
X166659466Y-91794285D01*
X166833715Y-91968534D01*
X166970622Y-92173429D01*
X167064925Y-92401097D01*
X167113000Y-92642787D01*
X167113000Y-92889213D01*
X167064925Y-93130903D01*
X166970622Y-93358571D01*
X166833715Y-93563466D01*
X166659466Y-93737715D01*
X166454571Y-93874622D01*
X166454570Y-93874623D01*
X166454569Y-93874623D01*
X166226903Y-93968925D01*
X165985214Y-94017000D01*
X165738786Y-94017000D01*
X165497097Y-93968925D01*
X165269431Y-93874623D01*
X165269430Y-93874623D01*
X165269429Y-93874622D01*
X165064534Y-93737715D01*
X164890285Y-93563466D01*
X164753378Y-93358571D01*
X164659075Y-93130903D01*
X164611000Y-92889213D01*
X164611000Y-92642787D01*
X164659075Y-92401097D01*
X164753378Y-92173429D01*
X164890285Y-91968534D01*
X165064534Y-91794285D01*
X165269429Y-91657378D01*
X165271829Y-91656384D01*
X165497097Y-91563075D01*
X165738786Y-91515000D01*
X165985214Y-91515000D01*
X166226903Y-91563075D01*
G37*
G36*
X156791000Y-93406000D02*
G01*
X155629000Y-93406000D01*
X155629000Y-92654000D01*
X156791000Y-92654000D01*
X156791000Y-93406000D01*
G37*
G36*
X117723855Y-91136140D02*
G01*
X117787618Y-91142420D01*
X117878404Y-91169960D01*
X117910336Y-91179646D01*
X118023425Y-91240094D01*
X118122554Y-91321446D01*
X118203906Y-91420575D01*
X118264354Y-91533664D01*
X118264355Y-91533668D01*
X118301580Y-91656382D01*
X118314149Y-91784000D01*
X118301580Y-91911618D01*
X118284314Y-91968536D01*
X118264354Y-92034336D01*
X118203906Y-92147425D01*
X118122554Y-92246554D01*
X118023425Y-92327906D01*
X117910336Y-92388354D01*
X117878404Y-92398040D01*
X117787618Y-92425580D01*
X117723855Y-92431860D01*
X117691974Y-92435000D01*
X116828026Y-92435000D01*
X116796145Y-92431860D01*
X116732382Y-92425580D01*
X116641596Y-92398040D01*
X116609664Y-92388354D01*
X116496575Y-92327906D01*
X116397446Y-92246554D01*
X116316094Y-92147425D01*
X116255646Y-92034336D01*
X116235686Y-91968536D01*
X116218420Y-91911618D01*
X116205851Y-91784000D01*
X116218420Y-91656382D01*
X116255645Y-91533668D01*
X116255646Y-91533664D01*
X116316094Y-91420575D01*
X116397446Y-91321446D01*
X116496575Y-91240094D01*
X116609664Y-91179646D01*
X116641596Y-91169960D01*
X116732382Y-91142420D01*
X116796145Y-91136140D01*
X116828026Y-91133000D01*
X117691974Y-91133000D01*
X117723855Y-91136140D01*
G37*
G36*
X138043855Y-91136140D02*
G01*
X138107618Y-91142420D01*
X138198404Y-91169960D01*
X138230336Y-91179646D01*
X138343425Y-91240094D01*
X138442554Y-91321446D01*
X138523906Y-91420575D01*
X138584354Y-91533664D01*
X138584355Y-91533668D01*
X138621580Y-91656382D01*
X138634149Y-91784000D01*
X138621580Y-91911618D01*
X138604314Y-91968536D01*
X138584354Y-92034336D01*
X138523906Y-92147425D01*
X138442554Y-92246554D01*
X138343425Y-92327906D01*
X138230336Y-92388354D01*
X138198404Y-92398040D01*
X138107618Y-92425580D01*
X138043855Y-92431860D01*
X138011974Y-92435000D01*
X137148026Y-92435000D01*
X137116145Y-92431860D01*
X137052382Y-92425580D01*
X136961596Y-92398040D01*
X136929664Y-92388354D01*
X136816575Y-92327906D01*
X136717446Y-92246554D01*
X136636094Y-92147425D01*
X136575646Y-92034336D01*
X136555686Y-91968536D01*
X136538420Y-91911618D01*
X136525851Y-91784000D01*
X136538420Y-91656382D01*
X136575645Y-91533668D01*
X136575646Y-91533664D01*
X136636094Y-91420575D01*
X136717446Y-91321446D01*
X136816575Y-91240094D01*
X136929664Y-91179646D01*
X136961596Y-91169960D01*
X137052382Y-91142420D01*
X137116145Y-91136140D01*
X137148026Y-91133000D01*
X138011974Y-91133000D01*
X138043855Y-91136140D01*
G37*
G36*
X160895591Y-90664085D02*
G01*
X160929569Y-90674393D01*
X160960890Y-90691134D01*
X160988339Y-90713661D01*
X161010866Y-90741110D01*
X161027607Y-90772431D01*
X161037915Y-90806409D01*
X161042000Y-90847890D01*
X161042000Y-91524110D01*
X161037915Y-91565591D01*
X161027607Y-91599569D01*
X161010866Y-91630890D01*
X160988339Y-91658339D01*
X160960890Y-91680866D01*
X160929569Y-91697607D01*
X160895591Y-91707915D01*
X160854110Y-91712000D01*
X160252890Y-91712000D01*
X160211409Y-91707915D01*
X160177431Y-91697607D01*
X160146110Y-91680866D01*
X160118661Y-91658339D01*
X160096134Y-91630890D01*
X160079393Y-91599569D01*
X160069085Y-91565591D01*
X160065000Y-91524110D01*
X160065000Y-90847890D01*
X160069085Y-90806409D01*
X160079393Y-90772431D01*
X160096134Y-90741110D01*
X160118661Y-90713661D01*
X160146110Y-90691134D01*
X160177431Y-90674393D01*
X160211409Y-90664085D01*
X160252890Y-90660000D01*
X160854110Y-90660000D01*
X160895591Y-90664085D01*
G37*
G36*
X159320591Y-90664085D02*
G01*
X159354569Y-90674393D01*
X159385890Y-90691134D01*
X159413339Y-90713661D01*
X159435866Y-90741110D01*
X159452607Y-90772431D01*
X159462915Y-90806409D01*
X159467000Y-90847890D01*
X159467000Y-91524110D01*
X159462915Y-91565591D01*
X159452607Y-91599569D01*
X159435866Y-91630890D01*
X159413339Y-91658339D01*
X159385890Y-91680866D01*
X159354569Y-91697607D01*
X159320591Y-91707915D01*
X159279110Y-91712000D01*
X158677890Y-91712000D01*
X158636409Y-91707915D01*
X158602431Y-91697607D01*
X158571110Y-91680866D01*
X158543661Y-91658339D01*
X158521134Y-91630890D01*
X158504393Y-91599569D01*
X158494085Y-91565591D01*
X158490000Y-91524110D01*
X158490000Y-90847890D01*
X158494085Y-90806409D01*
X158504393Y-90772431D01*
X158521134Y-90741110D01*
X158543661Y-90713661D01*
X158571110Y-90691134D01*
X158602431Y-90674393D01*
X158636409Y-90664085D01*
X158677890Y-90660000D01*
X159279110Y-90660000D01*
X159320591Y-90664085D01*
G37*
G36*
X166226903Y-88063075D02*
G01*
X166454571Y-88157378D01*
X166659466Y-88294285D01*
X166833715Y-88468534D01*
X166970622Y-88673429D01*
X166970623Y-88673431D01*
X167064925Y-88901097D01*
X167083339Y-88993668D01*
X167113000Y-89142787D01*
X167113000Y-89389213D01*
X167064925Y-89630903D01*
X166970622Y-89858571D01*
X166833715Y-90063466D01*
X166659466Y-90237715D01*
X166454571Y-90374622D01*
X166454570Y-90374623D01*
X166454569Y-90374623D01*
X166226903Y-90468925D01*
X165985214Y-90517000D01*
X165738786Y-90517000D01*
X165497097Y-90468925D01*
X165269431Y-90374623D01*
X165269430Y-90374623D01*
X165269429Y-90374622D01*
X165064534Y-90237715D01*
X164890285Y-90063466D01*
X164753378Y-89858571D01*
X164659075Y-89630903D01*
X164611000Y-89389213D01*
X164611000Y-89142787D01*
X164640662Y-88993668D01*
X164659075Y-88901097D01*
X164753377Y-88673431D01*
X164753378Y-88673429D01*
X164890285Y-88468534D01*
X165064534Y-88294285D01*
X165269429Y-88157378D01*
X165497097Y-88063075D01*
X165738786Y-88015000D01*
X165985214Y-88015000D01*
X166226903Y-88063075D01*
G37*
G36*
X138043855Y-88596140D02*
G01*
X138107618Y-88602420D01*
X138198404Y-88629960D01*
X138230336Y-88639646D01*
X138343425Y-88700094D01*
X138442554Y-88781446D01*
X138523906Y-88880575D01*
X138584354Y-88993664D01*
X138584355Y-88993668D01*
X138621580Y-89116382D01*
X138634149Y-89244000D01*
X138621580Y-89371618D01*
X138616242Y-89389214D01*
X138584354Y-89494336D01*
X138523906Y-89607425D01*
X138442554Y-89706554D01*
X138343425Y-89787906D01*
X138230336Y-89848354D01*
X138198404Y-89858040D01*
X138107618Y-89885580D01*
X138043855Y-89891860D01*
X138011974Y-89895000D01*
X137148026Y-89895000D01*
X137116145Y-89891860D01*
X137052382Y-89885580D01*
X136961596Y-89858040D01*
X136929664Y-89848354D01*
X136816575Y-89787906D01*
X136717446Y-89706554D01*
X136636094Y-89607425D01*
X136575646Y-89494336D01*
X136543758Y-89389214D01*
X136538420Y-89371618D01*
X136525851Y-89244000D01*
X136538420Y-89116382D01*
X136575645Y-88993668D01*
X136575646Y-88993664D01*
X136636094Y-88880575D01*
X136717446Y-88781446D01*
X136816575Y-88700094D01*
X136929664Y-88639646D01*
X136961596Y-88629960D01*
X137052382Y-88602420D01*
X137116145Y-88596140D01*
X137148026Y-88593000D01*
X138011974Y-88593000D01*
X138043855Y-88596140D01*
G37*
G36*
X117723855Y-88596140D02*
G01*
X117787618Y-88602420D01*
X117878404Y-88629960D01*
X117910336Y-88639646D01*
X118023425Y-88700094D01*
X118122554Y-88781446D01*
X118203906Y-88880575D01*
X118264354Y-88993664D01*
X118264355Y-88993668D01*
X118301580Y-89116382D01*
X118314149Y-89244000D01*
X118301580Y-89371618D01*
X118296242Y-89389214D01*
X118264354Y-89494336D01*
X118203906Y-89607425D01*
X118122554Y-89706554D01*
X118023425Y-89787906D01*
X117910336Y-89848354D01*
X117878404Y-89858040D01*
X117787618Y-89885580D01*
X117723855Y-89891860D01*
X117691974Y-89895000D01*
X116828026Y-89895000D01*
X116796145Y-89891860D01*
X116732382Y-89885580D01*
X116641596Y-89858040D01*
X116609664Y-89848354D01*
X116496575Y-89787906D01*
X116397446Y-89706554D01*
X116316094Y-89607425D01*
X116255646Y-89494336D01*
X116223758Y-89389214D01*
X116218420Y-89371618D01*
X116205851Y-89244000D01*
X116218420Y-89116382D01*
X116255645Y-88993668D01*
X116255646Y-88993664D01*
X116316094Y-88880575D01*
X116397446Y-88781446D01*
X116496575Y-88700094D01*
X116609664Y-88639646D01*
X116641596Y-88629960D01*
X116732382Y-88602420D01*
X116796145Y-88596140D01*
X116828026Y-88593000D01*
X117691974Y-88593000D01*
X117723855Y-88596140D01*
G37*
G36*
X146709000Y-89443000D02*
G01*
X142107000Y-89443000D01*
X142107000Y-87341000D01*
X146709000Y-87341000D01*
X146709000Y-89443000D01*
G37*
G36*
X155209000Y-89443000D02*
G01*
X150607000Y-89443000D01*
X150607000Y-87341000D01*
X155209000Y-87341000D01*
X155209000Y-89443000D01*
G37*
G36*
X117723855Y-86056140D02*
G01*
X117787618Y-86062420D01*
X117878404Y-86089960D01*
X117910336Y-86099646D01*
X118023425Y-86160094D01*
X118122554Y-86241446D01*
X118203906Y-86340575D01*
X118264354Y-86453664D01*
X118264355Y-86453668D01*
X118301580Y-86576382D01*
X118314149Y-86704000D01*
X118301580Y-86831618D01*
X118274040Y-86922404D01*
X118264354Y-86954336D01*
X118203906Y-87067425D01*
X118122554Y-87166554D01*
X118023425Y-87247906D01*
X117910336Y-87308354D01*
X117878404Y-87318040D01*
X117787618Y-87345580D01*
X117723855Y-87351860D01*
X117691974Y-87355000D01*
X116828026Y-87355000D01*
X116796145Y-87351860D01*
X116732382Y-87345580D01*
X116641596Y-87318040D01*
X116609664Y-87308354D01*
X116496575Y-87247906D01*
X116397446Y-87166554D01*
X116316094Y-87067425D01*
X116255646Y-86954336D01*
X116245960Y-86922404D01*
X116218420Y-86831618D01*
X116205851Y-86704000D01*
X116218420Y-86576382D01*
X116255645Y-86453668D01*
X116255646Y-86453664D01*
X116316094Y-86340575D01*
X116397446Y-86241446D01*
X116496575Y-86160094D01*
X116609664Y-86099646D01*
X116641596Y-86089960D01*
X116732382Y-86062420D01*
X116796145Y-86056140D01*
X116828026Y-86053000D01*
X117691974Y-86053000D01*
X117723855Y-86056140D01*
G37*
G36*
X138043855Y-86056140D02*
G01*
X138107618Y-86062420D01*
X138198404Y-86089960D01*
X138230336Y-86099646D01*
X138343425Y-86160094D01*
X138442554Y-86241446D01*
X138523906Y-86340575D01*
X138584354Y-86453664D01*
X138584355Y-86453668D01*
X138621580Y-86576382D01*
X138634149Y-86704000D01*
X138621580Y-86831618D01*
X138594040Y-86922404D01*
X138584354Y-86954336D01*
X138523906Y-87067425D01*
X138442554Y-87166554D01*
X138343425Y-87247906D01*
X138230336Y-87308354D01*
X138198404Y-87318040D01*
X138107618Y-87345580D01*
X138043855Y-87351860D01*
X138011974Y-87355000D01*
X137148026Y-87355000D01*
X137116145Y-87351860D01*
X137052382Y-87345580D01*
X136961596Y-87318040D01*
X136929664Y-87308354D01*
X136816575Y-87247906D01*
X136717446Y-87166554D01*
X136636094Y-87067425D01*
X136575646Y-86954336D01*
X136565960Y-86922404D01*
X136538420Y-86831618D01*
X136525851Y-86704000D01*
X136538420Y-86576382D01*
X136575645Y-86453668D01*
X136575646Y-86453664D01*
X136636094Y-86340575D01*
X136717446Y-86241446D01*
X136816575Y-86160094D01*
X136929664Y-86099646D01*
X136961596Y-86089960D01*
X137052382Y-86062420D01*
X137116145Y-86056140D01*
X137148026Y-86053000D01*
X138011974Y-86053000D01*
X138043855Y-86056140D01*
G37*
G36*
X166226903Y-84563075D02*
G01*
X166454571Y-84657378D01*
X166659466Y-84794285D01*
X166833715Y-84968534D01*
X166970622Y-85173429D01*
X167064925Y-85401097D01*
X167113000Y-85642787D01*
X167113000Y-85889213D01*
X167064925Y-86130903D01*
X166970622Y-86358571D01*
X166833715Y-86563466D01*
X166659466Y-86737715D01*
X166454571Y-86874622D01*
X166454570Y-86874623D01*
X166454569Y-86874623D01*
X166226903Y-86968925D01*
X165985214Y-87017000D01*
X165738786Y-87017000D01*
X165497097Y-86968925D01*
X165269431Y-86874623D01*
X165269430Y-86874623D01*
X165269429Y-86874622D01*
X165064534Y-86737715D01*
X164890285Y-86563466D01*
X164753378Y-86358571D01*
X164659075Y-86130903D01*
X164611000Y-85889213D01*
X164611000Y-85642787D01*
X164659075Y-85401097D01*
X164753378Y-85173429D01*
X164890285Y-84968534D01*
X165064534Y-84794285D01*
X165269429Y-84657378D01*
X165497097Y-84563075D01*
X165738786Y-84515000D01*
X165985214Y-84515000D01*
X166226903Y-84563075D01*
G37*
G36*
X151700591Y-84060085D02*
G01*
X151734569Y-84070393D01*
X151765890Y-84087134D01*
X151793339Y-84109661D01*
X151815866Y-84137110D01*
X151832607Y-84168431D01*
X151842915Y-84202409D01*
X151847000Y-84243890D01*
X151847000Y-84920110D01*
X151842915Y-84961591D01*
X151832607Y-84995569D01*
X151815866Y-85026890D01*
X151793339Y-85054339D01*
X151765890Y-85076866D01*
X151734569Y-85093607D01*
X151700591Y-85103915D01*
X151659110Y-85108000D01*
X151057890Y-85108000D01*
X151016409Y-85103915D01*
X150982431Y-85093607D01*
X150951110Y-85076866D01*
X150923661Y-85054339D01*
X150901134Y-85026890D01*
X150884393Y-84995569D01*
X150874085Y-84961591D01*
X150870000Y-84920110D01*
X150870000Y-84243890D01*
X150874085Y-84202409D01*
X150884393Y-84168431D01*
X150901134Y-84137110D01*
X150923661Y-84109661D01*
X150951110Y-84087134D01*
X150982431Y-84070393D01*
X151016409Y-84060085D01*
X151057890Y-84056000D01*
X151659110Y-84056000D01*
X151700591Y-84060085D01*
G37*
G36*
X153275591Y-84060085D02*
G01*
X153309569Y-84070393D01*
X153340890Y-84087134D01*
X153368339Y-84109661D01*
X153390866Y-84137110D01*
X153407607Y-84168431D01*
X153417915Y-84202409D01*
X153422000Y-84243890D01*
X153422000Y-84920110D01*
X153417915Y-84961591D01*
X153407607Y-84995569D01*
X153390866Y-85026890D01*
X153368339Y-85054339D01*
X153340890Y-85076866D01*
X153309569Y-85093607D01*
X153275591Y-85103915D01*
X153234110Y-85108000D01*
X152632890Y-85108000D01*
X152591409Y-85103915D01*
X152557431Y-85093607D01*
X152526110Y-85076866D01*
X152498661Y-85054339D01*
X152476134Y-85026890D01*
X152459393Y-84995569D01*
X152449085Y-84961591D01*
X152445000Y-84920110D01*
X152445000Y-84243890D01*
X152449085Y-84202409D01*
X152459393Y-84168431D01*
X152476134Y-84137110D01*
X152498661Y-84109661D01*
X152526110Y-84087134D01*
X152557431Y-84070393D01*
X152591409Y-84060085D01*
X152632890Y-84056000D01*
X153234110Y-84056000D01*
X153275591Y-84060085D01*
G37*
G36*
X117723855Y-83516140D02*
G01*
X117787618Y-83522420D01*
X117868637Y-83546997D01*
X117910336Y-83559646D01*
X118023425Y-83620094D01*
X118122554Y-83701446D01*
X118203906Y-83800575D01*
X118264354Y-83913664D01*
X118264355Y-83913668D01*
X118301580Y-84036382D01*
X118314149Y-84164000D01*
X118301580Y-84291618D01*
X118274040Y-84382404D01*
X118264354Y-84414336D01*
X118203906Y-84527425D01*
X118122554Y-84626554D01*
X118023425Y-84707906D01*
X117910336Y-84768354D01*
X117878404Y-84778040D01*
X117787618Y-84805580D01*
X117723855Y-84811860D01*
X117691974Y-84815000D01*
X116828026Y-84815000D01*
X116796145Y-84811860D01*
X116732382Y-84805580D01*
X116641596Y-84778040D01*
X116609664Y-84768354D01*
X116496575Y-84707906D01*
X116397446Y-84626554D01*
X116316094Y-84527425D01*
X116255646Y-84414336D01*
X116245960Y-84382404D01*
X116218420Y-84291618D01*
X116205851Y-84164000D01*
X116218420Y-84036382D01*
X116255645Y-83913668D01*
X116255646Y-83913664D01*
X116316094Y-83800575D01*
X116397446Y-83701446D01*
X116496575Y-83620094D01*
X116609664Y-83559646D01*
X116651363Y-83546997D01*
X116732382Y-83522420D01*
X116796145Y-83516140D01*
X116828026Y-83513000D01*
X117691974Y-83513000D01*
X117723855Y-83516140D01*
G37*
G36*
X144190928Y-83471764D02*
G01*
X144212009Y-83478160D01*
X144231445Y-83488548D01*
X144248476Y-83502524D01*
X144262452Y-83519555D01*
X144272840Y-83538991D01*
X144279236Y-83560072D01*
X144282000Y-83588140D01*
X144282000Y-84051860D01*
X144279236Y-84079928D01*
X144272840Y-84101009D01*
X144262452Y-84120445D01*
X144248476Y-84137476D01*
X144231445Y-84151452D01*
X144212009Y-84161840D01*
X144190928Y-84168236D01*
X144162860Y-84171000D01*
X142349140Y-84171000D01*
X142321072Y-84168236D01*
X142299991Y-84161840D01*
X142280555Y-84151452D01*
X142263524Y-84137476D01*
X142249548Y-84120445D01*
X142239160Y-84101009D01*
X142232764Y-84079928D01*
X142230000Y-84051860D01*
X142230000Y-83588140D01*
X142232764Y-83560072D01*
X142239160Y-83538991D01*
X142249548Y-83519555D01*
X142263524Y-83502524D01*
X142280555Y-83488548D01*
X142299991Y-83478160D01*
X142321072Y-83471764D01*
X142349140Y-83469000D01*
X144162860Y-83469000D01*
X144190928Y-83471764D01*
G37*
G36*
X149140928Y-83471764D02*
G01*
X149162009Y-83478160D01*
X149181445Y-83488548D01*
X149198476Y-83502524D01*
X149212452Y-83519555D01*
X149222840Y-83538991D01*
X149229236Y-83560072D01*
X149232000Y-83588140D01*
X149232000Y-84051860D01*
X149229236Y-84079928D01*
X149222840Y-84101009D01*
X149212452Y-84120445D01*
X149198476Y-84137476D01*
X149181445Y-84151452D01*
X149162009Y-84161840D01*
X149140928Y-84168236D01*
X149112860Y-84171000D01*
X147299140Y-84171000D01*
X147271072Y-84168236D01*
X147249991Y-84161840D01*
X147230555Y-84151452D01*
X147213524Y-84137476D01*
X147199548Y-84120445D01*
X147189160Y-84101009D01*
X147182764Y-84079928D01*
X147180000Y-84051860D01*
X147180000Y-83588140D01*
X147182764Y-83560072D01*
X147189160Y-83538991D01*
X147199548Y-83519555D01*
X147213524Y-83502524D01*
X147230555Y-83488548D01*
X147249991Y-83478160D01*
X147271072Y-83471764D01*
X147299140Y-83469000D01*
X149112860Y-83469000D01*
X149140928Y-83471764D01*
G37*
G36*
X151675091Y-82028085D02*
G01*
X151709069Y-82038393D01*
X151740390Y-82055134D01*
X151767839Y-82077661D01*
X151790366Y-82105110D01*
X151807107Y-82136431D01*
X151817415Y-82170409D01*
X151821500Y-82211890D01*
X151821500Y-82888110D01*
X151817415Y-82929591D01*
X151807107Y-82963569D01*
X151790366Y-82994890D01*
X151767839Y-83022339D01*
X151740390Y-83044866D01*
X151709069Y-83061607D01*
X151675091Y-83071915D01*
X151633610Y-83076000D01*
X151032390Y-83076000D01*
X150990909Y-83071915D01*
X150956931Y-83061607D01*
X150925610Y-83044866D01*
X150898161Y-83022339D01*
X150875634Y-82994890D01*
X150858893Y-82963569D01*
X150848585Y-82929591D01*
X150844500Y-82888110D01*
X150844500Y-82211890D01*
X150848585Y-82170409D01*
X150858893Y-82136431D01*
X150875634Y-82105110D01*
X150898161Y-82077661D01*
X150925610Y-82055134D01*
X150956931Y-82038393D01*
X150990909Y-82028085D01*
X151032390Y-82024000D01*
X151633610Y-82024000D01*
X151675091Y-82028085D01*
G37*
G36*
X153250091Y-82028085D02*
G01*
X153284069Y-82038393D01*
X153315390Y-82055134D01*
X153342839Y-82077661D01*
X153365366Y-82105110D01*
X153382107Y-82136431D01*
X153392415Y-82170409D01*
X153396500Y-82211890D01*
X153396500Y-82888110D01*
X153392415Y-82929591D01*
X153382107Y-82963569D01*
X153365366Y-82994890D01*
X153342839Y-83022339D01*
X153315390Y-83044866D01*
X153284069Y-83061607D01*
X153250091Y-83071915D01*
X153208610Y-83076000D01*
X152607390Y-83076000D01*
X152565909Y-83071915D01*
X152531931Y-83061607D01*
X152500610Y-83044866D01*
X152473161Y-83022339D01*
X152450634Y-82994890D01*
X152433893Y-82963569D01*
X152423585Y-82929591D01*
X152419500Y-82888110D01*
X152419500Y-82211890D01*
X152423585Y-82170409D01*
X152433893Y-82136431D01*
X152450634Y-82105110D01*
X152473161Y-82077661D01*
X152500610Y-82055134D01*
X152531931Y-82038393D01*
X152565909Y-82028085D01*
X152607390Y-82024000D01*
X153208610Y-82024000D01*
X153250091Y-82028085D01*
G37*
G36*
X149140928Y-82201764D02*
G01*
X149162009Y-82208160D01*
X149181445Y-82218548D01*
X149198476Y-82232524D01*
X149212452Y-82249555D01*
X149222840Y-82268991D01*
X149229236Y-82290072D01*
X149232000Y-82318140D01*
X149232000Y-82781860D01*
X149229236Y-82809928D01*
X149222840Y-82831009D01*
X149212452Y-82850445D01*
X149198476Y-82867476D01*
X149181445Y-82881452D01*
X149162009Y-82891840D01*
X149140928Y-82898236D01*
X149112860Y-82901000D01*
X147299140Y-82901000D01*
X147271072Y-82898236D01*
X147249991Y-82891840D01*
X147230555Y-82881452D01*
X147213524Y-82867476D01*
X147199548Y-82850445D01*
X147189160Y-82831009D01*
X147182764Y-82809928D01*
X147180000Y-82781860D01*
X147180000Y-82318140D01*
X147182764Y-82290072D01*
X147189160Y-82268991D01*
X147199548Y-82249555D01*
X147213524Y-82232524D01*
X147230555Y-82218548D01*
X147249991Y-82208160D01*
X147271072Y-82201764D01*
X147299140Y-82199000D01*
X149112860Y-82199000D01*
X149140928Y-82201764D01*
G37*
G36*
X144190928Y-82201764D02*
G01*
X144212009Y-82208160D01*
X144231445Y-82218548D01*
X144248476Y-82232524D01*
X144262452Y-82249555D01*
X144272840Y-82268991D01*
X144279236Y-82290072D01*
X144282000Y-82318140D01*
X144282000Y-82781860D01*
X144279236Y-82809928D01*
X144272840Y-82831009D01*
X144262452Y-82850445D01*
X144248476Y-82867476D01*
X144231445Y-82881452D01*
X144212009Y-82891840D01*
X144190928Y-82898236D01*
X144162860Y-82901000D01*
X142349140Y-82901000D01*
X142321072Y-82898236D01*
X142299991Y-82891840D01*
X142280555Y-82881452D01*
X142263524Y-82867476D01*
X142249548Y-82850445D01*
X142239160Y-82831009D01*
X142232764Y-82809928D01*
X142230000Y-82781860D01*
X142230000Y-82318140D01*
X142232764Y-82290072D01*
X142239160Y-82268991D01*
X142249548Y-82249555D01*
X142263524Y-82232524D01*
X142280555Y-82218548D01*
X142299991Y-82208160D01*
X142321072Y-82201764D01*
X142349140Y-82199000D01*
X144162860Y-82199000D01*
X144190928Y-82201764D01*
G37*
G36*
X170104000Y-82345000D02*
G01*
X161112000Y-82345000D01*
X161112000Y-75643000D01*
X170104000Y-75643000D01*
X170104000Y-82345000D01*
G37*
G36*
X117723855Y-80976140D02*
G01*
X117787618Y-80982420D01*
X117854920Y-81002836D01*
X117910336Y-81019646D01*
X118023425Y-81080094D01*
X118122554Y-81161446D01*
X118203906Y-81260575D01*
X118264354Y-81373664D01*
X118264355Y-81373668D01*
X118301580Y-81496382D01*
X118314149Y-81624000D01*
X118301580Y-81751618D01*
X118274040Y-81842404D01*
X118264354Y-81874336D01*
X118203906Y-81987425D01*
X118122554Y-82086554D01*
X118023425Y-82167906D01*
X117910336Y-82228354D01*
X117896589Y-82232524D01*
X117787618Y-82265580D01*
X117723855Y-82271860D01*
X117691974Y-82275000D01*
X116828026Y-82275000D01*
X116796145Y-82271860D01*
X116732382Y-82265580D01*
X116623411Y-82232524D01*
X116609664Y-82228354D01*
X116496575Y-82167906D01*
X116397446Y-82086554D01*
X116316094Y-81987425D01*
X116255646Y-81874336D01*
X116245960Y-81842404D01*
X116218420Y-81751618D01*
X116205851Y-81624000D01*
X116218420Y-81496382D01*
X116255645Y-81373668D01*
X116255646Y-81373664D01*
X116316094Y-81260575D01*
X116397446Y-81161446D01*
X116496575Y-81080094D01*
X116609664Y-81019646D01*
X116665080Y-81002836D01*
X116732382Y-80982420D01*
X116796145Y-80976140D01*
X116828026Y-80973000D01*
X117691974Y-80973000D01*
X117723855Y-80976140D01*
G37*
G36*
X149140928Y-80931764D02*
G01*
X149162009Y-80938160D01*
X149181445Y-80948548D01*
X149198476Y-80962524D01*
X149212452Y-80979555D01*
X149222840Y-80998991D01*
X149229236Y-81020072D01*
X149232000Y-81048140D01*
X149232000Y-81511860D01*
X149229236Y-81539928D01*
X149222840Y-81561009D01*
X149212452Y-81580445D01*
X149198476Y-81597476D01*
X149181445Y-81611452D01*
X149162009Y-81621840D01*
X149140928Y-81628236D01*
X149112860Y-81631000D01*
X147299140Y-81631000D01*
X147271072Y-81628236D01*
X147249991Y-81621840D01*
X147230555Y-81611452D01*
X147213524Y-81597476D01*
X147199548Y-81580445D01*
X147189160Y-81561009D01*
X147182764Y-81539928D01*
X147180000Y-81511860D01*
X147180000Y-81048140D01*
X147182764Y-81020072D01*
X147189160Y-80998991D01*
X147199548Y-80979555D01*
X147213524Y-80962524D01*
X147230555Y-80948548D01*
X147249991Y-80938160D01*
X147271072Y-80931764D01*
X147299140Y-80929000D01*
X149112860Y-80929000D01*
X149140928Y-80931764D01*
G37*
G36*
X144190928Y-80931764D02*
G01*
X144212009Y-80938160D01*
X144231445Y-80948548D01*
X144248476Y-80962524D01*
X144262452Y-80979555D01*
X144272840Y-80998991D01*
X144279236Y-81020072D01*
X144282000Y-81048140D01*
X144282000Y-81511860D01*
X144279236Y-81539928D01*
X144272840Y-81561009D01*
X144262452Y-81580445D01*
X144248476Y-81597476D01*
X144231445Y-81611452D01*
X144212009Y-81621840D01*
X144190928Y-81628236D01*
X144162860Y-81631000D01*
X142349140Y-81631000D01*
X142321072Y-81628236D01*
X142299991Y-81621840D01*
X142280555Y-81611452D01*
X142263524Y-81597476D01*
X142249548Y-81580445D01*
X142239160Y-81561009D01*
X142232764Y-81539928D01*
X142230000Y-81511860D01*
X142230000Y-81048140D01*
X142232764Y-81020072D01*
X142239160Y-80998991D01*
X142249548Y-80979555D01*
X142263524Y-80962524D01*
X142280555Y-80948548D01*
X142299991Y-80938160D01*
X142321072Y-80931764D01*
X142349140Y-80929000D01*
X144162860Y-80929000D01*
X144190928Y-80931764D01*
G37*
G36*
X153250091Y-79996085D02*
G01*
X153284069Y-80006393D01*
X153315390Y-80023134D01*
X153342839Y-80045661D01*
X153365366Y-80073110D01*
X153382107Y-80104431D01*
X153392415Y-80138409D01*
X153396500Y-80179890D01*
X153396500Y-80856110D01*
X153392415Y-80897591D01*
X153382107Y-80931569D01*
X153365366Y-80962890D01*
X153342839Y-80990339D01*
X153315390Y-81012866D01*
X153284069Y-81029607D01*
X153250091Y-81039915D01*
X153208610Y-81044000D01*
X152607390Y-81044000D01*
X152565909Y-81039915D01*
X152531931Y-81029607D01*
X152500610Y-81012866D01*
X152473161Y-80990339D01*
X152450634Y-80962890D01*
X152433893Y-80931569D01*
X152423585Y-80897591D01*
X152419500Y-80856110D01*
X152419500Y-80179890D01*
X152423585Y-80138409D01*
X152433893Y-80104431D01*
X152450634Y-80073110D01*
X152473161Y-80045661D01*
X152500610Y-80023134D01*
X152531931Y-80006393D01*
X152565909Y-79996085D01*
X152607390Y-79992000D01*
X153208610Y-79992000D01*
X153250091Y-79996085D01*
G37*
G36*
X151675091Y-79996085D02*
G01*
X151709069Y-80006393D01*
X151740390Y-80023134D01*
X151767839Y-80045661D01*
X151790366Y-80073110D01*
X151807107Y-80104431D01*
X151817415Y-80138409D01*
X151821500Y-80179890D01*
X151821500Y-80856110D01*
X151817415Y-80897591D01*
X151807107Y-80931569D01*
X151790366Y-80962890D01*
X151767839Y-80990339D01*
X151740390Y-81012866D01*
X151709069Y-81029607D01*
X151675091Y-81039915D01*
X151633610Y-81044000D01*
X151032390Y-81044000D01*
X150990909Y-81039915D01*
X150956931Y-81029607D01*
X150925610Y-81012866D01*
X150898161Y-80990339D01*
X150875634Y-80962890D01*
X150858893Y-80931569D01*
X150848585Y-80897591D01*
X150844500Y-80856110D01*
X150844500Y-80179890D01*
X150848585Y-80138409D01*
X150858893Y-80104431D01*
X150875634Y-80073110D01*
X150898161Y-80045661D01*
X150925610Y-80023134D01*
X150956931Y-80006393D01*
X150990909Y-79996085D01*
X151032390Y-79992000D01*
X151633610Y-79992000D01*
X151675091Y-79996085D01*
G37*
G36*
X149140928Y-79661764D02*
G01*
X149162009Y-79668160D01*
X149181445Y-79678548D01*
X149198476Y-79692524D01*
X149212452Y-79709555D01*
X149222840Y-79728991D01*
X149229236Y-79750072D01*
X149232000Y-79778140D01*
X149232000Y-80241860D01*
X149229236Y-80269928D01*
X149222840Y-80291009D01*
X149212452Y-80310445D01*
X149198476Y-80327476D01*
X149181445Y-80341452D01*
X149162009Y-80351840D01*
X149140928Y-80358236D01*
X149112860Y-80361000D01*
X147299140Y-80361000D01*
X147271072Y-80358236D01*
X147249991Y-80351840D01*
X147230555Y-80341452D01*
X147213524Y-80327476D01*
X147199548Y-80310445D01*
X147189160Y-80291009D01*
X147182764Y-80269928D01*
X147180000Y-80241860D01*
X147180000Y-79778140D01*
X147182764Y-79750072D01*
X147189160Y-79728991D01*
X147199548Y-79709555D01*
X147213524Y-79692524D01*
X147230555Y-79678548D01*
X147249991Y-79668160D01*
X147271072Y-79661764D01*
X147299140Y-79659000D01*
X149112860Y-79659000D01*
X149140928Y-79661764D01*
G37*
G36*
X144190928Y-79661764D02*
G01*
X144212009Y-79668160D01*
X144231445Y-79678548D01*
X144248476Y-79692524D01*
X144262452Y-79709555D01*
X144272840Y-79728991D01*
X144279236Y-79750072D01*
X144282000Y-79778140D01*
X144282000Y-80241860D01*
X144279236Y-80269928D01*
X144272840Y-80291009D01*
X144262452Y-80310445D01*
X144248476Y-80327476D01*
X144231445Y-80341452D01*
X144212009Y-80351840D01*
X144190928Y-80358236D01*
X144162860Y-80361000D01*
X142349140Y-80361000D01*
X142321072Y-80358236D01*
X142299991Y-80351840D01*
X142280555Y-80341452D01*
X142263524Y-80327476D01*
X142249548Y-80310445D01*
X142239160Y-80291009D01*
X142232764Y-80269928D01*
X142230000Y-80241860D01*
X142230000Y-79778140D01*
X142232764Y-79750072D01*
X142239160Y-79728991D01*
X142249548Y-79709555D01*
X142263524Y-79692524D01*
X142280555Y-79678548D01*
X142299991Y-79668160D01*
X142321072Y-79661764D01*
X142349140Y-79659000D01*
X144162860Y-79659000D01*
X144190928Y-79661764D01*
G37*
G36*
X117723855Y-78436140D02*
G01*
X117787618Y-78442420D01*
X117878404Y-78469960D01*
X117910336Y-78479646D01*
X118023425Y-78540094D01*
X118122554Y-78621446D01*
X118203906Y-78720575D01*
X118264354Y-78833664D01*
X118264355Y-78833668D01*
X118301580Y-78956382D01*
X118314149Y-79084000D01*
X118301580Y-79211618D01*
X118274040Y-79302404D01*
X118264354Y-79334336D01*
X118203906Y-79447425D01*
X118122554Y-79546554D01*
X118023425Y-79627906D01*
X117910336Y-79688354D01*
X117896589Y-79692524D01*
X117787618Y-79725580D01*
X117723855Y-79731860D01*
X117691974Y-79735000D01*
X116828026Y-79735000D01*
X116796145Y-79731860D01*
X116732382Y-79725580D01*
X116623411Y-79692524D01*
X116609664Y-79688354D01*
X116496575Y-79627906D01*
X116397446Y-79546554D01*
X116316094Y-79447425D01*
X116255646Y-79334336D01*
X116245960Y-79302404D01*
X116218420Y-79211618D01*
X116205851Y-79084000D01*
X116218420Y-78956382D01*
X116255645Y-78833668D01*
X116255646Y-78833664D01*
X116316094Y-78720575D01*
X116397446Y-78621446D01*
X116496575Y-78540094D01*
X116609664Y-78479646D01*
X116641596Y-78469960D01*
X116732382Y-78442420D01*
X116796145Y-78436140D01*
X116828026Y-78433000D01*
X117691974Y-78433000D01*
X117723855Y-78436140D01*
G37*
G36*
X147865091Y-76694085D02*
G01*
X147899069Y-76704393D01*
X147930390Y-76721134D01*
X147957839Y-76743661D01*
X147980366Y-76771110D01*
X147997107Y-76802431D01*
X148007415Y-76836409D01*
X148011500Y-76877890D01*
X148011500Y-77554110D01*
X148007415Y-77595591D01*
X147997107Y-77629569D01*
X147980366Y-77660890D01*
X147957839Y-77688339D01*
X147930390Y-77710866D01*
X147899069Y-77727607D01*
X147865091Y-77737915D01*
X147823610Y-77742000D01*
X147222390Y-77742000D01*
X147180909Y-77737915D01*
X147146931Y-77727607D01*
X147115610Y-77710866D01*
X147088161Y-77688339D01*
X147065634Y-77660890D01*
X147048893Y-77629569D01*
X147038585Y-77595591D01*
X147034500Y-77554110D01*
X147034500Y-76877890D01*
X147038585Y-76836409D01*
X147048893Y-76802431D01*
X147065634Y-76771110D01*
X147088161Y-76743661D01*
X147115610Y-76721134D01*
X147146931Y-76704393D01*
X147180909Y-76694085D01*
X147222390Y-76690000D01*
X147823610Y-76690000D01*
X147865091Y-76694085D01*
G37*
G36*
X149440091Y-76694085D02*
G01*
X149474069Y-76704393D01*
X149505390Y-76721134D01*
X149532839Y-76743661D01*
X149555366Y-76771110D01*
X149572107Y-76802431D01*
X149582415Y-76836409D01*
X149586500Y-76877890D01*
X149586500Y-77554110D01*
X149582415Y-77595591D01*
X149572107Y-77629569D01*
X149555366Y-77660890D01*
X149532839Y-77688339D01*
X149505390Y-77710866D01*
X149474069Y-77727607D01*
X149440091Y-77737915D01*
X149398610Y-77742000D01*
X148797390Y-77742000D01*
X148755909Y-77737915D01*
X148721931Y-77727607D01*
X148690610Y-77710866D01*
X148663161Y-77688339D01*
X148640634Y-77660890D01*
X148623893Y-77629569D01*
X148613585Y-77595591D01*
X148609500Y-77554110D01*
X148609500Y-76877890D01*
X148613585Y-76836409D01*
X148623893Y-76802431D01*
X148640634Y-76771110D01*
X148663161Y-76743661D01*
X148690610Y-76721134D01*
X148721931Y-76704393D01*
X148755909Y-76694085D01*
X148797390Y-76690000D01*
X149398610Y-76690000D01*
X149440091Y-76694085D01*
G37*
G36*
X144165000Y-77686000D02*
G01*
X143363000Y-77686000D01*
X143363000Y-75984000D01*
X144165000Y-75984000D01*
X144165000Y-77686000D01*
G37*
G36*
X142895000Y-77686000D02*
G01*
X142093000Y-77686000D01*
X142093000Y-75984000D01*
X142895000Y-75984000D01*
X142895000Y-77686000D01*
G37*
G36*
X141625000Y-77686000D02*
G01*
X140823000Y-77686000D01*
X140823000Y-75984000D01*
X141625000Y-75984000D01*
X141625000Y-77686000D01*
G37*
G36*
X145435000Y-77686000D02*
G01*
X144633000Y-77686000D01*
X144633000Y-75984000D01*
X145435000Y-75984000D01*
X145435000Y-77686000D01*
G37*
G36*
X117723855Y-75896140D02*
G01*
X117787618Y-75902420D01*
X117878404Y-75929960D01*
X117910336Y-75939646D01*
X118023425Y-76000094D01*
X118122554Y-76081446D01*
X118203906Y-76180575D01*
X118264354Y-76293664D01*
X118264355Y-76293668D01*
X118301580Y-76416382D01*
X118314149Y-76544000D01*
X118301580Y-76671618D01*
X118290364Y-76708592D01*
X118264354Y-76794336D01*
X118203906Y-76907425D01*
X118122554Y-77006554D01*
X118023425Y-77087906D01*
X117910336Y-77148354D01*
X117878404Y-77158040D01*
X117787618Y-77185580D01*
X117723855Y-77191860D01*
X117691974Y-77195000D01*
X116828026Y-77195000D01*
X116796145Y-77191860D01*
X116732382Y-77185580D01*
X116641596Y-77158040D01*
X116609664Y-77148354D01*
X116496575Y-77087906D01*
X116397446Y-77006554D01*
X116316094Y-76907425D01*
X116255646Y-76794336D01*
X116229636Y-76708592D01*
X116218420Y-76671618D01*
X116205851Y-76544000D01*
X116218420Y-76416382D01*
X116255645Y-76293668D01*
X116255646Y-76293664D01*
X116316094Y-76180575D01*
X116397446Y-76081446D01*
X116496575Y-76000094D01*
X116609664Y-75939646D01*
X116641596Y-75929960D01*
X116732382Y-75902420D01*
X116796145Y-75896140D01*
X116828026Y-75893000D01*
X117691974Y-75893000D01*
X117723855Y-75896140D01*
G37*
G36*
X124128000Y-69391000D02*
G01*
X115136000Y-69391000D01*
X115136000Y-62689000D01*
X124128000Y-62689000D01*
X124128000Y-69391000D01*
G37*
G36*
X140347000Y-68465000D02*
G01*
X138545000Y-68465000D01*
X138545000Y-66663000D01*
X140347000Y-66663000D01*
X140347000Y-68465000D01*
G37*
G36*
X132082938Y-65671716D02*
G01*
X132103557Y-65677971D01*
X132122553Y-65688124D01*
X132139208Y-65701792D01*
X132152876Y-65718447D01*
X132163029Y-65737443D01*
X132169284Y-65758062D01*
X132172000Y-65785640D01*
X132172000Y-66294360D01*
X132169284Y-66321938D01*
X132163029Y-66342557D01*
X132152876Y-66361553D01*
X132139208Y-66378208D01*
X132122553Y-66391876D01*
X132103557Y-66402029D01*
X132082938Y-66408284D01*
X132055360Y-66411000D01*
X131596640Y-66411000D01*
X131569062Y-66408284D01*
X131548443Y-66402029D01*
X131529447Y-66391876D01*
X131512792Y-66378208D01*
X131499124Y-66361553D01*
X131488971Y-66342557D01*
X131482716Y-66321938D01*
X131480000Y-66294360D01*
X131480000Y-65785640D01*
X131482716Y-65758062D01*
X131488971Y-65737443D01*
X131499124Y-65718447D01*
X131512792Y-65701792D01*
X131529447Y-65688124D01*
X131548443Y-65677971D01*
X131569062Y-65671716D01*
X131596640Y-65669000D01*
X132055360Y-65669000D01*
X132082938Y-65671716D01*
G37*
G36*
X131112938Y-65671716D02*
G01*
X131133557Y-65677971D01*
X131152553Y-65688124D01*
X131169208Y-65701792D01*
X131182876Y-65718447D01*
X131193029Y-65737443D01*
X131199284Y-65758062D01*
X131202000Y-65785640D01*
X131202000Y-66294360D01*
X131199284Y-66321938D01*
X131193029Y-66342557D01*
X131182876Y-66361553D01*
X131169208Y-66378208D01*
X131152553Y-66391876D01*
X131133557Y-66402029D01*
X131112938Y-66408284D01*
X131085360Y-66411000D01*
X130626640Y-66411000D01*
X130599062Y-66408284D01*
X130578443Y-66402029D01*
X130559447Y-66391876D01*
X130542792Y-66378208D01*
X130529124Y-66361553D01*
X130518971Y-66342557D01*
X130512716Y-66321938D01*
X130510000Y-66294360D01*
X130510000Y-65785640D01*
X130512716Y-65758062D01*
X130518971Y-65737443D01*
X130529124Y-65718447D01*
X130542792Y-65701792D01*
X130559447Y-65688124D01*
X130578443Y-65677971D01*
X130599062Y-65671716D01*
X130626640Y-65669000D01*
X131085360Y-65669000D01*
X131112938Y-65671716D01*
G37*
G36*
X129542938Y-65671716D02*
G01*
X129563557Y-65677971D01*
X129582553Y-65688124D01*
X129599208Y-65701792D01*
X129612876Y-65718447D01*
X129623029Y-65737443D01*
X129629284Y-65758062D01*
X129632000Y-65785640D01*
X129632000Y-66294360D01*
X129629284Y-66321938D01*
X129623029Y-66342557D01*
X129612876Y-66361553D01*
X129599208Y-66378208D01*
X129582553Y-66391876D01*
X129563557Y-66402029D01*
X129542938Y-66408284D01*
X129515360Y-66411000D01*
X129056640Y-66411000D01*
X129029062Y-66408284D01*
X129008443Y-66402029D01*
X128989447Y-66391876D01*
X128972792Y-66378208D01*
X128959124Y-66361553D01*
X128948971Y-66342557D01*
X128942716Y-66321938D01*
X128940000Y-66294360D01*
X128940000Y-65785640D01*
X128942716Y-65758062D01*
X128948971Y-65737443D01*
X128959124Y-65718447D01*
X128972792Y-65701792D01*
X128989447Y-65688124D01*
X129008443Y-65677971D01*
X129029062Y-65671716D01*
X129056640Y-65669000D01*
X129515360Y-65669000D01*
X129542938Y-65671716D01*
G37*
G36*
X128572938Y-65671716D02*
G01*
X128593557Y-65677971D01*
X128612553Y-65688124D01*
X128629208Y-65701792D01*
X128642876Y-65718447D01*
X128653029Y-65737443D01*
X128659284Y-65758062D01*
X128662000Y-65785640D01*
X128662000Y-66294360D01*
X128659284Y-66321938D01*
X128653029Y-66342557D01*
X128642876Y-66361553D01*
X128629208Y-66378208D01*
X128612553Y-66391876D01*
X128593557Y-66402029D01*
X128572938Y-66408284D01*
X128545360Y-66411000D01*
X128086640Y-66411000D01*
X128059062Y-66408284D01*
X128038443Y-66402029D01*
X128019447Y-66391876D01*
X128002792Y-66378208D01*
X127989124Y-66361553D01*
X127978971Y-66342557D01*
X127972716Y-66321938D01*
X127970000Y-66294360D01*
X127970000Y-65785640D01*
X127972716Y-65758062D01*
X127978971Y-65737443D01*
X127989124Y-65718447D01*
X128002792Y-65701792D01*
X128019447Y-65688124D01*
X128038443Y-65677971D01*
X128059062Y-65671716D01*
X128086640Y-65669000D01*
X128545360Y-65669000D01*
X128572938Y-65671716D01*
G37*
G36*
X127002938Y-65671716D02*
G01*
X127023557Y-65677971D01*
X127042553Y-65688124D01*
X127059208Y-65701792D01*
X127072876Y-65718447D01*
X127083029Y-65737443D01*
X127089284Y-65758062D01*
X127092000Y-65785640D01*
X127092000Y-66294360D01*
X127089284Y-66321938D01*
X127083029Y-66342557D01*
X127072876Y-66361553D01*
X127059208Y-66378208D01*
X127042553Y-66391876D01*
X127023557Y-66402029D01*
X127002938Y-66408284D01*
X126975360Y-66411000D01*
X126516640Y-66411000D01*
X126489062Y-66408284D01*
X126468443Y-66402029D01*
X126449447Y-66391876D01*
X126432792Y-66378208D01*
X126419124Y-66361553D01*
X126408971Y-66342557D01*
X126402716Y-66321938D01*
X126400000Y-66294360D01*
X126400000Y-65785640D01*
X126402716Y-65758062D01*
X126408971Y-65737443D01*
X126419124Y-65718447D01*
X126432792Y-65701792D01*
X126449447Y-65688124D01*
X126468443Y-65677971D01*
X126489062Y-65671716D01*
X126516640Y-65669000D01*
X126975360Y-65669000D01*
X127002938Y-65671716D01*
G37*
G36*
X126032938Y-65671716D02*
G01*
X126053557Y-65677971D01*
X126072553Y-65688124D01*
X126089208Y-65701792D01*
X126102876Y-65718447D01*
X126113029Y-65737443D01*
X126119284Y-65758062D01*
X126122000Y-65785640D01*
X126122000Y-66294360D01*
X126119284Y-66321938D01*
X126113029Y-66342557D01*
X126102876Y-66361553D01*
X126089208Y-66378208D01*
X126072553Y-66391876D01*
X126053557Y-66402029D01*
X126032938Y-66408284D01*
X126005360Y-66411000D01*
X125546640Y-66411000D01*
X125519062Y-66408284D01*
X125498443Y-66402029D01*
X125479447Y-66391876D01*
X125462792Y-66378208D01*
X125449124Y-66361553D01*
X125438971Y-66342557D01*
X125432716Y-66321938D01*
X125430000Y-66294360D01*
X125430000Y-65785640D01*
X125432716Y-65758062D01*
X125438971Y-65737443D01*
X125449124Y-65718447D01*
X125462792Y-65701792D01*
X125479447Y-65688124D01*
X125498443Y-65677971D01*
X125519062Y-65671716D01*
X125546640Y-65669000D01*
X126005360Y-65669000D01*
X126032938Y-65671716D01*
G37*
G36*
X134863000Y-66255000D02*
G01*
X133701000Y-66255000D01*
X133701000Y-63793000D01*
X134863000Y-63793000D01*
X134863000Y-66255000D01*
G37*
G36*
X137063000Y-66255000D02*
G01*
X135901000Y-66255000D01*
X135901000Y-63793000D01*
X137063000Y-63793000D01*
X137063000Y-66255000D01*
G37*
G36*
X139559512Y-64127927D02*
G01*
X139708812Y-64157624D01*
X139872784Y-64225544D01*
X140020354Y-64324147D01*
X140145853Y-64449646D01*
X140244456Y-64597216D01*
X140312376Y-64761188D01*
X140347000Y-64935259D01*
X140347000Y-65112741D01*
X140312376Y-65286812D01*
X140244456Y-65450784D01*
X140145853Y-65598354D01*
X140020354Y-65723853D01*
X139872784Y-65822456D01*
X139708812Y-65890376D01*
X139559512Y-65920073D01*
X139534742Y-65925000D01*
X139357258Y-65925000D01*
X139332488Y-65920073D01*
X139183188Y-65890376D01*
X139019216Y-65822456D01*
X138871646Y-65723853D01*
X138746147Y-65598354D01*
X138647544Y-65450784D01*
X138579624Y-65286812D01*
X138545000Y-65112741D01*
X138545000Y-64935259D01*
X138579624Y-64761188D01*
X138647544Y-64597216D01*
X138746147Y-64449646D01*
X138871646Y-64324147D01*
X139019216Y-64225544D01*
X139183188Y-64157624D01*
X139332488Y-64127927D01*
X139357258Y-64123000D01*
X139534742Y-64123000D01*
X139559512Y-64127927D01*
G37*
G36*
X129496938Y-63131716D02*
G01*
X129517557Y-63137971D01*
X129536553Y-63148124D01*
X129553208Y-63161792D01*
X129566876Y-63178447D01*
X129577029Y-63197443D01*
X129583284Y-63218062D01*
X129586000Y-63245640D01*
X129586000Y-63754360D01*
X129583284Y-63781938D01*
X129577029Y-63802557D01*
X129566876Y-63821553D01*
X129553208Y-63838208D01*
X129536553Y-63851876D01*
X129517557Y-63862029D01*
X129496938Y-63868284D01*
X129469360Y-63871000D01*
X129010640Y-63871000D01*
X128983062Y-63868284D01*
X128962443Y-63862029D01*
X128943447Y-63851876D01*
X128926792Y-63838208D01*
X128913124Y-63821553D01*
X128902971Y-63802557D01*
X128896716Y-63781938D01*
X128894000Y-63754360D01*
X128894000Y-63245640D01*
X128896716Y-63218062D01*
X128902971Y-63197443D01*
X128913124Y-63178447D01*
X128926792Y-63161792D01*
X128943447Y-63148124D01*
X128962443Y-63137971D01*
X128983062Y-63131716D01*
X129010640Y-63129000D01*
X129469360Y-63129000D01*
X129496938Y-63131716D01*
G37*
G36*
X128526938Y-63131716D02*
G01*
X128547557Y-63137971D01*
X128566553Y-63148124D01*
X128583208Y-63161792D01*
X128596876Y-63178447D01*
X128607029Y-63197443D01*
X128613284Y-63218062D01*
X128616000Y-63245640D01*
X128616000Y-63754360D01*
X128613284Y-63781938D01*
X128607029Y-63802557D01*
X128596876Y-63821553D01*
X128583208Y-63838208D01*
X128566553Y-63851876D01*
X128547557Y-63862029D01*
X128526938Y-63868284D01*
X128499360Y-63871000D01*
X128040640Y-63871000D01*
X128013062Y-63868284D01*
X127992443Y-63862029D01*
X127973447Y-63851876D01*
X127956792Y-63838208D01*
X127943124Y-63821553D01*
X127932971Y-63802557D01*
X127926716Y-63781938D01*
X127924000Y-63754360D01*
X127924000Y-63245640D01*
X127926716Y-63218062D01*
X127932971Y-63197443D01*
X127943124Y-63178447D01*
X127956792Y-63161792D01*
X127973447Y-63148124D01*
X127992443Y-63137971D01*
X128013062Y-63131716D01*
X128040640Y-63129000D01*
X128499360Y-63129000D01*
X128526938Y-63131716D01*
G37*
G36*
X131089938Y-63131716D02*
G01*
X131110557Y-63137971D01*
X131129553Y-63148124D01*
X131146208Y-63161792D01*
X131159876Y-63178447D01*
X131170029Y-63197443D01*
X131176284Y-63218062D01*
X131179000Y-63245640D01*
X131179000Y-63754360D01*
X131176284Y-63781938D01*
X131170029Y-63802557D01*
X131159876Y-63821553D01*
X131146208Y-63838208D01*
X131129553Y-63851876D01*
X131110557Y-63862029D01*
X131089938Y-63868284D01*
X131062360Y-63871000D01*
X130603640Y-63871000D01*
X130576062Y-63868284D01*
X130555443Y-63862029D01*
X130536447Y-63851876D01*
X130519792Y-63838208D01*
X130506124Y-63821553D01*
X130495971Y-63802557D01*
X130489716Y-63781938D01*
X130487000Y-63754360D01*
X130487000Y-63245640D01*
X130489716Y-63218062D01*
X130495971Y-63197443D01*
X130506124Y-63178447D01*
X130519792Y-63161792D01*
X130536447Y-63148124D01*
X130555443Y-63137971D01*
X130576062Y-63131716D01*
X130603640Y-63129000D01*
X131062360Y-63129000D01*
X131089938Y-63131716D01*
G37*
G36*
X132059938Y-63131716D02*
G01*
X132080557Y-63137971D01*
X132099553Y-63148124D01*
X132116208Y-63161792D01*
X132129876Y-63178447D01*
X132140029Y-63197443D01*
X132146284Y-63218062D01*
X132149000Y-63245640D01*
X132149000Y-63754360D01*
X132146284Y-63781938D01*
X132140029Y-63802557D01*
X132129876Y-63821553D01*
X132116208Y-63838208D01*
X132099553Y-63851876D01*
X132080557Y-63862029D01*
X132059938Y-63868284D01*
X132032360Y-63871000D01*
X131573640Y-63871000D01*
X131546062Y-63868284D01*
X131525443Y-63862029D01*
X131506447Y-63851876D01*
X131489792Y-63838208D01*
X131476124Y-63821553D01*
X131465971Y-63802557D01*
X131459716Y-63781938D01*
X131457000Y-63754360D01*
X131457000Y-63245640D01*
X131459716Y-63218062D01*
X131465971Y-63197443D01*
X131476124Y-63178447D01*
X131489792Y-63161792D01*
X131506447Y-63148124D01*
X131525443Y-63137971D01*
X131546062Y-63131716D01*
X131573640Y-63129000D01*
X132032360Y-63129000D01*
X132059938Y-63131716D01*
G37*
G36*
X139559512Y-61587927D02*
G01*
X139708812Y-61617624D01*
X139872784Y-61685544D01*
X140020354Y-61784147D01*
X140145853Y-61909646D01*
X140244456Y-62057216D01*
X140312376Y-62221188D01*
X140342073Y-62370488D01*
X140347000Y-62395258D01*
X140347000Y-62572742D01*
X140342073Y-62597512D01*
X140312376Y-62746812D01*
X140244456Y-62910784D01*
X140145853Y-63058354D01*
X140020354Y-63183853D01*
X139872784Y-63282456D01*
X139708812Y-63350376D01*
X139559512Y-63380073D01*
X139534742Y-63385000D01*
X139357258Y-63385000D01*
X139332488Y-63380073D01*
X139183188Y-63350376D01*
X139019216Y-63282456D01*
X138871646Y-63183853D01*
X138746147Y-63058354D01*
X138647544Y-62910784D01*
X138579624Y-62746812D01*
X138549927Y-62597512D01*
X138545000Y-62572742D01*
X138545000Y-62395258D01*
X138549927Y-62370488D01*
X138579624Y-62221188D01*
X138647544Y-62057216D01*
X138746147Y-61909646D01*
X138871646Y-61784147D01*
X139019216Y-61685544D01*
X139183188Y-61617624D01*
X139332488Y-61587927D01*
X139357258Y-61583000D01*
X139534742Y-61583000D01*
X139559512Y-61587927D01*
G37*
G36*
X128018938Y-61861716D02*
G01*
X128039557Y-61867971D01*
X128058553Y-61878124D01*
X128075208Y-61891792D01*
X128088876Y-61908447D01*
X128099029Y-61927443D01*
X128105284Y-61948062D01*
X128108000Y-61975640D01*
X128108000Y-62484360D01*
X128105284Y-62511938D01*
X128099029Y-62532557D01*
X128088876Y-62551553D01*
X128075208Y-62568208D01*
X128058553Y-62581876D01*
X128039557Y-62592029D01*
X128018938Y-62598284D01*
X127991360Y-62601000D01*
X127532640Y-62601000D01*
X127505062Y-62598284D01*
X127484443Y-62592029D01*
X127465447Y-62581876D01*
X127448792Y-62568208D01*
X127435124Y-62551553D01*
X127424971Y-62532557D01*
X127418716Y-62511938D01*
X127416000Y-62484360D01*
X127416000Y-61975640D01*
X127418716Y-61948062D01*
X127424971Y-61927443D01*
X127435124Y-61908447D01*
X127448792Y-61891792D01*
X127465447Y-61878124D01*
X127484443Y-61867971D01*
X127505062Y-61861716D01*
X127532640Y-61859000D01*
X127991360Y-61859000D01*
X128018938Y-61861716D01*
G37*
G36*
X127048938Y-61861716D02*
G01*
X127069557Y-61867971D01*
X127088553Y-61878124D01*
X127105208Y-61891792D01*
X127118876Y-61908447D01*
X127129029Y-61927443D01*
X127135284Y-61948062D01*
X127138000Y-61975640D01*
X127138000Y-62484360D01*
X127135284Y-62511938D01*
X127129029Y-62532557D01*
X127118876Y-62551553D01*
X127105208Y-62568208D01*
X127088553Y-62581876D01*
X127069557Y-62592029D01*
X127048938Y-62598284D01*
X127021360Y-62601000D01*
X126562640Y-62601000D01*
X126535062Y-62598284D01*
X126514443Y-62592029D01*
X126495447Y-62581876D01*
X126478792Y-62568208D01*
X126465124Y-62551553D01*
X126454971Y-62532557D01*
X126448716Y-62511938D01*
X126446000Y-62484360D01*
X126446000Y-61975640D01*
X126448716Y-61948062D01*
X126454971Y-61927443D01*
X126465124Y-61908447D01*
X126478792Y-61891792D01*
X126495447Y-61878124D01*
X126514443Y-61867971D01*
X126535062Y-61861716D01*
X126562640Y-61859000D01*
X127021360Y-61859000D01*
X127048938Y-61861716D01*
G37*
G36*
X125511000Y-61795000D02*
G01*
X123409000Y-61795000D01*
X123409000Y-60393000D01*
X125511000Y-60393000D01*
X125511000Y-61795000D01*
G37*
G36*
X132827000Y-61195000D02*
G01*
X130825000Y-61195000D01*
X130825000Y-58693000D01*
X132827000Y-58693000D01*
X132827000Y-61195000D01*
G37*
G36*
X136927000Y-61195000D02*
G01*
X134925000Y-61195000D01*
X134925000Y-58693000D01*
X136927000Y-58693000D01*
X136927000Y-61195000D01*
G37*
G36*
X128018938Y-60337716D02*
G01*
X128039557Y-60343971D01*
X128058553Y-60354124D01*
X128075208Y-60367792D01*
X128088876Y-60384447D01*
X128099029Y-60403443D01*
X128105284Y-60424062D01*
X128108000Y-60451640D01*
X128108000Y-60960360D01*
X128105284Y-60987938D01*
X128099029Y-61008557D01*
X128088876Y-61027553D01*
X128075208Y-61044208D01*
X128058553Y-61057876D01*
X128039557Y-61068029D01*
X128018938Y-61074284D01*
X127991360Y-61077000D01*
X127532640Y-61077000D01*
X127505062Y-61074284D01*
X127484443Y-61068029D01*
X127465447Y-61057876D01*
X127448792Y-61044208D01*
X127435124Y-61027553D01*
X127424971Y-61008557D01*
X127418716Y-60987938D01*
X127416000Y-60960360D01*
X127416000Y-60451640D01*
X127418716Y-60424062D01*
X127424971Y-60403443D01*
X127435124Y-60384447D01*
X127448792Y-60367792D01*
X127465447Y-60354124D01*
X127484443Y-60343971D01*
X127505062Y-60337716D01*
X127532640Y-60335000D01*
X127991360Y-60335000D01*
X128018938Y-60337716D01*
G37*
G36*
X127048938Y-60337716D02*
G01*
X127069557Y-60343971D01*
X127088553Y-60354124D01*
X127105208Y-60367792D01*
X127118876Y-60384447D01*
X127129029Y-60403443D01*
X127135284Y-60424062D01*
X127138000Y-60451640D01*
X127138000Y-60960360D01*
X127135284Y-60987938D01*
X127129029Y-61008557D01*
X127118876Y-61027553D01*
X127105208Y-61044208D01*
X127088553Y-61057876D01*
X127069557Y-61068029D01*
X127048938Y-61074284D01*
X127021360Y-61077000D01*
X126562640Y-61077000D01*
X126535062Y-61074284D01*
X126514443Y-61068029D01*
X126495447Y-61057876D01*
X126478792Y-61044208D01*
X126465124Y-61027553D01*
X126454971Y-61008557D01*
X126448716Y-60987938D01*
X126446000Y-60960360D01*
X126446000Y-60451640D01*
X126448716Y-60424062D01*
X126454971Y-60403443D01*
X126465124Y-60384447D01*
X126478792Y-60367792D01*
X126495447Y-60354124D01*
X126514443Y-60343971D01*
X126535062Y-60337716D01*
X126562640Y-60335000D01*
X127021360Y-60335000D01*
X127048938Y-60337716D01*
G37*
G36*
X121511000Y-60995000D02*
G01*
X119409000Y-60995000D01*
X119409000Y-58893000D01*
X121511000Y-58893000D01*
X121511000Y-60995000D01*
G37*
G36*
X117654564Y-58933389D02*
G01*
X117845833Y-59012615D01*
X117845835Y-59012616D01*
X118017973Y-59127635D01*
X118164365Y-59274027D01*
X118228256Y-59369646D01*
X118279385Y-59446167D01*
X118358611Y-59637436D01*
X118399000Y-59840484D01*
X118399000Y-60047516D01*
X118358611Y-60250564D01*
X118291789Y-60411886D01*
X118279384Y-60441835D01*
X118164365Y-60613973D01*
X118017973Y-60760365D01*
X117845835Y-60875384D01*
X117845834Y-60875385D01*
X117845833Y-60875385D01*
X117654564Y-60954611D01*
X117451516Y-60995000D01*
X117244484Y-60995000D01*
X117041436Y-60954611D01*
X116850167Y-60875385D01*
X116850166Y-60875385D01*
X116850165Y-60875384D01*
X116678027Y-60760365D01*
X116531635Y-60613973D01*
X116416616Y-60441835D01*
X116404211Y-60411886D01*
X116337389Y-60250564D01*
X116297000Y-60047516D01*
X116297000Y-59840484D01*
X116337389Y-59637436D01*
X116416615Y-59446167D01*
X116467745Y-59369646D01*
X116531635Y-59274027D01*
X116678027Y-59127635D01*
X116850165Y-59012616D01*
X116850167Y-59012615D01*
X117041436Y-58933389D01*
X117244484Y-58893000D01*
X117451516Y-58893000D01*
X117654564Y-58933389D01*
G37*
G36*
X139559512Y-59047927D02*
G01*
X139708812Y-59077624D01*
X139872784Y-59145544D01*
X140020354Y-59244147D01*
X140145853Y-59369646D01*
X140244456Y-59517216D01*
X140312376Y-59681188D01*
X140347000Y-59855259D01*
X140347000Y-60032741D01*
X140312376Y-60206812D01*
X140244456Y-60370784D01*
X140145853Y-60518354D01*
X140020354Y-60643853D01*
X139872784Y-60742456D01*
X139708812Y-60810376D01*
X139559512Y-60840073D01*
X139534742Y-60845000D01*
X139357258Y-60845000D01*
X139332488Y-60840073D01*
X139183188Y-60810376D01*
X139019216Y-60742456D01*
X138871646Y-60643853D01*
X138746147Y-60518354D01*
X138647544Y-60370784D01*
X138579624Y-60206812D01*
X138545000Y-60032741D01*
X138545000Y-59855259D01*
X138579624Y-59681188D01*
X138647544Y-59517216D01*
X138746147Y-59369646D01*
X138871646Y-59244147D01*
X139019216Y-59145544D01*
X139183188Y-59077624D01*
X139332488Y-59047927D01*
X139357258Y-59043000D01*
X139534742Y-59043000D01*
X139559512Y-59047927D01*
G37*
G36*
X125511000Y-59495000D02*
G01*
X123409000Y-59495000D01*
X123409000Y-58093000D01*
X125511000Y-58093000D01*
X125511000Y-59495000D01*
G37*
G36*
X128018938Y-57543716D02*
G01*
X128039557Y-57549971D01*
X128058553Y-57560124D01*
X128075208Y-57573792D01*
X128088876Y-57590447D01*
X128099029Y-57609443D01*
X128105284Y-57630062D01*
X128108000Y-57657640D01*
X128108000Y-58166360D01*
X128105284Y-58193938D01*
X128099029Y-58214557D01*
X128088876Y-58233553D01*
X128075208Y-58250208D01*
X128058553Y-58263876D01*
X128039557Y-58274029D01*
X128018938Y-58280284D01*
X127991360Y-58283000D01*
X127532640Y-58283000D01*
X127505062Y-58280284D01*
X127484443Y-58274029D01*
X127465447Y-58263876D01*
X127448792Y-58250208D01*
X127435124Y-58233553D01*
X127424971Y-58214557D01*
X127418716Y-58193938D01*
X127416000Y-58166360D01*
X127416000Y-57657640D01*
X127418716Y-57630062D01*
X127424971Y-57609443D01*
X127435124Y-57590447D01*
X127448792Y-57573792D01*
X127465447Y-57560124D01*
X127484443Y-57549971D01*
X127505062Y-57543716D01*
X127532640Y-57541000D01*
X127991360Y-57541000D01*
X128018938Y-57543716D01*
G37*
G36*
X127048938Y-57543716D02*
G01*
X127069557Y-57549971D01*
X127088553Y-57560124D01*
X127105208Y-57573792D01*
X127118876Y-57590447D01*
X127129029Y-57609443D01*
X127135284Y-57630062D01*
X127138000Y-57657640D01*
X127138000Y-58166360D01*
X127135284Y-58193938D01*
X127129029Y-58214557D01*
X127118876Y-58233553D01*
X127105208Y-58250208D01*
X127088553Y-58263876D01*
X127069557Y-58274029D01*
X127048938Y-58280284D01*
X127021360Y-58283000D01*
X126562640Y-58283000D01*
X126535062Y-58280284D01*
X126514443Y-58274029D01*
X126495447Y-58263876D01*
X126478792Y-58250208D01*
X126465124Y-58233553D01*
X126454971Y-58214557D01*
X126448716Y-58193938D01*
X126446000Y-58166360D01*
X126446000Y-57657640D01*
X126448716Y-57630062D01*
X126454971Y-57609443D01*
X126465124Y-57590447D01*
X126478792Y-57573792D01*
X126495447Y-57560124D01*
X126514443Y-57549971D01*
X126535062Y-57543716D01*
X126562640Y-57541000D01*
X127021360Y-57541000D01*
X127048938Y-57543716D01*
G37*
M02*
