M48
; DRILL file {KiCad (5.1.5-0-10_14)} date Tuesday, June 30, 2020 at 05:37:41 PM
; FORMAT={-:-/ absolute / inch / decimal}
; #@! TF.CreationDate,2020-06-30T17:37:41-04:00
; #@! TF.GenerationSoftware,Kicad,Pcbnew,(5.1.5-0-10_14)
; #@! TF.FileFunction,Plated,1,2,PTH
FMAT,2
INCH
T1C0.0157
T2C0.0315
T3C0.0394
T4C0.0472
T5C0.1200
%
G90
G05
T1
X5.03Y-2.335
X5.12Y-2.5
X5.24Y-2.57
X5.3002Y-3.3652
X5.3198Y-3.2202
X5.3244Y-3.1756
X5.325Y-3.125
X5.47Y-3.01
X5.505Y-2.9779
X5.515Y-4.275
X5.61Y-3.025
X5.675Y-4.14
X5.69Y-4.215
X5.75Y-3.99
X5.835Y-3.35
X5.855Y-4.38
X5.89Y-4.24
X5.925Y-3.11
X5.97Y-4.5435
X6.075Y-3.965
X6.115Y-3.7
X6.15Y-3.99
X6.18Y-4.195
X6.37Y-3.83
T2
X4.6165Y-3.0135
X4.6165Y-3.1135
X4.6165Y-3.2135
X4.6165Y-3.3135
X4.6165Y-3.4135
X4.6165Y-3.5135
X4.6165Y-3.6135
X4.6165Y-3.7135
X4.6165Y-3.8135
X4.6165Y-3.9135
X4.6165Y-4.0135
X4.6165Y-4.1135
X4.6165Y-4.2135
X4.6165Y-4.3135
X4.6165Y-4.4135
X4.6165Y-4.5135
X5.4165Y-3.4135
X5.4165Y-3.5135
X5.4165Y-3.6135
X5.4165Y-3.7135
X5.4165Y-3.8135
X5.4165Y-3.9135
X5.4165Y-4.0135
X5.4165Y-4.1135
X5.4165Y-4.2135
X5.4165Y-4.3135
X5.4165Y-4.4135
X5.4165Y-4.5135
X5.63Y-3.67
X5.63Y-3.77
X5.63Y-3.87
X5.63Y-3.97
X5.93Y-3.67
X5.93Y-3.77
X5.93Y-3.87
X5.93Y-3.97
T3
X4.62Y-2.36
X5.49Y-2.36
X5.49Y-2.46
X5.49Y-2.56
X5.49Y-2.66
T4
X6.53Y-3.3766
X6.53Y-3.5144
X6.53Y-3.6522
X6.53Y-3.79
X6.1022Y-4.41
X6.24Y-4.41
X6.53Y-4.0566
X6.53Y-4.1944
X6.53Y-4.3322
X6.53Y-4.47
T5
X5.04Y-3.12
X5.04Y-4.42
X6.24Y-3.36
T0
M30
