G04 #@! TF.GenerationSoftware,KiCad,Pcbnew,(5.1.5-0-10_14)*
G04 #@! TF.CreationDate,2020-06-30T17:37:43-04:00*
G04 #@! TF.ProjectId,Pinky,50696e6b-792e-46b6-9963-61645f706362,rev?*
G04 #@! TF.SameCoordinates,Original*
G04 #@! TF.FileFunction,Copper,L2,Bot*
G04 #@! TF.FilePolarity,Positive*
%FSLAX46Y46*%
G04 Gerber Fmt 4.6, Leading zero omitted, Abs format (unit mm)*
G04 Created by KiCad (PCBNEW (5.1.5-0-10_14)) date 2020-06-30 17:37:43*
%MOMM*%
%LPD*%
G04 APERTURE LIST*
%ADD10O,1.600000X1.600000*%
%ADD11R,1.600000X1.600000*%
%ADD12O,2.000000X1.200000*%
%ADD13C,2.000000*%
%ADD14C,2.400000*%
%ADD15R,2.400000X2.400000*%
%ADD16O,1.700000X1.700000*%
%ADD17R,1.700000X1.700000*%
%ADD18C,3.556000*%
%ADD19C,0.800000*%
%ADD20C,0.250000*%
%ADD21C,0.254000*%
G04 APERTURE END LIST*
D10*
X150622000Y-93218000D03*
X143002000Y-100838000D03*
X150622000Y-95758000D03*
X143002000Y-98298000D03*
X150622000Y-98298000D03*
X143002000Y-95758000D03*
X150622000Y-100838000D03*
D11*
X143002000Y-93218000D03*
D12*
X117260000Y-114644000D03*
X137580000Y-114644000D03*
X117260000Y-112104000D03*
X137580000Y-112104000D03*
X117260000Y-109564000D03*
X137580000Y-109564000D03*
X117260000Y-107024000D03*
X137580000Y-107024000D03*
X117260000Y-104484000D03*
X137580000Y-104484000D03*
X117260000Y-101944000D03*
X137580000Y-101944000D03*
X117260000Y-99404000D03*
X137580000Y-99404000D03*
X117260000Y-96864000D03*
X137580000Y-96864000D03*
X117260000Y-94324000D03*
X137580000Y-94324000D03*
X117260000Y-91784000D03*
X137580000Y-91784000D03*
X117260000Y-89244000D03*
X137580000Y-89244000D03*
X117260000Y-86704000D03*
X137580000Y-86704000D03*
X117260000Y-84164000D03*
X117260000Y-81624000D03*
X117260000Y-79084000D03*
X117260000Y-76544000D03*
D13*
X117348000Y-59944000D03*
D14*
X158496000Y-112014000D03*
D15*
X154996000Y-112014000D03*
D14*
X165862000Y-103038000D03*
X165862000Y-106538000D03*
X165862000Y-110038000D03*
D15*
X165862000Y-113538000D03*
D14*
X165862000Y-85766000D03*
X165862000Y-89266000D03*
X165862000Y-92766000D03*
D15*
X165862000Y-96266000D03*
D16*
X139446000Y-59944000D03*
X139446000Y-62484000D03*
X139446000Y-65024000D03*
D17*
X139446000Y-67564000D03*
D18*
X128016000Y-79248000D03*
X128016000Y-112268000D03*
X158496000Y-85344000D03*
D19*
X127762000Y-59309000D03*
X150495000Y-78994000D03*
X148209000Y-85090000D03*
X155321000Y-93980000D03*
X144526000Y-107060998D03*
X148717000Y-111251994D03*
X149606000Y-107696000D03*
X151638000Y-115404500D03*
X154305000Y-100711000D03*
X161798000Y-97282000D03*
X142494000Y-76835014D03*
X130048000Y-63500000D03*
X133095990Y-65278000D03*
X156972000Y-106553000D03*
X146050000Y-101346000D03*
X134624660Y-85475660D03*
X138938000Y-76454000D03*
X139827000Y-75638176D03*
X135255000Y-79375000D03*
X135240433Y-80661095D03*
X135123340Y-81792660D03*
X140080999Y-108585000D03*
X144145000Y-105156000D03*
X156210000Y-101346000D03*
D20*
X143002000Y-90678000D02*
X143002000Y-92168000D01*
X137580000Y-86704000D02*
X139028000Y-86704000D01*
X143002000Y-92168000D02*
X143002000Y-93218000D01*
X139028000Y-86704000D02*
X143002000Y-90678000D01*
X157371999Y-106952999D02*
X156972000Y-106553000D01*
X163957000Y-113538000D02*
X157371999Y-106952999D01*
X165862000Y-113538000D02*
X163957000Y-113538000D01*
X134058975Y-85475660D02*
X134624660Y-85475660D01*
X146050000Y-101346000D02*
X146050000Y-92710000D01*
X117260000Y-79084000D02*
X118510000Y-79084000D01*
X124901660Y-85475660D02*
X134058975Y-85475660D01*
X138815660Y-85475660D02*
X135190345Y-85475660D01*
X118510000Y-79084000D02*
X124901660Y-85475660D01*
X146050000Y-92710000D02*
X138815660Y-85475660D01*
X135190345Y-85475660D02*
X134624660Y-85475660D01*
X138596001Y-63333999D02*
X139446000Y-62484000D01*
X137598989Y-75114989D02*
X137598989Y-64331011D01*
X138938000Y-76454000D02*
X137598989Y-75114989D01*
X137598989Y-64331011D02*
X138596001Y-63333999D01*
X138049000Y-66421000D02*
X138596001Y-65873999D01*
X138049000Y-74676000D02*
X138049000Y-66421000D01*
X138596001Y-65873999D02*
X139446000Y-65024000D01*
X139011176Y-75638176D02*
X138049000Y-74676000D01*
X139827000Y-75638176D02*
X139011176Y-75638176D01*
X161585000Y-90043000D02*
X165862000Y-85766000D01*
X135255000Y-79375000D02*
X145923000Y-90043000D01*
X145923000Y-90043000D02*
X161585000Y-90043000D01*
X164323000Y-90805000D02*
X145796000Y-90805000D01*
X145796000Y-90805000D02*
X135652095Y-80661095D01*
X135652095Y-80661095D02*
X135240433Y-80661095D01*
X165862000Y-89266000D02*
X164323000Y-90805000D01*
X135689025Y-81792660D02*
X135123340Y-81792660D01*
X135894660Y-81792660D02*
X135689025Y-81792660D01*
X145668001Y-91566001D02*
X135894660Y-81792660D01*
X164662001Y-91566001D02*
X145668001Y-91566001D01*
X165862000Y-92766000D02*
X164662001Y-91566001D01*
X140716000Y-108585000D02*
X144145000Y-105156000D01*
X140080999Y-108585000D02*
X140716000Y-108585000D01*
X154051000Y-103505000D02*
X156210000Y-101346000D01*
X140391000Y-103505000D02*
X154051000Y-103505000D01*
X138830000Y-101944000D02*
X140391000Y-103505000D01*
X137580000Y-101944000D02*
X138830000Y-101944000D01*
D21*
G36*
X141072000Y-74135581D02*
G01*
X141068807Y-74168000D01*
X141081550Y-74297383D01*
X141119290Y-74421793D01*
X141180575Y-74536450D01*
X141235336Y-74603176D01*
X141263052Y-74636948D01*
X141363550Y-74719425D01*
X141478207Y-74780710D01*
X141602617Y-74818450D01*
X141732000Y-74831193D01*
X141764419Y-74828000D01*
X170028001Y-74828000D01*
X170028000Y-116180000D01*
X114960000Y-116180000D01*
X114960000Y-114961609D01*
X115666538Y-114961609D01*
X115670409Y-114999282D01*
X115762579Y-115224533D01*
X115896922Y-115427474D01*
X116068275Y-115600307D01*
X116270054Y-115736390D01*
X116494504Y-115830493D01*
X116733000Y-115879000D01*
X117133000Y-115879000D01*
X117133000Y-114771000D01*
X117387000Y-114771000D01*
X117387000Y-115879000D01*
X117787000Y-115879000D01*
X118025496Y-115830493D01*
X118249946Y-115736390D01*
X118451725Y-115600307D01*
X118623078Y-115427474D01*
X118757421Y-115224533D01*
X118849591Y-114999282D01*
X118853462Y-114961609D01*
X118728731Y-114771000D01*
X117387000Y-114771000D01*
X117133000Y-114771000D01*
X115791269Y-114771000D01*
X115666538Y-114961609D01*
X114960000Y-114961609D01*
X114960000Y-114326391D01*
X115666538Y-114326391D01*
X115791269Y-114517000D01*
X117133000Y-114517000D01*
X117133000Y-113409000D01*
X117387000Y-113409000D01*
X117387000Y-114517000D01*
X118728731Y-114517000D01*
X118853462Y-114326391D01*
X118849591Y-114288718D01*
X118757421Y-114063467D01*
X118623078Y-113860526D01*
X118451725Y-113687693D01*
X118249946Y-113551610D01*
X118025496Y-113457507D01*
X117787000Y-113409000D01*
X117387000Y-113409000D01*
X117133000Y-113409000D01*
X116733000Y-113409000D01*
X116494504Y-113457507D01*
X116270054Y-113551610D01*
X116068275Y-113687693D01*
X115896922Y-113860526D01*
X115762579Y-114063467D01*
X115670409Y-114288718D01*
X115666538Y-114326391D01*
X114960000Y-114326391D01*
X114960000Y-112104000D01*
X115619025Y-112104000D01*
X115642870Y-112346102D01*
X115713489Y-112578901D01*
X115828167Y-112793449D01*
X115982498Y-112981502D01*
X116170551Y-113135833D01*
X116385099Y-113250511D01*
X116617898Y-113321130D01*
X116799335Y-113339000D01*
X117720665Y-113339000D01*
X117902102Y-113321130D01*
X118134901Y-113250511D01*
X118349449Y-113135833D01*
X118537502Y-112981502D01*
X118691833Y-112793449D01*
X118806511Y-112578901D01*
X118877130Y-112346102D01*
X118900975Y-112104000D01*
X118893721Y-112030340D01*
X125603000Y-112030340D01*
X125603000Y-112505660D01*
X125695731Y-112971846D01*
X125877628Y-113410984D01*
X126141701Y-113806198D01*
X126477802Y-114142299D01*
X126873016Y-114406372D01*
X127312154Y-114588269D01*
X127778340Y-114681000D01*
X128253660Y-114681000D01*
X128439669Y-114644000D01*
X135939025Y-114644000D01*
X135962870Y-114886102D01*
X136033489Y-115118901D01*
X136148167Y-115333449D01*
X136302498Y-115521502D01*
X136490551Y-115675833D01*
X136705099Y-115790511D01*
X136937898Y-115861130D01*
X137119335Y-115879000D01*
X138040665Y-115879000D01*
X138222102Y-115861130D01*
X138454901Y-115790511D01*
X138669449Y-115675833D01*
X138857502Y-115521502D01*
X139011833Y-115333449D01*
X139126511Y-115118901D01*
X139197130Y-114886102D01*
X139220975Y-114644000D01*
X139197130Y-114401898D01*
X139126511Y-114169099D01*
X139011833Y-113954551D01*
X138857502Y-113766498D01*
X138669449Y-113612167D01*
X138454901Y-113497489D01*
X138222102Y-113426870D01*
X138040665Y-113409000D01*
X137119335Y-113409000D01*
X136937898Y-113426870D01*
X136705099Y-113497489D01*
X136490551Y-113612167D01*
X136302498Y-113766498D01*
X136148167Y-113954551D01*
X136033489Y-114169099D01*
X135962870Y-114401898D01*
X135939025Y-114644000D01*
X128439669Y-114644000D01*
X128719846Y-114588269D01*
X129158984Y-114406372D01*
X129554198Y-114142299D01*
X129890299Y-113806198D01*
X130154372Y-113410984D01*
X130336269Y-112971846D01*
X130429000Y-112505660D01*
X130429000Y-112104000D01*
X135939025Y-112104000D01*
X135962870Y-112346102D01*
X136033489Y-112578901D01*
X136148167Y-112793449D01*
X136302498Y-112981502D01*
X136490551Y-113135833D01*
X136705099Y-113250511D01*
X136937898Y-113321130D01*
X137119335Y-113339000D01*
X138040665Y-113339000D01*
X138222102Y-113321130D01*
X138454901Y-113250511D01*
X138669449Y-113135833D01*
X138857502Y-112981502D01*
X139011833Y-112793449D01*
X139126511Y-112578901D01*
X139197130Y-112346102D01*
X139220975Y-112104000D01*
X139197130Y-111861898D01*
X139126511Y-111629099D01*
X139011833Y-111414551D01*
X138857502Y-111226498D01*
X138669449Y-111072167D01*
X138454901Y-110957489D01*
X138222102Y-110886870D01*
X138040665Y-110869000D01*
X137119335Y-110869000D01*
X136937898Y-110886870D01*
X136705099Y-110957489D01*
X136490551Y-111072167D01*
X136302498Y-111226498D01*
X136148167Y-111414551D01*
X136033489Y-111629099D01*
X135962870Y-111861898D01*
X135939025Y-112104000D01*
X130429000Y-112104000D01*
X130429000Y-112030340D01*
X130336269Y-111564154D01*
X130154372Y-111125016D01*
X129946559Y-110814000D01*
X153157928Y-110814000D01*
X153157928Y-113214000D01*
X153170188Y-113338482D01*
X153206498Y-113458180D01*
X153265463Y-113568494D01*
X153344815Y-113665185D01*
X153441506Y-113744537D01*
X153551820Y-113803502D01*
X153671518Y-113839812D01*
X153796000Y-113852072D01*
X156196000Y-113852072D01*
X156320482Y-113839812D01*
X156440180Y-113803502D01*
X156550494Y-113744537D01*
X156647185Y-113665185D01*
X156726537Y-113568494D01*
X156785502Y-113458180D01*
X156821812Y-113338482D01*
X156826391Y-113291980D01*
X157397626Y-113291980D01*
X157517514Y-113576836D01*
X157841210Y-113737699D01*
X158190069Y-113832322D01*
X158550684Y-113857067D01*
X158909198Y-113810985D01*
X159251833Y-113695846D01*
X159474486Y-113576836D01*
X159594374Y-113291980D01*
X158496000Y-112193605D01*
X157397626Y-113291980D01*
X156826391Y-113291980D01*
X156834072Y-113214000D01*
X156834072Y-112807097D01*
X156933164Y-112992486D01*
X157218020Y-113112374D01*
X158316395Y-112014000D01*
X158675605Y-112014000D01*
X159773980Y-113112374D01*
X160058836Y-112992486D01*
X160219699Y-112668790D01*
X160314322Y-112319931D01*
X160339067Y-111959316D01*
X160292985Y-111600802D01*
X160177846Y-111258167D01*
X160058836Y-111035514D01*
X159773980Y-110915626D01*
X158675605Y-112014000D01*
X158316395Y-112014000D01*
X157218020Y-110915626D01*
X156933164Y-111035514D01*
X156834072Y-111234912D01*
X156834072Y-110814000D01*
X156826392Y-110736020D01*
X157397626Y-110736020D01*
X158496000Y-111834395D01*
X159594374Y-110736020D01*
X159474486Y-110451164D01*
X159150790Y-110290301D01*
X158801931Y-110195678D01*
X158441316Y-110170933D01*
X158082802Y-110217015D01*
X157740167Y-110332154D01*
X157517514Y-110451164D01*
X157397626Y-110736020D01*
X156826392Y-110736020D01*
X156821812Y-110689518D01*
X156785502Y-110569820D01*
X156726537Y-110459506D01*
X156647185Y-110362815D01*
X156550494Y-110283463D01*
X156440180Y-110224498D01*
X156320482Y-110188188D01*
X156196000Y-110175928D01*
X153796000Y-110175928D01*
X153671518Y-110188188D01*
X153551820Y-110224498D01*
X153441506Y-110283463D01*
X153344815Y-110362815D01*
X153265463Y-110459506D01*
X153206498Y-110569820D01*
X153170188Y-110689518D01*
X153157928Y-110814000D01*
X129946559Y-110814000D01*
X129890299Y-110729802D01*
X129554198Y-110393701D01*
X129158984Y-110129628D01*
X128719846Y-109947731D01*
X128253660Y-109855000D01*
X127778340Y-109855000D01*
X127312154Y-109947731D01*
X126873016Y-110129628D01*
X126477802Y-110393701D01*
X126141701Y-110729802D01*
X125877628Y-111125016D01*
X125695731Y-111564154D01*
X125603000Y-112030340D01*
X118893721Y-112030340D01*
X118877130Y-111861898D01*
X118806511Y-111629099D01*
X118691833Y-111414551D01*
X118537502Y-111226498D01*
X118349449Y-111072167D01*
X118134901Y-110957489D01*
X117902102Y-110886870D01*
X117720665Y-110869000D01*
X116799335Y-110869000D01*
X116617898Y-110886870D01*
X116385099Y-110957489D01*
X116170551Y-111072167D01*
X115982498Y-111226498D01*
X115828167Y-111414551D01*
X115713489Y-111629099D01*
X115642870Y-111861898D01*
X115619025Y-112104000D01*
X114960000Y-112104000D01*
X114960000Y-109564000D01*
X115619025Y-109564000D01*
X115642870Y-109806102D01*
X115713489Y-110038901D01*
X115828167Y-110253449D01*
X115982498Y-110441502D01*
X116170551Y-110595833D01*
X116385099Y-110710511D01*
X116617898Y-110781130D01*
X116799335Y-110799000D01*
X117720665Y-110799000D01*
X117902102Y-110781130D01*
X118134901Y-110710511D01*
X118349449Y-110595833D01*
X118537502Y-110441502D01*
X118691833Y-110253449D01*
X118806511Y-110038901D01*
X118877130Y-109806102D01*
X118900975Y-109564000D01*
X135939025Y-109564000D01*
X135962870Y-109806102D01*
X136033489Y-110038901D01*
X136148167Y-110253449D01*
X136302498Y-110441502D01*
X136490551Y-110595833D01*
X136705099Y-110710511D01*
X136937898Y-110781130D01*
X137119335Y-110799000D01*
X138040665Y-110799000D01*
X138222102Y-110781130D01*
X138454901Y-110710511D01*
X138669449Y-110595833D01*
X138857502Y-110441502D01*
X139011833Y-110253449D01*
X139126511Y-110038901D01*
X139197130Y-109806102D01*
X139220975Y-109564000D01*
X139197130Y-109321898D01*
X139126511Y-109089099D01*
X139011833Y-108874551D01*
X138857502Y-108686498D01*
X138669449Y-108532167D01*
X138454901Y-108417489D01*
X138222102Y-108346870D01*
X138040665Y-108329000D01*
X137119335Y-108329000D01*
X136937898Y-108346870D01*
X136705099Y-108417489D01*
X136490551Y-108532167D01*
X136302498Y-108686498D01*
X136148167Y-108874551D01*
X136033489Y-109089099D01*
X135962870Y-109321898D01*
X135939025Y-109564000D01*
X118900975Y-109564000D01*
X118877130Y-109321898D01*
X118806511Y-109089099D01*
X118691833Y-108874551D01*
X118537502Y-108686498D01*
X118349449Y-108532167D01*
X118134901Y-108417489D01*
X117902102Y-108346870D01*
X117720665Y-108329000D01*
X116799335Y-108329000D01*
X116617898Y-108346870D01*
X116385099Y-108417489D01*
X116170551Y-108532167D01*
X115982498Y-108686498D01*
X115828167Y-108874551D01*
X115713489Y-109089099D01*
X115642870Y-109321898D01*
X115619025Y-109564000D01*
X114960000Y-109564000D01*
X114960000Y-107024000D01*
X115619025Y-107024000D01*
X115642870Y-107266102D01*
X115713489Y-107498901D01*
X115828167Y-107713449D01*
X115982498Y-107901502D01*
X116170551Y-108055833D01*
X116385099Y-108170511D01*
X116617898Y-108241130D01*
X116799335Y-108259000D01*
X117720665Y-108259000D01*
X117902102Y-108241130D01*
X118134901Y-108170511D01*
X118349449Y-108055833D01*
X118537502Y-107901502D01*
X118691833Y-107713449D01*
X118806511Y-107498901D01*
X118877130Y-107266102D01*
X118900975Y-107024000D01*
X135939025Y-107024000D01*
X135962870Y-107266102D01*
X136033489Y-107498901D01*
X136148167Y-107713449D01*
X136302498Y-107901502D01*
X136490551Y-108055833D01*
X136705099Y-108170511D01*
X136937898Y-108241130D01*
X137119335Y-108259000D01*
X138040665Y-108259000D01*
X138222102Y-108241130D01*
X138454901Y-108170511D01*
X138669449Y-108055833D01*
X138857502Y-107901502D01*
X139011833Y-107713449D01*
X139126511Y-107498901D01*
X139197130Y-107266102D01*
X139220975Y-107024000D01*
X139197130Y-106781898D01*
X139126511Y-106549099D01*
X139011833Y-106334551D01*
X138857502Y-106146498D01*
X138669449Y-105992167D01*
X138454901Y-105877489D01*
X138222102Y-105806870D01*
X138040665Y-105789000D01*
X137119335Y-105789000D01*
X136937898Y-105806870D01*
X136705099Y-105877489D01*
X136490551Y-105992167D01*
X136302498Y-106146498D01*
X136148167Y-106334551D01*
X136033489Y-106549099D01*
X135962870Y-106781898D01*
X135939025Y-107024000D01*
X118900975Y-107024000D01*
X118877130Y-106781898D01*
X118806511Y-106549099D01*
X118691833Y-106334551D01*
X118537502Y-106146498D01*
X118349449Y-105992167D01*
X118134901Y-105877489D01*
X117902102Y-105806870D01*
X117720665Y-105789000D01*
X116799335Y-105789000D01*
X116617898Y-105806870D01*
X116385099Y-105877489D01*
X116170551Y-105992167D01*
X115982498Y-106146498D01*
X115828167Y-106334551D01*
X115713489Y-106549099D01*
X115642870Y-106781898D01*
X115619025Y-107024000D01*
X114960000Y-107024000D01*
X114960000Y-104484000D01*
X115619025Y-104484000D01*
X115642870Y-104726102D01*
X115713489Y-104958901D01*
X115828167Y-105173449D01*
X115982498Y-105361502D01*
X116170551Y-105515833D01*
X116385099Y-105630511D01*
X116617898Y-105701130D01*
X116799335Y-105719000D01*
X117720665Y-105719000D01*
X117902102Y-105701130D01*
X118134901Y-105630511D01*
X118349449Y-105515833D01*
X118537502Y-105361502D01*
X118691833Y-105173449D01*
X118806511Y-104958901D01*
X118877130Y-104726102D01*
X118900975Y-104484000D01*
X135939025Y-104484000D01*
X135962870Y-104726102D01*
X136033489Y-104958901D01*
X136148167Y-105173449D01*
X136302498Y-105361502D01*
X136490551Y-105515833D01*
X136705099Y-105630511D01*
X136937898Y-105701130D01*
X137119335Y-105719000D01*
X138040665Y-105719000D01*
X138222102Y-105701130D01*
X138454901Y-105630511D01*
X138669449Y-105515833D01*
X138857502Y-105361502D01*
X139011833Y-105173449D01*
X139126511Y-104958901D01*
X139197130Y-104726102D01*
X139220975Y-104484000D01*
X139197130Y-104241898D01*
X139126511Y-104009099D01*
X139011833Y-103794551D01*
X138857502Y-103606498D01*
X138669449Y-103452167D01*
X138454901Y-103337489D01*
X138222102Y-103266870D01*
X138040665Y-103249000D01*
X137119335Y-103249000D01*
X136937898Y-103266870D01*
X136705099Y-103337489D01*
X136490551Y-103452167D01*
X136302498Y-103606498D01*
X136148167Y-103794551D01*
X136033489Y-104009099D01*
X135962870Y-104241898D01*
X135939025Y-104484000D01*
X118900975Y-104484000D01*
X118877130Y-104241898D01*
X118806511Y-104009099D01*
X118691833Y-103794551D01*
X118537502Y-103606498D01*
X118349449Y-103452167D01*
X118134901Y-103337489D01*
X117902102Y-103266870D01*
X117720665Y-103249000D01*
X116799335Y-103249000D01*
X116617898Y-103266870D01*
X116385099Y-103337489D01*
X116170551Y-103452167D01*
X115982498Y-103606498D01*
X115828167Y-103794551D01*
X115713489Y-104009099D01*
X115642870Y-104241898D01*
X115619025Y-104484000D01*
X114960000Y-104484000D01*
X114960000Y-101944000D01*
X115619025Y-101944000D01*
X115642870Y-102186102D01*
X115713489Y-102418901D01*
X115828167Y-102633449D01*
X115982498Y-102821502D01*
X116170551Y-102975833D01*
X116385099Y-103090511D01*
X116617898Y-103161130D01*
X116799335Y-103179000D01*
X117720665Y-103179000D01*
X117902102Y-103161130D01*
X118134901Y-103090511D01*
X118349449Y-102975833D01*
X118537502Y-102821502D01*
X118691833Y-102633449D01*
X118806511Y-102418901D01*
X118877130Y-102186102D01*
X118900975Y-101944000D01*
X135939025Y-101944000D01*
X135962870Y-102186102D01*
X136033489Y-102418901D01*
X136148167Y-102633449D01*
X136302498Y-102821502D01*
X136490551Y-102975833D01*
X136705099Y-103090511D01*
X136937898Y-103161130D01*
X137119335Y-103179000D01*
X138040665Y-103179000D01*
X138222102Y-103161130D01*
X138454901Y-103090511D01*
X138669449Y-102975833D01*
X138734031Y-102922832D01*
X139827201Y-104016003D01*
X139850999Y-104045001D01*
X139966724Y-104139974D01*
X140098753Y-104210546D01*
X140242014Y-104254003D01*
X140353667Y-104265000D01*
X140353676Y-104265000D01*
X140390999Y-104268676D01*
X140428322Y-104265000D01*
X143615525Y-104265000D01*
X143485226Y-104352063D01*
X143341063Y-104496226D01*
X143227795Y-104665744D01*
X143149774Y-104854102D01*
X143110000Y-105054061D01*
X143110000Y-105116198D01*
X140562168Y-107664031D01*
X140382897Y-107589774D01*
X140182938Y-107550000D01*
X139979060Y-107550000D01*
X139779101Y-107589774D01*
X139590743Y-107667795D01*
X139421225Y-107781063D01*
X139277062Y-107925226D01*
X139163794Y-108094744D01*
X139085773Y-108283102D01*
X139045999Y-108483061D01*
X139045999Y-108686939D01*
X139085773Y-108886898D01*
X139163794Y-109075256D01*
X139277062Y-109244774D01*
X139421225Y-109388937D01*
X139590743Y-109502205D01*
X139779101Y-109580226D01*
X139979060Y-109620000D01*
X140182938Y-109620000D01*
X140382897Y-109580226D01*
X140571255Y-109502205D01*
X140740773Y-109388937D01*
X140788138Y-109341572D01*
X140864986Y-109334003D01*
X141008247Y-109290546D01*
X141140276Y-109219974D01*
X141256001Y-109125001D01*
X141279804Y-109095997D01*
X143924740Y-106451061D01*
X155937000Y-106451061D01*
X155937000Y-106654939D01*
X155976774Y-106854898D01*
X156054795Y-107043256D01*
X156168063Y-107212774D01*
X156312226Y-107356937D01*
X156481744Y-107470205D01*
X156670102Y-107548226D01*
X156870061Y-107588000D01*
X156932199Y-107588000D01*
X163393201Y-114049003D01*
X163416999Y-114078001D01*
X163532724Y-114172974D01*
X163664753Y-114243546D01*
X163808014Y-114287003D01*
X163919667Y-114298000D01*
X163919675Y-114298000D01*
X163957000Y-114301676D01*
X163994325Y-114298000D01*
X164023928Y-114298000D01*
X164023928Y-114738000D01*
X164036188Y-114862482D01*
X164072498Y-114982180D01*
X164131463Y-115092494D01*
X164210815Y-115189185D01*
X164307506Y-115268537D01*
X164417820Y-115327502D01*
X164537518Y-115363812D01*
X164662000Y-115376072D01*
X167062000Y-115376072D01*
X167186482Y-115363812D01*
X167306180Y-115327502D01*
X167416494Y-115268537D01*
X167513185Y-115189185D01*
X167592537Y-115092494D01*
X167651502Y-114982180D01*
X167687812Y-114862482D01*
X167700072Y-114738000D01*
X167700072Y-112338000D01*
X167687812Y-112213518D01*
X167651502Y-112093820D01*
X167592537Y-111983506D01*
X167513185Y-111886815D01*
X167416494Y-111807463D01*
X167306180Y-111748498D01*
X167186482Y-111712188D01*
X167062000Y-111699928D01*
X166655097Y-111699928D01*
X166840486Y-111600836D01*
X166960374Y-111315980D01*
X165862000Y-110217605D01*
X164763626Y-111315980D01*
X164883514Y-111600836D01*
X165082912Y-111699928D01*
X164662000Y-111699928D01*
X164537518Y-111712188D01*
X164417820Y-111748498D01*
X164307506Y-111807463D01*
X164210815Y-111886815D01*
X164131463Y-111983506D01*
X164072498Y-112093820D01*
X164036188Y-112213518D01*
X164023928Y-112338000D01*
X164023928Y-112530126D01*
X161586486Y-110092684D01*
X164018933Y-110092684D01*
X164065015Y-110451198D01*
X164180154Y-110793833D01*
X164299164Y-111016486D01*
X164584020Y-111136374D01*
X165682395Y-110038000D01*
X166041605Y-110038000D01*
X167139980Y-111136374D01*
X167424836Y-111016486D01*
X167585699Y-110692790D01*
X167680322Y-110343931D01*
X167705067Y-109983316D01*
X167658985Y-109624802D01*
X167543846Y-109282167D01*
X167424836Y-109059514D01*
X167139980Y-108939626D01*
X166041605Y-110038000D01*
X165682395Y-110038000D01*
X164584020Y-108939626D01*
X164299164Y-109059514D01*
X164138301Y-109383210D01*
X164043678Y-109732069D01*
X164018933Y-110092684D01*
X161586486Y-110092684D01*
X159309782Y-107815980D01*
X164763626Y-107815980D01*
X164883514Y-108100836D01*
X165207210Y-108261699D01*
X165306836Y-108288721D01*
X165106167Y-108356154D01*
X164883514Y-108475164D01*
X164763626Y-108760020D01*
X165862000Y-109858395D01*
X166960374Y-108760020D01*
X166840486Y-108475164D01*
X166516790Y-108314301D01*
X166417164Y-108287279D01*
X166617833Y-108219846D01*
X166840486Y-108100836D01*
X166960374Y-107815980D01*
X165862000Y-106717605D01*
X164763626Y-107815980D01*
X159309782Y-107815980D01*
X158086486Y-106592684D01*
X164018933Y-106592684D01*
X164065015Y-106951198D01*
X164180154Y-107293833D01*
X164299164Y-107516486D01*
X164584020Y-107636374D01*
X165682395Y-106538000D01*
X166041605Y-106538000D01*
X167139980Y-107636374D01*
X167424836Y-107516486D01*
X167585699Y-107192790D01*
X167680322Y-106843931D01*
X167705067Y-106483316D01*
X167658985Y-106124802D01*
X167543846Y-105782167D01*
X167424836Y-105559514D01*
X167139980Y-105439626D01*
X166041605Y-106538000D01*
X165682395Y-106538000D01*
X164584020Y-105439626D01*
X164299164Y-105559514D01*
X164138301Y-105883210D01*
X164043678Y-106232069D01*
X164018933Y-106592684D01*
X158086486Y-106592684D01*
X158007000Y-106513199D01*
X158007000Y-106451061D01*
X157967226Y-106251102D01*
X157889205Y-106062744D01*
X157775937Y-105893226D01*
X157631774Y-105749063D01*
X157462256Y-105635795D01*
X157273898Y-105557774D01*
X157073939Y-105518000D01*
X156870061Y-105518000D01*
X156670102Y-105557774D01*
X156481744Y-105635795D01*
X156312226Y-105749063D01*
X156168063Y-105893226D01*
X156054795Y-106062744D01*
X155976774Y-106251102D01*
X155937000Y-106451061D01*
X143924740Y-106451061D01*
X144184802Y-106191000D01*
X144246939Y-106191000D01*
X144446898Y-106151226D01*
X144635256Y-106073205D01*
X144804774Y-105959937D01*
X144948937Y-105815774D01*
X145062205Y-105646256D01*
X145140226Y-105457898D01*
X145180000Y-105257939D01*
X145180000Y-105054061D01*
X145140226Y-104854102D01*
X145062205Y-104665744D01*
X144948937Y-104496226D01*
X144804774Y-104352063D01*
X144674475Y-104265000D01*
X154013678Y-104265000D01*
X154051000Y-104268676D01*
X154088322Y-104265000D01*
X154088333Y-104265000D01*
X154199986Y-104254003D01*
X154343247Y-104210546D01*
X154475276Y-104139974D01*
X154591001Y-104045001D01*
X154614804Y-104015997D01*
X155773533Y-102857268D01*
X164027000Y-102857268D01*
X164027000Y-103218732D01*
X164097518Y-103573250D01*
X164235844Y-103907199D01*
X164436662Y-104207744D01*
X164692256Y-104463338D01*
X164992801Y-104664156D01*
X165299489Y-104791190D01*
X165106167Y-104856154D01*
X164883514Y-104975164D01*
X164763626Y-105260020D01*
X165862000Y-106358395D01*
X166960374Y-105260020D01*
X166840486Y-104975164D01*
X166516790Y-104814301D01*
X166427310Y-104790031D01*
X166731199Y-104664156D01*
X167031744Y-104463338D01*
X167287338Y-104207744D01*
X167488156Y-103907199D01*
X167626482Y-103573250D01*
X167697000Y-103218732D01*
X167697000Y-102857268D01*
X167626482Y-102502750D01*
X167488156Y-102168801D01*
X167287338Y-101868256D01*
X167031744Y-101612662D01*
X166731199Y-101411844D01*
X166397250Y-101273518D01*
X166042732Y-101203000D01*
X165681268Y-101203000D01*
X165326750Y-101273518D01*
X164992801Y-101411844D01*
X164692256Y-101612662D01*
X164436662Y-101868256D01*
X164235844Y-102168801D01*
X164097518Y-102502750D01*
X164027000Y-102857268D01*
X155773533Y-102857268D01*
X156249802Y-102381000D01*
X156311939Y-102381000D01*
X156511898Y-102341226D01*
X156700256Y-102263205D01*
X156869774Y-102149937D01*
X157013937Y-102005774D01*
X157127205Y-101836256D01*
X157205226Y-101647898D01*
X157245000Y-101447939D01*
X157245000Y-101244061D01*
X157205226Y-101044102D01*
X157127205Y-100855744D01*
X157013937Y-100686226D01*
X156869774Y-100542063D01*
X156700256Y-100428795D01*
X156511898Y-100350774D01*
X156311939Y-100311000D01*
X156108061Y-100311000D01*
X155908102Y-100350774D01*
X155719744Y-100428795D01*
X155550226Y-100542063D01*
X155406063Y-100686226D01*
X155292795Y-100855744D01*
X155214774Y-101044102D01*
X155175000Y-101244061D01*
X155175000Y-101306198D01*
X153736199Y-102745000D01*
X140705802Y-102745000D01*
X139393804Y-101433003D01*
X139370001Y-101403999D01*
X139254276Y-101309026D01*
X139122247Y-101238454D01*
X138978986Y-101194997D01*
X138961549Y-101193280D01*
X138857502Y-101066498D01*
X138669449Y-100912167D01*
X138454901Y-100797489D01*
X138222102Y-100726870D01*
X138040665Y-100709000D01*
X137119335Y-100709000D01*
X136937898Y-100726870D01*
X136705099Y-100797489D01*
X136490551Y-100912167D01*
X136302498Y-101066498D01*
X136148167Y-101254551D01*
X136033489Y-101469099D01*
X135962870Y-101701898D01*
X135939025Y-101944000D01*
X118900975Y-101944000D01*
X118877130Y-101701898D01*
X118806511Y-101469099D01*
X118691833Y-101254551D01*
X118537502Y-101066498D01*
X118349449Y-100912167D01*
X118134901Y-100797489D01*
X117902102Y-100726870D01*
X117720665Y-100709000D01*
X116799335Y-100709000D01*
X116617898Y-100726870D01*
X116385099Y-100797489D01*
X116170551Y-100912167D01*
X115982498Y-101066498D01*
X115828167Y-101254551D01*
X115713489Y-101469099D01*
X115642870Y-101701898D01*
X115619025Y-101944000D01*
X114960000Y-101944000D01*
X114960000Y-99404000D01*
X115619025Y-99404000D01*
X115642870Y-99646102D01*
X115713489Y-99878901D01*
X115828167Y-100093449D01*
X115982498Y-100281502D01*
X116170551Y-100435833D01*
X116385099Y-100550511D01*
X116617898Y-100621130D01*
X116799335Y-100639000D01*
X117720665Y-100639000D01*
X117902102Y-100621130D01*
X118134901Y-100550511D01*
X118349449Y-100435833D01*
X118537502Y-100281502D01*
X118691833Y-100093449D01*
X118806511Y-99878901D01*
X118877130Y-99646102D01*
X118900975Y-99404000D01*
X135939025Y-99404000D01*
X135962870Y-99646102D01*
X136033489Y-99878901D01*
X136148167Y-100093449D01*
X136302498Y-100281502D01*
X136490551Y-100435833D01*
X136705099Y-100550511D01*
X136937898Y-100621130D01*
X137119335Y-100639000D01*
X138040665Y-100639000D01*
X138222102Y-100621130D01*
X138454901Y-100550511D01*
X138669449Y-100435833D01*
X138857502Y-100281502D01*
X139011833Y-100093449D01*
X139126511Y-99878901D01*
X139197130Y-99646102D01*
X139220975Y-99404000D01*
X139197130Y-99161898D01*
X139126511Y-98929099D01*
X139011833Y-98714551D01*
X138857502Y-98526498D01*
X138669449Y-98372167D01*
X138454901Y-98257489D01*
X138222102Y-98186870D01*
X138040665Y-98169000D01*
X137119335Y-98169000D01*
X136937898Y-98186870D01*
X136705099Y-98257489D01*
X136490551Y-98372167D01*
X136302498Y-98526498D01*
X136148167Y-98714551D01*
X136033489Y-98929099D01*
X135962870Y-99161898D01*
X135939025Y-99404000D01*
X118900975Y-99404000D01*
X118877130Y-99161898D01*
X118806511Y-98929099D01*
X118691833Y-98714551D01*
X118537502Y-98526498D01*
X118349449Y-98372167D01*
X118134901Y-98257489D01*
X117902102Y-98186870D01*
X117720665Y-98169000D01*
X116799335Y-98169000D01*
X116617898Y-98186870D01*
X116385099Y-98257489D01*
X116170551Y-98372167D01*
X115982498Y-98526498D01*
X115828167Y-98714551D01*
X115713489Y-98929099D01*
X115642870Y-99161898D01*
X115619025Y-99404000D01*
X114960000Y-99404000D01*
X114960000Y-96864000D01*
X115619025Y-96864000D01*
X115642870Y-97106102D01*
X115713489Y-97338901D01*
X115828167Y-97553449D01*
X115982498Y-97741502D01*
X116170551Y-97895833D01*
X116385099Y-98010511D01*
X116617898Y-98081130D01*
X116799335Y-98099000D01*
X117720665Y-98099000D01*
X117902102Y-98081130D01*
X118134901Y-98010511D01*
X118349449Y-97895833D01*
X118537502Y-97741502D01*
X118691833Y-97553449D01*
X118806511Y-97338901D01*
X118877130Y-97106102D01*
X118900975Y-96864000D01*
X135939025Y-96864000D01*
X135962870Y-97106102D01*
X136033489Y-97338901D01*
X136148167Y-97553449D01*
X136302498Y-97741502D01*
X136490551Y-97895833D01*
X136705099Y-98010511D01*
X136937898Y-98081130D01*
X137119335Y-98099000D01*
X138040665Y-98099000D01*
X138222102Y-98081130D01*
X138454901Y-98010511D01*
X138669449Y-97895833D01*
X138857502Y-97741502D01*
X139011833Y-97553449D01*
X139126511Y-97338901D01*
X139197130Y-97106102D01*
X139220975Y-96864000D01*
X139197130Y-96621898D01*
X139126511Y-96389099D01*
X139011833Y-96174551D01*
X138857502Y-95986498D01*
X138669449Y-95832167D01*
X138454901Y-95717489D01*
X138222102Y-95646870D01*
X138040665Y-95629000D01*
X137119335Y-95629000D01*
X136937898Y-95646870D01*
X136705099Y-95717489D01*
X136490551Y-95832167D01*
X136302498Y-95986498D01*
X136148167Y-96174551D01*
X136033489Y-96389099D01*
X135962870Y-96621898D01*
X135939025Y-96864000D01*
X118900975Y-96864000D01*
X118877130Y-96621898D01*
X118806511Y-96389099D01*
X118691833Y-96174551D01*
X118537502Y-95986498D01*
X118349449Y-95832167D01*
X118134901Y-95717489D01*
X117902102Y-95646870D01*
X117720665Y-95629000D01*
X116799335Y-95629000D01*
X116617898Y-95646870D01*
X116385099Y-95717489D01*
X116170551Y-95832167D01*
X115982498Y-95986498D01*
X115828167Y-96174551D01*
X115713489Y-96389099D01*
X115642870Y-96621898D01*
X115619025Y-96864000D01*
X114960000Y-96864000D01*
X114960000Y-94324000D01*
X115619025Y-94324000D01*
X115642870Y-94566102D01*
X115713489Y-94798901D01*
X115828167Y-95013449D01*
X115982498Y-95201502D01*
X116170551Y-95355833D01*
X116385099Y-95470511D01*
X116617898Y-95541130D01*
X116799335Y-95559000D01*
X117720665Y-95559000D01*
X117902102Y-95541130D01*
X118134901Y-95470511D01*
X118349449Y-95355833D01*
X118537502Y-95201502D01*
X118691833Y-95013449D01*
X118806511Y-94798901D01*
X118877130Y-94566102D01*
X118900975Y-94324000D01*
X135939025Y-94324000D01*
X135962870Y-94566102D01*
X136033489Y-94798901D01*
X136148167Y-95013449D01*
X136302498Y-95201502D01*
X136490551Y-95355833D01*
X136705099Y-95470511D01*
X136937898Y-95541130D01*
X137119335Y-95559000D01*
X138040665Y-95559000D01*
X138222102Y-95541130D01*
X138454901Y-95470511D01*
X138669449Y-95355833D01*
X138857502Y-95201502D01*
X139011833Y-95013449D01*
X139126511Y-94798901D01*
X139197130Y-94566102D01*
X139220975Y-94324000D01*
X139197130Y-94081898D01*
X139126511Y-93849099D01*
X139011833Y-93634551D01*
X138857502Y-93446498D01*
X138669449Y-93292167D01*
X138454901Y-93177489D01*
X138222102Y-93106870D01*
X138040665Y-93089000D01*
X137119335Y-93089000D01*
X136937898Y-93106870D01*
X136705099Y-93177489D01*
X136490551Y-93292167D01*
X136302498Y-93446498D01*
X136148167Y-93634551D01*
X136033489Y-93849099D01*
X135962870Y-94081898D01*
X135939025Y-94324000D01*
X118900975Y-94324000D01*
X118877130Y-94081898D01*
X118806511Y-93849099D01*
X118691833Y-93634551D01*
X118537502Y-93446498D01*
X118349449Y-93292167D01*
X118134901Y-93177489D01*
X117902102Y-93106870D01*
X117720665Y-93089000D01*
X116799335Y-93089000D01*
X116617898Y-93106870D01*
X116385099Y-93177489D01*
X116170551Y-93292167D01*
X115982498Y-93446498D01*
X115828167Y-93634551D01*
X115713489Y-93849099D01*
X115642870Y-94081898D01*
X115619025Y-94324000D01*
X114960000Y-94324000D01*
X114960000Y-91784000D01*
X115619025Y-91784000D01*
X115642870Y-92026102D01*
X115713489Y-92258901D01*
X115828167Y-92473449D01*
X115982498Y-92661502D01*
X116170551Y-92815833D01*
X116385099Y-92930511D01*
X116617898Y-93001130D01*
X116799335Y-93019000D01*
X117720665Y-93019000D01*
X117902102Y-93001130D01*
X118134901Y-92930511D01*
X118349449Y-92815833D01*
X118537502Y-92661502D01*
X118691833Y-92473449D01*
X118806511Y-92258901D01*
X118877130Y-92026102D01*
X118900975Y-91784000D01*
X135939025Y-91784000D01*
X135962870Y-92026102D01*
X136033489Y-92258901D01*
X136148167Y-92473449D01*
X136302498Y-92661502D01*
X136490551Y-92815833D01*
X136705099Y-92930511D01*
X136937898Y-93001130D01*
X137119335Y-93019000D01*
X138040665Y-93019000D01*
X138222102Y-93001130D01*
X138454901Y-92930511D01*
X138669449Y-92815833D01*
X138857502Y-92661502D01*
X139011833Y-92473449D01*
X139126511Y-92258901D01*
X139197130Y-92026102D01*
X139220975Y-91784000D01*
X139197130Y-91541898D01*
X139126511Y-91309099D01*
X139011833Y-91094551D01*
X138857502Y-90906498D01*
X138669449Y-90752167D01*
X138454901Y-90637489D01*
X138222102Y-90566870D01*
X138040665Y-90549000D01*
X137119335Y-90549000D01*
X136937898Y-90566870D01*
X136705099Y-90637489D01*
X136490551Y-90752167D01*
X136302498Y-90906498D01*
X136148167Y-91094551D01*
X136033489Y-91309099D01*
X135962870Y-91541898D01*
X135939025Y-91784000D01*
X118900975Y-91784000D01*
X118877130Y-91541898D01*
X118806511Y-91309099D01*
X118691833Y-91094551D01*
X118537502Y-90906498D01*
X118349449Y-90752167D01*
X118134901Y-90637489D01*
X117902102Y-90566870D01*
X117720665Y-90549000D01*
X116799335Y-90549000D01*
X116617898Y-90566870D01*
X116385099Y-90637489D01*
X116170551Y-90752167D01*
X115982498Y-90906498D01*
X115828167Y-91094551D01*
X115713489Y-91309099D01*
X115642870Y-91541898D01*
X115619025Y-91784000D01*
X114960000Y-91784000D01*
X114960000Y-89244000D01*
X115619025Y-89244000D01*
X115642870Y-89486102D01*
X115713489Y-89718901D01*
X115828167Y-89933449D01*
X115982498Y-90121502D01*
X116170551Y-90275833D01*
X116385099Y-90390511D01*
X116617898Y-90461130D01*
X116799335Y-90479000D01*
X117720665Y-90479000D01*
X117902102Y-90461130D01*
X118134901Y-90390511D01*
X118349449Y-90275833D01*
X118537502Y-90121502D01*
X118691833Y-89933449D01*
X118806511Y-89718901D01*
X118877130Y-89486102D01*
X118900975Y-89244000D01*
X135939025Y-89244000D01*
X135962870Y-89486102D01*
X136033489Y-89718901D01*
X136148167Y-89933449D01*
X136302498Y-90121502D01*
X136490551Y-90275833D01*
X136705099Y-90390511D01*
X136937898Y-90461130D01*
X137119335Y-90479000D01*
X138040665Y-90479000D01*
X138222102Y-90461130D01*
X138454901Y-90390511D01*
X138669449Y-90275833D01*
X138857502Y-90121502D01*
X139011833Y-89933449D01*
X139126511Y-89718901D01*
X139197130Y-89486102D01*
X139220975Y-89244000D01*
X139197130Y-89001898D01*
X139126511Y-88769099D01*
X139011833Y-88554551D01*
X138857502Y-88366498D01*
X138669449Y-88212167D01*
X138454901Y-88097489D01*
X138222102Y-88026870D01*
X138040665Y-88009000D01*
X137119335Y-88009000D01*
X136937898Y-88026870D01*
X136705099Y-88097489D01*
X136490551Y-88212167D01*
X136302498Y-88366498D01*
X136148167Y-88554551D01*
X136033489Y-88769099D01*
X135962870Y-89001898D01*
X135939025Y-89244000D01*
X118900975Y-89244000D01*
X118877130Y-89001898D01*
X118806511Y-88769099D01*
X118691833Y-88554551D01*
X118537502Y-88366498D01*
X118349449Y-88212167D01*
X118134901Y-88097489D01*
X117902102Y-88026870D01*
X117720665Y-88009000D01*
X116799335Y-88009000D01*
X116617898Y-88026870D01*
X116385099Y-88097489D01*
X116170551Y-88212167D01*
X115982498Y-88366498D01*
X115828167Y-88554551D01*
X115713489Y-88769099D01*
X115642870Y-89001898D01*
X115619025Y-89244000D01*
X114960000Y-89244000D01*
X114960000Y-86704000D01*
X115619025Y-86704000D01*
X115642870Y-86946102D01*
X115713489Y-87178901D01*
X115828167Y-87393449D01*
X115982498Y-87581502D01*
X116170551Y-87735833D01*
X116385099Y-87850511D01*
X116617898Y-87921130D01*
X116799335Y-87939000D01*
X117720665Y-87939000D01*
X117902102Y-87921130D01*
X118134901Y-87850511D01*
X118349449Y-87735833D01*
X118537502Y-87581502D01*
X118691833Y-87393449D01*
X118806511Y-87178901D01*
X118877130Y-86946102D01*
X118900975Y-86704000D01*
X118877130Y-86461898D01*
X118806511Y-86229099D01*
X118691833Y-86014551D01*
X118537502Y-85826498D01*
X118349449Y-85672167D01*
X118134901Y-85557489D01*
X117902102Y-85486870D01*
X117720665Y-85469000D01*
X116799335Y-85469000D01*
X116617898Y-85486870D01*
X116385099Y-85557489D01*
X116170551Y-85672167D01*
X115982498Y-85826498D01*
X115828167Y-86014551D01*
X115713489Y-86229099D01*
X115642870Y-86461898D01*
X115619025Y-86704000D01*
X114960000Y-86704000D01*
X114960000Y-84481609D01*
X115666538Y-84481609D01*
X115670409Y-84519282D01*
X115762579Y-84744533D01*
X115896922Y-84947474D01*
X116068275Y-85120307D01*
X116270054Y-85256390D01*
X116494504Y-85350493D01*
X116733000Y-85399000D01*
X117133000Y-85399000D01*
X117133000Y-84291000D01*
X117387000Y-84291000D01*
X117387000Y-85399000D01*
X117787000Y-85399000D01*
X118025496Y-85350493D01*
X118249946Y-85256390D01*
X118451725Y-85120307D01*
X118623078Y-84947474D01*
X118757421Y-84744533D01*
X118849591Y-84519282D01*
X118853462Y-84481609D01*
X118728731Y-84291000D01*
X117387000Y-84291000D01*
X117133000Y-84291000D01*
X115791269Y-84291000D01*
X115666538Y-84481609D01*
X114960000Y-84481609D01*
X114960000Y-83846391D01*
X115666538Y-83846391D01*
X115791269Y-84037000D01*
X117133000Y-84037000D01*
X117133000Y-82929000D01*
X117387000Y-82929000D01*
X117387000Y-84037000D01*
X118728731Y-84037000D01*
X118853462Y-83846391D01*
X118849591Y-83808718D01*
X118757421Y-83583467D01*
X118623078Y-83380526D01*
X118451725Y-83207693D01*
X118249946Y-83071610D01*
X118025496Y-82977507D01*
X117787000Y-82929000D01*
X117387000Y-82929000D01*
X117133000Y-82929000D01*
X116733000Y-82929000D01*
X116494504Y-82977507D01*
X116270054Y-83071610D01*
X116068275Y-83207693D01*
X115896922Y-83380526D01*
X115762579Y-83583467D01*
X115670409Y-83808718D01*
X115666538Y-83846391D01*
X114960000Y-83846391D01*
X114960000Y-81624000D01*
X115619025Y-81624000D01*
X115642870Y-81866102D01*
X115713489Y-82098901D01*
X115828167Y-82313449D01*
X115982498Y-82501502D01*
X116170551Y-82655833D01*
X116385099Y-82770511D01*
X116617898Y-82841130D01*
X116799335Y-82859000D01*
X117720665Y-82859000D01*
X117902102Y-82841130D01*
X118134901Y-82770511D01*
X118349449Y-82655833D01*
X118537502Y-82501502D01*
X118691833Y-82313449D01*
X118806511Y-82098901D01*
X118877130Y-81866102D01*
X118900975Y-81624000D01*
X118877130Y-81381898D01*
X118806511Y-81149099D01*
X118691833Y-80934551D01*
X118537502Y-80746498D01*
X118349449Y-80592167D01*
X118134901Y-80477489D01*
X117902102Y-80406870D01*
X117720665Y-80389000D01*
X116799335Y-80389000D01*
X116617898Y-80406870D01*
X116385099Y-80477489D01*
X116170551Y-80592167D01*
X115982498Y-80746498D01*
X115828167Y-80934551D01*
X115713489Y-81149099D01*
X115642870Y-81381898D01*
X115619025Y-81624000D01*
X114960000Y-81624000D01*
X114960000Y-79084000D01*
X115619025Y-79084000D01*
X115642870Y-79326102D01*
X115713489Y-79558901D01*
X115828167Y-79773449D01*
X115982498Y-79961502D01*
X116170551Y-80115833D01*
X116385099Y-80230511D01*
X116617898Y-80301130D01*
X116799335Y-80319000D01*
X117720665Y-80319000D01*
X117902102Y-80301130D01*
X118134901Y-80230511D01*
X118349449Y-80115833D01*
X118414031Y-80062832D01*
X124337860Y-85986662D01*
X124361659Y-86015661D01*
X124477384Y-86110634D01*
X124609413Y-86181206D01*
X124752674Y-86224663D01*
X124864327Y-86235660D01*
X124864336Y-86235660D01*
X124901659Y-86239336D01*
X124938982Y-86235660D01*
X133920949Y-86235660D01*
X133964886Y-86279597D01*
X134134404Y-86392865D01*
X134322762Y-86470886D01*
X134522721Y-86510660D01*
X134726599Y-86510660D01*
X134926558Y-86470886D01*
X135114916Y-86392865D01*
X135284434Y-86279597D01*
X135328371Y-86235660D01*
X136031499Y-86235660D01*
X135962870Y-86461898D01*
X135939025Y-86704000D01*
X135962870Y-86946102D01*
X136033489Y-87178901D01*
X136148167Y-87393449D01*
X136302498Y-87581502D01*
X136490551Y-87735833D01*
X136705099Y-87850511D01*
X136937898Y-87921130D01*
X137119335Y-87939000D01*
X138040665Y-87939000D01*
X138222102Y-87921130D01*
X138454901Y-87850511D01*
X138669449Y-87735833D01*
X138842782Y-87593583D01*
X142242000Y-90992802D01*
X142242001Y-91779928D01*
X142202000Y-91779928D01*
X142077518Y-91792188D01*
X141957820Y-91828498D01*
X141847506Y-91887463D01*
X141750815Y-91966815D01*
X141671463Y-92063506D01*
X141612498Y-92173820D01*
X141576188Y-92293518D01*
X141563928Y-92418000D01*
X141563928Y-94018000D01*
X141576188Y-94142482D01*
X141612498Y-94262180D01*
X141671463Y-94372494D01*
X141750815Y-94469185D01*
X141847506Y-94548537D01*
X141957820Y-94607502D01*
X142077518Y-94643812D01*
X142085961Y-94644643D01*
X141887363Y-94843241D01*
X141730320Y-95078273D01*
X141622147Y-95339426D01*
X141567000Y-95616665D01*
X141567000Y-95899335D01*
X141622147Y-96176574D01*
X141730320Y-96437727D01*
X141887363Y-96672759D01*
X142087241Y-96872637D01*
X142319759Y-97028000D01*
X142087241Y-97183363D01*
X141887363Y-97383241D01*
X141730320Y-97618273D01*
X141622147Y-97879426D01*
X141567000Y-98156665D01*
X141567000Y-98439335D01*
X141622147Y-98716574D01*
X141730320Y-98977727D01*
X141887363Y-99212759D01*
X142087241Y-99412637D01*
X142319759Y-99568000D01*
X142087241Y-99723363D01*
X141887363Y-99923241D01*
X141730320Y-100158273D01*
X141622147Y-100419426D01*
X141567000Y-100696665D01*
X141567000Y-100979335D01*
X141622147Y-101256574D01*
X141730320Y-101517727D01*
X141887363Y-101752759D01*
X142087241Y-101952637D01*
X142322273Y-102109680D01*
X142583426Y-102217853D01*
X142860665Y-102273000D01*
X143143335Y-102273000D01*
X143420574Y-102217853D01*
X143681727Y-102109680D01*
X143916759Y-101952637D01*
X144116637Y-101752759D01*
X144273680Y-101517727D01*
X144381853Y-101256574D01*
X144437000Y-100979335D01*
X144437000Y-100696665D01*
X144381853Y-100419426D01*
X144273680Y-100158273D01*
X144116637Y-99923241D01*
X143916759Y-99723363D01*
X143684241Y-99568000D01*
X143916759Y-99412637D01*
X144116637Y-99212759D01*
X144273680Y-98977727D01*
X144381853Y-98716574D01*
X144437000Y-98439335D01*
X144437000Y-98156665D01*
X144381853Y-97879426D01*
X144273680Y-97618273D01*
X144116637Y-97383241D01*
X143916759Y-97183363D01*
X143684241Y-97028000D01*
X143916759Y-96872637D01*
X144116637Y-96672759D01*
X144273680Y-96437727D01*
X144381853Y-96176574D01*
X144437000Y-95899335D01*
X144437000Y-95616665D01*
X144381853Y-95339426D01*
X144273680Y-95078273D01*
X144116637Y-94843241D01*
X143918039Y-94644643D01*
X143926482Y-94643812D01*
X144046180Y-94607502D01*
X144156494Y-94548537D01*
X144253185Y-94469185D01*
X144332537Y-94372494D01*
X144391502Y-94262180D01*
X144427812Y-94142482D01*
X144440072Y-94018000D01*
X144440072Y-92418000D01*
X144427812Y-92293518D01*
X144391502Y-92173820D01*
X144336938Y-92071740D01*
X145290001Y-93024803D01*
X145290000Y-100642289D01*
X145246063Y-100686226D01*
X145132795Y-100855744D01*
X145054774Y-101044102D01*
X145015000Y-101244061D01*
X145015000Y-101447939D01*
X145054774Y-101647898D01*
X145132795Y-101836256D01*
X145246063Y-102005774D01*
X145390226Y-102149937D01*
X145559744Y-102263205D01*
X145748102Y-102341226D01*
X145948061Y-102381000D01*
X146151939Y-102381000D01*
X146351898Y-102341226D01*
X146540256Y-102263205D01*
X146709774Y-102149937D01*
X146853937Y-102005774D01*
X146967205Y-101836256D01*
X147045226Y-101647898D01*
X147085000Y-101447939D01*
X147085000Y-101244061D01*
X147045226Y-101044102D01*
X146967205Y-100855744D01*
X146853937Y-100686226D01*
X146810000Y-100642289D01*
X146810000Y-95616665D01*
X149187000Y-95616665D01*
X149187000Y-95899335D01*
X149242147Y-96176574D01*
X149350320Y-96437727D01*
X149507363Y-96672759D01*
X149707241Y-96872637D01*
X149939759Y-97028000D01*
X149707241Y-97183363D01*
X149507363Y-97383241D01*
X149350320Y-97618273D01*
X149242147Y-97879426D01*
X149187000Y-98156665D01*
X149187000Y-98439335D01*
X149242147Y-98716574D01*
X149350320Y-98977727D01*
X149507363Y-99212759D01*
X149707241Y-99412637D01*
X149939759Y-99568000D01*
X149707241Y-99723363D01*
X149507363Y-99923241D01*
X149350320Y-100158273D01*
X149242147Y-100419426D01*
X149187000Y-100696665D01*
X149187000Y-100979335D01*
X149242147Y-101256574D01*
X149350320Y-101517727D01*
X149507363Y-101752759D01*
X149707241Y-101952637D01*
X149942273Y-102109680D01*
X150203426Y-102217853D01*
X150480665Y-102273000D01*
X150763335Y-102273000D01*
X151040574Y-102217853D01*
X151301727Y-102109680D01*
X151536759Y-101952637D01*
X151736637Y-101752759D01*
X151893680Y-101517727D01*
X152001853Y-101256574D01*
X152057000Y-100979335D01*
X152057000Y-100696665D01*
X152001853Y-100419426D01*
X151893680Y-100158273D01*
X151736637Y-99923241D01*
X151536759Y-99723363D01*
X151304241Y-99568000D01*
X151536759Y-99412637D01*
X151736637Y-99212759D01*
X151893680Y-98977727D01*
X152001853Y-98716574D01*
X152057000Y-98439335D01*
X152057000Y-98156665D01*
X152001853Y-97879426D01*
X151893680Y-97618273D01*
X151791935Y-97466000D01*
X164023928Y-97466000D01*
X164036188Y-97590482D01*
X164072498Y-97710180D01*
X164131463Y-97820494D01*
X164210815Y-97917185D01*
X164307506Y-97996537D01*
X164417820Y-98055502D01*
X164537518Y-98091812D01*
X164662000Y-98104072D01*
X165576250Y-98101000D01*
X165735000Y-97942250D01*
X165735000Y-96393000D01*
X165989000Y-96393000D01*
X165989000Y-97942250D01*
X166147750Y-98101000D01*
X167062000Y-98104072D01*
X167186482Y-98091812D01*
X167306180Y-98055502D01*
X167416494Y-97996537D01*
X167513185Y-97917185D01*
X167592537Y-97820494D01*
X167651502Y-97710180D01*
X167687812Y-97590482D01*
X167700072Y-97466000D01*
X167697000Y-96551750D01*
X167538250Y-96393000D01*
X165989000Y-96393000D01*
X165735000Y-96393000D01*
X164185750Y-96393000D01*
X164027000Y-96551750D01*
X164023928Y-97466000D01*
X151791935Y-97466000D01*
X151736637Y-97383241D01*
X151536759Y-97183363D01*
X151304241Y-97028000D01*
X151536759Y-96872637D01*
X151736637Y-96672759D01*
X151893680Y-96437727D01*
X152001853Y-96176574D01*
X152057000Y-95899335D01*
X152057000Y-95616665D01*
X152001853Y-95339426D01*
X151893680Y-95078273D01*
X151736637Y-94843241D01*
X151536759Y-94643363D01*
X151301727Y-94486320D01*
X151291135Y-94481933D01*
X151477131Y-94370385D01*
X151685519Y-94181414D01*
X151853037Y-93955420D01*
X151973246Y-93701087D01*
X152013904Y-93567039D01*
X151891915Y-93345000D01*
X150749000Y-93345000D01*
X150749000Y-93365000D01*
X150495000Y-93365000D01*
X150495000Y-93345000D01*
X149352085Y-93345000D01*
X149230096Y-93567039D01*
X149270754Y-93701087D01*
X149390963Y-93955420D01*
X149558481Y-94181414D01*
X149766869Y-94370385D01*
X149952865Y-94481933D01*
X149942273Y-94486320D01*
X149707241Y-94643363D01*
X149507363Y-94843241D01*
X149350320Y-95078273D01*
X149242147Y-95339426D01*
X149187000Y-95616665D01*
X146810000Y-95616665D01*
X146810000Y-92747325D01*
X146813676Y-92710000D01*
X146810000Y-92672675D01*
X146810000Y-92672667D01*
X146799003Y-92561014D01*
X146755546Y-92417753D01*
X146706503Y-92326001D01*
X149505545Y-92326001D01*
X149390963Y-92480580D01*
X149270754Y-92734913D01*
X149230096Y-92868961D01*
X149352085Y-93091000D01*
X150495000Y-93091000D01*
X150495000Y-93071000D01*
X150749000Y-93071000D01*
X150749000Y-93091000D01*
X151891915Y-93091000D01*
X152013904Y-92868961D01*
X151973246Y-92734913D01*
X151853037Y-92480580D01*
X151738455Y-92326001D01*
X164078571Y-92326001D01*
X164027000Y-92585268D01*
X164027000Y-92946732D01*
X164097518Y-93301250D01*
X164235844Y-93635199D01*
X164436662Y-93935744D01*
X164692256Y-94191338D01*
X164992801Y-94392156D01*
X165082574Y-94429341D01*
X164662000Y-94427928D01*
X164537518Y-94440188D01*
X164417820Y-94476498D01*
X164307506Y-94535463D01*
X164210815Y-94614815D01*
X164131463Y-94711506D01*
X164072498Y-94821820D01*
X164036188Y-94941518D01*
X164023928Y-95066000D01*
X164027000Y-95980250D01*
X164185750Y-96139000D01*
X165735000Y-96139000D01*
X165735000Y-96119000D01*
X165989000Y-96119000D01*
X165989000Y-96139000D01*
X167538250Y-96139000D01*
X167697000Y-95980250D01*
X167700072Y-95066000D01*
X167687812Y-94941518D01*
X167651502Y-94821820D01*
X167592537Y-94711506D01*
X167513185Y-94614815D01*
X167416494Y-94535463D01*
X167306180Y-94476498D01*
X167186482Y-94440188D01*
X167062000Y-94427928D01*
X166641426Y-94429341D01*
X166731199Y-94392156D01*
X167031744Y-94191338D01*
X167287338Y-93935744D01*
X167488156Y-93635199D01*
X167626482Y-93301250D01*
X167697000Y-92946732D01*
X167697000Y-92585268D01*
X167626482Y-92230750D01*
X167488156Y-91896801D01*
X167287338Y-91596256D01*
X167031744Y-91340662D01*
X166731199Y-91139844D01*
X166432213Y-91016000D01*
X166731199Y-90892156D01*
X167031744Y-90691338D01*
X167287338Y-90435744D01*
X167488156Y-90135199D01*
X167626482Y-89801250D01*
X167697000Y-89446732D01*
X167697000Y-89085268D01*
X167626482Y-88730750D01*
X167488156Y-88396801D01*
X167287338Y-88096256D01*
X167031744Y-87840662D01*
X166731199Y-87639844D01*
X166432213Y-87516000D01*
X166731199Y-87392156D01*
X167031744Y-87191338D01*
X167287338Y-86935744D01*
X167488156Y-86635199D01*
X167626482Y-86301250D01*
X167697000Y-85946732D01*
X167697000Y-85585268D01*
X167626482Y-85230750D01*
X167488156Y-84896801D01*
X167287338Y-84596256D01*
X167031744Y-84340662D01*
X166731199Y-84139844D01*
X166397250Y-84001518D01*
X166042732Y-83931000D01*
X165681268Y-83931000D01*
X165326750Y-84001518D01*
X164992801Y-84139844D01*
X164692256Y-84340662D01*
X164436662Y-84596256D01*
X164235844Y-84896801D01*
X164097518Y-85230750D01*
X164027000Y-85585268D01*
X164027000Y-85946732D01*
X164097518Y-86301250D01*
X164142749Y-86410448D01*
X161270199Y-89283000D01*
X146237802Y-89283000D01*
X142061142Y-85106340D01*
X156083000Y-85106340D01*
X156083000Y-85581660D01*
X156175731Y-86047846D01*
X156357628Y-86486984D01*
X156621701Y-86882198D01*
X156957802Y-87218299D01*
X157353016Y-87482372D01*
X157792154Y-87664269D01*
X158258340Y-87757000D01*
X158733660Y-87757000D01*
X159199846Y-87664269D01*
X159638984Y-87482372D01*
X160034198Y-87218299D01*
X160370299Y-86882198D01*
X160634372Y-86486984D01*
X160816269Y-86047846D01*
X160909000Y-85581660D01*
X160909000Y-85106340D01*
X160816269Y-84640154D01*
X160634372Y-84201016D01*
X160370299Y-83805802D01*
X160034198Y-83469701D01*
X159638984Y-83205628D01*
X159199846Y-83023731D01*
X158733660Y-82931000D01*
X158258340Y-82931000D01*
X157792154Y-83023731D01*
X157353016Y-83205628D01*
X156957802Y-83469701D01*
X156621701Y-83805802D01*
X156357628Y-84201016D01*
X156175731Y-84640154D01*
X156083000Y-85106340D01*
X142061142Y-85106340D01*
X136290000Y-79335199D01*
X136290000Y-79273061D01*
X136250226Y-79073102D01*
X136172205Y-78884744D01*
X136075748Y-78740385D01*
X162148000Y-78740385D01*
X162148000Y-79247615D01*
X162246956Y-79745100D01*
X162441065Y-80213720D01*
X162722867Y-80635467D01*
X163081533Y-80994133D01*
X163503280Y-81275935D01*
X163971900Y-81470044D01*
X164469385Y-81569000D01*
X164976615Y-81569000D01*
X165474100Y-81470044D01*
X165942720Y-81275935D01*
X166364467Y-80994133D01*
X166723133Y-80635467D01*
X167004935Y-80213720D01*
X167199044Y-79745100D01*
X167298000Y-79247615D01*
X167298000Y-78740385D01*
X167199044Y-78242900D01*
X167004935Y-77774280D01*
X166723133Y-77352533D01*
X166364467Y-76993867D01*
X165942720Y-76712065D01*
X165474100Y-76517956D01*
X164976615Y-76419000D01*
X164469385Y-76419000D01*
X163971900Y-76517956D01*
X163503280Y-76712065D01*
X163081533Y-76993867D01*
X162722867Y-77352533D01*
X162441065Y-77774280D01*
X162246956Y-78242900D01*
X162148000Y-78740385D01*
X136075748Y-78740385D01*
X136058937Y-78715226D01*
X135914774Y-78571063D01*
X135745256Y-78457795D01*
X135556898Y-78379774D01*
X135356939Y-78340000D01*
X135153061Y-78340000D01*
X134953102Y-78379774D01*
X134764744Y-78457795D01*
X134595226Y-78571063D01*
X134451063Y-78715226D01*
X134337795Y-78884744D01*
X134259774Y-79073102D01*
X134220000Y-79273061D01*
X134220000Y-79476939D01*
X134259774Y-79676898D01*
X134337795Y-79865256D01*
X134432603Y-80007147D01*
X134323228Y-80170839D01*
X134245207Y-80359197D01*
X134205433Y-80559156D01*
X134205433Y-80763034D01*
X134245207Y-80962993D01*
X134317043Y-81136418D01*
X134206135Y-81302404D01*
X134128114Y-81490762D01*
X134088340Y-81690721D01*
X134088340Y-81894599D01*
X134128114Y-82094558D01*
X134206135Y-82282916D01*
X134319403Y-82452434D01*
X134463566Y-82596597D01*
X134633084Y-82709865D01*
X134821442Y-82787886D01*
X135021401Y-82827660D01*
X135225279Y-82827660D01*
X135425238Y-82787886D01*
X135613596Y-82709865D01*
X135687610Y-82660411D01*
X137742859Y-84715660D01*
X135328371Y-84715660D01*
X135284434Y-84671723D01*
X135114916Y-84558455D01*
X134926558Y-84480434D01*
X134726599Y-84440660D01*
X134522721Y-84440660D01*
X134322762Y-84480434D01*
X134134404Y-84558455D01*
X133964886Y-84671723D01*
X133920949Y-84715660D01*
X125216462Y-84715660D01*
X119511142Y-79010340D01*
X125603000Y-79010340D01*
X125603000Y-79485660D01*
X125695731Y-79951846D01*
X125877628Y-80390984D01*
X126141701Y-80786198D01*
X126477802Y-81122299D01*
X126873016Y-81386372D01*
X127312154Y-81568269D01*
X127778340Y-81661000D01*
X128253660Y-81661000D01*
X128719846Y-81568269D01*
X129158984Y-81386372D01*
X129554198Y-81122299D01*
X129890299Y-80786198D01*
X130154372Y-80390984D01*
X130336269Y-79951846D01*
X130429000Y-79485660D01*
X130429000Y-79010340D01*
X130336269Y-78544154D01*
X130154372Y-78105016D01*
X129890299Y-77709802D01*
X129554198Y-77373701D01*
X129158984Y-77109628D01*
X128719846Y-76927731D01*
X128253660Y-76835000D01*
X127778340Y-76835000D01*
X127312154Y-76927731D01*
X126873016Y-77109628D01*
X126477802Y-77373701D01*
X126141701Y-77709802D01*
X125877628Y-78105016D01*
X125695731Y-78544154D01*
X125603000Y-79010340D01*
X119511142Y-79010340D01*
X119073804Y-78573003D01*
X119050001Y-78543999D01*
X118934276Y-78449026D01*
X118802247Y-78378454D01*
X118658986Y-78334997D01*
X118641549Y-78333280D01*
X118537502Y-78206498D01*
X118349449Y-78052167D01*
X118134901Y-77937489D01*
X117902102Y-77866870D01*
X117720665Y-77849000D01*
X116799335Y-77849000D01*
X116617898Y-77866870D01*
X116385099Y-77937489D01*
X116170551Y-78052167D01*
X115982498Y-78206498D01*
X115828167Y-78394551D01*
X115713489Y-78609099D01*
X115642870Y-78841898D01*
X115619025Y-79084000D01*
X114960000Y-79084000D01*
X114960000Y-76544000D01*
X115619025Y-76544000D01*
X115642870Y-76786102D01*
X115713489Y-77018901D01*
X115828167Y-77233449D01*
X115982498Y-77421502D01*
X116170551Y-77575833D01*
X116385099Y-77690511D01*
X116617898Y-77761130D01*
X116799335Y-77779000D01*
X117720665Y-77779000D01*
X117902102Y-77761130D01*
X118134901Y-77690511D01*
X118349449Y-77575833D01*
X118537502Y-77421502D01*
X118691833Y-77233449D01*
X118806511Y-77018901D01*
X118877130Y-76786102D01*
X118900975Y-76544000D01*
X118877130Y-76301898D01*
X118806511Y-76069099D01*
X118691833Y-75854551D01*
X118537502Y-75666498D01*
X118349449Y-75512167D01*
X118134901Y-75397489D01*
X117902102Y-75326870D01*
X117720665Y-75309000D01*
X116799335Y-75309000D01*
X116617898Y-75326870D01*
X116385099Y-75397489D01*
X116170551Y-75512167D01*
X115982498Y-75666498D01*
X115828167Y-75854551D01*
X115713489Y-76069099D01*
X115642870Y-76301898D01*
X115619025Y-76544000D01*
X114960000Y-76544000D01*
X114960000Y-70104000D01*
X116938807Y-70104000D01*
X116942001Y-70136429D01*
X116942000Y-74135580D01*
X116938807Y-74168000D01*
X116951550Y-74297383D01*
X116989290Y-74421793D01*
X117050575Y-74536450D01*
X117105336Y-74603176D01*
X117133052Y-74636948D01*
X117233550Y-74719425D01*
X117348207Y-74780710D01*
X117472617Y-74818450D01*
X117602000Y-74831193D01*
X117634419Y-74828000D01*
X136492581Y-74828000D01*
X136525000Y-74831193D01*
X136557419Y-74828000D01*
X136654383Y-74818450D01*
X136778793Y-74780710D01*
X136838989Y-74748535D01*
X136838989Y-75077667D01*
X136835313Y-75114989D01*
X136838989Y-75152311D01*
X136838989Y-75152321D01*
X136849986Y-75263974D01*
X136890487Y-75397489D01*
X136893443Y-75407235D01*
X136964015Y-75539265D01*
X137003860Y-75587815D01*
X137058988Y-75654990D01*
X137087992Y-75678793D01*
X137903000Y-76493802D01*
X137903000Y-76555939D01*
X137942774Y-76755898D01*
X138020795Y-76944256D01*
X138134063Y-77113774D01*
X138278226Y-77257937D01*
X138447744Y-77371205D01*
X138636102Y-77449226D01*
X138836061Y-77489000D01*
X139039939Y-77489000D01*
X139239898Y-77449226D01*
X139428256Y-77371205D01*
X139597774Y-77257937D01*
X139741937Y-77113774D01*
X139855205Y-76944256D01*
X139933226Y-76755898D01*
X139950535Y-76668880D01*
X140128898Y-76633402D01*
X140317256Y-76555381D01*
X140486774Y-76442113D01*
X140630937Y-76297950D01*
X140744205Y-76128432D01*
X140822226Y-75940074D01*
X140862000Y-75740115D01*
X140862000Y-75536237D01*
X140822226Y-75336278D01*
X140744205Y-75147920D01*
X140630937Y-74978402D01*
X140486774Y-74834239D01*
X140317256Y-74720971D01*
X140128898Y-74642950D01*
X139928939Y-74603176D01*
X139725061Y-74603176D01*
X139525102Y-74642950D01*
X139336744Y-74720971D01*
X139236052Y-74788251D01*
X138809000Y-74361199D01*
X138809000Y-69050912D01*
X139160250Y-69049000D01*
X139319000Y-68890250D01*
X139319000Y-67691000D01*
X139573000Y-67691000D01*
X139573000Y-68890250D01*
X139731750Y-69049000D01*
X140296000Y-69052072D01*
X140420482Y-69039812D01*
X140540180Y-69003502D01*
X140650494Y-68944537D01*
X140747185Y-68865185D01*
X140826537Y-68768494D01*
X140885502Y-68658180D01*
X140921812Y-68538482D01*
X140934072Y-68414000D01*
X140931000Y-67849750D01*
X140772250Y-67691000D01*
X139573000Y-67691000D01*
X139319000Y-67691000D01*
X139299000Y-67691000D01*
X139299000Y-67437000D01*
X139319000Y-67437000D01*
X139319000Y-67417000D01*
X139573000Y-67417000D01*
X139573000Y-67437000D01*
X140772250Y-67437000D01*
X140931000Y-67278250D01*
X140934072Y-66714000D01*
X140921812Y-66589518D01*
X140885502Y-66469820D01*
X140826537Y-66359506D01*
X140747185Y-66262815D01*
X140650494Y-66183463D01*
X140540180Y-66124498D01*
X140467620Y-66102487D01*
X140599475Y-65970632D01*
X140761990Y-65727411D01*
X140873932Y-65457158D01*
X140931000Y-65170260D01*
X140931000Y-64877740D01*
X140873932Y-64590842D01*
X140761990Y-64320589D01*
X140599475Y-64077368D01*
X140392632Y-63870525D01*
X140218240Y-63754000D01*
X140392632Y-63637475D01*
X140599475Y-63430632D01*
X140761990Y-63187411D01*
X140873932Y-62917158D01*
X140931000Y-62630260D01*
X140931000Y-62337740D01*
X140873932Y-62050842D01*
X140761990Y-61780589D01*
X140599475Y-61537368D01*
X140392632Y-61330525D01*
X140218240Y-61214000D01*
X140392632Y-61097475D01*
X140599475Y-60890632D01*
X140761990Y-60647411D01*
X140873932Y-60377158D01*
X140931000Y-60090260D01*
X140931000Y-59797740D01*
X140873932Y-59510842D01*
X140761990Y-59240589D01*
X140599475Y-58997368D01*
X140392632Y-58790525D01*
X140149411Y-58628010D01*
X139879158Y-58516068D01*
X139592260Y-58459000D01*
X139299740Y-58459000D01*
X139012842Y-58516068D01*
X138742589Y-58628010D01*
X138499368Y-58790525D01*
X138292525Y-58997368D01*
X138130010Y-59240589D01*
X138018068Y-59510842D01*
X137961000Y-59797740D01*
X137961000Y-60090260D01*
X138018068Y-60377158D01*
X138130010Y-60647411D01*
X138292525Y-60890632D01*
X138499368Y-61097475D01*
X138673760Y-61214000D01*
X138499368Y-61330525D01*
X138292525Y-61537368D01*
X138130010Y-61780589D01*
X138018068Y-62050842D01*
X137961000Y-62337740D01*
X137961000Y-62630260D01*
X138004790Y-62850408D01*
X137087987Y-63767212D01*
X137058989Y-63791010D01*
X137035191Y-63820008D01*
X137035190Y-63820009D01*
X136964015Y-63906735D01*
X136893443Y-64038765D01*
X136849987Y-64182026D01*
X136835313Y-64331011D01*
X136838990Y-64368343D01*
X136838990Y-69523465D01*
X136778793Y-69491290D01*
X136654383Y-69453550D01*
X136557419Y-69444000D01*
X136525000Y-69440807D01*
X136492581Y-69444000D01*
X117634419Y-69444000D01*
X117602000Y-69440807D01*
X117569581Y-69444000D01*
X117472617Y-69453550D01*
X117348207Y-69491290D01*
X117233550Y-69552575D01*
X117133052Y-69635052D01*
X117050575Y-69735550D01*
X116989290Y-69850207D01*
X116951550Y-69974617D01*
X116938807Y-70104000D01*
X114960000Y-70104000D01*
X114960000Y-65786385D01*
X117942000Y-65786385D01*
X117942000Y-66293615D01*
X118040956Y-66791100D01*
X118235065Y-67259720D01*
X118516867Y-67681467D01*
X118875533Y-68040133D01*
X119297280Y-68321935D01*
X119765900Y-68516044D01*
X120263385Y-68615000D01*
X120770615Y-68615000D01*
X121268100Y-68516044D01*
X121736720Y-68321935D01*
X122158467Y-68040133D01*
X122517133Y-67681467D01*
X122798935Y-67259720D01*
X122993044Y-66791100D01*
X123092000Y-66293615D01*
X123092000Y-65786385D01*
X122993044Y-65288900D01*
X122798935Y-64820280D01*
X122517133Y-64398533D01*
X122158467Y-64039867D01*
X121736720Y-63758065D01*
X121268100Y-63563956D01*
X120770615Y-63465000D01*
X120263385Y-63465000D01*
X119765900Y-63563956D01*
X119297280Y-63758065D01*
X118875533Y-64039867D01*
X118516867Y-64398533D01*
X118235065Y-64820280D01*
X118040956Y-65288900D01*
X117942000Y-65786385D01*
X114960000Y-65786385D01*
X114960000Y-61079413D01*
X116392192Y-61079413D01*
X116487956Y-61343814D01*
X116777571Y-61484704D01*
X117089108Y-61566384D01*
X117410595Y-61585718D01*
X117729675Y-61541961D01*
X118034088Y-61436795D01*
X118208044Y-61343814D01*
X118303808Y-61079413D01*
X117348000Y-60123605D01*
X116392192Y-61079413D01*
X114960000Y-61079413D01*
X114960000Y-60006595D01*
X115706282Y-60006595D01*
X115750039Y-60325675D01*
X115855205Y-60630088D01*
X115948186Y-60804044D01*
X116212587Y-60899808D01*
X117168395Y-59944000D01*
X117527605Y-59944000D01*
X118483413Y-60899808D01*
X118747814Y-60804044D01*
X118888704Y-60514429D01*
X118970384Y-60202892D01*
X118989718Y-59881405D01*
X118945961Y-59562325D01*
X118840795Y-59257912D01*
X118747814Y-59083956D01*
X118483413Y-58988192D01*
X117527605Y-59944000D01*
X117168395Y-59944000D01*
X116212587Y-58988192D01*
X115948186Y-59083956D01*
X115807296Y-59373571D01*
X115725616Y-59685108D01*
X115706282Y-60006595D01*
X114960000Y-60006595D01*
X114960000Y-58808587D01*
X116392192Y-58808587D01*
X117348000Y-59764395D01*
X118303808Y-58808587D01*
X118208044Y-58544186D01*
X117918429Y-58403296D01*
X117606892Y-58321616D01*
X117285405Y-58302282D01*
X116966325Y-58346039D01*
X116661912Y-58451205D01*
X116487956Y-58544186D01*
X116392192Y-58808587D01*
X114960000Y-58808587D01*
X114960000Y-57556000D01*
X141072001Y-57556000D01*
X141072000Y-74135581D01*
G37*
X141072000Y-74135581D02*
X141068807Y-74168000D01*
X141081550Y-74297383D01*
X141119290Y-74421793D01*
X141180575Y-74536450D01*
X141235336Y-74603176D01*
X141263052Y-74636948D01*
X141363550Y-74719425D01*
X141478207Y-74780710D01*
X141602617Y-74818450D01*
X141732000Y-74831193D01*
X141764419Y-74828000D01*
X170028001Y-74828000D01*
X170028000Y-116180000D01*
X114960000Y-116180000D01*
X114960000Y-114961609D01*
X115666538Y-114961609D01*
X115670409Y-114999282D01*
X115762579Y-115224533D01*
X115896922Y-115427474D01*
X116068275Y-115600307D01*
X116270054Y-115736390D01*
X116494504Y-115830493D01*
X116733000Y-115879000D01*
X117133000Y-115879000D01*
X117133000Y-114771000D01*
X117387000Y-114771000D01*
X117387000Y-115879000D01*
X117787000Y-115879000D01*
X118025496Y-115830493D01*
X118249946Y-115736390D01*
X118451725Y-115600307D01*
X118623078Y-115427474D01*
X118757421Y-115224533D01*
X118849591Y-114999282D01*
X118853462Y-114961609D01*
X118728731Y-114771000D01*
X117387000Y-114771000D01*
X117133000Y-114771000D01*
X115791269Y-114771000D01*
X115666538Y-114961609D01*
X114960000Y-114961609D01*
X114960000Y-114326391D01*
X115666538Y-114326391D01*
X115791269Y-114517000D01*
X117133000Y-114517000D01*
X117133000Y-113409000D01*
X117387000Y-113409000D01*
X117387000Y-114517000D01*
X118728731Y-114517000D01*
X118853462Y-114326391D01*
X118849591Y-114288718D01*
X118757421Y-114063467D01*
X118623078Y-113860526D01*
X118451725Y-113687693D01*
X118249946Y-113551610D01*
X118025496Y-113457507D01*
X117787000Y-113409000D01*
X117387000Y-113409000D01*
X117133000Y-113409000D01*
X116733000Y-113409000D01*
X116494504Y-113457507D01*
X116270054Y-113551610D01*
X116068275Y-113687693D01*
X115896922Y-113860526D01*
X115762579Y-114063467D01*
X115670409Y-114288718D01*
X115666538Y-114326391D01*
X114960000Y-114326391D01*
X114960000Y-112104000D01*
X115619025Y-112104000D01*
X115642870Y-112346102D01*
X115713489Y-112578901D01*
X115828167Y-112793449D01*
X115982498Y-112981502D01*
X116170551Y-113135833D01*
X116385099Y-113250511D01*
X116617898Y-113321130D01*
X116799335Y-113339000D01*
X117720665Y-113339000D01*
X117902102Y-113321130D01*
X118134901Y-113250511D01*
X118349449Y-113135833D01*
X118537502Y-112981502D01*
X118691833Y-112793449D01*
X118806511Y-112578901D01*
X118877130Y-112346102D01*
X118900975Y-112104000D01*
X118893721Y-112030340D01*
X125603000Y-112030340D01*
X125603000Y-112505660D01*
X125695731Y-112971846D01*
X125877628Y-113410984D01*
X126141701Y-113806198D01*
X126477802Y-114142299D01*
X126873016Y-114406372D01*
X127312154Y-114588269D01*
X127778340Y-114681000D01*
X128253660Y-114681000D01*
X128439669Y-114644000D01*
X135939025Y-114644000D01*
X135962870Y-114886102D01*
X136033489Y-115118901D01*
X136148167Y-115333449D01*
X136302498Y-115521502D01*
X136490551Y-115675833D01*
X136705099Y-115790511D01*
X136937898Y-115861130D01*
X137119335Y-115879000D01*
X138040665Y-115879000D01*
X138222102Y-115861130D01*
X138454901Y-115790511D01*
X138669449Y-115675833D01*
X138857502Y-115521502D01*
X139011833Y-115333449D01*
X139126511Y-115118901D01*
X139197130Y-114886102D01*
X139220975Y-114644000D01*
X139197130Y-114401898D01*
X139126511Y-114169099D01*
X139011833Y-113954551D01*
X138857502Y-113766498D01*
X138669449Y-113612167D01*
X138454901Y-113497489D01*
X138222102Y-113426870D01*
X138040665Y-113409000D01*
X137119335Y-113409000D01*
X136937898Y-113426870D01*
X136705099Y-113497489D01*
X136490551Y-113612167D01*
X136302498Y-113766498D01*
X136148167Y-113954551D01*
X136033489Y-114169099D01*
X135962870Y-114401898D01*
X135939025Y-114644000D01*
X128439669Y-114644000D01*
X128719846Y-114588269D01*
X129158984Y-114406372D01*
X129554198Y-114142299D01*
X129890299Y-113806198D01*
X130154372Y-113410984D01*
X130336269Y-112971846D01*
X130429000Y-112505660D01*
X130429000Y-112104000D01*
X135939025Y-112104000D01*
X135962870Y-112346102D01*
X136033489Y-112578901D01*
X136148167Y-112793449D01*
X136302498Y-112981502D01*
X136490551Y-113135833D01*
X136705099Y-113250511D01*
X136937898Y-113321130D01*
X137119335Y-113339000D01*
X138040665Y-113339000D01*
X138222102Y-113321130D01*
X138454901Y-113250511D01*
X138669449Y-113135833D01*
X138857502Y-112981502D01*
X139011833Y-112793449D01*
X139126511Y-112578901D01*
X139197130Y-112346102D01*
X139220975Y-112104000D01*
X139197130Y-111861898D01*
X139126511Y-111629099D01*
X139011833Y-111414551D01*
X138857502Y-111226498D01*
X138669449Y-111072167D01*
X138454901Y-110957489D01*
X138222102Y-110886870D01*
X138040665Y-110869000D01*
X137119335Y-110869000D01*
X136937898Y-110886870D01*
X136705099Y-110957489D01*
X136490551Y-111072167D01*
X136302498Y-111226498D01*
X136148167Y-111414551D01*
X136033489Y-111629099D01*
X135962870Y-111861898D01*
X135939025Y-112104000D01*
X130429000Y-112104000D01*
X130429000Y-112030340D01*
X130336269Y-111564154D01*
X130154372Y-111125016D01*
X129946559Y-110814000D01*
X153157928Y-110814000D01*
X153157928Y-113214000D01*
X153170188Y-113338482D01*
X153206498Y-113458180D01*
X153265463Y-113568494D01*
X153344815Y-113665185D01*
X153441506Y-113744537D01*
X153551820Y-113803502D01*
X153671518Y-113839812D01*
X153796000Y-113852072D01*
X156196000Y-113852072D01*
X156320482Y-113839812D01*
X156440180Y-113803502D01*
X156550494Y-113744537D01*
X156647185Y-113665185D01*
X156726537Y-113568494D01*
X156785502Y-113458180D01*
X156821812Y-113338482D01*
X156826391Y-113291980D01*
X157397626Y-113291980D01*
X157517514Y-113576836D01*
X157841210Y-113737699D01*
X158190069Y-113832322D01*
X158550684Y-113857067D01*
X158909198Y-113810985D01*
X159251833Y-113695846D01*
X159474486Y-113576836D01*
X159594374Y-113291980D01*
X158496000Y-112193605D01*
X157397626Y-113291980D01*
X156826391Y-113291980D01*
X156834072Y-113214000D01*
X156834072Y-112807097D01*
X156933164Y-112992486D01*
X157218020Y-113112374D01*
X158316395Y-112014000D01*
X158675605Y-112014000D01*
X159773980Y-113112374D01*
X160058836Y-112992486D01*
X160219699Y-112668790D01*
X160314322Y-112319931D01*
X160339067Y-111959316D01*
X160292985Y-111600802D01*
X160177846Y-111258167D01*
X160058836Y-111035514D01*
X159773980Y-110915626D01*
X158675605Y-112014000D01*
X158316395Y-112014000D01*
X157218020Y-110915626D01*
X156933164Y-111035514D01*
X156834072Y-111234912D01*
X156834072Y-110814000D01*
X156826392Y-110736020D01*
X157397626Y-110736020D01*
X158496000Y-111834395D01*
X159594374Y-110736020D01*
X159474486Y-110451164D01*
X159150790Y-110290301D01*
X158801931Y-110195678D01*
X158441316Y-110170933D01*
X158082802Y-110217015D01*
X157740167Y-110332154D01*
X157517514Y-110451164D01*
X157397626Y-110736020D01*
X156826392Y-110736020D01*
X156821812Y-110689518D01*
X156785502Y-110569820D01*
X156726537Y-110459506D01*
X156647185Y-110362815D01*
X156550494Y-110283463D01*
X156440180Y-110224498D01*
X156320482Y-110188188D01*
X156196000Y-110175928D01*
X153796000Y-110175928D01*
X153671518Y-110188188D01*
X153551820Y-110224498D01*
X153441506Y-110283463D01*
X153344815Y-110362815D01*
X153265463Y-110459506D01*
X153206498Y-110569820D01*
X153170188Y-110689518D01*
X153157928Y-110814000D01*
X129946559Y-110814000D01*
X129890299Y-110729802D01*
X129554198Y-110393701D01*
X129158984Y-110129628D01*
X128719846Y-109947731D01*
X128253660Y-109855000D01*
X127778340Y-109855000D01*
X127312154Y-109947731D01*
X126873016Y-110129628D01*
X126477802Y-110393701D01*
X126141701Y-110729802D01*
X125877628Y-111125016D01*
X125695731Y-111564154D01*
X125603000Y-112030340D01*
X118893721Y-112030340D01*
X118877130Y-111861898D01*
X118806511Y-111629099D01*
X118691833Y-111414551D01*
X118537502Y-111226498D01*
X118349449Y-111072167D01*
X118134901Y-110957489D01*
X117902102Y-110886870D01*
X117720665Y-110869000D01*
X116799335Y-110869000D01*
X116617898Y-110886870D01*
X116385099Y-110957489D01*
X116170551Y-111072167D01*
X115982498Y-111226498D01*
X115828167Y-111414551D01*
X115713489Y-111629099D01*
X115642870Y-111861898D01*
X115619025Y-112104000D01*
X114960000Y-112104000D01*
X114960000Y-109564000D01*
X115619025Y-109564000D01*
X115642870Y-109806102D01*
X115713489Y-110038901D01*
X115828167Y-110253449D01*
X115982498Y-110441502D01*
X116170551Y-110595833D01*
X116385099Y-110710511D01*
X116617898Y-110781130D01*
X116799335Y-110799000D01*
X117720665Y-110799000D01*
X117902102Y-110781130D01*
X118134901Y-110710511D01*
X118349449Y-110595833D01*
X118537502Y-110441502D01*
X118691833Y-110253449D01*
X118806511Y-110038901D01*
X118877130Y-109806102D01*
X118900975Y-109564000D01*
X135939025Y-109564000D01*
X135962870Y-109806102D01*
X136033489Y-110038901D01*
X136148167Y-110253449D01*
X136302498Y-110441502D01*
X136490551Y-110595833D01*
X136705099Y-110710511D01*
X136937898Y-110781130D01*
X137119335Y-110799000D01*
X138040665Y-110799000D01*
X138222102Y-110781130D01*
X138454901Y-110710511D01*
X138669449Y-110595833D01*
X138857502Y-110441502D01*
X139011833Y-110253449D01*
X139126511Y-110038901D01*
X139197130Y-109806102D01*
X139220975Y-109564000D01*
X139197130Y-109321898D01*
X139126511Y-109089099D01*
X139011833Y-108874551D01*
X138857502Y-108686498D01*
X138669449Y-108532167D01*
X138454901Y-108417489D01*
X138222102Y-108346870D01*
X138040665Y-108329000D01*
X137119335Y-108329000D01*
X136937898Y-108346870D01*
X136705099Y-108417489D01*
X136490551Y-108532167D01*
X136302498Y-108686498D01*
X136148167Y-108874551D01*
X136033489Y-109089099D01*
X135962870Y-109321898D01*
X135939025Y-109564000D01*
X118900975Y-109564000D01*
X118877130Y-109321898D01*
X118806511Y-109089099D01*
X118691833Y-108874551D01*
X118537502Y-108686498D01*
X118349449Y-108532167D01*
X118134901Y-108417489D01*
X117902102Y-108346870D01*
X117720665Y-108329000D01*
X116799335Y-108329000D01*
X116617898Y-108346870D01*
X116385099Y-108417489D01*
X116170551Y-108532167D01*
X115982498Y-108686498D01*
X115828167Y-108874551D01*
X115713489Y-109089099D01*
X115642870Y-109321898D01*
X115619025Y-109564000D01*
X114960000Y-109564000D01*
X114960000Y-107024000D01*
X115619025Y-107024000D01*
X115642870Y-107266102D01*
X115713489Y-107498901D01*
X115828167Y-107713449D01*
X115982498Y-107901502D01*
X116170551Y-108055833D01*
X116385099Y-108170511D01*
X116617898Y-108241130D01*
X116799335Y-108259000D01*
X117720665Y-108259000D01*
X117902102Y-108241130D01*
X118134901Y-108170511D01*
X118349449Y-108055833D01*
X118537502Y-107901502D01*
X118691833Y-107713449D01*
X118806511Y-107498901D01*
X118877130Y-107266102D01*
X118900975Y-107024000D01*
X135939025Y-107024000D01*
X135962870Y-107266102D01*
X136033489Y-107498901D01*
X136148167Y-107713449D01*
X136302498Y-107901502D01*
X136490551Y-108055833D01*
X136705099Y-108170511D01*
X136937898Y-108241130D01*
X137119335Y-108259000D01*
X138040665Y-108259000D01*
X138222102Y-108241130D01*
X138454901Y-108170511D01*
X138669449Y-108055833D01*
X138857502Y-107901502D01*
X139011833Y-107713449D01*
X139126511Y-107498901D01*
X139197130Y-107266102D01*
X139220975Y-107024000D01*
X139197130Y-106781898D01*
X139126511Y-106549099D01*
X139011833Y-106334551D01*
X138857502Y-106146498D01*
X138669449Y-105992167D01*
X138454901Y-105877489D01*
X138222102Y-105806870D01*
X138040665Y-105789000D01*
X137119335Y-105789000D01*
X136937898Y-105806870D01*
X136705099Y-105877489D01*
X136490551Y-105992167D01*
X136302498Y-106146498D01*
X136148167Y-106334551D01*
X136033489Y-106549099D01*
X135962870Y-106781898D01*
X135939025Y-107024000D01*
X118900975Y-107024000D01*
X118877130Y-106781898D01*
X118806511Y-106549099D01*
X118691833Y-106334551D01*
X118537502Y-106146498D01*
X118349449Y-105992167D01*
X118134901Y-105877489D01*
X117902102Y-105806870D01*
X117720665Y-105789000D01*
X116799335Y-105789000D01*
X116617898Y-105806870D01*
X116385099Y-105877489D01*
X116170551Y-105992167D01*
X115982498Y-106146498D01*
X115828167Y-106334551D01*
X115713489Y-106549099D01*
X115642870Y-106781898D01*
X115619025Y-107024000D01*
X114960000Y-107024000D01*
X114960000Y-104484000D01*
X115619025Y-104484000D01*
X115642870Y-104726102D01*
X115713489Y-104958901D01*
X115828167Y-105173449D01*
X115982498Y-105361502D01*
X116170551Y-105515833D01*
X116385099Y-105630511D01*
X116617898Y-105701130D01*
X116799335Y-105719000D01*
X117720665Y-105719000D01*
X117902102Y-105701130D01*
X118134901Y-105630511D01*
X118349449Y-105515833D01*
X118537502Y-105361502D01*
X118691833Y-105173449D01*
X118806511Y-104958901D01*
X118877130Y-104726102D01*
X118900975Y-104484000D01*
X135939025Y-104484000D01*
X135962870Y-104726102D01*
X136033489Y-104958901D01*
X136148167Y-105173449D01*
X136302498Y-105361502D01*
X136490551Y-105515833D01*
X136705099Y-105630511D01*
X136937898Y-105701130D01*
X137119335Y-105719000D01*
X138040665Y-105719000D01*
X138222102Y-105701130D01*
X138454901Y-105630511D01*
X138669449Y-105515833D01*
X138857502Y-105361502D01*
X139011833Y-105173449D01*
X139126511Y-104958901D01*
X139197130Y-104726102D01*
X139220975Y-104484000D01*
X139197130Y-104241898D01*
X139126511Y-104009099D01*
X139011833Y-103794551D01*
X138857502Y-103606498D01*
X138669449Y-103452167D01*
X138454901Y-103337489D01*
X138222102Y-103266870D01*
X138040665Y-103249000D01*
X137119335Y-103249000D01*
X136937898Y-103266870D01*
X136705099Y-103337489D01*
X136490551Y-103452167D01*
X136302498Y-103606498D01*
X136148167Y-103794551D01*
X136033489Y-104009099D01*
X135962870Y-104241898D01*
X135939025Y-104484000D01*
X118900975Y-104484000D01*
X118877130Y-104241898D01*
X118806511Y-104009099D01*
X118691833Y-103794551D01*
X118537502Y-103606498D01*
X118349449Y-103452167D01*
X118134901Y-103337489D01*
X117902102Y-103266870D01*
X117720665Y-103249000D01*
X116799335Y-103249000D01*
X116617898Y-103266870D01*
X116385099Y-103337489D01*
X116170551Y-103452167D01*
X115982498Y-103606498D01*
X115828167Y-103794551D01*
X115713489Y-104009099D01*
X115642870Y-104241898D01*
X115619025Y-104484000D01*
X114960000Y-104484000D01*
X114960000Y-101944000D01*
X115619025Y-101944000D01*
X115642870Y-102186102D01*
X115713489Y-102418901D01*
X115828167Y-102633449D01*
X115982498Y-102821502D01*
X116170551Y-102975833D01*
X116385099Y-103090511D01*
X116617898Y-103161130D01*
X116799335Y-103179000D01*
X117720665Y-103179000D01*
X117902102Y-103161130D01*
X118134901Y-103090511D01*
X118349449Y-102975833D01*
X118537502Y-102821502D01*
X118691833Y-102633449D01*
X118806511Y-102418901D01*
X118877130Y-102186102D01*
X118900975Y-101944000D01*
X135939025Y-101944000D01*
X135962870Y-102186102D01*
X136033489Y-102418901D01*
X136148167Y-102633449D01*
X136302498Y-102821502D01*
X136490551Y-102975833D01*
X136705099Y-103090511D01*
X136937898Y-103161130D01*
X137119335Y-103179000D01*
X138040665Y-103179000D01*
X138222102Y-103161130D01*
X138454901Y-103090511D01*
X138669449Y-102975833D01*
X138734031Y-102922832D01*
X139827201Y-104016003D01*
X139850999Y-104045001D01*
X139966724Y-104139974D01*
X140098753Y-104210546D01*
X140242014Y-104254003D01*
X140353667Y-104265000D01*
X140353676Y-104265000D01*
X140390999Y-104268676D01*
X140428322Y-104265000D01*
X143615525Y-104265000D01*
X143485226Y-104352063D01*
X143341063Y-104496226D01*
X143227795Y-104665744D01*
X143149774Y-104854102D01*
X143110000Y-105054061D01*
X143110000Y-105116198D01*
X140562168Y-107664031D01*
X140382897Y-107589774D01*
X140182938Y-107550000D01*
X139979060Y-107550000D01*
X139779101Y-107589774D01*
X139590743Y-107667795D01*
X139421225Y-107781063D01*
X139277062Y-107925226D01*
X139163794Y-108094744D01*
X139085773Y-108283102D01*
X139045999Y-108483061D01*
X139045999Y-108686939D01*
X139085773Y-108886898D01*
X139163794Y-109075256D01*
X139277062Y-109244774D01*
X139421225Y-109388937D01*
X139590743Y-109502205D01*
X139779101Y-109580226D01*
X139979060Y-109620000D01*
X140182938Y-109620000D01*
X140382897Y-109580226D01*
X140571255Y-109502205D01*
X140740773Y-109388937D01*
X140788138Y-109341572D01*
X140864986Y-109334003D01*
X141008247Y-109290546D01*
X141140276Y-109219974D01*
X141256001Y-109125001D01*
X141279804Y-109095997D01*
X143924740Y-106451061D01*
X155937000Y-106451061D01*
X155937000Y-106654939D01*
X155976774Y-106854898D01*
X156054795Y-107043256D01*
X156168063Y-107212774D01*
X156312226Y-107356937D01*
X156481744Y-107470205D01*
X156670102Y-107548226D01*
X156870061Y-107588000D01*
X156932199Y-107588000D01*
X163393201Y-114049003D01*
X163416999Y-114078001D01*
X163532724Y-114172974D01*
X163664753Y-114243546D01*
X163808014Y-114287003D01*
X163919667Y-114298000D01*
X163919675Y-114298000D01*
X163957000Y-114301676D01*
X163994325Y-114298000D01*
X164023928Y-114298000D01*
X164023928Y-114738000D01*
X164036188Y-114862482D01*
X164072498Y-114982180D01*
X164131463Y-115092494D01*
X164210815Y-115189185D01*
X164307506Y-115268537D01*
X164417820Y-115327502D01*
X164537518Y-115363812D01*
X164662000Y-115376072D01*
X167062000Y-115376072D01*
X167186482Y-115363812D01*
X167306180Y-115327502D01*
X167416494Y-115268537D01*
X167513185Y-115189185D01*
X167592537Y-115092494D01*
X167651502Y-114982180D01*
X167687812Y-114862482D01*
X167700072Y-114738000D01*
X167700072Y-112338000D01*
X167687812Y-112213518D01*
X167651502Y-112093820D01*
X167592537Y-111983506D01*
X167513185Y-111886815D01*
X167416494Y-111807463D01*
X167306180Y-111748498D01*
X167186482Y-111712188D01*
X167062000Y-111699928D01*
X166655097Y-111699928D01*
X166840486Y-111600836D01*
X166960374Y-111315980D01*
X165862000Y-110217605D01*
X164763626Y-111315980D01*
X164883514Y-111600836D01*
X165082912Y-111699928D01*
X164662000Y-111699928D01*
X164537518Y-111712188D01*
X164417820Y-111748498D01*
X164307506Y-111807463D01*
X164210815Y-111886815D01*
X164131463Y-111983506D01*
X164072498Y-112093820D01*
X164036188Y-112213518D01*
X164023928Y-112338000D01*
X164023928Y-112530126D01*
X161586486Y-110092684D01*
X164018933Y-110092684D01*
X164065015Y-110451198D01*
X164180154Y-110793833D01*
X164299164Y-111016486D01*
X164584020Y-111136374D01*
X165682395Y-110038000D01*
X166041605Y-110038000D01*
X167139980Y-111136374D01*
X167424836Y-111016486D01*
X167585699Y-110692790D01*
X167680322Y-110343931D01*
X167705067Y-109983316D01*
X167658985Y-109624802D01*
X167543846Y-109282167D01*
X167424836Y-109059514D01*
X167139980Y-108939626D01*
X166041605Y-110038000D01*
X165682395Y-110038000D01*
X164584020Y-108939626D01*
X164299164Y-109059514D01*
X164138301Y-109383210D01*
X164043678Y-109732069D01*
X164018933Y-110092684D01*
X161586486Y-110092684D01*
X159309782Y-107815980D01*
X164763626Y-107815980D01*
X164883514Y-108100836D01*
X165207210Y-108261699D01*
X165306836Y-108288721D01*
X165106167Y-108356154D01*
X164883514Y-108475164D01*
X164763626Y-108760020D01*
X165862000Y-109858395D01*
X166960374Y-108760020D01*
X166840486Y-108475164D01*
X166516790Y-108314301D01*
X166417164Y-108287279D01*
X166617833Y-108219846D01*
X166840486Y-108100836D01*
X166960374Y-107815980D01*
X165862000Y-106717605D01*
X164763626Y-107815980D01*
X159309782Y-107815980D01*
X158086486Y-106592684D01*
X164018933Y-106592684D01*
X164065015Y-106951198D01*
X164180154Y-107293833D01*
X164299164Y-107516486D01*
X164584020Y-107636374D01*
X165682395Y-106538000D01*
X166041605Y-106538000D01*
X167139980Y-107636374D01*
X167424836Y-107516486D01*
X167585699Y-107192790D01*
X167680322Y-106843931D01*
X167705067Y-106483316D01*
X167658985Y-106124802D01*
X167543846Y-105782167D01*
X167424836Y-105559514D01*
X167139980Y-105439626D01*
X166041605Y-106538000D01*
X165682395Y-106538000D01*
X164584020Y-105439626D01*
X164299164Y-105559514D01*
X164138301Y-105883210D01*
X164043678Y-106232069D01*
X164018933Y-106592684D01*
X158086486Y-106592684D01*
X158007000Y-106513199D01*
X158007000Y-106451061D01*
X157967226Y-106251102D01*
X157889205Y-106062744D01*
X157775937Y-105893226D01*
X157631774Y-105749063D01*
X157462256Y-105635795D01*
X157273898Y-105557774D01*
X157073939Y-105518000D01*
X156870061Y-105518000D01*
X156670102Y-105557774D01*
X156481744Y-105635795D01*
X156312226Y-105749063D01*
X156168063Y-105893226D01*
X156054795Y-106062744D01*
X155976774Y-106251102D01*
X155937000Y-106451061D01*
X143924740Y-106451061D01*
X144184802Y-106191000D01*
X144246939Y-106191000D01*
X144446898Y-106151226D01*
X144635256Y-106073205D01*
X144804774Y-105959937D01*
X144948937Y-105815774D01*
X145062205Y-105646256D01*
X145140226Y-105457898D01*
X145180000Y-105257939D01*
X145180000Y-105054061D01*
X145140226Y-104854102D01*
X145062205Y-104665744D01*
X144948937Y-104496226D01*
X144804774Y-104352063D01*
X144674475Y-104265000D01*
X154013678Y-104265000D01*
X154051000Y-104268676D01*
X154088322Y-104265000D01*
X154088333Y-104265000D01*
X154199986Y-104254003D01*
X154343247Y-104210546D01*
X154475276Y-104139974D01*
X154591001Y-104045001D01*
X154614804Y-104015997D01*
X155773533Y-102857268D01*
X164027000Y-102857268D01*
X164027000Y-103218732D01*
X164097518Y-103573250D01*
X164235844Y-103907199D01*
X164436662Y-104207744D01*
X164692256Y-104463338D01*
X164992801Y-104664156D01*
X165299489Y-104791190D01*
X165106167Y-104856154D01*
X164883514Y-104975164D01*
X164763626Y-105260020D01*
X165862000Y-106358395D01*
X166960374Y-105260020D01*
X166840486Y-104975164D01*
X166516790Y-104814301D01*
X166427310Y-104790031D01*
X166731199Y-104664156D01*
X167031744Y-104463338D01*
X167287338Y-104207744D01*
X167488156Y-103907199D01*
X167626482Y-103573250D01*
X167697000Y-103218732D01*
X167697000Y-102857268D01*
X167626482Y-102502750D01*
X167488156Y-102168801D01*
X167287338Y-101868256D01*
X167031744Y-101612662D01*
X166731199Y-101411844D01*
X166397250Y-101273518D01*
X166042732Y-101203000D01*
X165681268Y-101203000D01*
X165326750Y-101273518D01*
X164992801Y-101411844D01*
X164692256Y-101612662D01*
X164436662Y-101868256D01*
X164235844Y-102168801D01*
X164097518Y-102502750D01*
X164027000Y-102857268D01*
X155773533Y-102857268D01*
X156249802Y-102381000D01*
X156311939Y-102381000D01*
X156511898Y-102341226D01*
X156700256Y-102263205D01*
X156869774Y-102149937D01*
X157013937Y-102005774D01*
X157127205Y-101836256D01*
X157205226Y-101647898D01*
X157245000Y-101447939D01*
X157245000Y-101244061D01*
X157205226Y-101044102D01*
X157127205Y-100855744D01*
X157013937Y-100686226D01*
X156869774Y-100542063D01*
X156700256Y-100428795D01*
X156511898Y-100350774D01*
X156311939Y-100311000D01*
X156108061Y-100311000D01*
X155908102Y-100350774D01*
X155719744Y-100428795D01*
X155550226Y-100542063D01*
X155406063Y-100686226D01*
X155292795Y-100855744D01*
X155214774Y-101044102D01*
X155175000Y-101244061D01*
X155175000Y-101306198D01*
X153736199Y-102745000D01*
X140705802Y-102745000D01*
X139393804Y-101433003D01*
X139370001Y-101403999D01*
X139254276Y-101309026D01*
X139122247Y-101238454D01*
X138978986Y-101194997D01*
X138961549Y-101193280D01*
X138857502Y-101066498D01*
X138669449Y-100912167D01*
X138454901Y-100797489D01*
X138222102Y-100726870D01*
X138040665Y-100709000D01*
X137119335Y-100709000D01*
X136937898Y-100726870D01*
X136705099Y-100797489D01*
X136490551Y-100912167D01*
X136302498Y-101066498D01*
X136148167Y-101254551D01*
X136033489Y-101469099D01*
X135962870Y-101701898D01*
X135939025Y-101944000D01*
X118900975Y-101944000D01*
X118877130Y-101701898D01*
X118806511Y-101469099D01*
X118691833Y-101254551D01*
X118537502Y-101066498D01*
X118349449Y-100912167D01*
X118134901Y-100797489D01*
X117902102Y-100726870D01*
X117720665Y-100709000D01*
X116799335Y-100709000D01*
X116617898Y-100726870D01*
X116385099Y-100797489D01*
X116170551Y-100912167D01*
X115982498Y-101066498D01*
X115828167Y-101254551D01*
X115713489Y-101469099D01*
X115642870Y-101701898D01*
X115619025Y-101944000D01*
X114960000Y-101944000D01*
X114960000Y-99404000D01*
X115619025Y-99404000D01*
X115642870Y-99646102D01*
X115713489Y-99878901D01*
X115828167Y-100093449D01*
X115982498Y-100281502D01*
X116170551Y-100435833D01*
X116385099Y-100550511D01*
X116617898Y-100621130D01*
X116799335Y-100639000D01*
X117720665Y-100639000D01*
X117902102Y-100621130D01*
X118134901Y-100550511D01*
X118349449Y-100435833D01*
X118537502Y-100281502D01*
X118691833Y-100093449D01*
X118806511Y-99878901D01*
X118877130Y-99646102D01*
X118900975Y-99404000D01*
X135939025Y-99404000D01*
X135962870Y-99646102D01*
X136033489Y-99878901D01*
X136148167Y-100093449D01*
X136302498Y-100281502D01*
X136490551Y-100435833D01*
X136705099Y-100550511D01*
X136937898Y-100621130D01*
X137119335Y-100639000D01*
X138040665Y-100639000D01*
X138222102Y-100621130D01*
X138454901Y-100550511D01*
X138669449Y-100435833D01*
X138857502Y-100281502D01*
X139011833Y-100093449D01*
X139126511Y-99878901D01*
X139197130Y-99646102D01*
X139220975Y-99404000D01*
X139197130Y-99161898D01*
X139126511Y-98929099D01*
X139011833Y-98714551D01*
X138857502Y-98526498D01*
X138669449Y-98372167D01*
X138454901Y-98257489D01*
X138222102Y-98186870D01*
X138040665Y-98169000D01*
X137119335Y-98169000D01*
X136937898Y-98186870D01*
X136705099Y-98257489D01*
X136490551Y-98372167D01*
X136302498Y-98526498D01*
X136148167Y-98714551D01*
X136033489Y-98929099D01*
X135962870Y-99161898D01*
X135939025Y-99404000D01*
X118900975Y-99404000D01*
X118877130Y-99161898D01*
X118806511Y-98929099D01*
X118691833Y-98714551D01*
X118537502Y-98526498D01*
X118349449Y-98372167D01*
X118134901Y-98257489D01*
X117902102Y-98186870D01*
X117720665Y-98169000D01*
X116799335Y-98169000D01*
X116617898Y-98186870D01*
X116385099Y-98257489D01*
X116170551Y-98372167D01*
X115982498Y-98526498D01*
X115828167Y-98714551D01*
X115713489Y-98929099D01*
X115642870Y-99161898D01*
X115619025Y-99404000D01*
X114960000Y-99404000D01*
X114960000Y-96864000D01*
X115619025Y-96864000D01*
X115642870Y-97106102D01*
X115713489Y-97338901D01*
X115828167Y-97553449D01*
X115982498Y-97741502D01*
X116170551Y-97895833D01*
X116385099Y-98010511D01*
X116617898Y-98081130D01*
X116799335Y-98099000D01*
X117720665Y-98099000D01*
X117902102Y-98081130D01*
X118134901Y-98010511D01*
X118349449Y-97895833D01*
X118537502Y-97741502D01*
X118691833Y-97553449D01*
X118806511Y-97338901D01*
X118877130Y-97106102D01*
X118900975Y-96864000D01*
X135939025Y-96864000D01*
X135962870Y-97106102D01*
X136033489Y-97338901D01*
X136148167Y-97553449D01*
X136302498Y-97741502D01*
X136490551Y-97895833D01*
X136705099Y-98010511D01*
X136937898Y-98081130D01*
X137119335Y-98099000D01*
X138040665Y-98099000D01*
X138222102Y-98081130D01*
X138454901Y-98010511D01*
X138669449Y-97895833D01*
X138857502Y-97741502D01*
X139011833Y-97553449D01*
X139126511Y-97338901D01*
X139197130Y-97106102D01*
X139220975Y-96864000D01*
X139197130Y-96621898D01*
X139126511Y-96389099D01*
X139011833Y-96174551D01*
X138857502Y-95986498D01*
X138669449Y-95832167D01*
X138454901Y-95717489D01*
X138222102Y-95646870D01*
X138040665Y-95629000D01*
X137119335Y-95629000D01*
X136937898Y-95646870D01*
X136705099Y-95717489D01*
X136490551Y-95832167D01*
X136302498Y-95986498D01*
X136148167Y-96174551D01*
X136033489Y-96389099D01*
X135962870Y-96621898D01*
X135939025Y-96864000D01*
X118900975Y-96864000D01*
X118877130Y-96621898D01*
X118806511Y-96389099D01*
X118691833Y-96174551D01*
X118537502Y-95986498D01*
X118349449Y-95832167D01*
X118134901Y-95717489D01*
X117902102Y-95646870D01*
X117720665Y-95629000D01*
X116799335Y-95629000D01*
X116617898Y-95646870D01*
X116385099Y-95717489D01*
X116170551Y-95832167D01*
X115982498Y-95986498D01*
X115828167Y-96174551D01*
X115713489Y-96389099D01*
X115642870Y-96621898D01*
X115619025Y-96864000D01*
X114960000Y-96864000D01*
X114960000Y-94324000D01*
X115619025Y-94324000D01*
X115642870Y-94566102D01*
X115713489Y-94798901D01*
X115828167Y-95013449D01*
X115982498Y-95201502D01*
X116170551Y-95355833D01*
X116385099Y-95470511D01*
X116617898Y-95541130D01*
X116799335Y-95559000D01*
X117720665Y-95559000D01*
X117902102Y-95541130D01*
X118134901Y-95470511D01*
X118349449Y-95355833D01*
X118537502Y-95201502D01*
X118691833Y-95013449D01*
X118806511Y-94798901D01*
X118877130Y-94566102D01*
X118900975Y-94324000D01*
X135939025Y-94324000D01*
X135962870Y-94566102D01*
X136033489Y-94798901D01*
X136148167Y-95013449D01*
X136302498Y-95201502D01*
X136490551Y-95355833D01*
X136705099Y-95470511D01*
X136937898Y-95541130D01*
X137119335Y-95559000D01*
X138040665Y-95559000D01*
X138222102Y-95541130D01*
X138454901Y-95470511D01*
X138669449Y-95355833D01*
X138857502Y-95201502D01*
X139011833Y-95013449D01*
X139126511Y-94798901D01*
X139197130Y-94566102D01*
X139220975Y-94324000D01*
X139197130Y-94081898D01*
X139126511Y-93849099D01*
X139011833Y-93634551D01*
X138857502Y-93446498D01*
X138669449Y-93292167D01*
X138454901Y-93177489D01*
X138222102Y-93106870D01*
X138040665Y-93089000D01*
X137119335Y-93089000D01*
X136937898Y-93106870D01*
X136705099Y-93177489D01*
X136490551Y-93292167D01*
X136302498Y-93446498D01*
X136148167Y-93634551D01*
X136033489Y-93849099D01*
X135962870Y-94081898D01*
X135939025Y-94324000D01*
X118900975Y-94324000D01*
X118877130Y-94081898D01*
X118806511Y-93849099D01*
X118691833Y-93634551D01*
X118537502Y-93446498D01*
X118349449Y-93292167D01*
X118134901Y-93177489D01*
X117902102Y-93106870D01*
X117720665Y-93089000D01*
X116799335Y-93089000D01*
X116617898Y-93106870D01*
X116385099Y-93177489D01*
X116170551Y-93292167D01*
X115982498Y-93446498D01*
X115828167Y-93634551D01*
X115713489Y-93849099D01*
X115642870Y-94081898D01*
X115619025Y-94324000D01*
X114960000Y-94324000D01*
X114960000Y-91784000D01*
X115619025Y-91784000D01*
X115642870Y-92026102D01*
X115713489Y-92258901D01*
X115828167Y-92473449D01*
X115982498Y-92661502D01*
X116170551Y-92815833D01*
X116385099Y-92930511D01*
X116617898Y-93001130D01*
X116799335Y-93019000D01*
X117720665Y-93019000D01*
X117902102Y-93001130D01*
X118134901Y-92930511D01*
X118349449Y-92815833D01*
X118537502Y-92661502D01*
X118691833Y-92473449D01*
X118806511Y-92258901D01*
X118877130Y-92026102D01*
X118900975Y-91784000D01*
X135939025Y-91784000D01*
X135962870Y-92026102D01*
X136033489Y-92258901D01*
X136148167Y-92473449D01*
X136302498Y-92661502D01*
X136490551Y-92815833D01*
X136705099Y-92930511D01*
X136937898Y-93001130D01*
X137119335Y-93019000D01*
X138040665Y-93019000D01*
X138222102Y-93001130D01*
X138454901Y-92930511D01*
X138669449Y-92815833D01*
X138857502Y-92661502D01*
X139011833Y-92473449D01*
X139126511Y-92258901D01*
X139197130Y-92026102D01*
X139220975Y-91784000D01*
X139197130Y-91541898D01*
X139126511Y-91309099D01*
X139011833Y-91094551D01*
X138857502Y-90906498D01*
X138669449Y-90752167D01*
X138454901Y-90637489D01*
X138222102Y-90566870D01*
X138040665Y-90549000D01*
X137119335Y-90549000D01*
X136937898Y-90566870D01*
X136705099Y-90637489D01*
X136490551Y-90752167D01*
X136302498Y-90906498D01*
X136148167Y-91094551D01*
X136033489Y-91309099D01*
X135962870Y-91541898D01*
X135939025Y-91784000D01*
X118900975Y-91784000D01*
X118877130Y-91541898D01*
X118806511Y-91309099D01*
X118691833Y-91094551D01*
X118537502Y-90906498D01*
X118349449Y-90752167D01*
X118134901Y-90637489D01*
X117902102Y-90566870D01*
X117720665Y-90549000D01*
X116799335Y-90549000D01*
X116617898Y-90566870D01*
X116385099Y-90637489D01*
X116170551Y-90752167D01*
X115982498Y-90906498D01*
X115828167Y-91094551D01*
X115713489Y-91309099D01*
X115642870Y-91541898D01*
X115619025Y-91784000D01*
X114960000Y-91784000D01*
X114960000Y-89244000D01*
X115619025Y-89244000D01*
X115642870Y-89486102D01*
X115713489Y-89718901D01*
X115828167Y-89933449D01*
X115982498Y-90121502D01*
X116170551Y-90275833D01*
X116385099Y-90390511D01*
X116617898Y-90461130D01*
X116799335Y-90479000D01*
X117720665Y-90479000D01*
X117902102Y-90461130D01*
X118134901Y-90390511D01*
X118349449Y-90275833D01*
X118537502Y-90121502D01*
X118691833Y-89933449D01*
X118806511Y-89718901D01*
X118877130Y-89486102D01*
X118900975Y-89244000D01*
X135939025Y-89244000D01*
X135962870Y-89486102D01*
X136033489Y-89718901D01*
X136148167Y-89933449D01*
X136302498Y-90121502D01*
X136490551Y-90275833D01*
X136705099Y-90390511D01*
X136937898Y-90461130D01*
X137119335Y-90479000D01*
X138040665Y-90479000D01*
X138222102Y-90461130D01*
X138454901Y-90390511D01*
X138669449Y-90275833D01*
X138857502Y-90121502D01*
X139011833Y-89933449D01*
X139126511Y-89718901D01*
X139197130Y-89486102D01*
X139220975Y-89244000D01*
X139197130Y-89001898D01*
X139126511Y-88769099D01*
X139011833Y-88554551D01*
X138857502Y-88366498D01*
X138669449Y-88212167D01*
X138454901Y-88097489D01*
X138222102Y-88026870D01*
X138040665Y-88009000D01*
X137119335Y-88009000D01*
X136937898Y-88026870D01*
X136705099Y-88097489D01*
X136490551Y-88212167D01*
X136302498Y-88366498D01*
X136148167Y-88554551D01*
X136033489Y-88769099D01*
X135962870Y-89001898D01*
X135939025Y-89244000D01*
X118900975Y-89244000D01*
X118877130Y-89001898D01*
X118806511Y-88769099D01*
X118691833Y-88554551D01*
X118537502Y-88366498D01*
X118349449Y-88212167D01*
X118134901Y-88097489D01*
X117902102Y-88026870D01*
X117720665Y-88009000D01*
X116799335Y-88009000D01*
X116617898Y-88026870D01*
X116385099Y-88097489D01*
X116170551Y-88212167D01*
X115982498Y-88366498D01*
X115828167Y-88554551D01*
X115713489Y-88769099D01*
X115642870Y-89001898D01*
X115619025Y-89244000D01*
X114960000Y-89244000D01*
X114960000Y-86704000D01*
X115619025Y-86704000D01*
X115642870Y-86946102D01*
X115713489Y-87178901D01*
X115828167Y-87393449D01*
X115982498Y-87581502D01*
X116170551Y-87735833D01*
X116385099Y-87850511D01*
X116617898Y-87921130D01*
X116799335Y-87939000D01*
X117720665Y-87939000D01*
X117902102Y-87921130D01*
X118134901Y-87850511D01*
X118349449Y-87735833D01*
X118537502Y-87581502D01*
X118691833Y-87393449D01*
X118806511Y-87178901D01*
X118877130Y-86946102D01*
X118900975Y-86704000D01*
X118877130Y-86461898D01*
X118806511Y-86229099D01*
X118691833Y-86014551D01*
X118537502Y-85826498D01*
X118349449Y-85672167D01*
X118134901Y-85557489D01*
X117902102Y-85486870D01*
X117720665Y-85469000D01*
X116799335Y-85469000D01*
X116617898Y-85486870D01*
X116385099Y-85557489D01*
X116170551Y-85672167D01*
X115982498Y-85826498D01*
X115828167Y-86014551D01*
X115713489Y-86229099D01*
X115642870Y-86461898D01*
X115619025Y-86704000D01*
X114960000Y-86704000D01*
X114960000Y-84481609D01*
X115666538Y-84481609D01*
X115670409Y-84519282D01*
X115762579Y-84744533D01*
X115896922Y-84947474D01*
X116068275Y-85120307D01*
X116270054Y-85256390D01*
X116494504Y-85350493D01*
X116733000Y-85399000D01*
X117133000Y-85399000D01*
X117133000Y-84291000D01*
X117387000Y-84291000D01*
X117387000Y-85399000D01*
X117787000Y-85399000D01*
X118025496Y-85350493D01*
X118249946Y-85256390D01*
X118451725Y-85120307D01*
X118623078Y-84947474D01*
X118757421Y-84744533D01*
X118849591Y-84519282D01*
X118853462Y-84481609D01*
X118728731Y-84291000D01*
X117387000Y-84291000D01*
X117133000Y-84291000D01*
X115791269Y-84291000D01*
X115666538Y-84481609D01*
X114960000Y-84481609D01*
X114960000Y-83846391D01*
X115666538Y-83846391D01*
X115791269Y-84037000D01*
X117133000Y-84037000D01*
X117133000Y-82929000D01*
X117387000Y-82929000D01*
X117387000Y-84037000D01*
X118728731Y-84037000D01*
X118853462Y-83846391D01*
X118849591Y-83808718D01*
X118757421Y-83583467D01*
X118623078Y-83380526D01*
X118451725Y-83207693D01*
X118249946Y-83071610D01*
X118025496Y-82977507D01*
X117787000Y-82929000D01*
X117387000Y-82929000D01*
X117133000Y-82929000D01*
X116733000Y-82929000D01*
X116494504Y-82977507D01*
X116270054Y-83071610D01*
X116068275Y-83207693D01*
X115896922Y-83380526D01*
X115762579Y-83583467D01*
X115670409Y-83808718D01*
X115666538Y-83846391D01*
X114960000Y-83846391D01*
X114960000Y-81624000D01*
X115619025Y-81624000D01*
X115642870Y-81866102D01*
X115713489Y-82098901D01*
X115828167Y-82313449D01*
X115982498Y-82501502D01*
X116170551Y-82655833D01*
X116385099Y-82770511D01*
X116617898Y-82841130D01*
X116799335Y-82859000D01*
X117720665Y-82859000D01*
X117902102Y-82841130D01*
X118134901Y-82770511D01*
X118349449Y-82655833D01*
X118537502Y-82501502D01*
X118691833Y-82313449D01*
X118806511Y-82098901D01*
X118877130Y-81866102D01*
X118900975Y-81624000D01*
X118877130Y-81381898D01*
X118806511Y-81149099D01*
X118691833Y-80934551D01*
X118537502Y-80746498D01*
X118349449Y-80592167D01*
X118134901Y-80477489D01*
X117902102Y-80406870D01*
X117720665Y-80389000D01*
X116799335Y-80389000D01*
X116617898Y-80406870D01*
X116385099Y-80477489D01*
X116170551Y-80592167D01*
X115982498Y-80746498D01*
X115828167Y-80934551D01*
X115713489Y-81149099D01*
X115642870Y-81381898D01*
X115619025Y-81624000D01*
X114960000Y-81624000D01*
X114960000Y-79084000D01*
X115619025Y-79084000D01*
X115642870Y-79326102D01*
X115713489Y-79558901D01*
X115828167Y-79773449D01*
X115982498Y-79961502D01*
X116170551Y-80115833D01*
X116385099Y-80230511D01*
X116617898Y-80301130D01*
X116799335Y-80319000D01*
X117720665Y-80319000D01*
X117902102Y-80301130D01*
X118134901Y-80230511D01*
X118349449Y-80115833D01*
X118414031Y-80062832D01*
X124337860Y-85986662D01*
X124361659Y-86015661D01*
X124477384Y-86110634D01*
X124609413Y-86181206D01*
X124752674Y-86224663D01*
X124864327Y-86235660D01*
X124864336Y-86235660D01*
X124901659Y-86239336D01*
X124938982Y-86235660D01*
X133920949Y-86235660D01*
X133964886Y-86279597D01*
X134134404Y-86392865D01*
X134322762Y-86470886D01*
X134522721Y-86510660D01*
X134726599Y-86510660D01*
X134926558Y-86470886D01*
X135114916Y-86392865D01*
X135284434Y-86279597D01*
X135328371Y-86235660D01*
X136031499Y-86235660D01*
X135962870Y-86461898D01*
X135939025Y-86704000D01*
X135962870Y-86946102D01*
X136033489Y-87178901D01*
X136148167Y-87393449D01*
X136302498Y-87581502D01*
X136490551Y-87735833D01*
X136705099Y-87850511D01*
X136937898Y-87921130D01*
X137119335Y-87939000D01*
X138040665Y-87939000D01*
X138222102Y-87921130D01*
X138454901Y-87850511D01*
X138669449Y-87735833D01*
X138842782Y-87593583D01*
X142242000Y-90992802D01*
X142242001Y-91779928D01*
X142202000Y-91779928D01*
X142077518Y-91792188D01*
X141957820Y-91828498D01*
X141847506Y-91887463D01*
X141750815Y-91966815D01*
X141671463Y-92063506D01*
X141612498Y-92173820D01*
X141576188Y-92293518D01*
X141563928Y-92418000D01*
X141563928Y-94018000D01*
X141576188Y-94142482D01*
X141612498Y-94262180D01*
X141671463Y-94372494D01*
X141750815Y-94469185D01*
X141847506Y-94548537D01*
X141957820Y-94607502D01*
X142077518Y-94643812D01*
X142085961Y-94644643D01*
X141887363Y-94843241D01*
X141730320Y-95078273D01*
X141622147Y-95339426D01*
X141567000Y-95616665D01*
X141567000Y-95899335D01*
X141622147Y-96176574D01*
X141730320Y-96437727D01*
X141887363Y-96672759D01*
X142087241Y-96872637D01*
X142319759Y-97028000D01*
X142087241Y-97183363D01*
X141887363Y-97383241D01*
X141730320Y-97618273D01*
X141622147Y-97879426D01*
X141567000Y-98156665D01*
X141567000Y-98439335D01*
X141622147Y-98716574D01*
X141730320Y-98977727D01*
X141887363Y-99212759D01*
X142087241Y-99412637D01*
X142319759Y-99568000D01*
X142087241Y-99723363D01*
X141887363Y-99923241D01*
X141730320Y-100158273D01*
X141622147Y-100419426D01*
X141567000Y-100696665D01*
X141567000Y-100979335D01*
X141622147Y-101256574D01*
X141730320Y-101517727D01*
X141887363Y-101752759D01*
X142087241Y-101952637D01*
X142322273Y-102109680D01*
X142583426Y-102217853D01*
X142860665Y-102273000D01*
X143143335Y-102273000D01*
X143420574Y-102217853D01*
X143681727Y-102109680D01*
X143916759Y-101952637D01*
X144116637Y-101752759D01*
X144273680Y-101517727D01*
X144381853Y-101256574D01*
X144437000Y-100979335D01*
X144437000Y-100696665D01*
X144381853Y-100419426D01*
X144273680Y-100158273D01*
X144116637Y-99923241D01*
X143916759Y-99723363D01*
X143684241Y-99568000D01*
X143916759Y-99412637D01*
X144116637Y-99212759D01*
X144273680Y-98977727D01*
X144381853Y-98716574D01*
X144437000Y-98439335D01*
X144437000Y-98156665D01*
X144381853Y-97879426D01*
X144273680Y-97618273D01*
X144116637Y-97383241D01*
X143916759Y-97183363D01*
X143684241Y-97028000D01*
X143916759Y-96872637D01*
X144116637Y-96672759D01*
X144273680Y-96437727D01*
X144381853Y-96176574D01*
X144437000Y-95899335D01*
X144437000Y-95616665D01*
X144381853Y-95339426D01*
X144273680Y-95078273D01*
X144116637Y-94843241D01*
X143918039Y-94644643D01*
X143926482Y-94643812D01*
X144046180Y-94607502D01*
X144156494Y-94548537D01*
X144253185Y-94469185D01*
X144332537Y-94372494D01*
X144391502Y-94262180D01*
X144427812Y-94142482D01*
X144440072Y-94018000D01*
X144440072Y-92418000D01*
X144427812Y-92293518D01*
X144391502Y-92173820D01*
X144336938Y-92071740D01*
X145290001Y-93024803D01*
X145290000Y-100642289D01*
X145246063Y-100686226D01*
X145132795Y-100855744D01*
X145054774Y-101044102D01*
X145015000Y-101244061D01*
X145015000Y-101447939D01*
X145054774Y-101647898D01*
X145132795Y-101836256D01*
X145246063Y-102005774D01*
X145390226Y-102149937D01*
X145559744Y-102263205D01*
X145748102Y-102341226D01*
X145948061Y-102381000D01*
X146151939Y-102381000D01*
X146351898Y-102341226D01*
X146540256Y-102263205D01*
X146709774Y-102149937D01*
X146853937Y-102005774D01*
X146967205Y-101836256D01*
X147045226Y-101647898D01*
X147085000Y-101447939D01*
X147085000Y-101244061D01*
X147045226Y-101044102D01*
X146967205Y-100855744D01*
X146853937Y-100686226D01*
X146810000Y-100642289D01*
X146810000Y-95616665D01*
X149187000Y-95616665D01*
X149187000Y-95899335D01*
X149242147Y-96176574D01*
X149350320Y-96437727D01*
X149507363Y-96672759D01*
X149707241Y-96872637D01*
X149939759Y-97028000D01*
X149707241Y-97183363D01*
X149507363Y-97383241D01*
X149350320Y-97618273D01*
X149242147Y-97879426D01*
X149187000Y-98156665D01*
X149187000Y-98439335D01*
X149242147Y-98716574D01*
X149350320Y-98977727D01*
X149507363Y-99212759D01*
X149707241Y-99412637D01*
X149939759Y-99568000D01*
X149707241Y-99723363D01*
X149507363Y-99923241D01*
X149350320Y-100158273D01*
X149242147Y-100419426D01*
X149187000Y-100696665D01*
X149187000Y-100979335D01*
X149242147Y-101256574D01*
X149350320Y-101517727D01*
X149507363Y-101752759D01*
X149707241Y-101952637D01*
X149942273Y-102109680D01*
X150203426Y-102217853D01*
X150480665Y-102273000D01*
X150763335Y-102273000D01*
X151040574Y-102217853D01*
X151301727Y-102109680D01*
X151536759Y-101952637D01*
X151736637Y-101752759D01*
X151893680Y-101517727D01*
X152001853Y-101256574D01*
X152057000Y-100979335D01*
X152057000Y-100696665D01*
X152001853Y-100419426D01*
X151893680Y-100158273D01*
X151736637Y-99923241D01*
X151536759Y-99723363D01*
X151304241Y-99568000D01*
X151536759Y-99412637D01*
X151736637Y-99212759D01*
X151893680Y-98977727D01*
X152001853Y-98716574D01*
X152057000Y-98439335D01*
X152057000Y-98156665D01*
X152001853Y-97879426D01*
X151893680Y-97618273D01*
X151791935Y-97466000D01*
X164023928Y-97466000D01*
X164036188Y-97590482D01*
X164072498Y-97710180D01*
X164131463Y-97820494D01*
X164210815Y-97917185D01*
X164307506Y-97996537D01*
X164417820Y-98055502D01*
X164537518Y-98091812D01*
X164662000Y-98104072D01*
X165576250Y-98101000D01*
X165735000Y-97942250D01*
X165735000Y-96393000D01*
X165989000Y-96393000D01*
X165989000Y-97942250D01*
X166147750Y-98101000D01*
X167062000Y-98104072D01*
X167186482Y-98091812D01*
X167306180Y-98055502D01*
X167416494Y-97996537D01*
X167513185Y-97917185D01*
X167592537Y-97820494D01*
X167651502Y-97710180D01*
X167687812Y-97590482D01*
X167700072Y-97466000D01*
X167697000Y-96551750D01*
X167538250Y-96393000D01*
X165989000Y-96393000D01*
X165735000Y-96393000D01*
X164185750Y-96393000D01*
X164027000Y-96551750D01*
X164023928Y-97466000D01*
X151791935Y-97466000D01*
X151736637Y-97383241D01*
X151536759Y-97183363D01*
X151304241Y-97028000D01*
X151536759Y-96872637D01*
X151736637Y-96672759D01*
X151893680Y-96437727D01*
X152001853Y-96176574D01*
X152057000Y-95899335D01*
X152057000Y-95616665D01*
X152001853Y-95339426D01*
X151893680Y-95078273D01*
X151736637Y-94843241D01*
X151536759Y-94643363D01*
X151301727Y-94486320D01*
X151291135Y-94481933D01*
X151477131Y-94370385D01*
X151685519Y-94181414D01*
X151853037Y-93955420D01*
X151973246Y-93701087D01*
X152013904Y-93567039D01*
X151891915Y-93345000D01*
X150749000Y-93345000D01*
X150749000Y-93365000D01*
X150495000Y-93365000D01*
X150495000Y-93345000D01*
X149352085Y-93345000D01*
X149230096Y-93567039D01*
X149270754Y-93701087D01*
X149390963Y-93955420D01*
X149558481Y-94181414D01*
X149766869Y-94370385D01*
X149952865Y-94481933D01*
X149942273Y-94486320D01*
X149707241Y-94643363D01*
X149507363Y-94843241D01*
X149350320Y-95078273D01*
X149242147Y-95339426D01*
X149187000Y-95616665D01*
X146810000Y-95616665D01*
X146810000Y-92747325D01*
X146813676Y-92710000D01*
X146810000Y-92672675D01*
X146810000Y-92672667D01*
X146799003Y-92561014D01*
X146755546Y-92417753D01*
X146706503Y-92326001D01*
X149505545Y-92326001D01*
X149390963Y-92480580D01*
X149270754Y-92734913D01*
X149230096Y-92868961D01*
X149352085Y-93091000D01*
X150495000Y-93091000D01*
X150495000Y-93071000D01*
X150749000Y-93071000D01*
X150749000Y-93091000D01*
X151891915Y-93091000D01*
X152013904Y-92868961D01*
X151973246Y-92734913D01*
X151853037Y-92480580D01*
X151738455Y-92326001D01*
X164078571Y-92326001D01*
X164027000Y-92585268D01*
X164027000Y-92946732D01*
X164097518Y-93301250D01*
X164235844Y-93635199D01*
X164436662Y-93935744D01*
X164692256Y-94191338D01*
X164992801Y-94392156D01*
X165082574Y-94429341D01*
X164662000Y-94427928D01*
X164537518Y-94440188D01*
X164417820Y-94476498D01*
X164307506Y-94535463D01*
X164210815Y-94614815D01*
X164131463Y-94711506D01*
X164072498Y-94821820D01*
X164036188Y-94941518D01*
X164023928Y-95066000D01*
X164027000Y-95980250D01*
X164185750Y-96139000D01*
X165735000Y-96139000D01*
X165735000Y-96119000D01*
X165989000Y-96119000D01*
X165989000Y-96139000D01*
X167538250Y-96139000D01*
X167697000Y-95980250D01*
X167700072Y-95066000D01*
X167687812Y-94941518D01*
X167651502Y-94821820D01*
X167592537Y-94711506D01*
X167513185Y-94614815D01*
X167416494Y-94535463D01*
X167306180Y-94476498D01*
X167186482Y-94440188D01*
X167062000Y-94427928D01*
X166641426Y-94429341D01*
X166731199Y-94392156D01*
X167031744Y-94191338D01*
X167287338Y-93935744D01*
X167488156Y-93635199D01*
X167626482Y-93301250D01*
X167697000Y-92946732D01*
X167697000Y-92585268D01*
X167626482Y-92230750D01*
X167488156Y-91896801D01*
X167287338Y-91596256D01*
X167031744Y-91340662D01*
X166731199Y-91139844D01*
X166432213Y-91016000D01*
X166731199Y-90892156D01*
X167031744Y-90691338D01*
X167287338Y-90435744D01*
X167488156Y-90135199D01*
X167626482Y-89801250D01*
X167697000Y-89446732D01*
X167697000Y-89085268D01*
X167626482Y-88730750D01*
X167488156Y-88396801D01*
X167287338Y-88096256D01*
X167031744Y-87840662D01*
X166731199Y-87639844D01*
X166432213Y-87516000D01*
X166731199Y-87392156D01*
X167031744Y-87191338D01*
X167287338Y-86935744D01*
X167488156Y-86635199D01*
X167626482Y-86301250D01*
X167697000Y-85946732D01*
X167697000Y-85585268D01*
X167626482Y-85230750D01*
X167488156Y-84896801D01*
X167287338Y-84596256D01*
X167031744Y-84340662D01*
X166731199Y-84139844D01*
X166397250Y-84001518D01*
X166042732Y-83931000D01*
X165681268Y-83931000D01*
X165326750Y-84001518D01*
X164992801Y-84139844D01*
X164692256Y-84340662D01*
X164436662Y-84596256D01*
X164235844Y-84896801D01*
X164097518Y-85230750D01*
X164027000Y-85585268D01*
X164027000Y-85946732D01*
X164097518Y-86301250D01*
X164142749Y-86410448D01*
X161270199Y-89283000D01*
X146237802Y-89283000D01*
X142061142Y-85106340D01*
X156083000Y-85106340D01*
X156083000Y-85581660D01*
X156175731Y-86047846D01*
X156357628Y-86486984D01*
X156621701Y-86882198D01*
X156957802Y-87218299D01*
X157353016Y-87482372D01*
X157792154Y-87664269D01*
X158258340Y-87757000D01*
X158733660Y-87757000D01*
X159199846Y-87664269D01*
X159638984Y-87482372D01*
X160034198Y-87218299D01*
X160370299Y-86882198D01*
X160634372Y-86486984D01*
X160816269Y-86047846D01*
X160909000Y-85581660D01*
X160909000Y-85106340D01*
X160816269Y-84640154D01*
X160634372Y-84201016D01*
X160370299Y-83805802D01*
X160034198Y-83469701D01*
X159638984Y-83205628D01*
X159199846Y-83023731D01*
X158733660Y-82931000D01*
X158258340Y-82931000D01*
X157792154Y-83023731D01*
X157353016Y-83205628D01*
X156957802Y-83469701D01*
X156621701Y-83805802D01*
X156357628Y-84201016D01*
X156175731Y-84640154D01*
X156083000Y-85106340D01*
X142061142Y-85106340D01*
X136290000Y-79335199D01*
X136290000Y-79273061D01*
X136250226Y-79073102D01*
X136172205Y-78884744D01*
X136075748Y-78740385D01*
X162148000Y-78740385D01*
X162148000Y-79247615D01*
X162246956Y-79745100D01*
X162441065Y-80213720D01*
X162722867Y-80635467D01*
X163081533Y-80994133D01*
X163503280Y-81275935D01*
X163971900Y-81470044D01*
X164469385Y-81569000D01*
X164976615Y-81569000D01*
X165474100Y-81470044D01*
X165942720Y-81275935D01*
X166364467Y-80994133D01*
X166723133Y-80635467D01*
X167004935Y-80213720D01*
X167199044Y-79745100D01*
X167298000Y-79247615D01*
X167298000Y-78740385D01*
X167199044Y-78242900D01*
X167004935Y-77774280D01*
X166723133Y-77352533D01*
X166364467Y-76993867D01*
X165942720Y-76712065D01*
X165474100Y-76517956D01*
X164976615Y-76419000D01*
X164469385Y-76419000D01*
X163971900Y-76517956D01*
X163503280Y-76712065D01*
X163081533Y-76993867D01*
X162722867Y-77352533D01*
X162441065Y-77774280D01*
X162246956Y-78242900D01*
X162148000Y-78740385D01*
X136075748Y-78740385D01*
X136058937Y-78715226D01*
X135914774Y-78571063D01*
X135745256Y-78457795D01*
X135556898Y-78379774D01*
X135356939Y-78340000D01*
X135153061Y-78340000D01*
X134953102Y-78379774D01*
X134764744Y-78457795D01*
X134595226Y-78571063D01*
X134451063Y-78715226D01*
X134337795Y-78884744D01*
X134259774Y-79073102D01*
X134220000Y-79273061D01*
X134220000Y-79476939D01*
X134259774Y-79676898D01*
X134337795Y-79865256D01*
X134432603Y-80007147D01*
X134323228Y-80170839D01*
X134245207Y-80359197D01*
X134205433Y-80559156D01*
X134205433Y-80763034D01*
X134245207Y-80962993D01*
X134317043Y-81136418D01*
X134206135Y-81302404D01*
X134128114Y-81490762D01*
X134088340Y-81690721D01*
X134088340Y-81894599D01*
X134128114Y-82094558D01*
X134206135Y-82282916D01*
X134319403Y-82452434D01*
X134463566Y-82596597D01*
X134633084Y-82709865D01*
X134821442Y-82787886D01*
X135021401Y-82827660D01*
X135225279Y-82827660D01*
X135425238Y-82787886D01*
X135613596Y-82709865D01*
X135687610Y-82660411D01*
X137742859Y-84715660D01*
X135328371Y-84715660D01*
X135284434Y-84671723D01*
X135114916Y-84558455D01*
X134926558Y-84480434D01*
X134726599Y-84440660D01*
X134522721Y-84440660D01*
X134322762Y-84480434D01*
X134134404Y-84558455D01*
X133964886Y-84671723D01*
X133920949Y-84715660D01*
X125216462Y-84715660D01*
X119511142Y-79010340D01*
X125603000Y-79010340D01*
X125603000Y-79485660D01*
X125695731Y-79951846D01*
X125877628Y-80390984D01*
X126141701Y-80786198D01*
X126477802Y-81122299D01*
X126873016Y-81386372D01*
X127312154Y-81568269D01*
X127778340Y-81661000D01*
X128253660Y-81661000D01*
X128719846Y-81568269D01*
X129158984Y-81386372D01*
X129554198Y-81122299D01*
X129890299Y-80786198D01*
X130154372Y-80390984D01*
X130336269Y-79951846D01*
X130429000Y-79485660D01*
X130429000Y-79010340D01*
X130336269Y-78544154D01*
X130154372Y-78105016D01*
X129890299Y-77709802D01*
X129554198Y-77373701D01*
X129158984Y-77109628D01*
X128719846Y-76927731D01*
X128253660Y-76835000D01*
X127778340Y-76835000D01*
X127312154Y-76927731D01*
X126873016Y-77109628D01*
X126477802Y-77373701D01*
X126141701Y-77709802D01*
X125877628Y-78105016D01*
X125695731Y-78544154D01*
X125603000Y-79010340D01*
X119511142Y-79010340D01*
X119073804Y-78573003D01*
X119050001Y-78543999D01*
X118934276Y-78449026D01*
X118802247Y-78378454D01*
X118658986Y-78334997D01*
X118641549Y-78333280D01*
X118537502Y-78206498D01*
X118349449Y-78052167D01*
X118134901Y-77937489D01*
X117902102Y-77866870D01*
X117720665Y-77849000D01*
X116799335Y-77849000D01*
X116617898Y-77866870D01*
X116385099Y-77937489D01*
X116170551Y-78052167D01*
X115982498Y-78206498D01*
X115828167Y-78394551D01*
X115713489Y-78609099D01*
X115642870Y-78841898D01*
X115619025Y-79084000D01*
X114960000Y-79084000D01*
X114960000Y-76544000D01*
X115619025Y-76544000D01*
X115642870Y-76786102D01*
X115713489Y-77018901D01*
X115828167Y-77233449D01*
X115982498Y-77421502D01*
X116170551Y-77575833D01*
X116385099Y-77690511D01*
X116617898Y-77761130D01*
X116799335Y-77779000D01*
X117720665Y-77779000D01*
X117902102Y-77761130D01*
X118134901Y-77690511D01*
X118349449Y-77575833D01*
X118537502Y-77421502D01*
X118691833Y-77233449D01*
X118806511Y-77018901D01*
X118877130Y-76786102D01*
X118900975Y-76544000D01*
X118877130Y-76301898D01*
X118806511Y-76069099D01*
X118691833Y-75854551D01*
X118537502Y-75666498D01*
X118349449Y-75512167D01*
X118134901Y-75397489D01*
X117902102Y-75326870D01*
X117720665Y-75309000D01*
X116799335Y-75309000D01*
X116617898Y-75326870D01*
X116385099Y-75397489D01*
X116170551Y-75512167D01*
X115982498Y-75666498D01*
X115828167Y-75854551D01*
X115713489Y-76069099D01*
X115642870Y-76301898D01*
X115619025Y-76544000D01*
X114960000Y-76544000D01*
X114960000Y-70104000D01*
X116938807Y-70104000D01*
X116942001Y-70136429D01*
X116942000Y-74135580D01*
X116938807Y-74168000D01*
X116951550Y-74297383D01*
X116989290Y-74421793D01*
X117050575Y-74536450D01*
X117105336Y-74603176D01*
X117133052Y-74636948D01*
X117233550Y-74719425D01*
X117348207Y-74780710D01*
X117472617Y-74818450D01*
X117602000Y-74831193D01*
X117634419Y-74828000D01*
X136492581Y-74828000D01*
X136525000Y-74831193D01*
X136557419Y-74828000D01*
X136654383Y-74818450D01*
X136778793Y-74780710D01*
X136838989Y-74748535D01*
X136838989Y-75077667D01*
X136835313Y-75114989D01*
X136838989Y-75152311D01*
X136838989Y-75152321D01*
X136849986Y-75263974D01*
X136890487Y-75397489D01*
X136893443Y-75407235D01*
X136964015Y-75539265D01*
X137003860Y-75587815D01*
X137058988Y-75654990D01*
X137087992Y-75678793D01*
X137903000Y-76493802D01*
X137903000Y-76555939D01*
X137942774Y-76755898D01*
X138020795Y-76944256D01*
X138134063Y-77113774D01*
X138278226Y-77257937D01*
X138447744Y-77371205D01*
X138636102Y-77449226D01*
X138836061Y-77489000D01*
X139039939Y-77489000D01*
X139239898Y-77449226D01*
X139428256Y-77371205D01*
X139597774Y-77257937D01*
X139741937Y-77113774D01*
X139855205Y-76944256D01*
X139933226Y-76755898D01*
X139950535Y-76668880D01*
X140128898Y-76633402D01*
X140317256Y-76555381D01*
X140486774Y-76442113D01*
X140630937Y-76297950D01*
X140744205Y-76128432D01*
X140822226Y-75940074D01*
X140862000Y-75740115D01*
X140862000Y-75536237D01*
X140822226Y-75336278D01*
X140744205Y-75147920D01*
X140630937Y-74978402D01*
X140486774Y-74834239D01*
X140317256Y-74720971D01*
X140128898Y-74642950D01*
X139928939Y-74603176D01*
X139725061Y-74603176D01*
X139525102Y-74642950D01*
X139336744Y-74720971D01*
X139236052Y-74788251D01*
X138809000Y-74361199D01*
X138809000Y-69050912D01*
X139160250Y-69049000D01*
X139319000Y-68890250D01*
X139319000Y-67691000D01*
X139573000Y-67691000D01*
X139573000Y-68890250D01*
X139731750Y-69049000D01*
X140296000Y-69052072D01*
X140420482Y-69039812D01*
X140540180Y-69003502D01*
X140650494Y-68944537D01*
X140747185Y-68865185D01*
X140826537Y-68768494D01*
X140885502Y-68658180D01*
X140921812Y-68538482D01*
X140934072Y-68414000D01*
X140931000Y-67849750D01*
X140772250Y-67691000D01*
X139573000Y-67691000D01*
X139319000Y-67691000D01*
X139299000Y-67691000D01*
X139299000Y-67437000D01*
X139319000Y-67437000D01*
X139319000Y-67417000D01*
X139573000Y-67417000D01*
X139573000Y-67437000D01*
X140772250Y-67437000D01*
X140931000Y-67278250D01*
X140934072Y-66714000D01*
X140921812Y-66589518D01*
X140885502Y-66469820D01*
X140826537Y-66359506D01*
X140747185Y-66262815D01*
X140650494Y-66183463D01*
X140540180Y-66124498D01*
X140467620Y-66102487D01*
X140599475Y-65970632D01*
X140761990Y-65727411D01*
X140873932Y-65457158D01*
X140931000Y-65170260D01*
X140931000Y-64877740D01*
X140873932Y-64590842D01*
X140761990Y-64320589D01*
X140599475Y-64077368D01*
X140392632Y-63870525D01*
X140218240Y-63754000D01*
X140392632Y-63637475D01*
X140599475Y-63430632D01*
X140761990Y-63187411D01*
X140873932Y-62917158D01*
X140931000Y-62630260D01*
X140931000Y-62337740D01*
X140873932Y-62050842D01*
X140761990Y-61780589D01*
X140599475Y-61537368D01*
X140392632Y-61330525D01*
X140218240Y-61214000D01*
X140392632Y-61097475D01*
X140599475Y-60890632D01*
X140761990Y-60647411D01*
X140873932Y-60377158D01*
X140931000Y-60090260D01*
X140931000Y-59797740D01*
X140873932Y-59510842D01*
X140761990Y-59240589D01*
X140599475Y-58997368D01*
X140392632Y-58790525D01*
X140149411Y-58628010D01*
X139879158Y-58516068D01*
X139592260Y-58459000D01*
X139299740Y-58459000D01*
X139012842Y-58516068D01*
X138742589Y-58628010D01*
X138499368Y-58790525D01*
X138292525Y-58997368D01*
X138130010Y-59240589D01*
X138018068Y-59510842D01*
X137961000Y-59797740D01*
X137961000Y-60090260D01*
X138018068Y-60377158D01*
X138130010Y-60647411D01*
X138292525Y-60890632D01*
X138499368Y-61097475D01*
X138673760Y-61214000D01*
X138499368Y-61330525D01*
X138292525Y-61537368D01*
X138130010Y-61780589D01*
X138018068Y-62050842D01*
X137961000Y-62337740D01*
X137961000Y-62630260D01*
X138004790Y-62850408D01*
X137087987Y-63767212D01*
X137058989Y-63791010D01*
X137035191Y-63820008D01*
X137035190Y-63820009D01*
X136964015Y-63906735D01*
X136893443Y-64038765D01*
X136849987Y-64182026D01*
X136835313Y-64331011D01*
X136838990Y-64368343D01*
X136838990Y-69523465D01*
X136778793Y-69491290D01*
X136654383Y-69453550D01*
X136557419Y-69444000D01*
X136525000Y-69440807D01*
X136492581Y-69444000D01*
X117634419Y-69444000D01*
X117602000Y-69440807D01*
X117569581Y-69444000D01*
X117472617Y-69453550D01*
X117348207Y-69491290D01*
X117233550Y-69552575D01*
X117133052Y-69635052D01*
X117050575Y-69735550D01*
X116989290Y-69850207D01*
X116951550Y-69974617D01*
X116938807Y-70104000D01*
X114960000Y-70104000D01*
X114960000Y-65786385D01*
X117942000Y-65786385D01*
X117942000Y-66293615D01*
X118040956Y-66791100D01*
X118235065Y-67259720D01*
X118516867Y-67681467D01*
X118875533Y-68040133D01*
X119297280Y-68321935D01*
X119765900Y-68516044D01*
X120263385Y-68615000D01*
X120770615Y-68615000D01*
X121268100Y-68516044D01*
X121736720Y-68321935D01*
X122158467Y-68040133D01*
X122517133Y-67681467D01*
X122798935Y-67259720D01*
X122993044Y-66791100D01*
X123092000Y-66293615D01*
X123092000Y-65786385D01*
X122993044Y-65288900D01*
X122798935Y-64820280D01*
X122517133Y-64398533D01*
X122158467Y-64039867D01*
X121736720Y-63758065D01*
X121268100Y-63563956D01*
X120770615Y-63465000D01*
X120263385Y-63465000D01*
X119765900Y-63563956D01*
X119297280Y-63758065D01*
X118875533Y-64039867D01*
X118516867Y-64398533D01*
X118235065Y-64820280D01*
X118040956Y-65288900D01*
X117942000Y-65786385D01*
X114960000Y-65786385D01*
X114960000Y-61079413D01*
X116392192Y-61079413D01*
X116487956Y-61343814D01*
X116777571Y-61484704D01*
X117089108Y-61566384D01*
X117410595Y-61585718D01*
X117729675Y-61541961D01*
X118034088Y-61436795D01*
X118208044Y-61343814D01*
X118303808Y-61079413D01*
X117348000Y-60123605D01*
X116392192Y-61079413D01*
X114960000Y-61079413D01*
X114960000Y-60006595D01*
X115706282Y-60006595D01*
X115750039Y-60325675D01*
X115855205Y-60630088D01*
X115948186Y-60804044D01*
X116212587Y-60899808D01*
X117168395Y-59944000D01*
X117527605Y-59944000D01*
X118483413Y-60899808D01*
X118747814Y-60804044D01*
X118888704Y-60514429D01*
X118970384Y-60202892D01*
X118989718Y-59881405D01*
X118945961Y-59562325D01*
X118840795Y-59257912D01*
X118747814Y-59083956D01*
X118483413Y-58988192D01*
X117527605Y-59944000D01*
X117168395Y-59944000D01*
X116212587Y-58988192D01*
X115948186Y-59083956D01*
X115807296Y-59373571D01*
X115725616Y-59685108D01*
X115706282Y-60006595D01*
X114960000Y-60006595D01*
X114960000Y-58808587D01*
X116392192Y-58808587D01*
X117348000Y-59764395D01*
X118303808Y-58808587D01*
X118208044Y-58544186D01*
X117918429Y-58403296D01*
X117606892Y-58321616D01*
X117285405Y-58302282D01*
X116966325Y-58346039D01*
X116661912Y-58451205D01*
X116487956Y-58544186D01*
X116392192Y-58808587D01*
X114960000Y-58808587D01*
X114960000Y-57556000D01*
X141072001Y-57556000D01*
X141072000Y-74135581D01*
M02*
