G04 #@! TF.GenerationSoftware,KiCad,Pcbnew,(5.1.5-0-10_14)*
G04 #@! TF.CreationDate,2020-06-30T17:37:43-04:00*
G04 #@! TF.ProjectId,Pinky,50696e6b-792e-46b6-9963-61645f706362,rev?*
G04 #@! TF.SameCoordinates,Original*
G04 #@! TF.FileFunction,Legend,Top*
G04 #@! TF.FilePolarity,Positive*
%FSLAX46Y46*%
G04 Gerber Fmt 4.6, Leading zero omitted, Abs format (unit mm)*
G04 Created by KiCad (PCBNEW (5.1.5-0-10_14)) date 2020-06-30 17:37:43*
%MOMM*%
%LPD*%
G04 APERTURE LIST*
%ADD10C,0.300000*%
%ADD11C,0.120000*%
%ADD12C,0.150000*%
G04 APERTURE END LIST*
D10*
X119590428Y-99870571D02*
X120590428Y-99870571D01*
X120447571Y-99870571D02*
X120519000Y-99942000D01*
X120590428Y-100084857D01*
X120590428Y-100299142D01*
X120519000Y-100442000D01*
X120376142Y-100513428D01*
X119590428Y-100513428D01*
X120376142Y-100513428D02*
X120519000Y-100584857D01*
X120590428Y-100727714D01*
X120590428Y-100942000D01*
X120519000Y-101084857D01*
X120376142Y-101156285D01*
X119590428Y-101156285D01*
X119590428Y-102513428D02*
X120376142Y-102513428D01*
X120519000Y-102442000D01*
X120590428Y-102299142D01*
X120590428Y-102013428D01*
X120519000Y-101870571D01*
X119661857Y-102513428D02*
X119590428Y-102370571D01*
X119590428Y-102013428D01*
X119661857Y-101870571D01*
X119804714Y-101799142D01*
X119947571Y-101799142D01*
X120090428Y-101870571D01*
X120161857Y-102013428D01*
X120161857Y-102370571D01*
X120233285Y-102513428D01*
X120590428Y-103013428D02*
X120590428Y-103584857D01*
X121090428Y-103227714D02*
X119804714Y-103227714D01*
X119661857Y-103299142D01*
X119590428Y-103442000D01*
X119590428Y-103584857D01*
X120590428Y-103870571D02*
X120590428Y-104442000D01*
X121090428Y-104084857D02*
X119804714Y-104084857D01*
X119661857Y-104156285D01*
X119590428Y-104299142D01*
X119590428Y-104442000D01*
X120304714Y-105870571D02*
X120376142Y-105799142D01*
X120447571Y-105656285D01*
X120447571Y-105513428D01*
X120376142Y-105370571D01*
X120304714Y-105299142D01*
X120161857Y-105227714D01*
X120019000Y-105227714D01*
X119876142Y-105299142D01*
X119804714Y-105370571D01*
X119733285Y-105513428D01*
X119733285Y-105656285D01*
X119804714Y-105799142D01*
X119876142Y-105870571D01*
X120447571Y-105870571D02*
X119876142Y-105870571D01*
X119804714Y-105942000D01*
X119804714Y-106013428D01*
X119876142Y-106156285D01*
X120019000Y-106227714D01*
X120376142Y-106227714D01*
X120590428Y-106084857D01*
X120733285Y-105870571D01*
X120804714Y-105584857D01*
X120733285Y-105299142D01*
X120590428Y-105084857D01*
X120376142Y-104942000D01*
X120090428Y-104870571D01*
X119804714Y-104942000D01*
X119590428Y-105084857D01*
X119447571Y-105299142D01*
X119376142Y-105584857D01*
X119447571Y-105870571D01*
X119590428Y-106084857D01*
X120590428Y-107513428D02*
X119376142Y-107513428D01*
X119233285Y-107442000D01*
X119161857Y-107370571D01*
X119090428Y-107227714D01*
X119090428Y-107013428D01*
X119161857Y-106870571D01*
X119661857Y-107513428D02*
X119590428Y-107370571D01*
X119590428Y-107084857D01*
X119661857Y-106942000D01*
X119733285Y-106870571D01*
X119876142Y-106799142D01*
X120304714Y-106799142D01*
X120447571Y-106870571D01*
X120519000Y-106942000D01*
X120590428Y-107084857D01*
X120590428Y-107370571D01*
X120519000Y-107513428D01*
X119590428Y-108870571D02*
X120376142Y-108870571D01*
X120519000Y-108799142D01*
X120590428Y-108656285D01*
X120590428Y-108370571D01*
X120519000Y-108227714D01*
X119661857Y-108870571D02*
X119590428Y-108727714D01*
X119590428Y-108370571D01*
X119661857Y-108227714D01*
X119804714Y-108156285D01*
X119947571Y-108156285D01*
X120090428Y-108227714D01*
X120161857Y-108370571D01*
X120161857Y-108727714D01*
X120233285Y-108870571D01*
X119590428Y-109584857D02*
X120590428Y-109584857D01*
X121090428Y-109584857D02*
X121019000Y-109513428D01*
X120947571Y-109584857D01*
X121019000Y-109656285D01*
X121090428Y-109584857D01*
X120947571Y-109584857D01*
X119590428Y-110942000D02*
X121090428Y-110942000D01*
X119661857Y-110942000D02*
X119590428Y-110799142D01*
X119590428Y-110513428D01*
X119661857Y-110370571D01*
X119733285Y-110299142D01*
X119876142Y-110227714D01*
X120304714Y-110227714D01*
X120447571Y-110299142D01*
X120519000Y-110370571D01*
X120590428Y-110513428D01*
X120590428Y-110799142D01*
X120519000Y-110942000D01*
X119590428Y-111656285D02*
X120590428Y-111656285D01*
X121090428Y-111656285D02*
X121019000Y-111584857D01*
X120947571Y-111656285D01*
X121019000Y-111727714D01*
X121090428Y-111656285D01*
X120947571Y-111656285D01*
X119733285Y-112370571D02*
X119661857Y-112442000D01*
X119590428Y-112370571D01*
X119661857Y-112299142D01*
X119733285Y-112370571D01*
X119590428Y-112370571D01*
X119661857Y-113727714D02*
X119590428Y-113584857D01*
X119590428Y-113299142D01*
X119661857Y-113156285D01*
X119733285Y-113084857D01*
X119876142Y-113013428D01*
X120304714Y-113013428D01*
X120447571Y-113084857D01*
X120519000Y-113156285D01*
X120590428Y-113299142D01*
X120590428Y-113584857D01*
X120519000Y-113727714D01*
X119590428Y-115013428D02*
X120376142Y-115013428D01*
X120519000Y-114942000D01*
X120590428Y-114799142D01*
X120590428Y-114513428D01*
X120519000Y-114370571D01*
X119661857Y-115013428D02*
X119590428Y-114870571D01*
X119590428Y-114513428D01*
X119661857Y-114370571D01*
X119804714Y-114299142D01*
X119947571Y-114299142D01*
X120090428Y-114370571D01*
X120161857Y-114513428D01*
X120161857Y-114870571D01*
X120233285Y-115013428D01*
X155068925Y-76501448D02*
X156129585Y-75440788D01*
X156533647Y-75844849D01*
X156584154Y-75996372D01*
X156584154Y-76097387D01*
X156533647Y-76248910D01*
X156382124Y-76400433D01*
X156230601Y-76450941D01*
X156129585Y-76450941D01*
X155978063Y-76400433D01*
X155574002Y-75996372D01*
X156129585Y-77562108D02*
X157190246Y-76501448D01*
X156634662Y-78067185D02*
X157695322Y-77006525D01*
X157240753Y-78673276D01*
X158301413Y-77612616D01*
X157745830Y-79178352D02*
X158806490Y-78117692D01*
X158351921Y-79784444D02*
X158503444Y-78723784D01*
X159412581Y-78723784D02*
X158200398Y-78723784D01*
X159513597Y-79935967D02*
X159008520Y-80441043D01*
X159715627Y-79026830D02*
X159513597Y-79935967D01*
X160422734Y-79733936D01*
X154528494Y-78153047D02*
X154073925Y-79112692D01*
X155033570Y-78658124D01*
X155286108Y-80324875D02*
X154680017Y-79718784D01*
X154983063Y-80021830D02*
X156043723Y-78961169D01*
X155791185Y-79011677D01*
X155589154Y-79011677D01*
X155437631Y-78961169D01*
X155841692Y-80678429D02*
X155841692Y-80779444D01*
X155740677Y-80779444D01*
X155740677Y-80678429D01*
X155841692Y-80678429D01*
X155740677Y-80779444D01*
X157508444Y-80425891D02*
X157609459Y-80526906D01*
X157659967Y-80678429D01*
X157659967Y-80779444D01*
X157609459Y-80930967D01*
X157457936Y-81183505D01*
X157205398Y-81436043D01*
X156952860Y-81587566D01*
X156801337Y-81638074D01*
X156700322Y-81638074D01*
X156548799Y-81587566D01*
X156447784Y-81486551D01*
X156397276Y-81335028D01*
X156397276Y-81234013D01*
X156447784Y-81082490D01*
X156599307Y-80829952D01*
X156851845Y-80577413D01*
X157104383Y-80425891D01*
X157255906Y-80375383D01*
X157356921Y-80375383D01*
X157508444Y-80425891D01*
X125206857Y-69512571D02*
X125206857Y-68012571D01*
X125778285Y-68012571D01*
X125921142Y-68084000D01*
X125992571Y-68155428D01*
X126064000Y-68298285D01*
X126064000Y-68512571D01*
X125992571Y-68655428D01*
X125921142Y-68726857D01*
X125778285Y-68798285D01*
X125206857Y-68798285D01*
X126706857Y-69512571D02*
X126706857Y-68012571D01*
X127421142Y-69512571D02*
X127421142Y-68012571D01*
X128278285Y-69512571D01*
X128278285Y-68012571D01*
X128992571Y-69512571D02*
X128992571Y-68012571D01*
X129849714Y-69512571D02*
X129206857Y-68655428D01*
X129849714Y-68012571D02*
X128992571Y-68869714D01*
X130778285Y-68798285D02*
X130778285Y-69512571D01*
X130278285Y-68012571D02*
X130778285Y-68798285D01*
X131278285Y-68012571D01*
X132778285Y-68512571D02*
X133135428Y-69512571D01*
X133492571Y-68512571D01*
X134849714Y-69512571D02*
X133992571Y-69512571D01*
X134421142Y-69512571D02*
X134421142Y-68012571D01*
X134278285Y-68226857D01*
X134135428Y-68369714D01*
X133992571Y-68441142D01*
X135492571Y-69369714D02*
X135564000Y-69441142D01*
X135492571Y-69512571D01*
X135421142Y-69441142D01*
X135492571Y-69369714D01*
X135492571Y-69512571D01*
X136492571Y-68012571D02*
X136635428Y-68012571D01*
X136778285Y-68084000D01*
X136849714Y-68155428D01*
X136921142Y-68298285D01*
X136992571Y-68584000D01*
X136992571Y-68941142D01*
X136921142Y-69226857D01*
X136849714Y-69369714D01*
X136778285Y-69441142D01*
X136635428Y-69512571D01*
X136492571Y-69512571D01*
X136349714Y-69441142D01*
X136278285Y-69369714D01*
X136206857Y-69226857D01*
X136135428Y-68941142D01*
X136135428Y-68584000D01*
X136206857Y-68298285D01*
X136278285Y-68155428D01*
X136349714Y-68084000D01*
X136492571Y-68012571D01*
D11*
X130676000Y-61744000D02*
X136576000Y-61744000D01*
X130676000Y-58144000D02*
X130676000Y-61744000D01*
X136576000Y-58144000D02*
X130676000Y-58144000D01*
X141958000Y-90942000D02*
X154558000Y-90942000D01*
X141958000Y-85842000D02*
X141958000Y-90942000D01*
X154558000Y-85842000D02*
X141958000Y-85842000D01*
X156972000Y-102088000D02*
X153522000Y-102088000D01*
X156972000Y-102088000D02*
X158922000Y-102088000D01*
X156972000Y-107208000D02*
X155022000Y-107208000D01*
X156972000Y-107208000D02*
X158922000Y-107208000D01*
X154494000Y-100220000D02*
X155894000Y-100220000D01*
X155894000Y-97900000D02*
X153994000Y-97900000D01*
X156010000Y-92370000D02*
X153560000Y-92370000D01*
X154210000Y-95590000D02*
X156010000Y-95590000D01*
X149462000Y-91888000D02*
X147812000Y-91888000D01*
X149462000Y-102168000D02*
X149462000Y-91888000D01*
X144162000Y-102168000D02*
X149462000Y-102168000D01*
X144162000Y-91888000D02*
X144162000Y-102168000D01*
X145812000Y-91888000D02*
X144162000Y-91888000D01*
X147812000Y-91888000D02*
G75*
G02X145812000Y-91888000I-1000000J0D01*
G01*
X140379000Y-75585000D02*
X145379000Y-75585000D01*
X140379000Y-78585000D02*
X140379000Y-75585000D01*
X145879000Y-78585000D02*
X140379000Y-78585000D01*
X145884000Y-76085000D02*
X145879000Y-78585000D01*
X145379000Y-75585000D02*
X145884000Y-76085000D01*
X123366667Y-74944000D02*
X115260001Y-74944000D01*
X123366667Y-75304000D02*
X123366667Y-74944000D01*
X131473333Y-75304000D02*
X123366667Y-75304000D01*
X131473333Y-74944000D02*
X131473333Y-75304000D01*
X139580000Y-74944000D02*
X131473333Y-74944000D01*
X139579999Y-116244000D02*
X139580000Y-74944000D01*
X115260000Y-116244000D02*
X139579999Y-116244000D01*
X115260001Y-74944000D02*
X115260000Y-116244000D01*
D12*
X146575000Y-104093000D02*
X145325000Y-104093000D01*
X146575000Y-107268000D02*
X149925000Y-107268000D01*
X146575000Y-103918000D02*
X149925000Y-103918000D01*
X146575000Y-107268000D02*
X146575000Y-107018000D01*
X149925000Y-107268000D02*
X149925000Y-107018000D01*
X149925000Y-103918000D02*
X149925000Y-104168000D01*
X146575000Y-103918000D02*
X146575000Y-104093000D01*
D11*
X145731000Y-84475000D02*
X149181000Y-84475000D01*
X145731000Y-84475000D02*
X143781000Y-84475000D01*
X145731000Y-79355000D02*
X147681000Y-79355000D01*
X145731000Y-79355000D02*
X143781000Y-79355000D01*
X136282000Y-63414000D02*
X133832000Y-63414000D01*
X134482000Y-66634000D02*
X136282000Y-66634000D01*
X118848000Y-59944000D02*
G75*
G03X118848000Y-59944000I-1500000J0D01*
G01*
X124830000Y-62314000D02*
X120090000Y-62314000D01*
X124830000Y-57574000D02*
X120090000Y-57574000D01*
X120090000Y-61184000D02*
X120090000Y-62314000D01*
X120090000Y-57574000D02*
X120090000Y-58704000D01*
X124830000Y-59685000D02*
X124830000Y-60204000D01*
X124830000Y-57574000D02*
X124830000Y-57905000D01*
X124830000Y-61984000D02*
X124830000Y-62314000D01*
X159577721Y-97792000D02*
X159903279Y-97792000D01*
X159577721Y-96772000D02*
X159903279Y-96772000D01*
X142250279Y-108075000D02*
X141924721Y-108075000D01*
X142250279Y-109095000D02*
X141924721Y-109095000D01*
X149604000Y-111063721D02*
X149604000Y-111389279D01*
X150624000Y-111063721D02*
X150624000Y-111389279D01*
X142275779Y-105154000D02*
X141950221Y-105154000D01*
X142275779Y-106174000D02*
X141950221Y-106174000D01*
X146810000Y-111089221D02*
X146810000Y-111414779D01*
X147830000Y-111089221D02*
X147830000Y-111414779D01*
X144016000Y-111089221D02*
X144016000Y-111414779D01*
X145036000Y-111089221D02*
X145036000Y-111414779D01*
X141222000Y-111089221D02*
X141222000Y-111414779D01*
X142242000Y-111089221D02*
X142242000Y-111414779D01*
X152308779Y-84072000D02*
X151983221Y-84072000D01*
X152308779Y-85092000D02*
X151983221Y-85092000D01*
X152596000Y-115914000D02*
X154096000Y-115914000D01*
X152596000Y-114174000D02*
X152596000Y-115914000D01*
X160656000Y-108554000D02*
X160656000Y-115674000D01*
X152836000Y-108554000D02*
X152836000Y-115674000D01*
X152836000Y-115674000D02*
X160656000Y-115674000D01*
X152836000Y-108554000D02*
X160656000Y-108554000D01*
X152836000Y-114114000D02*
X160656000Y-114114000D01*
X160051000Y-112014000D02*
G75*
G03X160051000Y-112014000I-1555000J0D01*
G01*
X155023011Y-113569492D02*
G75*
G02X154388000Y-113446000I-27011J1555492D01*
G01*
X153563891Y-112621742D02*
G75*
G02X153564000Y-111406000I1432109J607742D01*
G01*
X154388258Y-110581891D02*
G75*
G02X155604000Y-110582000I607742J-1432109D01*
G01*
X156428109Y-111406258D02*
G75*
G02X156428000Y-112622000I-1432109J-607742D01*
G01*
X155603587Y-113445385D02*
G75*
G02X154996000Y-113569000I-607587J1431385D01*
G01*
X169762000Y-115938000D02*
X169762000Y-114438000D01*
X168022000Y-115938000D02*
X169762000Y-115938000D01*
X162402000Y-100878000D02*
X169522000Y-100878000D01*
X162402000Y-115698000D02*
X169522000Y-115698000D01*
X169522000Y-115698000D02*
X169522000Y-100878000D01*
X162402000Y-115698000D02*
X162402000Y-100878000D01*
X167962000Y-115698000D02*
X167962000Y-100878000D01*
X167417000Y-103038000D02*
G75*
G03X167417000Y-103038000I-1555000J0D01*
G01*
X167417000Y-106538000D02*
G75*
G03X167417000Y-106538000I-1555000J0D01*
G01*
X167417000Y-110038000D02*
G75*
G03X167417000Y-110038000I-1555000J0D01*
G01*
X167417492Y-113510989D02*
G75*
G02X167294000Y-114146000I-1555492J-27011D01*
G01*
X166469742Y-114970109D02*
G75*
G02X165254000Y-114970000I-607742J1432109D01*
G01*
X164429891Y-114145742D02*
G75*
G02X164430000Y-112930000I1432109J607742D01*
G01*
X165254258Y-112105891D02*
G75*
G02X166470000Y-112106000I607742J-1432109D01*
G01*
X167293385Y-112930413D02*
G75*
G02X167417000Y-113538000I-1431385J-607587D01*
G01*
X169762000Y-98666000D02*
X169762000Y-97166000D01*
X168022000Y-98666000D02*
X169762000Y-98666000D01*
X162402000Y-83606000D02*
X169522000Y-83606000D01*
X162402000Y-98426000D02*
X169522000Y-98426000D01*
X169522000Y-98426000D02*
X169522000Y-83606000D01*
X162402000Y-98426000D02*
X162402000Y-83606000D01*
X167962000Y-98426000D02*
X167962000Y-83606000D01*
X167417000Y-85766000D02*
G75*
G03X167417000Y-85766000I-1555000J0D01*
G01*
X167417000Y-89266000D02*
G75*
G03X167417000Y-89266000I-1555000J0D01*
G01*
X167417000Y-92766000D02*
G75*
G03X167417000Y-92766000I-1555000J0D01*
G01*
X167417492Y-96238989D02*
G75*
G02X167294000Y-96874000I-1555492J-27011D01*
G01*
X166469742Y-97698109D02*
G75*
G02X165254000Y-97698000I-607742J1432109D01*
G01*
X164429891Y-96873742D02*
G75*
G02X164430000Y-95658000I1432109J607742D01*
G01*
X165254258Y-94833891D02*
G75*
G02X166470000Y-94834000I607742J-1432109D01*
G01*
X167293385Y-95658413D02*
G75*
G02X167417000Y-96266000I-1431385J-607587D01*
G01*
X140776000Y-68894000D02*
X139446000Y-68894000D01*
X140776000Y-67564000D02*
X140776000Y-68894000D01*
X140776000Y-66294000D02*
X138116000Y-66294000D01*
X138116000Y-66294000D02*
X138116000Y-58614000D01*
X140776000Y-66294000D02*
X140776000Y-58614000D01*
X140776000Y-58614000D02*
X138116000Y-58614000D01*
X158255500Y-101065000D02*
X160540500Y-101065000D01*
X158255500Y-99595000D02*
X158255500Y-101065000D01*
X160540500Y-99595000D02*
X158255500Y-99595000D01*
X149379000Y-113094500D02*
X149379000Y-115379500D01*
X150849000Y-113094500D02*
X149379000Y-113094500D01*
X150849000Y-115379500D02*
X150849000Y-113094500D01*
X146585000Y-113069000D02*
X146585000Y-115354000D01*
X148055000Y-113069000D02*
X146585000Y-113069000D01*
X148055000Y-115354000D02*
X148055000Y-113069000D01*
X143791000Y-113094500D02*
X143791000Y-115379500D01*
X145261000Y-113094500D02*
X143791000Y-113094500D01*
X145261000Y-115379500D02*
X145261000Y-113094500D01*
X140997000Y-113094500D02*
X140997000Y-115379500D01*
X142467000Y-113094500D02*
X140997000Y-113094500D01*
X142467000Y-115379500D02*
X142467000Y-113094500D01*
X159577721Y-94744000D02*
X159903279Y-94744000D01*
X159577721Y-93724000D02*
X159903279Y-93724000D01*
X159603221Y-91696000D02*
X159928779Y-91696000D01*
X159603221Y-90676000D02*
X159928779Y-90676000D01*
X148473279Y-76706000D02*
X148147721Y-76706000D01*
X148473279Y-77726000D02*
X148147721Y-77726000D01*
X152283279Y-80008000D02*
X151957721Y-80008000D01*
X152283279Y-81028000D02*
X151957721Y-81028000D01*
X152283279Y-82040000D02*
X151957721Y-82040000D01*
X152283279Y-83060000D02*
X151957721Y-83060000D01*
D12*
X158345333Y-75350666D02*
X158821523Y-75350666D01*
X158250095Y-75636380D02*
X158583428Y-74636380D01*
X158916761Y-75636380D01*
X159250095Y-75112571D02*
X159583428Y-75112571D01*
X159726285Y-75636380D02*
X159250095Y-75636380D01*
X159250095Y-74636380D01*
X159726285Y-74636380D01*
X160107238Y-74731619D02*
X160154857Y-74684000D01*
X160250095Y-74636380D01*
X160488190Y-74636380D01*
X160583428Y-74684000D01*
X160631047Y-74731619D01*
X160678666Y-74826857D01*
X160678666Y-74922095D01*
X160631047Y-75064952D01*
X160059619Y-75636380D01*
X160678666Y-75636380D01*
X115673333Y-62142666D02*
X116149523Y-62142666D01*
X115578095Y-62428380D02*
X115911428Y-61428380D01*
X116244761Y-62428380D01*
X116578095Y-61904571D02*
X116911428Y-61904571D01*
X117054285Y-62428380D02*
X116578095Y-62428380D01*
X116578095Y-61428380D01*
X117054285Y-61428380D01*
X118006666Y-62428380D02*
X117435238Y-62428380D01*
X117720952Y-62428380D02*
X117720952Y-61428380D01*
X117625714Y-61571238D01*
X117530476Y-61666476D01*
X117435238Y-61714095D01*
X129119333Y-58269142D02*
X129071714Y-58316761D01*
X128928857Y-58364380D01*
X128833619Y-58364380D01*
X128690761Y-58316761D01*
X128595523Y-58221523D01*
X128547904Y-58126285D01*
X128500285Y-57935809D01*
X128500285Y-57792952D01*
X128547904Y-57602476D01*
X128595523Y-57507238D01*
X128690761Y-57412000D01*
X128833619Y-57364380D01*
X128928857Y-57364380D01*
X129071714Y-57412000D01*
X129119333Y-57459619D01*
X130071714Y-58364380D02*
X129500285Y-58364380D01*
X129786000Y-58364380D02*
X129786000Y-57364380D01*
X129690761Y-57507238D01*
X129595523Y-57602476D01*
X129500285Y-57650095D01*
X129119333Y-59793142D02*
X129071714Y-59840761D01*
X128928857Y-59888380D01*
X128833619Y-59888380D01*
X128690761Y-59840761D01*
X128595523Y-59745523D01*
X128547904Y-59650285D01*
X128500285Y-59459809D01*
X128500285Y-59316952D01*
X128547904Y-59126476D01*
X128595523Y-59031238D01*
X128690761Y-58936000D01*
X128833619Y-58888380D01*
X128928857Y-58888380D01*
X129071714Y-58936000D01*
X129119333Y-58983619D01*
X129500285Y-58983619D02*
X129547904Y-58936000D01*
X129643142Y-58888380D01*
X129881238Y-58888380D01*
X129976476Y-58936000D01*
X130024095Y-58983619D01*
X130071714Y-59078857D01*
X130071714Y-59174095D01*
X130024095Y-59316952D01*
X129452666Y-59888380D01*
X130071714Y-59888380D01*
X129246333Y-61285380D02*
X128770142Y-61285380D01*
X128770142Y-60285380D01*
X129532047Y-60380619D02*
X129579666Y-60333000D01*
X129674904Y-60285380D01*
X129913000Y-60285380D01*
X130008238Y-60333000D01*
X130055857Y-60380619D01*
X130103476Y-60475857D01*
X130103476Y-60571095D01*
X130055857Y-60713952D01*
X129484428Y-61285380D01*
X130103476Y-61285380D01*
X134397809Y-62460190D02*
X134397809Y-62936380D01*
X134064476Y-61936380D02*
X134397809Y-62460190D01*
X134731142Y-61936380D01*
X135588285Y-62936380D02*
X135016857Y-62936380D01*
X135302571Y-62936380D02*
X135302571Y-61936380D01*
X135207333Y-62079238D01*
X135112095Y-62174476D01*
X135016857Y-62222095D01*
X155987809Y-88749190D02*
X155987809Y-89225380D01*
X155654476Y-88225380D02*
X155987809Y-88749190D01*
X156321142Y-88225380D01*
X156606857Y-88320619D02*
X156654476Y-88273000D01*
X156749714Y-88225380D01*
X156987809Y-88225380D01*
X157083047Y-88273000D01*
X157130666Y-88320619D01*
X157178285Y-88415857D01*
X157178285Y-88511095D01*
X157130666Y-88653952D01*
X156559238Y-89225380D01*
X157178285Y-89225380D01*
X153162095Y-100700380D02*
X153162095Y-101509904D01*
X153209714Y-101605142D01*
X153257333Y-101652761D01*
X153352571Y-101700380D01*
X153543047Y-101700380D01*
X153638285Y-101652761D01*
X153685904Y-101605142D01*
X153733523Y-101509904D01*
X153733523Y-100700380D01*
X154257333Y-101700380D02*
X154447809Y-101700380D01*
X154543047Y-101652761D01*
X154590666Y-101605142D01*
X154685904Y-101462285D01*
X154733523Y-101271809D01*
X154733523Y-100890857D01*
X154685904Y-100795619D01*
X154638285Y-100748000D01*
X154543047Y-100700380D01*
X154352571Y-100700380D01*
X154257333Y-100748000D01*
X154209714Y-100795619D01*
X154162095Y-100890857D01*
X154162095Y-101128952D01*
X154209714Y-101224190D01*
X154257333Y-101271809D01*
X154352571Y-101319428D01*
X154543047Y-101319428D01*
X154638285Y-101271809D01*
X154685904Y-101224190D01*
X154733523Y-101128952D01*
X154432095Y-96512380D02*
X154432095Y-97321904D01*
X154479714Y-97417142D01*
X154527333Y-97464761D01*
X154622571Y-97512380D01*
X154813047Y-97512380D01*
X154908285Y-97464761D01*
X154955904Y-97417142D01*
X155003523Y-97321904D01*
X155003523Y-96512380D01*
X155622571Y-96940952D02*
X155527333Y-96893333D01*
X155479714Y-96845714D01*
X155432095Y-96750476D01*
X155432095Y-96702857D01*
X155479714Y-96607619D01*
X155527333Y-96560000D01*
X155622571Y-96512380D01*
X155813047Y-96512380D01*
X155908285Y-96560000D01*
X155955904Y-96607619D01*
X156003523Y-96702857D01*
X156003523Y-96750476D01*
X155955904Y-96845714D01*
X155908285Y-96893333D01*
X155813047Y-96940952D01*
X155622571Y-96940952D01*
X155527333Y-96988571D01*
X155479714Y-97036190D01*
X155432095Y-97131428D01*
X155432095Y-97321904D01*
X155479714Y-97417142D01*
X155527333Y-97464761D01*
X155622571Y-97512380D01*
X155813047Y-97512380D01*
X155908285Y-97464761D01*
X155955904Y-97417142D01*
X156003523Y-97321904D01*
X156003523Y-97131428D01*
X155955904Y-97036190D01*
X155908285Y-96988571D01*
X155813047Y-96940952D01*
X155702095Y-90892380D02*
X155702095Y-91701904D01*
X155749714Y-91797142D01*
X155797333Y-91844761D01*
X155892571Y-91892380D01*
X156083047Y-91892380D01*
X156178285Y-91844761D01*
X156225904Y-91797142D01*
X156273523Y-91701904D01*
X156273523Y-90892380D01*
X156654476Y-90892380D02*
X157321142Y-90892380D01*
X156892571Y-91892380D01*
X140208095Y-101814380D02*
X140208095Y-102623904D01*
X140255714Y-102719142D01*
X140303333Y-102766761D01*
X140398571Y-102814380D01*
X140589047Y-102814380D01*
X140684285Y-102766761D01*
X140731904Y-102719142D01*
X140779523Y-102623904D01*
X140779523Y-101814380D01*
X141684285Y-101814380D02*
X141493809Y-101814380D01*
X141398571Y-101862000D01*
X141350952Y-101909619D01*
X141255714Y-102052476D01*
X141208095Y-102242952D01*
X141208095Y-102623904D01*
X141255714Y-102719142D01*
X141303333Y-102766761D01*
X141398571Y-102814380D01*
X141589047Y-102814380D01*
X141684285Y-102766761D01*
X141731904Y-102719142D01*
X141779523Y-102623904D01*
X141779523Y-102385809D01*
X141731904Y-102290571D01*
X141684285Y-102242952D01*
X141589047Y-102195333D01*
X141398571Y-102195333D01*
X141303333Y-102242952D01*
X141255714Y-102290571D01*
X141208095Y-102385809D01*
X146050095Y-75144380D02*
X146050095Y-75953904D01*
X146097714Y-76049142D01*
X146145333Y-76096761D01*
X146240571Y-76144380D01*
X146431047Y-76144380D01*
X146526285Y-76096761D01*
X146573904Y-76049142D01*
X146621523Y-75953904D01*
X146621523Y-75144380D01*
X147573904Y-75144380D02*
X147097714Y-75144380D01*
X147050095Y-75620571D01*
X147097714Y-75572952D01*
X147192952Y-75525333D01*
X147431047Y-75525333D01*
X147526285Y-75572952D01*
X147573904Y-75620571D01*
X147621523Y-75715809D01*
X147621523Y-75953904D01*
X147573904Y-76049142D01*
X147526285Y-76096761D01*
X147431047Y-76144380D01*
X147192952Y-76144380D01*
X147097714Y-76096761D01*
X147050095Y-76049142D01*
X119380095Y-76414380D02*
X119380095Y-77223904D01*
X119427714Y-77319142D01*
X119475333Y-77366761D01*
X119570571Y-77414380D01*
X119761047Y-77414380D01*
X119856285Y-77366761D01*
X119903904Y-77319142D01*
X119951523Y-77223904D01*
X119951523Y-76414380D01*
X120856285Y-76747714D02*
X120856285Y-77414380D01*
X120618190Y-76366761D02*
X120380095Y-77081047D01*
X120999142Y-77081047D01*
X146558095Y-107910380D02*
X146558095Y-108719904D01*
X146605714Y-108815142D01*
X146653333Y-108862761D01*
X146748571Y-108910380D01*
X146939047Y-108910380D01*
X147034285Y-108862761D01*
X147081904Y-108815142D01*
X147129523Y-108719904D01*
X147129523Y-107910380D01*
X147510476Y-107910380D02*
X148129523Y-107910380D01*
X147796190Y-108291333D01*
X147939047Y-108291333D01*
X148034285Y-108338952D01*
X148081904Y-108386571D01*
X148129523Y-108481809D01*
X148129523Y-108719904D01*
X148081904Y-108815142D01*
X148034285Y-108862761D01*
X147939047Y-108910380D01*
X147653333Y-108910380D01*
X147558095Y-108862761D01*
X147510476Y-108815142D01*
X139954095Y-78700380D02*
X139954095Y-79509904D01*
X140001714Y-79605142D01*
X140049333Y-79652761D01*
X140144571Y-79700380D01*
X140335047Y-79700380D01*
X140430285Y-79652761D01*
X140477904Y-79605142D01*
X140525523Y-79509904D01*
X140525523Y-78700380D01*
X140954095Y-78795619D02*
X141001714Y-78748000D01*
X141096952Y-78700380D01*
X141335047Y-78700380D01*
X141430285Y-78748000D01*
X141477904Y-78795619D01*
X141525523Y-78890857D01*
X141525523Y-78986095D01*
X141477904Y-79128952D01*
X140906476Y-79700380D01*
X141525523Y-79700380D01*
X132334095Y-66762380D02*
X132334095Y-67571904D01*
X132381714Y-67667142D01*
X132429333Y-67714761D01*
X132524571Y-67762380D01*
X132715047Y-67762380D01*
X132810285Y-67714761D01*
X132857904Y-67667142D01*
X132905523Y-67571904D01*
X132905523Y-66762380D01*
X133905523Y-67762380D02*
X133334095Y-67762380D01*
X133619809Y-67762380D02*
X133619809Y-66762380D01*
X133524571Y-66905238D01*
X133429333Y-67000476D01*
X133334095Y-67048095D01*
X117356095Y-58126380D02*
X117927523Y-58126380D01*
X117641809Y-59126380D02*
X117641809Y-58126380D01*
X118260857Y-59126380D02*
X118260857Y-58126380D01*
X118641809Y-58126380D01*
X118737047Y-58174000D01*
X118784666Y-58221619D01*
X118832285Y-58316857D01*
X118832285Y-58459714D01*
X118784666Y-58554952D01*
X118737047Y-58602571D01*
X118641809Y-58650190D01*
X118260857Y-58650190D01*
X119784666Y-59126380D02*
X119213238Y-59126380D01*
X119498952Y-59126380D02*
X119498952Y-58126380D01*
X119403714Y-58269238D01*
X119308476Y-58364476D01*
X119213238Y-58412095D01*
X125642761Y-63698380D02*
X125309428Y-63222190D01*
X125071333Y-63698380D02*
X125071333Y-62698380D01*
X125452285Y-62698380D01*
X125547523Y-62746000D01*
X125595142Y-62793619D01*
X125642761Y-62888857D01*
X125642761Y-63031714D01*
X125595142Y-63126952D01*
X125547523Y-63174571D01*
X125452285Y-63222190D01*
X125071333Y-63222190D01*
X125928476Y-62698380D02*
X126261809Y-63698380D01*
X126595142Y-62698380D01*
X127452285Y-63698380D02*
X126880857Y-63698380D01*
X127166571Y-63698380D02*
X127166571Y-62698380D01*
X127071333Y-62841238D01*
X126976095Y-62936476D01*
X126880857Y-62984095D01*
X159573833Y-96304380D02*
X159240500Y-95828190D01*
X159002404Y-96304380D02*
X159002404Y-95304380D01*
X159383357Y-95304380D01*
X159478595Y-95352000D01*
X159526214Y-95399619D01*
X159573833Y-95494857D01*
X159573833Y-95637714D01*
X159526214Y-95732952D01*
X159478595Y-95780571D01*
X159383357Y-95828190D01*
X159002404Y-95828190D01*
X160145261Y-95732952D02*
X160050023Y-95685333D01*
X160002404Y-95637714D01*
X159954785Y-95542476D01*
X159954785Y-95494857D01*
X160002404Y-95399619D01*
X160050023Y-95352000D01*
X160145261Y-95304380D01*
X160335738Y-95304380D01*
X160430976Y-95352000D01*
X160478595Y-95399619D01*
X160526214Y-95494857D01*
X160526214Y-95542476D01*
X160478595Y-95637714D01*
X160430976Y-95685333D01*
X160335738Y-95732952D01*
X160145261Y-95732952D01*
X160050023Y-95780571D01*
X160002404Y-95828190D01*
X159954785Y-95923428D01*
X159954785Y-96113904D01*
X160002404Y-96209142D01*
X160050023Y-96256761D01*
X160145261Y-96304380D01*
X160335738Y-96304380D01*
X160430976Y-96256761D01*
X160478595Y-96209142D01*
X160526214Y-96113904D01*
X160526214Y-95923428D01*
X160478595Y-95828190D01*
X160430976Y-95780571D01*
X160335738Y-95732952D01*
X141819333Y-107640380D02*
X141486000Y-107164190D01*
X141247904Y-107640380D02*
X141247904Y-106640380D01*
X141628857Y-106640380D01*
X141724095Y-106688000D01*
X141771714Y-106735619D01*
X141819333Y-106830857D01*
X141819333Y-106973714D01*
X141771714Y-107068952D01*
X141724095Y-107116571D01*
X141628857Y-107164190D01*
X141247904Y-107164190D01*
X142152666Y-106640380D02*
X142819333Y-106640380D01*
X142390761Y-107640380D01*
X151996380Y-111393166D02*
X151520190Y-111726500D01*
X151996380Y-111964595D02*
X150996380Y-111964595D01*
X150996380Y-111583642D01*
X151044000Y-111488404D01*
X151091619Y-111440785D01*
X151186857Y-111393166D01*
X151329714Y-111393166D01*
X151424952Y-111440785D01*
X151472571Y-111488404D01*
X151520190Y-111583642D01*
X151520190Y-111964595D01*
X150996380Y-110536023D02*
X150996380Y-110726500D01*
X151044000Y-110821738D01*
X151091619Y-110869357D01*
X151234476Y-110964595D01*
X151424952Y-111012214D01*
X151805904Y-111012214D01*
X151901142Y-110964595D01*
X151948761Y-110916976D01*
X151996380Y-110821738D01*
X151996380Y-110631261D01*
X151948761Y-110536023D01*
X151901142Y-110488404D01*
X151805904Y-110440785D01*
X151567809Y-110440785D01*
X151472571Y-110488404D01*
X151424952Y-110536023D01*
X151377333Y-110631261D01*
X151377333Y-110821738D01*
X151424952Y-110916976D01*
X151472571Y-110964595D01*
X151567809Y-111012214D01*
X141819333Y-104592380D02*
X141486000Y-104116190D01*
X141247904Y-104592380D02*
X141247904Y-103592380D01*
X141628857Y-103592380D01*
X141724095Y-103640000D01*
X141771714Y-103687619D01*
X141819333Y-103782857D01*
X141819333Y-103925714D01*
X141771714Y-104020952D01*
X141724095Y-104068571D01*
X141628857Y-104116190D01*
X141247904Y-104116190D01*
X142724095Y-103592380D02*
X142247904Y-103592380D01*
X142200285Y-104068571D01*
X142247904Y-104020952D01*
X142343142Y-103973333D01*
X142581238Y-103973333D01*
X142676476Y-104020952D01*
X142724095Y-104068571D01*
X142771714Y-104163809D01*
X142771714Y-104401904D01*
X142724095Y-104497142D01*
X142676476Y-104544761D01*
X142581238Y-104592380D01*
X142343142Y-104592380D01*
X142247904Y-104544761D01*
X142200285Y-104497142D01*
X149202380Y-111418666D02*
X148726190Y-111752000D01*
X149202380Y-111990095D02*
X148202380Y-111990095D01*
X148202380Y-111609142D01*
X148250000Y-111513904D01*
X148297619Y-111466285D01*
X148392857Y-111418666D01*
X148535714Y-111418666D01*
X148630952Y-111466285D01*
X148678571Y-111513904D01*
X148726190Y-111609142D01*
X148726190Y-111990095D01*
X148535714Y-110561523D02*
X149202380Y-110561523D01*
X148154761Y-110799619D02*
X148869047Y-111037714D01*
X148869047Y-110418666D01*
X146408380Y-111418666D02*
X145932190Y-111752000D01*
X146408380Y-111990095D02*
X145408380Y-111990095D01*
X145408380Y-111609142D01*
X145456000Y-111513904D01*
X145503619Y-111466285D01*
X145598857Y-111418666D01*
X145741714Y-111418666D01*
X145836952Y-111466285D01*
X145884571Y-111513904D01*
X145932190Y-111609142D01*
X145932190Y-111990095D01*
X145408380Y-111085333D02*
X145408380Y-110466285D01*
X145789333Y-110799619D01*
X145789333Y-110656761D01*
X145836952Y-110561523D01*
X145884571Y-110513904D01*
X145979809Y-110466285D01*
X146217904Y-110466285D01*
X146313142Y-110513904D01*
X146360761Y-110561523D01*
X146408380Y-110656761D01*
X146408380Y-110942476D01*
X146360761Y-111037714D01*
X146313142Y-111085333D01*
X143614380Y-111418666D02*
X143138190Y-111752000D01*
X143614380Y-111990095D02*
X142614380Y-111990095D01*
X142614380Y-111609142D01*
X142662000Y-111513904D01*
X142709619Y-111466285D01*
X142804857Y-111418666D01*
X142947714Y-111418666D01*
X143042952Y-111466285D01*
X143090571Y-111513904D01*
X143138190Y-111609142D01*
X143138190Y-111990095D01*
X142709619Y-111037714D02*
X142662000Y-110990095D01*
X142614380Y-110894857D01*
X142614380Y-110656761D01*
X142662000Y-110561523D01*
X142709619Y-110513904D01*
X142804857Y-110466285D01*
X142900095Y-110466285D01*
X143042952Y-110513904D01*
X143614380Y-111085333D01*
X143614380Y-110466285D01*
X126094333Y-65222380D02*
X125761000Y-64746190D01*
X125522904Y-65222380D02*
X125522904Y-64222380D01*
X125903857Y-64222380D01*
X125999095Y-64270000D01*
X126046714Y-64317619D01*
X126094333Y-64412857D01*
X126094333Y-64555714D01*
X126046714Y-64650952D01*
X125999095Y-64698571D01*
X125903857Y-64746190D01*
X125522904Y-64746190D01*
X127046714Y-65222380D02*
X126475285Y-65222380D01*
X126761000Y-65222380D02*
X126761000Y-64222380D01*
X126665761Y-64365238D01*
X126570523Y-64460476D01*
X126475285Y-64508095D01*
X154519333Y-85034380D02*
X154043142Y-85034380D01*
X154043142Y-84034380D01*
X154757428Y-84034380D02*
X155376476Y-84034380D01*
X155043142Y-84415333D01*
X155186000Y-84415333D01*
X155281238Y-84462952D01*
X155328857Y-84510571D01*
X155376476Y-84605809D01*
X155376476Y-84843904D01*
X155328857Y-84939142D01*
X155281238Y-84986761D01*
X155186000Y-85034380D01*
X154900285Y-85034380D01*
X154805047Y-84986761D01*
X154757428Y-84939142D01*
X128634333Y-65322380D02*
X128158142Y-65322380D01*
X128158142Y-64322380D01*
X129491476Y-65322380D02*
X128920047Y-65322380D01*
X129205761Y-65322380D02*
X129205761Y-64322380D01*
X129110523Y-64465238D01*
X129015285Y-64560476D01*
X128920047Y-64608095D01*
X151050666Y-108164380D02*
X151050666Y-108878666D01*
X151003047Y-109021523D01*
X150907809Y-109116761D01*
X150764952Y-109164380D01*
X150669714Y-109164380D01*
X151955428Y-108497714D02*
X151955428Y-109164380D01*
X151717333Y-108116761D02*
X151479238Y-108831047D01*
X152098285Y-108831047D01*
X168068666Y-99274380D02*
X168068666Y-99988666D01*
X168021047Y-100131523D01*
X167925809Y-100226761D01*
X167782952Y-100274380D01*
X167687714Y-100274380D01*
X168449619Y-99274380D02*
X169068666Y-99274380D01*
X168735333Y-99655333D01*
X168878190Y-99655333D01*
X168973428Y-99702952D01*
X169021047Y-99750571D01*
X169068666Y-99845809D01*
X169068666Y-100083904D01*
X169021047Y-100179142D01*
X168973428Y-100226761D01*
X168878190Y-100274380D01*
X168592476Y-100274380D01*
X168497238Y-100226761D01*
X168449619Y-100179142D01*
X160575666Y-87590380D02*
X160575666Y-88304666D01*
X160528047Y-88447523D01*
X160432809Y-88542761D01*
X160289952Y-88590380D01*
X160194714Y-88590380D01*
X161004238Y-87685619D02*
X161051857Y-87638000D01*
X161147095Y-87590380D01*
X161385190Y-87590380D01*
X161480428Y-87638000D01*
X161528047Y-87685619D01*
X161575666Y-87780857D01*
X161575666Y-87876095D01*
X161528047Y-88018952D01*
X160956619Y-88590380D01*
X161575666Y-88590380D01*
X136318666Y-61936380D02*
X136318666Y-62650666D01*
X136271047Y-62793523D01*
X136175809Y-62888761D01*
X136032952Y-62936380D01*
X135937714Y-62936380D01*
X137318666Y-62936380D02*
X136747238Y-62936380D01*
X137032952Y-62936380D02*
X137032952Y-61936380D01*
X136937714Y-62079238D01*
X136842476Y-62174476D01*
X136747238Y-62222095D01*
X159002404Y-99352380D02*
X159002404Y-98352380D01*
X159240500Y-98352380D01*
X159383357Y-98400000D01*
X159478595Y-98495238D01*
X159526214Y-98590476D01*
X159573833Y-98780952D01*
X159573833Y-98923809D01*
X159526214Y-99114285D01*
X159478595Y-99209523D01*
X159383357Y-99304761D01*
X159240500Y-99352380D01*
X159002404Y-99352380D01*
X160478595Y-98352380D02*
X160002404Y-98352380D01*
X159954785Y-98828571D01*
X160002404Y-98780952D01*
X160097642Y-98733333D01*
X160335738Y-98733333D01*
X160430976Y-98780952D01*
X160478595Y-98828571D01*
X160526214Y-98923809D01*
X160526214Y-99161904D01*
X160478595Y-99257142D01*
X160430976Y-99304761D01*
X160335738Y-99352380D01*
X160097642Y-99352380D01*
X160002404Y-99304761D01*
X159954785Y-99257142D01*
X151996380Y-115317595D02*
X150996380Y-115317595D01*
X150996380Y-115079500D01*
X151044000Y-114936642D01*
X151139238Y-114841404D01*
X151234476Y-114793785D01*
X151424952Y-114746166D01*
X151567809Y-114746166D01*
X151758285Y-114793785D01*
X151853523Y-114841404D01*
X151948761Y-114936642D01*
X151996380Y-115079500D01*
X151996380Y-115317595D01*
X151329714Y-113889023D02*
X151996380Y-113889023D01*
X150948761Y-114127119D02*
X151663047Y-114365214D01*
X151663047Y-113746166D01*
X149202380Y-115292095D02*
X148202380Y-115292095D01*
X148202380Y-115054000D01*
X148250000Y-114911142D01*
X148345238Y-114815904D01*
X148440476Y-114768285D01*
X148630952Y-114720666D01*
X148773809Y-114720666D01*
X148964285Y-114768285D01*
X149059523Y-114815904D01*
X149154761Y-114911142D01*
X149202380Y-115054000D01*
X149202380Y-115292095D01*
X148202380Y-114387333D02*
X148202380Y-113768285D01*
X148583333Y-114101619D01*
X148583333Y-113958761D01*
X148630952Y-113863523D01*
X148678571Y-113815904D01*
X148773809Y-113768285D01*
X149011904Y-113768285D01*
X149107142Y-113815904D01*
X149154761Y-113863523D01*
X149202380Y-113958761D01*
X149202380Y-114244476D01*
X149154761Y-114339714D01*
X149107142Y-114387333D01*
X146408380Y-115317595D02*
X145408380Y-115317595D01*
X145408380Y-115079500D01*
X145456000Y-114936642D01*
X145551238Y-114841404D01*
X145646476Y-114793785D01*
X145836952Y-114746166D01*
X145979809Y-114746166D01*
X146170285Y-114793785D01*
X146265523Y-114841404D01*
X146360761Y-114936642D01*
X146408380Y-115079500D01*
X146408380Y-115317595D01*
X145503619Y-114365214D02*
X145456000Y-114317595D01*
X145408380Y-114222357D01*
X145408380Y-113984261D01*
X145456000Y-113889023D01*
X145503619Y-113841404D01*
X145598857Y-113793785D01*
X145694095Y-113793785D01*
X145836952Y-113841404D01*
X146408380Y-114412833D01*
X146408380Y-113793785D01*
X143614380Y-115317595D02*
X142614380Y-115317595D01*
X142614380Y-115079500D01*
X142662000Y-114936642D01*
X142757238Y-114841404D01*
X142852476Y-114793785D01*
X143042952Y-114746166D01*
X143185809Y-114746166D01*
X143376285Y-114793785D01*
X143471523Y-114841404D01*
X143566761Y-114936642D01*
X143614380Y-115079500D01*
X143614380Y-115317595D01*
X143614380Y-113793785D02*
X143614380Y-114365214D01*
X143614380Y-114079500D02*
X142614380Y-114079500D01*
X142757238Y-114174738D01*
X142852476Y-114269976D01*
X142900095Y-114365214D01*
X159097642Y-93161142D02*
X159050023Y-93208761D01*
X158907166Y-93256380D01*
X158811928Y-93256380D01*
X158669071Y-93208761D01*
X158573833Y-93113523D01*
X158526214Y-93018285D01*
X158478595Y-92827809D01*
X158478595Y-92684952D01*
X158526214Y-92494476D01*
X158573833Y-92399238D01*
X158669071Y-92304000D01*
X158811928Y-92256380D01*
X158907166Y-92256380D01*
X159050023Y-92304000D01*
X159097642Y-92351619D01*
X160050023Y-93256380D02*
X159478595Y-93256380D01*
X159764309Y-93256380D02*
X159764309Y-92256380D01*
X159669071Y-92399238D01*
X159573833Y-92494476D01*
X159478595Y-92542095D01*
X160669071Y-92256380D02*
X160764309Y-92256380D01*
X160859547Y-92304000D01*
X160907166Y-92351619D01*
X160954785Y-92446857D01*
X161002404Y-92637333D01*
X161002404Y-92875428D01*
X160954785Y-93065904D01*
X160907166Y-93161142D01*
X160859547Y-93208761D01*
X160764309Y-93256380D01*
X160669071Y-93256380D01*
X160573833Y-93208761D01*
X160526214Y-93161142D01*
X160478595Y-93065904D01*
X160430976Y-92875428D01*
X160430976Y-92637333D01*
X160478595Y-92446857D01*
X160526214Y-92351619D01*
X160573833Y-92304000D01*
X160669071Y-92256380D01*
X159599333Y-90113142D02*
X159551714Y-90160761D01*
X159408857Y-90208380D01*
X159313619Y-90208380D01*
X159170761Y-90160761D01*
X159075523Y-90065523D01*
X159027904Y-89970285D01*
X158980285Y-89779809D01*
X158980285Y-89636952D01*
X159027904Y-89446476D01*
X159075523Y-89351238D01*
X159170761Y-89256000D01*
X159313619Y-89208380D01*
X159408857Y-89208380D01*
X159551714Y-89256000D01*
X159599333Y-89303619D01*
X160075523Y-90208380D02*
X160266000Y-90208380D01*
X160361238Y-90160761D01*
X160408857Y-90113142D01*
X160504095Y-89970285D01*
X160551714Y-89779809D01*
X160551714Y-89398857D01*
X160504095Y-89303619D01*
X160456476Y-89256000D01*
X160361238Y-89208380D01*
X160170761Y-89208380D01*
X160075523Y-89256000D01*
X160027904Y-89303619D01*
X159980285Y-89398857D01*
X159980285Y-89636952D01*
X160027904Y-89732190D01*
X160075523Y-89779809D01*
X160170761Y-89827428D01*
X160361238Y-89827428D01*
X160456476Y-89779809D01*
X160504095Y-89732190D01*
X160551714Y-89636952D01*
X150709333Y-77573142D02*
X150661714Y-77620761D01*
X150518857Y-77668380D01*
X150423619Y-77668380D01*
X150280761Y-77620761D01*
X150185523Y-77525523D01*
X150137904Y-77430285D01*
X150090285Y-77239809D01*
X150090285Y-77096952D01*
X150137904Y-76906476D01*
X150185523Y-76811238D01*
X150280761Y-76716000D01*
X150423619Y-76668380D01*
X150518857Y-76668380D01*
X150661714Y-76716000D01*
X150709333Y-76763619D01*
X151280761Y-77096952D02*
X151185523Y-77049333D01*
X151137904Y-77001714D01*
X151090285Y-76906476D01*
X151090285Y-76858857D01*
X151137904Y-76763619D01*
X151185523Y-76716000D01*
X151280761Y-76668380D01*
X151471238Y-76668380D01*
X151566476Y-76716000D01*
X151614095Y-76763619D01*
X151661714Y-76858857D01*
X151661714Y-76906476D01*
X151614095Y-77001714D01*
X151566476Y-77049333D01*
X151471238Y-77096952D01*
X151280761Y-77096952D01*
X151185523Y-77144571D01*
X151137904Y-77192190D01*
X151090285Y-77287428D01*
X151090285Y-77477904D01*
X151137904Y-77573142D01*
X151185523Y-77620761D01*
X151280761Y-77668380D01*
X151471238Y-77668380D01*
X151566476Y-77620761D01*
X151614095Y-77573142D01*
X151661714Y-77477904D01*
X151661714Y-77287428D01*
X151614095Y-77192190D01*
X151566476Y-77144571D01*
X151471238Y-77096952D01*
X151979333Y-79478142D02*
X151931714Y-79525761D01*
X151788857Y-79573380D01*
X151693619Y-79573380D01*
X151550761Y-79525761D01*
X151455523Y-79430523D01*
X151407904Y-79335285D01*
X151360285Y-79144809D01*
X151360285Y-79001952D01*
X151407904Y-78811476D01*
X151455523Y-78716238D01*
X151550761Y-78621000D01*
X151693619Y-78573380D01*
X151788857Y-78573380D01*
X151931714Y-78621000D01*
X151979333Y-78668619D01*
X152312666Y-78573380D02*
X152979333Y-78573380D01*
X152550761Y-79573380D01*
X154646333Y-82907142D02*
X154598714Y-82954761D01*
X154455857Y-83002380D01*
X154360619Y-83002380D01*
X154217761Y-82954761D01*
X154122523Y-82859523D01*
X154074904Y-82764285D01*
X154027285Y-82573809D01*
X154027285Y-82430952D01*
X154074904Y-82240476D01*
X154122523Y-82145238D01*
X154217761Y-82050000D01*
X154360619Y-82002380D01*
X154455857Y-82002380D01*
X154598714Y-82050000D01*
X154646333Y-82097619D01*
X155503476Y-82002380D02*
X155313000Y-82002380D01*
X155217761Y-82050000D01*
X155170142Y-82097619D01*
X155074904Y-82240476D01*
X155027285Y-82430952D01*
X155027285Y-82811904D01*
X155074904Y-82907142D01*
X155122523Y-82954761D01*
X155217761Y-83002380D01*
X155408238Y-83002380D01*
X155503476Y-82954761D01*
X155551095Y-82907142D01*
X155598714Y-82811904D01*
X155598714Y-82573809D01*
X155551095Y-82478571D01*
X155503476Y-82430952D01*
X155408238Y-82383333D01*
X155217761Y-82383333D01*
X155122523Y-82430952D01*
X155074904Y-82478571D01*
X155027285Y-82573809D01*
X131151333Y-65127142D02*
X131103714Y-65174761D01*
X130960857Y-65222380D01*
X130865619Y-65222380D01*
X130722761Y-65174761D01*
X130627523Y-65079523D01*
X130579904Y-64984285D01*
X130532285Y-64793809D01*
X130532285Y-64650952D01*
X130579904Y-64460476D01*
X130627523Y-64365238D01*
X130722761Y-64270000D01*
X130865619Y-64222380D01*
X130960857Y-64222380D01*
X131103714Y-64270000D01*
X131151333Y-64317619D01*
X132056095Y-64222380D02*
X131579904Y-64222380D01*
X131532285Y-64698571D01*
X131579904Y-64650952D01*
X131675142Y-64603333D01*
X131913238Y-64603333D01*
X132008476Y-64650952D01*
X132056095Y-64698571D01*
X132103714Y-64793809D01*
X132103714Y-65031904D01*
X132056095Y-65127142D01*
X132008476Y-65174761D01*
X131913238Y-65222380D01*
X131675142Y-65222380D01*
X131579904Y-65174761D01*
X131532285Y-65127142D01*
X131405333Y-62714142D02*
X131357714Y-62761761D01*
X131214857Y-62809380D01*
X131119619Y-62809380D01*
X130976761Y-62761761D01*
X130881523Y-62666523D01*
X130833904Y-62571285D01*
X130786285Y-62380809D01*
X130786285Y-62237952D01*
X130833904Y-62047476D01*
X130881523Y-61952238D01*
X130976761Y-61857000D01*
X131119619Y-61809380D01*
X131214857Y-61809380D01*
X131357714Y-61857000D01*
X131405333Y-61904619D01*
X132262476Y-62142714D02*
X132262476Y-62809380D01*
X132024380Y-61761761D02*
X131786285Y-62476047D01*
X132405333Y-62476047D01*
X129246333Y-62714142D02*
X129198714Y-62761761D01*
X129055857Y-62809380D01*
X128960619Y-62809380D01*
X128817761Y-62761761D01*
X128722523Y-62666523D01*
X128674904Y-62571285D01*
X128627285Y-62380809D01*
X128627285Y-62237952D01*
X128674904Y-62047476D01*
X128722523Y-61952238D01*
X128817761Y-61857000D01*
X128960619Y-61809380D01*
X129055857Y-61809380D01*
X129198714Y-61857000D01*
X129246333Y-61904619D01*
X129579666Y-61809380D02*
X130198714Y-61809380D01*
X129865380Y-62190333D01*
X130008238Y-62190333D01*
X130103476Y-62237952D01*
X130151095Y-62285571D01*
X130198714Y-62380809D01*
X130198714Y-62618904D01*
X130151095Y-62714142D01*
X130103476Y-62761761D01*
X130008238Y-62809380D01*
X129722523Y-62809380D01*
X129627285Y-62761761D01*
X129579666Y-62714142D01*
M02*
