%FSLAX44Y44*%
%MOMM*%
G71*
G01*
G75*
G04 Layer_Color=16711935*
%ADD10O,0.6101X2.0320*%
%ADD11O,0.6096X2.0320*%
%ADD12O,0.3000X0.9901*%
%ADD13R,0.3000X0.9901*%
%ADD14C,0.3000*%
%ADD15C,0.5999*%
%ADD16R,0.5100X2.0201*%
%ADD17R,1.4501X1.2499*%
%ADD18R,1.2499X1.4501*%
%ADD19R,3.0000X2.8001*%
%ADD20C,1.5001*%
%ADD21C,0.5001*%
%ADD22C,0.3000*%
%ADD23C,0.5999*%
%ADD24C,0.3010*%
%ADD25C,0.4001*%
%ADD26C,0.3099*%
%ADD27C,0.1501*%
%ADD28C,1.0000*%
%ADD29C,0.3500*%
%ADD30C,0.1999*%
%ADD31C,0.7000*%
%ADD32C,1.0000*%
%ADD33O,1.5001X2.0000*%
%ADD34C,0.6000*%
%ADD35C,0.0201*%
%ADD36C,0.2540*%
%ADD37C,0.1270*%
%ADD38C,0.0000*%
%ADD39O,0.8133X2.2352*%
%ADD40O,0.8128X2.2352*%
%ADD41O,0.5032X1.1933*%
%ADD42R,0.5032X1.1933*%
%ADD43C,0.5032*%
%ADD44C,0.8032*%
%ADD45R,0.7099X2.2200*%
%ADD46R,1.6500X1.4498*%
%ADD47R,1.4501X1.6502*%
%ADD48R,3.1999X3.0000*%
%ADD49C,2.5001*%
%ADD50C,1.1999*%
%ADD51C,1.2032*%
%ADD52C,0.5499*%
%ADD53O,1.7033X2.2032*%
%ADD54O,1.7033X2.2032*%
%ADD55C,0.2001*%
%ADD56C,0.2032*%
%ADD57C,1.7272*%
%ADD58C,1.0000*%
%ADD59C,2.0000*%
G54D58*
X1079271Y10058351D02*
X1079271Y12492942D01*
X1079271Y10058351D02*
X3032531Y10058351D01*
X1079271Y12492942D02*
X3032531Y12492942D01*
X3032531Y10058351D02*
X3032531Y12492942D01*
G54D59*
X1179787Y12413866D02*
X1429791Y12413866D01*
X1179787Y11922688D02*
X1179787Y12413866D01*
X1179787Y11401488D02*
X1179787Y11892690D01*
X1180871Y11401488D02*
X1429791Y11401488D01*
X1459789Y11400741D02*
X1709793Y11400741D01*
X1709793Y11892690D01*
X1709793Y11922688D02*
X1709793Y12413866D01*
X1459789Y12413866D02*
X1709793Y12413866D01*
X1790101Y11882231D02*
X2039391Y11882231D01*
X1790101Y11669374D02*
X1790101Y11882231D01*
X1789101Y11427231D02*
X1789101Y11639376D01*
X1789101Y11427231D02*
X2039391Y11427231D01*
X2069389Y11427231D02*
X2320101Y11427231D01*
X2320101Y11882231D01*
X2069389Y11882231D02*
X2320101Y11882231D01*
X1788101Y12416731D02*
X2039391Y12416731D01*
X1788101Y12202775D02*
X1788101Y12416731D01*
X1789601Y11958732D02*
X1789601Y12172777D01*
X1789601Y11958732D02*
X2039391Y11958732D01*
X2069389Y11958732D02*
X2319601Y11958732D01*
X2319601Y12172777D01*
X2319601Y12202775D02*
X2319601Y12415731D01*
X2069389Y12415731D02*
X2319601Y12415731D01*
X2400951Y12412732D02*
X2655824Y12412732D01*
X2400951Y11936481D02*
X2400951Y12412732D01*
X2401601Y11428732D02*
X2401601Y11906458D01*
X2401601Y11428732D02*
X2655824Y11428732D01*
X2685822Y11428732D02*
X2940602Y11428732D01*
X2940602Y11906458D01*
X2938601Y11936481D02*
X2938601Y12413732D01*
X2685822Y12413732D02*
X2938601Y12413732D01*
X1179787Y10868088D02*
X1179787Y11080577D01*
X1179787Y10868088D02*
X1429791Y10868088D01*
X1459789Y10868088D02*
X1709793Y10868088D01*
X1709793Y11080577D01*
X1709793Y11110574D02*
X1709793Y11323063D01*
X1459789Y11323063D02*
X1709793Y11323063D01*
X1789387Y11323063D02*
X2039391Y11323063D01*
X1789387Y11110574D02*
X1789387Y11321621D01*
X2069389Y10868088D02*
X2319511Y10868088D01*
X2319393Y10868088D02*
X2319393Y11080577D01*
X2398621Y11323063D02*
X2648991Y11323063D01*
X2398987Y11110574D02*
X2398987Y11323063D01*
X1179787Y10385488D02*
X1179787Y10572755D01*
X1180351Y10385488D02*
X1429791Y10385488D01*
X1179787Y10602751D02*
X1179787Y10790018D01*
X1758653Y10274363D02*
X1758653Y10517028D01*
X1759441Y10274363D02*
X2037817Y10274363D01*
X2346978Y10547024D02*
X2346978Y10789663D01*
X2067814Y10789663D02*
X2345931Y10789663D01*
X1179787Y11110574D02*
X1179787Y11323063D01*
X1429791Y11323063D01*
X1789387Y10868088D02*
X2039391Y10868088D01*
X1789387Y10868088D02*
X1789387Y11080577D01*
X2069389Y11323063D02*
X2318160Y11323063D01*
X2319393Y11321830D01*
X2319393Y11110574D02*
X2319393Y11321830D01*
X2678989Y11323063D02*
X2928792Y11323063D01*
X2928994Y11322861D01*
X2928994Y11110574D02*
X2928994Y11322861D01*
X2678989Y10868088D02*
X2928994Y10868088D01*
X2928994Y11080577D01*
X2398987Y10868253D02*
X2398987Y11080577D01*
X2398987Y10868253D02*
X2399151Y10868088D01*
X2648991Y10868088D01*
X1709793Y10602751D02*
X1709793Y10790018D01*
X1179341Y10790018D02*
X1709793Y10790018D01*
X1709793Y10385488D02*
X1709793Y10572755D01*
X1459789Y10385488D02*
X1709793Y10385488D01*
X2346978Y10274363D02*
X2346978Y10517028D01*
X2067814Y10274363D02*
X2346978Y10274363D01*
X1758653Y10789663D02*
X2037817Y10789663D01*
X1758653Y10547024D02*
X1758653Y10789663D01*
X2400003Y10789663D02*
X2648991Y10789663D01*
X2400003Y10483524D02*
X2400003Y10789663D01*
X2928003Y10483524D02*
X2928003Y10789663D01*
X2678989Y10789663D02*
X2928003Y10789663D01*
X2678989Y10147363D02*
X2928003Y10147363D01*
X2928003Y10453527D01*
X2400003Y10147363D02*
X2648991Y10147363D01*
X2400003Y10147363D02*
X2400003Y10453527D01*
M02*
