%FSLAX44Y44*%
%MOMM*%
G71*
G01*
G75*
G04 Layer_Color=65280*
%ADD10O,0.6101X2.0320*%
%ADD11O,0.6096X2.0320*%
%ADD12O,0.3000X0.9901*%
%ADD13R,0.3000X0.9901*%
%ADD14C,0.3000*%
%ADD15C,0.5999*%
%ADD16R,0.5100X2.0201*%
%ADD17R,1.4501X1.2499*%
%ADD18R,1.2499X1.4501*%
%ADD19R,3.0000X2.8001*%
%ADD20C,1.5001*%
%ADD21C,0.5001*%
%ADD22C,0.3000*%
%ADD23C,0.5999*%
%ADD24C,0.3010*%
%ADD25C,0.4001*%
%ADD26C,0.3099*%
%ADD27C,0.1501*%
%ADD28C,1.0000*%
%ADD29C,0.3500*%
%ADD30C,0.1999*%
%ADD31C,0.7000*%
%ADD32C,1.0000*%
%ADD33O,1.5001X2.0000*%
%ADD34C,0.6000*%
%ADD35C,0.0201*%
%ADD36C,0.2540*%
%ADD37C,0.1270*%
%ADD38C,0.0000*%
G54D10*
X2840838Y11619489D02*
D03*
X2853538Y11619489D02*
D03*
G54D11*
X2866237Y11619489D02*
D03*
X2828138Y11619489D02*
D03*
X2828138Y11563608D02*
D03*
X2840838Y11563608D02*
D03*
X2853538Y11563608D02*
D03*
X2866237Y11563608D02*
D03*
G54D12*
X2847518Y11678772D02*
D03*
X2852522Y11678772D02*
D03*
X2842514Y11678772D02*
D03*
X2852522Y11662567D02*
D03*
X2847518Y11662567D02*
D03*
G54D13*
X2842514Y11662567D02*
D03*
G54D15*
X2869565Y11707957D02*
D03*
G54D16*
X2251253Y12080905D02*
D03*
X2238553Y12080905D02*
D03*
X2225853Y12080905D02*
D03*
X2213153Y12080905D02*
D03*
X2213153Y12132721D02*
D03*
X2225853Y12132721D02*
D03*
X2238553Y12132721D02*
D03*
X2251253Y12132721D02*
D03*
X2225853Y10404504D02*
D03*
X2213153Y10404504D02*
D03*
X2200453Y10404504D02*
D03*
X2187753Y10404504D02*
D03*
X2187753Y10456321D02*
D03*
X2200453Y10456321D02*
D03*
X2213153Y10456321D02*
D03*
X2225853Y10456321D02*
D03*
X2251253Y10988705D02*
D03*
X2238553Y10988705D02*
D03*
X2225853Y10988705D02*
D03*
X2213153Y10988705D02*
D03*
X2213153Y11040521D02*
D03*
X2225853Y11040521D02*
D03*
X2238553Y11040521D02*
D03*
X2251253Y11040521D02*
D03*
X1641653Y10506105D02*
D03*
X1628953Y10506105D02*
D03*
X1616253Y10506105D02*
D03*
X1603553Y10506105D02*
D03*
X1603553Y10557921D02*
D03*
X1616253Y10557921D02*
D03*
X1628953Y10557921D02*
D03*
X1641653Y10557921D02*
D03*
X2244903Y11547505D02*
D03*
X2232203Y11547505D02*
D03*
X2219503Y11547505D02*
D03*
X2206803Y11547505D02*
D03*
X2206803Y11599321D02*
D03*
X2219503Y11599321D02*
D03*
X2232203Y11599321D02*
D03*
X2244903Y11599321D02*
D03*
X2860853Y10277505D02*
D03*
X2848153Y10277505D02*
D03*
X2835453Y10277505D02*
D03*
X2822753Y10277505D02*
D03*
X2822753Y10329321D02*
D03*
X2835453Y10329321D02*
D03*
X2848153Y10329321D02*
D03*
X2860853Y10329321D02*
D03*
X1641653Y10988705D02*
D03*
X1628953Y10988705D02*
D03*
X1616253Y10988705D02*
D03*
X1603553Y10988705D02*
D03*
X1603553Y11040521D02*
D03*
X1616253Y11040521D02*
D03*
X1628953Y11040521D02*
D03*
X1641653Y11040521D02*
D03*
X2860853Y10988705D02*
D03*
X2848153Y10988705D02*
D03*
X2835453Y10988705D02*
D03*
X2822753Y10988705D02*
D03*
X2822753Y11040521D02*
D03*
X2835453Y11040521D02*
D03*
X2848153Y11040521D02*
D03*
X2860853Y11040521D02*
D03*
X1641653Y11522104D02*
D03*
X1628953Y11522104D02*
D03*
X1616253Y11522104D02*
D03*
X1603553Y11522104D02*
D03*
X1603553Y11573921D02*
D03*
X1616253Y11573921D02*
D03*
X1628953Y11573921D02*
D03*
X1641653Y11573921D02*
D03*
G54D17*
X2819375Y11493378D02*
D03*
X2819375Y11515857D02*
D03*
X2847874Y11493378D02*
D03*
X2847874Y11515857D02*
D03*
X2876728Y11493707D02*
D03*
X2876728Y11516212D02*
D03*
X2800477Y11599930D02*
D03*
X2800477Y11622410D02*
D03*
X2841803Y10930336D02*
D03*
X2841803Y10952841D02*
D03*
X2213153Y10339786D02*
D03*
X2213153Y10362290D02*
D03*
X2848153Y10212786D02*
D03*
X2848153Y10235290D02*
D03*
X1625778Y11463735D02*
D03*
X1625778Y11486240D02*
D03*
X1663878Y11463735D02*
D03*
X1663878Y11486240D02*
D03*
X2232203Y10339786D02*
D03*
X2232203Y10362290D02*
D03*
X2232203Y12022535D02*
D03*
X2232203Y12045040D02*
D03*
X1648003Y10441385D02*
D03*
X1648003Y10463890D02*
D03*
X2232203Y10930336D02*
D03*
X2232203Y10952841D02*
D03*
X2886253Y10212786D02*
D03*
X2886253Y10235290D02*
D03*
X2244903Y11489136D02*
D03*
X2244903Y11511641D02*
D03*
X2251253Y10930336D02*
D03*
X2251253Y10952841D02*
D03*
X2860853Y10930336D02*
D03*
X2860853Y10952841D02*
D03*
X2867203Y10212786D02*
D03*
X2867203Y10235290D02*
D03*
X2251253Y10339786D02*
D03*
X2251253Y10362290D02*
D03*
X2225853Y11489136D02*
D03*
X2225853Y11511641D02*
D03*
X1628953Y10441385D02*
D03*
X1628953Y10463890D02*
D03*
X2270303Y10930336D02*
D03*
X2270303Y10952841D02*
D03*
X1667053Y10441385D02*
D03*
X1667053Y10463890D02*
D03*
X2270303Y12022535D02*
D03*
X2270303Y12045040D02*
D03*
X1644828Y11463735D02*
D03*
X1644828Y11486240D02*
D03*
X2879903Y10930336D02*
D03*
X2879903Y10952841D02*
D03*
X2251253Y12022535D02*
D03*
X2251253Y12045040D02*
D03*
X2263953Y11489136D02*
D03*
X2263953Y11511641D02*
D03*
X1641653Y10930336D02*
D03*
X1641653Y10952841D02*
D03*
X1622603Y10930336D02*
D03*
X1622603Y10952841D02*
D03*
X1660703Y10930336D02*
D03*
X1660703Y10952841D02*
D03*
G54D18*
X2649880Y11578417D02*
D03*
X2627376Y11578417D02*
D03*
X2532812Y11529928D02*
D03*
X2510333Y11529928D02*
D03*
X2684501Y10998738D02*
D03*
X2707005Y10998738D02*
D03*
X2218055Y10525663D02*
D03*
X2195551Y10525663D02*
D03*
X2074901Y10998738D02*
D03*
X2097405Y10998738D02*
D03*
X1421130Y10519313D02*
D03*
X1398626Y10519313D02*
D03*
X2046326Y10401838D02*
D03*
X2068830Y10401838D02*
D03*
X1868526Y10366913D02*
D03*
X1891030Y10366913D02*
D03*
X2243455Y12163962D02*
D03*
X2220951Y12163962D02*
D03*
X2503526Y10239913D02*
D03*
X2526030Y10239913D02*
D03*
X2104746Y11532137D02*
D03*
X2082241Y11532137D02*
D03*
X1462126Y10503438D02*
D03*
X1484630Y10503438D02*
D03*
X1474826Y11532137D02*
D03*
X1497330Y11532137D02*
D03*
X1633855Y11601989D02*
D03*
X1611351Y11601989D02*
D03*
X1510030Y11503563D02*
D03*
X1487526Y11503563D02*
D03*
X2078076Y12090938D02*
D03*
X2100580Y12090938D02*
D03*
X1938376Y11532137D02*
D03*
X1960880Y11532137D02*
D03*
X1611351Y11068588D02*
D03*
X1633855Y11068588D02*
D03*
X2113280Y12065538D02*
D03*
X2090776Y12065538D02*
D03*
X1335126Y10973337D02*
D03*
X1357630Y10973337D02*
D03*
X2005330Y10417712D02*
D03*
X1982826Y10417712D02*
D03*
X1284326Y10468513D02*
D03*
X1306830Y10468513D02*
D03*
X1501496Y10973337D02*
D03*
X1478991Y10973337D02*
D03*
X2068551Y11557538D02*
D03*
X2091055Y11557538D02*
D03*
X2853055Y10398663D02*
D03*
X2830551Y10398663D02*
D03*
X1944726Y12065538D02*
D03*
X1967230Y12065538D02*
D03*
X2681326Y10274838D02*
D03*
X2703830Y10274838D02*
D03*
X2720695Y10973337D02*
D03*
X2698191Y10973337D02*
D03*
X2111096Y10973337D02*
D03*
X2088591Y10973337D02*
D03*
X2554326Y10973337D02*
D03*
X2576830Y10973337D02*
D03*
X1944726Y10973337D02*
D03*
X1967230Y10973337D02*
D03*
X2220951Y11068588D02*
D03*
X2243455Y11068588D02*
D03*
X1465301Y10998738D02*
D03*
X1487805Y10998738D02*
D03*
X2214601Y11627388D02*
D03*
X2237105Y11627388D02*
D03*
X1611351Y10627263D02*
D03*
X1633855Y10627263D02*
D03*
X1331951Y11503563D02*
D03*
X1354455Y11503563D02*
D03*
X2640330Y10290713D02*
D03*
X2617826Y10290713D02*
D03*
X2830551Y11068588D02*
D03*
X2853055Y11068588D02*
D03*
G54D19*
X2283638Y11141613D02*
D03*
X2180742Y11141613D02*
D03*
G54D20*
X2889326Y11553474D02*
D03*
X2458822Y11655430D02*
D03*
X1241603Y10903488D02*
D03*
D03*
X1686103Y11436888D02*
D03*
D03*
X1241603Y11436888D02*
D03*
D03*
X1803578Y10316113D02*
D03*
D03*
X1219378Y10417712D02*
D03*
D03*
X1803578Y10493914D02*
D03*
D03*
X1851203Y10903488D02*
D03*
D03*
X1140003Y10119263D02*
D03*
D03*
X2968803Y10119263D02*
D03*
D03*
X2905303Y10189113D02*
D03*
D03*
X1851203Y12141738D02*
D03*
D03*
X2460803Y10903488D02*
D03*
D03*
X1851203Y11995688D02*
D03*
D03*
X2289353Y11462288D02*
D03*
D03*
X2438578Y10366913D02*
D03*
D03*
X1241603Y11592463D02*
D03*
D03*
X2438578Y10189113D02*
D03*
D03*
X1844853Y11462288D02*
D03*
D03*
X2295703Y11995688D02*
D03*
D03*
X2270303Y10316113D02*
D03*
D03*
X1686103Y10417712D02*
D03*
D03*
X1219378Y10595513D02*
D03*
D03*
X1140003Y12430663D02*
D03*
D03*
X1686103Y10903488D02*
D03*
D03*
X2460803Y11049539D02*
D03*
D03*
X1851203Y11049539D02*
D03*
D03*
X2295703Y10903488D02*
D03*
D03*
X1241603Y11049539D02*
D03*
D03*
X1844853Y11608337D02*
D03*
D03*
X2905303Y10903488D02*
D03*
D03*
X2462962Y11490812D02*
D03*
G54D38*
X2205203Y10542833D02*
D03*
X2205203Y10590840D02*
D03*
M02*
