%FSLAX44Y44*%
%MOMM*%
G71*
G01*
G75*
G04 Layer_Color=16711935*
%ADD10O,0.6101X2.0320*%
%ADD11O,0.6096X2.0320*%
%ADD12O,0.3000X0.9901*%
%ADD13R,0.3000X0.9901*%
%ADD14C,0.3000*%
%ADD15C,0.5999*%
%ADD16R,0.5100X2.0201*%
%ADD17R,1.4501X1.2499*%
%ADD18R,1.2499X1.4501*%
%ADD19R,3.0000X2.8001*%
%ADD20C,1.5001*%
%ADD21C,0.5001*%
%ADD22C,0.3000*%
%ADD23C,0.5999*%
%ADD24C,0.3010*%
%ADD25C,0.4001*%
%ADD26C,0.3099*%
%ADD27C,0.1501*%
%ADD28C,1.0000*%
%ADD29C,0.3500*%
%ADD30C,0.1999*%
%ADD31C,0.7000*%
%ADD32C,1.0000*%
%ADD33O,1.5001X2.0000*%
%ADD34C,0.6000*%
%ADD35C,0.0201*%
%ADD36C,0.2540*%
%ADD37C,0.1270*%
%ADD38C,0.0000*%
%ADD39O,0.8133X2.2352*%
%ADD40O,0.8128X2.2352*%
%ADD41O,0.5032X1.1933*%
%ADD42R,0.5032X1.1933*%
%ADD43C,0.5032*%
%ADD44C,0.8032*%
%ADD45R,0.7099X2.2200*%
%ADD46R,1.6500X1.4498*%
%ADD47R,1.4501X1.6502*%
%ADD48R,3.1999X3.0000*%
%ADD49C,2.5001*%
%ADD50C,1.1999*%
%ADD51C,1.2032*%
%ADD52C,0.5499*%
%ADD53O,1.7033X2.2032*%
%ADD54O,1.7033X2.2032*%
%ADD55C,0.2001*%
%ADD56C,0.2032*%
%ADD57C,1.7272*%
G54D31*
X2889123Y11478773D02*
D03*
X2449932Y11673972D02*
D03*
X2498725Y11673972D02*
D03*
X2889123Y11576360D02*
D03*
X2889123Y11527566D02*
D03*
X2889123Y11625178D02*
D03*
X2889123Y11673972D02*
D03*
X2784678Y11623756D02*
D03*
X2582316Y11611970D02*
D03*
X2531516Y11611361D02*
D03*
X2762529Y11593174D02*
D03*
X2645131Y11673972D02*
D03*
X2596312Y11673972D02*
D03*
X2547518Y11673972D02*
D03*
X2742717Y11673972D02*
D03*
X2791511Y11673972D02*
D03*
X2693924Y11673972D02*
D03*
X2449932Y11625178D02*
D03*
X2449932Y11527566D02*
D03*
X2449932Y11576360D02*
D03*
X2840330Y11478773D02*
D03*
X2693924Y11478773D02*
D03*
X2791511Y11478773D02*
D03*
X2742717Y11478773D02*
D03*
X2547518Y11478773D02*
D03*
X2596312Y11478773D02*
D03*
X2645131Y11478773D02*
D03*
X2745029Y11534221D02*
D03*
X2795422Y11568409D02*
D03*
X2543124Y11541968D02*
D03*
X2638273Y11536812D02*
D03*
X2493518Y11542374D02*
D03*
X2841930Y11650375D02*
D03*
X2853182Y11650476D02*
D03*
X2847823Y11643060D02*
D03*
X2820111Y11666631D02*
D03*
X2874874Y11667672D02*
D03*
X2820467Y11648521D02*
D03*
X2875559Y11647124D02*
D03*
X2645562Y11650222D02*
D03*
X2498725Y11478773D02*
D03*
X2449932Y11478773D02*
D03*
G54D43*
X2208403Y10542833D02*
D03*
X2208378Y10590840D02*
D03*
G54D50*
X2583129Y11543162D02*
D03*
X2866212Y11541765D02*
D03*
X2820771Y11787129D02*
D03*
X1641653Y11503563D02*
D03*
X1616253Y11589288D02*
D03*
X1594790Y11691014D02*
D03*
G54D51*
X2825928Y11705773D02*
D03*
X1279703Y10566938D02*
D03*
X1232078Y10614563D02*
D03*
X1232078Y10519313D02*
D03*
X1308278Y10500262D02*
D03*
X1422578Y10614563D02*
D03*
X1517828Y10424062D02*
D03*
X1470203Y10566938D02*
D03*
X1517828Y10614563D02*
D03*
X1374953Y10566938D02*
D03*
X1565453Y10566938D02*
D03*
X1327328Y10566938D02*
D03*
X1422578Y10424062D02*
D03*
X1565453Y10614563D02*
D03*
X1279703Y10614563D02*
D03*
X1232078Y10566938D02*
D03*
X1279703Y10424062D02*
D03*
X1660703Y10614563D02*
D03*
X1660703Y10519313D02*
D03*
X1660703Y10566938D02*
D03*
X1422578Y10566938D02*
D03*
X1565453Y10424062D02*
D03*
X1613078Y10424062D02*
D03*
X1470203Y10614563D02*
D03*
X1374953Y10424062D02*
D03*
X1327328Y10424062D02*
D03*
X2244903Y11528962D02*
D03*
X2860853Y10970164D02*
D03*
X1327328Y10614563D02*
D03*
X1232078Y10471688D02*
D03*
X1641653Y10970164D02*
D03*
X2860853Y10255789D02*
D03*
X2225853Y10382788D02*
D03*
X2251253Y10970164D02*
D03*
X1641653Y10484388D02*
D03*
X2251253Y12065538D02*
D03*
X1374953Y10614563D02*
D03*
X1517828Y10566938D02*
D03*
X1470203Y10424062D02*
D03*
X1517828Y10481213D02*
D03*
X1422578Y10481213D02*
D03*
X2594153Y10195463D02*
D03*
X2546528Y10195463D02*
D03*
X2784653Y10195463D02*
D03*
X2689403Y10385963D02*
D03*
X1270178Y10503438D02*
D03*
X1568628Y10481213D02*
D03*
X1374953Y10468513D02*
D03*
X2527478Y10271663D02*
D03*
X2498903Y10195463D02*
D03*
X2737028Y10195463D02*
D03*
X2451278Y10243088D02*
D03*
X2784653Y10385963D02*
D03*
X2784653Y10338337D02*
D03*
X2546528Y10338337D02*
D03*
X2546528Y10385963D02*
D03*
X2594153Y10338337D02*
D03*
X2594153Y10385963D02*
D03*
X2641778Y10338337D02*
D03*
X2205406Y12221163D02*
D03*
X2225853Y12148088D02*
D03*
X2232203Y10525663D02*
D03*
X2206803Y10601863D02*
D03*
X2848153Y10430413D02*
D03*
X2733853Y10519313D02*
D03*
X2641778Y10385963D02*
D03*
X2641778Y10195463D02*
D03*
X2737028Y10385963D02*
D03*
X2737028Y10338337D02*
D03*
X2498903Y10385963D02*
D03*
X2498903Y10338337D02*
D03*
X2451278Y10290713D02*
D03*
X2689403Y10195463D02*
D03*
X2832278Y10195463D02*
D03*
X2879903Y10290713D02*
D03*
X2879903Y10338337D02*
D03*
X2879903Y10385963D02*
D03*
X2451278Y10385963D02*
D03*
X2451278Y10338337D02*
D03*
X2787828Y10252614D02*
D03*
X2489378Y10278013D02*
D03*
X2594153Y10239913D02*
D03*
X2641778Y10252614D02*
D03*
X2737028Y10252614D02*
D03*
X1965503Y12087762D02*
D03*
X1882953Y12081414D02*
D03*
X2105203Y12144913D02*
D03*
X2009953Y12144913D02*
D03*
X1927403Y12017913D02*
D03*
X2213153Y12017913D02*
D03*
X2054403Y12144913D02*
D03*
X2194103Y12144913D02*
D03*
X1978203Y12017913D02*
D03*
X2283003Y12132213D02*
D03*
X1965503Y12144913D02*
D03*
X1927403Y12144913D02*
D03*
X2079803Y12017913D02*
D03*
X1882953Y12132213D02*
D03*
X2130603Y12017913D02*
D03*
X2181403Y12017913D02*
D03*
X2283003Y12081414D02*
D03*
X2029003Y12017913D02*
D03*
X2149653Y12144913D02*
D03*
X1882953Y12030613D02*
D03*
X2225853Y11697238D02*
D03*
X2689403Y10338337D02*
D03*
X2041703Y12068713D02*
D03*
X2143303Y12081414D02*
D03*
X2181403Y12081414D02*
D03*
X2003603Y12056013D02*
D03*
X1927403Y12090938D02*
D03*
X1965503Y10995563D02*
D03*
X2213153Y10919363D02*
D03*
X1927403Y11059062D02*
D03*
X1882953Y10995563D02*
D03*
X1927403Y10919363D02*
D03*
X1978203Y10919363D02*
D03*
X2149653Y11059062D02*
D03*
X2283003Y11046364D02*
D03*
X2009953Y11059062D02*
D03*
X2130603Y10919363D02*
D03*
X2105203Y11059062D02*
D03*
X1882953Y11046364D02*
D03*
X2079803Y10919363D02*
D03*
X2054403Y11059062D02*
D03*
X2283003Y10995563D02*
D03*
X2181403Y10919363D02*
D03*
X2029003Y10919363D02*
D03*
X2194103Y11059062D02*
D03*
X1882953Y10944763D02*
D03*
X1965503Y11059062D02*
D03*
X2181403Y10989213D02*
D03*
X2041703Y10976512D02*
D03*
X2143303Y10989213D02*
D03*
X2003603Y10963813D02*
D03*
X1927403Y10995563D02*
D03*
X1355903Y11528962D02*
D03*
X1457503Y11452762D02*
D03*
X1305103Y11452762D02*
D03*
X1355903Y11586113D02*
D03*
X1273353Y11516263D02*
D03*
X1508303Y11452762D02*
D03*
X1660703Y11567063D02*
D03*
X1355903Y11452762D02*
D03*
X1609903Y11452762D02*
D03*
X1660703Y11516263D02*
D03*
X1317803Y11586113D02*
D03*
X1578153Y11586113D02*
D03*
X1273353Y11465463D02*
D03*
X1394003Y11586113D02*
D03*
X1559103Y11452762D02*
D03*
X1406703Y11452762D02*
D03*
X1476553Y11586113D02*
D03*
X1432103Y11586113D02*
D03*
X1317803Y11528962D02*
D03*
X1394003Y11503563D02*
D03*
X1578153Y11522614D02*
D03*
X1540053Y11522614D02*
D03*
X1432103Y11503563D02*
D03*
X1584503Y11059062D02*
D03*
X1317803Y10995563D02*
D03*
X1317803Y10919363D02*
D03*
X1571803Y10919363D02*
D03*
X1419403Y10919363D02*
D03*
X1273353Y10995563D02*
D03*
X1317803Y11059062D02*
D03*
X1470203Y10919363D02*
D03*
X1673403Y11046364D02*
D03*
X1444803Y11059062D02*
D03*
X1368603Y10919363D02*
D03*
X1521003Y10919363D02*
D03*
X1495603Y11059062D02*
D03*
X1540053Y11059062D02*
D03*
X1273353Y11046364D02*
D03*
X1400353Y11059062D02*
D03*
X1273353Y10944763D02*
D03*
X1355903Y11059062D02*
D03*
X1355903Y10995563D02*
D03*
X1533703Y10989213D02*
D03*
X1394003Y10963813D02*
D03*
X1432103Y10976512D02*
D03*
X1571803Y10989213D02*
D03*
X1673403Y10995563D02*
D03*
X1603553Y10919363D02*
D03*
X2575103Y10995563D02*
D03*
X2791003Y10989213D02*
D03*
X2651303Y10976512D02*
D03*
X2587803Y10919363D02*
D03*
X2822753Y10919363D02*
D03*
X2892603Y10995563D02*
D03*
X2537003Y10919363D02*
D03*
X2537003Y11059062D02*
D03*
X2759253Y11059062D02*
D03*
X2492553Y10995563D02*
D03*
X2638603Y10919363D02*
D03*
X2689403Y10919363D02*
D03*
X2492553Y10944763D02*
D03*
X2575103Y11059062D02*
D03*
X2892603Y11046364D02*
D03*
X2714803Y11059062D02*
D03*
X2740203Y10919363D02*
D03*
X2791003Y10919363D02*
D03*
X2492553Y11046364D02*
D03*
X2803703Y11059062D02*
D03*
X2664003Y11059062D02*
D03*
X2619553Y11059062D02*
D03*
X2752903Y10989213D02*
D03*
X2613203Y10963813D02*
D03*
X2537003Y10995563D02*
D03*
X1892478Y10398663D02*
D03*
X1911528Y10322463D02*
D03*
X2149653Y10512963D02*
D03*
X2149653Y10465338D02*
D03*
X1959153Y10322463D02*
D03*
X1863903Y10465338D02*
D03*
X1863903Y10512963D02*
D03*
X2006778Y10512963D02*
D03*
X2102028Y10512963D02*
D03*
X2006778Y10465338D02*
D03*
X2054403Y10322463D02*
D03*
X2102028Y10465338D02*
D03*
X1816278Y10417712D02*
D03*
X1959153Y10512963D02*
D03*
X1816278Y10512963D02*
D03*
X1816278Y10370088D02*
D03*
X1959153Y10465338D02*
D03*
X2149653Y10322463D02*
D03*
X1816278Y10465338D02*
D03*
X1600378Y10627263D02*
D03*
X2197278Y10322463D02*
D03*
X1911528Y10465338D02*
D03*
X1911528Y10512963D02*
D03*
X2102028Y10322463D02*
D03*
X2054403Y10465338D02*
D03*
X2006778Y10322463D02*
D03*
X1863903Y10322463D02*
D03*
X2244903Y10465338D02*
D03*
X2244903Y10512963D02*
D03*
X2244903Y10417712D02*
D03*
X2152828Y10379613D02*
D03*
X1959153Y10366913D02*
D03*
X2102028Y10379613D02*
D03*
X1854378Y10401838D02*
D03*
X2006778Y10379613D02*
D03*
X2143303Y11611512D02*
D03*
X2003603Y11611512D02*
D03*
X2124253Y11484513D02*
D03*
X1921053Y11611512D02*
D03*
X2054403Y10512963D02*
D03*
X2206803Y11484513D02*
D03*
X2022653Y11484513D02*
D03*
X1971853Y11484513D02*
D03*
X2187753Y11611512D02*
D03*
X2073453Y11484513D02*
D03*
X1876603Y11598813D02*
D03*
X1921053Y11484513D02*
D03*
X2276653Y11548013D02*
D03*
X1876603Y11548013D02*
D03*
X1997253Y11522614D02*
D03*
X2136953Y11548013D02*
D03*
X2035353Y11535312D02*
D03*
X2175053Y11548013D02*
D03*
X1959153Y11611512D02*
D03*
X2276653Y11598813D02*
D03*
X2048053Y11611512D02*
D03*
X1921053Y11554363D02*
D03*
X2175053Y11484513D02*
D03*
X2098853Y11611512D02*
D03*
X1959153Y11554363D02*
D03*
X1876603Y11497213D02*
D03*
X2232203Y11614688D02*
D03*
X1273353Y11567063D02*
D03*
G54D52*
X1271727Y10639938D02*
D03*
X1276807Y10645017D02*
D03*
X1271727Y10650098D02*
D03*
X1276807Y10655177D02*
D03*
X1271727Y10660258D02*
D03*
X1276807Y10665338D02*
D03*
X1271727Y10670417D02*
D03*
X1276807Y10675498D02*
D03*
X1271727Y10680577D02*
D03*
X1276807Y10685658D02*
D03*
X1271727Y10690737D02*
D03*
X1276807Y10695818D02*
D03*
X1271727Y10700897D02*
D03*
X1276807Y10705978D02*
D03*
X1271727Y10711057D02*
D03*
X1276807Y10716138D02*
D03*
X1271727Y10721217D02*
D03*
X1276807Y10726399D02*
D03*
X1271727Y10731378D02*
D03*
X1276807Y10736458D02*
D03*
X1271727Y10741538D02*
D03*
X1276807Y10746617D02*
D03*
X1271727Y10751698D02*
D03*
X1276807Y10756777D02*
D03*
X1271727Y10761858D02*
D03*
X1276807Y10766937D02*
D03*
X1559636Y10766937D02*
D03*
X1554556Y10761858D02*
D03*
X1559636Y10756777D02*
D03*
X1554556Y10751698D02*
D03*
X1559636Y10746617D02*
D03*
X1554556Y10741538D02*
D03*
X1559636Y10736458D02*
D03*
X1554556Y10731479D02*
D03*
X1559636Y10726298D02*
D03*
X1554556Y10721217D02*
D03*
X1559636Y10716138D02*
D03*
X1554556Y10711057D02*
D03*
X1559636Y10705978D02*
D03*
X1554556Y10700897D02*
D03*
X1559636Y10695818D02*
D03*
X1554556Y10690737D02*
D03*
X1559636Y10685658D02*
D03*
X1554556Y10680577D02*
D03*
X1559636Y10675498D02*
D03*
X1554556Y10670417D02*
D03*
X1559636Y10665338D02*
D03*
X1554556Y10660258D02*
D03*
X1559636Y10655177D02*
D03*
X1554556Y10650098D02*
D03*
X1559636Y10645017D02*
D03*
X1554556Y10639938D02*
D03*
X1276807Y10634857D02*
D03*
X1559687Y10634730D02*
D03*
G54D53*
X2481682Y11576207D02*
D03*
X2507082Y11576207D02*
D03*
X2557882Y11576207D02*
D03*
X2583282Y11576207D02*
D03*
X2532482Y11576207D02*
D03*
X2736520Y11578264D02*
D03*
X2711120Y11578264D02*
D03*
X2685720Y11578264D02*
D03*
G54D54*
X1460678Y10532013D02*
D03*
X1486078Y10532013D02*
D03*
X1511478Y10532013D02*
D03*
X2068093Y11586113D02*
D03*
X2093493Y11586113D02*
D03*
X2118893Y11586113D02*
D03*
X1305103Y11027313D02*
D03*
X1330503Y11027313D02*
D03*
X1355903Y11027313D02*
D03*
X1381303Y11027313D02*
D03*
X1406703Y11027313D02*
D03*
X1305103Y11560713D02*
D03*
X1330503Y11560713D02*
D03*
X1355903Y11560713D02*
D03*
X1381303Y11560713D02*
D03*
X1406703Y11560713D02*
D03*
X1908353Y11586113D02*
D03*
X1933753Y11586113D02*
D03*
X1959153Y11586113D02*
D03*
X1984553Y11586113D02*
D03*
X2009953Y11586113D02*
D03*
X1841678Y10430413D02*
D03*
X1867078Y10430413D02*
D03*
X1892478Y10430413D02*
D03*
X1917878Y10430413D02*
D03*
X1943278Y10430413D02*
D03*
X2476678Y10303413D02*
D03*
X2502078Y10303413D02*
D03*
X2527478Y10303413D02*
D03*
X2552878Y10303413D02*
D03*
X2578278Y10303413D02*
D03*
X2076628Y12119513D02*
D03*
X2102028Y12119513D02*
D03*
X2127428Y12119513D02*
D03*
X1257478Y10532013D02*
D03*
X1282878Y10532013D02*
D03*
X1308278Y10532013D02*
D03*
X1333678Y10532013D02*
D03*
X1359078Y10532013D02*
D03*
X2074443Y11027313D02*
D03*
X2099843Y11027313D02*
D03*
X2125243Y11027313D02*
D03*
X2044878Y10430413D02*
D03*
X2070278Y10430413D02*
D03*
X2095678Y10430413D02*
D03*
X2524303Y11027313D02*
D03*
X2549703Y11027313D02*
D03*
X2575103Y11027313D02*
D03*
X2600503Y11027313D02*
D03*
X2625903Y11027313D02*
D03*
X2679878Y10303413D02*
D03*
X2705278Y10303413D02*
D03*
X2730678Y10303413D02*
D03*
X1473378Y11560713D02*
D03*
X1498778Y11560713D02*
D03*
X1524178Y11560713D02*
D03*
X1914703Y11027313D02*
D03*
X1940103Y11027313D02*
D03*
X1965503Y11027313D02*
D03*
X1990903Y11027313D02*
D03*
X2016303Y11027313D02*
D03*
X1914703Y12119513D02*
D03*
X1940103Y12119513D02*
D03*
X1965503Y12119513D02*
D03*
X1990903Y12119513D02*
D03*
X2016303Y12119513D02*
D03*
X2684043Y11027313D02*
D03*
X2709443Y11027313D02*
D03*
X2734843Y11027313D02*
D03*
X1464843Y11027313D02*
D03*
X1490243Y11027313D02*
D03*
X1515643Y11027313D02*
D03*
G54D55*
X1804498Y11639382D02*
D03*
X1804498Y11649410D02*
D03*
X1804415Y11659355D02*
D03*
X1804498Y11669301D02*
D03*
X1459980Y10400458D02*
D03*
X1449858Y10400403D02*
D03*
X1439792Y10400458D02*
D03*
X1429725Y10400621D02*
D03*
X1194811Y10572747D02*
D03*
X1194894Y10582772D02*
D03*
X1194811Y10592799D02*
D03*
X1194853Y10602784D02*
D03*
X1694915Y10572698D02*
D03*
X1694815Y10582736D02*
D03*
X1694815Y10592773D02*
D03*
X1694865Y10602761D02*
D03*
X1773668Y10516956D02*
D03*
X1773784Y10527057D02*
D03*
X1773726Y10537100D02*
D03*
X1773668Y10546969D02*
D03*
X2067861Y10289315D02*
D03*
X2057756Y10289315D02*
D03*
X2047896Y10289315D02*
D03*
X2037791Y10289376D02*
D03*
X2678996Y10162352D02*
D03*
X2669039Y10162352D02*
D03*
X2658936Y10162352D02*
D03*
X2649077Y10162352D02*
D03*
X2415023Y10453610D02*
D03*
X2415071Y10463534D02*
D03*
X2415023Y10473553D02*
D03*
X2415023Y10483573D02*
D03*
X2331976Y10517061D02*
D03*
X2331976Y10526937D02*
D03*
X2332072Y10537103D02*
D03*
X2331976Y10547029D02*
D03*
X2913018Y10453567D02*
D03*
X2913108Y10463362D02*
D03*
X2913198Y10473606D02*
D03*
X2913108Y10483490D02*
D03*
X2679183Y10774685D02*
D03*
X2669028Y10774685D02*
D03*
X2659054Y10774685D02*
D03*
X2649080Y10774596D02*
D03*
X2067970Y10774589D02*
D03*
X2057906Y10774589D02*
D03*
X2047752Y10774678D02*
D03*
X2037867Y10774768D02*
D03*
X2069361Y10883025D02*
D03*
X2059497Y10882906D02*
D03*
X2049633Y10883143D02*
D03*
X2039413Y10883143D02*
D03*
X1459899Y10883148D02*
D03*
X1449772Y10883148D02*
D03*
X1429931Y10883148D02*
D03*
X2304588Y11080586D02*
D03*
X2304517Y11090673D02*
D03*
X2304517Y11100549D02*
D03*
X2304447Y11110566D02*
D03*
X2679150Y10883092D02*
D03*
X2669074Y10883092D02*
D03*
X2658997Y10883092D02*
D03*
X2649000Y10883092D02*
D03*
X2914120Y11080681D02*
D03*
X2914120Y11090551D02*
D03*
X2914120Y11100605D02*
D03*
X2914059Y11110597D02*
D03*
X2414051Y11080582D02*
D03*
X2414095Y11090626D02*
D03*
X2414051Y11100581D02*
D03*
X2414051Y11110580D02*
D03*
X2679149Y11308163D02*
D03*
X2669177Y11308029D02*
D03*
X2658938Y11308096D02*
D03*
X2648899Y11308096D02*
D03*
X2685911Y11445736D02*
D03*
X2675930Y11445779D02*
D03*
X2665863Y11445822D02*
D03*
X2655882Y11445779D02*
D03*
X2069442Y11308073D02*
D03*
X2059525Y11308073D02*
D03*
X2049460Y11308073D02*
D03*
X2039345Y11308073D02*
D03*
X2069618Y11441801D02*
D03*
X2059424Y11441921D02*
D03*
X2049350Y11442041D02*
D03*
X2039277Y11441921D02*
D03*
X1804567Y11110564D02*
D03*
X1804426Y11100435D02*
D03*
X1804285Y11090586D02*
D03*
X1804426Y11080737D02*
D03*
X1694825Y11080597D02*
D03*
X1694825Y11090586D02*
D03*
X1694825Y11100435D02*
D03*
X1694684Y11110564D02*
D03*
X1194771Y11080616D02*
D03*
X1194820Y11090591D02*
D03*
X1194869Y11100664D02*
D03*
X1194820Y11110638D02*
D03*
X1459870Y11308074D02*
D03*
X1449955Y11308074D02*
D03*
X1440041Y11308074D02*
D03*
X1459870Y11416566D02*
D03*
X1449955Y11416426D02*
D03*
X1439899Y11416426D02*
D03*
X1429985Y11416426D02*
D03*
X1194888Y11892621D02*
D03*
X1194888Y11902780D02*
D03*
X1194793Y11912559D02*
D03*
X1194793Y11922622D02*
D03*
X1694818Y11892748D02*
D03*
X1694876Y11902697D02*
D03*
X1694818Y11912705D02*
D03*
X1694818Y11922712D02*
D03*
X1804382Y12172767D02*
D03*
X1804537Y12182728D02*
D03*
X1804382Y12192844D02*
D03*
X1804537Y12202805D02*
D03*
X2069515Y11866954D02*
D03*
X2059364Y11866820D02*
D03*
X2049484Y11866820D02*
D03*
X2039468Y11866820D02*
D03*
X2039468Y11975283D02*
D03*
X2049484Y11975283D02*
D03*
X2059447Y11975089D02*
D03*
X2417927Y11906520D02*
D03*
X2417986Y11916469D02*
D03*
X2417927Y11926536D02*
D03*
X2417986Y11936484D02*
D03*
X2304448Y12172872D02*
D03*
X2304448Y12182753D02*
D03*
X2304313Y12192769D02*
D03*
X2304448Y12202784D02*
D03*
X2923755Y11906361D02*
D03*
X2923873Y11916366D02*
D03*
X2923873Y11926371D02*
D03*
X2923873Y11936493D02*
D03*
X2685847Y12397134D02*
D03*
X2675953Y12397236D02*
D03*
X2665854Y12397134D02*
D03*
X2655754Y12397236D02*
D03*
X2069482Y12400270D02*
D03*
X2059439Y12400270D02*
D03*
X2049552Y12400270D02*
D03*
X2039510Y12400193D02*
D03*
X1459905Y12398868D02*
D03*
X1449905Y12398868D02*
D03*
X1439810Y12398862D02*
D03*
X1429842Y12398862D02*
D03*
G54D56*
X2069739Y11975295D02*
D03*
G54D57*
X2009112Y11490526D02*
D03*
D03*
M02*
