%FSLAX43Y43*%
%MOMM*%
G71*
G01*
G75*
G04 Layer_Physical_Order=1*
G04 Layer_Color=255*
%ADD10C,0.381*%
%ADD11C,11.500*%
%ADD12C,3.000*%
%ADD13C,0.800*%
G36*
X49250Y49784D02*
X49125Y49759D01*
X49043Y49958D01*
X48898Y50148D01*
X48708Y50293D01*
X48487Y50385D01*
X48250Y50416D01*
X48013Y50385D01*
X47792Y50293D01*
X47625Y50165D01*
X47458Y50293D01*
X47237Y50385D01*
X47000Y50416D01*
X46763Y50385D01*
X46542Y50293D01*
X46427Y50205D01*
X41250D01*
X41068Y50181D01*
X41024Y50163D01*
X41000Y50166D01*
X40763Y50135D01*
X40542Y50043D01*
X40352Y49898D01*
X40207Y49708D01*
X40115Y49487D01*
X40084Y49250D01*
X40115Y49013D01*
X40207Y48792D01*
X40352Y48602D01*
X40542Y48457D01*
X40763Y48365D01*
X41000Y48334D01*
X41237Y48365D01*
X41458Y48457D01*
X41648Y48602D01*
X41793Y48792D01*
X41795Y48795D01*
X44879D01*
X44949Y48690D01*
X44865Y48487D01*
X44834Y48250D01*
X44865Y48013D01*
X44957Y47792D01*
X45102Y47602D01*
X45292Y47457D01*
X45513Y47365D01*
X45530Y47363D01*
X45565Y47241D01*
X45538Y47219D01*
X45287Y46913D01*
X45101Y46564D01*
X44986Y46186D01*
X44947Y45792D01*
X44986Y45399D01*
X45101Y45020D01*
X45287Y44671D01*
X45538Y44365D01*
X45844Y44115D01*
X46193Y43928D01*
X46571Y43813D01*
X46965Y43774D01*
X47359Y43813D01*
X47737Y43928D01*
X48086Y44115D01*
X48392Y44365D01*
X48643Y44671D01*
X48829Y45020D01*
X48944Y45399D01*
X48983Y45792D01*
X48944Y46186D01*
X48829Y46564D01*
X48643Y46913D01*
X48392Y47219D01*
X48086Y47470D01*
X47737Y47656D01*
X47599Y47698D01*
X47568Y47822D01*
X48343Y48596D01*
X48487Y48615D01*
X48708Y48707D01*
X48898Y48852D01*
X49043Y49042D01*
X49125Y49241D01*
X49250Y49216D01*
Y750D01*
X750D01*
Y78227D01*
X49250D01*
Y49784D01*
D02*
G37*
%LPC*%
G36*
X46965Y34018D02*
X46571Y33979D01*
X46193Y33864D01*
X45844Y33678D01*
X45538Y33427D01*
X45287Y33121D01*
X45101Y32772D01*
X44986Y32394D01*
X44947Y32000D01*
X44986Y31606D01*
X45101Y31228D01*
X45287Y30879D01*
X45538Y30573D01*
X45844Y30322D01*
X46193Y30136D01*
X46571Y30021D01*
X46965Y29982D01*
X47359Y30021D01*
X47737Y30136D01*
X48086Y30322D01*
X48392Y30573D01*
X48643Y30879D01*
X48829Y31228D01*
X48944Y31606D01*
X48983Y32000D01*
X48944Y32394D01*
X48829Y32772D01*
X48643Y33121D01*
X48392Y33427D01*
X48086Y33678D01*
X47737Y33864D01*
X47359Y33979D01*
X46965Y34018D01*
D02*
G37*
G36*
X41250D02*
X40856Y33979D01*
X40478Y33864D01*
X40129Y33678D01*
X39823Y33427D01*
X39572Y33121D01*
X39386Y32772D01*
X39271Y32394D01*
X39232Y32000D01*
X39271Y31606D01*
X39386Y31228D01*
X39572Y30879D01*
X39823Y30573D01*
X40129Y30322D01*
X40478Y30136D01*
X40856Y30021D01*
X41250Y29982D01*
X41644Y30021D01*
X42022Y30136D01*
X42371Y30322D01*
X42677Y30573D01*
X42928Y30879D01*
X43114Y31228D01*
X43229Y31606D01*
X43268Y32000D01*
X43229Y32394D01*
X43114Y32772D01*
X42928Y33121D01*
X42677Y33427D01*
X42371Y33678D01*
X42022Y33864D01*
X41644Y33979D01*
X41250Y34018D01*
D02*
G37*
G36*
Y38615D02*
X40856Y38576D01*
X40478Y38462D01*
X40129Y38275D01*
X39823Y38024D01*
X39572Y37718D01*
X39386Y37370D01*
X39271Y36991D01*
X39232Y36597D01*
X39271Y36204D01*
X39386Y35825D01*
X39572Y35476D01*
X39823Y35171D01*
X40129Y34920D01*
X40478Y34733D01*
X40856Y34618D01*
X41250Y34580D01*
X41644Y34618D01*
X42022Y34733D01*
X42371Y34920D01*
X42677Y35171D01*
X42928Y35476D01*
X43114Y35825D01*
X43229Y36204D01*
X43268Y36597D01*
X43229Y36991D01*
X43114Y37370D01*
X42928Y37718D01*
X42677Y38024D01*
X42371Y38275D01*
X42022Y38462D01*
X41644Y38576D01*
X41250Y38615D01*
D02*
G37*
G36*
X8715D02*
X8321Y38576D01*
X7943Y38462D01*
X7594Y38275D01*
X7288Y38024D01*
X7037Y37718D01*
X6851Y37370D01*
X6736Y36991D01*
X6697Y36597D01*
X6736Y36204D01*
X6851Y35825D01*
X7037Y35476D01*
X7288Y35171D01*
X7594Y34920D01*
X7943Y34733D01*
X8321Y34618D01*
X8715Y34580D01*
X9109Y34618D01*
X9487Y34733D01*
X9836Y34920D01*
X10142Y35171D01*
X10393Y35476D01*
X10579Y35825D01*
X10694Y36204D01*
X10733Y36597D01*
X10694Y36991D01*
X10579Y37370D01*
X10393Y37718D01*
X10142Y38024D01*
X9836Y38275D01*
X9487Y38462D01*
X9109Y38576D01*
X8715Y38615D01*
D02*
G37*
G36*
X3000D02*
X2606Y38576D01*
X2228Y38462D01*
X1879Y38275D01*
X1573Y38024D01*
X1322Y37718D01*
X1136Y37370D01*
X1021Y36991D01*
X982Y36597D01*
X1021Y36204D01*
X1136Y35825D01*
X1322Y35476D01*
X1573Y35171D01*
X1879Y34920D01*
X2228Y34733D01*
X2606Y34618D01*
X3000Y34580D01*
X3394Y34618D01*
X3772Y34733D01*
X4121Y34920D01*
X4427Y35171D01*
X4678Y35476D01*
X4864Y35825D01*
X4979Y36204D01*
X5018Y36597D01*
X4979Y36991D01*
X4864Y37370D01*
X4678Y37718D01*
X4427Y38024D01*
X4121Y38275D01*
X3772Y38462D01*
X3394Y38576D01*
X3000Y38615D01*
D02*
G37*
G36*
X8715Y34018D02*
X8321Y33979D01*
X7943Y33864D01*
X7594Y33678D01*
X7288Y33427D01*
X7037Y33121D01*
X6851Y32772D01*
X6736Y32394D01*
X6697Y32000D01*
X6736Y31606D01*
X6851Y31228D01*
X7037Y30879D01*
X7288Y30573D01*
X7594Y30322D01*
X7943Y30136D01*
X8321Y30021D01*
X8715Y29982D01*
X9109Y30021D01*
X9487Y30136D01*
X9836Y30322D01*
X10142Y30573D01*
X10393Y30879D01*
X10579Y31228D01*
X10694Y31606D01*
X10733Y32000D01*
X10694Y32394D01*
X10579Y32772D01*
X10393Y33121D01*
X10142Y33427D01*
X9836Y33678D01*
X9487Y33864D01*
X9109Y33979D01*
X8715Y34018D01*
D02*
G37*
G36*
X45000Y7269D02*
X44557Y7225D01*
X44132Y7096D01*
X43739Y6887D01*
X43396Y6604D01*
X43113Y6261D01*
X42904Y5868D01*
X42775Y5443D01*
X42731Y5000D01*
X42775Y4557D01*
X42904Y4132D01*
X43113Y3739D01*
X43396Y3396D01*
X43739Y3113D01*
X44132Y2904D01*
X44557Y2775D01*
X45000Y2731D01*
X45443Y2775D01*
X45868Y2904D01*
X46261Y3113D01*
X46604Y3396D01*
X46887Y3739D01*
X47096Y4132D01*
X47225Y4557D01*
X47269Y5000D01*
X47225Y5443D01*
X47096Y5868D01*
X46887Y6261D01*
X46604Y6604D01*
X46261Y6887D01*
X45868Y7096D01*
X45443Y7225D01*
X45000Y7269D01*
D02*
G37*
G36*
X5000D02*
X4557Y7225D01*
X4132Y7096D01*
X3739Y6887D01*
X3396Y6604D01*
X3113Y6261D01*
X2904Y5868D01*
X2775Y5443D01*
X2731Y5000D01*
X2775Y4557D01*
X2904Y4132D01*
X3113Y3739D01*
X3396Y3396D01*
X3739Y3113D01*
X4132Y2904D01*
X4557Y2775D01*
X5000Y2731D01*
X5443Y2775D01*
X5868Y2904D01*
X6261Y3113D01*
X6604Y3396D01*
X6887Y3739D01*
X7096Y4132D01*
X7225Y4557D01*
X7269Y5000D01*
X7225Y5443D01*
X7096Y5868D01*
X6887Y6261D01*
X6604Y6604D01*
X6261Y6887D01*
X5868Y7096D01*
X5443Y7225D01*
X5000Y7269D01*
D02*
G37*
G36*
X15500Y21582D02*
X14763Y21540D01*
X14035Y21417D01*
X13326Y21213D01*
X12644Y20930D01*
X11998Y20573D01*
X11396Y20146D01*
X10846Y19654D01*
X10354Y19104D01*
X9927Y18502D01*
X9570Y17856D01*
X9287Y17174D01*
X9083Y16465D01*
X8960Y15737D01*
X8918Y15000D01*
X8960Y14263D01*
X9083Y13535D01*
X9287Y12826D01*
X9570Y12144D01*
X9927Y11498D01*
X10354Y10896D01*
X10846Y10346D01*
X11396Y9854D01*
X11998Y9427D01*
X12644Y9070D01*
X13326Y8788D01*
X14035Y8583D01*
X14763Y8460D01*
X15500Y8418D01*
X16237Y8460D01*
X16965Y8583D01*
X17674Y8788D01*
X18356Y9070D01*
X19002Y9427D01*
X19604Y9854D01*
X20154Y10346D01*
X20646Y10896D01*
X21073Y11498D01*
X21430Y12144D01*
X21712Y12826D01*
X21917Y13535D01*
X22040Y14263D01*
X22082Y15000D01*
X22040Y15737D01*
X21917Y16465D01*
X21712Y17174D01*
X21430Y17856D01*
X21073Y18502D01*
X20646Y19104D01*
X20154Y19654D01*
X19604Y20146D01*
X19002Y20573D01*
X18356Y20930D01*
X17674Y21213D01*
X16965Y21417D01*
X16237Y21540D01*
X15500Y21582D01*
D02*
G37*
G36*
X3000Y34018D02*
X2606Y33979D01*
X2228Y33864D01*
X1879Y33678D01*
X1573Y33427D01*
X1322Y33121D01*
X1136Y32772D01*
X1021Y32394D01*
X982Y32000D01*
X1021Y31606D01*
X1136Y31228D01*
X1322Y30879D01*
X1573Y30573D01*
X1879Y30322D01*
X2228Y30136D01*
X2606Y30021D01*
X3000Y29982D01*
X3394Y30021D01*
X3772Y30136D01*
X4121Y30322D01*
X4427Y30573D01*
X4678Y30879D01*
X4864Y31228D01*
X4979Y31606D01*
X5018Y32000D01*
X4979Y32394D01*
X4864Y32772D01*
X4678Y33121D01*
X4427Y33427D01*
X4121Y33678D01*
X3772Y33864D01*
X3394Y33979D01*
X3000Y34018D01*
D02*
G37*
G36*
X34500Y21582D02*
X33763Y21540D01*
X33035Y21417D01*
X32326Y21213D01*
X31644Y20930D01*
X30998Y20573D01*
X30396Y20146D01*
X29846Y19654D01*
X29354Y19104D01*
X28927Y18502D01*
X28570Y17856D01*
X28287Y17174D01*
X28083Y16465D01*
X27960Y15737D01*
X27918Y15000D01*
X27960Y14263D01*
X28083Y13535D01*
X28287Y12826D01*
X28570Y12144D01*
X28927Y11498D01*
X29354Y10896D01*
X29846Y10346D01*
X30396Y9854D01*
X30998Y9427D01*
X31644Y9070D01*
X32326Y8788D01*
X33035Y8583D01*
X33763Y8460D01*
X34500Y8418D01*
X35237Y8460D01*
X35965Y8583D01*
X36674Y8788D01*
X37356Y9070D01*
X38002Y9427D01*
X38604Y9854D01*
X39154Y10346D01*
X39646Y10896D01*
X40073Y11498D01*
X40430Y12144D01*
X40713Y12826D01*
X40917Y13535D01*
X41040Y14263D01*
X41082Y15000D01*
X41040Y15737D01*
X40917Y16465D01*
X40713Y17174D01*
X40430Y17856D01*
X40073Y18502D01*
X39646Y19104D01*
X39154Y19654D01*
X38604Y20146D01*
X38002Y20573D01*
X37356Y20930D01*
X36674Y21213D01*
X35965Y21417D01*
X35237Y21540D01*
X34500Y21582D01*
D02*
G37*
G36*
X46965Y38615D02*
X46571Y38576D01*
X46193Y38462D01*
X45844Y38275D01*
X45538Y38024D01*
X45287Y37718D01*
X45101Y37370D01*
X44986Y36991D01*
X44947Y36597D01*
X44986Y36204D01*
X45101Y35825D01*
X45287Y35476D01*
X45538Y35171D01*
X45844Y34920D01*
X46193Y34733D01*
X46571Y34618D01*
X46965Y34580D01*
X47359Y34618D01*
X47737Y34733D01*
X48086Y34920D01*
X48392Y35171D01*
X48643Y35476D01*
X48829Y35825D01*
X48944Y36204D01*
X48983Y36597D01*
X48944Y36991D01*
X48829Y37370D01*
X48643Y37718D01*
X48392Y38024D01*
X48086Y38275D01*
X47737Y38462D01*
X47359Y38576D01*
X46965Y38615D01*
D02*
G37*
G36*
X6000Y57366D02*
X5695Y57335D01*
X5401Y57246D01*
X5130Y57102D01*
X4893Y56907D01*
X4698Y56670D01*
X4554Y56399D01*
X4465Y56105D01*
X4434Y55800D01*
Y55200D01*
X4465Y54895D01*
X4554Y54601D01*
X4698Y54330D01*
X4893Y54093D01*
X5130Y53898D01*
X5401Y53754D01*
X5695Y53665D01*
X6000Y53634D01*
X6305Y53665D01*
X6599Y53754D01*
X6870Y53898D01*
X7107Y54093D01*
X7302Y54330D01*
X7446Y54601D01*
X7535Y54895D01*
X7566Y55200D01*
Y55800D01*
X7535Y56105D01*
X7446Y56399D01*
X7302Y56670D01*
X7107Y56907D01*
X6870Y57102D01*
X6599Y57246D01*
X6305Y57335D01*
X6000Y57366D01*
D02*
G37*
G36*
X41250Y47810D02*
X40856Y47771D01*
X40478Y47656D01*
X40129Y47470D01*
X39823Y47219D01*
X39572Y46913D01*
X39386Y46564D01*
X39271Y46186D01*
X39232Y45792D01*
X39271Y45399D01*
X39386Y45020D01*
X39572Y44671D01*
X39823Y44365D01*
X40129Y44115D01*
X40478Y43928D01*
X40856Y43813D01*
X41250Y43774D01*
X41644Y43813D01*
X42022Y43928D01*
X42371Y44115D01*
X42677Y44365D01*
X42928Y44671D01*
X43114Y45020D01*
X43229Y45399D01*
X43268Y45792D01*
X43229Y46186D01*
X43114Y46564D01*
X42928Y46913D01*
X42677Y47219D01*
X42371Y47470D01*
X42022Y47656D01*
X41644Y47771D01*
X41250Y47810D01*
D02*
G37*
G36*
X15500Y70582D02*
X14763Y70540D01*
X14035Y70417D01*
X13326Y70213D01*
X12644Y69930D01*
X11998Y69573D01*
X11396Y69146D01*
X10846Y68654D01*
X10354Y68104D01*
X9927Y67502D01*
X9570Y66856D01*
X9287Y66174D01*
X9083Y65465D01*
X8960Y64737D01*
X8918Y64000D01*
X8960Y63263D01*
X9083Y62535D01*
X9287Y61826D01*
X9570Y61144D01*
X9927Y60498D01*
X10354Y59896D01*
X10846Y59346D01*
X11396Y58854D01*
X11998Y58427D01*
X12644Y58070D01*
X13326Y57787D01*
X14035Y57583D01*
X14763Y57460D01*
X15500Y57418D01*
X16237Y57460D01*
X16965Y57583D01*
X17674Y57787D01*
X18356Y58070D01*
X19002Y58427D01*
X19604Y58854D01*
X20154Y59346D01*
X20646Y59896D01*
X21073Y60498D01*
X21430Y61144D01*
X21712Y61826D01*
X21917Y62535D01*
X22040Y63263D01*
X22082Y64000D01*
X22040Y64737D01*
X21917Y65465D01*
X21712Y66174D01*
X21430Y66856D01*
X21073Y67502D01*
X20646Y68104D01*
X20154Y68654D01*
X19604Y69146D01*
X19002Y69573D01*
X18356Y69930D01*
X17674Y70213D01*
X16965Y70417D01*
X16237Y70540D01*
X15500Y70582D01*
D02*
G37*
G36*
X45000Y76269D02*
X44557Y76225D01*
X44132Y76096D01*
X43739Y75887D01*
X43396Y75604D01*
X43113Y75261D01*
X42904Y74868D01*
X42775Y74443D01*
X42731Y74000D01*
X42775Y73557D01*
X42904Y73132D01*
X43113Y72739D01*
X43396Y72396D01*
X43739Y72113D01*
X44132Y71904D01*
X44557Y71775D01*
X45000Y71731D01*
X45443Y71775D01*
X45868Y71904D01*
X46261Y72113D01*
X46604Y72396D01*
X46887Y72739D01*
X47096Y73132D01*
X47225Y73557D01*
X47269Y74000D01*
X47225Y74443D01*
X47096Y74868D01*
X46887Y75261D01*
X46604Y75604D01*
X46261Y75887D01*
X45868Y76096D01*
X45443Y76225D01*
X45000Y76269D01*
D02*
G37*
G36*
X5000D02*
X4557Y76225D01*
X4132Y76096D01*
X3739Y75887D01*
X3396Y75604D01*
X3113Y75261D01*
X2904Y74868D01*
X2775Y74443D01*
X2731Y74000D01*
X2775Y73557D01*
X2904Y73132D01*
X3113Y72739D01*
X3396Y72396D01*
X3739Y72113D01*
X4132Y71904D01*
X4557Y71775D01*
X5000Y71731D01*
X5443Y71775D01*
X5868Y71904D01*
X6261Y72113D01*
X6604Y72396D01*
X6887Y72739D01*
X7096Y73132D01*
X7225Y73557D01*
X7269Y74000D01*
X7225Y74443D01*
X7096Y74868D01*
X6887Y75261D01*
X6604Y75604D01*
X6261Y75887D01*
X5868Y76096D01*
X5443Y76225D01*
X5000Y76269D01*
D02*
G37*
G36*
X8715Y47810D02*
X8321Y47771D01*
X7943Y47656D01*
X7594Y47470D01*
X7288Y47219D01*
X7037Y46913D01*
X6851Y46564D01*
X6736Y46186D01*
X6697Y45792D01*
X6736Y45399D01*
X6851Y45020D01*
X7037Y44671D01*
X7288Y44365D01*
X7594Y44115D01*
X7943Y43928D01*
X8321Y43813D01*
X8715Y43774D01*
X9109Y43813D01*
X9487Y43928D01*
X9836Y44115D01*
X10142Y44365D01*
X10393Y44671D01*
X10579Y45020D01*
X10694Y45399D01*
X10733Y45792D01*
X10694Y46186D01*
X10579Y46564D01*
X10393Y46913D01*
X10142Y47219D01*
X9836Y47470D01*
X9487Y47656D01*
X9109Y47771D01*
X8715Y47810D01*
D02*
G37*
G36*
X46965Y43213D02*
X46571Y43174D01*
X46193Y43059D01*
X45844Y42872D01*
X45538Y42622D01*
X45287Y42316D01*
X45101Y41967D01*
X44986Y41588D01*
X44947Y41195D01*
X44986Y40801D01*
X45101Y40423D01*
X45287Y40074D01*
X45538Y39768D01*
X45844Y39517D01*
X46193Y39331D01*
X46571Y39216D01*
X46965Y39177D01*
X47359Y39216D01*
X47737Y39331D01*
X48086Y39517D01*
X48392Y39768D01*
X48643Y40074D01*
X48829Y40423D01*
X48944Y40801D01*
X48983Y41195D01*
X48944Y41588D01*
X48829Y41967D01*
X48643Y42316D01*
X48392Y42622D01*
X48086Y42872D01*
X47737Y43059D01*
X47359Y43174D01*
X46965Y43213D01*
D02*
G37*
G36*
X8715D02*
X8321Y43174D01*
X7943Y43059D01*
X7594Y42872D01*
X7288Y42622D01*
X7037Y42316D01*
X6851Y41967D01*
X6736Y41588D01*
X6697Y41195D01*
X6736Y40801D01*
X6851Y40423D01*
X7037Y40074D01*
X7288Y39768D01*
X7594Y39517D01*
X7943Y39331D01*
X8321Y39216D01*
X8715Y39177D01*
X9109Y39216D01*
X9487Y39331D01*
X9836Y39517D01*
X10142Y39768D01*
X10393Y40074D01*
X10579Y40423D01*
X10694Y40801D01*
X10733Y41195D01*
X10694Y41588D01*
X10579Y41967D01*
X10393Y42316D01*
X10142Y42622D01*
X9836Y42872D01*
X9487Y43059D01*
X9109Y43174D01*
X8715Y43213D01*
D02*
G37*
G36*
X3000Y43213D02*
X2606Y43174D01*
X2228Y43059D01*
X1879Y42872D01*
X1573Y42622D01*
X1322Y42316D01*
X1136Y41967D01*
X1021Y41588D01*
X982Y41195D01*
X1021Y40801D01*
X1136Y40423D01*
X1322Y40074D01*
X1573Y39768D01*
X1879Y39517D01*
X2228Y39331D01*
X2606Y39216D01*
X3000Y39177D01*
X3394Y39216D01*
X3772Y39331D01*
X4121Y39517D01*
X4427Y39768D01*
X4678Y40074D01*
X4864Y40423D01*
X4979Y40801D01*
X5018Y41195D01*
X4979Y41588D01*
X4864Y41967D01*
X4678Y42316D01*
X4427Y42622D01*
X4121Y42872D01*
X3772Y43059D01*
X3394Y43174D01*
X3000Y43213D01*
D02*
G37*
G36*
Y47810D02*
X2606Y47771D01*
X2228Y47656D01*
X1879Y47470D01*
X1573Y47219D01*
X1322Y46913D01*
X1136Y46564D01*
X1021Y46186D01*
X982Y45792D01*
X1021Y45399D01*
X1136Y45020D01*
X1322Y44671D01*
X1573Y44365D01*
X1879Y44115D01*
X2228Y43928D01*
X2606Y43813D01*
X3000Y43774D01*
X3394Y43813D01*
X3772Y43928D01*
X4121Y44115D01*
X4427Y44365D01*
X4678Y44671D01*
X4864Y45020D01*
X4979Y45399D01*
X5018Y45792D01*
X4979Y46186D01*
X4864Y46564D01*
X4678Y46913D01*
X4427Y47219D01*
X4121Y47470D01*
X3772Y47656D01*
X3394Y47771D01*
X3000Y47810D01*
D02*
G37*
G36*
X41250Y43213D02*
X40856Y43174D01*
X40478Y43059D01*
X40129Y42872D01*
X39823Y42622D01*
X39572Y42316D01*
X39386Y41967D01*
X39271Y41588D01*
X39232Y41195D01*
X39271Y40801D01*
X39386Y40423D01*
X39572Y40074D01*
X39823Y39768D01*
X40129Y39517D01*
X40478Y39331D01*
X40856Y39216D01*
X41250Y39177D01*
X41644Y39216D01*
X42022Y39331D01*
X42371Y39517D01*
X42677Y39768D01*
X42928Y40074D01*
X43114Y40423D01*
X43229Y40801D01*
X43268Y41195D01*
X43229Y41588D01*
X43114Y41967D01*
X42928Y42316D01*
X42677Y42622D01*
X42371Y42872D01*
X42022Y43059D01*
X41644Y43174D01*
X41250Y43213D01*
D02*
G37*
%LPD*%
D10*
Y49500D02*
X47000D01*
X41000Y49250D02*
X41250Y49500D01*
X45750Y48250D02*
X47000D01*
X48250Y49500D01*
X34500Y60750D02*
X34500Y60750D01*
X34500Y60750D02*
Y64000D01*
X30250Y64000D02*
X30250Y64000D01*
X34500D01*
Y67500D02*
X34500Y67500D01*
X34500Y64000D02*
Y67500D01*
X39000Y64000D02*
X39250Y64250D01*
X34500Y64000D02*
X39000D01*
D11*
X34500Y15000D02*
D03*
X15500Y64000D02*
D03*
X34500D02*
D03*
X15500Y15000D02*
D03*
D12*
X41250Y32000D02*
D03*
X46965D02*
D03*
Y36597D02*
D03*
X41250D02*
D03*
X46965Y41195D02*
D03*
X41250Y41195D02*
D03*
X46965Y45792D02*
D03*
X41250D02*
D03*
X3000Y32000D02*
D03*
X8715D02*
D03*
Y36597D02*
D03*
X3000D02*
D03*
X8715Y41195D02*
D03*
X3000Y41195D02*
D03*
X8715Y45792D02*
D03*
X3000D02*
D03*
D13*
X41000Y49250D02*
D03*
X47000Y49500D02*
D03*
X45750Y48250D02*
D03*
X48250Y49500D02*
D03*
M02*
