%FSLAX43Y43*%
%MOMM*%
G71*
G01*
G75*
G04 Layer_Color=8388736*
%ADD10C,0.381*%
%ADD11C,11.500*%
%ADD12C,3.000*%
%ADD13C,0.800*%
%ADD14R,0.650X1.100*%
%ADD15R,3.937X2.921*%
%ADD16R,1.200X1.400*%
%ADD17R,1.000X1.000*%
%ADD18R,1.000X1.000*%
%ADD19R,0.900X1.000*%
%ADD20R,1.000X0.900*%
%ADD21R,2.000X1.650*%
%ADD22R,1.150X1.400*%
%ADD23R,0.900X0.950*%
%ADD24R,0.900X0.950*%
%ADD25R,1.500X1.600*%
%ADD26R,0.650X1.200*%
%ADD27C,0.203*%
%ADD28C,0.254*%
%ADD29C,0.508*%
%ADD30C,0.635*%
%ADD31C,3.810*%
%ADD32C,3.175*%
%ADD33C,2.032*%
%ADD34C,0.889*%
%ADD35C,11.000*%
%ADD36R,1.000X4.500*%
%ADD37R,1.000X2.500*%
%ADD38R,6.500X0.750*%
%ADD39R,4.000X2.500*%
%ADD40R,1.750X5.250*%
%ADD41R,5.500X2.250*%
%ADD42R,1.500X9.500*%
%ADD43R,9.500X1.000*%
%ADD44R,3.250X10.250*%
%ADD45R,0.750X4.000*%
%ADD46R,16.500X1.750*%
%ADD47R,16.500X1.500*%
%ADD48C,4.000*%
%ADD49C,2.100*%
%ADD50C,3.102*%
G36*
X26394Y48750D02*
X27866D01*
Y48000D01*
X25455D01*
Y51044D01*
X26394D01*
Y48750D01*
D02*
G37*
G36*
X29804Y51039D02*
X29843D01*
X29938Y51027D01*
X30049Y51016D01*
X30160Y50994D01*
X30271Y50966D01*
X30371Y50927D01*
X30377D01*
X30382Y50922D01*
X30415Y50905D01*
X30460Y50883D01*
X30521Y50844D01*
X30588Y50800D01*
X30660Y50744D01*
X30726Y50678D01*
X30793Y50605D01*
X30799Y50594D01*
X30821Y50566D01*
X30849Y50528D01*
X30888Y50466D01*
X30926Y50394D01*
X30965Y50311D01*
X30999Y50216D01*
X31032Y50116D01*
Y50111D01*
X31038Y50105D01*
Y50089D01*
X31043Y50066D01*
X31054Y50011D01*
X31071Y49939D01*
X31088Y49850D01*
X31099Y49750D01*
X31104Y49644D01*
X31110Y49528D01*
Y49522D01*
Y49505D01*
Y49483D01*
Y49450D01*
X31104Y49405D01*
Y49361D01*
X31093Y49250D01*
X31082Y49133D01*
X31060Y49005D01*
X31032Y48883D01*
X30993Y48772D01*
Y48767D01*
X30988Y48761D01*
X30971Y48728D01*
X30949Y48678D01*
X30915Y48617D01*
X30871Y48544D01*
X30815Y48472D01*
X30754Y48394D01*
X30682Y48322D01*
X30671Y48317D01*
X30649Y48294D01*
X30610Y48261D01*
X30560Y48222D01*
X30493Y48183D01*
X30427Y48144D01*
X30349Y48106D01*
X30265Y48078D01*
X30260D01*
X30254Y48072D01*
X30238D01*
X30215Y48067D01*
X30154Y48056D01*
X30077Y48039D01*
X29993Y48022D01*
X29893Y48011D01*
X29799Y48006D01*
X29699Y48000D01*
X28305D01*
Y51044D01*
X29765D01*
X29804Y51039D01*
D02*
G37*
G36*
X20066Y51089D02*
X20178Y51083D01*
X20300Y51072D01*
X20428Y51055D01*
X20544Y51033D01*
X20600Y51016D01*
X20650Y51000D01*
X20655D01*
X20661Y50994D01*
X20694Y50983D01*
X20739Y50961D01*
X20794Y50933D01*
X20861Y50894D01*
X20933Y50844D01*
X21000Y50783D01*
X21066Y50716D01*
X21072Y50705D01*
X21094Y50683D01*
X21122Y50639D01*
X21161Y50583D01*
X21200Y50516D01*
X21244Y50433D01*
X21283Y50339D01*
X21316Y50233D01*
X20411Y50072D01*
Y50078D01*
X20400Y50100D01*
X20383Y50133D01*
X20366Y50172D01*
X20339Y50211D01*
X20305Y50255D01*
X20261Y50294D01*
X20216Y50333D01*
X20211Y50339D01*
X20194Y50350D01*
X20161Y50361D01*
X20122Y50383D01*
X20072Y50400D01*
X20016Y50411D01*
X19950Y50422D01*
X19872Y50428D01*
X19844D01*
X19822Y50422D01*
X19767Y50416D01*
X19694Y50400D01*
X19617Y50378D01*
X19533Y50339D01*
X19450Y50283D01*
X19378Y50211D01*
X19372Y50200D01*
X19350Y50172D01*
X19322Y50116D01*
X19289Y50044D01*
X19250Y49950D01*
X19239Y49894D01*
X19222Y49833D01*
X19211Y49766D01*
X19200Y49694D01*
X19194Y49617D01*
Y49533D01*
Y49528D01*
Y49511D01*
Y49489D01*
X19200Y49455D01*
Y49411D01*
X19205Y49367D01*
X19217Y49261D01*
X19239Y49144D01*
X19272Y49028D01*
X19317Y48917D01*
X19344Y48872D01*
X19378Y48828D01*
X19389Y48817D01*
X19411Y48794D01*
X19455Y48761D01*
X19517Y48722D01*
X19589Y48683D01*
X19678Y48650D01*
X19783Y48628D01*
X19900Y48617D01*
X19955D01*
X19994Y48622D01*
X20044Y48628D01*
X20094Y48633D01*
X20200Y48661D01*
X20205D01*
X20228Y48672D01*
X20255Y48683D01*
X20294Y48700D01*
X20344Y48717D01*
X20400Y48744D01*
X20466Y48778D01*
X20533Y48817D01*
Y49105D01*
X19900D01*
Y49739D01*
X21355D01*
Y48439D01*
X21350Y48433D01*
X21339Y48428D01*
X21316Y48411D01*
X21283Y48394D01*
X21250Y48372D01*
X21205Y48344D01*
X21105Y48283D01*
X20989Y48222D01*
X20861Y48156D01*
X20733Y48094D01*
X20611Y48050D01*
X20605D01*
X20594Y48044D01*
X20578Y48039D01*
X20555Y48033D01*
X20522Y48028D01*
X20489Y48017D01*
X20444Y48011D01*
X20400Y48000D01*
X20289Y47983D01*
X20155Y47967D01*
X20011Y47956D01*
X19850Y47950D01*
X19800D01*
X19761Y47956D01*
X19711D01*
X19661Y47961D01*
X19600Y47967D01*
X19533Y47972D01*
X19394Y47994D01*
X19244Y48028D01*
X19100Y48072D01*
X18961Y48133D01*
X18955D01*
X18944Y48144D01*
X18928Y48156D01*
X18905Y48167D01*
X18844Y48211D01*
X18767Y48272D01*
X18683Y48344D01*
X18594Y48439D01*
X18511Y48550D01*
X18433Y48678D01*
Y48683D01*
X18428Y48694D01*
X18417Y48717D01*
X18406Y48744D01*
X18389Y48778D01*
X18378Y48817D01*
X18361Y48867D01*
X18344Y48922D01*
X18322Y48978D01*
X18306Y49044D01*
X18278Y49189D01*
X18256Y49350D01*
X18250Y49522D01*
Y49528D01*
Y49544D01*
Y49572D01*
X18256Y49605D01*
Y49650D01*
X18261Y49700D01*
X18267Y49755D01*
X18278Y49816D01*
X18300Y49950D01*
X18339Y50094D01*
X18389Y50239D01*
X18456Y50383D01*
Y50389D01*
X18467Y50400D01*
X18478Y50416D01*
X18494Y50444D01*
X18539Y50511D01*
X18606Y50594D01*
X18694Y50683D01*
X18794Y50777D01*
X18917Y50866D01*
X19055Y50944D01*
X19061D01*
X19072Y50950D01*
X19089Y50961D01*
X19111Y50966D01*
X19144Y50977D01*
X19183Y50994D01*
X19228Y51005D01*
X19278Y51022D01*
X19333Y51033D01*
X19400Y51044D01*
X19467Y51061D01*
X19539Y51072D01*
X19622Y51083D01*
X19705Y51089D01*
X19894Y51094D01*
X20022D01*
X20066Y51089D01*
D02*
G37*
G36*
X23488D02*
X23555Y51083D01*
X23627Y51072D01*
X23711Y51061D01*
X23794Y51044D01*
X23888Y51022D01*
X23983Y50994D01*
X24083Y50961D01*
X24177Y50922D01*
X24272Y50872D01*
X24366Y50816D01*
X24449Y50755D01*
X24533Y50683D01*
X24538Y50678D01*
X24549Y50666D01*
X24572Y50639D01*
X24599Y50611D01*
X24627Y50566D01*
X24666Y50516D01*
X24705Y50455D01*
X24744Y50389D01*
X24783Y50311D01*
X24816Y50228D01*
X24855Y50133D01*
X24883Y50033D01*
X24910Y49922D01*
X24933Y49805D01*
X24944Y49678D01*
X24949Y49544D01*
Y49539D01*
Y49522D01*
Y49494D01*
Y49455D01*
X24944Y49411D01*
X24938Y49355D01*
X24933Y49300D01*
X24927Y49233D01*
X24905Y49094D01*
X24872Y48950D01*
X24827Y48805D01*
X24766Y48667D01*
Y48661D01*
X24760Y48650D01*
X24749Y48633D01*
X24733Y48611D01*
X24694Y48550D01*
X24633Y48472D01*
X24560Y48389D01*
X24472Y48300D01*
X24372Y48217D01*
X24249Y48139D01*
X24244D01*
X24233Y48133D01*
X24216Y48122D01*
X24188Y48111D01*
X24155Y48094D01*
X24116Y48078D01*
X24072Y48061D01*
X24016Y48044D01*
X23955Y48028D01*
X23894Y48011D01*
X23749Y47978D01*
X23583Y47956D01*
X23399Y47950D01*
X23316D01*
X23272Y47956D01*
X23222Y47961D01*
X23166D01*
X23100Y47972D01*
X22966Y47989D01*
X22827Y48017D01*
X22683Y48056D01*
X22550Y48111D01*
X22544D01*
X22533Y48117D01*
X22516Y48128D01*
X22494Y48144D01*
X22433Y48183D01*
X22355Y48239D01*
X22266Y48306D01*
X22177Y48400D01*
X22083Y48506D01*
X22000Y48628D01*
Y48633D01*
X21989Y48644D01*
X21983Y48667D01*
X21966Y48694D01*
X21950Y48728D01*
X21933Y48767D01*
X21916Y48817D01*
X21900Y48872D01*
X21877Y48933D01*
X21861Y49000D01*
X21844Y49072D01*
X21827Y49155D01*
X21805Y49328D01*
X21794Y49517D01*
Y49528D01*
Y49550D01*
X21800Y49589D01*
Y49639D01*
X21805Y49700D01*
X21816Y49772D01*
X21827Y49855D01*
X21844Y49939D01*
X21866Y50033D01*
X21894Y50128D01*
X21927Y50222D01*
X21966Y50322D01*
X22016Y50416D01*
X22072Y50511D01*
X22133Y50594D01*
X22205Y50678D01*
X22211Y50683D01*
X22227Y50694D01*
X22250Y50716D01*
X22283Y50744D01*
X22327Y50772D01*
X22377Y50811D01*
X22438Y50850D01*
X22505Y50889D01*
X22583Y50927D01*
X22672Y50961D01*
X22766Y51000D01*
X22872Y51027D01*
X22983Y51055D01*
X23105Y51077D01*
X23233Y51089D01*
X23366Y51094D01*
X23438D01*
X23488Y51089D01*
D02*
G37*
%LPC*%
G36*
X29477Y50355D02*
X29243D01*
Y48694D01*
X29521D01*
X29571Y48700D01*
X29638D01*
X29704Y48711D01*
X29777Y48722D01*
X29838Y48733D01*
X29893Y48755D01*
X29899Y48761D01*
X29915Y48767D01*
X29938Y48783D01*
X29965Y48811D01*
X29999Y48839D01*
X30032Y48878D01*
X30065Y48928D01*
X30093Y48983D01*
X30099Y48989D01*
X30104Y49017D01*
X30115Y49055D01*
X30132Y49111D01*
X30143Y49183D01*
X30154Y49278D01*
X30160Y49383D01*
X30165Y49511D01*
Y49517D01*
Y49533D01*
Y49555D01*
Y49589D01*
X30160Y49628D01*
Y49672D01*
X30143Y49778D01*
X30127Y49883D01*
X30099Y49994D01*
X30060Y50094D01*
X30032Y50133D01*
X30004Y50172D01*
X29999Y50178D01*
X29971Y50200D01*
X29932Y50228D01*
X29877Y50266D01*
X29804Y50300D01*
X29715Y50328D01*
X29604Y50350D01*
X29477Y50355D01*
D02*
G37*
G36*
X23361Y50383D02*
X23349D01*
X23316Y50378D01*
X23261Y50372D01*
X23199Y50355D01*
X23127Y50333D01*
X23049Y50294D01*
X22972Y50244D01*
X22905Y50178D01*
X22900Y50166D01*
X22877Y50139D01*
X22850Y50089D01*
X22822Y50022D01*
X22805Y49978D01*
X22788Y49928D01*
X22772Y49872D01*
X22761Y49816D01*
X22750Y49750D01*
X22738Y49678D01*
X22733Y49600D01*
Y49517D01*
Y49511D01*
Y49494D01*
Y49472D01*
X22738Y49444D01*
Y49405D01*
X22744Y49361D01*
X22755Y49261D01*
X22772Y49155D01*
X22805Y49044D01*
X22844Y48939D01*
X22872Y48894D01*
X22900Y48855D01*
X22905Y48844D01*
X22933Y48822D01*
X22972Y48794D01*
X23022Y48755D01*
X23088Y48717D01*
X23172Y48689D01*
X23266Y48667D01*
X23372Y48655D01*
X23399D01*
X23422Y48661D01*
X23477Y48667D01*
X23544Y48678D01*
X23616Y48705D01*
X23694Y48739D01*
X23772Y48783D01*
X23838Y48850D01*
X23844Y48861D01*
X23866Y48889D01*
X23877Y48911D01*
X23894Y48939D01*
X23911Y48972D01*
X23927Y49011D01*
X23938Y49055D01*
X23955Y49105D01*
X23972Y49167D01*
X23983Y49228D01*
X23994Y49300D01*
X24005Y49378D01*
X24011Y49461D01*
Y49555D01*
Y49561D01*
Y49572D01*
Y49594D01*
Y49628D01*
X24005Y49661D01*
X23999Y49700D01*
X23988Y49794D01*
X23966Y49894D01*
X23938Y50000D01*
X23894Y50100D01*
X23833Y50183D01*
X23827Y50194D01*
X23799Y50216D01*
X23761Y50244D01*
X23711Y50283D01*
X23644Y50322D01*
X23561Y50350D01*
X23466Y50372D01*
X23361Y50383D01*
D02*
G37*
%LPD*%
D11*
X34500Y15000D02*
D03*
X15500Y64000D02*
D03*
X34500D02*
D03*
X15500Y15000D02*
D03*
D48*
X45000Y74000D02*
D03*
X5000D02*
D03*
X45000Y5000D02*
D03*
X5000D02*
D03*
D49*
X6000Y55500D02*
D03*
D50*
X41250Y32000D02*
D03*
X46965D02*
D03*
Y36597D02*
D03*
X41250D02*
D03*
X46965Y41195D02*
D03*
X41250Y41195D02*
D03*
X46965Y45792D02*
D03*
X41250D02*
D03*
X3000Y32000D02*
D03*
X8715D02*
D03*
Y36597D02*
D03*
X3000D02*
D03*
X8715Y41195D02*
D03*
X3000Y41195D02*
D03*
X8715Y45792D02*
D03*
X3000D02*
D03*
M02*
