G04 ================== begin FILE IDENTIFICATION RECORD ==================*
G04 Layout Name:  LP-CC2652RB.brd*
G04 Film Name:    LP-CC2652RB_Bottom*
G04 File Format:  Gerber RS274X*
G04 File Origin:  Cadence Allegro 17.2-S041*
G04 Origin Date:  Mon Oct 08 09:56:39 2018*
G04 *
G04 Layer:  DRAWING FORMAT/TITLE_BLOCK*
G04 Layer:  BOARD GEOMETRY/LAYER4*
G04 Layer:  BOARD GEOMETRY/OUTLINE*
G04 Layer:  VIA CLASS/BOTTOM*
G04 Layer:  PIN/BOTTOM*
G04 Layer:  ETCH/BOTTOM*
G04 *
G04 Offset:    (0.000 0.000)*
G04 Mirror:    No*
G04 Mode:      Positive*
G04 Rotation:  0*
G04 FullContactRelief:  No*
G04 UndefLineWidth:     0.099*
G04 ================== end FILE IDENTIFICATION RECORD ====================*
%FSLAX25Y25*MOMM*%
%IR0*IPPOS*OFA0.00000B0.00000*MIA0B0*SFA1.00000B1.00000*%
%ADD10C,1.27*%
%ADD12C,3.8*%
%ADD11C,1.65*%
%ADD15C,.099*%
%ADD14C,1.699*%
%ADD18O,1.4X2.1*%
%ADD16C,.1*%
%ADD13C,.4*%
%ADD19C,.5*%
%ADD17C,.8*%
%ADD20C,.2*%
%ADD21C,.3*%
%ADD22C,.15*%
%ADD26C,1.324*%
%ADD25C,1.424*%
%ADD23C,1.954*%
%ADD24C,.704*%
G75*
%LPD*%
G75*
G36*
G01X25321800Y29479900D02*
X25703900D01*
G02X25799900Y29383800I-100J-96100D01*
G01Y25709900D01*
G02X25700800Y25426200I-455929J103D01*
G03X25611300Y25264300I435184J-346262D01*
G01X25610900Y25263100D01*
X25608800Y25259900D01*
G02X25607300Y25258100I-8380J5459D01*
G01X25605300Y25256200D01*
G02X25601300Y25253900I-6846J7278D01*
G01X25590400Y25250500D01*
G02X25587500Y25250100I-2803J9612D01*
G01X25584400D01*
G02X25580800Y25250800I75J9993D01*
G01X25579200Y25251400D01*
X25578100Y25252100D01*
X25577900Y25252200D01*
G03X25554700Y25133300I-37812J-54336D01*
G01X25555000Y25133400D01*
X25555600Y25133500D01*
X25557000Y25133700D01*
G02X25564900Y25131500I1511J-9857D01*
G01X25577300Y25121300D01*
G02X25580900Y25113000I-6382J-7699D01*
G03X25580600Y25052700I555123J-32913D01*
G02X25577000Y25044500I-9987J-506D01*
G01X25564800Y25034500D01*
G02X25558400Y25032200I-6380J7700D01*
G01X25556600D01*
X25554400Y25032400D01*
X25553800Y25032500D01*
G03X25578000Y24913700I-13781J-64672D01*
G02X25587000Y24915000I5773J-8165D01*
G01X25600100Y24910500D01*
G02X25604000Y24908100I-3146J-9481D01*
G01X25608500Y24903600D01*
X25609300Y24901400D01*
Y24901300D01*
G03X25700800Y24733800I526588J178917D01*
G02X25799900Y24450100I-356829J-283803D01*
G01Y21220000D01*
G02X25789900Y21210000I-10000J0D01*
G01X25286200D01*
G02X25282400Y21210800I117J9981D01*
G01X25277400Y21212800D01*
X25276100Y21214000D01*
G03X25210100Y21239700I-66049J-72022D01*
G01X25209900D01*
G03X25143900Y21214000I49J-97722D01*
G01X25142600Y21212800D01*
X25137600Y21210800D01*
G02X25133800Y21210000I-3917J9181D01*
G01X20716200D01*
G02X20712400Y21210800I117J9981D01*
G01X20707400Y21212800D01*
X20706100Y21214000D01*
G03X20640100Y21239700I-66049J-72022D01*
G01X20639900D01*
G03X20573900Y21214000I49J-97722D01*
G01X20572600Y21212800D01*
X20567600Y21210800D01*
G02X20563800Y21210000I-3917J9181D01*
G01X20060100D01*
G02X20050100Y21220000I0J10000D01*
G01Y24450100D01*
G02X20149200Y24733800I455929J-103D01*
G03X20239600Y24898200I-435149J346334D01*
G01Y24898300D01*
X20240400Y24900500D01*
X20245000Y24905100D01*
G02X20248800Y24907500I7109J-7048D01*
G01X20260900Y24911600D01*
G02X20267100Y24911700I3253J-9456D01*
G01X20269700Y24910900D01*
X20270800Y24910300D01*
G03X20293500Y25032300I34140J56759D01*
G01X20291300Y25031800D01*
X20289000Y25032300D01*
G02X20284700Y25034500I2283J9764D01*
G01X20269200Y25048100D01*
Y25049000D01*
G03Y25111100I-555234J31050D01*
G02X20272600Y25119200I9984J573D01*
G01X20284300Y25129500D01*
G02X20290900Y25132000I6614J-7500D01*
G01X20293000D01*
X20294100Y25131900D01*
X20294500D01*
X20295200Y25131800D01*
G03X20270000Y25253400I9808J65444D01*
G01X20268900Y25252700D01*
X20265300Y25251600D01*
G02X20259100Y25251800I-2793J9612D01*
G01X20247400Y25256000D01*
G02X20243800Y25258300I3466J9392D01*
G01X20239200Y25262800D01*
X20238400Y25265000D01*
G03X20149200Y25426200I-524465J-184933D01*
G02X20050100Y25709900I356829J283803D01*
G01Y25729400D01*
X20050000Y25730000D01*
X20050100Y26010000D01*
Y29134400D01*
G02X20056900Y29143800I10000J-74D01*
G01X20074800Y29149900D01*
G02X20085100Y29147500I3224J-9466D01*
G01X20086800Y29145800D01*
X20087200Y29145300D01*
G03X20363700Y29440900I162916J124728D01*
G01X20362700Y29441600D01*
X20360100Y29444400D01*
G02X20358800Y29446300I7521J6540D01*
G01X20357800Y29447900D01*
G02X20356900Y29455600I8725J4922D01*
G01X20361800Y29472600D01*
G02X20371400Y29479900I9622J-2691D01*
G01X20639900D01*
G02X20649900Y29469900I0J-10000D01*
G01Y29367000D01*
G03X20650300Y29364400I9963J202D01*
G01X20650500Y29363700D01*
X20651400Y29361400D01*
X20652800Y29360000D01*
X20664400Y29342800D01*
G02X20666100Y29337200I-8300J-5578D01*
G01Y29332300D01*
X20665400Y29330500D01*
G03X20659800Y29300100I79618J-30382D01*
G01Y29230000D01*
G03X20772500Y29149400I85171J0D01*
G01X20774100Y29149900D01*
X20960600D01*
G02X20969100Y29145200I20J-10000D01*
G01X20977000Y29132400D01*
G02X20978500Y29127200I-8500J-5268D01*
G01Y29122700D01*
G02X20977800Y29119000I-10000J-24D01*
G01X20977600Y29118500D01*
X20977100Y29117100D01*
X20976600Y29115600D01*
G03X20975800Y29096500I33398J-10966D01*
G01X20975900Y29096000D01*
X20976100Y29094700D01*
G02X20974000Y29087300I-9937J-1178D01*
G01X20964400Y29074900D01*
G02X20956500Y29071000I-7924J6100D01*
G01X20922800D01*
G03X20915800Y29068100I42J-10000D01*
G01X20789900Y28942200D01*
G02X20783000Y28939300I-7043J7099D01*
G01X20769500Y28939100D01*
G02X20765900Y28939700I-184J9998D01*
G01X20763400Y28940600D01*
X20761900Y28942000D01*
G03X20733500Y28881400I-24087J-25667D01*
G02X20739800Y28878100I-1187J-9929D01*
G01X20748700Y28868000D01*
G02X20751200Y28861400I-7500J-6614D01*
G01Y28828300D01*
G02X20749000Y28822100I-10000J58D01*
G03X20747600Y28779900I27419J-22033D01*
G02X20749400Y28774200I-8200J-5724D01*
G01Y28771400D01*
G02X20748700Y28767700I-10006J-23D01*
G01X20747200Y28763900D01*
G02X20738000Y28757700I-9262J3818D01*
G01X20728500D01*
G02X20721500Y28760600I42J10000D01*
G01X20708100Y28774000D01*
G02X20705200Y28780800I7097J7045D01*
G03X20670000Y28815200I-35200J-809D01*
G03X20634800Y28780000I0J-35200D01*
G03X20669200Y28744800I35209J0D01*
G02X20676000Y28741900I-245J-9997D01*
G01X20702700Y28715200D01*
G03X20709700Y28712300I7042J7100D01*
G01X20885300D01*
G03X20892300Y28715200I-42J10000D01*
G01X20939000Y28761900D01*
G02X20945800Y28764800I7045J-7097D01*
G03X20980200Y28800000I-809J35200D01*
G03X20945000Y28835200I-35200J0D01*
G03X20909800Y28800800I0J-35209D01*
G02X20906900Y28794000I-9997J245D01*
G01X20874200Y28761300D01*
G02X20865000Y28758600I-7067J7055D01*
G01X20862400Y28759100D01*
X20858700Y28762300D01*
X20856000Y28769400D01*
G02X20856800Y28778200I9342J3587D01*
G01X20857500Y28779300D01*
X20857800Y28779700D01*
G03X20856500Y28822100I-28710J20340D01*
G02X20854300Y28828300I7800J6258D01*
G01Y28867600D01*
G02X20857200Y28874600I10000J-42D01*
G01X20955300Y28972700D01*
G02X20962300Y28975600I7042J-7100D01*
G01X21070900D01*
G03X21077900Y28978500I-42J10000D01*
G01X21162300Y29062900D01*
G03X21165200Y29069900I-7100J7042D01*
G01Y29071600D01*
G02X21167400Y29077900I10000J42D01*
G03X21119300Y29128500I-27384J22131D01*
G02X21113500Y29126600I-5865J8100D01*
G01X21101500D01*
G02X21095700Y29128500I65J10000D01*
G03X21056500Y29129900I-20643J-28505D01*
G02X21050300Y29128400I-5329J8462D01*
G01X21040100Y29129300D01*
G02X21036800Y29130200I938J9939D01*
G01X21033000Y29131900D01*
X21032000Y29132600D01*
G03X21017900Y29139300I-21798J-27687D01*
G01X21017800D01*
G02X21010000Y29149000I2207J9761D01*
G01Y29349900D01*
G02X21020000Y29359900I10000J0D01*
G01X21260000D01*
G02X21270000Y29349900I0J-10000D01*
G01Y29159900D01*
G03X21280000Y29149900I10000J0D01*
G01X21470100D01*
Y29152100D01*
X21480400Y29157600D01*
G02X21488600Y29158100I4656J-8876D01*
G01X21490100Y29157500D01*
X21490900Y29157000D01*
G03X21620200Y29230000I44043J73000D01*
G01Y29300200D01*
G03X21614600Y29330300I-85184J-277D01*
G01X21614400Y29330700D01*
X21613900Y29332400D01*
X21613500Y29334600D01*
G02X21615000Y29341900I9840J1782D01*
G01X21628400Y29361900D01*
G03X21630100Y29367500I-8305J5579D01*
G01Y29469900D01*
G02X21640100Y29479900I10000J0D01*
G01X25078400D01*
G02X25087100Y29474700I-73J-10000D01*
G01X25095600Y29459200D01*
G02X25095200Y29448900I-8763J-4817D01*
G03X25074900Y29380000I104220J-68147D01*
G01Y29379900D01*
G03X25305000Y29448900I125406J-37D01*
G02X25304600Y29459200I8363J5483D01*
G01X25313100Y29474700D01*
G02X25321800Y29479900I8773J-4800D01*
G37*
G36*
G01X20510000Y29469900D02*
Y29040000D01*
G02X20500000Y29030000I-10000J0D01*
G01X20060100D01*
G02X20050100Y29040000I0J10000D01*
G01Y29383800D01*
G02X20146200Y29479900I96100J0D01*
G01X20500000D01*
G02X20510000Y29469900I0J-10000D01*
G37*
G36*
G01X20146200Y29479900D02*
X20170100D01*
G02X20180100Y29469900I0J-10000D01*
G01Y29469800D01*
G02X20173800Y29460500I-10007J-5D01*
G03X20069000Y29366700I76161J-190538D01*
G02X20060200Y29361400I-8821J4690D01*
G01X20060100D01*
G02X20050100Y29371400I0J10000D01*
G01Y29383800D01*
G02X20146200Y29479900I96100J0D01*
G37*
G36*
G01X25701300D02*
X25703800D01*
G02X25799900Y29383800I0J-96100D01*
G01Y29374100D01*
G02X25792300Y29364400I-9986J-3D01*
G01X25773200Y29359700D01*
G02X25762000Y29364800I-2338J9713D01*
G03X25690600Y29442900I-182043J-94738D01*
G01X25690500D01*
G02X25686300Y29454100I5409J8416D01*
G01X25691700Y29472700D01*
G02X25701300Y29479900I9611J-2814D01*
G37*
%LPC*%
G75*
G36*
G01X24016800Y22585100D02*
G03X24034900Y22603200I-1864J19964D01*
G02X24105200Y22600000I35077J-3200D01*
G02X24073200Y22564900I-35250J0D01*
G03X24055100Y22546800I1864J-19964D01*
G02X24020000Y22514800I-35100J3250D01*
G02X23984800Y22550000I0J35200D01*
G02X24016800Y22585100I35250J0D01*
G37*
G36*
G01X24124500Y23088400D02*
G02X24174600Y23113400I15518J31603D01*
G01X24174300Y23111800D01*
X24174700Y23108600D01*
X24180900Y23096100D01*
G03X24185500Y23091600I8921J4518D01*
G02X24135400Y23066600I-15518J-31603D01*
G01X24135700Y23068200D01*
X24135300Y23071400D01*
X24129100Y23083900D01*
G03X24124500Y23088400I-8921J-4518D01*
G37*
G36*
G01X23735800Y23184400D02*
G02X23791300Y23193600I24287J25491D01*
G03X23790300Y23187400I8855J-4609D01*
G01X23791300Y23181100D01*
G03X23794300Y23175500I9868J1683D01*
G02X23738800Y23166300I-24287J-25491D01*
G03X23739800Y23172500I-8855J4609D01*
G01X23738800Y23178800D01*
G03X23735800Y23184400I-9868J-1683D01*
G37*
G36*
G01X21088400Y23211100D02*
G02X21105700Y23268700I-8897J34070D01*
G03X21110300Y23265800I7441J6704D01*
G01X21115700Y23264200D01*
G03X21121100Y23264100I2878J9554D01*
G02X21103800Y23206500I8897J-34070D01*
G03X21099200Y23209400I-7441J-6704D01*
G01X21093800Y23211000D01*
G03X21088400Y23211100I-2878J-9554D01*
G37*
G36*
G01X23653500Y23374300D02*
G02X23709400Y23385200I23998J25720D01*
G01X23709300Y23385000D01*
G03X23708700Y23379200I9213J-3884D01*
G01X23711000Y23367300D01*
G03X23713900Y23362000I9812J1925D01*
G02X23685100Y23301400I-24018J-25729D01*
G01X23683300Y23301700D01*
X23679600Y23300900D01*
X23666900Y23292300D01*
G03X23662800Y23286600I5561J-8325D01*
G01Y23286500D01*
G02X23633500Y23330000I-34124J8633D01*
G01X23635300Y23329700D01*
X23639000Y23330500D01*
X23651700Y23339100D01*
G03X23655800Y23344800I-5561J8325D01*
G01Y23344900D01*
G02X23658000Y23351000I34030J-8826D01*
G01Y23351200D01*
X23658100Y23351300D01*
G03X23658700Y23357100I-9213J3884D01*
G01X23656400Y23369000D01*
G03X23653500Y23374300I-9812J-1925D01*
G37*
G36*
G01X21122600Y23704900D02*
G02X21152200Y23754200I-2605J35100D01*
G03X21156200Y23749700I9123J4081D01*
G01X21161500Y23746500D01*
G03X21167400Y23745100I5156J8597D01*
G02X21137800Y23695800I2605J-35100D01*
G03X21133800Y23700300I-9123J-4081D01*
G01X21128500Y23703500D01*
G03X21122600Y23704900I-5156J-8597D01*
G37*
G36*
G01X23175100Y23994900D02*
G03X23180400Y23999000I-3122J9511D01*
G02X23197700Y23947000I29612J-19026D01*
G03X23191000Y23947100I-3491J-9377D01*
G01X23184900Y23945100D01*
G03X23179600Y23941000I3122J-9511D01*
G02X23162300Y23993000I-29612J19026D01*
G03X23169000Y23992900I3491J9377D01*
G01X23175100Y23994900D01*
G37*
G36*
G01X23815000Y24416700D02*
G02X23854800Y24385100I35042J3272D01*
G03X23837500Y24363300I2714J-19918D01*
G02X23797700Y24394900I-35042J-3272D01*
G03X23815000Y24416700I-2714J19918D01*
G37*
G36*
G01X22833100Y24555600D02*
G03X22834800Y24560900I-8311J5589D01*
G02X22884400Y24527800I35217J-941D01*
G03X22880100Y24524200I4000J-9146D01*
G01X22876900Y24519400D01*
G03X22875200Y24514100I8311J-5589D01*
G02X22825600Y24547200I-35217J941D01*
G03X22829900Y24550800I-4000J9146D01*
G01X22833100Y24555600D01*
G37*
G36*
G01X24064900Y24574300D02*
G02X24111200Y24544100I35080J3190D01*
G03X24106000Y24540100I3159J-9487D01*
G01X24098200Y24528200D01*
X24097400Y24524900D01*
X24097600Y24523200D01*
G02X24051300Y24553400I-35080J-3190D01*
G03X24056500Y24557400I-3159J9487D01*
G01X24064300Y24569300D01*
X24065100Y24572600D01*
X24064900Y24574300D01*
G37*
G36*
G01X23735600Y24622700D02*
G02X23786900Y24599100I34432J7290D01*
G03X23782600Y24594500I4787J-8785D01*
G01X23777600Y24583600D01*
G03X23776900Y24577400I9079J-4165D01*
G01Y24577300D01*
G02X23725600Y24600900I-34432J-7290D01*
G03X23729900Y24605500I-4787J8785D01*
G01X23734900Y24616400D01*
G03X23735600Y24622600I-9079J4165D01*
G01Y24622700D01*
G37*
G36*
G01X24066800Y24694900D02*
G02X24105100Y24726900I3208J35081D01*
G03X24123200Y24705100I19987J-1819D01*
G02X24084900Y24673100I-3208J-35081D01*
G03X24066800Y24694900I-19987J1819D01*
G37*
G36*
G01X22845700Y24954300D02*
G02X22901200Y24963600I24255J25509D01*
G03X22900200Y24957400I8853J-4608D01*
G01X22901200Y24951100D01*
G03X22904200Y24945500I9869J1684D01*
G02X22848700Y24936200I-24255J-25509D01*
G03X22849700Y24942400I-8853J4608D01*
G01X22848700Y24948700D01*
G03X22845700Y24954300I-9869J-1684D01*
G37*
G36*
G01X23425800Y25049600D02*
G02X23459400Y25092900I-633J35178D01*
G01Y25092800D01*
G03X23463000Y25087400I9676J2551D01*
G01X23473000Y25079600D01*
G03X23479400Y25077500I6134J7893D01*
G02X23514300Y25034500I584J-35189D01*
G03X23514700Y25028800I9781J-2178D01*
G01X23516800Y25023200D01*
G03X23520400Y25018600I9355J3613D01*
G02X23465700Y24997800I-20416J-28635D01*
G03X23465300Y25003500I-9782J2178D01*
G01X23463100Y25009100D01*
G03X23459600Y25013700I-9366J-3495D01*
G02X23445800Y25034100I20384J28657D01*
G01Y25034300D01*
G03X23442200Y25039700I-9676J-2551D01*
G01X23432200Y25047500D01*
G03X23425800Y25049600I-6134J-7893D01*
G37*
G36*
G01X23051000Y25110400D02*
G02X23103000Y25127700I19026J29612D01*
G03X23102900Y25121000I9377J-3491D01*
G01X23104900Y25114900D01*
G03X23109000Y25109600I9511J3122D01*
G02X23114900Y25055200I-19026J-29583D01*
G01X23113500Y25053800D01*
X23112100Y25050500D01*
X23111500Y25034700D01*
G03X23113900Y25028000I9986J-203D01*
G01Y25027900D01*
G02X23062300Y25029800I-26679J-22921D01*
G01X23063700Y25031200D01*
X23065100Y25034500D01*
X23065700Y25050300D01*
G03X23063300Y25057000I-9986J203D01*
G01Y25057100D01*
G02X23057000Y25092300I26696J22942D01*
G03X23057100Y25099000I-9375J3491D01*
G01X23055100Y25105100D01*
G03X23051000Y25110400I-9511J-3122D01*
G37*
G36*
G01X22183200Y28186400D02*
G03X22189100Y28188400I-95J9984D01*
G02X22245100Y28163200I20907J-28362D01*
G01X22245300Y28161400D01*
X22246700Y28158300D01*
X22258300Y28146700D01*
X22261400Y28145300D01*
X22263200Y28145100D01*
G02X22289300Y28090500I-3197J-35066D01*
G03Y28079500I8369J-5500D01*
G02X22295200Y28060000I-29275J-19500D01*
G02X22224800I-35200J0D01*
G02X22230700Y28079500I35175J0D01*
G03X22230600Y28090500I-8387J5424D01*
G02X22224900Y28106800I29399J19427D01*
G01X22224700Y28108600D01*
X22223300Y28111700D01*
X22211700Y28123300D01*
X22208600Y28124700D01*
X22206800Y28124900D01*
G02X22189100Y28131600I3165J35092D01*
G03X22183200Y28133600I-5996J-7985D01*
G01X22176700D01*
G03X22170900Y28131700I68J-10010D01*
G02X22150000Y28124800I-20900J28203D01*
G02Y28195200I0J35200D01*
G02X22170900Y28188300I0J-35103D01*
G03X22176700Y28186400I5868J8110D01*
G01X22183200D01*
G37*
G36*
G01X22760200Y28583700D02*
G03X22767900Y28587300I19J9994D01*
G02X22795000Y28600000I27100J-22564D01*
G02Y28529600I0J-35200D01*
G02X22767900Y28542300I0J35264D01*
G03X22760200Y28545900I-7681J-6394D01*
G01X22744800D01*
G03X22737100Y28542300I-19J-9994D01*
G02X22682900I-27100J22564D01*
G03X22675200Y28545900I-7681J-6394D01*
G01X22659800D01*
G03X22652100Y28542300I-19J-9994D01*
G02X22625000Y28529600I-27100J22564D01*
G02Y28600000I0J35200D01*
G02X22652100Y28587300I0J-35264D01*
G03X22659800Y28583700I7681J6394D01*
G01X22675200D01*
G03X22682900Y28587300I19J9994D01*
G02X22737100I27100J-22564D01*
G03X22744800Y28583700I7681J6394D01*
G01X22760200D01*
G37*
G36*
G01X22310600Y28631600D02*
G03X22319400I4400J8965D01*
G02X22335000Y28564800I15600J-31578D01*
G02X22319400Y28568400I-88J35220D01*
G03X22310600I-4400J-8965D01*
G02X22295000Y28564800I-15512J31620D01*
G02Y28635200I0J35200D01*
G02X22310600Y28631600I88J-35220D01*
G37*
G36*
G01X21420000Y28766800D02*
G02X21480100Y28766600I30111J18210D01*
G03X21478600Y28761400I8490J-5265D01*
G01Y28755700D01*
G03X21480000Y28750500I10012J-93D01*
G02X21419900Y28750700I-30111J-18210D01*
G03X21421400Y28755900I-8490J5265D01*
G01Y28761600D01*
G03X21420000Y28766800I-10012J93D01*
G37*
G36*
G01X22688600Y28890500D02*
G03X22721400I16400J11636D01*
G02X22750000Y28905200I28600J-20472D01*
G02Y28834800I0J-35200D01*
G02X22721400Y28849500I0J35172D01*
G03X22688600I-16400J-11636D01*
G02X22660000Y28905200I-28600J20507D01*
G02X22688600Y28890500I0J-35172D01*
G37*
G36*
G01X25573600Y29021100D02*
G02X25590000Y29025200I16460J-30988D01*
G02X25606400Y29021100I-82J-35179D01*
G03X25607000Y29020800I4778J8806D01*
G02X25625200Y28990000I-16962J-30800D01*
G02X25590000Y28954800I-35200J0D01*
G02X25569100Y28961700I0J35103D01*
G03X25563300Y28963600I-5868J-8110D01*
G01X25556700D01*
G03X25550900Y28961700I68J-10010D01*
G02X25509100I-20900J28203D01*
G03X25503300Y28963600I-5868J-8110D01*
G01X25496700D01*
G03X25490900Y28961700I68J-10010D01*
G02X25470000Y28954800I-20900J28203D01*
G02X25434800Y28990000I0J35200D01*
G02X25453000Y29020800I35162J0D01*
G03X25453600Y29021100I-4178J9106D01*
G02X25470000Y29025200I16482J-31079D01*
G02X25486400Y29021100I-60J-35088D01*
G03X25486900Y29020800I5390J8417D01*
G02X25490900Y29018300I-16546J-30924D01*
G03X25496700Y29016400I5868J8110D01*
G01X25503300D01*
G03X25509100Y29018300I-68J10010D01*
G02X25513100Y29020800I20546J-28424D01*
G03X25513600Y29021100I-4890J8717D01*
G02X25546400I16400J-31003D01*
G03X25546900Y29020800I5390J8417D01*
G02X25550900Y29018300I-16546J-30924D01*
G03X25556700Y29016400I5868J8110D01*
G01X25563300D01*
G03X25569100Y29018300I-68J10010D01*
G02X25573100Y29020800I20546J-28424D01*
G03X25573600Y29021100I-4890J8717D01*
G37*
G36*
G01X21844500Y29000700D02*
G02X21834800Y29025000I25588J24300D01*
G02X21905200I35200J0D01*
G02X21895500Y29000700I-35288J0D01*
G03X21892700Y28993800I7191J-6936D01*
G01Y28823500D01*
G03X21895600Y28816500I10000J42D01*
G01X22037300Y28674800D01*
G02X22040200Y28667800I-7100J-7042D01*
G01Y28062200D01*
G02X22037300Y28055200I-10000J42D01*
G01X21951900Y27969800D01*
G03X21949700Y27958900I7066J-7098D01*
G01X21949800D01*
G03X21959000Y27952700I9240J3785D01*
G01X22506500D01*
G03X22513500Y27955600I-42J10000D01*
G01X22864300Y28306400D01*
G03X22867100Y28315000I-7080J7061D01*
G01X22864100Y28333700D01*
X22861400Y28337500D01*
X22859200Y28338600D01*
G02X22846800Y28391100I15798J31446D01*
G03X22848800Y28397100I-7991J5997D01*
G01Y28403400D01*
G03X22846900Y28409200I-10006J-67D01*
G02X22903500Y28408900I28411J20794D01*
G03X22901500Y28402900I7991J-5997D01*
G01Y28396600D01*
G03X22903400Y28390800I10005J66D01*
G02X22906500Y28354300I-28402J-20794D01*
G03X22906900Y28344600I8937J-4490D01*
G01X22916000Y28329900D01*
G03X22924500Y28325200I8479J5298D01*
G01X23394900D01*
G03X23402300Y28328400I62J10014D01*
G01X23413700Y28340900D01*
X23415100Y28344900D01*
X23414900Y28347000D01*
G02X23414800Y28350000I35111J2672D01*
G02X23485200I35200J0D01*
G02X23485100Y28347000I-35211J-328D01*
G01X23484900Y28344900D01*
X23486300Y28340900D01*
X23497700Y28328400D01*
G03X23505100Y28325200I7338J6814D01*
G01X23598800D01*
G03X23605800Y28328100I-42J10000D01*
G01X23610300Y28332600D01*
G03Y28346800I-7042J7100D01*
G01X23609600Y28347500D01*
X23608700Y28348000D01*
G02X23598800Y28396500I19595J29260D01*
G03X23600500Y28401700I-8289J5588D01*
G01X23600600Y28407400D01*
G03X23599300Y28412600I-9977J268D01*
G02X23659400Y28410800I30598J17403D01*
G03X23657800Y28405600I8420J-5437D01*
G01X23657600Y28396900D01*
G02X23657700Y28396700I-31230J-15740D01*
G01X23658200Y28395900D01*
X23658900Y28395200D01*
G03X23673100Y28395100I7150J6989D01*
G01X23750200Y28472200D01*
G03Y28486300I-7097J7050D01*
G01X23748900Y28487600D01*
X23747400Y28488300D01*
G02X23744400Y28489900I15050J31832D01*
G03X23739200Y28491400I-5265J-8489D01*
G01X23733500D01*
G03X23728300Y28489900I65J-9987D01*
G02X23710100Y28484800I-18253J30113D01*
G01X23710000D01*
G02Y28555200I0J35200D01*
G01X23710100D01*
G02X23728300Y28550100I-53J-35213D01*
G03X23733500Y28548600I5265J8487D01*
G01X23739200D01*
G03X23744400Y28550100I-65J9987D01*
G02X23789700Y28542600I18289J-30090D01*
G01X23791000Y28541000D01*
X23794800Y28539100D01*
X23811800Y28538400D01*
G03X23819300Y28541300I450J9985D01*
G01X23844400Y28566400D01*
G03X23847300Y28573400I-7100J7042D01*
G01Y28670300D01*
G02X23850200Y28677300I10000J-42D01*
G01X24037700Y28864800D01*
G02X24044700Y28867700I7042J-7100D01*
G01X24521500D01*
G03X24528500Y28870600I-42J10000D01*
G01X24561900Y28904000D01*
G03X24564800Y28910800I-7097J7045D01*
G02X24565600Y28917600I35206J-695D01*
G01X24565900Y28918700D01*
Y28919800D01*
G03X24555900Y28929800I-10000J0D01*
G01X23866700D01*
G03X23859600Y28926900I-57J-10003D01*
G01X23840900Y28908100D01*
G03X23838600Y28904300I7172J-6937D01*
G01X23838500Y28904200D01*
G02X23805000Y28879800I-33500J10797D01*
G02X23769800Y28915000I0J35200D01*
G02X23794100Y28948500I35242J0D01*
G01X23794300D01*
X23796500Y28949300D01*
X23834600Y28987300D01*
G02X23841600Y28990200I7041J-7098D01*
G01X24768400D01*
G02X24775400Y28987300I-42J-9998D01*
G01X24816900Y28945900D01*
G03X24820700Y28943500I7109J7047D01*
G01X24820800D01*
G02X24843500Y28920900I-10772J-33520D01*
G01Y28920700D01*
X24844300Y28918500D01*
X25042300Y28720400D01*
G02X25045200Y28713400I-7100J-7042D01*
G01Y28592100D01*
X25045800Y28589800D01*
X25046300Y28588800D01*
G02X25037500Y28545600I-31300J-16120D01*
G01X25035900Y28544300D01*
X25034000Y28540500D01*
X25033200Y28523500D01*
G03X25036100Y28516000I9991J-447D01*
G01X25770000Y27782100D01*
G02X25772900Y27775100I-7100J-7042D01*
G01Y27545200D01*
G02X25770000Y27538200I-10000J42D01*
G01X25757800Y27526000D01*
G03X25754900Y27519200I7097J-7045D01*
G02X25716900Y27484900I-35198J795D01*
G01X25714800Y27485100D01*
X25710800Y27483700D01*
X25698400Y27472300D01*
G03X25695200Y27464900I6810J-7337D01*
G01Y26425200D01*
G03X25705200Y26415200I10000J0D01*
G01Y25854800D01*
G02X25695200Y25844800I-10000J0D01*
G01X23991000D01*
G03X23984000Y25841900I42J-10000D01*
G01X23952300Y25810200D01*
G02X23945300Y25807300I-7042J7100D01*
G01X23780100D01*
G03X23771100Y25801700I-14J-10009D01*
G01X23761900Y25783000D01*
X23762400Y25777400D01*
X23764100Y25775100D01*
G02X23784000Y25716000I-77809J-59100D01*
G02X23588600I-97700J0D01*
G02X23608500Y25775100I97709J0D01*
G01X23610200Y25777400D01*
X23610700Y25783000D01*
X23601500Y25801700D01*
G03X23592500Y25807300I-8986J-4409D01*
G01X23526100D01*
G03X23517100Y25801700I-14J-10009D01*
G01X23507900Y25783000D01*
X23508400Y25777400D01*
X23510100Y25775100D01*
G02X23473500Y25627400I-77798J-59106D01*
G01X23471500Y25626500D01*
X23468800Y25623300D01*
X23463900Y25606700D01*
G03X23465100Y25598500I9582J-2786D01*
G01Y25598400D01*
G02X23468600Y25567800I-29700J-18897D01*
G03Y25561000I9418J-3400D01*
G01X23470900Y25554900D01*
G03X23475800Y25549400I9401J3442D01*
G02X23393500Y25551600I-43516J-87424D01*
G03X23398700Y25556800I-3982J9182D01*
G01X23401300Y25562700D01*
G03X23401700Y25569500I-9210J3954D01*
G02X23404900Y25597000I33717J10013D01*
G01Y25597100D01*
G03X23405700Y25605300I-8645J4982D01*
G01X23400700Y25619700D01*
G03X23395200Y25625600I-9417J-3265D01*
G01X23395100Y25625700D01*
G02X23354500Y25775100I37203J90327D01*
G01X23356200Y25777400D01*
X23356700Y25783000D01*
X23347500Y25801700D01*
G03X23338500Y25807300I-8986J-4409D01*
G01X23305800D01*
G03X23298800Y25804400I42J-10000D01*
G01X23266900Y25772500D01*
G03X23265100Y25760800I7050J-7073D01*
G02X23275900Y25716000I-86839J-44636D01*
G02X23080700I-97600J0D01*
G02X23091500Y25760800I97639J164D01*
G03X23089700Y25772500I-8850J4627D01*
G01X23048000Y25814200D01*
G03X23041000Y25817100I-7042J-7100D01*
G01X23009800D01*
G03X23000600Y25811000I4J-9994D01*
G01X22993300Y25794000D01*
G03X22995200Y25783200I9178J-3952D01*
G02X23022000Y25716000I-70851J-67200D01*
G02X22826600I-97700J0D01*
G02X22853400Y25783200I97651J0D01*
G03X22855300Y25794000I-7278J6848D01*
G01X22848000Y25811000D01*
G03X22838800Y25817100I-9204J-3894D01*
G01X22744000D01*
G03X22737100Y25814300I38J-9994D01*
G02X22734600Y25812100I-24500J25320D01*
G03X22730800Y25804900I6179J-7864D01*
G01X22730500Y25798300D01*
G03X22733900Y25790100I9991J-662D01*
G02X22640600Y25809100I-63673J-74091D01*
G01X22643800Y25810100D01*
X22647600Y25815300D01*
Y25834800D01*
G03X22637600Y25844800I-10000J0D01*
G01X22581300D01*
G03X22574300Y25841900I42J-10000D01*
G01X22504900Y25772500D01*
G03X22503100Y25760800I7050J-7073D01*
G02X22513900Y25716000I-86839J-44636D01*
G02X22416300Y25618400I-97600J0D01*
G02X22371500Y25629200I-164J97639D01*
G03X22359800Y25627400I-4627J-8850D01*
G01X22282600Y25550200D01*
G02X22275600Y25547300I-7042J7100D01*
G01X22260400D01*
G03X22251600Y25542000I17J-9985D01*
G01X22241800Y25523900D01*
X22242100Y25518500D01*
X22243700Y25516100D01*
G02X22260000Y25462100I-81419J-54037D01*
G01Y25462000D01*
G02X22064600I-97700J0D01*
G01Y25462100D01*
G02X22080900Y25516100I97719J-37D01*
G01X22082500Y25518500D01*
X22082800Y25523900D01*
X22073000Y25542000D01*
G03X22064200Y25547300I-8817J-4685D01*
G01X22006400D01*
G03X21997600Y25542000I17J-9985D01*
G01X21987800Y25523900D01*
X21988100Y25518500D01*
X21989700Y25516100D01*
G02X22006000Y25462100I-81419J-54037D01*
G01Y25462000D01*
G02X21810600I-97700J0D01*
G01Y25462100D01*
G02X21826900Y25516100I97719J-37D01*
G01X21828500Y25518500D01*
X21828800Y25523900D01*
X21819000Y25542000D01*
G03X21810200Y25547300I-8817J-4685D01*
G01X21752400D01*
G03X21743600Y25542000I17J-9985D01*
G01X21733800Y25523900D01*
X21734100Y25518500D01*
X21735700Y25516100D01*
G02X21752000Y25462100I-81419J-54037D01*
G01Y25462000D01*
G02X21556600I-97700J0D01*
G01Y25462100D01*
G02X21572900Y25516100I97719J-37D01*
G01X21574500Y25518500D01*
X21574800Y25523900D01*
X21565000Y25542000D01*
G03X21556200Y25547300I-8817J-4685D01*
G01X21498400D01*
G03X21489600Y25542000I17J-9985D01*
G01X21479800Y25523900D01*
X21480100Y25518500D01*
X21481700Y25516100D01*
G02X21498000Y25462100I-81419J-54037D01*
G01Y25462000D01*
G02X21302600I-97700J0D01*
G01Y25462100D01*
G02X21318900Y25516100I97719J-37D01*
G01X21320500Y25518500D01*
X21320800Y25523900D01*
X21311000Y25542000D01*
G03X21302200Y25547300I-8817J-4685D01*
G01X21300600D01*
X21264200Y25583700D01*
G02X21261300Y25590700I7100J7042D01*
G01Y25646300D01*
G03X21254400Y25655800I-10011J-16D01*
G01X21236200Y25661700D01*
G03X21225000Y25658100I-3130J-9486D01*
G02X21130500Y25812400I-78699J57890D01*
G01X21133300Y25812900D01*
X21137500Y25816400D01*
X21143900Y25836300D01*
G03X21141500Y25846400I-9508J3076D01*
G01X20973500Y26014400D01*
G03X20966500Y26017300I-7042J-7100D01*
G01X20864900D01*
G02X20857900Y26020200I42J10000D01*
G01X20380200Y26497900D01*
G02X20377300Y26504900I7100J7042D01*
G01Y27285300D01*
G02X20380200Y27292300I10000J-42D01*
G01X20497700Y27409800D01*
G02X20504700Y27412700I7042J-7100D01*
G01X20507700D01*
X20510300Y27418900D01*
G03X20508100Y27429800I-9266J3802D01*
G01X20270200Y27667700D01*
G02X20267300Y27674700I7100J7042D01*
G01Y27925100D01*
G02X20270200Y27932100I10000J-42D01*
G01X20326400Y27988300D01*
G03X20329300Y27995300I-7100J7042D01*
G01Y28009100D01*
G03X20324800Y28017400I-10007J-56D01*
G01X20310800Y28026700D01*
G03X20301400Y28027500I-5448J-8394D01*
G01X20301300D01*
G02X20215300Y28134000I-27787J65535D01*
G01Y28134100D01*
G03X20216300Y28143700I-8182J5704D01*
G01X20209600Y28159400D01*
G03X20201800Y28165400I-9204J-3895D01*
G02X20193700Y28167300I8517J54526D01*
G01X20191400Y28168000D01*
X20186800Y28167300D01*
X20171700Y28156100D01*
G03X20167700Y28148100I6010J-8005D01*
G01Y27923200D01*
G03X20170600Y27916200I10000J42D01*
G01X20180100Y27906700D01*
G03X20186900Y27903800I7045J7097D01*
G02X20173600Y27835700I-802J-35192D01*
G01X20173500D01*
G03X20162900Y27833400I-3521J-9347D01*
G03Y27819200I7042J-7100D01*
G01X20174000Y27808100D01*
G03X20180800Y27805200I7045J7097D01*
G02X20215200Y27770000I-809J-35200D01*
G02X20180000Y27734800I-35200J0D01*
G02X20144800Y27769200I0J35209D01*
G01X20144700Y27771200D01*
X20143300Y27774600D01*
X20095200Y27822700D01*
G02X20092300Y27829700I7100J7042D01*
G01Y28511300D01*
G02X20095200Y28518300I10000J-42D01*
G01X20151900Y28575000D01*
G03X20154800Y28582000I-7100J7042D01*
G01Y28601000D01*
G02X20211700Y28656200I55225J0D01*
G03X20218500Y28658600I295J9997D01*
G01X20230300Y28668800D01*
X20232000Y28672100D01*
X20232200Y28674000D01*
G02X20263700Y28705000I34969J-4029D01*
G01X20263800D01*
G03X20270300Y28708400I-1062J9943D01*
G01X20280700Y28720300D01*
X20281900Y28723800D01*
X20281800Y28725800D01*
G02X20313600Y28778000I55173J2175D01*
G03X20319200Y28784900I-4167J9104D01*
G01X20322600Y28800600D01*
G03X20320500Y28809200I-9748J2176D01*
G02X20395400Y28786800I54498J45806D01*
G03X20388800Y28780700I2767J-9614D01*
G01X20383200Y28765800D01*
G03X20384000Y28757000I9316J-3589D01*
G02X20392200Y28728100I-47013J-28953D01*
G01Y28709000D01*
G03X20395100Y28702000I10000J42D01*
G01X20450400Y28646700D01*
G02X20453300Y28639700I-7100J-7042D01*
G01Y28469600D01*
G03X20459500Y28460400I9985J40D01*
G01Y28460300D01*
G03X20470400Y28462500I3802J9266D01*
G01X20571900Y28564000D01*
G03X20574800Y28570800I-7097J7045D01*
G02X20645100Y28568500I35163J-751D01*
G03X20646600Y28562800I10011J-413D01*
G01X20649800Y28557600D01*
G03X20654200Y28553700I8538J5200D01*
G02X20672700Y28509800I-14611J-32005D01*
G03X20672300Y28504300I9400J-3448D01*
G01X20673500Y28498800D01*
G03X20676000Y28494000I9787J2046D01*
G02X20651000Y28434800I-25776J-23994D01*
G01X20649000Y28434700D01*
X20645600Y28433300D01*
X20611900Y28399600D01*
G03X20609000Y28392600I7100J-7042D01*
G01Y28384200D01*
G03X20612700Y28376500I9991J62D01*
G01X20624800Y28366600D01*
G03X20633000Y28364500I6343J7707D01*
G01X20633100D01*
G02X20673100Y28341900I6889J-34505D01*
G01X20673500Y28340600D01*
G03X20675900Y28336900I9399J3468D01*
G01X20676100Y28336700D01*
X20679700Y28335200D01*
X21463300D01*
X21465600Y28335800D01*
X21466600Y28336300D01*
G02X21482700Y28340200I16100J-31282D01*
G02Y28269800I0J-35200D01*
G02X21466600Y28273700I0J35182D01*
G01X21465600Y28274200D01*
X21463300Y28274800D01*
X20719300D01*
G03X20711100Y28270600I-47J-10013D01*
G01X20701600Y28257100D01*
G03X20700400Y28248100I8236J-5678D01*
G01Y28248000D01*
G02X20679300Y28203200I-33203J-11731D01*
G03X20672900Y28195900I3378J-9417D01*
G01X20669300Y28179300D01*
G03X20672000Y28170100I9758J-2132D01*
G01X20704000Y28138100D01*
G03X20710800Y28135200I7045J7097D01*
G02X20745200Y28098100I-769J-35212D01*
G01X20745100Y28095700D01*
X20747000Y28091300D01*
X20761600Y28079500D01*
G03X20770600Y28077700I6244J7820D01*
G02X20815200Y28043800I9416J-33900D01*
G01Y28041000D01*
G03X20818100Y28034000I10000J42D01*
G01X20902300Y27949800D01*
G02X20905200Y27942800I-7100J-7042D01*
G01Y27687200D01*
G02X20902300Y27680200I-10000J42D01*
G01X20868100Y27646000D01*
G03X20865200Y27639200I7097J-7045D01*
G02X20830000Y27604800I-35200J809D01*
G02X20794800Y27640000I0J35200D01*
G02X20829200Y27675200I35209J0D01*
G01X20831200Y27675300D01*
X20834600Y27676700D01*
X20856900Y27699000D01*
G03X20859800Y27706000I-7100J7042D01*
G01Y27724800D01*
G03X20856900Y27731800I-9996J-40D01*
G01X20846900Y27741800D01*
G03X20839800Y27744800I-7133J-6981D01*
G02X20820000Y27751100I291J35179D01*
G03X20814200Y27752900I-5726J-8206D01*
G01X20808100D01*
G03X20802400Y27751100I25J-10004D01*
G02X20752500Y27761500I-20005J28925D01*
G01Y27761600D01*
G03X20746700Y27765800I-8384J-5473D01*
G01X20733500Y27769500D01*
G03X20726200Y27768700I-2635J-9662D01*
G02X20705400Y27765100I-16130J31304D01*
G01X20703200Y27765400D01*
X20699200Y27764200D01*
X20686100Y27752700D01*
G03X20682700Y27745200I6603J-7514D01*
G01Y27553500D01*
G03X20685600Y27546500I10000J42D01*
G01X20704000Y27528100D01*
G03X20710800Y27525200I7045J7097D01*
G02X20742200Y27476000I-851J-35163D01*
G01Y27475800D01*
G03X20743000Y27466500I9186J-3894D01*
G01X20752200Y27452200D01*
G03X20760500Y27447700I8363J5520D01*
G01X20819100D01*
G03X20826100Y27450600I-42J10000D01*
G01X21365300Y27989800D01*
G02X21372300Y27992700I7042J-7100D01*
G01X21830300D01*
G03X21837300Y27995600I-42J10000D01*
G01X21935700Y28094000D01*
G03X21938600Y28100800I-7097J7045D01*
G02X21938800Y28103600I35178J-1106D01*
G03X21938900Y28104300I-9843J1763D01*
G03X21920700Y28110600I-10058J381D01*
G03X21920500Y28110300I8220J-5697D01*
G02X21924900Y28140600I-29188J19708D01*
G01Y28140500D01*
G03X21931100Y28134100I9538J3036D01*
G01X21946000Y28128700D01*
G03X21954900Y28129700I3452J9386D01*
G02X21974400Y28135200I18902J-29698D01*
G01X21976400D01*
X21980200Y28136600D01*
X21991800Y28148200D01*
G03X21994800Y28155300I-6985J7135D01*
G01Y28649000D01*
G03X21991900Y28656000I-10000J-42D01*
G01X21850200Y28797700D01*
G02X21847300Y28804700I7100J7042D01*
G01Y28993800D01*
G03X21844500Y29000700I-9991J-36D01*
G37*
G36*
G01X23550000Y29104800D02*
G02Y29175200I0J35200D01*
G01X24570000D01*
G02Y29104800I0J-35200D01*
G01X23550000D01*
G37*
G54D26*
X21927100Y29280000D03*
X22157100D03*
G54D25*
X20172000Y28855000D03*
G54D23*
X20640000Y21396000D03*
X25210000D03*
X20640000Y21650000D03*
X25210000D03*
X21661300Y21907300D03*
X21915300D03*
X20638300Y22160000D03*
X20892300D03*
X24958300D03*
X25212300D03*
X21661300Y22161300D03*
X21915300D03*
X20638300Y22414000D03*
X20892300D03*
X24958300D03*
X25212300D03*
X20638300Y22668000D03*
X20892300D03*
X24958300D03*
X25212300D03*
X20638300Y22922000D03*
X20892300D03*
X24958300D03*
X25212300D03*
X20638300Y23176000D03*
X20892300D03*
X24958300D03*
X25212300D03*
X20638300Y23430000D03*
X20892300D03*
X24958300D03*
X25212300D03*
X20638300Y23684000D03*
X20892300D03*
X24958300D03*
X25212300D03*
X20638300Y23938000D03*
X20892300D03*
X24958300D03*
X25212300D03*
X20638300Y24192000D03*
X20892300D03*
X24958300D03*
X25212300D03*
X20638300Y24446000D03*
X20892300D03*
X24958300D03*
X25212300D03*
X21146300Y25462000D03*
X22416300D03*
X22670300D03*
X22924300D03*
X23178300D03*
X23686300D03*
X24990000D03*
Y25716000D03*
G54D24*
X20275000Y21805000D03*
X23640000Y22120000D03*
X23535000Y22477500D03*
X23610000Y22627500D03*
X24070000Y22850000D03*
X22460000Y22867300D03*
Y23022300D03*
X23420000Y23030000D03*
X23700100Y23080000D03*
X24459800Y23200200D03*
X24370000Y23220000D03*
X24150000Y23240000D03*
X22440000Y23270000D03*
X24200200Y23330600D03*
X23447400Y23370000D03*
X22300000Y23650000D03*
X22440000Y23810000D03*
X23370000Y23850000D03*
X22945000Y23865000D03*
X24102000Y23938000D03*
X23312600Y24030000D03*
X23760000Y24050000D03*
X23125000Y24080000D03*
X23260000Y24110000D03*
X22440000Y24125000D03*
X23095000Y24180000D03*
X22070000Y24250000D03*
X22440000D03*
X25585000D03*
X23000100Y24670000D03*
X23100000D03*
X24140000Y24790000D03*
X23826400Y24796400D03*
X23770000Y24867400D03*
X22586800Y24882500D03*
X23860000Y24980000D03*
X22162300Y24997500D03*
X23570000Y25190000D03*
X23300000Y25197500D03*
X23160000Y25240000D03*
X24451000Y25577500D03*
X20170000Y27150000D03*
X20177300Y27620000D03*
X21610000Y28107700D03*
X21300000Y28120000D03*
X22695000Y28410000D03*
X20600000Y28670000D03*
X21355000Y28710000D03*
X23140000Y28785200D03*
X21010000Y28910000D03*
%LPD*%
G75*
G36*
G01X23496000Y28159800D02*
X23658400D01*
G02X23666600Y28155500I-20J-10007D01*
G01X23676000Y28141800D01*
G02X23677100Y28132600I-8234J-5650D01*
G01Y28132500D01*
G03X23674800Y28120000I32817J-12500D01*
G03X23710000Y28084800I35200J0D01*
G03X23730900Y28091700I0J35103D01*
G02X23736900Y28093600I5862J-8089D01*
G01X23743100D01*
G02X23749100Y28091700I138J-9989D01*
G03X23770000Y28084800I20900J28203D01*
G03X23788300Y28089900I47J35213D01*
G02X23793500Y28091400I5267J-8496D01*
G01X23799200D01*
G02X23804400Y28089900I-67J-9996D01*
G03X23808900Y28087600I18235J30125D01*
G01X23809000D01*
G02X23814900Y28080300I-3934J-9214D01*
G01X23818100Y28063900D01*
G02X23815300Y28054900I-9839J-1875D01*
G01X23406600Y27646200D01*
G02X23399100Y27643300I-7054J7095D01*
G01X23384300Y27644000D01*
G02X23377000Y27647600I384J9981D01*
G03X23350000Y27660200I-27000J-22629D01*
G03X23314800Y27625000I0J-35200D01*
G03X23327400Y27598000I35229J0D01*
G02X23331000Y27590700I-6381J-7684D01*
G01X23331700Y27575900D01*
G02X23328800Y27568400I-9995J-446D01*
G01X23196000Y27435600D01*
G02X23189000Y27432700I-7042J7101D01*
G01X22812200D01*
G03X22805200Y27429800I42J-9999D01*
G01X22641000Y27265600D01*
G02X22634000Y27262700I-7042J7101D01*
G01X20563400D01*
G02X20553800Y27269900I-5J9993D01*
G03X20520000Y27295200I-33800J-9928D01*
G03X20484800Y27260000I0J-35200D01*
G03X20519200Y27224800I35209J0D01*
G02X20526000Y27221900I-244J-9995D01*
G01X20527700Y27220200D01*
G03X20534700Y27217300I7042J7099D01*
G01X22611000D01*
G02X22620300Y27211100I43J-10011D01*
G02X22618100Y27200200I-9261J-3803D01*
G01X22393500Y26975600D01*
G02X22386500Y26972700I-7042J7101D01*
G01X20562200D01*
G03X20555200Y26969800I42J-9999D01*
G01X20526000Y26940600D01*
G02X20519200Y26937700I-7044J7095D01*
G03X20484800Y26902500I809J-35200D01*
G03X20520000Y26867300I35200J0D01*
G03X20555200Y26901700I0J35209D01*
G02X20558100Y26908500I9995J-244D01*
G01X20574000Y26924400D01*
G02X20581000Y26927300I7042J-7101D01*
G01X20701000D01*
G02X20710300Y26921100I43J-10011D01*
G02X20708100Y26910200I-9261J-3803D01*
G01X20620500Y26822600D01*
G02X20613100Y26819600I-7152J7014D01*
G01X20598500Y26820100D01*
G02X20591300Y26823400I220J9986D01*
G03X20565000Y26835200I-26300J-23409D01*
G03X20529800Y26800000I0J-35200D01*
G03X20538600Y26776700I35246J0D01*
G02X20541100Y26771000I-7467J-6673D01*
G01X20541600Y26764700D01*
G02X20540100Y26758600I-9975J-782D01*
G03X20535300Y26745700I29947J-18486D01*
G01Y26745600D01*
G02X20530300Y26738500I-9889J1654D01*
G01X20516600Y26730800D01*
G02X20508000Y26730200I-4928J8696D01*
G03X20495000Y26732700I-13028J-32695D01*
G03Y26662300I0J-35200D01*
G03X20521700Y26674500I0J35317D01*
G01X20521900Y26674800D01*
X20597800D01*
G03X20604800Y26677700I-42J9999D01*
G01X20634500Y26707400D01*
G02X20641900Y26710400I7152J-7014D01*
G01X20656500Y26709900D01*
G02X20663700Y26706600I-220J-9986D01*
G03X20690000Y26694800I26300J23409D01*
G03X20701500Y26696700I89J35215D01*
G01X20703100Y26697300D01*
X21613500D01*
G02X21622800Y26691100I43J-10011D01*
G02X21620600Y26680200I-9261J-3803D01*
G01X21541000Y26600600D01*
G02X21534200Y26597700I-7044J7095D01*
G03X21499800Y26562500I809J-35200D01*
G03X21535000Y26527300I35200J0D01*
G03X21570200Y26561700I0J35209D01*
G02X21573100Y26568500I9995J-244D01*
G01X21669000Y26664400D01*
G02X21676000Y26667300I7042J-7101D01*
G01X21873300D01*
G02X21882600Y26661100I48J-10004D01*
G02X21880400Y26650200I-9247J-3806D01*
G01X21368000Y26137800D01*
G03X21365100Y26130700I7105J-7044D01*
G01Y26032700D01*
G02X21355100Y26022700I-10000J0D01*
G01X21176200D01*
G02X21169300Y26025500I37J9992D01*
G03X21145000Y26035200I-24300J-25588D01*
G03Y25964800I0J-35200D01*
G03X21169300Y25974500I0J35288D01*
G02X21176200Y25977300I6937J-7192D01*
G01X21355100D01*
G02X21365100Y25967300I0J-10000D01*
G01Y25813800D01*
G02X21359300Y25804700I-9994J-28D01*
G03X21318000Y25768600I41060J-88649D01*
G02X21310600Y25764100I-8381J5447D01*
G01X21295000Y25762400D01*
G02X21286900Y25765200I-1102J9928D01*
G01X21000600Y26051500D01*
G02X20997700Y26058100I7090J7052D01*
G01X20997400Y26064100D01*
G02X20999100Y26070200I9989J503D01*
G03X21005200Y26090000I-29084J19800D01*
G03X20993000Y26116700I-35317J0D01*
G01X20992700Y26116900D01*
Y26473100D01*
X20993000Y26473300D01*
G03X21005200Y26500000I-23117J26700D01*
G03X20934800I-35200J0D01*
G03X20947000Y26473300I35317J0D01*
G01X20947300Y26473100D01*
Y26116900D01*
X20947000Y26116700D01*
G03X20938900Y26106500I23052J-26622D01*
G02X20921100I-8900J4652D01*
G03X20890000Y26125200I-31100J-16511D01*
G03X20862300Y26111800I0J-35330D01*
G01Y26111700D01*
G02X20855100Y26107900I-7874J6197D01*
G01X20840000Y26107000D01*
G02X20832300Y26110000I-537J10003D01*
G01X20425600Y26516700D01*
G02X20422700Y26523700I7101J7042D01*
G01Y27266500D01*
G02X20425600Y27273500I10001J-42D01*
G01X20516500Y27364400D01*
G02X20523500Y27367300I7042J-7101D01*
G01X20845400D01*
G03X20852400Y27370200I-42J9999D01*
G01X21188200Y27706000D01*
G02X21196600Y27708900I7126J-7026D01*
G01X21212400Y27706900D01*
G02X21219700Y27702100I-1296J-9921D01*
G03X21249200Y27684800I30315J17891D01*
G02X21256000Y27681900I-244J-9995D01*
G01X21370200Y27567700D01*
G03X21377200Y27564800I7042J7099D01*
G01X21531700D01*
G02X21539700Y27560900I68J-10015D01*
G01X21549400Y27548100D01*
G02X21551100Y27539400I-7958J-6071D01*
G03X21549800Y27530000I33889J-9477D01*
G03X21584200Y27494800I35209J0D01*
G02X21591000Y27491900I-244J-9995D01*
G01X21642700Y27440200D01*
G03X21649700Y27437300I7042J7099D01*
G01X22283000D01*
G03X22290000Y27440200I-42J9999D01*
G01X22381700Y27531900D01*
G02X22388700Y27534800I7042J-7101D01*
G01X22632800D01*
G03X22639800Y27537700I-42J9999D01*
G01X23189000Y28086900D01*
G02X23196000Y28089800I7042J-7101D01*
G01X23417800D01*
G03X23424800Y28092700I-42J9999D01*
G01X23489000Y28156900D01*
G02X23496000Y28159800I7042J-7101D01*
G37*
G36*
G01X20798500Y26867300D02*
X22498300D01*
G02X22507600Y26861100I43J-10011D01*
G02X22505400Y26850200I-9261J-3803D01*
G01X22400800Y26745600D01*
G02X22393800Y26742700I-7042J7101D01*
G01X22124900D01*
G02X22117400Y26746100I10J9994D01*
G01X22107400Y26757500D01*
G02X22105000Y26765400I7509J6596D01*
G01Y26765500D01*
G03X22105300Y26770100I-34901J4586D01*
G03X22034900I-35200J0D01*
G03X22035200Y26765500I35201J-14D01*
G01Y26765400D01*
G02X22032800Y26757500I-9909J-1304D01*
G01X22022800Y26746100D01*
G02X22015300Y26742700I-7510J6594D01*
G01X20731100D01*
G02X20724100Y26745600I42J9999D01*
G01X20716800Y26752800D01*
X20716600Y26753100D01*
G03X20713400Y26756300I-26450J-23250D01*
G02X20710100Y26763500I6686J7420D01*
G01X20709600Y26778100D01*
G02X20712600Y26785500I10014J248D01*
G01X20791500Y26864400D01*
G02X20798500Y26867300I7042J-7101D01*
G37*
G36*
G01X20584700Y27525600D02*
X20575900Y27516600D01*
X20590000Y27500700D01*
X20604100Y27516600D01*
X20595300Y27525600D01*
G03X20584700I-5300J-5300D01*
G37*
G36*
G01X20690000Y27502500D02*
Y27490000D01*
X20711300Y27488700D01*
X20710000Y27510000D01*
X20697500D01*
G03X20690000Y27502500I0J-7500D01*
G37*
G36*
G01X20532500Y26922500D02*
X20520000D01*
X20518700Y26901200D01*
X20540000Y26902500D01*
Y26915000D01*
G03X20532500Y26922500I-7500J0D01*
G37*
G36*
G01X20582500Y26760000D02*
X20570000D01*
X20568700Y26738700D01*
X20590000Y26740000D01*
Y26752500D01*
G03X20582500Y26760000I-7500J0D01*
G37*
G36*
G01X20518000Y26702800D02*
X20509000Y26711600D01*
X20493100Y26697500D01*
X20509000Y26683400D01*
X20518000Y26692200D01*
G03Y26702800I-5300J5300D01*
G37*
G36*
G01X20723000Y26725300D02*
X20704100Y26744000D01*
X20688200Y26730600D01*
X20700000Y26720000D01*
X20717700D01*
X20723000Y26725300D01*
G37*
G36*
G01X20540000Y27247500D02*
Y27260000D01*
X20518700Y27261300D01*
X20520000Y27240000D01*
X20532500D01*
G03X20540000Y27247500I0J7500D01*
G37*
G36*
G01X20964700Y26113000D02*
X20955900Y26104000D01*
X20970000Y26088100D01*
X20984100Y26104000D01*
X20975300Y26113000D01*
G03X20964700I-5300J-5300D01*
G37*
G36*
G01X20975300Y26477000D02*
X20984100Y26486000D01*
X20970000Y26501900D01*
X20955900Y26486000D01*
X20964700Y26477000D01*
G03X20975300I5300J5300D01*
G37*
G36*
G01X20486200Y28414100D02*
X20516500Y28444400D01*
G02X20527400Y28446600I7097J-7061D01*
G02X20533600Y28437300I-3811J-9257D01*
G01Y27658200D01*
G03X20536500Y27651200I9999J42D01*
G01X20564400Y27623300D01*
G02X20567300Y27616300I-7101J-7042D01*
G01Y27611800D01*
G02X20557300Y27601800I-10000J0D01*
G01X20555300D01*
X20553400Y27602500D01*
G03X20540800Y27605200I-13547J-32469D01*
G02X20534000Y27608100I244J9995D01*
G01X20465600Y27676500D01*
G02X20462700Y27683500I7101J7042D01*
G01Y27824000D01*
G02X20465600Y27831000I10001J-42D01*
G01X20480400Y27845800D01*
G03X20483300Y27852800I-7099J7042D01*
G01Y28407100D01*
G02X20486200Y28414100I10001J-42D01*
G37*
G36*
G01X20210000Y28545800D02*
G03X20213100Y28545900I-229J55193D01*
G01X20220800Y28539800D01*
G02X20224300Y28534500I-6174J-7883D01*
G03X20258300Y28508300I34000J8961D01*
G03X20261400Y28508400I416J35213D01*
G02X20269700Y28505200I927J-9959D01*
G01X20280400Y28493200D01*
G02X20282800Y28484600I-7400J-6700D01*
G03X20281800Y28474000I54213J-10462D01*
G03X20337000Y28418800I55200J0D01*
G01X20356000D01*
G02X20363000Y28415900I-42J-10001D01*
G01X20375000Y28403900D01*
G02X20377900Y28396900I-7101J-7042D01*
G01Y28292300D01*
G02X20373900Y28284400I-9984J93D01*
G01X20361100Y28274700D01*
G02X20352300Y28273000I-6098J7941D01*
G01Y28273100D01*
G03X20337000Y28275200I-15086J-53129D01*
G03X20316700Y28271300I77J-55185D01*
G02X20309400I-3650J9311D01*
G01X20296700Y28276100D01*
G02X20291300Y28281000I3565J9354D01*
G03X20272100Y28298300I-31521J-15678D01*
G02X20266400Y28303700I3467J9368D01*
G01X20260600Y28317200D01*
G02X20260700Y28325100I9236J3834D01*
G03X20265200Y28347000I-50714J21833D01*
G03X20210000Y28402200I-55200J0D01*
G03X20171700Y28386800I0J-55326D01*
G02X20160900Y28384800I-6915J7184D01*
G01X20143800Y28392000D01*
G02X20137700Y28401200I3907J9213D01*
G01Y28492500D01*
G02X20140600Y28499500I10001J-42D01*
G01X20184000Y28542900D01*
G02X20191000Y28545800I7042J-7101D01*
G01X20210000D01*
G37*
G36*
G01X20377000Y28695500D02*
Y28728000D01*
X20335700Y28729300D01*
X20337000Y28688000D01*
X20369500D01*
G03X20377000Y28695500I0J7500D01*
G37*
G36*
G01X20392400Y27839900D02*
X20379900D01*
X20378600Y27818600D01*
X20399900Y27819900D01*
Y27832400D01*
G03X20392400Y27839900I-7500J0D01*
G37*
G36*
G01X20377000Y28441500D02*
Y28474000D01*
X20335700Y28475300D01*
X20337000Y28434000D01*
X20369500D01*
G03X20377000Y28441500I0J7500D01*
G37*
G36*
G01X20347500Y27890000D02*
X20335000D01*
X20333700Y27868700D01*
X20355000Y27870000D01*
Y27882500D01*
G03X20347500Y27890000I-7500J0D01*
G37*
G36*
G01X20177500Y28561000D02*
X20210000D01*
X20211300Y28602300D01*
X20170000Y28601000D01*
Y28568500D01*
G03X20177500Y28561000I7500J0D01*
G37*
G36*
G01X20160000Y27782500D02*
Y27770000D01*
X20181300Y27768700D01*
X20180000Y27790000D01*
X20167500D01*
G03X20160000Y27782500I0J-7500D01*
G37*
G36*
G01X20177500Y28307000D02*
X20210000D01*
X20211300Y28348300D01*
X20170000Y28347000D01*
Y28314500D01*
G03X20177500Y28307000I7500J0D01*
G37*
G36*
G01X20166100Y27881100D02*
Y27868600D01*
X20187400Y27867300D01*
X20186100Y27888600D01*
X20173600D01*
G03X20166100Y27881100I0J-7500D01*
G37*
G36*
G01X20359300Y28157500D02*
X20367200Y28195500D01*
X20336600Y28221800D01*
X20308800Y28191800D01*
X20346700Y28153700D01*
G03X20359300Y28157500I5271J5311D01*
G37*
G36*
G01X20842500Y27660000D02*
X20830000D01*
X20828700Y27638700D01*
X20850000Y27640000D01*
Y27652500D01*
G03X20842500Y27660000I-7500J0D01*
G37*
G36*
G01X20800000Y28027500D02*
Y28043800D01*
X20778900Y28045300D01*
X20777800Y28024200D01*
X20790300Y28020300D01*
G03X20800000Y28027500I2178J7200D01*
G37*
G36*
G01X20246300Y28245900D02*
X20258800Y28245400D01*
X20261200Y28266600D01*
X20239900Y28266300D01*
X20239200Y28253800D01*
G03X20246300Y28245900I7500J-400D01*
G37*
G36*
G01X20244400Y28258400D02*
X20211900Y28259900D01*
X20208600Y28218700D01*
X20249900Y28218200D01*
X20251500Y28250600D01*
G03X20244400Y28258400I-7499J305D01*
G37*
G36*
G01X25678400Y26400000D02*
X25680000D01*
G02X25690000Y26390000I0J-10000D01*
G01Y25870000D01*
G02X25680000Y25860000I-10000J0D01*
G01X25066100D01*
G02X25056700Y25866600I-1J9993D01*
G01X25050200Y25884300D01*
G02X25053100Y25895400I9369J3481D01*
G03X25087700Y25970000I-63121J74600D01*
G03X24892300I-97700J0D01*
G03X24926900Y25895400I97721J0D01*
G02X24929800Y25884300I-6469J-7619D01*
G01X24923300Y25866600D01*
G02X24913900Y25860000I-9399J3393D01*
G01X24026300D01*
G02X24017000Y25866200I-43J10011D01*
G02X24019200Y25877100I9261J3803D01*
G01X24071200Y25929100D01*
X24072700Y25932700D01*
Y25933600D01*
X24075500Y25936500D01*
G03X24085200Y25960800I-25588J24300D01*
G03X24014800I-35200J0D01*
G03X24017200Y25947900I35222J-120D01*
G01X24017300D01*
G02X24015000Y25937100I-9324J-3659D01*
G01X23987700Y25909800D01*
G02X23978000Y25907200I-7089J7055D01*
G01X23961100Y25911800D01*
G02X23954100Y25918900I2657J9620D01*
G03X23920000Y25945200I-34100J-8957D01*
G03X23884800Y25910000I0J-35200D01*
G03X23890400Y25891000I35187J46D01*
G01Y25890900D01*
G02X23890800Y25880700I-8399J-5437D01*
G01X23882300Y25865200D01*
G02X23873500Y25860000I-8775J4804D01*
G01X23806300D01*
G02X23797000Y25866200I-43J10011D01*
G02X23799200Y25877100I9261J3803D01*
G01X23956500Y26034400D01*
G02X23963500Y26037300I7042J-7101D01*
G01X23971500D01*
G02X23978400Y26034500I-37J-9992D01*
G03X24002700Y26024800I24300J25588D01*
G03Y26095200I0J35200D01*
G03X23978400Y26085500I0J-35288D01*
G02X23971500Y26082700I-6937J7192D01*
G01X23957500D01*
G02X23949400Y26086800I-19J10015D01*
G01X23939900Y26100000D01*
G02X23938400Y26109000I8037J5964D01*
G01X23938500D01*
G03X23940200Y26120000I-33529J10813D01*
G03X23869800I-35200J0D01*
G03X23898700Y26085400I35162J0D01*
G02X23906500Y26078500I-1773J-9863D01*
G01X23911800Y26061500D01*
G02X23909300Y26051400I-9551J-2995D01*
G01X23765800Y25907900D01*
G02X23758800Y25905000I-7042J7101D01*
G01X23631600D01*
G02X23622300Y25911200I-43J10011D01*
G02X23624500Y25922100I9261J3803D01*
G01X23677400Y25975000D01*
G02X23681400Y25977400I6998J-7130D01*
G03X23706000Y26011000I-10646J33600D01*
G03X23635600I-35200J0D01*
G03X23636200Y26004300I35220J-223D01*
G02X23633500Y25995300I-9791J-1968D01*
G01X23628100Y25989900D01*
G02X23621100Y25987000I-7044J7103D01*
G01X23606900D01*
G02X23599800Y25989900I-63J9988D01*
G03X23575000Y26000100I-24800J-25049D01*
G03X23547300Y25986600I0J-35168D01*
G01X23547200Y25986500D01*
G02X23539400Y25982700I-7845J6198D01*
G01X22948100D01*
G02X22939500Y25987700I53J9987D01*
G01X22930700Y26002700D01*
G02X22930600Y26012700I8629J5087D01*
G03X22935200Y26030000I-30576J17392D01*
G03X22926500Y26053100I-35177J-60D01*
G01Y26053200D01*
G02X22924100Y26060700I7543J6548D01*
G01X22925500Y26075300D01*
G02X22929300Y26082200I9947J-982D01*
G03X22942900Y26110000I-21613J27800D01*
G03X22932000Y26135500I-35278J0D01*
G02X22928900Y26142700I6890J7234D01*
G01Y26157300D01*
G02X22932000Y26164500I9990J-34D01*
G03X22942900Y26190000I-24378J25500D01*
G03X22872500I-35200J0D01*
G03X22883400Y26164500I35278J0D01*
G02X22886500Y26157300I-6890J-7234D01*
G01Y26142700D01*
G02X22883400Y26135500I-9990J34D01*
G03X22872500Y26110000I24378J-25500D01*
G03X22881200Y26086900I35177J60D01*
G01Y26086800D01*
G02X22883600Y26079300I-7543J-6548D01*
G01X22882200Y26064700D01*
G02X22878400Y26057800I-9947J982D01*
G03X22864800Y26030000I21613J-27800D01*
G03X22869400Y26012700I35176J92D01*
G02X22869300Y26002700I-8729J-4913D01*
G01X22860500Y25987700D01*
G02X22851900Y25982700I-8653J4987D01*
G01X22638500D01*
G02X22631300Y25985800I38J9999D01*
G01X22621300Y25996200D01*
G02X22618500Y26003600I7181J6947D01*
G01Y26005000D01*
G03X22548100I-35200J0D01*
G03X22562200Y25976800I35250J0D01*
G02X22566200Y25969500I-5959J-8011D01*
G01X22567300Y25954300D01*
G02X22564400Y25946500I-9968J-733D01*
G01X22480800Y25862900D01*
G02X22473800Y25860000I-7042J7101D01*
G01X21816100D01*
X21814500Y25860600D01*
G03X21802500Y25862700I-12000J-33236D01*
G03X21767300Y25827500I0J-35200D01*
G03X21785000Y25797000I35128J0D01*
G02X21790000Y25788300I-5012J-8667D01*
G01Y25602700D01*
G02X21780000Y25592700I-10000J0D01*
G01X21540000D01*
G02X21530000Y25602700I0J10000D01*
G01Y26130000D01*
G02X21532900Y26137100I10008J54D01*
G01X21543000Y26147200D01*
G02X21550000Y26150100I7044J-7104D01*
G01X21550100D01*
G03X21578000Y26163900I-55J35214D01*
G02X21586300Y26167900I8003J-5995D01*
G01X21602700Y26167300D01*
G02X21610700Y26162900I-296J-10011D01*
G01Y26162800D01*
G03X21640000Y26147100I29300J19490D01*
G03X21675200Y26182300I0J35200D01*
G01Y26184100D01*
G02X21678300Y26191800I9961J464D01*
G01X21689500Y26202400D01*
G02X21697400Y26205000I6792J-7334D01*
G03X21701300Y26204800I3750J35008D01*
G03X21666100Y26240000I0J35200D01*
G01Y26238200D01*
G02X21663000Y26230500I-9961J-464D01*
G01X21651800Y26219900D01*
G02X21643900Y26217300I-6792J7334D01*
G03X21640000Y26217500I-3750J-35008D01*
G03X21605100Y26187000I0J-35217D01*
G02X21585100Y26187600I-9971J1273D01*
G03X21581300Y26201400I-35119J-2247D01*
G02X21583100Y26213100I8867J4624D01*
G01X21767100Y26397100D01*
G02X21774100Y26400000I7042J-7100D01*
G01X21815100D01*
G02X21825000Y26391100I-34J-9994D01*
G03X21859200Y26359800I34992J3900D01*
G02X21866000Y26356900I-244J-9995D01*
G01X21907700Y26315200D01*
G03X21914700Y26312300I7042J7099D01*
G01X22066100D01*
G02X22073900Y26308500I-42J-9991D01*
G01X22083700Y26296200D01*
G02X22085700Y26287800I-7766J-6287D01*
G03X22084800Y26280000I34288J-7908D01*
G03X22100400Y26250700I35316J0D01*
G01X22100500D01*
G02X22104900Y26242700I-5602J-8291D01*
G01X22105400Y26226300D01*
G02X22101400Y26218000I-10009J-290D01*
G03X22087500Y26190000I21251J-28000D01*
G03X22098400Y26164500I35278J0D01*
G02X22101500Y26157300I-6890J-7234D01*
G01Y26142700D01*
G02X22098400Y26135500I-9990J34D01*
G03X22087500Y26110000I24378J-25500D01*
G03X22157900I35200J0D01*
G03X22147000Y26135500I-35278J0D01*
G02X22143900Y26142700I6890J7234D01*
G01Y26157300D01*
G02X22147000Y26164500I9990J-34D01*
G03X22157900Y26190000I-24378J25500D01*
G03X22142300Y26219300I-35316J0D01*
G01X22142200D01*
G02X22137800Y26227300I5602J8291D01*
G01X22137300Y26243700D01*
G02X22141300Y26252000I10009J290D01*
G03X22155200Y26280000I-21251J28000D01*
G03X22154300Y26287800I-35188J-108D01*
G02X22156300Y26296200I9766J2113D01*
G01X22166100Y26308500D01*
G02X22173900Y26312300I7842J-6191D01*
G01X22323100D01*
X22323300Y26312000D01*
G03X22350000Y26299800I26700J23117D01*
G03X22379900Y26316400I0J35228D01*
G02X22386500Y26320900I8462J-5321D01*
G01X22401100Y26323600D01*
G02X22408900Y26321800I1844J-9809D01*
G03X22430000Y26314800I21100J28301D01*
G03X22465200Y26350000I0J35200D01*
G03X22459600Y26369000I-35187J-46D01*
G01Y26369100D01*
G02X22459200Y26379300I8399J5437D01*
G01X22467700Y26394800D01*
G02X22476500Y26400000I8775J-4804D01*
G01X22787100D01*
G02X22797100Y26390000I0J-10000D01*
G03X22867500I35200J0D01*
G02X22877500Y26400000I10000J0D01*
G01X23084700D01*
G02X23091800Y26397100I54J-10008D01*
G01X23101900Y26387000D01*
G02X23104800Y26380000I-7104J-7044D01*
G01Y26379900D01*
G03X23140000Y26344800I35200J100D01*
G03X23160900Y26351700I0J35103D01*
G02X23166900Y26353600I5862J-8089D01*
G01X23173100D01*
G02X23179100Y26351700I138J-9989D01*
G03X23200000Y26344800I20900J28203D01*
G03X23222300Y26352800I0J35081D01*
G02X23228600Y26355000I6259J-7803D01*
G01X23241400D01*
G02X23247700Y26352800I41J-10003D01*
G03X23270000Y26344800I22300J27081D01*
G03X23295500Y26355700I0J35278D01*
G02X23302700Y26358800I7234J-6890D01*
G01X23317300D01*
G02X23324500Y26355700I-34J-9990D01*
G03X23350000Y26344800I25500J24378D01*
G03X23385200Y26379900I0J35200D01*
G01Y26380000D01*
G02X23388100Y26387000I10004J-44D01*
G01X23398200Y26397100D01*
G02X23405300Y26400000I7046J-7108D01*
G01X23819900D01*
G02X23827300Y26396800I65J-10006D01*
G01X23837400Y26385800D01*
G02X23839900Y26378100I-7450J-6675D01*
G03X23839800Y26375000I35113J-2684D01*
G03X23875000Y26339800I35200J0D01*
G03X23895900Y26346700I0J35103D01*
G02X23901900Y26348600I5862J-8089D01*
G01X23908100D01*
G02X23914100Y26346700I138J-9989D01*
G03X23935000Y26339800I20900J28203D01*
G03X23969000Y26365800I0J35231D01*
G02X23976100Y26372800I9616J-2652D01*
G01X23992900Y26377300D01*
G02X24002600Y26374700I2613J-9646D01*
G01X24064600Y26312700D01*
G03X24071600Y26309800I7041J7098D01*
G01X25013400D01*
G03X25020400Y26312700I-41J9998D01*
G01X25105200Y26397500D01*
X25106900D01*
G03X25125000Y26392500I18100J30261D01*
G03X25141100Y26396400I0J35182D01*
G02X25145700Y26397500I4560J-8901D01*
G01X25204100D01*
G02X25211200Y26394600I57J-10002D01*
G01X25293100Y26312700D01*
G03X25300100Y26309800I7041J7098D01*
G01X25574500D01*
G03X25581500Y26312700I-41J9998D01*
G01X25646700Y26377900D01*
G02X25650800Y26380400I7105J-7041D01*
G03X25669900Y26395300I-10781J33512D01*
G02X25678400Y26400000I8478J-5296D01*
G37*
G36*
G01X21638300Y27564800D02*
X22326200D01*
G02X22335500Y27558600I43J-10011D01*
G02X22333300Y27547700I-9261J-3803D01*
G01X22271200Y27485600D01*
G02X22264200Y27482700I-7042J7101D01*
G01X21668500D01*
G02X21661500Y27485600I42J10001D01*
G01X21623100Y27524000D01*
G02X21620200Y27530800I7095J7044D01*
G03X21618900Y27539400I-35184J-920D01*
G02X21620600Y27548100I9658J2629D01*
G01X21630300Y27560900D01*
G02X21638300Y27564800I7932J-6115D01*
G37*
G36*
G01X24429900Y28625100D02*
X24430900Y28625300D01*
G03X24438400Y28627500I-6090J34644D01*
G01X24440300Y28628200D01*
X24442300D01*
G02X24452300Y28618200I0J-10000D01*
G01Y28596000D01*
G02X24449400Y28589000I-10001J42D01*
G01X24300200Y28439800D01*
G03X24297300Y28432800I7099J-7042D01*
G01Y28193500D01*
G02X24294400Y28186500I-10001J42D01*
G01X23678500Y27570600D01*
G02X23671500Y27567700I-7042J7101D01*
G01X23577300D01*
G03X23570300Y27564800I42J-9999D01*
G01X22921100Y26915600D01*
G02X22914100Y26912700I-7042J7101D01*
G01X22461500D01*
G02X22452200Y26918900I-43J10011D01*
G02X22454400Y26929800I9261J3803D01*
G01X22622100Y27097500D01*
G02X22636300I7100J-7033D01*
G01X22637500Y27096300D01*
X22638300Y27094800D01*
G03X22640700Y27090500I31839J14951D01*
G02Y27079500I-8357J-5500D01*
G03Y27040500I29275J-19500D01*
G02Y27029500I-8357J-5500D01*
G03X22634800Y27010000I29275J-19500D01*
G03X22705200I35200J0D01*
G03X22699300Y27029500I-35175J0D01*
G02Y27040500I8357J5500D01*
G03Y27079500I-29275J19500D01*
G02Y27090500I8357J5500D01*
G03X22705200Y27110000I-29275J19500D01*
G03X22692600Y27137000I-35229J0D01*
G02X22689000Y27144300I6381J7684D01*
G01X22688300Y27159100D01*
G02X22691200Y27166600I9995J446D01*
G01X22849000Y27324400D01*
G02X22856000Y27327300I7042J-7101D01*
G01X23232800D01*
G03X23239800Y27330200I-42J9999D01*
G01X24197300Y28287700D01*
G03X24200200Y28294700I-7099J7042D01*
G01Y28394200D01*
G02X24203100Y28401200I10001J-42D01*
G01X24423700Y28621800D01*
G02X24427100Y28624100I7195J-6973D01*
G01X24429900Y28625100D01*
G37*
G36*
G01X22573300Y26807300D02*
X22665200D01*
G02X22672700Y26803900I-12J-9998D01*
G01X22682700Y26792500D01*
G02X22685100Y26784600I-7512J-6597D01*
G03X22684800Y26780000I34901J-4586D01*
G03X22720000Y26744800I35200J0D01*
G03X22736100Y26748700I0J35182D01*
G02X22740700Y26749800I4560J-8901D01*
G01X22752000D01*
G02X22756600Y26748700I40J-10001D01*
G03X22761900Y26746500I16099J31301D01*
G02X22766000Y26744000I-3005J-9541D01*
G01X23037300Y26472700D01*
G03X23044300Y26469800I7041J7098D01*
G01X23903300D01*
G02X23910400Y26466900I57J-10002D01*
G01X23945000Y26432300D01*
G02X23947200Y26421400I-7065J-7098D01*
G01X23947100D01*
G02X23937900Y26415200I-9238J3782D01*
G01X22381400D01*
G02X22372100Y26421400I-43J10011D01*
G02X22374300Y26432300I9261J3803D01*
G01X22393700Y26451700D01*
G03X22396600Y26458700I-7099J7042D01*
G01Y26520600D01*
X22396900Y26520800D01*
G03X22409100Y26547500I-23117J26700D01*
G03X22373900Y26582700I-35200J0D01*
G03X22342300Y26563100I0J-35273D01*
G02X22337100Y26558200I-8996J4337D01*
G01X22324500Y26553200D01*
G02X22317300Y26553100I-3730J9279D01*
G03X22305100Y26555300I-12248J-32991D01*
G03X22278400Y26543100I0J-35317D01*
G01X22278200Y26542800D01*
X22119300D01*
X22119100Y26543100D01*
G03X22092400Y26555300I-26700J-23117D01*
G03Y26484900I0J-35200D01*
G03X22119100Y26497100I0J35317D01*
G01X22119300Y26497400D01*
X22278200D01*
X22278400Y26497100D01*
G03X22305100Y26484900I26700J23117D01*
G03X22333100Y26498800I0J35151D01*
G01X22333200D01*
G02X22341100Y26502800I7990J-5978D01*
G01X22341200D01*
G02X22351200Y26492800I0J-10000D01*
G01Y26477500D01*
G02X22348300Y26470500I-10001J42D01*
G01X22315900Y26438100D01*
G02X22308900Y26435200I-7042J7101D01*
G01X22305000D01*
G03X22275800Y26419600I0J-35128D01*
G02X22267500Y26415200I-8291J5611D01*
G01X21893600D01*
G02X21886200Y26418500I24J10002D01*
G03X21833800I-26200J-23485D01*
G02X21826400Y26415200I-7424J6702D01*
G01X21769200D01*
G02X21759900Y26421400I-48J10004D01*
G02X21762100Y26432300I9247J3806D01*
G01X21931700Y26601900D01*
G02X21938700Y26604800I7040J-7095D01*
G01X22457700D01*
G03X22492900Y26640000I0J35200D01*
G03X22472300Y26672000I-35154J0D01*
G02X22466600Y26679400I4157J9097D01*
G01X22463600Y26695700D01*
G02X22466400Y26704500I9865J1707D01*
G01X22566300Y26804400D01*
G02X22573300Y26807300I7042J-7101D01*
G37*
G36*
G01X25394100Y27411300D02*
G03X25382500Y27416100I-19048J-29617D01*
G02X25375000Y27423100I2114J9783D01*
G01X25370100Y27440000D01*
G02X25372600Y27449900I9578J2847D01*
G01X25461900Y27539100D01*
G02X25465700Y27541500I7109J-7048D01*
G01X25465800D01*
G03X25490200Y27575000I-10797J33500D01*
G03X25455000Y27610200I-35200J0D01*
G03X25421500Y27585900I0J-35242D01*
G01Y27585700D01*
X25420700Y27583500D01*
X25292700Y27455400D01*
G03X25289800Y27448400I7099J-7042D01*
G01Y26586600D01*
G03X25292700Y26579600I10000J42D01*
G01X25440000Y26432300D01*
G02X25442200Y26421400I-7066J-7098D01*
G01X25442100D01*
G02X25432900Y26415200I-9240J3785D01*
G01X25342000D01*
X25340900Y26416400D01*
X25340000Y26424100D01*
G03X25278500Y26443100I-34957J-4116D01*
G01Y26443000D01*
G02X25271300Y26439700I-7430J6706D01*
G01X25256500Y26439100D01*
G02X25249100Y26442100I-249J10013D01*
G01X25236200Y26455000D01*
G03X25229200Y26457900I-7042J-7100D01*
G01X25144400D01*
X25142100Y26458500D01*
X25141100Y26459000D01*
G03X25129500Y26462600I-16075J-31310D01*
G01X25127700Y26462800D01*
X25124500Y26464500D01*
X25114500Y26476000D01*
G02X25112000Y26482600I7490J6611D01*
G01Y27015200D01*
X25112700Y27017000D01*
G03X25050100Y27011400I-32713J12998D01*
G01X25050900Y27010200D01*
X25051600Y27007600D01*
Y26433400D01*
G02X25048700Y26426400I-10000J42D01*
G01X25040400Y26418100D01*
G02X25033400Y26415200I-7042J7100D01*
G01X24902800D01*
G02X24893800Y26420700I-60J10015D01*
G01Y26420800D01*
G03X24885300Y26431700I-31500J-15800D01*
G01X24885000Y26431900D01*
Y26483000D01*
G03X24882100Y26490000I-10000J-42D01*
G01X24767300Y26604800D01*
G03X24760300Y26607700I-7042J-7100D01*
G01X23713500D01*
G02X23706500Y26610600I42J10000D01*
G01X23478100Y26839000D01*
G02X23475200Y26845800I7097J7045D01*
G03X23440000Y26880200I-35200J-809D01*
G03X23404800Y26845000I0J-35200D01*
G03X23439200Y26809800I35209J0D01*
G01X23441200Y26809700D01*
X23444600Y26808300D01*
X23687700Y26565200D01*
G03X23694700Y26562300I7042J7100D01*
G01X24741500D01*
G02X24748500Y26559400I-42J-10000D01*
G01X24836700Y26471200D01*
G02X24839600Y26464200I-7100J-7042D01*
G01Y26431900D01*
X24839300Y26431700D01*
G03X24830800Y26420800I23000J-26700D01*
G01Y26420700D01*
G02X24821800Y26415200I-8940J4515D01*
G01X24051600D01*
G02X24044600Y26418100I42J10000D01*
G01X23935400Y26527300D01*
G03X23928400Y26530200I-7042J-7100D01*
G01X23069400D01*
G02X23062300Y26533100I-57J10003D01*
G01X23043900Y26551600D01*
G02X23041000Y26559300I7082J7063D01*
G01X23042200Y26576700D01*
X23044300Y26580500D01*
X23046100Y26581800D01*
G03X23053500Y26630700I-21089J28201D01*
G01X23052500Y26632000D01*
X23051600Y26634900D01*
Y26650100D01*
X23052500Y26653000D01*
X23053500Y26654300D01*
G03X23060200Y26675000I-28627J20700D01*
G03X22989800I-35200J0D01*
G03X22996500Y26654300I35327J0D01*
G01X22997500Y26653000D01*
X22998400Y26650100D01*
Y26634900D01*
X22997500Y26632000D01*
X22996500Y26630700D01*
G03X22992300Y26623000I28565J-20576D01*
G01X22991500Y26621000D01*
X22990000Y26619500D01*
G02X22975900I-7050J7099D01*
G01X22808600Y26786900D01*
G02X22806200Y26790700I7048J7109D01*
G01Y26790800D01*
G03X22805200Y26793400I-33302J-11316D01*
G01X22804500Y26795300D01*
Y26797300D01*
G02X22814500Y26807300I10000J0D01*
G01X22957900D01*
G03X22964900Y26810200I-42J10000D01*
G01X23114100Y26959400D01*
G02X23121100Y26962300I7042J-7100D01*
G01X24687900D01*
G03X24694900Y26965200I-42J10000D01*
G01X25281600Y27551900D01*
G02X25288400Y27554800I7045J-7097D01*
G03X25308800Y27618100I-797J35194D01*
G01X25306900Y27619600D01*
X25304800Y27623900D01*
X25305300Y27642800D01*
G02X25309700Y27650800I9985J-282D01*
G03X25313000Y27706700I-19682J29209D01*
G01X25312700Y27706900D01*
Y28066000D01*
G02X25318900Y28075200I9985J-40D01*
G01Y28075300D01*
G02X25329800Y28073100I3802J-9266D01*
G01X25544400Y27858500D01*
G02X25547300Y27851500I-7100J-7042D01*
G01Y27414400D01*
G02X25537300Y27404400I-10000J0D01*
G01X25461200D01*
G02X25454300Y27407200I37J9992D01*
G03X25410900Y27411300I-24302J-25488D01*
G02X25405500Y27409700I-5427J8404D01*
G01X25399500D01*
G02X25394100Y27411300I27J10003D01*
G37*
G36*
G01X22379200Y26524500D02*
X22388000Y26533500D01*
X22373900Y26549400D01*
X22359800Y26533500D01*
X22368600Y26524500D01*
G03X22379200I5300J5300D01*
G37*
G36*
G01X22322400Y26420000D02*
X22305000D01*
X22303500Y26398900D01*
X22324400Y26397300D01*
X22329400Y26409800D01*
G03X22322400Y26420000I-7000J2698D01*
G37*
G36*
G01X22115400Y26525400D02*
X22106400Y26534200D01*
X22090500Y26520100D01*
X22106400Y26506000D01*
X22115400Y26514800D01*
G03Y26525400I-5300J5300D01*
G37*
G36*
G01X22282100Y26514800D02*
X22291100Y26506000D01*
X22307000Y26520100D01*
X22291100Y26534200D01*
X22282100Y26525400D01*
G03Y26514800I5300J-5300D01*
G37*
G36*
G01X22327000Y26329700D02*
X22336000Y26320900D01*
X22351900Y26335000D01*
X22336000Y26349100D01*
X22327000Y26340300D01*
G03Y26329700I5300J-5300D01*
G37*
G36*
G01X21880000Y26382500D02*
Y26395000D01*
X21858700Y26396300D01*
X21860000Y26375000D01*
X21872500D01*
G03X21880000Y26382500I0J7500D01*
G37*
G36*
G01X21605000Y27517500D02*
Y27530000D01*
X21583700Y27531300D01*
X21585000Y27510000D01*
X21597500D01*
G03X21605000Y27517500I0J7500D01*
G37*
G36*
G01X21547500Y26582500D02*
X21535000D01*
X21533700Y26561200D01*
X21555000Y26562500D01*
Y26575000D01*
G03X21547500Y26582500I-7500J0D01*
G37*
G36*
G01X22906000Y28279800D02*
X23163600D01*
G02X23172900Y28273600I43J-10011D01*
G02X23170700Y28262700I-9261J-3803D01*
G01X22581100Y27673100D01*
G02X22574100Y27670200I-7042J7101D01*
G01X22344400D01*
G02X22336700Y27673800I-12J10008D01*
G01X22326800Y27685600D01*
G02X22324600Y27693800I7676J6455D01*
G01X22324700D01*
G03X22325200Y27700000I-34723J5920D01*
G03X22319200Y27719700I-35341J0D01*
G02X22317500Y27725100I8275J5573D01*
G01X22317300Y27731000D01*
G02X22318800Y27736500I10023J221D01*
G03X22324100Y27755000I-29880J18569D01*
G03X22253700I-35200J0D01*
G03X22259700Y27735300I35341J0D01*
G02X22261400Y27729900I-8275J-5573D01*
G01X22261600Y27724000D01*
G02X22260100Y27718500I-10023J-221D01*
G03X22254800Y27700000I29880J-18569D01*
G03X22255300Y27693800I35223J-280D01*
G01X22255400D01*
G02X22253200Y27685600I-9876J-1745D01*
G01X22243300Y27673800D01*
G02X22235600Y27670200I-7688J6408D01*
G01X21506000D01*
G02X21499000Y27673100I42J10001D01*
G01X21448100Y27724000D01*
G02X21445200Y27730800I7095J7044D01*
G03X21410000Y27765200I-35200J-809D01*
G03X21381600Y27750800I0J-35206D01*
G02X21374300Y27746700I-8105J5883D01*
G01X21359100Y27745600D01*
G02X21351200Y27748500I-825J9962D01*
G01X21342000Y27757700D01*
G02Y27771800I7088J7050D01*
G01X21342100Y27771900D01*
G02X21349300Y27774800I7041J-7093D01*
G01X21350000D01*
G03X21385200Y27809200I0J35209D01*
G02X21388100Y27816000I9995J-244D01*
G01X21456500Y27884400D01*
G02X21463500Y27887300I7042J-7101D01*
G01X21580800D01*
G02X21590100Y27881100I43J-10011D01*
G02X21587900Y27870200I-9261J-3803D01*
G01X21575900Y27858200D01*
G02X21569100Y27855300I-7044J7095D01*
G03X21534700Y27820100I809J-35200D01*
G03X21569900Y27784900I35200J0D01*
G03X21605100Y27819300I0J35209D01*
G02X21608000Y27826100I9995J-244D01*
G01X21626300Y27844400D01*
G02X21633300Y27847300I7042J-7101D01*
G01X21881600D01*
G02X21891200Y27840100I5J-9993D01*
G03X21925000Y27814800I33800J9928D01*
G03X21960200Y27850000I0J35200D01*
G03X21931500Y27884600I-35206J0D01*
G01X21931400D01*
G02X21926200Y27887400I1928J9809D01*
G02Y27901600I7032J7100D01*
G01X21929000Y27904400D01*
G02X21936000Y27907300I7042J-7101D01*
G01X22395200D01*
G02X22402700Y27903900I-12J-9998D01*
G01X22412700Y27892500D01*
G02X22415100Y27884600I-7512J-6597D01*
G03X22414800Y27880000I34901J-4586D01*
G03X22419500Y27862500I35182J68D01*
G02Y27852500I-8702J-5000D01*
G03X22414800Y27835000I30482J-17568D01*
G03X22485200I35200J0D01*
G03X22480500Y27852500I-35182J-68D01*
G02Y27862500I8702J5000D01*
G03X22485200Y27880000I-30482J17568D01*
G03X22484900Y27884600I-35201J14D01*
G02X22487300Y27892500I9912J1303D01*
G01X22497300Y27903900D01*
G02X22504800Y27907300I7512J-6598D01*
G01X22525300D01*
G03X22532300Y27910200I-42J9999D01*
G01X22899000Y28276900D01*
G02X22906000Y28279800I7042J-7101D01*
G37*
G36*
G01X21582400Y27840100D02*
X21569900D01*
X21568600Y27818800D01*
X21589900Y27820100D01*
Y27832600D01*
G03X21582400Y27840100I-7500J0D01*
G37*
G36*
G01X21905000Y27862500D02*
Y27850000D01*
X21926300Y27848700D01*
X21925000Y27870000D01*
X21912500D01*
G03X21905000Y27862500I0J-7500D01*
G37*
G36*
G01X21961300Y28080000D02*
X21973800D01*
X21975100Y28101300D01*
X21953800Y28100000D01*
Y28087500D01*
G03X21961300Y28080000I7500J0D01*
G37*
G36*
G01X21430000Y27717500D02*
Y27730000D01*
X21408700Y27731300D01*
X21410000Y27710000D01*
X21422500D01*
G03X21430000Y27717500I0J7500D01*
G37*
G36*
G01X21312600Y27762500D02*
Y27775000D01*
X21291300Y27776300D01*
X21292600Y27755000D01*
X21305100D01*
G03X21312600Y27762500I0J7500D01*
G37*
G36*
G01X24577000Y28702300D02*
X24649700D01*
G02X24656700Y28699400I-42J-10001D01*
G01X25051500Y28304600D01*
G02X25054400Y28297400I-7095J-7042D01*
G01X25054200Y28282900D01*
G02X25051000Y28275700I-10023J143D01*
G03X25041500Y28260800I23969J-25761D01*
G02X25039000Y28256700I-9541J3005D01*
G01X24972700Y28190400D01*
G03X24969800Y28183400I7098J-7041D01*
G01Y28076700D01*
G02X24966900Y28069600I-10002J-57D01*
G01X24728500Y27831200D01*
G02X24714300I-7100J7036D01*
G01X24713000Y27832500D01*
X24712200Y27834200D01*
G03X24709300Y27839500I-32212J-14182D01*
G02X24707600Y27845100I8299J5577D01*
G01Y27851000D01*
G02X24709200Y27856600I9999J172D01*
G03X24715000Y27875900I-29384J19352D01*
G03X24710100Y27893900I-35221J79D01*
G02X24708700Y27899100I8579J5098D01*
G01Y27904800D01*
G02X24710300Y27910000I10008J-233D01*
G03X24715600Y27928600I-29988J18600D01*
G03X24645200I-35200J0D01*
G03X24650100Y27910600I35221J-79D01*
G02X24651500Y27905400I-8579J-5098D01*
G01Y27899700D01*
G02X24649900Y27894500I-10008J233D01*
G03X24644600Y27875900I29988J-18600D01*
G03X24650500Y27856400I35175J0D01*
G02X24652200Y27850800I-8299J-5577D01*
G01Y27844900D01*
G02X24650600Y27839300I-9999J-172D01*
G03X24644800Y27820000I29384J-19352D01*
G03X24658100Y27792400I35288J0D01*
G02X24661900Y27785200I-6177J-7863D01*
G01X24662700Y27770200D01*
G02X24659800Y27762500I-9974J-640D01*
G01X24447700Y27550400D01*
G03X24444800Y27543400I7098J-7041D01*
G01Y27301700D01*
G02X24441900Y27294600I-10002J-57D01*
G01X24315400Y27168100D01*
G02X24308300Y27165200I-7043J7102D01*
G01X24149600D01*
G02X24145000Y27166300I-40J10001D01*
G03X24128900Y27170200I-16100J-31282D01*
G03Y27099800I0J-35200D01*
G03X24145000Y27103700I0J35182D01*
G02X24149600Y27104800I4560J-8901D01*
G01X24333400D01*
G03X24340400Y27107700I-41J9998D01*
G01X24502300Y27269600D01*
G03X24505200Y27276600I-7098J7041D01*
G01Y27518300D01*
G02X24508100Y27525400I10002J57D01*
G01X24522600Y27539900D01*
G02X24536800I7100J-7038D01*
G02X24539200Y27529400I-7019J-7129D01*
G03X24537100Y27517500I33087J-11974D01*
G03X24572300Y27482300I35200J0D01*
G01X24581500D01*
G02X24588500Y27479400I-42J-10001D01*
G01X24706900Y27361000D01*
G02X24709800Y27354200I-7095J-7044D01*
G03X24745000Y27319800I35200J809D01*
G03X24780200Y27355000I0J35200D01*
G03X24745800Y27390200I-35209J0D01*
G02X24739000Y27393100I244J9995D01*
G01X24611900Y27520200D01*
G02X24611300Y27520900I7272J6840D01*
G01X24606200Y27527000D01*
X24605700Y27528700D01*
G03X24579000Y27552000I-33341J-11258D01*
G01Y27552100D01*
G02X24571400Y27558900I1922J9795D01*
G01X24566200Y27576000D01*
G02X24568700Y27586000I9555J2924D01*
G01X25027300Y28044600D01*
G03X25030200Y28051600I-7098J7041D01*
G01Y28158300D01*
G02X25033100Y28165400I10002J57D01*
G01X25081700Y28214000D01*
G02X25085800Y28216500I7105J-7041D01*
G03X25100700Y28226000I-10861J33469D01*
G02X25107900Y28229200I7343J-6823D01*
G01X25122400Y28229400D01*
G02X25129600Y28226500I158J-9995D01*
G01X25264400Y28091700D01*
G02X25267300Y28084700I-7101J-7042D01*
G01Y27706900D01*
X25267000Y27706700D01*
G03X25254800Y27680000I23117J-26700D01*
G03X25268800Y27651900I35200J0D01*
G02X25272800Y27643600I-5998J-8004D01*
G01X25272400Y27627200D01*
G02X25267900Y27619200I-10000J359D01*
G03X25252400Y27590800I19702J-29183D01*
G02X25249500Y27584000I-9995J244D01*
G01X24676100Y27010600D01*
G02X24669100Y27007700I-7042J7101D01*
G01X23484800D01*
G02X23477300Y27011100I12J9998D01*
G01X23467300Y27022500D01*
G02X23464900Y27030400I7512J6597D01*
G03X23465200Y27035000I-34901J4586D01*
G03X23394800I-35200J0D01*
G03X23395100Y27030400I35201J-14D01*
G02X23392700Y27022500I-9912J-1303D01*
G01X23382700Y27011100D01*
G02X23375200Y27007700I-7512J6598D01*
G01X23144100D01*
G02X23134800Y27013900I-43J10011D01*
G02X23137000Y27024800I9261J3803D01*
G01X23601600Y27489400D01*
G02X23608600Y27492300I7042J-7101D01*
G01X23702800D01*
G03X23709800Y27495200I-42J9999D01*
G01X24369800Y28155200D01*
G03X24372700Y28162200I-7099J7042D01*
G01Y28401500D01*
G02X24375600Y28408500I10001J-42D01*
G01X24544800Y28577700D01*
G03X24547700Y28584700I-7099J7042D01*
G01Y28636300D01*
X24548100Y28636600D01*
G03X24560300Y28663300I-23117J26700D01*
G03X24558200Y28675300I-35336J0D01*
G01Y28675400D01*
G02X24559400Y28684500I9383J3392D01*
G01X24568800Y28698000D01*
G02X24577000Y28702300I8220J-5707D01*
G37*
G36*
G01X23251100Y28189800D02*
X23433500D01*
G02X23442800Y28183600I43J-10011D01*
G02X23440600Y28172700I-9261J-3803D01*
G01X23406000Y28138100D01*
G02X23399000Y28135200I-7042J7101D01*
G01X23216600D01*
G02X23207300Y28141400I-43J10011D01*
G02X23209500Y28152300I9261J3803D01*
G01X23244100Y28186900D01*
G02X23251100Y28189800I7042J-7101D01*
G37*
G36*
G01X24218600Y28702300D02*
X24319800D01*
G02X24327000Y28699200I-37J-9997D01*
G01X24337100Y28688700D01*
G02X24339800Y28681400I-7285J-6844D01*
G01Y28681300D01*
Y28679800D01*
G03X24345200Y28661100I35079J0D01*
G01Y28661000D01*
G02X24343800Y28648600I-8452J-5325D01*
G01X24127700Y28432500D01*
G03X24124800Y28425500I7099J-7042D01*
G01Y28326000D01*
G02X24121900Y28319000I-10001J42D01*
G01X24060000Y28257100D01*
G02X24049100Y28254900I-7097J7061D01*
G02X24042900Y28264200I3811J9257D01*
G01Y28452900D01*
X24043200Y28453100D01*
G03X24055400Y28479800I-23117J26700D01*
G03X24045200Y28504600I-35249J0D01*
G01X24045100D01*
G02X24042200Y28511700I7132J7055D01*
G01X24042300Y28525900D01*
G02X24045200Y28533000I9987J63D01*
G01X24211600Y28699400D01*
G02X24218600Y28702300I7042J-7101D01*
G37*
G36*
G01X24063500Y28822300D02*
X24118600D01*
G02X24127900Y28816100I43J-10011D01*
G02X24125700Y28805200I-9261J-3803D01*
G01X23909800Y28589300D01*
G02X23898900Y28587100I-7097J7061D01*
G02X23892700Y28596400I3811J9257D01*
G01Y28651500D01*
G02X23895600Y28658500I10001J-42D01*
G01X24056500Y28819400D01*
G02X24063500Y28822300I7042J-7101D01*
G37*
G36*
G01X23813500Y28301300D02*
X23974900Y28462700D01*
G02X23989100I7100J-7054D01*
G01X23989900Y28461900D01*
X23990500Y28461000D01*
G03X23997200Y28453100I29899J18566D01*
G01X23997500Y28452900D01*
Y28241200D01*
G02X23994600Y28234200I-10001J42D01*
G01X23887800Y28127400D01*
G02X23878800Y28124600I-7125J7039D01*
G01X23862400Y28127800D01*
G02X23855100Y28133700I1914J9834D01*
G01Y28133800D01*
G03X23822700Y28155200I-32400J-13827D01*
G03X23804400Y28150100I-47J-35213D01*
G02X23799200Y28148600I-5267J8496D01*
G01X23793500D01*
G02X23788300Y28150100I67J9996D01*
G03X23770000Y28155200I-18253J-30113D01*
G03X23749100Y28148300I0J-35103D01*
G02X23743100Y28146400I-5862J8089D01*
G01X23736900D01*
G02X23730900Y28148300I-138J9989D01*
G03X23714200Y28154900I-20851J-28332D01*
G01Y28155000D01*
G02X23705900Y28161600I1123J9931D01*
G01X23700000Y28178800D01*
G02X23702400Y28189100I9464J3224D01*
G01X23813500Y28300200D01*
Y28301300D01*
G37*
G36*
G01X24380300Y28656800D02*
X24389100Y28665800D01*
X24375000Y28681700D01*
X24360900Y28665800D01*
X24369700Y28656800D01*
G03X24380300I5300J5300D01*
G37*
G36*
G01X24025500Y28456800D02*
X24034300Y28465800D01*
X24020200Y28481700D01*
X24006100Y28465800D01*
X24014900Y28456800D01*
G03X24025500I5300J5300D01*
G37*
G36*
G01X25372000Y27346600D02*
G03X25375000Y27346500I2672J35111D01*
G03X25394100Y27352100I47J35214D01*
G02X25399500Y27353700I5419J-8375D01*
G01X25405500D01*
G02X25410900Y27352100I-19J-9975D01*
G03X25430000Y27346500I19053J29614D01*
G03X25454300Y27356200I0J35288D01*
G02X25461200Y27359000I6937J-7192D01*
G01X25537300D01*
G02X25547300Y27349000I0J-10000D01*
G01Y26981200D01*
G02X25544500Y26974300I-9992J37D01*
G03X25534800Y26950000I25588J-24300D01*
G03X25570000Y26914800I35200J0D01*
G01X25571400D01*
G02X25578800Y26912000I453J-9981D01*
G01X25589200Y26902000D01*
G02X25592300Y26894800I-6899J-7238D01*
G01Y26488500D01*
G02X25589400Y26481500I-10001J42D01*
G01X25550500Y26442600D01*
G02X25543100Y26439600I-7152J7014D01*
G01X25528500Y26440100D01*
G02X25521300Y26443400I220J9986D01*
G03X25505800Y26453500I-26292J-23405D01*
G02X25501700Y26456000I3005J9541D01*
G01X25353100Y26604600D01*
G02X25350200Y26611700I7102J7043D01*
G01Y27326600D01*
G02X25353400Y27334000I10010J63D01*
G01X25364400Y27344000D01*
G02X25372000Y27346600I6756J-7341D01*
G37*
G36*
G01X25732200Y27540000D02*
X25719700D01*
X25718400Y27518700D01*
X25739700Y27520000D01*
Y27532500D01*
G03X25732200Y27540000I-7500J0D01*
G37*
G36*
G01X25325000Y26407500D02*
Y26420000D01*
X25303700Y26421300D01*
X25305000Y26400000D01*
X25317500D01*
G03X25325000Y26407500I0J7500D01*
G37*
G36*
G01X24600800Y27509700D02*
X24590500Y27522200D01*
X24570700Y27518400D01*
X24572300Y27497500D01*
X24595000D01*
G03X24600800Y27509700I0J7479D01*
G37*
G36*
G01X24725000Y27367500D02*
Y27355000D01*
X24746300Y27353700D01*
X24745000Y27375000D01*
X24732500D01*
G03X24725000Y27367500I0J-7500D01*
G37*
G36*
G01X24857000Y26428000D02*
X24848200Y26419000D01*
X24862300Y26403100D01*
X24876400Y26419000D01*
X24867600Y26428000D01*
G03X24857000I-5300J-5300D01*
G37*
G36*
G01X24655300Y28929800D02*
X24743300D01*
G02X24750400Y28926900I57J-10002D01*
G01X24774000Y28903300D01*
G02X24776500Y28899200I-7041J-7105D01*
G03X24799200Y28876500I33500J10800D01*
G02X24803300Y28874000I-3005J-9541D01*
G01X24981900Y28695400D01*
G02X24984800Y28688300I-7102J-7043D01*
G01Y28593400D01*
G02X24983700Y28588800I-10001J-40D01*
G03X24983200Y28587800I31230J-16240D01*
G01X24982500Y28586300D01*
X24981200Y28585000D01*
G02X24967100I-7050J7093D01*
G01X24717300Y28834800D01*
G03X24710300Y28837700I-7042J-7099D01*
G01X24584000D01*
G02X24574700Y28843900I-43J10011D01*
G02X24576900Y28854800I9261J3803D01*
G01X24594000Y28871900D01*
G02X24600800Y28874800I7044J-7095D01*
G03X24635200Y28909800I-803J35194D01*
G02X24638100Y28916900I10019J50D01*
G01X24648200Y28926900D01*
G02X24655300Y28929800I7045J-7108D01*
G37*
G36*
G01X24415200Y28635700D02*
X24427700Y28640600D01*
X24426100Y28661500D01*
X24405000Y28660000D01*
Y28642700D01*
G03X24415200Y28635700I7502J0D01*
G37*
G36*
G01X24480300Y28656800D02*
X24489100Y28665800D01*
X24475000Y28681700D01*
X24460900Y28665800D01*
X24469700Y28656800D01*
G03X24480300I5300J5300D01*
G37*
G36*
G01X24530300Y28640200D02*
X24539200Y28649300D01*
X24525100Y28665200D01*
X24511000Y28649400D01*
X24519600Y28640300D01*
G03X24530300Y28640200I5399J5202D01*
G37*
G36*
G01X24587500Y28890000D02*
X24600000D01*
X24601300Y28911300D01*
X24580000Y28910000D01*
Y28897500D01*
G03X24587500Y28890000I7500J0D01*
G37*
G36*
G01X25284700Y27703000D02*
X25275900Y27694000D01*
X25290000Y27678100D01*
X25304100Y27694000D01*
X25295300Y27703000D01*
G03X25284700I-5300J-5300D01*
G37*
G36*
G01X25275100Y27570000D02*
X25287600D01*
X25288900Y27591300D01*
X25267600Y27590000D01*
Y27577500D01*
G03X25275100Y27570000I7500J0D01*
G37*
%LPC*%
G75*
G36*
G01X23313600Y27906900D02*
Y27913100D01*
G03X23311700Y27919100I-9989J138D01*
G02X23304800Y27940000I28203J20900D01*
G02X23375200I35200J0D01*
G02X23368300Y27919100I-35103J0D01*
G03X23366400Y27913100I8089J-5862D01*
G01Y27906900D01*
G03X23368300Y27900900I9989J-138D01*
G02X23375200Y27880000I-28203J-20900D01*
G02X23367300Y27857800I-35142J0D01*
G03X23365100Y27852000I7792J-6273D01*
G01X23364800Y27845700D01*
G03X23366500Y27839600I10003J-499D01*
G02X23372500Y27820000I-29184J-19652D01*
G02X23302100I-35200J0D01*
G02X23310000Y27842200I35142J0D01*
G03X23312200Y27848000I-7792J6273D01*
G01X23312500Y27854300D01*
G03X23310800Y27860400I-10003J499D01*
G02X23304800Y27880000I29184J19652D01*
G02X23311700Y27900900I35103J0D01*
G03X23313600Y27906900I-8089J5862D01*
G37*
G36*
G01X23236900Y26106400D02*
X23243100D01*
G03X23249100Y26108300I138J9989D01*
G02X23290900I20900J-28203D01*
G03X23296900Y26106400I5862J8089D01*
G01X23303100D01*
G03X23309100Y26108300I138J9989D01*
G02X23330000Y26115200I20900J-28203D01*
G02Y26044800I0J-35200D01*
G02X23309100Y26051700I0J35103D01*
G03X23303100Y26053600I-5862J-8089D01*
G01X23296900D01*
G03X23290900Y26051700I-138J-9989D01*
G02X23249100I-20900J28203D01*
G03X23243100Y26053600I-5862J-8089D01*
G01X23236900D01*
G03X23230900Y26051700I-138J-9989D01*
G02X23210000Y26044800I-20900J28203D01*
G02X23187700Y26052800I0J35081D01*
G03X23181400Y26055000I-6259J-7803D01*
G01X23168600D01*
G03X23162300Y26052800I-41J-10003D01*
G02X23140000Y26044800I-22300J27081D01*
G02Y26115200I0J35200D01*
G02X23162300Y26107200I0J-35081D01*
G03X23168600Y26105000I6259J7803D01*
G01X23181400D01*
G03X23187700Y26107200I41J10003D01*
G02X23210000Y26115200I22300J-27081D01*
G02X23230900Y26108300I0J-35103D01*
G03X23236900Y26106400I5862J8089D01*
G37*
G36*
G01X25190900Y26133700D02*
G02X25225000Y26089800I34100J-8706D01*
G02X25208200Y26094100I56J35186D01*
G03X25179100Y26081300I-9591J-17674D01*
G02X25145000Y26054800I-34100J8690D01*
G02Y26125200I0J35200D01*
G02X25161800Y26120900I-56J-35186D01*
G03X25190900Y26133700I9591J17674D01*
G37*
G36*
G01X22483400Y26164500D02*
G02X22542900Y26190000I24286J25500D01*
G02X22532000Y26164500I-35278J0D01*
G03Y26135500I13880J-14500D01*
G02X22542900Y26110000I-24378J-25500D01*
G02X22472500I-35200J0D01*
G02X22483400Y26135500I35278J0D01*
G03Y26164500I-13880J14500D01*
G37*
G36*
G01X22917700Y26989900D02*
X22912000Y26990200D01*
G03X22906800Y26989000I-441J-9957D01*
G02X22890000Y26984800I-16682J31029D01*
G02Y27055200I0J35200D01*
G02X22909800Y27049100I0J-35184D01*
G03X22915000Y27047400I5584J8278D01*
G01X22920700Y27047100D01*
G03X22925900Y27048300I441J9957D01*
G02X22942700Y27052500I16682J-31029D01*
G02Y26982100I0J-35200D01*
G02X22922900Y26988200I0J35184D01*
G03X22917700Y26989900I-5584J-8278D01*
G37*
G36*
G01X22920500Y27179300D02*
G02X22940000Y27114800I19500J-29302D01*
G02X22920500Y27120700I0J35175D01*
G03X22909500I-5500J-8357D01*
G02X22890000Y27114800I-19500J29275D01*
G02Y27185200I0J35200D01*
G02X22909500Y27179300I0J-35175D01*
G03X22920500I5500J8357D01*
G37*
G54D23*
X21654300Y25716000D03*
G54D24*
X21060000Y26510000D03*
X22395000Y27150200D03*
X22170000Y27325000D03*
X22026100Y27099900D03*
X22395000Y25990000D03*
X22475000Y25945000D03*
X21780000Y25977700D03*
X22120000Y26010000D03*
X22000000D03*
X21890000Y26130000D03*
X22680000D03*
X21750000D03*
X24250000Y25920000D03*
X24010000Y26275000D03*
X24385000Y26205000D03*
X22910000Y26290000D03*
X25490000Y25978300D03*
X25312400D03*
X24870000Y26090000D03*
X24700000Y26170000D03*
X25590000Y26120000D03*
X24575900Y26110000D03*
X24225600Y27515000D03*
X24350000Y27690000D03*
X24450000D03*
X23865000Y28255000D03*
X25450000Y26945000D03*
%LPD*%
G75*
G36*
G01X20181300Y28431200D02*
X20213600Y28434200D01*
X20211200Y28475400D01*
X20170200Y28470400D01*
X20173100Y28438000D01*
G03X20181300Y28431200I7500J700D01*
G37*
G36*
G01X20174000Y28439200D02*
X20161600Y28437900D01*
X20162200Y28416700D01*
X20183200Y28419800D01*
X20182200Y28432400D01*
G03X20174000Y28439200I-7500J-700D01*
G37*
G54D10*
X20215000Y20700000D03*
X25645000D03*
X25200000Y29380000D03*
G54D20*
G01X20776400Y28800000D02*
Y28893100D01*
X20929100Y29045800D01*
X21045900D01*
X21075000Y29074900D01*
Y29100000D01*
G01X20829100Y28800000D02*
Y28882100D01*
X20947800Y29000800D01*
X21064600D01*
X21140000Y29076200D01*
Y29100000D01*
G54D11*
X20640000Y21142000D03*
X20892300Y22160000D03*
Y22414000D03*
Y22668000D03*
Y22922000D03*
X20638300Y22160000D03*
Y22414000D03*
Y22668000D03*
Y22922000D03*
X20640000Y21650000D03*
Y21396000D03*
X20892300Y23176000D03*
Y23430000D03*
Y23684000D03*
Y23938000D03*
Y24192000D03*
Y24446000D03*
X20638300Y23176000D03*
Y23430000D03*
Y23684000D03*
Y23938000D03*
Y24192000D03*
Y24446000D03*
X21146300Y25462000D03*
Y25716000D03*
X21915300Y22161300D03*
X21661300D03*
X21915300Y21907300D03*
X21661300D03*
X21400300Y25462000D03*
X21654300D03*
X21908300D03*
X22162300D03*
X22416300D03*
X22670300D03*
X22924300D03*
X21400300Y25716000D03*
X21654300D03*
X21908300D03*
X22162300D03*
X22416300D03*
X22670300D03*
X22924300D03*
X23178300Y25462000D03*
X23432300D03*
X23686300D03*
X23178300Y25716000D03*
X23432300D03*
X23686300D03*
X25210000Y21142000D03*
X25212300Y22160000D03*
Y22414000D03*
Y22668000D03*
Y22922000D03*
X24958300Y22160000D03*
Y22414000D03*
Y22668000D03*
Y22922000D03*
X25210000Y21650000D03*
Y21396000D03*
X25212300Y23176000D03*
Y23430000D03*
Y23684000D03*
Y23938000D03*
Y24192000D03*
Y24446000D03*
X24958300Y23176000D03*
Y23430000D03*
Y23684000D03*
Y23938000D03*
Y24192000D03*
Y24446000D03*
X24990000Y25462000D03*
Y25716000D03*
Y25970000D03*
G54D21*
G01X21482700Y28305000D02*
X20665000D01*
X20640000Y28330000D01*
G01X22772700Y26780000D02*
X22720000D01*
G01X22772700D02*
X23052700Y26500000D01*
X23920000D01*
X24080000Y26340000D01*
X25005000D01*
X25081800Y26416800D01*
Y26427700D01*
G01X25075000Y28250000D02*
X25000000Y28175000D01*
Y28060000D01*
X24475000Y27535000D01*
Y27285000D01*
X24325000Y27135000D01*
X24128900D01*
G01X23805000Y28915000D02*
X23850000Y28960000D01*
X24760000D01*
X24810000Y28910000D01*
G01X25455000Y27575000D02*
X25320000Y27440000D01*
Y26595000D01*
X25495000Y26420000D01*
G01X25707700Y27610000D02*
X25665000Y27567300D01*
Y26438900D01*
X25640000Y26413900D01*
G01D02*
X25566100Y26340000D01*
X25308500D01*
X25220800Y26427700D01*
X25125000D01*
G01X25081800D02*
X25125000D01*
G01X25080000Y27030000D02*
X25081800Y27028200D01*
Y26427700D01*
G01X25015000Y28572700D02*
Y28705000D01*
X24810000Y28910000D01*
G54D12*
X20250000Y20250000D03*
Y29270000D03*
X25580000Y20250000D03*
Y29270000D03*
G54D22*
G01X20640000Y21288300D02*
Y21396000D01*
G01D02*
Y21503700D01*
G01X20532300Y21396000D02*
X20640000D01*
G01D02*
X20747700D01*
G01X20640000Y21542300D02*
Y21650000D01*
G01D02*
Y21757700D01*
G01X20532300Y21650000D02*
X20640000D01*
G01D02*
X20747700D01*
G01X20892300Y24084300D02*
Y24192000D01*
G01D02*
Y24299700D01*
G01X20784600Y24192000D02*
X20892300D01*
G01D02*
X21000000D01*
G01X20300000Y25649800D02*
Y25760000D01*
G01D02*
Y25870200D01*
G01X20189800Y25760000D02*
X20300000D01*
G01D02*
X20410200D01*
G01X20212100Y25672100D02*
X20300000Y25760000D01*
G01D02*
X20387900Y25847900D01*
G01X20212100D02*
X20300000Y25760000D01*
G01D02*
X20387900Y25672100D01*
G01X20249600Y25646400D02*
X20300000Y25760000D01*
G01D02*
X20350400Y25873600D01*
G01X20186400Y25810400D02*
X20300000Y25760000D01*
G01D02*
X20413600Y25709600D01*
G01X20186400D02*
X20300000Y25760000D01*
G01D02*
X20413600Y25810400D01*
G01X20249600Y25873600D02*
X20300000Y25760000D01*
G01D02*
X20350400Y25646400D01*
G01X21146300Y25608300D02*
Y25716000D01*
G01X21038600D02*
X21146300D01*
G01Y25354300D02*
Y25462000D01*
G01D02*
Y25569700D01*
G01X21038600Y25462000D02*
X21146300D01*
G01D02*
X21254000D01*
G01X22416300Y25716000D02*
X22270300Y25570000D01*
X21310000D01*
X21284000Y25596000D01*
Y25736000D01*
X20980000Y26040000D01*
X20870200D01*
X20400000Y26510200D01*
Y27280000D01*
X20510000Y27390000D01*
X20840100D01*
X21390100Y27940000D01*
X21890000D01*
X22017500Y28067500D01*
Y28662500D01*
X21870000Y28810000D01*
Y29025000D01*
G01X21973800Y28100000D02*
X21843800Y27970000D01*
X21377600D01*
X20832600Y27425000D01*
X20545000D01*
X20290000Y27680000D01*
Y27919800D01*
X20352000Y27981800D01*
Y28205000D01*
X20337000Y28220000D01*
G01X20639600Y28521700D02*
X20556300Y28438400D01*
Y27663500D01*
X20590000Y27629800D01*
Y27502600D01*
G01X20620000Y28082500D02*
Y27890000D01*
X20660000Y27850000D01*
Y27540000D01*
X20710000Y27490000D01*
G01X20520000Y26902500D02*
X20567500Y26950000D01*
X22400000D01*
X22830000Y27380000D01*
X23215000D01*
X24147500Y28312500D01*
Y28420200D01*
X24375000Y28647700D01*
Y28679800D01*
G01X20570000Y26740000D02*
X20750000Y26920000D01*
X22412500D01*
X22842500Y27350000D01*
X23227500D01*
X24177500Y28300000D01*
Y28407700D01*
X24425000Y28655200D01*
Y28660000D01*
G01X24475000Y28679800D02*
Y28582500D01*
X24320000Y28427500D01*
Y28180000D01*
X23685000Y27545000D01*
X23582600D01*
X22927600Y26890000D01*
X20785000D01*
X20592500Y26697500D01*
X20495000D01*
G01X21145000Y26000000D02*
X21390300D01*
X21400300Y26010000D01*
G01X24525100Y28663300D02*
X24525000Y28663200D01*
Y28590000D01*
X24350000Y28415000D01*
Y28167500D01*
X23697500Y27515000D01*
X23595100D01*
X22940100Y26860000D01*
X22547300D01*
X22407300Y26720000D01*
X20700000D01*
X20690000Y26730000D01*
G01X20520000Y27260000D02*
X20540000Y27240000D01*
X22647500D01*
X22817500Y27410000D01*
X23202500D01*
X24020200Y28227700D01*
Y28479800D01*
G01X20970000Y26090000D02*
Y26500000D01*
G01X20210000Y28474000D02*
X20165000Y28420000D01*
Y28418100D01*
X20163400D01*
G01X20250000Y29054800D02*
Y29270000D01*
G01X20159400Y29059300D02*
X20250000Y29270000D01*
G01D02*
X20340600Y29059300D01*
G01X20337000Y28728000D02*
X20430600Y28634400D01*
Y27870600D01*
X20379900Y27819900D01*
G01X20337000Y28474000D02*
X20400600Y28410400D01*
Y27935600D01*
X20335000Y27870000D01*
G01X20210000Y28601000D02*
X20115000Y28506000D01*
Y27835000D01*
X20180000Y27770000D01*
G01X20210000Y28347000D02*
X20145000Y28282000D01*
Y27909700D01*
X20186100Y27868600D01*
G01X20710000Y28100000D02*
X20586300Y28223700D01*
Y28406100D01*
X20650200Y28470000D01*
G01X20830000Y27640000D02*
X20882500Y27692500D01*
Y27937500D01*
X20780000Y28040000D01*
Y28043800D01*
G01X20945000Y28800000D02*
X20880000Y28735000D01*
X20715000D01*
X20670000Y28780000D01*
G01X20610000Y28570000D02*
X20460600Y28420600D01*
Y27858100D01*
X20440000Y27837500D01*
Y27670000D01*
X20540000Y27570000D01*
G01X20259800Y28265300D02*
X20210000Y28220000D01*
G01X25570000Y27380000D02*
Y27865000D01*
X24680000Y28755000D01*
X24192600D01*
X23760800Y28323200D01*
Y28322100D01*
X23651200Y28212500D01*
X23237600D01*
X22612600Y27587500D01*
X21382500D01*
X21250000Y27720000D01*
G01X20250000Y29270000D02*
X20465200D01*
G01X20087800Y29107800D02*
X20250000Y29270000D01*
G01D02*
X20412200Y29432200D01*
G01X20250000Y29270000D02*
X20412200Y29107800D01*
G01X20250000Y29270000D02*
X20460700Y29360600D01*
G01X20250000Y29270000D02*
X20460700Y29179400D01*
G01X20087800Y29432200D02*
X20250000Y29270000D01*
G01X23575000Y25964900D02*
X23570100Y25960000D01*
X22610000D01*
X22477500Y25827500D01*
X21802500D01*
G01X23670800Y26011000D02*
Y26000500D01*
X23590300Y25920000D01*
X22620300D01*
X22416300Y25716000D01*
G01X24002700Y26060000D02*
X23950000D01*
X23772300Y25882300D01*
X22695100D01*
X22670300Y25857500D01*
Y25716000D01*
G01X22712800Y25839800D02*
X23054500D01*
X23178300Y25716000D01*
G01X21654300Y25608300D02*
Y25716000D01*
G01D02*
Y25823700D01*
G01X21546600Y25716000D02*
X21654300D01*
G01D02*
X21762000D01*
G01X22373900Y26547500D02*
Y26464000D01*
X22309900Y26400000D01*
X22305000D01*
G01X22092400Y26520100D02*
X22305100D01*
G01X22350000Y26335000D02*
X21920000D01*
X21860000Y26395000D01*
G01X21585000Y27530000D02*
X21655000Y27460000D01*
X22277700D01*
X22375200Y27557500D01*
X22627500D01*
X23182500Y28112500D01*
X23412500D01*
X23482500Y28182500D01*
X23663700D01*
X23790800Y28309600D01*
Y28310700D01*
X24205100Y28725000D01*
X24663200D01*
X25290000Y28098200D01*
Y27680000D01*
G01X25287600Y27590000D02*
X24682600Y26985000D01*
X23107600D01*
X22952600Y26830000D01*
X22559800D01*
X22419800Y26690000D01*
X21662500D01*
X21535000Y26562500D01*
G01X21569900Y27820100D02*
X21619800Y27870000D01*
X21905000D01*
X21925000Y27850000D01*
G01X21350000Y27810000D02*
X21450000Y27910000D01*
X21902500D01*
X21922500Y27930000D01*
X22520000D01*
X22892500Y28302500D01*
X23612300D01*
X23644600Y28334800D01*
X23646000D01*
X23670800Y28359600D01*
Y28360700D01*
X23870000Y28559900D01*
Y28665000D01*
X24050000Y28845000D01*
X24535000D01*
X24600000Y28910000D01*
G01X25719700Y27520000D02*
X25750200Y27550500D01*
Y27769800D01*
X24705000Y28815000D01*
X24167600D01*
X23700800Y28348200D01*
Y28347100D01*
X23658500Y28304800D01*
X23657100D01*
X23624800Y28272500D01*
X23212600D01*
X22587600Y27647500D01*
X21492500D01*
X21410000Y27730000D01*
G01X21292600Y27775000D02*
X21450100Y27617500D01*
X22600100D01*
X23225100Y28242500D01*
X23637600D01*
X23652500Y28257400D01*
Y28257700D01*
X23669600Y28274800D01*
X23671000D01*
X23730800Y28334600D01*
Y28335700D01*
X24180100Y28785000D01*
X24692500D01*
X25615000Y27862500D01*
Y26475000D01*
X25517500Y26377500D01*
X25347500D01*
X25305000Y26420000D01*
G01X24050000Y25960800D02*
Y25940000D01*
X23940000Y25830000D01*
X23292300D01*
X23178300Y25716000D01*
G01X23440000Y26845000D02*
X23700000Y26585000D01*
X24755000D01*
X24862300Y26477700D01*
Y26405000D01*
G01X25236800Y17365000D02*
Y17516900D01*
X25281000Y17390300D01*
X25325300Y17516900D01*
Y17365000D01*
G01X25435600Y17504200D02*
X25425400Y17511800D01*
X25413500Y17516900D01*
X25399900D01*
X25384500Y17509300D01*
X25372600Y17496600D01*
X25364100Y17481500D01*
X25357300Y17456100D01*
X25355600Y17433400D01*
X25359000Y17410600D01*
X25364100Y17395400D01*
X25374300Y17380200D01*
X25386200Y17370100D01*
X25398100Y17365000D01*
X25410100D01*
X25422000Y17370100D01*
X25432200Y17377700D01*
X25440700Y17387800D01*
G01X25477800Y17516900D02*
Y17408000D01*
X25484600Y17385200D01*
X25498200Y17370100D01*
X25515200Y17365000D01*
X25532300Y17370100D01*
X25545900Y17385200D01*
X25552700Y17408000D01*
Y17516900D01*
G01X25632300D02*
X25618700Y17511800D01*
X25608500Y17499200D01*
X25601700Y17484000D01*
X25596600Y17463700D01*
X25594900Y17440900D01*
X25596600Y17418200D01*
X25601700Y17397900D01*
X25608500Y17382700D01*
X25618700Y17370100D01*
X25632300Y17365000D01*
X25646000Y17370100D01*
X25656200Y17382700D01*
X25663000Y17397900D01*
X25668100Y17418200D01*
X25669800Y17440900D01*
X25668100Y17463700D01*
X25663000Y17484000D01*
X25656200Y17499200D01*
X25646000Y17511800D01*
X25632300Y17516900D01*
G01X25717100Y17428300D02*
X25729000Y17446000D01*
X25739200Y17456100D01*
X25752900Y17461200D01*
X25764800Y17456100D01*
X25773300Y17446000D01*
X25780100Y17430800D01*
X25781800Y17413100D01*
X25780100Y17397900D01*
X25773300Y17382700D01*
X25763100Y17370100D01*
X25751200Y17365000D01*
X25737500Y17370100D01*
X25725600Y17385200D01*
X25718800Y17408000D01*
X25717100Y17433400D01*
X25720500Y17466300D01*
X25725600Y17484000D01*
X25734100Y17501700D01*
X25746000Y17514400D01*
X25758000Y17516900D01*
X25769900Y17511800D01*
X25778400Y17499200D01*
G01X25863100Y17365000D02*
X25866500Y17397900D01*
X25871700Y17425800D01*
X25878500Y17451100D01*
X25887000Y17478900D01*
X25900600Y17516900D01*
X25832500D01*
G01X26066700Y17365000D02*
Y17516900D01*
X26109300D01*
X26122900Y17509300D01*
X26131400Y17499200D01*
X26134800Y17478900D01*
X26131400Y17458700D01*
X26121200Y17446000D01*
X26109300Y17438400D01*
X26066700D01*
G01X26109300D02*
X26134800Y17365000D01*
G01X26192300Y17433400D02*
X26246800D01*
X26241700Y17451100D01*
X26233200Y17461200D01*
X26221300Y17466300D01*
X26209300Y17463700D01*
X26199100Y17456100D01*
X26192300Y17438400D01*
X26188900Y17423200D01*
Y17408000D01*
X26192300Y17392800D01*
X26200800Y17377700D01*
X26211000Y17367500D01*
X26223000Y17365000D01*
X26234900Y17370100D01*
X26246800Y17385200D01*
G01X26304300Y17466300D02*
X26334900Y17365000D01*
X26365600Y17466300D01*
G01X26452000Y17359900D02*
X26448600Y17362500D01*
Y17367500D01*
X26452000Y17370100D01*
X26455500Y17367500D01*
Y17362500D01*
X26452000Y17359900D01*
G01X26643700Y17365000D02*
X26686200Y17516900D01*
X26728800Y17365000D01*
G01X26713500Y17418200D02*
X26659000D01*
G01X25237000Y17766900D02*
Y17615000D01*
X25305100D01*
G01X25354100D02*
Y17766900D01*
X25395000D01*
X25408600Y17759300D01*
X25418800Y17741600D01*
X25422200Y17721300D01*
X25418800Y17701100D01*
X25410300Y17685900D01*
X25395000Y17678300D01*
X25354100D01*
G01X25483100Y17665600D02*
X25527400D01*
G01X25659800Y17754200D02*
X25649600Y17761800D01*
X25637700Y17766900D01*
X25624100D01*
X25608700Y17759300D01*
X25596800Y17746600D01*
X25588300Y17731500D01*
X25581500Y17706100D01*
X25579800Y17683400D01*
X25583200Y17660600D01*
X25588300Y17645400D01*
X25598500Y17630200D01*
X25610400Y17620100D01*
X25622300Y17615000D01*
X25634300D01*
X25646200Y17620100D01*
X25656400Y17627700D01*
X25664900Y17637800D01*
G01X25776900Y17754200D02*
X25766700Y17761800D01*
X25754800Y17766900D01*
X25741200D01*
X25725800Y17759300D01*
X25713900Y17746600D01*
X25705400Y17731500D01*
X25698600Y17706100D01*
X25696900Y17683400D01*
X25700300Y17660600D01*
X25705400Y17645400D01*
X25715600Y17630200D01*
X25727500Y17620100D01*
X25739400Y17615000D01*
X25751400D01*
X25763300Y17620100D01*
X25773500Y17627700D01*
X25782000Y17637800D01*
G01X25824200Y17741600D02*
X25834400Y17756800D01*
X25846300Y17764400D01*
X25860000Y17766900D01*
X25877000Y17761800D01*
X25888900Y17749200D01*
X25892300Y17734000D01*
X25890600Y17718800D01*
X25883800Y17706100D01*
X25849700Y17680800D01*
X25834400Y17663100D01*
X25824200Y17637800D01*
X25820800Y17615000D01*
X25892300D01*
G01X25941300Y17678300D02*
X25953200Y17696000D01*
X25963400Y17706100D01*
X25977100Y17711200D01*
X25989000Y17706100D01*
X25997500Y17696000D01*
X26004300Y17680800D01*
X26006000Y17663100D01*
X26004300Y17647900D01*
X25997500Y17632700D01*
X25987300Y17620100D01*
X25975400Y17615000D01*
X25961700Y17620100D01*
X25949800Y17635200D01*
X25943000Y17658000D01*
X25941300Y17683400D01*
X25944700Y17716300D01*
X25949800Y17734000D01*
X25958300Y17751700D01*
X25970200Y17764400D01*
X25982200Y17766900D01*
X25994100Y17761800D01*
X26002600Y17749200D01*
G01X26053300Y17637800D02*
X26063500Y17625100D01*
X26075400Y17617500D01*
X26090700Y17615000D01*
X26106100Y17620100D01*
X26118000Y17630200D01*
X26126500Y17647900D01*
X26128200Y17668200D01*
X26124800Y17688400D01*
X26116300Y17701100D01*
X26104400Y17711200D01*
X26092500Y17713700D01*
X26080500Y17711200D01*
X26065200Y17701100D01*
X26070300Y17766900D01*
X26116300D01*
G01X26175500Y17741600D02*
X26185700Y17756800D01*
X26197600Y17764400D01*
X26211300Y17766900D01*
X26228300Y17761800D01*
X26240200Y17749200D01*
X26243600Y17734000D01*
X26241900Y17718800D01*
X26235100Y17706100D01*
X26201000Y17680800D01*
X26185700Y17663100D01*
X26175500Y17637800D01*
X26172100Y17615000D01*
X26243600D01*
G01X26290900D02*
Y17766900D01*
X26333500D01*
X26347100Y17759300D01*
X26355600Y17749200D01*
X26359000Y17728900D01*
X26355600Y17708700D01*
X26345400Y17696000D01*
X26333500Y17688400D01*
X26290900D01*
G01X26333500D02*
X26359000Y17615000D01*
G01X26455700Y17696000D02*
X26462500Y17703600D01*
X26467600Y17716300D01*
X26471000Y17734000D01*
X26467600Y17749200D01*
X26460800Y17759300D01*
X26448900Y17766900D01*
X26402900D01*
Y17615000D01*
X26459100D01*
X26471000Y17625100D01*
X26477800Y17640300D01*
X26481200Y17658000D01*
X26477800Y17675800D01*
X26467600Y17690900D01*
X26455700Y17696000D01*
X26402900D01*
G01X25210000Y21288300D02*
Y21396000D01*
G01D02*
Y21503700D01*
G01X25102300Y21396000D02*
X25210000D01*
G01D02*
X25317700D01*
G01X25210000Y21542300D02*
Y21650000D01*
G01D02*
Y21757700D01*
G01X25102300Y21650000D02*
X25210000D01*
G01D02*
X25317700D01*
G01X25212300Y24338300D02*
Y24446000D01*
G01D02*
Y24553700D01*
G01X25104600Y24446000D02*
X25212300D01*
G01D02*
X25320000D01*
G01X24572300Y27517500D02*
X24582500D01*
X24745000Y27355000D01*
G01X25570000Y26950000D02*
Y27380000D01*
G01X25430000Y27381700D02*
X25568300D01*
X25570000Y27380000D01*
G01X25580000Y29054800D02*
Y29270000D01*
G01X25489400Y29059300D02*
X25580000Y29270000D01*
G01D02*
X25670600Y29059300D01*
G01X25364800Y29270000D02*
X25580000D01*
G01X25417800Y29107800D02*
X25580000Y29270000D01*
G01X25417800Y29432200D02*
X25580000Y29270000D01*
G01D02*
X25742200Y29107800D01*
G01X25369300Y29179400D02*
X25580000Y29270000D01*
G01X25369300Y29360600D02*
X25580000Y29270000D01*
G54D13*
G01X21400300Y26010000D02*
Y25716000D01*
G01Y26010000D02*
Y26120300D01*
X21920000Y26640000D01*
X22405000D01*
G01D02*
X22457700D01*
G01X23550000Y29140000D02*
X24570000D01*
X21085000Y21240000D03*
X20400000Y21255000D03*
X21220000Y21290000D03*
X20255000Y22460000D03*
X20275000Y22095000D03*
X20085000Y21320000D03*
X21270000Y21780000D03*
X21110000Y22560000D03*
X20250000Y22790000D03*
X21000000Y21670000D03*
X20940000Y21300000D03*
X20920000Y21920000D03*
X20250000Y21680000D03*
X20430000Y22270000D03*
X20275000Y21805000D03*
X20095000Y24385000D03*
X20170000Y24100000D03*
X21260000Y22930000D03*
X21120000Y23740000D03*
X21079500Y23245200D03*
X21170000Y23710000D03*
X21130000Y23230000D03*
X21235000Y25930000D03*
X21055000Y24845000D03*
X20522700Y25295000D03*
X21170000Y25920000D03*
X20530000Y25080000D03*
X20700000Y25410000D03*
X20260000Y25320000D03*
X21150000Y24600000D03*
X21000000Y25290000D03*
X20140000Y24590000D03*
X20645000Y27290000D03*
X21200000Y27400000D03*
X20615000Y27170000D03*
X20540000Y27110000D03*
X21200000Y27000000D03*
X20600000D03*
X20760000Y27545000D03*
X20900000Y27000000D03*
X20085000Y26895000D03*
X20090000Y26995000D03*
X20240000Y27468700D03*
X20170000Y27090000D03*
X20172300Y27250000D03*
X20100000Y26694700D03*
X20225000Y27301300D03*
X20230000Y26694700D03*
X20177300Y27530000D03*
X20090000Y27095000D03*
X20890000Y26520000D03*
X21290000Y26235000D03*
X21132300Y26210000D03*
X21170000Y26500000D03*
X21132300Y26262700D03*
X20575000Y26055000D03*
X20670000Y26120000D03*
X20360000Y26360000D03*
X20365000Y26485000D03*
X20095000Y26330000D03*
X20430000Y26190000D03*
X20075000Y26065000D03*
X20276200Y26056200D03*
X20895000Y26800000D03*
X21205000D03*
X20590000Y27502600D03*
X20710000Y27490000D03*
X20520000Y26902500D03*
X20570000Y26740000D03*
X20495000Y26697500D03*
X21145000Y26000000D03*
X20690000Y26730000D03*
X20520000Y27260000D03*
X20970000Y26090000D03*
Y26500000D03*
X20565000Y26800000D03*
X20170000Y27150000D03*
X20890000Y26090000D03*
X21060000Y26510000D03*
X20570000Y28980000D03*
X20728600Y28834800D03*
X20970000Y28480000D03*
X20840000Y28610000D03*
X21090000Y28360000D03*
Y28610000D03*
X20840000Y28360000D03*
X21190000Y28750000D03*
X20575000Y29101100D03*
X20692300Y28873100D03*
X21270000Y29102700D03*
X21210000Y29105000D03*
X21190000Y28800000D03*
X21250000Y28802700D03*
Y28750000D03*
X21210000Y28210000D03*
X20250000Y28975000D03*
X20460000Y28772800D03*
X20950000Y27810000D03*
X21164100Y27822500D03*
X20760000Y27690000D03*
X20950000Y27700000D03*
X21110000Y27815000D03*
X20300000Y27990000D03*
X20210000D03*
X21270000Y28897300D03*
X20163400Y28418100D03*
X20508800Y28375000D03*
X20510000Y28270000D03*
Y28325000D03*
X20379900Y27819900D03*
X20335000Y27870000D03*
X20180000Y27770000D03*
X20186100Y27868600D03*
X21010000Y29105000D03*
Y28910000D03*
X20639600Y28521700D03*
X20650200Y28470000D03*
X20710000Y28100000D03*
X20640000Y28330000D03*
X20780000Y28043800D03*
X20830000Y27640000D03*
X20620000Y28082500D03*
X21075000Y29100000D03*
X20776400Y28800000D03*
X21140000Y29100000D03*
X20829100Y28800000D03*
X20945000D03*
X20670000Y28780000D03*
X20610000Y28570000D03*
X20540000Y27570000D03*
X20667200Y28236300D03*
X20737800Y28916300D03*
X20600000Y28670000D03*
X20259800Y28265300D03*
X20710000Y27800000D03*
X20177300Y27620000D03*
X20267200Y28670000D03*
X20840000Y27780000D03*
X21250000Y27720000D03*
X20258300Y28543500D03*
X20782400Y27780000D03*
X22810000Y21250000D03*
X21800000Y21260000D03*
X22080000Y21250000D03*
X22290000Y21240000D03*
X22500000D03*
X22570000Y21290000D03*
X22382000Y21230000D03*
X22575000Y22265000D03*
X22120000Y22755000D03*
X22000000Y22845000D03*
X22820000Y21550000D03*
X22835000Y21675000D03*
X22850000Y21310000D03*
X22060000Y21970000D03*
X22490000Y21690000D03*
X22500000Y21510000D03*
X21380000Y22430000D03*
X21710000Y22510000D03*
X22100000Y22480000D03*
X22190000Y22200000D03*
X22610000Y21930000D03*
X22490000Y22470000D03*
X22850000Y22180000D03*
X22830000Y21960000D03*
X22050000Y21620000D03*
X22300000Y21550000D03*
X21820000Y21490000D03*
X21550000Y21640000D03*
X21500000Y21310000D03*
X22800000Y21370000D03*
X22390000Y21920000D03*
X21450000Y22030000D03*
X22620000Y22840000D03*
X22640000Y21300000D03*
X22630000Y22140000D03*
X22576000Y22340000D03*
X22570000Y22210000D03*
X22820000Y22540000D03*
X22810000Y22410000D03*
X22840000Y22670000D03*
X22570000Y22660000D03*
X22500000Y22585000D03*
X22430000Y22660000D03*
X21325000Y23670000D03*
X21610000Y23705000D03*
X22309000Y23110000D03*
X22308700Y22900000D03*
X21995000Y22945000D03*
X22075000Y23090000D03*
X22020000Y23870000D03*
X21380000Y23220000D03*
X21640000Y23260000D03*
X22100000D03*
X21690000Y22930000D03*
X21680000Y24130000D03*
X22210000Y23710000D03*
X21420000Y23870000D03*
X21340000Y24140000D03*
X22310100Y23237700D03*
X22308700Y23185000D03*
X22390000Y23770000D03*
X22670000Y23980000D03*
X22720000D03*
Y23930000D03*
X22670000D03*
X22309000Y22955000D03*
X22308700Y23055000D03*
X22440000Y24250000D03*
Y24125000D03*
Y23810000D03*
Y23270000D03*
X22300000Y23650000D03*
X22460000Y23022300D03*
Y22867300D03*
X22070000Y24250000D03*
X22475000Y25945000D03*
X21780000Y25977700D03*
X22530000Y25290000D03*
X21440000Y24625000D03*
X22070000Y24855000D03*
X22345000Y24770000D03*
X22700000Y25290000D03*
X21780000Y25300000D03*
X22750000Y24800000D03*
X22070000Y25360000D03*
X22600000Y24630000D03*
X21790000Y24750000D03*
X22586800Y24882500D03*
X22162300Y24997500D03*
X22840000Y24515000D03*
X21802500Y25827500D03*
X22712800Y25839800D03*
X22227700Y27160000D03*
X22080000Y27108700D03*
X22300000Y27412500D03*
X22227300Y27030000D03*
X22027700Y27410000D03*
X22435000Y27195000D03*
X22170000Y27108700D03*
X22280000Y27088900D03*
X22060000Y27010000D03*
X21400000Y27150000D03*
X21700000D03*
X21415000Y26600000D03*
X21770000Y26585000D03*
X21805000Y27410000D03*
X21600000Y27000000D03*
Y27400000D03*
X22430000Y26350000D03*
X22145000Y26440000D03*
X22081900Y26401000D03*
X22245000Y26385000D03*
X22640000Y26525000D03*
X22395000Y25990000D03*
X22583300Y26005000D03*
X22832300Y26390000D03*
X22120000Y26280000D03*
Y26010000D03*
X21701300Y26240000D03*
X21640000Y26182300D03*
X21810000Y27540000D03*
X22290000D03*
X22200000Y27530000D03*
X21890000Y26130000D03*
X22000000Y26010000D03*
X22680000Y26130000D03*
X21750000D03*
X22520000Y27405000D03*
X21600000Y26800000D03*
X22305000Y26400000D03*
X22373900Y26547500D03*
X22305100Y26520100D03*
X22092400D03*
X22350000Y26335000D03*
X21860000Y26395000D03*
X22395000Y27150200D03*
X22670000Y27060000D03*
Y27110000D03*
Y27010000D03*
X22405000Y26640000D03*
X22457700D03*
X21585000Y27530000D03*
X21535000Y26562500D03*
X22507700Y26110000D03*
X22122700D03*
X22170000Y27325000D03*
X22026100Y27099900D03*
X22070100Y26770100D03*
X22507700Y26190000D03*
X22122700D03*
X21550000Y26185300D03*
X22772700Y26780000D03*
X22720000D03*
X22345000Y29095000D03*
X22060000Y28435000D03*
X21665000Y28152300D03*
X21460100Y28111000D03*
X21425000Y28650000D03*
X21950200Y28540000D03*
X21769800Y28470000D03*
X21846300Y28620000D03*
X21769800Y28530000D03*
X21850000Y28397300D03*
X21960000Y28620000D03*
X21498900Y28580000D03*
X21569800Y28220000D03*
X21520000Y28112700D03*
X21750200Y28227300D03*
X21900000Y28620000D03*
X21600000Y29041300D03*
X21805000Y29033900D03*
X21620000Y28670000D03*
X21485000Y28650000D03*
X21569800Y28280000D03*
X21750200D03*
X21580000Y28600000D03*
X21446200Y28510000D03*
X21370000Y28137300D03*
X21481900Y28189000D03*
X21507700Y28235000D03*
X22137800Y28032700D03*
X22137200Y27980000D03*
X21851300Y28070000D03*
X21458700Y28058300D03*
X22415000Y28405000D03*
X22515000D03*
X22465000Y28315000D03*
X22515000Y28225000D03*
X22415000D03*
X22480000Y28140000D03*
Y28070000D03*
X22550000Y28110000D03*
X22462300Y27760000D03*
X22230000Y28970000D03*
X22290000Y29015000D03*
X22430000Y29095000D03*
X21760000Y28980000D03*
X21590000Y28920000D03*
X21660000D03*
X21730000D03*
X22577700Y27755000D03*
X22520000Y27701100D03*
X21372500Y28242700D03*
X21925000Y27850000D03*
X21569900Y27820100D03*
X21973800Y28100000D03*
X21449900Y28732300D03*
X21450100Y28785000D03*
X21870000Y29025000D03*
X21482700Y28305000D03*
X22695000Y28410000D03*
X22660000Y28870000D03*
X22750000D03*
X22625000Y28564800D03*
X22710000D03*
X22795000D03*
X22335000Y28600000D03*
X22295000D03*
X22450000Y27880000D03*
Y27835000D03*
X21350000Y27810000D03*
X21410000Y27730000D03*
X21292600Y27775000D03*
X21355000Y28710000D03*
X21891300Y28130000D03*
X21300000Y28120000D03*
X21610000Y28107700D03*
X22150000Y28160000D03*
X22210000D03*
X22260000Y28110000D03*
Y28060000D03*
X22288900Y27755000D03*
X22290000Y27700000D03*
X22355000Y29255000D03*
X22200000Y29430000D03*
X22030000Y29195000D03*
X22470000Y29140000D03*
X22544800Y29280000D03*
Y29395000D03*
X22665000Y29184800D03*
X21855000Y29425000D03*
X21700000Y29235000D03*
X22760000Y29184800D03*
X22970000Y21280000D03*
X23230000D03*
X23610000Y21270000D03*
X23900000D03*
X24320000Y21260000D03*
X23705000Y22480000D03*
X23245000Y22460000D03*
X23535000Y21805000D03*
X23410000Y21325000D03*
Y21550000D03*
X23285000Y21660000D03*
X23060000Y22000000D03*
X23250000Y22040000D03*
X24160000Y21750000D03*
X23750000Y22382300D03*
X23920000Y22000000D03*
X23750000Y21680000D03*
X23960000Y22470000D03*
X23510000Y22140000D03*
X23130000Y22090000D03*
X22970000Y22350000D03*
X24250000Y21440000D03*
X24020000Y21510000D03*
X23540000Y21450000D03*
X22975000Y21530000D03*
X23360000Y21920000D03*
X24090000Y22730000D03*
X22880000Y22470000D03*
X22900000Y22700000D03*
X23960000Y22310000D03*
X24070000Y22600000D03*
X24020000Y22550000D03*
X24070000Y22850000D03*
X23535000Y22477500D03*
X23640000Y22120000D03*
X23610000Y22627500D03*
X22930000Y24290000D03*
X23460000Y24240000D03*
X24240000Y24160000D03*
X23600000Y24150000D03*
X23370000Y24290000D03*
X24250000Y23590000D03*
X23400000Y23720000D03*
X23360000Y23650000D03*
X23550000Y23497700D03*
X23504900Y23395100D03*
X23571300Y22970000D03*
X23510000Y23027700D03*
X23447400Y23370000D03*
X23420000Y23030000D03*
X22945000Y23865000D03*
X23370000Y23850000D03*
X23760000Y24050000D03*
X23770000Y23150000D03*
X24170000Y23060000D03*
X23760100Y23209900D03*
X24140000Y23120000D03*
X23260000Y24110000D03*
X23312600Y24030000D03*
X24370000Y23220000D03*
X23210000Y23980000D03*
X23150000Y23960000D03*
X23700100Y23080000D03*
X23802500Y24360000D03*
X24102000Y23938000D03*
X23677500Y23400000D03*
X24200200Y23330600D03*
X23628700Y23295100D03*
X24150000Y23240000D03*
X23689900Y23336300D03*
X23125000Y24080000D03*
X23095000Y24180000D03*
X24160000Y25640000D03*
X23100000Y24850000D03*
X24330000Y25190000D03*
X23920000Y25910000D03*
X24010000Y25140000D03*
X24250000Y25920000D03*
X24260000Y25000000D03*
X24136800Y25010000D03*
X23420000Y24830000D03*
X23510000Y24570000D03*
X23680000Y25000000D03*
X23742500Y24570000D03*
X24140000Y24790000D03*
X23860000Y24980000D03*
X23770000Y24630000D03*
X23000100Y24670000D03*
X23300000Y25197500D03*
X23570000Y25190000D03*
X23826400Y24796400D03*
X22880000Y24920000D03*
X22869900Y24979800D03*
X23770000Y24867400D03*
X23850000Y24420000D03*
X24062500Y24520000D03*
X22870000Y24560000D03*
X24100000Y24577500D03*
X24070000Y24730000D03*
X23100000Y24670000D03*
X24120000D03*
X23425200Y25084800D03*
X23070000Y25140000D03*
X23090000Y25080000D03*
X23480000Y25042300D03*
X23500000Y24990000D03*
X23087200Y25005000D03*
X23160000Y25240000D03*
X23575000Y25964900D03*
X23435400Y25579500D03*
X24050000Y25960800D03*
X23817300Y26445000D03*
X24010000Y26275000D03*
X24385000Y26205000D03*
X24400000Y27500000D03*
Y27340000D03*
X24320000Y26390000D03*
X22864700Y26780000D03*
X22910000Y26290000D03*
X22900000Y26030000D03*
X24017300Y26520000D03*
X24070000Y26461100D03*
X23584800Y27430000D03*
Y27340000D03*
X23480000Y27520000D03*
X23450000Y27130000D03*
X23557700D03*
X23740000Y27220000D03*
X23960000Y27060000D03*
X24070000Y27282700D03*
X24131300Y27230000D03*
X24260000Y27360000D03*
X24100000Y27067400D03*
X24030000D03*
X23015000Y27455000D03*
X23065000Y27545000D03*
X23115000Y27455000D03*
X23150200Y27220000D03*
X23149900Y27272700D03*
X23140000Y26080000D03*
X23210000D03*
X23270000D03*
X23330000D03*
X23210000Y27045000D03*
X23065000Y27100000D03*
X23094800Y26810000D03*
X23190000Y26905200D03*
X23305200Y26815000D03*
X23475000Y26715000D03*
X23560000Y26795000D03*
X23620000Y26735000D03*
X23875000Y26375000D03*
X23935000D03*
X23670800Y26011000D03*
X24002700Y26060000D03*
X23430000Y27035000D03*
X24225600Y27515000D03*
X23025000Y26610000D03*
Y26675000D03*
X24128900Y27135000D03*
X22907700Y26110000D03*
X23905000Y26120000D03*
X22907700Y26190000D03*
X22890000Y27020000D03*
X22942700Y27017300D03*
X22890000Y27150000D03*
X22940000D03*
X23140000Y26380000D03*
X23200000D03*
X23270000D03*
X23350000D03*
X23440000Y26845000D03*
X23545000Y28130000D03*
X24210300Y29080000D03*
X24157600D03*
X24160200Y29010000D03*
X24150000Y28900000D03*
X24000000D03*
X24070000D03*
X24370000Y29060000D03*
X23930000Y28850000D03*
X23600000Y28830000D03*
X23150000Y28525000D03*
X23240000Y28565000D03*
X23325000Y28525000D03*
Y28600000D03*
X23150000D03*
X23240000Y28867700D03*
X23460000Y28880000D03*
X22930000Y28980000D03*
X22875300Y28510000D03*
X23025000Y28581300D03*
X23190000Y28820000D03*
X22935000Y28575200D03*
X23400000Y28560000D03*
X23460000D03*
X23470000Y28640000D03*
X23650000Y27994700D03*
X23710000Y28000000D03*
X23470000Y28070000D03*
X23337300Y27700000D03*
X23360000Y28160000D03*
X23260000D03*
X24400000Y27900000D03*
X24370000Y27850000D03*
X24030000Y27720000D03*
X23970000Y27660000D03*
X23900000Y27650000D03*
X24110000Y27820000D03*
X24190000D03*
X24240000Y28340000D03*
Y28390000D03*
X23940000Y28370000D03*
X23015000Y27635000D03*
X23115000D03*
X23075000Y27865000D03*
Y27810000D03*
Y27745000D03*
X24240000Y28590000D03*
X23970000Y28680000D03*
X23055000Y28240000D03*
X24264300Y27954600D03*
X23895000Y27905000D03*
X24040000Y28010000D03*
X23630000Y28430000D03*
X23762700Y28520000D03*
X23710000D03*
X23628300Y28377300D03*
X23450000Y28350000D03*
X24350000Y27690000D03*
X23805000Y28915000D03*
X23865000Y28255000D03*
X23710000Y28120000D03*
X23770000D03*
X23822700D03*
X24375000Y28679800D03*
X22875300Y28430000D03*
X22875000Y28370000D03*
X23140000Y28785200D03*
X23350000Y27625000D03*
X23340000Y27940000D03*
Y27880000D03*
X23337300Y27820000D03*
X24020200Y28479800D03*
X24229800Y29450000D03*
X24230100Y29397300D03*
X23110000Y29280000D03*
X22865200Y29285000D03*
X23285000Y29180000D03*
X22865200Y29400000D03*
X23665000Y29200000D03*
X23605000Y29199000D03*
X23280000Y29360000D03*
X23550000Y29140000D03*
X24640000Y21250000D03*
X24890000D03*
X25490000Y21280000D03*
X25740000Y21365000D03*
X25670000Y21920000D03*
X25110000Y22850000D03*
X24580000Y22280000D03*
X24620000Y21990000D03*
X25400000Y22340000D03*
X25100000Y22280000D03*
X24970000Y21620000D03*
X24590000Y21510000D03*
X25560000Y21800000D03*
X25690000Y22510000D03*
X24560000Y21720000D03*
X24540000Y22740000D03*
X25460000Y22800000D03*
X24480000Y22530000D03*
X24440000Y22850000D03*
X25740000Y24370000D03*
X25695000Y23540000D03*
Y23005000D03*
X24780000Y22980000D03*
X24730000Y23620000D03*
X24710000Y24270000D03*
X24750000Y23370000D03*
X24430000Y23850000D03*
X25710000Y23920000D03*
X25390000Y23500000D03*
X24520000Y23110000D03*
X24459800Y23200200D03*
X25585000Y24250000D03*
X25750000Y25900000D03*
X25225000Y25655000D03*
X25470000Y25095000D03*
X25510000Y24745000D03*
X24730000Y25659800D03*
X24520000Y25080000D03*
X25020000Y25190000D03*
X24730000Y24950000D03*
X24480000Y24480000D03*
X24800000Y25390000D03*
X25610000Y25540000D03*
X25760000Y24550000D03*
X25040000Y24660000D03*
X25490000Y25978300D03*
X25312400D03*
X24451000Y25577500D03*
X25720000Y27420000D03*
X25750000Y26600000D03*
X25780000Y27130000D03*
X25750000Y27325000D03*
Y26135000D03*
X24870000Y26090000D03*
X24700000Y26170000D03*
X25054800Y27490000D03*
X25118900Y27335300D03*
X24880000Y27460000D03*
X25180000Y27200000D03*
X25130000Y27130000D03*
X24650000Y26800000D03*
X24840000D03*
X24740000Y26930000D03*
X24520000Y26920000D03*
X25290000Y27530000D03*
X24540000Y27360000D03*
X24630000Y27040000D03*
X24672300Y27200000D03*
X24730000Y27138700D03*
X25590000Y26120000D03*
X25225000Y26125000D03*
X25145000Y26090000D03*
X25505000Y26670000D03*
X24930000Y27075000D03*
X25719700Y27520000D03*
X25200000Y26377700D03*
X25252700Y26325000D03*
X25200000D03*
X25305000Y26420000D03*
X24572300Y27517500D03*
X24745000Y27355000D03*
X25495000Y26420000D03*
X24575900Y26110000D03*
X25375000Y27381700D03*
X25450000Y26945000D03*
X24862300Y26405000D03*
X25640000Y26413900D03*
X25125000Y26427700D03*
X25080000Y27030000D03*
X25430000Y27381700D03*
X25570000Y26950000D03*
X25132700Y28880000D03*
X25500000Y28619800D03*
X25570000D03*
X25380000Y28650000D03*
X25310000Y28647700D03*
X25440000Y28570000D03*
X25640000Y28210200D03*
X25560000D03*
X25440100Y28145200D03*
X25440000Y28500000D03*
X25370000Y28220000D03*
X25101100Y29105000D03*
X25075000Y28745000D03*
X25073900Y28670000D03*
X25097600Y28482600D03*
X25017300Y28880000D03*
X24430000Y29020000D03*
X24520000Y28900000D03*
X24450000D03*
X25760000Y27900000D03*
X24880000Y27580000D03*
X24430000Y27850000D03*
X25054800Y27680000D03*
Y27590000D03*
X25040000Y27930000D03*
X25040200Y27830000D03*
X24950000Y27764800D03*
X24600000Y27790000D03*
X24470000Y28260000D03*
X24520000Y27980000D03*
X24660000Y28540000D03*
Y28490000D03*
Y28340000D03*
X24960000Y28350000D03*
X24590000Y28670000D03*
X24810000Y28810000D03*
X24450000Y27690000D03*
X25470000Y28990000D03*
X25530000D03*
X25590000D03*
X24810000Y28910000D03*
X25015000Y28572700D03*
X24680000Y27820000D03*
X24679800Y27875900D03*
X24680400Y27928600D03*
X24425000Y28660000D03*
X24475000Y28679800D03*
X24525100Y28663300D03*
X24600000Y28910000D03*
X25290000Y27680000D03*
X25287600Y27590000D03*
X25075000Y28250000D03*
X25455000Y27575000D03*
X25707700Y27610000D03*
X24970000Y29380000D03*
X24960000Y29190000D03*
X24505000Y29286300D03*
X24735000Y29365000D03*
Y29190000D03*
X24562700Y29235000D03*
X24447300D03*
X24570000Y29140000D03*
G54D14*
X20300000Y25760000D03*
G54D15*
G01X20146200Y20000000D02*
X25703800D01*
G03X25850000Y20146200I0J146200D01*
G01Y24450000D01*
G03X25740000Y24765000I-506023J0D01*
G02X25630000Y25080000I396023J315000D01*
G02X25740000Y25395000I506023J0D01*
G03X25850000Y25710000I-396023J315000D01*
G01Y29383800D01*
G03X25703800Y29530000I-146200J0D01*
G01X21580000D01*
Y29410000D01*
X21420000D01*
Y29200000D01*
X21330000D01*
Y29410000D01*
X20950000D01*
Y29200000D01*
X20860000D01*
Y29410000D01*
X20700000D01*
Y29530000D01*
X20146200D01*
G03X20000000Y29383800I0J-146200D01*
G01Y25710000D01*
G03X20110000Y25395000I506023J0D01*
G02X20220000Y25080000I-396023J-315000D01*
G02X20110000Y24765000I-506023J0D01*
G03X20000000Y24450000I396023J-315000D01*
G01Y20146200D01*
G03X20146200Y20000000I146200J0D01*
G01X24371200Y17685500D02*
Y17495000D01*
X24466000D01*
G01X24637500D02*
Y17685500D01*
X24549800Y17549000D01*
X24668400D01*
G01X24170700Y16983700D02*
Y17174200D01*
X24218100D01*
X24237000Y17164700D01*
X24251200Y17152000D01*
X24263100Y17132900D01*
X24272600Y17110700D01*
X24274900Y17078900D01*
X24272600Y17047200D01*
X24263100Y17025000D01*
X24251200Y17005900D01*
X24237000Y16993200D01*
X24218100Y16983700D01*
X24170700D01*
G01X24354000D02*
X24413300Y17174200D01*
X24472600Y16983700D01*
G01X24451200Y17050400D02*
X24375400D01*
G01X24603800Y17174200D02*
Y16983700D01*
G01X24549300Y17174200D02*
X24658300D01*
G01X24841700Y16983700D02*
X24746900D01*
Y17174200D01*
X24841700D01*
G01X24803800Y17082100D02*
X24746900D01*
G01X24984800Y16977400D02*
X24980100Y16980500D01*
Y16986900D01*
X24984800Y16990000D01*
X24989500Y16986900D01*
Y16980500D01*
X24984800Y16977400D01*
G01Y17063100D02*
X24980100Y17066200D01*
Y17072600D01*
X24984800Y17075800D01*
X24989500Y17072600D01*
Y17066200D01*
X24984800Y17063100D01*
G01X25320800Y17142500D02*
X25335000Y17161500D01*
X25351600Y17171000D01*
X25370500Y17174200D01*
X25394200Y17167900D01*
X25410800Y17152000D01*
X25415600Y17132900D01*
X25413200Y17113900D01*
X25403700Y17098000D01*
X25356300Y17066200D01*
X25335000Y17044000D01*
X25320800Y17012300D01*
X25316000Y16983700D01*
X25415600D01*
G01X25556300Y17174200D02*
X25537300Y17167900D01*
X25523100Y17152000D01*
X25513600Y17132900D01*
X25506500Y17107500D01*
X25504200Y17078900D01*
X25506500Y17050400D01*
X25513600Y17025000D01*
X25523100Y17005900D01*
X25537300Y16990000D01*
X25556300Y16983700D01*
X25575300Y16990000D01*
X25589500Y17005900D01*
X25599000Y17025000D01*
X25606100Y17050400D01*
X25608400Y17078900D01*
X25606100Y17107500D01*
X25599000Y17132900D01*
X25589500Y17152000D01*
X25575300Y17167900D01*
X25556300Y17174200D01*
G01X25746800Y16983700D02*
Y17174200D01*
X25718400Y17136100D01*
G01Y16983700D02*
X25775200D01*
G01X25937300D02*
X25953900Y16986900D01*
X25972800Y16996400D01*
X25984700Y17012300D01*
X25989400Y17034500D01*
X25984700Y17056700D01*
X25970500Y17075800D01*
X25949100Y17085300D01*
X25925500D01*
X25911200Y17091700D01*
X25899400Y17107500D01*
X25894600Y17129700D01*
X25901800Y17152000D01*
X25918300Y17167900D01*
X25937300Y17174200D01*
X25956300Y17167900D01*
X25972800Y17152000D01*
X25980000Y17129700D01*
X25975200Y17107500D01*
X25963400Y17091700D01*
X25949100Y17085300D01*
X25925500D01*
X25904100Y17075800D01*
X25889900Y17056700D01*
X25885200Y17034500D01*
X25889900Y17012300D01*
X25901800Y16996400D01*
X25920700Y16986900D01*
X25937300Y16983700D01*
G01X26097000Y17047200D02*
X26158600D01*
G01X26318300Y16983700D02*
Y17174200D01*
X26289900Y17136100D01*
G01Y16983700D02*
X26346700D01*
G01X26508800Y17174200D02*
X26489800Y17167900D01*
X26475600Y17152000D01*
X26466100Y17132900D01*
X26459000Y17107500D01*
X26456700Y17078900D01*
X26459000Y17050400D01*
X26466100Y17025000D01*
X26475600Y17005900D01*
X26489800Y16990000D01*
X26508800Y16983700D01*
X26527800Y16990000D01*
X26542000Y17005900D01*
X26551500Y17025000D01*
X26558600Y17050400D01*
X26560900Y17078900D01*
X26558600Y17107500D01*
X26551500Y17132900D01*
X26542000Y17152000D01*
X26527800Y17167900D01*
X26508800Y17174200D01*
G01X26668500Y17047200D02*
X26730100D01*
G01X26889800Y17174200D02*
X26870800Y17167900D01*
X26856600Y17152000D01*
X26847100Y17132900D01*
X26840000Y17107500D01*
X26837700Y17078900D01*
X26840000Y17050400D01*
X26847100Y17025000D01*
X26856600Y17005900D01*
X26870800Y16990000D01*
X26889800Y16983700D01*
X26908800Y16990000D01*
X26923000Y17005900D01*
X26932500Y17025000D01*
X26939600Y17050400D01*
X26941900Y17078900D01*
X26939600Y17107500D01*
X26932500Y17132900D01*
X26923000Y17152000D01*
X26908800Y17167900D01*
X26889800Y17174200D01*
G01X27080300Y16983700D02*
X27096900Y16986900D01*
X27115800Y16996400D01*
X27127700Y17012300D01*
X27132400Y17034500D01*
X27127700Y17056700D01*
X27113500Y17075800D01*
X27092100Y17085300D01*
X27068500D01*
X27054200Y17091700D01*
X27042400Y17107500D01*
X27037600Y17129700D01*
X27044800Y17152000D01*
X27061300Y17167900D01*
X27080300Y17174200D01*
X27099300Y17167900D01*
X27115800Y17152000D01*
X27123000Y17129700D01*
X27118200Y17107500D01*
X27106400Y17091700D01*
X27092100Y17085300D01*
X27068500D01*
X27047100Y17075800D01*
X27032900Y17056700D01*
X27028200Y17034500D01*
X27032900Y17012300D01*
X27044800Y16996400D01*
X27063700Y16986900D01*
X27080300Y16983700D01*
G01X24217800Y18169200D02*
Y17978700D01*
G01X24163300Y18169200D02*
X24272300D01*
G01X24455700Y17978700D02*
X24360900D01*
Y18169200D01*
X24455700D01*
G01X24417800Y18077100D02*
X24360900D01*
G01X24549000Y17978700D02*
X24648600Y18169200D01*
G01X24549000D02*
X24648600Y17978700D01*
G01X24730000D02*
X24789300Y18169200D01*
X24848600Y17978700D01*
G01X24827200Y18045400D02*
X24751400D01*
G01X24930000Y18004100D02*
X24949000Y17988200D01*
X24970300Y17978700D01*
X24989300D01*
X25008200Y17988200D01*
X25022500Y18004100D01*
X25029600Y18026300D01*
X25024800Y18048500D01*
X25013000Y18067600D01*
X24991600Y18080300D01*
X24963200Y18086700D01*
X24946600Y18099300D01*
X24939500Y18121600D01*
X24944300Y18143800D01*
X24956100Y18159700D01*
X24972700Y18169200D01*
X24989300D01*
X25005900Y18162900D01*
X25020100Y18147000D01*
G01X25332400Y18169200D02*
X25389200D01*
G01X25360800D02*
Y17978700D01*
G01X25332400D02*
X25389200D01*
G01X25496800D02*
Y18169200D01*
X25605800Y17978700D01*
Y18169200D01*
G01X25692000Y18004100D02*
X25711000Y17988200D01*
X25732300Y17978700D01*
X25751300D01*
X25770200Y17988200D01*
X25784500Y18004100D01*
X25791600Y18026300D01*
X25786800Y18048500D01*
X25775000Y18067600D01*
X25753600Y18080300D01*
X25725200Y18086700D01*
X25708600Y18099300D01*
X25701500Y18121600D01*
X25706300Y18143800D01*
X25718100Y18159700D01*
X25734700Y18169200D01*
X25751300D01*
X25767900Y18162900D01*
X25782100Y18147000D01*
G01X25932300Y18169200D02*
Y17978700D01*
G01X25877800Y18169200D02*
X25986800D01*
G01X26075400Y17978700D02*
Y18169200D01*
X26134600D01*
X26153600Y18159700D01*
X26165500Y18147000D01*
X26170200Y18121600D01*
X26165500Y18096200D01*
X26151200Y18080300D01*
X26134600Y18070800D01*
X26075400D01*
G01X26134600D02*
X26170200Y17978700D01*
G01X26261200Y18169200D02*
Y18032700D01*
X26270600Y18004100D01*
X26289600Y17985000D01*
X26313300Y17978700D01*
X26337000Y17985000D01*
X26356000Y18004100D01*
X26365400Y18032700D01*
Y18169200D01*
G01X26442200Y17978700D02*
Y18169200D01*
X26503800Y18010400D01*
X26565400Y18169200D01*
Y17978700D01*
G01X26741700D02*
X26646900D01*
Y18169200D01*
X26741700D01*
G01X26703800Y18077100D02*
X26646900D01*
G01X26830300Y17978700D02*
Y18169200D01*
X26939300Y17978700D01*
Y18169200D01*
G01X27075300D02*
Y17978700D01*
G01X27020800Y18169200D02*
X27129800D01*
G01X27216000Y18004100D02*
X27235000Y17988200D01*
X27256300Y17978700D01*
X27275300D01*
X27294200Y17988200D01*
X27308500Y18004100D01*
X27315600Y18026300D01*
X27310800Y18048500D01*
X27299000Y18067600D01*
X27277600Y18080300D01*
X27249200Y18086700D01*
X27232600Y18099300D01*
X27225500Y18121600D01*
X27230300Y18143800D01*
X27242100Y18159700D01*
X27258700Y18169200D01*
X27275300D01*
X27291900Y18162900D01*
X27306100Y18147000D01*
X20305000Y24967100D03*
Y25197100D03*
X22165000Y20250000D03*
X21927100Y29280000D03*
X22157100D03*
X23665000Y20250000D03*
X25540100Y25197900D03*
Y24967900D03*
G54D16*
G01X20107500Y18320000D02*
Y16820000D01*
X27607500D01*
Y18320000D01*
X20107500D01*
G01X23857500D02*
Y16820000D01*
G01Y17320000D02*
X27607500D01*
G01Y17820000D02*
X23857500D01*
G01X25125100D02*
Y17320000D01*
X20375000Y28855000D03*
X20172000D03*
X20273500Y28093000D03*
G54D17*
X20337000Y28728000D03*
Y28601000D03*
Y28474000D03*
Y28347000D03*
Y28220000D03*
X20210000Y28728000D03*
Y28601000D03*
Y28474000D03*
Y28347000D03*
Y28220000D03*
G54D18*
X20745000Y29265000D03*
X21535000D03*
G54D19*
X22760000Y23060000D03*
X22860000D03*
Y23160000D03*
X22760000D03*
X22860000Y23260000D03*
X22760000D03*
X22860000Y23360000D03*
X22760000D03*
X22860000Y23460000D03*
X22760000D03*
X22960000Y23060000D03*
X23060000D03*
X23160000D03*
Y23160000D03*
X23060000D03*
X22960000D03*
X23160000Y23260000D03*
X23060000D03*
X22960000D03*
X23160000Y23360000D03*
X23060000D03*
X22960000D03*
X23160000Y23460000D03*
X23060000D03*
X22960000D03*
M02*
