G04 #@! TF.GenerationSoftware,KiCad,Pcbnew,(5.1.5-0-10_14)*
G04 #@! TF.CreationDate,2020-09-29T12:48:30-04:00*
G04 #@! TF.ProjectId,ESLO_RB_DEBUG,45534c4f-5f52-4425-9f44-454255472e6b,rev?*
G04 #@! TF.SameCoordinates,Original*
G04 #@! TF.FileFunction,Copper,L2,Bot*
G04 #@! TF.FilePolarity,Positive*
%FSLAX46Y46*%
G04 Gerber Fmt 4.6, Leading zero omitted, Abs format (unit mm)*
G04 Created by KiCad (PCBNEW (5.1.5-0-10_14)) date 2020-09-29 12:48:30*
%MOMM*%
%LPD*%
G04 APERTURE LIST*
%ADD10C,2.000000*%
%ADD11O,1.700000X1.700000*%
%ADD12R,1.700000X1.700000*%
%ADD13C,0.800000*%
%ADD14C,0.250000*%
%ADD15C,0.254000*%
G04 APERTURE END LIST*
D10*
X169500000Y-99500000D03*
X169500000Y-94500000D03*
D11*
X159500000Y-96500000D03*
X156960000Y-96500000D03*
D12*
X154420000Y-96500000D03*
D13*
X128000000Y-87000000D03*
X167400000Y-88900000D03*
X152400000Y-77500000D03*
X168100000Y-78800000D03*
X170000000Y-82400000D03*
X165300000Y-81000000D03*
X157200000Y-87000000D03*
X169000000Y-82000000D03*
X161600000Y-75000000D03*
X167399986Y-86300000D03*
D14*
X163200000Y-81000000D02*
X157200000Y-87000000D01*
X165300000Y-81000000D02*
X163200000Y-81000000D01*
X169500000Y-92200000D02*
X169500000Y-94500000D01*
X169000000Y-91700000D02*
X169500000Y-92200000D01*
X169000000Y-82000000D02*
X169000000Y-91700000D01*
X165200000Y-98800000D02*
X168500001Y-95499999D01*
X159260000Y-98800000D02*
X165200000Y-98800000D01*
X168500001Y-95499999D02*
X169500000Y-94500000D01*
X156960000Y-96500000D02*
X159260000Y-98800000D01*
X167399986Y-85734315D02*
X167399986Y-86300000D01*
X161600000Y-75000000D02*
X167399986Y-80799986D01*
X167399986Y-80799986D02*
X167399986Y-85734315D01*
D15*
G36*
X171340000Y-101340000D02*
G01*
X122660000Y-101340000D01*
X122660000Y-100635413D01*
X168544192Y-100635413D01*
X168639956Y-100899814D01*
X168929571Y-101040704D01*
X169241108Y-101122384D01*
X169562595Y-101141718D01*
X169881675Y-101097961D01*
X170186088Y-100992795D01*
X170360044Y-100899814D01*
X170455808Y-100635413D01*
X169500000Y-99679605D01*
X168544192Y-100635413D01*
X122660000Y-100635413D01*
X122660000Y-94264759D01*
X123611557Y-94264759D01*
X123611557Y-94735241D01*
X123703343Y-95196683D01*
X123883389Y-95631352D01*
X124144775Y-96022544D01*
X124477456Y-96355225D01*
X124868648Y-96616611D01*
X125303317Y-96796657D01*
X125764759Y-96888443D01*
X126235241Y-96888443D01*
X126696683Y-96796657D01*
X127131352Y-96616611D01*
X127522544Y-96355225D01*
X127855225Y-96022544D01*
X128104150Y-95650000D01*
X152931928Y-95650000D01*
X152931928Y-97350000D01*
X152944188Y-97474482D01*
X152980498Y-97594180D01*
X153039463Y-97704494D01*
X153118815Y-97801185D01*
X153215506Y-97880537D01*
X153325820Y-97939502D01*
X153445518Y-97975812D01*
X153570000Y-97988072D01*
X155270000Y-97988072D01*
X155394482Y-97975812D01*
X155514180Y-97939502D01*
X155624494Y-97880537D01*
X155721185Y-97801185D01*
X155800537Y-97704494D01*
X155859502Y-97594180D01*
X155881513Y-97521620D01*
X156013368Y-97653475D01*
X156256589Y-97815990D01*
X156526842Y-97927932D01*
X156813740Y-97985000D01*
X157106260Y-97985000D01*
X157326408Y-97941209D01*
X158696201Y-99311003D01*
X158719999Y-99340001D01*
X158835724Y-99434974D01*
X158967753Y-99505546D01*
X159111014Y-99549003D01*
X159222667Y-99560000D01*
X159222676Y-99560000D01*
X159259999Y-99563676D01*
X159297322Y-99560000D01*
X165162678Y-99560000D01*
X165200000Y-99563676D01*
X165210975Y-99562595D01*
X167858282Y-99562595D01*
X167902039Y-99881675D01*
X168007205Y-100186088D01*
X168100186Y-100360044D01*
X168364587Y-100455808D01*
X169320395Y-99500000D01*
X169679605Y-99500000D01*
X170635413Y-100455808D01*
X170899814Y-100360044D01*
X171040704Y-100070429D01*
X171122384Y-99758892D01*
X171141718Y-99437405D01*
X171097961Y-99118325D01*
X170992795Y-98813912D01*
X170899814Y-98639956D01*
X170635413Y-98544192D01*
X169679605Y-99500000D01*
X169320395Y-99500000D01*
X168364587Y-98544192D01*
X168100186Y-98639956D01*
X167959296Y-98929571D01*
X167877616Y-99241108D01*
X167858282Y-99562595D01*
X165210975Y-99562595D01*
X165237322Y-99560000D01*
X165237333Y-99560000D01*
X165348986Y-99549003D01*
X165492247Y-99505546D01*
X165624276Y-99434974D01*
X165740001Y-99340001D01*
X165763804Y-99310997D01*
X166710214Y-98364587D01*
X168544192Y-98364587D01*
X169500000Y-99320395D01*
X170455808Y-98364587D01*
X170360044Y-98100186D01*
X170070429Y-97959296D01*
X169758892Y-97877616D01*
X169437405Y-97858282D01*
X169118325Y-97902039D01*
X168813912Y-98007205D01*
X168639956Y-98100186D01*
X168544192Y-98364587D01*
X166710214Y-98364587D01*
X169008625Y-96066177D01*
X169023088Y-96072168D01*
X169338967Y-96135000D01*
X169661033Y-96135000D01*
X169976912Y-96072168D01*
X170274463Y-95948918D01*
X170542252Y-95769987D01*
X170769987Y-95542252D01*
X170948918Y-95274463D01*
X171072168Y-94976912D01*
X171135000Y-94661033D01*
X171135000Y-94338967D01*
X171072168Y-94023088D01*
X170948918Y-93725537D01*
X170769987Y-93457748D01*
X170542252Y-93230013D01*
X170274463Y-93051082D01*
X170260000Y-93045091D01*
X170260000Y-92237325D01*
X170263676Y-92200000D01*
X170260000Y-92162675D01*
X170260000Y-92162667D01*
X170249003Y-92051014D01*
X170205546Y-91907753D01*
X170134974Y-91775724D01*
X170040001Y-91659999D01*
X170010998Y-91636197D01*
X169760000Y-91385199D01*
X169760000Y-82703711D01*
X169803937Y-82659774D01*
X169917205Y-82490256D01*
X169995226Y-82301898D01*
X170035000Y-82101939D01*
X170035000Y-81898061D01*
X169995226Y-81698102D01*
X169917205Y-81509744D01*
X169803937Y-81340226D01*
X169659774Y-81196063D01*
X169490256Y-81082795D01*
X169301898Y-81004774D01*
X169101939Y-80965000D01*
X168898061Y-80965000D01*
X168698102Y-81004774D01*
X168509744Y-81082795D01*
X168340226Y-81196063D01*
X168196063Y-81340226D01*
X168159986Y-81394219D01*
X168159986Y-80837309D01*
X168163662Y-80799986D01*
X168159986Y-80762663D01*
X168159986Y-80762653D01*
X168148989Y-80651000D01*
X168105532Y-80507739D01*
X168034960Y-80375710D01*
X167939987Y-80259985D01*
X167910990Y-80236188D01*
X162635000Y-74960199D01*
X162635000Y-74898061D01*
X162595226Y-74698102D01*
X162517205Y-74509744D01*
X162403937Y-74340226D01*
X162259774Y-74196063D01*
X162090256Y-74082795D01*
X161901898Y-74004774D01*
X161701939Y-73965000D01*
X161498061Y-73965000D01*
X161298102Y-74004774D01*
X161109744Y-74082795D01*
X160940226Y-74196063D01*
X160796063Y-74340226D01*
X160682795Y-74509744D01*
X160604774Y-74698102D01*
X160565000Y-74898061D01*
X160565000Y-75101939D01*
X160604774Y-75301898D01*
X160682795Y-75490256D01*
X160796063Y-75659774D01*
X160940226Y-75803937D01*
X161109744Y-75917205D01*
X161298102Y-75995226D01*
X161498061Y-76035000D01*
X161560199Y-76035000D01*
X165512113Y-79986915D01*
X165401939Y-79965000D01*
X165198061Y-79965000D01*
X164998102Y-80004774D01*
X164809744Y-80082795D01*
X164640226Y-80196063D01*
X164596289Y-80240000D01*
X163237322Y-80240000D01*
X163199999Y-80236324D01*
X163162676Y-80240000D01*
X163162667Y-80240000D01*
X163051014Y-80250997D01*
X162907753Y-80294454D01*
X162775724Y-80365026D01*
X162775722Y-80365027D01*
X162775723Y-80365027D01*
X162688996Y-80436201D01*
X162688992Y-80436205D01*
X162659999Y-80459999D01*
X162636205Y-80488992D01*
X157160199Y-85965000D01*
X157098061Y-85965000D01*
X156898102Y-86004774D01*
X156709744Y-86082795D01*
X156540226Y-86196063D01*
X156396063Y-86340226D01*
X156282795Y-86509744D01*
X156204774Y-86698102D01*
X156165000Y-86898061D01*
X156165000Y-87101939D01*
X156204774Y-87301898D01*
X156282795Y-87490256D01*
X156396063Y-87659774D01*
X156540226Y-87803937D01*
X156709744Y-87917205D01*
X156898102Y-87995226D01*
X157098061Y-88035000D01*
X157301939Y-88035000D01*
X157501898Y-87995226D01*
X157690256Y-87917205D01*
X157859774Y-87803937D01*
X158003937Y-87659774D01*
X158117205Y-87490256D01*
X158195226Y-87301898D01*
X158235000Y-87101939D01*
X158235000Y-87039801D01*
X163514803Y-81760000D01*
X164596289Y-81760000D01*
X164640226Y-81803937D01*
X164809744Y-81917205D01*
X164998102Y-81995226D01*
X165198061Y-82035000D01*
X165401939Y-82035000D01*
X165601898Y-81995226D01*
X165790256Y-81917205D01*
X165959774Y-81803937D01*
X166103937Y-81659774D01*
X166217205Y-81490256D01*
X166295226Y-81301898D01*
X166335000Y-81101939D01*
X166335000Y-80898061D01*
X166313085Y-80787887D01*
X166639986Y-81114788D01*
X166639987Y-85596288D01*
X166596049Y-85640226D01*
X166482781Y-85809744D01*
X166404760Y-85998102D01*
X166364986Y-86198061D01*
X166364986Y-86401939D01*
X166404760Y-86601898D01*
X166482781Y-86790256D01*
X166596049Y-86959774D01*
X166740212Y-87103937D01*
X166909730Y-87217205D01*
X167098088Y-87295226D01*
X167298047Y-87335000D01*
X167501925Y-87335000D01*
X167701884Y-87295226D01*
X167890242Y-87217205D01*
X168059760Y-87103937D01*
X168203923Y-86959774D01*
X168240001Y-86905780D01*
X168240001Y-91662668D01*
X168236324Y-91700000D01*
X168250998Y-91848985D01*
X168294454Y-91992246D01*
X168365026Y-92124276D01*
X168436201Y-92211002D01*
X168460000Y-92240001D01*
X168488998Y-92263799D01*
X168740000Y-92514801D01*
X168740000Y-93045091D01*
X168725537Y-93051082D01*
X168457748Y-93230013D01*
X168230013Y-93457748D01*
X168051082Y-93725537D01*
X167927832Y-94023088D01*
X167865000Y-94338967D01*
X167865000Y-94661033D01*
X167927832Y-94976912D01*
X167933823Y-94991375D01*
X164885199Y-98040000D01*
X159574802Y-98040000D01*
X159519802Y-97985000D01*
X159646260Y-97985000D01*
X159933158Y-97927932D01*
X160203411Y-97815990D01*
X160446632Y-97653475D01*
X160653475Y-97446632D01*
X160815990Y-97203411D01*
X160927932Y-96933158D01*
X160985000Y-96646260D01*
X160985000Y-96353740D01*
X160927932Y-96066842D01*
X160815990Y-95796589D01*
X160653475Y-95553368D01*
X160446632Y-95346525D01*
X160203411Y-95184010D01*
X159933158Y-95072068D01*
X159646260Y-95015000D01*
X159353740Y-95015000D01*
X159066842Y-95072068D01*
X158796589Y-95184010D01*
X158553368Y-95346525D01*
X158346525Y-95553368D01*
X158230000Y-95727760D01*
X158113475Y-95553368D01*
X157906632Y-95346525D01*
X157663411Y-95184010D01*
X157393158Y-95072068D01*
X157106260Y-95015000D01*
X156813740Y-95015000D01*
X156526842Y-95072068D01*
X156256589Y-95184010D01*
X156013368Y-95346525D01*
X155881513Y-95478380D01*
X155859502Y-95405820D01*
X155800537Y-95295506D01*
X155721185Y-95198815D01*
X155624494Y-95119463D01*
X155514180Y-95060498D01*
X155394482Y-95024188D01*
X155270000Y-95011928D01*
X153570000Y-95011928D01*
X153445518Y-95024188D01*
X153325820Y-95060498D01*
X153215506Y-95119463D01*
X153118815Y-95198815D01*
X153039463Y-95295506D01*
X152980498Y-95405820D01*
X152944188Y-95525518D01*
X152931928Y-95650000D01*
X128104150Y-95650000D01*
X128116611Y-95631352D01*
X128296657Y-95196683D01*
X128388443Y-94735241D01*
X128388443Y-94264759D01*
X128296657Y-93803317D01*
X128116611Y-93368648D01*
X127855225Y-92977456D01*
X127522544Y-92644775D01*
X127131352Y-92383389D01*
X126696683Y-92203343D01*
X126235241Y-92111557D01*
X125764759Y-92111557D01*
X125303317Y-92203343D01*
X124868648Y-92383389D01*
X124477456Y-92644775D01*
X124144775Y-92977456D01*
X123883389Y-93368648D01*
X123703343Y-93803317D01*
X123611557Y-94264759D01*
X122660000Y-94264759D01*
X122660000Y-79264759D01*
X123611557Y-79264759D01*
X123611557Y-79735241D01*
X123703343Y-80196683D01*
X123883389Y-80631352D01*
X124144775Y-81022544D01*
X124477456Y-81355225D01*
X124868648Y-81616611D01*
X125303317Y-81796657D01*
X125764759Y-81888443D01*
X126235241Y-81888443D01*
X126696683Y-81796657D01*
X127131352Y-81616611D01*
X127522544Y-81355225D01*
X127855225Y-81022544D01*
X128116611Y-80631352D01*
X128296657Y-80196683D01*
X128388443Y-79735241D01*
X128388443Y-79264759D01*
X128296657Y-78803317D01*
X128116611Y-78368648D01*
X127855225Y-77977456D01*
X127522544Y-77644775D01*
X127131352Y-77383389D01*
X126696683Y-77203343D01*
X126235241Y-77111557D01*
X125764759Y-77111557D01*
X125303317Y-77203343D01*
X124868648Y-77383389D01*
X124477456Y-77644775D01*
X124144775Y-77977456D01*
X123883389Y-78368648D01*
X123703343Y-78803317D01*
X123611557Y-79264759D01*
X122660000Y-79264759D01*
X122660000Y-72660000D01*
X171340001Y-72660000D01*
X171340000Y-101340000D01*
G37*
X171340000Y-101340000D02*
X122660000Y-101340000D01*
X122660000Y-100635413D01*
X168544192Y-100635413D01*
X168639956Y-100899814D01*
X168929571Y-101040704D01*
X169241108Y-101122384D01*
X169562595Y-101141718D01*
X169881675Y-101097961D01*
X170186088Y-100992795D01*
X170360044Y-100899814D01*
X170455808Y-100635413D01*
X169500000Y-99679605D01*
X168544192Y-100635413D01*
X122660000Y-100635413D01*
X122660000Y-94264759D01*
X123611557Y-94264759D01*
X123611557Y-94735241D01*
X123703343Y-95196683D01*
X123883389Y-95631352D01*
X124144775Y-96022544D01*
X124477456Y-96355225D01*
X124868648Y-96616611D01*
X125303317Y-96796657D01*
X125764759Y-96888443D01*
X126235241Y-96888443D01*
X126696683Y-96796657D01*
X127131352Y-96616611D01*
X127522544Y-96355225D01*
X127855225Y-96022544D01*
X128104150Y-95650000D01*
X152931928Y-95650000D01*
X152931928Y-97350000D01*
X152944188Y-97474482D01*
X152980498Y-97594180D01*
X153039463Y-97704494D01*
X153118815Y-97801185D01*
X153215506Y-97880537D01*
X153325820Y-97939502D01*
X153445518Y-97975812D01*
X153570000Y-97988072D01*
X155270000Y-97988072D01*
X155394482Y-97975812D01*
X155514180Y-97939502D01*
X155624494Y-97880537D01*
X155721185Y-97801185D01*
X155800537Y-97704494D01*
X155859502Y-97594180D01*
X155881513Y-97521620D01*
X156013368Y-97653475D01*
X156256589Y-97815990D01*
X156526842Y-97927932D01*
X156813740Y-97985000D01*
X157106260Y-97985000D01*
X157326408Y-97941209D01*
X158696201Y-99311003D01*
X158719999Y-99340001D01*
X158835724Y-99434974D01*
X158967753Y-99505546D01*
X159111014Y-99549003D01*
X159222667Y-99560000D01*
X159222676Y-99560000D01*
X159259999Y-99563676D01*
X159297322Y-99560000D01*
X165162678Y-99560000D01*
X165200000Y-99563676D01*
X165210975Y-99562595D01*
X167858282Y-99562595D01*
X167902039Y-99881675D01*
X168007205Y-100186088D01*
X168100186Y-100360044D01*
X168364587Y-100455808D01*
X169320395Y-99500000D01*
X169679605Y-99500000D01*
X170635413Y-100455808D01*
X170899814Y-100360044D01*
X171040704Y-100070429D01*
X171122384Y-99758892D01*
X171141718Y-99437405D01*
X171097961Y-99118325D01*
X170992795Y-98813912D01*
X170899814Y-98639956D01*
X170635413Y-98544192D01*
X169679605Y-99500000D01*
X169320395Y-99500000D01*
X168364587Y-98544192D01*
X168100186Y-98639956D01*
X167959296Y-98929571D01*
X167877616Y-99241108D01*
X167858282Y-99562595D01*
X165210975Y-99562595D01*
X165237322Y-99560000D01*
X165237333Y-99560000D01*
X165348986Y-99549003D01*
X165492247Y-99505546D01*
X165624276Y-99434974D01*
X165740001Y-99340001D01*
X165763804Y-99310997D01*
X166710214Y-98364587D01*
X168544192Y-98364587D01*
X169500000Y-99320395D01*
X170455808Y-98364587D01*
X170360044Y-98100186D01*
X170070429Y-97959296D01*
X169758892Y-97877616D01*
X169437405Y-97858282D01*
X169118325Y-97902039D01*
X168813912Y-98007205D01*
X168639956Y-98100186D01*
X168544192Y-98364587D01*
X166710214Y-98364587D01*
X169008625Y-96066177D01*
X169023088Y-96072168D01*
X169338967Y-96135000D01*
X169661033Y-96135000D01*
X169976912Y-96072168D01*
X170274463Y-95948918D01*
X170542252Y-95769987D01*
X170769987Y-95542252D01*
X170948918Y-95274463D01*
X171072168Y-94976912D01*
X171135000Y-94661033D01*
X171135000Y-94338967D01*
X171072168Y-94023088D01*
X170948918Y-93725537D01*
X170769987Y-93457748D01*
X170542252Y-93230013D01*
X170274463Y-93051082D01*
X170260000Y-93045091D01*
X170260000Y-92237325D01*
X170263676Y-92200000D01*
X170260000Y-92162675D01*
X170260000Y-92162667D01*
X170249003Y-92051014D01*
X170205546Y-91907753D01*
X170134974Y-91775724D01*
X170040001Y-91659999D01*
X170010998Y-91636197D01*
X169760000Y-91385199D01*
X169760000Y-82703711D01*
X169803937Y-82659774D01*
X169917205Y-82490256D01*
X169995226Y-82301898D01*
X170035000Y-82101939D01*
X170035000Y-81898061D01*
X169995226Y-81698102D01*
X169917205Y-81509744D01*
X169803937Y-81340226D01*
X169659774Y-81196063D01*
X169490256Y-81082795D01*
X169301898Y-81004774D01*
X169101939Y-80965000D01*
X168898061Y-80965000D01*
X168698102Y-81004774D01*
X168509744Y-81082795D01*
X168340226Y-81196063D01*
X168196063Y-81340226D01*
X168159986Y-81394219D01*
X168159986Y-80837309D01*
X168163662Y-80799986D01*
X168159986Y-80762663D01*
X168159986Y-80762653D01*
X168148989Y-80651000D01*
X168105532Y-80507739D01*
X168034960Y-80375710D01*
X167939987Y-80259985D01*
X167910990Y-80236188D01*
X162635000Y-74960199D01*
X162635000Y-74898061D01*
X162595226Y-74698102D01*
X162517205Y-74509744D01*
X162403937Y-74340226D01*
X162259774Y-74196063D01*
X162090256Y-74082795D01*
X161901898Y-74004774D01*
X161701939Y-73965000D01*
X161498061Y-73965000D01*
X161298102Y-74004774D01*
X161109744Y-74082795D01*
X160940226Y-74196063D01*
X160796063Y-74340226D01*
X160682795Y-74509744D01*
X160604774Y-74698102D01*
X160565000Y-74898061D01*
X160565000Y-75101939D01*
X160604774Y-75301898D01*
X160682795Y-75490256D01*
X160796063Y-75659774D01*
X160940226Y-75803937D01*
X161109744Y-75917205D01*
X161298102Y-75995226D01*
X161498061Y-76035000D01*
X161560199Y-76035000D01*
X165512113Y-79986915D01*
X165401939Y-79965000D01*
X165198061Y-79965000D01*
X164998102Y-80004774D01*
X164809744Y-80082795D01*
X164640226Y-80196063D01*
X164596289Y-80240000D01*
X163237322Y-80240000D01*
X163199999Y-80236324D01*
X163162676Y-80240000D01*
X163162667Y-80240000D01*
X163051014Y-80250997D01*
X162907753Y-80294454D01*
X162775724Y-80365026D01*
X162775722Y-80365027D01*
X162775723Y-80365027D01*
X162688996Y-80436201D01*
X162688992Y-80436205D01*
X162659999Y-80459999D01*
X162636205Y-80488992D01*
X157160199Y-85965000D01*
X157098061Y-85965000D01*
X156898102Y-86004774D01*
X156709744Y-86082795D01*
X156540226Y-86196063D01*
X156396063Y-86340226D01*
X156282795Y-86509744D01*
X156204774Y-86698102D01*
X156165000Y-86898061D01*
X156165000Y-87101939D01*
X156204774Y-87301898D01*
X156282795Y-87490256D01*
X156396063Y-87659774D01*
X156540226Y-87803937D01*
X156709744Y-87917205D01*
X156898102Y-87995226D01*
X157098061Y-88035000D01*
X157301939Y-88035000D01*
X157501898Y-87995226D01*
X157690256Y-87917205D01*
X157859774Y-87803937D01*
X158003937Y-87659774D01*
X158117205Y-87490256D01*
X158195226Y-87301898D01*
X158235000Y-87101939D01*
X158235000Y-87039801D01*
X163514803Y-81760000D01*
X164596289Y-81760000D01*
X164640226Y-81803937D01*
X164809744Y-81917205D01*
X164998102Y-81995226D01*
X165198061Y-82035000D01*
X165401939Y-82035000D01*
X165601898Y-81995226D01*
X165790256Y-81917205D01*
X165959774Y-81803937D01*
X166103937Y-81659774D01*
X166217205Y-81490256D01*
X166295226Y-81301898D01*
X166335000Y-81101939D01*
X166335000Y-80898061D01*
X166313085Y-80787887D01*
X166639986Y-81114788D01*
X166639987Y-85596288D01*
X166596049Y-85640226D01*
X166482781Y-85809744D01*
X166404760Y-85998102D01*
X166364986Y-86198061D01*
X166364986Y-86401939D01*
X166404760Y-86601898D01*
X166482781Y-86790256D01*
X166596049Y-86959774D01*
X166740212Y-87103937D01*
X166909730Y-87217205D01*
X167098088Y-87295226D01*
X167298047Y-87335000D01*
X167501925Y-87335000D01*
X167701884Y-87295226D01*
X167890242Y-87217205D01*
X168059760Y-87103937D01*
X168203923Y-86959774D01*
X168240001Y-86905780D01*
X168240001Y-91662668D01*
X168236324Y-91700000D01*
X168250998Y-91848985D01*
X168294454Y-91992246D01*
X168365026Y-92124276D01*
X168436201Y-92211002D01*
X168460000Y-92240001D01*
X168488998Y-92263799D01*
X168740000Y-92514801D01*
X168740000Y-93045091D01*
X168725537Y-93051082D01*
X168457748Y-93230013D01*
X168230013Y-93457748D01*
X168051082Y-93725537D01*
X167927832Y-94023088D01*
X167865000Y-94338967D01*
X167865000Y-94661033D01*
X167927832Y-94976912D01*
X167933823Y-94991375D01*
X164885199Y-98040000D01*
X159574802Y-98040000D01*
X159519802Y-97985000D01*
X159646260Y-97985000D01*
X159933158Y-97927932D01*
X160203411Y-97815990D01*
X160446632Y-97653475D01*
X160653475Y-97446632D01*
X160815990Y-97203411D01*
X160927932Y-96933158D01*
X160985000Y-96646260D01*
X160985000Y-96353740D01*
X160927932Y-96066842D01*
X160815990Y-95796589D01*
X160653475Y-95553368D01*
X160446632Y-95346525D01*
X160203411Y-95184010D01*
X159933158Y-95072068D01*
X159646260Y-95015000D01*
X159353740Y-95015000D01*
X159066842Y-95072068D01*
X158796589Y-95184010D01*
X158553368Y-95346525D01*
X158346525Y-95553368D01*
X158230000Y-95727760D01*
X158113475Y-95553368D01*
X157906632Y-95346525D01*
X157663411Y-95184010D01*
X157393158Y-95072068D01*
X157106260Y-95015000D01*
X156813740Y-95015000D01*
X156526842Y-95072068D01*
X156256589Y-95184010D01*
X156013368Y-95346525D01*
X155881513Y-95478380D01*
X155859502Y-95405820D01*
X155800537Y-95295506D01*
X155721185Y-95198815D01*
X155624494Y-95119463D01*
X155514180Y-95060498D01*
X155394482Y-95024188D01*
X155270000Y-95011928D01*
X153570000Y-95011928D01*
X153445518Y-95024188D01*
X153325820Y-95060498D01*
X153215506Y-95119463D01*
X153118815Y-95198815D01*
X153039463Y-95295506D01*
X152980498Y-95405820D01*
X152944188Y-95525518D01*
X152931928Y-95650000D01*
X128104150Y-95650000D01*
X128116611Y-95631352D01*
X128296657Y-95196683D01*
X128388443Y-94735241D01*
X128388443Y-94264759D01*
X128296657Y-93803317D01*
X128116611Y-93368648D01*
X127855225Y-92977456D01*
X127522544Y-92644775D01*
X127131352Y-92383389D01*
X126696683Y-92203343D01*
X126235241Y-92111557D01*
X125764759Y-92111557D01*
X125303317Y-92203343D01*
X124868648Y-92383389D01*
X124477456Y-92644775D01*
X124144775Y-92977456D01*
X123883389Y-93368648D01*
X123703343Y-93803317D01*
X123611557Y-94264759D01*
X122660000Y-94264759D01*
X122660000Y-79264759D01*
X123611557Y-79264759D01*
X123611557Y-79735241D01*
X123703343Y-80196683D01*
X123883389Y-80631352D01*
X124144775Y-81022544D01*
X124477456Y-81355225D01*
X124868648Y-81616611D01*
X125303317Y-81796657D01*
X125764759Y-81888443D01*
X126235241Y-81888443D01*
X126696683Y-81796657D01*
X127131352Y-81616611D01*
X127522544Y-81355225D01*
X127855225Y-81022544D01*
X128116611Y-80631352D01*
X128296657Y-80196683D01*
X128388443Y-79735241D01*
X128388443Y-79264759D01*
X128296657Y-78803317D01*
X128116611Y-78368648D01*
X127855225Y-77977456D01*
X127522544Y-77644775D01*
X127131352Y-77383389D01*
X126696683Y-77203343D01*
X126235241Y-77111557D01*
X125764759Y-77111557D01*
X125303317Y-77203343D01*
X124868648Y-77383389D01*
X124477456Y-77644775D01*
X124144775Y-77977456D01*
X123883389Y-78368648D01*
X123703343Y-78803317D01*
X123611557Y-79264759D01*
X122660000Y-79264759D01*
X122660000Y-72660000D01*
X171340001Y-72660000D01*
X171340000Y-101340000D01*
M02*
