G04 #@! TF.GenerationSoftware,KiCad,Pcbnew,(5.1.5-0-10_14)*
G04 #@! TF.CreationDate,2020-09-29T12:48:30-04:00*
G04 #@! TF.ProjectId,ESLO_RB_DEBUG,45534c4f-5f52-4425-9f44-454255472e6b,rev?*
G04 #@! TF.SameCoordinates,Original*
G04 #@! TF.FileFunction,Soldermask,Bot*
G04 #@! TF.FilePolarity,Negative*
%FSLAX46Y46*%
G04 Gerber Fmt 4.6, Leading zero omitted, Abs format (unit mm)*
G04 Created by KiCad (PCBNEW (5.1.5-0-10_14)) date 2020-09-29 12:48:30*
%MOMM*%
%LPD*%
G04 APERTURE LIST*
%ADD10C,0.100000*%
G04 APERTURE END LIST*
D10*
G36*
X169806564Y-98489389D02*
G01*
X169997833Y-98568615D01*
X169997835Y-98568616D01*
X170169973Y-98683635D01*
X170316365Y-98830027D01*
X170431385Y-99002167D01*
X170510611Y-99193436D01*
X170551000Y-99396484D01*
X170551000Y-99603516D01*
X170510611Y-99806564D01*
X170431385Y-99997833D01*
X170431384Y-99997835D01*
X170316365Y-100169973D01*
X170169973Y-100316365D01*
X169997835Y-100431384D01*
X169997834Y-100431385D01*
X169997833Y-100431385D01*
X169806564Y-100510611D01*
X169603516Y-100551000D01*
X169396484Y-100551000D01*
X169193436Y-100510611D01*
X169002167Y-100431385D01*
X169002166Y-100431385D01*
X169002165Y-100431384D01*
X168830027Y-100316365D01*
X168683635Y-100169973D01*
X168568616Y-99997835D01*
X168568615Y-99997833D01*
X168489389Y-99806564D01*
X168449000Y-99603516D01*
X168449000Y-99396484D01*
X168489389Y-99193436D01*
X168568615Y-99002167D01*
X168683635Y-98830027D01*
X168830027Y-98683635D01*
X169002165Y-98568616D01*
X169002167Y-98568615D01*
X169193436Y-98489389D01*
X169396484Y-98449000D01*
X169603516Y-98449000D01*
X169806564Y-98489389D01*
G37*
G36*
X159613512Y-95603927D02*
G01*
X159762812Y-95633624D01*
X159926784Y-95701544D01*
X160074354Y-95800147D01*
X160199853Y-95925646D01*
X160298456Y-96073216D01*
X160366376Y-96237188D01*
X160401000Y-96411259D01*
X160401000Y-96588741D01*
X160366376Y-96762812D01*
X160298456Y-96926784D01*
X160199853Y-97074354D01*
X160074354Y-97199853D01*
X159926784Y-97298456D01*
X159762812Y-97366376D01*
X159613512Y-97396073D01*
X159588742Y-97401000D01*
X159411258Y-97401000D01*
X159386488Y-97396073D01*
X159237188Y-97366376D01*
X159073216Y-97298456D01*
X158925646Y-97199853D01*
X158800147Y-97074354D01*
X158701544Y-96926784D01*
X158633624Y-96762812D01*
X158599000Y-96588741D01*
X158599000Y-96411259D01*
X158633624Y-96237188D01*
X158701544Y-96073216D01*
X158800147Y-95925646D01*
X158925646Y-95800147D01*
X159073216Y-95701544D01*
X159237188Y-95633624D01*
X159386488Y-95603927D01*
X159411258Y-95599000D01*
X159588742Y-95599000D01*
X159613512Y-95603927D01*
G37*
G36*
X157073512Y-95603927D02*
G01*
X157222812Y-95633624D01*
X157386784Y-95701544D01*
X157534354Y-95800147D01*
X157659853Y-95925646D01*
X157758456Y-96073216D01*
X157826376Y-96237188D01*
X157861000Y-96411259D01*
X157861000Y-96588741D01*
X157826376Y-96762812D01*
X157758456Y-96926784D01*
X157659853Y-97074354D01*
X157534354Y-97199853D01*
X157386784Y-97298456D01*
X157222812Y-97366376D01*
X157073512Y-97396073D01*
X157048742Y-97401000D01*
X156871258Y-97401000D01*
X156846488Y-97396073D01*
X156697188Y-97366376D01*
X156533216Y-97298456D01*
X156385646Y-97199853D01*
X156260147Y-97074354D01*
X156161544Y-96926784D01*
X156093624Y-96762812D01*
X156059000Y-96588741D01*
X156059000Y-96411259D01*
X156093624Y-96237188D01*
X156161544Y-96073216D01*
X156260147Y-95925646D01*
X156385646Y-95800147D01*
X156533216Y-95701544D01*
X156697188Y-95633624D01*
X156846488Y-95603927D01*
X156871258Y-95599000D01*
X157048742Y-95599000D01*
X157073512Y-95603927D01*
G37*
G36*
X155321000Y-97401000D02*
G01*
X153519000Y-97401000D01*
X153519000Y-95599000D01*
X155321000Y-95599000D01*
X155321000Y-97401000D01*
G37*
G36*
X169806564Y-93489389D02*
G01*
X169997833Y-93568615D01*
X169997835Y-93568616D01*
X170169973Y-93683635D01*
X170316365Y-93830027D01*
X170431385Y-94002167D01*
X170510611Y-94193436D01*
X170551000Y-94396484D01*
X170551000Y-94603516D01*
X170510611Y-94806564D01*
X170431385Y-94997833D01*
X170431384Y-94997835D01*
X170316365Y-95169973D01*
X170169973Y-95316365D01*
X169997835Y-95431384D01*
X169997834Y-95431385D01*
X169997833Y-95431385D01*
X169806564Y-95510611D01*
X169603516Y-95551000D01*
X169396484Y-95551000D01*
X169193436Y-95510611D01*
X169002167Y-95431385D01*
X169002166Y-95431385D01*
X169002165Y-95431384D01*
X168830027Y-95316365D01*
X168683635Y-95169973D01*
X168568616Y-94997835D01*
X168568615Y-94997833D01*
X168489389Y-94806564D01*
X168449000Y-94603516D01*
X168449000Y-94396484D01*
X168489389Y-94193436D01*
X168568615Y-94002167D01*
X168683635Y-93830027D01*
X168830027Y-93683635D01*
X169002165Y-93568616D01*
X169002167Y-93568615D01*
X169193436Y-93489389D01*
X169396484Y-93449000D01*
X169603516Y-93449000D01*
X169806564Y-93489389D01*
G37*
M02*
