G04 #@! TF.GenerationSoftware,KiCad,Pcbnew,(5.1.5-0-10_14)*
G04 #@! TF.CreationDate,2020-09-29T12:48:30-04:00*
G04 #@! TF.ProjectId,ESLO_RB_DEBUG,45534c4f-5f52-4425-9f44-454255472e6b,rev?*
G04 #@! TF.SameCoordinates,Original*
G04 #@! TF.FileFunction,Soldermask,Top*
G04 #@! TF.FilePolarity,Negative*
%FSLAX46Y46*%
G04 Gerber Fmt 4.6, Leading zero omitted, Abs format (unit mm)*
G04 Created by KiCad (PCBNEW (5.1.5-0-10_14)) date 2020-09-29 12:48:30*
%MOMM*%
%LPD*%
G04 APERTURE LIST*
%ADD10C,0.100000*%
G04 APERTURE END LIST*
D10*
G36*
X169806564Y-98489389D02*
G01*
X169997833Y-98568615D01*
X169997835Y-98568616D01*
X170169973Y-98683635D01*
X170316365Y-98830027D01*
X170431385Y-99002167D01*
X170510611Y-99193436D01*
X170551000Y-99396484D01*
X170551000Y-99603516D01*
X170510611Y-99806564D01*
X170431385Y-99997833D01*
X170431384Y-99997835D01*
X170316365Y-100169973D01*
X170169973Y-100316365D01*
X169997835Y-100431384D01*
X169997834Y-100431385D01*
X169997833Y-100431385D01*
X169806564Y-100510611D01*
X169603516Y-100551000D01*
X169396484Y-100551000D01*
X169193436Y-100510611D01*
X169002167Y-100431385D01*
X169002166Y-100431385D01*
X169002165Y-100431384D01*
X168830027Y-100316365D01*
X168683635Y-100169973D01*
X168568616Y-99997835D01*
X168568615Y-99997833D01*
X168489389Y-99806564D01*
X168449000Y-99603516D01*
X168449000Y-99396484D01*
X168489389Y-99193436D01*
X168568615Y-99002167D01*
X168683635Y-98830027D01*
X168830027Y-98683635D01*
X169002165Y-98568616D01*
X169002167Y-98568615D01*
X169193436Y-98489389D01*
X169396484Y-98449000D01*
X169603516Y-98449000D01*
X169806564Y-98489389D01*
G37*
G36*
X159613512Y-95603927D02*
G01*
X159762812Y-95633624D01*
X159926784Y-95701544D01*
X160074354Y-95800147D01*
X160199853Y-95925646D01*
X160298456Y-96073216D01*
X160366376Y-96237188D01*
X160401000Y-96411259D01*
X160401000Y-96588741D01*
X160366376Y-96762812D01*
X160298456Y-96926784D01*
X160199853Y-97074354D01*
X160074354Y-97199853D01*
X159926784Y-97298456D01*
X159762812Y-97366376D01*
X159613512Y-97396073D01*
X159588742Y-97401000D01*
X159411258Y-97401000D01*
X159386488Y-97396073D01*
X159237188Y-97366376D01*
X159073216Y-97298456D01*
X158925646Y-97199853D01*
X158800147Y-97074354D01*
X158701544Y-96926784D01*
X158633624Y-96762812D01*
X158599000Y-96588741D01*
X158599000Y-96411259D01*
X158633624Y-96237188D01*
X158701544Y-96073216D01*
X158800147Y-95925646D01*
X158925646Y-95800147D01*
X159073216Y-95701544D01*
X159237188Y-95633624D01*
X159386488Y-95603927D01*
X159411258Y-95599000D01*
X159588742Y-95599000D01*
X159613512Y-95603927D01*
G37*
G36*
X157073512Y-95603927D02*
G01*
X157222812Y-95633624D01*
X157386784Y-95701544D01*
X157534354Y-95800147D01*
X157659853Y-95925646D01*
X157758456Y-96073216D01*
X157826376Y-96237188D01*
X157861000Y-96411259D01*
X157861000Y-96588741D01*
X157826376Y-96762812D01*
X157758456Y-96926784D01*
X157659853Y-97074354D01*
X157534354Y-97199853D01*
X157386784Y-97298456D01*
X157222812Y-97366376D01*
X157073512Y-97396073D01*
X157048742Y-97401000D01*
X156871258Y-97401000D01*
X156846488Y-97396073D01*
X156697188Y-97366376D01*
X156533216Y-97298456D01*
X156385646Y-97199853D01*
X156260147Y-97074354D01*
X156161544Y-96926784D01*
X156093624Y-96762812D01*
X156059000Y-96588741D01*
X156059000Y-96411259D01*
X156093624Y-96237188D01*
X156161544Y-96073216D01*
X156260147Y-95925646D01*
X156385646Y-95800147D01*
X156533216Y-95701544D01*
X156697188Y-95633624D01*
X156846488Y-95603927D01*
X156871258Y-95599000D01*
X157048742Y-95599000D01*
X157073512Y-95603927D01*
G37*
G36*
X155321000Y-97401000D02*
G01*
X153519000Y-97401000D01*
X153519000Y-95599000D01*
X155321000Y-95599000D01*
X155321000Y-97401000D01*
G37*
G36*
X169806564Y-93489389D02*
G01*
X169997833Y-93568615D01*
X169997835Y-93568616D01*
X170169973Y-93683635D01*
X170316365Y-93830027D01*
X170431385Y-94002167D01*
X170510611Y-94193436D01*
X170551000Y-94396484D01*
X170551000Y-94603516D01*
X170510611Y-94806564D01*
X170431385Y-94997833D01*
X170431384Y-94997835D01*
X170316365Y-95169973D01*
X170169973Y-95316365D01*
X169997835Y-95431384D01*
X169997834Y-95431385D01*
X169997833Y-95431385D01*
X169806564Y-95510611D01*
X169603516Y-95551000D01*
X169396484Y-95551000D01*
X169193436Y-95510611D01*
X169002167Y-95431385D01*
X169002166Y-95431385D01*
X169002165Y-95431384D01*
X168830027Y-95316365D01*
X168683635Y-95169973D01*
X168568616Y-94997835D01*
X168568615Y-94997833D01*
X168489389Y-94806564D01*
X168449000Y-94603516D01*
X168449000Y-94396484D01*
X168489389Y-94193436D01*
X168568615Y-94002167D01*
X168683635Y-93830027D01*
X168830027Y-93683635D01*
X169002165Y-93568616D01*
X169002167Y-93568615D01*
X169193436Y-93489389D01*
X169396484Y-93449000D01*
X169603516Y-93449000D01*
X169806564Y-93489389D01*
G37*
G36*
X171551000Y-90526000D02*
G01*
X168449000Y-90526000D01*
X168449000Y-89824000D01*
X171551000Y-89824000D01*
X171551000Y-90526000D01*
G37*
G36*
X171551000Y-89256000D02*
G01*
X168449000Y-89256000D01*
X168449000Y-88554000D01*
X171551000Y-88554000D01*
X171551000Y-89256000D01*
G37*
G36*
X156001000Y-88806000D02*
G01*
X153359000Y-88806000D01*
X153359000Y-85194000D01*
X156001000Y-85194000D01*
X156001000Y-88806000D01*
G37*
G36*
X126641000Y-88806000D02*
G01*
X123999000Y-88806000D01*
X123999000Y-85194000D01*
X126641000Y-85194000D01*
X126641000Y-88806000D01*
G37*
G36*
X171551000Y-87986000D02*
G01*
X168449000Y-87986000D01*
X168449000Y-87284000D01*
X171551000Y-87284000D01*
X171551000Y-87986000D01*
G37*
G36*
X163342091Y-86478085D02*
G01*
X163376069Y-86488393D01*
X163407390Y-86505134D01*
X163434839Y-86527661D01*
X163457366Y-86555110D01*
X163474107Y-86586431D01*
X163484415Y-86620409D01*
X163488500Y-86661890D01*
X163488500Y-87338110D01*
X163484415Y-87379591D01*
X163474107Y-87413569D01*
X163457366Y-87444890D01*
X163434839Y-87472339D01*
X163407390Y-87494866D01*
X163376069Y-87511607D01*
X163342091Y-87521915D01*
X163300610Y-87526000D01*
X162699390Y-87526000D01*
X162657909Y-87521915D01*
X162623931Y-87511607D01*
X162592610Y-87494866D01*
X162565161Y-87472339D01*
X162542634Y-87444890D01*
X162525893Y-87413569D01*
X162515585Y-87379591D01*
X162511500Y-87338110D01*
X162511500Y-86661890D01*
X162515585Y-86620409D01*
X162525893Y-86586431D01*
X162542634Y-86555110D01*
X162565161Y-86527661D01*
X162592610Y-86505134D01*
X162623931Y-86488393D01*
X162657909Y-86478085D01*
X162699390Y-86474000D01*
X163300610Y-86474000D01*
X163342091Y-86478085D01*
G37*
G36*
X161767091Y-86478085D02*
G01*
X161801069Y-86488393D01*
X161832390Y-86505134D01*
X161859839Y-86527661D01*
X161882366Y-86555110D01*
X161899107Y-86586431D01*
X161909415Y-86620409D01*
X161913500Y-86661890D01*
X161913500Y-87338110D01*
X161909415Y-87379591D01*
X161899107Y-87413569D01*
X161882366Y-87444890D01*
X161859839Y-87472339D01*
X161832390Y-87494866D01*
X161801069Y-87511607D01*
X161767091Y-87521915D01*
X161725610Y-87526000D01*
X161124390Y-87526000D01*
X161082909Y-87521915D01*
X161048931Y-87511607D01*
X161017610Y-87494866D01*
X160990161Y-87472339D01*
X160967634Y-87444890D01*
X160950893Y-87413569D01*
X160940585Y-87379591D01*
X160936500Y-87338110D01*
X160936500Y-86661890D01*
X160940585Y-86620409D01*
X160950893Y-86586431D01*
X160967634Y-86555110D01*
X160990161Y-86527661D01*
X161017610Y-86505134D01*
X161048931Y-86488393D01*
X161082909Y-86478085D01*
X161124390Y-86474000D01*
X161725610Y-86474000D01*
X161767091Y-86478085D01*
G37*
G36*
X171551000Y-86716000D02*
G01*
X168449000Y-86716000D01*
X168449000Y-86014000D01*
X171551000Y-86014000D01*
X171551000Y-86716000D01*
G37*
G36*
X171551000Y-85446000D02*
G01*
X168449000Y-85446000D01*
X168449000Y-84744000D01*
X171551000Y-84744000D01*
X171551000Y-85446000D01*
G37*
G36*
X171551000Y-84176000D02*
G01*
X168449000Y-84176000D01*
X168449000Y-83474000D01*
X171551000Y-83474000D01*
X171551000Y-84176000D01*
G37*
G36*
X170256938Y-80631716D02*
G01*
X170277557Y-80637971D01*
X170296553Y-80648124D01*
X170313208Y-80661792D01*
X170326876Y-80678447D01*
X170337029Y-80697443D01*
X170343284Y-80718062D01*
X170346000Y-80745640D01*
X170346000Y-81254360D01*
X170343284Y-81281938D01*
X170337029Y-81302557D01*
X170326876Y-81321553D01*
X170313208Y-81338208D01*
X170296553Y-81351876D01*
X170277557Y-81362029D01*
X170256938Y-81368284D01*
X170229360Y-81371000D01*
X169770640Y-81371000D01*
X169743062Y-81368284D01*
X169722443Y-81362029D01*
X169703447Y-81351876D01*
X169686792Y-81338208D01*
X169673124Y-81321553D01*
X169662971Y-81302557D01*
X169656716Y-81281938D01*
X169654000Y-81254360D01*
X169654000Y-80745640D01*
X169656716Y-80718062D01*
X169662971Y-80697443D01*
X169673124Y-80678447D01*
X169686792Y-80661792D01*
X169703447Y-80648124D01*
X169722443Y-80637971D01*
X169743062Y-80631716D01*
X169770640Y-80629000D01*
X170229360Y-80629000D01*
X170256938Y-80631716D01*
G37*
G36*
X166756938Y-80631716D02*
G01*
X166777557Y-80637971D01*
X166796553Y-80648124D01*
X166813208Y-80661792D01*
X166826876Y-80678447D01*
X166837029Y-80697443D01*
X166843284Y-80718062D01*
X166846000Y-80745640D01*
X166846000Y-81254360D01*
X166843284Y-81281938D01*
X166837029Y-81302557D01*
X166826876Y-81321553D01*
X166813208Y-81338208D01*
X166796553Y-81351876D01*
X166777557Y-81362029D01*
X166756938Y-81368284D01*
X166729360Y-81371000D01*
X166270640Y-81371000D01*
X166243062Y-81368284D01*
X166222443Y-81362029D01*
X166203447Y-81351876D01*
X166186792Y-81338208D01*
X166173124Y-81321553D01*
X166162971Y-81302557D01*
X166156716Y-81281938D01*
X166154000Y-81254360D01*
X166154000Y-80745640D01*
X166156716Y-80718062D01*
X166162971Y-80697443D01*
X166173124Y-80678447D01*
X166186792Y-80661792D01*
X166203447Y-80648124D01*
X166222443Y-80637971D01*
X166243062Y-80631716D01*
X166270640Y-80629000D01*
X166729360Y-80629000D01*
X166756938Y-80631716D01*
G37*
G36*
X169286938Y-80631716D02*
G01*
X169307557Y-80637971D01*
X169326553Y-80648124D01*
X169343208Y-80661792D01*
X169356876Y-80678447D01*
X169367029Y-80697443D01*
X169373284Y-80718062D01*
X169376000Y-80745640D01*
X169376000Y-81254360D01*
X169373284Y-81281938D01*
X169367029Y-81302557D01*
X169356876Y-81321553D01*
X169343208Y-81338208D01*
X169326553Y-81351876D01*
X169307557Y-81362029D01*
X169286938Y-81368284D01*
X169259360Y-81371000D01*
X168800640Y-81371000D01*
X168773062Y-81368284D01*
X168752443Y-81362029D01*
X168733447Y-81351876D01*
X168716792Y-81338208D01*
X168703124Y-81321553D01*
X168692971Y-81302557D01*
X168686716Y-81281938D01*
X168684000Y-81254360D01*
X168684000Y-80745640D01*
X168686716Y-80718062D01*
X168692971Y-80697443D01*
X168703124Y-80678447D01*
X168716792Y-80661792D01*
X168733447Y-80648124D01*
X168752443Y-80637971D01*
X168773062Y-80631716D01*
X168800640Y-80629000D01*
X169259360Y-80629000D01*
X169286938Y-80631716D01*
G37*
G36*
X167726938Y-80631716D02*
G01*
X167747557Y-80637971D01*
X167766553Y-80648124D01*
X167783208Y-80661792D01*
X167796876Y-80678447D01*
X167807029Y-80697443D01*
X167813284Y-80718062D01*
X167816000Y-80745640D01*
X167816000Y-81254360D01*
X167813284Y-81281938D01*
X167807029Y-81302557D01*
X167796876Y-81321553D01*
X167783208Y-81338208D01*
X167766553Y-81351876D01*
X167747557Y-81362029D01*
X167726938Y-81368284D01*
X167699360Y-81371000D01*
X167240640Y-81371000D01*
X167213062Y-81368284D01*
X167192443Y-81362029D01*
X167173447Y-81351876D01*
X167156792Y-81338208D01*
X167143124Y-81321553D01*
X167132971Y-81302557D01*
X167126716Y-81281938D01*
X167124000Y-81254360D01*
X167124000Y-80745640D01*
X167126716Y-80718062D01*
X167132971Y-80697443D01*
X167143124Y-80678447D01*
X167156792Y-80661792D01*
X167173447Y-80648124D01*
X167192443Y-80637971D01*
X167213062Y-80631716D01*
X167240640Y-80629000D01*
X167699360Y-80629000D01*
X167726938Y-80631716D01*
G37*
G36*
X155851000Y-80461000D02*
G01*
X153349000Y-80461000D01*
X153349000Y-79619000D01*
X155851000Y-79619000D01*
X155851000Y-80461000D01*
G37*
G36*
X159751000Y-80461000D02*
G01*
X157249000Y-80461000D01*
X157249000Y-79619000D01*
X159751000Y-79619000D01*
X159751000Y-80461000D01*
G37*
G36*
X155851000Y-79191000D02*
G01*
X153349000Y-79191000D01*
X153349000Y-78349000D01*
X155851000Y-78349000D01*
X155851000Y-79191000D01*
G37*
G36*
X159751000Y-79191000D02*
G01*
X157249000Y-79191000D01*
X157249000Y-78349000D01*
X159751000Y-78349000D01*
X159751000Y-79191000D01*
G37*
G36*
X155851000Y-77921000D02*
G01*
X153349000Y-77921000D01*
X153349000Y-77079000D01*
X155851000Y-77079000D01*
X155851000Y-77921000D01*
G37*
G36*
X159751000Y-77921000D02*
G01*
X157249000Y-77921000D01*
X157249000Y-77079000D01*
X159751000Y-77079000D01*
X159751000Y-77921000D01*
G37*
G36*
X169681000Y-77826000D02*
G01*
X168519000Y-77826000D01*
X168519000Y-77074000D01*
X169681000Y-77074000D01*
X169681000Y-77826000D01*
G37*
G36*
X167481000Y-77826000D02*
G01*
X166319000Y-77826000D01*
X166319000Y-75174000D01*
X167481000Y-75174000D01*
X167481000Y-77826000D01*
G37*
G36*
X159751000Y-76651000D02*
G01*
X157249000Y-76651000D01*
X157249000Y-75809000D01*
X159751000Y-75809000D01*
X159751000Y-76651000D01*
G37*
G36*
X155851000Y-76651000D02*
G01*
X153349000Y-76651000D01*
X153349000Y-75809000D01*
X155851000Y-75809000D01*
X155851000Y-76651000D01*
G37*
G36*
X169681000Y-75926000D02*
G01*
X168519000Y-75926000D01*
X168519000Y-75174000D01*
X169681000Y-75174000D01*
X169681000Y-75926000D01*
G37*
G36*
X159751000Y-75381000D02*
G01*
X157249000Y-75381000D01*
X157249000Y-74539000D01*
X159751000Y-74539000D01*
X159751000Y-75381000D01*
G37*
G36*
X155851000Y-75381000D02*
G01*
X153349000Y-75381000D01*
X153349000Y-74539000D01*
X155851000Y-74539000D01*
X155851000Y-75381000D01*
G37*
M02*
