G04 #@! TF.GenerationSoftware,KiCad,Pcbnew,(5.1.5-0-10_14)*
G04 #@! TF.CreationDate,2021-06-03T13:40:16-04:00*
G04 #@! TF.ProjectId,ESLO_RB2_PogoInterface,45534c4f-5f52-4423-925f-506f676f496e,rev?*
G04 #@! TF.SameCoordinates,Original*
G04 #@! TF.FileFunction,Legend,Top*
G04 #@! TF.FilePolarity,Positive*
%FSLAX46Y46*%
G04 Gerber Fmt 4.6, Leading zero omitted, Abs format (unit mm)*
G04 Created by KiCad (PCBNEW (5.1.5-0-10_14)) date 2021-06-03 13:40:16*
%MOMM*%
%LPD*%
G04 APERTURE LIST*
%ADD10C,0.120000*%
%ADD11C,0.150000*%
G04 APERTURE END LIST*
D10*
X137700877Y-111000000D02*
G75*
G03X137700877Y-111000000I-5700877J0D01*
G01*
X137590170Y-88000000D02*
G75*
G03X137590170Y-88000000I-5590170J0D01*
G01*
X129750000Y-94255000D02*
X129750000Y-103945000D01*
X126250000Y-94255000D02*
X129750000Y-94255000D01*
X126250000Y-104745000D02*
X126250000Y-94255000D01*
X128950000Y-104745000D02*
X126250000Y-104745000D01*
X129750000Y-103945000D02*
X128950000Y-104745000D01*
X135500000Y-103310000D02*
X137500000Y-103310000D01*
X137500000Y-105977000D02*
X135500000Y-105977000D01*
X137516000Y-93023000D02*
X137516000Y-105977000D01*
X135500000Y-93023000D02*
X137500000Y-93023000D01*
X135500000Y-105977000D02*
X135500000Y-93023000D01*
D11*
X130416666Y-98952380D02*
X130416666Y-99666666D01*
X130369047Y-99809523D01*
X130273809Y-99904761D01*
X130130952Y-99952380D01*
X130035714Y-99952380D01*
X130845238Y-99047619D02*
X130892857Y-99000000D01*
X130988095Y-98952380D01*
X131226190Y-98952380D01*
X131321428Y-99000000D01*
X131369047Y-99047619D01*
X131416666Y-99142857D01*
X131416666Y-99238095D01*
X131369047Y-99380952D01*
X130797619Y-99952380D01*
X131416666Y-99952380D01*
X134166666Y-98952380D02*
X134166666Y-99666666D01*
X134119047Y-99809523D01*
X134023809Y-99904761D01*
X133880952Y-99952380D01*
X133785714Y-99952380D01*
X135166666Y-99952380D02*
X134595238Y-99952380D01*
X134880952Y-99952380D02*
X134880952Y-98952380D01*
X134785714Y-99095238D01*
X134690476Y-99190476D01*
X134595238Y-99238095D01*
M02*
