G04 #@! TF.GenerationSoftware,KiCad,Pcbnew,(5.1.5-0-10_14)*
G04 #@! TF.CreationDate,2020-09-24T10:17:21-04:00*
G04 #@! TF.ProjectId,ESLO_RB,45534c4f-5f52-4422-9e6b-696361645f70,rev?*
G04 #@! TF.SameCoordinates,Original*
G04 #@! TF.FileFunction,Copper,L3,Inr*
G04 #@! TF.FilePolarity,Positive*
%FSLAX46Y46*%
G04 Gerber Fmt 4.6, Leading zero omitted, Abs format (unit mm)*
G04 Created by KiCad (PCBNEW (5.1.5-0-10_14)) date 2020-09-24 10:17:21*
%MOMM*%
%LPD*%
G04 APERTURE LIST*
%ADD10C,0.450000*%
%ADD11C,0.254000*%
%ADD12C,0.300000*%
%ADD13C,0.150000*%
%ADD14C,0.200000*%
G04 APERTURE END LIST*
D10*
X128450000Y-102000000D03*
X149000000Y-100825002D03*
X128800000Y-95000000D03*
X128800000Y-94000000D03*
X128800000Y-96800000D03*
X128800000Y-93000000D03*
X128800000Y-92000000D03*
X128800000Y-91000000D03*
X128800000Y-90200000D03*
X128800000Y-97750000D03*
X128632956Y-99869603D03*
D11*
X134100000Y-96750000D03*
X135799998Y-98050000D03*
X136775000Y-96450000D03*
X139175000Y-97250000D03*
X137575000Y-97249998D03*
X133420702Y-94847990D03*
X131530000Y-90130000D03*
D10*
X131990000Y-92049996D03*
D11*
X142825000Y-90050000D03*
X133675002Y-95800000D03*
X134160000Y-90030000D03*
X131870000Y-90490000D03*
X134810000Y-93070000D03*
X136310000Y-90050000D03*
X135725000Y-92600000D03*
X135720000Y-93150000D03*
X144707990Y-96445681D03*
X142050004Y-95810000D03*
X138225000Y-90975000D03*
X149610000Y-92360000D03*
X149920000Y-92360000D03*
X142782264Y-90899918D03*
X144673344Y-90003786D03*
X137875006Y-92247990D03*
X144585670Y-93307502D03*
X150150000Y-94600004D03*
X134750000Y-99500000D03*
X140800000Y-91525000D03*
X136225000Y-93100000D03*
X138375000Y-93125004D03*
X144975000Y-101550000D03*
X146300000Y-96700000D03*
X144841264Y-100265103D03*
X135200000Y-97840000D03*
X146300000Y-97100000D03*
X139580004Y-100820000D03*
X142728909Y-93041091D03*
X140775000Y-98050000D03*
X142647990Y-94072354D03*
X131900000Y-90950002D03*
X133313289Y-93413892D03*
X129400010Y-90500000D03*
X132900000Y-93820987D03*
X134750000Y-92474998D03*
X139175000Y-98850010D03*
X140997010Y-100970000D03*
X132571461Y-100569279D03*
X132325000Y-100500000D03*
X130949998Y-97400000D03*
X130950000Y-97750000D03*
X139975000Y-95650000D03*
X142877792Y-93674011D03*
X131550000Y-98050000D03*
X139075000Y-100175000D03*
X131458101Y-98460283D03*
X139217990Y-101025000D03*
X128300000Y-99450000D03*
X129100000Y-99449992D03*
X147900000Y-90101095D03*
X142980000Y-91309999D03*
X145167039Y-90361704D03*
X136775000Y-98850000D03*
X140276454Y-98049273D03*
X135725004Y-96475000D03*
X135075000Y-97199998D03*
X129850000Y-96100000D03*
X137249890Y-101227021D03*
X135750000Y-97275000D03*
X136200000Y-97050000D03*
X131400000Y-93464713D03*
X131960000Y-92790000D03*
X137575000Y-98850000D03*
X139175000Y-98050000D03*
X137575000Y-94050000D03*
X140025000Y-92975006D03*
X131826091Y-93623909D03*
X132222897Y-93614227D03*
X129090000Y-91500000D03*
X136765908Y-99304011D03*
X132269273Y-100952010D03*
X132855465Y-101422902D03*
X129100000Y-92480000D03*
X137081186Y-99609474D03*
X146920000Y-94790000D03*
X147677012Y-91922010D03*
X146157990Y-93886142D03*
X147671091Y-96621091D03*
X146375000Y-95950000D03*
X146157990Y-93449072D03*
X146750000Y-92525000D03*
X146512010Y-94880000D03*
X141575000Y-97250000D03*
X144275000Y-95075000D03*
X142450000Y-97250000D03*
X143751097Y-95751326D03*
X141575000Y-96450000D03*
X143375000Y-95050000D03*
X147012010Y-99960000D03*
X146320000Y-101920000D03*
X147800000Y-91037990D03*
X146232342Y-99006352D03*
X146239549Y-101502633D03*
X146380000Y-90799996D03*
X146260986Y-98537178D03*
X146340002Y-101040000D03*
X146470000Y-92150000D03*
X145277733Y-100144600D03*
X144890000Y-91870004D03*
X144275000Y-100125000D03*
X141575000Y-99725000D03*
X142425000Y-99700000D03*
X143750000Y-99947990D03*
X141575000Y-98850000D03*
X143450000Y-98900000D03*
X143550000Y-101625006D03*
X143020988Y-100751687D03*
X140775000Y-95650000D03*
X143710000Y-97559998D03*
D12*
X128824990Y-102374990D02*
X147450012Y-102374990D01*
X147450012Y-102374990D02*
X149000000Y-100825002D01*
X128450000Y-102000000D02*
X128824990Y-102374990D01*
D13*
X136800000Y-96450000D02*
X136775000Y-96450000D01*
X136775000Y-96450000D02*
X136775000Y-97200000D01*
X135799998Y-98050000D02*
X135825000Y-98050000D01*
X139175000Y-97250000D02*
X137575002Y-97250000D01*
X136774998Y-97249998D02*
X137575000Y-97249998D01*
X137575002Y-97250000D02*
X137575000Y-97249998D01*
X136774998Y-97254605D02*
X136774998Y-97249998D01*
X135979603Y-98050000D02*
X136774998Y-97254605D01*
X135799998Y-98050000D02*
X135979603Y-98050000D01*
X134160000Y-90030000D02*
X133700000Y-90490000D01*
X133700000Y-90490000D02*
X131870000Y-90490000D01*
X134810000Y-94665002D02*
X134810000Y-93070000D01*
X133675002Y-95800000D02*
X134810000Y-94665002D01*
X142825000Y-90050000D02*
X136310000Y-90050000D01*
X134180000Y-90050000D02*
X134160000Y-90030000D01*
X136310000Y-90050000D02*
X134180000Y-90050000D01*
D12*
X135725000Y-93145000D02*
X135720000Y-93150000D01*
X135725000Y-92600000D02*
X135725000Y-93145000D01*
D13*
X144707990Y-96445681D02*
X144707990Y-94837990D01*
X144707990Y-94837990D02*
X144543001Y-94673001D01*
X144543001Y-94673001D02*
X143187003Y-94673001D01*
X143187003Y-94673001D02*
X142050004Y-95810000D01*
X138225000Y-90975000D02*
X142775000Y-90975000D01*
X149610000Y-92360000D02*
X149920000Y-92360000D01*
X143746214Y-90003786D02*
X142782264Y-90967736D01*
X142782264Y-90967736D02*
X142782264Y-90899918D01*
X143746214Y-90003786D02*
X144673344Y-90003786D01*
X137875006Y-92247990D02*
X143526158Y-92247990D01*
X143526158Y-92247990D02*
X144585670Y-93307502D01*
X141652646Y-94072354D02*
X142647990Y-94072354D01*
X140350000Y-97060000D02*
X140350000Y-95375000D01*
X140350000Y-95375000D02*
X141652646Y-94072354D01*
X140775000Y-97485000D02*
X140350000Y-97060000D01*
X140775000Y-98050000D02*
X140775000Y-97485000D01*
X132104607Y-90950002D02*
X131900000Y-90950002D01*
X133313289Y-92158684D02*
X132104607Y-90950002D01*
X133313289Y-92158684D02*
X133313289Y-93413892D01*
X132079605Y-90950002D02*
X131900000Y-90950002D01*
X133404011Y-93820987D02*
X134750000Y-92474998D01*
X132900000Y-93820987D02*
X133404011Y-93820987D01*
X132900000Y-92245395D02*
X132900000Y-93820987D01*
X132014605Y-91360000D02*
X132900000Y-92245395D01*
X130260010Y-91360000D02*
X132014605Y-91360000D01*
X129400010Y-90500000D02*
X130260010Y-91360000D01*
X139175000Y-98850010D02*
X140997010Y-100672020D01*
X140997010Y-100672020D02*
X140997010Y-100970000D01*
X132571461Y-100569279D02*
X132444462Y-100442280D01*
X132444462Y-100442280D02*
X132382720Y-100442280D01*
X132382720Y-100442280D02*
X132325000Y-100500000D01*
X130949998Y-97400000D02*
X130949998Y-97749998D01*
X130949998Y-97749998D02*
X130950000Y-97750000D01*
X141585989Y-93674011D02*
X142877792Y-93674011D01*
X139975000Y-95285000D02*
X141585989Y-93674011D01*
X139975000Y-95650000D02*
X139975000Y-95285000D01*
X138675000Y-100575000D02*
X139075000Y-100175000D01*
X134075000Y-100575000D02*
X138675000Y-100575000D01*
X131550000Y-98050000D02*
X134075000Y-100575000D01*
X131458101Y-98460283D02*
X133872829Y-100875011D01*
X133872829Y-100875011D02*
X139068001Y-100875011D01*
X139068001Y-100875011D02*
X139217990Y-101025000D01*
X128426999Y-99323001D02*
X128973009Y-99323001D01*
X128973009Y-99323001D02*
X129100000Y-99449992D01*
X128300000Y-99450000D02*
X128426999Y-99323001D01*
X145538743Y-89990000D02*
X145167039Y-90361704D01*
X147788905Y-89990000D02*
X145538743Y-89990000D01*
X147900000Y-90101095D02*
X147788905Y-89990000D01*
X143914204Y-90355796D02*
X145161131Y-90355796D01*
X145161131Y-90355796D02*
X145167039Y-90361704D01*
X142980000Y-91290000D02*
X143914204Y-90355796D01*
X142980000Y-91309999D02*
X142980000Y-91290000D01*
X139852736Y-98472991D02*
X140276454Y-98049273D01*
X136775000Y-98850000D02*
X136954605Y-98850000D01*
X136954605Y-98850000D02*
X137329605Y-99225000D01*
X138981039Y-98472991D02*
X139852736Y-98472991D01*
X137329605Y-99225000D02*
X138229032Y-99225000D01*
X138229032Y-99225000D02*
X138981039Y-98472991D01*
X135075000Y-97175000D02*
X135075000Y-97199998D01*
X135725004Y-96524996D02*
X135075000Y-97175000D01*
X135725004Y-96475000D02*
X135725004Y-96524996D01*
X129850000Y-97350000D02*
X133727021Y-101227021D01*
X133727021Y-101227021D02*
X137249890Y-101227021D01*
X129850000Y-96100000D02*
X129850000Y-97350000D01*
X135975000Y-97275000D02*
X136200000Y-97050000D01*
X135750000Y-97275000D02*
X135975000Y-97275000D01*
X131400000Y-93464713D02*
X131960000Y-92904713D01*
X131960000Y-92904713D02*
X131960000Y-92790000D01*
X138950000Y-98050000D02*
X139175000Y-98050000D01*
X138150000Y-98850000D02*
X138950000Y-98050000D01*
X137575000Y-98850000D02*
X138150000Y-98850000D01*
X138950006Y-94050000D02*
X140025000Y-92975006D01*
X137575000Y-94050000D02*
X138950006Y-94050000D01*
X132213215Y-93623909D02*
X132222897Y-93614227D01*
X131826091Y-93623909D02*
X132213215Y-93623909D01*
X135904011Y-99304011D02*
X136765908Y-99304011D01*
X129550012Y-92950012D02*
X135904011Y-99304011D01*
X129090000Y-91500000D02*
X129550012Y-91960012D01*
X129550012Y-91960012D02*
X129550012Y-92950012D01*
X132740165Y-101422902D02*
X132855465Y-101422902D01*
X132269273Y-100952010D02*
X132740165Y-101422902D01*
X129250001Y-92630001D02*
X129250001Y-93074280D01*
X129100000Y-92480000D02*
X129250001Y-92630001D01*
X135912194Y-99736473D02*
X136954187Y-99736473D01*
X136954187Y-99736473D02*
X137081186Y-99609474D01*
X129250001Y-93074280D02*
X135912194Y-99736473D01*
X147677012Y-94032988D02*
X147677012Y-91922010D01*
X146920000Y-94790000D02*
X147677012Y-94032988D01*
X146157990Y-93886142D02*
X146153858Y-93886142D01*
X146160000Y-95110000D02*
X147671091Y-96621091D01*
X146160000Y-93892284D02*
X146160000Y-95110000D01*
X146153858Y-93886142D02*
X146160000Y-93892284D01*
X145757987Y-95332987D02*
X145757987Y-93669470D01*
X145978385Y-93449072D02*
X146157990Y-93449072D01*
X145757987Y-93669470D02*
X145978385Y-93449072D01*
X146375000Y-95950000D02*
X145757987Y-95332987D01*
X146750000Y-92525000D02*
X146512010Y-92762990D01*
X146512010Y-92762990D02*
X146512010Y-94880000D01*
X143929605Y-95075000D02*
X144275000Y-95075000D01*
X141575000Y-97250000D02*
X141754605Y-97250000D01*
X141754605Y-97250000D02*
X143929605Y-95075000D01*
X142450000Y-97250000D02*
X142450000Y-97052423D01*
X142450000Y-97052423D02*
X143751097Y-95751326D01*
X143248001Y-95202963D02*
X143248001Y-95176999D01*
X143248001Y-95176999D02*
X143375000Y-95050000D01*
X142000964Y-96450000D02*
X143248001Y-95202963D01*
X141575000Y-96450000D02*
X142000964Y-96450000D01*
X146320000Y-101920000D02*
X147012010Y-101227990D01*
X147012010Y-101227990D02*
X147012010Y-99960000D01*
X148460000Y-91510395D02*
X147987595Y-91037990D01*
X147012010Y-98257990D02*
X148460000Y-96810000D01*
X147987595Y-91037990D02*
X147800000Y-91037990D01*
X148460000Y-96810000D02*
X148460000Y-91510395D01*
X147012010Y-99960000D02*
X147012010Y-98257990D01*
X145970000Y-101233084D02*
X146239549Y-101502633D01*
X146232342Y-99006352D02*
X146232342Y-100587658D01*
X146232342Y-100587658D02*
X145970000Y-100850000D01*
X145970000Y-100850000D02*
X145970000Y-101233084D01*
X145457976Y-91722020D02*
X146380000Y-90799996D01*
X146232342Y-99006352D02*
X145457976Y-98231986D01*
X145457976Y-98231986D02*
X145457976Y-91722020D01*
X146660000Y-98936192D02*
X146260986Y-98537178D01*
X146340002Y-101040000D02*
X146660000Y-100720002D01*
X146660000Y-100720002D02*
X146660000Y-98936192D01*
X147050000Y-91570000D02*
X146470000Y-92150000D01*
X148160000Y-96638164D02*
X148160000Y-91890000D01*
X147840000Y-91570000D02*
X147050000Y-91570000D01*
X148160000Y-91890000D02*
X147840000Y-91570000D01*
X146260986Y-98537178D02*
X148160000Y-96638164D01*
X145134445Y-100017444D02*
X145134445Y-92114449D01*
X145134445Y-92114449D02*
X144890000Y-91870004D01*
X145227001Y-100110000D02*
X145134445Y-100017444D01*
X144097999Y-100302001D02*
X142152001Y-100302001D01*
X142152001Y-100302001D02*
X141575000Y-99725000D01*
X144275000Y-100125000D02*
X144097999Y-100302001D01*
X142695000Y-99970000D02*
X143727990Y-99970000D01*
X143727990Y-99970000D02*
X143750000Y-99947990D01*
X142425000Y-99700000D02*
X142695000Y-99970000D01*
X141625000Y-98900000D02*
X141575000Y-98850000D01*
X143450000Y-98900000D02*
X141625000Y-98900000D01*
X143550000Y-101625006D02*
X143020988Y-101095994D01*
X143020988Y-101095994D02*
X143020988Y-100751687D01*
X140775000Y-95650000D02*
X140775000Y-97035000D01*
X143583001Y-97686997D02*
X143710000Y-97559998D01*
X141426997Y-97686997D02*
X143583001Y-97686997D01*
X140775000Y-97035000D02*
X141426997Y-97686997D01*
D14*
G36*
X133544670Y-90115000D02*
G01*
X132077352Y-90115000D01*
X132072260Y-90111598D01*
X131994551Y-90079409D01*
X131912056Y-90063000D01*
X131827944Y-90063000D01*
X131745449Y-90079409D01*
X131667740Y-90111598D01*
X131597803Y-90158327D01*
X131538327Y-90217803D01*
X131491598Y-90287740D01*
X131459409Y-90365449D01*
X131443000Y-90447944D01*
X131443000Y-90532056D01*
X131459409Y-90614551D01*
X131491598Y-90692260D01*
X131525133Y-90742451D01*
X131521598Y-90747742D01*
X131489409Y-90825451D01*
X131473000Y-90907946D01*
X131473000Y-90985000D01*
X130415340Y-90985000D01*
X129811796Y-90381457D01*
X129810601Y-90375449D01*
X129778412Y-90297740D01*
X129731683Y-90227803D01*
X129672207Y-90168327D01*
X129602270Y-90121598D01*
X129524561Y-90089409D01*
X129442066Y-90073000D01*
X129357954Y-90073000D01*
X129275459Y-90089409D01*
X129197750Y-90121598D01*
X129127813Y-90168327D01*
X129068337Y-90227803D01*
X129021608Y-90297740D01*
X128989419Y-90375449D01*
X128973010Y-90457944D01*
X128973010Y-90542056D01*
X128989419Y-90624551D01*
X129021608Y-90702260D01*
X129068337Y-90772197D01*
X129127813Y-90831673D01*
X129197750Y-90878402D01*
X129275459Y-90910591D01*
X129281467Y-90911786D01*
X129981819Y-91612139D01*
X129993562Y-91626448D01*
X130007869Y-91638189D01*
X130050663Y-91673310D01*
X130088557Y-91693564D01*
X130115810Y-91708131D01*
X130186497Y-91729574D01*
X130241591Y-91735000D01*
X130241594Y-91735000D01*
X130260010Y-91736814D01*
X130278426Y-91735000D01*
X131859276Y-91735000D01*
X132525000Y-92400725D01*
X132525001Y-93312461D01*
X132495094Y-93282554D01*
X132425157Y-93235825D01*
X132347448Y-93203636D01*
X132264953Y-93187227D01*
X132207816Y-93187227D01*
X132212140Y-93182903D01*
X132226448Y-93171161D01*
X132257733Y-93133040D01*
X132273310Y-93114060D01*
X132297070Y-93069606D01*
X132308131Y-93048913D01*
X132314436Y-93028129D01*
X132338402Y-92992260D01*
X132370591Y-92914551D01*
X132387000Y-92832056D01*
X132387000Y-92747944D01*
X132370591Y-92665449D01*
X132338402Y-92587740D01*
X132291673Y-92517803D01*
X132232197Y-92458327D01*
X132162260Y-92411598D01*
X132084551Y-92379409D01*
X132002056Y-92363000D01*
X131917944Y-92363000D01*
X131835449Y-92379409D01*
X131757740Y-92411598D01*
X131687803Y-92458327D01*
X131628327Y-92517803D01*
X131581598Y-92587740D01*
X131549409Y-92665449D01*
X131533000Y-92747944D01*
X131533000Y-92801383D01*
X131281457Y-93052927D01*
X131275449Y-93054122D01*
X131197740Y-93086311D01*
X131127803Y-93133040D01*
X131068327Y-93192516D01*
X131021598Y-93262453D01*
X130989409Y-93340162D01*
X130973000Y-93422657D01*
X130973000Y-93506769D01*
X130989409Y-93589264D01*
X131021598Y-93666973D01*
X131068327Y-93736910D01*
X131127803Y-93796386D01*
X131197740Y-93843115D01*
X131275449Y-93875304D01*
X131357944Y-93891713D01*
X131442056Y-93891713D01*
X131485684Y-93883035D01*
X131494418Y-93896106D01*
X131553894Y-93955582D01*
X131623831Y-94002311D01*
X131701540Y-94034500D01*
X131784035Y-94050909D01*
X131868147Y-94050909D01*
X131950642Y-94034500D01*
X132028351Y-94002311D01*
X132033443Y-93998909D01*
X132035798Y-93998909D01*
X132098346Y-94024818D01*
X132180841Y-94041227D01*
X132264953Y-94041227D01*
X132347448Y-94024818D01*
X132425157Y-93992629D01*
X132490759Y-93948797D01*
X132521598Y-94023247D01*
X132568327Y-94093184D01*
X132627803Y-94152660D01*
X132697740Y-94199389D01*
X132775449Y-94231578D01*
X132857944Y-94247987D01*
X132942056Y-94247987D01*
X133024551Y-94231578D01*
X133102260Y-94199389D01*
X133107352Y-94195987D01*
X133385595Y-94195987D01*
X133404011Y-94197801D01*
X133422427Y-94195987D01*
X133422430Y-94195987D01*
X133477524Y-94190561D01*
X133548211Y-94169118D01*
X133613358Y-94134296D01*
X133670459Y-94087435D01*
X133682206Y-94073121D01*
X134200000Y-93555327D01*
X134200000Y-94744672D01*
X133556459Y-95388214D01*
X133550451Y-95389409D01*
X133472742Y-95421598D01*
X133402805Y-95468327D01*
X133343329Y-95527803D01*
X133296600Y-95597740D01*
X133264411Y-95675449D01*
X133248002Y-95757944D01*
X133248002Y-95842056D01*
X133264411Y-95924551D01*
X133296600Y-96002260D01*
X133343329Y-96072197D01*
X133402805Y-96131673D01*
X133472742Y-96178402D01*
X133550451Y-96210591D01*
X133632946Y-96227000D01*
X133717058Y-96227000D01*
X133799553Y-96210591D01*
X133877262Y-96178402D01*
X133947199Y-96131673D01*
X134006675Y-96072197D01*
X134053404Y-96002260D01*
X134085593Y-95924551D01*
X134086788Y-95918543D01*
X134200000Y-95805331D01*
X134200000Y-97069670D01*
X129925012Y-92794683D01*
X129925012Y-91978427D01*
X129926826Y-91960011D01*
X129925012Y-91941593D01*
X129919586Y-91886499D01*
X129898143Y-91815812D01*
X129863321Y-91750665D01*
X129816460Y-91693564D01*
X129802152Y-91681822D01*
X129501786Y-91381457D01*
X129500591Y-91375449D01*
X129468402Y-91297740D01*
X129421673Y-91227803D01*
X129362197Y-91168327D01*
X129292260Y-91121598D01*
X129214551Y-91089409D01*
X129132056Y-91073000D01*
X129047944Y-91073000D01*
X128965449Y-91089409D01*
X128887740Y-91121598D01*
X128817803Y-91168327D01*
X128758327Y-91227803D01*
X128711598Y-91297740D01*
X128679409Y-91375449D01*
X128663000Y-91457944D01*
X128663000Y-91542056D01*
X128679409Y-91624551D01*
X128711598Y-91702260D01*
X128758327Y-91772197D01*
X128817803Y-91831673D01*
X128887740Y-91878402D01*
X128965449Y-91910591D01*
X128971457Y-91911786D01*
X129112670Y-92053000D01*
X129057944Y-92053000D01*
X128975449Y-92069409D01*
X128897740Y-92101598D01*
X128827803Y-92148327D01*
X128768327Y-92207803D01*
X128721598Y-92277740D01*
X128689409Y-92355449D01*
X128673000Y-92437944D01*
X128673000Y-92522056D01*
X128689409Y-92604551D01*
X128721598Y-92682260D01*
X128768327Y-92752197D01*
X128827803Y-92811673D01*
X128875001Y-92843209D01*
X128875001Y-93055864D01*
X128873187Y-93074280D01*
X128875001Y-93092696D01*
X128875001Y-93092699D01*
X128880428Y-93147793D01*
X128883937Y-93159359D01*
X128901871Y-93218480D01*
X128935571Y-93281527D01*
X128936693Y-93283627D01*
X128983554Y-93340728D01*
X128997863Y-93352471D01*
X134200000Y-98554609D01*
X134200000Y-100169669D01*
X131961786Y-97931457D01*
X131960591Y-97925449D01*
X131928402Y-97847740D01*
X131881673Y-97777803D01*
X131822197Y-97718327D01*
X131752260Y-97671598D01*
X131674551Y-97639409D01*
X131592056Y-97623000D01*
X131507944Y-97623000D01*
X131425449Y-97639409D01*
X131368093Y-97663167D01*
X131360591Y-97625449D01*
X131339693Y-97574998D01*
X131360589Y-97524551D01*
X131376998Y-97442056D01*
X131376998Y-97357944D01*
X131360589Y-97275449D01*
X131328400Y-97197740D01*
X131281671Y-97127803D01*
X131222195Y-97068327D01*
X131152258Y-97021598D01*
X131074549Y-96989409D01*
X130992054Y-96973000D01*
X130907942Y-96973000D01*
X130825447Y-96989409D01*
X130747738Y-97021598D01*
X130677801Y-97068327D01*
X130618325Y-97127803D01*
X130571596Y-97197740D01*
X130539407Y-97275449D01*
X130522998Y-97357944D01*
X130522998Y-97442056D01*
X130535565Y-97505236D01*
X130225000Y-97194671D01*
X130225000Y-96307352D01*
X130228402Y-96302260D01*
X130260591Y-96224551D01*
X130277000Y-96142056D01*
X130277000Y-96057944D01*
X130260591Y-95975449D01*
X130228402Y-95897740D01*
X130181673Y-95827803D01*
X130122197Y-95768327D01*
X130052260Y-95721598D01*
X129974551Y-95689409D01*
X129892056Y-95673000D01*
X129807944Y-95673000D01*
X129725449Y-95689409D01*
X129647740Y-95721598D01*
X129577803Y-95768327D01*
X129518327Y-95827803D01*
X129471598Y-95897740D01*
X129439409Y-95975449D01*
X129423000Y-96057944D01*
X129423000Y-96142056D01*
X129439409Y-96224551D01*
X129471598Y-96302260D01*
X129475000Y-96307352D01*
X129475001Y-97331574D01*
X129473186Y-97350000D01*
X129475470Y-97373184D01*
X129480427Y-97423513D01*
X129501870Y-97494200D01*
X129536692Y-97559347D01*
X129583553Y-97616448D01*
X129597862Y-97628191D01*
X132103874Y-100134204D01*
X132052803Y-100168327D01*
X131993327Y-100227803D01*
X131946598Y-100297740D01*
X131914409Y-100375449D01*
X131898000Y-100457944D01*
X131898000Y-100542056D01*
X131914409Y-100624551D01*
X131937415Y-100680090D01*
X131890871Y-100749750D01*
X131858682Y-100827459D01*
X131842273Y-100909954D01*
X131842273Y-100994066D01*
X131858682Y-101076561D01*
X131890871Y-101154270D01*
X131937600Y-101224207D01*
X131997076Y-101283683D01*
X132067013Y-101330412D01*
X132144722Y-101362601D01*
X132150730Y-101363796D01*
X132461974Y-101675041D01*
X132473717Y-101689350D01*
X132530818Y-101736211D01*
X132595965Y-101771033D01*
X132617824Y-101777664D01*
X132653205Y-101801304D01*
X132730914Y-101833493D01*
X132813409Y-101849902D01*
X132897521Y-101849902D01*
X132980016Y-101833493D01*
X133057725Y-101801304D01*
X133127662Y-101754575D01*
X133187138Y-101695099D01*
X133233867Y-101625162D01*
X133266056Y-101547453D01*
X133282465Y-101464958D01*
X133282465Y-101380846D01*
X133266056Y-101298351D01*
X133264666Y-101294996D01*
X133448830Y-101479160D01*
X133460573Y-101493469D01*
X133474880Y-101505210D01*
X133517674Y-101540331D01*
X133547948Y-101556512D01*
X133582821Y-101575152D01*
X133653508Y-101596595D01*
X133708602Y-101602021D01*
X133708605Y-101602021D01*
X133727021Y-101603835D01*
X133745437Y-101602021D01*
X134200000Y-101602021D01*
X134200000Y-101924990D01*
X129011386Y-101924990D01*
X128960179Y-101873783D01*
X128954824Y-101846863D01*
X128915249Y-101751319D01*
X128857794Y-101665332D01*
X128784668Y-101592206D01*
X128698681Y-101534751D01*
X128603137Y-101495176D01*
X128501708Y-101475000D01*
X128398292Y-101475000D01*
X128296863Y-101495176D01*
X128201319Y-101534751D01*
X128115332Y-101592206D01*
X128042206Y-101665332D01*
X127984751Y-101751319D01*
X127945176Y-101846863D01*
X127925000Y-101948292D01*
X127925000Y-102051708D01*
X127945176Y-102153137D01*
X127984751Y-102248681D01*
X128042206Y-102334668D01*
X128082538Y-102375000D01*
X124825000Y-102375000D01*
X124825000Y-99407944D01*
X127873000Y-99407944D01*
X127873000Y-99492056D01*
X127889409Y-99574551D01*
X127921598Y-99652260D01*
X127968327Y-99722197D01*
X128027803Y-99781673D01*
X128097740Y-99828402D01*
X128175449Y-99860591D01*
X128257944Y-99877000D01*
X128342056Y-99877000D01*
X128424551Y-99860591D01*
X128502260Y-99828402D01*
X128572197Y-99781673D01*
X128631673Y-99722197D01*
X128647840Y-99698001D01*
X128752166Y-99698001D01*
X128768327Y-99722189D01*
X128827803Y-99781665D01*
X128897740Y-99828394D01*
X128975449Y-99860583D01*
X129057944Y-99876992D01*
X129142056Y-99876992D01*
X129224551Y-99860583D01*
X129302260Y-99828394D01*
X129372197Y-99781665D01*
X129431673Y-99722189D01*
X129478402Y-99652252D01*
X129510591Y-99574543D01*
X129527000Y-99492048D01*
X129527000Y-99407936D01*
X129510591Y-99325441D01*
X129478402Y-99247732D01*
X129431673Y-99177795D01*
X129372197Y-99118319D01*
X129302260Y-99071590D01*
X129224551Y-99039401D01*
X129216639Y-99037827D01*
X129182356Y-99009692D01*
X129117209Y-98974870D01*
X129046522Y-98953427D01*
X128991428Y-98948001D01*
X128991425Y-98948001D01*
X128973009Y-98946187D01*
X128954593Y-98948001D01*
X128445415Y-98948001D01*
X128426999Y-98946187D01*
X128408583Y-98948001D01*
X128408580Y-98948001D01*
X128353486Y-98953427D01*
X128282799Y-98974870D01*
X128238345Y-98998631D01*
X128217653Y-99009691D01*
X128217651Y-99009692D01*
X128217652Y-99009692D01*
X128183358Y-99037836D01*
X128175449Y-99039409D01*
X128097740Y-99071598D01*
X128027803Y-99118327D01*
X127968327Y-99177803D01*
X127921598Y-99247740D01*
X127889409Y-99325449D01*
X127873000Y-99407944D01*
X124825000Y-99407944D01*
X124825000Y-97800000D01*
X128500000Y-97800000D01*
X128519509Y-97798079D01*
X128538268Y-97792388D01*
X128555557Y-97783147D01*
X128570711Y-97770711D01*
X128583147Y-97755557D01*
X128592388Y-97738268D01*
X128598079Y-97719509D01*
X128600000Y-97700000D01*
X128600000Y-90025000D01*
X133634670Y-90025000D01*
X133544670Y-90115000D01*
G37*
X133544670Y-90115000D02*
X132077352Y-90115000D01*
X132072260Y-90111598D01*
X131994551Y-90079409D01*
X131912056Y-90063000D01*
X131827944Y-90063000D01*
X131745449Y-90079409D01*
X131667740Y-90111598D01*
X131597803Y-90158327D01*
X131538327Y-90217803D01*
X131491598Y-90287740D01*
X131459409Y-90365449D01*
X131443000Y-90447944D01*
X131443000Y-90532056D01*
X131459409Y-90614551D01*
X131491598Y-90692260D01*
X131525133Y-90742451D01*
X131521598Y-90747742D01*
X131489409Y-90825451D01*
X131473000Y-90907946D01*
X131473000Y-90985000D01*
X130415340Y-90985000D01*
X129811796Y-90381457D01*
X129810601Y-90375449D01*
X129778412Y-90297740D01*
X129731683Y-90227803D01*
X129672207Y-90168327D01*
X129602270Y-90121598D01*
X129524561Y-90089409D01*
X129442066Y-90073000D01*
X129357954Y-90073000D01*
X129275459Y-90089409D01*
X129197750Y-90121598D01*
X129127813Y-90168327D01*
X129068337Y-90227803D01*
X129021608Y-90297740D01*
X128989419Y-90375449D01*
X128973010Y-90457944D01*
X128973010Y-90542056D01*
X128989419Y-90624551D01*
X129021608Y-90702260D01*
X129068337Y-90772197D01*
X129127813Y-90831673D01*
X129197750Y-90878402D01*
X129275459Y-90910591D01*
X129281467Y-90911786D01*
X129981819Y-91612139D01*
X129993562Y-91626448D01*
X130007869Y-91638189D01*
X130050663Y-91673310D01*
X130088557Y-91693564D01*
X130115810Y-91708131D01*
X130186497Y-91729574D01*
X130241591Y-91735000D01*
X130241594Y-91735000D01*
X130260010Y-91736814D01*
X130278426Y-91735000D01*
X131859276Y-91735000D01*
X132525000Y-92400725D01*
X132525001Y-93312461D01*
X132495094Y-93282554D01*
X132425157Y-93235825D01*
X132347448Y-93203636D01*
X132264953Y-93187227D01*
X132207816Y-93187227D01*
X132212140Y-93182903D01*
X132226448Y-93171161D01*
X132257733Y-93133040D01*
X132273310Y-93114060D01*
X132297070Y-93069606D01*
X132308131Y-93048913D01*
X132314436Y-93028129D01*
X132338402Y-92992260D01*
X132370591Y-92914551D01*
X132387000Y-92832056D01*
X132387000Y-92747944D01*
X132370591Y-92665449D01*
X132338402Y-92587740D01*
X132291673Y-92517803D01*
X132232197Y-92458327D01*
X132162260Y-92411598D01*
X132084551Y-92379409D01*
X132002056Y-92363000D01*
X131917944Y-92363000D01*
X131835449Y-92379409D01*
X131757740Y-92411598D01*
X131687803Y-92458327D01*
X131628327Y-92517803D01*
X131581598Y-92587740D01*
X131549409Y-92665449D01*
X131533000Y-92747944D01*
X131533000Y-92801383D01*
X131281457Y-93052927D01*
X131275449Y-93054122D01*
X131197740Y-93086311D01*
X131127803Y-93133040D01*
X131068327Y-93192516D01*
X131021598Y-93262453D01*
X130989409Y-93340162D01*
X130973000Y-93422657D01*
X130973000Y-93506769D01*
X130989409Y-93589264D01*
X131021598Y-93666973D01*
X131068327Y-93736910D01*
X131127803Y-93796386D01*
X131197740Y-93843115D01*
X131275449Y-93875304D01*
X131357944Y-93891713D01*
X131442056Y-93891713D01*
X131485684Y-93883035D01*
X131494418Y-93896106D01*
X131553894Y-93955582D01*
X131623831Y-94002311D01*
X131701540Y-94034500D01*
X131784035Y-94050909D01*
X131868147Y-94050909D01*
X131950642Y-94034500D01*
X132028351Y-94002311D01*
X132033443Y-93998909D01*
X132035798Y-93998909D01*
X132098346Y-94024818D01*
X132180841Y-94041227D01*
X132264953Y-94041227D01*
X132347448Y-94024818D01*
X132425157Y-93992629D01*
X132490759Y-93948797D01*
X132521598Y-94023247D01*
X132568327Y-94093184D01*
X132627803Y-94152660D01*
X132697740Y-94199389D01*
X132775449Y-94231578D01*
X132857944Y-94247987D01*
X132942056Y-94247987D01*
X133024551Y-94231578D01*
X133102260Y-94199389D01*
X133107352Y-94195987D01*
X133385595Y-94195987D01*
X133404011Y-94197801D01*
X133422427Y-94195987D01*
X133422430Y-94195987D01*
X133477524Y-94190561D01*
X133548211Y-94169118D01*
X133613358Y-94134296D01*
X133670459Y-94087435D01*
X133682206Y-94073121D01*
X134200000Y-93555327D01*
X134200000Y-94744672D01*
X133556459Y-95388214D01*
X133550451Y-95389409D01*
X133472742Y-95421598D01*
X133402805Y-95468327D01*
X133343329Y-95527803D01*
X133296600Y-95597740D01*
X133264411Y-95675449D01*
X133248002Y-95757944D01*
X133248002Y-95842056D01*
X133264411Y-95924551D01*
X133296600Y-96002260D01*
X133343329Y-96072197D01*
X133402805Y-96131673D01*
X133472742Y-96178402D01*
X133550451Y-96210591D01*
X133632946Y-96227000D01*
X133717058Y-96227000D01*
X133799553Y-96210591D01*
X133877262Y-96178402D01*
X133947199Y-96131673D01*
X134006675Y-96072197D01*
X134053404Y-96002260D01*
X134085593Y-95924551D01*
X134086788Y-95918543D01*
X134200000Y-95805331D01*
X134200000Y-97069670D01*
X129925012Y-92794683D01*
X129925012Y-91978427D01*
X129926826Y-91960011D01*
X129925012Y-91941593D01*
X129919586Y-91886499D01*
X129898143Y-91815812D01*
X129863321Y-91750665D01*
X129816460Y-91693564D01*
X129802152Y-91681822D01*
X129501786Y-91381457D01*
X129500591Y-91375449D01*
X129468402Y-91297740D01*
X129421673Y-91227803D01*
X129362197Y-91168327D01*
X129292260Y-91121598D01*
X129214551Y-91089409D01*
X129132056Y-91073000D01*
X129047944Y-91073000D01*
X128965449Y-91089409D01*
X128887740Y-91121598D01*
X128817803Y-91168327D01*
X128758327Y-91227803D01*
X128711598Y-91297740D01*
X128679409Y-91375449D01*
X128663000Y-91457944D01*
X128663000Y-91542056D01*
X128679409Y-91624551D01*
X128711598Y-91702260D01*
X128758327Y-91772197D01*
X128817803Y-91831673D01*
X128887740Y-91878402D01*
X128965449Y-91910591D01*
X128971457Y-91911786D01*
X129112670Y-92053000D01*
X129057944Y-92053000D01*
X128975449Y-92069409D01*
X128897740Y-92101598D01*
X128827803Y-92148327D01*
X128768327Y-92207803D01*
X128721598Y-92277740D01*
X128689409Y-92355449D01*
X128673000Y-92437944D01*
X128673000Y-92522056D01*
X128689409Y-92604551D01*
X128721598Y-92682260D01*
X128768327Y-92752197D01*
X128827803Y-92811673D01*
X128875001Y-92843209D01*
X128875001Y-93055864D01*
X128873187Y-93074280D01*
X128875001Y-93092696D01*
X128875001Y-93092699D01*
X128880428Y-93147793D01*
X128883937Y-93159359D01*
X128901871Y-93218480D01*
X128935571Y-93281527D01*
X128936693Y-93283627D01*
X128983554Y-93340728D01*
X128997863Y-93352471D01*
X134200000Y-98554609D01*
X134200000Y-100169669D01*
X131961786Y-97931457D01*
X131960591Y-97925449D01*
X131928402Y-97847740D01*
X131881673Y-97777803D01*
X131822197Y-97718327D01*
X131752260Y-97671598D01*
X131674551Y-97639409D01*
X131592056Y-97623000D01*
X131507944Y-97623000D01*
X131425449Y-97639409D01*
X131368093Y-97663167D01*
X131360591Y-97625449D01*
X131339693Y-97574998D01*
X131360589Y-97524551D01*
X131376998Y-97442056D01*
X131376998Y-97357944D01*
X131360589Y-97275449D01*
X131328400Y-97197740D01*
X131281671Y-97127803D01*
X131222195Y-97068327D01*
X131152258Y-97021598D01*
X131074549Y-96989409D01*
X130992054Y-96973000D01*
X130907942Y-96973000D01*
X130825447Y-96989409D01*
X130747738Y-97021598D01*
X130677801Y-97068327D01*
X130618325Y-97127803D01*
X130571596Y-97197740D01*
X130539407Y-97275449D01*
X130522998Y-97357944D01*
X130522998Y-97442056D01*
X130535565Y-97505236D01*
X130225000Y-97194671D01*
X130225000Y-96307352D01*
X130228402Y-96302260D01*
X130260591Y-96224551D01*
X130277000Y-96142056D01*
X130277000Y-96057944D01*
X130260591Y-95975449D01*
X130228402Y-95897740D01*
X130181673Y-95827803D01*
X130122197Y-95768327D01*
X130052260Y-95721598D01*
X129974551Y-95689409D01*
X129892056Y-95673000D01*
X129807944Y-95673000D01*
X129725449Y-95689409D01*
X129647740Y-95721598D01*
X129577803Y-95768327D01*
X129518327Y-95827803D01*
X129471598Y-95897740D01*
X129439409Y-95975449D01*
X129423000Y-96057944D01*
X129423000Y-96142056D01*
X129439409Y-96224551D01*
X129471598Y-96302260D01*
X129475000Y-96307352D01*
X129475001Y-97331574D01*
X129473186Y-97350000D01*
X129475470Y-97373184D01*
X129480427Y-97423513D01*
X129501870Y-97494200D01*
X129536692Y-97559347D01*
X129583553Y-97616448D01*
X129597862Y-97628191D01*
X132103874Y-100134204D01*
X132052803Y-100168327D01*
X131993327Y-100227803D01*
X131946598Y-100297740D01*
X131914409Y-100375449D01*
X131898000Y-100457944D01*
X131898000Y-100542056D01*
X131914409Y-100624551D01*
X131937415Y-100680090D01*
X131890871Y-100749750D01*
X131858682Y-100827459D01*
X131842273Y-100909954D01*
X131842273Y-100994066D01*
X131858682Y-101076561D01*
X131890871Y-101154270D01*
X131937600Y-101224207D01*
X131997076Y-101283683D01*
X132067013Y-101330412D01*
X132144722Y-101362601D01*
X132150730Y-101363796D01*
X132461974Y-101675041D01*
X132473717Y-101689350D01*
X132530818Y-101736211D01*
X132595965Y-101771033D01*
X132617824Y-101777664D01*
X132653205Y-101801304D01*
X132730914Y-101833493D01*
X132813409Y-101849902D01*
X132897521Y-101849902D01*
X132980016Y-101833493D01*
X133057725Y-101801304D01*
X133127662Y-101754575D01*
X133187138Y-101695099D01*
X133233867Y-101625162D01*
X133266056Y-101547453D01*
X133282465Y-101464958D01*
X133282465Y-101380846D01*
X133266056Y-101298351D01*
X133264666Y-101294996D01*
X133448830Y-101479160D01*
X133460573Y-101493469D01*
X133474880Y-101505210D01*
X133517674Y-101540331D01*
X133547948Y-101556512D01*
X133582821Y-101575152D01*
X133653508Y-101596595D01*
X133708602Y-101602021D01*
X133708605Y-101602021D01*
X133727021Y-101603835D01*
X133745437Y-101602021D01*
X134200000Y-101602021D01*
X134200000Y-101924990D01*
X129011386Y-101924990D01*
X128960179Y-101873783D01*
X128954824Y-101846863D01*
X128915249Y-101751319D01*
X128857794Y-101665332D01*
X128784668Y-101592206D01*
X128698681Y-101534751D01*
X128603137Y-101495176D01*
X128501708Y-101475000D01*
X128398292Y-101475000D01*
X128296863Y-101495176D01*
X128201319Y-101534751D01*
X128115332Y-101592206D01*
X128042206Y-101665332D01*
X127984751Y-101751319D01*
X127945176Y-101846863D01*
X127925000Y-101948292D01*
X127925000Y-102051708D01*
X127945176Y-102153137D01*
X127984751Y-102248681D01*
X128042206Y-102334668D01*
X128082538Y-102375000D01*
X124825000Y-102375000D01*
X124825000Y-99407944D01*
X127873000Y-99407944D01*
X127873000Y-99492056D01*
X127889409Y-99574551D01*
X127921598Y-99652260D01*
X127968327Y-99722197D01*
X128027803Y-99781673D01*
X128097740Y-99828402D01*
X128175449Y-99860591D01*
X128257944Y-99877000D01*
X128342056Y-99877000D01*
X128424551Y-99860591D01*
X128502260Y-99828402D01*
X128572197Y-99781673D01*
X128631673Y-99722197D01*
X128647840Y-99698001D01*
X128752166Y-99698001D01*
X128768327Y-99722189D01*
X128827803Y-99781665D01*
X128897740Y-99828394D01*
X128975449Y-99860583D01*
X129057944Y-99876992D01*
X129142056Y-99876992D01*
X129224551Y-99860583D01*
X129302260Y-99828394D01*
X129372197Y-99781665D01*
X129431673Y-99722189D01*
X129478402Y-99652252D01*
X129510591Y-99574543D01*
X129527000Y-99492048D01*
X129527000Y-99407936D01*
X129510591Y-99325441D01*
X129478402Y-99247732D01*
X129431673Y-99177795D01*
X129372197Y-99118319D01*
X129302260Y-99071590D01*
X129224551Y-99039401D01*
X129216639Y-99037827D01*
X129182356Y-99009692D01*
X129117209Y-98974870D01*
X129046522Y-98953427D01*
X128991428Y-98948001D01*
X128991425Y-98948001D01*
X128973009Y-98946187D01*
X128954593Y-98948001D01*
X128445415Y-98948001D01*
X128426999Y-98946187D01*
X128408583Y-98948001D01*
X128408580Y-98948001D01*
X128353486Y-98953427D01*
X128282799Y-98974870D01*
X128238345Y-98998631D01*
X128217653Y-99009691D01*
X128217651Y-99009692D01*
X128217652Y-99009692D01*
X128183358Y-99037836D01*
X128175449Y-99039409D01*
X128097740Y-99071598D01*
X128027803Y-99118327D01*
X127968327Y-99177803D01*
X127921598Y-99247740D01*
X127889409Y-99325449D01*
X127873000Y-99407944D01*
X124825000Y-99407944D01*
X124825000Y-97800000D01*
X128500000Y-97800000D01*
X128519509Y-97798079D01*
X128538268Y-97792388D01*
X128555557Y-97783147D01*
X128570711Y-97770711D01*
X128583147Y-97755557D01*
X128592388Y-97738268D01*
X128598079Y-97719509D01*
X128600000Y-97700000D01*
X128600000Y-90025000D01*
X133634670Y-90025000D01*
X133544670Y-90115000D01*
G36*
X151175001Y-102375000D02*
G01*
X148086397Y-102375000D01*
X149126217Y-101335181D01*
X149153137Y-101329826D01*
X149248681Y-101290251D01*
X149334668Y-101232796D01*
X149407794Y-101159670D01*
X149465249Y-101073683D01*
X149504824Y-100978139D01*
X149525000Y-100876710D01*
X149525000Y-100773294D01*
X149504824Y-100671865D01*
X149465249Y-100576321D01*
X149407794Y-100490334D01*
X149334668Y-100417208D01*
X149248681Y-100359753D01*
X149153137Y-100320178D01*
X149051708Y-100300002D01*
X148948292Y-100300002D01*
X148846863Y-100320178D01*
X148751319Y-100359753D01*
X148665332Y-100417208D01*
X148592206Y-100490334D01*
X148534751Y-100576321D01*
X148495176Y-100671865D01*
X148489821Y-100698785D01*
X147263617Y-101924990D01*
X146845339Y-101924990D01*
X147264150Y-101506180D01*
X147278458Y-101494438D01*
X147325319Y-101437337D01*
X147360141Y-101372190D01*
X147381584Y-101301503D01*
X147387010Y-101246409D01*
X147387010Y-101246406D01*
X147388824Y-101227990D01*
X147387010Y-101209574D01*
X147387010Y-100167352D01*
X147390412Y-100162260D01*
X147422601Y-100084551D01*
X147439010Y-100002056D01*
X147439010Y-99917944D01*
X147422601Y-99835449D01*
X147390412Y-99757740D01*
X147387010Y-99752648D01*
X147387010Y-98413319D01*
X148712140Y-97088190D01*
X148726448Y-97076448D01*
X148773309Y-97019347D01*
X148784859Y-96997738D01*
X148808130Y-96954202D01*
X148808131Y-96954199D01*
X148829574Y-96883513D01*
X148835000Y-96828419D01*
X148835000Y-96828417D01*
X148836814Y-96810001D01*
X148835000Y-96791585D01*
X148835000Y-92317944D01*
X149183000Y-92317944D01*
X149183000Y-92402056D01*
X149199409Y-92484551D01*
X149231598Y-92562260D01*
X149278327Y-92632197D01*
X149337803Y-92691673D01*
X149407740Y-92738402D01*
X149485449Y-92770591D01*
X149567944Y-92787000D01*
X149652056Y-92787000D01*
X149734551Y-92770591D01*
X149765000Y-92757978D01*
X149795449Y-92770591D01*
X149877944Y-92787000D01*
X149962056Y-92787000D01*
X150044551Y-92770591D01*
X150122260Y-92738402D01*
X150192197Y-92691673D01*
X150251673Y-92632197D01*
X150298402Y-92562260D01*
X150330591Y-92484551D01*
X150347000Y-92402056D01*
X150347000Y-92317944D01*
X150330591Y-92235449D01*
X150298402Y-92157740D01*
X150251673Y-92087803D01*
X150192197Y-92028327D01*
X150122260Y-91981598D01*
X150044551Y-91949409D01*
X149962056Y-91933000D01*
X149877944Y-91933000D01*
X149795449Y-91949409D01*
X149765000Y-91962022D01*
X149734551Y-91949409D01*
X149652056Y-91933000D01*
X149567944Y-91933000D01*
X149485449Y-91949409D01*
X149407740Y-91981598D01*
X149337803Y-92028327D01*
X149278327Y-92087803D01*
X149231598Y-92157740D01*
X149199409Y-92235449D01*
X149183000Y-92317944D01*
X148835000Y-92317944D01*
X148835000Y-91528811D01*
X148836814Y-91510395D01*
X148834963Y-91491602D01*
X148829574Y-91436882D01*
X148808131Y-91366195D01*
X148787939Y-91328418D01*
X148773310Y-91301048D01*
X148738189Y-91258254D01*
X148726448Y-91243947D01*
X148712139Y-91232204D01*
X148265790Y-90785856D01*
X148254043Y-90771542D01*
X148196942Y-90724681D01*
X148131795Y-90689859D01*
X148061108Y-90668416D01*
X148007583Y-90663145D01*
X148002260Y-90659588D01*
X147924551Y-90627399D01*
X147842056Y-90610990D01*
X147757944Y-90610990D01*
X147675449Y-90627399D01*
X147597740Y-90659588D01*
X147527803Y-90706317D01*
X147468327Y-90765793D01*
X147421598Y-90835730D01*
X147389409Y-90913439D01*
X147373000Y-90995934D01*
X147373000Y-91080046D01*
X147389409Y-91162541D01*
X147402854Y-91195000D01*
X147068416Y-91195000D01*
X147050000Y-91193186D01*
X147031584Y-91195000D01*
X147031581Y-91195000D01*
X146976487Y-91200426D01*
X146905800Y-91221869D01*
X146840653Y-91256691D01*
X146783552Y-91303552D01*
X146771809Y-91317861D01*
X146351457Y-91738214D01*
X146345449Y-91739409D01*
X146267740Y-91771598D01*
X146197803Y-91818327D01*
X146138327Y-91877803D01*
X146091598Y-91947740D01*
X146059409Y-92025449D01*
X146043000Y-92107944D01*
X146043000Y-92192056D01*
X146059409Y-92274551D01*
X146091598Y-92352260D01*
X146138327Y-92422197D01*
X146197803Y-92481673D01*
X146236530Y-92507548D01*
X146198701Y-92553644D01*
X146163879Y-92618791D01*
X146142436Y-92689478D01*
X146137395Y-92740666D01*
X146135196Y-92762990D01*
X146137010Y-92781406D01*
X146137010Y-93022072D01*
X146115934Y-93022072D01*
X146033439Y-93038481D01*
X145955730Y-93070670D01*
X145949026Y-93075149D01*
X145904872Y-93079498D01*
X145834185Y-93100941D01*
X145832976Y-93101587D01*
X145832976Y-91877349D01*
X146498544Y-91211782D01*
X146504551Y-91210587D01*
X146582260Y-91178398D01*
X146652197Y-91131669D01*
X146711673Y-91072193D01*
X146758402Y-91002256D01*
X146790591Y-90924547D01*
X146807000Y-90842052D01*
X146807000Y-90757940D01*
X146790591Y-90675445D01*
X146758402Y-90597736D01*
X146711673Y-90527799D01*
X146652197Y-90468323D01*
X146582260Y-90421594D01*
X146504551Y-90389405D01*
X146422056Y-90372996D01*
X146337944Y-90372996D01*
X146255449Y-90389405D01*
X146177740Y-90421594D01*
X146107803Y-90468323D01*
X146048327Y-90527799D01*
X146001598Y-90597736D01*
X145969409Y-90675445D01*
X145968214Y-90681452D01*
X145205838Y-91443829D01*
X145191529Y-91455572D01*
X145179787Y-91469880D01*
X145144667Y-91512674D01*
X145139175Y-91522949D01*
X145092260Y-91491602D01*
X145014551Y-91459413D01*
X144932056Y-91443004D01*
X144847944Y-91443004D01*
X144765449Y-91459413D01*
X144687740Y-91491602D01*
X144617803Y-91538331D01*
X144558327Y-91597807D01*
X144511598Y-91667744D01*
X144479409Y-91745453D01*
X144463000Y-91827948D01*
X144463000Y-91912060D01*
X144479409Y-91994555D01*
X144511598Y-92072264D01*
X144558327Y-92142201D01*
X144617803Y-92201677D01*
X144687740Y-92248406D01*
X144759446Y-92278108D01*
X144759446Y-92917301D01*
X144710221Y-92896911D01*
X144704215Y-92895716D01*
X143804353Y-91995856D01*
X143792606Y-91981542D01*
X143735505Y-91934681D01*
X143670358Y-91899859D01*
X143599671Y-91878416D01*
X143544577Y-91872990D01*
X143544574Y-91872990D01*
X143526158Y-91871176D01*
X143507742Y-91872990D01*
X138082358Y-91872990D01*
X138077266Y-91869588D01*
X137999557Y-91837399D01*
X137917062Y-91820990D01*
X137832950Y-91820990D01*
X137750455Y-91837399D01*
X137672746Y-91869588D01*
X137602809Y-91916317D01*
X137543333Y-91975793D01*
X137496604Y-92045730D01*
X137464415Y-92123439D01*
X137448006Y-92205934D01*
X137448006Y-92290046D01*
X137464415Y-92372541D01*
X137496604Y-92450250D01*
X137543333Y-92520187D01*
X137602809Y-92579663D01*
X137672746Y-92626392D01*
X137750455Y-92658581D01*
X137832950Y-92674990D01*
X137917062Y-92674990D01*
X137999557Y-92658581D01*
X138077266Y-92626392D01*
X138082358Y-92622990D01*
X139783249Y-92622990D01*
X139752803Y-92643333D01*
X139693327Y-92702809D01*
X139646598Y-92772746D01*
X139614409Y-92850455D01*
X139613214Y-92856462D01*
X138794677Y-93675000D01*
X137782352Y-93675000D01*
X137777260Y-93671598D01*
X137699551Y-93639409D01*
X137617056Y-93623000D01*
X137532944Y-93623000D01*
X137450449Y-93639409D01*
X137372740Y-93671598D01*
X137302803Y-93718327D01*
X137243327Y-93777803D01*
X137196598Y-93847740D01*
X137164409Y-93925449D01*
X137148000Y-94007944D01*
X137148000Y-94092056D01*
X137164409Y-94174551D01*
X137196598Y-94252260D01*
X137243327Y-94322197D01*
X137302803Y-94381673D01*
X137372740Y-94428402D01*
X137450449Y-94460591D01*
X137532944Y-94477000D01*
X137617056Y-94477000D01*
X137699551Y-94460591D01*
X137777260Y-94428402D01*
X137782352Y-94425000D01*
X138931590Y-94425000D01*
X138950006Y-94426814D01*
X138968422Y-94425000D01*
X138968425Y-94425000D01*
X139023519Y-94419574D01*
X139094206Y-94398131D01*
X139159353Y-94363309D01*
X139216454Y-94316448D01*
X139228201Y-94302134D01*
X140143544Y-93386792D01*
X140149551Y-93385597D01*
X140227260Y-93353408D01*
X140297197Y-93306679D01*
X140356673Y-93247203D01*
X140403402Y-93177266D01*
X140435591Y-93099557D01*
X140452000Y-93017062D01*
X140452000Y-92932950D01*
X140435591Y-92850455D01*
X140403402Y-92772746D01*
X140356673Y-92702809D01*
X140297197Y-92643333D01*
X140266751Y-92622990D01*
X143370829Y-92622990D01*
X144173884Y-93426047D01*
X144175079Y-93432053D01*
X144207268Y-93509762D01*
X144253997Y-93579699D01*
X144313473Y-93639175D01*
X144383410Y-93685904D01*
X144461119Y-93718093D01*
X144543614Y-93734502D01*
X144627726Y-93734502D01*
X144710221Y-93718093D01*
X144759446Y-93697703D01*
X144759446Y-94365517D01*
X144752348Y-94359692D01*
X144687201Y-94324870D01*
X144616514Y-94303427D01*
X144561420Y-94298001D01*
X144561417Y-94298001D01*
X144543001Y-94296187D01*
X144524585Y-94298001D01*
X143205418Y-94298001D01*
X143187002Y-94296187D01*
X143168586Y-94298001D01*
X143168584Y-94298001D01*
X143113490Y-94303427D01*
X143042803Y-94324870D01*
X143042801Y-94324871D01*
X142977655Y-94359692D01*
X142953630Y-94379409D01*
X142920555Y-94406553D01*
X142908812Y-94420862D01*
X141931461Y-95398214D01*
X141925453Y-95399409D01*
X141847744Y-95431598D01*
X141777807Y-95478327D01*
X141718331Y-95537803D01*
X141671602Y-95607740D01*
X141639413Y-95685449D01*
X141623004Y-95767944D01*
X141623004Y-95852056D01*
X141639413Y-95934551D01*
X141671602Y-96012260D01*
X141688238Y-96037159D01*
X141617056Y-96023000D01*
X141532944Y-96023000D01*
X141450449Y-96039409D01*
X141372740Y-96071598D01*
X141302803Y-96118327D01*
X141243327Y-96177803D01*
X141196598Y-96247740D01*
X141164409Y-96325449D01*
X141150000Y-96397889D01*
X141150000Y-95857352D01*
X141153402Y-95852260D01*
X141185591Y-95774551D01*
X141202000Y-95692056D01*
X141202000Y-95607944D01*
X141185591Y-95525449D01*
X141153402Y-95447740D01*
X141106673Y-95377803D01*
X141047197Y-95318327D01*
X140981139Y-95274190D01*
X141807976Y-94447354D01*
X142440638Y-94447354D01*
X142445730Y-94450756D01*
X142523439Y-94482945D01*
X142605934Y-94499354D01*
X142690046Y-94499354D01*
X142772541Y-94482945D01*
X142850250Y-94450756D01*
X142920187Y-94404027D01*
X142979663Y-94344551D01*
X143026392Y-94274614D01*
X143058581Y-94196905D01*
X143074990Y-94114410D01*
X143074990Y-94054510D01*
X143080052Y-94052413D01*
X143149989Y-94005684D01*
X143209465Y-93946208D01*
X143256194Y-93876271D01*
X143288383Y-93798562D01*
X143304792Y-93716067D01*
X143304792Y-93631955D01*
X143288383Y-93549460D01*
X143256194Y-93471751D01*
X143209465Y-93401814D01*
X143149989Y-93342338D01*
X143080052Y-93295609D01*
X143002343Y-93263420D01*
X142919848Y-93247011D01*
X142835736Y-93247011D01*
X142753241Y-93263420D01*
X142675532Y-93295609D01*
X142670440Y-93299011D01*
X141604404Y-93299011D01*
X141585988Y-93297197D01*
X141567572Y-93299011D01*
X141567570Y-93299011D01*
X141512476Y-93304437D01*
X141441789Y-93325880D01*
X141441787Y-93325881D01*
X141376641Y-93360702D01*
X141358538Y-93375559D01*
X141319541Y-93407563D01*
X141307798Y-93421872D01*
X139722862Y-95006809D01*
X139708553Y-95018552D01*
X139689461Y-95041816D01*
X139661691Y-95075654D01*
X139637094Y-95121673D01*
X139626870Y-95140800D01*
X139605426Y-95211487D01*
X139600962Y-95256814D01*
X139598186Y-95285000D01*
X139600000Y-95303416D01*
X139600000Y-95442648D01*
X139596598Y-95447740D01*
X139564409Y-95525449D01*
X139548000Y-95607944D01*
X139548000Y-95692056D01*
X139564409Y-95774551D01*
X139596598Y-95852260D01*
X139643327Y-95922197D01*
X139702803Y-95981673D01*
X139772740Y-96028402D01*
X139850449Y-96060591D01*
X139932944Y-96077000D01*
X139975001Y-96077000D01*
X139975000Y-97041584D01*
X139973186Y-97060000D01*
X139975000Y-97078416D01*
X139975000Y-97078418D01*
X139980426Y-97133512D01*
X140001869Y-97204199D01*
X140036691Y-97269346D01*
X140083552Y-97326448D01*
X140097866Y-97338195D01*
X140397694Y-97638023D01*
X140318510Y-97622273D01*
X140234398Y-97622273D01*
X140151903Y-97638682D01*
X140074194Y-97670871D01*
X140004257Y-97717600D01*
X139944781Y-97777076D01*
X139898052Y-97847013D01*
X139865863Y-97924722D01*
X139864668Y-97930729D01*
X139697407Y-98097991D01*
X139600819Y-98097991D01*
X139602000Y-98092056D01*
X139602000Y-98007944D01*
X139585591Y-97925449D01*
X139553402Y-97847740D01*
X139506673Y-97777803D01*
X139447197Y-97718327D01*
X139377260Y-97671598D01*
X139325119Y-97650000D01*
X139377260Y-97628402D01*
X139447197Y-97581673D01*
X139506673Y-97522197D01*
X139553402Y-97452260D01*
X139585591Y-97374551D01*
X139602000Y-97292056D01*
X139602000Y-97207944D01*
X139585591Y-97125449D01*
X139553402Y-97047740D01*
X139506673Y-96977803D01*
X139447197Y-96918327D01*
X139377260Y-96871598D01*
X139299551Y-96839409D01*
X139217056Y-96823000D01*
X139132944Y-96823000D01*
X139050449Y-96839409D01*
X138972740Y-96871598D01*
X138967648Y-96875000D01*
X137782355Y-96875000D01*
X137777260Y-96871596D01*
X137699551Y-96839407D01*
X137617056Y-96822998D01*
X137532944Y-96822998D01*
X137450449Y-96839407D01*
X137372740Y-96871596D01*
X137367648Y-96874998D01*
X137150000Y-96874998D01*
X137150000Y-96657352D01*
X137153402Y-96652260D01*
X137185591Y-96574551D01*
X137202000Y-96492056D01*
X137202000Y-96407944D01*
X137185591Y-96325449D01*
X137153402Y-96247740D01*
X137106673Y-96177803D01*
X137047197Y-96118327D01*
X136977260Y-96071598D01*
X136899551Y-96039409D01*
X136817056Y-96023000D01*
X136732944Y-96023000D01*
X136650449Y-96039409D01*
X136572740Y-96071598D01*
X136502803Y-96118327D01*
X136443327Y-96177803D01*
X136396598Y-96247740D01*
X136364409Y-96325449D01*
X136348000Y-96407944D01*
X136348000Y-96492056D01*
X136364409Y-96574551D01*
X136396598Y-96652260D01*
X136400000Y-96657352D01*
X136400000Y-96670662D01*
X136324551Y-96639409D01*
X136242056Y-96623000D01*
X136157944Y-96623000D01*
X136123003Y-96629950D01*
X136135595Y-96599551D01*
X136152004Y-96517056D01*
X136152004Y-96432944D01*
X136135595Y-96350449D01*
X136103406Y-96272740D01*
X136056677Y-96202803D01*
X135997201Y-96143327D01*
X135927264Y-96096598D01*
X135849555Y-96064409D01*
X135767060Y-96048000D01*
X135682948Y-96048000D01*
X135600453Y-96064409D01*
X135522744Y-96096598D01*
X135452807Y-96143327D01*
X135393331Y-96202803D01*
X135346602Y-96272740D01*
X135314413Y-96350449D01*
X135300804Y-96418866D01*
X134915990Y-96803681D01*
X134872740Y-96821596D01*
X134802803Y-96868325D01*
X134743327Y-96927801D01*
X134696598Y-96997738D01*
X134664409Y-97075447D01*
X134648000Y-97157942D01*
X134648000Y-97242054D01*
X134664409Y-97324549D01*
X134696598Y-97402258D01*
X134743327Y-97472195D01*
X134802803Y-97531671D01*
X134872740Y-97578400D01*
X134950449Y-97610589D01*
X135032944Y-97626998D01*
X135117056Y-97626998D01*
X135199551Y-97610589D01*
X135277260Y-97578400D01*
X135347197Y-97531671D01*
X135383618Y-97495250D01*
X135418327Y-97547197D01*
X135477803Y-97606673D01*
X135547740Y-97653402D01*
X135595415Y-97673150D01*
X135527801Y-97718327D01*
X135468325Y-97777803D01*
X135421596Y-97847740D01*
X135389407Y-97925449D01*
X135372998Y-98007944D01*
X135372998Y-98092056D01*
X135389407Y-98174551D01*
X135421596Y-98252260D01*
X135468325Y-98322197D01*
X135527801Y-98381673D01*
X135597738Y-98428402D01*
X135675447Y-98460591D01*
X135757942Y-98477000D01*
X135842054Y-98477000D01*
X135924549Y-98460591D01*
X136002258Y-98428402D01*
X136008962Y-98423923D01*
X136053116Y-98419574D01*
X136123803Y-98398131D01*
X136188950Y-98363309D01*
X136246051Y-98316448D01*
X136257798Y-98302134D01*
X136934935Y-97624998D01*
X137367648Y-97624998D01*
X137372740Y-97628400D01*
X137450449Y-97660589D01*
X137532944Y-97676998D01*
X137617056Y-97676998D01*
X137699551Y-97660589D01*
X137777260Y-97628400D01*
X137782349Y-97625000D01*
X138967648Y-97625000D01*
X138972740Y-97628402D01*
X139024881Y-97650000D01*
X138972740Y-97671598D01*
X138967747Y-97674934D01*
X138950000Y-97673186D01*
X138931584Y-97675000D01*
X138931581Y-97675000D01*
X138876487Y-97680426D01*
X138805800Y-97701869D01*
X138740653Y-97736691D01*
X138683552Y-97783552D01*
X138671810Y-97797860D01*
X137994671Y-98475000D01*
X137782352Y-98475000D01*
X137777260Y-98471598D01*
X137699551Y-98439409D01*
X137617056Y-98423000D01*
X137532944Y-98423000D01*
X137450449Y-98439409D01*
X137372740Y-98471598D01*
X137302803Y-98518327D01*
X137243327Y-98577803D01*
X137231213Y-98595933D01*
X137221053Y-98583552D01*
X137163952Y-98536691D01*
X137098805Y-98501869D01*
X137028118Y-98480426D01*
X136983964Y-98476077D01*
X136977260Y-98471598D01*
X136899551Y-98439409D01*
X136817056Y-98423000D01*
X136732944Y-98423000D01*
X136650449Y-98439409D01*
X136572740Y-98471598D01*
X136502803Y-98518327D01*
X136443327Y-98577803D01*
X136396598Y-98647740D01*
X136364409Y-98725449D01*
X136348000Y-98807944D01*
X136348000Y-98892056D01*
X136355351Y-98929011D01*
X136059341Y-98929011D01*
X134600000Y-97469670D01*
X134600000Y-95405332D01*
X135062140Y-94943192D01*
X135076448Y-94931450D01*
X135097499Y-94905799D01*
X135123310Y-94874349D01*
X135149073Y-94826149D01*
X135158131Y-94809202D01*
X135179574Y-94738515D01*
X135185000Y-94683421D01*
X135185000Y-94683418D01*
X135186814Y-94665002D01*
X135185000Y-94646586D01*
X135185000Y-93277352D01*
X135188402Y-93272260D01*
X135220591Y-93194551D01*
X135229452Y-93150000D01*
X135267824Y-93150000D01*
X135276512Y-93238215D01*
X135302243Y-93323040D01*
X135344029Y-93401216D01*
X135400263Y-93469737D01*
X135468784Y-93525971D01*
X135546960Y-93567757D01*
X135631785Y-93593488D01*
X135720000Y-93602176D01*
X135808215Y-93593488D01*
X135893040Y-93567757D01*
X135971216Y-93525971D01*
X136022567Y-93483828D01*
X136027566Y-93478829D01*
X136044737Y-93464737D01*
X136100971Y-93396216D01*
X136142757Y-93318041D01*
X136168489Y-93233215D01*
X136175000Y-93167105D01*
X136175000Y-93167095D01*
X136177176Y-93145001D01*
X136175000Y-93122906D01*
X136175000Y-92577895D01*
X136168489Y-92511785D01*
X136142757Y-92426959D01*
X136100971Y-92348784D01*
X136044737Y-92280263D01*
X135976215Y-92224029D01*
X135898040Y-92182243D01*
X135813214Y-92156511D01*
X135725000Y-92147823D01*
X135636785Y-92156511D01*
X135551959Y-92182243D01*
X135473784Y-92224029D01*
X135405263Y-92280263D01*
X135349029Y-92348785D01*
X135307243Y-92426960D01*
X135281511Y-92511786D01*
X135275000Y-92577896D01*
X135275001Y-93077129D01*
X135267824Y-93150000D01*
X135229452Y-93150000D01*
X135237000Y-93112056D01*
X135237000Y-93027944D01*
X135220591Y-92945449D01*
X135188402Y-92867740D01*
X135141673Y-92797803D01*
X135085435Y-92741565D01*
X135128402Y-92677258D01*
X135160591Y-92599549D01*
X135177000Y-92517054D01*
X135177000Y-92432942D01*
X135160591Y-92350447D01*
X135128402Y-92272738D01*
X135081673Y-92202801D01*
X135022197Y-92143325D01*
X134952260Y-92096596D01*
X134874551Y-92064407D01*
X134792056Y-92047998D01*
X134707944Y-92047998D01*
X134625449Y-92064407D01*
X134600000Y-92074949D01*
X134600000Y-90425000D01*
X136102648Y-90425000D01*
X136107740Y-90428402D01*
X136185449Y-90460591D01*
X136267944Y-90477000D01*
X136352056Y-90477000D01*
X136434551Y-90460591D01*
X136512260Y-90428402D01*
X136517352Y-90425000D01*
X142617648Y-90425000D01*
X142622740Y-90428402D01*
X142700449Y-90460591D01*
X142749352Y-90470318D01*
X142746753Y-90472918D01*
X142740208Y-90472918D01*
X142657713Y-90489327D01*
X142580004Y-90521516D01*
X142510067Y-90568245D01*
X142478312Y-90600000D01*
X138432352Y-90600000D01*
X138427260Y-90596598D01*
X138349551Y-90564409D01*
X138267056Y-90548000D01*
X138182944Y-90548000D01*
X138100449Y-90564409D01*
X138022740Y-90596598D01*
X137952803Y-90643327D01*
X137893327Y-90702803D01*
X137846598Y-90772740D01*
X137814409Y-90850449D01*
X137798000Y-90932944D01*
X137798000Y-91017056D01*
X137814409Y-91099551D01*
X137846598Y-91177260D01*
X137893327Y-91247197D01*
X137952803Y-91306673D01*
X138022740Y-91353402D01*
X138100449Y-91385591D01*
X138182944Y-91402000D01*
X138267056Y-91402000D01*
X138349551Y-91385591D01*
X138427260Y-91353402D01*
X138432352Y-91350000D01*
X142553000Y-91350000D01*
X142553000Y-91352055D01*
X142569409Y-91434550D01*
X142601598Y-91512259D01*
X142648327Y-91582196D01*
X142707803Y-91641672D01*
X142777740Y-91688401D01*
X142855449Y-91720590D01*
X142937944Y-91736999D01*
X143022056Y-91736999D01*
X143104551Y-91720590D01*
X143182260Y-91688401D01*
X143252197Y-91641672D01*
X143311673Y-91582196D01*
X143358402Y-91512259D01*
X143390591Y-91434550D01*
X143396752Y-91403577D01*
X144069534Y-90730796D01*
X144950845Y-90730796D01*
X144964779Y-90740106D01*
X145042488Y-90772295D01*
X145124983Y-90788704D01*
X145209095Y-90788704D01*
X145291590Y-90772295D01*
X145369299Y-90740106D01*
X145439236Y-90693377D01*
X145498712Y-90633901D01*
X145545441Y-90563964D01*
X145577630Y-90486255D01*
X145578825Y-90480247D01*
X145694073Y-90365000D01*
X147562787Y-90365000D01*
X147568327Y-90373292D01*
X147627803Y-90432768D01*
X147697740Y-90479497D01*
X147775449Y-90511686D01*
X147857944Y-90528095D01*
X147942056Y-90528095D01*
X148024551Y-90511686D01*
X148102260Y-90479497D01*
X148172197Y-90432768D01*
X148231673Y-90373292D01*
X148278402Y-90303355D01*
X148310591Y-90225646D01*
X148327000Y-90143151D01*
X148327000Y-90059039D01*
X148320229Y-90025000D01*
X151175000Y-90025000D01*
X151175001Y-102375000D01*
G37*
X151175001Y-102375000D02*
X148086397Y-102375000D01*
X149126217Y-101335181D01*
X149153137Y-101329826D01*
X149248681Y-101290251D01*
X149334668Y-101232796D01*
X149407794Y-101159670D01*
X149465249Y-101073683D01*
X149504824Y-100978139D01*
X149525000Y-100876710D01*
X149525000Y-100773294D01*
X149504824Y-100671865D01*
X149465249Y-100576321D01*
X149407794Y-100490334D01*
X149334668Y-100417208D01*
X149248681Y-100359753D01*
X149153137Y-100320178D01*
X149051708Y-100300002D01*
X148948292Y-100300002D01*
X148846863Y-100320178D01*
X148751319Y-100359753D01*
X148665332Y-100417208D01*
X148592206Y-100490334D01*
X148534751Y-100576321D01*
X148495176Y-100671865D01*
X148489821Y-100698785D01*
X147263617Y-101924990D01*
X146845339Y-101924990D01*
X147264150Y-101506180D01*
X147278458Y-101494438D01*
X147325319Y-101437337D01*
X147360141Y-101372190D01*
X147381584Y-101301503D01*
X147387010Y-101246409D01*
X147387010Y-101246406D01*
X147388824Y-101227990D01*
X147387010Y-101209574D01*
X147387010Y-100167352D01*
X147390412Y-100162260D01*
X147422601Y-100084551D01*
X147439010Y-100002056D01*
X147439010Y-99917944D01*
X147422601Y-99835449D01*
X147390412Y-99757740D01*
X147387010Y-99752648D01*
X147387010Y-98413319D01*
X148712140Y-97088190D01*
X148726448Y-97076448D01*
X148773309Y-97019347D01*
X148784859Y-96997738D01*
X148808130Y-96954202D01*
X148808131Y-96954199D01*
X148829574Y-96883513D01*
X148835000Y-96828419D01*
X148835000Y-96828417D01*
X148836814Y-96810001D01*
X148835000Y-96791585D01*
X148835000Y-92317944D01*
X149183000Y-92317944D01*
X149183000Y-92402056D01*
X149199409Y-92484551D01*
X149231598Y-92562260D01*
X149278327Y-92632197D01*
X149337803Y-92691673D01*
X149407740Y-92738402D01*
X149485449Y-92770591D01*
X149567944Y-92787000D01*
X149652056Y-92787000D01*
X149734551Y-92770591D01*
X149765000Y-92757978D01*
X149795449Y-92770591D01*
X149877944Y-92787000D01*
X149962056Y-92787000D01*
X150044551Y-92770591D01*
X150122260Y-92738402D01*
X150192197Y-92691673D01*
X150251673Y-92632197D01*
X150298402Y-92562260D01*
X150330591Y-92484551D01*
X150347000Y-92402056D01*
X150347000Y-92317944D01*
X150330591Y-92235449D01*
X150298402Y-92157740D01*
X150251673Y-92087803D01*
X150192197Y-92028327D01*
X150122260Y-91981598D01*
X150044551Y-91949409D01*
X149962056Y-91933000D01*
X149877944Y-91933000D01*
X149795449Y-91949409D01*
X149765000Y-91962022D01*
X149734551Y-91949409D01*
X149652056Y-91933000D01*
X149567944Y-91933000D01*
X149485449Y-91949409D01*
X149407740Y-91981598D01*
X149337803Y-92028327D01*
X149278327Y-92087803D01*
X149231598Y-92157740D01*
X149199409Y-92235449D01*
X149183000Y-92317944D01*
X148835000Y-92317944D01*
X148835000Y-91528811D01*
X148836814Y-91510395D01*
X148834963Y-91491602D01*
X148829574Y-91436882D01*
X148808131Y-91366195D01*
X148787939Y-91328418D01*
X148773310Y-91301048D01*
X148738189Y-91258254D01*
X148726448Y-91243947D01*
X148712139Y-91232204D01*
X148265790Y-90785856D01*
X148254043Y-90771542D01*
X148196942Y-90724681D01*
X148131795Y-90689859D01*
X148061108Y-90668416D01*
X148007583Y-90663145D01*
X148002260Y-90659588D01*
X147924551Y-90627399D01*
X147842056Y-90610990D01*
X147757944Y-90610990D01*
X147675449Y-90627399D01*
X147597740Y-90659588D01*
X147527803Y-90706317D01*
X147468327Y-90765793D01*
X147421598Y-90835730D01*
X147389409Y-90913439D01*
X147373000Y-90995934D01*
X147373000Y-91080046D01*
X147389409Y-91162541D01*
X147402854Y-91195000D01*
X147068416Y-91195000D01*
X147050000Y-91193186D01*
X147031584Y-91195000D01*
X147031581Y-91195000D01*
X146976487Y-91200426D01*
X146905800Y-91221869D01*
X146840653Y-91256691D01*
X146783552Y-91303552D01*
X146771809Y-91317861D01*
X146351457Y-91738214D01*
X146345449Y-91739409D01*
X146267740Y-91771598D01*
X146197803Y-91818327D01*
X146138327Y-91877803D01*
X146091598Y-91947740D01*
X146059409Y-92025449D01*
X146043000Y-92107944D01*
X146043000Y-92192056D01*
X146059409Y-92274551D01*
X146091598Y-92352260D01*
X146138327Y-92422197D01*
X146197803Y-92481673D01*
X146236530Y-92507548D01*
X146198701Y-92553644D01*
X146163879Y-92618791D01*
X146142436Y-92689478D01*
X146137395Y-92740666D01*
X146135196Y-92762990D01*
X146137010Y-92781406D01*
X146137010Y-93022072D01*
X146115934Y-93022072D01*
X146033439Y-93038481D01*
X145955730Y-93070670D01*
X145949026Y-93075149D01*
X145904872Y-93079498D01*
X145834185Y-93100941D01*
X145832976Y-93101587D01*
X145832976Y-91877349D01*
X146498544Y-91211782D01*
X146504551Y-91210587D01*
X146582260Y-91178398D01*
X146652197Y-91131669D01*
X146711673Y-91072193D01*
X146758402Y-91002256D01*
X146790591Y-90924547D01*
X146807000Y-90842052D01*
X146807000Y-90757940D01*
X146790591Y-90675445D01*
X146758402Y-90597736D01*
X146711673Y-90527799D01*
X146652197Y-90468323D01*
X146582260Y-90421594D01*
X146504551Y-90389405D01*
X146422056Y-90372996D01*
X146337944Y-90372996D01*
X146255449Y-90389405D01*
X146177740Y-90421594D01*
X146107803Y-90468323D01*
X146048327Y-90527799D01*
X146001598Y-90597736D01*
X145969409Y-90675445D01*
X145968214Y-90681452D01*
X145205838Y-91443829D01*
X145191529Y-91455572D01*
X145179787Y-91469880D01*
X145144667Y-91512674D01*
X145139175Y-91522949D01*
X145092260Y-91491602D01*
X145014551Y-91459413D01*
X144932056Y-91443004D01*
X144847944Y-91443004D01*
X144765449Y-91459413D01*
X144687740Y-91491602D01*
X144617803Y-91538331D01*
X144558327Y-91597807D01*
X144511598Y-91667744D01*
X144479409Y-91745453D01*
X144463000Y-91827948D01*
X144463000Y-91912060D01*
X144479409Y-91994555D01*
X144511598Y-92072264D01*
X144558327Y-92142201D01*
X144617803Y-92201677D01*
X144687740Y-92248406D01*
X144759446Y-92278108D01*
X144759446Y-92917301D01*
X144710221Y-92896911D01*
X144704215Y-92895716D01*
X143804353Y-91995856D01*
X143792606Y-91981542D01*
X143735505Y-91934681D01*
X143670358Y-91899859D01*
X143599671Y-91878416D01*
X143544577Y-91872990D01*
X143544574Y-91872990D01*
X143526158Y-91871176D01*
X143507742Y-91872990D01*
X138082358Y-91872990D01*
X138077266Y-91869588D01*
X137999557Y-91837399D01*
X137917062Y-91820990D01*
X137832950Y-91820990D01*
X137750455Y-91837399D01*
X137672746Y-91869588D01*
X137602809Y-91916317D01*
X137543333Y-91975793D01*
X137496604Y-92045730D01*
X137464415Y-92123439D01*
X137448006Y-92205934D01*
X137448006Y-92290046D01*
X137464415Y-92372541D01*
X137496604Y-92450250D01*
X137543333Y-92520187D01*
X137602809Y-92579663D01*
X137672746Y-92626392D01*
X137750455Y-92658581D01*
X137832950Y-92674990D01*
X137917062Y-92674990D01*
X137999557Y-92658581D01*
X138077266Y-92626392D01*
X138082358Y-92622990D01*
X139783249Y-92622990D01*
X139752803Y-92643333D01*
X139693327Y-92702809D01*
X139646598Y-92772746D01*
X139614409Y-92850455D01*
X139613214Y-92856462D01*
X138794677Y-93675000D01*
X137782352Y-93675000D01*
X137777260Y-93671598D01*
X137699551Y-93639409D01*
X137617056Y-93623000D01*
X137532944Y-93623000D01*
X137450449Y-93639409D01*
X137372740Y-93671598D01*
X137302803Y-93718327D01*
X137243327Y-93777803D01*
X137196598Y-93847740D01*
X137164409Y-93925449D01*
X137148000Y-94007944D01*
X137148000Y-94092056D01*
X137164409Y-94174551D01*
X137196598Y-94252260D01*
X137243327Y-94322197D01*
X137302803Y-94381673D01*
X137372740Y-94428402D01*
X137450449Y-94460591D01*
X137532944Y-94477000D01*
X137617056Y-94477000D01*
X137699551Y-94460591D01*
X137777260Y-94428402D01*
X137782352Y-94425000D01*
X138931590Y-94425000D01*
X138950006Y-94426814D01*
X138968422Y-94425000D01*
X138968425Y-94425000D01*
X139023519Y-94419574D01*
X139094206Y-94398131D01*
X139159353Y-94363309D01*
X139216454Y-94316448D01*
X139228201Y-94302134D01*
X140143544Y-93386792D01*
X140149551Y-93385597D01*
X140227260Y-93353408D01*
X140297197Y-93306679D01*
X140356673Y-93247203D01*
X140403402Y-93177266D01*
X140435591Y-93099557D01*
X140452000Y-93017062D01*
X140452000Y-92932950D01*
X140435591Y-92850455D01*
X140403402Y-92772746D01*
X140356673Y-92702809D01*
X140297197Y-92643333D01*
X140266751Y-92622990D01*
X143370829Y-92622990D01*
X144173884Y-93426047D01*
X144175079Y-93432053D01*
X144207268Y-93509762D01*
X144253997Y-93579699D01*
X144313473Y-93639175D01*
X144383410Y-93685904D01*
X144461119Y-93718093D01*
X144543614Y-93734502D01*
X144627726Y-93734502D01*
X144710221Y-93718093D01*
X144759446Y-93697703D01*
X144759446Y-94365517D01*
X144752348Y-94359692D01*
X144687201Y-94324870D01*
X144616514Y-94303427D01*
X144561420Y-94298001D01*
X144561417Y-94298001D01*
X144543001Y-94296187D01*
X144524585Y-94298001D01*
X143205418Y-94298001D01*
X143187002Y-94296187D01*
X143168586Y-94298001D01*
X143168584Y-94298001D01*
X143113490Y-94303427D01*
X143042803Y-94324870D01*
X143042801Y-94324871D01*
X142977655Y-94359692D01*
X142953630Y-94379409D01*
X142920555Y-94406553D01*
X142908812Y-94420862D01*
X141931461Y-95398214D01*
X141925453Y-95399409D01*
X141847744Y-95431598D01*
X141777807Y-95478327D01*
X141718331Y-95537803D01*
X141671602Y-95607740D01*
X141639413Y-95685449D01*
X141623004Y-95767944D01*
X141623004Y-95852056D01*
X141639413Y-95934551D01*
X141671602Y-96012260D01*
X141688238Y-96037159D01*
X141617056Y-96023000D01*
X141532944Y-96023000D01*
X141450449Y-96039409D01*
X141372740Y-96071598D01*
X141302803Y-96118327D01*
X141243327Y-96177803D01*
X141196598Y-96247740D01*
X141164409Y-96325449D01*
X141150000Y-96397889D01*
X141150000Y-95857352D01*
X141153402Y-95852260D01*
X141185591Y-95774551D01*
X141202000Y-95692056D01*
X141202000Y-95607944D01*
X141185591Y-95525449D01*
X141153402Y-95447740D01*
X141106673Y-95377803D01*
X141047197Y-95318327D01*
X140981139Y-95274190D01*
X141807976Y-94447354D01*
X142440638Y-94447354D01*
X142445730Y-94450756D01*
X142523439Y-94482945D01*
X142605934Y-94499354D01*
X142690046Y-94499354D01*
X142772541Y-94482945D01*
X142850250Y-94450756D01*
X142920187Y-94404027D01*
X142979663Y-94344551D01*
X143026392Y-94274614D01*
X143058581Y-94196905D01*
X143074990Y-94114410D01*
X143074990Y-94054510D01*
X143080052Y-94052413D01*
X143149989Y-94005684D01*
X143209465Y-93946208D01*
X143256194Y-93876271D01*
X143288383Y-93798562D01*
X143304792Y-93716067D01*
X143304792Y-93631955D01*
X143288383Y-93549460D01*
X143256194Y-93471751D01*
X143209465Y-93401814D01*
X143149989Y-93342338D01*
X143080052Y-93295609D01*
X143002343Y-93263420D01*
X142919848Y-93247011D01*
X142835736Y-93247011D01*
X142753241Y-93263420D01*
X142675532Y-93295609D01*
X142670440Y-93299011D01*
X141604404Y-93299011D01*
X141585988Y-93297197D01*
X141567572Y-93299011D01*
X141567570Y-93299011D01*
X141512476Y-93304437D01*
X141441789Y-93325880D01*
X141441787Y-93325881D01*
X141376641Y-93360702D01*
X141358538Y-93375559D01*
X141319541Y-93407563D01*
X141307798Y-93421872D01*
X139722862Y-95006809D01*
X139708553Y-95018552D01*
X139689461Y-95041816D01*
X139661691Y-95075654D01*
X139637094Y-95121673D01*
X139626870Y-95140800D01*
X139605426Y-95211487D01*
X139600962Y-95256814D01*
X139598186Y-95285000D01*
X139600000Y-95303416D01*
X139600000Y-95442648D01*
X139596598Y-95447740D01*
X139564409Y-95525449D01*
X139548000Y-95607944D01*
X139548000Y-95692056D01*
X139564409Y-95774551D01*
X139596598Y-95852260D01*
X139643327Y-95922197D01*
X139702803Y-95981673D01*
X139772740Y-96028402D01*
X139850449Y-96060591D01*
X139932944Y-96077000D01*
X139975001Y-96077000D01*
X139975000Y-97041584D01*
X139973186Y-97060000D01*
X139975000Y-97078416D01*
X139975000Y-97078418D01*
X139980426Y-97133512D01*
X140001869Y-97204199D01*
X140036691Y-97269346D01*
X140083552Y-97326448D01*
X140097866Y-97338195D01*
X140397694Y-97638023D01*
X140318510Y-97622273D01*
X140234398Y-97622273D01*
X140151903Y-97638682D01*
X140074194Y-97670871D01*
X140004257Y-97717600D01*
X139944781Y-97777076D01*
X139898052Y-97847013D01*
X139865863Y-97924722D01*
X139864668Y-97930729D01*
X139697407Y-98097991D01*
X139600819Y-98097991D01*
X139602000Y-98092056D01*
X139602000Y-98007944D01*
X139585591Y-97925449D01*
X139553402Y-97847740D01*
X139506673Y-97777803D01*
X139447197Y-97718327D01*
X139377260Y-97671598D01*
X139325119Y-97650000D01*
X139377260Y-97628402D01*
X139447197Y-97581673D01*
X139506673Y-97522197D01*
X139553402Y-97452260D01*
X139585591Y-97374551D01*
X139602000Y-97292056D01*
X139602000Y-97207944D01*
X139585591Y-97125449D01*
X139553402Y-97047740D01*
X139506673Y-96977803D01*
X139447197Y-96918327D01*
X139377260Y-96871598D01*
X139299551Y-96839409D01*
X139217056Y-96823000D01*
X139132944Y-96823000D01*
X139050449Y-96839409D01*
X138972740Y-96871598D01*
X138967648Y-96875000D01*
X137782355Y-96875000D01*
X137777260Y-96871596D01*
X137699551Y-96839407D01*
X137617056Y-96822998D01*
X137532944Y-96822998D01*
X137450449Y-96839407D01*
X137372740Y-96871596D01*
X137367648Y-96874998D01*
X137150000Y-96874998D01*
X137150000Y-96657352D01*
X137153402Y-96652260D01*
X137185591Y-96574551D01*
X137202000Y-96492056D01*
X137202000Y-96407944D01*
X137185591Y-96325449D01*
X137153402Y-96247740D01*
X137106673Y-96177803D01*
X137047197Y-96118327D01*
X136977260Y-96071598D01*
X136899551Y-96039409D01*
X136817056Y-96023000D01*
X136732944Y-96023000D01*
X136650449Y-96039409D01*
X136572740Y-96071598D01*
X136502803Y-96118327D01*
X136443327Y-96177803D01*
X136396598Y-96247740D01*
X136364409Y-96325449D01*
X136348000Y-96407944D01*
X136348000Y-96492056D01*
X136364409Y-96574551D01*
X136396598Y-96652260D01*
X136400000Y-96657352D01*
X136400000Y-96670662D01*
X136324551Y-96639409D01*
X136242056Y-96623000D01*
X136157944Y-96623000D01*
X136123003Y-96629950D01*
X136135595Y-96599551D01*
X136152004Y-96517056D01*
X136152004Y-96432944D01*
X136135595Y-96350449D01*
X136103406Y-96272740D01*
X136056677Y-96202803D01*
X135997201Y-96143327D01*
X135927264Y-96096598D01*
X135849555Y-96064409D01*
X135767060Y-96048000D01*
X135682948Y-96048000D01*
X135600453Y-96064409D01*
X135522744Y-96096598D01*
X135452807Y-96143327D01*
X135393331Y-96202803D01*
X135346602Y-96272740D01*
X135314413Y-96350449D01*
X135300804Y-96418866D01*
X134915990Y-96803681D01*
X134872740Y-96821596D01*
X134802803Y-96868325D01*
X134743327Y-96927801D01*
X134696598Y-96997738D01*
X134664409Y-97075447D01*
X134648000Y-97157942D01*
X134648000Y-97242054D01*
X134664409Y-97324549D01*
X134696598Y-97402258D01*
X134743327Y-97472195D01*
X134802803Y-97531671D01*
X134872740Y-97578400D01*
X134950449Y-97610589D01*
X135032944Y-97626998D01*
X135117056Y-97626998D01*
X135199551Y-97610589D01*
X135277260Y-97578400D01*
X135347197Y-97531671D01*
X135383618Y-97495250D01*
X135418327Y-97547197D01*
X135477803Y-97606673D01*
X135547740Y-97653402D01*
X135595415Y-97673150D01*
X135527801Y-97718327D01*
X135468325Y-97777803D01*
X135421596Y-97847740D01*
X135389407Y-97925449D01*
X135372998Y-98007944D01*
X135372998Y-98092056D01*
X135389407Y-98174551D01*
X135421596Y-98252260D01*
X135468325Y-98322197D01*
X135527801Y-98381673D01*
X135597738Y-98428402D01*
X135675447Y-98460591D01*
X135757942Y-98477000D01*
X135842054Y-98477000D01*
X135924549Y-98460591D01*
X136002258Y-98428402D01*
X136008962Y-98423923D01*
X136053116Y-98419574D01*
X136123803Y-98398131D01*
X136188950Y-98363309D01*
X136246051Y-98316448D01*
X136257798Y-98302134D01*
X136934935Y-97624998D01*
X137367648Y-97624998D01*
X137372740Y-97628400D01*
X137450449Y-97660589D01*
X137532944Y-97676998D01*
X137617056Y-97676998D01*
X137699551Y-97660589D01*
X137777260Y-97628400D01*
X137782349Y-97625000D01*
X138967648Y-97625000D01*
X138972740Y-97628402D01*
X139024881Y-97650000D01*
X138972740Y-97671598D01*
X138967747Y-97674934D01*
X138950000Y-97673186D01*
X138931584Y-97675000D01*
X138931581Y-97675000D01*
X138876487Y-97680426D01*
X138805800Y-97701869D01*
X138740653Y-97736691D01*
X138683552Y-97783552D01*
X138671810Y-97797860D01*
X137994671Y-98475000D01*
X137782352Y-98475000D01*
X137777260Y-98471598D01*
X137699551Y-98439409D01*
X137617056Y-98423000D01*
X137532944Y-98423000D01*
X137450449Y-98439409D01*
X137372740Y-98471598D01*
X137302803Y-98518327D01*
X137243327Y-98577803D01*
X137231213Y-98595933D01*
X137221053Y-98583552D01*
X137163952Y-98536691D01*
X137098805Y-98501869D01*
X137028118Y-98480426D01*
X136983964Y-98476077D01*
X136977260Y-98471598D01*
X136899551Y-98439409D01*
X136817056Y-98423000D01*
X136732944Y-98423000D01*
X136650449Y-98439409D01*
X136572740Y-98471598D01*
X136502803Y-98518327D01*
X136443327Y-98577803D01*
X136396598Y-98647740D01*
X136364409Y-98725449D01*
X136348000Y-98807944D01*
X136348000Y-98892056D01*
X136355351Y-98929011D01*
X136059341Y-98929011D01*
X134600000Y-97469670D01*
X134600000Y-95405332D01*
X135062140Y-94943192D01*
X135076448Y-94931450D01*
X135097499Y-94905799D01*
X135123310Y-94874349D01*
X135149073Y-94826149D01*
X135158131Y-94809202D01*
X135179574Y-94738515D01*
X135185000Y-94683421D01*
X135185000Y-94683418D01*
X135186814Y-94665002D01*
X135185000Y-94646586D01*
X135185000Y-93277352D01*
X135188402Y-93272260D01*
X135220591Y-93194551D01*
X135229452Y-93150000D01*
X135267824Y-93150000D01*
X135276512Y-93238215D01*
X135302243Y-93323040D01*
X135344029Y-93401216D01*
X135400263Y-93469737D01*
X135468784Y-93525971D01*
X135546960Y-93567757D01*
X135631785Y-93593488D01*
X135720000Y-93602176D01*
X135808215Y-93593488D01*
X135893040Y-93567757D01*
X135971216Y-93525971D01*
X136022567Y-93483828D01*
X136027566Y-93478829D01*
X136044737Y-93464737D01*
X136100971Y-93396216D01*
X136142757Y-93318041D01*
X136168489Y-93233215D01*
X136175000Y-93167105D01*
X136175000Y-93167095D01*
X136177176Y-93145001D01*
X136175000Y-93122906D01*
X136175000Y-92577895D01*
X136168489Y-92511785D01*
X136142757Y-92426959D01*
X136100971Y-92348784D01*
X136044737Y-92280263D01*
X135976215Y-92224029D01*
X135898040Y-92182243D01*
X135813214Y-92156511D01*
X135725000Y-92147823D01*
X135636785Y-92156511D01*
X135551959Y-92182243D01*
X135473784Y-92224029D01*
X135405263Y-92280263D01*
X135349029Y-92348785D01*
X135307243Y-92426960D01*
X135281511Y-92511786D01*
X135275000Y-92577896D01*
X135275001Y-93077129D01*
X135267824Y-93150000D01*
X135229452Y-93150000D01*
X135237000Y-93112056D01*
X135237000Y-93027944D01*
X135220591Y-92945449D01*
X135188402Y-92867740D01*
X135141673Y-92797803D01*
X135085435Y-92741565D01*
X135128402Y-92677258D01*
X135160591Y-92599549D01*
X135177000Y-92517054D01*
X135177000Y-92432942D01*
X135160591Y-92350447D01*
X135128402Y-92272738D01*
X135081673Y-92202801D01*
X135022197Y-92143325D01*
X134952260Y-92096596D01*
X134874551Y-92064407D01*
X134792056Y-92047998D01*
X134707944Y-92047998D01*
X134625449Y-92064407D01*
X134600000Y-92074949D01*
X134600000Y-90425000D01*
X136102648Y-90425000D01*
X136107740Y-90428402D01*
X136185449Y-90460591D01*
X136267944Y-90477000D01*
X136352056Y-90477000D01*
X136434551Y-90460591D01*
X136512260Y-90428402D01*
X136517352Y-90425000D01*
X142617648Y-90425000D01*
X142622740Y-90428402D01*
X142700449Y-90460591D01*
X142749352Y-90470318D01*
X142746753Y-90472918D01*
X142740208Y-90472918D01*
X142657713Y-90489327D01*
X142580004Y-90521516D01*
X142510067Y-90568245D01*
X142478312Y-90600000D01*
X138432352Y-90600000D01*
X138427260Y-90596598D01*
X138349551Y-90564409D01*
X138267056Y-90548000D01*
X138182944Y-90548000D01*
X138100449Y-90564409D01*
X138022740Y-90596598D01*
X137952803Y-90643327D01*
X137893327Y-90702803D01*
X137846598Y-90772740D01*
X137814409Y-90850449D01*
X137798000Y-90932944D01*
X137798000Y-91017056D01*
X137814409Y-91099551D01*
X137846598Y-91177260D01*
X137893327Y-91247197D01*
X137952803Y-91306673D01*
X138022740Y-91353402D01*
X138100449Y-91385591D01*
X138182944Y-91402000D01*
X138267056Y-91402000D01*
X138349551Y-91385591D01*
X138427260Y-91353402D01*
X138432352Y-91350000D01*
X142553000Y-91350000D01*
X142553000Y-91352055D01*
X142569409Y-91434550D01*
X142601598Y-91512259D01*
X142648327Y-91582196D01*
X142707803Y-91641672D01*
X142777740Y-91688401D01*
X142855449Y-91720590D01*
X142937944Y-91736999D01*
X143022056Y-91736999D01*
X143104551Y-91720590D01*
X143182260Y-91688401D01*
X143252197Y-91641672D01*
X143311673Y-91582196D01*
X143358402Y-91512259D01*
X143390591Y-91434550D01*
X143396752Y-91403577D01*
X144069534Y-90730796D01*
X144950845Y-90730796D01*
X144964779Y-90740106D01*
X145042488Y-90772295D01*
X145124983Y-90788704D01*
X145209095Y-90788704D01*
X145291590Y-90772295D01*
X145369299Y-90740106D01*
X145439236Y-90693377D01*
X145498712Y-90633901D01*
X145545441Y-90563964D01*
X145577630Y-90486255D01*
X145578825Y-90480247D01*
X145694073Y-90365000D01*
X147562787Y-90365000D01*
X147568327Y-90373292D01*
X147627803Y-90432768D01*
X147697740Y-90479497D01*
X147775449Y-90511686D01*
X147857944Y-90528095D01*
X147942056Y-90528095D01*
X148024551Y-90511686D01*
X148102260Y-90479497D01*
X148172197Y-90432768D01*
X148231673Y-90373292D01*
X148278402Y-90303355D01*
X148310591Y-90225646D01*
X148327000Y-90143151D01*
X148327000Y-90059039D01*
X148320229Y-90025000D01*
X151175000Y-90025000D01*
X151175001Y-102375000D01*
G36*
X144150449Y-95485591D02*
G01*
X144232944Y-95502000D01*
X144317056Y-95502000D01*
X144332991Y-95498830D01*
X144332990Y-96238329D01*
X144329588Y-96243421D01*
X144297399Y-96321130D01*
X144280990Y-96403625D01*
X144280990Y-96487737D01*
X144297399Y-96570232D01*
X144329588Y-96647941D01*
X144376317Y-96717878D01*
X144435793Y-96777354D01*
X144505730Y-96824083D01*
X144583439Y-96856272D01*
X144665934Y-96872681D01*
X144750046Y-96872681D01*
X144759445Y-96870811D01*
X144759445Y-99999028D01*
X144757631Y-100017444D01*
X144759445Y-100035860D01*
X144759445Y-100035862D01*
X144764871Y-100090956D01*
X144786314Y-100161643D01*
X144821136Y-100226790D01*
X144867997Y-100283892D01*
X144875952Y-100290421D01*
X144899331Y-100346860D01*
X144946060Y-100416797D01*
X145005536Y-100476273D01*
X145075473Y-100523002D01*
X145153182Y-100555191D01*
X145235677Y-100571600D01*
X145319789Y-100571600D01*
X145402284Y-100555191D01*
X145479993Y-100523002D01*
X145549930Y-100476273D01*
X145609406Y-100416797D01*
X145656135Y-100346860D01*
X145688324Y-100269151D01*
X145704733Y-100186656D01*
X145704733Y-100102544D01*
X145688324Y-100020049D01*
X145656135Y-99942340D01*
X145609406Y-99872403D01*
X145549930Y-99812927D01*
X145509445Y-99785877D01*
X145509445Y-98813784D01*
X145820556Y-99124896D01*
X145821751Y-99130903D01*
X145853940Y-99208612D01*
X145857342Y-99213704D01*
X145857343Y-100432328D01*
X145717866Y-100571805D01*
X145703552Y-100583552D01*
X145656691Y-100640654D01*
X145621869Y-100705801D01*
X145600426Y-100776488D01*
X145595000Y-100831581D01*
X145593186Y-100850000D01*
X145595000Y-100868416D01*
X145595000Y-101214668D01*
X145593186Y-101233084D01*
X145595000Y-101251500D01*
X145595000Y-101251503D01*
X145600426Y-101306597D01*
X145620610Y-101373130D01*
X145621870Y-101377284D01*
X145653969Y-101437336D01*
X145656692Y-101442431D01*
X145703553Y-101499532D01*
X145717861Y-101511274D01*
X145827763Y-101621177D01*
X145828958Y-101627184D01*
X145861147Y-101704893D01*
X145907876Y-101774830D01*
X145914999Y-101781953D01*
X145909409Y-101795449D01*
X145893000Y-101877944D01*
X145893000Y-101924990D01*
X143853886Y-101924990D01*
X143881673Y-101897203D01*
X143928402Y-101827266D01*
X143960591Y-101749557D01*
X143977000Y-101667062D01*
X143977000Y-101582950D01*
X143960591Y-101500455D01*
X143928402Y-101422746D01*
X143881673Y-101352809D01*
X143822197Y-101293333D01*
X143752260Y-101246604D01*
X143674551Y-101214415D01*
X143668544Y-101213220D01*
X143402284Y-100946961D01*
X143431579Y-100876238D01*
X143447988Y-100793743D01*
X143447988Y-100709631D01*
X143441498Y-100677001D01*
X144079583Y-100677001D01*
X144097999Y-100678815D01*
X144116415Y-100677001D01*
X144116418Y-100677001D01*
X144171512Y-100671575D01*
X144242199Y-100650132D01*
X144307346Y-100615310D01*
X144364447Y-100568449D01*
X144376194Y-100554135D01*
X144393543Y-100536786D01*
X144399551Y-100535591D01*
X144477260Y-100503402D01*
X144547197Y-100456673D01*
X144606673Y-100397197D01*
X144653402Y-100327260D01*
X144685591Y-100249551D01*
X144702000Y-100167056D01*
X144702000Y-100082944D01*
X144685591Y-100000449D01*
X144653402Y-99922740D01*
X144606673Y-99852803D01*
X144547197Y-99793327D01*
X144477260Y-99746598D01*
X144399551Y-99714409D01*
X144317056Y-99698000D01*
X144232944Y-99698000D01*
X144150449Y-99714409D01*
X144116790Y-99728351D01*
X144081673Y-99675793D01*
X144022197Y-99616317D01*
X143952260Y-99569588D01*
X143874551Y-99537399D01*
X143792056Y-99520990D01*
X143707944Y-99520990D01*
X143625449Y-99537399D01*
X143547740Y-99569588D01*
X143509707Y-99595000D01*
X142850330Y-99595000D01*
X142836786Y-99581456D01*
X142835591Y-99575449D01*
X142803402Y-99497740D01*
X142756673Y-99427803D01*
X142697197Y-99368327D01*
X142627260Y-99321598D01*
X142549551Y-99289409D01*
X142477111Y-99275000D01*
X143242648Y-99275000D01*
X143247740Y-99278402D01*
X143325449Y-99310591D01*
X143407944Y-99327000D01*
X143492056Y-99327000D01*
X143574551Y-99310591D01*
X143652260Y-99278402D01*
X143722197Y-99231673D01*
X143781673Y-99172197D01*
X143828402Y-99102260D01*
X143860591Y-99024551D01*
X143877000Y-98942056D01*
X143877000Y-98857944D01*
X143860591Y-98775449D01*
X143828402Y-98697740D01*
X143781673Y-98627803D01*
X143722197Y-98568327D01*
X143652260Y-98521598D01*
X143574551Y-98489409D01*
X143492056Y-98473000D01*
X143407944Y-98473000D01*
X143325449Y-98489409D01*
X143247740Y-98521598D01*
X143242648Y-98525000D01*
X141853870Y-98525000D01*
X141847197Y-98518327D01*
X141777260Y-98471598D01*
X141699551Y-98439409D01*
X141617056Y-98423000D01*
X141532944Y-98423000D01*
X141450449Y-98439409D01*
X141372740Y-98471598D01*
X141302803Y-98518327D01*
X141243327Y-98577803D01*
X141196598Y-98647740D01*
X141164409Y-98725449D01*
X141148000Y-98807944D01*
X141148000Y-98892056D01*
X141164409Y-98974551D01*
X141196598Y-99052260D01*
X141243327Y-99122197D01*
X141302803Y-99181673D01*
X141372740Y-99228402D01*
X141450449Y-99260591D01*
X141532944Y-99277000D01*
X141617056Y-99277000D01*
X141620312Y-99276352D01*
X141625000Y-99276814D01*
X141643416Y-99275000D01*
X142372889Y-99275000D01*
X142300449Y-99289409D01*
X142222740Y-99321598D01*
X142152803Y-99368327D01*
X142093327Y-99427803D01*
X142046598Y-99497740D01*
X142014409Y-99575449D01*
X142004682Y-99624352D01*
X141986786Y-99606457D01*
X141985591Y-99600449D01*
X141953402Y-99522740D01*
X141906673Y-99452803D01*
X141847197Y-99393327D01*
X141777260Y-99346598D01*
X141699551Y-99314409D01*
X141617056Y-99298000D01*
X141532944Y-99298000D01*
X141450449Y-99314409D01*
X141372740Y-99346598D01*
X141302803Y-99393327D01*
X141243327Y-99452803D01*
X141196598Y-99522740D01*
X141164409Y-99600449D01*
X141148000Y-99682944D01*
X141148000Y-99767056D01*
X141164409Y-99849551D01*
X141196598Y-99927260D01*
X141243327Y-99997197D01*
X141302803Y-100056673D01*
X141372740Y-100103402D01*
X141450449Y-100135591D01*
X141456457Y-100136786D01*
X141873810Y-100554140D01*
X141885553Y-100568449D01*
X141906441Y-100585591D01*
X141942654Y-100615311D01*
X141987108Y-100639071D01*
X142007801Y-100650132D01*
X142078488Y-100671575D01*
X142133582Y-100677001D01*
X142133585Y-100677001D01*
X142152001Y-100678815D01*
X142170417Y-100677001D01*
X142600478Y-100677001D01*
X142593988Y-100709631D01*
X142593988Y-100793743D01*
X142610397Y-100876238D01*
X142642586Y-100953947D01*
X142645988Y-100959039D01*
X142645988Y-101077578D01*
X142644174Y-101095994D01*
X142645988Y-101114410D01*
X142645988Y-101114412D01*
X142651414Y-101169506D01*
X142672857Y-101240193D01*
X142707679Y-101305340D01*
X142754540Y-101362442D01*
X142768854Y-101374189D01*
X143138214Y-101743550D01*
X143139409Y-101749557D01*
X143171598Y-101827266D01*
X143218327Y-101897203D01*
X143246114Y-101924990D01*
X134600000Y-101924990D01*
X134600000Y-101602021D01*
X137042538Y-101602021D01*
X137047630Y-101605423D01*
X137125339Y-101637612D01*
X137207834Y-101654021D01*
X137291946Y-101654021D01*
X137374441Y-101637612D01*
X137452150Y-101605423D01*
X137522087Y-101558694D01*
X137581563Y-101499218D01*
X137628292Y-101429281D01*
X137660481Y-101351572D01*
X137676890Y-101269077D01*
X137676890Y-101250011D01*
X138854789Y-101250011D01*
X138886317Y-101297197D01*
X138945793Y-101356673D01*
X139015730Y-101403402D01*
X139093439Y-101435591D01*
X139175934Y-101452000D01*
X139260046Y-101452000D01*
X139342541Y-101435591D01*
X139420250Y-101403402D01*
X139490187Y-101356673D01*
X139549663Y-101297197D01*
X139596392Y-101227260D01*
X139628581Y-101149551D01*
X139644990Y-101067056D01*
X139644990Y-100982944D01*
X139628581Y-100900449D01*
X139596392Y-100822740D01*
X139549663Y-100752803D01*
X139490187Y-100693327D01*
X139420250Y-100646598D01*
X139342541Y-100614409D01*
X139338604Y-100613626D01*
X139334449Y-100608563D01*
X139277348Y-100561702D01*
X139268561Y-100557005D01*
X139277260Y-100553402D01*
X139347197Y-100506673D01*
X139406673Y-100447197D01*
X139453402Y-100377260D01*
X139485591Y-100299551D01*
X139502000Y-100217056D01*
X139502000Y-100132944D01*
X139485591Y-100050449D01*
X139453402Y-99972740D01*
X139406673Y-99902803D01*
X139347197Y-99843327D01*
X139277260Y-99796598D01*
X139199551Y-99764409D01*
X139117056Y-99748000D01*
X139032944Y-99748000D01*
X138950449Y-99764409D01*
X138872740Y-99796598D01*
X138802803Y-99843327D01*
X138743327Y-99902803D01*
X138696598Y-99972740D01*
X138664409Y-100050449D01*
X138663214Y-100056456D01*
X138519671Y-100200000D01*
X134600000Y-100200000D01*
X134600000Y-98954609D01*
X135634003Y-99988612D01*
X135645746Y-100002921D01*
X135660053Y-100014662D01*
X135702847Y-100049783D01*
X135745426Y-100072541D01*
X135767994Y-100084604D01*
X135838681Y-100106047D01*
X135893775Y-100111473D01*
X135893778Y-100111473D01*
X135912194Y-100113287D01*
X135930610Y-100111473D01*
X136935771Y-100111473D01*
X136954187Y-100113287D01*
X136972603Y-100111473D01*
X136972606Y-100111473D01*
X137027700Y-100106047D01*
X137098387Y-100084604D01*
X137163534Y-100049782D01*
X137197828Y-100021638D01*
X137205737Y-100020065D01*
X137283446Y-99987876D01*
X137353383Y-99941147D01*
X137412859Y-99881671D01*
X137459588Y-99811734D01*
X137491777Y-99734025D01*
X137508186Y-99651530D01*
X137508186Y-99600000D01*
X138210616Y-99600000D01*
X138229032Y-99601814D01*
X138247448Y-99600000D01*
X138247451Y-99600000D01*
X138302545Y-99594574D01*
X138373232Y-99573131D01*
X138438379Y-99538309D01*
X138495480Y-99491448D01*
X138507227Y-99477134D01*
X138852740Y-99131620D01*
X138902803Y-99181683D01*
X138972740Y-99228412D01*
X139050449Y-99260601D01*
X139056457Y-99261796D01*
X140602144Y-100807485D01*
X140586419Y-100845449D01*
X140570010Y-100927944D01*
X140570010Y-101012056D01*
X140586419Y-101094551D01*
X140618608Y-101172260D01*
X140665337Y-101242197D01*
X140724813Y-101301673D01*
X140794750Y-101348402D01*
X140872459Y-101380591D01*
X140954954Y-101397000D01*
X141039066Y-101397000D01*
X141121561Y-101380591D01*
X141199270Y-101348402D01*
X141269207Y-101301673D01*
X141328683Y-101242197D01*
X141375412Y-101172260D01*
X141407601Y-101094551D01*
X141424010Y-101012056D01*
X141424010Y-100927944D01*
X141407601Y-100845449D01*
X141375412Y-100767740D01*
X141372010Y-100762648D01*
X141372010Y-100690435D01*
X141373824Y-100672019D01*
X141372010Y-100653601D01*
X141366584Y-100598507D01*
X141345141Y-100527820D01*
X141336337Y-100511348D01*
X141310319Y-100462673D01*
X141275199Y-100419878D01*
X141275196Y-100419875D01*
X141263458Y-100405572D01*
X141249156Y-100393835D01*
X139703310Y-98847991D01*
X139834320Y-98847991D01*
X139852736Y-98849805D01*
X139871152Y-98847991D01*
X139871155Y-98847991D01*
X139926249Y-98842565D01*
X139996936Y-98821122D01*
X140062083Y-98786300D01*
X140119184Y-98739439D01*
X140130931Y-98725125D01*
X140394998Y-98461059D01*
X140401005Y-98459864D01*
X140478714Y-98427675D01*
X140525183Y-98396626D01*
X140572740Y-98428402D01*
X140650449Y-98460591D01*
X140732944Y-98477000D01*
X140817056Y-98477000D01*
X140899551Y-98460591D01*
X140977260Y-98428402D01*
X141047197Y-98381673D01*
X141106673Y-98322197D01*
X141153402Y-98252260D01*
X141185591Y-98174551D01*
X141202000Y-98092056D01*
X141202000Y-98007944D01*
X141197131Y-97983467D01*
X141217650Y-98000306D01*
X141282797Y-98035128D01*
X141353484Y-98056571D01*
X141408578Y-98061997D01*
X141408580Y-98061997D01*
X141426996Y-98063811D01*
X141445412Y-98061997D01*
X143564585Y-98061997D01*
X143583001Y-98063811D01*
X143601417Y-98061997D01*
X143601420Y-98061997D01*
X143656514Y-98056571D01*
X143727201Y-98035128D01*
X143792348Y-98000306D01*
X143826642Y-97972162D01*
X143834551Y-97970589D01*
X143912260Y-97938400D01*
X143982197Y-97891671D01*
X144041673Y-97832195D01*
X144088402Y-97762258D01*
X144120591Y-97684549D01*
X144137000Y-97602054D01*
X144137000Y-97517942D01*
X144120591Y-97435447D01*
X144088402Y-97357738D01*
X144041673Y-97287801D01*
X143982197Y-97228325D01*
X143912260Y-97181596D01*
X143834551Y-97149407D01*
X143752056Y-97132998D01*
X143667944Y-97132998D01*
X143585449Y-97149407D01*
X143507740Y-97181596D01*
X143437803Y-97228325D01*
X143378327Y-97287801D01*
X143362160Y-97311997D01*
X142873034Y-97311997D01*
X142877000Y-97292056D01*
X142877000Y-97207944D01*
X142868341Y-97164411D01*
X143869641Y-96163112D01*
X143875648Y-96161917D01*
X143953357Y-96129728D01*
X144023294Y-96082999D01*
X144082770Y-96023523D01*
X144129499Y-95953586D01*
X144161688Y-95875877D01*
X144178097Y-95793382D01*
X144178097Y-95709270D01*
X144161688Y-95626775D01*
X144129499Y-95549066D01*
X144082770Y-95479129D01*
X144069288Y-95465647D01*
X144078957Y-95455977D01*
X144150449Y-95485591D01*
G37*
X144150449Y-95485591D02*
X144232944Y-95502000D01*
X144317056Y-95502000D01*
X144332991Y-95498830D01*
X144332990Y-96238329D01*
X144329588Y-96243421D01*
X144297399Y-96321130D01*
X144280990Y-96403625D01*
X144280990Y-96487737D01*
X144297399Y-96570232D01*
X144329588Y-96647941D01*
X144376317Y-96717878D01*
X144435793Y-96777354D01*
X144505730Y-96824083D01*
X144583439Y-96856272D01*
X144665934Y-96872681D01*
X144750046Y-96872681D01*
X144759445Y-96870811D01*
X144759445Y-99999028D01*
X144757631Y-100017444D01*
X144759445Y-100035860D01*
X144759445Y-100035862D01*
X144764871Y-100090956D01*
X144786314Y-100161643D01*
X144821136Y-100226790D01*
X144867997Y-100283892D01*
X144875952Y-100290421D01*
X144899331Y-100346860D01*
X144946060Y-100416797D01*
X145005536Y-100476273D01*
X145075473Y-100523002D01*
X145153182Y-100555191D01*
X145235677Y-100571600D01*
X145319789Y-100571600D01*
X145402284Y-100555191D01*
X145479993Y-100523002D01*
X145549930Y-100476273D01*
X145609406Y-100416797D01*
X145656135Y-100346860D01*
X145688324Y-100269151D01*
X145704733Y-100186656D01*
X145704733Y-100102544D01*
X145688324Y-100020049D01*
X145656135Y-99942340D01*
X145609406Y-99872403D01*
X145549930Y-99812927D01*
X145509445Y-99785877D01*
X145509445Y-98813784D01*
X145820556Y-99124896D01*
X145821751Y-99130903D01*
X145853940Y-99208612D01*
X145857342Y-99213704D01*
X145857343Y-100432328D01*
X145717866Y-100571805D01*
X145703552Y-100583552D01*
X145656691Y-100640654D01*
X145621869Y-100705801D01*
X145600426Y-100776488D01*
X145595000Y-100831581D01*
X145593186Y-100850000D01*
X145595000Y-100868416D01*
X145595000Y-101214668D01*
X145593186Y-101233084D01*
X145595000Y-101251500D01*
X145595000Y-101251503D01*
X145600426Y-101306597D01*
X145620610Y-101373130D01*
X145621870Y-101377284D01*
X145653969Y-101437336D01*
X145656692Y-101442431D01*
X145703553Y-101499532D01*
X145717861Y-101511274D01*
X145827763Y-101621177D01*
X145828958Y-101627184D01*
X145861147Y-101704893D01*
X145907876Y-101774830D01*
X145914999Y-101781953D01*
X145909409Y-101795449D01*
X145893000Y-101877944D01*
X145893000Y-101924990D01*
X143853886Y-101924990D01*
X143881673Y-101897203D01*
X143928402Y-101827266D01*
X143960591Y-101749557D01*
X143977000Y-101667062D01*
X143977000Y-101582950D01*
X143960591Y-101500455D01*
X143928402Y-101422746D01*
X143881673Y-101352809D01*
X143822197Y-101293333D01*
X143752260Y-101246604D01*
X143674551Y-101214415D01*
X143668544Y-101213220D01*
X143402284Y-100946961D01*
X143431579Y-100876238D01*
X143447988Y-100793743D01*
X143447988Y-100709631D01*
X143441498Y-100677001D01*
X144079583Y-100677001D01*
X144097999Y-100678815D01*
X144116415Y-100677001D01*
X144116418Y-100677001D01*
X144171512Y-100671575D01*
X144242199Y-100650132D01*
X144307346Y-100615310D01*
X144364447Y-100568449D01*
X144376194Y-100554135D01*
X144393543Y-100536786D01*
X144399551Y-100535591D01*
X144477260Y-100503402D01*
X144547197Y-100456673D01*
X144606673Y-100397197D01*
X144653402Y-100327260D01*
X144685591Y-100249551D01*
X144702000Y-100167056D01*
X144702000Y-100082944D01*
X144685591Y-100000449D01*
X144653402Y-99922740D01*
X144606673Y-99852803D01*
X144547197Y-99793327D01*
X144477260Y-99746598D01*
X144399551Y-99714409D01*
X144317056Y-99698000D01*
X144232944Y-99698000D01*
X144150449Y-99714409D01*
X144116790Y-99728351D01*
X144081673Y-99675793D01*
X144022197Y-99616317D01*
X143952260Y-99569588D01*
X143874551Y-99537399D01*
X143792056Y-99520990D01*
X143707944Y-99520990D01*
X143625449Y-99537399D01*
X143547740Y-99569588D01*
X143509707Y-99595000D01*
X142850330Y-99595000D01*
X142836786Y-99581456D01*
X142835591Y-99575449D01*
X142803402Y-99497740D01*
X142756673Y-99427803D01*
X142697197Y-99368327D01*
X142627260Y-99321598D01*
X142549551Y-99289409D01*
X142477111Y-99275000D01*
X143242648Y-99275000D01*
X143247740Y-99278402D01*
X143325449Y-99310591D01*
X143407944Y-99327000D01*
X143492056Y-99327000D01*
X143574551Y-99310591D01*
X143652260Y-99278402D01*
X143722197Y-99231673D01*
X143781673Y-99172197D01*
X143828402Y-99102260D01*
X143860591Y-99024551D01*
X143877000Y-98942056D01*
X143877000Y-98857944D01*
X143860591Y-98775449D01*
X143828402Y-98697740D01*
X143781673Y-98627803D01*
X143722197Y-98568327D01*
X143652260Y-98521598D01*
X143574551Y-98489409D01*
X143492056Y-98473000D01*
X143407944Y-98473000D01*
X143325449Y-98489409D01*
X143247740Y-98521598D01*
X143242648Y-98525000D01*
X141853870Y-98525000D01*
X141847197Y-98518327D01*
X141777260Y-98471598D01*
X141699551Y-98439409D01*
X141617056Y-98423000D01*
X141532944Y-98423000D01*
X141450449Y-98439409D01*
X141372740Y-98471598D01*
X141302803Y-98518327D01*
X141243327Y-98577803D01*
X141196598Y-98647740D01*
X141164409Y-98725449D01*
X141148000Y-98807944D01*
X141148000Y-98892056D01*
X141164409Y-98974551D01*
X141196598Y-99052260D01*
X141243327Y-99122197D01*
X141302803Y-99181673D01*
X141372740Y-99228402D01*
X141450449Y-99260591D01*
X141532944Y-99277000D01*
X141617056Y-99277000D01*
X141620312Y-99276352D01*
X141625000Y-99276814D01*
X141643416Y-99275000D01*
X142372889Y-99275000D01*
X142300449Y-99289409D01*
X142222740Y-99321598D01*
X142152803Y-99368327D01*
X142093327Y-99427803D01*
X142046598Y-99497740D01*
X142014409Y-99575449D01*
X142004682Y-99624352D01*
X141986786Y-99606457D01*
X141985591Y-99600449D01*
X141953402Y-99522740D01*
X141906673Y-99452803D01*
X141847197Y-99393327D01*
X141777260Y-99346598D01*
X141699551Y-99314409D01*
X141617056Y-99298000D01*
X141532944Y-99298000D01*
X141450449Y-99314409D01*
X141372740Y-99346598D01*
X141302803Y-99393327D01*
X141243327Y-99452803D01*
X141196598Y-99522740D01*
X141164409Y-99600449D01*
X141148000Y-99682944D01*
X141148000Y-99767056D01*
X141164409Y-99849551D01*
X141196598Y-99927260D01*
X141243327Y-99997197D01*
X141302803Y-100056673D01*
X141372740Y-100103402D01*
X141450449Y-100135591D01*
X141456457Y-100136786D01*
X141873810Y-100554140D01*
X141885553Y-100568449D01*
X141906441Y-100585591D01*
X141942654Y-100615311D01*
X141987108Y-100639071D01*
X142007801Y-100650132D01*
X142078488Y-100671575D01*
X142133582Y-100677001D01*
X142133585Y-100677001D01*
X142152001Y-100678815D01*
X142170417Y-100677001D01*
X142600478Y-100677001D01*
X142593988Y-100709631D01*
X142593988Y-100793743D01*
X142610397Y-100876238D01*
X142642586Y-100953947D01*
X142645988Y-100959039D01*
X142645988Y-101077578D01*
X142644174Y-101095994D01*
X142645988Y-101114410D01*
X142645988Y-101114412D01*
X142651414Y-101169506D01*
X142672857Y-101240193D01*
X142707679Y-101305340D01*
X142754540Y-101362442D01*
X142768854Y-101374189D01*
X143138214Y-101743550D01*
X143139409Y-101749557D01*
X143171598Y-101827266D01*
X143218327Y-101897203D01*
X143246114Y-101924990D01*
X134600000Y-101924990D01*
X134600000Y-101602021D01*
X137042538Y-101602021D01*
X137047630Y-101605423D01*
X137125339Y-101637612D01*
X137207834Y-101654021D01*
X137291946Y-101654021D01*
X137374441Y-101637612D01*
X137452150Y-101605423D01*
X137522087Y-101558694D01*
X137581563Y-101499218D01*
X137628292Y-101429281D01*
X137660481Y-101351572D01*
X137676890Y-101269077D01*
X137676890Y-101250011D01*
X138854789Y-101250011D01*
X138886317Y-101297197D01*
X138945793Y-101356673D01*
X139015730Y-101403402D01*
X139093439Y-101435591D01*
X139175934Y-101452000D01*
X139260046Y-101452000D01*
X139342541Y-101435591D01*
X139420250Y-101403402D01*
X139490187Y-101356673D01*
X139549663Y-101297197D01*
X139596392Y-101227260D01*
X139628581Y-101149551D01*
X139644990Y-101067056D01*
X139644990Y-100982944D01*
X139628581Y-100900449D01*
X139596392Y-100822740D01*
X139549663Y-100752803D01*
X139490187Y-100693327D01*
X139420250Y-100646598D01*
X139342541Y-100614409D01*
X139338604Y-100613626D01*
X139334449Y-100608563D01*
X139277348Y-100561702D01*
X139268561Y-100557005D01*
X139277260Y-100553402D01*
X139347197Y-100506673D01*
X139406673Y-100447197D01*
X139453402Y-100377260D01*
X139485591Y-100299551D01*
X139502000Y-100217056D01*
X139502000Y-100132944D01*
X139485591Y-100050449D01*
X139453402Y-99972740D01*
X139406673Y-99902803D01*
X139347197Y-99843327D01*
X139277260Y-99796598D01*
X139199551Y-99764409D01*
X139117056Y-99748000D01*
X139032944Y-99748000D01*
X138950449Y-99764409D01*
X138872740Y-99796598D01*
X138802803Y-99843327D01*
X138743327Y-99902803D01*
X138696598Y-99972740D01*
X138664409Y-100050449D01*
X138663214Y-100056456D01*
X138519671Y-100200000D01*
X134600000Y-100200000D01*
X134600000Y-98954609D01*
X135634003Y-99988612D01*
X135645746Y-100002921D01*
X135660053Y-100014662D01*
X135702847Y-100049783D01*
X135745426Y-100072541D01*
X135767994Y-100084604D01*
X135838681Y-100106047D01*
X135893775Y-100111473D01*
X135893778Y-100111473D01*
X135912194Y-100113287D01*
X135930610Y-100111473D01*
X136935771Y-100111473D01*
X136954187Y-100113287D01*
X136972603Y-100111473D01*
X136972606Y-100111473D01*
X137027700Y-100106047D01*
X137098387Y-100084604D01*
X137163534Y-100049782D01*
X137197828Y-100021638D01*
X137205737Y-100020065D01*
X137283446Y-99987876D01*
X137353383Y-99941147D01*
X137412859Y-99881671D01*
X137459588Y-99811734D01*
X137491777Y-99734025D01*
X137508186Y-99651530D01*
X137508186Y-99600000D01*
X138210616Y-99600000D01*
X138229032Y-99601814D01*
X138247448Y-99600000D01*
X138247451Y-99600000D01*
X138302545Y-99594574D01*
X138373232Y-99573131D01*
X138438379Y-99538309D01*
X138495480Y-99491448D01*
X138507227Y-99477134D01*
X138852740Y-99131620D01*
X138902803Y-99181683D01*
X138972740Y-99228412D01*
X139050449Y-99260601D01*
X139056457Y-99261796D01*
X140602144Y-100807485D01*
X140586419Y-100845449D01*
X140570010Y-100927944D01*
X140570010Y-101012056D01*
X140586419Y-101094551D01*
X140618608Y-101172260D01*
X140665337Y-101242197D01*
X140724813Y-101301673D01*
X140794750Y-101348402D01*
X140872459Y-101380591D01*
X140954954Y-101397000D01*
X141039066Y-101397000D01*
X141121561Y-101380591D01*
X141199270Y-101348402D01*
X141269207Y-101301673D01*
X141328683Y-101242197D01*
X141375412Y-101172260D01*
X141407601Y-101094551D01*
X141424010Y-101012056D01*
X141424010Y-100927944D01*
X141407601Y-100845449D01*
X141375412Y-100767740D01*
X141372010Y-100762648D01*
X141372010Y-100690435D01*
X141373824Y-100672019D01*
X141372010Y-100653601D01*
X141366584Y-100598507D01*
X141345141Y-100527820D01*
X141336337Y-100511348D01*
X141310319Y-100462673D01*
X141275199Y-100419878D01*
X141275196Y-100419875D01*
X141263458Y-100405572D01*
X141249156Y-100393835D01*
X139703310Y-98847991D01*
X139834320Y-98847991D01*
X139852736Y-98849805D01*
X139871152Y-98847991D01*
X139871155Y-98847991D01*
X139926249Y-98842565D01*
X139996936Y-98821122D01*
X140062083Y-98786300D01*
X140119184Y-98739439D01*
X140130931Y-98725125D01*
X140394998Y-98461059D01*
X140401005Y-98459864D01*
X140478714Y-98427675D01*
X140525183Y-98396626D01*
X140572740Y-98428402D01*
X140650449Y-98460591D01*
X140732944Y-98477000D01*
X140817056Y-98477000D01*
X140899551Y-98460591D01*
X140977260Y-98428402D01*
X141047197Y-98381673D01*
X141106673Y-98322197D01*
X141153402Y-98252260D01*
X141185591Y-98174551D01*
X141202000Y-98092056D01*
X141202000Y-98007944D01*
X141197131Y-97983467D01*
X141217650Y-98000306D01*
X141282797Y-98035128D01*
X141353484Y-98056571D01*
X141408578Y-98061997D01*
X141408580Y-98061997D01*
X141426996Y-98063811D01*
X141445412Y-98061997D01*
X143564585Y-98061997D01*
X143583001Y-98063811D01*
X143601417Y-98061997D01*
X143601420Y-98061997D01*
X143656514Y-98056571D01*
X143727201Y-98035128D01*
X143792348Y-98000306D01*
X143826642Y-97972162D01*
X143834551Y-97970589D01*
X143912260Y-97938400D01*
X143982197Y-97891671D01*
X144041673Y-97832195D01*
X144088402Y-97762258D01*
X144120591Y-97684549D01*
X144137000Y-97602054D01*
X144137000Y-97517942D01*
X144120591Y-97435447D01*
X144088402Y-97357738D01*
X144041673Y-97287801D01*
X143982197Y-97228325D01*
X143912260Y-97181596D01*
X143834551Y-97149407D01*
X143752056Y-97132998D01*
X143667944Y-97132998D01*
X143585449Y-97149407D01*
X143507740Y-97181596D01*
X143437803Y-97228325D01*
X143378327Y-97287801D01*
X143362160Y-97311997D01*
X142873034Y-97311997D01*
X142877000Y-97292056D01*
X142877000Y-97207944D01*
X142868341Y-97164411D01*
X143869641Y-96163112D01*
X143875648Y-96161917D01*
X143953357Y-96129728D01*
X144023294Y-96082999D01*
X144082770Y-96023523D01*
X144129499Y-95953586D01*
X144161688Y-95875877D01*
X144178097Y-95793382D01*
X144178097Y-95709270D01*
X144161688Y-95626775D01*
X144129499Y-95549066D01*
X144082770Y-95479129D01*
X144069288Y-95465647D01*
X144078957Y-95455977D01*
X144150449Y-95485591D01*
G36*
X145963214Y-96068544D02*
G01*
X145964409Y-96074551D01*
X145996598Y-96152260D01*
X146043327Y-96222197D01*
X146102803Y-96281673D01*
X146172740Y-96328402D01*
X146250449Y-96360591D01*
X146332944Y-96377000D01*
X146417056Y-96377000D01*
X146499551Y-96360591D01*
X146577260Y-96328402D01*
X146647197Y-96281673D01*
X146706673Y-96222197D01*
X146720770Y-96201099D01*
X147259305Y-96739635D01*
X147260500Y-96745642D01*
X147292689Y-96823351D01*
X147339418Y-96893288D01*
X147356982Y-96910852D01*
X146142443Y-98125392D01*
X146136435Y-98126587D01*
X146058726Y-98158776D01*
X145988789Y-98205505D01*
X145975307Y-98218987D01*
X145832976Y-98076657D01*
X145832976Y-95938306D01*
X145963214Y-96068544D01*
G37*
X145963214Y-96068544D02*
X145964409Y-96074551D01*
X145996598Y-96152260D01*
X146043327Y-96222197D01*
X146102803Y-96281673D01*
X146172740Y-96328402D01*
X146250449Y-96360591D01*
X146332944Y-96377000D01*
X146417056Y-96377000D01*
X146499551Y-96360591D01*
X146577260Y-96328402D01*
X146647197Y-96281673D01*
X146706673Y-96222197D01*
X146720770Y-96201099D01*
X147259305Y-96739635D01*
X147260500Y-96745642D01*
X147292689Y-96823351D01*
X147339418Y-96893288D01*
X147356982Y-96910852D01*
X146142443Y-98125392D01*
X146136435Y-98126587D01*
X146058726Y-98158776D01*
X145988789Y-98205505D01*
X145975307Y-98218987D01*
X145832976Y-98076657D01*
X145832976Y-95938306D01*
X145963214Y-96068544D01*
M02*
