M48
; DRILL file {KiCad (5.1.5-0-10_14)} date Thursday, September 24, 2020 at 10:17:17 AM
; FORMAT={-:-/ absolute / inch / decimal}
; #@! TF.CreationDate,2020-09-24T10:17:17-04:00
; #@! TF.GenerationSoftware,Kicad,Pcbnew,(5.1.5-0-10_14)
; #@! TF.FileFunction,Plated,2,3,Buried
FMAT,2
INCH
T1C0.0039
T2C0.0079
%
G90
G05
T1
X5.0827Y-3.9154
X5.1555Y-3.8484
X5.1732Y-3.6797
X5.2056Y-3.6856
X5.2096Y-3.9567
X5.2305Y-3.993
X5.2323Y-3.6937
X5.2486Y-3.6777
X5.3075Y-3.6642
X5.3179Y-3.8268
X5.3435Y-3.6457
X5.3622Y-3.8209
X5.3845Y-3.9096
X5.3969Y-3.9216
X5.4035Y-3.9853
X5.4754Y-3.9439
X5.4793Y-3.8602
X5.481Y-3.9774
X5.5227Y-3.8602
X5.5511Y-3.9752
X5.5925Y-3.772
X5.6291Y-3.5949
X5.6923Y-3.6735
X5.6958Y-3.5435
X5.6972Y-3.7971
X5.7024Y-3.9474
X5.7598Y-3.8228
X5.9024Y-3.6362
X5.9114Y-3.7244
T2
X5.8661Y-3.9695
T0
M30
