G04 #@! TF.GenerationSoftware,KiCad,Pcbnew,(5.1.5-0-10_14)*
G04 #@! TF.CreationDate,2020-09-24T10:17:21-04:00*
G04 #@! TF.ProjectId,ESLO_RB,45534c4f-5f52-4422-9e6b-696361645f70,rev?*
G04 #@! TF.SameCoordinates,Original*
G04 #@! TF.FileFunction,Legend,Top*
G04 #@! TF.FilePolarity,Positive*
%FSLAX46Y46*%
G04 Gerber Fmt 4.6, Leading zero omitted, Abs format (unit mm)*
G04 Created by KiCad (PCBNEW (5.1.5-0-10_14)) date 2020-09-24 10:17:21*
%MOMM*%
%LPD*%
G04 APERTURE LIST*
%ADD10C,0.140000*%
%ADD11C,0.050000*%
%ADD12C,0.070000*%
G04 APERTURE END LIST*
D10*
X128779095Y-90558571D02*
X129112428Y-90558571D01*
X129255285Y-91082380D02*
X128779095Y-91082380D01*
X128779095Y-90082380D01*
X129255285Y-90082380D01*
X129636238Y-91034761D02*
X129779095Y-91082380D01*
X130017190Y-91082380D01*
X130112428Y-91034761D01*
X130160047Y-90987142D01*
X130207666Y-90891904D01*
X130207666Y-90796666D01*
X130160047Y-90701428D01*
X130112428Y-90653809D01*
X130017190Y-90606190D01*
X129826714Y-90558571D01*
X129731476Y-90510952D01*
X129683857Y-90463333D01*
X129636238Y-90368095D01*
X129636238Y-90272857D01*
X129683857Y-90177619D01*
X129731476Y-90130000D01*
X129826714Y-90082380D01*
X130064809Y-90082380D01*
X130207666Y-90130000D01*
X131112428Y-91082380D02*
X130636238Y-91082380D01*
X130636238Y-90082380D01*
X131636238Y-90082380D02*
X131826714Y-90082380D01*
X131921952Y-90130000D01*
X132017190Y-90225238D01*
X132064809Y-90415714D01*
X132064809Y-90749047D01*
X132017190Y-90939523D01*
X131921952Y-91034761D01*
X131826714Y-91082380D01*
X131636238Y-91082380D01*
X131541000Y-91034761D01*
X131445761Y-90939523D01*
X131398142Y-90749047D01*
X131398142Y-90415714D01*
X131445761Y-90225238D01*
X131541000Y-90130000D01*
X131636238Y-90082380D01*
X132255285Y-91177619D02*
X133017190Y-91177619D01*
X133826714Y-91082380D02*
X133493380Y-90606190D01*
X133255285Y-91082380D02*
X133255285Y-90082380D01*
X133636238Y-90082380D01*
X133731476Y-90130000D01*
X133779095Y-90177619D01*
X133826714Y-90272857D01*
X133826714Y-90415714D01*
X133779095Y-90510952D01*
X133731476Y-90558571D01*
X133636238Y-90606190D01*
X133255285Y-90606190D01*
X134588619Y-90558571D02*
X134731476Y-90606190D01*
X134779095Y-90653809D01*
X134826714Y-90749047D01*
X134826714Y-90891904D01*
X134779095Y-90987142D01*
X134731476Y-91034761D01*
X134636238Y-91082380D01*
X134255285Y-91082380D01*
X134255285Y-90082380D01*
X134588619Y-90082380D01*
X134683857Y-90130000D01*
X134731476Y-90177619D01*
X134779095Y-90272857D01*
X134779095Y-90368095D01*
X134731476Y-90463333D01*
X134683857Y-90510952D01*
X134588619Y-90558571D01*
X134255285Y-90558571D01*
X128636238Y-91722380D02*
X128969571Y-92722380D01*
X129302904Y-91722380D01*
X130160047Y-92722380D02*
X129588619Y-92722380D01*
X129874333Y-92722380D02*
X129874333Y-91722380D01*
X129779095Y-91865238D01*
X129683857Y-91960476D01*
X129588619Y-92008095D01*
D11*
X127300000Y-96450000D02*
X127300000Y-90050000D01*
X124700000Y-96450000D02*
X127300000Y-96450000D01*
X124700000Y-90050000D02*
X124700000Y-96450000D01*
X127300000Y-90050000D02*
X124700000Y-90050000D01*
X133365000Y-92990000D02*
X132890000Y-92990000D01*
X140110000Y-100210000D02*
X140110000Y-99735000D01*
X139635000Y-100210000D02*
X140110000Y-100210000D01*
X132890000Y-100210000D02*
X132890000Y-99735000D01*
X133365000Y-100210000D02*
X132890000Y-100210000D01*
X140110000Y-92990000D02*
X140110000Y-93465000D01*
X139635000Y-92990000D02*
X140110000Y-92990000D01*
X131750000Y-95250000D02*
X130250000Y-95250000D01*
X131750000Y-93250000D02*
X131750000Y-95250000D01*
X129750000Y-93250000D02*
X131700000Y-93250000D01*
X129750000Y-94750000D02*
X129750000Y-93250000D01*
X128400000Y-98100000D02*
X131250000Y-98100000D01*
X128400000Y-102300000D02*
X128400000Y-98200000D01*
X131800000Y-102300000D02*
X128400000Y-102300000D01*
X131800000Y-98650000D02*
X131800000Y-102300000D01*
X131250000Y-98100000D02*
X131800000Y-98650000D01*
X144740000Y-99700000D02*
X144740000Y-102150000D01*
X147960000Y-101500000D02*
X147960000Y-99700000D01*
X148410000Y-97100000D02*
X148410000Y-94650000D01*
X145190000Y-95300000D02*
X145190000Y-97100000D01*
X147960000Y-92700000D02*
X147960000Y-90250000D01*
X144740000Y-90900000D02*
X144740000Y-92700000D01*
X141350000Y-98880000D02*
X143720000Y-98880000D01*
X143100000Y-102120000D02*
X142100000Y-102120000D01*
X140900000Y-98500000D02*
X142100000Y-98500000D01*
X140900000Y-100000000D02*
X140900000Y-98500000D01*
X139455000Y-90500000D02*
G75*
G03X139455000Y-90500000I-50000J0D01*
G01*
X144140000Y-91700000D02*
G75*
G03X144140000Y-91700000I-50000J0D01*
G01*
X141655000Y-90500000D02*
G75*
G03X141655000Y-90500000I-50000J0D01*
G01*
X142850279Y-93140000D02*
X142524721Y-93140000D01*
X142850279Y-94160000D02*
X142524721Y-94160000D01*
X142603922Y-98110000D02*
X143121078Y-98110000D01*
X142603922Y-96690000D02*
X143121078Y-96690000D01*
X124977500Y-102235000D02*
X127262500Y-102235000D01*
X124977500Y-100765000D02*
X124977500Y-102235000D01*
X127262500Y-100765000D02*
X124977500Y-100765000D01*
X149674721Y-92660000D02*
X150000279Y-92660000D01*
X149674721Y-91640000D02*
X150000279Y-91640000D01*
X149699721Y-100410000D02*
X150025279Y-100410000D01*
X149699721Y-99390000D02*
X150025279Y-99390000D01*
X142524721Y-95910000D02*
X142850279Y-95910000D01*
X142524721Y-94890000D02*
X142850279Y-94890000D01*
X150050279Y-101190000D02*
X149724721Y-101190000D01*
X150050279Y-102210000D02*
X149724721Y-102210000D01*
D12*
X148450000Y-90714285D02*
X148421428Y-90742857D01*
X148335714Y-90771428D01*
X148278571Y-90771428D01*
X148192857Y-90742857D01*
X148135714Y-90685714D01*
X148107142Y-90628571D01*
X148078571Y-90514285D01*
X148078571Y-90428571D01*
X148107142Y-90314285D01*
X148135714Y-90257142D01*
X148192857Y-90200000D01*
X148278571Y-90171428D01*
X148335714Y-90171428D01*
X148421428Y-90200000D01*
X148450000Y-90228571D01*
X148792857Y-90428571D02*
X148735714Y-90400000D01*
X148707142Y-90371428D01*
X148678571Y-90314285D01*
X148678571Y-90285714D01*
X148707142Y-90228571D01*
X148735714Y-90200000D01*
X148792857Y-90171428D01*
X148907142Y-90171428D01*
X148964285Y-90200000D01*
X148992857Y-90228571D01*
X149021428Y-90285714D01*
X149021428Y-90314285D01*
X148992857Y-90371428D01*
X148964285Y-90400000D01*
X148907142Y-90428571D01*
X148792857Y-90428571D01*
X148735714Y-90457142D01*
X148707142Y-90485714D01*
X148678571Y-90542857D01*
X148678571Y-90657142D01*
X148707142Y-90714285D01*
X148735714Y-90742857D01*
X148792857Y-90771428D01*
X148907142Y-90771428D01*
X148964285Y-90742857D01*
X148992857Y-90714285D01*
X149021428Y-90657142D01*
X149021428Y-90542857D01*
X148992857Y-90485714D01*
X148964285Y-90457142D01*
X148907142Y-90428571D01*
X125400000Y-97225000D02*
X125685714Y-97225000D01*
X125342857Y-97396428D02*
X125542857Y-96796428D01*
X125742857Y-97396428D01*
X125942857Y-97082142D02*
X126142857Y-97082142D01*
X126228571Y-97396428D02*
X125942857Y-97396428D01*
X125942857Y-96796428D01*
X126228571Y-96796428D01*
X126800000Y-97396428D02*
X126457142Y-97396428D01*
X126628571Y-97396428D02*
X126628571Y-96796428D01*
X126571428Y-96882142D01*
X126514285Y-96939285D01*
X126457142Y-96967857D01*
X130700000Y-97171428D02*
X130414285Y-97171428D01*
X130414285Y-96571428D01*
X131157142Y-96771428D02*
X131157142Y-97171428D01*
X131014285Y-96542857D02*
X130871428Y-96971428D01*
X131242857Y-96971428D01*
X128450000Y-97171428D02*
X128164285Y-97171428D01*
X128164285Y-96571428D01*
X128592857Y-96571428D02*
X128964285Y-96571428D01*
X128764285Y-96800000D01*
X128850000Y-96800000D01*
X128907142Y-96828571D01*
X128935714Y-96857142D01*
X128964285Y-96914285D01*
X128964285Y-97057142D01*
X128935714Y-97114285D01*
X128907142Y-97142857D01*
X128850000Y-97171428D01*
X128678571Y-97171428D01*
X128621428Y-97142857D01*
X128592857Y-97114285D01*
X132402857Y-91701428D02*
X132402857Y-92187142D01*
X132431428Y-92244285D01*
X132460000Y-92272857D01*
X132517142Y-92301428D01*
X132631428Y-92301428D01*
X132688571Y-92272857D01*
X132717142Y-92244285D01*
X132745714Y-92187142D01*
X132745714Y-91701428D01*
X132974285Y-91701428D02*
X133345714Y-91701428D01*
X133145714Y-91930000D01*
X133231428Y-91930000D01*
X133288571Y-91958571D01*
X133317142Y-91987142D01*
X133345714Y-92044285D01*
X133345714Y-92187142D01*
X133317142Y-92244285D01*
X133288571Y-92272857D01*
X133231428Y-92301428D01*
X133060000Y-92301428D01*
X133002857Y-92272857D01*
X132974285Y-92244285D01*
X128642857Y-94021428D02*
X128642857Y-94507142D01*
X128671428Y-94564285D01*
X128700000Y-94592857D01*
X128757142Y-94621428D01*
X128871428Y-94621428D01*
X128928571Y-94592857D01*
X128957142Y-94564285D01*
X128985714Y-94507142D01*
X128985714Y-94021428D01*
X129528571Y-94221428D02*
X129528571Y-94621428D01*
X129385714Y-93992857D02*
X129242857Y-94421428D01*
X129614285Y-94421428D01*
X138000000Y-92314285D02*
X137971428Y-92342857D01*
X137885714Y-92371428D01*
X137828571Y-92371428D01*
X137742857Y-92342857D01*
X137685714Y-92285714D01*
X137657142Y-92228571D01*
X137628571Y-92114285D01*
X137628571Y-92028571D01*
X137657142Y-91914285D01*
X137685714Y-91857142D01*
X137742857Y-91800000D01*
X137828571Y-91771428D01*
X137885714Y-91771428D01*
X137971428Y-91800000D01*
X138000000Y-91828571D01*
X138514285Y-91971428D02*
X138514285Y-92371428D01*
X138371428Y-91742857D02*
X138228571Y-92171428D01*
X138600000Y-92171428D01*
X127242857Y-98121428D02*
X127242857Y-98607142D01*
X127271428Y-98664285D01*
X127300000Y-98692857D01*
X127357142Y-98721428D01*
X127471428Y-98721428D01*
X127528571Y-98692857D01*
X127557142Y-98664285D01*
X127585714Y-98607142D01*
X127585714Y-98121428D01*
X127900000Y-98721428D02*
X128014285Y-98721428D01*
X128071428Y-98692857D01*
X128100000Y-98664285D01*
X128157142Y-98578571D01*
X128185714Y-98464285D01*
X128185714Y-98235714D01*
X128157142Y-98178571D01*
X128128571Y-98150000D01*
X128071428Y-98121428D01*
X127957142Y-98121428D01*
X127900000Y-98150000D01*
X127871428Y-98178571D01*
X127842857Y-98235714D01*
X127842857Y-98378571D01*
X127871428Y-98435714D01*
X127900000Y-98464285D01*
X127957142Y-98492857D01*
X128071428Y-98492857D01*
X128128571Y-98464285D01*
X128157142Y-98435714D01*
X128185714Y-98378571D01*
X143842857Y-101881428D02*
X143842857Y-102367142D01*
X143871428Y-102424285D01*
X143900000Y-102452857D01*
X143957142Y-102481428D01*
X144071428Y-102481428D01*
X144128571Y-102452857D01*
X144157142Y-102424285D01*
X144185714Y-102367142D01*
X144185714Y-101881428D01*
X144728571Y-101881428D02*
X144614285Y-101881428D01*
X144557142Y-101910000D01*
X144528571Y-101938571D01*
X144471428Y-102024285D01*
X144442857Y-102138571D01*
X144442857Y-102367142D01*
X144471428Y-102424285D01*
X144500000Y-102452857D01*
X144557142Y-102481428D01*
X144671428Y-102481428D01*
X144728571Y-102452857D01*
X144757142Y-102424285D01*
X144785714Y-102367142D01*
X144785714Y-102224285D01*
X144757142Y-102167142D01*
X144728571Y-102138571D01*
X144671428Y-102110000D01*
X144557142Y-102110000D01*
X144500000Y-102138571D01*
X144471428Y-102167142D01*
X144442857Y-102224285D01*
X147912857Y-98241428D02*
X147912857Y-98727142D01*
X147941428Y-98784285D01*
X147970000Y-98812857D01*
X148027142Y-98841428D01*
X148141428Y-98841428D01*
X148198571Y-98812857D01*
X148227142Y-98784285D01*
X148255714Y-98727142D01*
X148255714Y-98241428D01*
X148827142Y-98241428D02*
X148541428Y-98241428D01*
X148512857Y-98527142D01*
X148541428Y-98498571D01*
X148598571Y-98470000D01*
X148741428Y-98470000D01*
X148798571Y-98498571D01*
X148827142Y-98527142D01*
X148855714Y-98584285D01*
X148855714Y-98727142D01*
X148827142Y-98784285D01*
X148798571Y-98812857D01*
X148741428Y-98841428D01*
X148598571Y-98841428D01*
X148541428Y-98812857D01*
X148512857Y-98784285D01*
X147912857Y-93611428D02*
X147912857Y-94097142D01*
X147941428Y-94154285D01*
X147970000Y-94182857D01*
X148027142Y-94211428D01*
X148141428Y-94211428D01*
X148198571Y-94182857D01*
X148227142Y-94154285D01*
X148255714Y-94097142D01*
X148255714Y-93611428D01*
X148512857Y-93668571D02*
X148541428Y-93640000D01*
X148598571Y-93611428D01*
X148741428Y-93611428D01*
X148798571Y-93640000D01*
X148827142Y-93668571D01*
X148855714Y-93725714D01*
X148855714Y-93782857D01*
X148827142Y-93868571D01*
X148484285Y-94211428D01*
X148855714Y-94211428D01*
X142192857Y-98121428D02*
X142192857Y-98607142D01*
X142221428Y-98664285D01*
X142250000Y-98692857D01*
X142307142Y-98721428D01*
X142421428Y-98721428D01*
X142478571Y-98692857D01*
X142507142Y-98664285D01*
X142535714Y-98607142D01*
X142535714Y-98121428D01*
X143135714Y-98721428D02*
X142792857Y-98721428D01*
X142964285Y-98721428D02*
X142964285Y-98121428D01*
X142907142Y-98207142D01*
X142850000Y-98264285D01*
X142792857Y-98292857D01*
X149900000Y-96371428D02*
X149700000Y-96085714D01*
X149557142Y-96371428D02*
X149557142Y-95771428D01*
X149785714Y-95771428D01*
X149842857Y-95800000D01*
X149871428Y-95828571D01*
X149900000Y-95885714D01*
X149900000Y-95971428D01*
X149871428Y-96028571D01*
X149842857Y-96057142D01*
X149785714Y-96085714D01*
X149557142Y-96085714D01*
X150242857Y-96028571D02*
X150185714Y-96000000D01*
X150157142Y-95971428D01*
X150128571Y-95914285D01*
X150128571Y-95885714D01*
X150157142Y-95828571D01*
X150185714Y-95800000D01*
X150242857Y-95771428D01*
X150357142Y-95771428D01*
X150414285Y-95800000D01*
X150442857Y-95828571D01*
X150471428Y-95885714D01*
X150471428Y-95914285D01*
X150442857Y-95971428D01*
X150414285Y-96000000D01*
X150357142Y-96028571D01*
X150242857Y-96028571D01*
X150185714Y-96057142D01*
X150157142Y-96085714D01*
X150128571Y-96142857D01*
X150128571Y-96257142D01*
X150157142Y-96314285D01*
X150185714Y-96342857D01*
X150242857Y-96371428D01*
X150357142Y-96371428D01*
X150414285Y-96342857D01*
X150442857Y-96314285D01*
X150471428Y-96257142D01*
X150471428Y-96142857D01*
X150442857Y-96085714D01*
X150414285Y-96057142D01*
X150357142Y-96028571D01*
X149800000Y-94871428D02*
X149600000Y-94585714D01*
X149457142Y-94871428D02*
X149457142Y-94271428D01*
X149685714Y-94271428D01*
X149742857Y-94300000D01*
X149771428Y-94328571D01*
X149800000Y-94385714D01*
X149800000Y-94471428D01*
X149771428Y-94528571D01*
X149742857Y-94557142D01*
X149685714Y-94585714D01*
X149457142Y-94585714D01*
X150000000Y-94271428D02*
X150400000Y-94271428D01*
X150142857Y-94871428D01*
X137950000Y-91271428D02*
X137750000Y-90985714D01*
X137607142Y-91271428D02*
X137607142Y-90671428D01*
X137835714Y-90671428D01*
X137892857Y-90700000D01*
X137921428Y-90728571D01*
X137950000Y-90785714D01*
X137950000Y-90871428D01*
X137921428Y-90928571D01*
X137892857Y-90957142D01*
X137835714Y-90985714D01*
X137607142Y-90985714D01*
X138464285Y-90671428D02*
X138350000Y-90671428D01*
X138292857Y-90700000D01*
X138264285Y-90728571D01*
X138207142Y-90814285D01*
X138178571Y-90928571D01*
X138178571Y-91157142D01*
X138207142Y-91214285D01*
X138235714Y-91242857D01*
X138292857Y-91271428D01*
X138407142Y-91271428D01*
X138464285Y-91242857D01*
X138492857Y-91214285D01*
X138521428Y-91157142D01*
X138521428Y-91014285D01*
X138492857Y-90957142D01*
X138464285Y-90928571D01*
X138407142Y-90900000D01*
X138292857Y-90900000D01*
X138235714Y-90928571D01*
X138207142Y-90957142D01*
X138178571Y-91014285D01*
X142920000Y-92691428D02*
X142720000Y-92405714D01*
X142577142Y-92691428D02*
X142577142Y-92091428D01*
X142805714Y-92091428D01*
X142862857Y-92120000D01*
X142891428Y-92148571D01*
X142920000Y-92205714D01*
X142920000Y-92291428D01*
X142891428Y-92348571D01*
X142862857Y-92377142D01*
X142805714Y-92405714D01*
X142577142Y-92405714D01*
X143462857Y-92091428D02*
X143177142Y-92091428D01*
X143148571Y-92377142D01*
X143177142Y-92348571D01*
X143234285Y-92320000D01*
X143377142Y-92320000D01*
X143434285Y-92348571D01*
X143462857Y-92377142D01*
X143491428Y-92434285D01*
X143491428Y-92577142D01*
X143462857Y-92634285D01*
X143434285Y-92662857D01*
X143377142Y-92691428D01*
X143234285Y-92691428D01*
X143177142Y-92662857D01*
X143148571Y-92634285D01*
X140200000Y-91271428D02*
X140000000Y-90985714D01*
X139857142Y-91271428D02*
X139857142Y-90671428D01*
X140085714Y-90671428D01*
X140142857Y-90700000D01*
X140171428Y-90728571D01*
X140200000Y-90785714D01*
X140200000Y-90871428D01*
X140171428Y-90928571D01*
X140142857Y-90957142D01*
X140085714Y-90985714D01*
X139857142Y-90985714D01*
X140714285Y-90871428D02*
X140714285Y-91271428D01*
X140571428Y-90642857D02*
X140428571Y-91071428D01*
X140800000Y-91071428D01*
X142314285Y-91371428D02*
X142314285Y-90771428D01*
X142657142Y-91371428D01*
X142657142Y-90771428D01*
X142857142Y-90771428D02*
X143200000Y-90771428D01*
X143028571Y-91371428D02*
X143028571Y-90771428D01*
X143714285Y-91371428D02*
X143371428Y-91371428D01*
X143542857Y-91371428D02*
X143542857Y-90771428D01*
X143485714Y-90857142D01*
X143428571Y-90914285D01*
X143371428Y-90942857D01*
X144300000Y-93971428D02*
X144014285Y-93971428D01*
X144014285Y-93371428D01*
X144471428Y-93428571D02*
X144500000Y-93400000D01*
X144557142Y-93371428D01*
X144700000Y-93371428D01*
X144757142Y-93400000D01*
X144785714Y-93428571D01*
X144814285Y-93485714D01*
X144814285Y-93542857D01*
X144785714Y-93628571D01*
X144442857Y-93971428D01*
X144814285Y-93971428D01*
X144450000Y-96471428D02*
X144164285Y-96471428D01*
X144164285Y-95871428D01*
X144964285Y-96471428D02*
X144621428Y-96471428D01*
X144792857Y-96471428D02*
X144792857Y-95871428D01*
X144735714Y-95957142D01*
X144678571Y-96014285D01*
X144621428Y-96042857D01*
X125032142Y-100571428D02*
X125032142Y-99971428D01*
X125175000Y-99971428D01*
X125260714Y-100000000D01*
X125317857Y-100057142D01*
X125346428Y-100114285D01*
X125375000Y-100228571D01*
X125375000Y-100314285D01*
X125346428Y-100428571D01*
X125317857Y-100485714D01*
X125260714Y-100542857D01*
X125175000Y-100571428D01*
X125032142Y-100571428D01*
X125946428Y-100571428D02*
X125603571Y-100571428D01*
X125775000Y-100571428D02*
X125775000Y-99971428D01*
X125717857Y-100057142D01*
X125660714Y-100114285D01*
X125603571Y-100142857D01*
X149564285Y-97764285D02*
X149535714Y-97792857D01*
X149450000Y-97821428D01*
X149392857Y-97821428D01*
X149307142Y-97792857D01*
X149250000Y-97735714D01*
X149221428Y-97678571D01*
X149192857Y-97564285D01*
X149192857Y-97478571D01*
X149221428Y-97364285D01*
X149250000Y-97307142D01*
X149307142Y-97250000D01*
X149392857Y-97221428D01*
X149450000Y-97221428D01*
X149535714Y-97250000D01*
X149564285Y-97278571D01*
X150135714Y-97821428D02*
X149792857Y-97821428D01*
X149964285Y-97821428D02*
X149964285Y-97221428D01*
X149907142Y-97307142D01*
X149850000Y-97364285D01*
X149792857Y-97392857D01*
X150678571Y-97221428D02*
X150392857Y-97221428D01*
X150364285Y-97507142D01*
X150392857Y-97478571D01*
X150450000Y-97450000D01*
X150592857Y-97450000D01*
X150650000Y-97478571D01*
X150678571Y-97507142D01*
X150707142Y-97564285D01*
X150707142Y-97707142D01*
X150678571Y-97764285D01*
X150650000Y-97792857D01*
X150592857Y-97821428D01*
X150450000Y-97821428D01*
X150392857Y-97792857D01*
X150364285Y-97764285D01*
X149514285Y-93414285D02*
X149485714Y-93442857D01*
X149400000Y-93471428D01*
X149342857Y-93471428D01*
X149257142Y-93442857D01*
X149200000Y-93385714D01*
X149171428Y-93328571D01*
X149142857Y-93214285D01*
X149142857Y-93128571D01*
X149171428Y-93014285D01*
X149200000Y-92957142D01*
X149257142Y-92900000D01*
X149342857Y-92871428D01*
X149400000Y-92871428D01*
X149485714Y-92900000D01*
X149514285Y-92928571D01*
X150085714Y-93471428D02*
X149742857Y-93471428D01*
X149914285Y-93471428D02*
X149914285Y-92871428D01*
X149857142Y-92957142D01*
X149800000Y-93014285D01*
X149742857Y-93042857D01*
X150600000Y-93071428D02*
X150600000Y-93471428D01*
X150457142Y-92842857D02*
X150314285Y-93271428D01*
X150685714Y-93271428D01*
X149464285Y-91514285D02*
X149435714Y-91542857D01*
X149350000Y-91571428D01*
X149292857Y-91571428D01*
X149207142Y-91542857D01*
X149150000Y-91485714D01*
X149121428Y-91428571D01*
X149092857Y-91314285D01*
X149092857Y-91228571D01*
X149121428Y-91114285D01*
X149150000Y-91057142D01*
X149207142Y-91000000D01*
X149292857Y-90971428D01*
X149350000Y-90971428D01*
X149435714Y-91000000D01*
X149464285Y-91028571D01*
X150035714Y-91571428D02*
X149692857Y-91571428D01*
X149864285Y-91571428D02*
X149864285Y-90971428D01*
X149807142Y-91057142D01*
X149750000Y-91114285D01*
X149692857Y-91142857D01*
X150235714Y-90971428D02*
X150607142Y-90971428D01*
X150407142Y-91200000D01*
X150492857Y-91200000D01*
X150550000Y-91228571D01*
X150578571Y-91257142D01*
X150607142Y-91314285D01*
X150607142Y-91457142D01*
X150578571Y-91514285D01*
X150550000Y-91542857D01*
X150492857Y-91571428D01*
X150321428Y-91571428D01*
X150264285Y-91542857D01*
X150235714Y-91514285D01*
X149476785Y-99264285D02*
X149448214Y-99292857D01*
X149362500Y-99321428D01*
X149305357Y-99321428D01*
X149219642Y-99292857D01*
X149162500Y-99235714D01*
X149133928Y-99178571D01*
X149105357Y-99064285D01*
X149105357Y-98978571D01*
X149133928Y-98864285D01*
X149162500Y-98807142D01*
X149219642Y-98750000D01*
X149305357Y-98721428D01*
X149362500Y-98721428D01*
X149448214Y-98750000D01*
X149476785Y-98778571D01*
X150048214Y-99321428D02*
X149705357Y-99321428D01*
X149876785Y-99321428D02*
X149876785Y-98721428D01*
X149819642Y-98807142D01*
X149762500Y-98864285D01*
X149705357Y-98892857D01*
X150276785Y-98778571D02*
X150305357Y-98750000D01*
X150362500Y-98721428D01*
X150505357Y-98721428D01*
X150562500Y-98750000D01*
X150591071Y-98778571D01*
X150619642Y-98835714D01*
X150619642Y-98892857D01*
X150591071Y-98978571D01*
X150248214Y-99321428D01*
X150619642Y-99321428D01*
X137114285Y-101314285D02*
X137085714Y-101342857D01*
X137000000Y-101371428D01*
X136942857Y-101371428D01*
X136857142Y-101342857D01*
X136800000Y-101285714D01*
X136771428Y-101228571D01*
X136742857Y-101114285D01*
X136742857Y-101028571D01*
X136771428Y-100914285D01*
X136800000Y-100857142D01*
X136857142Y-100800000D01*
X136942857Y-100771428D01*
X137000000Y-100771428D01*
X137085714Y-100800000D01*
X137114285Y-100828571D01*
X137685714Y-101371428D02*
X137342857Y-101371428D01*
X137514285Y-101371428D02*
X137514285Y-100771428D01*
X137457142Y-100857142D01*
X137400000Y-100914285D01*
X137342857Y-100942857D01*
X138257142Y-101371428D02*
X137914285Y-101371428D01*
X138085714Y-101371428D02*
X138085714Y-100771428D01*
X138028571Y-100857142D01*
X137971428Y-100914285D01*
X137914285Y-100942857D01*
X140150000Y-92314285D02*
X140121428Y-92342857D01*
X140035714Y-92371428D01*
X139978571Y-92371428D01*
X139892857Y-92342857D01*
X139835714Y-92285714D01*
X139807142Y-92228571D01*
X139778571Y-92114285D01*
X139778571Y-92028571D01*
X139807142Y-91914285D01*
X139835714Y-91857142D01*
X139892857Y-91800000D01*
X139978571Y-91771428D01*
X140035714Y-91771428D01*
X140121428Y-91800000D01*
X140150000Y-91828571D01*
X140350000Y-91771428D02*
X140750000Y-91771428D01*
X140492857Y-92371428D01*
X133200000Y-101314285D02*
X133171428Y-101342857D01*
X133085714Y-101371428D01*
X133028571Y-101371428D01*
X132942857Y-101342857D01*
X132885714Y-101285714D01*
X132857142Y-101228571D01*
X132828571Y-101114285D01*
X132828571Y-101028571D01*
X132857142Y-100914285D01*
X132885714Y-100857142D01*
X132942857Y-100800000D01*
X133028571Y-100771428D01*
X133085714Y-100771428D01*
X133171428Y-100800000D01*
X133200000Y-100828571D01*
X133742857Y-100771428D02*
X133457142Y-100771428D01*
X133428571Y-101057142D01*
X133457142Y-101028571D01*
X133514285Y-101000000D01*
X133657142Y-101000000D01*
X133714285Y-101028571D01*
X133742857Y-101057142D01*
X133771428Y-101114285D01*
X133771428Y-101257142D01*
X133742857Y-101314285D01*
X133714285Y-101342857D01*
X133657142Y-101371428D01*
X133514285Y-101371428D01*
X133457142Y-101342857D01*
X133428571Y-101314285D01*
X135200000Y-101314285D02*
X135171428Y-101342857D01*
X135085714Y-101371428D01*
X135028571Y-101371428D01*
X134942857Y-101342857D01*
X134885714Y-101285714D01*
X134857142Y-101228571D01*
X134828571Y-101114285D01*
X134828571Y-101028571D01*
X134857142Y-100914285D01*
X134885714Y-100857142D01*
X134942857Y-100800000D01*
X135028571Y-100771428D01*
X135085714Y-100771428D01*
X135171428Y-100800000D01*
X135200000Y-100828571D01*
X135714285Y-100771428D02*
X135600000Y-100771428D01*
X135542857Y-100800000D01*
X135514285Y-100828571D01*
X135457142Y-100914285D01*
X135428571Y-101028571D01*
X135428571Y-101257142D01*
X135457142Y-101314285D01*
X135485714Y-101342857D01*
X135542857Y-101371428D01*
X135657142Y-101371428D01*
X135714285Y-101342857D01*
X135742857Y-101314285D01*
X135771428Y-101257142D01*
X135771428Y-101114285D01*
X135742857Y-101057142D01*
X135714285Y-101028571D01*
X135657142Y-101000000D01*
X135542857Y-101000000D01*
X135485714Y-101028571D01*
X135457142Y-101057142D01*
X135428571Y-101114285D01*
X135750000Y-92314285D02*
X135721428Y-92342857D01*
X135635714Y-92371428D01*
X135578571Y-92371428D01*
X135492857Y-92342857D01*
X135435714Y-92285714D01*
X135407142Y-92228571D01*
X135378571Y-92114285D01*
X135378571Y-92028571D01*
X135407142Y-91914285D01*
X135435714Y-91857142D01*
X135492857Y-91800000D01*
X135578571Y-91771428D01*
X135635714Y-91771428D01*
X135721428Y-91800000D01*
X135750000Y-91828571D01*
X136035714Y-92371428D02*
X136150000Y-92371428D01*
X136207142Y-92342857D01*
X136235714Y-92314285D01*
X136292857Y-92228571D01*
X136321428Y-92114285D01*
X136321428Y-91885714D01*
X136292857Y-91828571D01*
X136264285Y-91800000D01*
X136207142Y-91771428D01*
X136092857Y-91771428D01*
X136035714Y-91800000D01*
X136007142Y-91828571D01*
X135978571Y-91885714D01*
X135978571Y-92028571D01*
X136007142Y-92085714D01*
X136035714Y-92114285D01*
X136092857Y-92142857D01*
X136207142Y-92142857D01*
X136264285Y-92114285D01*
X136292857Y-92085714D01*
X136321428Y-92028571D01*
X135514285Y-91214285D02*
X135485714Y-91242857D01*
X135400000Y-91271428D01*
X135342857Y-91271428D01*
X135257142Y-91242857D01*
X135200000Y-91185714D01*
X135171428Y-91128571D01*
X135142857Y-91014285D01*
X135142857Y-90928571D01*
X135171428Y-90814285D01*
X135200000Y-90757142D01*
X135257142Y-90700000D01*
X135342857Y-90671428D01*
X135400000Y-90671428D01*
X135485714Y-90700000D01*
X135514285Y-90728571D01*
X136085714Y-91271428D02*
X135742857Y-91271428D01*
X135914285Y-91271428D02*
X135914285Y-90671428D01*
X135857142Y-90757142D01*
X135800000Y-90814285D01*
X135742857Y-90842857D01*
X136457142Y-90671428D02*
X136514285Y-90671428D01*
X136571428Y-90700000D01*
X136600000Y-90728571D01*
X136628571Y-90785714D01*
X136657142Y-90900000D01*
X136657142Y-91042857D01*
X136628571Y-91157142D01*
X136600000Y-91214285D01*
X136571428Y-91242857D01*
X136514285Y-91271428D01*
X136457142Y-91271428D01*
X136400000Y-91242857D01*
X136371428Y-91214285D01*
X136342857Y-91157142D01*
X136314285Y-91042857D01*
X136314285Y-90900000D01*
X136342857Y-90785714D01*
X136371428Y-90728571D01*
X136400000Y-90700000D01*
X136457142Y-90671428D01*
X139550000Y-101314285D02*
X139521428Y-101342857D01*
X139435714Y-101371428D01*
X139378571Y-101371428D01*
X139292857Y-101342857D01*
X139235714Y-101285714D01*
X139207142Y-101228571D01*
X139178571Y-101114285D01*
X139178571Y-101028571D01*
X139207142Y-100914285D01*
X139235714Y-100857142D01*
X139292857Y-100800000D01*
X139378571Y-100771428D01*
X139435714Y-100771428D01*
X139521428Y-100800000D01*
X139550000Y-100828571D01*
X139750000Y-100771428D02*
X140121428Y-100771428D01*
X139921428Y-101000000D01*
X140007142Y-101000000D01*
X140064285Y-101028571D01*
X140092857Y-101057142D01*
X140121428Y-101114285D01*
X140121428Y-101257142D01*
X140092857Y-101314285D01*
X140064285Y-101342857D01*
X140007142Y-101371428D01*
X139835714Y-101371428D01*
X139778571Y-101342857D01*
X139750000Y-101314285D01*
X144350000Y-95664285D02*
X144321428Y-95692857D01*
X144235714Y-95721428D01*
X144178571Y-95721428D01*
X144092857Y-95692857D01*
X144035714Y-95635714D01*
X144007142Y-95578571D01*
X143978571Y-95464285D01*
X143978571Y-95378571D01*
X144007142Y-95264285D01*
X144035714Y-95207142D01*
X144092857Y-95150000D01*
X144178571Y-95121428D01*
X144235714Y-95121428D01*
X144321428Y-95150000D01*
X144350000Y-95178571D01*
X144578571Y-95178571D02*
X144607142Y-95150000D01*
X144664285Y-95121428D01*
X144807142Y-95121428D01*
X144864285Y-95150000D01*
X144892857Y-95178571D01*
X144921428Y-95235714D01*
X144921428Y-95292857D01*
X144892857Y-95378571D01*
X144550000Y-95721428D01*
X144921428Y-95721428D01*
X149800000Y-101014285D02*
X149771428Y-101042857D01*
X149685714Y-101071428D01*
X149628571Y-101071428D01*
X149542857Y-101042857D01*
X149485714Y-100985714D01*
X149457142Y-100928571D01*
X149428571Y-100814285D01*
X149428571Y-100728571D01*
X149457142Y-100614285D01*
X149485714Y-100557142D01*
X149542857Y-100500000D01*
X149628571Y-100471428D01*
X149685714Y-100471428D01*
X149771428Y-100500000D01*
X149800000Y-100528571D01*
X150371428Y-101071428D02*
X150028571Y-101071428D01*
X150200000Y-101071428D02*
X150200000Y-100471428D01*
X150142857Y-100557142D01*
X150085714Y-100614285D01*
X150028571Y-100642857D01*
M02*
