G04 #@! TF.GenerationSoftware,KiCad,Pcbnew,(5.1.2-1)-1*
G04 #@! TF.CreationDate,2020-01-08T15:13:26-05:00*
G04 #@! TF.ProjectId,ARBO Mini,4152424f-204d-4696-9e69-2e6b69636164,rev?*
G04 #@! TF.SameCoordinates,Original*
G04 #@! TF.FileFunction,Legend,Top*
G04 #@! TF.FilePolarity,Positive*
%FSLAX46Y46*%
G04 Gerber Fmt 4.6, Leading zero omitted, Abs format (unit mm)*
G04 Created by KiCad (PCBNEW (5.1.2-1)-1) date 2020-01-08 15:13:26*
%MOMM*%
%LPD*%
G04 APERTURE LIST*
%ADD10C,0.150000*%
%ADD11C,0.080000*%
%ADD12C,0.200000*%
%ADD13C,0.010000*%
%ADD14C,0.120000*%
%ADD15C,0.100000*%
G04 APERTURE END LIST*
D10*
X107499095Y-57137761D02*
X106927666Y-57137761D01*
X106813380Y-57099666D01*
X106737190Y-57023476D01*
X106699095Y-56909190D01*
X106699095Y-56833000D01*
X106699095Y-57899666D02*
X106699095Y-57518714D01*
X107499095Y-57518714D01*
X106775285Y-58623476D02*
X106737190Y-58585380D01*
X106699095Y-58471095D01*
X106699095Y-58394904D01*
X106737190Y-58280619D01*
X106813380Y-58204428D01*
X106889571Y-58166333D01*
X107041952Y-58128238D01*
X107156238Y-58128238D01*
X107308619Y-58166333D01*
X107384809Y-58204428D01*
X107461000Y-58280619D01*
X107499095Y-58394904D01*
X107499095Y-58471095D01*
X107461000Y-58585380D01*
X107422904Y-58623476D01*
X107499095Y-59194904D02*
X106927666Y-59194904D01*
X106813380Y-59156809D01*
X106737190Y-59080619D01*
X106699095Y-58966333D01*
X106699095Y-58890142D01*
X106699095Y-59956809D02*
X106699095Y-59575857D01*
X107499095Y-59575857D01*
X106775285Y-60680619D02*
X106737190Y-60642523D01*
X106699095Y-60528238D01*
X106699095Y-60452047D01*
X106737190Y-60337761D01*
X106813380Y-60261571D01*
X106889571Y-60223476D01*
X107041952Y-60185380D01*
X107156238Y-60185380D01*
X107308619Y-60223476D01*
X107384809Y-60261571D01*
X107461000Y-60337761D01*
X107499095Y-60452047D01*
X107499095Y-60528238D01*
X107461000Y-60642523D01*
X107422904Y-60680619D01*
X107499095Y-61252047D02*
X106927666Y-61252047D01*
X106813380Y-61213952D01*
X106737190Y-61137761D01*
X106699095Y-61023476D01*
X106699095Y-60947285D01*
X106699095Y-62013952D02*
X106699095Y-61633000D01*
X107499095Y-61633000D01*
X106775285Y-62737761D02*
X106737190Y-62699666D01*
X106699095Y-62585380D01*
X106699095Y-62509190D01*
X106737190Y-62394904D01*
X106813380Y-62318714D01*
X106889571Y-62280619D01*
X107041952Y-62242523D01*
X107156238Y-62242523D01*
X107308619Y-62280619D01*
X107384809Y-62318714D01*
X107461000Y-62394904D01*
X107499095Y-62509190D01*
X107499095Y-62585380D01*
X107461000Y-62699666D01*
X107422904Y-62737761D01*
X107499095Y-63309190D02*
X106927666Y-63309190D01*
X106813380Y-63271095D01*
X106737190Y-63194904D01*
X106699095Y-63080619D01*
X106699095Y-63004428D01*
X106699095Y-64071095D02*
X106699095Y-63690142D01*
X107499095Y-63690142D01*
X106775285Y-64794904D02*
X106737190Y-64756809D01*
X106699095Y-64642523D01*
X106699095Y-64566333D01*
X106737190Y-64452047D01*
X106813380Y-64375857D01*
X106889571Y-64337761D01*
X107041952Y-64299666D01*
X107156238Y-64299666D01*
X107308619Y-64337761D01*
X107384809Y-64375857D01*
X107461000Y-64452047D01*
X107499095Y-64566333D01*
X107499095Y-64642523D01*
X107461000Y-64756809D01*
X107422904Y-64794904D01*
D11*
X134821123Y-58393133D02*
X135059219Y-58393133D01*
X134773504Y-58535990D02*
X134940171Y-58035990D01*
X135106838Y-58535990D01*
X135559219Y-58535990D02*
X135392552Y-58297895D01*
X135273504Y-58535990D02*
X135273504Y-58035990D01*
X135463980Y-58035990D01*
X135511600Y-58059800D01*
X135535409Y-58083609D01*
X135559219Y-58131228D01*
X135559219Y-58202657D01*
X135535409Y-58250276D01*
X135511600Y-58274085D01*
X135463980Y-58297895D01*
X135273504Y-58297895D01*
X135940171Y-58274085D02*
X136011600Y-58297895D01*
X136035409Y-58321704D01*
X136059219Y-58369323D01*
X136059219Y-58440752D01*
X136035409Y-58488371D01*
X136011600Y-58512180D01*
X135963980Y-58535990D01*
X135773504Y-58535990D01*
X135773504Y-58035990D01*
X135940171Y-58035990D01*
X135987790Y-58059800D01*
X136011600Y-58083609D01*
X136035409Y-58131228D01*
X136035409Y-58178847D01*
X136011600Y-58226466D01*
X135987790Y-58250276D01*
X135940171Y-58274085D01*
X135773504Y-58274085D01*
X136368742Y-58035990D02*
X136463980Y-58035990D01*
X136511600Y-58059800D01*
X136559219Y-58107419D01*
X136583028Y-58202657D01*
X136583028Y-58369323D01*
X136559219Y-58464561D01*
X136511600Y-58512180D01*
X136463980Y-58535990D01*
X136368742Y-58535990D01*
X136321123Y-58512180D01*
X136273504Y-58464561D01*
X136249695Y-58369323D01*
X136249695Y-58202657D01*
X136273504Y-58107419D01*
X136321123Y-58059800D01*
X136368742Y-58035990D01*
X137178266Y-58535990D02*
X137178266Y-58035990D01*
X137344933Y-58393133D01*
X137511600Y-58035990D01*
X137511600Y-58535990D01*
X137749695Y-58535990D02*
X137749695Y-58202657D01*
X137749695Y-58035990D02*
X137725885Y-58059800D01*
X137749695Y-58083609D01*
X137773504Y-58059800D01*
X137749695Y-58035990D01*
X137749695Y-58083609D01*
X137987790Y-58202657D02*
X137987790Y-58535990D01*
X137987790Y-58250276D02*
X138011600Y-58226466D01*
X138059219Y-58202657D01*
X138130647Y-58202657D01*
X138178266Y-58226466D01*
X138202076Y-58274085D01*
X138202076Y-58535990D01*
X138440171Y-58535990D02*
X138440171Y-58202657D01*
X138440171Y-58035990D02*
X138416361Y-58059800D01*
X138440171Y-58083609D01*
X138463980Y-58059800D01*
X138440171Y-58035990D01*
X138440171Y-58083609D01*
X139011600Y-58202657D02*
X139130647Y-58535990D01*
X139249695Y-58202657D01*
X139702076Y-58535990D02*
X139416361Y-58535990D01*
X139559219Y-58535990D02*
X139559219Y-58035990D01*
X139511600Y-58107419D01*
X139463980Y-58155038D01*
X139416361Y-58178847D01*
X139916361Y-58488371D02*
X139940171Y-58512180D01*
X139916361Y-58535990D01*
X139892552Y-58512180D01*
X139916361Y-58488371D01*
X139916361Y-58535990D01*
X140249695Y-58035990D02*
X140297314Y-58035990D01*
X140344933Y-58059800D01*
X140368742Y-58083609D01*
X140392552Y-58131228D01*
X140416361Y-58226466D01*
X140416361Y-58345514D01*
X140392552Y-58440752D01*
X140368742Y-58488371D01*
X140344933Y-58512180D01*
X140297314Y-58535990D01*
X140249695Y-58535990D01*
X140202076Y-58512180D01*
X140178266Y-58488371D01*
X140154457Y-58440752D01*
X140130647Y-58345514D01*
X140130647Y-58226466D01*
X140154457Y-58131228D01*
X140178266Y-58083609D01*
X140202076Y-58059800D01*
X140249695Y-58035990D01*
X135344933Y-59365990D02*
X135344933Y-59032657D01*
X135344933Y-59080276D02*
X135368742Y-59056466D01*
X135416361Y-59032657D01*
X135487790Y-59032657D01*
X135535409Y-59056466D01*
X135559219Y-59104085D01*
X135559219Y-59365990D01*
X135559219Y-59104085D02*
X135583028Y-59056466D01*
X135630647Y-59032657D01*
X135702076Y-59032657D01*
X135749695Y-59056466D01*
X135773504Y-59104085D01*
X135773504Y-59365990D01*
X136225885Y-59365990D02*
X136225885Y-59104085D01*
X136202076Y-59056466D01*
X136154457Y-59032657D01*
X136059219Y-59032657D01*
X136011600Y-59056466D01*
X136225885Y-59342180D02*
X136178266Y-59365990D01*
X136059219Y-59365990D01*
X136011600Y-59342180D01*
X135987790Y-59294561D01*
X135987790Y-59246942D01*
X136011600Y-59199323D01*
X136059219Y-59175514D01*
X136178266Y-59175514D01*
X136225885Y-59151704D01*
X136392552Y-59032657D02*
X136583028Y-59032657D01*
X136463980Y-58865990D02*
X136463980Y-59294561D01*
X136487790Y-59342180D01*
X136535409Y-59365990D01*
X136583028Y-59365990D01*
X136678266Y-59032657D02*
X136868742Y-59032657D01*
X136749695Y-58865990D02*
X136749695Y-59294561D01*
X136773504Y-59342180D01*
X136821123Y-59365990D01*
X136868742Y-59365990D01*
X137344933Y-59127895D02*
X137321123Y-59104085D01*
X137273504Y-59080276D01*
X137225885Y-59080276D01*
X137178266Y-59104085D01*
X137154457Y-59127895D01*
X137130647Y-59175514D01*
X137130647Y-59223133D01*
X137154457Y-59270752D01*
X137178266Y-59294561D01*
X137225885Y-59318371D01*
X137273504Y-59318371D01*
X137321123Y-59294561D01*
X137344933Y-59270752D01*
X137344933Y-59080276D02*
X137344933Y-59270752D01*
X137368742Y-59294561D01*
X137392552Y-59294561D01*
X137440171Y-59270752D01*
X137463980Y-59223133D01*
X137463980Y-59104085D01*
X137416361Y-59032657D01*
X137344933Y-58985038D01*
X137249695Y-58961228D01*
X137154457Y-58985038D01*
X137083028Y-59032657D01*
X137035409Y-59104085D01*
X137011600Y-59199323D01*
X137035409Y-59294561D01*
X137083028Y-59365990D01*
X137154457Y-59413609D01*
X137249695Y-59437419D01*
X137344933Y-59413609D01*
X137416361Y-59365990D01*
X137892552Y-59032657D02*
X137892552Y-59437419D01*
X137868742Y-59485038D01*
X137844933Y-59508847D01*
X137797314Y-59532657D01*
X137725885Y-59532657D01*
X137678266Y-59508847D01*
X137892552Y-59342180D02*
X137844933Y-59365990D01*
X137749695Y-59365990D01*
X137702076Y-59342180D01*
X137678266Y-59318371D01*
X137654457Y-59270752D01*
X137654457Y-59127895D01*
X137678266Y-59080276D01*
X137702076Y-59056466D01*
X137749695Y-59032657D01*
X137844933Y-59032657D01*
X137892552Y-59056466D01*
X138344933Y-59365990D02*
X138344933Y-59104085D01*
X138321123Y-59056466D01*
X138273504Y-59032657D01*
X138178266Y-59032657D01*
X138130647Y-59056466D01*
X138344933Y-59342180D02*
X138297314Y-59365990D01*
X138178266Y-59365990D01*
X138130647Y-59342180D01*
X138106838Y-59294561D01*
X138106838Y-59246942D01*
X138130647Y-59199323D01*
X138178266Y-59175514D01*
X138297314Y-59175514D01*
X138344933Y-59151704D01*
X138583028Y-59365990D02*
X138583028Y-59032657D01*
X138583028Y-58865990D02*
X138559219Y-58889800D01*
X138583028Y-58913609D01*
X138606838Y-58889800D01*
X138583028Y-58865990D01*
X138583028Y-58913609D01*
X139035409Y-59365990D02*
X139035409Y-58865990D01*
X139035409Y-59342180D02*
X138987790Y-59365990D01*
X138892552Y-59365990D01*
X138844933Y-59342180D01*
X138821123Y-59318371D01*
X138797314Y-59270752D01*
X138797314Y-59127895D01*
X138821123Y-59080276D01*
X138844933Y-59056466D01*
X138892552Y-59032657D01*
X138987790Y-59032657D01*
X139035409Y-59056466D01*
X139273504Y-59365990D02*
X139273504Y-59032657D01*
X139273504Y-58865990D02*
X139249695Y-58889800D01*
X139273504Y-58913609D01*
X139297314Y-58889800D01*
X139273504Y-58865990D01*
X139273504Y-58913609D01*
X139511600Y-59318371D02*
X139535409Y-59342180D01*
X139511600Y-59365990D01*
X139487790Y-59342180D01*
X139511600Y-59318371D01*
X139511600Y-59365990D01*
X139963980Y-59342180D02*
X139916361Y-59365990D01*
X139821123Y-59365990D01*
X139773504Y-59342180D01*
X139749695Y-59318371D01*
X139725885Y-59270752D01*
X139725885Y-59127895D01*
X139749695Y-59080276D01*
X139773504Y-59056466D01*
X139821123Y-59032657D01*
X139916361Y-59032657D01*
X139963980Y-59056466D01*
X140392552Y-59365990D02*
X140392552Y-59104085D01*
X140368742Y-59056466D01*
X140321123Y-59032657D01*
X140225885Y-59032657D01*
X140178266Y-59056466D01*
X140392552Y-59342180D02*
X140344933Y-59365990D01*
X140225885Y-59365990D01*
X140178266Y-59342180D01*
X140154457Y-59294561D01*
X140154457Y-59246942D01*
X140178266Y-59199323D01*
X140225885Y-59175514D01*
X140344933Y-59175514D01*
X140392552Y-59151704D01*
D12*
X134975647Y-55265628D02*
X135737552Y-55265628D01*
X135356600Y-55646580D02*
X135356600Y-54884676D01*
X134950247Y-57297628D02*
X135712152Y-57297628D01*
D13*
G36*
X137028614Y-55145758D02*
G01*
X137166797Y-55200159D01*
X137176120Y-55270890D01*
X137051713Y-55336816D01*
X136887261Y-55455297D01*
X136798579Y-55596911D01*
X136678601Y-55752517D01*
X136517824Y-55798115D01*
X136378122Y-55724860D01*
X136342684Y-55662089D01*
X136351546Y-55494190D01*
X136418477Y-55380051D01*
X136497917Y-55247605D01*
X136491074Y-55180629D01*
X136529329Y-55146053D01*
X136692464Y-55126014D01*
X136782226Y-55124000D01*
X137028614Y-55145758D01*
X137028614Y-55145758D01*
G37*
X137028614Y-55145758D02*
X137166797Y-55200159D01*
X137176120Y-55270890D01*
X137051713Y-55336816D01*
X136887261Y-55455297D01*
X136798579Y-55596911D01*
X136678601Y-55752517D01*
X136517824Y-55798115D01*
X136378122Y-55724860D01*
X136342684Y-55662089D01*
X136351546Y-55494190D01*
X136418477Y-55380051D01*
X136497917Y-55247605D01*
X136491074Y-55180629D01*
X136529329Y-55146053D01*
X136692464Y-55126014D01*
X136782226Y-55124000D01*
X137028614Y-55145758D01*
G36*
X137321471Y-55856478D02*
G01*
X137359598Y-55918470D01*
X137352569Y-56100792D01*
X137229068Y-56252139D01*
X137054346Y-56309333D01*
X136882583Y-56258256D01*
X136704880Y-56147288D01*
X136575303Y-56015553D01*
X136583009Y-55925742D01*
X136739645Y-55863289D01*
X136962133Y-55825607D01*
X137199212Y-55810691D01*
X137321471Y-55856478D01*
X137321471Y-55856478D01*
G37*
X137321471Y-55856478D02*
X137359598Y-55918470D01*
X137352569Y-56100792D01*
X137229068Y-56252139D01*
X137054346Y-56309333D01*
X136882583Y-56258256D01*
X136704880Y-56147288D01*
X136575303Y-56015553D01*
X136583009Y-55925742D01*
X136739645Y-55863289D01*
X136962133Y-55825607D01*
X137199212Y-55810691D01*
X137321471Y-55856478D01*
G36*
X138096863Y-54005712D02*
G01*
X138143948Y-54118639D01*
X138219609Y-54343509D01*
X138304012Y-54629942D01*
X138326000Y-54711305D01*
X138423943Y-54975114D01*
X138584771Y-55303170D01*
X138762999Y-55607184D01*
X138948148Y-55932725D01*
X139087284Y-56250882D01*
X139148147Y-56473269D01*
X139192656Y-56673138D01*
X139249735Y-56767648D01*
X139270178Y-56766649D01*
X139315020Y-56645753D01*
X139287577Y-56407820D01*
X139195619Y-56085026D01*
X139046920Y-55709548D01*
X138980220Y-55566077D01*
X138848964Y-55253316D01*
X138759037Y-54959172D01*
X138730784Y-54761743D01*
X138814913Y-54470165D01*
X139024131Y-54243297D01*
X139320779Y-54099075D01*
X139667201Y-54055433D01*
X140025739Y-54130309D01*
X140042325Y-54137074D01*
X140258647Y-54259888D01*
X140383517Y-54439118D01*
X140442577Y-54618142D01*
X140493392Y-54841280D01*
X140508725Y-54984808D01*
X140502898Y-55006658D01*
X140410875Y-54999039D01*
X140222877Y-54937782D01*
X140147525Y-54907653D01*
X139916682Y-54835942D01*
X139767750Y-54838254D01*
X139751651Y-54849149D01*
X139740501Y-54964926D01*
X139791546Y-55197711D01*
X139889793Y-55491873D01*
X140058872Y-56062664D01*
X140094215Y-56535935D01*
X139991826Y-56922982D01*
X139747707Y-57235104D01*
X139357863Y-57483597D01*
X139154756Y-57569794D01*
X138942612Y-57650451D01*
X139051573Y-57339726D01*
X139117140Y-56940245D01*
X139039557Y-56585980D01*
X138843497Y-56299575D01*
X138553633Y-56103674D01*
X138194637Y-56020923D01*
X137791183Y-56073967D01*
X137704936Y-56103779D01*
X137594064Y-56086084D01*
X137548904Y-55955973D01*
X137457686Y-55782181D01*
X137245834Y-55677991D01*
X137035915Y-55593145D01*
X136981978Y-55518759D01*
X137085874Y-55471328D01*
X137221688Y-55462667D01*
X137463679Y-55401647D01*
X137562292Y-55295279D01*
X137599975Y-55179159D01*
X137537573Y-55094015D01*
X137344763Y-54999578D01*
X137337263Y-54996438D01*
X137022651Y-54864985D01*
X137271984Y-54616000D01*
X137436334Y-54616000D01*
X137455527Y-54688483D01*
X137516003Y-54700667D01*
X137631846Y-54656462D01*
X137648000Y-54616000D01*
X137587233Y-54533757D01*
X137568330Y-54531333D01*
X137453663Y-54592877D01*
X137436334Y-54616000D01*
X137271984Y-54616000D01*
X137356492Y-54531611D01*
X137558171Y-54346790D01*
X137723348Y-54224517D01*
X137791960Y-54195452D01*
X137913245Y-54127240D01*
X137976506Y-54044500D01*
X138042346Y-53957394D01*
X138096863Y-54005712D01*
X138096863Y-54005712D01*
G37*
X138096863Y-54005712D02*
X138143948Y-54118639D01*
X138219609Y-54343509D01*
X138304012Y-54629942D01*
X138326000Y-54711305D01*
X138423943Y-54975114D01*
X138584771Y-55303170D01*
X138762999Y-55607184D01*
X138948148Y-55932725D01*
X139087284Y-56250882D01*
X139148147Y-56473269D01*
X139192656Y-56673138D01*
X139249735Y-56767648D01*
X139270178Y-56766649D01*
X139315020Y-56645753D01*
X139287577Y-56407820D01*
X139195619Y-56085026D01*
X139046920Y-55709548D01*
X138980220Y-55566077D01*
X138848964Y-55253316D01*
X138759037Y-54959172D01*
X138730784Y-54761743D01*
X138814913Y-54470165D01*
X139024131Y-54243297D01*
X139320779Y-54099075D01*
X139667201Y-54055433D01*
X140025739Y-54130309D01*
X140042325Y-54137074D01*
X140258647Y-54259888D01*
X140383517Y-54439118D01*
X140442577Y-54618142D01*
X140493392Y-54841280D01*
X140508725Y-54984808D01*
X140502898Y-55006658D01*
X140410875Y-54999039D01*
X140222877Y-54937782D01*
X140147525Y-54907653D01*
X139916682Y-54835942D01*
X139767750Y-54838254D01*
X139751651Y-54849149D01*
X139740501Y-54964926D01*
X139791546Y-55197711D01*
X139889793Y-55491873D01*
X140058872Y-56062664D01*
X140094215Y-56535935D01*
X139991826Y-56922982D01*
X139747707Y-57235104D01*
X139357863Y-57483597D01*
X139154756Y-57569794D01*
X138942612Y-57650451D01*
X139051573Y-57339726D01*
X139117140Y-56940245D01*
X139039557Y-56585980D01*
X138843497Y-56299575D01*
X138553633Y-56103674D01*
X138194637Y-56020923D01*
X137791183Y-56073967D01*
X137704936Y-56103779D01*
X137594064Y-56086084D01*
X137548904Y-55955973D01*
X137457686Y-55782181D01*
X137245834Y-55677991D01*
X137035915Y-55593145D01*
X136981978Y-55518759D01*
X137085874Y-55471328D01*
X137221688Y-55462667D01*
X137463679Y-55401647D01*
X137562292Y-55295279D01*
X137599975Y-55179159D01*
X137537573Y-55094015D01*
X137344763Y-54999578D01*
X137337263Y-54996438D01*
X137022651Y-54864985D01*
X137271984Y-54616000D01*
X137436334Y-54616000D01*
X137455527Y-54688483D01*
X137516003Y-54700667D01*
X137631846Y-54656462D01*
X137648000Y-54616000D01*
X137587233Y-54533757D01*
X137568330Y-54531333D01*
X137453663Y-54592877D01*
X137436334Y-54616000D01*
X137271984Y-54616000D01*
X137356492Y-54531611D01*
X137558171Y-54346790D01*
X137723348Y-54224517D01*
X137791960Y-54195452D01*
X137913245Y-54127240D01*
X137976506Y-54044500D01*
X138042346Y-53957394D01*
X138096863Y-54005712D01*
G36*
X138367667Y-56329368D02*
G01*
X138136347Y-56382850D01*
X137879696Y-56486460D01*
X137673074Y-56646528D01*
X137567812Y-56820414D01*
X137563334Y-56858838D01*
X137604342Y-56974053D01*
X137719780Y-56945010D01*
X137863178Y-56813454D01*
X138085477Y-56676690D01*
X138236133Y-56665287D01*
X138400396Y-56653432D01*
X138441899Y-56551846D01*
X138441690Y-56548862D01*
X138470068Y-56445846D01*
X138557016Y-56462820D01*
X138666903Y-56579061D01*
X138745795Y-56725733D01*
X138801480Y-57034121D01*
X138726250Y-57305741D01*
X138553308Y-57517837D01*
X138315859Y-57647650D01*
X138047107Y-57672422D01*
X137780257Y-57569396D01*
X137662759Y-57468043D01*
X137504818Y-57195387D01*
X137478477Y-56892302D01*
X137581534Y-56614294D01*
X137701752Y-56484812D01*
X137925433Y-56363419D01*
X138146252Y-56319350D01*
X138367667Y-56329368D01*
X138367667Y-56329368D01*
G37*
X138367667Y-56329368D02*
X138136347Y-56382850D01*
X137879696Y-56486460D01*
X137673074Y-56646528D01*
X137567812Y-56820414D01*
X137563334Y-56858838D01*
X137604342Y-56974053D01*
X137719780Y-56945010D01*
X137863178Y-56813454D01*
X138085477Y-56676690D01*
X138236133Y-56665287D01*
X138400396Y-56653432D01*
X138441899Y-56551846D01*
X138441690Y-56548862D01*
X138470068Y-56445846D01*
X138557016Y-56462820D01*
X138666903Y-56579061D01*
X138745795Y-56725733D01*
X138801480Y-57034121D01*
X138726250Y-57305741D01*
X138553308Y-57517837D01*
X138315859Y-57647650D01*
X138047107Y-57672422D01*
X137780257Y-57569396D01*
X137662759Y-57468043D01*
X137504818Y-57195387D01*
X137478477Y-56892302D01*
X137581534Y-56614294D01*
X137701752Y-56484812D01*
X137925433Y-56363419D01*
X138146252Y-56319350D01*
X138367667Y-56329368D01*
D14*
X110207553Y-56707000D02*
X110207553Y-56207000D01*
X109854000Y-56457000D02*
X110207553Y-56707000D01*
X110207553Y-56207000D02*
X109854000Y-56457000D01*
X106124000Y-55917000D02*
X106124000Y-65797000D01*
X109114000Y-66867000D02*
X109114000Y-65767000D01*
X107994000Y-66867000D02*
X109114000Y-66867000D01*
X109114000Y-55947000D02*
X109354000Y-55947000D01*
X109114000Y-54847000D02*
X109114000Y-55947000D01*
X107994000Y-54847000D02*
X109114000Y-54847000D01*
X132096000Y-54245000D02*
X133096000Y-54245000D01*
X132096000Y-55245000D02*
X132096000Y-54245000D01*
X133978114Y-57555000D02*
X134536000Y-57555000D01*
X133978114Y-56935000D02*
X134536000Y-56935000D01*
X134536000Y-56245000D02*
X136156000Y-56245000D01*
X134031000Y-55555000D02*
X134536000Y-55555000D01*
X134031000Y-54935000D02*
X134536000Y-54935000D01*
X136156000Y-54185000D02*
X134536000Y-54185000D01*
X136156000Y-57555000D02*
X136156000Y-54185000D01*
X134536000Y-54185000D02*
X134536000Y-57555000D01*
X112605000Y-56735000D02*
X111330000Y-56735000D01*
X122955000Y-55785000D02*
X121905000Y-55785000D01*
X122955000Y-66135000D02*
X121905000Y-66135000D01*
X112605000Y-66135000D02*
X113655000Y-66135000D01*
X112605000Y-55785000D02*
X113655000Y-55785000D01*
X112605000Y-66135000D02*
X112605000Y-65085000D01*
X122955000Y-66135000D02*
X122955000Y-65085000D01*
X122955000Y-55785000D02*
X122955000Y-56835000D01*
X112605000Y-55785000D02*
X112605000Y-56735000D01*
X134370000Y-62935000D02*
X134470000Y-62935000D01*
X134370000Y-59695000D02*
X134470000Y-59695000D01*
X134470000Y-62935000D02*
X134470000Y-59695000D01*
X132230000Y-62935000D02*
X132330000Y-62935000D01*
X132230000Y-59695000D02*
X132330000Y-59695000D01*
X132230000Y-62935000D02*
X132230000Y-59695000D01*
D15*
X134741600Y-67818000D02*
G75*
G03X134741600Y-67818000I-50000J0D01*
G01*
D14*
X128281000Y-60493000D02*
X125831000Y-60493000D01*
X126481000Y-63713000D02*
X128281000Y-63713000D01*
X126492000Y-64389000D02*
X126492000Y-56134000D01*
X131953000Y-54864000D02*
X130429000Y-54864000D01*
X126492000Y-66421000D02*
X126492000Y-65786000D01*
X127254000Y-66421000D02*
X126492000Y-66421000D01*
X131953000Y-66421000D02*
X130048000Y-66421000D01*
X131953000Y-54864000D02*
X131953000Y-66294000D01*
X134880000Y-65662400D02*
X135330000Y-65662400D01*
X134880000Y-65662400D02*
X134880000Y-65212400D01*
X135430000Y-60062400D02*
X135430000Y-60512400D01*
X137280000Y-60062400D02*
X135430000Y-60062400D01*
X139830000Y-67862400D02*
X139580000Y-67862400D01*
X139830000Y-60062400D02*
X139580000Y-60062400D01*
X137280000Y-67862400D02*
X135430000Y-67862400D01*
X135430000Y-67862400D02*
X135430000Y-67412400D01*
X125592721Y-67820000D02*
X125918279Y-67820000D01*
X125592721Y-66800000D02*
X125918279Y-66800000D01*
X111597121Y-67515200D02*
X111922679Y-67515200D01*
X111597121Y-66495200D02*
X111922679Y-66495200D01*
D10*
X110006380Y-61190333D02*
X110720666Y-61190333D01*
X110863523Y-61237952D01*
X110958761Y-61333190D01*
X111006380Y-61476047D01*
X111006380Y-61571285D01*
X110006380Y-60809380D02*
X110006380Y-60190333D01*
X110387333Y-60523666D01*
X110387333Y-60380809D01*
X110434952Y-60285571D01*
X110482571Y-60237952D01*
X110577809Y-60190333D01*
X110815904Y-60190333D01*
X110911142Y-60237952D01*
X110958761Y-60285571D01*
X111006380Y-60380809D01*
X111006380Y-60666523D01*
X110958761Y-60761761D01*
X110911142Y-60809380D01*
D15*
X111755238Y-56120952D02*
X111755238Y-56444761D01*
X111774285Y-56482857D01*
X111793333Y-56501904D01*
X111831428Y-56520952D01*
X111907619Y-56520952D01*
X111945714Y-56501904D01*
X111964761Y-56482857D01*
X111983809Y-56444761D01*
X111983809Y-56120952D01*
X112136190Y-56120952D02*
X112402857Y-56120952D01*
X112231428Y-56520952D01*
X133629466Y-63941304D02*
X133686609Y-63960352D01*
X133781847Y-63960352D01*
X133819942Y-63941304D01*
X133838990Y-63922257D01*
X133858038Y-63884161D01*
X133858038Y-63846066D01*
X133838990Y-63807971D01*
X133819942Y-63788923D01*
X133781847Y-63769876D01*
X133705657Y-63750828D01*
X133667561Y-63731780D01*
X133648514Y-63712733D01*
X133629466Y-63674638D01*
X133629466Y-63636542D01*
X133648514Y-63598447D01*
X133667561Y-63579400D01*
X133705657Y-63560352D01*
X133800895Y-63560352D01*
X133858038Y-63579400D01*
X133991371Y-63560352D02*
X134086609Y-63960352D01*
X134162800Y-63674638D01*
X134238990Y-63960352D01*
X134334228Y-63560352D01*
X134696133Y-63960352D02*
X134467561Y-63960352D01*
X134581847Y-63960352D02*
X134581847Y-63560352D01*
X134543752Y-63617495D01*
X134505657Y-63655590D01*
X134467561Y-63674638D01*
X132140333Y-66982952D02*
X132007000Y-66792476D01*
X131911761Y-66982952D02*
X131911761Y-66582952D01*
X132064142Y-66582952D01*
X132102238Y-66602000D01*
X132121285Y-66621047D01*
X132140333Y-66659142D01*
X132140333Y-66716285D01*
X132121285Y-66754380D01*
X132102238Y-66773428D01*
X132064142Y-66792476D01*
X131911761Y-66792476D01*
X132330809Y-66982952D02*
X132407000Y-66982952D01*
X132445095Y-66963904D01*
X132464142Y-66944857D01*
X132502238Y-66887714D01*
X132521285Y-66811523D01*
X132521285Y-66659142D01*
X132502238Y-66621047D01*
X132483190Y-66602000D01*
X132445095Y-66582952D01*
X132368904Y-66582952D01*
X132330809Y-66602000D01*
X132311761Y-66621047D01*
X132292714Y-66659142D01*
X132292714Y-66754380D01*
X132311761Y-66792476D01*
X132330809Y-66811523D01*
X132368904Y-66830571D01*
X132445095Y-66830571D01*
X132483190Y-66811523D01*
X132502238Y-66792476D01*
X132521285Y-66754380D01*
X131911761Y-67973552D02*
X131911761Y-67573552D01*
X132007000Y-67573552D01*
X132064142Y-67592600D01*
X132102238Y-67630695D01*
X132121285Y-67668790D01*
X132140333Y-67744980D01*
X132140333Y-67802123D01*
X132121285Y-67878314D01*
X132102238Y-67916409D01*
X132064142Y-67954504D01*
X132007000Y-67973552D01*
X131911761Y-67973552D01*
X132502238Y-67573552D02*
X132311761Y-67573552D01*
X132292714Y-67764028D01*
X132311761Y-67744980D01*
X132349857Y-67725933D01*
X132445095Y-67725933D01*
X132483190Y-67744980D01*
X132502238Y-67764028D01*
X132521285Y-67802123D01*
X132521285Y-67897361D01*
X132502238Y-67935457D01*
X132483190Y-67954504D01*
X132445095Y-67973552D01*
X132349857Y-67973552D01*
X132311761Y-67954504D01*
X132292714Y-67935457D01*
X124917238Y-60232952D02*
X124917238Y-60556761D01*
X124936285Y-60594857D01*
X124955333Y-60613904D01*
X124993428Y-60632952D01*
X125069619Y-60632952D01*
X125107714Y-60613904D01*
X125126761Y-60594857D01*
X125145809Y-60556761D01*
X125145809Y-60232952D01*
X125393428Y-60404380D02*
X125355333Y-60385333D01*
X125336285Y-60366285D01*
X125317238Y-60328190D01*
X125317238Y-60309142D01*
X125336285Y-60271047D01*
X125355333Y-60252000D01*
X125393428Y-60232952D01*
X125469619Y-60232952D01*
X125507714Y-60252000D01*
X125526761Y-60271047D01*
X125545809Y-60309142D01*
X125545809Y-60328190D01*
X125526761Y-60366285D01*
X125507714Y-60385333D01*
X125469619Y-60404380D01*
X125393428Y-60404380D01*
X125355333Y-60423428D01*
X125336285Y-60442476D01*
X125317238Y-60480571D01*
X125317238Y-60556761D01*
X125336285Y-60594857D01*
X125355333Y-60613904D01*
X125393428Y-60632952D01*
X125469619Y-60632952D01*
X125507714Y-60613904D01*
X125526761Y-60594857D01*
X125545809Y-60556761D01*
X125545809Y-60480571D01*
X125526761Y-60442476D01*
X125507714Y-60423428D01*
X125469619Y-60404380D01*
X130676666Y-54136952D02*
X130676666Y-54422666D01*
X130657619Y-54479809D01*
X130619523Y-54517904D01*
X130562380Y-54536952D01*
X130524285Y-54536952D01*
X130848095Y-54175047D02*
X130867142Y-54156000D01*
X130905238Y-54136952D01*
X131000476Y-54136952D01*
X131038571Y-54156000D01*
X131057619Y-54175047D01*
X131076666Y-54213142D01*
X131076666Y-54251238D01*
X131057619Y-54308380D01*
X130829047Y-54536952D01*
X131076666Y-54536952D01*
X134867666Y-60055152D02*
X134867666Y-60340866D01*
X134848619Y-60398009D01*
X134810523Y-60436104D01*
X134753380Y-60455152D01*
X134715285Y-60455152D01*
X135267666Y-60455152D02*
X135039095Y-60455152D01*
X135153380Y-60455152D02*
X135153380Y-60055152D01*
X135115285Y-60112295D01*
X135077190Y-60150390D01*
X135039095Y-60169438D01*
X113580857Y-55133857D02*
X113561809Y-55152904D01*
X113504666Y-55171952D01*
X113466571Y-55171952D01*
X113409428Y-55152904D01*
X113371333Y-55114809D01*
X113352285Y-55076714D01*
X113333238Y-55000523D01*
X113333238Y-54943380D01*
X113352285Y-54867190D01*
X113371333Y-54829095D01*
X113409428Y-54791000D01*
X113466571Y-54771952D01*
X113504666Y-54771952D01*
X113561809Y-54791000D01*
X113580857Y-54810047D01*
X113714190Y-54771952D02*
X113961809Y-54771952D01*
X113828476Y-54924333D01*
X113885619Y-54924333D01*
X113923714Y-54943380D01*
X113942761Y-54962428D01*
X113961809Y-55000523D01*
X113961809Y-55095761D01*
X113942761Y-55133857D01*
X113923714Y-55152904D01*
X113885619Y-55171952D01*
X113771333Y-55171952D01*
X113733238Y-55152904D01*
X113714190Y-55133857D01*
X114190380Y-54943380D02*
X114152285Y-54924333D01*
X114133238Y-54905285D01*
X114114190Y-54867190D01*
X114114190Y-54848142D01*
X114133238Y-54810047D01*
X114152285Y-54791000D01*
X114190380Y-54771952D01*
X114266571Y-54771952D01*
X114304666Y-54791000D01*
X114323714Y-54810047D01*
X114342761Y-54848142D01*
X114342761Y-54867190D01*
X114323714Y-54905285D01*
X114304666Y-54924333D01*
X114266571Y-54943380D01*
X114190380Y-54943380D01*
X114152285Y-54962428D01*
X114133238Y-54981476D01*
X114114190Y-55019571D01*
X114114190Y-55095761D01*
X114133238Y-55133857D01*
X114152285Y-55152904D01*
X114190380Y-55171952D01*
X114266571Y-55171952D01*
X114304666Y-55152904D01*
X114323714Y-55133857D01*
X114342761Y-55095761D01*
X114342761Y-55019571D01*
X114323714Y-54981476D01*
X114304666Y-54962428D01*
X114266571Y-54943380D01*
X124581457Y-66538457D02*
X124562409Y-66557504D01*
X124505266Y-66576552D01*
X124467171Y-66576552D01*
X124410028Y-66557504D01*
X124371933Y-66519409D01*
X124352885Y-66481314D01*
X124333838Y-66405123D01*
X124333838Y-66347980D01*
X124352885Y-66271790D01*
X124371933Y-66233695D01*
X124410028Y-66195600D01*
X124467171Y-66176552D01*
X124505266Y-66176552D01*
X124562409Y-66195600D01*
X124581457Y-66214647D01*
X124714790Y-66176552D02*
X124962409Y-66176552D01*
X124829076Y-66328933D01*
X124886219Y-66328933D01*
X124924314Y-66347980D01*
X124943361Y-66367028D01*
X124962409Y-66405123D01*
X124962409Y-66500361D01*
X124943361Y-66538457D01*
X124924314Y-66557504D01*
X124886219Y-66576552D01*
X124771933Y-66576552D01*
X124733838Y-66557504D01*
X124714790Y-66538457D01*
X125095742Y-66176552D02*
X125362409Y-66176552D01*
X125190980Y-66576552D01*
X122168457Y-68164057D02*
X122149409Y-68183104D01*
X122092266Y-68202152D01*
X122054171Y-68202152D01*
X121997028Y-68183104D01*
X121958933Y-68145009D01*
X121939885Y-68106914D01*
X121920838Y-68030723D01*
X121920838Y-67973580D01*
X121939885Y-67897390D01*
X121958933Y-67859295D01*
X121997028Y-67821200D01*
X122054171Y-67802152D01*
X122092266Y-67802152D01*
X122149409Y-67821200D01*
X122168457Y-67840247D01*
X122301790Y-67802152D02*
X122549409Y-67802152D01*
X122416076Y-67954533D01*
X122473219Y-67954533D01*
X122511314Y-67973580D01*
X122530361Y-67992628D01*
X122549409Y-68030723D01*
X122549409Y-68125961D01*
X122530361Y-68164057D01*
X122511314Y-68183104D01*
X122473219Y-68202152D01*
X122358933Y-68202152D01*
X122320838Y-68183104D01*
X122301790Y-68164057D01*
X122892266Y-67935485D02*
X122892266Y-68202152D01*
X122797028Y-67783104D02*
X122701790Y-68068819D01*
X122949409Y-68068819D01*
X127377857Y-67452857D02*
X127358809Y-67471904D01*
X127301666Y-67490952D01*
X127263571Y-67490952D01*
X127206428Y-67471904D01*
X127168333Y-67433809D01*
X127149285Y-67395714D01*
X127130238Y-67319523D01*
X127130238Y-67262380D01*
X127149285Y-67186190D01*
X127168333Y-67148095D01*
X127206428Y-67110000D01*
X127263571Y-67090952D01*
X127301666Y-67090952D01*
X127358809Y-67110000D01*
X127377857Y-67129047D01*
X127511190Y-67090952D02*
X127758809Y-67090952D01*
X127625476Y-67243333D01*
X127682619Y-67243333D01*
X127720714Y-67262380D01*
X127739761Y-67281428D01*
X127758809Y-67319523D01*
X127758809Y-67414761D01*
X127739761Y-67452857D01*
X127720714Y-67471904D01*
X127682619Y-67490952D01*
X127568333Y-67490952D01*
X127530238Y-67471904D01*
X127511190Y-67452857D01*
X127892142Y-67090952D02*
X128139761Y-67090952D01*
X128006428Y-67243333D01*
X128063571Y-67243333D01*
X128101666Y-67262380D01*
X128120714Y-67281428D01*
X128139761Y-67319523D01*
X128139761Y-67414761D01*
X128120714Y-67452857D01*
X128101666Y-67471904D01*
X128063571Y-67490952D01*
X127949285Y-67490952D01*
X127911190Y-67471904D01*
X127892142Y-67452857D01*
X123466257Y-54295657D02*
X123447209Y-54314704D01*
X123390066Y-54333752D01*
X123351971Y-54333752D01*
X123294828Y-54314704D01*
X123256733Y-54276609D01*
X123237685Y-54238514D01*
X123218638Y-54162323D01*
X123218638Y-54105180D01*
X123237685Y-54028990D01*
X123256733Y-53990895D01*
X123294828Y-53952800D01*
X123351971Y-53933752D01*
X123390066Y-53933752D01*
X123447209Y-53952800D01*
X123466257Y-53971847D01*
X123599590Y-53933752D02*
X123847209Y-53933752D01*
X123713876Y-54086133D01*
X123771019Y-54086133D01*
X123809114Y-54105180D01*
X123828161Y-54124228D01*
X123847209Y-54162323D01*
X123847209Y-54257561D01*
X123828161Y-54295657D01*
X123809114Y-54314704D01*
X123771019Y-54333752D01*
X123656733Y-54333752D01*
X123618638Y-54314704D01*
X123599590Y-54295657D01*
X123999590Y-53971847D02*
X124018638Y-53952800D01*
X124056733Y-53933752D01*
X124151971Y-53933752D01*
X124190066Y-53952800D01*
X124209114Y-53971847D01*
X124228161Y-54009942D01*
X124228161Y-54048038D01*
X124209114Y-54105180D01*
X123980542Y-54333752D01*
X124228161Y-54333752D01*
X129155857Y-59197857D02*
X129136809Y-59216904D01*
X129079666Y-59235952D01*
X129041571Y-59235952D01*
X128984428Y-59216904D01*
X128946333Y-59178809D01*
X128927285Y-59140714D01*
X128908238Y-59064523D01*
X128908238Y-59007380D01*
X128927285Y-58931190D01*
X128946333Y-58893095D01*
X128984428Y-58855000D01*
X129041571Y-58835952D01*
X129079666Y-58835952D01*
X129136809Y-58855000D01*
X129155857Y-58874047D01*
X129289190Y-58835952D02*
X129536809Y-58835952D01*
X129403476Y-58988333D01*
X129460619Y-58988333D01*
X129498714Y-59007380D01*
X129517761Y-59026428D01*
X129536809Y-59064523D01*
X129536809Y-59159761D01*
X129517761Y-59197857D01*
X129498714Y-59216904D01*
X129460619Y-59235952D01*
X129346333Y-59235952D01*
X129308238Y-59216904D01*
X129289190Y-59197857D01*
X129917761Y-59235952D02*
X129689190Y-59235952D01*
X129803476Y-59235952D02*
X129803476Y-58835952D01*
X129765380Y-58893095D01*
X129727285Y-58931190D01*
X129689190Y-58950238D01*
X109496257Y-67148057D02*
X109477209Y-67167104D01*
X109420066Y-67186152D01*
X109381971Y-67186152D01*
X109324828Y-67167104D01*
X109286733Y-67129009D01*
X109267685Y-67090914D01*
X109248638Y-67014723D01*
X109248638Y-66957580D01*
X109267685Y-66881390D01*
X109286733Y-66843295D01*
X109324828Y-66805200D01*
X109381971Y-66786152D01*
X109420066Y-66786152D01*
X109477209Y-66805200D01*
X109496257Y-66824247D01*
X109648638Y-66824247D02*
X109667685Y-66805200D01*
X109705780Y-66786152D01*
X109801019Y-66786152D01*
X109839114Y-66805200D01*
X109858161Y-66824247D01*
X109877209Y-66862342D01*
X109877209Y-66900438D01*
X109858161Y-66957580D01*
X109629590Y-67186152D01*
X109877209Y-67186152D01*
X110010542Y-66786152D02*
X110258161Y-66786152D01*
X110124828Y-66938533D01*
X110181971Y-66938533D01*
X110220066Y-66957580D01*
X110239114Y-66976628D01*
X110258161Y-67014723D01*
X110258161Y-67109961D01*
X110239114Y-67148057D01*
X110220066Y-67167104D01*
X110181971Y-67186152D01*
X110067685Y-67186152D01*
X110029590Y-67167104D01*
X110010542Y-67148057D01*
X109674057Y-65700257D02*
X109655009Y-65719304D01*
X109597866Y-65738352D01*
X109559771Y-65738352D01*
X109502628Y-65719304D01*
X109464533Y-65681209D01*
X109445485Y-65643114D01*
X109426438Y-65566923D01*
X109426438Y-65509780D01*
X109445485Y-65433590D01*
X109464533Y-65395495D01*
X109502628Y-65357400D01*
X109559771Y-65338352D01*
X109597866Y-65338352D01*
X109655009Y-65357400D01*
X109674057Y-65376447D01*
X109826438Y-65376447D02*
X109845485Y-65357400D01*
X109883580Y-65338352D01*
X109978819Y-65338352D01*
X110016914Y-65357400D01*
X110035961Y-65376447D01*
X110055009Y-65414542D01*
X110055009Y-65452638D01*
X110035961Y-65509780D01*
X109807390Y-65738352D01*
X110055009Y-65738352D01*
X110207390Y-65376447D02*
X110226438Y-65357400D01*
X110264533Y-65338352D01*
X110359771Y-65338352D01*
X110397866Y-65357400D01*
X110416914Y-65376447D01*
X110435961Y-65414542D01*
X110435961Y-65452638D01*
X110416914Y-65509780D01*
X110188342Y-65738352D01*
X110435961Y-65738352D01*
X129155857Y-57165857D02*
X129136809Y-57184904D01*
X129079666Y-57203952D01*
X129041571Y-57203952D01*
X128984428Y-57184904D01*
X128946333Y-57146809D01*
X128927285Y-57108714D01*
X128908238Y-57032523D01*
X128908238Y-56975380D01*
X128927285Y-56899190D01*
X128946333Y-56861095D01*
X128984428Y-56823000D01*
X129041571Y-56803952D01*
X129079666Y-56803952D01*
X129136809Y-56823000D01*
X129155857Y-56842047D01*
X129536809Y-57203952D02*
X129308238Y-57203952D01*
X129422523Y-57203952D02*
X129422523Y-56803952D01*
X129384428Y-56861095D01*
X129346333Y-56899190D01*
X129308238Y-56918238D01*
X129727285Y-57203952D02*
X129803476Y-57203952D01*
X129841571Y-57184904D01*
X129860619Y-57165857D01*
X129898714Y-57108714D01*
X129917761Y-57032523D01*
X129917761Y-56880142D01*
X129898714Y-56842047D01*
X129879666Y-56823000D01*
X129841571Y-56803952D01*
X129765380Y-56803952D01*
X129727285Y-56823000D01*
X129708238Y-56842047D01*
X129689190Y-56880142D01*
X129689190Y-56975380D01*
X129708238Y-57013476D01*
X129727285Y-57032523D01*
X129765380Y-57051571D01*
X129841571Y-57051571D01*
X129879666Y-57032523D01*
X129898714Y-57013476D01*
X129917761Y-56975380D01*
X129155857Y-58181857D02*
X129136809Y-58200904D01*
X129079666Y-58219952D01*
X129041571Y-58219952D01*
X128984428Y-58200904D01*
X128946333Y-58162809D01*
X128927285Y-58124714D01*
X128908238Y-58048523D01*
X128908238Y-57991380D01*
X128927285Y-57915190D01*
X128946333Y-57877095D01*
X128984428Y-57839000D01*
X129041571Y-57819952D01*
X129079666Y-57819952D01*
X129136809Y-57839000D01*
X129155857Y-57858047D01*
X129536809Y-58219952D02*
X129308238Y-58219952D01*
X129422523Y-58219952D02*
X129422523Y-57819952D01*
X129384428Y-57877095D01*
X129346333Y-57915190D01*
X129308238Y-57934238D01*
X129765380Y-57991380D02*
X129727285Y-57972333D01*
X129708238Y-57953285D01*
X129689190Y-57915190D01*
X129689190Y-57896142D01*
X129708238Y-57858047D01*
X129727285Y-57839000D01*
X129765380Y-57819952D01*
X129841571Y-57819952D01*
X129879666Y-57839000D01*
X129898714Y-57858047D01*
X129917761Y-57896142D01*
X129917761Y-57915190D01*
X129898714Y-57953285D01*
X129879666Y-57972333D01*
X129841571Y-57991380D01*
X129765380Y-57991380D01*
X129727285Y-58010428D01*
X129708238Y-58029476D01*
X129689190Y-58067571D01*
X129689190Y-58143761D01*
X129708238Y-58181857D01*
X129727285Y-58200904D01*
X129765380Y-58219952D01*
X129841571Y-58219952D01*
X129879666Y-58200904D01*
X129898714Y-58181857D01*
X129917761Y-58143761D01*
X129917761Y-58067571D01*
X129898714Y-58029476D01*
X129879666Y-58010428D01*
X129841571Y-57991380D01*
X124406057Y-56022857D02*
X124387009Y-56041904D01*
X124329866Y-56060952D01*
X124291771Y-56060952D01*
X124234628Y-56041904D01*
X124196533Y-56003809D01*
X124177485Y-55965714D01*
X124158438Y-55889523D01*
X124158438Y-55832380D01*
X124177485Y-55756190D01*
X124196533Y-55718095D01*
X124234628Y-55680000D01*
X124291771Y-55660952D01*
X124329866Y-55660952D01*
X124387009Y-55680000D01*
X124406057Y-55699047D01*
X124787009Y-56060952D02*
X124558438Y-56060952D01*
X124672723Y-56060952D02*
X124672723Y-55660952D01*
X124634628Y-55718095D01*
X124596533Y-55756190D01*
X124558438Y-55775238D01*
X125129866Y-55660952D02*
X125053676Y-55660952D01*
X125015580Y-55680000D01*
X124996533Y-55699047D01*
X124958438Y-55756190D01*
X124939390Y-55832380D01*
X124939390Y-55984761D01*
X124958438Y-56022857D01*
X124977485Y-56041904D01*
X125015580Y-56060952D01*
X125091771Y-56060952D01*
X125129866Y-56041904D01*
X125148914Y-56022857D01*
X125167961Y-55984761D01*
X125167961Y-55889523D01*
X125148914Y-55851428D01*
X125129866Y-55832380D01*
X125091771Y-55813333D01*
X125015580Y-55813333D01*
X124977485Y-55832380D01*
X124958438Y-55851428D01*
X124939390Y-55889523D01*
X124837857Y-57953257D02*
X124818809Y-57972304D01*
X124761666Y-57991352D01*
X124723571Y-57991352D01*
X124666428Y-57972304D01*
X124628333Y-57934209D01*
X124609285Y-57896114D01*
X124590238Y-57819923D01*
X124590238Y-57762780D01*
X124609285Y-57686590D01*
X124628333Y-57648495D01*
X124666428Y-57610400D01*
X124723571Y-57591352D01*
X124761666Y-57591352D01*
X124818809Y-57610400D01*
X124837857Y-57629447D01*
X125218809Y-57991352D02*
X124990238Y-57991352D01*
X125104523Y-57991352D02*
X125104523Y-57591352D01*
X125066428Y-57648495D01*
X125028333Y-57686590D01*
X124990238Y-57705638D01*
X125580714Y-57591352D02*
X125390238Y-57591352D01*
X125371190Y-57781828D01*
X125390238Y-57762780D01*
X125428333Y-57743733D01*
X125523571Y-57743733D01*
X125561666Y-57762780D01*
X125580714Y-57781828D01*
X125599761Y-57819923D01*
X125599761Y-57915161D01*
X125580714Y-57953257D01*
X125561666Y-57972304D01*
X125523571Y-57991352D01*
X125428333Y-57991352D01*
X125390238Y-57972304D01*
X125371190Y-57953257D01*
X126260257Y-54371857D02*
X126241209Y-54390904D01*
X126184066Y-54409952D01*
X126145971Y-54409952D01*
X126088828Y-54390904D01*
X126050733Y-54352809D01*
X126031685Y-54314714D01*
X126012638Y-54238523D01*
X126012638Y-54181380D01*
X126031685Y-54105190D01*
X126050733Y-54067095D01*
X126088828Y-54029000D01*
X126145971Y-54009952D01*
X126184066Y-54009952D01*
X126241209Y-54029000D01*
X126260257Y-54048047D01*
X126641209Y-54409952D02*
X126412638Y-54409952D01*
X126526923Y-54409952D02*
X126526923Y-54009952D01*
X126488828Y-54067095D01*
X126450733Y-54105190D01*
X126412638Y-54124238D01*
X126888828Y-54009952D02*
X126926923Y-54009952D01*
X126965019Y-54029000D01*
X126984066Y-54048047D01*
X127003114Y-54086142D01*
X127022161Y-54162333D01*
X127022161Y-54257571D01*
X127003114Y-54333761D01*
X126984066Y-54371857D01*
X126965019Y-54390904D01*
X126926923Y-54409952D01*
X126888828Y-54409952D01*
X126850733Y-54390904D01*
X126831685Y-54371857D01*
X126812638Y-54333761D01*
X126793590Y-54257571D01*
X126793590Y-54162333D01*
X126812638Y-54086142D01*
X126831685Y-54048047D01*
X126850733Y-54029000D01*
X126888828Y-54009952D01*
M02*
