G04 #@! TF.GenerationSoftware,KiCad,Pcbnew,(5.1.2-1)-1*
G04 #@! TF.CreationDate,2020-01-07T18:23:05-05:00*
G04 #@! TF.ProjectId,ARBO Mini,4152424f-204d-4696-9e69-2e6b69636164,rev?*
G04 #@! TF.SameCoordinates,Original*
G04 #@! TF.FileFunction,Copper,L3,Inr*
G04 #@! TF.FilePolarity,Positive*
%FSLAX46Y46*%
G04 Gerber Fmt 4.6, Leading zero omitted, Abs format (unit mm)*
G04 Created by KiCad (PCBNEW (5.1.2-1)-1) date 2020-01-07 18:23:05*
%MOMM*%
%LPD*%
G04 APERTURE LIST*
%ADD10O,1.350000X1.350000*%
%ADD11R,1.350000X1.350000*%
%ADD12O,1.900000X1.200000*%
%ADD13C,1.450000*%
%ADD14C,0.400000*%
%ADD15C,0.100000*%
%ADD16C,0.152400*%
G04 APERTURE END LIST*
D10*
X133096000Y-57245000D03*
D11*
X133096000Y-55245000D03*
D12*
X138430000Y-60462400D03*
X138430000Y-67462400D03*
D13*
X135730000Y-61462400D03*
X135730000Y-66462400D03*
D14*
X127469900Y-56172100D03*
X120523000Y-65265300D03*
X124637800Y-58343800D03*
X138938000Y-57150000D03*
X129392667Y-65276096D03*
X125288716Y-65515404D03*
X124890727Y-61530738D03*
X129794000Y-57302400D03*
X119507040Y-56413400D03*
X121973474Y-67523537D03*
X122631202Y-54275010D03*
X136906000Y-65659000D03*
X125349000Y-58166002D03*
X125272800Y-61163200D03*
X133147710Y-60717790D03*
X116082431Y-65260011D03*
X129565400Y-67284600D03*
X113152437Y-64523222D03*
X113436400Y-67310000D03*
X128698026Y-60291038D03*
X116014500Y-56443411D03*
X117498349Y-53949469D03*
X117723075Y-67970269D03*
X110333823Y-55807577D03*
X113060190Y-65419585D03*
X110135824Y-58631226D03*
X110159800Y-59817000D03*
X109673448Y-60200706D03*
X110270990Y-62597174D03*
X109702600Y-62865000D03*
X109671178Y-64826817D03*
X113461800Y-54423421D03*
X109681990Y-66058270D03*
X110058200Y-67894198D03*
X118888362Y-67710012D03*
X121981324Y-67023587D03*
X131191002Y-66929000D03*
X116723131Y-67962976D03*
X131713523Y-67314345D03*
X117223066Y-67971769D03*
X125679200Y-58826400D03*
X117371674Y-65368316D03*
X122080012Y-61400643D03*
X127508000Y-54300410D03*
X127343579Y-60565621D03*
X122202894Y-58221683D03*
X122123196Y-60718696D03*
X124536200Y-64211200D03*
X124841000Y-54102000D03*
X131724390Y-61976000D03*
X121914557Y-65228145D03*
X122123201Y-59334400D03*
X121980003Y-65965007D03*
X129474833Y-60046273D03*
X120025847Y-56644503D03*
X132486400Y-64541402D03*
X122186700Y-63677800D03*
X119037100Y-65260012D03*
X124543939Y-57787579D03*
X122080012Y-57737006D03*
X121259600Y-65265300D03*
X124637800Y-62763400D03*
X108026200Y-54965600D03*
X112826800Y-56507597D03*
X108534200Y-54965600D03*
X113360200Y-56388000D03*
X122179730Y-57247039D03*
X118148100Y-65260012D03*
X125024149Y-62112988D03*
X122402600Y-63195200D03*
X122080012Y-62059619D03*
X119621300Y-65265300D03*
X116223207Y-67953621D03*
X110159800Y-57658000D03*
X106121200Y-67310000D03*
X108102400Y-65201800D03*
X106121200Y-64084200D03*
X106197400Y-62992000D03*
X106095800Y-61645800D03*
X106121200Y-60833000D03*
X106121200Y-59182000D03*
X106121200Y-58166000D03*
D15*
X125503790Y-60932210D02*
X125272800Y-61163200D01*
X128908805Y-60932210D02*
X125503790Y-60932210D01*
X129123224Y-60717790D02*
X128908805Y-60932210D01*
X133147710Y-60717790D02*
X129123224Y-60717790D01*
D16*
X128698026Y-60291038D02*
X124429889Y-56022901D01*
X116435010Y-56022901D02*
X116214499Y-56243412D01*
X124429889Y-56022901D02*
X116435010Y-56022901D01*
X116214499Y-56243412D02*
X116014500Y-56443411D01*
X113528638Y-58929273D02*
X116014500Y-56443411D01*
X113528638Y-64703799D02*
X113528638Y-58929273D01*
X113436400Y-64796037D02*
X113528638Y-64703799D01*
X113436400Y-67310000D02*
X113436400Y-64796037D01*
D15*
X112802436Y-58276190D02*
X112802436Y-65161831D01*
X112802436Y-65161831D02*
X112860191Y-65219586D01*
X112860191Y-65219586D02*
X113060190Y-65419585D01*
X110333823Y-55807577D02*
X112802436Y-58276190D01*
D16*
X118888362Y-67710012D02*
X119574787Y-67023587D01*
X119574787Y-67023587D02*
X121698482Y-67023587D01*
X121698482Y-67023587D02*
X121981324Y-67023587D01*
D15*
X131191002Y-66929000D02*
X130639732Y-66377730D01*
X130639732Y-66377730D02*
X118308377Y-66377730D01*
X118308377Y-66377730D02*
X116923130Y-67762977D01*
X116923130Y-67762977D02*
X116723131Y-67962976D01*
X117423065Y-67771770D02*
X117223066Y-67971769D01*
X118617094Y-66577741D02*
X117423065Y-67771770D01*
X129376543Y-66577741D02*
X118617094Y-66577741D01*
X131713523Y-67314345D02*
X130113147Y-67314345D01*
X130113147Y-67314345D02*
X129376543Y-66577741D01*
X117371674Y-65368316D02*
X117662365Y-65659007D01*
X121880013Y-61600642D02*
X122080012Y-61400643D01*
X118605300Y-65362682D02*
X118605300Y-64875355D01*
X118308975Y-65659007D02*
X118605300Y-65362682D01*
X118605300Y-64875355D02*
X121880013Y-61600642D01*
X117662365Y-65659007D02*
X118308975Y-65659007D01*
X127343579Y-60565621D02*
X124546832Y-60565621D01*
X124546832Y-60565621D02*
X122202894Y-58221683D01*
X129489190Y-64211200D02*
X131724390Y-61976000D01*
X125450600Y-64211200D02*
X129489190Y-64211200D01*
X124536200Y-64211200D02*
X125450600Y-64211200D01*
X123519255Y-65228145D02*
X121914557Y-65228145D01*
X124536200Y-64211200D02*
X123519255Y-65228145D01*
X125450600Y-64211200D02*
X125450600Y-63068200D01*
X122123201Y-59740801D02*
X122123201Y-59334400D01*
X125450600Y-63068200D02*
X122123201Y-59740801D01*
D16*
X129474833Y-60046273D02*
X128815106Y-60706000D01*
X128524000Y-60706000D02*
X124462503Y-56644503D01*
X128815106Y-60706000D02*
X128524000Y-60706000D01*
X124462503Y-56644503D02*
X124462503Y-56614097D01*
X124462503Y-56644503D02*
X120025847Y-56644503D01*
D15*
X120619312Y-63677800D02*
X122186700Y-63677800D01*
X119037100Y-65260012D02*
X120619312Y-63677800D01*
X124543939Y-57787579D02*
X122130585Y-57787579D01*
X122130585Y-57787579D02*
X122080012Y-57737006D01*
X122523056Y-64878144D02*
X124637800Y-62763400D01*
X121746556Y-64878144D02*
X122523056Y-64878144D01*
X121397500Y-65227200D02*
X121746556Y-64878144D01*
X121259600Y-65227200D02*
X121397500Y-65227200D01*
X122179730Y-57247039D02*
X121896888Y-57247039D01*
X117862707Y-61281220D02*
X117862707Y-64974619D01*
X117862707Y-64974619D02*
X117948101Y-65060013D01*
X121896888Y-57247039D02*
X117862707Y-61281220D01*
X117948101Y-65060013D02*
X118148100Y-65260012D01*
X119621300Y-65265300D02*
X119608600Y-65252600D01*
X119621300Y-65265300D02*
X118932382Y-65954218D01*
X118932382Y-65954218D02*
X118222610Y-65954218D01*
X116423206Y-67753622D02*
X116223207Y-67953621D01*
X118222610Y-65954218D02*
X116423206Y-67753622D01*
M02*
