G04 #@! TF.GenerationSoftware,KiCad,Pcbnew,(5.1.2-1)-1*
G04 #@! TF.CreationDate,2020-01-08T15:13:26-05:00*
G04 #@! TF.ProjectId,ARBO Mini,4152424f-204d-4696-9e69-2e6b69636164,rev?*
G04 #@! TF.SameCoordinates,Original*
G04 #@! TF.FileFunction,Soldermask,Top*
G04 #@! TF.FilePolarity,Negative*
%FSLAX46Y46*%
G04 Gerber Fmt 4.6, Leading zero omitted, Abs format (unit mm)*
G04 Created by KiCad (PCBNEW (5.1.2-1)-1) date 2020-01-08 15:13:26*
%MOMM*%
%LPD*%
G04 APERTURE LIST*
%ADD10C,0.100000*%
G04 APERTURE END LIST*
D10*
G36*
X134343538Y-67449716D02*
G01*
X134364157Y-67455971D01*
X134383153Y-67466124D01*
X134399808Y-67479792D01*
X134413476Y-67496447D01*
X134423629Y-67515443D01*
X134429884Y-67536062D01*
X134432600Y-67563640D01*
X134432600Y-68072360D01*
X134429884Y-68099938D01*
X134423629Y-68120557D01*
X134413476Y-68139553D01*
X134399808Y-68156208D01*
X134383153Y-68169876D01*
X134364157Y-68180029D01*
X134343538Y-68186284D01*
X134315960Y-68189000D01*
X133857240Y-68189000D01*
X133829662Y-68186284D01*
X133809043Y-68180029D01*
X133790047Y-68169876D01*
X133773392Y-68156208D01*
X133759724Y-68139553D01*
X133749571Y-68120557D01*
X133743316Y-68099938D01*
X133740600Y-68072360D01*
X133740600Y-67563640D01*
X133743316Y-67536062D01*
X133749571Y-67515443D01*
X133759724Y-67496447D01*
X133773392Y-67479792D01*
X133790047Y-67466124D01*
X133809043Y-67455971D01*
X133829662Y-67449716D01*
X133857240Y-67447000D01*
X134315960Y-67447000D01*
X134343538Y-67449716D01*
X134343538Y-67449716D01*
G37*
G36*
X133373538Y-67449716D02*
G01*
X133394157Y-67455971D01*
X133413153Y-67466124D01*
X133429808Y-67479792D01*
X133443476Y-67496447D01*
X133453629Y-67515443D01*
X133459884Y-67536062D01*
X133462600Y-67563640D01*
X133462600Y-68072360D01*
X133459884Y-68099938D01*
X133453629Y-68120557D01*
X133443476Y-68139553D01*
X133429808Y-68156208D01*
X133413153Y-68169876D01*
X133394157Y-68180029D01*
X133373538Y-68186284D01*
X133345960Y-68189000D01*
X132887240Y-68189000D01*
X132859662Y-68186284D01*
X132839043Y-68180029D01*
X132820047Y-68169876D01*
X132803392Y-68156208D01*
X132789724Y-68139553D01*
X132779571Y-68120557D01*
X132773316Y-68099938D01*
X132770600Y-68072360D01*
X132770600Y-67563640D01*
X132773316Y-67536062D01*
X132779571Y-67515443D01*
X132789724Y-67496447D01*
X132803392Y-67479792D01*
X132820047Y-67466124D01*
X132839043Y-67455971D01*
X132859662Y-67449716D01*
X132887240Y-67447000D01*
X133345960Y-67447000D01*
X133373538Y-67449716D01*
X133373538Y-67449716D01*
G37*
G36*
X139431000Y-67424286D02*
G01*
X139431602Y-67436538D01*
X139434149Y-67462400D01*
X139431602Y-67488262D01*
X139431000Y-67500514D01*
X139431000Y-67573806D01*
X139422043Y-67590564D01*
X139417915Y-67602101D01*
X139403958Y-67648110D01*
X139384354Y-67712736D01*
X139323906Y-67825825D01*
X139242554Y-67924954D01*
X139143425Y-68006306D01*
X139030336Y-68066754D01*
X139011855Y-68072360D01*
X138907618Y-68103980D01*
X138843855Y-68110260D01*
X138811974Y-68113400D01*
X138048026Y-68113400D01*
X138016145Y-68110260D01*
X137952382Y-68103980D01*
X137848145Y-68072360D01*
X137829664Y-68066754D01*
X137716575Y-68006306D01*
X137617446Y-67924954D01*
X137536094Y-67825825D01*
X137475646Y-67712736D01*
X137456042Y-67648110D01*
X137442087Y-67602108D01*
X137432713Y-67579475D01*
X137429000Y-67573918D01*
X137429000Y-67500514D01*
X137428398Y-67488262D01*
X137425851Y-67462400D01*
X137428398Y-67436538D01*
X137429000Y-67424286D01*
X137429000Y-66211400D01*
X139431000Y-66211400D01*
X139431000Y-67424286D01*
X139431000Y-67424286D01*
G37*
G36*
X126885091Y-66788085D02*
G01*
X126919069Y-66798393D01*
X126950390Y-66815134D01*
X126977839Y-66837661D01*
X127000366Y-66865110D01*
X127017107Y-66896431D01*
X127027415Y-66930409D01*
X127031500Y-66971890D01*
X127031500Y-67648110D01*
X127027415Y-67689591D01*
X127017107Y-67723569D01*
X127000366Y-67754890D01*
X126977839Y-67782339D01*
X126950390Y-67804866D01*
X126919069Y-67821607D01*
X126885091Y-67831915D01*
X126843610Y-67836000D01*
X126242390Y-67836000D01*
X126200909Y-67831915D01*
X126166931Y-67821607D01*
X126135610Y-67804866D01*
X126108161Y-67782339D01*
X126085634Y-67754890D01*
X126068893Y-67723569D01*
X126058585Y-67689591D01*
X126054500Y-67648110D01*
X126054500Y-66971890D01*
X126058585Y-66930409D01*
X126068893Y-66896431D01*
X126085634Y-66865110D01*
X126108161Y-66837661D01*
X126135610Y-66815134D01*
X126166931Y-66798393D01*
X126200909Y-66788085D01*
X126242390Y-66784000D01*
X126843610Y-66784000D01*
X126885091Y-66788085D01*
X126885091Y-66788085D01*
G37*
G36*
X125310091Y-66788085D02*
G01*
X125344069Y-66798393D01*
X125375390Y-66815134D01*
X125402839Y-66837661D01*
X125425366Y-66865110D01*
X125442107Y-66896431D01*
X125452415Y-66930409D01*
X125456500Y-66971890D01*
X125456500Y-67648110D01*
X125452415Y-67689591D01*
X125442107Y-67723569D01*
X125425366Y-67754890D01*
X125402839Y-67782339D01*
X125375390Y-67804866D01*
X125344069Y-67821607D01*
X125310091Y-67831915D01*
X125268610Y-67836000D01*
X124667390Y-67836000D01*
X124625909Y-67831915D01*
X124591931Y-67821607D01*
X124560610Y-67804866D01*
X124533161Y-67782339D01*
X124510634Y-67754890D01*
X124493893Y-67723569D01*
X124483585Y-67689591D01*
X124479500Y-67648110D01*
X124479500Y-66971890D01*
X124483585Y-66930409D01*
X124493893Y-66896431D01*
X124510634Y-66865110D01*
X124533161Y-66837661D01*
X124560610Y-66815134D01*
X124591931Y-66798393D01*
X124625909Y-66788085D01*
X124667390Y-66784000D01*
X125268610Y-66784000D01*
X125310091Y-66788085D01*
X125310091Y-66788085D01*
G37*
G36*
X124056538Y-66027316D02*
G01*
X124077157Y-66033571D01*
X124096153Y-66043724D01*
X124112808Y-66057392D01*
X124126476Y-66074047D01*
X124136629Y-66093043D01*
X124142884Y-66113662D01*
X124145600Y-66141240D01*
X124145600Y-66649960D01*
X124142884Y-66677538D01*
X124136629Y-66698157D01*
X124126476Y-66717153D01*
X124109774Y-66737504D01*
X124099178Y-66748100D01*
X124085564Y-66768474D01*
X124076186Y-66791113D01*
X124071405Y-66815146D01*
X124071405Y-66839650D01*
X124076185Y-66863683D01*
X124085562Y-66886322D01*
X124099175Y-66906697D01*
X124109774Y-66917296D01*
X124126476Y-66937647D01*
X124136629Y-66956643D01*
X124142884Y-66977262D01*
X124145600Y-67004840D01*
X124145600Y-67513560D01*
X124142884Y-67541138D01*
X124136629Y-67561757D01*
X124126476Y-67580753D01*
X124112808Y-67597408D01*
X124096153Y-67611076D01*
X124077157Y-67621229D01*
X124056538Y-67627484D01*
X124028960Y-67630200D01*
X123570240Y-67630200D01*
X123542662Y-67627484D01*
X123522043Y-67621229D01*
X123503047Y-67611076D01*
X123486392Y-67597408D01*
X123472724Y-67580753D01*
X123462571Y-67561757D01*
X123456316Y-67541138D01*
X123453600Y-67513560D01*
X123453600Y-67004840D01*
X123456316Y-66977262D01*
X123462571Y-66956643D01*
X123472724Y-66937647D01*
X123489426Y-66917296D01*
X123500022Y-66906700D01*
X123513636Y-66886326D01*
X123523014Y-66863687D01*
X123527795Y-66839654D01*
X123527795Y-66815150D01*
X123523015Y-66791117D01*
X123513638Y-66768478D01*
X123500025Y-66748103D01*
X123489426Y-66737504D01*
X123472724Y-66717153D01*
X123462571Y-66698157D01*
X123456316Y-66677538D01*
X123453600Y-66649960D01*
X123453600Y-66141240D01*
X123456316Y-66113662D01*
X123462571Y-66093043D01*
X123472724Y-66074047D01*
X123486392Y-66057392D01*
X123503047Y-66043724D01*
X123522043Y-66033571D01*
X123542662Y-66027316D01*
X123570240Y-66024600D01*
X124028960Y-66024600D01*
X124056538Y-66027316D01*
X124056538Y-66027316D01*
G37*
G36*
X123086538Y-66027316D02*
G01*
X123107157Y-66033571D01*
X123126153Y-66043724D01*
X123142808Y-66057392D01*
X123156476Y-66074047D01*
X123166629Y-66093043D01*
X123172884Y-66113662D01*
X123175600Y-66141240D01*
X123175600Y-66649960D01*
X123172884Y-66677538D01*
X123166629Y-66698157D01*
X123156476Y-66717153D01*
X123139774Y-66737504D01*
X123129178Y-66748100D01*
X123115564Y-66768474D01*
X123106186Y-66791113D01*
X123101405Y-66815146D01*
X123101405Y-66839650D01*
X123106185Y-66863683D01*
X123115562Y-66886322D01*
X123129175Y-66906697D01*
X123139774Y-66917296D01*
X123156476Y-66937647D01*
X123166629Y-66956643D01*
X123172884Y-66977262D01*
X123175600Y-67004840D01*
X123175600Y-67513560D01*
X123172884Y-67541138D01*
X123166629Y-67561757D01*
X123156476Y-67580753D01*
X123142808Y-67597408D01*
X123126153Y-67611076D01*
X123107157Y-67621229D01*
X123086538Y-67627484D01*
X123058960Y-67630200D01*
X122600240Y-67630200D01*
X122572662Y-67627484D01*
X122552043Y-67621229D01*
X122533047Y-67611076D01*
X122516392Y-67597408D01*
X122502724Y-67580753D01*
X122492571Y-67561757D01*
X122486316Y-67541138D01*
X122483600Y-67513560D01*
X122483600Y-67004840D01*
X122486316Y-66977262D01*
X122492571Y-66956643D01*
X122502724Y-66937647D01*
X122519426Y-66917296D01*
X122530022Y-66906700D01*
X122543636Y-66886326D01*
X122553014Y-66863687D01*
X122557795Y-66839654D01*
X122557795Y-66815150D01*
X122553015Y-66791117D01*
X122543638Y-66768478D01*
X122530025Y-66748103D01*
X122519426Y-66737504D01*
X122502724Y-66717153D01*
X122492571Y-66698157D01*
X122486316Y-66677538D01*
X122483600Y-66649960D01*
X122483600Y-66141240D01*
X122486316Y-66113662D01*
X122492571Y-66093043D01*
X122502724Y-66074047D01*
X122516392Y-66057392D01*
X122533047Y-66043724D01*
X122552043Y-66033571D01*
X122572662Y-66027316D01*
X122600240Y-66024600D01*
X123058960Y-66024600D01*
X123086538Y-66027316D01*
X123086538Y-66027316D01*
G37*
G36*
X112889491Y-66483285D02*
G01*
X112923469Y-66493593D01*
X112954790Y-66510334D01*
X112982239Y-66532861D01*
X113004766Y-66560310D01*
X113021507Y-66591631D01*
X113031815Y-66625609D01*
X113035900Y-66667090D01*
X113035900Y-67343310D01*
X113031815Y-67384791D01*
X113021507Y-67418769D01*
X113004766Y-67450090D01*
X112982239Y-67477539D01*
X112954790Y-67500066D01*
X112923469Y-67516807D01*
X112889491Y-67527115D01*
X112848010Y-67531200D01*
X112246790Y-67531200D01*
X112205309Y-67527115D01*
X112171331Y-67516807D01*
X112140010Y-67500066D01*
X112112561Y-67477539D01*
X112090034Y-67450090D01*
X112073293Y-67418769D01*
X112062985Y-67384791D01*
X112058900Y-67343310D01*
X112058900Y-66667090D01*
X112062985Y-66625609D01*
X112073293Y-66591631D01*
X112090034Y-66560310D01*
X112112561Y-66532861D01*
X112140010Y-66510334D01*
X112171331Y-66493593D01*
X112205309Y-66483285D01*
X112246790Y-66479200D01*
X112848010Y-66479200D01*
X112889491Y-66483285D01*
X112889491Y-66483285D01*
G37*
G36*
X111314491Y-66483285D02*
G01*
X111348469Y-66493593D01*
X111379790Y-66510334D01*
X111407239Y-66532861D01*
X111429766Y-66560310D01*
X111446507Y-66591631D01*
X111456815Y-66625609D01*
X111460900Y-66667090D01*
X111460900Y-67343310D01*
X111456815Y-67384791D01*
X111446507Y-67418769D01*
X111429766Y-67450090D01*
X111407239Y-67477539D01*
X111379790Y-67500066D01*
X111348469Y-67516807D01*
X111314491Y-67527115D01*
X111273010Y-67531200D01*
X110671790Y-67531200D01*
X110630309Y-67527115D01*
X110596331Y-67516807D01*
X110565010Y-67500066D01*
X110537561Y-67477539D01*
X110515034Y-67450090D01*
X110498293Y-67418769D01*
X110487985Y-67384791D01*
X110483900Y-67343310D01*
X110483900Y-66667090D01*
X110487985Y-66625609D01*
X110498293Y-66591631D01*
X110515034Y-66560310D01*
X110537561Y-66532861D01*
X110565010Y-66510334D01*
X110596331Y-66493593D01*
X110630309Y-66483285D01*
X110671790Y-66479200D01*
X111273010Y-66479200D01*
X111314491Y-66483285D01*
X111314491Y-66483285D01*
G37*
G36*
X121731000Y-67461000D02*
G01*
X113829000Y-67461000D01*
X113829000Y-65859000D01*
X121731000Y-65859000D01*
X121731000Y-67461000D01*
X121731000Y-67461000D01*
G37*
G36*
X135956348Y-60716220D02*
G01*
X135956350Y-60716221D01*
X135956351Y-60716221D01*
X136097574Y-60774717D01*
X136097577Y-60774719D01*
X136224669Y-60859639D01*
X136332761Y-60967731D01*
X136405865Y-61077139D01*
X136417683Y-61094826D01*
X136476179Y-61236049D01*
X136476180Y-61236052D01*
X136506000Y-61385969D01*
X136506000Y-61538831D01*
X136489713Y-61620714D01*
X136476179Y-61688751D01*
X136417683Y-61829974D01*
X136417681Y-61829977D01*
X136332761Y-61957069D01*
X136224669Y-62065161D01*
X136139940Y-62121775D01*
X136097574Y-62150083D01*
X136047272Y-62170919D01*
X136025664Y-62182468D01*
X136006722Y-62198014D01*
X135991177Y-62216956D01*
X135979626Y-62238566D01*
X135972513Y-62262015D01*
X135970111Y-62286401D01*
X135972513Y-62310787D01*
X135979626Y-62334236D01*
X135991177Y-62355847D01*
X136006723Y-62374789D01*
X136025665Y-62390334D01*
X136047275Y-62401885D01*
X136070724Y-62408998D01*
X136095110Y-62411400D01*
X136456000Y-62411400D01*
X136456000Y-65513400D01*
X136095110Y-65513400D01*
X136070724Y-65515802D01*
X136047275Y-65522915D01*
X136025664Y-65534466D01*
X136006722Y-65550011D01*
X135991177Y-65568953D01*
X135979626Y-65590564D01*
X135972513Y-65614013D01*
X135970111Y-65638399D01*
X135972513Y-65662785D01*
X135979626Y-65686234D01*
X135991177Y-65707845D01*
X136006722Y-65726787D01*
X136025664Y-65742332D01*
X136047272Y-65753881D01*
X136097574Y-65774717D01*
X136097575Y-65774718D01*
X136224669Y-65859639D01*
X136332761Y-65967731D01*
X136379559Y-66037769D01*
X136417683Y-66094826D01*
X136465969Y-66211400D01*
X136476180Y-66236052D01*
X136506000Y-66385969D01*
X136506000Y-66538831D01*
X136478410Y-66677538D01*
X136476179Y-66688751D01*
X136417683Y-66829974D01*
X136417681Y-66829977D01*
X136332761Y-66957069D01*
X136224669Y-67065161D01*
X136139304Y-67122200D01*
X136097574Y-67150083D01*
X135956351Y-67208579D01*
X135956350Y-67208579D01*
X135956348Y-67208580D01*
X135806431Y-67238400D01*
X135653569Y-67238400D01*
X135503652Y-67208580D01*
X135503650Y-67208579D01*
X135503649Y-67208579D01*
X135362426Y-67150083D01*
X135320696Y-67122200D01*
X135235331Y-67065161D01*
X135127239Y-66957069D01*
X135042319Y-66829977D01*
X135042317Y-66829974D01*
X134983821Y-66688751D01*
X134981591Y-66677538D01*
X134954000Y-66538831D01*
X134954000Y-66385969D01*
X134983820Y-66236052D01*
X134994031Y-66211400D01*
X135042317Y-66094826D01*
X135080441Y-66037769D01*
X135127239Y-65967731D01*
X135235331Y-65859639D01*
X135362425Y-65774718D01*
X135362426Y-65774717D01*
X135412728Y-65753881D01*
X135434336Y-65742332D01*
X135453278Y-65726786D01*
X135468823Y-65707844D01*
X135480374Y-65686234D01*
X135487487Y-65662785D01*
X135489889Y-65638399D01*
X135487487Y-65614013D01*
X135480374Y-65590564D01*
X135468823Y-65568953D01*
X135453277Y-65550011D01*
X135434335Y-65534466D01*
X135412725Y-65522915D01*
X135389276Y-65515802D01*
X135364890Y-65513400D01*
X135004000Y-65513400D01*
X135004000Y-62411400D01*
X135364890Y-62411400D01*
X135389276Y-62408998D01*
X135412725Y-62401885D01*
X135434336Y-62390334D01*
X135453278Y-62374789D01*
X135468823Y-62355847D01*
X135480374Y-62334236D01*
X135487487Y-62310787D01*
X135489889Y-62286401D01*
X135487487Y-62262015D01*
X135480374Y-62238566D01*
X135468823Y-62216955D01*
X135453278Y-62198013D01*
X135434336Y-62182468D01*
X135412728Y-62170919D01*
X135362426Y-62150083D01*
X135320060Y-62121775D01*
X135235331Y-62065161D01*
X135127239Y-61957069D01*
X135042319Y-61829977D01*
X135042317Y-61829974D01*
X134983821Y-61688751D01*
X134970288Y-61620714D01*
X134954000Y-61538831D01*
X134954000Y-61385969D01*
X134983820Y-61236052D01*
X134983821Y-61236049D01*
X135042317Y-61094826D01*
X135054135Y-61077139D01*
X135127239Y-60967731D01*
X135235331Y-60859639D01*
X135362423Y-60774719D01*
X135362426Y-60774717D01*
X135503649Y-60716221D01*
X135503650Y-60716221D01*
X135503652Y-60716220D01*
X135653569Y-60686400D01*
X135806431Y-60686400D01*
X135956348Y-60716220D01*
X135956348Y-60716220D01*
G37*
G36*
X133373538Y-66382916D02*
G01*
X133394157Y-66389171D01*
X133413153Y-66399324D01*
X133429808Y-66412992D01*
X133443476Y-66429647D01*
X133453629Y-66448643D01*
X133459884Y-66469262D01*
X133462600Y-66496840D01*
X133462600Y-67005560D01*
X133459884Y-67033138D01*
X133453629Y-67053757D01*
X133443476Y-67072753D01*
X133429808Y-67089408D01*
X133413153Y-67103076D01*
X133394157Y-67113229D01*
X133373538Y-67119484D01*
X133345960Y-67122200D01*
X132887240Y-67122200D01*
X132859662Y-67119484D01*
X132839043Y-67113229D01*
X132820047Y-67103076D01*
X132803392Y-67089408D01*
X132789724Y-67072753D01*
X132779571Y-67053757D01*
X132773316Y-67033138D01*
X132770600Y-67005560D01*
X132770600Y-66496840D01*
X132773316Y-66469262D01*
X132779571Y-66448643D01*
X132789724Y-66429647D01*
X132803392Y-66412992D01*
X132820047Y-66399324D01*
X132839043Y-66389171D01*
X132859662Y-66382916D01*
X132887240Y-66380200D01*
X133345960Y-66380200D01*
X133373538Y-66382916D01*
X133373538Y-66382916D01*
G37*
G36*
X134343538Y-66382916D02*
G01*
X134364157Y-66389171D01*
X134383153Y-66399324D01*
X134399808Y-66412992D01*
X134413476Y-66429647D01*
X134423629Y-66448643D01*
X134429884Y-66469262D01*
X134432600Y-66496840D01*
X134432600Y-67005560D01*
X134429884Y-67033138D01*
X134423629Y-67053757D01*
X134413476Y-67072753D01*
X134399808Y-67089408D01*
X134383153Y-67103076D01*
X134364157Y-67113229D01*
X134343538Y-67119484D01*
X134315960Y-67122200D01*
X133857240Y-67122200D01*
X133829662Y-67119484D01*
X133809043Y-67113229D01*
X133790047Y-67103076D01*
X133773392Y-67089408D01*
X133759724Y-67072753D01*
X133749571Y-67053757D01*
X133743316Y-67033138D01*
X133740600Y-67005560D01*
X133740600Y-66496840D01*
X133743316Y-66469262D01*
X133749571Y-66448643D01*
X133759724Y-66429647D01*
X133773392Y-66412992D01*
X133790047Y-66399324D01*
X133809043Y-66389171D01*
X133829662Y-66382916D01*
X133857240Y-66380200D01*
X134315960Y-66380200D01*
X134343538Y-66382916D01*
X134343538Y-66382916D01*
G37*
G36*
X107633560Y-66010205D02*
G01*
X107668713Y-66020869D01*
X107701110Y-66038186D01*
X107729509Y-66061491D01*
X107752814Y-66089890D01*
X107770131Y-66122287D01*
X107780795Y-66157440D01*
X107785000Y-66200140D01*
X107785000Y-66813860D01*
X107780795Y-66856560D01*
X107770131Y-66891713D01*
X107752814Y-66924110D01*
X107729509Y-66952509D01*
X107701110Y-66975814D01*
X107668713Y-66993131D01*
X107633560Y-67003795D01*
X107590860Y-67008000D01*
X106277140Y-67008000D01*
X106234440Y-67003795D01*
X106199287Y-66993131D01*
X106166890Y-66975814D01*
X106138491Y-66952509D01*
X106115186Y-66924110D01*
X106097869Y-66891713D01*
X106087205Y-66856560D01*
X106083000Y-66813860D01*
X106083000Y-66200140D01*
X106087205Y-66157440D01*
X106097869Y-66122287D01*
X106115186Y-66089890D01*
X106138491Y-66061491D01*
X106166890Y-66038186D01*
X106199287Y-66020869D01*
X106234440Y-66010205D01*
X106277140Y-66006000D01*
X107590860Y-66006000D01*
X107633560Y-66010205D01*
X107633560Y-66010205D01*
G37*
G36*
X127281000Y-65349001D02*
G01*
X127283402Y-65373387D01*
X127290515Y-65396836D01*
X127302066Y-65418447D01*
X127317611Y-65437389D01*
X127336553Y-65452934D01*
X127358164Y-65464485D01*
X127381613Y-65471598D01*
X127405999Y-65474000D01*
X128194001Y-65474000D01*
X128218387Y-65471598D01*
X128241836Y-65464485D01*
X128263447Y-65452934D01*
X128282389Y-65437389D01*
X128297934Y-65418447D01*
X128309485Y-65396836D01*
X128316598Y-65373387D01*
X128319000Y-65349001D01*
X128319000Y-65024000D01*
X129821000Y-65024000D01*
X129821000Y-66576000D01*
X127429000Y-66576000D01*
X127429000Y-65750999D01*
X127426598Y-65726613D01*
X127419485Y-65703164D01*
X127407934Y-65681553D01*
X127392389Y-65662611D01*
X127373447Y-65647066D01*
X127351836Y-65635515D01*
X127328387Y-65628402D01*
X127304001Y-65626000D01*
X126329000Y-65626000D01*
X126329000Y-64574000D01*
X127281000Y-64574000D01*
X127281000Y-65349001D01*
X127281000Y-65349001D01*
G37*
G36*
X112220138Y-65189116D02*
G01*
X112240757Y-65195371D01*
X112259753Y-65205524D01*
X112276408Y-65219192D01*
X112290076Y-65235847D01*
X112300229Y-65254843D01*
X112306484Y-65275462D01*
X112309200Y-65303040D01*
X112309200Y-65811760D01*
X112306484Y-65839338D01*
X112300229Y-65859957D01*
X112290076Y-65878953D01*
X112276408Y-65895608D01*
X112259753Y-65909276D01*
X112240757Y-65919429D01*
X112220138Y-65925684D01*
X112192560Y-65928400D01*
X111733840Y-65928400D01*
X111706262Y-65925684D01*
X111685643Y-65919429D01*
X111666647Y-65909276D01*
X111649992Y-65895608D01*
X111636324Y-65878953D01*
X111626171Y-65859957D01*
X111619916Y-65839338D01*
X111617200Y-65811760D01*
X111617200Y-65303040D01*
X111619916Y-65275462D01*
X111626171Y-65254843D01*
X111636324Y-65235847D01*
X111649992Y-65219192D01*
X111666647Y-65205524D01*
X111685643Y-65195371D01*
X111706262Y-65189116D01*
X111733840Y-65186400D01*
X112192560Y-65186400D01*
X112220138Y-65189116D01*
X112220138Y-65189116D01*
G37*
G36*
X111250138Y-65189116D02*
G01*
X111270757Y-65195371D01*
X111289753Y-65205524D01*
X111306408Y-65219192D01*
X111320076Y-65235847D01*
X111330229Y-65254843D01*
X111336484Y-65275462D01*
X111339200Y-65303040D01*
X111339200Y-65811760D01*
X111336484Y-65839338D01*
X111330229Y-65859957D01*
X111320076Y-65878953D01*
X111306408Y-65895608D01*
X111289753Y-65909276D01*
X111270757Y-65919429D01*
X111250138Y-65925684D01*
X111222560Y-65928400D01*
X110763840Y-65928400D01*
X110736262Y-65925684D01*
X110715643Y-65919429D01*
X110696647Y-65909276D01*
X110679992Y-65895608D01*
X110666324Y-65878953D01*
X110656171Y-65859957D01*
X110649916Y-65839338D01*
X110647200Y-65811760D01*
X110647200Y-65303040D01*
X110649916Y-65275462D01*
X110656171Y-65254843D01*
X110666324Y-65235847D01*
X110679992Y-65219192D01*
X110696647Y-65205524D01*
X110715643Y-65195371D01*
X110736262Y-65189116D01*
X110763840Y-65186400D01*
X111222560Y-65186400D01*
X111250138Y-65189116D01*
X111250138Y-65189116D01*
G37*
G36*
X139431000Y-65763400D02*
G01*
X137429000Y-65763400D01*
X137429000Y-64161400D01*
X139431000Y-64161400D01*
X139431000Y-65763400D01*
X139431000Y-65763400D01*
G37*
G36*
X109334051Y-56158284D02*
G01*
X109350443Y-56163257D01*
X109365555Y-56171334D01*
X109378798Y-56182202D01*
X109389666Y-56195445D01*
X109397743Y-56210557D01*
X109402716Y-56226949D01*
X109405000Y-56250141D01*
X109405000Y-56663859D01*
X109402716Y-56687051D01*
X109397743Y-56703443D01*
X109389666Y-56718555D01*
X109378798Y-56731798D01*
X109365553Y-56742667D01*
X109357894Y-56746761D01*
X109337520Y-56760374D01*
X109320193Y-56777701D01*
X109306579Y-56798076D01*
X109297202Y-56820714D01*
X109292421Y-56844748D01*
X109292421Y-56869252D01*
X109297201Y-56893285D01*
X109306579Y-56915924D01*
X109320192Y-56936298D01*
X109337519Y-56953625D01*
X109357894Y-56967239D01*
X109365553Y-56971333D01*
X109378798Y-56982202D01*
X109389666Y-56995445D01*
X109397743Y-57010557D01*
X109402716Y-57026949D01*
X109405000Y-57050141D01*
X109405000Y-57463859D01*
X109402716Y-57487051D01*
X109397743Y-57503443D01*
X109389666Y-57518555D01*
X109378798Y-57531798D01*
X109365553Y-57542667D01*
X109357894Y-57546761D01*
X109337520Y-57560374D01*
X109320193Y-57577701D01*
X109306579Y-57598076D01*
X109297202Y-57620714D01*
X109292421Y-57644748D01*
X109292421Y-57669252D01*
X109297201Y-57693285D01*
X109306579Y-57715924D01*
X109320192Y-57736298D01*
X109337519Y-57753625D01*
X109357894Y-57767239D01*
X109365553Y-57771333D01*
X109378798Y-57782202D01*
X109389666Y-57795445D01*
X109397743Y-57810557D01*
X109402716Y-57826949D01*
X109405000Y-57850141D01*
X109405000Y-58263859D01*
X109402716Y-58287051D01*
X109397743Y-58303443D01*
X109389666Y-58318555D01*
X109378798Y-58331798D01*
X109365553Y-58342667D01*
X109357894Y-58346761D01*
X109337520Y-58360374D01*
X109320193Y-58377701D01*
X109306579Y-58398076D01*
X109297202Y-58420714D01*
X109292421Y-58444748D01*
X109292421Y-58469252D01*
X109297201Y-58493285D01*
X109306579Y-58515924D01*
X109320192Y-58536298D01*
X109337519Y-58553625D01*
X109357894Y-58567239D01*
X109365553Y-58571333D01*
X109378798Y-58582202D01*
X109389666Y-58595445D01*
X109397743Y-58610557D01*
X109402716Y-58626949D01*
X109405000Y-58650141D01*
X109405000Y-59063859D01*
X109402716Y-59087051D01*
X109397743Y-59103443D01*
X109389666Y-59118555D01*
X109378798Y-59131798D01*
X109365553Y-59142667D01*
X109357894Y-59146761D01*
X109337520Y-59160374D01*
X109320193Y-59177701D01*
X109306579Y-59198076D01*
X109297202Y-59220714D01*
X109292421Y-59244748D01*
X109292421Y-59269252D01*
X109297201Y-59293285D01*
X109306579Y-59315924D01*
X109320192Y-59336298D01*
X109337519Y-59353625D01*
X109357894Y-59367239D01*
X109365553Y-59371333D01*
X109378798Y-59382202D01*
X109389666Y-59395445D01*
X109397743Y-59410557D01*
X109402716Y-59426949D01*
X109405000Y-59450141D01*
X109405000Y-59863859D01*
X109402716Y-59887051D01*
X109397743Y-59903443D01*
X109389666Y-59918555D01*
X109378798Y-59931798D01*
X109365553Y-59942667D01*
X109357894Y-59946761D01*
X109337520Y-59960374D01*
X109320193Y-59977701D01*
X109306579Y-59998076D01*
X109297202Y-60020714D01*
X109292421Y-60044748D01*
X109292421Y-60069252D01*
X109297201Y-60093285D01*
X109306579Y-60115924D01*
X109320192Y-60136298D01*
X109337519Y-60153625D01*
X109357894Y-60167239D01*
X109365553Y-60171333D01*
X109378798Y-60182202D01*
X109389666Y-60195445D01*
X109397743Y-60210557D01*
X109402716Y-60226949D01*
X109405000Y-60250141D01*
X109405000Y-60663859D01*
X109402716Y-60687051D01*
X109397743Y-60703443D01*
X109389666Y-60718555D01*
X109378798Y-60731798D01*
X109365553Y-60742667D01*
X109357894Y-60746761D01*
X109337520Y-60760374D01*
X109320193Y-60777701D01*
X109306579Y-60798076D01*
X109297202Y-60820714D01*
X109292421Y-60844748D01*
X109292421Y-60869252D01*
X109297201Y-60893285D01*
X109306579Y-60915924D01*
X109320192Y-60936298D01*
X109337519Y-60953625D01*
X109357894Y-60967239D01*
X109365553Y-60971333D01*
X109378798Y-60982202D01*
X109389666Y-60995445D01*
X109397743Y-61010557D01*
X109402716Y-61026949D01*
X109405000Y-61050141D01*
X109405000Y-61463859D01*
X109402716Y-61487051D01*
X109397743Y-61503443D01*
X109389666Y-61518555D01*
X109378798Y-61531798D01*
X109365553Y-61542667D01*
X109357894Y-61546761D01*
X109337520Y-61560374D01*
X109320193Y-61577701D01*
X109306579Y-61598076D01*
X109297202Y-61620714D01*
X109292421Y-61644748D01*
X109292421Y-61669252D01*
X109297201Y-61693285D01*
X109306579Y-61715924D01*
X109320192Y-61736298D01*
X109337519Y-61753625D01*
X109357894Y-61767239D01*
X109365553Y-61771333D01*
X109378798Y-61782202D01*
X109389666Y-61795445D01*
X109397743Y-61810557D01*
X109402716Y-61826949D01*
X109405000Y-61850141D01*
X109405000Y-62263859D01*
X109402716Y-62287051D01*
X109397743Y-62303443D01*
X109389666Y-62318555D01*
X109378798Y-62331798D01*
X109365553Y-62342667D01*
X109357894Y-62346761D01*
X109337520Y-62360374D01*
X109320193Y-62377701D01*
X109306579Y-62398076D01*
X109297202Y-62420714D01*
X109292421Y-62444748D01*
X109292421Y-62469252D01*
X109297201Y-62493285D01*
X109306579Y-62515924D01*
X109320192Y-62536298D01*
X109337519Y-62553625D01*
X109357894Y-62567239D01*
X109365553Y-62571333D01*
X109378798Y-62582202D01*
X109389666Y-62595445D01*
X109397743Y-62610557D01*
X109402716Y-62626949D01*
X109405000Y-62650141D01*
X109405000Y-63063859D01*
X109402716Y-63087051D01*
X109397743Y-63103443D01*
X109389666Y-63118555D01*
X109378798Y-63131798D01*
X109365553Y-63142667D01*
X109357894Y-63146761D01*
X109337520Y-63160374D01*
X109320193Y-63177701D01*
X109306579Y-63198076D01*
X109297202Y-63220714D01*
X109292421Y-63244748D01*
X109292421Y-63269252D01*
X109297201Y-63293285D01*
X109306579Y-63315924D01*
X109320192Y-63336298D01*
X109337519Y-63353625D01*
X109357894Y-63367239D01*
X109365553Y-63371333D01*
X109378798Y-63382202D01*
X109389666Y-63395445D01*
X109397743Y-63410557D01*
X109402716Y-63426949D01*
X109405000Y-63450141D01*
X109405000Y-63863859D01*
X109402716Y-63887051D01*
X109397743Y-63903443D01*
X109389666Y-63918555D01*
X109378798Y-63931798D01*
X109365553Y-63942667D01*
X109357894Y-63946761D01*
X109337520Y-63960374D01*
X109320193Y-63977701D01*
X109306579Y-63998076D01*
X109297202Y-64020714D01*
X109292421Y-64044748D01*
X109292421Y-64069252D01*
X109297201Y-64093285D01*
X109306579Y-64115924D01*
X109320192Y-64136298D01*
X109337519Y-64153625D01*
X109357894Y-64167239D01*
X109365553Y-64171333D01*
X109378798Y-64182202D01*
X109389666Y-64195445D01*
X109397743Y-64210557D01*
X109402716Y-64226949D01*
X109405000Y-64250141D01*
X109405000Y-64663859D01*
X109402716Y-64687051D01*
X109397743Y-64703443D01*
X109389666Y-64718555D01*
X109378798Y-64731798D01*
X109365553Y-64742667D01*
X109357894Y-64746761D01*
X109337520Y-64760374D01*
X109320193Y-64777701D01*
X109306579Y-64798076D01*
X109297202Y-64820714D01*
X109292421Y-64844748D01*
X109292421Y-64869252D01*
X109297201Y-64893285D01*
X109306579Y-64915924D01*
X109320192Y-64936298D01*
X109337519Y-64953625D01*
X109357894Y-64967239D01*
X109365553Y-64971333D01*
X109378798Y-64982202D01*
X109389666Y-64995445D01*
X109397743Y-65010557D01*
X109402716Y-65026949D01*
X109405000Y-65050141D01*
X109405000Y-65463859D01*
X109402716Y-65487051D01*
X109397743Y-65503443D01*
X109389666Y-65518555D01*
X109378798Y-65531798D01*
X109365555Y-65542666D01*
X109350443Y-65550743D01*
X109334051Y-65555716D01*
X109310859Y-65558000D01*
X108397141Y-65558000D01*
X108373949Y-65555716D01*
X108357557Y-65550743D01*
X108342445Y-65542666D01*
X108329202Y-65531798D01*
X108318334Y-65518555D01*
X108310257Y-65503443D01*
X108305284Y-65487051D01*
X108303000Y-65463859D01*
X108303000Y-65050141D01*
X108305284Y-65026949D01*
X108310257Y-65010557D01*
X108318334Y-64995445D01*
X108329202Y-64982202D01*
X108342447Y-64971333D01*
X108350106Y-64967239D01*
X108370480Y-64953626D01*
X108387807Y-64936299D01*
X108401421Y-64915924D01*
X108410798Y-64893286D01*
X108415579Y-64869252D01*
X108415579Y-64844748D01*
X108410799Y-64820715D01*
X108401421Y-64798076D01*
X108387808Y-64777702D01*
X108370481Y-64760375D01*
X108350106Y-64746761D01*
X108342447Y-64742667D01*
X108329202Y-64731798D01*
X108318334Y-64718555D01*
X108310257Y-64703443D01*
X108305284Y-64687051D01*
X108303000Y-64663859D01*
X108303000Y-64250141D01*
X108305284Y-64226949D01*
X108310257Y-64210557D01*
X108318334Y-64195445D01*
X108329202Y-64182202D01*
X108342447Y-64171333D01*
X108350106Y-64167239D01*
X108370480Y-64153626D01*
X108387807Y-64136299D01*
X108401421Y-64115924D01*
X108410798Y-64093286D01*
X108415579Y-64069252D01*
X108415579Y-64044748D01*
X108410799Y-64020715D01*
X108401421Y-63998076D01*
X108387808Y-63977702D01*
X108370481Y-63960375D01*
X108350106Y-63946761D01*
X108342447Y-63942667D01*
X108329202Y-63931798D01*
X108318334Y-63918555D01*
X108310257Y-63903443D01*
X108305284Y-63887051D01*
X108303000Y-63863859D01*
X108303000Y-63450141D01*
X108305284Y-63426949D01*
X108310257Y-63410557D01*
X108318334Y-63395445D01*
X108329202Y-63382202D01*
X108342447Y-63371333D01*
X108350106Y-63367239D01*
X108370480Y-63353626D01*
X108387807Y-63336299D01*
X108401421Y-63315924D01*
X108410798Y-63293286D01*
X108415579Y-63269252D01*
X108415579Y-63244748D01*
X108410799Y-63220715D01*
X108401421Y-63198076D01*
X108387808Y-63177702D01*
X108370481Y-63160375D01*
X108350106Y-63146761D01*
X108342447Y-63142667D01*
X108329202Y-63131798D01*
X108318334Y-63118555D01*
X108310257Y-63103443D01*
X108305284Y-63087051D01*
X108303000Y-63063859D01*
X108303000Y-62650141D01*
X108305284Y-62626949D01*
X108310257Y-62610557D01*
X108318334Y-62595445D01*
X108329202Y-62582202D01*
X108342447Y-62571333D01*
X108350106Y-62567239D01*
X108370480Y-62553626D01*
X108387807Y-62536299D01*
X108401421Y-62515924D01*
X108410798Y-62493286D01*
X108415579Y-62469252D01*
X108415579Y-62444748D01*
X108410799Y-62420715D01*
X108401421Y-62398076D01*
X108387808Y-62377702D01*
X108370481Y-62360375D01*
X108350106Y-62346761D01*
X108342447Y-62342667D01*
X108329202Y-62331798D01*
X108318334Y-62318555D01*
X108310257Y-62303443D01*
X108305284Y-62287051D01*
X108303000Y-62263859D01*
X108303000Y-61850141D01*
X108305284Y-61826949D01*
X108310257Y-61810557D01*
X108318334Y-61795445D01*
X108329202Y-61782202D01*
X108342447Y-61771333D01*
X108350106Y-61767239D01*
X108370480Y-61753626D01*
X108387807Y-61736299D01*
X108401421Y-61715924D01*
X108410798Y-61693286D01*
X108415579Y-61669252D01*
X108415579Y-61644748D01*
X108410799Y-61620715D01*
X108401421Y-61598076D01*
X108387808Y-61577702D01*
X108370481Y-61560375D01*
X108350106Y-61546761D01*
X108342447Y-61542667D01*
X108329202Y-61531798D01*
X108318334Y-61518555D01*
X108310257Y-61503443D01*
X108305284Y-61487051D01*
X108303000Y-61463859D01*
X108303000Y-61050141D01*
X108305284Y-61026949D01*
X108310257Y-61010557D01*
X108318334Y-60995445D01*
X108329202Y-60982202D01*
X108342447Y-60971333D01*
X108350106Y-60967239D01*
X108370480Y-60953626D01*
X108387807Y-60936299D01*
X108401421Y-60915924D01*
X108410798Y-60893286D01*
X108415579Y-60869252D01*
X108415579Y-60844748D01*
X108410799Y-60820715D01*
X108401421Y-60798076D01*
X108387808Y-60777702D01*
X108370481Y-60760375D01*
X108350106Y-60746761D01*
X108342447Y-60742667D01*
X108329202Y-60731798D01*
X108318334Y-60718555D01*
X108310257Y-60703443D01*
X108305284Y-60687051D01*
X108303000Y-60663859D01*
X108303000Y-60250141D01*
X108305284Y-60226949D01*
X108310257Y-60210557D01*
X108318334Y-60195445D01*
X108329202Y-60182202D01*
X108342447Y-60171333D01*
X108350106Y-60167239D01*
X108370480Y-60153626D01*
X108387807Y-60136299D01*
X108401421Y-60115924D01*
X108410798Y-60093286D01*
X108415579Y-60069252D01*
X108415579Y-60044748D01*
X108410799Y-60020715D01*
X108401421Y-59998076D01*
X108387808Y-59977702D01*
X108370481Y-59960375D01*
X108350106Y-59946761D01*
X108342447Y-59942667D01*
X108329202Y-59931798D01*
X108318334Y-59918555D01*
X108310257Y-59903443D01*
X108305284Y-59887051D01*
X108303000Y-59863859D01*
X108303000Y-59450141D01*
X108305284Y-59426949D01*
X108310257Y-59410557D01*
X108318334Y-59395445D01*
X108329202Y-59382202D01*
X108342447Y-59371333D01*
X108350106Y-59367239D01*
X108370480Y-59353626D01*
X108387807Y-59336299D01*
X108401421Y-59315924D01*
X108410798Y-59293286D01*
X108415579Y-59269252D01*
X108415579Y-59244748D01*
X108410799Y-59220715D01*
X108401421Y-59198076D01*
X108387808Y-59177702D01*
X108370481Y-59160375D01*
X108350106Y-59146761D01*
X108342447Y-59142667D01*
X108329202Y-59131798D01*
X108318334Y-59118555D01*
X108310257Y-59103443D01*
X108305284Y-59087051D01*
X108303000Y-59063859D01*
X108303000Y-58650141D01*
X108305284Y-58626949D01*
X108310257Y-58610557D01*
X108318334Y-58595445D01*
X108329202Y-58582202D01*
X108342447Y-58571333D01*
X108350106Y-58567239D01*
X108370480Y-58553626D01*
X108387807Y-58536299D01*
X108401421Y-58515924D01*
X108410798Y-58493286D01*
X108415579Y-58469252D01*
X108415579Y-58444748D01*
X108410799Y-58420715D01*
X108401421Y-58398076D01*
X108387808Y-58377702D01*
X108370481Y-58360375D01*
X108350106Y-58346761D01*
X108342447Y-58342667D01*
X108329202Y-58331798D01*
X108318334Y-58318555D01*
X108310257Y-58303443D01*
X108305284Y-58287051D01*
X108303000Y-58263859D01*
X108303000Y-57850141D01*
X108305284Y-57826949D01*
X108310257Y-57810557D01*
X108318334Y-57795445D01*
X108329202Y-57782202D01*
X108342447Y-57771333D01*
X108350106Y-57767239D01*
X108370480Y-57753626D01*
X108387807Y-57736299D01*
X108401421Y-57715924D01*
X108410798Y-57693286D01*
X108415579Y-57669252D01*
X108415579Y-57644748D01*
X108410799Y-57620715D01*
X108401421Y-57598076D01*
X108387808Y-57577702D01*
X108370481Y-57560375D01*
X108350106Y-57546761D01*
X108342447Y-57542667D01*
X108329202Y-57531798D01*
X108318334Y-57518555D01*
X108310257Y-57503443D01*
X108305284Y-57487051D01*
X108303000Y-57463859D01*
X108303000Y-57050141D01*
X108305284Y-57026949D01*
X108310257Y-57010557D01*
X108318334Y-56995445D01*
X108329202Y-56982202D01*
X108342447Y-56971333D01*
X108350106Y-56967239D01*
X108370480Y-56953626D01*
X108387807Y-56936299D01*
X108401421Y-56915924D01*
X108410798Y-56893286D01*
X108415579Y-56869252D01*
X108415579Y-56844748D01*
X108410799Y-56820715D01*
X108401421Y-56798076D01*
X108387808Y-56777702D01*
X108370481Y-56760375D01*
X108350106Y-56746761D01*
X108342447Y-56742667D01*
X108329202Y-56731798D01*
X108318334Y-56718555D01*
X108310257Y-56703443D01*
X108305284Y-56687051D01*
X108303000Y-56663859D01*
X108303000Y-56250141D01*
X108305284Y-56226949D01*
X108310257Y-56210557D01*
X108318334Y-56195445D01*
X108329202Y-56182202D01*
X108342445Y-56171334D01*
X108357557Y-56163257D01*
X108373949Y-56158284D01*
X108397141Y-56156000D01*
X109310859Y-56156000D01*
X109334051Y-56158284D01*
X109334051Y-56158284D01*
G37*
G36*
X121831000Y-65011000D02*
G01*
X113729000Y-65011000D01*
X113729000Y-56909000D01*
X121831000Y-56909000D01*
X121831000Y-65011000D01*
X121831000Y-65011000D01*
G37*
G36*
X124281000Y-64911000D02*
G01*
X122679000Y-64911000D01*
X122679000Y-57009000D01*
X124281000Y-57009000D01*
X124281000Y-64911000D01*
X124281000Y-64911000D01*
G37*
G36*
X112881000Y-64911000D02*
G01*
X111279000Y-64911000D01*
X111279000Y-57009000D01*
X112881000Y-57009000D01*
X112881000Y-64911000D01*
X112881000Y-64911000D01*
G37*
G36*
X131431000Y-64526000D02*
G01*
X130079000Y-64526000D01*
X130079000Y-63824000D01*
X131431000Y-63824000D01*
X131431000Y-64526000D01*
X131431000Y-64526000D01*
G37*
G36*
X139431000Y-63763400D02*
G01*
X137429000Y-63763400D01*
X137429000Y-62161400D01*
X139431000Y-62161400D01*
X139431000Y-63763400D01*
X139431000Y-63763400D01*
G37*
G36*
X126862000Y-63429000D02*
G01*
X125700000Y-63429000D01*
X125700000Y-60777000D01*
X126862000Y-60777000D01*
X126862000Y-63429000D01*
X126862000Y-63429000D01*
G37*
G36*
X129062000Y-63429000D02*
G01*
X127900000Y-63429000D01*
X127900000Y-60777000D01*
X129062000Y-60777000D01*
X129062000Y-63429000D01*
X129062000Y-63429000D01*
G37*
G36*
X131431000Y-63426000D02*
G01*
X130079000Y-63426000D01*
X130079000Y-62724000D01*
X131431000Y-62724000D01*
X131431000Y-63426000D01*
X131431000Y-63426000D01*
G37*
G36*
X134151000Y-63266000D02*
G01*
X132549000Y-63266000D01*
X132549000Y-62614000D01*
X134151000Y-62614000D01*
X134151000Y-63266000D01*
X134151000Y-63266000D01*
G37*
G36*
X131431000Y-62326000D02*
G01*
X130079000Y-62326000D01*
X130079000Y-61624000D01*
X131431000Y-61624000D01*
X131431000Y-62326000D01*
X131431000Y-62326000D01*
G37*
G36*
X138843855Y-59814540D02*
G01*
X138907618Y-59820820D01*
X138998404Y-59848360D01*
X139030336Y-59858046D01*
X139143425Y-59918494D01*
X139242554Y-59999846D01*
X139323906Y-60098975D01*
X139384354Y-60212064D01*
X139384355Y-60212068D01*
X139417913Y-60322692D01*
X139427287Y-60345325D01*
X139431000Y-60350882D01*
X139431000Y-60424286D01*
X139431602Y-60436538D01*
X139434149Y-60462400D01*
X139431602Y-60488262D01*
X139431000Y-60500514D01*
X139431000Y-61713400D01*
X137429000Y-61713400D01*
X137429000Y-60500514D01*
X137428398Y-60488262D01*
X137425851Y-60462400D01*
X137428398Y-60436538D01*
X137429000Y-60424286D01*
X137429000Y-60350994D01*
X137437957Y-60334236D01*
X137442085Y-60322699D01*
X137475645Y-60212068D01*
X137475646Y-60212064D01*
X137536094Y-60098975D01*
X137617446Y-59999846D01*
X137716575Y-59918494D01*
X137829664Y-59858046D01*
X137861596Y-59848360D01*
X137952382Y-59820820D01*
X138016145Y-59814540D01*
X138048026Y-59811400D01*
X138811974Y-59811400D01*
X138843855Y-59814540D01*
X138843855Y-59814540D01*
G37*
G36*
X131431000Y-61226000D02*
G01*
X130079000Y-61226000D01*
X130079000Y-60524000D01*
X131431000Y-60524000D01*
X131431000Y-61226000D01*
X131431000Y-61226000D01*
G37*
G36*
X131431000Y-60126000D02*
G01*
X130079000Y-60126000D01*
X130079000Y-59424000D01*
X131431000Y-59424000D01*
X131431000Y-60126000D01*
X131431000Y-60126000D01*
G37*
G36*
X134151000Y-60016000D02*
G01*
X132549000Y-60016000D01*
X132549000Y-59364000D01*
X134151000Y-59364000D01*
X134151000Y-60016000D01*
X134151000Y-60016000D01*
G37*
G36*
X127764938Y-58686716D02*
G01*
X127785557Y-58692971D01*
X127804553Y-58703124D01*
X127821208Y-58716792D01*
X127834876Y-58733447D01*
X127845029Y-58752443D01*
X127851284Y-58773062D01*
X127854000Y-58800640D01*
X127854000Y-59309360D01*
X127851284Y-59336938D01*
X127845029Y-59357557D01*
X127834876Y-59376553D01*
X127821208Y-59393208D01*
X127804553Y-59406876D01*
X127785557Y-59417029D01*
X127764938Y-59423284D01*
X127737360Y-59426000D01*
X127278640Y-59426000D01*
X127251062Y-59423284D01*
X127230443Y-59417029D01*
X127211447Y-59406876D01*
X127194792Y-59393208D01*
X127181124Y-59376553D01*
X127170971Y-59357557D01*
X127164716Y-59336938D01*
X127162000Y-59309360D01*
X127162000Y-58800640D01*
X127164716Y-58773062D01*
X127170971Y-58752443D01*
X127181124Y-58733447D01*
X127194792Y-58716792D01*
X127211447Y-58703124D01*
X127230443Y-58692971D01*
X127251062Y-58686716D01*
X127278640Y-58684000D01*
X127737360Y-58684000D01*
X127764938Y-58686716D01*
X127764938Y-58686716D01*
G37*
G36*
X128734938Y-58686716D02*
G01*
X128755557Y-58692971D01*
X128774553Y-58703124D01*
X128791208Y-58716792D01*
X128804876Y-58733447D01*
X128815029Y-58752443D01*
X128821284Y-58773062D01*
X128824000Y-58800640D01*
X128824000Y-59309360D01*
X128821284Y-59336938D01*
X128815029Y-59357557D01*
X128804876Y-59376553D01*
X128791208Y-59393208D01*
X128774553Y-59406876D01*
X128755557Y-59417029D01*
X128734938Y-59423284D01*
X128707360Y-59426000D01*
X128248640Y-59426000D01*
X128221062Y-59423284D01*
X128200443Y-59417029D01*
X128181447Y-59406876D01*
X128164792Y-59393208D01*
X128151124Y-59376553D01*
X128140971Y-59357557D01*
X128134716Y-59336938D01*
X128132000Y-59309360D01*
X128132000Y-58800640D01*
X128134716Y-58773062D01*
X128140971Y-58752443D01*
X128151124Y-58733447D01*
X128164792Y-58716792D01*
X128181447Y-58703124D01*
X128200443Y-58692971D01*
X128221062Y-58686716D01*
X128248640Y-58684000D01*
X128707360Y-58684000D01*
X128734938Y-58686716D01*
X128734938Y-58686716D01*
G37*
G36*
X131431000Y-59026000D02*
G01*
X130079000Y-59026000D01*
X130079000Y-58324000D01*
X131431000Y-58324000D01*
X131431000Y-59026000D01*
X131431000Y-59026000D01*
G37*
G36*
X128734938Y-57670716D02*
G01*
X128755557Y-57676971D01*
X128774553Y-57687124D01*
X128791208Y-57700792D01*
X128804876Y-57717447D01*
X128815029Y-57736443D01*
X128821284Y-57757062D01*
X128824000Y-57784640D01*
X128824000Y-58293360D01*
X128821284Y-58320938D01*
X128815029Y-58341557D01*
X128804876Y-58360553D01*
X128791208Y-58377208D01*
X128774553Y-58390876D01*
X128755557Y-58401029D01*
X128734938Y-58407284D01*
X128707360Y-58410000D01*
X128248640Y-58410000D01*
X128221062Y-58407284D01*
X128200443Y-58401029D01*
X128181447Y-58390876D01*
X128164792Y-58377208D01*
X128151124Y-58360553D01*
X128140971Y-58341557D01*
X128134716Y-58320938D01*
X128132000Y-58293360D01*
X128132000Y-57784640D01*
X128134716Y-57757062D01*
X128140971Y-57736443D01*
X128151124Y-57717447D01*
X128164792Y-57700792D01*
X128181447Y-57687124D01*
X128200443Y-57676971D01*
X128221062Y-57670716D01*
X128248640Y-57668000D01*
X128707360Y-57668000D01*
X128734938Y-57670716D01*
X128734938Y-57670716D01*
G37*
G36*
X127764938Y-57670716D02*
G01*
X127785557Y-57676971D01*
X127804553Y-57687124D01*
X127821208Y-57700792D01*
X127834876Y-57717447D01*
X127845029Y-57736443D01*
X127851284Y-57757062D01*
X127854000Y-57784640D01*
X127854000Y-58293360D01*
X127851284Y-58320938D01*
X127845029Y-58341557D01*
X127834876Y-58360553D01*
X127821208Y-58377208D01*
X127804553Y-58390876D01*
X127785557Y-58401029D01*
X127764938Y-58407284D01*
X127737360Y-58410000D01*
X127278640Y-58410000D01*
X127251062Y-58407284D01*
X127230443Y-58401029D01*
X127211447Y-58390876D01*
X127194792Y-58377208D01*
X127181124Y-58360553D01*
X127170971Y-58341557D01*
X127164716Y-58320938D01*
X127162000Y-58293360D01*
X127162000Y-57784640D01*
X127164716Y-57757062D01*
X127170971Y-57736443D01*
X127181124Y-57717447D01*
X127194792Y-57700792D01*
X127211447Y-57687124D01*
X127230443Y-57676971D01*
X127251062Y-57670716D01*
X127278640Y-57668000D01*
X127737360Y-57668000D01*
X127764938Y-57670716D01*
X127764938Y-57670716D01*
G37*
G36*
X133167213Y-56522502D02*
G01*
X133238321Y-56529505D01*
X133375172Y-56571019D01*
X133375175Y-56571020D01*
X133501294Y-56638432D01*
X133611843Y-56729157D01*
X133702568Y-56839706D01*
X133769980Y-56965825D01*
X133769981Y-56965828D01*
X133811495Y-57102679D01*
X133825512Y-57245000D01*
X133811495Y-57387321D01*
X133776269Y-57503443D01*
X133769980Y-57524175D01*
X133702568Y-57650294D01*
X133611843Y-57760843D01*
X133501294Y-57851568D01*
X133375175Y-57918980D01*
X133375172Y-57918981D01*
X133238321Y-57960495D01*
X133167213Y-57967498D01*
X133131660Y-57971000D01*
X133060340Y-57971000D01*
X133024787Y-57967498D01*
X132953679Y-57960495D01*
X132816828Y-57918981D01*
X132816825Y-57918980D01*
X132690706Y-57851568D01*
X132580157Y-57760843D01*
X132489432Y-57650294D01*
X132422020Y-57524175D01*
X132415731Y-57503443D01*
X132380505Y-57387321D01*
X132366488Y-57245000D01*
X132380505Y-57102679D01*
X132422019Y-56965828D01*
X132422020Y-56965825D01*
X132489432Y-56839706D01*
X132580157Y-56729157D01*
X132690706Y-56638432D01*
X132816825Y-56571020D01*
X132816828Y-56571019D01*
X132953679Y-56529505D01*
X133024787Y-56522502D01*
X133060340Y-56519000D01*
X133131660Y-56519000D01*
X133167213Y-56522502D01*
X133167213Y-56522502D01*
G37*
G36*
X131431000Y-57926000D02*
G01*
X130079000Y-57926000D01*
X130079000Y-57224000D01*
X131431000Y-57224000D01*
X131431000Y-57926000D01*
X131431000Y-57926000D01*
G37*
G36*
X128734938Y-56654716D02*
G01*
X128755557Y-56660971D01*
X128774553Y-56671124D01*
X128791208Y-56684792D01*
X128804876Y-56701447D01*
X128815029Y-56720443D01*
X128821284Y-56741062D01*
X128824000Y-56768640D01*
X128824000Y-57277360D01*
X128821284Y-57304938D01*
X128815029Y-57325557D01*
X128804876Y-57344553D01*
X128791208Y-57361208D01*
X128774553Y-57374876D01*
X128755557Y-57385029D01*
X128734938Y-57391284D01*
X128707360Y-57394000D01*
X128248640Y-57394000D01*
X128221062Y-57391284D01*
X128200443Y-57385029D01*
X128181447Y-57374876D01*
X128164792Y-57361208D01*
X128151124Y-57344553D01*
X128140971Y-57325557D01*
X128134716Y-57304938D01*
X128132000Y-57277360D01*
X128132000Y-56768640D01*
X128134716Y-56741062D01*
X128140971Y-56720443D01*
X128151124Y-56701447D01*
X128164792Y-56684792D01*
X128181447Y-56671124D01*
X128200443Y-56660971D01*
X128221062Y-56654716D01*
X128248640Y-56652000D01*
X128707360Y-56652000D01*
X128734938Y-56654716D01*
X128734938Y-56654716D01*
G37*
G36*
X125778938Y-56654716D02*
G01*
X125799557Y-56660971D01*
X125818553Y-56671124D01*
X125835208Y-56684792D01*
X125848876Y-56701447D01*
X125859029Y-56720443D01*
X125865284Y-56741062D01*
X125868000Y-56768640D01*
X125868000Y-57277360D01*
X125865284Y-57304938D01*
X125859029Y-57325557D01*
X125848876Y-57344553D01*
X125835208Y-57361208D01*
X125818553Y-57374876D01*
X125799557Y-57385029D01*
X125778938Y-57391284D01*
X125751360Y-57394000D01*
X125292640Y-57394000D01*
X125265062Y-57391284D01*
X125244443Y-57385029D01*
X125225447Y-57374876D01*
X125208792Y-57361208D01*
X125195124Y-57344553D01*
X125184971Y-57325557D01*
X125178716Y-57304938D01*
X125176000Y-57277360D01*
X125176000Y-56768640D01*
X125178716Y-56741062D01*
X125184971Y-56720443D01*
X125195124Y-56701447D01*
X125208792Y-56684792D01*
X125225447Y-56671124D01*
X125244443Y-56660971D01*
X125265062Y-56654716D01*
X125292640Y-56652000D01*
X125751360Y-56652000D01*
X125778938Y-56654716D01*
X125778938Y-56654716D01*
G37*
G36*
X126748938Y-56654716D02*
G01*
X126769557Y-56660971D01*
X126788553Y-56671124D01*
X126805208Y-56684792D01*
X126818876Y-56701447D01*
X126829029Y-56720443D01*
X126835284Y-56741062D01*
X126838000Y-56768640D01*
X126838000Y-57277360D01*
X126835284Y-57304938D01*
X126829029Y-57325557D01*
X126818876Y-57344553D01*
X126805208Y-57361208D01*
X126788553Y-57374876D01*
X126769557Y-57385029D01*
X126748938Y-57391284D01*
X126721360Y-57394000D01*
X126262640Y-57394000D01*
X126235062Y-57391284D01*
X126214443Y-57385029D01*
X126195447Y-57374876D01*
X126178792Y-57361208D01*
X126165124Y-57344553D01*
X126154971Y-57325557D01*
X126148716Y-57304938D01*
X126146000Y-57277360D01*
X126146000Y-56768640D01*
X126148716Y-56741062D01*
X126154971Y-56720443D01*
X126165124Y-56701447D01*
X126178792Y-56684792D01*
X126195447Y-56671124D01*
X126214443Y-56660971D01*
X126235062Y-56654716D01*
X126262640Y-56652000D01*
X126721360Y-56652000D01*
X126748938Y-56654716D01*
X126748938Y-56654716D01*
G37*
G36*
X127764938Y-56654716D02*
G01*
X127785557Y-56660971D01*
X127804553Y-56671124D01*
X127821208Y-56684792D01*
X127834876Y-56701447D01*
X127845029Y-56720443D01*
X127851284Y-56741062D01*
X127854000Y-56768640D01*
X127854000Y-57277360D01*
X127851284Y-57304938D01*
X127845029Y-57325557D01*
X127834876Y-57344553D01*
X127821208Y-57361208D01*
X127804553Y-57374876D01*
X127785557Y-57385029D01*
X127764938Y-57391284D01*
X127737360Y-57394000D01*
X127278640Y-57394000D01*
X127251062Y-57391284D01*
X127230443Y-57385029D01*
X127211447Y-57374876D01*
X127194792Y-57361208D01*
X127181124Y-57344553D01*
X127170971Y-57325557D01*
X127164716Y-57304938D01*
X127162000Y-57277360D01*
X127162000Y-56768640D01*
X127164716Y-56741062D01*
X127170971Y-56720443D01*
X127181124Y-56701447D01*
X127194792Y-56684792D01*
X127211447Y-56671124D01*
X127230443Y-56660971D01*
X127251062Y-56654716D01*
X127278640Y-56652000D01*
X127737360Y-56652000D01*
X127764938Y-56654716D01*
X127764938Y-56654716D01*
G37*
G36*
X125986938Y-54470316D02*
G01*
X126007557Y-54476571D01*
X126026553Y-54486724D01*
X126043208Y-54500392D01*
X126056876Y-54517047D01*
X126067029Y-54536043D01*
X126073284Y-54556662D01*
X126074604Y-54570066D01*
X126079384Y-54594099D01*
X126088762Y-54616738D01*
X126102375Y-54637112D01*
X126119702Y-54654439D01*
X126140076Y-54668053D01*
X126162715Y-54677430D01*
X126186749Y-54682211D01*
X126211253Y-54682211D01*
X126235286Y-54677431D01*
X126243569Y-54674000D01*
X130216000Y-54674000D01*
X130216000Y-55999001D01*
X130218402Y-56023387D01*
X130225515Y-56046836D01*
X130237066Y-56068447D01*
X130252611Y-56087389D01*
X130271553Y-56102934D01*
X130293164Y-56114485D01*
X130316613Y-56121598D01*
X130340999Y-56124000D01*
X131431000Y-56124000D01*
X131431000Y-56826000D01*
X130079000Y-56826000D01*
X130079000Y-56100999D01*
X130076598Y-56076613D01*
X130069485Y-56053164D01*
X130057934Y-56031553D01*
X130042389Y-56012611D01*
X130023447Y-55997066D01*
X130001836Y-55985515D01*
X129978387Y-55978402D01*
X129954001Y-55976000D01*
X126324000Y-55976000D01*
X126324000Y-55119386D01*
X126321598Y-55095000D01*
X126314485Y-55071551D01*
X126302934Y-55049940D01*
X126287389Y-55030998D01*
X126268447Y-55015453D01*
X126246836Y-55003902D01*
X126223387Y-54996789D01*
X126199001Y-54994387D01*
X126174615Y-54996789D01*
X126151166Y-55003902D01*
X126129555Y-55015453D01*
X126110613Y-55030998D01*
X126095068Y-55049940D01*
X126083517Y-55071551D01*
X126076404Y-55095000D01*
X126074604Y-55107134D01*
X126073284Y-55120538D01*
X126067029Y-55141157D01*
X126056876Y-55160153D01*
X126043208Y-55176808D01*
X126026553Y-55190476D01*
X126007557Y-55200629D01*
X125986938Y-55206884D01*
X125959360Y-55209600D01*
X125500640Y-55209600D01*
X125473062Y-55206884D01*
X125452443Y-55200629D01*
X125433447Y-55190476D01*
X125416792Y-55176808D01*
X125403124Y-55160153D01*
X125392971Y-55141157D01*
X125386716Y-55120538D01*
X125384000Y-55092960D01*
X125384000Y-54584240D01*
X125386716Y-54556662D01*
X125392971Y-54536043D01*
X125403124Y-54517047D01*
X125416792Y-54500392D01*
X125433447Y-54486724D01*
X125452443Y-54476571D01*
X125473062Y-54470316D01*
X125500640Y-54467600D01*
X125959360Y-54467600D01*
X125986938Y-54470316D01*
X125986938Y-54470316D01*
G37*
G36*
X123908938Y-55511716D02*
G01*
X123929557Y-55517971D01*
X123948553Y-55528124D01*
X123965208Y-55541792D01*
X123978876Y-55558447D01*
X123989029Y-55577443D01*
X123995284Y-55598062D01*
X123998000Y-55625640D01*
X123998000Y-56134360D01*
X123995284Y-56161938D01*
X123989029Y-56182557D01*
X123978876Y-56201553D01*
X123965208Y-56218208D01*
X123948553Y-56231876D01*
X123929557Y-56242029D01*
X123908938Y-56248284D01*
X123881360Y-56251000D01*
X123422640Y-56251000D01*
X123395062Y-56248284D01*
X123374443Y-56242029D01*
X123355447Y-56231876D01*
X123338792Y-56218208D01*
X123325124Y-56201553D01*
X123314971Y-56182557D01*
X123308716Y-56161938D01*
X123306000Y-56134360D01*
X123306000Y-55625640D01*
X123308716Y-55598062D01*
X123314971Y-55577443D01*
X123325124Y-55558447D01*
X123338792Y-55541792D01*
X123355447Y-55528124D01*
X123374443Y-55517971D01*
X123395062Y-55511716D01*
X123422640Y-55509000D01*
X123881360Y-55509000D01*
X123908938Y-55511716D01*
X123908938Y-55511716D01*
G37*
G36*
X122938938Y-55511716D02*
G01*
X122959557Y-55517971D01*
X122978553Y-55528124D01*
X122995208Y-55541792D01*
X123008876Y-55558447D01*
X123019029Y-55577443D01*
X123025284Y-55598062D01*
X123028000Y-55625640D01*
X123028000Y-56134360D01*
X123025284Y-56161938D01*
X123019029Y-56182557D01*
X123008876Y-56201553D01*
X122995208Y-56218208D01*
X122978553Y-56231876D01*
X122959557Y-56242029D01*
X122938938Y-56248284D01*
X122911360Y-56251000D01*
X122452640Y-56251000D01*
X122425062Y-56248284D01*
X122404443Y-56242029D01*
X122385447Y-56231876D01*
X122368792Y-56218208D01*
X122355124Y-56201553D01*
X122344971Y-56182557D01*
X122338716Y-56161938D01*
X122336000Y-56134360D01*
X122336000Y-55625640D01*
X122338716Y-55598062D01*
X122344971Y-55577443D01*
X122355124Y-55558447D01*
X122368792Y-55541792D01*
X122385447Y-55528124D01*
X122404443Y-55517971D01*
X122425062Y-55511716D01*
X122452640Y-55509000D01*
X122911360Y-55509000D01*
X122938938Y-55511716D01*
X122938938Y-55511716D01*
G37*
G36*
X121731000Y-56061000D02*
G01*
X113829000Y-56061000D01*
X113829000Y-54459000D01*
X121731000Y-54459000D01*
X121731000Y-56061000D01*
X121731000Y-56061000D01*
G37*
G36*
X133822000Y-55971000D02*
G01*
X132370000Y-55971000D01*
X132370000Y-54519000D01*
X133822000Y-54519000D01*
X133822000Y-55971000D01*
X133822000Y-55971000D01*
G37*
G36*
X107633560Y-54710205D02*
G01*
X107668713Y-54720869D01*
X107701110Y-54738186D01*
X107729509Y-54761491D01*
X107752814Y-54789890D01*
X107770131Y-54822287D01*
X107780795Y-54857440D01*
X107785000Y-54900140D01*
X107785000Y-55513860D01*
X107780795Y-55556560D01*
X107770131Y-55591713D01*
X107752814Y-55624110D01*
X107729509Y-55652509D01*
X107701110Y-55675814D01*
X107668713Y-55693131D01*
X107633560Y-55703795D01*
X107590860Y-55708000D01*
X106277140Y-55708000D01*
X106234440Y-55703795D01*
X106199287Y-55693131D01*
X106166890Y-55675814D01*
X106138491Y-55652509D01*
X106115186Y-55624110D01*
X106097869Y-55591713D01*
X106087205Y-55556560D01*
X106083000Y-55513860D01*
X106083000Y-54900140D01*
X106087205Y-54857440D01*
X106097869Y-54822287D01*
X106115186Y-54789890D01*
X106138491Y-54761491D01*
X106166890Y-54738186D01*
X106199287Y-54720869D01*
X106234440Y-54710205D01*
X106277140Y-54706000D01*
X107590860Y-54706000D01*
X107633560Y-54710205D01*
X107633560Y-54710205D01*
G37*
G36*
X112062938Y-54622716D02*
G01*
X112083557Y-54628971D01*
X112102553Y-54639124D01*
X112119208Y-54652792D01*
X112132876Y-54669447D01*
X112143029Y-54688443D01*
X112149284Y-54709062D01*
X112152000Y-54736640D01*
X112152000Y-55245360D01*
X112149284Y-55272938D01*
X112143029Y-55293557D01*
X112132876Y-55312553D01*
X112119208Y-55329208D01*
X112102553Y-55342876D01*
X112083557Y-55353029D01*
X112062938Y-55359284D01*
X112035360Y-55362000D01*
X111576640Y-55362000D01*
X111549062Y-55359284D01*
X111528443Y-55353029D01*
X111509447Y-55342876D01*
X111492792Y-55329208D01*
X111479124Y-55312553D01*
X111468971Y-55293557D01*
X111462716Y-55272938D01*
X111460000Y-55245360D01*
X111460000Y-54736640D01*
X111462716Y-54709062D01*
X111468971Y-54688443D01*
X111479124Y-54669447D01*
X111492792Y-54652792D01*
X111509447Y-54639124D01*
X111528443Y-54628971D01*
X111549062Y-54622716D01*
X111576640Y-54620000D01*
X112035360Y-54620000D01*
X112062938Y-54622716D01*
X112062938Y-54622716D01*
G37*
G36*
X113032938Y-54622716D02*
G01*
X113053557Y-54628971D01*
X113072553Y-54639124D01*
X113089208Y-54652792D01*
X113102876Y-54669447D01*
X113113029Y-54688443D01*
X113119284Y-54709062D01*
X113122000Y-54736640D01*
X113122000Y-55245360D01*
X113119284Y-55272938D01*
X113113029Y-55293557D01*
X113102876Y-55312553D01*
X113089208Y-55329208D01*
X113072553Y-55342876D01*
X113053557Y-55353029D01*
X113032938Y-55359284D01*
X113005360Y-55362000D01*
X112546640Y-55362000D01*
X112519062Y-55359284D01*
X112498443Y-55353029D01*
X112479447Y-55342876D01*
X112462792Y-55329208D01*
X112449124Y-55312553D01*
X112438971Y-55293557D01*
X112432716Y-55272938D01*
X112430000Y-55245360D01*
X112430000Y-54736640D01*
X112432716Y-54709062D01*
X112438971Y-54688443D01*
X112449124Y-54669447D01*
X112462792Y-54652792D01*
X112479447Y-54639124D01*
X112498443Y-54628971D01*
X112519062Y-54622716D01*
X112546640Y-54620000D01*
X113005360Y-54620000D01*
X113032938Y-54622716D01*
X113032938Y-54622716D01*
G37*
G36*
X122938938Y-54495716D02*
G01*
X122959557Y-54501971D01*
X122978553Y-54512124D01*
X122995208Y-54525792D01*
X123008876Y-54542447D01*
X123019029Y-54561443D01*
X123025284Y-54582062D01*
X123028000Y-54609640D01*
X123028000Y-55118360D01*
X123025284Y-55145938D01*
X123019029Y-55166557D01*
X123008876Y-55185553D01*
X122995208Y-55202208D01*
X122978553Y-55215876D01*
X122959557Y-55226029D01*
X122938938Y-55232284D01*
X122911360Y-55235000D01*
X122452640Y-55235000D01*
X122425062Y-55232284D01*
X122404443Y-55226029D01*
X122385447Y-55215876D01*
X122368792Y-55202208D01*
X122355124Y-55185553D01*
X122344971Y-55166557D01*
X122338716Y-55145938D01*
X122336000Y-55118360D01*
X122336000Y-54609640D01*
X122338716Y-54582062D01*
X122344971Y-54561443D01*
X122355124Y-54542447D01*
X122368792Y-54525792D01*
X122385447Y-54512124D01*
X122404443Y-54501971D01*
X122425062Y-54495716D01*
X122452640Y-54493000D01*
X122911360Y-54493000D01*
X122938938Y-54495716D01*
X122938938Y-54495716D01*
G37*
G36*
X123908938Y-54495716D02*
G01*
X123929557Y-54501971D01*
X123948553Y-54512124D01*
X123965208Y-54525792D01*
X123978876Y-54542447D01*
X123989029Y-54561443D01*
X123995284Y-54582062D01*
X123998000Y-54609640D01*
X123998000Y-55118360D01*
X123995284Y-55145938D01*
X123989029Y-55166557D01*
X123978876Y-55185553D01*
X123965208Y-55202208D01*
X123948553Y-55215876D01*
X123929557Y-55226029D01*
X123908938Y-55232284D01*
X123881360Y-55235000D01*
X123422640Y-55235000D01*
X123395062Y-55232284D01*
X123374443Y-55226029D01*
X123355447Y-55215876D01*
X123338792Y-55202208D01*
X123325124Y-55185553D01*
X123314971Y-55166557D01*
X123308716Y-55145938D01*
X123306000Y-55118360D01*
X123306000Y-54609640D01*
X123308716Y-54582062D01*
X123314971Y-54561443D01*
X123325124Y-54542447D01*
X123338792Y-54525792D01*
X123355447Y-54512124D01*
X123374443Y-54501971D01*
X123395062Y-54495716D01*
X123422640Y-54493000D01*
X123881360Y-54493000D01*
X123908938Y-54495716D01*
X123908938Y-54495716D01*
G37*
G36*
X125016938Y-54470316D02*
G01*
X125037557Y-54476571D01*
X125056553Y-54486724D01*
X125073208Y-54500392D01*
X125086876Y-54517047D01*
X125097029Y-54536043D01*
X125103284Y-54556662D01*
X125106000Y-54584240D01*
X125106000Y-55092960D01*
X125103284Y-55120538D01*
X125097029Y-55141157D01*
X125086876Y-55160153D01*
X125073208Y-55176808D01*
X125056553Y-55190476D01*
X125037557Y-55200629D01*
X125016938Y-55206884D01*
X124989360Y-55209600D01*
X124530640Y-55209600D01*
X124503062Y-55206884D01*
X124482443Y-55200629D01*
X124463447Y-55190476D01*
X124446792Y-55176808D01*
X124433124Y-55160153D01*
X124422971Y-55141157D01*
X124416716Y-55120538D01*
X124414000Y-55092960D01*
X124414000Y-54584240D01*
X124416716Y-54556662D01*
X124422971Y-54536043D01*
X124433124Y-54517047D01*
X124446792Y-54500392D01*
X124463447Y-54486724D01*
X124482443Y-54476571D01*
X124503062Y-54470316D01*
X124530640Y-54467600D01*
X124989360Y-54467600D01*
X125016938Y-54470316D01*
X125016938Y-54470316D01*
G37*
M02*
