G04 #@! TF.GenerationSoftware,KiCad,Pcbnew,(5.1.2-1)-1*
G04 #@! TF.CreationDate,2020-01-07T18:23:05-05:00*
G04 #@! TF.ProjectId,ARBO Mini,4152424f-204d-4696-9e69-2e6b69636164,rev?*
G04 #@! TF.SameCoordinates,Original*
G04 #@! TF.FileFunction,Copper,L1,Top*
G04 #@! TF.FilePolarity,Positive*
%FSLAX46Y46*%
G04 Gerber Fmt 4.6, Leading zero omitted, Abs format (unit mm)*
G04 Created by KiCad (PCBNEW (5.1.2-1)-1) date 2020-01-07 18:23:05*
%MOMM*%
%LPD*%
G04 APERTURE LIST*
%ADD10O,1.350000X1.350000*%
%ADD11R,1.350000X1.350000*%
%ADD12R,8.000000X8.000000*%
%ADD13R,0.300000X1.500000*%
%ADD14R,1.500000X0.300000*%
%ADD15C,0.100000*%
%ADD16C,0.590000*%
%ADD17R,1.500000X0.550000*%
%ADD18C,0.900000*%
%ADD19C,0.500000*%
%ADD20R,1.060000X0.650000*%
%ADD21R,0.850000X0.950000*%
%ADD22R,0.600000X1.000000*%
%ADD23R,1.400000X1.450000*%
%ADD24R,3.790000X1.200000*%
%ADD25R,1.250000X0.600000*%
%ADD26R,1.900000X1.200000*%
%ADD27O,1.900000X1.200000*%
%ADD28R,1.900000X1.500000*%
%ADD29C,1.450000*%
%ADD30R,1.350000X0.400000*%
%ADD31C,0.875000*%
%ADD32C,0.400000*%
%ADD33C,0.152400*%
G04 APERTURE END LIST*
D10*
X133096000Y-57245000D03*
D11*
X133096000Y-55245000D03*
D12*
X117780000Y-60960000D03*
D13*
X114030000Y-55260000D03*
X114530000Y-55260000D03*
X115030000Y-55260000D03*
X115530000Y-55260000D03*
X116030000Y-55260000D03*
X116530000Y-55260000D03*
X117030000Y-55260000D03*
X117530000Y-55260000D03*
X118030000Y-55260000D03*
X118530000Y-55260000D03*
X119030000Y-55260000D03*
X119530000Y-55260000D03*
X120030000Y-55260000D03*
X120530000Y-55260000D03*
X121030000Y-55260000D03*
X121530000Y-55260000D03*
D14*
X123480000Y-57210000D03*
X123480000Y-57710000D03*
X123480000Y-58210000D03*
X123480000Y-58710000D03*
X123480000Y-59210000D03*
X123480000Y-59710000D03*
X123480000Y-60210000D03*
X123480000Y-60710000D03*
X123480000Y-61210000D03*
X123480000Y-61710000D03*
X123480000Y-62210000D03*
X123480000Y-62710000D03*
X123480000Y-63210000D03*
X123480000Y-63710000D03*
X123480000Y-64210000D03*
X123480000Y-64710000D03*
D13*
X121530000Y-66660000D03*
X121030000Y-66660000D03*
X120530000Y-66660000D03*
X120030000Y-66660000D03*
X119530000Y-66660000D03*
X119030000Y-66660000D03*
X118530000Y-66660000D03*
X118030000Y-66660000D03*
X117530000Y-66660000D03*
X117030000Y-66660000D03*
X116530000Y-66660000D03*
X116030000Y-66660000D03*
X115530000Y-66660000D03*
X115030000Y-66660000D03*
X114530000Y-66660000D03*
X114030000Y-66660000D03*
D14*
X112080000Y-64710000D03*
X112080000Y-64210000D03*
X112080000Y-63710000D03*
X112080000Y-63210000D03*
X112080000Y-62710000D03*
X112080000Y-62210000D03*
X112080000Y-61710000D03*
X112080000Y-61210000D03*
X112080000Y-60710000D03*
X112080000Y-60210000D03*
X112080000Y-59710000D03*
X112080000Y-59210000D03*
X112080000Y-58710000D03*
X112080000Y-58210000D03*
X112080000Y-57710000D03*
X112080000Y-57210000D03*
D15*
G36*
X109661358Y-53782710D02*
G01*
X109675676Y-53784834D01*
X109689717Y-53788351D01*
X109703346Y-53793228D01*
X109716431Y-53799417D01*
X109728847Y-53806858D01*
X109740473Y-53815481D01*
X109751198Y-53825202D01*
X109760919Y-53835927D01*
X109769542Y-53847553D01*
X109776983Y-53859969D01*
X109783172Y-53873054D01*
X109788049Y-53886683D01*
X109791566Y-53900724D01*
X109793690Y-53915042D01*
X109794400Y-53929500D01*
X109794400Y-54274500D01*
X109793690Y-54288958D01*
X109791566Y-54303276D01*
X109788049Y-54317317D01*
X109783172Y-54330946D01*
X109776983Y-54344031D01*
X109769542Y-54356447D01*
X109760919Y-54368073D01*
X109751198Y-54378798D01*
X109740473Y-54388519D01*
X109728847Y-54397142D01*
X109716431Y-54404583D01*
X109703346Y-54410772D01*
X109689717Y-54415649D01*
X109675676Y-54419166D01*
X109661358Y-54421290D01*
X109646900Y-54422000D01*
X109351900Y-54422000D01*
X109337442Y-54421290D01*
X109323124Y-54419166D01*
X109309083Y-54415649D01*
X109295454Y-54410772D01*
X109282369Y-54404583D01*
X109269953Y-54397142D01*
X109258327Y-54388519D01*
X109247602Y-54378798D01*
X109237881Y-54368073D01*
X109229258Y-54356447D01*
X109221817Y-54344031D01*
X109215628Y-54330946D01*
X109210751Y-54317317D01*
X109207234Y-54303276D01*
X109205110Y-54288958D01*
X109204400Y-54274500D01*
X109204400Y-53929500D01*
X109205110Y-53915042D01*
X109207234Y-53900724D01*
X109210751Y-53886683D01*
X109215628Y-53873054D01*
X109221817Y-53859969D01*
X109229258Y-53847553D01*
X109237881Y-53835927D01*
X109247602Y-53825202D01*
X109258327Y-53815481D01*
X109269953Y-53806858D01*
X109282369Y-53799417D01*
X109295454Y-53793228D01*
X109309083Y-53788351D01*
X109323124Y-53784834D01*
X109337442Y-53782710D01*
X109351900Y-53782000D01*
X109646900Y-53782000D01*
X109661358Y-53782710D01*
X109661358Y-53782710D01*
G37*
D16*
X109499400Y-54102000D03*
D15*
G36*
X110631358Y-53782710D02*
G01*
X110645676Y-53784834D01*
X110659717Y-53788351D01*
X110673346Y-53793228D01*
X110686431Y-53799417D01*
X110698847Y-53806858D01*
X110710473Y-53815481D01*
X110721198Y-53825202D01*
X110730919Y-53835927D01*
X110739542Y-53847553D01*
X110746983Y-53859969D01*
X110753172Y-53873054D01*
X110758049Y-53886683D01*
X110761566Y-53900724D01*
X110763690Y-53915042D01*
X110764400Y-53929500D01*
X110764400Y-54274500D01*
X110763690Y-54288958D01*
X110761566Y-54303276D01*
X110758049Y-54317317D01*
X110753172Y-54330946D01*
X110746983Y-54344031D01*
X110739542Y-54356447D01*
X110730919Y-54368073D01*
X110721198Y-54378798D01*
X110710473Y-54388519D01*
X110698847Y-54397142D01*
X110686431Y-54404583D01*
X110673346Y-54410772D01*
X110659717Y-54415649D01*
X110645676Y-54419166D01*
X110631358Y-54421290D01*
X110616900Y-54422000D01*
X110321900Y-54422000D01*
X110307442Y-54421290D01*
X110293124Y-54419166D01*
X110279083Y-54415649D01*
X110265454Y-54410772D01*
X110252369Y-54404583D01*
X110239953Y-54397142D01*
X110228327Y-54388519D01*
X110217602Y-54378798D01*
X110207881Y-54368073D01*
X110199258Y-54356447D01*
X110191817Y-54344031D01*
X110185628Y-54330946D01*
X110180751Y-54317317D01*
X110177234Y-54303276D01*
X110175110Y-54288958D01*
X110174400Y-54274500D01*
X110174400Y-53929500D01*
X110175110Y-53915042D01*
X110177234Y-53900724D01*
X110180751Y-53886683D01*
X110185628Y-53873054D01*
X110191817Y-53859969D01*
X110199258Y-53847553D01*
X110207881Y-53835927D01*
X110217602Y-53825202D01*
X110228327Y-53815481D01*
X110239953Y-53806858D01*
X110252369Y-53799417D01*
X110265454Y-53793228D01*
X110279083Y-53788351D01*
X110293124Y-53784834D01*
X110307442Y-53782710D01*
X110321900Y-53782000D01*
X110616900Y-53782000D01*
X110631358Y-53782710D01*
X110631358Y-53782710D01*
G37*
D16*
X110469400Y-54102000D03*
D15*
G36*
X109661358Y-54798710D02*
G01*
X109675676Y-54800834D01*
X109689717Y-54804351D01*
X109703346Y-54809228D01*
X109716431Y-54815417D01*
X109728847Y-54822858D01*
X109740473Y-54831481D01*
X109751198Y-54841202D01*
X109760919Y-54851927D01*
X109769542Y-54863553D01*
X109776983Y-54875969D01*
X109783172Y-54889054D01*
X109788049Y-54902683D01*
X109791566Y-54916724D01*
X109793690Y-54931042D01*
X109794400Y-54945500D01*
X109794400Y-55290500D01*
X109793690Y-55304958D01*
X109791566Y-55319276D01*
X109788049Y-55333317D01*
X109783172Y-55346946D01*
X109776983Y-55360031D01*
X109769542Y-55372447D01*
X109760919Y-55384073D01*
X109751198Y-55394798D01*
X109740473Y-55404519D01*
X109728847Y-55413142D01*
X109716431Y-55420583D01*
X109703346Y-55426772D01*
X109689717Y-55431649D01*
X109675676Y-55435166D01*
X109661358Y-55437290D01*
X109646900Y-55438000D01*
X109351900Y-55438000D01*
X109337442Y-55437290D01*
X109323124Y-55435166D01*
X109309083Y-55431649D01*
X109295454Y-55426772D01*
X109282369Y-55420583D01*
X109269953Y-55413142D01*
X109258327Y-55404519D01*
X109247602Y-55394798D01*
X109237881Y-55384073D01*
X109229258Y-55372447D01*
X109221817Y-55360031D01*
X109215628Y-55346946D01*
X109210751Y-55333317D01*
X109207234Y-55319276D01*
X109205110Y-55304958D01*
X109204400Y-55290500D01*
X109204400Y-54945500D01*
X109205110Y-54931042D01*
X109207234Y-54916724D01*
X109210751Y-54902683D01*
X109215628Y-54889054D01*
X109221817Y-54875969D01*
X109229258Y-54863553D01*
X109237881Y-54851927D01*
X109247602Y-54841202D01*
X109258327Y-54831481D01*
X109269953Y-54822858D01*
X109282369Y-54815417D01*
X109295454Y-54809228D01*
X109309083Y-54804351D01*
X109323124Y-54800834D01*
X109337442Y-54798710D01*
X109351900Y-54798000D01*
X109646900Y-54798000D01*
X109661358Y-54798710D01*
X109661358Y-54798710D01*
G37*
D16*
X109499400Y-55118000D03*
D15*
G36*
X110631358Y-54798710D02*
G01*
X110645676Y-54800834D01*
X110659717Y-54804351D01*
X110673346Y-54809228D01*
X110686431Y-54815417D01*
X110698847Y-54822858D01*
X110710473Y-54831481D01*
X110721198Y-54841202D01*
X110730919Y-54851927D01*
X110739542Y-54863553D01*
X110746983Y-54875969D01*
X110753172Y-54889054D01*
X110758049Y-54902683D01*
X110761566Y-54916724D01*
X110763690Y-54931042D01*
X110764400Y-54945500D01*
X110764400Y-55290500D01*
X110763690Y-55304958D01*
X110761566Y-55319276D01*
X110758049Y-55333317D01*
X110753172Y-55346946D01*
X110746983Y-55360031D01*
X110739542Y-55372447D01*
X110730919Y-55384073D01*
X110721198Y-55394798D01*
X110710473Y-55404519D01*
X110698847Y-55413142D01*
X110686431Y-55420583D01*
X110673346Y-55426772D01*
X110659717Y-55431649D01*
X110645676Y-55435166D01*
X110631358Y-55437290D01*
X110616900Y-55438000D01*
X110321900Y-55438000D01*
X110307442Y-55437290D01*
X110293124Y-55435166D01*
X110279083Y-55431649D01*
X110265454Y-55426772D01*
X110252369Y-55420583D01*
X110239953Y-55413142D01*
X110228327Y-55404519D01*
X110217602Y-55394798D01*
X110207881Y-55384073D01*
X110199258Y-55372447D01*
X110191817Y-55360031D01*
X110185628Y-55346946D01*
X110180751Y-55333317D01*
X110177234Y-55319276D01*
X110175110Y-55304958D01*
X110174400Y-55290500D01*
X110174400Y-54945500D01*
X110175110Y-54931042D01*
X110177234Y-54916724D01*
X110180751Y-54902683D01*
X110185628Y-54889054D01*
X110191817Y-54875969D01*
X110199258Y-54863553D01*
X110207881Y-54851927D01*
X110217602Y-54841202D01*
X110228327Y-54831481D01*
X110239953Y-54822858D01*
X110252369Y-54815417D01*
X110265454Y-54809228D01*
X110279083Y-54804351D01*
X110293124Y-54800834D01*
X110307442Y-54798710D01*
X110321900Y-54798000D01*
X110616900Y-54798000D01*
X110631358Y-54798710D01*
X110631358Y-54798710D01*
G37*
D16*
X110469400Y-55118000D03*
D17*
X133350000Y-59690000D03*
X133350000Y-62940000D03*
D15*
G36*
X133278558Y-66431910D02*
G01*
X133292876Y-66434034D01*
X133306917Y-66437551D01*
X133320546Y-66442428D01*
X133333631Y-66448617D01*
X133346047Y-66456058D01*
X133357673Y-66464681D01*
X133368398Y-66474402D01*
X133378119Y-66485127D01*
X133386742Y-66496753D01*
X133394183Y-66509169D01*
X133400372Y-66522254D01*
X133405249Y-66535883D01*
X133408766Y-66549924D01*
X133410890Y-66564242D01*
X133411600Y-66578700D01*
X133411600Y-66923700D01*
X133410890Y-66938158D01*
X133408766Y-66952476D01*
X133405249Y-66966517D01*
X133400372Y-66980146D01*
X133394183Y-66993231D01*
X133386742Y-67005647D01*
X133378119Y-67017273D01*
X133368398Y-67027998D01*
X133357673Y-67037719D01*
X133346047Y-67046342D01*
X133333631Y-67053783D01*
X133320546Y-67059972D01*
X133306917Y-67064849D01*
X133292876Y-67068366D01*
X133278558Y-67070490D01*
X133264100Y-67071200D01*
X132969100Y-67071200D01*
X132954642Y-67070490D01*
X132940324Y-67068366D01*
X132926283Y-67064849D01*
X132912654Y-67059972D01*
X132899569Y-67053783D01*
X132887153Y-67046342D01*
X132875527Y-67037719D01*
X132864802Y-67027998D01*
X132855081Y-67017273D01*
X132846458Y-67005647D01*
X132839017Y-66993231D01*
X132832828Y-66980146D01*
X132827951Y-66966517D01*
X132824434Y-66952476D01*
X132822310Y-66938158D01*
X132821600Y-66923700D01*
X132821600Y-66578700D01*
X132822310Y-66564242D01*
X132824434Y-66549924D01*
X132827951Y-66535883D01*
X132832828Y-66522254D01*
X132839017Y-66509169D01*
X132846458Y-66496753D01*
X132855081Y-66485127D01*
X132864802Y-66474402D01*
X132875527Y-66464681D01*
X132887153Y-66456058D01*
X132899569Y-66448617D01*
X132912654Y-66442428D01*
X132926283Y-66437551D01*
X132940324Y-66434034D01*
X132954642Y-66431910D01*
X132969100Y-66431200D01*
X133264100Y-66431200D01*
X133278558Y-66431910D01*
X133278558Y-66431910D01*
G37*
D16*
X133116600Y-66751200D03*
D15*
G36*
X134248558Y-66431910D02*
G01*
X134262876Y-66434034D01*
X134276917Y-66437551D01*
X134290546Y-66442428D01*
X134303631Y-66448617D01*
X134316047Y-66456058D01*
X134327673Y-66464681D01*
X134338398Y-66474402D01*
X134348119Y-66485127D01*
X134356742Y-66496753D01*
X134364183Y-66509169D01*
X134370372Y-66522254D01*
X134375249Y-66535883D01*
X134378766Y-66549924D01*
X134380890Y-66564242D01*
X134381600Y-66578700D01*
X134381600Y-66923700D01*
X134380890Y-66938158D01*
X134378766Y-66952476D01*
X134375249Y-66966517D01*
X134370372Y-66980146D01*
X134364183Y-66993231D01*
X134356742Y-67005647D01*
X134348119Y-67017273D01*
X134338398Y-67027998D01*
X134327673Y-67037719D01*
X134316047Y-67046342D01*
X134303631Y-67053783D01*
X134290546Y-67059972D01*
X134276917Y-67064849D01*
X134262876Y-67068366D01*
X134248558Y-67070490D01*
X134234100Y-67071200D01*
X133939100Y-67071200D01*
X133924642Y-67070490D01*
X133910324Y-67068366D01*
X133896283Y-67064849D01*
X133882654Y-67059972D01*
X133869569Y-67053783D01*
X133857153Y-67046342D01*
X133845527Y-67037719D01*
X133834802Y-67027998D01*
X133825081Y-67017273D01*
X133816458Y-67005647D01*
X133809017Y-66993231D01*
X133802828Y-66980146D01*
X133797951Y-66966517D01*
X133794434Y-66952476D01*
X133792310Y-66938158D01*
X133791600Y-66923700D01*
X133791600Y-66578700D01*
X133792310Y-66564242D01*
X133794434Y-66549924D01*
X133797951Y-66535883D01*
X133802828Y-66522254D01*
X133809017Y-66509169D01*
X133816458Y-66496753D01*
X133825081Y-66485127D01*
X133834802Y-66474402D01*
X133845527Y-66464681D01*
X133857153Y-66456058D01*
X133869569Y-66448617D01*
X133882654Y-66442428D01*
X133896283Y-66437551D01*
X133910324Y-66434034D01*
X133924642Y-66431910D01*
X133939100Y-66431200D01*
X134234100Y-66431200D01*
X134248558Y-66431910D01*
X134248558Y-66431910D01*
G37*
D16*
X134086600Y-66751200D03*
D15*
G36*
X107531054Y-65258083D02*
G01*
X107552895Y-65261323D01*
X107574314Y-65266688D01*
X107595104Y-65274127D01*
X107615064Y-65283568D01*
X107634003Y-65294919D01*
X107651738Y-65308073D01*
X107668099Y-65322901D01*
X107682927Y-65339262D01*
X107696081Y-65356997D01*
X107707432Y-65375936D01*
X107716873Y-65395896D01*
X107724312Y-65416686D01*
X107729677Y-65438105D01*
X107732917Y-65459946D01*
X107734000Y-65482000D01*
X107734000Y-65932000D01*
X107732917Y-65954054D01*
X107729677Y-65975895D01*
X107724312Y-65997314D01*
X107716873Y-66018104D01*
X107707432Y-66038064D01*
X107696081Y-66057003D01*
X107682927Y-66074738D01*
X107668099Y-66091099D01*
X107651738Y-66105927D01*
X107634003Y-66119081D01*
X107615064Y-66130432D01*
X107595104Y-66139873D01*
X107574314Y-66147312D01*
X107552895Y-66152677D01*
X107531054Y-66155917D01*
X107509000Y-66157000D01*
X106359000Y-66157000D01*
X106336946Y-66155917D01*
X106315105Y-66152677D01*
X106293686Y-66147312D01*
X106272896Y-66139873D01*
X106252936Y-66130432D01*
X106233997Y-66119081D01*
X106216262Y-66105927D01*
X106199901Y-66091099D01*
X106185073Y-66074738D01*
X106171919Y-66057003D01*
X106160568Y-66038064D01*
X106151127Y-66018104D01*
X106143688Y-65997314D01*
X106138323Y-65975895D01*
X106135083Y-65954054D01*
X106134000Y-65932000D01*
X106134000Y-65482000D01*
X106135083Y-65459946D01*
X106138323Y-65438105D01*
X106143688Y-65416686D01*
X106151127Y-65395896D01*
X106160568Y-65375936D01*
X106171919Y-65356997D01*
X106185073Y-65339262D01*
X106199901Y-65322901D01*
X106216262Y-65308073D01*
X106233997Y-65294919D01*
X106252936Y-65283568D01*
X106272896Y-65274127D01*
X106293686Y-65266688D01*
X106315105Y-65261323D01*
X106336946Y-65258083D01*
X106359000Y-65257000D01*
X107509000Y-65257000D01*
X107531054Y-65258083D01*
X107531054Y-65258083D01*
G37*
D18*
X106934000Y-65707000D03*
D15*
G36*
X107531054Y-55558083D02*
G01*
X107552895Y-55561323D01*
X107574314Y-55566688D01*
X107595104Y-55574127D01*
X107615064Y-55583568D01*
X107634003Y-55594919D01*
X107651738Y-55608073D01*
X107668099Y-55622901D01*
X107682927Y-55639262D01*
X107696081Y-55656997D01*
X107707432Y-55675936D01*
X107716873Y-55695896D01*
X107724312Y-55716686D01*
X107729677Y-55738105D01*
X107732917Y-55759946D01*
X107734000Y-55782000D01*
X107734000Y-56232000D01*
X107732917Y-56254054D01*
X107729677Y-56275895D01*
X107724312Y-56297314D01*
X107716873Y-56318104D01*
X107707432Y-56338064D01*
X107696081Y-56357003D01*
X107682927Y-56374738D01*
X107668099Y-56391099D01*
X107651738Y-56405927D01*
X107634003Y-56419081D01*
X107615064Y-56430432D01*
X107595104Y-56439873D01*
X107574314Y-56447312D01*
X107552895Y-56452677D01*
X107531054Y-56455917D01*
X107509000Y-56457000D01*
X106359000Y-56457000D01*
X106336946Y-56455917D01*
X106315105Y-56452677D01*
X106293686Y-56447312D01*
X106272896Y-56439873D01*
X106252936Y-56430432D01*
X106233997Y-56419081D01*
X106216262Y-56405927D01*
X106199901Y-56391099D01*
X106185073Y-56374738D01*
X106171919Y-56357003D01*
X106160568Y-56338064D01*
X106151127Y-56318104D01*
X106143688Y-56297314D01*
X106138323Y-56275895D01*
X106135083Y-56254054D01*
X106134000Y-56232000D01*
X106134000Y-55782000D01*
X106135083Y-55759946D01*
X106138323Y-55738105D01*
X106143688Y-55716686D01*
X106151127Y-55695896D01*
X106160568Y-55675936D01*
X106171919Y-55656997D01*
X106185073Y-55639262D01*
X106199901Y-55622901D01*
X106216262Y-55608073D01*
X106233997Y-55594919D01*
X106252936Y-55583568D01*
X106272896Y-55574127D01*
X106293686Y-55566688D01*
X106315105Y-55561323D01*
X106336946Y-55558083D01*
X106359000Y-55557000D01*
X107509000Y-55557000D01*
X107531054Y-55558083D01*
X107531054Y-55558083D01*
G37*
D18*
X106934000Y-56007000D03*
D15*
G36*
X109241252Y-64207602D02*
G01*
X109253386Y-64209402D01*
X109265286Y-64212382D01*
X109276835Y-64216515D01*
X109287925Y-64221760D01*
X109298446Y-64228066D01*
X109308299Y-64235374D01*
X109317388Y-64243612D01*
X109325626Y-64252701D01*
X109332934Y-64262554D01*
X109339240Y-64273075D01*
X109344485Y-64284165D01*
X109348618Y-64295714D01*
X109351598Y-64307614D01*
X109353398Y-64319748D01*
X109354000Y-64332000D01*
X109354000Y-64582000D01*
X109353398Y-64594252D01*
X109351598Y-64606386D01*
X109348618Y-64618286D01*
X109344485Y-64629835D01*
X109339240Y-64640925D01*
X109332934Y-64651446D01*
X109325626Y-64661299D01*
X109317388Y-64670388D01*
X109308299Y-64678626D01*
X109298446Y-64685934D01*
X109287925Y-64692240D01*
X109276835Y-64697485D01*
X109265286Y-64701618D01*
X109253386Y-64704598D01*
X109241252Y-64706398D01*
X109229000Y-64707000D01*
X108479000Y-64707000D01*
X108466748Y-64706398D01*
X108454614Y-64704598D01*
X108442714Y-64701618D01*
X108431165Y-64697485D01*
X108420075Y-64692240D01*
X108409554Y-64685934D01*
X108399701Y-64678626D01*
X108390612Y-64670388D01*
X108382374Y-64661299D01*
X108375066Y-64651446D01*
X108368760Y-64640925D01*
X108363515Y-64629835D01*
X108359382Y-64618286D01*
X108356402Y-64606386D01*
X108354602Y-64594252D01*
X108354000Y-64582000D01*
X108354000Y-64332000D01*
X108354602Y-64319748D01*
X108356402Y-64307614D01*
X108359382Y-64295714D01*
X108363515Y-64284165D01*
X108368760Y-64273075D01*
X108375066Y-64262554D01*
X108382374Y-64252701D01*
X108390612Y-64243612D01*
X108399701Y-64235374D01*
X108409554Y-64228066D01*
X108420075Y-64221760D01*
X108431165Y-64216515D01*
X108442714Y-64212382D01*
X108454614Y-64209402D01*
X108466748Y-64207602D01*
X108479000Y-64207000D01*
X109229000Y-64207000D01*
X109241252Y-64207602D01*
X109241252Y-64207602D01*
G37*
D19*
X108854000Y-64457000D03*
D15*
G36*
X109241252Y-63407602D02*
G01*
X109253386Y-63409402D01*
X109265286Y-63412382D01*
X109276835Y-63416515D01*
X109287925Y-63421760D01*
X109298446Y-63428066D01*
X109308299Y-63435374D01*
X109317388Y-63443612D01*
X109325626Y-63452701D01*
X109332934Y-63462554D01*
X109339240Y-63473075D01*
X109344485Y-63484165D01*
X109348618Y-63495714D01*
X109351598Y-63507614D01*
X109353398Y-63519748D01*
X109354000Y-63532000D01*
X109354000Y-63782000D01*
X109353398Y-63794252D01*
X109351598Y-63806386D01*
X109348618Y-63818286D01*
X109344485Y-63829835D01*
X109339240Y-63840925D01*
X109332934Y-63851446D01*
X109325626Y-63861299D01*
X109317388Y-63870388D01*
X109308299Y-63878626D01*
X109298446Y-63885934D01*
X109287925Y-63892240D01*
X109276835Y-63897485D01*
X109265286Y-63901618D01*
X109253386Y-63904598D01*
X109241252Y-63906398D01*
X109229000Y-63907000D01*
X108479000Y-63907000D01*
X108466748Y-63906398D01*
X108454614Y-63904598D01*
X108442714Y-63901618D01*
X108431165Y-63897485D01*
X108420075Y-63892240D01*
X108409554Y-63885934D01*
X108399701Y-63878626D01*
X108390612Y-63870388D01*
X108382374Y-63861299D01*
X108375066Y-63851446D01*
X108368760Y-63840925D01*
X108363515Y-63829835D01*
X108359382Y-63818286D01*
X108356402Y-63806386D01*
X108354602Y-63794252D01*
X108354000Y-63782000D01*
X108354000Y-63532000D01*
X108354602Y-63519748D01*
X108356402Y-63507614D01*
X108359382Y-63495714D01*
X108363515Y-63484165D01*
X108368760Y-63473075D01*
X108375066Y-63462554D01*
X108382374Y-63452701D01*
X108390612Y-63443612D01*
X108399701Y-63435374D01*
X108409554Y-63428066D01*
X108420075Y-63421760D01*
X108431165Y-63416515D01*
X108442714Y-63412382D01*
X108454614Y-63409402D01*
X108466748Y-63407602D01*
X108479000Y-63407000D01*
X109229000Y-63407000D01*
X109241252Y-63407602D01*
X109241252Y-63407602D01*
G37*
D19*
X108854000Y-63657000D03*
D15*
G36*
X109241252Y-62607602D02*
G01*
X109253386Y-62609402D01*
X109265286Y-62612382D01*
X109276835Y-62616515D01*
X109287925Y-62621760D01*
X109298446Y-62628066D01*
X109308299Y-62635374D01*
X109317388Y-62643612D01*
X109325626Y-62652701D01*
X109332934Y-62662554D01*
X109339240Y-62673075D01*
X109344485Y-62684165D01*
X109348618Y-62695714D01*
X109351598Y-62707614D01*
X109353398Y-62719748D01*
X109354000Y-62732000D01*
X109354000Y-62982000D01*
X109353398Y-62994252D01*
X109351598Y-63006386D01*
X109348618Y-63018286D01*
X109344485Y-63029835D01*
X109339240Y-63040925D01*
X109332934Y-63051446D01*
X109325626Y-63061299D01*
X109317388Y-63070388D01*
X109308299Y-63078626D01*
X109298446Y-63085934D01*
X109287925Y-63092240D01*
X109276835Y-63097485D01*
X109265286Y-63101618D01*
X109253386Y-63104598D01*
X109241252Y-63106398D01*
X109229000Y-63107000D01*
X108479000Y-63107000D01*
X108466748Y-63106398D01*
X108454614Y-63104598D01*
X108442714Y-63101618D01*
X108431165Y-63097485D01*
X108420075Y-63092240D01*
X108409554Y-63085934D01*
X108399701Y-63078626D01*
X108390612Y-63070388D01*
X108382374Y-63061299D01*
X108375066Y-63051446D01*
X108368760Y-63040925D01*
X108363515Y-63029835D01*
X108359382Y-63018286D01*
X108356402Y-63006386D01*
X108354602Y-62994252D01*
X108354000Y-62982000D01*
X108354000Y-62732000D01*
X108354602Y-62719748D01*
X108356402Y-62707614D01*
X108359382Y-62695714D01*
X108363515Y-62684165D01*
X108368760Y-62673075D01*
X108375066Y-62662554D01*
X108382374Y-62652701D01*
X108390612Y-62643612D01*
X108399701Y-62635374D01*
X108409554Y-62628066D01*
X108420075Y-62621760D01*
X108431165Y-62616515D01*
X108442714Y-62612382D01*
X108454614Y-62609402D01*
X108466748Y-62607602D01*
X108479000Y-62607000D01*
X109229000Y-62607000D01*
X109241252Y-62607602D01*
X109241252Y-62607602D01*
G37*
D19*
X108854000Y-62857000D03*
D15*
G36*
X109241252Y-61807602D02*
G01*
X109253386Y-61809402D01*
X109265286Y-61812382D01*
X109276835Y-61816515D01*
X109287925Y-61821760D01*
X109298446Y-61828066D01*
X109308299Y-61835374D01*
X109317388Y-61843612D01*
X109325626Y-61852701D01*
X109332934Y-61862554D01*
X109339240Y-61873075D01*
X109344485Y-61884165D01*
X109348618Y-61895714D01*
X109351598Y-61907614D01*
X109353398Y-61919748D01*
X109354000Y-61932000D01*
X109354000Y-62182000D01*
X109353398Y-62194252D01*
X109351598Y-62206386D01*
X109348618Y-62218286D01*
X109344485Y-62229835D01*
X109339240Y-62240925D01*
X109332934Y-62251446D01*
X109325626Y-62261299D01*
X109317388Y-62270388D01*
X109308299Y-62278626D01*
X109298446Y-62285934D01*
X109287925Y-62292240D01*
X109276835Y-62297485D01*
X109265286Y-62301618D01*
X109253386Y-62304598D01*
X109241252Y-62306398D01*
X109229000Y-62307000D01*
X108479000Y-62307000D01*
X108466748Y-62306398D01*
X108454614Y-62304598D01*
X108442714Y-62301618D01*
X108431165Y-62297485D01*
X108420075Y-62292240D01*
X108409554Y-62285934D01*
X108399701Y-62278626D01*
X108390612Y-62270388D01*
X108382374Y-62261299D01*
X108375066Y-62251446D01*
X108368760Y-62240925D01*
X108363515Y-62229835D01*
X108359382Y-62218286D01*
X108356402Y-62206386D01*
X108354602Y-62194252D01*
X108354000Y-62182000D01*
X108354000Y-61932000D01*
X108354602Y-61919748D01*
X108356402Y-61907614D01*
X108359382Y-61895714D01*
X108363515Y-61884165D01*
X108368760Y-61873075D01*
X108375066Y-61862554D01*
X108382374Y-61852701D01*
X108390612Y-61843612D01*
X108399701Y-61835374D01*
X108409554Y-61828066D01*
X108420075Y-61821760D01*
X108431165Y-61816515D01*
X108442714Y-61812382D01*
X108454614Y-61809402D01*
X108466748Y-61807602D01*
X108479000Y-61807000D01*
X109229000Y-61807000D01*
X109241252Y-61807602D01*
X109241252Y-61807602D01*
G37*
D19*
X108854000Y-62057000D03*
D15*
G36*
X109241252Y-61007602D02*
G01*
X109253386Y-61009402D01*
X109265286Y-61012382D01*
X109276835Y-61016515D01*
X109287925Y-61021760D01*
X109298446Y-61028066D01*
X109308299Y-61035374D01*
X109317388Y-61043612D01*
X109325626Y-61052701D01*
X109332934Y-61062554D01*
X109339240Y-61073075D01*
X109344485Y-61084165D01*
X109348618Y-61095714D01*
X109351598Y-61107614D01*
X109353398Y-61119748D01*
X109354000Y-61132000D01*
X109354000Y-61382000D01*
X109353398Y-61394252D01*
X109351598Y-61406386D01*
X109348618Y-61418286D01*
X109344485Y-61429835D01*
X109339240Y-61440925D01*
X109332934Y-61451446D01*
X109325626Y-61461299D01*
X109317388Y-61470388D01*
X109308299Y-61478626D01*
X109298446Y-61485934D01*
X109287925Y-61492240D01*
X109276835Y-61497485D01*
X109265286Y-61501618D01*
X109253386Y-61504598D01*
X109241252Y-61506398D01*
X109229000Y-61507000D01*
X108479000Y-61507000D01*
X108466748Y-61506398D01*
X108454614Y-61504598D01*
X108442714Y-61501618D01*
X108431165Y-61497485D01*
X108420075Y-61492240D01*
X108409554Y-61485934D01*
X108399701Y-61478626D01*
X108390612Y-61470388D01*
X108382374Y-61461299D01*
X108375066Y-61451446D01*
X108368760Y-61440925D01*
X108363515Y-61429835D01*
X108359382Y-61418286D01*
X108356402Y-61406386D01*
X108354602Y-61394252D01*
X108354000Y-61382000D01*
X108354000Y-61132000D01*
X108354602Y-61119748D01*
X108356402Y-61107614D01*
X108359382Y-61095714D01*
X108363515Y-61084165D01*
X108368760Y-61073075D01*
X108375066Y-61062554D01*
X108382374Y-61052701D01*
X108390612Y-61043612D01*
X108399701Y-61035374D01*
X108409554Y-61028066D01*
X108420075Y-61021760D01*
X108431165Y-61016515D01*
X108442714Y-61012382D01*
X108454614Y-61009402D01*
X108466748Y-61007602D01*
X108479000Y-61007000D01*
X109229000Y-61007000D01*
X109241252Y-61007602D01*
X109241252Y-61007602D01*
G37*
D19*
X108854000Y-61257000D03*
D15*
G36*
X109241252Y-60207602D02*
G01*
X109253386Y-60209402D01*
X109265286Y-60212382D01*
X109276835Y-60216515D01*
X109287925Y-60221760D01*
X109298446Y-60228066D01*
X109308299Y-60235374D01*
X109317388Y-60243612D01*
X109325626Y-60252701D01*
X109332934Y-60262554D01*
X109339240Y-60273075D01*
X109344485Y-60284165D01*
X109348618Y-60295714D01*
X109351598Y-60307614D01*
X109353398Y-60319748D01*
X109354000Y-60332000D01*
X109354000Y-60582000D01*
X109353398Y-60594252D01*
X109351598Y-60606386D01*
X109348618Y-60618286D01*
X109344485Y-60629835D01*
X109339240Y-60640925D01*
X109332934Y-60651446D01*
X109325626Y-60661299D01*
X109317388Y-60670388D01*
X109308299Y-60678626D01*
X109298446Y-60685934D01*
X109287925Y-60692240D01*
X109276835Y-60697485D01*
X109265286Y-60701618D01*
X109253386Y-60704598D01*
X109241252Y-60706398D01*
X109229000Y-60707000D01*
X108479000Y-60707000D01*
X108466748Y-60706398D01*
X108454614Y-60704598D01*
X108442714Y-60701618D01*
X108431165Y-60697485D01*
X108420075Y-60692240D01*
X108409554Y-60685934D01*
X108399701Y-60678626D01*
X108390612Y-60670388D01*
X108382374Y-60661299D01*
X108375066Y-60651446D01*
X108368760Y-60640925D01*
X108363515Y-60629835D01*
X108359382Y-60618286D01*
X108356402Y-60606386D01*
X108354602Y-60594252D01*
X108354000Y-60582000D01*
X108354000Y-60332000D01*
X108354602Y-60319748D01*
X108356402Y-60307614D01*
X108359382Y-60295714D01*
X108363515Y-60284165D01*
X108368760Y-60273075D01*
X108375066Y-60262554D01*
X108382374Y-60252701D01*
X108390612Y-60243612D01*
X108399701Y-60235374D01*
X108409554Y-60228066D01*
X108420075Y-60221760D01*
X108431165Y-60216515D01*
X108442714Y-60212382D01*
X108454614Y-60209402D01*
X108466748Y-60207602D01*
X108479000Y-60207000D01*
X109229000Y-60207000D01*
X109241252Y-60207602D01*
X109241252Y-60207602D01*
G37*
D19*
X108854000Y-60457000D03*
D15*
G36*
X109241252Y-59407602D02*
G01*
X109253386Y-59409402D01*
X109265286Y-59412382D01*
X109276835Y-59416515D01*
X109287925Y-59421760D01*
X109298446Y-59428066D01*
X109308299Y-59435374D01*
X109317388Y-59443612D01*
X109325626Y-59452701D01*
X109332934Y-59462554D01*
X109339240Y-59473075D01*
X109344485Y-59484165D01*
X109348618Y-59495714D01*
X109351598Y-59507614D01*
X109353398Y-59519748D01*
X109354000Y-59532000D01*
X109354000Y-59782000D01*
X109353398Y-59794252D01*
X109351598Y-59806386D01*
X109348618Y-59818286D01*
X109344485Y-59829835D01*
X109339240Y-59840925D01*
X109332934Y-59851446D01*
X109325626Y-59861299D01*
X109317388Y-59870388D01*
X109308299Y-59878626D01*
X109298446Y-59885934D01*
X109287925Y-59892240D01*
X109276835Y-59897485D01*
X109265286Y-59901618D01*
X109253386Y-59904598D01*
X109241252Y-59906398D01*
X109229000Y-59907000D01*
X108479000Y-59907000D01*
X108466748Y-59906398D01*
X108454614Y-59904598D01*
X108442714Y-59901618D01*
X108431165Y-59897485D01*
X108420075Y-59892240D01*
X108409554Y-59885934D01*
X108399701Y-59878626D01*
X108390612Y-59870388D01*
X108382374Y-59861299D01*
X108375066Y-59851446D01*
X108368760Y-59840925D01*
X108363515Y-59829835D01*
X108359382Y-59818286D01*
X108356402Y-59806386D01*
X108354602Y-59794252D01*
X108354000Y-59782000D01*
X108354000Y-59532000D01*
X108354602Y-59519748D01*
X108356402Y-59507614D01*
X108359382Y-59495714D01*
X108363515Y-59484165D01*
X108368760Y-59473075D01*
X108375066Y-59462554D01*
X108382374Y-59452701D01*
X108390612Y-59443612D01*
X108399701Y-59435374D01*
X108409554Y-59428066D01*
X108420075Y-59421760D01*
X108431165Y-59416515D01*
X108442714Y-59412382D01*
X108454614Y-59409402D01*
X108466748Y-59407602D01*
X108479000Y-59407000D01*
X109229000Y-59407000D01*
X109241252Y-59407602D01*
X109241252Y-59407602D01*
G37*
D19*
X108854000Y-59657000D03*
D15*
G36*
X109241252Y-58607602D02*
G01*
X109253386Y-58609402D01*
X109265286Y-58612382D01*
X109276835Y-58616515D01*
X109287925Y-58621760D01*
X109298446Y-58628066D01*
X109308299Y-58635374D01*
X109317388Y-58643612D01*
X109325626Y-58652701D01*
X109332934Y-58662554D01*
X109339240Y-58673075D01*
X109344485Y-58684165D01*
X109348618Y-58695714D01*
X109351598Y-58707614D01*
X109353398Y-58719748D01*
X109354000Y-58732000D01*
X109354000Y-58982000D01*
X109353398Y-58994252D01*
X109351598Y-59006386D01*
X109348618Y-59018286D01*
X109344485Y-59029835D01*
X109339240Y-59040925D01*
X109332934Y-59051446D01*
X109325626Y-59061299D01*
X109317388Y-59070388D01*
X109308299Y-59078626D01*
X109298446Y-59085934D01*
X109287925Y-59092240D01*
X109276835Y-59097485D01*
X109265286Y-59101618D01*
X109253386Y-59104598D01*
X109241252Y-59106398D01*
X109229000Y-59107000D01*
X108479000Y-59107000D01*
X108466748Y-59106398D01*
X108454614Y-59104598D01*
X108442714Y-59101618D01*
X108431165Y-59097485D01*
X108420075Y-59092240D01*
X108409554Y-59085934D01*
X108399701Y-59078626D01*
X108390612Y-59070388D01*
X108382374Y-59061299D01*
X108375066Y-59051446D01*
X108368760Y-59040925D01*
X108363515Y-59029835D01*
X108359382Y-59018286D01*
X108356402Y-59006386D01*
X108354602Y-58994252D01*
X108354000Y-58982000D01*
X108354000Y-58732000D01*
X108354602Y-58719748D01*
X108356402Y-58707614D01*
X108359382Y-58695714D01*
X108363515Y-58684165D01*
X108368760Y-58673075D01*
X108375066Y-58662554D01*
X108382374Y-58652701D01*
X108390612Y-58643612D01*
X108399701Y-58635374D01*
X108409554Y-58628066D01*
X108420075Y-58621760D01*
X108431165Y-58616515D01*
X108442714Y-58612382D01*
X108454614Y-58609402D01*
X108466748Y-58607602D01*
X108479000Y-58607000D01*
X109229000Y-58607000D01*
X109241252Y-58607602D01*
X109241252Y-58607602D01*
G37*
D19*
X108854000Y-58857000D03*
D15*
G36*
X109241252Y-57807602D02*
G01*
X109253386Y-57809402D01*
X109265286Y-57812382D01*
X109276835Y-57816515D01*
X109287925Y-57821760D01*
X109298446Y-57828066D01*
X109308299Y-57835374D01*
X109317388Y-57843612D01*
X109325626Y-57852701D01*
X109332934Y-57862554D01*
X109339240Y-57873075D01*
X109344485Y-57884165D01*
X109348618Y-57895714D01*
X109351598Y-57907614D01*
X109353398Y-57919748D01*
X109354000Y-57932000D01*
X109354000Y-58182000D01*
X109353398Y-58194252D01*
X109351598Y-58206386D01*
X109348618Y-58218286D01*
X109344485Y-58229835D01*
X109339240Y-58240925D01*
X109332934Y-58251446D01*
X109325626Y-58261299D01*
X109317388Y-58270388D01*
X109308299Y-58278626D01*
X109298446Y-58285934D01*
X109287925Y-58292240D01*
X109276835Y-58297485D01*
X109265286Y-58301618D01*
X109253386Y-58304598D01*
X109241252Y-58306398D01*
X109229000Y-58307000D01*
X108479000Y-58307000D01*
X108466748Y-58306398D01*
X108454614Y-58304598D01*
X108442714Y-58301618D01*
X108431165Y-58297485D01*
X108420075Y-58292240D01*
X108409554Y-58285934D01*
X108399701Y-58278626D01*
X108390612Y-58270388D01*
X108382374Y-58261299D01*
X108375066Y-58251446D01*
X108368760Y-58240925D01*
X108363515Y-58229835D01*
X108359382Y-58218286D01*
X108356402Y-58206386D01*
X108354602Y-58194252D01*
X108354000Y-58182000D01*
X108354000Y-57932000D01*
X108354602Y-57919748D01*
X108356402Y-57907614D01*
X108359382Y-57895714D01*
X108363515Y-57884165D01*
X108368760Y-57873075D01*
X108375066Y-57862554D01*
X108382374Y-57852701D01*
X108390612Y-57843612D01*
X108399701Y-57835374D01*
X108409554Y-57828066D01*
X108420075Y-57821760D01*
X108431165Y-57816515D01*
X108442714Y-57812382D01*
X108454614Y-57809402D01*
X108466748Y-57807602D01*
X108479000Y-57807000D01*
X109229000Y-57807000D01*
X109241252Y-57807602D01*
X109241252Y-57807602D01*
G37*
D19*
X108854000Y-58057000D03*
D15*
G36*
X109241252Y-57007602D02*
G01*
X109253386Y-57009402D01*
X109265286Y-57012382D01*
X109276835Y-57016515D01*
X109287925Y-57021760D01*
X109298446Y-57028066D01*
X109308299Y-57035374D01*
X109317388Y-57043612D01*
X109325626Y-57052701D01*
X109332934Y-57062554D01*
X109339240Y-57073075D01*
X109344485Y-57084165D01*
X109348618Y-57095714D01*
X109351598Y-57107614D01*
X109353398Y-57119748D01*
X109354000Y-57132000D01*
X109354000Y-57382000D01*
X109353398Y-57394252D01*
X109351598Y-57406386D01*
X109348618Y-57418286D01*
X109344485Y-57429835D01*
X109339240Y-57440925D01*
X109332934Y-57451446D01*
X109325626Y-57461299D01*
X109317388Y-57470388D01*
X109308299Y-57478626D01*
X109298446Y-57485934D01*
X109287925Y-57492240D01*
X109276835Y-57497485D01*
X109265286Y-57501618D01*
X109253386Y-57504598D01*
X109241252Y-57506398D01*
X109229000Y-57507000D01*
X108479000Y-57507000D01*
X108466748Y-57506398D01*
X108454614Y-57504598D01*
X108442714Y-57501618D01*
X108431165Y-57497485D01*
X108420075Y-57492240D01*
X108409554Y-57485934D01*
X108399701Y-57478626D01*
X108390612Y-57470388D01*
X108382374Y-57461299D01*
X108375066Y-57451446D01*
X108368760Y-57440925D01*
X108363515Y-57429835D01*
X108359382Y-57418286D01*
X108356402Y-57406386D01*
X108354602Y-57394252D01*
X108354000Y-57382000D01*
X108354000Y-57132000D01*
X108354602Y-57119748D01*
X108356402Y-57107614D01*
X108359382Y-57095714D01*
X108363515Y-57084165D01*
X108368760Y-57073075D01*
X108375066Y-57062554D01*
X108382374Y-57052701D01*
X108390612Y-57043612D01*
X108399701Y-57035374D01*
X108409554Y-57028066D01*
X108420075Y-57021760D01*
X108431165Y-57016515D01*
X108442714Y-57012382D01*
X108454614Y-57009402D01*
X108466748Y-57007602D01*
X108479000Y-57007000D01*
X109229000Y-57007000D01*
X109241252Y-57007602D01*
X109241252Y-57007602D01*
G37*
D19*
X108854000Y-57257000D03*
D15*
G36*
X133278558Y-67498710D02*
G01*
X133292876Y-67500834D01*
X133306917Y-67504351D01*
X133320546Y-67509228D01*
X133333631Y-67515417D01*
X133346047Y-67522858D01*
X133357673Y-67531481D01*
X133368398Y-67541202D01*
X133378119Y-67551927D01*
X133386742Y-67563553D01*
X133394183Y-67575969D01*
X133400372Y-67589054D01*
X133405249Y-67602683D01*
X133408766Y-67616724D01*
X133410890Y-67631042D01*
X133411600Y-67645500D01*
X133411600Y-67990500D01*
X133410890Y-68004958D01*
X133408766Y-68019276D01*
X133405249Y-68033317D01*
X133400372Y-68046946D01*
X133394183Y-68060031D01*
X133386742Y-68072447D01*
X133378119Y-68084073D01*
X133368398Y-68094798D01*
X133357673Y-68104519D01*
X133346047Y-68113142D01*
X133333631Y-68120583D01*
X133320546Y-68126772D01*
X133306917Y-68131649D01*
X133292876Y-68135166D01*
X133278558Y-68137290D01*
X133264100Y-68138000D01*
X132969100Y-68138000D01*
X132954642Y-68137290D01*
X132940324Y-68135166D01*
X132926283Y-68131649D01*
X132912654Y-68126772D01*
X132899569Y-68120583D01*
X132887153Y-68113142D01*
X132875527Y-68104519D01*
X132864802Y-68094798D01*
X132855081Y-68084073D01*
X132846458Y-68072447D01*
X132839017Y-68060031D01*
X132832828Y-68046946D01*
X132827951Y-68033317D01*
X132824434Y-68019276D01*
X132822310Y-68004958D01*
X132821600Y-67990500D01*
X132821600Y-67645500D01*
X132822310Y-67631042D01*
X132824434Y-67616724D01*
X132827951Y-67602683D01*
X132832828Y-67589054D01*
X132839017Y-67575969D01*
X132846458Y-67563553D01*
X132855081Y-67551927D01*
X132864802Y-67541202D01*
X132875527Y-67531481D01*
X132887153Y-67522858D01*
X132899569Y-67515417D01*
X132912654Y-67509228D01*
X132926283Y-67504351D01*
X132940324Y-67500834D01*
X132954642Y-67498710D01*
X132969100Y-67498000D01*
X133264100Y-67498000D01*
X133278558Y-67498710D01*
X133278558Y-67498710D01*
G37*
D16*
X133116600Y-67818000D03*
D15*
G36*
X134248558Y-67498710D02*
G01*
X134262876Y-67500834D01*
X134276917Y-67504351D01*
X134290546Y-67509228D01*
X134303631Y-67515417D01*
X134316047Y-67522858D01*
X134327673Y-67531481D01*
X134338398Y-67541202D01*
X134348119Y-67551927D01*
X134356742Y-67563553D01*
X134364183Y-67575969D01*
X134370372Y-67589054D01*
X134375249Y-67602683D01*
X134378766Y-67616724D01*
X134380890Y-67631042D01*
X134381600Y-67645500D01*
X134381600Y-67990500D01*
X134380890Y-68004958D01*
X134378766Y-68019276D01*
X134375249Y-68033317D01*
X134370372Y-68046946D01*
X134364183Y-68060031D01*
X134356742Y-68072447D01*
X134348119Y-68084073D01*
X134338398Y-68094798D01*
X134327673Y-68104519D01*
X134316047Y-68113142D01*
X134303631Y-68120583D01*
X134290546Y-68126772D01*
X134276917Y-68131649D01*
X134262876Y-68135166D01*
X134248558Y-68137290D01*
X134234100Y-68138000D01*
X133939100Y-68138000D01*
X133924642Y-68137290D01*
X133910324Y-68135166D01*
X133896283Y-68131649D01*
X133882654Y-68126772D01*
X133869569Y-68120583D01*
X133857153Y-68113142D01*
X133845527Y-68104519D01*
X133834802Y-68094798D01*
X133825081Y-68084073D01*
X133816458Y-68072447D01*
X133809017Y-68060031D01*
X133802828Y-68046946D01*
X133797951Y-68033317D01*
X133794434Y-68019276D01*
X133792310Y-68004958D01*
X133791600Y-67990500D01*
X133791600Y-67645500D01*
X133792310Y-67631042D01*
X133794434Y-67616724D01*
X133797951Y-67602683D01*
X133802828Y-67589054D01*
X133809017Y-67575969D01*
X133816458Y-67563553D01*
X133825081Y-67551927D01*
X133834802Y-67541202D01*
X133845527Y-67531481D01*
X133857153Y-67522858D01*
X133869569Y-67515417D01*
X133882654Y-67509228D01*
X133896283Y-67504351D01*
X133910324Y-67500834D01*
X133924642Y-67498710D01*
X133939100Y-67498000D01*
X134234100Y-67498000D01*
X134248558Y-67498710D01*
X134248558Y-67498710D01*
G37*
D16*
X134086600Y-67818000D03*
D20*
X128481000Y-62103000D03*
X128481000Y-61153000D03*
X128481000Y-63053000D03*
X126281000Y-63053000D03*
X126281000Y-62103000D03*
X126281000Y-61153000D03*
D21*
X126805000Y-65100000D03*
D22*
X127780000Y-66025000D03*
D23*
X129070000Y-65800000D03*
D24*
X128270000Y-55325000D03*
D25*
X130755000Y-56475000D03*
X130755000Y-57575000D03*
X130755000Y-58675000D03*
X130755000Y-59775000D03*
X130755000Y-60875000D03*
X130755000Y-61975000D03*
X130755000Y-63075000D03*
X130755000Y-64175000D03*
D26*
X138430000Y-66862400D03*
X138430000Y-61062400D03*
D27*
X138430000Y-60462400D03*
X138430000Y-67462400D03*
D28*
X138430000Y-64962400D03*
D29*
X135730000Y-61462400D03*
D30*
X135730000Y-63962400D03*
X135730000Y-63312400D03*
X135730000Y-62662400D03*
X135730000Y-65262400D03*
X135730000Y-64612400D03*
D29*
X135730000Y-66462400D03*
D28*
X138430000Y-62962400D03*
D15*
G36*
X111967958Y-54671710D02*
G01*
X111982276Y-54673834D01*
X111996317Y-54677351D01*
X112009946Y-54682228D01*
X112023031Y-54688417D01*
X112035447Y-54695858D01*
X112047073Y-54704481D01*
X112057798Y-54714202D01*
X112067519Y-54724927D01*
X112076142Y-54736553D01*
X112083583Y-54748969D01*
X112089772Y-54762054D01*
X112094649Y-54775683D01*
X112098166Y-54789724D01*
X112100290Y-54804042D01*
X112101000Y-54818500D01*
X112101000Y-55163500D01*
X112100290Y-55177958D01*
X112098166Y-55192276D01*
X112094649Y-55206317D01*
X112089772Y-55219946D01*
X112083583Y-55233031D01*
X112076142Y-55245447D01*
X112067519Y-55257073D01*
X112057798Y-55267798D01*
X112047073Y-55277519D01*
X112035447Y-55286142D01*
X112023031Y-55293583D01*
X112009946Y-55299772D01*
X111996317Y-55304649D01*
X111982276Y-55308166D01*
X111967958Y-55310290D01*
X111953500Y-55311000D01*
X111658500Y-55311000D01*
X111644042Y-55310290D01*
X111629724Y-55308166D01*
X111615683Y-55304649D01*
X111602054Y-55299772D01*
X111588969Y-55293583D01*
X111576553Y-55286142D01*
X111564927Y-55277519D01*
X111554202Y-55267798D01*
X111544481Y-55257073D01*
X111535858Y-55245447D01*
X111528417Y-55233031D01*
X111522228Y-55219946D01*
X111517351Y-55206317D01*
X111513834Y-55192276D01*
X111511710Y-55177958D01*
X111511000Y-55163500D01*
X111511000Y-54818500D01*
X111511710Y-54804042D01*
X111513834Y-54789724D01*
X111517351Y-54775683D01*
X111522228Y-54762054D01*
X111528417Y-54748969D01*
X111535858Y-54736553D01*
X111544481Y-54724927D01*
X111554202Y-54714202D01*
X111564927Y-54704481D01*
X111576553Y-54695858D01*
X111588969Y-54688417D01*
X111602054Y-54682228D01*
X111615683Y-54677351D01*
X111629724Y-54673834D01*
X111644042Y-54671710D01*
X111658500Y-54671000D01*
X111953500Y-54671000D01*
X111967958Y-54671710D01*
X111967958Y-54671710D01*
G37*
D16*
X111806000Y-54991000D03*
D15*
G36*
X112937958Y-54671710D02*
G01*
X112952276Y-54673834D01*
X112966317Y-54677351D01*
X112979946Y-54682228D01*
X112993031Y-54688417D01*
X113005447Y-54695858D01*
X113017073Y-54704481D01*
X113027798Y-54714202D01*
X113037519Y-54724927D01*
X113046142Y-54736553D01*
X113053583Y-54748969D01*
X113059772Y-54762054D01*
X113064649Y-54775683D01*
X113068166Y-54789724D01*
X113070290Y-54804042D01*
X113071000Y-54818500D01*
X113071000Y-55163500D01*
X113070290Y-55177958D01*
X113068166Y-55192276D01*
X113064649Y-55206317D01*
X113059772Y-55219946D01*
X113053583Y-55233031D01*
X113046142Y-55245447D01*
X113037519Y-55257073D01*
X113027798Y-55267798D01*
X113017073Y-55277519D01*
X113005447Y-55286142D01*
X112993031Y-55293583D01*
X112979946Y-55299772D01*
X112966317Y-55304649D01*
X112952276Y-55308166D01*
X112937958Y-55310290D01*
X112923500Y-55311000D01*
X112628500Y-55311000D01*
X112614042Y-55310290D01*
X112599724Y-55308166D01*
X112585683Y-55304649D01*
X112572054Y-55299772D01*
X112558969Y-55293583D01*
X112546553Y-55286142D01*
X112534927Y-55277519D01*
X112524202Y-55267798D01*
X112514481Y-55257073D01*
X112505858Y-55245447D01*
X112498417Y-55233031D01*
X112492228Y-55219946D01*
X112487351Y-55206317D01*
X112483834Y-55192276D01*
X112481710Y-55177958D01*
X112481000Y-55163500D01*
X112481000Y-54818500D01*
X112481710Y-54804042D01*
X112483834Y-54789724D01*
X112487351Y-54775683D01*
X112492228Y-54762054D01*
X112498417Y-54748969D01*
X112505858Y-54736553D01*
X112514481Y-54724927D01*
X112524202Y-54714202D01*
X112534927Y-54704481D01*
X112546553Y-54695858D01*
X112558969Y-54688417D01*
X112572054Y-54682228D01*
X112585683Y-54677351D01*
X112599724Y-54673834D01*
X112614042Y-54671710D01*
X112628500Y-54671000D01*
X112923500Y-54671000D01*
X112937958Y-54671710D01*
X112937958Y-54671710D01*
G37*
D16*
X112776000Y-54991000D03*
D15*
G36*
X123961558Y-66076310D02*
G01*
X123975876Y-66078434D01*
X123989917Y-66081951D01*
X124003546Y-66086828D01*
X124016631Y-66093017D01*
X124029047Y-66100458D01*
X124040673Y-66109081D01*
X124051398Y-66118802D01*
X124061119Y-66129527D01*
X124069742Y-66141153D01*
X124077183Y-66153569D01*
X124083372Y-66166654D01*
X124088249Y-66180283D01*
X124091766Y-66194324D01*
X124093890Y-66208642D01*
X124094600Y-66223100D01*
X124094600Y-66568100D01*
X124093890Y-66582558D01*
X124091766Y-66596876D01*
X124088249Y-66610917D01*
X124083372Y-66624546D01*
X124077183Y-66637631D01*
X124069742Y-66650047D01*
X124061119Y-66661673D01*
X124051398Y-66672398D01*
X124040673Y-66682119D01*
X124029047Y-66690742D01*
X124016631Y-66698183D01*
X124003546Y-66704372D01*
X123989917Y-66709249D01*
X123975876Y-66712766D01*
X123961558Y-66714890D01*
X123947100Y-66715600D01*
X123652100Y-66715600D01*
X123637642Y-66714890D01*
X123623324Y-66712766D01*
X123609283Y-66709249D01*
X123595654Y-66704372D01*
X123582569Y-66698183D01*
X123570153Y-66690742D01*
X123558527Y-66682119D01*
X123547802Y-66672398D01*
X123538081Y-66661673D01*
X123529458Y-66650047D01*
X123522017Y-66637631D01*
X123515828Y-66624546D01*
X123510951Y-66610917D01*
X123507434Y-66596876D01*
X123505310Y-66582558D01*
X123504600Y-66568100D01*
X123504600Y-66223100D01*
X123505310Y-66208642D01*
X123507434Y-66194324D01*
X123510951Y-66180283D01*
X123515828Y-66166654D01*
X123522017Y-66153569D01*
X123529458Y-66141153D01*
X123538081Y-66129527D01*
X123547802Y-66118802D01*
X123558527Y-66109081D01*
X123570153Y-66100458D01*
X123582569Y-66093017D01*
X123595654Y-66086828D01*
X123609283Y-66081951D01*
X123623324Y-66078434D01*
X123637642Y-66076310D01*
X123652100Y-66075600D01*
X123947100Y-66075600D01*
X123961558Y-66076310D01*
X123961558Y-66076310D01*
G37*
D16*
X123799600Y-66395600D03*
D15*
G36*
X122991558Y-66076310D02*
G01*
X123005876Y-66078434D01*
X123019917Y-66081951D01*
X123033546Y-66086828D01*
X123046631Y-66093017D01*
X123059047Y-66100458D01*
X123070673Y-66109081D01*
X123081398Y-66118802D01*
X123091119Y-66129527D01*
X123099742Y-66141153D01*
X123107183Y-66153569D01*
X123113372Y-66166654D01*
X123118249Y-66180283D01*
X123121766Y-66194324D01*
X123123890Y-66208642D01*
X123124600Y-66223100D01*
X123124600Y-66568100D01*
X123123890Y-66582558D01*
X123121766Y-66596876D01*
X123118249Y-66610917D01*
X123113372Y-66624546D01*
X123107183Y-66637631D01*
X123099742Y-66650047D01*
X123091119Y-66661673D01*
X123081398Y-66672398D01*
X123070673Y-66682119D01*
X123059047Y-66690742D01*
X123046631Y-66698183D01*
X123033546Y-66704372D01*
X123019917Y-66709249D01*
X123005876Y-66712766D01*
X122991558Y-66714890D01*
X122977100Y-66715600D01*
X122682100Y-66715600D01*
X122667642Y-66714890D01*
X122653324Y-66712766D01*
X122639283Y-66709249D01*
X122625654Y-66704372D01*
X122612569Y-66698183D01*
X122600153Y-66690742D01*
X122588527Y-66682119D01*
X122577802Y-66672398D01*
X122568081Y-66661673D01*
X122559458Y-66650047D01*
X122552017Y-66637631D01*
X122545828Y-66624546D01*
X122540951Y-66610917D01*
X122537434Y-66596876D01*
X122535310Y-66582558D01*
X122534600Y-66568100D01*
X122534600Y-66223100D01*
X122535310Y-66208642D01*
X122537434Y-66194324D01*
X122540951Y-66180283D01*
X122545828Y-66166654D01*
X122552017Y-66153569D01*
X122559458Y-66141153D01*
X122568081Y-66129527D01*
X122577802Y-66118802D01*
X122588527Y-66109081D01*
X122600153Y-66100458D01*
X122612569Y-66093017D01*
X122625654Y-66086828D01*
X122639283Y-66081951D01*
X122653324Y-66078434D01*
X122667642Y-66076310D01*
X122682100Y-66075600D01*
X122977100Y-66075600D01*
X122991558Y-66076310D01*
X122991558Y-66076310D01*
G37*
D16*
X122829600Y-66395600D03*
D15*
G36*
X123961558Y-66939910D02*
G01*
X123975876Y-66942034D01*
X123989917Y-66945551D01*
X124003546Y-66950428D01*
X124016631Y-66956617D01*
X124029047Y-66964058D01*
X124040673Y-66972681D01*
X124051398Y-66982402D01*
X124061119Y-66993127D01*
X124069742Y-67004753D01*
X124077183Y-67017169D01*
X124083372Y-67030254D01*
X124088249Y-67043883D01*
X124091766Y-67057924D01*
X124093890Y-67072242D01*
X124094600Y-67086700D01*
X124094600Y-67431700D01*
X124093890Y-67446158D01*
X124091766Y-67460476D01*
X124088249Y-67474517D01*
X124083372Y-67488146D01*
X124077183Y-67501231D01*
X124069742Y-67513647D01*
X124061119Y-67525273D01*
X124051398Y-67535998D01*
X124040673Y-67545719D01*
X124029047Y-67554342D01*
X124016631Y-67561783D01*
X124003546Y-67567972D01*
X123989917Y-67572849D01*
X123975876Y-67576366D01*
X123961558Y-67578490D01*
X123947100Y-67579200D01*
X123652100Y-67579200D01*
X123637642Y-67578490D01*
X123623324Y-67576366D01*
X123609283Y-67572849D01*
X123595654Y-67567972D01*
X123582569Y-67561783D01*
X123570153Y-67554342D01*
X123558527Y-67545719D01*
X123547802Y-67535998D01*
X123538081Y-67525273D01*
X123529458Y-67513647D01*
X123522017Y-67501231D01*
X123515828Y-67488146D01*
X123510951Y-67474517D01*
X123507434Y-67460476D01*
X123505310Y-67446158D01*
X123504600Y-67431700D01*
X123504600Y-67086700D01*
X123505310Y-67072242D01*
X123507434Y-67057924D01*
X123510951Y-67043883D01*
X123515828Y-67030254D01*
X123522017Y-67017169D01*
X123529458Y-67004753D01*
X123538081Y-66993127D01*
X123547802Y-66982402D01*
X123558527Y-66972681D01*
X123570153Y-66964058D01*
X123582569Y-66956617D01*
X123595654Y-66950428D01*
X123609283Y-66945551D01*
X123623324Y-66942034D01*
X123637642Y-66939910D01*
X123652100Y-66939200D01*
X123947100Y-66939200D01*
X123961558Y-66939910D01*
X123961558Y-66939910D01*
G37*
D16*
X123799600Y-67259200D03*
D15*
G36*
X122991558Y-66939910D02*
G01*
X123005876Y-66942034D01*
X123019917Y-66945551D01*
X123033546Y-66950428D01*
X123046631Y-66956617D01*
X123059047Y-66964058D01*
X123070673Y-66972681D01*
X123081398Y-66982402D01*
X123091119Y-66993127D01*
X123099742Y-67004753D01*
X123107183Y-67017169D01*
X123113372Y-67030254D01*
X123118249Y-67043883D01*
X123121766Y-67057924D01*
X123123890Y-67072242D01*
X123124600Y-67086700D01*
X123124600Y-67431700D01*
X123123890Y-67446158D01*
X123121766Y-67460476D01*
X123118249Y-67474517D01*
X123113372Y-67488146D01*
X123107183Y-67501231D01*
X123099742Y-67513647D01*
X123091119Y-67525273D01*
X123081398Y-67535998D01*
X123070673Y-67545719D01*
X123059047Y-67554342D01*
X123046631Y-67561783D01*
X123033546Y-67567972D01*
X123019917Y-67572849D01*
X123005876Y-67576366D01*
X122991558Y-67578490D01*
X122977100Y-67579200D01*
X122682100Y-67579200D01*
X122667642Y-67578490D01*
X122653324Y-67576366D01*
X122639283Y-67572849D01*
X122625654Y-67567972D01*
X122612569Y-67561783D01*
X122600153Y-67554342D01*
X122588527Y-67545719D01*
X122577802Y-67535998D01*
X122568081Y-67525273D01*
X122559458Y-67513647D01*
X122552017Y-67501231D01*
X122545828Y-67488146D01*
X122540951Y-67474517D01*
X122537434Y-67460476D01*
X122535310Y-67446158D01*
X122534600Y-67431700D01*
X122534600Y-67086700D01*
X122535310Y-67072242D01*
X122537434Y-67057924D01*
X122540951Y-67043883D01*
X122545828Y-67030254D01*
X122552017Y-67017169D01*
X122559458Y-67004753D01*
X122568081Y-66993127D01*
X122577802Y-66982402D01*
X122588527Y-66972681D01*
X122600153Y-66964058D01*
X122612569Y-66956617D01*
X122625654Y-66950428D01*
X122639283Y-66945551D01*
X122653324Y-66942034D01*
X122667642Y-66939910D01*
X122682100Y-66939200D01*
X122977100Y-66939200D01*
X122991558Y-66939910D01*
X122991558Y-66939910D01*
G37*
D16*
X122829600Y-67259200D03*
D15*
G36*
X126783191Y-66836053D02*
G01*
X126804426Y-66839203D01*
X126825250Y-66844419D01*
X126845462Y-66851651D01*
X126864868Y-66860830D01*
X126883281Y-66871866D01*
X126900524Y-66884654D01*
X126916430Y-66899070D01*
X126930846Y-66914976D01*
X126943634Y-66932219D01*
X126954670Y-66950632D01*
X126963849Y-66970038D01*
X126971081Y-66990250D01*
X126976297Y-67011074D01*
X126979447Y-67032309D01*
X126980500Y-67053750D01*
X126980500Y-67566250D01*
X126979447Y-67587691D01*
X126976297Y-67608926D01*
X126971081Y-67629750D01*
X126963849Y-67649962D01*
X126954670Y-67669368D01*
X126943634Y-67687781D01*
X126930846Y-67705024D01*
X126916430Y-67720930D01*
X126900524Y-67735346D01*
X126883281Y-67748134D01*
X126864868Y-67759170D01*
X126845462Y-67768349D01*
X126825250Y-67775581D01*
X126804426Y-67780797D01*
X126783191Y-67783947D01*
X126761750Y-67785000D01*
X126324250Y-67785000D01*
X126302809Y-67783947D01*
X126281574Y-67780797D01*
X126260750Y-67775581D01*
X126240538Y-67768349D01*
X126221132Y-67759170D01*
X126202719Y-67748134D01*
X126185476Y-67735346D01*
X126169570Y-67720930D01*
X126155154Y-67705024D01*
X126142366Y-67687781D01*
X126131330Y-67669368D01*
X126122151Y-67649962D01*
X126114919Y-67629750D01*
X126109703Y-67608926D01*
X126106553Y-67587691D01*
X126105500Y-67566250D01*
X126105500Y-67053750D01*
X126106553Y-67032309D01*
X126109703Y-67011074D01*
X126114919Y-66990250D01*
X126122151Y-66970038D01*
X126131330Y-66950632D01*
X126142366Y-66932219D01*
X126155154Y-66914976D01*
X126169570Y-66899070D01*
X126185476Y-66884654D01*
X126202719Y-66871866D01*
X126221132Y-66860830D01*
X126240538Y-66851651D01*
X126260750Y-66844419D01*
X126281574Y-66839203D01*
X126302809Y-66836053D01*
X126324250Y-66835000D01*
X126761750Y-66835000D01*
X126783191Y-66836053D01*
X126783191Y-66836053D01*
G37*
D31*
X126543000Y-67310000D03*
D15*
G36*
X125208191Y-66836053D02*
G01*
X125229426Y-66839203D01*
X125250250Y-66844419D01*
X125270462Y-66851651D01*
X125289868Y-66860830D01*
X125308281Y-66871866D01*
X125325524Y-66884654D01*
X125341430Y-66899070D01*
X125355846Y-66914976D01*
X125368634Y-66932219D01*
X125379670Y-66950632D01*
X125388849Y-66970038D01*
X125396081Y-66990250D01*
X125401297Y-67011074D01*
X125404447Y-67032309D01*
X125405500Y-67053750D01*
X125405500Y-67566250D01*
X125404447Y-67587691D01*
X125401297Y-67608926D01*
X125396081Y-67629750D01*
X125388849Y-67649962D01*
X125379670Y-67669368D01*
X125368634Y-67687781D01*
X125355846Y-67705024D01*
X125341430Y-67720930D01*
X125325524Y-67735346D01*
X125308281Y-67748134D01*
X125289868Y-67759170D01*
X125270462Y-67768349D01*
X125250250Y-67775581D01*
X125229426Y-67780797D01*
X125208191Y-67783947D01*
X125186750Y-67785000D01*
X124749250Y-67785000D01*
X124727809Y-67783947D01*
X124706574Y-67780797D01*
X124685750Y-67775581D01*
X124665538Y-67768349D01*
X124646132Y-67759170D01*
X124627719Y-67748134D01*
X124610476Y-67735346D01*
X124594570Y-67720930D01*
X124580154Y-67705024D01*
X124567366Y-67687781D01*
X124556330Y-67669368D01*
X124547151Y-67649962D01*
X124539919Y-67629750D01*
X124534703Y-67608926D01*
X124531553Y-67587691D01*
X124530500Y-67566250D01*
X124530500Y-67053750D01*
X124531553Y-67032309D01*
X124534703Y-67011074D01*
X124539919Y-66990250D01*
X124547151Y-66970038D01*
X124556330Y-66950632D01*
X124567366Y-66932219D01*
X124580154Y-66914976D01*
X124594570Y-66899070D01*
X124610476Y-66884654D01*
X124627719Y-66871866D01*
X124646132Y-66860830D01*
X124665538Y-66851651D01*
X124685750Y-66844419D01*
X124706574Y-66839203D01*
X124727809Y-66836053D01*
X124749250Y-66835000D01*
X125186750Y-66835000D01*
X125208191Y-66836053D01*
X125208191Y-66836053D01*
G37*
D31*
X124968000Y-67310000D03*
D15*
G36*
X122843958Y-54544710D02*
G01*
X122858276Y-54546834D01*
X122872317Y-54550351D01*
X122885946Y-54555228D01*
X122899031Y-54561417D01*
X122911447Y-54568858D01*
X122923073Y-54577481D01*
X122933798Y-54587202D01*
X122943519Y-54597927D01*
X122952142Y-54609553D01*
X122959583Y-54621969D01*
X122965772Y-54635054D01*
X122970649Y-54648683D01*
X122974166Y-54662724D01*
X122976290Y-54677042D01*
X122977000Y-54691500D01*
X122977000Y-55036500D01*
X122976290Y-55050958D01*
X122974166Y-55065276D01*
X122970649Y-55079317D01*
X122965772Y-55092946D01*
X122959583Y-55106031D01*
X122952142Y-55118447D01*
X122943519Y-55130073D01*
X122933798Y-55140798D01*
X122923073Y-55150519D01*
X122911447Y-55159142D01*
X122899031Y-55166583D01*
X122885946Y-55172772D01*
X122872317Y-55177649D01*
X122858276Y-55181166D01*
X122843958Y-55183290D01*
X122829500Y-55184000D01*
X122534500Y-55184000D01*
X122520042Y-55183290D01*
X122505724Y-55181166D01*
X122491683Y-55177649D01*
X122478054Y-55172772D01*
X122464969Y-55166583D01*
X122452553Y-55159142D01*
X122440927Y-55150519D01*
X122430202Y-55140798D01*
X122420481Y-55130073D01*
X122411858Y-55118447D01*
X122404417Y-55106031D01*
X122398228Y-55092946D01*
X122393351Y-55079317D01*
X122389834Y-55065276D01*
X122387710Y-55050958D01*
X122387000Y-55036500D01*
X122387000Y-54691500D01*
X122387710Y-54677042D01*
X122389834Y-54662724D01*
X122393351Y-54648683D01*
X122398228Y-54635054D01*
X122404417Y-54621969D01*
X122411858Y-54609553D01*
X122420481Y-54597927D01*
X122430202Y-54587202D01*
X122440927Y-54577481D01*
X122452553Y-54568858D01*
X122464969Y-54561417D01*
X122478054Y-54555228D01*
X122491683Y-54550351D01*
X122505724Y-54546834D01*
X122520042Y-54544710D01*
X122534500Y-54544000D01*
X122829500Y-54544000D01*
X122843958Y-54544710D01*
X122843958Y-54544710D01*
G37*
D16*
X122682000Y-54864000D03*
D15*
G36*
X123813958Y-54544710D02*
G01*
X123828276Y-54546834D01*
X123842317Y-54550351D01*
X123855946Y-54555228D01*
X123869031Y-54561417D01*
X123881447Y-54568858D01*
X123893073Y-54577481D01*
X123903798Y-54587202D01*
X123913519Y-54597927D01*
X123922142Y-54609553D01*
X123929583Y-54621969D01*
X123935772Y-54635054D01*
X123940649Y-54648683D01*
X123944166Y-54662724D01*
X123946290Y-54677042D01*
X123947000Y-54691500D01*
X123947000Y-55036500D01*
X123946290Y-55050958D01*
X123944166Y-55065276D01*
X123940649Y-55079317D01*
X123935772Y-55092946D01*
X123929583Y-55106031D01*
X123922142Y-55118447D01*
X123913519Y-55130073D01*
X123903798Y-55140798D01*
X123893073Y-55150519D01*
X123881447Y-55159142D01*
X123869031Y-55166583D01*
X123855946Y-55172772D01*
X123842317Y-55177649D01*
X123828276Y-55181166D01*
X123813958Y-55183290D01*
X123799500Y-55184000D01*
X123504500Y-55184000D01*
X123490042Y-55183290D01*
X123475724Y-55181166D01*
X123461683Y-55177649D01*
X123448054Y-55172772D01*
X123434969Y-55166583D01*
X123422553Y-55159142D01*
X123410927Y-55150519D01*
X123400202Y-55140798D01*
X123390481Y-55130073D01*
X123381858Y-55118447D01*
X123374417Y-55106031D01*
X123368228Y-55092946D01*
X123363351Y-55079317D01*
X123359834Y-55065276D01*
X123357710Y-55050958D01*
X123357000Y-55036500D01*
X123357000Y-54691500D01*
X123357710Y-54677042D01*
X123359834Y-54662724D01*
X123363351Y-54648683D01*
X123368228Y-54635054D01*
X123374417Y-54621969D01*
X123381858Y-54609553D01*
X123390481Y-54597927D01*
X123400202Y-54587202D01*
X123410927Y-54577481D01*
X123422553Y-54568858D01*
X123434969Y-54561417D01*
X123448054Y-54555228D01*
X123461683Y-54550351D01*
X123475724Y-54546834D01*
X123490042Y-54544710D01*
X123504500Y-54544000D01*
X123799500Y-54544000D01*
X123813958Y-54544710D01*
X123813958Y-54544710D01*
G37*
D16*
X123652000Y-54864000D03*
D15*
G36*
X128639958Y-58735710D02*
G01*
X128654276Y-58737834D01*
X128668317Y-58741351D01*
X128681946Y-58746228D01*
X128695031Y-58752417D01*
X128707447Y-58759858D01*
X128719073Y-58768481D01*
X128729798Y-58778202D01*
X128739519Y-58788927D01*
X128748142Y-58800553D01*
X128755583Y-58812969D01*
X128761772Y-58826054D01*
X128766649Y-58839683D01*
X128770166Y-58853724D01*
X128772290Y-58868042D01*
X128773000Y-58882500D01*
X128773000Y-59227500D01*
X128772290Y-59241958D01*
X128770166Y-59256276D01*
X128766649Y-59270317D01*
X128761772Y-59283946D01*
X128755583Y-59297031D01*
X128748142Y-59309447D01*
X128739519Y-59321073D01*
X128729798Y-59331798D01*
X128719073Y-59341519D01*
X128707447Y-59350142D01*
X128695031Y-59357583D01*
X128681946Y-59363772D01*
X128668317Y-59368649D01*
X128654276Y-59372166D01*
X128639958Y-59374290D01*
X128625500Y-59375000D01*
X128330500Y-59375000D01*
X128316042Y-59374290D01*
X128301724Y-59372166D01*
X128287683Y-59368649D01*
X128274054Y-59363772D01*
X128260969Y-59357583D01*
X128248553Y-59350142D01*
X128236927Y-59341519D01*
X128226202Y-59331798D01*
X128216481Y-59321073D01*
X128207858Y-59309447D01*
X128200417Y-59297031D01*
X128194228Y-59283946D01*
X128189351Y-59270317D01*
X128185834Y-59256276D01*
X128183710Y-59241958D01*
X128183000Y-59227500D01*
X128183000Y-58882500D01*
X128183710Y-58868042D01*
X128185834Y-58853724D01*
X128189351Y-58839683D01*
X128194228Y-58826054D01*
X128200417Y-58812969D01*
X128207858Y-58800553D01*
X128216481Y-58788927D01*
X128226202Y-58778202D01*
X128236927Y-58768481D01*
X128248553Y-58759858D01*
X128260969Y-58752417D01*
X128274054Y-58746228D01*
X128287683Y-58741351D01*
X128301724Y-58737834D01*
X128316042Y-58735710D01*
X128330500Y-58735000D01*
X128625500Y-58735000D01*
X128639958Y-58735710D01*
X128639958Y-58735710D01*
G37*
D16*
X128478000Y-59055000D03*
D15*
G36*
X127669958Y-58735710D02*
G01*
X127684276Y-58737834D01*
X127698317Y-58741351D01*
X127711946Y-58746228D01*
X127725031Y-58752417D01*
X127737447Y-58759858D01*
X127749073Y-58768481D01*
X127759798Y-58778202D01*
X127769519Y-58788927D01*
X127778142Y-58800553D01*
X127785583Y-58812969D01*
X127791772Y-58826054D01*
X127796649Y-58839683D01*
X127800166Y-58853724D01*
X127802290Y-58868042D01*
X127803000Y-58882500D01*
X127803000Y-59227500D01*
X127802290Y-59241958D01*
X127800166Y-59256276D01*
X127796649Y-59270317D01*
X127791772Y-59283946D01*
X127785583Y-59297031D01*
X127778142Y-59309447D01*
X127769519Y-59321073D01*
X127759798Y-59331798D01*
X127749073Y-59341519D01*
X127737447Y-59350142D01*
X127725031Y-59357583D01*
X127711946Y-59363772D01*
X127698317Y-59368649D01*
X127684276Y-59372166D01*
X127669958Y-59374290D01*
X127655500Y-59375000D01*
X127360500Y-59375000D01*
X127346042Y-59374290D01*
X127331724Y-59372166D01*
X127317683Y-59368649D01*
X127304054Y-59363772D01*
X127290969Y-59357583D01*
X127278553Y-59350142D01*
X127266927Y-59341519D01*
X127256202Y-59331798D01*
X127246481Y-59321073D01*
X127237858Y-59309447D01*
X127230417Y-59297031D01*
X127224228Y-59283946D01*
X127219351Y-59270317D01*
X127215834Y-59256276D01*
X127213710Y-59241958D01*
X127213000Y-59227500D01*
X127213000Y-58882500D01*
X127213710Y-58868042D01*
X127215834Y-58853724D01*
X127219351Y-58839683D01*
X127224228Y-58826054D01*
X127230417Y-58812969D01*
X127237858Y-58800553D01*
X127246481Y-58788927D01*
X127256202Y-58778202D01*
X127266927Y-58768481D01*
X127278553Y-58759858D01*
X127290969Y-58752417D01*
X127304054Y-58746228D01*
X127317683Y-58741351D01*
X127331724Y-58737834D01*
X127346042Y-58735710D01*
X127360500Y-58735000D01*
X127655500Y-58735000D01*
X127669958Y-58735710D01*
X127669958Y-58735710D01*
G37*
D16*
X127508000Y-59055000D03*
D15*
G36*
X112787591Y-66531253D02*
G01*
X112808826Y-66534403D01*
X112829650Y-66539619D01*
X112849862Y-66546851D01*
X112869268Y-66556030D01*
X112887681Y-66567066D01*
X112904924Y-66579854D01*
X112920830Y-66594270D01*
X112935246Y-66610176D01*
X112948034Y-66627419D01*
X112959070Y-66645832D01*
X112968249Y-66665238D01*
X112975481Y-66685450D01*
X112980697Y-66706274D01*
X112983847Y-66727509D01*
X112984900Y-66748950D01*
X112984900Y-67261450D01*
X112983847Y-67282891D01*
X112980697Y-67304126D01*
X112975481Y-67324950D01*
X112968249Y-67345162D01*
X112959070Y-67364568D01*
X112948034Y-67382981D01*
X112935246Y-67400224D01*
X112920830Y-67416130D01*
X112904924Y-67430546D01*
X112887681Y-67443334D01*
X112869268Y-67454370D01*
X112849862Y-67463549D01*
X112829650Y-67470781D01*
X112808826Y-67475997D01*
X112787591Y-67479147D01*
X112766150Y-67480200D01*
X112328650Y-67480200D01*
X112307209Y-67479147D01*
X112285974Y-67475997D01*
X112265150Y-67470781D01*
X112244938Y-67463549D01*
X112225532Y-67454370D01*
X112207119Y-67443334D01*
X112189876Y-67430546D01*
X112173970Y-67416130D01*
X112159554Y-67400224D01*
X112146766Y-67382981D01*
X112135730Y-67364568D01*
X112126551Y-67345162D01*
X112119319Y-67324950D01*
X112114103Y-67304126D01*
X112110953Y-67282891D01*
X112109900Y-67261450D01*
X112109900Y-66748950D01*
X112110953Y-66727509D01*
X112114103Y-66706274D01*
X112119319Y-66685450D01*
X112126551Y-66665238D01*
X112135730Y-66645832D01*
X112146766Y-66627419D01*
X112159554Y-66610176D01*
X112173970Y-66594270D01*
X112189876Y-66579854D01*
X112207119Y-66567066D01*
X112225532Y-66556030D01*
X112244938Y-66546851D01*
X112265150Y-66539619D01*
X112285974Y-66534403D01*
X112307209Y-66531253D01*
X112328650Y-66530200D01*
X112766150Y-66530200D01*
X112787591Y-66531253D01*
X112787591Y-66531253D01*
G37*
D31*
X112547400Y-67005200D03*
D15*
G36*
X111212591Y-66531253D02*
G01*
X111233826Y-66534403D01*
X111254650Y-66539619D01*
X111274862Y-66546851D01*
X111294268Y-66556030D01*
X111312681Y-66567066D01*
X111329924Y-66579854D01*
X111345830Y-66594270D01*
X111360246Y-66610176D01*
X111373034Y-66627419D01*
X111384070Y-66645832D01*
X111393249Y-66665238D01*
X111400481Y-66685450D01*
X111405697Y-66706274D01*
X111408847Y-66727509D01*
X111409900Y-66748950D01*
X111409900Y-67261450D01*
X111408847Y-67282891D01*
X111405697Y-67304126D01*
X111400481Y-67324950D01*
X111393249Y-67345162D01*
X111384070Y-67364568D01*
X111373034Y-67382981D01*
X111360246Y-67400224D01*
X111345830Y-67416130D01*
X111329924Y-67430546D01*
X111312681Y-67443334D01*
X111294268Y-67454370D01*
X111274862Y-67463549D01*
X111254650Y-67470781D01*
X111233826Y-67475997D01*
X111212591Y-67479147D01*
X111191150Y-67480200D01*
X110753650Y-67480200D01*
X110732209Y-67479147D01*
X110710974Y-67475997D01*
X110690150Y-67470781D01*
X110669938Y-67463549D01*
X110650532Y-67454370D01*
X110632119Y-67443334D01*
X110614876Y-67430546D01*
X110598970Y-67416130D01*
X110584554Y-67400224D01*
X110571766Y-67382981D01*
X110560730Y-67364568D01*
X110551551Y-67345162D01*
X110544319Y-67324950D01*
X110539103Y-67304126D01*
X110535953Y-67282891D01*
X110534900Y-67261450D01*
X110534900Y-66748950D01*
X110535953Y-66727509D01*
X110539103Y-66706274D01*
X110544319Y-66685450D01*
X110551551Y-66665238D01*
X110560730Y-66645832D01*
X110571766Y-66627419D01*
X110584554Y-66610176D01*
X110598970Y-66594270D01*
X110614876Y-66579854D01*
X110632119Y-66567066D01*
X110650532Y-66556030D01*
X110669938Y-66546851D01*
X110690150Y-66539619D01*
X110710974Y-66534403D01*
X110732209Y-66531253D01*
X110753650Y-66530200D01*
X111191150Y-66530200D01*
X111212591Y-66531253D01*
X111212591Y-66531253D01*
G37*
D31*
X110972400Y-67005200D03*
D15*
G36*
X112125158Y-65238110D02*
G01*
X112139476Y-65240234D01*
X112153517Y-65243751D01*
X112167146Y-65248628D01*
X112180231Y-65254817D01*
X112192647Y-65262258D01*
X112204273Y-65270881D01*
X112214998Y-65280602D01*
X112224719Y-65291327D01*
X112233342Y-65302953D01*
X112240783Y-65315369D01*
X112246972Y-65328454D01*
X112251849Y-65342083D01*
X112255366Y-65356124D01*
X112257490Y-65370442D01*
X112258200Y-65384900D01*
X112258200Y-65729900D01*
X112257490Y-65744358D01*
X112255366Y-65758676D01*
X112251849Y-65772717D01*
X112246972Y-65786346D01*
X112240783Y-65799431D01*
X112233342Y-65811847D01*
X112224719Y-65823473D01*
X112214998Y-65834198D01*
X112204273Y-65843919D01*
X112192647Y-65852542D01*
X112180231Y-65859983D01*
X112167146Y-65866172D01*
X112153517Y-65871049D01*
X112139476Y-65874566D01*
X112125158Y-65876690D01*
X112110700Y-65877400D01*
X111815700Y-65877400D01*
X111801242Y-65876690D01*
X111786924Y-65874566D01*
X111772883Y-65871049D01*
X111759254Y-65866172D01*
X111746169Y-65859983D01*
X111733753Y-65852542D01*
X111722127Y-65843919D01*
X111711402Y-65834198D01*
X111701681Y-65823473D01*
X111693058Y-65811847D01*
X111685617Y-65799431D01*
X111679428Y-65786346D01*
X111674551Y-65772717D01*
X111671034Y-65758676D01*
X111668910Y-65744358D01*
X111668200Y-65729900D01*
X111668200Y-65384900D01*
X111668910Y-65370442D01*
X111671034Y-65356124D01*
X111674551Y-65342083D01*
X111679428Y-65328454D01*
X111685617Y-65315369D01*
X111693058Y-65302953D01*
X111701681Y-65291327D01*
X111711402Y-65280602D01*
X111722127Y-65270881D01*
X111733753Y-65262258D01*
X111746169Y-65254817D01*
X111759254Y-65248628D01*
X111772883Y-65243751D01*
X111786924Y-65240234D01*
X111801242Y-65238110D01*
X111815700Y-65237400D01*
X112110700Y-65237400D01*
X112125158Y-65238110D01*
X112125158Y-65238110D01*
G37*
D16*
X111963200Y-65557400D03*
D15*
G36*
X111155158Y-65238110D02*
G01*
X111169476Y-65240234D01*
X111183517Y-65243751D01*
X111197146Y-65248628D01*
X111210231Y-65254817D01*
X111222647Y-65262258D01*
X111234273Y-65270881D01*
X111244998Y-65280602D01*
X111254719Y-65291327D01*
X111263342Y-65302953D01*
X111270783Y-65315369D01*
X111276972Y-65328454D01*
X111281849Y-65342083D01*
X111285366Y-65356124D01*
X111287490Y-65370442D01*
X111288200Y-65384900D01*
X111288200Y-65729900D01*
X111287490Y-65744358D01*
X111285366Y-65758676D01*
X111281849Y-65772717D01*
X111276972Y-65786346D01*
X111270783Y-65799431D01*
X111263342Y-65811847D01*
X111254719Y-65823473D01*
X111244998Y-65834198D01*
X111234273Y-65843919D01*
X111222647Y-65852542D01*
X111210231Y-65859983D01*
X111197146Y-65866172D01*
X111183517Y-65871049D01*
X111169476Y-65874566D01*
X111155158Y-65876690D01*
X111140700Y-65877400D01*
X110845700Y-65877400D01*
X110831242Y-65876690D01*
X110816924Y-65874566D01*
X110802883Y-65871049D01*
X110789254Y-65866172D01*
X110776169Y-65859983D01*
X110763753Y-65852542D01*
X110752127Y-65843919D01*
X110741402Y-65834198D01*
X110731681Y-65823473D01*
X110723058Y-65811847D01*
X110715617Y-65799431D01*
X110709428Y-65786346D01*
X110704551Y-65772717D01*
X110701034Y-65758676D01*
X110698910Y-65744358D01*
X110698200Y-65729900D01*
X110698200Y-65384900D01*
X110698910Y-65370442D01*
X110701034Y-65356124D01*
X110704551Y-65342083D01*
X110709428Y-65328454D01*
X110715617Y-65315369D01*
X110723058Y-65302953D01*
X110731681Y-65291327D01*
X110741402Y-65280602D01*
X110752127Y-65270881D01*
X110763753Y-65262258D01*
X110776169Y-65254817D01*
X110789254Y-65248628D01*
X110802883Y-65243751D01*
X110816924Y-65240234D01*
X110831242Y-65238110D01*
X110845700Y-65237400D01*
X111140700Y-65237400D01*
X111155158Y-65238110D01*
X111155158Y-65238110D01*
G37*
D16*
X110993200Y-65557400D03*
D15*
G36*
X128639958Y-56703710D02*
G01*
X128654276Y-56705834D01*
X128668317Y-56709351D01*
X128681946Y-56714228D01*
X128695031Y-56720417D01*
X128707447Y-56727858D01*
X128719073Y-56736481D01*
X128729798Y-56746202D01*
X128739519Y-56756927D01*
X128748142Y-56768553D01*
X128755583Y-56780969D01*
X128761772Y-56794054D01*
X128766649Y-56807683D01*
X128770166Y-56821724D01*
X128772290Y-56836042D01*
X128773000Y-56850500D01*
X128773000Y-57195500D01*
X128772290Y-57209958D01*
X128770166Y-57224276D01*
X128766649Y-57238317D01*
X128761772Y-57251946D01*
X128755583Y-57265031D01*
X128748142Y-57277447D01*
X128739519Y-57289073D01*
X128729798Y-57299798D01*
X128719073Y-57309519D01*
X128707447Y-57318142D01*
X128695031Y-57325583D01*
X128681946Y-57331772D01*
X128668317Y-57336649D01*
X128654276Y-57340166D01*
X128639958Y-57342290D01*
X128625500Y-57343000D01*
X128330500Y-57343000D01*
X128316042Y-57342290D01*
X128301724Y-57340166D01*
X128287683Y-57336649D01*
X128274054Y-57331772D01*
X128260969Y-57325583D01*
X128248553Y-57318142D01*
X128236927Y-57309519D01*
X128226202Y-57299798D01*
X128216481Y-57289073D01*
X128207858Y-57277447D01*
X128200417Y-57265031D01*
X128194228Y-57251946D01*
X128189351Y-57238317D01*
X128185834Y-57224276D01*
X128183710Y-57209958D01*
X128183000Y-57195500D01*
X128183000Y-56850500D01*
X128183710Y-56836042D01*
X128185834Y-56821724D01*
X128189351Y-56807683D01*
X128194228Y-56794054D01*
X128200417Y-56780969D01*
X128207858Y-56768553D01*
X128216481Y-56756927D01*
X128226202Y-56746202D01*
X128236927Y-56736481D01*
X128248553Y-56727858D01*
X128260969Y-56720417D01*
X128274054Y-56714228D01*
X128287683Y-56709351D01*
X128301724Y-56705834D01*
X128316042Y-56703710D01*
X128330500Y-56703000D01*
X128625500Y-56703000D01*
X128639958Y-56703710D01*
X128639958Y-56703710D01*
G37*
D16*
X128478000Y-57023000D03*
D15*
G36*
X127669958Y-56703710D02*
G01*
X127684276Y-56705834D01*
X127698317Y-56709351D01*
X127711946Y-56714228D01*
X127725031Y-56720417D01*
X127737447Y-56727858D01*
X127749073Y-56736481D01*
X127759798Y-56746202D01*
X127769519Y-56756927D01*
X127778142Y-56768553D01*
X127785583Y-56780969D01*
X127791772Y-56794054D01*
X127796649Y-56807683D01*
X127800166Y-56821724D01*
X127802290Y-56836042D01*
X127803000Y-56850500D01*
X127803000Y-57195500D01*
X127802290Y-57209958D01*
X127800166Y-57224276D01*
X127796649Y-57238317D01*
X127791772Y-57251946D01*
X127785583Y-57265031D01*
X127778142Y-57277447D01*
X127769519Y-57289073D01*
X127759798Y-57299798D01*
X127749073Y-57309519D01*
X127737447Y-57318142D01*
X127725031Y-57325583D01*
X127711946Y-57331772D01*
X127698317Y-57336649D01*
X127684276Y-57340166D01*
X127669958Y-57342290D01*
X127655500Y-57343000D01*
X127360500Y-57343000D01*
X127346042Y-57342290D01*
X127331724Y-57340166D01*
X127317683Y-57336649D01*
X127304054Y-57331772D01*
X127290969Y-57325583D01*
X127278553Y-57318142D01*
X127266927Y-57309519D01*
X127256202Y-57299798D01*
X127246481Y-57289073D01*
X127237858Y-57277447D01*
X127230417Y-57265031D01*
X127224228Y-57251946D01*
X127219351Y-57238317D01*
X127215834Y-57224276D01*
X127213710Y-57209958D01*
X127213000Y-57195500D01*
X127213000Y-56850500D01*
X127213710Y-56836042D01*
X127215834Y-56821724D01*
X127219351Y-56807683D01*
X127224228Y-56794054D01*
X127230417Y-56780969D01*
X127237858Y-56768553D01*
X127246481Y-56756927D01*
X127256202Y-56746202D01*
X127266927Y-56736481D01*
X127278553Y-56727858D01*
X127290969Y-56720417D01*
X127304054Y-56714228D01*
X127317683Y-56709351D01*
X127331724Y-56705834D01*
X127346042Y-56703710D01*
X127360500Y-56703000D01*
X127655500Y-56703000D01*
X127669958Y-56703710D01*
X127669958Y-56703710D01*
G37*
D16*
X127508000Y-57023000D03*
D15*
G36*
X128639958Y-57719710D02*
G01*
X128654276Y-57721834D01*
X128668317Y-57725351D01*
X128681946Y-57730228D01*
X128695031Y-57736417D01*
X128707447Y-57743858D01*
X128719073Y-57752481D01*
X128729798Y-57762202D01*
X128739519Y-57772927D01*
X128748142Y-57784553D01*
X128755583Y-57796969D01*
X128761772Y-57810054D01*
X128766649Y-57823683D01*
X128770166Y-57837724D01*
X128772290Y-57852042D01*
X128773000Y-57866500D01*
X128773000Y-58211500D01*
X128772290Y-58225958D01*
X128770166Y-58240276D01*
X128766649Y-58254317D01*
X128761772Y-58267946D01*
X128755583Y-58281031D01*
X128748142Y-58293447D01*
X128739519Y-58305073D01*
X128729798Y-58315798D01*
X128719073Y-58325519D01*
X128707447Y-58334142D01*
X128695031Y-58341583D01*
X128681946Y-58347772D01*
X128668317Y-58352649D01*
X128654276Y-58356166D01*
X128639958Y-58358290D01*
X128625500Y-58359000D01*
X128330500Y-58359000D01*
X128316042Y-58358290D01*
X128301724Y-58356166D01*
X128287683Y-58352649D01*
X128274054Y-58347772D01*
X128260969Y-58341583D01*
X128248553Y-58334142D01*
X128236927Y-58325519D01*
X128226202Y-58315798D01*
X128216481Y-58305073D01*
X128207858Y-58293447D01*
X128200417Y-58281031D01*
X128194228Y-58267946D01*
X128189351Y-58254317D01*
X128185834Y-58240276D01*
X128183710Y-58225958D01*
X128183000Y-58211500D01*
X128183000Y-57866500D01*
X128183710Y-57852042D01*
X128185834Y-57837724D01*
X128189351Y-57823683D01*
X128194228Y-57810054D01*
X128200417Y-57796969D01*
X128207858Y-57784553D01*
X128216481Y-57772927D01*
X128226202Y-57762202D01*
X128236927Y-57752481D01*
X128248553Y-57743858D01*
X128260969Y-57736417D01*
X128274054Y-57730228D01*
X128287683Y-57725351D01*
X128301724Y-57721834D01*
X128316042Y-57719710D01*
X128330500Y-57719000D01*
X128625500Y-57719000D01*
X128639958Y-57719710D01*
X128639958Y-57719710D01*
G37*
D16*
X128478000Y-58039000D03*
D15*
G36*
X127669958Y-57719710D02*
G01*
X127684276Y-57721834D01*
X127698317Y-57725351D01*
X127711946Y-57730228D01*
X127725031Y-57736417D01*
X127737447Y-57743858D01*
X127749073Y-57752481D01*
X127759798Y-57762202D01*
X127769519Y-57772927D01*
X127778142Y-57784553D01*
X127785583Y-57796969D01*
X127791772Y-57810054D01*
X127796649Y-57823683D01*
X127800166Y-57837724D01*
X127802290Y-57852042D01*
X127803000Y-57866500D01*
X127803000Y-58211500D01*
X127802290Y-58225958D01*
X127800166Y-58240276D01*
X127796649Y-58254317D01*
X127791772Y-58267946D01*
X127785583Y-58281031D01*
X127778142Y-58293447D01*
X127769519Y-58305073D01*
X127759798Y-58315798D01*
X127749073Y-58325519D01*
X127737447Y-58334142D01*
X127725031Y-58341583D01*
X127711946Y-58347772D01*
X127698317Y-58352649D01*
X127684276Y-58356166D01*
X127669958Y-58358290D01*
X127655500Y-58359000D01*
X127360500Y-58359000D01*
X127346042Y-58358290D01*
X127331724Y-58356166D01*
X127317683Y-58352649D01*
X127304054Y-58347772D01*
X127290969Y-58341583D01*
X127278553Y-58334142D01*
X127266927Y-58325519D01*
X127256202Y-58315798D01*
X127246481Y-58305073D01*
X127237858Y-58293447D01*
X127230417Y-58281031D01*
X127224228Y-58267946D01*
X127219351Y-58254317D01*
X127215834Y-58240276D01*
X127213710Y-58225958D01*
X127213000Y-58211500D01*
X127213000Y-57866500D01*
X127213710Y-57852042D01*
X127215834Y-57837724D01*
X127219351Y-57823683D01*
X127224228Y-57810054D01*
X127230417Y-57796969D01*
X127237858Y-57784553D01*
X127246481Y-57772927D01*
X127256202Y-57762202D01*
X127266927Y-57752481D01*
X127278553Y-57743858D01*
X127290969Y-57736417D01*
X127304054Y-57730228D01*
X127317683Y-57725351D01*
X127331724Y-57721834D01*
X127346042Y-57719710D01*
X127360500Y-57719000D01*
X127655500Y-57719000D01*
X127669958Y-57719710D01*
X127669958Y-57719710D01*
G37*
D16*
X127508000Y-58039000D03*
D15*
G36*
X122843958Y-55560710D02*
G01*
X122858276Y-55562834D01*
X122872317Y-55566351D01*
X122885946Y-55571228D01*
X122899031Y-55577417D01*
X122911447Y-55584858D01*
X122923073Y-55593481D01*
X122933798Y-55603202D01*
X122943519Y-55613927D01*
X122952142Y-55625553D01*
X122959583Y-55637969D01*
X122965772Y-55651054D01*
X122970649Y-55664683D01*
X122974166Y-55678724D01*
X122976290Y-55693042D01*
X122977000Y-55707500D01*
X122977000Y-56052500D01*
X122976290Y-56066958D01*
X122974166Y-56081276D01*
X122970649Y-56095317D01*
X122965772Y-56108946D01*
X122959583Y-56122031D01*
X122952142Y-56134447D01*
X122943519Y-56146073D01*
X122933798Y-56156798D01*
X122923073Y-56166519D01*
X122911447Y-56175142D01*
X122899031Y-56182583D01*
X122885946Y-56188772D01*
X122872317Y-56193649D01*
X122858276Y-56197166D01*
X122843958Y-56199290D01*
X122829500Y-56200000D01*
X122534500Y-56200000D01*
X122520042Y-56199290D01*
X122505724Y-56197166D01*
X122491683Y-56193649D01*
X122478054Y-56188772D01*
X122464969Y-56182583D01*
X122452553Y-56175142D01*
X122440927Y-56166519D01*
X122430202Y-56156798D01*
X122420481Y-56146073D01*
X122411858Y-56134447D01*
X122404417Y-56122031D01*
X122398228Y-56108946D01*
X122393351Y-56095317D01*
X122389834Y-56081276D01*
X122387710Y-56066958D01*
X122387000Y-56052500D01*
X122387000Y-55707500D01*
X122387710Y-55693042D01*
X122389834Y-55678724D01*
X122393351Y-55664683D01*
X122398228Y-55651054D01*
X122404417Y-55637969D01*
X122411858Y-55625553D01*
X122420481Y-55613927D01*
X122430202Y-55603202D01*
X122440927Y-55593481D01*
X122452553Y-55584858D01*
X122464969Y-55577417D01*
X122478054Y-55571228D01*
X122491683Y-55566351D01*
X122505724Y-55562834D01*
X122520042Y-55560710D01*
X122534500Y-55560000D01*
X122829500Y-55560000D01*
X122843958Y-55560710D01*
X122843958Y-55560710D01*
G37*
D16*
X122682000Y-55880000D03*
D15*
G36*
X123813958Y-55560710D02*
G01*
X123828276Y-55562834D01*
X123842317Y-55566351D01*
X123855946Y-55571228D01*
X123869031Y-55577417D01*
X123881447Y-55584858D01*
X123893073Y-55593481D01*
X123903798Y-55603202D01*
X123913519Y-55613927D01*
X123922142Y-55625553D01*
X123929583Y-55637969D01*
X123935772Y-55651054D01*
X123940649Y-55664683D01*
X123944166Y-55678724D01*
X123946290Y-55693042D01*
X123947000Y-55707500D01*
X123947000Y-56052500D01*
X123946290Y-56066958D01*
X123944166Y-56081276D01*
X123940649Y-56095317D01*
X123935772Y-56108946D01*
X123929583Y-56122031D01*
X123922142Y-56134447D01*
X123913519Y-56146073D01*
X123903798Y-56156798D01*
X123893073Y-56166519D01*
X123881447Y-56175142D01*
X123869031Y-56182583D01*
X123855946Y-56188772D01*
X123842317Y-56193649D01*
X123828276Y-56197166D01*
X123813958Y-56199290D01*
X123799500Y-56200000D01*
X123504500Y-56200000D01*
X123490042Y-56199290D01*
X123475724Y-56197166D01*
X123461683Y-56193649D01*
X123448054Y-56188772D01*
X123434969Y-56182583D01*
X123422553Y-56175142D01*
X123410927Y-56166519D01*
X123400202Y-56156798D01*
X123390481Y-56146073D01*
X123381858Y-56134447D01*
X123374417Y-56122031D01*
X123368228Y-56108946D01*
X123363351Y-56095317D01*
X123359834Y-56081276D01*
X123357710Y-56066958D01*
X123357000Y-56052500D01*
X123357000Y-55707500D01*
X123357710Y-55693042D01*
X123359834Y-55678724D01*
X123363351Y-55664683D01*
X123368228Y-55651054D01*
X123374417Y-55637969D01*
X123381858Y-55625553D01*
X123390481Y-55613927D01*
X123400202Y-55603202D01*
X123410927Y-55593481D01*
X123422553Y-55584858D01*
X123434969Y-55577417D01*
X123448054Y-55571228D01*
X123461683Y-55566351D01*
X123475724Y-55562834D01*
X123490042Y-55560710D01*
X123504500Y-55560000D01*
X123799500Y-55560000D01*
X123813958Y-55560710D01*
X123813958Y-55560710D01*
G37*
D16*
X123652000Y-55880000D03*
D15*
G36*
X126653958Y-56703710D02*
G01*
X126668276Y-56705834D01*
X126682317Y-56709351D01*
X126695946Y-56714228D01*
X126709031Y-56720417D01*
X126721447Y-56727858D01*
X126733073Y-56736481D01*
X126743798Y-56746202D01*
X126753519Y-56756927D01*
X126762142Y-56768553D01*
X126769583Y-56780969D01*
X126775772Y-56794054D01*
X126780649Y-56807683D01*
X126784166Y-56821724D01*
X126786290Y-56836042D01*
X126787000Y-56850500D01*
X126787000Y-57195500D01*
X126786290Y-57209958D01*
X126784166Y-57224276D01*
X126780649Y-57238317D01*
X126775772Y-57251946D01*
X126769583Y-57265031D01*
X126762142Y-57277447D01*
X126753519Y-57289073D01*
X126743798Y-57299798D01*
X126733073Y-57309519D01*
X126721447Y-57318142D01*
X126709031Y-57325583D01*
X126695946Y-57331772D01*
X126682317Y-57336649D01*
X126668276Y-57340166D01*
X126653958Y-57342290D01*
X126639500Y-57343000D01*
X126344500Y-57343000D01*
X126330042Y-57342290D01*
X126315724Y-57340166D01*
X126301683Y-57336649D01*
X126288054Y-57331772D01*
X126274969Y-57325583D01*
X126262553Y-57318142D01*
X126250927Y-57309519D01*
X126240202Y-57299798D01*
X126230481Y-57289073D01*
X126221858Y-57277447D01*
X126214417Y-57265031D01*
X126208228Y-57251946D01*
X126203351Y-57238317D01*
X126199834Y-57224276D01*
X126197710Y-57209958D01*
X126197000Y-57195500D01*
X126197000Y-56850500D01*
X126197710Y-56836042D01*
X126199834Y-56821724D01*
X126203351Y-56807683D01*
X126208228Y-56794054D01*
X126214417Y-56780969D01*
X126221858Y-56768553D01*
X126230481Y-56756927D01*
X126240202Y-56746202D01*
X126250927Y-56736481D01*
X126262553Y-56727858D01*
X126274969Y-56720417D01*
X126288054Y-56714228D01*
X126301683Y-56709351D01*
X126315724Y-56705834D01*
X126330042Y-56703710D01*
X126344500Y-56703000D01*
X126639500Y-56703000D01*
X126653958Y-56703710D01*
X126653958Y-56703710D01*
G37*
D16*
X126492000Y-57023000D03*
D15*
G36*
X125683958Y-56703710D02*
G01*
X125698276Y-56705834D01*
X125712317Y-56709351D01*
X125725946Y-56714228D01*
X125739031Y-56720417D01*
X125751447Y-56727858D01*
X125763073Y-56736481D01*
X125773798Y-56746202D01*
X125783519Y-56756927D01*
X125792142Y-56768553D01*
X125799583Y-56780969D01*
X125805772Y-56794054D01*
X125810649Y-56807683D01*
X125814166Y-56821724D01*
X125816290Y-56836042D01*
X125817000Y-56850500D01*
X125817000Y-57195500D01*
X125816290Y-57209958D01*
X125814166Y-57224276D01*
X125810649Y-57238317D01*
X125805772Y-57251946D01*
X125799583Y-57265031D01*
X125792142Y-57277447D01*
X125783519Y-57289073D01*
X125773798Y-57299798D01*
X125763073Y-57309519D01*
X125751447Y-57318142D01*
X125739031Y-57325583D01*
X125725946Y-57331772D01*
X125712317Y-57336649D01*
X125698276Y-57340166D01*
X125683958Y-57342290D01*
X125669500Y-57343000D01*
X125374500Y-57343000D01*
X125360042Y-57342290D01*
X125345724Y-57340166D01*
X125331683Y-57336649D01*
X125318054Y-57331772D01*
X125304969Y-57325583D01*
X125292553Y-57318142D01*
X125280927Y-57309519D01*
X125270202Y-57299798D01*
X125260481Y-57289073D01*
X125251858Y-57277447D01*
X125244417Y-57265031D01*
X125238228Y-57251946D01*
X125233351Y-57238317D01*
X125229834Y-57224276D01*
X125227710Y-57209958D01*
X125227000Y-57195500D01*
X125227000Y-56850500D01*
X125227710Y-56836042D01*
X125229834Y-56821724D01*
X125233351Y-56807683D01*
X125238228Y-56794054D01*
X125244417Y-56780969D01*
X125251858Y-56768553D01*
X125260481Y-56756927D01*
X125270202Y-56746202D01*
X125280927Y-56736481D01*
X125292553Y-56727858D01*
X125304969Y-56720417D01*
X125318054Y-56714228D01*
X125331683Y-56709351D01*
X125345724Y-56705834D01*
X125360042Y-56703710D01*
X125374500Y-56703000D01*
X125669500Y-56703000D01*
X125683958Y-56703710D01*
X125683958Y-56703710D01*
G37*
D16*
X125522000Y-57023000D03*
D15*
G36*
X125891958Y-54519310D02*
G01*
X125906276Y-54521434D01*
X125920317Y-54524951D01*
X125933946Y-54529828D01*
X125947031Y-54536017D01*
X125959447Y-54543458D01*
X125971073Y-54552081D01*
X125981798Y-54561802D01*
X125991519Y-54572527D01*
X126000142Y-54584153D01*
X126007583Y-54596569D01*
X126013772Y-54609654D01*
X126018649Y-54623283D01*
X126022166Y-54637324D01*
X126024290Y-54651642D01*
X126025000Y-54666100D01*
X126025000Y-55011100D01*
X126024290Y-55025558D01*
X126022166Y-55039876D01*
X126018649Y-55053917D01*
X126013772Y-55067546D01*
X126007583Y-55080631D01*
X126000142Y-55093047D01*
X125991519Y-55104673D01*
X125981798Y-55115398D01*
X125971073Y-55125119D01*
X125959447Y-55133742D01*
X125947031Y-55141183D01*
X125933946Y-55147372D01*
X125920317Y-55152249D01*
X125906276Y-55155766D01*
X125891958Y-55157890D01*
X125877500Y-55158600D01*
X125582500Y-55158600D01*
X125568042Y-55157890D01*
X125553724Y-55155766D01*
X125539683Y-55152249D01*
X125526054Y-55147372D01*
X125512969Y-55141183D01*
X125500553Y-55133742D01*
X125488927Y-55125119D01*
X125478202Y-55115398D01*
X125468481Y-55104673D01*
X125459858Y-55093047D01*
X125452417Y-55080631D01*
X125446228Y-55067546D01*
X125441351Y-55053917D01*
X125437834Y-55039876D01*
X125435710Y-55025558D01*
X125435000Y-55011100D01*
X125435000Y-54666100D01*
X125435710Y-54651642D01*
X125437834Y-54637324D01*
X125441351Y-54623283D01*
X125446228Y-54609654D01*
X125452417Y-54596569D01*
X125459858Y-54584153D01*
X125468481Y-54572527D01*
X125478202Y-54561802D01*
X125488927Y-54552081D01*
X125500553Y-54543458D01*
X125512969Y-54536017D01*
X125526054Y-54529828D01*
X125539683Y-54524951D01*
X125553724Y-54521434D01*
X125568042Y-54519310D01*
X125582500Y-54518600D01*
X125877500Y-54518600D01*
X125891958Y-54519310D01*
X125891958Y-54519310D01*
G37*
D16*
X125730000Y-54838600D03*
D15*
G36*
X124921958Y-54519310D02*
G01*
X124936276Y-54521434D01*
X124950317Y-54524951D01*
X124963946Y-54529828D01*
X124977031Y-54536017D01*
X124989447Y-54543458D01*
X125001073Y-54552081D01*
X125011798Y-54561802D01*
X125021519Y-54572527D01*
X125030142Y-54584153D01*
X125037583Y-54596569D01*
X125043772Y-54609654D01*
X125048649Y-54623283D01*
X125052166Y-54637324D01*
X125054290Y-54651642D01*
X125055000Y-54666100D01*
X125055000Y-55011100D01*
X125054290Y-55025558D01*
X125052166Y-55039876D01*
X125048649Y-55053917D01*
X125043772Y-55067546D01*
X125037583Y-55080631D01*
X125030142Y-55093047D01*
X125021519Y-55104673D01*
X125011798Y-55115398D01*
X125001073Y-55125119D01*
X124989447Y-55133742D01*
X124977031Y-55141183D01*
X124963946Y-55147372D01*
X124950317Y-55152249D01*
X124936276Y-55155766D01*
X124921958Y-55157890D01*
X124907500Y-55158600D01*
X124612500Y-55158600D01*
X124598042Y-55157890D01*
X124583724Y-55155766D01*
X124569683Y-55152249D01*
X124556054Y-55147372D01*
X124542969Y-55141183D01*
X124530553Y-55133742D01*
X124518927Y-55125119D01*
X124508202Y-55115398D01*
X124498481Y-55104673D01*
X124489858Y-55093047D01*
X124482417Y-55080631D01*
X124476228Y-55067546D01*
X124471351Y-55053917D01*
X124467834Y-55039876D01*
X124465710Y-55025558D01*
X124465000Y-55011100D01*
X124465000Y-54666100D01*
X124465710Y-54651642D01*
X124467834Y-54637324D01*
X124471351Y-54623283D01*
X124476228Y-54609654D01*
X124482417Y-54596569D01*
X124489858Y-54584153D01*
X124498481Y-54572527D01*
X124508202Y-54561802D01*
X124518927Y-54552081D01*
X124530553Y-54543458D01*
X124542969Y-54536017D01*
X124556054Y-54529828D01*
X124569683Y-54524951D01*
X124583724Y-54521434D01*
X124598042Y-54519310D01*
X124612500Y-54518600D01*
X124907500Y-54518600D01*
X124921958Y-54519310D01*
X124921958Y-54519310D01*
G37*
D16*
X124760000Y-54838600D03*
D32*
X127469900Y-56172100D03*
X120523000Y-65265300D03*
X124637800Y-58343800D03*
X138938000Y-57150000D03*
X129392667Y-65276096D03*
X125288716Y-65515404D03*
X124890727Y-61530738D03*
X129794000Y-57302400D03*
X119507040Y-56413400D03*
X121973474Y-67523537D03*
X122631202Y-54275010D03*
X136906000Y-65659000D03*
X125349000Y-58166002D03*
X125272800Y-61163200D03*
X133147710Y-60717790D03*
X116082431Y-65260011D03*
X129565400Y-67284600D03*
X113152437Y-64523222D03*
X113436400Y-67310000D03*
X128698026Y-60291038D03*
X116014500Y-56443411D03*
X117498349Y-53949469D03*
X117723075Y-67970269D03*
X110333823Y-55807577D03*
X113060190Y-65419585D03*
X110135824Y-58631226D03*
X110159800Y-59817000D03*
X109673448Y-60200706D03*
X110270990Y-62597174D03*
X109702600Y-62865000D03*
X109671178Y-64826817D03*
X113461800Y-54423421D03*
X109681990Y-66058270D03*
X110058200Y-67894198D03*
X118888362Y-67710012D03*
X121981324Y-67023587D03*
X131191002Y-66929000D03*
X116723131Y-67962976D03*
X131713523Y-67314345D03*
X117223066Y-67971769D03*
X125679200Y-58826400D03*
X117371674Y-65368316D03*
X122080012Y-61400643D03*
X127508000Y-54300410D03*
X127343579Y-60565621D03*
X122202894Y-58221683D03*
X122123196Y-60718696D03*
X124536200Y-64211200D03*
X124841000Y-54102000D03*
X131724390Y-61976000D03*
X121914557Y-65228145D03*
X122123201Y-59334400D03*
X121980003Y-65965007D03*
X129474833Y-60046273D03*
X120025847Y-56644503D03*
X132486400Y-64541402D03*
X122186700Y-63677800D03*
X119037100Y-65260012D03*
X124543939Y-57787579D03*
X122080012Y-57737006D03*
X121259600Y-65265300D03*
X124637800Y-62763400D03*
X108026200Y-54965600D03*
X112826800Y-56507597D03*
X108534200Y-54965600D03*
X113360200Y-56388000D03*
X122179730Y-57247039D03*
X118148100Y-65260012D03*
X125024149Y-62112988D03*
X122402600Y-63195200D03*
X122080012Y-62059619D03*
X119621300Y-65265300D03*
X116223207Y-67953621D03*
X110159800Y-57658000D03*
X106121200Y-67310000D03*
X108102400Y-65201800D03*
X106121200Y-64084200D03*
X106197400Y-62992000D03*
X106095800Y-61645800D03*
X106121200Y-60833000D03*
X106121200Y-59182000D03*
X106121200Y-58166000D03*
D33*
X138430000Y-61062400D02*
X138430000Y-62962400D01*
X138430000Y-64962400D02*
X138430000Y-67462400D01*
X135730000Y-61462400D02*
X135730000Y-62662400D01*
X135441200Y-66751200D02*
X135730000Y-66462400D01*
X128478000Y-57023000D02*
X128478000Y-58039000D01*
X128478000Y-58039000D02*
X128478000Y-59055000D01*
X127981790Y-56526790D02*
X128478000Y-57023000D01*
X126988210Y-56526790D02*
X127981790Y-56526790D01*
X126492000Y-57023000D02*
X126988210Y-56526790D01*
X128270000Y-56238580D02*
X127981790Y-56526790D01*
X128270000Y-55325000D02*
X128270000Y-56238580D01*
X133096000Y-59436000D02*
X133350000Y-59690000D01*
X133096000Y-57245000D02*
X133096000Y-59436000D01*
X122682000Y-54864000D02*
X122682000Y-55880000D01*
X127780000Y-66025000D02*
X128634689Y-66025000D01*
X129065454Y-65795454D02*
X129065454Y-65594235D01*
X128634689Y-66025000D02*
X129065454Y-65594235D01*
X129192668Y-65476095D02*
X129392667Y-65276096D01*
X129074528Y-65594235D02*
X129192668Y-65476095D01*
X129065454Y-65594235D02*
X129074528Y-65594235D01*
X129070000Y-65800000D02*
X129065454Y-65795454D01*
D15*
X124483312Y-64710000D02*
X125288716Y-65515404D01*
X123480000Y-64710000D02*
X124483312Y-64710000D01*
X123480000Y-60710000D02*
X124330000Y-60710000D01*
D33*
X125598600Y-62103000D02*
X125026338Y-61530738D01*
X125026338Y-61530738D02*
X124890727Y-61530738D01*
D15*
X124330000Y-60710000D02*
X124890727Y-61270727D01*
X124890727Y-61270727D02*
X124890727Y-61530738D01*
D33*
X126281000Y-62103000D02*
X125598600Y-62103000D01*
D15*
X126216400Y-55325000D02*
X128270000Y-55325000D01*
X125730000Y-54838600D02*
X126216400Y-55325000D01*
D33*
X130755000Y-58675000D02*
X130430000Y-58675000D01*
X129514600Y-57023000D02*
X129594001Y-57102401D01*
X128478000Y-57023000D02*
X129514600Y-57023000D01*
X129794000Y-57585242D02*
X129794000Y-57302400D01*
X130430000Y-58675000D02*
X129794000Y-58039000D01*
X129794000Y-58039000D02*
X129794000Y-57585242D01*
X129594001Y-57102401D02*
X129794000Y-57302400D01*
X135442200Y-66462400D02*
X135730000Y-66462400D01*
X134086600Y-67818000D02*
X135442200Y-66462400D01*
D15*
X121030000Y-66660000D02*
X121030000Y-67510000D01*
X121799633Y-67697378D02*
X121973474Y-67523537D01*
X121030000Y-67510000D02*
X121217378Y-67697378D01*
X121217378Y-67697378D02*
X121799633Y-67697378D01*
D33*
X122682000Y-54864000D02*
X122682000Y-54325808D01*
X122682000Y-54325808D02*
X122631202Y-54275010D01*
D15*
X120530000Y-54410000D02*
X120530000Y-55260000D01*
X120664990Y-54275010D02*
X120530000Y-54410000D01*
X121534210Y-54405790D02*
X121534210Y-54275010D01*
X121530000Y-54410000D02*
X121534210Y-54405790D01*
X121530000Y-55260000D02*
X121530000Y-54410000D01*
X121534210Y-54275010D02*
X120664990Y-54275010D01*
X122631202Y-54275010D02*
X121534210Y-54275010D01*
D33*
X136509400Y-65262400D02*
X136906000Y-65659000D01*
X135730000Y-65262400D02*
X136509400Y-65262400D01*
X129163400Y-62103000D02*
X128481000Y-62103000D01*
X130430000Y-60875000D02*
X129202000Y-62103000D01*
X129202000Y-62103000D02*
X129163400Y-62103000D01*
X130755000Y-60875000D02*
X130430000Y-60875000D01*
X127326000Y-61153000D02*
X126281000Y-61153000D01*
X128276000Y-62103000D02*
X127326000Y-61153000D01*
X128481000Y-62103000D02*
X128276000Y-62103000D01*
X124382400Y-57210000D02*
X123480000Y-57210000D01*
X124406201Y-57233801D02*
X124382400Y-57210000D01*
X124916199Y-57233801D02*
X124406201Y-57233801D01*
X125127000Y-57023000D02*
X124916199Y-57233801D01*
X125522000Y-57023000D02*
X125127000Y-57023000D01*
X121030000Y-56162400D02*
X121030000Y-55260000D01*
X121006199Y-56186201D02*
X121030000Y-56162400D01*
X120053801Y-56186201D02*
X121006199Y-56186201D01*
X120030000Y-56162400D02*
X120053801Y-56186201D01*
X120030000Y-55260000D02*
X120030000Y-56162400D01*
X124379000Y-55880000D02*
X125522000Y-57023000D01*
X123652000Y-55880000D02*
X124379000Y-55880000D01*
X125349000Y-58166002D02*
X124916199Y-57733201D01*
X124916199Y-57733201D02*
X124916199Y-57233801D01*
X126281000Y-58815160D02*
X125631842Y-58166002D01*
X126281000Y-61153000D02*
X126281000Y-58815160D01*
X125631842Y-58166002D02*
X125349000Y-58166002D01*
D15*
X126281000Y-61153000D02*
X125283000Y-61153000D01*
X125283000Y-61153000D02*
X125272800Y-61163200D01*
D33*
X124866400Y-63881000D02*
X124195400Y-63210000D01*
X129187201Y-63518961D02*
X128825162Y-63881000D01*
X129187201Y-62126801D02*
X129187201Y-63518961D01*
X124195400Y-63210000D02*
X123480000Y-63210000D01*
X128825162Y-63881000D02*
X124866400Y-63881000D01*
X129163400Y-62103000D02*
X129187201Y-62126801D01*
X121006199Y-56186201D02*
X121856201Y-56186201D01*
X121856201Y-56186201D02*
X122880000Y-57210000D01*
X122880000Y-57210000D02*
X123480000Y-57210000D01*
X132154601Y-67713199D02*
X129993999Y-67713199D01*
X133116600Y-66751200D02*
X132154601Y-67713199D01*
X129993999Y-67713199D02*
X129765399Y-67484599D01*
X129765399Y-67484599D02*
X129565400Y-67284600D01*
D15*
X113606384Y-65260011D02*
X113152437Y-64806064D01*
X113152437Y-64806064D02*
X113152437Y-64523222D01*
X116082431Y-65260011D02*
X113606384Y-65260011D01*
D33*
X127508000Y-57023000D02*
X127508000Y-58039000D01*
X116030000Y-66660000D02*
X116530000Y-66660000D01*
X115030000Y-67562400D02*
X115030000Y-66660000D01*
D15*
X128032990Y-58563990D02*
X128032990Y-59626002D01*
X128032990Y-59626002D02*
X128698026Y-60291038D01*
X127508000Y-58039000D02*
X128032990Y-58563990D01*
D33*
X115053801Y-67586201D02*
X115030000Y-67562400D01*
D15*
X118713898Y-56426102D02*
X119030000Y-56110000D01*
X119030000Y-56110000D02*
X119030000Y-55260000D01*
X116530000Y-56408200D02*
X116547902Y-56426102D01*
X116530000Y-55260000D02*
X116530000Y-56408200D01*
X118030000Y-55260000D02*
X118030000Y-56409604D01*
X118046498Y-56426102D02*
X118713898Y-56426102D01*
X118030000Y-56409604D02*
X118046498Y-56426102D01*
X116547902Y-56426102D02*
X118046498Y-56426102D01*
X116530593Y-56443411D02*
X116297342Y-56443411D01*
X116547902Y-56426102D02*
X116530593Y-56443411D01*
X116297342Y-56443411D02*
X116014500Y-56443411D01*
D33*
X116030000Y-67331928D02*
X115775727Y-67586201D01*
X115775727Y-67586201D02*
X115053801Y-67586201D01*
X116030000Y-66660000D02*
X116030000Y-67331928D01*
X113712601Y-67586201D02*
X115053801Y-67586201D01*
X113436400Y-67310000D02*
X113712601Y-67586201D01*
X117030000Y-55260000D02*
X117530000Y-55260000D01*
X123802000Y-66167000D02*
X123802000Y-67056000D01*
D15*
X109499400Y-54102000D02*
X109499400Y-55118000D01*
X125628600Y-66395600D02*
X126543000Y-67310000D01*
X123799600Y-66395600D02*
X125628600Y-66395600D01*
X124734600Y-54864000D02*
X123652000Y-54864000D01*
X124760000Y-54838600D02*
X124734600Y-54864000D01*
X126046990Y-56125590D02*
X124760000Y-54838600D01*
X126046990Y-57593990D02*
X126046990Y-56125590D01*
X127508000Y-59055000D02*
X126046990Y-57593990D01*
X123329590Y-65925590D02*
X123799600Y-66395600D01*
X121530000Y-66660000D02*
X121780000Y-66660000D01*
X121780000Y-66660000D02*
X122514410Y-65925590D01*
X122514410Y-65925590D02*
X123329590Y-65925590D01*
X121479999Y-65759999D02*
X121530000Y-65810000D01*
X121530000Y-65810000D02*
X121530000Y-66660000D01*
X115530000Y-65810000D02*
X115543999Y-65796001D01*
X115530000Y-66660000D02*
X115530000Y-65810000D01*
X115543999Y-65796001D02*
X115543999Y-65759999D01*
X117030000Y-66660000D02*
X117030000Y-65810000D01*
X117030000Y-65810000D02*
X117029899Y-65809899D01*
X117029899Y-65809899D02*
X117029899Y-65759999D01*
X115543999Y-65759999D02*
X117029899Y-65759999D01*
X118030000Y-65810000D02*
X118071299Y-65768701D01*
X118071299Y-65768701D02*
X118071299Y-65759999D01*
X118030000Y-66660000D02*
X118030000Y-65810000D01*
X118071299Y-65759999D02*
X121479999Y-65759999D01*
X117029899Y-65759999D02*
X118071299Y-65759999D01*
X111963200Y-66421000D02*
X112547400Y-67005200D01*
X111963200Y-65557400D02*
X111963200Y-66421000D01*
X111806000Y-54991000D02*
X110989423Y-55807577D01*
X110616665Y-55807577D02*
X110333823Y-55807577D01*
X110989423Y-55807577D02*
X110616665Y-55807577D01*
X109499400Y-55118000D02*
X110188977Y-55807577D01*
X110188977Y-55807577D02*
X110333823Y-55807577D01*
X116693411Y-54073411D02*
X112723589Y-54073411D01*
X117030000Y-54410000D02*
X116693411Y-54073411D01*
X112723589Y-54073411D02*
X112140168Y-54656832D01*
X117030000Y-55260000D02*
X117030000Y-54410000D01*
X112140168Y-54656832D02*
X111806000Y-54991000D01*
D33*
X122933980Y-53898800D02*
X123652000Y-54616820D01*
X117549018Y-53898800D02*
X122933980Y-53898800D01*
X123652000Y-54616820D02*
X123652000Y-54864000D01*
X117498349Y-53949469D02*
X117549018Y-53898800D01*
D15*
X119530000Y-53926600D02*
X119557800Y-53898800D01*
X119530000Y-55260000D02*
X119530000Y-53926600D01*
X112860191Y-65619584D02*
X113060190Y-65419585D01*
X112547400Y-67005200D02*
X112547400Y-65932375D01*
X112547400Y-65932375D02*
X112860191Y-65619584D01*
X113400604Y-65759999D02*
X113260189Y-65619584D01*
X113260189Y-65619584D02*
X113060190Y-65419585D01*
X115543999Y-65759999D02*
X113400604Y-65759999D01*
D33*
X112080000Y-61210000D02*
X111177600Y-61210000D01*
X111177600Y-61210000D02*
X110642400Y-60674800D01*
X110642400Y-59137802D02*
X110135824Y-58631226D01*
X110642400Y-60674800D02*
X110642400Y-59137802D01*
X110159800Y-60692200D02*
X110159800Y-59817000D01*
X111177600Y-61710000D02*
X110159800Y-60692200D01*
X112080000Y-61710000D02*
X111177600Y-61710000D01*
X109673448Y-60705848D02*
X109673448Y-60200706D01*
X112080000Y-62210000D02*
X111177600Y-62210000D01*
X111177600Y-62210000D02*
X109673448Y-60705848D01*
X110383816Y-62710000D02*
X110270990Y-62597174D01*
X112080000Y-62710000D02*
X110383816Y-62710000D01*
D15*
X110993200Y-66984400D02*
X110972400Y-67005200D01*
X110972400Y-65578200D02*
X110993200Y-65557400D01*
X110972400Y-67005200D02*
X110972400Y-65578200D01*
X115863836Y-67818000D02*
X111785200Y-67818000D01*
X111785200Y-67818000D02*
X111434012Y-67466812D01*
X117530000Y-66660000D02*
X117530000Y-67510000D01*
X111434012Y-67466812D02*
X110972400Y-67005200D01*
X117530000Y-67510000D02*
X117479999Y-67560001D01*
X117479999Y-67560001D02*
X116121835Y-67560001D01*
X116121835Y-67560001D02*
X115863836Y-67818000D01*
D33*
X110047600Y-63210000D02*
X109702600Y-62865000D01*
X112080000Y-63210000D02*
X110047600Y-63210000D01*
X109871177Y-64626818D02*
X109671178Y-64826817D01*
X110787995Y-63710000D02*
X109871177Y-64626818D01*
X112080000Y-63710000D02*
X110787995Y-63710000D01*
D15*
X115476000Y-54356000D02*
X113812063Y-54356000D01*
X113744642Y-54423421D02*
X113461800Y-54423421D01*
X115530000Y-54410000D02*
X115476000Y-54356000D01*
X113812063Y-54356000D02*
X113744642Y-54423421D01*
X115530000Y-55260000D02*
X115530000Y-54410000D01*
D33*
X109681990Y-65348047D02*
X109681990Y-65775428D01*
X110820037Y-64210000D02*
X109681990Y-65348047D01*
X109681990Y-65775428D02*
X109681990Y-66058270D01*
X112080000Y-64210000D02*
X110820037Y-64210000D01*
X110058200Y-65328800D02*
X110058200Y-67894198D01*
X110677000Y-64710000D02*
X110058200Y-65328800D01*
X112080000Y-64710000D02*
X110677000Y-64710000D01*
D15*
X119530000Y-66660000D02*
X119530000Y-67510000D01*
X119530000Y-67510000D02*
X120117400Y-68097400D01*
X124180600Y-68097400D02*
X124968000Y-67310000D01*
X120117400Y-68097400D02*
X124180600Y-68097400D01*
X120917389Y-67897389D02*
X120530000Y-67510000D01*
X120530000Y-67510000D02*
X120530000Y-66660000D01*
X122829600Y-67259200D02*
X122191411Y-67897389D01*
X122191411Y-67897389D02*
X120917389Y-67897389D01*
X110469400Y-54102000D02*
X110469400Y-55118000D01*
X118479999Y-54359999D02*
X118530000Y-54410000D01*
X118530000Y-54410000D02*
X118530000Y-55260000D01*
X117341993Y-54359999D02*
X118479999Y-54359999D01*
X116855394Y-53873400D02*
X117341993Y-54359999D01*
X110469400Y-54000400D02*
X110596400Y-53873400D01*
X110596400Y-53873400D02*
X116855394Y-53873400D01*
D33*
X118530000Y-67562400D02*
X118677612Y-67710012D01*
X118530000Y-66660000D02*
X118530000Y-67562400D01*
X118677612Y-67710012D02*
X118888362Y-67710012D01*
X122829600Y-66395600D02*
X122201613Y-67023587D01*
X122201613Y-67023587D02*
X121981324Y-67023587D01*
X113761000Y-54991000D02*
X114030000Y-55260000D01*
X112776000Y-54991000D02*
X113761000Y-54991000D01*
D15*
X134157602Y-63962400D02*
X131191002Y-66929000D01*
X135730000Y-63962400D02*
X134157602Y-63962400D01*
X131713523Y-66889077D02*
X131713523Y-67314345D01*
X133990200Y-64612400D02*
X131713523Y-66889077D01*
X135730000Y-64612400D02*
X133990200Y-64612400D01*
D33*
X123480000Y-59710000D02*
X124795600Y-59710000D01*
X124795600Y-59710000D02*
X125679200Y-58826400D01*
D15*
X122280011Y-61200644D02*
X122080012Y-61400643D01*
X122809998Y-59710000D02*
X122579999Y-59939999D01*
X123480000Y-59710000D02*
X122809998Y-59710000D01*
X122579999Y-59939999D02*
X122579999Y-60900656D01*
X122579999Y-60900656D02*
X122280011Y-61200644D01*
D33*
X131556201Y-57098799D02*
X131556201Y-55799039D01*
X130057572Y-54300410D02*
X127790842Y-54300410D01*
X127790842Y-54300410D02*
X127508000Y-54300410D01*
X131556201Y-55799039D02*
X130057572Y-54300410D01*
X131080000Y-57575000D02*
X131556201Y-57098799D01*
X130755000Y-57575000D02*
X131080000Y-57575000D01*
X130430000Y-59775000D02*
X130755000Y-59775000D01*
X129052000Y-61153000D02*
X130430000Y-59775000D01*
X128481000Y-61153000D02*
X129052000Y-61153000D01*
D15*
X128276000Y-61153000D02*
X127688621Y-60565621D01*
X127688621Y-60565621D02*
X127343579Y-60565621D01*
X128481000Y-61153000D02*
X128276000Y-61153000D01*
X122579999Y-58598788D02*
X122202894Y-58221683D01*
X122579999Y-59657143D02*
X122579999Y-58598788D01*
X122123196Y-60113946D02*
X122579999Y-59657143D01*
X122123196Y-60718696D02*
X122123196Y-60113946D01*
X124331200Y-64211200D02*
X124536200Y-64211200D01*
X124330000Y-64210000D02*
X124331200Y-64211200D01*
X123480000Y-64210000D02*
X124330000Y-64210000D01*
X130755000Y-61975000D02*
X131723390Y-61975000D01*
X131723390Y-61975000D02*
X131724390Y-61976000D01*
D33*
X125018800Y-53924200D02*
X124841000Y-54102000D01*
X131725400Y-61975000D02*
X131808612Y-61891788D01*
X130755000Y-61975000D02*
X131725400Y-61975000D01*
X131808612Y-55694487D02*
X130038325Y-53924200D01*
X130038325Y-53924200D02*
X125018800Y-53924200D01*
X131808612Y-61891788D02*
X131808612Y-55694487D01*
D15*
X130755000Y-63075000D02*
X130430000Y-63075000D01*
X121980003Y-65965007D02*
X122500431Y-65444579D01*
X125456717Y-65897698D02*
X126234020Y-66675001D01*
X122500431Y-65444579D02*
X124667596Y-65444579D01*
X126234020Y-66675001D02*
X129890001Y-66675001D01*
X131673600Y-63668600D02*
X131080000Y-63075000D01*
X124667596Y-65444579D02*
X125120715Y-65897698D01*
X131673600Y-64891402D02*
X131673600Y-63668600D01*
X125120715Y-65897698D02*
X125456717Y-65897698D01*
X129890001Y-66675001D02*
X131673600Y-64891402D01*
X131080000Y-63075000D02*
X130755000Y-63075000D01*
D33*
X133350000Y-62940000D02*
X133298000Y-62940000D01*
X133350000Y-63677802D02*
X132486400Y-64541402D01*
X133350000Y-62940000D02*
X133350000Y-63677802D01*
D15*
X122218900Y-63710000D02*
X122186700Y-63677800D01*
X123480000Y-63710000D02*
X122218900Y-63710000D01*
X124437801Y-62317801D02*
X124437801Y-62563401D01*
X124330000Y-62210000D02*
X124437801Y-62317801D01*
X123480000Y-62210000D02*
X124330000Y-62210000D01*
X124437801Y-62563401D02*
X124637800Y-62763400D01*
X125600999Y-63198141D02*
X124386314Y-61983456D01*
X128276000Y-63053000D02*
X127800999Y-63528001D01*
X127800999Y-63528001D02*
X125630999Y-63528001D01*
X125630999Y-63528001D02*
X125600999Y-63498001D01*
X124386314Y-61266314D02*
X124330000Y-61210000D01*
X124386314Y-61983456D02*
X124386314Y-61266314D01*
X125600999Y-63498001D02*
X125600999Y-63198141D01*
X128481000Y-63053000D02*
X128276000Y-63053000D01*
X124330000Y-61210000D02*
X123480000Y-61210000D01*
X108026200Y-54965600D02*
X109568197Y-56507597D01*
X109568197Y-56507597D02*
X112826800Y-56507597D01*
X113360200Y-56388000D02*
X113129787Y-56157587D01*
X109726187Y-56157587D02*
X108534200Y-54965600D01*
X113129787Y-56157587D02*
X109726187Y-56157587D01*
X122630000Y-57710000D02*
X122179730Y-57259730D01*
X122179730Y-57259730D02*
X122179730Y-57247039D01*
X123480000Y-57710000D02*
X122630000Y-57710000D01*
X126076000Y-63053000D02*
X125135988Y-62112988D01*
X125135988Y-62112988D02*
X125024149Y-62112988D01*
X126281000Y-63053000D02*
X126076000Y-63053000D01*
X122280011Y-62259618D02*
X122080012Y-62059619D01*
X122280011Y-61859620D02*
X122080012Y-62059619D01*
X122402600Y-62382207D02*
X122280011Y-62259618D01*
X122402600Y-63195200D02*
X122402600Y-62382207D01*
X123480000Y-61710000D02*
X122429631Y-61710000D01*
X122429631Y-61710000D02*
X122280011Y-61859620D01*
D33*
X114530000Y-55260000D02*
X115030000Y-55260000D01*
X109784200Y-57257000D02*
X110185200Y-57658000D01*
X108854000Y-57257000D02*
X109784200Y-57257000D01*
X110185200Y-57658000D02*
X110159800Y-57658000D01*
X110959401Y-56883799D02*
X110185200Y-57658000D01*
X113007378Y-56883799D02*
X110959401Y-56883799D01*
X114530000Y-56162400D02*
X113923390Y-56769010D01*
X113923390Y-56769010D02*
X113122167Y-56769010D01*
X114530000Y-55260000D02*
X114530000Y-56162400D01*
X113122167Y-56769010D02*
X113007378Y-56883799D01*
X106121200Y-67310000D02*
X106728778Y-67310000D01*
X108854000Y-65184778D02*
X108854000Y-64457000D01*
X106728778Y-67310000D02*
X108854000Y-65184778D01*
X108102400Y-63957200D02*
X108402600Y-63657000D01*
X108402600Y-63657000D02*
X108854000Y-63657000D01*
X108102400Y-65201800D02*
X108102400Y-63957200D01*
X107348400Y-62857000D02*
X108854000Y-62857000D01*
X106121200Y-64084200D02*
X107348400Y-62857000D01*
X107132400Y-62057000D02*
X108854000Y-62057000D01*
X106197400Y-62992000D02*
X107132400Y-62057000D01*
X108854000Y-61257000D02*
X106484600Y-61257000D01*
X106484600Y-61257000D02*
X106095800Y-61645800D01*
X106497200Y-60457000D02*
X108854000Y-60457000D01*
X106121200Y-60833000D02*
X106497200Y-60457000D01*
X106596200Y-59657000D02*
X108854000Y-59657000D01*
X106121200Y-59182000D02*
X106596200Y-59657000D01*
X106812200Y-58857000D02*
X108854000Y-58857000D01*
X106121200Y-58166000D02*
X106812200Y-58857000D01*
X133116600Y-67721200D02*
X134086600Y-66751200D01*
X133116600Y-67818000D02*
X133116600Y-67721200D01*
M02*
