G04 ================== begin FILE IDENTIFICATION RECORD ==================*
G04 Layout Name:  CC26xx_4x4_Ext_Reg_lvl_shifter.brd*
G04 Film Name:    silk_top*
G04 File Format:  Gerber RS274X*
G04 File Origin:  Cadence Allegro 16.6-S021*
G04 Origin Date:  Thu Jan 22 13:29:13 2015*
G04 *
G04 Layer:  REF DES/SILKSCREEN_TOP*
G04 Layer:  PACKAGE GEOMETRY/SILKSCREEN_TOP*
G04 Layer:  MANUFACTURING/AUTOSILK_TOP*
G04 Layer:  BOARD GEOMETRY/OUTLINE*
G04 *
G04 Offset:    (0.000 0.000)*
G04 Mirror:    No*
G04 Mode:      Positive*
G04 Rotation:  0*
G04 FullContactRelief:  No*
G04 UndefLineWidth:     0.020*
G04 ================== end FILE IDENTIFICATION RECORD ====================*
%FSLAX44Y44*MOMM*%
%IR0*IPPOS*OFA0.00000B0.00000*MIA0B0*SFA1.00000B1.00000*%
%ADD10C,.1*%
%ADD11C,.4*%
%ADD12C,.02*%
G75*
%LPD*%
G75*
G36*
G01X1289720Y1367250D02*
X1287440D01*
Y1374000D01*
X1278000D01*
Y1359890D01*
X1267980D01*
X1268060Y1359530D01*
X1268150Y1359180D01*
X1268240Y1358830D01*
X1268340Y1358490D01*
X1268460Y1358150D01*
X1268580Y1357830D01*
X1268730Y1357520D01*
X1268900Y1357230D01*
X1269090Y1356950D01*
X1269200Y1356820D01*
X1269550Y1356460D01*
X1269810Y1356230D01*
X1270090Y1356010D01*
X1270360Y1355800D01*
X1270640Y1355580D01*
X1270950Y1355330D01*
X1271170Y1355130D01*
X1271420Y1354880D01*
X1271660Y1354630D01*
X1271880Y1354360D01*
X1272100Y1354100D01*
X1272320Y1353820D01*
X1272530Y1353550D01*
X1272640Y1353190D01*
X1272740Y1352840D01*
X1272840Y1352480D01*
X1272950Y1352120D01*
X1273060Y1351770D01*
X1273170Y1351420D01*
X1273300Y1351070D01*
X1273420Y1350720D01*
X1273560Y1350380D01*
X1273710Y1350040D01*
X1273920Y1349590D01*
X1274040Y1349370D01*
X1274220Y1349040D01*
X1274430Y1348740D01*
X1274680Y1348450D01*
X1274970Y1348200D01*
X1275290Y1348000D01*
X1275660Y1347850D01*
X1276040Y1347760D01*
X1276410Y1347750D01*
X1276690Y1347810D01*
X1277080Y1347990D01*
X1277370Y1348220D01*
X1277640Y1348500D01*
X1277880Y1348800D01*
X1278130Y1349110D01*
X1278360Y1349410D01*
X1278610Y1349700D01*
X1278860Y1349960D01*
X1279140Y1350190D01*
X1279470Y1350380D01*
X1279800Y1350510D01*
X1280260Y1350580D01*
X1280540Y1350550D01*
X1280900Y1350450D01*
X1281240Y1350280D01*
X1281640Y1349980D01*
X1281840Y1349810D01*
X1282090Y1349530D01*
X1282320Y1349240D01*
X1282520Y1348930D01*
X1282710Y1348610D01*
X1282830Y1348400D01*
X1283070Y1347960D01*
X1283240Y1347630D01*
X1283410Y1347300D01*
X1283580Y1346970D01*
X1283740Y1346640D01*
X1283890Y1346300D01*
X1284020Y1346020D01*
X1284200Y1345630D01*
X1284350Y1345290D01*
X1284510Y1344950D01*
X1284660Y1344610D01*
X1284810Y1344280D01*
X1284970Y1343940D01*
X1285210Y1343450D01*
X1285300Y1343280D01*
X1285460Y1342950D01*
X1285640Y1342620D01*
X1285820Y1342300D01*
X1286020Y1341990D01*
X1286220Y1341670D01*
X1286420Y1341370D01*
X1286650Y1341060D01*
X1286790Y1340870D01*
X1287120Y1340480D01*
X1287380Y1340200D01*
X1287640Y1339930D01*
X1287920Y1339670D01*
X1288200Y1339420D01*
X1288490Y1339190D01*
X1288780Y1338970D01*
X1289170Y1338700D01*
X1289360Y1338580D01*
X1289660Y1338410D01*
X1289960Y1338250D01*
X1290280Y1338120D01*
X1290600Y1338010D01*
X1290940Y1337910D01*
X1291300Y1337830D01*
X1291670Y1337770D01*
X1292070Y1337730D01*
X1292500Y1337710D01*
X1293130Y1337700D01*
X1293440Y1337720D01*
X1293940Y1337750D01*
X1294420Y1337820D01*
X1294850Y1337920D01*
X1295190Y1338050D01*
X1295420Y1338230D01*
X1295510Y1338500D01*
X1295430Y1338740D01*
X1295220Y1339060D01*
X1294950Y1339400D01*
X1294810Y1340350D01*
X1294690Y1341290D01*
X1294630Y1342200D01*
X1294650Y1343070D01*
X1294750Y1343760D01*
X1295040Y1344660D01*
X1295430Y1345370D01*
X1295920Y1346020D01*
X1296510Y1346640D01*
X1297190Y1347210D01*
X1297940Y1347740D01*
X1298760Y1348250D01*
X1299640Y1348720D01*
X1300560Y1349180D01*
X1301510Y1349630D01*
X1302480Y1350060D01*
X1303460Y1350490D01*
X1305210D01*
Y1358500D01*
X1303430Y1360280D01*
Y1367250D01*
X1295310D01*
X1294320Y1361970D01*
X1296700D01*
X1296100Y1358610D01*
X1293920D01*
X1292590Y1351560D01*
X1294310Y1351570D01*
Y1348740D01*
G02X1293590Y1347820I-803J-113D01*
G01X1288040D01*
G02X1286400Y1349100I-109J1551D01*
G01Y1349900D01*
X1287960Y1358610D01*
X1285640D01*
X1286360Y1361970D01*
X1288840D01*
X1289720Y1367250D01*
G37*
G36*
G01D02*
X1287440D01*
Y1374000D01*
X1278000D01*
Y1359890D01*
X1267980D01*
X1268060Y1359530D01*
X1268150Y1359180D01*
X1268240Y1358830D01*
X1268340Y1358490D01*
X1268460Y1358150D01*
X1268580Y1357830D01*
X1268730Y1357520D01*
X1268900Y1357230D01*
X1269090Y1356950D01*
X1269200Y1356820D01*
X1269550Y1356460D01*
X1269810Y1356230D01*
X1270090Y1356010D01*
X1270360Y1355800D01*
X1270640Y1355580D01*
X1270950Y1355330D01*
X1271170Y1355130D01*
X1271420Y1354880D01*
X1271660Y1354630D01*
X1271880Y1354360D01*
X1272100Y1354100D01*
X1272320Y1353820D01*
X1272530Y1353550D01*
X1272640Y1353190D01*
X1272740Y1352840D01*
X1272840Y1352480D01*
X1272950Y1352120D01*
X1273060Y1351770D01*
X1273170Y1351420D01*
X1273300Y1351070D01*
X1273420Y1350720D01*
X1273560Y1350380D01*
X1273710Y1350040D01*
X1273920Y1349590D01*
X1274040Y1349370D01*
X1274220Y1349040D01*
X1274430Y1348740D01*
X1274680Y1348450D01*
X1274970Y1348200D01*
X1275290Y1348000D01*
X1275660Y1347850D01*
X1276040Y1347760D01*
X1276410Y1347750D01*
X1276690Y1347810D01*
X1277080Y1347990D01*
X1277370Y1348220D01*
X1277640Y1348500D01*
X1277880Y1348800D01*
X1278130Y1349110D01*
X1278360Y1349410D01*
X1278610Y1349700D01*
X1278860Y1349960D01*
X1279140Y1350190D01*
X1279470Y1350380D01*
X1279800Y1350510D01*
X1280260Y1350580D01*
X1280540Y1350550D01*
X1280900Y1350450D01*
X1281240Y1350280D01*
X1281640Y1349980D01*
X1281840Y1349810D01*
X1282090Y1349530D01*
X1282320Y1349240D01*
X1282520Y1348930D01*
X1282710Y1348610D01*
X1282830Y1348400D01*
X1283070Y1347960D01*
X1283240Y1347630D01*
X1283410Y1347300D01*
X1283580Y1346970D01*
X1283740Y1346640D01*
X1283890Y1346300D01*
X1284020Y1346020D01*
X1284200Y1345630D01*
X1284350Y1345290D01*
X1284510Y1344950D01*
X1284660Y1344610D01*
X1284810Y1344280D01*
X1284970Y1343940D01*
X1285210Y1343450D01*
X1285300Y1343280D01*
X1285460Y1342950D01*
X1285640Y1342620D01*
X1285820Y1342300D01*
X1286020Y1341990D01*
X1286220Y1341670D01*
X1286420Y1341370D01*
X1286650Y1341060D01*
X1286790Y1340870D01*
X1287120Y1340480D01*
X1287380Y1340200D01*
X1287640Y1339930D01*
X1287920Y1339670D01*
X1288200Y1339420D01*
X1288490Y1339190D01*
X1288780Y1338970D01*
X1289170Y1338700D01*
X1289360Y1338580D01*
X1289660Y1338410D01*
X1289960Y1338250D01*
X1290280Y1338120D01*
X1290600Y1338010D01*
X1290940Y1337910D01*
X1291300Y1337830D01*
X1291670Y1337770D01*
X1292070Y1337730D01*
X1292500Y1337710D01*
X1293130Y1337700D01*
X1293440Y1337720D01*
X1293940Y1337750D01*
X1294420Y1337820D01*
X1294850Y1337920D01*
X1295190Y1338050D01*
X1295420Y1338230D01*
X1295510Y1338500D01*
X1295430Y1338740D01*
X1295220Y1339060D01*
X1294950Y1339400D01*
X1294810Y1340350D01*
X1294690Y1341290D01*
X1294630Y1342200D01*
X1294650Y1343070D01*
X1294750Y1343760D01*
X1295040Y1344660D01*
X1295430Y1345370D01*
X1295920Y1346020D01*
X1296510Y1346640D01*
X1297190Y1347210D01*
X1297940Y1347740D01*
X1298760Y1348250D01*
X1299640Y1348720D01*
X1300560Y1349180D01*
X1301510Y1349630D01*
X1302480Y1350060D01*
X1303460Y1350490D01*
X1305210D01*
Y1358500D01*
X1303430Y1360280D01*
Y1367250D01*
X1295310D01*
X1294320Y1361970D01*
X1296700D01*
X1296100Y1358610D01*
X1293920D01*
X1292590Y1351560D01*
X1294310Y1351570D01*
Y1348740D01*
G02X1293590Y1347820I-803J-113D01*
G01X1288040D01*
G02X1286400Y1349100I-109J1551D01*
G01Y1349900D01*
X1287960Y1358610D01*
X1285640D01*
X1286360Y1361970D01*
X1288840D01*
X1289720Y1367250D01*
G37*
G36*
G01X1290560Y1367810D02*
X1291470Y1371790D01*
X1295630D01*
X1294720Y1367810D01*
X1290560D01*
G37*
G36*
G01Y1367250D02*
X1287390Y1351570D01*
X1291550D01*
X1294720Y1367250D01*
X1290560D01*
G37*
G36*
G01Y1367810D02*
X1291470Y1371790D01*
X1295630D01*
X1294720Y1367810D01*
X1290560D01*
G37*
G36*
G01Y1367250D02*
X1287390Y1351570D01*
X1291550D01*
X1294720Y1367250D01*
X1290560D01*
G37*
G36*
G01X1349580Y1334760D02*
Y1334020D01*
X1345520D01*
Y1334760D01*
X1345970D01*
G03X1346360Y1335140I3J387D01*
G01Y1344180D01*
G03X1345970Y1344570I-388J2D01*
G01X1343670D01*
G03X1343390Y1344460I-9J-390D01*
G01X1342360Y1343430D01*
X1342740Y1345850D01*
X1352370D01*
X1352750Y1343430D01*
X1351710Y1344460D01*
G03X1351440Y1344570I-271J-279D01*
G01X1349130D01*
G03X1348740Y1344180I-1J-389D01*
G01Y1335140D01*
G03X1349130Y1334760I388J8D01*
G01X1349580D01*
G37*
G36*
G01X1318380Y1335710D02*
G03X1319170Y1334920I793J3D01*
G01X1319600D01*
Y1334020D01*
X1314380Y1334000D01*
Y1334920D01*
X1314800D01*
G03X1315600Y1335710I6J794D01*
G01Y1347990D01*
G03X1314800Y1348780I-793J-2D01*
G01X1314380D01*
Y1349460D01*
X1319520D01*
Y1348780D01*
X1319170D01*
G03X1318380Y1347990I1J-791D01*
G01Y1335710D01*
G37*
G36*
G01X1320290Y1334920D02*
X1321040D01*
G03X1321440Y1335320I2J398D01*
G01Y1344620D01*
G03X1321040Y1345010I-397J-7D01*
G01X1320230D01*
Y1345890D01*
X1323880D01*
G02X1324180Y1345750I-2J-395D01*
G01X1329860Y1339180D01*
Y1344540D01*
G03X1329460Y1344930I-396J-6D01*
G01X1328490D01*
Y1345890D01*
X1332480D01*
Y1344930D01*
X1331640D01*
G03X1331250Y1344540I4J-394D01*
G01Y1334020D01*
X1330630D01*
G02X1330330Y1334150I-7J395D01*
G01X1323470Y1342100D01*
Y1335320D01*
G03X1323860Y1334920I396J-4D01*
G01X1324460D01*
Y1334020D01*
X1320290D01*
Y1334920D01*
G37*
G36*
G01X1333720Y1334130D02*
X1332720Y1337800D01*
X1333180Y1337910D01*
X1333370Y1337650D01*
X1333570Y1337390D01*
X1333770Y1337130D01*
X1333970Y1336890D01*
X1334180Y1336660D01*
X1334400Y1336450D01*
X1334640Y1336250D01*
X1334880Y1336080D01*
X1335160Y1335940D01*
X1335420Y1335820D01*
X1335720Y1335730D01*
X1336020Y1335660D01*
X1336390Y1335580D01*
X1336640Y1335530D01*
X1336960Y1335470D01*
X1337280Y1335420D01*
X1337590Y1335390D01*
X1337910Y1335380D01*
X1338220Y1335390D01*
X1338520Y1335440D01*
X1338820Y1335510D01*
X1339140Y1335640D01*
X1339390Y1335790D01*
X1339650Y1335990D01*
X1339860Y1336230D01*
X1340050Y1336620D01*
X1340080Y1336800D01*
X1340070Y1337110D01*
X1339990Y1337430D01*
X1339850Y1337730D01*
X1339590Y1338070D01*
X1339440Y1338210D01*
X1339180Y1338380D01*
X1338890Y1338520D01*
X1338600Y1338620D01*
X1338170Y1338720D01*
X1337980Y1338760D01*
X1337670Y1338810D01*
X1337370Y1338860D01*
X1337070Y1338900D01*
X1336760Y1338950D01*
X1336460Y1338990D01*
X1336160Y1339040D01*
X1335850Y1339090D01*
X1335550Y1339160D01*
X1335350Y1339200D01*
X1334930Y1339320D01*
X1334630Y1339430D01*
X1334340Y1339560D01*
X1334070Y1339710D01*
X1333820Y1339880D01*
X1333600Y1340080D01*
X1333410Y1340320D01*
X1333250Y1340580D01*
X1333130Y1340860D01*
X1333030Y1341160D01*
X1332960Y1341480D01*
X1332920Y1341800D01*
X1332890Y1342280D01*
Y1342460D01*
X1332910Y1342790D01*
X1332950Y1343110D01*
X1333010Y1343420D01*
X1333100Y1343720D01*
X1333210Y1344010D01*
X1333350Y1344280D01*
X1333540Y1344540D01*
X1333720Y1344760D01*
X1333950Y1344960D01*
X1334200Y1345150D01*
X1334470Y1345320D01*
X1334750Y1345460D01*
X1335040Y1345590D01*
X1335480Y1345740D01*
X1335640Y1345790D01*
X1335950Y1345860D01*
X1336250Y1345920D01*
X1336550Y1345960D01*
X1336860Y1345990D01*
X1337160Y1346000D01*
X1337480D01*
X1337800Y1345980D01*
X1338110Y1345940D01*
X1338410Y1345880D01*
X1338710Y1345790D01*
X1338940Y1345710D01*
X1339280Y1345560D01*
X1339550Y1345410D01*
X1339820Y1345260D01*
Y1346010D01*
X1340690D01*
X1341460Y1342660D01*
X1341180Y1342380D01*
X1340940Y1342560D01*
X1340700Y1342750D01*
X1340460Y1342920D01*
X1340220Y1343100D01*
X1339960Y1343260D01*
X1339690Y1343410D01*
X1339440Y1343540D01*
X1339160Y1343660D01*
X1338870Y1343760D01*
X1338580Y1343840D01*
X1338290Y1343910D01*
X1337990Y1343970D01*
X1337810Y1343990D01*
X1337400Y1344030D01*
X1337100Y1344040D01*
X1336800Y1344020D01*
X1336550Y1343990D01*
X1336190Y1343920D01*
X1335900Y1343820D01*
X1335640Y1343670D01*
X1335510Y1343540D01*
X1335300Y1343160D01*
X1335230Y1342850D01*
X1335240Y1342530D01*
X1335320Y1342280D01*
X1335500Y1342010D01*
X1335740Y1341830D01*
X1336020Y1341690D01*
X1336330Y1341580D01*
X1336610Y1341500D01*
X1336950Y1341430D01*
X1337250Y1341380D01*
X1337550Y1341340D01*
X1337840Y1341300D01*
X1338130Y1341260D01*
X1338430Y1341210D01*
X1338710Y1341160D01*
X1339000Y1341090D01*
X1339290Y1341020D01*
X1339580Y1340940D01*
X1339850Y1340860D01*
X1340160Y1340750D01*
X1340450Y1340640D01*
X1340720Y1340520D01*
X1340990Y1340380D01*
X1341240Y1340210D01*
X1341440Y1340050D01*
X1341670Y1339800D01*
X1341840Y1339560D01*
X1342000Y1339300D01*
X1342120Y1339020D01*
X1342230Y1338730D01*
X1342310Y1338430D01*
X1342370Y1338140D01*
X1342400Y1337830D01*
X1342420Y1337530D01*
X1342410Y1337230D01*
X1342370Y1336930D01*
X1342310Y1336620D01*
X1342240Y1336340D01*
X1342140Y1336060D01*
X1342020Y1335780D01*
X1341880Y1335510D01*
X1341710Y1335250D01*
X1341530Y1335010D01*
X1341310Y1334770D01*
X1341100Y1334580D01*
X1340860Y1334400D01*
X1340600Y1334240D01*
X1340330Y1334090D01*
X1340050Y1333970D01*
X1339760Y1333870D01*
X1339460Y1333780D01*
X1339160Y1333720D01*
X1338850Y1333670D01*
X1338540Y1333640D01*
X1338200D01*
X1337940Y1333650D01*
X1337640Y1333680D01*
X1337340Y1333720D01*
X1337050Y1333780D01*
X1336760Y1333850D01*
X1336470Y1333930D01*
X1336180Y1334030D01*
X1335900Y1334130D01*
X1335610Y1334230D01*
X1335330Y1334340D01*
X1335050Y1334460D01*
X1334770Y1334580D01*
Y1334130D01*
X1333720D01*
G37*
G36*
G01X1349580Y1334760D02*
Y1334020D01*
X1345520D01*
Y1334760D01*
X1345970D01*
G03X1346360Y1335140I3J387D01*
G01Y1344180D01*
G03X1345970Y1344570I-388J2D01*
G01X1343670D01*
G03X1343390Y1344460I-9J-390D01*
G01X1342360Y1343430D01*
X1342740Y1345850D01*
X1352370D01*
X1352750Y1343430D01*
X1351710Y1344460D01*
G03X1351440Y1344570I-271J-279D01*
G01X1349130D01*
G03X1348740Y1344180I-1J-389D01*
G01Y1335140D01*
G03X1349130Y1334760I388J8D01*
G01X1349580D01*
G37*
G36*
G01X1318380Y1335710D02*
G03X1319170Y1334920I793J3D01*
G01X1319600D01*
Y1334020D01*
X1314380Y1334000D01*
Y1334920D01*
X1314800D01*
G03X1315600Y1335710I6J794D01*
G01Y1347990D01*
G03X1314800Y1348780I-793J-2D01*
G01X1314380D01*
Y1349460D01*
X1319520D01*
Y1348780D01*
X1319170D01*
G03X1318380Y1347990I1J-791D01*
G01Y1335710D01*
G37*
G36*
G01X1320290Y1334920D02*
X1321040D01*
G03X1321440Y1335320I2J398D01*
G01Y1344620D01*
G03X1321040Y1345010I-397J-7D01*
G01X1320230D01*
Y1345890D01*
X1323880D01*
G02X1324180Y1345750I-2J-395D01*
G01X1329860Y1339180D01*
Y1344540D01*
G03X1329460Y1344930I-396J-6D01*
G01X1328490D01*
Y1345890D01*
X1332480D01*
Y1344930D01*
X1331640D01*
G03X1331250Y1344540I4J-394D01*
G01Y1334020D01*
X1330630D01*
G02X1330330Y1334150I-7J395D01*
G01X1323470Y1342100D01*
Y1335320D01*
G03X1323860Y1334920I396J-4D01*
G01X1324460D01*
Y1334020D01*
X1320290D01*
Y1334920D01*
G37*
G36*
G01X1333720Y1334130D02*
X1332720Y1337800D01*
X1333180Y1337910D01*
X1333370Y1337650D01*
X1333570Y1337390D01*
X1333770Y1337130D01*
X1333970Y1336890D01*
X1334180Y1336660D01*
X1334400Y1336450D01*
X1334640Y1336250D01*
X1334880Y1336080D01*
X1335160Y1335940D01*
X1335420Y1335820D01*
X1335720Y1335730D01*
X1336020Y1335660D01*
X1336390Y1335580D01*
X1336640Y1335530D01*
X1336960Y1335470D01*
X1337280Y1335420D01*
X1337590Y1335390D01*
X1337910Y1335380D01*
X1338220Y1335390D01*
X1338520Y1335440D01*
X1338820Y1335510D01*
X1339140Y1335640D01*
X1339390Y1335790D01*
X1339650Y1335990D01*
X1339860Y1336230D01*
X1340050Y1336620D01*
X1340080Y1336800D01*
X1340070Y1337110D01*
X1339990Y1337430D01*
X1339850Y1337730D01*
X1339590Y1338070D01*
X1339440Y1338210D01*
X1339180Y1338380D01*
X1338890Y1338520D01*
X1338600Y1338620D01*
X1338170Y1338720D01*
X1337980Y1338760D01*
X1337670Y1338810D01*
X1337370Y1338860D01*
X1337070Y1338900D01*
X1336760Y1338950D01*
X1336460Y1338990D01*
X1336160Y1339040D01*
X1335850Y1339090D01*
X1335550Y1339160D01*
X1335350Y1339200D01*
X1334930Y1339320D01*
X1334630Y1339430D01*
X1334340Y1339560D01*
X1334070Y1339710D01*
X1333820Y1339880D01*
X1333600Y1340080D01*
X1333410Y1340320D01*
X1333250Y1340580D01*
X1333130Y1340860D01*
X1333030Y1341160D01*
X1332960Y1341480D01*
X1332920Y1341800D01*
X1332890Y1342280D01*
Y1342460D01*
X1332910Y1342790D01*
X1332950Y1343110D01*
X1333010Y1343420D01*
X1333100Y1343720D01*
X1333210Y1344010D01*
X1333350Y1344280D01*
X1333540Y1344540D01*
X1333720Y1344760D01*
X1333950Y1344960D01*
X1334200Y1345150D01*
X1334470Y1345320D01*
X1334750Y1345460D01*
X1335040Y1345590D01*
X1335480Y1345740D01*
X1335640Y1345790D01*
X1335950Y1345860D01*
X1336250Y1345920D01*
X1336550Y1345960D01*
X1336860Y1345990D01*
X1337160Y1346000D01*
X1337480D01*
X1337800Y1345980D01*
X1338110Y1345940D01*
X1338410Y1345880D01*
X1338710Y1345790D01*
X1338940Y1345710D01*
X1339280Y1345560D01*
X1339550Y1345410D01*
X1339820Y1345260D01*
Y1346010D01*
X1340690D01*
X1341460Y1342660D01*
X1341180Y1342380D01*
X1340940Y1342560D01*
X1340700Y1342750D01*
X1340460Y1342920D01*
X1340220Y1343100D01*
X1339960Y1343260D01*
X1339690Y1343410D01*
X1339440Y1343540D01*
X1339160Y1343660D01*
X1338870Y1343760D01*
X1338580Y1343840D01*
X1338290Y1343910D01*
X1337990Y1343970D01*
X1337810Y1343990D01*
X1337400Y1344030D01*
X1337100Y1344040D01*
X1336800Y1344020D01*
X1336550Y1343990D01*
X1336190Y1343920D01*
X1335900Y1343820D01*
X1335640Y1343670D01*
X1335510Y1343540D01*
X1335300Y1343160D01*
X1335230Y1342850D01*
X1335240Y1342530D01*
X1335320Y1342280D01*
X1335500Y1342010D01*
X1335740Y1341830D01*
X1336020Y1341690D01*
X1336330Y1341580D01*
X1336610Y1341500D01*
X1336950Y1341430D01*
X1337250Y1341380D01*
X1337550Y1341340D01*
X1337840Y1341300D01*
X1338130Y1341260D01*
X1338430Y1341210D01*
X1338710Y1341160D01*
X1339000Y1341090D01*
X1339290Y1341020D01*
X1339580Y1340940D01*
X1339850Y1340860D01*
X1340160Y1340750D01*
X1340450Y1340640D01*
X1340720Y1340520D01*
X1340990Y1340380D01*
X1341240Y1340210D01*
X1341440Y1340050D01*
X1341670Y1339800D01*
X1341840Y1339560D01*
X1342000Y1339300D01*
X1342120Y1339020D01*
X1342230Y1338730D01*
X1342310Y1338430D01*
X1342370Y1338140D01*
X1342400Y1337830D01*
X1342420Y1337530D01*
X1342410Y1337230D01*
X1342370Y1336930D01*
X1342310Y1336620D01*
X1342240Y1336340D01*
X1342140Y1336060D01*
X1342020Y1335780D01*
X1341880Y1335510D01*
X1341710Y1335250D01*
X1341530Y1335010D01*
X1341310Y1334770D01*
X1341100Y1334580D01*
X1340860Y1334400D01*
X1340600Y1334240D01*
X1340330Y1334090D01*
X1340050Y1333970D01*
X1339760Y1333870D01*
X1339460Y1333780D01*
X1339160Y1333720D01*
X1338850Y1333670D01*
X1338540Y1333640D01*
X1338200D01*
X1337940Y1333650D01*
X1337640Y1333680D01*
X1337340Y1333720D01*
X1337050Y1333780D01*
X1336760Y1333850D01*
X1336470Y1333930D01*
X1336180Y1334030D01*
X1335900Y1334130D01*
X1335610Y1334230D01*
X1335330Y1334340D01*
X1335050Y1334460D01*
X1334770Y1334580D01*
Y1334130D01*
X1333720D01*
G37*
G36*
G01X1319520Y1352560D02*
Y1351620D01*
X1314380D01*
Y1352560D01*
X1314950D01*
G03X1315440Y1353050I-3J493D01*
G01Y1364490D01*
G03X1314950Y1364990I-493J7D01*
G01X1312030D01*
G03X1311680Y1364840I5J-494D01*
G01X1310370Y1363540D01*
X1310850Y1366600D01*
X1323040D01*
X1323530Y1363540D01*
X1322210Y1364840D01*
G03X1321870Y1364990I-354J-343D01*
G01X1318950D01*
G03X1318450Y1364490I-5J-495D01*
G01Y1353050D01*
G03X1318950Y1352560I494J4D01*
G01X1319520D01*
G37*
G36*
G01X1332960Y1362070D02*
X1336040Y1357720D01*
G02Y1357260I-324J-230D01*
G01X1332990Y1352860D01*
G02X1332660Y1352690I-326J227D01*
G01X1331890D01*
Y1351620D01*
X1335510D01*
Y1352690D01*
X1334830D01*
X1337130Y1356180D01*
X1339590Y1352690D01*
X1338860D01*
Y1351620D01*
X1342970D01*
Y1352690D01*
X1342850D01*
G02X1342530Y1352860I5J395D01*
G01X1339440Y1357270D01*
G02Y1357710I329J220D01*
G01X1342210Y1362050D01*
G02X1342540Y1362240I339J-207D01*
G01X1343440D01*
Y1363530D01*
X1339170D01*
Y1362600D01*
Y1362240D01*
X1340320D01*
X1338260Y1359100D01*
X1336190Y1362240D01*
X1337450D01*
Y1363530D01*
X1331860D01*
Y1362240D01*
X1332640D01*
G02X1332960Y1362070I-6J-397D01*
G37*
G36*
G01X1350630Y1351620D02*
Y1352690D01*
X1350970D01*
G03X1351350Y1353220I5J397D01*
G01X1348550Y1361040D01*
X1346660Y1356170D01*
X1350230D01*
X1350640Y1355030D01*
X1346220Y1355020D01*
X1345520Y1353230D01*
G03X1345890Y1352690I370J-143D01*
G01X1345960D01*
Y1351620D01*
X1343220D01*
Y1352690D01*
X1343280D01*
G03X1343650Y1352940I1J398D01*
G01X1347740Y1363530D01*
X1350420D01*
X1354300Y1352950D01*
G03X1354670Y1352690I371J135D01*
G01X1355100D01*
Y1351620D01*
X1350630D01*
G37*
G36*
G01X1329450Y1359140D02*
X1329730D01*
Y1356180D01*
X1329450D01*
X1329050Y1356690D01*
G03X1328740Y1356840I-310J-245D01*
G01X1324690D01*
Y1353010D01*
X1329790D01*
G03X1330080Y1353130I5J398D01*
G01X1331310Y1354420D01*
X1331650D01*
X1330780Y1351890D01*
G02X1330400Y1351620I-377J128D01*
G01X1321340D01*
Y1352050D01*
X1322450Y1352630D01*
G03X1322670Y1352980I-178J356D01*
G01Y1361820D01*
G03X1322470Y1362160I-396J-4D01*
G01X1321340Y1362830D01*
Y1363510D01*
X1329930D01*
G02X1330290Y1363260I-7J-394D01*
G01X1331370Y1360670D01*
X1330780Y1360420D01*
X1329730Y1361570D01*
G03X1329440Y1361700I-294J-267D01*
G01X1324690D01*
Y1358650D01*
X1328770D01*
G03X1329040Y1358760I-3J394D01*
G01X1329450Y1359140D01*
G37*
G36*
G01X1319520Y1352560D02*
Y1351620D01*
X1314380D01*
Y1352560D01*
X1314950D01*
G03X1315440Y1353050I-3J493D01*
G01Y1364490D01*
G03X1314950Y1364990I-493J7D01*
G01X1312030D01*
G03X1311680Y1364840I5J-494D01*
G01X1310370Y1363540D01*
X1310850Y1366600D01*
X1323040D01*
X1323530Y1363540D01*
X1322210Y1364840D01*
G03X1321870Y1364990I-354J-343D01*
G01X1318950D01*
G03X1318450Y1364490I-5J-495D01*
G01Y1353050D01*
G03X1318950Y1352560I494J4D01*
G01X1319520D01*
G37*
G36*
G01X1332960Y1362070D02*
X1336040Y1357720D01*
G02Y1357260I-324J-230D01*
G01X1332990Y1352860D01*
G02X1332660Y1352690I-326J227D01*
G01X1331890D01*
Y1351620D01*
X1335510D01*
Y1352690D01*
X1334830D01*
X1337130Y1356180D01*
X1339590Y1352690D01*
X1338860D01*
Y1351620D01*
X1342970D01*
Y1352690D01*
X1342850D01*
G02X1342530Y1352860I5J395D01*
G01X1339440Y1357270D01*
G02Y1357710I329J220D01*
G01X1342210Y1362050D01*
G02X1342540Y1362240I339J-207D01*
G01X1343440D01*
Y1363530D01*
X1339170D01*
Y1362600D01*
Y1362240D01*
X1340320D01*
X1338260Y1359100D01*
X1336190Y1362240D01*
X1337450D01*
Y1363530D01*
X1331860D01*
Y1362240D01*
X1332640D01*
G02X1332960Y1362070I-6J-397D01*
G37*
G36*
G01X1350630Y1351620D02*
Y1352690D01*
X1350970D01*
G03X1351350Y1353220I5J397D01*
G01X1348550Y1361040D01*
X1346660Y1356170D01*
X1350230D01*
X1350640Y1355030D01*
X1346220Y1355020D01*
X1345520Y1353230D01*
G03X1345890Y1352690I370J-143D01*
G01X1345960D01*
Y1351620D01*
X1343220D01*
Y1352690D01*
X1343280D01*
G03X1343650Y1352940I1J398D01*
G01X1347740Y1363530D01*
X1350420D01*
X1354300Y1352950D01*
G03X1354670Y1352690I371J135D01*
G01X1355100D01*
Y1351620D01*
X1350630D01*
G37*
G36*
G01X1329450Y1359140D02*
X1329730D01*
Y1356180D01*
X1329450D01*
X1329050Y1356690D01*
G03X1328740Y1356840I-310J-245D01*
G01X1324690D01*
Y1353010D01*
X1329790D01*
G03X1330080Y1353130I5J398D01*
G01X1331310Y1354420D01*
X1331650D01*
X1330780Y1351890D01*
G02X1330400Y1351620I-377J128D01*
G01X1321340D01*
Y1352050D01*
X1322450Y1352630D01*
G03X1322670Y1352980I-178J356D01*
G01Y1361820D01*
G03X1322470Y1362160I-396J-4D01*
G01X1321340Y1362830D01*
Y1363510D01*
X1329930D01*
G02X1330290Y1363260I-7J-394D01*
G01X1331370Y1360670D01*
X1330780Y1360420D01*
X1329730Y1361570D01*
G03X1329440Y1361700I-294J-267D01*
G01X1324690D01*
Y1358650D01*
X1328770D01*
G03X1329040Y1358760I-3J394D01*
G01X1329450Y1359140D01*
G37*
G36*
G01X1354400Y1335130D02*
Y1344760D01*
G03X1354000Y1345160I-397J3D01*
G01X1353270D01*
Y1345830D01*
X1360650D01*
X1360890Y1345790D01*
X1361130Y1345750D01*
X1361250Y1345730D01*
X1361360Y1345700D01*
X1361510Y1345660D01*
X1361600Y1345640D01*
X1361710Y1345600D01*
X1361830Y1345550D01*
X1361940Y1345500D01*
X1362050Y1345450D01*
X1362160Y1345390D01*
X1362260Y1345330D01*
X1362370Y1345260D01*
X1362460Y1345190D01*
X1362560Y1345120D01*
X1362660Y1345040D01*
X1362750Y1344950D01*
X1362800Y1344900D01*
X1362920Y1344770D01*
X1363000Y1344680D01*
X1363070Y1344580D01*
X1363140Y1344480D01*
X1363210Y1344370D01*
X1363270Y1344260D01*
X1363320Y1344150D01*
X1363370Y1344040D01*
X1363410Y1343930D01*
X1363450Y1343810D01*
X1363480Y1343680D01*
X1363500Y1343580D01*
X1363520Y1343460D01*
X1363530Y1343340D01*
X1363540Y1343220D01*
X1363550Y1343100D01*
X1363560Y1342610D01*
Y1342500D01*
X1363570Y1342360D01*
X1363580Y1342120D01*
X1363590Y1341990D01*
Y1341870D01*
Y1341750D01*
X1363580Y1341630D01*
X1363570Y1341510D01*
X1363550Y1341450D01*
X1363540Y1341390D01*
X1363530Y1341350D01*
X1363510Y1341280D01*
X1363480Y1341220D01*
X1363460Y1341160D01*
X1363430Y1341110D01*
X1363400Y1341060D01*
X1363340Y1340950D01*
X1363270Y1340840D01*
X1363190Y1340750D01*
X1363110Y1340650D01*
X1363020Y1340560D01*
X1362930Y1340480D01*
X1362840Y1340400D01*
X1362770Y1340350D01*
X1362640Y1340270D01*
X1362540Y1340210D01*
X1362450Y1340160D01*
X1362340Y1340100D01*
X1362240Y1340060D01*
X1362030Y1339960D01*
X1361930Y1339920D01*
X1361820Y1339870D01*
X1361710Y1339820D01*
X1361600Y1339760D01*
X1361480Y1339700D01*
X1361370Y1339630D01*
X1361250Y1339560D01*
X1361120Y1339470D01*
X1361080Y1339430D01*
X1361050Y1339410D01*
X1361020Y1339390D01*
X1361000Y1339370D01*
X1360980Y1339340D01*
X1360970Y1339320D01*
X1360960Y1339290D01*
Y1339280D01*
X1360970Y1339260D01*
X1360980Y1339240D01*
X1361000Y1339220D01*
X1361020Y1339200D01*
X1361050Y1339180D01*
X1361110Y1339140D01*
X1361220Y1339080D01*
X1361300Y1339030D01*
X1361360Y1338990D01*
X1361420Y1338960D01*
X1361480Y1338920D01*
X1361530Y1338880D01*
X1361580Y1338850D01*
X1361670Y1338770D01*
X1361750Y1338690D01*
X1361830Y1338610D01*
X1361910Y1338530D01*
X1361990Y1338430D01*
X1362060Y1338360D01*
X1362130Y1338270D01*
X1362210Y1338180D01*
X1362280Y1338080D01*
X1362350Y1337980D01*
X1362500Y1337780D01*
X1362570Y1337680D01*
X1362630Y1337580D01*
X1362700Y1337470D01*
X1362730Y1337410D01*
X1362880Y1337150D01*
X1362990Y1336930D01*
X1363100Y1336720D01*
X1363220Y1336500D01*
X1363280Y1336400D01*
X1363340Y1336300D01*
X1363390Y1336240D01*
X1363480Y1336100D01*
X1363560Y1336010D01*
X1363630Y1335910D01*
X1363710Y1335820D01*
X1363800Y1335730D01*
X1363970Y1335560D01*
X1364180Y1335350D01*
X1364320Y1335220D01*
X1364500Y1335060D01*
X1364750Y1334840D01*
G03X1365010Y1334740I262J292D01*
G01X1365510D01*
Y1333990D01*
X1362760D01*
G02X1362460Y1334120I-5J399D01*
G01X1361910Y1334740D01*
X1361820Y1334840D01*
X1361730Y1334940D01*
X1361640Y1335040D01*
X1361550Y1335140D01*
X1361460Y1335240D01*
X1361380Y1335350D01*
X1361300Y1335460D01*
X1361210Y1335560D01*
X1361140Y1335660D01*
X1361060Y1335780D01*
X1360980Y1335900D01*
X1360910Y1336020D01*
X1360840Y1336130D01*
X1360780Y1336250D01*
X1360720Y1336380D01*
X1360660Y1336500D01*
X1360610Y1336620D01*
X1360560Y1336750D01*
X1360510Y1336880D01*
X1360470Y1337010D01*
X1360420Y1337130D01*
X1360370Y1337260D01*
X1360320Y1337390D01*
X1360270Y1337510D01*
X1360240Y1337580D01*
X1360140Y1337750D01*
X1360080Y1337870D01*
X1360010Y1337980D01*
X1359930Y1338100D01*
X1359860Y1338210D01*
X1359810Y1338290D01*
X1359710Y1338450D01*
X1359640Y1338560D01*
X1359560Y1338670D01*
X1359480Y1338780D01*
X1359380Y1338880D01*
X1359310Y1338940D01*
X1359170Y1339040D01*
X1359050Y1339100D01*
X1358930Y1339160D01*
X1358800Y1339220D01*
X1356760D01*
Y1340340D01*
X1359110D01*
X1359250Y1340350D01*
X1359390Y1340360D01*
X1359490Y1340370D01*
X1359660Y1340390D01*
X1359800Y1340420D01*
X1359930Y1340450D01*
X1360000Y1340470D01*
X1360190Y1340550D01*
X1360320Y1340620D01*
X1360440Y1340690D01*
X1360550Y1340780D01*
X1360660Y1340870D01*
X1360760Y1340970D01*
X1360850Y1341080D01*
X1360940Y1341200D01*
X1361010Y1341320D01*
X1361060Y1341430D01*
X1361110Y1341570D01*
X1361150Y1341700D01*
X1361170Y1341840D01*
X1361190Y1341970D01*
X1361200Y1342110D01*
Y1342250D01*
Y1342390D01*
Y1342560D01*
X1361190Y1342680D01*
X1361180Y1342820D01*
X1361170Y1342960D01*
X1361150Y1343100D01*
X1361130Y1343230D01*
X1361100Y1343370D01*
X1361060Y1343500D01*
X1361020Y1343630D01*
X1360960Y1343750D01*
X1360920Y1343820D01*
X1360810Y1343990D01*
X1360720Y1344100D01*
X1360630Y1344200D01*
X1360520Y1344290D01*
X1360410Y1344380D01*
X1360290Y1344450D01*
X1360210Y1344490D01*
X1360030Y1344550D01*
X1359900Y1344580D01*
X1359760Y1344600D01*
X1359630Y1344620D01*
X1359490Y1344640D01*
X1356720D01*
Y1335130D01*
G03X1357120Y1334740I394J4D01*
G01X1358020D01*
Y1333990D01*
X1353270D01*
Y1334740D01*
X1354000D01*
G03X1354400Y1335130I4J396D01*
G37*
G36*
G01X1368420Y1334020D02*
X1373850D01*
G03X1375870Y1336220I-208J2218D01*
G01Y1344760D01*
G02X1376260Y1345160I395J5D01*
G01X1376850D01*
Y1345890D01*
X1373000D01*
Y1345160D01*
X1373820D01*
G02X1374220Y1344760I3J-397D01*
G01Y1336850D01*
G02X1372330Y1335390I-1797J372D01*
G01X1370160D01*
G02X1368450Y1336850I49J1789D01*
G01Y1344760D01*
G02X1368840Y1345160I395J5D01*
G01X1369700D01*
Y1345890D01*
X1364480D01*
Y1345160D01*
X1365500D01*
G02X1365900Y1344760I2J-398D01*
G01Y1337140D01*
G03X1368420Y1334020I3221J24D01*
G37*
G36*
G01X1377450Y1334000D02*
X1381190D01*
Y1334920D01*
X1380380D01*
G02X1379980Y1335320I-3J397D01*
G01Y1342880D01*
X1384360Y1334000D01*
X1388570Y1342740D01*
Y1335320D01*
G02X1388170Y1334920I-398J-2D01*
G01X1387710D01*
Y1334020D01*
X1392240D01*
Y1334920D01*
X1392070D01*
G02X1391670Y1335320I-4J396D01*
G01Y1344810D01*
G02X1392070Y1345210I396J4D01*
G01X1392470D01*
Y1345890D01*
X1388570D01*
G03X1388210Y1345650I5J-397D01*
G01X1385160Y1338610D01*
X1381910Y1345660D01*
G03X1381550Y1345890I-360J-166D01*
G01X1377450D01*
Y1345160D01*
X1378370D01*
G02X1378770Y1344760I4J-396D01*
G01Y1335320D01*
G02X1378370Y1334920I-396J-4D01*
G01X1377450D01*
Y1334000D01*
G37*
G36*
G01X1401400Y1341520D02*
X1401690D01*
Y1338560D01*
X1401400D01*
X1401000Y1339070D01*
G03X1400690Y1339220I-310J-246D01*
G01X1396640D01*
Y1335390D01*
X1401740D01*
G03X1402030Y1335510I6J396D01*
G01X1403260Y1336800D01*
X1403610D01*
X1402730Y1334270D01*
G02X1402360Y1334000I-375J126D01*
G01X1393290D01*
Y1334430D01*
X1394410Y1335010D01*
G03X1394620Y1335360I-187J350D01*
G01Y1344200D01*
G03X1394420Y1344540I-395J-4D01*
G01X1393290Y1345210D01*
Y1345890D01*
X1401880D01*
G02X1402250Y1345640I1J-398D01*
G01X1403320Y1343040D01*
X1402730Y1342800D01*
X1401680Y1343950D01*
G03X1401390Y1344080I-294J-268D01*
G01X1396640D01*
Y1341030D01*
X1400720D01*
G03X1401000Y1341140I7J394D01*
G01X1401400Y1341520D01*
G37*
G36*
G01X1355920Y1351750D02*
X1354920Y1355420D01*
X1355380Y1355530D01*
X1355580Y1355270D01*
X1355770Y1355010D01*
X1355970Y1354760D01*
X1356180Y1354510D01*
X1356390Y1354280D01*
X1356610Y1354070D01*
X1356840Y1353880D01*
X1357090Y1353710D01*
X1357360Y1353560D01*
X1357630Y1353450D01*
X1357920Y1353360D01*
X1358220Y1353280D01*
X1358590Y1353200D01*
X1358850Y1353150D01*
X1359160Y1353090D01*
X1359480Y1353050D01*
X1359800Y1353020D01*
X1360110Y1353000D01*
X1360420Y1353020D01*
X1360730Y1353060D01*
X1361030Y1353140D01*
X1361340Y1353270D01*
X1361600Y1353410D01*
X1361850Y1353620D01*
X1362060Y1353850D01*
X1362250Y1354240D01*
X1362280Y1354420D01*
Y1354740D01*
X1362200Y1355050D01*
X1362060Y1355350D01*
X1361800Y1355690D01*
X1361640Y1355840D01*
X1361380Y1356010D01*
X1361100Y1356140D01*
X1360800Y1356240D01*
X1360370Y1356340D01*
X1360180Y1356380D01*
X1359880Y1356430D01*
X1359570Y1356480D01*
X1359270Y1356530D01*
X1358970Y1356570D01*
X1358660Y1356610D01*
X1358360Y1356660D01*
X1358060Y1356720D01*
X1357750Y1356780D01*
X1357560Y1356830D01*
X1357140Y1356940D01*
X1356830Y1357050D01*
X1356540Y1357180D01*
X1356270Y1357330D01*
X1356020Y1357500D01*
X1355810Y1357700D01*
X1355610Y1357940D01*
X1355460Y1358200D01*
X1355330Y1358490D01*
X1355240Y1358790D01*
X1355160Y1359100D01*
X1355120Y1359420D01*
X1355090Y1359900D01*
Y1360080D01*
X1355110Y1360410D01*
X1355150Y1360730D01*
X1355220Y1361040D01*
X1355300Y1361340D01*
X1355420Y1361630D01*
X1355560Y1361900D01*
X1355740Y1362170D01*
X1355930Y1362380D01*
X1356150Y1362590D01*
X1356400Y1362770D01*
X1356670Y1362940D01*
X1356950Y1363080D01*
X1357240Y1363210D01*
X1357680Y1363360D01*
X1357850Y1363410D01*
X1358150Y1363490D01*
X1358450Y1363540D01*
X1358760Y1363590D01*
X1359070Y1363610D01*
X1359370Y1363620D01*
X1359690D01*
X1360000Y1363600D01*
X1360310Y1363560D01*
X1360620Y1363500D01*
X1360910Y1363420D01*
X1361150Y1363330D01*
X1361480Y1363180D01*
X1361760Y1363030D01*
X1362020Y1362880D01*
Y1363640D01*
X1362890D01*
X1363670Y1360280D01*
X1363380Y1360000D01*
X1363150Y1360180D01*
X1362910Y1360370D01*
X1362670Y1360550D01*
X1362420Y1360720D01*
X1362170Y1360880D01*
X1361890Y1361040D01*
X1361640Y1361160D01*
X1361360Y1361280D01*
X1361080Y1361380D01*
X1360790Y1361460D01*
X1360490Y1361540D01*
X1360200Y1361590D01*
X1360020Y1361620D01*
X1359610Y1361650D01*
X1359310Y1361660D01*
X1359010Y1361650D01*
X1358750Y1361620D01*
X1358400Y1361550D01*
X1358100Y1361450D01*
X1357850Y1361290D01*
X1357720Y1361160D01*
X1357510Y1360780D01*
X1357440Y1360470D01*
X1357450Y1360150D01*
X1357520Y1359900D01*
X1357710Y1359640D01*
X1357940Y1359450D01*
X1358220Y1359310D01*
X1358530Y1359200D01*
X1358820Y1359120D01*
X1359150Y1359050D01*
X1359460Y1359000D01*
X1359750Y1358960D01*
X1360040Y1358920D01*
X1360330Y1358880D01*
X1360630Y1358830D01*
X1360910Y1358780D01*
X1361200Y1358720D01*
X1361490Y1358640D01*
X1361780Y1358560D01*
X1362060Y1358480D01*
X1362360Y1358370D01*
X1362650Y1358270D01*
X1362930Y1358140D01*
X1363190Y1358000D01*
X1363440Y1357840D01*
X1363640Y1357670D01*
X1363870Y1357430D01*
X1364050Y1357180D01*
X1364200Y1356920D01*
X1364330Y1356640D01*
X1364430Y1356350D01*
X1364520Y1356050D01*
X1364570Y1355760D01*
X1364610Y1355460D01*
X1364620Y1355160D01*
X1364610Y1354860D01*
X1364580Y1354560D01*
X1364520Y1354240D01*
X1364450Y1353970D01*
X1364340Y1353680D01*
X1364220Y1353400D01*
X1364080Y1353130D01*
X1363920Y1352870D01*
X1363740Y1352630D01*
X1363510Y1352390D01*
X1363310Y1352210D01*
X1363070Y1352020D01*
X1362810Y1351860D01*
X1362540Y1351720D01*
X1362260Y1351590D01*
X1361960Y1351490D01*
X1361670Y1351400D01*
X1361360Y1351340D01*
X1361060Y1351290D01*
X1360750Y1351270D01*
X1360400Y1351260D01*
X1360140Y1351270D01*
X1359840Y1351300D01*
X1359540Y1351340D01*
X1359250Y1351400D01*
X1358960Y1351470D01*
X1358670Y1351560D01*
X1358390Y1351650D01*
X1358100Y1351750D01*
X1357820Y1351860D01*
X1357540Y1351970D01*
X1357250Y1352080D01*
X1356970Y1352200D01*
Y1351750D01*
X1355920D01*
G37*
G36*
G01X1354400Y1335130D02*
Y1344760D01*
G03X1354000Y1345160I-397J3D01*
G01X1353270D01*
Y1345830D01*
X1360650D01*
X1360890Y1345790D01*
X1361130Y1345750D01*
X1361250Y1345730D01*
X1361360Y1345700D01*
X1361510Y1345660D01*
X1361600Y1345640D01*
X1361710Y1345600D01*
X1361830Y1345550D01*
X1361940Y1345500D01*
X1362050Y1345450D01*
X1362160Y1345390D01*
X1362260Y1345330D01*
X1362370Y1345260D01*
X1362460Y1345190D01*
X1362560Y1345120D01*
X1362660Y1345040D01*
X1362750Y1344950D01*
X1362800Y1344900D01*
X1362920Y1344770D01*
X1363000Y1344680D01*
X1363070Y1344580D01*
X1363140Y1344480D01*
X1363210Y1344370D01*
X1363270Y1344260D01*
X1363320Y1344150D01*
X1363370Y1344040D01*
X1363410Y1343930D01*
X1363450Y1343810D01*
X1363480Y1343680D01*
X1363500Y1343580D01*
X1363520Y1343460D01*
X1363530Y1343340D01*
X1363540Y1343220D01*
X1363550Y1343100D01*
X1363560Y1342610D01*
Y1342500D01*
X1363570Y1342360D01*
X1363580Y1342120D01*
X1363590Y1341990D01*
Y1341870D01*
Y1341750D01*
X1363580Y1341630D01*
X1363570Y1341510D01*
X1363550Y1341450D01*
X1363540Y1341390D01*
X1363530Y1341350D01*
X1363510Y1341280D01*
X1363480Y1341220D01*
X1363460Y1341160D01*
X1363430Y1341110D01*
X1363400Y1341060D01*
X1363340Y1340950D01*
X1363270Y1340840D01*
X1363190Y1340750D01*
X1363110Y1340650D01*
X1363020Y1340560D01*
X1362930Y1340480D01*
X1362840Y1340400D01*
X1362770Y1340350D01*
X1362640Y1340270D01*
X1362540Y1340210D01*
X1362450Y1340160D01*
X1362340Y1340100D01*
X1362240Y1340060D01*
X1362030Y1339960D01*
X1361930Y1339920D01*
X1361820Y1339870D01*
X1361710Y1339820D01*
X1361600Y1339760D01*
X1361480Y1339700D01*
X1361370Y1339630D01*
X1361250Y1339560D01*
X1361120Y1339470D01*
X1361080Y1339430D01*
X1361050Y1339410D01*
X1361020Y1339390D01*
X1361000Y1339370D01*
X1360980Y1339340D01*
X1360970Y1339320D01*
X1360960Y1339290D01*
Y1339280D01*
X1360970Y1339260D01*
X1360980Y1339240D01*
X1361000Y1339220D01*
X1361020Y1339200D01*
X1361050Y1339180D01*
X1361110Y1339140D01*
X1361220Y1339080D01*
X1361300Y1339030D01*
X1361360Y1338990D01*
X1361420Y1338960D01*
X1361480Y1338920D01*
X1361530Y1338880D01*
X1361580Y1338850D01*
X1361670Y1338770D01*
X1361750Y1338690D01*
X1361830Y1338610D01*
X1361910Y1338530D01*
X1361990Y1338430D01*
X1362060Y1338360D01*
X1362130Y1338270D01*
X1362210Y1338180D01*
X1362280Y1338080D01*
X1362350Y1337980D01*
X1362500Y1337780D01*
X1362570Y1337680D01*
X1362630Y1337580D01*
X1362700Y1337470D01*
X1362730Y1337410D01*
X1362880Y1337150D01*
X1362990Y1336930D01*
X1363100Y1336720D01*
X1363220Y1336500D01*
X1363280Y1336400D01*
X1363340Y1336300D01*
X1363390Y1336240D01*
X1363480Y1336100D01*
X1363560Y1336010D01*
X1363630Y1335910D01*
X1363710Y1335820D01*
X1363800Y1335730D01*
X1363970Y1335560D01*
X1364180Y1335350D01*
X1364320Y1335220D01*
X1364500Y1335060D01*
X1364750Y1334840D01*
G03X1365010Y1334740I262J292D01*
G01X1365510D01*
Y1333990D01*
X1362760D01*
G02X1362460Y1334120I-5J399D01*
G01X1361910Y1334740D01*
X1361820Y1334840D01*
X1361730Y1334940D01*
X1361640Y1335040D01*
X1361550Y1335140D01*
X1361460Y1335240D01*
X1361380Y1335350D01*
X1361300Y1335460D01*
X1361210Y1335560D01*
X1361140Y1335660D01*
X1361060Y1335780D01*
X1360980Y1335900D01*
X1360910Y1336020D01*
X1360840Y1336130D01*
X1360780Y1336250D01*
X1360720Y1336380D01*
X1360660Y1336500D01*
X1360610Y1336620D01*
X1360560Y1336750D01*
X1360510Y1336880D01*
X1360470Y1337010D01*
X1360420Y1337130D01*
X1360370Y1337260D01*
X1360320Y1337390D01*
X1360270Y1337510D01*
X1360240Y1337580D01*
X1360140Y1337750D01*
X1360080Y1337870D01*
X1360010Y1337980D01*
X1359930Y1338100D01*
X1359860Y1338210D01*
X1359810Y1338290D01*
X1359710Y1338450D01*
X1359640Y1338560D01*
X1359560Y1338670D01*
X1359480Y1338780D01*
X1359380Y1338880D01*
X1359310Y1338940D01*
X1359170Y1339040D01*
X1359050Y1339100D01*
X1358930Y1339160D01*
X1358800Y1339220D01*
X1356760D01*
Y1340340D01*
X1359110D01*
X1359250Y1340350D01*
X1359390Y1340360D01*
X1359490Y1340370D01*
X1359660Y1340390D01*
X1359800Y1340420D01*
X1359930Y1340450D01*
X1360000Y1340470D01*
X1360190Y1340550D01*
X1360320Y1340620D01*
X1360440Y1340690D01*
X1360550Y1340780D01*
X1360660Y1340870D01*
X1360760Y1340970D01*
X1360850Y1341080D01*
X1360940Y1341200D01*
X1361010Y1341320D01*
X1361060Y1341430D01*
X1361110Y1341570D01*
X1361150Y1341700D01*
X1361170Y1341840D01*
X1361190Y1341970D01*
X1361200Y1342110D01*
Y1342250D01*
Y1342390D01*
Y1342560D01*
X1361190Y1342680D01*
X1361180Y1342820D01*
X1361170Y1342960D01*
X1361150Y1343100D01*
X1361130Y1343230D01*
X1361100Y1343370D01*
X1361060Y1343500D01*
X1361020Y1343630D01*
X1360960Y1343750D01*
X1360920Y1343820D01*
X1360810Y1343990D01*
X1360720Y1344100D01*
X1360630Y1344200D01*
X1360520Y1344290D01*
X1360410Y1344380D01*
X1360290Y1344450D01*
X1360210Y1344490D01*
X1360030Y1344550D01*
X1359900Y1344580D01*
X1359760Y1344600D01*
X1359630Y1344620D01*
X1359490Y1344640D01*
X1356720D01*
Y1335130D01*
G03X1357120Y1334740I394J4D01*
G01X1358020D01*
Y1333990D01*
X1353270D01*
Y1334740D01*
X1354000D01*
G03X1354400Y1335130I4J396D01*
G37*
G36*
G01X1368420Y1334020D02*
X1373850D01*
G03X1375870Y1336220I-208J2218D01*
G01Y1344760D01*
G02X1376260Y1345160I395J5D01*
G01X1376850D01*
Y1345890D01*
X1373000D01*
Y1345160D01*
X1373820D01*
G02X1374220Y1344760I3J-397D01*
G01Y1336850D01*
G02X1372330Y1335390I-1797J372D01*
G01X1370160D01*
G02X1368450Y1336850I49J1789D01*
G01Y1344760D01*
G02X1368840Y1345160I395J5D01*
G01X1369700D01*
Y1345890D01*
X1364480D01*
Y1345160D01*
X1365500D01*
G02X1365900Y1344760I2J-398D01*
G01Y1337140D01*
G03X1368420Y1334020I3221J24D01*
G37*
G36*
G01X1377450Y1334000D02*
X1381190D01*
Y1334920D01*
X1380380D01*
G02X1379980Y1335320I-3J397D01*
G01Y1342880D01*
X1384360Y1334000D01*
X1388570Y1342740D01*
Y1335320D01*
G02X1388170Y1334920I-398J-2D01*
G01X1387710D01*
Y1334020D01*
X1392240D01*
Y1334920D01*
X1392070D01*
G02X1391670Y1335320I-4J396D01*
G01Y1344810D01*
G02X1392070Y1345210I396J4D01*
G01X1392470D01*
Y1345890D01*
X1388570D01*
G03X1388210Y1345650I5J-397D01*
G01X1385160Y1338610D01*
X1381910Y1345660D01*
G03X1381550Y1345890I-360J-166D01*
G01X1377450D01*
Y1345160D01*
X1378370D01*
G02X1378770Y1344760I4J-396D01*
G01Y1335320D01*
G02X1378370Y1334920I-396J-4D01*
G01X1377450D01*
Y1334000D01*
G37*
G36*
G01X1401400Y1341520D02*
X1401690D01*
Y1338560D01*
X1401400D01*
X1401000Y1339070D01*
G03X1400690Y1339220I-310J-246D01*
G01X1396640D01*
Y1335390D01*
X1401740D01*
G03X1402030Y1335510I6J396D01*
G01X1403260Y1336800D01*
X1403610D01*
X1402730Y1334270D01*
G02X1402360Y1334000I-375J126D01*
G01X1393290D01*
Y1334430D01*
X1394410Y1335010D01*
G03X1394620Y1335360I-187J350D01*
G01Y1344200D01*
G03X1394420Y1344540I-395J-4D01*
G01X1393290Y1345210D01*
Y1345890D01*
X1401880D01*
G02X1402250Y1345640I1J-398D01*
G01X1403320Y1343040D01*
X1402730Y1342800D01*
X1401680Y1343950D01*
G03X1401390Y1344080I-294J-268D01*
G01X1396640D01*
Y1341030D01*
X1400720D01*
G03X1401000Y1341140I7J394D01*
G01X1401400Y1341520D01*
G37*
G36*
G01X1355920Y1351750D02*
X1354920Y1355420D01*
X1355380Y1355530D01*
X1355580Y1355270D01*
X1355770Y1355010D01*
X1355970Y1354760D01*
X1356180Y1354510D01*
X1356390Y1354280D01*
X1356610Y1354070D01*
X1356840Y1353880D01*
X1357090Y1353710D01*
X1357360Y1353560D01*
X1357630Y1353450D01*
X1357920Y1353360D01*
X1358220Y1353280D01*
X1358590Y1353200D01*
X1358850Y1353150D01*
X1359160Y1353090D01*
X1359480Y1353050D01*
X1359800Y1353020D01*
X1360110Y1353000D01*
X1360420Y1353020D01*
X1360730Y1353060D01*
X1361030Y1353140D01*
X1361340Y1353270D01*
X1361600Y1353410D01*
X1361850Y1353620D01*
X1362060Y1353850D01*
X1362250Y1354240D01*
X1362280Y1354420D01*
Y1354740D01*
X1362200Y1355050D01*
X1362060Y1355350D01*
X1361800Y1355690D01*
X1361640Y1355840D01*
X1361380Y1356010D01*
X1361100Y1356140D01*
X1360800Y1356240D01*
X1360370Y1356340D01*
X1360180Y1356380D01*
X1359880Y1356430D01*
X1359570Y1356480D01*
X1359270Y1356530D01*
X1358970Y1356570D01*
X1358660Y1356610D01*
X1358360Y1356660D01*
X1358060Y1356720D01*
X1357750Y1356780D01*
X1357560Y1356830D01*
X1357140Y1356940D01*
X1356830Y1357050D01*
X1356540Y1357180D01*
X1356270Y1357330D01*
X1356020Y1357500D01*
X1355810Y1357700D01*
X1355610Y1357940D01*
X1355460Y1358200D01*
X1355330Y1358490D01*
X1355240Y1358790D01*
X1355160Y1359100D01*
X1355120Y1359420D01*
X1355090Y1359900D01*
Y1360080D01*
X1355110Y1360410D01*
X1355150Y1360730D01*
X1355220Y1361040D01*
X1355300Y1361340D01*
X1355420Y1361630D01*
X1355560Y1361900D01*
X1355740Y1362170D01*
X1355930Y1362380D01*
X1356150Y1362590D01*
X1356400Y1362770D01*
X1356670Y1362940D01*
X1356950Y1363080D01*
X1357240Y1363210D01*
X1357680Y1363360D01*
X1357850Y1363410D01*
X1358150Y1363490D01*
X1358450Y1363540D01*
X1358760Y1363590D01*
X1359070Y1363610D01*
X1359370Y1363620D01*
X1359690D01*
X1360000Y1363600D01*
X1360310Y1363560D01*
X1360620Y1363500D01*
X1360910Y1363420D01*
X1361150Y1363330D01*
X1361480Y1363180D01*
X1361760Y1363030D01*
X1362020Y1362880D01*
Y1363640D01*
X1362890D01*
X1363670Y1360280D01*
X1363380Y1360000D01*
X1363150Y1360180D01*
X1362910Y1360370D01*
X1362670Y1360550D01*
X1362420Y1360720D01*
X1362170Y1360880D01*
X1361890Y1361040D01*
X1361640Y1361160D01*
X1361360Y1361280D01*
X1361080Y1361380D01*
X1360790Y1361460D01*
X1360490Y1361540D01*
X1360200Y1361590D01*
X1360020Y1361620D01*
X1359610Y1361650D01*
X1359310Y1361660D01*
X1359010Y1361650D01*
X1358750Y1361620D01*
X1358400Y1361550D01*
X1358100Y1361450D01*
X1357850Y1361290D01*
X1357720Y1361160D01*
X1357510Y1360780D01*
X1357440Y1360470D01*
X1357450Y1360150D01*
X1357520Y1359900D01*
X1357710Y1359640D01*
X1357940Y1359450D01*
X1358220Y1359310D01*
X1358530Y1359200D01*
X1358820Y1359120D01*
X1359150Y1359050D01*
X1359460Y1359000D01*
X1359750Y1358960D01*
X1360040Y1358920D01*
X1360330Y1358880D01*
X1360630Y1358830D01*
X1360910Y1358780D01*
X1361200Y1358720D01*
X1361490Y1358640D01*
X1361780Y1358560D01*
X1362060Y1358480D01*
X1362360Y1358370D01*
X1362650Y1358270D01*
X1362930Y1358140D01*
X1363190Y1358000D01*
X1363440Y1357840D01*
X1363640Y1357670D01*
X1363870Y1357430D01*
X1364050Y1357180D01*
X1364200Y1356920D01*
X1364330Y1356640D01*
X1364430Y1356350D01*
X1364520Y1356050D01*
X1364570Y1355760D01*
X1364610Y1355460D01*
X1364620Y1355160D01*
X1364610Y1354860D01*
X1364580Y1354560D01*
X1364520Y1354240D01*
X1364450Y1353970D01*
X1364340Y1353680D01*
X1364220Y1353400D01*
X1364080Y1353130D01*
X1363920Y1352870D01*
X1363740Y1352630D01*
X1363510Y1352390D01*
X1363310Y1352210D01*
X1363070Y1352020D01*
X1362810Y1351860D01*
X1362540Y1351720D01*
X1362260Y1351590D01*
X1361960Y1351490D01*
X1361670Y1351400D01*
X1361360Y1351340D01*
X1361060Y1351290D01*
X1360750Y1351270D01*
X1360400Y1351260D01*
X1360140Y1351270D01*
X1359840Y1351300D01*
X1359540Y1351340D01*
X1359250Y1351400D01*
X1358960Y1351470D01*
X1358670Y1351560D01*
X1358390Y1351650D01*
X1358100Y1351750D01*
X1357820Y1351860D01*
X1357540Y1351970D01*
X1357250Y1352080D01*
X1356970Y1352200D01*
Y1351750D01*
X1355920D01*
G37*
G36*
G01X1423470Y1334760D02*
Y1334020D01*
X1419410D01*
Y1334760D01*
X1419860D01*
G03X1420250Y1335140I2J388D01*
G01Y1344180D01*
G03X1419860Y1344570I-389J1D01*
G01X1417550D01*
G03X1417280Y1344460I1J-389D01*
G01X1416240Y1343430D01*
X1416620Y1345850D01*
X1426260D01*
X1426640Y1343430D01*
X1425600Y1344460D01*
G03X1425320Y1344570I-271J-280D01*
G01X1423020D01*
G03X1422630Y1344180I-2J-388D01*
G01Y1335140D01*
G03X1423020Y1334760I387J7D01*
G01X1423470D01*
G37*
G36*
G01X1403770Y1334920D02*
X1404520D01*
G03X1404920Y1335320I4J396D01*
G01Y1344620D01*
G03X1404520Y1345010I-395J-5D01*
G01X1403720D01*
Y1345890D01*
X1407370D01*
G02X1407670Y1345750I-2J-396D01*
G01X1413340Y1339180D01*
Y1344540D01*
G03X1412950Y1344930I-394J-4D01*
G01X1411980D01*
Y1345890D01*
X1415970D01*
Y1344930D01*
X1415130D01*
G03X1414730Y1344540I-4J-396D01*
G01Y1334020D01*
X1414120D01*
G02X1413820Y1334150I-8J394D01*
G01X1406950Y1342100D01*
Y1335320D01*
G03X1407350Y1334920I397J-3D01*
G01X1407940D01*
Y1334020D01*
X1403770D01*
Y1334920D01*
G37*
G36*
G01X1428150Y1334200D02*
X1427160Y1337860D01*
X1427620Y1337980D01*
X1427810Y1337710D01*
X1428000Y1337450D01*
X1428200Y1337200D01*
X1428410Y1336960D01*
X1428620Y1336730D01*
X1428840Y1336520D01*
X1429070Y1336320D01*
X1429320Y1336150D01*
X1429590Y1336000D01*
X1429860Y1335890D01*
X1430150Y1335800D01*
X1430460Y1335720D01*
X1430820Y1335650D01*
X1431080Y1335600D01*
X1431400Y1335540D01*
X1431710Y1335490D01*
X1432030Y1335460D01*
X1432340Y1335450D01*
X1432650Y1335460D01*
X1432960Y1335500D01*
X1433260Y1335580D01*
X1433580Y1335710D01*
X1433830Y1335860D01*
X1434080Y1336060D01*
X1434300Y1336300D01*
X1434480Y1336680D01*
X1434520Y1336870D01*
X1434510Y1337180D01*
X1434430Y1337500D01*
X1434290Y1337800D01*
X1434030Y1338140D01*
X1433870Y1338280D01*
X1433610Y1338450D01*
X1433330Y1338580D01*
X1433030Y1338680D01*
X1432600Y1338790D01*
X1432420Y1338820D01*
X1432110Y1338880D01*
X1431810Y1338930D01*
X1431500Y1338970D01*
X1431200Y1339010D01*
X1430900Y1339060D01*
X1430590Y1339110D01*
X1430290Y1339160D01*
X1429980Y1339220D01*
X1429790Y1339270D01*
X1429370Y1339390D01*
X1429070Y1339500D01*
X1428780Y1339620D01*
X1428500Y1339770D01*
X1428250Y1339950D01*
X1428040Y1340150D01*
X1427840Y1340390D01*
X1427690Y1340650D01*
X1427560Y1340930D01*
X1427470Y1341230D01*
X1427400Y1341550D01*
X1427350Y1341870D01*
X1427330Y1342350D01*
Y1342530D01*
X1427340Y1342850D01*
X1427380Y1343170D01*
X1427450Y1343490D01*
X1427540Y1343790D01*
X1427650Y1344070D01*
X1427790Y1344340D01*
X1427970Y1344610D01*
X1428160Y1344820D01*
X1428390Y1345030D01*
X1428640Y1345220D01*
X1428900Y1345380D01*
X1429180Y1345530D01*
X1429480Y1345660D01*
X1429920Y1345810D01*
X1430080Y1345860D01*
X1430380Y1345930D01*
X1430690Y1345990D01*
X1430990Y1346030D01*
X1431300Y1346060D01*
X1431600Y1346070D01*
X1431920Y1346060D01*
X1432230Y1346040D01*
X1432540Y1346010D01*
X1432850Y1345940D01*
X1433150Y1345860D01*
X1433380Y1345780D01*
X1433710Y1345630D01*
X1433990Y1345480D01*
X1434260Y1345320D01*
Y1346080D01*
X1435130D01*
X1435900Y1342730D01*
X1435620Y1342440D01*
X1435380Y1342630D01*
X1435140Y1342810D01*
X1434900Y1342990D01*
X1434650Y1343160D01*
X1434400Y1343320D01*
X1434130Y1343480D01*
X1433870Y1343600D01*
X1433590Y1343720D01*
X1433310Y1343820D01*
X1433020Y1343910D01*
X1432730Y1343980D01*
X1432430Y1344040D01*
X1432250Y1344060D01*
X1431840Y1344100D01*
X1431540D01*
X1431240Y1344090D01*
X1430980Y1344060D01*
X1430630Y1343990D01*
X1430340Y1343890D01*
X1430080Y1343740D01*
X1429950Y1343610D01*
X1429740Y1343230D01*
X1429670Y1342910D01*
X1429680Y1342600D01*
X1429760Y1342350D01*
X1429940Y1342080D01*
X1430180Y1341900D01*
X1430460Y1341750D01*
X1430760Y1341650D01*
X1431050Y1341570D01*
X1431390Y1341500D01*
X1431690Y1341450D01*
X1431980Y1341400D01*
X1432280Y1341370D01*
X1432560Y1341330D01*
X1432860Y1341280D01*
X1433140Y1341230D01*
X1433430Y1341160D01*
X1433720Y1341090D01*
X1434010Y1341010D01*
X1434290Y1340920D01*
X1434600Y1340820D01*
X1434880Y1340710D01*
X1435160Y1340590D01*
X1435430Y1340440D01*
X1435670Y1340280D01*
X1435880Y1340110D01*
X1436100Y1339870D01*
X1436280Y1339630D01*
X1436430Y1339370D01*
X1436560Y1339090D01*
X1436670Y1338800D01*
X1436750Y1338500D01*
X1436810Y1338200D01*
X1436840Y1337900D01*
X1436850Y1337600D01*
X1436840Y1337300D01*
X1436810Y1337000D01*
X1436750Y1336680D01*
X1436680Y1336410D01*
X1436580Y1336120D01*
X1436460Y1335840D01*
X1436310Y1335580D01*
X1436150Y1335320D01*
X1435970Y1335080D01*
X1435750Y1334840D01*
X1435540Y1334650D01*
X1435300Y1334470D01*
X1435040Y1334300D01*
X1434770Y1334160D01*
X1434490Y1334040D01*
X1434200Y1333930D01*
X1433900Y1333850D01*
X1433600Y1333780D01*
X1433290Y1333740D01*
X1432980Y1333710D01*
X1432640Y1333700D01*
X1432370Y1333720D01*
X1432070Y1333740D01*
X1431780Y1333790D01*
X1431480Y1333850D01*
X1431190Y1333920D01*
X1430900Y1334000D01*
X1430620Y1334090D01*
X1430330Y1334190D01*
X1430050Y1334300D01*
X1429770Y1334410D01*
X1429490Y1334530D01*
X1429200Y1334640D01*
Y1334200D01*
X1428150D01*
G37*
G36*
G01X1423470Y1334760D02*
Y1334020D01*
X1419410D01*
Y1334760D01*
X1419860D01*
G03X1420250Y1335140I2J388D01*
G01Y1344180D01*
G03X1419860Y1344570I-389J1D01*
G01X1417550D01*
G03X1417280Y1344460I1J-389D01*
G01X1416240Y1343430D01*
X1416620Y1345850D01*
X1426260D01*
X1426640Y1343430D01*
X1425600Y1344460D01*
G03X1425320Y1344570I-271J-280D01*
G01X1423020D01*
G03X1422630Y1344180I-2J-388D01*
G01Y1335140D01*
G03X1423020Y1334760I387J7D01*
G01X1423470D01*
G37*
G36*
G01X1403770Y1334920D02*
X1404520D01*
G03X1404920Y1335320I4J396D01*
G01Y1344620D01*
G03X1404520Y1345010I-395J-5D01*
G01X1403720D01*
Y1345890D01*
X1407370D01*
G02X1407670Y1345750I-2J-396D01*
G01X1413340Y1339180D01*
Y1344540D01*
G03X1412950Y1344930I-394J-4D01*
G01X1411980D01*
Y1345890D01*
X1415970D01*
Y1344930D01*
X1415130D01*
G03X1414730Y1344540I-4J-396D01*
G01Y1334020D01*
X1414120D01*
G02X1413820Y1334150I-8J394D01*
G01X1406950Y1342100D01*
Y1335320D01*
G03X1407350Y1334920I397J-3D01*
G01X1407940D01*
Y1334020D01*
X1403770D01*
Y1334920D01*
G37*
G36*
G01X1428150Y1334200D02*
X1427160Y1337860D01*
X1427620Y1337980D01*
X1427810Y1337710D01*
X1428000Y1337450D01*
X1428200Y1337200D01*
X1428410Y1336960D01*
X1428620Y1336730D01*
X1428840Y1336520D01*
X1429070Y1336320D01*
X1429320Y1336150D01*
X1429590Y1336000D01*
X1429860Y1335890D01*
X1430150Y1335800D01*
X1430460Y1335720D01*
X1430820Y1335650D01*
X1431080Y1335600D01*
X1431400Y1335540D01*
X1431710Y1335490D01*
X1432030Y1335460D01*
X1432340Y1335450D01*
X1432650Y1335460D01*
X1432960Y1335500D01*
X1433260Y1335580D01*
X1433580Y1335710D01*
X1433830Y1335860D01*
X1434080Y1336060D01*
X1434300Y1336300D01*
X1434480Y1336680D01*
X1434520Y1336870D01*
X1434510Y1337180D01*
X1434430Y1337500D01*
X1434290Y1337800D01*
X1434030Y1338140D01*
X1433870Y1338280D01*
X1433610Y1338450D01*
X1433330Y1338580D01*
X1433030Y1338680D01*
X1432600Y1338790D01*
X1432420Y1338820D01*
X1432110Y1338880D01*
X1431810Y1338930D01*
X1431500Y1338970D01*
X1431200Y1339010D01*
X1430900Y1339060D01*
X1430590Y1339110D01*
X1430290Y1339160D01*
X1429980Y1339220D01*
X1429790Y1339270D01*
X1429370Y1339390D01*
X1429070Y1339500D01*
X1428780Y1339620D01*
X1428500Y1339770D01*
X1428250Y1339950D01*
X1428040Y1340150D01*
X1427840Y1340390D01*
X1427690Y1340650D01*
X1427560Y1340930D01*
X1427470Y1341230D01*
X1427400Y1341550D01*
X1427350Y1341870D01*
X1427330Y1342350D01*
Y1342530D01*
X1427340Y1342850D01*
X1427380Y1343170D01*
X1427450Y1343490D01*
X1427540Y1343790D01*
X1427650Y1344070D01*
X1427790Y1344340D01*
X1427970Y1344610D01*
X1428160Y1344820D01*
X1428390Y1345030D01*
X1428640Y1345220D01*
X1428900Y1345380D01*
X1429180Y1345530D01*
X1429480Y1345660D01*
X1429920Y1345810D01*
X1430080Y1345860D01*
X1430380Y1345930D01*
X1430690Y1345990D01*
X1430990Y1346030D01*
X1431300Y1346060D01*
X1431600Y1346070D01*
X1431920Y1346060D01*
X1432230Y1346040D01*
X1432540Y1346010D01*
X1432850Y1345940D01*
X1433150Y1345860D01*
X1433380Y1345780D01*
X1433710Y1345630D01*
X1433990Y1345480D01*
X1434260Y1345320D01*
Y1346080D01*
X1435130D01*
X1435900Y1342730D01*
X1435620Y1342440D01*
X1435380Y1342630D01*
X1435140Y1342810D01*
X1434900Y1342990D01*
X1434650Y1343160D01*
X1434400Y1343320D01*
X1434130Y1343480D01*
X1433870Y1343600D01*
X1433590Y1343720D01*
X1433310Y1343820D01*
X1433020Y1343910D01*
X1432730Y1343980D01*
X1432430Y1344040D01*
X1432250Y1344060D01*
X1431840Y1344100D01*
X1431540D01*
X1431240Y1344090D01*
X1430980Y1344060D01*
X1430630Y1343990D01*
X1430340Y1343890D01*
X1430080Y1343740D01*
X1429950Y1343610D01*
X1429740Y1343230D01*
X1429670Y1342910D01*
X1429680Y1342600D01*
X1429760Y1342350D01*
X1429940Y1342080D01*
X1430180Y1341900D01*
X1430460Y1341750D01*
X1430760Y1341650D01*
X1431050Y1341570D01*
X1431390Y1341500D01*
X1431690Y1341450D01*
X1431980Y1341400D01*
X1432280Y1341370D01*
X1432560Y1341330D01*
X1432860Y1341280D01*
X1433140Y1341230D01*
X1433430Y1341160D01*
X1433720Y1341090D01*
X1434010Y1341010D01*
X1434290Y1340920D01*
X1434600Y1340820D01*
X1434880Y1340710D01*
X1435160Y1340590D01*
X1435430Y1340440D01*
X1435670Y1340280D01*
X1435880Y1340110D01*
X1436100Y1339870D01*
X1436280Y1339630D01*
X1436430Y1339370D01*
X1436560Y1339090D01*
X1436670Y1338800D01*
X1436750Y1338500D01*
X1436810Y1338200D01*
X1436840Y1337900D01*
X1436850Y1337600D01*
X1436840Y1337300D01*
X1436810Y1337000D01*
X1436750Y1336680D01*
X1436680Y1336410D01*
X1436580Y1336120D01*
X1436460Y1335840D01*
X1436310Y1335580D01*
X1436150Y1335320D01*
X1435970Y1335080D01*
X1435750Y1334840D01*
X1435540Y1334650D01*
X1435300Y1334470D01*
X1435040Y1334300D01*
X1434770Y1334160D01*
X1434490Y1334040D01*
X1434200Y1333930D01*
X1433900Y1333850D01*
X1433600Y1333780D01*
X1433290Y1333740D01*
X1432980Y1333710D01*
X1432640Y1333700D01*
X1432370Y1333720D01*
X1432070Y1333740D01*
X1431780Y1333790D01*
X1431480Y1333850D01*
X1431190Y1333920D01*
X1430900Y1334000D01*
X1430620Y1334090D01*
X1430330Y1334190D01*
X1430050Y1334300D01*
X1429770Y1334410D01*
X1429490Y1334530D01*
X1429200Y1334640D01*
Y1334200D01*
X1428150D01*
G37*
G54D10*
G01X1155000Y957000D02*
X1154500D01*
Y1004000D01*
X1155000D01*
G01X1163500Y1266000D02*
Y1234000D01*
G01X1222500Y957000D02*
X1223000D01*
Y1003500D01*
X1222500Y1004000D01*
G01X1227000Y1039750D02*
X1217000D01*
Y1042870D01*
X1217500Y1043870D01*
X1218170Y1044500D01*
X1219500Y1044750D01*
X1220830Y1044500D01*
X1221670Y1043750D01*
X1222170Y1042870D01*
Y1039750D01*
G01Y1042870D02*
X1227000Y1044750D01*
G01Y1050750D02*
X1217000D01*
X1219000Y1049250D01*
G01X1227000D02*
Y1052250D01*
G01X1225500Y1056500D02*
X1226330Y1057250D01*
X1226830Y1058120D01*
X1227000Y1059250D01*
X1226670Y1060380D01*
X1226000Y1061250D01*
X1224830Y1061880D01*
X1223500Y1062000D01*
X1222170Y1061750D01*
X1221330Y1061120D01*
X1220670Y1060250D01*
X1220500Y1059380D01*
X1220670Y1058500D01*
X1221330Y1057380D01*
X1217000Y1057750D01*
Y1061120D01*
G01X1199000Y1039750D02*
X1189000D01*
Y1042870D01*
X1189500Y1043870D01*
X1190170Y1044500D01*
X1191500Y1044750D01*
X1192830Y1044500D01*
X1193670Y1043750D01*
X1194170Y1042870D01*
Y1039750D01*
G01Y1042870D02*
X1199000Y1044750D01*
G01Y1050750D02*
X1189000D01*
X1191000Y1049250D01*
G01X1199000D02*
Y1052250D01*
G01Y1059000D02*
X1196830Y1059250D01*
X1195000Y1059630D01*
X1193330Y1060120D01*
X1191500Y1060750D01*
X1189000Y1061750D01*
Y1056750D01*
G01X1212000Y1039750D02*
X1202000D01*
Y1042870D01*
X1202500Y1043870D01*
X1203170Y1044500D01*
X1204500Y1044750D01*
X1205830Y1044500D01*
X1206670Y1043750D01*
X1207170Y1042870D01*
Y1039750D01*
G01Y1042870D02*
X1212000Y1044750D01*
G01Y1050750D02*
X1202000D01*
X1204000Y1049250D01*
G01X1212000D02*
Y1052250D01*
G01Y1059250D02*
X1211830Y1060120D01*
X1211330Y1061120D01*
X1210500Y1061750D01*
X1209330Y1062000D01*
X1208170Y1061750D01*
X1207170Y1061000D01*
X1206670Y1059870D01*
Y1058630D01*
X1206330Y1057870D01*
X1205500Y1057250D01*
X1204330Y1057000D01*
X1203170Y1057380D01*
X1202330Y1058250D01*
X1202000Y1059250D01*
X1202330Y1060250D01*
X1203170Y1061120D01*
X1204330Y1061500D01*
X1205500Y1061250D01*
X1206330Y1060630D01*
X1206670Y1059870D01*
Y1058630D01*
X1207170Y1057500D01*
X1208170Y1056750D01*
X1209330Y1056500D01*
X1210500Y1056750D01*
X1211330Y1057380D01*
X1211830Y1058380D01*
X1212000Y1059250D01*
G01X1216000Y1213500D02*
X1184000D01*
G01Y1286500D02*
X1216000D01*
G01X1233000Y957000D02*
X1232500D01*
Y1004000D01*
X1233000D01*
G01X1249000Y1041250D02*
X1239000D01*
Y1044370D01*
X1239500Y1045370D01*
X1240170Y1046000D01*
X1241500Y1046250D01*
X1242830Y1046000D01*
X1243670Y1045250D01*
X1244170Y1044370D01*
Y1041250D01*
G01Y1044370D02*
X1249000Y1046250D01*
G01Y1052250D02*
X1239000D01*
X1241000Y1050750D01*
G01X1249000D02*
Y1053750D01*
G01X1244830Y1058370D02*
X1243670Y1059250D01*
X1243000Y1060000D01*
X1242670Y1061000D01*
X1243000Y1061880D01*
X1243670Y1062500D01*
X1244670Y1063000D01*
X1245830Y1063130D01*
X1246830Y1063000D01*
X1247830Y1062500D01*
X1248670Y1061750D01*
X1249000Y1060880D01*
X1248670Y1059880D01*
X1247670Y1059000D01*
X1246170Y1058500D01*
X1244500Y1058370D01*
X1242330Y1058620D01*
X1241170Y1059000D01*
X1240000Y1059620D01*
X1239170Y1060500D01*
X1239000Y1061370D01*
X1239330Y1062250D01*
X1240170Y1062880D01*
G01X1225500Y1138000D02*
Y1142000D01*
X1229500D01*
G01Y1099000D02*
X1225500D01*
Y1103000D01*
G01X1268500D02*
Y1099000D01*
X1264500D01*
G01X1268500Y1138000D02*
Y1141000D01*
X1267000Y1142500D01*
X1264500D01*
G01X1236500Y1266000D02*
Y1234000D01*
G01X1300500Y957000D02*
X1301000D01*
Y1003500D01*
X1300500Y1004000D01*
G01X1269250Y1292600D02*
Y1302600D01*
X1272370D01*
X1273370Y1302100D01*
X1274000Y1301430D01*
X1274250Y1300100D01*
X1274000Y1298770D01*
X1273250Y1297930D01*
X1272370Y1297430D01*
X1269250D01*
G01X1272370D02*
X1274250Y1292600D01*
G01X1278380Y1297100D02*
X1282380D01*
X1282000Y1298270D01*
X1281380Y1298930D01*
X1280500Y1299270D01*
X1279630Y1299100D01*
X1278870Y1298600D01*
X1278380Y1297430D01*
X1278120Y1296430D01*
Y1295430D01*
X1278380Y1294430D01*
X1279000Y1293430D01*
X1279750Y1292770D01*
X1280630Y1292600D01*
X1281500Y1292930D01*
X1282380Y1293930D01*
G01X1286500Y1299270D02*
X1288750Y1292600D01*
X1291000Y1299270D01*
G01X1297250Y1292270D02*
X1297000Y1292430D01*
Y1292770D01*
X1297250Y1292930D01*
X1297500Y1292770D01*
Y1292430D01*
X1297250Y1292270D01*
G01Y1296770D02*
X1297000Y1296930D01*
Y1297270D01*
X1297250Y1297430D01*
X1297500Y1297270D01*
Y1296930D01*
X1297250Y1296770D01*
G01X1430870Y1300930D02*
X1431630Y1301930D01*
X1432500Y1302430D01*
X1433500Y1302600D01*
X1434750Y1302270D01*
X1435630Y1301430D01*
X1435880Y1300430D01*
X1435750Y1299430D01*
X1435250Y1298600D01*
X1432750Y1296930D01*
X1431630Y1295770D01*
X1430870Y1294100D01*
X1430620Y1292600D01*
X1435880D01*
G01X1441750Y1292270D02*
X1441500Y1292430D01*
Y1292770D01*
X1441750Y1292930D01*
X1442000Y1292770D01*
Y1292430D01*
X1441750Y1292270D01*
G01X1450250Y1302600D02*
X1449250Y1302270D01*
X1448500Y1301430D01*
X1448000Y1300430D01*
X1447620Y1299100D01*
X1447500Y1297600D01*
X1447620Y1296100D01*
X1448000Y1294770D01*
X1448500Y1293770D01*
X1449250Y1292930D01*
X1450250Y1292600D01*
X1451250Y1292930D01*
X1452000Y1293770D01*
X1452500Y1294770D01*
X1452880Y1296100D01*
X1453000Y1297600D01*
X1452880Y1299100D01*
X1452500Y1300430D01*
X1452000Y1301430D01*
X1451250Y1302270D01*
X1450250Y1302600D01*
G01X1268500Y1313000D02*
Y1323000D01*
X1271750Y1314670D01*
X1275000Y1323000D01*
Y1313000D01*
G01X1280250D02*
X1279500Y1313170D01*
X1278750Y1313830D01*
X1278250Y1315000D01*
X1278000Y1316330D01*
X1278250Y1317670D01*
X1278750Y1318830D01*
X1279500Y1319500D01*
X1280250Y1319670D01*
X1281000Y1319500D01*
X1281750Y1318830D01*
X1282250Y1317670D01*
X1282380Y1316330D01*
X1282250Y1315000D01*
X1281750Y1313830D01*
X1281000Y1313170D01*
X1280250Y1313000D01*
G01X1291000Y1323000D02*
Y1313000D01*
G01Y1314500D02*
X1290500Y1313670D01*
X1289750Y1313170D01*
X1288880Y1313000D01*
X1287880Y1313330D01*
X1287130Y1314170D01*
X1286620Y1315170D01*
X1286500Y1316330D01*
X1286620Y1317500D01*
X1287130Y1318500D01*
X1287880Y1319330D01*
X1288880Y1319670D01*
X1289750Y1319500D01*
X1290370Y1319170D01*
X1291000Y1318500D01*
G01X1295380Y1317500D02*
X1299380D01*
X1299000Y1318670D01*
X1298380Y1319330D01*
X1297500Y1319670D01*
X1296630Y1319500D01*
X1295870Y1319000D01*
X1295380Y1317830D01*
X1295120Y1316830D01*
Y1315830D01*
X1295380Y1314830D01*
X1296000Y1313830D01*
X1296750Y1313170D01*
X1297630Y1313000D01*
X1298500Y1313330D01*
X1299380Y1314330D01*
G01X1305750Y1313000D02*
Y1323000D01*
G01X1314250Y1312670D02*
X1314000Y1312830D01*
Y1313170D01*
X1314250Y1313330D01*
X1314500Y1313170D01*
Y1312830D01*
X1314250Y1312670D01*
G01Y1317170D02*
X1314000Y1317330D01*
Y1317670D01*
X1314250Y1317830D01*
X1314500Y1317670D01*
Y1317330D01*
X1314250Y1317170D01*
G01X1334000Y1322170D02*
X1333250Y1322670D01*
X1332380Y1323000D01*
X1331380D01*
X1330250Y1322500D01*
X1329380Y1321670D01*
X1328750Y1320670D01*
X1328250Y1319000D01*
X1328120Y1317500D01*
X1328380Y1316000D01*
X1328750Y1315000D01*
X1329500Y1314000D01*
X1330380Y1313330D01*
X1331250Y1313000D01*
X1332120D01*
X1333000Y1313330D01*
X1333750Y1313830D01*
X1334380Y1314500D01*
G01X1342500Y1322170D02*
X1341750Y1322670D01*
X1340880Y1323000D01*
X1339880D01*
X1338750Y1322500D01*
X1337880Y1321670D01*
X1337250Y1320670D01*
X1336750Y1319000D01*
X1336620Y1317500D01*
X1336880Y1316000D01*
X1337250Y1315000D01*
X1338000Y1314000D01*
X1338880Y1313330D01*
X1339750Y1313000D01*
X1340620D01*
X1341500Y1313330D01*
X1342250Y1313830D01*
X1342880Y1314500D01*
G01X1345870Y1321330D02*
X1346630Y1322330D01*
X1347500Y1322830D01*
X1348500Y1323000D01*
X1349750Y1322670D01*
X1350630Y1321830D01*
X1350880Y1320830D01*
X1350750Y1319830D01*
X1350250Y1319000D01*
X1347750Y1317330D01*
X1346630Y1316170D01*
X1345870Y1314500D01*
X1345620Y1313000D01*
X1350880D01*
G01X1354370Y1317170D02*
X1355250Y1318330D01*
X1356000Y1319000D01*
X1357000Y1319330D01*
X1357880Y1319000D01*
X1358500Y1318330D01*
X1359000Y1317330D01*
X1359130Y1316170D01*
X1359000Y1315170D01*
X1358500Y1314170D01*
X1357750Y1313330D01*
X1356880Y1313000D01*
X1355880Y1313330D01*
X1355000Y1314330D01*
X1354500Y1315830D01*
X1354370Y1317500D01*
X1354620Y1319670D01*
X1355000Y1320830D01*
X1355620Y1322000D01*
X1356500Y1322830D01*
X1357370Y1323000D01*
X1358250Y1322670D01*
X1358880Y1321830D01*
G01X1362500Y1314500D02*
X1363250Y1313670D01*
X1364120Y1313170D01*
X1365250Y1313000D01*
X1366380Y1313330D01*
X1367250Y1314000D01*
X1367880Y1315170D01*
X1368000Y1316500D01*
X1367750Y1317830D01*
X1367120Y1318670D01*
X1366250Y1319330D01*
X1365380Y1319500D01*
X1364500Y1319330D01*
X1363380Y1318670D01*
X1363750Y1323000D01*
X1367120D01*
G01X1373750D02*
X1372750Y1322670D01*
X1372000Y1321830D01*
X1371500Y1320830D01*
X1371120Y1319500D01*
X1371000Y1318000D01*
X1371120Y1316500D01*
X1371500Y1315170D01*
X1372000Y1314170D01*
X1372750Y1313330D01*
X1373750Y1313000D01*
X1374750Y1313330D01*
X1375500Y1314170D01*
X1376000Y1315170D01*
X1376380Y1316500D01*
X1376500Y1318000D01*
X1376380Y1319500D01*
X1376000Y1320830D01*
X1375500Y1321830D01*
X1374750Y1322670D01*
X1373750Y1323000D01*
G01X1384750Y1313000D02*
X1379750D01*
Y1323000D01*
X1384750D01*
G01X1382750Y1318170D02*
X1379750D01*
G01X1387500Y1313000D02*
Y1323000D01*
X1390750Y1314670D01*
X1394000Y1323000D01*
Y1313000D01*
G01X1397630Y1316330D02*
X1400870D01*
G01X1409250Y1313000D02*
Y1323000D01*
X1404620Y1315830D01*
X1410880D01*
G01X1413620Y1313000D02*
X1418880Y1323000D01*
G01X1413620D02*
X1418880Y1313000D01*
G01X1422120Y1314330D02*
X1423130Y1313500D01*
X1424250Y1313000D01*
X1425250D01*
X1426250Y1313500D01*
X1427000Y1314330D01*
X1427380Y1315500D01*
X1427130Y1316670D01*
X1426500Y1317670D01*
X1425370Y1318330D01*
X1423880Y1318670D01*
X1423000Y1319330D01*
X1422620Y1320500D01*
X1422880Y1321670D01*
X1423500Y1322500D01*
X1424370Y1323000D01*
X1425250D01*
X1426130Y1322670D01*
X1426880Y1321830D01*
G01X1431630Y1316330D02*
X1434870D01*
G01X1444250Y1313000D02*
X1439250D01*
Y1323000D01*
X1444250D01*
G01X1442250Y1318170D02*
X1439250D01*
G01X1447750Y1313000D02*
Y1323000D01*
X1450870D01*
X1451870Y1322500D01*
X1452500Y1321830D01*
X1452750Y1320500D01*
X1452500Y1319170D01*
X1451750Y1318330D01*
X1450870Y1317830D01*
X1447750D01*
G01X1450870D02*
X1452750Y1313000D01*
G01X1370500Y970000D02*
Y964500D01*
X1321500D01*
X1316000Y970000D01*
G01Y1013500D02*
Y1019000D01*
X1370500D01*
Y1013500D01*
G01X1362000Y1054000D02*
X1368000D01*
X1370000Y1052000D01*
Y1021000D01*
X1337000D01*
Y1054000D01*
X1362000D01*
G01X1325750Y1113000D02*
Y1123000D01*
X1324250Y1121000D01*
G01Y1113000D02*
X1327250D01*
G01X1334250Y1112670D02*
X1334000Y1112830D01*
Y1113170D01*
X1334250Y1113330D01*
X1334500Y1113170D01*
Y1112830D01*
X1334250Y1112670D01*
G01X1340370Y1121330D02*
X1341130Y1122330D01*
X1342000Y1122830D01*
X1343000Y1123000D01*
X1344250Y1122670D01*
X1345130Y1121830D01*
X1345380Y1120830D01*
X1345250Y1119830D01*
X1344750Y1119000D01*
X1342250Y1117330D01*
X1341130Y1116170D01*
X1340370Y1114500D01*
X1340120Y1113000D01*
X1345380D01*
G01X1361750Y1118830D02*
X1360880Y1119500D01*
X1360130Y1119670D01*
X1359130Y1119330D01*
X1358370Y1118670D01*
X1357880Y1117500D01*
X1357750Y1116330D01*
X1357880Y1115170D01*
X1358370Y1114170D01*
X1359130Y1113330D01*
X1360130Y1113000D01*
X1361000Y1113330D01*
X1361750Y1114000D01*
G01X1364500Y1113000D02*
Y1119670D01*
G01Y1117830D02*
X1364870Y1118670D01*
X1365500Y1119330D01*
X1366380Y1119670D01*
X1367250Y1119330D01*
X1367870Y1118670D01*
X1368250Y1117830D01*
Y1113000D01*
G01Y1117830D02*
X1368630Y1118670D01*
X1369250Y1119330D01*
X1370120Y1119670D01*
X1371000Y1119330D01*
X1371630Y1118670D01*
X1372000Y1117670D01*
Y1113000D01*
G01X1374370Y1121330D02*
X1375130Y1122330D01*
X1376000Y1122830D01*
X1377000Y1123000D01*
X1378250Y1122670D01*
X1379130Y1121830D01*
X1379380Y1120830D01*
X1379250Y1119830D01*
X1378750Y1119000D01*
X1376250Y1117330D01*
X1375130Y1116170D01*
X1374370Y1114500D01*
X1374120Y1113000D01*
X1379380D01*
G01X1376750Y960000D02*
Y970000D01*
X1375250Y968000D01*
G01Y960000D02*
X1378250D01*
G01X1385250Y959670D02*
X1385000Y959830D01*
Y960170D01*
X1385250Y960330D01*
X1385500Y960170D01*
Y959830D01*
X1385250Y959670D01*
G01X1393750Y960000D02*
X1394620Y960170D01*
X1395620Y960670D01*
X1396250Y961500D01*
X1396500Y962670D01*
X1396250Y963830D01*
X1395500Y964830D01*
X1394370Y965330D01*
X1393130D01*
X1392370Y965670D01*
X1391750Y966500D01*
X1391500Y967670D01*
X1391880Y968830D01*
X1392750Y969670D01*
X1393750Y970000D01*
X1394750Y969670D01*
X1395620Y968830D01*
X1396000Y967670D01*
X1395750Y966500D01*
X1395130Y965670D01*
X1394370Y965330D01*
X1393130D01*
X1392000Y964830D01*
X1391250Y963830D01*
X1391000Y962670D01*
X1391250Y961500D01*
X1391880Y960670D01*
X1392880Y960170D01*
X1393750Y960000D01*
G01X1399120Y970000D02*
X1402250Y960000D01*
X1405380Y970000D01*
G01X1374370Y1021330D02*
X1375130Y1022330D01*
X1376000Y1022830D01*
X1377000Y1023000D01*
X1378250Y1022670D01*
X1379130Y1021830D01*
X1379380Y1020830D01*
X1379250Y1019830D01*
X1378750Y1019000D01*
X1376250Y1017330D01*
X1375130Y1016170D01*
X1374370Y1014500D01*
X1374120Y1013000D01*
X1379380D01*
G01X1385250Y1012670D02*
X1385000Y1012830D01*
Y1013170D01*
X1385250Y1013330D01*
X1385500Y1013170D01*
Y1012830D01*
X1385250Y1012670D01*
G01X1391370Y1021330D02*
X1392130Y1022330D01*
X1393000Y1022830D01*
X1394000Y1023000D01*
X1395250Y1022670D01*
X1396130Y1021830D01*
X1396380Y1020830D01*
X1396250Y1019830D01*
X1395750Y1019000D01*
X1393250Y1017330D01*
X1392130Y1016170D01*
X1391370Y1014500D01*
X1391120Y1013000D01*
X1396380D01*
G01X1400630Y1016330D02*
X1403870D01*
G01X1408000Y1014500D02*
X1408750Y1013670D01*
X1409620Y1013170D01*
X1410750Y1013000D01*
X1411880Y1013330D01*
X1412750Y1014000D01*
X1413380Y1015170D01*
X1413500Y1016500D01*
X1413250Y1017830D01*
X1412620Y1018670D01*
X1411750Y1019330D01*
X1410880Y1019500D01*
X1410000Y1019330D01*
X1408880Y1018670D01*
X1409250Y1023000D01*
X1412620D01*
G01X1419250Y1012670D02*
X1419000Y1012830D01*
Y1013170D01*
X1419250Y1013330D01*
X1419500Y1013170D01*
Y1012830D01*
X1419250Y1012670D01*
G01X1425000Y1014500D02*
X1425750Y1013670D01*
X1426620Y1013170D01*
X1427750Y1013000D01*
X1428880Y1013330D01*
X1429750Y1014000D01*
X1430380Y1015170D01*
X1430500Y1016500D01*
X1430250Y1017830D01*
X1429620Y1018670D01*
X1428750Y1019330D01*
X1427880Y1019500D01*
X1427000Y1019330D01*
X1425880Y1018670D01*
X1426250Y1023000D01*
X1429620D01*
G01X1433120D02*
X1436250Y1013000D01*
X1439380Y1023000D01*
G01X1393130Y996670D02*
X1391880Y998330D01*
X1391250Y1000000D01*
Y1006670D01*
X1391880Y1008330D01*
X1393130Y1010000D01*
G01X1400750D02*
X1403750D01*
G01X1402250D02*
Y1000000D01*
G01X1400750D02*
X1403750D01*
G01X1408620D02*
Y1006670D01*
G01Y1005000D02*
X1409130Y1005830D01*
X1409880Y1006500D01*
X1410880Y1006670D01*
X1411750Y1006500D01*
X1412500Y1005830D01*
X1412880Y1004670D01*
Y1000000D01*
G01X1417000Y996670D02*
Y1006670D01*
G01Y1005170D02*
X1417630Y1006000D01*
X1418250Y1006500D01*
X1419250Y1006670D01*
X1420120Y1006500D01*
X1421000Y1005670D01*
X1421380Y1004500D01*
X1421500Y1003330D01*
X1421380Y1002170D01*
X1421000Y1001000D01*
X1420250Y1000330D01*
X1419250Y1000000D01*
X1418380Y1000170D01*
X1417500Y1000670D01*
X1417000Y1001330D01*
G01X1427750Y999670D02*
X1427500Y999830D01*
Y1000170D01*
X1427750Y1000330D01*
X1428000Y1000170D01*
Y999830D01*
X1427750Y999670D01*
G01X1433120Y1010000D02*
X1436250Y1000000D01*
X1439380Y1010000D01*
G01X1445370Y996670D02*
X1446620Y998330D01*
X1447250Y1000000D01*
Y1006670D01*
X1446620Y1008330D01*
X1445370Y1010000D01*
G54D11*
G01X1306000Y992000D02*
X1428000D01*
G54D12*
G01X1069000Y937000D02*
X1460000D01*
Y1406000D01*
X1069000D01*
Y937000D01*
G01X1258000Y1202000D02*
X1264000D01*
X1267000Y1199000D01*
Y1190000D01*
X1275000Y1182000D01*
X1315000D01*
X1328000Y1169000D01*
Y1140000D01*
X1265000Y1077000D01*
X1239000D01*
X1198000Y1118000D01*
Y1156000D01*
X1194000Y1160000D01*
Y1181000D01*
X1203000Y1190000D01*
X1252000D01*
X1255000Y1193000D01*
Y1199000D01*
X1258000Y1202000D01*
M02*
