G04 #@! TF.GenerationSoftware,KiCad,Pcbnew,(5.1.5-0-10_14)*
G04 #@! TF.CreationDate,2021-06-06T10:33:05-04:00*
G04 #@! TF.ProjectId,ESLO_USB_POWER,45534c4f-5f55-4534-925f-504f5745522e,rev?*
G04 #@! TF.SameCoordinates,Original*
G04 #@! TF.FileFunction,Legend,Top*
G04 #@! TF.FilePolarity,Positive*
%FSLAX46Y46*%
G04 Gerber Fmt 4.6, Leading zero omitted, Abs format (unit mm)*
G04 Created by KiCad (PCBNEW (5.1.5-0-10_14)) date 2021-06-06 10:33:05*
%MOMM*%
%LPD*%
G04 APERTURE LIST*
%ADD10C,0.150000*%
%ADD11C,0.120000*%
G04 APERTURE END LIST*
D10*
X119023809Y-87952380D02*
X119642857Y-87952380D01*
X119309523Y-88333333D01*
X119452380Y-88333333D01*
X119547619Y-88380952D01*
X119595238Y-88428571D01*
X119642857Y-88523809D01*
X119642857Y-88761904D01*
X119595238Y-88857142D01*
X119547619Y-88904761D01*
X119452380Y-88952380D01*
X119166666Y-88952380D01*
X119071428Y-88904761D01*
X119023809Y-88857142D01*
X120071428Y-88857142D02*
X120119047Y-88904761D01*
X120071428Y-88952380D01*
X120023809Y-88904761D01*
X120071428Y-88857142D01*
X120071428Y-88952380D01*
X120452380Y-87952380D02*
X121071428Y-87952380D01*
X120738095Y-88333333D01*
X120880952Y-88333333D01*
X120976190Y-88380952D01*
X121023809Y-88428571D01*
X121071428Y-88523809D01*
X121071428Y-88761904D01*
X121023809Y-88857142D01*
X120976190Y-88904761D01*
X120880952Y-88952380D01*
X120595238Y-88952380D01*
X120500000Y-88904761D01*
X120452380Y-88857142D01*
X121357142Y-87952380D02*
X121690476Y-88952380D01*
X122023809Y-87952380D01*
D11*
X118950000Y-95450000D02*
X119400000Y-95450000D01*
X118950000Y-95450000D02*
X118950000Y-95000000D01*
X119500000Y-89850000D02*
X119500000Y-90300000D01*
X121350000Y-89850000D02*
X119500000Y-89850000D01*
X123900000Y-97650000D02*
X123650000Y-97650000D01*
X123900000Y-89850000D02*
X123650000Y-89850000D01*
X121350000Y-97650000D02*
X119500000Y-97650000D01*
X119500000Y-97650000D02*
X119500000Y-97200000D01*
X115350000Y-97860000D02*
X117800000Y-97860000D01*
X117150000Y-94640000D02*
X115350000Y-94640000D01*
X112125279Y-94740000D02*
X111799721Y-94740000D01*
X112125279Y-95760000D02*
X111799721Y-95760000D01*
X112125279Y-96740000D02*
X111799721Y-96740000D01*
X112125279Y-97760000D02*
X111799721Y-97760000D01*
D10*
X123666666Y-87952380D02*
X123666666Y-88666666D01*
X123619047Y-88809523D01*
X123523809Y-88904761D01*
X123380952Y-88952380D01*
X123285714Y-88952380D01*
X124666666Y-88952380D02*
X124095238Y-88952380D01*
X124380952Y-88952380D02*
X124380952Y-87952380D01*
X124285714Y-88095238D01*
X124190476Y-88190476D01*
X124095238Y-88238095D01*
X116988095Y-93452380D02*
X116988095Y-94261904D01*
X117035714Y-94357142D01*
X117083333Y-94404761D01*
X117178571Y-94452380D01*
X117369047Y-94452380D01*
X117464285Y-94404761D01*
X117511904Y-94357142D01*
X117559523Y-94261904D01*
X117559523Y-93452380D01*
X118559523Y-94452380D02*
X117988095Y-94452380D01*
X118273809Y-94452380D02*
X118273809Y-93452380D01*
X118178571Y-93595238D01*
X118083333Y-93690476D01*
X117988095Y-93738095D01*
X109833333Y-95607142D02*
X109785714Y-95654761D01*
X109642857Y-95702380D01*
X109547619Y-95702380D01*
X109404761Y-95654761D01*
X109309523Y-95559523D01*
X109261904Y-95464285D01*
X109214285Y-95273809D01*
X109214285Y-95130952D01*
X109261904Y-94940476D01*
X109309523Y-94845238D01*
X109404761Y-94750000D01*
X109547619Y-94702380D01*
X109642857Y-94702380D01*
X109785714Y-94750000D01*
X109833333Y-94797619D01*
X110214285Y-94797619D02*
X110261904Y-94750000D01*
X110357142Y-94702380D01*
X110595238Y-94702380D01*
X110690476Y-94750000D01*
X110738095Y-94797619D01*
X110785714Y-94892857D01*
X110785714Y-94988095D01*
X110738095Y-95130952D01*
X110166666Y-95702380D01*
X110785714Y-95702380D01*
X109833333Y-97607142D02*
X109785714Y-97654761D01*
X109642857Y-97702380D01*
X109547619Y-97702380D01*
X109404761Y-97654761D01*
X109309523Y-97559523D01*
X109261904Y-97464285D01*
X109214285Y-97273809D01*
X109214285Y-97130952D01*
X109261904Y-96940476D01*
X109309523Y-96845238D01*
X109404761Y-96750000D01*
X109547619Y-96702380D01*
X109642857Y-96702380D01*
X109785714Y-96750000D01*
X109833333Y-96797619D01*
X110785714Y-97702380D02*
X110214285Y-97702380D01*
X110500000Y-97702380D02*
X110500000Y-96702380D01*
X110404761Y-96845238D01*
X110309523Y-96940476D01*
X110214285Y-96988095D01*
M02*
