G04 #@! TF.GenerationSoftware,KiCad,Pcbnew,(5.1.5-0-10_14)*
G04 #@! TF.CreationDate,2020-08-20T12:56:15-04:00*
G04 #@! TF.ProjectId,ESLO_PSP,45534c4f-5f50-4535-902e-6b696361645f,rev?*
G04 #@! TF.SameCoordinates,Original*
G04 #@! TF.FileFunction,Soldermask,Top*
G04 #@! TF.FilePolarity,Negative*
%FSLAX46Y46*%
G04 Gerber Fmt 4.6, Leading zero omitted, Abs format (unit mm)*
G04 Created by KiCad (PCBNEW (5.1.5-0-10_14)) date 2020-08-20 12:56:15*
%MOMM*%
%LPD*%
G04 APERTURE LIST*
%ADD10C,2.000000*%
%ADD11O,1.700000X1.700000*%
%ADD12R,1.700000X1.700000*%
%ADD13R,1.000000X1.500000*%
%ADD14C,0.100000*%
%ADD15R,0.750000X0.850000*%
%ADD16R,1.060000X0.650000*%
%ADD17C,2.400000*%
%ADD18R,2.400000X2.400000*%
%ADD19R,2.540000X3.510000*%
%ADD20O,1.727200X2.032000*%
G04 APERTURE END LIST*
D10*
X159512000Y-95504000D03*
X159512000Y-89662000D03*
X159512000Y-84074000D03*
X159512000Y-78486000D03*
D11*
X142494000Y-104140000D03*
D12*
X142494000Y-101600000D03*
D13*
X147574000Y-82804000D03*
X146274000Y-82804000D03*
D14*
G36*
X155505958Y-100010710D02*
G01*
X155520276Y-100012834D01*
X155534317Y-100016351D01*
X155547946Y-100021228D01*
X155561031Y-100027417D01*
X155573447Y-100034858D01*
X155585073Y-100043481D01*
X155595798Y-100053202D01*
X155605519Y-100063927D01*
X155614142Y-100075553D01*
X155621583Y-100087969D01*
X155627772Y-100101054D01*
X155632649Y-100114683D01*
X155636166Y-100128724D01*
X155638290Y-100143042D01*
X155639000Y-100157500D01*
X155639000Y-100502500D01*
X155638290Y-100516958D01*
X155636166Y-100531276D01*
X155632649Y-100545317D01*
X155627772Y-100558946D01*
X155621583Y-100572031D01*
X155614142Y-100584447D01*
X155605519Y-100596073D01*
X155595798Y-100606798D01*
X155585073Y-100616519D01*
X155573447Y-100625142D01*
X155561031Y-100632583D01*
X155547946Y-100638772D01*
X155534317Y-100643649D01*
X155520276Y-100647166D01*
X155505958Y-100649290D01*
X155491500Y-100650000D01*
X155196500Y-100650000D01*
X155182042Y-100649290D01*
X155167724Y-100647166D01*
X155153683Y-100643649D01*
X155140054Y-100638772D01*
X155126969Y-100632583D01*
X155114553Y-100625142D01*
X155102927Y-100616519D01*
X155092202Y-100606798D01*
X155082481Y-100596073D01*
X155073858Y-100584447D01*
X155066417Y-100572031D01*
X155060228Y-100558946D01*
X155055351Y-100545317D01*
X155051834Y-100531276D01*
X155049710Y-100516958D01*
X155049000Y-100502500D01*
X155049000Y-100157500D01*
X155049710Y-100143042D01*
X155051834Y-100128724D01*
X155055351Y-100114683D01*
X155060228Y-100101054D01*
X155066417Y-100087969D01*
X155073858Y-100075553D01*
X155082481Y-100063927D01*
X155092202Y-100053202D01*
X155102927Y-100043481D01*
X155114553Y-100034858D01*
X155126969Y-100027417D01*
X155140054Y-100021228D01*
X155153683Y-100016351D01*
X155167724Y-100012834D01*
X155182042Y-100010710D01*
X155196500Y-100010000D01*
X155491500Y-100010000D01*
X155505958Y-100010710D01*
G37*
G36*
X156475958Y-100010710D02*
G01*
X156490276Y-100012834D01*
X156504317Y-100016351D01*
X156517946Y-100021228D01*
X156531031Y-100027417D01*
X156543447Y-100034858D01*
X156555073Y-100043481D01*
X156565798Y-100053202D01*
X156575519Y-100063927D01*
X156584142Y-100075553D01*
X156591583Y-100087969D01*
X156597772Y-100101054D01*
X156602649Y-100114683D01*
X156606166Y-100128724D01*
X156608290Y-100143042D01*
X156609000Y-100157500D01*
X156609000Y-100502500D01*
X156608290Y-100516958D01*
X156606166Y-100531276D01*
X156602649Y-100545317D01*
X156597772Y-100558946D01*
X156591583Y-100572031D01*
X156584142Y-100584447D01*
X156575519Y-100596073D01*
X156565798Y-100606798D01*
X156555073Y-100616519D01*
X156543447Y-100625142D01*
X156531031Y-100632583D01*
X156517946Y-100638772D01*
X156504317Y-100643649D01*
X156490276Y-100647166D01*
X156475958Y-100649290D01*
X156461500Y-100650000D01*
X156166500Y-100650000D01*
X156152042Y-100649290D01*
X156137724Y-100647166D01*
X156123683Y-100643649D01*
X156110054Y-100638772D01*
X156096969Y-100632583D01*
X156084553Y-100625142D01*
X156072927Y-100616519D01*
X156062202Y-100606798D01*
X156052481Y-100596073D01*
X156043858Y-100584447D01*
X156036417Y-100572031D01*
X156030228Y-100558946D01*
X156025351Y-100545317D01*
X156021834Y-100531276D01*
X156019710Y-100516958D01*
X156019000Y-100502500D01*
X156019000Y-100157500D01*
X156019710Y-100143042D01*
X156021834Y-100128724D01*
X156025351Y-100114683D01*
X156030228Y-100101054D01*
X156036417Y-100087969D01*
X156043858Y-100075553D01*
X156052481Y-100063927D01*
X156062202Y-100053202D01*
X156072927Y-100043481D01*
X156084553Y-100034858D01*
X156096969Y-100027417D01*
X156110054Y-100021228D01*
X156123683Y-100016351D01*
X156137724Y-100012834D01*
X156152042Y-100010710D01*
X156166500Y-100010000D01*
X156461500Y-100010000D01*
X156475958Y-100010710D01*
G37*
D15*
X130492500Y-70294500D03*
X130492500Y-68944500D03*
X131542500Y-68944500D03*
X131542500Y-70294500D03*
D14*
G36*
X133085126Y-75375801D02*
G01*
X133091193Y-75376701D01*
X133097143Y-75378191D01*
X133102918Y-75380258D01*
X133108462Y-75382880D01*
X133113723Y-75386033D01*
X133118650Y-75389687D01*
X133123194Y-75393806D01*
X133127313Y-75398350D01*
X133130967Y-75403277D01*
X133134120Y-75408538D01*
X133136742Y-75414082D01*
X133138809Y-75419857D01*
X133140299Y-75425807D01*
X133141199Y-75431874D01*
X133141500Y-75438000D01*
X133141500Y-76138000D01*
X133141199Y-76144126D01*
X133140299Y-76150193D01*
X133138809Y-76156143D01*
X133136742Y-76161918D01*
X133134120Y-76167462D01*
X133130967Y-76172723D01*
X133127313Y-76177650D01*
X133123194Y-76182194D01*
X133118650Y-76186313D01*
X133113723Y-76189967D01*
X133108462Y-76193120D01*
X133102918Y-76195742D01*
X133097143Y-76197809D01*
X133091193Y-76199299D01*
X133085126Y-76200199D01*
X133079000Y-76200500D01*
X132954000Y-76200500D01*
X132947874Y-76200199D01*
X132941807Y-76199299D01*
X132935857Y-76197809D01*
X132930082Y-76195742D01*
X132924538Y-76193120D01*
X132919277Y-76189967D01*
X132914350Y-76186313D01*
X132909806Y-76182194D01*
X132905687Y-76177650D01*
X132902033Y-76172723D01*
X132898880Y-76167462D01*
X132896258Y-76161918D01*
X132894191Y-76156143D01*
X132892701Y-76150193D01*
X132891801Y-76144126D01*
X132891500Y-76138000D01*
X132891500Y-75438000D01*
X132891801Y-75431874D01*
X132892701Y-75425807D01*
X132894191Y-75419857D01*
X132896258Y-75414082D01*
X132898880Y-75408538D01*
X132902033Y-75403277D01*
X132905687Y-75398350D01*
X132909806Y-75393806D01*
X132914350Y-75389687D01*
X132919277Y-75386033D01*
X132924538Y-75382880D01*
X132930082Y-75380258D01*
X132935857Y-75378191D01*
X132941807Y-75376701D01*
X132947874Y-75375801D01*
X132954000Y-75375500D01*
X133079000Y-75375500D01*
X133085126Y-75375801D01*
G37*
G36*
X132585126Y-75375801D02*
G01*
X132591193Y-75376701D01*
X132597143Y-75378191D01*
X132602918Y-75380258D01*
X132608462Y-75382880D01*
X132613723Y-75386033D01*
X132618650Y-75389687D01*
X132623194Y-75393806D01*
X132627313Y-75398350D01*
X132630967Y-75403277D01*
X132634120Y-75408538D01*
X132636742Y-75414082D01*
X132638809Y-75419857D01*
X132640299Y-75425807D01*
X132641199Y-75431874D01*
X132641500Y-75438000D01*
X132641500Y-76138000D01*
X132641199Y-76144126D01*
X132640299Y-76150193D01*
X132638809Y-76156143D01*
X132636742Y-76161918D01*
X132634120Y-76167462D01*
X132630967Y-76172723D01*
X132627313Y-76177650D01*
X132623194Y-76182194D01*
X132618650Y-76186313D01*
X132613723Y-76189967D01*
X132608462Y-76193120D01*
X132602918Y-76195742D01*
X132597143Y-76197809D01*
X132591193Y-76199299D01*
X132585126Y-76200199D01*
X132579000Y-76200500D01*
X132454000Y-76200500D01*
X132447874Y-76200199D01*
X132441807Y-76199299D01*
X132435857Y-76197809D01*
X132430082Y-76195742D01*
X132424538Y-76193120D01*
X132419277Y-76189967D01*
X132414350Y-76186313D01*
X132409806Y-76182194D01*
X132405687Y-76177650D01*
X132402033Y-76172723D01*
X132398880Y-76167462D01*
X132396258Y-76161918D01*
X132394191Y-76156143D01*
X132392701Y-76150193D01*
X132391801Y-76144126D01*
X132391500Y-76138000D01*
X132391500Y-75438000D01*
X132391801Y-75431874D01*
X132392701Y-75425807D01*
X132394191Y-75419857D01*
X132396258Y-75414082D01*
X132398880Y-75408538D01*
X132402033Y-75403277D01*
X132405687Y-75398350D01*
X132409806Y-75393806D01*
X132414350Y-75389687D01*
X132419277Y-75386033D01*
X132424538Y-75382880D01*
X132430082Y-75380258D01*
X132435857Y-75378191D01*
X132441807Y-75376701D01*
X132447874Y-75375801D01*
X132454000Y-75375500D01*
X132579000Y-75375500D01*
X132585126Y-75375801D01*
G37*
G36*
X132085126Y-75375801D02*
G01*
X132091193Y-75376701D01*
X132097143Y-75378191D01*
X132102918Y-75380258D01*
X132108462Y-75382880D01*
X132113723Y-75386033D01*
X132118650Y-75389687D01*
X132123194Y-75393806D01*
X132127313Y-75398350D01*
X132130967Y-75403277D01*
X132134120Y-75408538D01*
X132136742Y-75414082D01*
X132138809Y-75419857D01*
X132140299Y-75425807D01*
X132141199Y-75431874D01*
X132141500Y-75438000D01*
X132141500Y-76138000D01*
X132141199Y-76144126D01*
X132140299Y-76150193D01*
X132138809Y-76156143D01*
X132136742Y-76161918D01*
X132134120Y-76167462D01*
X132130967Y-76172723D01*
X132127313Y-76177650D01*
X132123194Y-76182194D01*
X132118650Y-76186313D01*
X132113723Y-76189967D01*
X132108462Y-76193120D01*
X132102918Y-76195742D01*
X132097143Y-76197809D01*
X132091193Y-76199299D01*
X132085126Y-76200199D01*
X132079000Y-76200500D01*
X131954000Y-76200500D01*
X131947874Y-76200199D01*
X131941807Y-76199299D01*
X131935857Y-76197809D01*
X131930082Y-76195742D01*
X131924538Y-76193120D01*
X131919277Y-76189967D01*
X131914350Y-76186313D01*
X131909806Y-76182194D01*
X131905687Y-76177650D01*
X131902033Y-76172723D01*
X131898880Y-76167462D01*
X131896258Y-76161918D01*
X131894191Y-76156143D01*
X131892701Y-76150193D01*
X131891801Y-76144126D01*
X131891500Y-76138000D01*
X131891500Y-75438000D01*
X131891801Y-75431874D01*
X131892701Y-75425807D01*
X131894191Y-75419857D01*
X131896258Y-75414082D01*
X131898880Y-75408538D01*
X131902033Y-75403277D01*
X131905687Y-75398350D01*
X131909806Y-75393806D01*
X131914350Y-75389687D01*
X131919277Y-75386033D01*
X131924538Y-75382880D01*
X131930082Y-75380258D01*
X131935857Y-75378191D01*
X131941807Y-75376701D01*
X131947874Y-75375801D01*
X131954000Y-75375500D01*
X132079000Y-75375500D01*
X132085126Y-75375801D01*
G37*
G36*
X131585126Y-75375801D02*
G01*
X131591193Y-75376701D01*
X131597143Y-75378191D01*
X131602918Y-75380258D01*
X131608462Y-75382880D01*
X131613723Y-75386033D01*
X131618650Y-75389687D01*
X131623194Y-75393806D01*
X131627313Y-75398350D01*
X131630967Y-75403277D01*
X131634120Y-75408538D01*
X131636742Y-75414082D01*
X131638809Y-75419857D01*
X131640299Y-75425807D01*
X131641199Y-75431874D01*
X131641500Y-75438000D01*
X131641500Y-76138000D01*
X131641199Y-76144126D01*
X131640299Y-76150193D01*
X131638809Y-76156143D01*
X131636742Y-76161918D01*
X131634120Y-76167462D01*
X131630967Y-76172723D01*
X131627313Y-76177650D01*
X131623194Y-76182194D01*
X131618650Y-76186313D01*
X131613723Y-76189967D01*
X131608462Y-76193120D01*
X131602918Y-76195742D01*
X131597143Y-76197809D01*
X131591193Y-76199299D01*
X131585126Y-76200199D01*
X131579000Y-76200500D01*
X131454000Y-76200500D01*
X131447874Y-76200199D01*
X131441807Y-76199299D01*
X131435857Y-76197809D01*
X131430082Y-76195742D01*
X131424538Y-76193120D01*
X131419277Y-76189967D01*
X131414350Y-76186313D01*
X131409806Y-76182194D01*
X131405687Y-76177650D01*
X131402033Y-76172723D01*
X131398880Y-76167462D01*
X131396258Y-76161918D01*
X131394191Y-76156143D01*
X131392701Y-76150193D01*
X131391801Y-76144126D01*
X131391500Y-76138000D01*
X131391500Y-75438000D01*
X131391801Y-75431874D01*
X131392701Y-75425807D01*
X131394191Y-75419857D01*
X131396258Y-75414082D01*
X131398880Y-75408538D01*
X131402033Y-75403277D01*
X131405687Y-75398350D01*
X131409806Y-75393806D01*
X131414350Y-75389687D01*
X131419277Y-75386033D01*
X131424538Y-75382880D01*
X131430082Y-75380258D01*
X131435857Y-75378191D01*
X131441807Y-75376701D01*
X131447874Y-75375801D01*
X131454000Y-75375500D01*
X131579000Y-75375500D01*
X131585126Y-75375801D01*
G37*
G36*
X131085126Y-75375801D02*
G01*
X131091193Y-75376701D01*
X131097143Y-75378191D01*
X131102918Y-75380258D01*
X131108462Y-75382880D01*
X131113723Y-75386033D01*
X131118650Y-75389687D01*
X131123194Y-75393806D01*
X131127313Y-75398350D01*
X131130967Y-75403277D01*
X131134120Y-75408538D01*
X131136742Y-75414082D01*
X131138809Y-75419857D01*
X131140299Y-75425807D01*
X131141199Y-75431874D01*
X131141500Y-75438000D01*
X131141500Y-76138000D01*
X131141199Y-76144126D01*
X131140299Y-76150193D01*
X131138809Y-76156143D01*
X131136742Y-76161918D01*
X131134120Y-76167462D01*
X131130967Y-76172723D01*
X131127313Y-76177650D01*
X131123194Y-76182194D01*
X131118650Y-76186313D01*
X131113723Y-76189967D01*
X131108462Y-76193120D01*
X131102918Y-76195742D01*
X131097143Y-76197809D01*
X131091193Y-76199299D01*
X131085126Y-76200199D01*
X131079000Y-76200500D01*
X130954000Y-76200500D01*
X130947874Y-76200199D01*
X130941807Y-76199299D01*
X130935857Y-76197809D01*
X130930082Y-76195742D01*
X130924538Y-76193120D01*
X130919277Y-76189967D01*
X130914350Y-76186313D01*
X130909806Y-76182194D01*
X130905687Y-76177650D01*
X130902033Y-76172723D01*
X130898880Y-76167462D01*
X130896258Y-76161918D01*
X130894191Y-76156143D01*
X130892701Y-76150193D01*
X130891801Y-76144126D01*
X130891500Y-76138000D01*
X130891500Y-75438000D01*
X130891801Y-75431874D01*
X130892701Y-75425807D01*
X130894191Y-75419857D01*
X130896258Y-75414082D01*
X130898880Y-75408538D01*
X130902033Y-75403277D01*
X130905687Y-75398350D01*
X130909806Y-75393806D01*
X130914350Y-75389687D01*
X130919277Y-75386033D01*
X130924538Y-75382880D01*
X130930082Y-75380258D01*
X130935857Y-75378191D01*
X130941807Y-75376701D01*
X130947874Y-75375801D01*
X130954000Y-75375500D01*
X131079000Y-75375500D01*
X131085126Y-75375801D01*
G37*
G36*
X130435126Y-74725801D02*
G01*
X130441193Y-74726701D01*
X130447143Y-74728191D01*
X130452918Y-74730258D01*
X130458462Y-74732880D01*
X130463723Y-74736033D01*
X130468650Y-74739687D01*
X130473194Y-74743806D01*
X130477313Y-74748350D01*
X130480967Y-74753277D01*
X130484120Y-74758538D01*
X130486742Y-74764082D01*
X130488809Y-74769857D01*
X130490299Y-74775807D01*
X130491199Y-74781874D01*
X130491500Y-74788000D01*
X130491500Y-74913000D01*
X130491199Y-74919126D01*
X130490299Y-74925193D01*
X130488809Y-74931143D01*
X130486742Y-74936918D01*
X130484120Y-74942462D01*
X130480967Y-74947723D01*
X130477313Y-74952650D01*
X130473194Y-74957194D01*
X130468650Y-74961313D01*
X130463723Y-74964967D01*
X130458462Y-74968120D01*
X130452918Y-74970742D01*
X130447143Y-74972809D01*
X130441193Y-74974299D01*
X130435126Y-74975199D01*
X130429000Y-74975500D01*
X129729000Y-74975500D01*
X129722874Y-74975199D01*
X129716807Y-74974299D01*
X129710857Y-74972809D01*
X129705082Y-74970742D01*
X129699538Y-74968120D01*
X129694277Y-74964967D01*
X129689350Y-74961313D01*
X129684806Y-74957194D01*
X129680687Y-74952650D01*
X129677033Y-74947723D01*
X129673880Y-74942462D01*
X129671258Y-74936918D01*
X129669191Y-74931143D01*
X129667701Y-74925193D01*
X129666801Y-74919126D01*
X129666500Y-74913000D01*
X129666500Y-74788000D01*
X129666801Y-74781874D01*
X129667701Y-74775807D01*
X129669191Y-74769857D01*
X129671258Y-74764082D01*
X129673880Y-74758538D01*
X129677033Y-74753277D01*
X129680687Y-74748350D01*
X129684806Y-74743806D01*
X129689350Y-74739687D01*
X129694277Y-74736033D01*
X129699538Y-74732880D01*
X129705082Y-74730258D01*
X129710857Y-74728191D01*
X129716807Y-74726701D01*
X129722874Y-74725801D01*
X129729000Y-74725500D01*
X130429000Y-74725500D01*
X130435126Y-74725801D01*
G37*
G36*
X130435126Y-74225801D02*
G01*
X130441193Y-74226701D01*
X130447143Y-74228191D01*
X130452918Y-74230258D01*
X130458462Y-74232880D01*
X130463723Y-74236033D01*
X130468650Y-74239687D01*
X130473194Y-74243806D01*
X130477313Y-74248350D01*
X130480967Y-74253277D01*
X130484120Y-74258538D01*
X130486742Y-74264082D01*
X130488809Y-74269857D01*
X130490299Y-74275807D01*
X130491199Y-74281874D01*
X130491500Y-74288000D01*
X130491500Y-74413000D01*
X130491199Y-74419126D01*
X130490299Y-74425193D01*
X130488809Y-74431143D01*
X130486742Y-74436918D01*
X130484120Y-74442462D01*
X130480967Y-74447723D01*
X130477313Y-74452650D01*
X130473194Y-74457194D01*
X130468650Y-74461313D01*
X130463723Y-74464967D01*
X130458462Y-74468120D01*
X130452918Y-74470742D01*
X130447143Y-74472809D01*
X130441193Y-74474299D01*
X130435126Y-74475199D01*
X130429000Y-74475500D01*
X129729000Y-74475500D01*
X129722874Y-74475199D01*
X129716807Y-74474299D01*
X129710857Y-74472809D01*
X129705082Y-74470742D01*
X129699538Y-74468120D01*
X129694277Y-74464967D01*
X129689350Y-74461313D01*
X129684806Y-74457194D01*
X129680687Y-74452650D01*
X129677033Y-74447723D01*
X129673880Y-74442462D01*
X129671258Y-74436918D01*
X129669191Y-74431143D01*
X129667701Y-74425193D01*
X129666801Y-74419126D01*
X129666500Y-74413000D01*
X129666500Y-74288000D01*
X129666801Y-74281874D01*
X129667701Y-74275807D01*
X129669191Y-74269857D01*
X129671258Y-74264082D01*
X129673880Y-74258538D01*
X129677033Y-74253277D01*
X129680687Y-74248350D01*
X129684806Y-74243806D01*
X129689350Y-74239687D01*
X129694277Y-74236033D01*
X129699538Y-74232880D01*
X129705082Y-74230258D01*
X129710857Y-74228191D01*
X129716807Y-74226701D01*
X129722874Y-74225801D01*
X129729000Y-74225500D01*
X130429000Y-74225500D01*
X130435126Y-74225801D01*
G37*
G36*
X130435126Y-73725801D02*
G01*
X130441193Y-73726701D01*
X130447143Y-73728191D01*
X130452918Y-73730258D01*
X130458462Y-73732880D01*
X130463723Y-73736033D01*
X130468650Y-73739687D01*
X130473194Y-73743806D01*
X130477313Y-73748350D01*
X130480967Y-73753277D01*
X130484120Y-73758538D01*
X130486742Y-73764082D01*
X130488809Y-73769857D01*
X130490299Y-73775807D01*
X130491199Y-73781874D01*
X130491500Y-73788000D01*
X130491500Y-73913000D01*
X130491199Y-73919126D01*
X130490299Y-73925193D01*
X130488809Y-73931143D01*
X130486742Y-73936918D01*
X130484120Y-73942462D01*
X130480967Y-73947723D01*
X130477313Y-73952650D01*
X130473194Y-73957194D01*
X130468650Y-73961313D01*
X130463723Y-73964967D01*
X130458462Y-73968120D01*
X130452918Y-73970742D01*
X130447143Y-73972809D01*
X130441193Y-73974299D01*
X130435126Y-73975199D01*
X130429000Y-73975500D01*
X129729000Y-73975500D01*
X129722874Y-73975199D01*
X129716807Y-73974299D01*
X129710857Y-73972809D01*
X129705082Y-73970742D01*
X129699538Y-73968120D01*
X129694277Y-73964967D01*
X129689350Y-73961313D01*
X129684806Y-73957194D01*
X129680687Y-73952650D01*
X129677033Y-73947723D01*
X129673880Y-73942462D01*
X129671258Y-73936918D01*
X129669191Y-73931143D01*
X129667701Y-73925193D01*
X129666801Y-73919126D01*
X129666500Y-73913000D01*
X129666500Y-73788000D01*
X129666801Y-73781874D01*
X129667701Y-73775807D01*
X129669191Y-73769857D01*
X129671258Y-73764082D01*
X129673880Y-73758538D01*
X129677033Y-73753277D01*
X129680687Y-73748350D01*
X129684806Y-73743806D01*
X129689350Y-73739687D01*
X129694277Y-73736033D01*
X129699538Y-73732880D01*
X129705082Y-73730258D01*
X129710857Y-73728191D01*
X129716807Y-73726701D01*
X129722874Y-73725801D01*
X129729000Y-73725500D01*
X130429000Y-73725500D01*
X130435126Y-73725801D01*
G37*
G36*
X130435126Y-73225801D02*
G01*
X130441193Y-73226701D01*
X130447143Y-73228191D01*
X130452918Y-73230258D01*
X130458462Y-73232880D01*
X130463723Y-73236033D01*
X130468650Y-73239687D01*
X130473194Y-73243806D01*
X130477313Y-73248350D01*
X130480967Y-73253277D01*
X130484120Y-73258538D01*
X130486742Y-73264082D01*
X130488809Y-73269857D01*
X130490299Y-73275807D01*
X130491199Y-73281874D01*
X130491500Y-73288000D01*
X130491500Y-73413000D01*
X130491199Y-73419126D01*
X130490299Y-73425193D01*
X130488809Y-73431143D01*
X130486742Y-73436918D01*
X130484120Y-73442462D01*
X130480967Y-73447723D01*
X130477313Y-73452650D01*
X130473194Y-73457194D01*
X130468650Y-73461313D01*
X130463723Y-73464967D01*
X130458462Y-73468120D01*
X130452918Y-73470742D01*
X130447143Y-73472809D01*
X130441193Y-73474299D01*
X130435126Y-73475199D01*
X130429000Y-73475500D01*
X129729000Y-73475500D01*
X129722874Y-73475199D01*
X129716807Y-73474299D01*
X129710857Y-73472809D01*
X129705082Y-73470742D01*
X129699538Y-73468120D01*
X129694277Y-73464967D01*
X129689350Y-73461313D01*
X129684806Y-73457194D01*
X129680687Y-73452650D01*
X129677033Y-73447723D01*
X129673880Y-73442462D01*
X129671258Y-73436918D01*
X129669191Y-73431143D01*
X129667701Y-73425193D01*
X129666801Y-73419126D01*
X129666500Y-73413000D01*
X129666500Y-73288000D01*
X129666801Y-73281874D01*
X129667701Y-73275807D01*
X129669191Y-73269857D01*
X129671258Y-73264082D01*
X129673880Y-73258538D01*
X129677033Y-73253277D01*
X129680687Y-73248350D01*
X129684806Y-73243806D01*
X129689350Y-73239687D01*
X129694277Y-73236033D01*
X129699538Y-73232880D01*
X129705082Y-73230258D01*
X129710857Y-73228191D01*
X129716807Y-73226701D01*
X129722874Y-73225801D01*
X129729000Y-73225500D01*
X130429000Y-73225500D01*
X130435126Y-73225801D01*
G37*
G36*
X130435126Y-72725801D02*
G01*
X130441193Y-72726701D01*
X130447143Y-72728191D01*
X130452918Y-72730258D01*
X130458462Y-72732880D01*
X130463723Y-72736033D01*
X130468650Y-72739687D01*
X130473194Y-72743806D01*
X130477313Y-72748350D01*
X130480967Y-72753277D01*
X130484120Y-72758538D01*
X130486742Y-72764082D01*
X130488809Y-72769857D01*
X130490299Y-72775807D01*
X130491199Y-72781874D01*
X130491500Y-72788000D01*
X130491500Y-72913000D01*
X130491199Y-72919126D01*
X130490299Y-72925193D01*
X130488809Y-72931143D01*
X130486742Y-72936918D01*
X130484120Y-72942462D01*
X130480967Y-72947723D01*
X130477313Y-72952650D01*
X130473194Y-72957194D01*
X130468650Y-72961313D01*
X130463723Y-72964967D01*
X130458462Y-72968120D01*
X130452918Y-72970742D01*
X130447143Y-72972809D01*
X130441193Y-72974299D01*
X130435126Y-72975199D01*
X130429000Y-72975500D01*
X129729000Y-72975500D01*
X129722874Y-72975199D01*
X129716807Y-72974299D01*
X129710857Y-72972809D01*
X129705082Y-72970742D01*
X129699538Y-72968120D01*
X129694277Y-72964967D01*
X129689350Y-72961313D01*
X129684806Y-72957194D01*
X129680687Y-72952650D01*
X129677033Y-72947723D01*
X129673880Y-72942462D01*
X129671258Y-72936918D01*
X129669191Y-72931143D01*
X129667701Y-72925193D01*
X129666801Y-72919126D01*
X129666500Y-72913000D01*
X129666500Y-72788000D01*
X129666801Y-72781874D01*
X129667701Y-72775807D01*
X129669191Y-72769857D01*
X129671258Y-72764082D01*
X129673880Y-72758538D01*
X129677033Y-72753277D01*
X129680687Y-72748350D01*
X129684806Y-72743806D01*
X129689350Y-72739687D01*
X129694277Y-72736033D01*
X129699538Y-72732880D01*
X129705082Y-72730258D01*
X129710857Y-72728191D01*
X129716807Y-72726701D01*
X129722874Y-72725801D01*
X129729000Y-72725500D01*
X130429000Y-72725500D01*
X130435126Y-72725801D01*
G37*
G36*
X131085126Y-71500801D02*
G01*
X131091193Y-71501701D01*
X131097143Y-71503191D01*
X131102918Y-71505258D01*
X131108462Y-71507880D01*
X131113723Y-71511033D01*
X131118650Y-71514687D01*
X131123194Y-71518806D01*
X131127313Y-71523350D01*
X131130967Y-71528277D01*
X131134120Y-71533538D01*
X131136742Y-71539082D01*
X131138809Y-71544857D01*
X131140299Y-71550807D01*
X131141199Y-71556874D01*
X131141500Y-71563000D01*
X131141500Y-72263000D01*
X131141199Y-72269126D01*
X131140299Y-72275193D01*
X131138809Y-72281143D01*
X131136742Y-72286918D01*
X131134120Y-72292462D01*
X131130967Y-72297723D01*
X131127313Y-72302650D01*
X131123194Y-72307194D01*
X131118650Y-72311313D01*
X131113723Y-72314967D01*
X131108462Y-72318120D01*
X131102918Y-72320742D01*
X131097143Y-72322809D01*
X131091193Y-72324299D01*
X131085126Y-72325199D01*
X131079000Y-72325500D01*
X130954000Y-72325500D01*
X130947874Y-72325199D01*
X130941807Y-72324299D01*
X130935857Y-72322809D01*
X130930082Y-72320742D01*
X130924538Y-72318120D01*
X130919277Y-72314967D01*
X130914350Y-72311313D01*
X130909806Y-72307194D01*
X130905687Y-72302650D01*
X130902033Y-72297723D01*
X130898880Y-72292462D01*
X130896258Y-72286918D01*
X130894191Y-72281143D01*
X130892701Y-72275193D01*
X130891801Y-72269126D01*
X130891500Y-72263000D01*
X130891500Y-71563000D01*
X130891801Y-71556874D01*
X130892701Y-71550807D01*
X130894191Y-71544857D01*
X130896258Y-71539082D01*
X130898880Y-71533538D01*
X130902033Y-71528277D01*
X130905687Y-71523350D01*
X130909806Y-71518806D01*
X130914350Y-71514687D01*
X130919277Y-71511033D01*
X130924538Y-71507880D01*
X130930082Y-71505258D01*
X130935857Y-71503191D01*
X130941807Y-71501701D01*
X130947874Y-71500801D01*
X130954000Y-71500500D01*
X131079000Y-71500500D01*
X131085126Y-71500801D01*
G37*
G36*
X131585126Y-71500801D02*
G01*
X131591193Y-71501701D01*
X131597143Y-71503191D01*
X131602918Y-71505258D01*
X131608462Y-71507880D01*
X131613723Y-71511033D01*
X131618650Y-71514687D01*
X131623194Y-71518806D01*
X131627313Y-71523350D01*
X131630967Y-71528277D01*
X131634120Y-71533538D01*
X131636742Y-71539082D01*
X131638809Y-71544857D01*
X131640299Y-71550807D01*
X131641199Y-71556874D01*
X131641500Y-71563000D01*
X131641500Y-72263000D01*
X131641199Y-72269126D01*
X131640299Y-72275193D01*
X131638809Y-72281143D01*
X131636742Y-72286918D01*
X131634120Y-72292462D01*
X131630967Y-72297723D01*
X131627313Y-72302650D01*
X131623194Y-72307194D01*
X131618650Y-72311313D01*
X131613723Y-72314967D01*
X131608462Y-72318120D01*
X131602918Y-72320742D01*
X131597143Y-72322809D01*
X131591193Y-72324299D01*
X131585126Y-72325199D01*
X131579000Y-72325500D01*
X131454000Y-72325500D01*
X131447874Y-72325199D01*
X131441807Y-72324299D01*
X131435857Y-72322809D01*
X131430082Y-72320742D01*
X131424538Y-72318120D01*
X131419277Y-72314967D01*
X131414350Y-72311313D01*
X131409806Y-72307194D01*
X131405687Y-72302650D01*
X131402033Y-72297723D01*
X131398880Y-72292462D01*
X131396258Y-72286918D01*
X131394191Y-72281143D01*
X131392701Y-72275193D01*
X131391801Y-72269126D01*
X131391500Y-72263000D01*
X131391500Y-71563000D01*
X131391801Y-71556874D01*
X131392701Y-71550807D01*
X131394191Y-71544857D01*
X131396258Y-71539082D01*
X131398880Y-71533538D01*
X131402033Y-71528277D01*
X131405687Y-71523350D01*
X131409806Y-71518806D01*
X131414350Y-71514687D01*
X131419277Y-71511033D01*
X131424538Y-71507880D01*
X131430082Y-71505258D01*
X131435857Y-71503191D01*
X131441807Y-71501701D01*
X131447874Y-71500801D01*
X131454000Y-71500500D01*
X131579000Y-71500500D01*
X131585126Y-71500801D01*
G37*
G36*
X132085126Y-71500801D02*
G01*
X132091193Y-71501701D01*
X132097143Y-71503191D01*
X132102918Y-71505258D01*
X132108462Y-71507880D01*
X132113723Y-71511033D01*
X132118650Y-71514687D01*
X132123194Y-71518806D01*
X132127313Y-71523350D01*
X132130967Y-71528277D01*
X132134120Y-71533538D01*
X132136742Y-71539082D01*
X132138809Y-71544857D01*
X132140299Y-71550807D01*
X132141199Y-71556874D01*
X132141500Y-71563000D01*
X132141500Y-72263000D01*
X132141199Y-72269126D01*
X132140299Y-72275193D01*
X132138809Y-72281143D01*
X132136742Y-72286918D01*
X132134120Y-72292462D01*
X132130967Y-72297723D01*
X132127313Y-72302650D01*
X132123194Y-72307194D01*
X132118650Y-72311313D01*
X132113723Y-72314967D01*
X132108462Y-72318120D01*
X132102918Y-72320742D01*
X132097143Y-72322809D01*
X132091193Y-72324299D01*
X132085126Y-72325199D01*
X132079000Y-72325500D01*
X131954000Y-72325500D01*
X131947874Y-72325199D01*
X131941807Y-72324299D01*
X131935857Y-72322809D01*
X131930082Y-72320742D01*
X131924538Y-72318120D01*
X131919277Y-72314967D01*
X131914350Y-72311313D01*
X131909806Y-72307194D01*
X131905687Y-72302650D01*
X131902033Y-72297723D01*
X131898880Y-72292462D01*
X131896258Y-72286918D01*
X131894191Y-72281143D01*
X131892701Y-72275193D01*
X131891801Y-72269126D01*
X131891500Y-72263000D01*
X131891500Y-71563000D01*
X131891801Y-71556874D01*
X131892701Y-71550807D01*
X131894191Y-71544857D01*
X131896258Y-71539082D01*
X131898880Y-71533538D01*
X131902033Y-71528277D01*
X131905687Y-71523350D01*
X131909806Y-71518806D01*
X131914350Y-71514687D01*
X131919277Y-71511033D01*
X131924538Y-71507880D01*
X131930082Y-71505258D01*
X131935857Y-71503191D01*
X131941807Y-71501701D01*
X131947874Y-71500801D01*
X131954000Y-71500500D01*
X132079000Y-71500500D01*
X132085126Y-71500801D01*
G37*
G36*
X132585126Y-71500801D02*
G01*
X132591193Y-71501701D01*
X132597143Y-71503191D01*
X132602918Y-71505258D01*
X132608462Y-71507880D01*
X132613723Y-71511033D01*
X132618650Y-71514687D01*
X132623194Y-71518806D01*
X132627313Y-71523350D01*
X132630967Y-71528277D01*
X132634120Y-71533538D01*
X132636742Y-71539082D01*
X132638809Y-71544857D01*
X132640299Y-71550807D01*
X132641199Y-71556874D01*
X132641500Y-71563000D01*
X132641500Y-72263000D01*
X132641199Y-72269126D01*
X132640299Y-72275193D01*
X132638809Y-72281143D01*
X132636742Y-72286918D01*
X132634120Y-72292462D01*
X132630967Y-72297723D01*
X132627313Y-72302650D01*
X132623194Y-72307194D01*
X132618650Y-72311313D01*
X132613723Y-72314967D01*
X132608462Y-72318120D01*
X132602918Y-72320742D01*
X132597143Y-72322809D01*
X132591193Y-72324299D01*
X132585126Y-72325199D01*
X132579000Y-72325500D01*
X132454000Y-72325500D01*
X132447874Y-72325199D01*
X132441807Y-72324299D01*
X132435857Y-72322809D01*
X132430082Y-72320742D01*
X132424538Y-72318120D01*
X132419277Y-72314967D01*
X132414350Y-72311313D01*
X132409806Y-72307194D01*
X132405687Y-72302650D01*
X132402033Y-72297723D01*
X132398880Y-72292462D01*
X132396258Y-72286918D01*
X132394191Y-72281143D01*
X132392701Y-72275193D01*
X132391801Y-72269126D01*
X132391500Y-72263000D01*
X132391500Y-71563000D01*
X132391801Y-71556874D01*
X132392701Y-71550807D01*
X132394191Y-71544857D01*
X132396258Y-71539082D01*
X132398880Y-71533538D01*
X132402033Y-71528277D01*
X132405687Y-71523350D01*
X132409806Y-71518806D01*
X132414350Y-71514687D01*
X132419277Y-71511033D01*
X132424538Y-71507880D01*
X132430082Y-71505258D01*
X132435857Y-71503191D01*
X132441807Y-71501701D01*
X132447874Y-71500801D01*
X132454000Y-71500500D01*
X132579000Y-71500500D01*
X132585126Y-71500801D01*
G37*
G36*
X133085126Y-71500801D02*
G01*
X133091193Y-71501701D01*
X133097143Y-71503191D01*
X133102918Y-71505258D01*
X133108462Y-71507880D01*
X133113723Y-71511033D01*
X133118650Y-71514687D01*
X133123194Y-71518806D01*
X133127313Y-71523350D01*
X133130967Y-71528277D01*
X133134120Y-71533538D01*
X133136742Y-71539082D01*
X133138809Y-71544857D01*
X133140299Y-71550807D01*
X133141199Y-71556874D01*
X133141500Y-71563000D01*
X133141500Y-72263000D01*
X133141199Y-72269126D01*
X133140299Y-72275193D01*
X133138809Y-72281143D01*
X133136742Y-72286918D01*
X133134120Y-72292462D01*
X133130967Y-72297723D01*
X133127313Y-72302650D01*
X133123194Y-72307194D01*
X133118650Y-72311313D01*
X133113723Y-72314967D01*
X133108462Y-72318120D01*
X133102918Y-72320742D01*
X133097143Y-72322809D01*
X133091193Y-72324299D01*
X133085126Y-72325199D01*
X133079000Y-72325500D01*
X132954000Y-72325500D01*
X132947874Y-72325199D01*
X132941807Y-72324299D01*
X132935857Y-72322809D01*
X132930082Y-72320742D01*
X132924538Y-72318120D01*
X132919277Y-72314967D01*
X132914350Y-72311313D01*
X132909806Y-72307194D01*
X132905687Y-72302650D01*
X132902033Y-72297723D01*
X132898880Y-72292462D01*
X132896258Y-72286918D01*
X132894191Y-72281143D01*
X132892701Y-72275193D01*
X132891801Y-72269126D01*
X132891500Y-72263000D01*
X132891500Y-71563000D01*
X132891801Y-71556874D01*
X132892701Y-71550807D01*
X132894191Y-71544857D01*
X132896258Y-71539082D01*
X132898880Y-71533538D01*
X132902033Y-71528277D01*
X132905687Y-71523350D01*
X132909806Y-71518806D01*
X132914350Y-71514687D01*
X132919277Y-71511033D01*
X132924538Y-71507880D01*
X132930082Y-71505258D01*
X132935857Y-71503191D01*
X132941807Y-71501701D01*
X132947874Y-71500801D01*
X132954000Y-71500500D01*
X133079000Y-71500500D01*
X133085126Y-71500801D01*
G37*
G36*
X134310126Y-72725801D02*
G01*
X134316193Y-72726701D01*
X134322143Y-72728191D01*
X134327918Y-72730258D01*
X134333462Y-72732880D01*
X134338723Y-72736033D01*
X134343650Y-72739687D01*
X134348194Y-72743806D01*
X134352313Y-72748350D01*
X134355967Y-72753277D01*
X134359120Y-72758538D01*
X134361742Y-72764082D01*
X134363809Y-72769857D01*
X134365299Y-72775807D01*
X134366199Y-72781874D01*
X134366500Y-72788000D01*
X134366500Y-72913000D01*
X134366199Y-72919126D01*
X134365299Y-72925193D01*
X134363809Y-72931143D01*
X134361742Y-72936918D01*
X134359120Y-72942462D01*
X134355967Y-72947723D01*
X134352313Y-72952650D01*
X134348194Y-72957194D01*
X134343650Y-72961313D01*
X134338723Y-72964967D01*
X134333462Y-72968120D01*
X134327918Y-72970742D01*
X134322143Y-72972809D01*
X134316193Y-72974299D01*
X134310126Y-72975199D01*
X134304000Y-72975500D01*
X133604000Y-72975500D01*
X133597874Y-72975199D01*
X133591807Y-72974299D01*
X133585857Y-72972809D01*
X133580082Y-72970742D01*
X133574538Y-72968120D01*
X133569277Y-72964967D01*
X133564350Y-72961313D01*
X133559806Y-72957194D01*
X133555687Y-72952650D01*
X133552033Y-72947723D01*
X133548880Y-72942462D01*
X133546258Y-72936918D01*
X133544191Y-72931143D01*
X133542701Y-72925193D01*
X133541801Y-72919126D01*
X133541500Y-72913000D01*
X133541500Y-72788000D01*
X133541801Y-72781874D01*
X133542701Y-72775807D01*
X133544191Y-72769857D01*
X133546258Y-72764082D01*
X133548880Y-72758538D01*
X133552033Y-72753277D01*
X133555687Y-72748350D01*
X133559806Y-72743806D01*
X133564350Y-72739687D01*
X133569277Y-72736033D01*
X133574538Y-72732880D01*
X133580082Y-72730258D01*
X133585857Y-72728191D01*
X133591807Y-72726701D01*
X133597874Y-72725801D01*
X133604000Y-72725500D01*
X134304000Y-72725500D01*
X134310126Y-72725801D01*
G37*
G36*
X134310126Y-73225801D02*
G01*
X134316193Y-73226701D01*
X134322143Y-73228191D01*
X134327918Y-73230258D01*
X134333462Y-73232880D01*
X134338723Y-73236033D01*
X134343650Y-73239687D01*
X134348194Y-73243806D01*
X134352313Y-73248350D01*
X134355967Y-73253277D01*
X134359120Y-73258538D01*
X134361742Y-73264082D01*
X134363809Y-73269857D01*
X134365299Y-73275807D01*
X134366199Y-73281874D01*
X134366500Y-73288000D01*
X134366500Y-73413000D01*
X134366199Y-73419126D01*
X134365299Y-73425193D01*
X134363809Y-73431143D01*
X134361742Y-73436918D01*
X134359120Y-73442462D01*
X134355967Y-73447723D01*
X134352313Y-73452650D01*
X134348194Y-73457194D01*
X134343650Y-73461313D01*
X134338723Y-73464967D01*
X134333462Y-73468120D01*
X134327918Y-73470742D01*
X134322143Y-73472809D01*
X134316193Y-73474299D01*
X134310126Y-73475199D01*
X134304000Y-73475500D01*
X133604000Y-73475500D01*
X133597874Y-73475199D01*
X133591807Y-73474299D01*
X133585857Y-73472809D01*
X133580082Y-73470742D01*
X133574538Y-73468120D01*
X133569277Y-73464967D01*
X133564350Y-73461313D01*
X133559806Y-73457194D01*
X133555687Y-73452650D01*
X133552033Y-73447723D01*
X133548880Y-73442462D01*
X133546258Y-73436918D01*
X133544191Y-73431143D01*
X133542701Y-73425193D01*
X133541801Y-73419126D01*
X133541500Y-73413000D01*
X133541500Y-73288000D01*
X133541801Y-73281874D01*
X133542701Y-73275807D01*
X133544191Y-73269857D01*
X133546258Y-73264082D01*
X133548880Y-73258538D01*
X133552033Y-73253277D01*
X133555687Y-73248350D01*
X133559806Y-73243806D01*
X133564350Y-73239687D01*
X133569277Y-73236033D01*
X133574538Y-73232880D01*
X133580082Y-73230258D01*
X133585857Y-73228191D01*
X133591807Y-73226701D01*
X133597874Y-73225801D01*
X133604000Y-73225500D01*
X134304000Y-73225500D01*
X134310126Y-73225801D01*
G37*
G36*
X134310126Y-73725801D02*
G01*
X134316193Y-73726701D01*
X134322143Y-73728191D01*
X134327918Y-73730258D01*
X134333462Y-73732880D01*
X134338723Y-73736033D01*
X134343650Y-73739687D01*
X134348194Y-73743806D01*
X134352313Y-73748350D01*
X134355967Y-73753277D01*
X134359120Y-73758538D01*
X134361742Y-73764082D01*
X134363809Y-73769857D01*
X134365299Y-73775807D01*
X134366199Y-73781874D01*
X134366500Y-73788000D01*
X134366500Y-73913000D01*
X134366199Y-73919126D01*
X134365299Y-73925193D01*
X134363809Y-73931143D01*
X134361742Y-73936918D01*
X134359120Y-73942462D01*
X134355967Y-73947723D01*
X134352313Y-73952650D01*
X134348194Y-73957194D01*
X134343650Y-73961313D01*
X134338723Y-73964967D01*
X134333462Y-73968120D01*
X134327918Y-73970742D01*
X134322143Y-73972809D01*
X134316193Y-73974299D01*
X134310126Y-73975199D01*
X134304000Y-73975500D01*
X133604000Y-73975500D01*
X133597874Y-73975199D01*
X133591807Y-73974299D01*
X133585857Y-73972809D01*
X133580082Y-73970742D01*
X133574538Y-73968120D01*
X133569277Y-73964967D01*
X133564350Y-73961313D01*
X133559806Y-73957194D01*
X133555687Y-73952650D01*
X133552033Y-73947723D01*
X133548880Y-73942462D01*
X133546258Y-73936918D01*
X133544191Y-73931143D01*
X133542701Y-73925193D01*
X133541801Y-73919126D01*
X133541500Y-73913000D01*
X133541500Y-73788000D01*
X133541801Y-73781874D01*
X133542701Y-73775807D01*
X133544191Y-73769857D01*
X133546258Y-73764082D01*
X133548880Y-73758538D01*
X133552033Y-73753277D01*
X133555687Y-73748350D01*
X133559806Y-73743806D01*
X133564350Y-73739687D01*
X133569277Y-73736033D01*
X133574538Y-73732880D01*
X133580082Y-73730258D01*
X133585857Y-73728191D01*
X133591807Y-73726701D01*
X133597874Y-73725801D01*
X133604000Y-73725500D01*
X134304000Y-73725500D01*
X134310126Y-73725801D01*
G37*
G36*
X134310126Y-74225801D02*
G01*
X134316193Y-74226701D01*
X134322143Y-74228191D01*
X134327918Y-74230258D01*
X134333462Y-74232880D01*
X134338723Y-74236033D01*
X134343650Y-74239687D01*
X134348194Y-74243806D01*
X134352313Y-74248350D01*
X134355967Y-74253277D01*
X134359120Y-74258538D01*
X134361742Y-74264082D01*
X134363809Y-74269857D01*
X134365299Y-74275807D01*
X134366199Y-74281874D01*
X134366500Y-74288000D01*
X134366500Y-74413000D01*
X134366199Y-74419126D01*
X134365299Y-74425193D01*
X134363809Y-74431143D01*
X134361742Y-74436918D01*
X134359120Y-74442462D01*
X134355967Y-74447723D01*
X134352313Y-74452650D01*
X134348194Y-74457194D01*
X134343650Y-74461313D01*
X134338723Y-74464967D01*
X134333462Y-74468120D01*
X134327918Y-74470742D01*
X134322143Y-74472809D01*
X134316193Y-74474299D01*
X134310126Y-74475199D01*
X134304000Y-74475500D01*
X133604000Y-74475500D01*
X133597874Y-74475199D01*
X133591807Y-74474299D01*
X133585857Y-74472809D01*
X133580082Y-74470742D01*
X133574538Y-74468120D01*
X133569277Y-74464967D01*
X133564350Y-74461313D01*
X133559806Y-74457194D01*
X133555687Y-74452650D01*
X133552033Y-74447723D01*
X133548880Y-74442462D01*
X133546258Y-74436918D01*
X133544191Y-74431143D01*
X133542701Y-74425193D01*
X133541801Y-74419126D01*
X133541500Y-74413000D01*
X133541500Y-74288000D01*
X133541801Y-74281874D01*
X133542701Y-74275807D01*
X133544191Y-74269857D01*
X133546258Y-74264082D01*
X133548880Y-74258538D01*
X133552033Y-74253277D01*
X133555687Y-74248350D01*
X133559806Y-74243806D01*
X133564350Y-74239687D01*
X133569277Y-74236033D01*
X133574538Y-74232880D01*
X133580082Y-74230258D01*
X133585857Y-74228191D01*
X133591807Y-74226701D01*
X133597874Y-74225801D01*
X133604000Y-74225500D01*
X134304000Y-74225500D01*
X134310126Y-74225801D01*
G37*
G36*
X134310126Y-74725801D02*
G01*
X134316193Y-74726701D01*
X134322143Y-74728191D01*
X134327918Y-74730258D01*
X134333462Y-74732880D01*
X134338723Y-74736033D01*
X134343650Y-74739687D01*
X134348194Y-74743806D01*
X134352313Y-74748350D01*
X134355967Y-74753277D01*
X134359120Y-74758538D01*
X134361742Y-74764082D01*
X134363809Y-74769857D01*
X134365299Y-74775807D01*
X134366199Y-74781874D01*
X134366500Y-74788000D01*
X134366500Y-74913000D01*
X134366199Y-74919126D01*
X134365299Y-74925193D01*
X134363809Y-74931143D01*
X134361742Y-74936918D01*
X134359120Y-74942462D01*
X134355967Y-74947723D01*
X134352313Y-74952650D01*
X134348194Y-74957194D01*
X134343650Y-74961313D01*
X134338723Y-74964967D01*
X134333462Y-74968120D01*
X134327918Y-74970742D01*
X134322143Y-74972809D01*
X134316193Y-74974299D01*
X134310126Y-74975199D01*
X134304000Y-74975500D01*
X133604000Y-74975500D01*
X133597874Y-74975199D01*
X133591807Y-74974299D01*
X133585857Y-74972809D01*
X133580082Y-74970742D01*
X133574538Y-74968120D01*
X133569277Y-74964967D01*
X133564350Y-74961313D01*
X133559806Y-74957194D01*
X133555687Y-74952650D01*
X133552033Y-74947723D01*
X133548880Y-74942462D01*
X133546258Y-74936918D01*
X133544191Y-74931143D01*
X133542701Y-74925193D01*
X133541801Y-74919126D01*
X133541500Y-74913000D01*
X133541500Y-74788000D01*
X133541801Y-74781874D01*
X133542701Y-74775807D01*
X133544191Y-74769857D01*
X133546258Y-74764082D01*
X133548880Y-74758538D01*
X133552033Y-74753277D01*
X133555687Y-74748350D01*
X133559806Y-74743806D01*
X133564350Y-74739687D01*
X133569277Y-74736033D01*
X133574538Y-74732880D01*
X133580082Y-74730258D01*
X133585857Y-74728191D01*
X133591807Y-74726701D01*
X133597874Y-74725801D01*
X133604000Y-74725500D01*
X134304000Y-74725500D01*
X134310126Y-74725801D01*
G37*
G36*
X133041004Y-72601704D02*
G01*
X133065273Y-72605304D01*
X133089071Y-72611265D01*
X133112171Y-72619530D01*
X133134349Y-72630020D01*
X133155393Y-72642633D01*
X133175098Y-72657247D01*
X133193277Y-72673723D01*
X133209753Y-72691902D01*
X133224367Y-72711607D01*
X133236980Y-72732651D01*
X133247470Y-72754829D01*
X133255735Y-72777929D01*
X133261696Y-72801727D01*
X133265296Y-72825996D01*
X133266500Y-72850500D01*
X133266500Y-74850500D01*
X133265296Y-74875004D01*
X133261696Y-74899273D01*
X133255735Y-74923071D01*
X133247470Y-74946171D01*
X133236980Y-74968349D01*
X133224367Y-74989393D01*
X133209753Y-75009098D01*
X133193277Y-75027277D01*
X133175098Y-75043753D01*
X133155393Y-75058367D01*
X133134349Y-75070980D01*
X133112171Y-75081470D01*
X133089071Y-75089735D01*
X133065273Y-75095696D01*
X133041004Y-75099296D01*
X133016500Y-75100500D01*
X131016500Y-75100500D01*
X130991996Y-75099296D01*
X130967727Y-75095696D01*
X130943929Y-75089735D01*
X130920829Y-75081470D01*
X130898651Y-75070980D01*
X130877607Y-75058367D01*
X130857902Y-75043753D01*
X130839723Y-75027277D01*
X130823247Y-75009098D01*
X130808633Y-74989393D01*
X130796020Y-74968349D01*
X130785530Y-74946171D01*
X130777265Y-74923071D01*
X130771304Y-74899273D01*
X130767704Y-74875004D01*
X130766500Y-74850500D01*
X130766500Y-72850500D01*
X130767704Y-72825996D01*
X130771304Y-72801727D01*
X130777265Y-72777929D01*
X130785530Y-72754829D01*
X130796020Y-72732651D01*
X130808633Y-72711607D01*
X130823247Y-72691902D01*
X130839723Y-72673723D01*
X130857902Y-72657247D01*
X130877607Y-72642633D01*
X130898651Y-72630020D01*
X130920829Y-72619530D01*
X130943929Y-72611265D01*
X130967727Y-72605304D01*
X130991996Y-72601704D01*
X131016500Y-72600500D01*
X133016500Y-72600500D01*
X133041004Y-72601704D01*
G37*
D16*
X153076000Y-94930000D03*
X153076000Y-93980000D03*
X153076000Y-95880000D03*
X150876000Y-95880000D03*
X150876000Y-94930000D03*
X150876000Y-93980000D03*
X153076000Y-81788000D03*
X153076000Y-83688000D03*
X150876000Y-83688000D03*
X150876000Y-82738000D03*
X150876000Y-81788000D03*
D14*
G36*
X129917458Y-77851210D02*
G01*
X129931776Y-77853334D01*
X129945817Y-77856851D01*
X129959446Y-77861728D01*
X129972531Y-77867917D01*
X129984947Y-77875358D01*
X129996573Y-77883981D01*
X130007298Y-77893702D01*
X130017019Y-77904427D01*
X130025642Y-77916053D01*
X130033083Y-77928469D01*
X130039272Y-77941554D01*
X130044149Y-77955183D01*
X130047666Y-77969224D01*
X130049790Y-77983542D01*
X130050500Y-77998000D01*
X130050500Y-78293000D01*
X130049790Y-78307458D01*
X130047666Y-78321776D01*
X130044149Y-78335817D01*
X130039272Y-78349446D01*
X130033083Y-78362531D01*
X130025642Y-78374947D01*
X130017019Y-78386573D01*
X130007298Y-78397298D01*
X129996573Y-78407019D01*
X129984947Y-78415642D01*
X129972531Y-78423083D01*
X129959446Y-78429272D01*
X129945817Y-78434149D01*
X129931776Y-78437666D01*
X129917458Y-78439790D01*
X129903000Y-78440500D01*
X129558000Y-78440500D01*
X129543542Y-78439790D01*
X129529224Y-78437666D01*
X129515183Y-78434149D01*
X129501554Y-78429272D01*
X129488469Y-78423083D01*
X129476053Y-78415642D01*
X129464427Y-78407019D01*
X129453702Y-78397298D01*
X129443981Y-78386573D01*
X129435358Y-78374947D01*
X129427917Y-78362531D01*
X129421728Y-78349446D01*
X129416851Y-78335817D01*
X129413334Y-78321776D01*
X129411210Y-78307458D01*
X129410500Y-78293000D01*
X129410500Y-77998000D01*
X129411210Y-77983542D01*
X129413334Y-77969224D01*
X129416851Y-77955183D01*
X129421728Y-77941554D01*
X129427917Y-77928469D01*
X129435358Y-77916053D01*
X129443981Y-77904427D01*
X129453702Y-77893702D01*
X129464427Y-77883981D01*
X129476053Y-77875358D01*
X129488469Y-77867917D01*
X129501554Y-77861728D01*
X129515183Y-77856851D01*
X129529224Y-77853334D01*
X129543542Y-77851210D01*
X129558000Y-77850500D01*
X129903000Y-77850500D01*
X129917458Y-77851210D01*
G37*
G36*
X129917458Y-76881210D02*
G01*
X129931776Y-76883334D01*
X129945817Y-76886851D01*
X129959446Y-76891728D01*
X129972531Y-76897917D01*
X129984947Y-76905358D01*
X129996573Y-76913981D01*
X130007298Y-76923702D01*
X130017019Y-76934427D01*
X130025642Y-76946053D01*
X130033083Y-76958469D01*
X130039272Y-76971554D01*
X130044149Y-76985183D01*
X130047666Y-76999224D01*
X130049790Y-77013542D01*
X130050500Y-77028000D01*
X130050500Y-77323000D01*
X130049790Y-77337458D01*
X130047666Y-77351776D01*
X130044149Y-77365817D01*
X130039272Y-77379446D01*
X130033083Y-77392531D01*
X130025642Y-77404947D01*
X130017019Y-77416573D01*
X130007298Y-77427298D01*
X129996573Y-77437019D01*
X129984947Y-77445642D01*
X129972531Y-77453083D01*
X129959446Y-77459272D01*
X129945817Y-77464149D01*
X129931776Y-77467666D01*
X129917458Y-77469790D01*
X129903000Y-77470500D01*
X129558000Y-77470500D01*
X129543542Y-77469790D01*
X129529224Y-77467666D01*
X129515183Y-77464149D01*
X129501554Y-77459272D01*
X129488469Y-77453083D01*
X129476053Y-77445642D01*
X129464427Y-77437019D01*
X129453702Y-77427298D01*
X129443981Y-77416573D01*
X129435358Y-77404947D01*
X129427917Y-77392531D01*
X129421728Y-77379446D01*
X129416851Y-77365817D01*
X129413334Y-77351776D01*
X129411210Y-77337458D01*
X129410500Y-77323000D01*
X129410500Y-77028000D01*
X129411210Y-77013542D01*
X129413334Y-76999224D01*
X129416851Y-76985183D01*
X129421728Y-76971554D01*
X129427917Y-76958469D01*
X129435358Y-76946053D01*
X129443981Y-76934427D01*
X129453702Y-76923702D01*
X129464427Y-76913981D01*
X129476053Y-76905358D01*
X129488469Y-76897917D01*
X129501554Y-76891728D01*
X129515183Y-76886851D01*
X129529224Y-76883334D01*
X129543542Y-76881210D01*
X129558000Y-76880500D01*
X129903000Y-76880500D01*
X129917458Y-76881210D01*
G37*
G36*
X126844458Y-74039210D02*
G01*
X126858776Y-74041334D01*
X126872817Y-74044851D01*
X126886446Y-74049728D01*
X126899531Y-74055917D01*
X126911947Y-74063358D01*
X126923573Y-74071981D01*
X126934298Y-74081702D01*
X126944019Y-74092427D01*
X126952642Y-74104053D01*
X126960083Y-74116469D01*
X126966272Y-74129554D01*
X126971149Y-74143183D01*
X126974666Y-74157224D01*
X126976790Y-74171542D01*
X126977500Y-74186000D01*
X126977500Y-74531000D01*
X126976790Y-74545458D01*
X126974666Y-74559776D01*
X126971149Y-74573817D01*
X126966272Y-74587446D01*
X126960083Y-74600531D01*
X126952642Y-74612947D01*
X126944019Y-74624573D01*
X126934298Y-74635298D01*
X126923573Y-74645019D01*
X126911947Y-74653642D01*
X126899531Y-74661083D01*
X126886446Y-74667272D01*
X126872817Y-74672149D01*
X126858776Y-74675666D01*
X126844458Y-74677790D01*
X126830000Y-74678500D01*
X126535000Y-74678500D01*
X126520542Y-74677790D01*
X126506224Y-74675666D01*
X126492183Y-74672149D01*
X126478554Y-74667272D01*
X126465469Y-74661083D01*
X126453053Y-74653642D01*
X126441427Y-74645019D01*
X126430702Y-74635298D01*
X126420981Y-74624573D01*
X126412358Y-74612947D01*
X126404917Y-74600531D01*
X126398728Y-74587446D01*
X126393851Y-74573817D01*
X126390334Y-74559776D01*
X126388210Y-74545458D01*
X126387500Y-74531000D01*
X126387500Y-74186000D01*
X126388210Y-74171542D01*
X126390334Y-74157224D01*
X126393851Y-74143183D01*
X126398728Y-74129554D01*
X126404917Y-74116469D01*
X126412358Y-74104053D01*
X126420981Y-74092427D01*
X126430702Y-74081702D01*
X126441427Y-74071981D01*
X126453053Y-74063358D01*
X126465469Y-74055917D01*
X126478554Y-74049728D01*
X126492183Y-74044851D01*
X126506224Y-74041334D01*
X126520542Y-74039210D01*
X126535000Y-74038500D01*
X126830000Y-74038500D01*
X126844458Y-74039210D01*
G37*
G36*
X127814458Y-74039210D02*
G01*
X127828776Y-74041334D01*
X127842817Y-74044851D01*
X127856446Y-74049728D01*
X127869531Y-74055917D01*
X127881947Y-74063358D01*
X127893573Y-74071981D01*
X127904298Y-74081702D01*
X127914019Y-74092427D01*
X127922642Y-74104053D01*
X127930083Y-74116469D01*
X127936272Y-74129554D01*
X127941149Y-74143183D01*
X127944666Y-74157224D01*
X127946790Y-74171542D01*
X127947500Y-74186000D01*
X127947500Y-74531000D01*
X127946790Y-74545458D01*
X127944666Y-74559776D01*
X127941149Y-74573817D01*
X127936272Y-74587446D01*
X127930083Y-74600531D01*
X127922642Y-74612947D01*
X127914019Y-74624573D01*
X127904298Y-74635298D01*
X127893573Y-74645019D01*
X127881947Y-74653642D01*
X127869531Y-74661083D01*
X127856446Y-74667272D01*
X127842817Y-74672149D01*
X127828776Y-74675666D01*
X127814458Y-74677790D01*
X127800000Y-74678500D01*
X127505000Y-74678500D01*
X127490542Y-74677790D01*
X127476224Y-74675666D01*
X127462183Y-74672149D01*
X127448554Y-74667272D01*
X127435469Y-74661083D01*
X127423053Y-74653642D01*
X127411427Y-74645019D01*
X127400702Y-74635298D01*
X127390981Y-74624573D01*
X127382358Y-74612947D01*
X127374917Y-74600531D01*
X127368728Y-74587446D01*
X127363851Y-74573817D01*
X127360334Y-74559776D01*
X127358210Y-74545458D01*
X127357500Y-74531000D01*
X127357500Y-74186000D01*
X127358210Y-74171542D01*
X127360334Y-74157224D01*
X127363851Y-74143183D01*
X127368728Y-74129554D01*
X127374917Y-74116469D01*
X127382358Y-74104053D01*
X127390981Y-74092427D01*
X127400702Y-74081702D01*
X127411427Y-74071981D01*
X127423053Y-74063358D01*
X127435469Y-74055917D01*
X127448554Y-74049728D01*
X127462183Y-74044851D01*
X127476224Y-74041334D01*
X127490542Y-74039210D01*
X127505000Y-74038500D01*
X127800000Y-74038500D01*
X127814458Y-74039210D01*
G37*
G36*
X128901458Y-74041210D02*
G01*
X128915776Y-74043334D01*
X128929817Y-74046851D01*
X128943446Y-74051728D01*
X128956531Y-74057917D01*
X128968947Y-74065358D01*
X128980573Y-74073981D01*
X128991298Y-74083702D01*
X129001019Y-74094427D01*
X129009642Y-74106053D01*
X129017083Y-74118469D01*
X129023272Y-74131554D01*
X129028149Y-74145183D01*
X129031666Y-74159224D01*
X129033790Y-74173542D01*
X129034500Y-74188000D01*
X129034500Y-74483000D01*
X129033790Y-74497458D01*
X129031666Y-74511776D01*
X129028149Y-74525817D01*
X129023272Y-74539446D01*
X129017083Y-74552531D01*
X129009642Y-74564947D01*
X129001019Y-74576573D01*
X128991298Y-74587298D01*
X128980573Y-74597019D01*
X128968947Y-74605642D01*
X128956531Y-74613083D01*
X128943446Y-74619272D01*
X128929817Y-74624149D01*
X128915776Y-74627666D01*
X128901458Y-74629790D01*
X128887000Y-74630500D01*
X128542000Y-74630500D01*
X128527542Y-74629790D01*
X128513224Y-74627666D01*
X128499183Y-74624149D01*
X128485554Y-74619272D01*
X128472469Y-74613083D01*
X128460053Y-74605642D01*
X128448427Y-74597019D01*
X128437702Y-74587298D01*
X128427981Y-74576573D01*
X128419358Y-74564947D01*
X128411917Y-74552531D01*
X128405728Y-74539446D01*
X128400851Y-74525817D01*
X128397334Y-74511776D01*
X128395210Y-74497458D01*
X128394500Y-74483000D01*
X128394500Y-74188000D01*
X128395210Y-74173542D01*
X128397334Y-74159224D01*
X128400851Y-74145183D01*
X128405728Y-74131554D01*
X128411917Y-74118469D01*
X128419358Y-74106053D01*
X128427981Y-74094427D01*
X128437702Y-74083702D01*
X128448427Y-74073981D01*
X128460053Y-74065358D01*
X128472469Y-74057917D01*
X128485554Y-74051728D01*
X128499183Y-74046851D01*
X128513224Y-74043334D01*
X128527542Y-74041210D01*
X128542000Y-74040500D01*
X128887000Y-74040500D01*
X128901458Y-74041210D01*
G37*
G36*
X128901458Y-73071210D02*
G01*
X128915776Y-73073334D01*
X128929817Y-73076851D01*
X128943446Y-73081728D01*
X128956531Y-73087917D01*
X128968947Y-73095358D01*
X128980573Y-73103981D01*
X128991298Y-73113702D01*
X129001019Y-73124427D01*
X129009642Y-73136053D01*
X129017083Y-73148469D01*
X129023272Y-73161554D01*
X129028149Y-73175183D01*
X129031666Y-73189224D01*
X129033790Y-73203542D01*
X129034500Y-73218000D01*
X129034500Y-73513000D01*
X129033790Y-73527458D01*
X129031666Y-73541776D01*
X129028149Y-73555817D01*
X129023272Y-73569446D01*
X129017083Y-73582531D01*
X129009642Y-73594947D01*
X129001019Y-73606573D01*
X128991298Y-73617298D01*
X128980573Y-73627019D01*
X128968947Y-73635642D01*
X128956531Y-73643083D01*
X128943446Y-73649272D01*
X128929817Y-73654149D01*
X128915776Y-73657666D01*
X128901458Y-73659790D01*
X128887000Y-73660500D01*
X128542000Y-73660500D01*
X128527542Y-73659790D01*
X128513224Y-73657666D01*
X128499183Y-73654149D01*
X128485554Y-73649272D01*
X128472469Y-73643083D01*
X128460053Y-73635642D01*
X128448427Y-73627019D01*
X128437702Y-73617298D01*
X128427981Y-73606573D01*
X128419358Y-73594947D01*
X128411917Y-73582531D01*
X128405728Y-73569446D01*
X128400851Y-73555817D01*
X128397334Y-73541776D01*
X128395210Y-73527458D01*
X128394500Y-73513000D01*
X128394500Y-73218000D01*
X128395210Y-73203542D01*
X128397334Y-73189224D01*
X128400851Y-73175183D01*
X128405728Y-73161554D01*
X128411917Y-73148469D01*
X128419358Y-73136053D01*
X128427981Y-73124427D01*
X128437702Y-73113702D01*
X128448427Y-73103981D01*
X128460053Y-73095358D01*
X128472469Y-73087917D01*
X128485554Y-73081728D01*
X128499183Y-73076851D01*
X128513224Y-73073334D01*
X128527542Y-73071210D01*
X128542000Y-73070500D01*
X128887000Y-73070500D01*
X128901458Y-73071210D01*
G37*
G36*
X127885458Y-72032210D02*
G01*
X127899776Y-72034334D01*
X127913817Y-72037851D01*
X127927446Y-72042728D01*
X127940531Y-72048917D01*
X127952947Y-72056358D01*
X127964573Y-72064981D01*
X127975298Y-72074702D01*
X127985019Y-72085427D01*
X127993642Y-72097053D01*
X128001083Y-72109469D01*
X128007272Y-72122554D01*
X128012149Y-72136183D01*
X128015666Y-72150224D01*
X128017790Y-72164542D01*
X128018500Y-72179000D01*
X128018500Y-72474000D01*
X128017790Y-72488458D01*
X128015666Y-72502776D01*
X128012149Y-72516817D01*
X128007272Y-72530446D01*
X128001083Y-72543531D01*
X127993642Y-72555947D01*
X127985019Y-72567573D01*
X127975298Y-72578298D01*
X127964573Y-72588019D01*
X127952947Y-72596642D01*
X127940531Y-72604083D01*
X127927446Y-72610272D01*
X127913817Y-72615149D01*
X127899776Y-72618666D01*
X127885458Y-72620790D01*
X127871000Y-72621500D01*
X127526000Y-72621500D01*
X127511542Y-72620790D01*
X127497224Y-72618666D01*
X127483183Y-72615149D01*
X127469554Y-72610272D01*
X127456469Y-72604083D01*
X127444053Y-72596642D01*
X127432427Y-72588019D01*
X127421702Y-72578298D01*
X127411981Y-72567573D01*
X127403358Y-72555947D01*
X127395917Y-72543531D01*
X127389728Y-72530446D01*
X127384851Y-72516817D01*
X127381334Y-72502776D01*
X127379210Y-72488458D01*
X127378500Y-72474000D01*
X127378500Y-72179000D01*
X127379210Y-72164542D01*
X127381334Y-72150224D01*
X127384851Y-72136183D01*
X127389728Y-72122554D01*
X127395917Y-72109469D01*
X127403358Y-72097053D01*
X127411981Y-72085427D01*
X127421702Y-72074702D01*
X127432427Y-72064981D01*
X127444053Y-72056358D01*
X127456469Y-72048917D01*
X127469554Y-72042728D01*
X127483183Y-72037851D01*
X127497224Y-72034334D01*
X127511542Y-72032210D01*
X127526000Y-72031500D01*
X127871000Y-72031500D01*
X127885458Y-72032210D01*
G37*
G36*
X127885458Y-73002210D02*
G01*
X127899776Y-73004334D01*
X127913817Y-73007851D01*
X127927446Y-73012728D01*
X127940531Y-73018917D01*
X127952947Y-73026358D01*
X127964573Y-73034981D01*
X127975298Y-73044702D01*
X127985019Y-73055427D01*
X127993642Y-73067053D01*
X128001083Y-73079469D01*
X128007272Y-73092554D01*
X128012149Y-73106183D01*
X128015666Y-73120224D01*
X128017790Y-73134542D01*
X128018500Y-73149000D01*
X128018500Y-73444000D01*
X128017790Y-73458458D01*
X128015666Y-73472776D01*
X128012149Y-73486817D01*
X128007272Y-73500446D01*
X128001083Y-73513531D01*
X127993642Y-73525947D01*
X127985019Y-73537573D01*
X127975298Y-73548298D01*
X127964573Y-73558019D01*
X127952947Y-73566642D01*
X127940531Y-73574083D01*
X127927446Y-73580272D01*
X127913817Y-73585149D01*
X127899776Y-73588666D01*
X127885458Y-73590790D01*
X127871000Y-73591500D01*
X127526000Y-73591500D01*
X127511542Y-73590790D01*
X127497224Y-73588666D01*
X127483183Y-73585149D01*
X127469554Y-73580272D01*
X127456469Y-73574083D01*
X127444053Y-73566642D01*
X127432427Y-73558019D01*
X127421702Y-73548298D01*
X127411981Y-73537573D01*
X127403358Y-73525947D01*
X127395917Y-73513531D01*
X127389728Y-73500446D01*
X127384851Y-73486817D01*
X127381334Y-73472776D01*
X127379210Y-73458458D01*
X127378500Y-73444000D01*
X127378500Y-73149000D01*
X127379210Y-73134542D01*
X127381334Y-73120224D01*
X127384851Y-73106183D01*
X127389728Y-73092554D01*
X127395917Y-73079469D01*
X127403358Y-73067053D01*
X127411981Y-73055427D01*
X127421702Y-73044702D01*
X127432427Y-73034981D01*
X127444053Y-73026358D01*
X127456469Y-73018917D01*
X127469554Y-73012728D01*
X127483183Y-73007851D01*
X127497224Y-73004334D01*
X127511542Y-73002210D01*
X127526000Y-73001500D01*
X127871000Y-73001500D01*
X127885458Y-73002210D01*
G37*
G36*
X128964958Y-70063710D02*
G01*
X128979276Y-70065834D01*
X128993317Y-70069351D01*
X129006946Y-70074228D01*
X129020031Y-70080417D01*
X129032447Y-70087858D01*
X129044073Y-70096481D01*
X129054798Y-70106202D01*
X129064519Y-70116927D01*
X129073142Y-70128553D01*
X129080583Y-70140969D01*
X129086772Y-70154054D01*
X129091649Y-70167683D01*
X129095166Y-70181724D01*
X129097290Y-70196042D01*
X129098000Y-70210500D01*
X129098000Y-70505500D01*
X129097290Y-70519958D01*
X129095166Y-70534276D01*
X129091649Y-70548317D01*
X129086772Y-70561946D01*
X129080583Y-70575031D01*
X129073142Y-70587447D01*
X129064519Y-70599073D01*
X129054798Y-70609798D01*
X129044073Y-70619519D01*
X129032447Y-70628142D01*
X129020031Y-70635583D01*
X129006946Y-70641772D01*
X128993317Y-70646649D01*
X128979276Y-70650166D01*
X128964958Y-70652290D01*
X128950500Y-70653000D01*
X128605500Y-70653000D01*
X128591042Y-70652290D01*
X128576724Y-70650166D01*
X128562683Y-70646649D01*
X128549054Y-70641772D01*
X128535969Y-70635583D01*
X128523553Y-70628142D01*
X128511927Y-70619519D01*
X128501202Y-70609798D01*
X128491481Y-70599073D01*
X128482858Y-70587447D01*
X128475417Y-70575031D01*
X128469228Y-70561946D01*
X128464351Y-70548317D01*
X128460834Y-70534276D01*
X128458710Y-70519958D01*
X128458000Y-70505500D01*
X128458000Y-70210500D01*
X128458710Y-70196042D01*
X128460834Y-70181724D01*
X128464351Y-70167683D01*
X128469228Y-70154054D01*
X128475417Y-70140969D01*
X128482858Y-70128553D01*
X128491481Y-70116927D01*
X128501202Y-70106202D01*
X128511927Y-70096481D01*
X128523553Y-70087858D01*
X128535969Y-70080417D01*
X128549054Y-70074228D01*
X128562683Y-70069351D01*
X128576724Y-70065834D01*
X128591042Y-70063710D01*
X128605500Y-70063000D01*
X128950500Y-70063000D01*
X128964958Y-70063710D01*
G37*
G36*
X128964958Y-69093710D02*
G01*
X128979276Y-69095834D01*
X128993317Y-69099351D01*
X129006946Y-69104228D01*
X129020031Y-69110417D01*
X129032447Y-69117858D01*
X129044073Y-69126481D01*
X129054798Y-69136202D01*
X129064519Y-69146927D01*
X129073142Y-69158553D01*
X129080583Y-69170969D01*
X129086772Y-69184054D01*
X129091649Y-69197683D01*
X129095166Y-69211724D01*
X129097290Y-69226042D01*
X129098000Y-69240500D01*
X129098000Y-69535500D01*
X129097290Y-69549958D01*
X129095166Y-69564276D01*
X129091649Y-69578317D01*
X129086772Y-69591946D01*
X129080583Y-69605031D01*
X129073142Y-69617447D01*
X129064519Y-69629073D01*
X129054798Y-69639798D01*
X129044073Y-69649519D01*
X129032447Y-69658142D01*
X129020031Y-69665583D01*
X129006946Y-69671772D01*
X128993317Y-69676649D01*
X128979276Y-69680166D01*
X128964958Y-69682290D01*
X128950500Y-69683000D01*
X128605500Y-69683000D01*
X128591042Y-69682290D01*
X128576724Y-69680166D01*
X128562683Y-69676649D01*
X128549054Y-69671772D01*
X128535969Y-69665583D01*
X128523553Y-69658142D01*
X128511927Y-69649519D01*
X128501202Y-69639798D01*
X128491481Y-69629073D01*
X128482858Y-69617447D01*
X128475417Y-69605031D01*
X128469228Y-69591946D01*
X128464351Y-69578317D01*
X128460834Y-69564276D01*
X128458710Y-69549958D01*
X128458000Y-69535500D01*
X128458000Y-69240500D01*
X128458710Y-69226042D01*
X128460834Y-69211724D01*
X128464351Y-69197683D01*
X128469228Y-69184054D01*
X128475417Y-69170969D01*
X128482858Y-69158553D01*
X128491481Y-69146927D01*
X128501202Y-69136202D01*
X128511927Y-69126481D01*
X128523553Y-69117858D01*
X128535969Y-69110417D01*
X128549054Y-69104228D01*
X128562683Y-69099351D01*
X128576724Y-69095834D01*
X128591042Y-69093710D01*
X128605500Y-69093000D01*
X128950500Y-69093000D01*
X128964958Y-69093710D01*
G37*
G36*
X133333758Y-68514310D02*
G01*
X133348076Y-68516434D01*
X133362117Y-68519951D01*
X133375746Y-68524828D01*
X133388831Y-68531017D01*
X133401247Y-68538458D01*
X133412873Y-68547081D01*
X133423598Y-68556802D01*
X133433319Y-68567527D01*
X133441942Y-68579153D01*
X133449383Y-68591569D01*
X133455572Y-68604654D01*
X133460449Y-68618283D01*
X133463966Y-68632324D01*
X133466090Y-68646642D01*
X133466800Y-68661100D01*
X133466800Y-68956100D01*
X133466090Y-68970558D01*
X133463966Y-68984876D01*
X133460449Y-68998917D01*
X133455572Y-69012546D01*
X133449383Y-69025631D01*
X133441942Y-69038047D01*
X133433319Y-69049673D01*
X133423598Y-69060398D01*
X133412873Y-69070119D01*
X133401247Y-69078742D01*
X133388831Y-69086183D01*
X133375746Y-69092372D01*
X133362117Y-69097249D01*
X133348076Y-69100766D01*
X133333758Y-69102890D01*
X133319300Y-69103600D01*
X132974300Y-69103600D01*
X132959842Y-69102890D01*
X132945524Y-69100766D01*
X132931483Y-69097249D01*
X132917854Y-69092372D01*
X132904769Y-69086183D01*
X132892353Y-69078742D01*
X132880727Y-69070119D01*
X132870002Y-69060398D01*
X132860281Y-69049673D01*
X132851658Y-69038047D01*
X132844217Y-69025631D01*
X132838028Y-69012546D01*
X132833151Y-68998917D01*
X132829634Y-68984876D01*
X132827510Y-68970558D01*
X132826800Y-68956100D01*
X132826800Y-68661100D01*
X132827510Y-68646642D01*
X132829634Y-68632324D01*
X132833151Y-68618283D01*
X132838028Y-68604654D01*
X132844217Y-68591569D01*
X132851658Y-68579153D01*
X132860281Y-68567527D01*
X132870002Y-68556802D01*
X132880727Y-68547081D01*
X132892353Y-68538458D01*
X132904769Y-68531017D01*
X132917854Y-68524828D01*
X132931483Y-68519951D01*
X132945524Y-68516434D01*
X132959842Y-68514310D01*
X132974300Y-68513600D01*
X133319300Y-68513600D01*
X133333758Y-68514310D01*
G37*
G36*
X133333758Y-69484310D02*
G01*
X133348076Y-69486434D01*
X133362117Y-69489951D01*
X133375746Y-69494828D01*
X133388831Y-69501017D01*
X133401247Y-69508458D01*
X133412873Y-69517081D01*
X133423598Y-69526802D01*
X133433319Y-69537527D01*
X133441942Y-69549153D01*
X133449383Y-69561569D01*
X133455572Y-69574654D01*
X133460449Y-69588283D01*
X133463966Y-69602324D01*
X133466090Y-69616642D01*
X133466800Y-69631100D01*
X133466800Y-69926100D01*
X133466090Y-69940558D01*
X133463966Y-69954876D01*
X133460449Y-69968917D01*
X133455572Y-69982546D01*
X133449383Y-69995631D01*
X133441942Y-70008047D01*
X133433319Y-70019673D01*
X133423598Y-70030398D01*
X133412873Y-70040119D01*
X133401247Y-70048742D01*
X133388831Y-70056183D01*
X133375746Y-70062372D01*
X133362117Y-70067249D01*
X133348076Y-70070766D01*
X133333758Y-70072890D01*
X133319300Y-70073600D01*
X132974300Y-70073600D01*
X132959842Y-70072890D01*
X132945524Y-70070766D01*
X132931483Y-70067249D01*
X132917854Y-70062372D01*
X132904769Y-70056183D01*
X132892353Y-70048742D01*
X132880727Y-70040119D01*
X132870002Y-70030398D01*
X132860281Y-70019673D01*
X132851658Y-70008047D01*
X132844217Y-69995631D01*
X132838028Y-69982546D01*
X132833151Y-69968917D01*
X132829634Y-69954876D01*
X132827510Y-69940558D01*
X132826800Y-69926100D01*
X132826800Y-69631100D01*
X132827510Y-69616642D01*
X132829634Y-69602324D01*
X132833151Y-69588283D01*
X132838028Y-69574654D01*
X132844217Y-69561569D01*
X132851658Y-69549153D01*
X132860281Y-69537527D01*
X132870002Y-69526802D01*
X132880727Y-69517081D01*
X132892353Y-69508458D01*
X132904769Y-69501017D01*
X132917854Y-69494828D01*
X132931483Y-69489951D01*
X132945524Y-69486434D01*
X132959842Y-69484310D01*
X132974300Y-69483600D01*
X133319300Y-69483600D01*
X133333758Y-69484310D01*
G37*
G36*
X134418458Y-77087210D02*
G01*
X134432776Y-77089334D01*
X134446817Y-77092851D01*
X134460446Y-77097728D01*
X134473531Y-77103917D01*
X134485947Y-77111358D01*
X134497573Y-77119981D01*
X134508298Y-77129702D01*
X134518019Y-77140427D01*
X134526642Y-77152053D01*
X134534083Y-77164469D01*
X134540272Y-77177554D01*
X134545149Y-77191183D01*
X134548666Y-77205224D01*
X134550790Y-77219542D01*
X134551500Y-77234000D01*
X134551500Y-77579000D01*
X134550790Y-77593458D01*
X134548666Y-77607776D01*
X134545149Y-77621817D01*
X134540272Y-77635446D01*
X134534083Y-77648531D01*
X134526642Y-77660947D01*
X134518019Y-77672573D01*
X134508298Y-77683298D01*
X134497573Y-77693019D01*
X134485947Y-77701642D01*
X134473531Y-77709083D01*
X134460446Y-77715272D01*
X134446817Y-77720149D01*
X134432776Y-77723666D01*
X134418458Y-77725790D01*
X134404000Y-77726500D01*
X134109000Y-77726500D01*
X134094542Y-77725790D01*
X134080224Y-77723666D01*
X134066183Y-77720149D01*
X134052554Y-77715272D01*
X134039469Y-77709083D01*
X134027053Y-77701642D01*
X134015427Y-77693019D01*
X134004702Y-77683298D01*
X133994981Y-77672573D01*
X133986358Y-77660947D01*
X133978917Y-77648531D01*
X133972728Y-77635446D01*
X133967851Y-77621817D01*
X133964334Y-77607776D01*
X133962210Y-77593458D01*
X133961500Y-77579000D01*
X133961500Y-77234000D01*
X133962210Y-77219542D01*
X133964334Y-77205224D01*
X133967851Y-77191183D01*
X133972728Y-77177554D01*
X133978917Y-77164469D01*
X133986358Y-77152053D01*
X133994981Y-77140427D01*
X134004702Y-77129702D01*
X134015427Y-77119981D01*
X134027053Y-77111358D01*
X134039469Y-77103917D01*
X134052554Y-77097728D01*
X134066183Y-77092851D01*
X134080224Y-77089334D01*
X134094542Y-77087210D01*
X134109000Y-77086500D01*
X134404000Y-77086500D01*
X134418458Y-77087210D01*
G37*
G36*
X133448458Y-77087210D02*
G01*
X133462776Y-77089334D01*
X133476817Y-77092851D01*
X133490446Y-77097728D01*
X133503531Y-77103917D01*
X133515947Y-77111358D01*
X133527573Y-77119981D01*
X133538298Y-77129702D01*
X133548019Y-77140427D01*
X133556642Y-77152053D01*
X133564083Y-77164469D01*
X133570272Y-77177554D01*
X133575149Y-77191183D01*
X133578666Y-77205224D01*
X133580790Y-77219542D01*
X133581500Y-77234000D01*
X133581500Y-77579000D01*
X133580790Y-77593458D01*
X133578666Y-77607776D01*
X133575149Y-77621817D01*
X133570272Y-77635446D01*
X133564083Y-77648531D01*
X133556642Y-77660947D01*
X133548019Y-77672573D01*
X133538298Y-77683298D01*
X133527573Y-77693019D01*
X133515947Y-77701642D01*
X133503531Y-77709083D01*
X133490446Y-77715272D01*
X133476817Y-77720149D01*
X133462776Y-77723666D01*
X133448458Y-77725790D01*
X133434000Y-77726500D01*
X133139000Y-77726500D01*
X133124542Y-77725790D01*
X133110224Y-77723666D01*
X133096183Y-77720149D01*
X133082554Y-77715272D01*
X133069469Y-77709083D01*
X133057053Y-77701642D01*
X133045427Y-77693019D01*
X133034702Y-77683298D01*
X133024981Y-77672573D01*
X133016358Y-77660947D01*
X133008917Y-77648531D01*
X133002728Y-77635446D01*
X132997851Y-77621817D01*
X132994334Y-77607776D01*
X132992210Y-77593458D01*
X132991500Y-77579000D01*
X132991500Y-77234000D01*
X132992210Y-77219542D01*
X132994334Y-77205224D01*
X132997851Y-77191183D01*
X133002728Y-77177554D01*
X133008917Y-77164469D01*
X133016358Y-77152053D01*
X133024981Y-77140427D01*
X133034702Y-77129702D01*
X133045427Y-77119981D01*
X133057053Y-77111358D01*
X133069469Y-77103917D01*
X133082554Y-77097728D01*
X133096183Y-77092851D01*
X133110224Y-77089334D01*
X133124542Y-77087210D01*
X133139000Y-77086500D01*
X133434000Y-77086500D01*
X133448458Y-77087210D01*
G37*
G36*
X123821458Y-75080210D02*
G01*
X123835776Y-75082334D01*
X123849817Y-75085851D01*
X123863446Y-75090728D01*
X123876531Y-75096917D01*
X123888947Y-75104358D01*
X123900573Y-75112981D01*
X123911298Y-75122702D01*
X123921019Y-75133427D01*
X123929642Y-75145053D01*
X123937083Y-75157469D01*
X123943272Y-75170554D01*
X123948149Y-75184183D01*
X123951666Y-75198224D01*
X123953790Y-75212542D01*
X123954500Y-75227000D01*
X123954500Y-75522000D01*
X123953790Y-75536458D01*
X123951666Y-75550776D01*
X123948149Y-75564817D01*
X123943272Y-75578446D01*
X123937083Y-75591531D01*
X123929642Y-75603947D01*
X123921019Y-75615573D01*
X123911298Y-75626298D01*
X123900573Y-75636019D01*
X123888947Y-75644642D01*
X123876531Y-75652083D01*
X123863446Y-75658272D01*
X123849817Y-75663149D01*
X123835776Y-75666666D01*
X123821458Y-75668790D01*
X123807000Y-75669500D01*
X123462000Y-75669500D01*
X123447542Y-75668790D01*
X123433224Y-75666666D01*
X123419183Y-75663149D01*
X123405554Y-75658272D01*
X123392469Y-75652083D01*
X123380053Y-75644642D01*
X123368427Y-75636019D01*
X123357702Y-75626298D01*
X123347981Y-75615573D01*
X123339358Y-75603947D01*
X123331917Y-75591531D01*
X123325728Y-75578446D01*
X123320851Y-75564817D01*
X123317334Y-75550776D01*
X123315210Y-75536458D01*
X123314500Y-75522000D01*
X123314500Y-75227000D01*
X123315210Y-75212542D01*
X123317334Y-75198224D01*
X123320851Y-75184183D01*
X123325728Y-75170554D01*
X123331917Y-75157469D01*
X123339358Y-75145053D01*
X123347981Y-75133427D01*
X123357702Y-75122702D01*
X123368427Y-75112981D01*
X123380053Y-75104358D01*
X123392469Y-75096917D01*
X123405554Y-75090728D01*
X123419183Y-75085851D01*
X123433224Y-75082334D01*
X123447542Y-75080210D01*
X123462000Y-75079500D01*
X123807000Y-75079500D01*
X123821458Y-75080210D01*
G37*
G36*
X123821458Y-74110210D02*
G01*
X123835776Y-74112334D01*
X123849817Y-74115851D01*
X123863446Y-74120728D01*
X123876531Y-74126917D01*
X123888947Y-74134358D01*
X123900573Y-74142981D01*
X123911298Y-74152702D01*
X123921019Y-74163427D01*
X123929642Y-74175053D01*
X123937083Y-74187469D01*
X123943272Y-74200554D01*
X123948149Y-74214183D01*
X123951666Y-74228224D01*
X123953790Y-74242542D01*
X123954500Y-74257000D01*
X123954500Y-74552000D01*
X123953790Y-74566458D01*
X123951666Y-74580776D01*
X123948149Y-74594817D01*
X123943272Y-74608446D01*
X123937083Y-74621531D01*
X123929642Y-74633947D01*
X123921019Y-74645573D01*
X123911298Y-74656298D01*
X123900573Y-74666019D01*
X123888947Y-74674642D01*
X123876531Y-74682083D01*
X123863446Y-74688272D01*
X123849817Y-74693149D01*
X123835776Y-74696666D01*
X123821458Y-74698790D01*
X123807000Y-74699500D01*
X123462000Y-74699500D01*
X123447542Y-74698790D01*
X123433224Y-74696666D01*
X123419183Y-74693149D01*
X123405554Y-74688272D01*
X123392469Y-74682083D01*
X123380053Y-74674642D01*
X123368427Y-74666019D01*
X123357702Y-74656298D01*
X123347981Y-74645573D01*
X123339358Y-74633947D01*
X123331917Y-74621531D01*
X123325728Y-74608446D01*
X123320851Y-74594817D01*
X123317334Y-74580776D01*
X123315210Y-74566458D01*
X123314500Y-74552000D01*
X123314500Y-74257000D01*
X123315210Y-74242542D01*
X123317334Y-74228224D01*
X123320851Y-74214183D01*
X123325728Y-74200554D01*
X123331917Y-74187469D01*
X123339358Y-74175053D01*
X123347981Y-74163427D01*
X123357702Y-74152702D01*
X123368427Y-74142981D01*
X123380053Y-74134358D01*
X123392469Y-74126917D01*
X123405554Y-74120728D01*
X123419183Y-74115851D01*
X123433224Y-74112334D01*
X123447542Y-74110210D01*
X123462000Y-74109500D01*
X123807000Y-74109500D01*
X123821458Y-74110210D01*
G37*
G36*
X124812458Y-74039210D02*
G01*
X124826776Y-74041334D01*
X124840817Y-74044851D01*
X124854446Y-74049728D01*
X124867531Y-74055917D01*
X124879947Y-74063358D01*
X124891573Y-74071981D01*
X124902298Y-74081702D01*
X124912019Y-74092427D01*
X124920642Y-74104053D01*
X124928083Y-74116469D01*
X124934272Y-74129554D01*
X124939149Y-74143183D01*
X124942666Y-74157224D01*
X124944790Y-74171542D01*
X124945500Y-74186000D01*
X124945500Y-74531000D01*
X124944790Y-74545458D01*
X124942666Y-74559776D01*
X124939149Y-74573817D01*
X124934272Y-74587446D01*
X124928083Y-74600531D01*
X124920642Y-74612947D01*
X124912019Y-74624573D01*
X124902298Y-74635298D01*
X124891573Y-74645019D01*
X124879947Y-74653642D01*
X124867531Y-74661083D01*
X124854446Y-74667272D01*
X124840817Y-74672149D01*
X124826776Y-74675666D01*
X124812458Y-74677790D01*
X124798000Y-74678500D01*
X124503000Y-74678500D01*
X124488542Y-74677790D01*
X124474224Y-74675666D01*
X124460183Y-74672149D01*
X124446554Y-74667272D01*
X124433469Y-74661083D01*
X124421053Y-74653642D01*
X124409427Y-74645019D01*
X124398702Y-74635298D01*
X124388981Y-74624573D01*
X124380358Y-74612947D01*
X124372917Y-74600531D01*
X124366728Y-74587446D01*
X124361851Y-74573817D01*
X124358334Y-74559776D01*
X124356210Y-74545458D01*
X124355500Y-74531000D01*
X124355500Y-74186000D01*
X124356210Y-74171542D01*
X124358334Y-74157224D01*
X124361851Y-74143183D01*
X124366728Y-74129554D01*
X124372917Y-74116469D01*
X124380358Y-74104053D01*
X124388981Y-74092427D01*
X124398702Y-74081702D01*
X124409427Y-74071981D01*
X124421053Y-74063358D01*
X124433469Y-74055917D01*
X124446554Y-74049728D01*
X124460183Y-74044851D01*
X124474224Y-74041334D01*
X124488542Y-74039210D01*
X124503000Y-74038500D01*
X124798000Y-74038500D01*
X124812458Y-74039210D01*
G37*
G36*
X125782458Y-74039210D02*
G01*
X125796776Y-74041334D01*
X125810817Y-74044851D01*
X125824446Y-74049728D01*
X125837531Y-74055917D01*
X125849947Y-74063358D01*
X125861573Y-74071981D01*
X125872298Y-74081702D01*
X125882019Y-74092427D01*
X125890642Y-74104053D01*
X125898083Y-74116469D01*
X125904272Y-74129554D01*
X125909149Y-74143183D01*
X125912666Y-74157224D01*
X125914790Y-74171542D01*
X125915500Y-74186000D01*
X125915500Y-74531000D01*
X125914790Y-74545458D01*
X125912666Y-74559776D01*
X125909149Y-74573817D01*
X125904272Y-74587446D01*
X125898083Y-74600531D01*
X125890642Y-74612947D01*
X125882019Y-74624573D01*
X125872298Y-74635298D01*
X125861573Y-74645019D01*
X125849947Y-74653642D01*
X125837531Y-74661083D01*
X125824446Y-74667272D01*
X125810817Y-74672149D01*
X125796776Y-74675666D01*
X125782458Y-74677790D01*
X125768000Y-74678500D01*
X125473000Y-74678500D01*
X125458542Y-74677790D01*
X125444224Y-74675666D01*
X125430183Y-74672149D01*
X125416554Y-74667272D01*
X125403469Y-74661083D01*
X125391053Y-74653642D01*
X125379427Y-74645019D01*
X125368702Y-74635298D01*
X125358981Y-74624573D01*
X125350358Y-74612947D01*
X125342917Y-74600531D01*
X125336728Y-74587446D01*
X125331851Y-74573817D01*
X125328334Y-74559776D01*
X125326210Y-74545458D01*
X125325500Y-74531000D01*
X125325500Y-74186000D01*
X125326210Y-74171542D01*
X125328334Y-74157224D01*
X125331851Y-74143183D01*
X125336728Y-74129554D01*
X125342917Y-74116469D01*
X125350358Y-74104053D01*
X125358981Y-74092427D01*
X125368702Y-74081702D01*
X125379427Y-74071981D01*
X125391053Y-74063358D01*
X125403469Y-74055917D01*
X125416554Y-74049728D01*
X125430183Y-74044851D01*
X125444224Y-74041334D01*
X125458542Y-74039210D01*
X125473000Y-74038500D01*
X125768000Y-74038500D01*
X125782458Y-74039210D01*
G37*
G36*
X125828458Y-72007210D02*
G01*
X125842776Y-72009334D01*
X125856817Y-72012851D01*
X125870446Y-72017728D01*
X125883531Y-72023917D01*
X125895947Y-72031358D01*
X125907573Y-72039981D01*
X125918298Y-72049702D01*
X125928019Y-72060427D01*
X125936642Y-72072053D01*
X125944083Y-72084469D01*
X125950272Y-72097554D01*
X125955149Y-72111183D01*
X125958666Y-72125224D01*
X125960790Y-72139542D01*
X125961500Y-72154000D01*
X125961500Y-72499000D01*
X125960790Y-72513458D01*
X125958666Y-72527776D01*
X125955149Y-72541817D01*
X125950272Y-72555446D01*
X125944083Y-72568531D01*
X125936642Y-72580947D01*
X125928019Y-72592573D01*
X125918298Y-72603298D01*
X125907573Y-72613019D01*
X125895947Y-72621642D01*
X125883531Y-72629083D01*
X125870446Y-72635272D01*
X125856817Y-72640149D01*
X125842776Y-72643666D01*
X125828458Y-72645790D01*
X125814000Y-72646500D01*
X125519000Y-72646500D01*
X125504542Y-72645790D01*
X125490224Y-72643666D01*
X125476183Y-72640149D01*
X125462554Y-72635272D01*
X125449469Y-72629083D01*
X125437053Y-72621642D01*
X125425427Y-72613019D01*
X125414702Y-72603298D01*
X125404981Y-72592573D01*
X125396358Y-72580947D01*
X125388917Y-72568531D01*
X125382728Y-72555446D01*
X125377851Y-72541817D01*
X125374334Y-72527776D01*
X125372210Y-72513458D01*
X125371500Y-72499000D01*
X125371500Y-72154000D01*
X125372210Y-72139542D01*
X125374334Y-72125224D01*
X125377851Y-72111183D01*
X125382728Y-72097554D01*
X125388917Y-72084469D01*
X125396358Y-72072053D01*
X125404981Y-72060427D01*
X125414702Y-72049702D01*
X125425427Y-72039981D01*
X125437053Y-72031358D01*
X125449469Y-72023917D01*
X125462554Y-72017728D01*
X125476183Y-72012851D01*
X125490224Y-72009334D01*
X125504542Y-72007210D01*
X125519000Y-72006500D01*
X125814000Y-72006500D01*
X125828458Y-72007210D01*
G37*
G36*
X126798458Y-72007210D02*
G01*
X126812776Y-72009334D01*
X126826817Y-72012851D01*
X126840446Y-72017728D01*
X126853531Y-72023917D01*
X126865947Y-72031358D01*
X126877573Y-72039981D01*
X126888298Y-72049702D01*
X126898019Y-72060427D01*
X126906642Y-72072053D01*
X126914083Y-72084469D01*
X126920272Y-72097554D01*
X126925149Y-72111183D01*
X126928666Y-72125224D01*
X126930790Y-72139542D01*
X126931500Y-72154000D01*
X126931500Y-72499000D01*
X126930790Y-72513458D01*
X126928666Y-72527776D01*
X126925149Y-72541817D01*
X126920272Y-72555446D01*
X126914083Y-72568531D01*
X126906642Y-72580947D01*
X126898019Y-72592573D01*
X126888298Y-72603298D01*
X126877573Y-72613019D01*
X126865947Y-72621642D01*
X126853531Y-72629083D01*
X126840446Y-72635272D01*
X126826817Y-72640149D01*
X126812776Y-72643666D01*
X126798458Y-72645790D01*
X126784000Y-72646500D01*
X126489000Y-72646500D01*
X126474542Y-72645790D01*
X126460224Y-72643666D01*
X126446183Y-72640149D01*
X126432554Y-72635272D01*
X126419469Y-72629083D01*
X126407053Y-72621642D01*
X126395427Y-72613019D01*
X126384702Y-72603298D01*
X126374981Y-72592573D01*
X126366358Y-72580947D01*
X126358917Y-72568531D01*
X126352728Y-72555446D01*
X126347851Y-72541817D01*
X126344334Y-72527776D01*
X126342210Y-72513458D01*
X126341500Y-72499000D01*
X126341500Y-72154000D01*
X126342210Y-72139542D01*
X126344334Y-72125224D01*
X126347851Y-72111183D01*
X126352728Y-72097554D01*
X126358917Y-72084469D01*
X126366358Y-72072053D01*
X126374981Y-72060427D01*
X126384702Y-72049702D01*
X126395427Y-72039981D01*
X126407053Y-72031358D01*
X126419469Y-72023917D01*
X126432554Y-72017728D01*
X126446183Y-72012851D01*
X126460224Y-72009334D01*
X126474542Y-72007210D01*
X126489000Y-72006500D01*
X126784000Y-72006500D01*
X126798458Y-72007210D01*
G37*
G36*
X125851458Y-70991210D02*
G01*
X125865776Y-70993334D01*
X125879817Y-70996851D01*
X125893446Y-71001728D01*
X125906531Y-71007917D01*
X125918947Y-71015358D01*
X125930573Y-71023981D01*
X125941298Y-71033702D01*
X125951019Y-71044427D01*
X125959642Y-71056053D01*
X125967083Y-71068469D01*
X125973272Y-71081554D01*
X125978149Y-71095183D01*
X125981666Y-71109224D01*
X125983790Y-71123542D01*
X125984500Y-71138000D01*
X125984500Y-71483000D01*
X125983790Y-71497458D01*
X125981666Y-71511776D01*
X125978149Y-71525817D01*
X125973272Y-71539446D01*
X125967083Y-71552531D01*
X125959642Y-71564947D01*
X125951019Y-71576573D01*
X125941298Y-71587298D01*
X125930573Y-71597019D01*
X125918947Y-71605642D01*
X125906531Y-71613083D01*
X125893446Y-71619272D01*
X125879817Y-71624149D01*
X125865776Y-71627666D01*
X125851458Y-71629790D01*
X125837000Y-71630500D01*
X125542000Y-71630500D01*
X125527542Y-71629790D01*
X125513224Y-71627666D01*
X125499183Y-71624149D01*
X125485554Y-71619272D01*
X125472469Y-71613083D01*
X125460053Y-71605642D01*
X125448427Y-71597019D01*
X125437702Y-71587298D01*
X125427981Y-71576573D01*
X125419358Y-71564947D01*
X125411917Y-71552531D01*
X125405728Y-71539446D01*
X125400851Y-71525817D01*
X125397334Y-71511776D01*
X125395210Y-71497458D01*
X125394500Y-71483000D01*
X125394500Y-71138000D01*
X125395210Y-71123542D01*
X125397334Y-71109224D01*
X125400851Y-71095183D01*
X125405728Y-71081554D01*
X125411917Y-71068469D01*
X125419358Y-71056053D01*
X125427981Y-71044427D01*
X125437702Y-71033702D01*
X125448427Y-71023981D01*
X125460053Y-71015358D01*
X125472469Y-71007917D01*
X125485554Y-71001728D01*
X125499183Y-70996851D01*
X125513224Y-70993334D01*
X125527542Y-70991210D01*
X125542000Y-70990500D01*
X125837000Y-70990500D01*
X125851458Y-70991210D01*
G37*
G36*
X126821458Y-70991210D02*
G01*
X126835776Y-70993334D01*
X126849817Y-70996851D01*
X126863446Y-71001728D01*
X126876531Y-71007917D01*
X126888947Y-71015358D01*
X126900573Y-71023981D01*
X126911298Y-71033702D01*
X126921019Y-71044427D01*
X126929642Y-71056053D01*
X126937083Y-71068469D01*
X126943272Y-71081554D01*
X126948149Y-71095183D01*
X126951666Y-71109224D01*
X126953790Y-71123542D01*
X126954500Y-71138000D01*
X126954500Y-71483000D01*
X126953790Y-71497458D01*
X126951666Y-71511776D01*
X126948149Y-71525817D01*
X126943272Y-71539446D01*
X126937083Y-71552531D01*
X126929642Y-71564947D01*
X126921019Y-71576573D01*
X126911298Y-71587298D01*
X126900573Y-71597019D01*
X126888947Y-71605642D01*
X126876531Y-71613083D01*
X126863446Y-71619272D01*
X126849817Y-71624149D01*
X126835776Y-71627666D01*
X126821458Y-71629790D01*
X126807000Y-71630500D01*
X126512000Y-71630500D01*
X126497542Y-71629790D01*
X126483224Y-71627666D01*
X126469183Y-71624149D01*
X126455554Y-71619272D01*
X126442469Y-71613083D01*
X126430053Y-71605642D01*
X126418427Y-71597019D01*
X126407702Y-71587298D01*
X126397981Y-71576573D01*
X126389358Y-71564947D01*
X126381917Y-71552531D01*
X126375728Y-71539446D01*
X126370851Y-71525817D01*
X126367334Y-71511776D01*
X126365210Y-71497458D01*
X126364500Y-71483000D01*
X126364500Y-71138000D01*
X126365210Y-71123542D01*
X126367334Y-71109224D01*
X126370851Y-71095183D01*
X126375728Y-71081554D01*
X126381917Y-71068469D01*
X126389358Y-71056053D01*
X126397981Y-71044427D01*
X126407702Y-71033702D01*
X126418427Y-71023981D01*
X126430053Y-71015358D01*
X126442469Y-71007917D01*
X126455554Y-71001728D01*
X126469183Y-70996851D01*
X126483224Y-70993334D01*
X126497542Y-70991210D01*
X126512000Y-70990500D01*
X126807000Y-70990500D01*
X126821458Y-70991210D01*
G37*
G36*
X131162458Y-78357210D02*
G01*
X131176776Y-78359334D01*
X131190817Y-78362851D01*
X131204446Y-78367728D01*
X131217531Y-78373917D01*
X131229947Y-78381358D01*
X131241573Y-78389981D01*
X131252298Y-78399702D01*
X131262019Y-78410427D01*
X131270642Y-78422053D01*
X131278083Y-78434469D01*
X131284272Y-78447554D01*
X131289149Y-78461183D01*
X131292666Y-78475224D01*
X131294790Y-78489542D01*
X131295500Y-78504000D01*
X131295500Y-78849000D01*
X131294790Y-78863458D01*
X131292666Y-78877776D01*
X131289149Y-78891817D01*
X131284272Y-78905446D01*
X131278083Y-78918531D01*
X131270642Y-78930947D01*
X131262019Y-78942573D01*
X131252298Y-78953298D01*
X131241573Y-78963019D01*
X131229947Y-78971642D01*
X131217531Y-78979083D01*
X131204446Y-78985272D01*
X131190817Y-78990149D01*
X131176776Y-78993666D01*
X131162458Y-78995790D01*
X131148000Y-78996500D01*
X130853000Y-78996500D01*
X130838542Y-78995790D01*
X130824224Y-78993666D01*
X130810183Y-78990149D01*
X130796554Y-78985272D01*
X130783469Y-78979083D01*
X130771053Y-78971642D01*
X130759427Y-78963019D01*
X130748702Y-78953298D01*
X130738981Y-78942573D01*
X130730358Y-78930947D01*
X130722917Y-78918531D01*
X130716728Y-78905446D01*
X130711851Y-78891817D01*
X130708334Y-78877776D01*
X130706210Y-78863458D01*
X130705500Y-78849000D01*
X130705500Y-78504000D01*
X130706210Y-78489542D01*
X130708334Y-78475224D01*
X130711851Y-78461183D01*
X130716728Y-78447554D01*
X130722917Y-78434469D01*
X130730358Y-78422053D01*
X130738981Y-78410427D01*
X130748702Y-78399702D01*
X130759427Y-78389981D01*
X130771053Y-78381358D01*
X130783469Y-78373917D01*
X130796554Y-78367728D01*
X130810183Y-78362851D01*
X130824224Y-78359334D01*
X130838542Y-78357210D01*
X130853000Y-78356500D01*
X131148000Y-78356500D01*
X131162458Y-78357210D01*
G37*
G36*
X132132458Y-78357210D02*
G01*
X132146776Y-78359334D01*
X132160817Y-78362851D01*
X132174446Y-78367728D01*
X132187531Y-78373917D01*
X132199947Y-78381358D01*
X132211573Y-78389981D01*
X132222298Y-78399702D01*
X132232019Y-78410427D01*
X132240642Y-78422053D01*
X132248083Y-78434469D01*
X132254272Y-78447554D01*
X132259149Y-78461183D01*
X132262666Y-78475224D01*
X132264790Y-78489542D01*
X132265500Y-78504000D01*
X132265500Y-78849000D01*
X132264790Y-78863458D01*
X132262666Y-78877776D01*
X132259149Y-78891817D01*
X132254272Y-78905446D01*
X132248083Y-78918531D01*
X132240642Y-78930947D01*
X132232019Y-78942573D01*
X132222298Y-78953298D01*
X132211573Y-78963019D01*
X132199947Y-78971642D01*
X132187531Y-78979083D01*
X132174446Y-78985272D01*
X132160817Y-78990149D01*
X132146776Y-78993666D01*
X132132458Y-78995790D01*
X132118000Y-78996500D01*
X131823000Y-78996500D01*
X131808542Y-78995790D01*
X131794224Y-78993666D01*
X131780183Y-78990149D01*
X131766554Y-78985272D01*
X131753469Y-78979083D01*
X131741053Y-78971642D01*
X131729427Y-78963019D01*
X131718702Y-78953298D01*
X131708981Y-78942573D01*
X131700358Y-78930947D01*
X131692917Y-78918531D01*
X131686728Y-78905446D01*
X131681851Y-78891817D01*
X131678334Y-78877776D01*
X131676210Y-78863458D01*
X131675500Y-78849000D01*
X131675500Y-78504000D01*
X131676210Y-78489542D01*
X131678334Y-78475224D01*
X131681851Y-78461183D01*
X131686728Y-78447554D01*
X131692917Y-78434469D01*
X131700358Y-78422053D01*
X131708981Y-78410427D01*
X131718702Y-78399702D01*
X131729427Y-78389981D01*
X131741053Y-78381358D01*
X131753469Y-78373917D01*
X131766554Y-78367728D01*
X131780183Y-78362851D01*
X131794224Y-78359334D01*
X131808542Y-78357210D01*
X131823000Y-78356500D01*
X132118000Y-78356500D01*
X132132458Y-78357210D01*
G37*
G36*
X131162458Y-77087210D02*
G01*
X131176776Y-77089334D01*
X131190817Y-77092851D01*
X131204446Y-77097728D01*
X131217531Y-77103917D01*
X131229947Y-77111358D01*
X131241573Y-77119981D01*
X131252298Y-77129702D01*
X131262019Y-77140427D01*
X131270642Y-77152053D01*
X131278083Y-77164469D01*
X131284272Y-77177554D01*
X131289149Y-77191183D01*
X131292666Y-77205224D01*
X131294790Y-77219542D01*
X131295500Y-77234000D01*
X131295500Y-77579000D01*
X131294790Y-77593458D01*
X131292666Y-77607776D01*
X131289149Y-77621817D01*
X131284272Y-77635446D01*
X131278083Y-77648531D01*
X131270642Y-77660947D01*
X131262019Y-77672573D01*
X131252298Y-77683298D01*
X131241573Y-77693019D01*
X131229947Y-77701642D01*
X131217531Y-77709083D01*
X131204446Y-77715272D01*
X131190817Y-77720149D01*
X131176776Y-77723666D01*
X131162458Y-77725790D01*
X131148000Y-77726500D01*
X130853000Y-77726500D01*
X130838542Y-77725790D01*
X130824224Y-77723666D01*
X130810183Y-77720149D01*
X130796554Y-77715272D01*
X130783469Y-77709083D01*
X130771053Y-77701642D01*
X130759427Y-77693019D01*
X130748702Y-77683298D01*
X130738981Y-77672573D01*
X130730358Y-77660947D01*
X130722917Y-77648531D01*
X130716728Y-77635446D01*
X130711851Y-77621817D01*
X130708334Y-77607776D01*
X130706210Y-77593458D01*
X130705500Y-77579000D01*
X130705500Y-77234000D01*
X130706210Y-77219542D01*
X130708334Y-77205224D01*
X130711851Y-77191183D01*
X130716728Y-77177554D01*
X130722917Y-77164469D01*
X130730358Y-77152053D01*
X130738981Y-77140427D01*
X130748702Y-77129702D01*
X130759427Y-77119981D01*
X130771053Y-77111358D01*
X130783469Y-77103917D01*
X130796554Y-77097728D01*
X130810183Y-77092851D01*
X130824224Y-77089334D01*
X130838542Y-77087210D01*
X130853000Y-77086500D01*
X131148000Y-77086500D01*
X131162458Y-77087210D01*
G37*
G36*
X132132458Y-77087210D02*
G01*
X132146776Y-77089334D01*
X132160817Y-77092851D01*
X132174446Y-77097728D01*
X132187531Y-77103917D01*
X132199947Y-77111358D01*
X132211573Y-77119981D01*
X132222298Y-77129702D01*
X132232019Y-77140427D01*
X132240642Y-77152053D01*
X132248083Y-77164469D01*
X132254272Y-77177554D01*
X132259149Y-77191183D01*
X132262666Y-77205224D01*
X132264790Y-77219542D01*
X132265500Y-77234000D01*
X132265500Y-77579000D01*
X132264790Y-77593458D01*
X132262666Y-77607776D01*
X132259149Y-77621817D01*
X132254272Y-77635446D01*
X132248083Y-77648531D01*
X132240642Y-77660947D01*
X132232019Y-77672573D01*
X132222298Y-77683298D01*
X132211573Y-77693019D01*
X132199947Y-77701642D01*
X132187531Y-77709083D01*
X132174446Y-77715272D01*
X132160817Y-77720149D01*
X132146776Y-77723666D01*
X132132458Y-77725790D01*
X132118000Y-77726500D01*
X131823000Y-77726500D01*
X131808542Y-77725790D01*
X131794224Y-77723666D01*
X131780183Y-77720149D01*
X131766554Y-77715272D01*
X131753469Y-77709083D01*
X131741053Y-77701642D01*
X131729427Y-77693019D01*
X131718702Y-77683298D01*
X131708981Y-77672573D01*
X131700358Y-77660947D01*
X131692917Y-77648531D01*
X131686728Y-77635446D01*
X131681851Y-77621817D01*
X131678334Y-77607776D01*
X131676210Y-77593458D01*
X131675500Y-77579000D01*
X131675500Y-77234000D01*
X131676210Y-77219542D01*
X131678334Y-77205224D01*
X131681851Y-77191183D01*
X131686728Y-77177554D01*
X131692917Y-77164469D01*
X131700358Y-77152053D01*
X131708981Y-77140427D01*
X131718702Y-77129702D01*
X131729427Y-77119981D01*
X131741053Y-77111358D01*
X131753469Y-77103917D01*
X131766554Y-77097728D01*
X131780183Y-77092851D01*
X131794224Y-77089334D01*
X131808542Y-77087210D01*
X131823000Y-77086500D01*
X132118000Y-77086500D01*
X132132458Y-77087210D01*
G37*
D16*
X153076000Y-100396000D03*
X153076000Y-102296000D03*
X150876000Y-102296000D03*
X150876000Y-101346000D03*
X150876000Y-100396000D03*
X152992000Y-87696000D03*
X152992000Y-89596000D03*
X150792000Y-89596000D03*
X150792000Y-88646000D03*
X150792000Y-87696000D03*
D14*
G36*
X148497958Y-99756710D02*
G01*
X148512276Y-99758834D01*
X148526317Y-99762351D01*
X148539946Y-99767228D01*
X148553031Y-99773417D01*
X148565447Y-99780858D01*
X148577073Y-99789481D01*
X148587798Y-99799202D01*
X148597519Y-99809927D01*
X148606142Y-99821553D01*
X148613583Y-99833969D01*
X148619772Y-99847054D01*
X148624649Y-99860683D01*
X148628166Y-99874724D01*
X148630290Y-99889042D01*
X148631000Y-99903500D01*
X148631000Y-100248500D01*
X148630290Y-100262958D01*
X148628166Y-100277276D01*
X148624649Y-100291317D01*
X148619772Y-100304946D01*
X148613583Y-100318031D01*
X148606142Y-100330447D01*
X148597519Y-100342073D01*
X148587798Y-100352798D01*
X148577073Y-100362519D01*
X148565447Y-100371142D01*
X148553031Y-100378583D01*
X148539946Y-100384772D01*
X148526317Y-100389649D01*
X148512276Y-100393166D01*
X148497958Y-100395290D01*
X148483500Y-100396000D01*
X148188500Y-100396000D01*
X148174042Y-100395290D01*
X148159724Y-100393166D01*
X148145683Y-100389649D01*
X148132054Y-100384772D01*
X148118969Y-100378583D01*
X148106553Y-100371142D01*
X148094927Y-100362519D01*
X148084202Y-100352798D01*
X148074481Y-100342073D01*
X148065858Y-100330447D01*
X148058417Y-100318031D01*
X148052228Y-100304946D01*
X148047351Y-100291317D01*
X148043834Y-100277276D01*
X148041710Y-100262958D01*
X148041000Y-100248500D01*
X148041000Y-99903500D01*
X148041710Y-99889042D01*
X148043834Y-99874724D01*
X148047351Y-99860683D01*
X148052228Y-99847054D01*
X148058417Y-99833969D01*
X148065858Y-99821553D01*
X148074481Y-99809927D01*
X148084202Y-99799202D01*
X148094927Y-99789481D01*
X148106553Y-99780858D01*
X148118969Y-99773417D01*
X148132054Y-99767228D01*
X148145683Y-99762351D01*
X148159724Y-99758834D01*
X148174042Y-99756710D01*
X148188500Y-99756000D01*
X148483500Y-99756000D01*
X148497958Y-99756710D01*
G37*
G36*
X147527958Y-99756710D02*
G01*
X147542276Y-99758834D01*
X147556317Y-99762351D01*
X147569946Y-99767228D01*
X147583031Y-99773417D01*
X147595447Y-99780858D01*
X147607073Y-99789481D01*
X147617798Y-99799202D01*
X147627519Y-99809927D01*
X147636142Y-99821553D01*
X147643583Y-99833969D01*
X147649772Y-99847054D01*
X147654649Y-99860683D01*
X147658166Y-99874724D01*
X147660290Y-99889042D01*
X147661000Y-99903500D01*
X147661000Y-100248500D01*
X147660290Y-100262958D01*
X147658166Y-100277276D01*
X147654649Y-100291317D01*
X147649772Y-100304946D01*
X147643583Y-100318031D01*
X147636142Y-100330447D01*
X147627519Y-100342073D01*
X147617798Y-100352798D01*
X147607073Y-100362519D01*
X147595447Y-100371142D01*
X147583031Y-100378583D01*
X147569946Y-100384772D01*
X147556317Y-100389649D01*
X147542276Y-100393166D01*
X147527958Y-100395290D01*
X147513500Y-100396000D01*
X147218500Y-100396000D01*
X147204042Y-100395290D01*
X147189724Y-100393166D01*
X147175683Y-100389649D01*
X147162054Y-100384772D01*
X147148969Y-100378583D01*
X147136553Y-100371142D01*
X147124927Y-100362519D01*
X147114202Y-100352798D01*
X147104481Y-100342073D01*
X147095858Y-100330447D01*
X147088417Y-100318031D01*
X147082228Y-100304946D01*
X147077351Y-100291317D01*
X147073834Y-100277276D01*
X147071710Y-100262958D01*
X147071000Y-100248500D01*
X147071000Y-99903500D01*
X147071710Y-99889042D01*
X147073834Y-99874724D01*
X147077351Y-99860683D01*
X147082228Y-99847054D01*
X147088417Y-99833969D01*
X147095858Y-99821553D01*
X147104481Y-99809927D01*
X147114202Y-99799202D01*
X147124927Y-99789481D01*
X147136553Y-99780858D01*
X147148969Y-99773417D01*
X147162054Y-99767228D01*
X147175683Y-99762351D01*
X147189724Y-99758834D01*
X147204042Y-99756710D01*
X147218500Y-99756000D01*
X147513500Y-99756000D01*
X147527958Y-99756710D01*
G37*
G36*
X147527958Y-102296710D02*
G01*
X147542276Y-102298834D01*
X147556317Y-102302351D01*
X147569946Y-102307228D01*
X147583031Y-102313417D01*
X147595447Y-102320858D01*
X147607073Y-102329481D01*
X147617798Y-102339202D01*
X147627519Y-102349927D01*
X147636142Y-102361553D01*
X147643583Y-102373969D01*
X147649772Y-102387054D01*
X147654649Y-102400683D01*
X147658166Y-102414724D01*
X147660290Y-102429042D01*
X147661000Y-102443500D01*
X147661000Y-102788500D01*
X147660290Y-102802958D01*
X147658166Y-102817276D01*
X147654649Y-102831317D01*
X147649772Y-102844946D01*
X147643583Y-102858031D01*
X147636142Y-102870447D01*
X147627519Y-102882073D01*
X147617798Y-102892798D01*
X147607073Y-102902519D01*
X147595447Y-102911142D01*
X147583031Y-102918583D01*
X147569946Y-102924772D01*
X147556317Y-102929649D01*
X147542276Y-102933166D01*
X147527958Y-102935290D01*
X147513500Y-102936000D01*
X147218500Y-102936000D01*
X147204042Y-102935290D01*
X147189724Y-102933166D01*
X147175683Y-102929649D01*
X147162054Y-102924772D01*
X147148969Y-102918583D01*
X147136553Y-102911142D01*
X147124927Y-102902519D01*
X147114202Y-102892798D01*
X147104481Y-102882073D01*
X147095858Y-102870447D01*
X147088417Y-102858031D01*
X147082228Y-102844946D01*
X147077351Y-102831317D01*
X147073834Y-102817276D01*
X147071710Y-102802958D01*
X147071000Y-102788500D01*
X147071000Y-102443500D01*
X147071710Y-102429042D01*
X147073834Y-102414724D01*
X147077351Y-102400683D01*
X147082228Y-102387054D01*
X147088417Y-102373969D01*
X147095858Y-102361553D01*
X147104481Y-102349927D01*
X147114202Y-102339202D01*
X147124927Y-102329481D01*
X147136553Y-102320858D01*
X147148969Y-102313417D01*
X147162054Y-102307228D01*
X147175683Y-102302351D01*
X147189724Y-102298834D01*
X147204042Y-102296710D01*
X147218500Y-102296000D01*
X147513500Y-102296000D01*
X147527958Y-102296710D01*
G37*
G36*
X148497958Y-102296710D02*
G01*
X148512276Y-102298834D01*
X148526317Y-102302351D01*
X148539946Y-102307228D01*
X148553031Y-102313417D01*
X148565447Y-102320858D01*
X148577073Y-102329481D01*
X148587798Y-102339202D01*
X148597519Y-102349927D01*
X148606142Y-102361553D01*
X148613583Y-102373969D01*
X148619772Y-102387054D01*
X148624649Y-102400683D01*
X148628166Y-102414724D01*
X148630290Y-102429042D01*
X148631000Y-102443500D01*
X148631000Y-102788500D01*
X148630290Y-102802958D01*
X148628166Y-102817276D01*
X148624649Y-102831317D01*
X148619772Y-102844946D01*
X148613583Y-102858031D01*
X148606142Y-102870447D01*
X148597519Y-102882073D01*
X148587798Y-102892798D01*
X148577073Y-102902519D01*
X148565447Y-102911142D01*
X148553031Y-102918583D01*
X148539946Y-102924772D01*
X148526317Y-102929649D01*
X148512276Y-102933166D01*
X148497958Y-102935290D01*
X148483500Y-102936000D01*
X148188500Y-102936000D01*
X148174042Y-102935290D01*
X148159724Y-102933166D01*
X148145683Y-102929649D01*
X148132054Y-102924772D01*
X148118969Y-102918583D01*
X148106553Y-102911142D01*
X148094927Y-102902519D01*
X148084202Y-102892798D01*
X148074481Y-102882073D01*
X148065858Y-102870447D01*
X148058417Y-102858031D01*
X148052228Y-102844946D01*
X148047351Y-102831317D01*
X148043834Y-102817276D01*
X148041710Y-102802958D01*
X148041000Y-102788500D01*
X148041000Y-102443500D01*
X148041710Y-102429042D01*
X148043834Y-102414724D01*
X148047351Y-102400683D01*
X148052228Y-102387054D01*
X148058417Y-102373969D01*
X148065858Y-102361553D01*
X148074481Y-102349927D01*
X148084202Y-102339202D01*
X148094927Y-102329481D01*
X148106553Y-102320858D01*
X148118969Y-102313417D01*
X148132054Y-102307228D01*
X148145683Y-102302351D01*
X148159724Y-102298834D01*
X148174042Y-102296710D01*
X148188500Y-102296000D01*
X148483500Y-102296000D01*
X148497958Y-102296710D01*
G37*
G36*
X148035958Y-87056710D02*
G01*
X148050276Y-87058834D01*
X148064317Y-87062351D01*
X148077946Y-87067228D01*
X148091031Y-87073417D01*
X148103447Y-87080858D01*
X148115073Y-87089481D01*
X148125798Y-87099202D01*
X148135519Y-87109927D01*
X148144142Y-87121553D01*
X148151583Y-87133969D01*
X148157772Y-87147054D01*
X148162649Y-87160683D01*
X148166166Y-87174724D01*
X148168290Y-87189042D01*
X148169000Y-87203500D01*
X148169000Y-87548500D01*
X148168290Y-87562958D01*
X148166166Y-87577276D01*
X148162649Y-87591317D01*
X148157772Y-87604946D01*
X148151583Y-87618031D01*
X148144142Y-87630447D01*
X148135519Y-87642073D01*
X148125798Y-87652798D01*
X148115073Y-87662519D01*
X148103447Y-87671142D01*
X148091031Y-87678583D01*
X148077946Y-87684772D01*
X148064317Y-87689649D01*
X148050276Y-87693166D01*
X148035958Y-87695290D01*
X148021500Y-87696000D01*
X147726500Y-87696000D01*
X147712042Y-87695290D01*
X147697724Y-87693166D01*
X147683683Y-87689649D01*
X147670054Y-87684772D01*
X147656969Y-87678583D01*
X147644553Y-87671142D01*
X147632927Y-87662519D01*
X147622202Y-87652798D01*
X147612481Y-87642073D01*
X147603858Y-87630447D01*
X147596417Y-87618031D01*
X147590228Y-87604946D01*
X147585351Y-87591317D01*
X147581834Y-87577276D01*
X147579710Y-87562958D01*
X147579000Y-87548500D01*
X147579000Y-87203500D01*
X147579710Y-87189042D01*
X147581834Y-87174724D01*
X147585351Y-87160683D01*
X147590228Y-87147054D01*
X147596417Y-87133969D01*
X147603858Y-87121553D01*
X147612481Y-87109927D01*
X147622202Y-87099202D01*
X147632927Y-87089481D01*
X147644553Y-87080858D01*
X147656969Y-87073417D01*
X147670054Y-87067228D01*
X147683683Y-87062351D01*
X147697724Y-87058834D01*
X147712042Y-87056710D01*
X147726500Y-87056000D01*
X148021500Y-87056000D01*
X148035958Y-87056710D01*
G37*
G36*
X149005958Y-87056710D02*
G01*
X149020276Y-87058834D01*
X149034317Y-87062351D01*
X149047946Y-87067228D01*
X149061031Y-87073417D01*
X149073447Y-87080858D01*
X149085073Y-87089481D01*
X149095798Y-87099202D01*
X149105519Y-87109927D01*
X149114142Y-87121553D01*
X149121583Y-87133969D01*
X149127772Y-87147054D01*
X149132649Y-87160683D01*
X149136166Y-87174724D01*
X149138290Y-87189042D01*
X149139000Y-87203500D01*
X149139000Y-87548500D01*
X149138290Y-87562958D01*
X149136166Y-87577276D01*
X149132649Y-87591317D01*
X149127772Y-87604946D01*
X149121583Y-87618031D01*
X149114142Y-87630447D01*
X149105519Y-87642073D01*
X149095798Y-87652798D01*
X149085073Y-87662519D01*
X149073447Y-87671142D01*
X149061031Y-87678583D01*
X149047946Y-87684772D01*
X149034317Y-87689649D01*
X149020276Y-87693166D01*
X149005958Y-87695290D01*
X148991500Y-87696000D01*
X148696500Y-87696000D01*
X148682042Y-87695290D01*
X148667724Y-87693166D01*
X148653683Y-87689649D01*
X148640054Y-87684772D01*
X148626969Y-87678583D01*
X148614553Y-87671142D01*
X148602927Y-87662519D01*
X148592202Y-87652798D01*
X148582481Y-87642073D01*
X148573858Y-87630447D01*
X148566417Y-87618031D01*
X148560228Y-87604946D01*
X148555351Y-87591317D01*
X148551834Y-87577276D01*
X148549710Y-87562958D01*
X148549000Y-87548500D01*
X148549000Y-87203500D01*
X148549710Y-87189042D01*
X148551834Y-87174724D01*
X148555351Y-87160683D01*
X148560228Y-87147054D01*
X148566417Y-87133969D01*
X148573858Y-87121553D01*
X148582481Y-87109927D01*
X148592202Y-87099202D01*
X148602927Y-87089481D01*
X148614553Y-87080858D01*
X148626969Y-87073417D01*
X148640054Y-87067228D01*
X148653683Y-87062351D01*
X148667724Y-87058834D01*
X148682042Y-87056710D01*
X148696500Y-87056000D01*
X148991500Y-87056000D01*
X149005958Y-87056710D01*
G37*
D17*
X156972000Y-68128000D03*
D18*
X156972000Y-71628000D03*
D14*
G36*
X155528958Y-102550710D02*
G01*
X155543276Y-102552834D01*
X155557317Y-102556351D01*
X155570946Y-102561228D01*
X155584031Y-102567417D01*
X155596447Y-102574858D01*
X155608073Y-102583481D01*
X155618798Y-102593202D01*
X155628519Y-102603927D01*
X155637142Y-102615553D01*
X155644583Y-102627969D01*
X155650772Y-102641054D01*
X155655649Y-102654683D01*
X155659166Y-102668724D01*
X155661290Y-102683042D01*
X155662000Y-102697500D01*
X155662000Y-103042500D01*
X155661290Y-103056958D01*
X155659166Y-103071276D01*
X155655649Y-103085317D01*
X155650772Y-103098946D01*
X155644583Y-103112031D01*
X155637142Y-103124447D01*
X155628519Y-103136073D01*
X155618798Y-103146798D01*
X155608073Y-103156519D01*
X155596447Y-103165142D01*
X155584031Y-103172583D01*
X155570946Y-103178772D01*
X155557317Y-103183649D01*
X155543276Y-103187166D01*
X155528958Y-103189290D01*
X155514500Y-103190000D01*
X155219500Y-103190000D01*
X155205042Y-103189290D01*
X155190724Y-103187166D01*
X155176683Y-103183649D01*
X155163054Y-103178772D01*
X155149969Y-103172583D01*
X155137553Y-103165142D01*
X155125927Y-103156519D01*
X155115202Y-103146798D01*
X155105481Y-103136073D01*
X155096858Y-103124447D01*
X155089417Y-103112031D01*
X155083228Y-103098946D01*
X155078351Y-103085317D01*
X155074834Y-103071276D01*
X155072710Y-103056958D01*
X155072000Y-103042500D01*
X155072000Y-102697500D01*
X155072710Y-102683042D01*
X155074834Y-102668724D01*
X155078351Y-102654683D01*
X155083228Y-102641054D01*
X155089417Y-102627969D01*
X155096858Y-102615553D01*
X155105481Y-102603927D01*
X155115202Y-102593202D01*
X155125927Y-102583481D01*
X155137553Y-102574858D01*
X155149969Y-102567417D01*
X155163054Y-102561228D01*
X155176683Y-102556351D01*
X155190724Y-102552834D01*
X155205042Y-102550710D01*
X155219500Y-102550000D01*
X155514500Y-102550000D01*
X155528958Y-102550710D01*
G37*
G36*
X156498958Y-102550710D02*
G01*
X156513276Y-102552834D01*
X156527317Y-102556351D01*
X156540946Y-102561228D01*
X156554031Y-102567417D01*
X156566447Y-102574858D01*
X156578073Y-102583481D01*
X156588798Y-102593202D01*
X156598519Y-102603927D01*
X156607142Y-102615553D01*
X156614583Y-102627969D01*
X156620772Y-102641054D01*
X156625649Y-102654683D01*
X156629166Y-102668724D01*
X156631290Y-102683042D01*
X156632000Y-102697500D01*
X156632000Y-103042500D01*
X156631290Y-103056958D01*
X156629166Y-103071276D01*
X156625649Y-103085317D01*
X156620772Y-103098946D01*
X156614583Y-103112031D01*
X156607142Y-103124447D01*
X156598519Y-103136073D01*
X156588798Y-103146798D01*
X156578073Y-103156519D01*
X156566447Y-103165142D01*
X156554031Y-103172583D01*
X156540946Y-103178772D01*
X156527317Y-103183649D01*
X156513276Y-103187166D01*
X156498958Y-103189290D01*
X156484500Y-103190000D01*
X156189500Y-103190000D01*
X156175042Y-103189290D01*
X156160724Y-103187166D01*
X156146683Y-103183649D01*
X156133054Y-103178772D01*
X156119969Y-103172583D01*
X156107553Y-103165142D01*
X156095927Y-103156519D01*
X156085202Y-103146798D01*
X156075481Y-103136073D01*
X156066858Y-103124447D01*
X156059417Y-103112031D01*
X156053228Y-103098946D01*
X156048351Y-103085317D01*
X156044834Y-103071276D01*
X156042710Y-103056958D01*
X156042000Y-103042500D01*
X156042000Y-102697500D01*
X156042710Y-102683042D01*
X156044834Y-102668724D01*
X156048351Y-102654683D01*
X156053228Y-102641054D01*
X156059417Y-102627969D01*
X156066858Y-102615553D01*
X156075481Y-102603927D01*
X156085202Y-102593202D01*
X156095927Y-102583481D01*
X156107553Y-102574858D01*
X156119969Y-102567417D01*
X156133054Y-102561228D01*
X156146683Y-102556351D01*
X156160724Y-102552834D01*
X156175042Y-102550710D01*
X156189500Y-102550000D01*
X156484500Y-102550000D01*
X156498958Y-102550710D01*
G37*
G36*
X158403958Y-102550710D02*
G01*
X158418276Y-102552834D01*
X158432317Y-102556351D01*
X158445946Y-102561228D01*
X158459031Y-102567417D01*
X158471447Y-102574858D01*
X158483073Y-102583481D01*
X158493798Y-102593202D01*
X158503519Y-102603927D01*
X158512142Y-102615553D01*
X158519583Y-102627969D01*
X158525772Y-102641054D01*
X158530649Y-102654683D01*
X158534166Y-102668724D01*
X158536290Y-102683042D01*
X158537000Y-102697500D01*
X158537000Y-103042500D01*
X158536290Y-103056958D01*
X158534166Y-103071276D01*
X158530649Y-103085317D01*
X158525772Y-103098946D01*
X158519583Y-103112031D01*
X158512142Y-103124447D01*
X158503519Y-103136073D01*
X158493798Y-103146798D01*
X158483073Y-103156519D01*
X158471447Y-103165142D01*
X158459031Y-103172583D01*
X158445946Y-103178772D01*
X158432317Y-103183649D01*
X158418276Y-103187166D01*
X158403958Y-103189290D01*
X158389500Y-103190000D01*
X158094500Y-103190000D01*
X158080042Y-103189290D01*
X158065724Y-103187166D01*
X158051683Y-103183649D01*
X158038054Y-103178772D01*
X158024969Y-103172583D01*
X158012553Y-103165142D01*
X158000927Y-103156519D01*
X157990202Y-103146798D01*
X157980481Y-103136073D01*
X157971858Y-103124447D01*
X157964417Y-103112031D01*
X157958228Y-103098946D01*
X157953351Y-103085317D01*
X157949834Y-103071276D01*
X157947710Y-103056958D01*
X157947000Y-103042500D01*
X157947000Y-102697500D01*
X157947710Y-102683042D01*
X157949834Y-102668724D01*
X157953351Y-102654683D01*
X157958228Y-102641054D01*
X157964417Y-102627969D01*
X157971858Y-102615553D01*
X157980481Y-102603927D01*
X157990202Y-102593202D01*
X158000927Y-102583481D01*
X158012553Y-102574858D01*
X158024969Y-102567417D01*
X158038054Y-102561228D01*
X158051683Y-102556351D01*
X158065724Y-102552834D01*
X158080042Y-102550710D01*
X158094500Y-102550000D01*
X158389500Y-102550000D01*
X158403958Y-102550710D01*
G37*
G36*
X159373958Y-102550710D02*
G01*
X159388276Y-102552834D01*
X159402317Y-102556351D01*
X159415946Y-102561228D01*
X159429031Y-102567417D01*
X159441447Y-102574858D01*
X159453073Y-102583481D01*
X159463798Y-102593202D01*
X159473519Y-102603927D01*
X159482142Y-102615553D01*
X159489583Y-102627969D01*
X159495772Y-102641054D01*
X159500649Y-102654683D01*
X159504166Y-102668724D01*
X159506290Y-102683042D01*
X159507000Y-102697500D01*
X159507000Y-103042500D01*
X159506290Y-103056958D01*
X159504166Y-103071276D01*
X159500649Y-103085317D01*
X159495772Y-103098946D01*
X159489583Y-103112031D01*
X159482142Y-103124447D01*
X159473519Y-103136073D01*
X159463798Y-103146798D01*
X159453073Y-103156519D01*
X159441447Y-103165142D01*
X159429031Y-103172583D01*
X159415946Y-103178772D01*
X159402317Y-103183649D01*
X159388276Y-103187166D01*
X159373958Y-103189290D01*
X159359500Y-103190000D01*
X159064500Y-103190000D01*
X159050042Y-103189290D01*
X159035724Y-103187166D01*
X159021683Y-103183649D01*
X159008054Y-103178772D01*
X158994969Y-103172583D01*
X158982553Y-103165142D01*
X158970927Y-103156519D01*
X158960202Y-103146798D01*
X158950481Y-103136073D01*
X158941858Y-103124447D01*
X158934417Y-103112031D01*
X158928228Y-103098946D01*
X158923351Y-103085317D01*
X158919834Y-103071276D01*
X158917710Y-103056958D01*
X158917000Y-103042500D01*
X158917000Y-102697500D01*
X158917710Y-102683042D01*
X158919834Y-102668724D01*
X158923351Y-102654683D01*
X158928228Y-102641054D01*
X158934417Y-102627969D01*
X158941858Y-102615553D01*
X158950481Y-102603927D01*
X158960202Y-102593202D01*
X158970927Y-102583481D01*
X158982553Y-102574858D01*
X158994969Y-102567417D01*
X159008054Y-102561228D01*
X159021683Y-102556351D01*
X159035724Y-102552834D01*
X159050042Y-102550710D01*
X159064500Y-102550000D01*
X159359500Y-102550000D01*
X159373958Y-102550710D01*
G37*
G36*
X158426958Y-100010710D02*
G01*
X158441276Y-100012834D01*
X158455317Y-100016351D01*
X158468946Y-100021228D01*
X158482031Y-100027417D01*
X158494447Y-100034858D01*
X158506073Y-100043481D01*
X158516798Y-100053202D01*
X158526519Y-100063927D01*
X158535142Y-100075553D01*
X158542583Y-100087969D01*
X158548772Y-100101054D01*
X158553649Y-100114683D01*
X158557166Y-100128724D01*
X158559290Y-100143042D01*
X158560000Y-100157500D01*
X158560000Y-100502500D01*
X158559290Y-100516958D01*
X158557166Y-100531276D01*
X158553649Y-100545317D01*
X158548772Y-100558946D01*
X158542583Y-100572031D01*
X158535142Y-100584447D01*
X158526519Y-100596073D01*
X158516798Y-100606798D01*
X158506073Y-100616519D01*
X158494447Y-100625142D01*
X158482031Y-100632583D01*
X158468946Y-100638772D01*
X158455317Y-100643649D01*
X158441276Y-100647166D01*
X158426958Y-100649290D01*
X158412500Y-100650000D01*
X158117500Y-100650000D01*
X158103042Y-100649290D01*
X158088724Y-100647166D01*
X158074683Y-100643649D01*
X158061054Y-100638772D01*
X158047969Y-100632583D01*
X158035553Y-100625142D01*
X158023927Y-100616519D01*
X158013202Y-100606798D01*
X158003481Y-100596073D01*
X157994858Y-100584447D01*
X157987417Y-100572031D01*
X157981228Y-100558946D01*
X157976351Y-100545317D01*
X157972834Y-100531276D01*
X157970710Y-100516958D01*
X157970000Y-100502500D01*
X157970000Y-100157500D01*
X157970710Y-100143042D01*
X157972834Y-100128724D01*
X157976351Y-100114683D01*
X157981228Y-100101054D01*
X157987417Y-100087969D01*
X157994858Y-100075553D01*
X158003481Y-100063927D01*
X158013202Y-100053202D01*
X158023927Y-100043481D01*
X158035553Y-100034858D01*
X158047969Y-100027417D01*
X158061054Y-100021228D01*
X158074683Y-100016351D01*
X158088724Y-100012834D01*
X158103042Y-100010710D01*
X158117500Y-100010000D01*
X158412500Y-100010000D01*
X158426958Y-100010710D01*
G37*
G36*
X159396958Y-100010710D02*
G01*
X159411276Y-100012834D01*
X159425317Y-100016351D01*
X159438946Y-100021228D01*
X159452031Y-100027417D01*
X159464447Y-100034858D01*
X159476073Y-100043481D01*
X159486798Y-100053202D01*
X159496519Y-100063927D01*
X159505142Y-100075553D01*
X159512583Y-100087969D01*
X159518772Y-100101054D01*
X159523649Y-100114683D01*
X159527166Y-100128724D01*
X159529290Y-100143042D01*
X159530000Y-100157500D01*
X159530000Y-100502500D01*
X159529290Y-100516958D01*
X159527166Y-100531276D01*
X159523649Y-100545317D01*
X159518772Y-100558946D01*
X159512583Y-100572031D01*
X159505142Y-100584447D01*
X159496519Y-100596073D01*
X159486798Y-100606798D01*
X159476073Y-100616519D01*
X159464447Y-100625142D01*
X159452031Y-100632583D01*
X159438946Y-100638772D01*
X159425317Y-100643649D01*
X159411276Y-100647166D01*
X159396958Y-100649290D01*
X159382500Y-100650000D01*
X159087500Y-100650000D01*
X159073042Y-100649290D01*
X159058724Y-100647166D01*
X159044683Y-100643649D01*
X159031054Y-100638772D01*
X159017969Y-100632583D01*
X159005553Y-100625142D01*
X158993927Y-100616519D01*
X158983202Y-100606798D01*
X158973481Y-100596073D01*
X158964858Y-100584447D01*
X158957417Y-100572031D01*
X158951228Y-100558946D01*
X158946351Y-100545317D01*
X158942834Y-100531276D01*
X158940710Y-100516958D01*
X158940000Y-100502500D01*
X158940000Y-100157500D01*
X158940710Y-100143042D01*
X158942834Y-100128724D01*
X158946351Y-100114683D01*
X158951228Y-100101054D01*
X158957417Y-100087969D01*
X158964858Y-100075553D01*
X158973481Y-100063927D01*
X158983202Y-100053202D01*
X158993927Y-100043481D01*
X159005553Y-100034858D01*
X159017969Y-100027417D01*
X159031054Y-100021228D01*
X159044683Y-100016351D01*
X159058724Y-100012834D01*
X159073042Y-100010710D01*
X159087500Y-100010000D01*
X159382500Y-100010000D01*
X159396958Y-100010710D01*
G37*
G36*
X156579958Y-93152710D02*
G01*
X156594276Y-93154834D01*
X156608317Y-93158351D01*
X156621946Y-93163228D01*
X156635031Y-93169417D01*
X156647447Y-93176858D01*
X156659073Y-93185481D01*
X156669798Y-93195202D01*
X156679519Y-93205927D01*
X156688142Y-93217553D01*
X156695583Y-93229969D01*
X156701772Y-93243054D01*
X156706649Y-93256683D01*
X156710166Y-93270724D01*
X156712290Y-93285042D01*
X156713000Y-93299500D01*
X156713000Y-93644500D01*
X156712290Y-93658958D01*
X156710166Y-93673276D01*
X156706649Y-93687317D01*
X156701772Y-93700946D01*
X156695583Y-93714031D01*
X156688142Y-93726447D01*
X156679519Y-93738073D01*
X156669798Y-93748798D01*
X156659073Y-93758519D01*
X156647447Y-93767142D01*
X156635031Y-93774583D01*
X156621946Y-93780772D01*
X156608317Y-93785649D01*
X156594276Y-93789166D01*
X156579958Y-93791290D01*
X156565500Y-93792000D01*
X156270500Y-93792000D01*
X156256042Y-93791290D01*
X156241724Y-93789166D01*
X156227683Y-93785649D01*
X156214054Y-93780772D01*
X156200969Y-93774583D01*
X156188553Y-93767142D01*
X156176927Y-93758519D01*
X156166202Y-93748798D01*
X156156481Y-93738073D01*
X156147858Y-93726447D01*
X156140417Y-93714031D01*
X156134228Y-93700946D01*
X156129351Y-93687317D01*
X156125834Y-93673276D01*
X156123710Y-93658958D01*
X156123000Y-93644500D01*
X156123000Y-93299500D01*
X156123710Y-93285042D01*
X156125834Y-93270724D01*
X156129351Y-93256683D01*
X156134228Y-93243054D01*
X156140417Y-93229969D01*
X156147858Y-93217553D01*
X156156481Y-93205927D01*
X156166202Y-93195202D01*
X156176927Y-93185481D01*
X156188553Y-93176858D01*
X156200969Y-93169417D01*
X156214054Y-93163228D01*
X156227683Y-93158351D01*
X156241724Y-93154834D01*
X156256042Y-93152710D01*
X156270500Y-93152000D01*
X156565500Y-93152000D01*
X156579958Y-93152710D01*
G37*
G36*
X155609958Y-93152710D02*
G01*
X155624276Y-93154834D01*
X155638317Y-93158351D01*
X155651946Y-93163228D01*
X155665031Y-93169417D01*
X155677447Y-93176858D01*
X155689073Y-93185481D01*
X155699798Y-93195202D01*
X155709519Y-93205927D01*
X155718142Y-93217553D01*
X155725583Y-93229969D01*
X155731772Y-93243054D01*
X155736649Y-93256683D01*
X155740166Y-93270724D01*
X155742290Y-93285042D01*
X155743000Y-93299500D01*
X155743000Y-93644500D01*
X155742290Y-93658958D01*
X155740166Y-93673276D01*
X155736649Y-93687317D01*
X155731772Y-93700946D01*
X155725583Y-93714031D01*
X155718142Y-93726447D01*
X155709519Y-93738073D01*
X155699798Y-93748798D01*
X155689073Y-93758519D01*
X155677447Y-93767142D01*
X155665031Y-93774583D01*
X155651946Y-93780772D01*
X155638317Y-93785649D01*
X155624276Y-93789166D01*
X155609958Y-93791290D01*
X155595500Y-93792000D01*
X155300500Y-93792000D01*
X155286042Y-93791290D01*
X155271724Y-93789166D01*
X155257683Y-93785649D01*
X155244054Y-93780772D01*
X155230969Y-93774583D01*
X155218553Y-93767142D01*
X155206927Y-93758519D01*
X155196202Y-93748798D01*
X155186481Y-93738073D01*
X155177858Y-93726447D01*
X155170417Y-93714031D01*
X155164228Y-93700946D01*
X155159351Y-93687317D01*
X155155834Y-93673276D01*
X155153710Y-93658958D01*
X155153000Y-93644500D01*
X155153000Y-93299500D01*
X155153710Y-93285042D01*
X155155834Y-93270724D01*
X155159351Y-93256683D01*
X155164228Y-93243054D01*
X155170417Y-93229969D01*
X155177858Y-93217553D01*
X155186481Y-93205927D01*
X155196202Y-93195202D01*
X155206927Y-93185481D01*
X155218553Y-93176858D01*
X155230969Y-93169417D01*
X155244054Y-93163228D01*
X155257683Y-93158351D01*
X155271724Y-93154834D01*
X155286042Y-93152710D01*
X155300500Y-93152000D01*
X155595500Y-93152000D01*
X155609958Y-93152710D01*
G37*
G36*
X156625958Y-89596710D02*
G01*
X156640276Y-89598834D01*
X156654317Y-89602351D01*
X156667946Y-89607228D01*
X156681031Y-89613417D01*
X156693447Y-89620858D01*
X156705073Y-89629481D01*
X156715798Y-89639202D01*
X156725519Y-89649927D01*
X156734142Y-89661553D01*
X156741583Y-89673969D01*
X156747772Y-89687054D01*
X156752649Y-89700683D01*
X156756166Y-89714724D01*
X156758290Y-89729042D01*
X156759000Y-89743500D01*
X156759000Y-90088500D01*
X156758290Y-90102958D01*
X156756166Y-90117276D01*
X156752649Y-90131317D01*
X156747772Y-90144946D01*
X156741583Y-90158031D01*
X156734142Y-90170447D01*
X156725519Y-90182073D01*
X156715798Y-90192798D01*
X156705073Y-90202519D01*
X156693447Y-90211142D01*
X156681031Y-90218583D01*
X156667946Y-90224772D01*
X156654317Y-90229649D01*
X156640276Y-90233166D01*
X156625958Y-90235290D01*
X156611500Y-90236000D01*
X156316500Y-90236000D01*
X156302042Y-90235290D01*
X156287724Y-90233166D01*
X156273683Y-90229649D01*
X156260054Y-90224772D01*
X156246969Y-90218583D01*
X156234553Y-90211142D01*
X156222927Y-90202519D01*
X156212202Y-90192798D01*
X156202481Y-90182073D01*
X156193858Y-90170447D01*
X156186417Y-90158031D01*
X156180228Y-90144946D01*
X156175351Y-90131317D01*
X156171834Y-90117276D01*
X156169710Y-90102958D01*
X156169000Y-90088500D01*
X156169000Y-89743500D01*
X156169710Y-89729042D01*
X156171834Y-89714724D01*
X156175351Y-89700683D01*
X156180228Y-89687054D01*
X156186417Y-89673969D01*
X156193858Y-89661553D01*
X156202481Y-89649927D01*
X156212202Y-89639202D01*
X156222927Y-89629481D01*
X156234553Y-89620858D01*
X156246969Y-89613417D01*
X156260054Y-89607228D01*
X156273683Y-89602351D01*
X156287724Y-89598834D01*
X156302042Y-89596710D01*
X156316500Y-89596000D01*
X156611500Y-89596000D01*
X156625958Y-89596710D01*
G37*
G36*
X155655958Y-89596710D02*
G01*
X155670276Y-89598834D01*
X155684317Y-89602351D01*
X155697946Y-89607228D01*
X155711031Y-89613417D01*
X155723447Y-89620858D01*
X155735073Y-89629481D01*
X155745798Y-89639202D01*
X155755519Y-89649927D01*
X155764142Y-89661553D01*
X155771583Y-89673969D01*
X155777772Y-89687054D01*
X155782649Y-89700683D01*
X155786166Y-89714724D01*
X155788290Y-89729042D01*
X155789000Y-89743500D01*
X155789000Y-90088500D01*
X155788290Y-90102958D01*
X155786166Y-90117276D01*
X155782649Y-90131317D01*
X155777772Y-90144946D01*
X155771583Y-90158031D01*
X155764142Y-90170447D01*
X155755519Y-90182073D01*
X155745798Y-90192798D01*
X155735073Y-90202519D01*
X155723447Y-90211142D01*
X155711031Y-90218583D01*
X155697946Y-90224772D01*
X155684317Y-90229649D01*
X155670276Y-90233166D01*
X155655958Y-90235290D01*
X155641500Y-90236000D01*
X155346500Y-90236000D01*
X155332042Y-90235290D01*
X155317724Y-90233166D01*
X155303683Y-90229649D01*
X155290054Y-90224772D01*
X155276969Y-90218583D01*
X155264553Y-90211142D01*
X155252927Y-90202519D01*
X155242202Y-90192798D01*
X155232481Y-90182073D01*
X155223858Y-90170447D01*
X155216417Y-90158031D01*
X155210228Y-90144946D01*
X155205351Y-90131317D01*
X155201834Y-90117276D01*
X155199710Y-90102958D01*
X155199000Y-90088500D01*
X155199000Y-89743500D01*
X155199710Y-89729042D01*
X155201834Y-89714724D01*
X155205351Y-89700683D01*
X155210228Y-89687054D01*
X155216417Y-89673969D01*
X155223858Y-89661553D01*
X155232481Y-89649927D01*
X155242202Y-89639202D01*
X155252927Y-89629481D01*
X155264553Y-89620858D01*
X155276969Y-89613417D01*
X155290054Y-89607228D01*
X155303683Y-89602351D01*
X155317724Y-89598834D01*
X155332042Y-89596710D01*
X155346500Y-89596000D01*
X155641500Y-89596000D01*
X155655958Y-89596710D01*
G37*
G36*
X156625958Y-87056710D02*
G01*
X156640276Y-87058834D01*
X156654317Y-87062351D01*
X156667946Y-87067228D01*
X156681031Y-87073417D01*
X156693447Y-87080858D01*
X156705073Y-87089481D01*
X156715798Y-87099202D01*
X156725519Y-87109927D01*
X156734142Y-87121553D01*
X156741583Y-87133969D01*
X156747772Y-87147054D01*
X156752649Y-87160683D01*
X156756166Y-87174724D01*
X156758290Y-87189042D01*
X156759000Y-87203500D01*
X156759000Y-87548500D01*
X156758290Y-87562958D01*
X156756166Y-87577276D01*
X156752649Y-87591317D01*
X156747772Y-87604946D01*
X156741583Y-87618031D01*
X156734142Y-87630447D01*
X156725519Y-87642073D01*
X156715798Y-87652798D01*
X156705073Y-87662519D01*
X156693447Y-87671142D01*
X156681031Y-87678583D01*
X156667946Y-87684772D01*
X156654317Y-87689649D01*
X156640276Y-87693166D01*
X156625958Y-87695290D01*
X156611500Y-87696000D01*
X156316500Y-87696000D01*
X156302042Y-87695290D01*
X156287724Y-87693166D01*
X156273683Y-87689649D01*
X156260054Y-87684772D01*
X156246969Y-87678583D01*
X156234553Y-87671142D01*
X156222927Y-87662519D01*
X156212202Y-87652798D01*
X156202481Y-87642073D01*
X156193858Y-87630447D01*
X156186417Y-87618031D01*
X156180228Y-87604946D01*
X156175351Y-87591317D01*
X156171834Y-87577276D01*
X156169710Y-87562958D01*
X156169000Y-87548500D01*
X156169000Y-87203500D01*
X156169710Y-87189042D01*
X156171834Y-87174724D01*
X156175351Y-87160683D01*
X156180228Y-87147054D01*
X156186417Y-87133969D01*
X156193858Y-87121553D01*
X156202481Y-87109927D01*
X156212202Y-87099202D01*
X156222927Y-87089481D01*
X156234553Y-87080858D01*
X156246969Y-87073417D01*
X156260054Y-87067228D01*
X156273683Y-87062351D01*
X156287724Y-87058834D01*
X156302042Y-87056710D01*
X156316500Y-87056000D01*
X156611500Y-87056000D01*
X156625958Y-87056710D01*
G37*
G36*
X155655958Y-87056710D02*
G01*
X155670276Y-87058834D01*
X155684317Y-87062351D01*
X155697946Y-87067228D01*
X155711031Y-87073417D01*
X155723447Y-87080858D01*
X155735073Y-87089481D01*
X155745798Y-87099202D01*
X155755519Y-87109927D01*
X155764142Y-87121553D01*
X155771583Y-87133969D01*
X155777772Y-87147054D01*
X155782649Y-87160683D01*
X155786166Y-87174724D01*
X155788290Y-87189042D01*
X155789000Y-87203500D01*
X155789000Y-87548500D01*
X155788290Y-87562958D01*
X155786166Y-87577276D01*
X155782649Y-87591317D01*
X155777772Y-87604946D01*
X155771583Y-87618031D01*
X155764142Y-87630447D01*
X155755519Y-87642073D01*
X155745798Y-87652798D01*
X155735073Y-87662519D01*
X155723447Y-87671142D01*
X155711031Y-87678583D01*
X155697946Y-87684772D01*
X155684317Y-87689649D01*
X155670276Y-87693166D01*
X155655958Y-87695290D01*
X155641500Y-87696000D01*
X155346500Y-87696000D01*
X155332042Y-87695290D01*
X155317724Y-87693166D01*
X155303683Y-87689649D01*
X155290054Y-87684772D01*
X155276969Y-87678583D01*
X155264553Y-87671142D01*
X155252927Y-87662519D01*
X155242202Y-87652798D01*
X155232481Y-87642073D01*
X155223858Y-87630447D01*
X155216417Y-87618031D01*
X155210228Y-87604946D01*
X155205351Y-87591317D01*
X155201834Y-87577276D01*
X155199710Y-87562958D01*
X155199000Y-87548500D01*
X155199000Y-87203500D01*
X155199710Y-87189042D01*
X155201834Y-87174724D01*
X155205351Y-87160683D01*
X155210228Y-87147054D01*
X155216417Y-87133969D01*
X155223858Y-87121553D01*
X155232481Y-87109927D01*
X155242202Y-87099202D01*
X155252927Y-87089481D01*
X155264553Y-87080858D01*
X155276969Y-87073417D01*
X155290054Y-87067228D01*
X155303683Y-87062351D01*
X155317724Y-87058834D01*
X155332042Y-87056710D01*
X155346500Y-87056000D01*
X155641500Y-87056000D01*
X155655958Y-87056710D01*
G37*
G36*
X155632958Y-80960710D02*
G01*
X155647276Y-80962834D01*
X155661317Y-80966351D01*
X155674946Y-80971228D01*
X155688031Y-80977417D01*
X155700447Y-80984858D01*
X155712073Y-80993481D01*
X155722798Y-81003202D01*
X155732519Y-81013927D01*
X155741142Y-81025553D01*
X155748583Y-81037969D01*
X155754772Y-81051054D01*
X155759649Y-81064683D01*
X155763166Y-81078724D01*
X155765290Y-81093042D01*
X155766000Y-81107500D01*
X155766000Y-81452500D01*
X155765290Y-81466958D01*
X155763166Y-81481276D01*
X155759649Y-81495317D01*
X155754772Y-81508946D01*
X155748583Y-81522031D01*
X155741142Y-81534447D01*
X155732519Y-81546073D01*
X155722798Y-81556798D01*
X155712073Y-81566519D01*
X155700447Y-81575142D01*
X155688031Y-81582583D01*
X155674946Y-81588772D01*
X155661317Y-81593649D01*
X155647276Y-81597166D01*
X155632958Y-81599290D01*
X155618500Y-81600000D01*
X155323500Y-81600000D01*
X155309042Y-81599290D01*
X155294724Y-81597166D01*
X155280683Y-81593649D01*
X155267054Y-81588772D01*
X155253969Y-81582583D01*
X155241553Y-81575142D01*
X155229927Y-81566519D01*
X155219202Y-81556798D01*
X155209481Y-81546073D01*
X155200858Y-81534447D01*
X155193417Y-81522031D01*
X155187228Y-81508946D01*
X155182351Y-81495317D01*
X155178834Y-81481276D01*
X155176710Y-81466958D01*
X155176000Y-81452500D01*
X155176000Y-81107500D01*
X155176710Y-81093042D01*
X155178834Y-81078724D01*
X155182351Y-81064683D01*
X155187228Y-81051054D01*
X155193417Y-81037969D01*
X155200858Y-81025553D01*
X155209481Y-81013927D01*
X155219202Y-81003202D01*
X155229927Y-80993481D01*
X155241553Y-80984858D01*
X155253969Y-80977417D01*
X155267054Y-80971228D01*
X155280683Y-80966351D01*
X155294724Y-80962834D01*
X155309042Y-80960710D01*
X155323500Y-80960000D01*
X155618500Y-80960000D01*
X155632958Y-80960710D01*
G37*
G36*
X156602958Y-80960710D02*
G01*
X156617276Y-80962834D01*
X156631317Y-80966351D01*
X156644946Y-80971228D01*
X156658031Y-80977417D01*
X156670447Y-80984858D01*
X156682073Y-80993481D01*
X156692798Y-81003202D01*
X156702519Y-81013927D01*
X156711142Y-81025553D01*
X156718583Y-81037969D01*
X156724772Y-81051054D01*
X156729649Y-81064683D01*
X156733166Y-81078724D01*
X156735290Y-81093042D01*
X156736000Y-81107500D01*
X156736000Y-81452500D01*
X156735290Y-81466958D01*
X156733166Y-81481276D01*
X156729649Y-81495317D01*
X156724772Y-81508946D01*
X156718583Y-81522031D01*
X156711142Y-81534447D01*
X156702519Y-81546073D01*
X156692798Y-81556798D01*
X156682073Y-81566519D01*
X156670447Y-81575142D01*
X156658031Y-81582583D01*
X156644946Y-81588772D01*
X156631317Y-81593649D01*
X156617276Y-81597166D01*
X156602958Y-81599290D01*
X156588500Y-81600000D01*
X156293500Y-81600000D01*
X156279042Y-81599290D01*
X156264724Y-81597166D01*
X156250683Y-81593649D01*
X156237054Y-81588772D01*
X156223969Y-81582583D01*
X156211553Y-81575142D01*
X156199927Y-81566519D01*
X156189202Y-81556798D01*
X156179481Y-81546073D01*
X156170858Y-81534447D01*
X156163417Y-81522031D01*
X156157228Y-81508946D01*
X156152351Y-81495317D01*
X156148834Y-81481276D01*
X156146710Y-81466958D01*
X156146000Y-81452500D01*
X156146000Y-81107500D01*
X156146710Y-81093042D01*
X156148834Y-81078724D01*
X156152351Y-81064683D01*
X156157228Y-81051054D01*
X156163417Y-81037969D01*
X156170858Y-81025553D01*
X156179481Y-81013927D01*
X156189202Y-81003202D01*
X156199927Y-80993481D01*
X156211553Y-80984858D01*
X156223969Y-80977417D01*
X156237054Y-80971228D01*
X156250683Y-80966351D01*
X156264724Y-80962834D01*
X156279042Y-80960710D01*
X156293500Y-80960000D01*
X156588500Y-80960000D01*
X156602958Y-80960710D01*
G37*
D19*
X114277000Y-92519500D03*
X143637000Y-92519500D03*
D20*
X116247000Y-58454000D03*
X118787000Y-58454000D03*
X121327000Y-58454000D03*
X123867000Y-58454000D03*
X126407000Y-58454000D03*
X128947000Y-58454000D03*
X131487000Y-58454000D03*
X134027000Y-58454000D03*
X136567000Y-58454000D03*
X139107000Y-58454000D03*
X141647000Y-58454000D03*
X144187000Y-58454000D03*
X146727000Y-58454000D03*
X149267000Y-58454000D03*
X151807000Y-58454000D03*
X116247000Y-43214000D03*
X118787000Y-43214000D03*
X121327000Y-43214000D03*
X123867000Y-43214000D03*
X126407000Y-43214000D03*
X128947000Y-43214000D03*
X131487000Y-43214000D03*
X134027000Y-43214000D03*
X136567000Y-43214000D03*
X139107000Y-43214000D03*
X141647000Y-43214000D03*
X144187000Y-43214000D03*
X146727000Y-43214000D03*
X149267000Y-43214000D03*
X151807000Y-43214000D03*
M02*
