G04 #@! TF.GenerationSoftware,KiCad,Pcbnew,(5.1.5-0-10_14)*
G04 #@! TF.CreationDate,2020-08-20T12:56:15-04:00*
G04 #@! TF.ProjectId,ESLO_PSP,45534c4f-5f50-4535-902e-6b696361645f,rev?*
G04 #@! TF.SameCoordinates,Original*
G04 #@! TF.FileFunction,Legend,Top*
G04 #@! TF.FilePolarity,Positive*
%FSLAX46Y46*%
G04 Gerber Fmt 4.6, Leading zero omitted, Abs format (unit mm)*
G04 Created by KiCad (PCBNEW (5.1.5-0-10_14)) date 2020-08-20 12:56:15*
%MOMM*%
%LPD*%
G04 APERTURE LIST*
%ADD10C,0.300000*%
%ADD11C,0.150000*%
%ADD12C,0.120000*%
%ADD13C,0.070000*%
%ADD14C,0.100000*%
G04 APERTURE END LIST*
D10*
X144566257Y-78035457D02*
X144566257Y-77535457D01*
X145351971Y-77321171D02*
X145351971Y-78035457D01*
X143851971Y-78035457D01*
X143851971Y-77321171D01*
X145280542Y-76749742D02*
X145351971Y-76535457D01*
X145351971Y-76178314D01*
X145280542Y-76035457D01*
X145209114Y-75964028D01*
X145066257Y-75892600D01*
X144923400Y-75892600D01*
X144780542Y-75964028D01*
X144709114Y-76035457D01*
X144637685Y-76178314D01*
X144566257Y-76464028D01*
X144494828Y-76606885D01*
X144423400Y-76678314D01*
X144280542Y-76749742D01*
X144137685Y-76749742D01*
X143994828Y-76678314D01*
X143923400Y-76606885D01*
X143851971Y-76464028D01*
X143851971Y-76106885D01*
X143923400Y-75892600D01*
X145351971Y-74535457D02*
X145351971Y-75249742D01*
X143851971Y-75249742D01*
X143851971Y-73749742D02*
X143851971Y-73464028D01*
X143923400Y-73321171D01*
X144066257Y-73178314D01*
X144351971Y-73106885D01*
X144851971Y-73106885D01*
X145137685Y-73178314D01*
X145280542Y-73321171D01*
X145351971Y-73464028D01*
X145351971Y-73749742D01*
X145280542Y-73892600D01*
X145137685Y-74035457D01*
X144851971Y-74106885D01*
X144351971Y-74106885D01*
X144066257Y-74035457D01*
X143923400Y-73892600D01*
X143851971Y-73749742D01*
X145351971Y-71321171D02*
X143851971Y-71321171D01*
X143851971Y-70749742D01*
X143923400Y-70606885D01*
X143994828Y-70535457D01*
X144137685Y-70464028D01*
X144351971Y-70464028D01*
X144494828Y-70535457D01*
X144566257Y-70606885D01*
X144637685Y-70749742D01*
X144637685Y-71321171D01*
X145280542Y-69892600D02*
X145351971Y-69678314D01*
X145351971Y-69321171D01*
X145280542Y-69178314D01*
X145209114Y-69106885D01*
X145066257Y-69035457D01*
X144923400Y-69035457D01*
X144780542Y-69106885D01*
X144709114Y-69178314D01*
X144637685Y-69321171D01*
X144566257Y-69606885D01*
X144494828Y-69749742D01*
X144423400Y-69821171D01*
X144280542Y-69892600D01*
X144137685Y-69892600D01*
X143994828Y-69821171D01*
X143923400Y-69749742D01*
X143851971Y-69606885D01*
X143851971Y-69249742D01*
X143923400Y-69035457D01*
X145351971Y-68392600D02*
X143851971Y-68392600D01*
X143851971Y-67821171D01*
X143923400Y-67678314D01*
X143994828Y-67606885D01*
X144137685Y-67535457D01*
X144351971Y-67535457D01*
X144494828Y-67606885D01*
X144566257Y-67678314D01*
X144637685Y-67821171D01*
X144637685Y-68392600D01*
X147901971Y-78035457D02*
X146901971Y-78035457D01*
X147044828Y-78035457D02*
X146973400Y-77964028D01*
X146901971Y-77821171D01*
X146901971Y-77606885D01*
X146973400Y-77464028D01*
X147116257Y-77392600D01*
X147901971Y-77392600D01*
X147116257Y-77392600D02*
X146973400Y-77321171D01*
X146901971Y-77178314D01*
X146901971Y-76964028D01*
X146973400Y-76821171D01*
X147116257Y-76749742D01*
X147901971Y-76749742D01*
X147901971Y-75392600D02*
X147116257Y-75392600D01*
X146973400Y-75464028D01*
X146901971Y-75606885D01*
X146901971Y-75892600D01*
X146973400Y-76035457D01*
X147830542Y-75392600D02*
X147901971Y-75535457D01*
X147901971Y-75892600D01*
X147830542Y-76035457D01*
X147687685Y-76106885D01*
X147544828Y-76106885D01*
X147401971Y-76035457D01*
X147330542Y-75892600D01*
X147330542Y-75535457D01*
X147259114Y-75392600D01*
X146901971Y-74892600D02*
X146901971Y-74321171D01*
X146401971Y-74678314D02*
X147687685Y-74678314D01*
X147830542Y-74606885D01*
X147901971Y-74464028D01*
X147901971Y-74321171D01*
X146901971Y-74035457D02*
X146901971Y-73464028D01*
X146401971Y-73821171D02*
X147687685Y-73821171D01*
X147830542Y-73749742D01*
X147901971Y-73606885D01*
X147901971Y-73464028D01*
X147187685Y-72035457D02*
X147116257Y-72106885D01*
X147044828Y-72249742D01*
X147044828Y-72392600D01*
X147116257Y-72535457D01*
X147187685Y-72606885D01*
X147330542Y-72678314D01*
X147473400Y-72678314D01*
X147616257Y-72606885D01*
X147687685Y-72535457D01*
X147759114Y-72392600D01*
X147759114Y-72249742D01*
X147687685Y-72106885D01*
X147616257Y-72035457D01*
X147044828Y-72035457D02*
X147616257Y-72035457D01*
X147687685Y-71964028D01*
X147687685Y-71892600D01*
X147616257Y-71749742D01*
X147473400Y-71678314D01*
X147116257Y-71678314D01*
X146901971Y-71821171D01*
X146759114Y-72035457D01*
X146687685Y-72321171D01*
X146759114Y-72606885D01*
X146901971Y-72821171D01*
X147116257Y-72964028D01*
X147401971Y-73035457D01*
X147687685Y-72964028D01*
X147901971Y-72821171D01*
X148044828Y-72606885D01*
X148116257Y-72321171D01*
X148044828Y-72035457D01*
X147901971Y-71821171D01*
X146901971Y-70392600D02*
X148116257Y-70392600D01*
X148259114Y-70464028D01*
X148330542Y-70535457D01*
X148401971Y-70678314D01*
X148401971Y-70892600D01*
X148330542Y-71035457D01*
X147830542Y-70392600D02*
X147901971Y-70535457D01*
X147901971Y-70821171D01*
X147830542Y-70964028D01*
X147759114Y-71035457D01*
X147616257Y-71106885D01*
X147187685Y-71106885D01*
X147044828Y-71035457D01*
X146973400Y-70964028D01*
X146901971Y-70821171D01*
X146901971Y-70535457D01*
X146973400Y-70392600D01*
X147901971Y-69035457D02*
X147116257Y-69035457D01*
X146973400Y-69106885D01*
X146901971Y-69249742D01*
X146901971Y-69535457D01*
X146973400Y-69678314D01*
X147830542Y-69035457D02*
X147901971Y-69178314D01*
X147901971Y-69535457D01*
X147830542Y-69678314D01*
X147687685Y-69749742D01*
X147544828Y-69749742D01*
X147401971Y-69678314D01*
X147330542Y-69535457D01*
X147330542Y-69178314D01*
X147259114Y-69035457D01*
X147901971Y-68321171D02*
X146901971Y-68321171D01*
X146401971Y-68321171D02*
X146473400Y-68392600D01*
X146544828Y-68321171D01*
X146473400Y-68249742D01*
X146401971Y-68321171D01*
X146544828Y-68321171D01*
X147901971Y-66964028D02*
X146401971Y-66964028D01*
X147830542Y-66964028D02*
X147901971Y-67106885D01*
X147901971Y-67392600D01*
X147830542Y-67535457D01*
X147759114Y-67606885D01*
X147616257Y-67678314D01*
X147187685Y-67678314D01*
X147044828Y-67606885D01*
X146973400Y-67535457D01*
X146901971Y-67392600D01*
X146901971Y-67106885D01*
X146973400Y-66964028D01*
X147901971Y-66249742D02*
X146901971Y-66249742D01*
X146401971Y-66249742D02*
X146473400Y-66321171D01*
X146544828Y-66249742D01*
X146473400Y-66178314D01*
X146401971Y-66249742D01*
X146544828Y-66249742D01*
X147759114Y-65535457D02*
X147830542Y-65464028D01*
X147901971Y-65535457D01*
X147830542Y-65606885D01*
X147759114Y-65535457D01*
X147901971Y-65535457D01*
X147830542Y-64178314D02*
X147901971Y-64321171D01*
X147901971Y-64606885D01*
X147830542Y-64749742D01*
X147759114Y-64821171D01*
X147616257Y-64892600D01*
X147187685Y-64892600D01*
X147044828Y-64821171D01*
X146973400Y-64749742D01*
X146901971Y-64606885D01*
X146901971Y-64321171D01*
X146973400Y-64178314D01*
X147901971Y-62892600D02*
X147116257Y-62892600D01*
X146973400Y-62964028D01*
X146901971Y-63106885D01*
X146901971Y-63392600D01*
X146973400Y-63535457D01*
X147830542Y-62892600D02*
X147901971Y-63035457D01*
X147901971Y-63392600D01*
X147830542Y-63535457D01*
X147687685Y-63606885D01*
X147544828Y-63606885D01*
X147401971Y-63535457D01*
X147330542Y-63392600D01*
X147330542Y-63035457D01*
X147259114Y-62892600D01*
D11*
X116699380Y-55882285D02*
X116699380Y-56453714D01*
X116699380Y-56168000D02*
X115699380Y-56168000D01*
X115842238Y-56263238D01*
X115937476Y-56358476D01*
X115985095Y-56453714D01*
X160912000Y-95504000D02*
G75*
G03X160912000Y-95504000I-1400000J0D01*
G01*
X160912000Y-89662000D02*
G75*
G03X160912000Y-89662000I-1400000J0D01*
G01*
X160912000Y-84074000D02*
G75*
G03X160912000Y-84074000I-1400000J0D01*
G01*
X160912000Y-78486000D02*
G75*
G03X160912000Y-78486000I-1400000J0D01*
G01*
D12*
X141164000Y-100270000D02*
X142494000Y-100270000D01*
X141164000Y-101600000D02*
X141164000Y-100270000D01*
X141164000Y-102870000D02*
X143824000Y-102870000D01*
X143824000Y-102870000D02*
X143824000Y-105470000D01*
X141164000Y-102870000D02*
X141164000Y-105470000D01*
X141164000Y-105470000D02*
X143824000Y-105470000D01*
X145524000Y-81804000D02*
X148324000Y-81804000D01*
X148324000Y-81804000D02*
X148324000Y-83804000D01*
X148324000Y-83804000D02*
X145524000Y-83804000D01*
X145524000Y-83804000D02*
X145524000Y-81804000D01*
X132042500Y-70844500D02*
X132042500Y-70844500D01*
X129992500Y-70844500D02*
X132042500Y-70844500D01*
X129992500Y-68394500D02*
X129992500Y-70844500D01*
X132042500Y-68394500D02*
X129992500Y-68394500D01*
X132042500Y-70844500D02*
X132042500Y-68394500D01*
X133401500Y-75960500D02*
X134126500Y-75960500D01*
X129906500Y-71740500D02*
X129906500Y-72465500D01*
X130631500Y-71740500D02*
X129906500Y-71740500D01*
X134126500Y-71740500D02*
X134126500Y-72465500D01*
X133401500Y-71740500D02*
X134126500Y-71740500D01*
X129906500Y-75960500D02*
X129906500Y-75235500D01*
X130631500Y-75960500D02*
X129906500Y-75960500D01*
X152876000Y-93320000D02*
X150426000Y-93320000D01*
X151076000Y-96540000D02*
X152876000Y-96540000D01*
X152876000Y-81128000D02*
X150426000Y-81128000D01*
X151076000Y-84348000D02*
X152876000Y-84348000D01*
X152876000Y-99736000D02*
X150426000Y-99736000D01*
X151076000Y-102956000D02*
X152876000Y-102956000D01*
X152792000Y-87036000D02*
X150342000Y-87036000D01*
X150992000Y-90256000D02*
X152792000Y-90256000D01*
X160872000Y-74028000D02*
X160872000Y-72528000D01*
X159132000Y-74028000D02*
X160872000Y-74028000D01*
X153512000Y-65968000D02*
X160632000Y-65968000D01*
X153512000Y-73788000D02*
X160632000Y-73788000D01*
X160632000Y-73788000D02*
X160632000Y-65968000D01*
X153512000Y-73788000D02*
X153512000Y-65968000D01*
X159072000Y-73788000D02*
X159072000Y-65968000D01*
X158527000Y-68128000D02*
G75*
G03X158527000Y-68128000I-1555000J0D01*
G01*
X158527492Y-71600989D02*
G75*
G02X158404000Y-72236000I-1555492J-27011D01*
G01*
X157579742Y-73060109D02*
G75*
G02X156364000Y-73060000I-607742J1432109D01*
G01*
X155539891Y-72235742D02*
G75*
G02X155540000Y-71020000I1432109J607742D01*
G01*
X156364258Y-70195891D02*
G75*
G02X157580000Y-70196000I607742J-1432109D01*
G01*
X158403385Y-71020413D02*
G75*
G02X158527000Y-71628000I-1431385J-607587D01*
G01*
X143267000Y-96129500D02*
X139649000Y-96129500D01*
X143267000Y-94419500D02*
X143267000Y-96129500D01*
X136804300Y-100629500D02*
X121109700Y-100629500D01*
X114647000Y-94419500D02*
X114647000Y-96129500D01*
X118265000Y-96129500D02*
X114647000Y-96129500D01*
X114647000Y-88909500D02*
X118265000Y-88909500D01*
X114647000Y-90619500D02*
X114647000Y-88909500D01*
X121109700Y-84409500D02*
X125097000Y-84409500D01*
X127297000Y-86609500D02*
X125097000Y-84409500D01*
X127297000Y-86609500D02*
X130617000Y-86609500D01*
X130617000Y-86609500D02*
X132817000Y-84409500D01*
X132817000Y-84409500D02*
X136804300Y-84409500D01*
X139649000Y-88909500D02*
X143267000Y-88909500D01*
X143267000Y-90619500D02*
X143267000Y-88909500D01*
X136802370Y-100631289D02*
G75*
G03X139649000Y-96129500I-7845370J8111789D01*
G01*
X121111630Y-84407711D02*
G75*
G03X118265000Y-88909500I7845370J-8111789D01*
G01*
X121111630Y-100631289D02*
G75*
G02X118265000Y-96129500I7845370J8111789D01*
G01*
X136802370Y-84407711D02*
G75*
G02X139649000Y-88909500I-7845370J-8111789D01*
G01*
D11*
X117517000Y-57184000D02*
X114977000Y-57184000D01*
X114977000Y-57184000D02*
X114977000Y-59724000D01*
X114977000Y-59724000D02*
X117517000Y-59724000D01*
X117517000Y-57184000D02*
X153077000Y-57184000D01*
X153077000Y-57184000D02*
X153077000Y-59724000D01*
X153077000Y-59724000D02*
X117517000Y-59724000D01*
X117517000Y-59724000D02*
X117517000Y-57184000D01*
X117517000Y-41944000D02*
X114977000Y-41944000D01*
X114977000Y-41944000D02*
X114977000Y-44484000D01*
X114977000Y-44484000D02*
X117517000Y-44484000D01*
X117517000Y-41944000D02*
X153077000Y-41944000D01*
X153077000Y-41944000D02*
X153077000Y-44484000D01*
X153077000Y-44484000D02*
X117517000Y-44484000D01*
X117517000Y-44484000D02*
X117517000Y-41944000D01*
X158250095Y-92456380D02*
X158821523Y-92456380D01*
X158535809Y-93456380D02*
X158535809Y-92456380D01*
X159154857Y-93456380D02*
X159154857Y-92456380D01*
X159535809Y-92456380D01*
X159631047Y-92504000D01*
X159678666Y-92551619D01*
X159726285Y-92646857D01*
X159726285Y-92789714D01*
X159678666Y-92884952D01*
X159631047Y-92932571D01*
X159535809Y-92980190D01*
X159154857Y-92980190D01*
X160583428Y-92789714D02*
X160583428Y-93456380D01*
X160345333Y-92408761D02*
X160107238Y-93123047D01*
X160726285Y-93123047D01*
X158250095Y-86614380D02*
X158821523Y-86614380D01*
X158535809Y-87614380D02*
X158535809Y-86614380D01*
X159154857Y-87614380D02*
X159154857Y-86614380D01*
X159535809Y-86614380D01*
X159631047Y-86662000D01*
X159678666Y-86709619D01*
X159726285Y-86804857D01*
X159726285Y-86947714D01*
X159678666Y-87042952D01*
X159631047Y-87090571D01*
X159535809Y-87138190D01*
X159154857Y-87138190D01*
X160059619Y-86614380D02*
X160678666Y-86614380D01*
X160345333Y-86995333D01*
X160488190Y-86995333D01*
X160583428Y-87042952D01*
X160631047Y-87090571D01*
X160678666Y-87185809D01*
X160678666Y-87423904D01*
X160631047Y-87519142D01*
X160583428Y-87566761D01*
X160488190Y-87614380D01*
X160202476Y-87614380D01*
X160107238Y-87566761D01*
X160059619Y-87519142D01*
X158250095Y-81026380D02*
X158821523Y-81026380D01*
X158535809Y-82026380D02*
X158535809Y-81026380D01*
X159154857Y-82026380D02*
X159154857Y-81026380D01*
X159535809Y-81026380D01*
X159631047Y-81074000D01*
X159678666Y-81121619D01*
X159726285Y-81216857D01*
X159726285Y-81359714D01*
X159678666Y-81454952D01*
X159631047Y-81502571D01*
X159535809Y-81550190D01*
X159154857Y-81550190D01*
X160107238Y-81121619D02*
X160154857Y-81074000D01*
X160250095Y-81026380D01*
X160488190Y-81026380D01*
X160583428Y-81074000D01*
X160631047Y-81121619D01*
X160678666Y-81216857D01*
X160678666Y-81312095D01*
X160631047Y-81454952D01*
X160059619Y-82026380D01*
X160678666Y-82026380D01*
X158250095Y-75438380D02*
X158821523Y-75438380D01*
X158535809Y-76438380D02*
X158535809Y-75438380D01*
X159154857Y-76438380D02*
X159154857Y-75438380D01*
X159535809Y-75438380D01*
X159631047Y-75486000D01*
X159678666Y-75533619D01*
X159726285Y-75628857D01*
X159726285Y-75771714D01*
X159678666Y-75866952D01*
X159631047Y-75914571D01*
X159535809Y-75962190D01*
X159154857Y-75962190D01*
X160678666Y-76438380D02*
X160107238Y-76438380D01*
X160392952Y-76438380D02*
X160392952Y-75438380D01*
X160297714Y-75581238D01*
X160202476Y-75676476D01*
X160107238Y-75724095D01*
X138358666Y-100290380D02*
X138358666Y-101004666D01*
X138311047Y-101147523D01*
X138215809Y-101242761D01*
X138072952Y-101290380D01*
X137977714Y-101290380D01*
X138834857Y-101290380D02*
X138834857Y-100290380D01*
X139215809Y-100290380D01*
X139311047Y-100338000D01*
X139358666Y-100385619D01*
X139406285Y-100480857D01*
X139406285Y-100623714D01*
X139358666Y-100718952D01*
X139311047Y-100766571D01*
X139215809Y-100814190D01*
X138834857Y-100814190D01*
X140358666Y-101290380D02*
X139787238Y-101290380D01*
X140072952Y-101290380D02*
X140072952Y-100290380D01*
X139977714Y-100433238D01*
X139882476Y-100528476D01*
X139787238Y-100576095D01*
D13*
X114922666Y-68949933D02*
X115489333Y-68949933D01*
X115556000Y-68916600D01*
X115589333Y-68883266D01*
X115622666Y-68816600D01*
X115622666Y-68683266D01*
X115589333Y-68616600D01*
X115556000Y-68583266D01*
X115489333Y-68549933D01*
X114922666Y-68549933D01*
X114922666Y-67916600D02*
X114922666Y-68049933D01*
X114956000Y-68116600D01*
X114989333Y-68149933D01*
X115089333Y-68216600D01*
X115222666Y-68249933D01*
X115489333Y-68249933D01*
X115556000Y-68216600D01*
X115589333Y-68183266D01*
X115622666Y-68116600D01*
X115622666Y-67983266D01*
X115589333Y-67916600D01*
X115556000Y-67883266D01*
X115489333Y-67849933D01*
X115322666Y-67849933D01*
X115256000Y-67883266D01*
X115222666Y-67916600D01*
X115189333Y-67983266D01*
X115189333Y-68116600D01*
X115222666Y-68183266D01*
X115256000Y-68216600D01*
X115322666Y-68249933D01*
X115472666Y-75441600D02*
X115472666Y-75108266D01*
X115672666Y-75508266D02*
X114972666Y-75274933D01*
X115672666Y-75041600D01*
X115672666Y-74808266D02*
X114972666Y-74808266D01*
X115672666Y-74408266D01*
X114972666Y-74408266D01*
X115672666Y-74041600D02*
X115672666Y-73908266D01*
X115639333Y-73841600D01*
X115606000Y-73808266D01*
X115506000Y-73741600D01*
X115372666Y-73708266D01*
X115106000Y-73708266D01*
X115039333Y-73741600D01*
X115006000Y-73774933D01*
X114972666Y-73841600D01*
X114972666Y-73974933D01*
X115006000Y-74041600D01*
X115039333Y-74074933D01*
X115106000Y-74108266D01*
X115272666Y-74108266D01*
X115339333Y-74074933D01*
X115372666Y-74041600D01*
X115406000Y-73974933D01*
X115406000Y-73841600D01*
X115372666Y-73774933D01*
X115339333Y-73741600D01*
X115272666Y-73708266D01*
X115672666Y-73041600D02*
X115672666Y-73441600D01*
X115672666Y-73241600D02*
X114972666Y-73241600D01*
X115072666Y-73308266D01*
X115139333Y-73374933D01*
X115172666Y-73441600D01*
X115206000Y-72441600D02*
X115672666Y-72441600D01*
X114939333Y-72608266D02*
X115439333Y-72774933D01*
X115439333Y-72341600D01*
X115206000Y-71774933D02*
X115672666Y-71774933D01*
X114939333Y-71941600D02*
X115439333Y-72108266D01*
X115439333Y-71674933D01*
X114972666Y-71074933D02*
X114972666Y-71408266D01*
X115306000Y-71441600D01*
X115272666Y-71408266D01*
X115239333Y-71341600D01*
X115239333Y-71174933D01*
X115272666Y-71108266D01*
X115306000Y-71074933D01*
X115372666Y-71041600D01*
X115539333Y-71041600D01*
X115606000Y-71074933D01*
X115639333Y-71108266D01*
X115672666Y-71174933D01*
X115672666Y-71341600D01*
X115639333Y-71408266D01*
X115606000Y-71441600D01*
D11*
X145781142Y-81456380D02*
X145781142Y-80456380D01*
X146352571Y-81456380D01*
X146352571Y-80456380D01*
X146685904Y-80456380D02*
X147257333Y-80456380D01*
X146971619Y-81456380D02*
X146971619Y-80456380D01*
X148114476Y-81456380D02*
X147543047Y-81456380D01*
X147828761Y-81456380D02*
X147828761Y-80456380D01*
X147733523Y-80599238D01*
X147638285Y-80694476D01*
X147543047Y-80742095D01*
D14*
X155704000Y-99454857D02*
X155668285Y-99490571D01*
X155561142Y-99526285D01*
X155489714Y-99526285D01*
X155382571Y-99490571D01*
X155311142Y-99419142D01*
X155275428Y-99347714D01*
X155239714Y-99204857D01*
X155239714Y-99097714D01*
X155275428Y-98954857D01*
X155311142Y-98883428D01*
X155382571Y-98812000D01*
X155489714Y-98776285D01*
X155561142Y-98776285D01*
X155668285Y-98812000D01*
X155704000Y-98847714D01*
X155954000Y-98776285D02*
X156454000Y-98776285D01*
X156132571Y-99526285D01*
X131278357Y-67800142D02*
X131278357Y-68157285D01*
X131028357Y-67407285D02*
X131278357Y-67800142D01*
X131528357Y-67407285D01*
X132171214Y-68157285D02*
X131742642Y-68157285D01*
X131956928Y-68157285D02*
X131956928Y-67407285D01*
X131885500Y-67514428D01*
X131814071Y-67585857D01*
X131742642Y-67621571D01*
X134747071Y-75725785D02*
X134747071Y-76332928D01*
X134782785Y-76404357D01*
X134818500Y-76440071D01*
X134889928Y-76475785D01*
X135032785Y-76475785D01*
X135104214Y-76440071D01*
X135139928Y-76404357D01*
X135175642Y-76332928D01*
X135175642Y-75725785D01*
X135889928Y-75725785D02*
X135532785Y-75725785D01*
X135497071Y-76082928D01*
X135532785Y-76047214D01*
X135604214Y-76011500D01*
X135782785Y-76011500D01*
X135854214Y-76047214D01*
X135889928Y-76082928D01*
X135925642Y-76154357D01*
X135925642Y-76332928D01*
X135889928Y-76404357D01*
X135854214Y-76440071D01*
X135782785Y-76475785D01*
X135604214Y-76475785D01*
X135532785Y-76440071D01*
X135497071Y-76404357D01*
X151404571Y-91619285D02*
X151404571Y-92226428D01*
X151440285Y-92297857D01*
X151476000Y-92333571D01*
X151547428Y-92369285D01*
X151690285Y-92369285D01*
X151761714Y-92333571D01*
X151797428Y-92297857D01*
X151833142Y-92226428D01*
X151833142Y-91619285D01*
X152118857Y-91619285D02*
X152583142Y-91619285D01*
X152333142Y-91905000D01*
X152440285Y-91905000D01*
X152511714Y-91940714D01*
X152547428Y-91976428D01*
X152583142Y-92047857D01*
X152583142Y-92226428D01*
X152547428Y-92297857D01*
X152511714Y-92333571D01*
X152440285Y-92369285D01*
X152226000Y-92369285D01*
X152154571Y-92333571D01*
X152118857Y-92297857D01*
X151404571Y-79427285D02*
X151404571Y-80034428D01*
X151440285Y-80105857D01*
X151476000Y-80141571D01*
X151547428Y-80177285D01*
X151690285Y-80177285D01*
X151761714Y-80141571D01*
X151797428Y-80105857D01*
X151833142Y-80034428D01*
X151833142Y-79427285D01*
X152583142Y-80177285D02*
X152154571Y-80177285D01*
X152368857Y-80177285D02*
X152368857Y-79427285D01*
X152297428Y-79534428D01*
X152226000Y-79605857D01*
X152154571Y-79641571D01*
X128335500Y-77555285D02*
X128085500Y-77198142D01*
X127906928Y-77555285D02*
X127906928Y-76805285D01*
X128192642Y-76805285D01*
X128264071Y-76841000D01*
X128299785Y-76876714D01*
X128335500Y-76948142D01*
X128335500Y-77055285D01*
X128299785Y-77126714D01*
X128264071Y-77162428D01*
X128192642Y-77198142D01*
X127906928Y-77198142D01*
X128978357Y-77055285D02*
X128978357Y-77555285D01*
X128799785Y-76769571D02*
X128621214Y-77305285D01*
X129085500Y-77305285D01*
X127065500Y-75777285D02*
X126708357Y-75777285D01*
X126708357Y-75027285D01*
X127244071Y-75027285D02*
X127708357Y-75027285D01*
X127458357Y-75313000D01*
X127565500Y-75313000D01*
X127636928Y-75348714D01*
X127672642Y-75384428D01*
X127708357Y-75455857D01*
X127708357Y-75634428D01*
X127672642Y-75705857D01*
X127636928Y-75741571D01*
X127565500Y-75777285D01*
X127351214Y-75777285D01*
X127279785Y-75741571D01*
X127244071Y-75705857D01*
X128653000Y-72792785D02*
X128295857Y-72792785D01*
X128295857Y-72042785D01*
X128867285Y-72114214D02*
X128903000Y-72078500D01*
X128974428Y-72042785D01*
X129153000Y-72042785D01*
X129224428Y-72078500D01*
X129260142Y-72114214D01*
X129295857Y-72185642D01*
X129295857Y-72257071D01*
X129260142Y-72364214D01*
X128831571Y-72792785D01*
X129295857Y-72792785D01*
X127637000Y-71713285D02*
X127279857Y-71713285D01*
X127279857Y-70963285D01*
X128279857Y-71713285D02*
X127851285Y-71713285D01*
X128065571Y-71713285D02*
X128065571Y-70963285D01*
X127994142Y-71070428D01*
X127922714Y-71141857D01*
X127851285Y-71177571D01*
X128295857Y-68593857D02*
X128260142Y-68629571D01*
X128153000Y-68665285D01*
X128081571Y-68665285D01*
X127974428Y-68629571D01*
X127903000Y-68558142D01*
X127867285Y-68486714D01*
X127831571Y-68343857D01*
X127831571Y-68236714D01*
X127867285Y-68093857D01*
X127903000Y-68022428D01*
X127974428Y-67951000D01*
X128081571Y-67915285D01*
X128153000Y-67915285D01*
X128260142Y-67951000D01*
X128295857Y-67986714D01*
X129010142Y-68665285D02*
X128581571Y-68665285D01*
X128795857Y-68665285D02*
X128795857Y-67915285D01*
X128724428Y-68022428D01*
X128653000Y-68093857D01*
X128581571Y-68129571D01*
X129260142Y-67915285D02*
X129760142Y-67915285D01*
X129438714Y-68665285D01*
X133172657Y-68014457D02*
X133136942Y-68050171D01*
X133029800Y-68085885D01*
X132958371Y-68085885D01*
X132851228Y-68050171D01*
X132779800Y-67978742D01*
X132744085Y-67907314D01*
X132708371Y-67764457D01*
X132708371Y-67657314D01*
X132744085Y-67514457D01*
X132779800Y-67443028D01*
X132851228Y-67371600D01*
X132958371Y-67335885D01*
X133029800Y-67335885D01*
X133136942Y-67371600D01*
X133172657Y-67407314D01*
X133886942Y-68085885D02*
X133458371Y-68085885D01*
X133672657Y-68085885D02*
X133672657Y-67335885D01*
X133601228Y-67443028D01*
X133529800Y-67514457D01*
X133458371Y-67550171D01*
X134529800Y-67335885D02*
X134386942Y-67335885D01*
X134315514Y-67371600D01*
X134279800Y-67407314D01*
X134208371Y-67514457D01*
X134172657Y-67657314D01*
X134172657Y-67943028D01*
X134208371Y-68014457D01*
X134244085Y-68050171D01*
X134315514Y-68085885D01*
X134458371Y-68085885D01*
X134529800Y-68050171D01*
X134565514Y-68014457D01*
X134601228Y-67943028D01*
X134601228Y-67764457D01*
X134565514Y-67693028D01*
X134529800Y-67657314D01*
X134458371Y-67621600D01*
X134315514Y-67621600D01*
X134244085Y-67657314D01*
X134208371Y-67693028D01*
X134172657Y-67764457D01*
X133299657Y-78957057D02*
X133263942Y-78992771D01*
X133156800Y-79028485D01*
X133085371Y-79028485D01*
X132978228Y-78992771D01*
X132906800Y-78921342D01*
X132871085Y-78849914D01*
X132835371Y-78707057D01*
X132835371Y-78599914D01*
X132871085Y-78457057D01*
X132906800Y-78385628D01*
X132978228Y-78314200D01*
X133085371Y-78278485D01*
X133156800Y-78278485D01*
X133263942Y-78314200D01*
X133299657Y-78349914D01*
X134013942Y-79028485D02*
X133585371Y-79028485D01*
X133799657Y-79028485D02*
X133799657Y-78278485D01*
X133728228Y-78385628D01*
X133656800Y-78457057D01*
X133585371Y-78492771D01*
X134692514Y-78278485D02*
X134335371Y-78278485D01*
X134299657Y-78635628D01*
X134335371Y-78599914D01*
X134406800Y-78564200D01*
X134585371Y-78564200D01*
X134656800Y-78599914D01*
X134692514Y-78635628D01*
X134728228Y-78707057D01*
X134728228Y-78885628D01*
X134692514Y-78957057D01*
X134656800Y-78992771D01*
X134585371Y-79028485D01*
X134406800Y-79028485D01*
X134335371Y-78992771D01*
X134299657Y-78957057D01*
X123342857Y-76785357D02*
X123307142Y-76821071D01*
X123200000Y-76856785D01*
X123128571Y-76856785D01*
X123021428Y-76821071D01*
X122950000Y-76749642D01*
X122914285Y-76678214D01*
X122878571Y-76535357D01*
X122878571Y-76428214D01*
X122914285Y-76285357D01*
X122950000Y-76213928D01*
X123021428Y-76142500D01*
X123128571Y-76106785D01*
X123200000Y-76106785D01*
X123307142Y-76142500D01*
X123342857Y-76178214D01*
X124057142Y-76856785D02*
X123628571Y-76856785D01*
X123842857Y-76856785D02*
X123842857Y-76106785D01*
X123771428Y-76213928D01*
X123700000Y-76285357D01*
X123628571Y-76321071D01*
X124700000Y-76356785D02*
X124700000Y-76856785D01*
X124521428Y-76071071D02*
X124342857Y-76606785D01*
X124807142Y-76606785D01*
X124676357Y-75705857D02*
X124640642Y-75741571D01*
X124533500Y-75777285D01*
X124462071Y-75777285D01*
X124354928Y-75741571D01*
X124283500Y-75670142D01*
X124247785Y-75598714D01*
X124212071Y-75455857D01*
X124212071Y-75348714D01*
X124247785Y-75205857D01*
X124283500Y-75134428D01*
X124354928Y-75063000D01*
X124462071Y-75027285D01*
X124533500Y-75027285D01*
X124640642Y-75063000D01*
X124676357Y-75098714D01*
X125390642Y-75777285D02*
X124962071Y-75777285D01*
X125176357Y-75777285D02*
X125176357Y-75027285D01*
X125104928Y-75134428D01*
X125033500Y-75205857D01*
X124962071Y-75241571D01*
X125640642Y-75027285D02*
X126104928Y-75027285D01*
X125854928Y-75313000D01*
X125962071Y-75313000D01*
X126033500Y-75348714D01*
X126069214Y-75384428D01*
X126104928Y-75455857D01*
X126104928Y-75634428D01*
X126069214Y-75705857D01*
X126033500Y-75741571D01*
X125962071Y-75777285D01*
X125747785Y-75777285D01*
X125676357Y-75741571D01*
X125640642Y-75705857D01*
X123533357Y-72657857D02*
X123497642Y-72693571D01*
X123390500Y-72729285D01*
X123319071Y-72729285D01*
X123211928Y-72693571D01*
X123140500Y-72622142D01*
X123104785Y-72550714D01*
X123069071Y-72407857D01*
X123069071Y-72300714D01*
X123104785Y-72157857D01*
X123140500Y-72086428D01*
X123211928Y-72015000D01*
X123319071Y-71979285D01*
X123390500Y-71979285D01*
X123497642Y-72015000D01*
X123533357Y-72050714D01*
X124247642Y-72729285D02*
X123819071Y-72729285D01*
X124033357Y-72729285D02*
X124033357Y-71979285D01*
X123961928Y-72086428D01*
X123890500Y-72157857D01*
X123819071Y-72193571D01*
X124533357Y-72050714D02*
X124569071Y-72015000D01*
X124640500Y-71979285D01*
X124819071Y-71979285D01*
X124890500Y-72015000D01*
X124926214Y-72050714D01*
X124961928Y-72122142D01*
X124961928Y-72193571D01*
X124926214Y-72300714D01*
X124497642Y-72729285D01*
X124961928Y-72729285D01*
X123533357Y-71578357D02*
X123497642Y-71614071D01*
X123390500Y-71649785D01*
X123319071Y-71649785D01*
X123211928Y-71614071D01*
X123140500Y-71542642D01*
X123104785Y-71471214D01*
X123069071Y-71328357D01*
X123069071Y-71221214D01*
X123104785Y-71078357D01*
X123140500Y-71006928D01*
X123211928Y-70935500D01*
X123319071Y-70899785D01*
X123390500Y-70899785D01*
X123497642Y-70935500D01*
X123533357Y-70971214D01*
X124247642Y-71649785D02*
X123819071Y-71649785D01*
X124033357Y-71649785D02*
X124033357Y-70899785D01*
X123961928Y-71006928D01*
X123890500Y-71078357D01*
X123819071Y-71114071D01*
X124961928Y-71649785D02*
X124533357Y-71649785D01*
X124747642Y-71649785D02*
X124747642Y-70899785D01*
X124676214Y-71006928D01*
X124604785Y-71078357D01*
X124533357Y-71114071D01*
X129692857Y-80468357D02*
X129657142Y-80504071D01*
X129550000Y-80539785D01*
X129478571Y-80539785D01*
X129371428Y-80504071D01*
X129300000Y-80432642D01*
X129264285Y-80361214D01*
X129228571Y-80218357D01*
X129228571Y-80111214D01*
X129264285Y-79968357D01*
X129300000Y-79896928D01*
X129371428Y-79825500D01*
X129478571Y-79789785D01*
X129550000Y-79789785D01*
X129657142Y-79825500D01*
X129692857Y-79861214D01*
X130407142Y-80539785D02*
X129978571Y-80539785D01*
X130192857Y-80539785D02*
X130192857Y-79789785D01*
X130121428Y-79896928D01*
X130050000Y-79968357D01*
X129978571Y-80004071D01*
X130871428Y-79789785D02*
X130942857Y-79789785D01*
X131014285Y-79825500D01*
X131050000Y-79861214D01*
X131085714Y-79932642D01*
X131121428Y-80075500D01*
X131121428Y-80254071D01*
X131085714Y-80396928D01*
X131050000Y-80468357D01*
X131014285Y-80504071D01*
X130942857Y-80539785D01*
X130871428Y-80539785D01*
X130800000Y-80504071D01*
X130764285Y-80468357D01*
X130728571Y-80396928D01*
X130692857Y-80254071D01*
X130692857Y-80075500D01*
X130728571Y-79932642D01*
X130764285Y-79861214D01*
X130800000Y-79825500D01*
X130871428Y-79789785D01*
X129669000Y-79452357D02*
X129633285Y-79488071D01*
X129526142Y-79523785D01*
X129454714Y-79523785D01*
X129347571Y-79488071D01*
X129276142Y-79416642D01*
X129240428Y-79345214D01*
X129204714Y-79202357D01*
X129204714Y-79095214D01*
X129240428Y-78952357D01*
X129276142Y-78880928D01*
X129347571Y-78809500D01*
X129454714Y-78773785D01*
X129526142Y-78773785D01*
X129633285Y-78809500D01*
X129669000Y-78845214D01*
X130026142Y-79523785D02*
X130169000Y-79523785D01*
X130240428Y-79488071D01*
X130276142Y-79452357D01*
X130347571Y-79345214D01*
X130383285Y-79202357D01*
X130383285Y-78916642D01*
X130347571Y-78845214D01*
X130311857Y-78809500D01*
X130240428Y-78773785D01*
X130097571Y-78773785D01*
X130026142Y-78809500D01*
X129990428Y-78845214D01*
X129954714Y-78916642D01*
X129954714Y-79095214D01*
X129990428Y-79166642D01*
X130026142Y-79202357D01*
X130097571Y-79238071D01*
X130240428Y-79238071D01*
X130311857Y-79202357D01*
X130347571Y-79166642D01*
X130383285Y-79095214D01*
X151404571Y-98035285D02*
X151404571Y-98642428D01*
X151440285Y-98713857D01*
X151476000Y-98749571D01*
X151547428Y-98785285D01*
X151690285Y-98785285D01*
X151761714Y-98749571D01*
X151797428Y-98713857D01*
X151833142Y-98642428D01*
X151833142Y-98035285D01*
X152511714Y-98285285D02*
X152511714Y-98785285D01*
X152333142Y-97999571D02*
X152154571Y-98535285D01*
X152618857Y-98535285D01*
X151320571Y-85335285D02*
X151320571Y-85942428D01*
X151356285Y-86013857D01*
X151392000Y-86049571D01*
X151463428Y-86085285D01*
X151606285Y-86085285D01*
X151677714Y-86049571D01*
X151713428Y-86013857D01*
X151749142Y-85942428D01*
X151749142Y-85335285D01*
X152070571Y-85406714D02*
X152106285Y-85371000D01*
X152177714Y-85335285D01*
X152356285Y-85335285D01*
X152427714Y-85371000D01*
X152463428Y-85406714D01*
X152499142Y-85478142D01*
X152499142Y-85549571D01*
X152463428Y-85656714D01*
X152034857Y-86085285D01*
X152499142Y-86085285D01*
X147726000Y-99245285D02*
X147476000Y-98888142D01*
X147297428Y-99245285D02*
X147297428Y-98495285D01*
X147583142Y-98495285D01*
X147654571Y-98531000D01*
X147690285Y-98566714D01*
X147726000Y-98638142D01*
X147726000Y-98745285D01*
X147690285Y-98816714D01*
X147654571Y-98852428D01*
X147583142Y-98888142D01*
X147297428Y-98888142D01*
X147976000Y-98495285D02*
X148440285Y-98495285D01*
X148190285Y-98781000D01*
X148297428Y-98781000D01*
X148368857Y-98816714D01*
X148404571Y-98852428D01*
X148440285Y-98923857D01*
X148440285Y-99102428D01*
X148404571Y-99173857D01*
X148368857Y-99209571D01*
X148297428Y-99245285D01*
X148083142Y-99245285D01*
X148011714Y-99209571D01*
X147976000Y-99173857D01*
X147726000Y-101812285D02*
X147476000Y-101455142D01*
X147297428Y-101812285D02*
X147297428Y-101062285D01*
X147583142Y-101062285D01*
X147654571Y-101098000D01*
X147690285Y-101133714D01*
X147726000Y-101205142D01*
X147726000Y-101312285D01*
X147690285Y-101383714D01*
X147654571Y-101419428D01*
X147583142Y-101455142D01*
X147297428Y-101455142D01*
X148011714Y-101133714D02*
X148047428Y-101098000D01*
X148118857Y-101062285D01*
X148297428Y-101062285D01*
X148368857Y-101098000D01*
X148404571Y-101133714D01*
X148440285Y-101205142D01*
X148440285Y-101276571D01*
X148404571Y-101383714D01*
X147976000Y-101812285D01*
X148440285Y-101812285D01*
X148234000Y-88885285D02*
X147984000Y-88528142D01*
X147805428Y-88885285D02*
X147805428Y-88135285D01*
X148091142Y-88135285D01*
X148162571Y-88171000D01*
X148198285Y-88206714D01*
X148234000Y-88278142D01*
X148234000Y-88385285D01*
X148198285Y-88456714D01*
X148162571Y-88492428D01*
X148091142Y-88528142D01*
X147805428Y-88528142D01*
X148948285Y-88885285D02*
X148519714Y-88885285D01*
X148734000Y-88885285D02*
X148734000Y-88135285D01*
X148662571Y-88242428D01*
X148591142Y-88313857D01*
X148519714Y-88349571D01*
X160024000Y-64359285D02*
X160024000Y-64895000D01*
X159988285Y-65002142D01*
X159916857Y-65073571D01*
X159809714Y-65109285D01*
X159738285Y-65109285D01*
X160774000Y-65109285D02*
X160345428Y-65109285D01*
X160559714Y-65109285D02*
X160559714Y-64359285D01*
X160488285Y-64466428D01*
X160416857Y-64537857D01*
X160345428Y-64573571D01*
X155704000Y-101994857D02*
X155668285Y-102030571D01*
X155561142Y-102066285D01*
X155489714Y-102066285D01*
X155382571Y-102030571D01*
X155311142Y-101959142D01*
X155275428Y-101887714D01*
X155239714Y-101744857D01*
X155239714Y-101637714D01*
X155275428Y-101494857D01*
X155311142Y-101423428D01*
X155382571Y-101352000D01*
X155489714Y-101316285D01*
X155561142Y-101316285D01*
X155668285Y-101352000D01*
X155704000Y-101387714D01*
X156132571Y-101637714D02*
X156061142Y-101602000D01*
X156025428Y-101566285D01*
X155989714Y-101494857D01*
X155989714Y-101459142D01*
X156025428Y-101387714D01*
X156061142Y-101352000D01*
X156132571Y-101316285D01*
X156275428Y-101316285D01*
X156346857Y-101352000D01*
X156382571Y-101387714D01*
X156418285Y-101459142D01*
X156418285Y-101494857D01*
X156382571Y-101566285D01*
X156346857Y-101602000D01*
X156275428Y-101637714D01*
X156132571Y-101637714D01*
X156061142Y-101673428D01*
X156025428Y-101709142D01*
X155989714Y-101780571D01*
X155989714Y-101923428D01*
X156025428Y-101994857D01*
X156061142Y-102030571D01*
X156132571Y-102066285D01*
X156275428Y-102066285D01*
X156346857Y-102030571D01*
X156382571Y-101994857D01*
X156418285Y-101923428D01*
X156418285Y-101780571D01*
X156382571Y-101709142D01*
X156346857Y-101673428D01*
X156275428Y-101637714D01*
X158602000Y-101994857D02*
X158566285Y-102030571D01*
X158459142Y-102066285D01*
X158387714Y-102066285D01*
X158280571Y-102030571D01*
X158209142Y-101959142D01*
X158173428Y-101887714D01*
X158137714Y-101744857D01*
X158137714Y-101637714D01*
X158173428Y-101494857D01*
X158209142Y-101423428D01*
X158280571Y-101352000D01*
X158387714Y-101316285D01*
X158459142Y-101316285D01*
X158566285Y-101352000D01*
X158602000Y-101387714D01*
X159244857Y-101316285D02*
X159102000Y-101316285D01*
X159030571Y-101352000D01*
X158994857Y-101387714D01*
X158923428Y-101494857D01*
X158887714Y-101637714D01*
X158887714Y-101923428D01*
X158923428Y-101994857D01*
X158959142Y-102030571D01*
X159030571Y-102066285D01*
X159173428Y-102066285D01*
X159244857Y-102030571D01*
X159280571Y-101994857D01*
X159316285Y-101923428D01*
X159316285Y-101744857D01*
X159280571Y-101673428D01*
X159244857Y-101637714D01*
X159173428Y-101602000D01*
X159030571Y-101602000D01*
X158959142Y-101637714D01*
X158923428Y-101673428D01*
X158887714Y-101744857D01*
X158625000Y-99454857D02*
X158589285Y-99490571D01*
X158482142Y-99526285D01*
X158410714Y-99526285D01*
X158303571Y-99490571D01*
X158232142Y-99419142D01*
X158196428Y-99347714D01*
X158160714Y-99204857D01*
X158160714Y-99097714D01*
X158196428Y-98954857D01*
X158232142Y-98883428D01*
X158303571Y-98812000D01*
X158410714Y-98776285D01*
X158482142Y-98776285D01*
X158589285Y-98812000D01*
X158625000Y-98847714D01*
X159303571Y-98776285D02*
X158946428Y-98776285D01*
X158910714Y-99133428D01*
X158946428Y-99097714D01*
X159017857Y-99062000D01*
X159196428Y-99062000D01*
X159267857Y-99097714D01*
X159303571Y-99133428D01*
X159339285Y-99204857D01*
X159339285Y-99383428D01*
X159303571Y-99454857D01*
X159267857Y-99490571D01*
X159196428Y-99526285D01*
X159017857Y-99526285D01*
X158946428Y-99490571D01*
X158910714Y-99454857D01*
X155808000Y-92569857D02*
X155772285Y-92605571D01*
X155665142Y-92641285D01*
X155593714Y-92641285D01*
X155486571Y-92605571D01*
X155415142Y-92534142D01*
X155379428Y-92462714D01*
X155343714Y-92319857D01*
X155343714Y-92212714D01*
X155379428Y-92069857D01*
X155415142Y-91998428D01*
X155486571Y-91927000D01*
X155593714Y-91891285D01*
X155665142Y-91891285D01*
X155772285Y-91927000D01*
X155808000Y-91962714D01*
X156450857Y-92141285D02*
X156450857Y-92641285D01*
X156272285Y-91855571D02*
X156093714Y-92391285D01*
X156558000Y-92391285D01*
X155854000Y-89013857D02*
X155818285Y-89049571D01*
X155711142Y-89085285D01*
X155639714Y-89085285D01*
X155532571Y-89049571D01*
X155461142Y-88978142D01*
X155425428Y-88906714D01*
X155389714Y-88763857D01*
X155389714Y-88656714D01*
X155425428Y-88513857D01*
X155461142Y-88442428D01*
X155532571Y-88371000D01*
X155639714Y-88335285D01*
X155711142Y-88335285D01*
X155818285Y-88371000D01*
X155854000Y-88406714D01*
X156104000Y-88335285D02*
X156568285Y-88335285D01*
X156318285Y-88621000D01*
X156425428Y-88621000D01*
X156496857Y-88656714D01*
X156532571Y-88692428D01*
X156568285Y-88763857D01*
X156568285Y-88942428D01*
X156532571Y-89013857D01*
X156496857Y-89049571D01*
X156425428Y-89085285D01*
X156211142Y-89085285D01*
X156139714Y-89049571D01*
X156104000Y-89013857D01*
X155854000Y-86473857D02*
X155818285Y-86509571D01*
X155711142Y-86545285D01*
X155639714Y-86545285D01*
X155532571Y-86509571D01*
X155461142Y-86438142D01*
X155425428Y-86366714D01*
X155389714Y-86223857D01*
X155389714Y-86116714D01*
X155425428Y-85973857D01*
X155461142Y-85902428D01*
X155532571Y-85831000D01*
X155639714Y-85795285D01*
X155711142Y-85795285D01*
X155818285Y-85831000D01*
X155854000Y-85866714D01*
X156139714Y-85866714D02*
X156175428Y-85831000D01*
X156246857Y-85795285D01*
X156425428Y-85795285D01*
X156496857Y-85831000D01*
X156532571Y-85866714D01*
X156568285Y-85938142D01*
X156568285Y-86009571D01*
X156532571Y-86116714D01*
X156104000Y-86545285D01*
X156568285Y-86545285D01*
X155831000Y-82717857D02*
X155795285Y-82753571D01*
X155688142Y-82789285D01*
X155616714Y-82789285D01*
X155509571Y-82753571D01*
X155438142Y-82682142D01*
X155402428Y-82610714D01*
X155366714Y-82467857D01*
X155366714Y-82360714D01*
X155402428Y-82217857D01*
X155438142Y-82146428D01*
X155509571Y-82075000D01*
X155616714Y-82039285D01*
X155688142Y-82039285D01*
X155795285Y-82075000D01*
X155831000Y-82110714D01*
X156545285Y-82789285D02*
X156116714Y-82789285D01*
X156331000Y-82789285D02*
X156331000Y-82039285D01*
X156259571Y-82146428D01*
X156188142Y-82217857D01*
X156116714Y-82253571D01*
X128367714Y-84845928D02*
X128474857Y-84881642D01*
X128510571Y-84917357D01*
X128546285Y-84988785D01*
X128546285Y-85095928D01*
X128510571Y-85167357D01*
X128474857Y-85203071D01*
X128403428Y-85238785D01*
X128117714Y-85238785D01*
X128117714Y-84488785D01*
X128367714Y-84488785D01*
X128439142Y-84524500D01*
X128474857Y-84560214D01*
X128510571Y-84631642D01*
X128510571Y-84703071D01*
X128474857Y-84774500D01*
X128439142Y-84810214D01*
X128367714Y-84845928D01*
X128117714Y-84845928D01*
X128760571Y-84488785D02*
X129189142Y-84488785D01*
X128974857Y-85238785D02*
X128974857Y-84488785D01*
X129832000Y-85238785D02*
X129403428Y-85238785D01*
X129617714Y-85238785D02*
X129617714Y-84488785D01*
X129546285Y-84595928D01*
X129474857Y-84667357D01*
X129403428Y-84703071D01*
X132076428Y-56253285D02*
X132076428Y-55503285D01*
X132362142Y-55503285D01*
X132433571Y-55539000D01*
X132469285Y-55574714D01*
X132505000Y-55646142D01*
X132505000Y-55753285D01*
X132469285Y-55824714D01*
X132433571Y-55860428D01*
X132362142Y-55896142D01*
X132076428Y-55896142D01*
X133183571Y-55503285D02*
X132826428Y-55503285D01*
X132790714Y-55860428D01*
X132826428Y-55824714D01*
X132897857Y-55789000D01*
X133076428Y-55789000D01*
X133147857Y-55824714D01*
X133183571Y-55860428D01*
X133219285Y-55931857D01*
X133219285Y-56110428D01*
X133183571Y-56181857D01*
X133147857Y-56217571D01*
X133076428Y-56253285D01*
X132897857Y-56253285D01*
X132826428Y-56217571D01*
X132790714Y-56181857D01*
X132076428Y-46093285D02*
X132076428Y-45343285D01*
X132362142Y-45343285D01*
X132433571Y-45379000D01*
X132469285Y-45414714D01*
X132505000Y-45486142D01*
X132505000Y-45593285D01*
X132469285Y-45664714D01*
X132433571Y-45700428D01*
X132362142Y-45736142D01*
X132076428Y-45736142D01*
X133147857Y-45343285D02*
X133005000Y-45343285D01*
X132933571Y-45379000D01*
X132897857Y-45414714D01*
X132826428Y-45521857D01*
X132790714Y-45664714D01*
X132790714Y-45950428D01*
X132826428Y-46021857D01*
X132862142Y-46057571D01*
X132933571Y-46093285D01*
X133076428Y-46093285D01*
X133147857Y-46057571D01*
X133183571Y-46021857D01*
X133219285Y-45950428D01*
X133219285Y-45771857D01*
X133183571Y-45700428D01*
X133147857Y-45664714D01*
X133076428Y-45629000D01*
X132933571Y-45629000D01*
X132862142Y-45664714D01*
X132826428Y-45700428D01*
X132790714Y-45771857D01*
M02*
