M48
; DRILL file {KiCad (5.1.5-0-10_14)} date Thursday, August 20, 2020 at 12:56:13 PM
; FORMAT={-:-/ absolute / inch / decimal}
; #@! TF.CreationDate,2020-08-20T12:56:13-04:00
; #@! TF.GenerationSoftware,Kicad,Pcbnew,(5.1.5-0-10_14)
; #@! TF.FileFunction,Plated,1,2,PTH
FMAT,2
INCH
T1C0.0157
T2C0.0394
T3C0.0400
T4C0.0472
%
G90
G05
T1
X4.805Y-2.655
X4.86Y-2.48
X4.86Y-2.52
X4.86Y-2.56
X4.86Y-2.6
X4.86Y-2.64
X4.86Y-2.68
X4.86Y-2.72
X4.86Y-2.76
X4.86Y-2.8
X4.86Y-2.84
X4.86Y-2.88
X4.94Y-2.62
X4.94Y-2.68
X4.94Y-2.74
X5.0Y-2.62
X5.0Y-2.68
X5.0Y-2.74
X5.04Y-3.16
X5.06Y-2.62
X5.07Y-2.978
X5.12Y-2.62
X5.122Y-2.986
X5.174Y-3.018
X5.18Y-2.62
X5.196Y-3.133
X5.216Y-2.782
X5.25Y-2.786
X5.271Y-2.5605
X5.271Y-2.987
X5.32Y-2.9795
X5.4055Y-2.956
X5.418Y-2.8715
X5.45Y-2.53
X5.46Y-3.16
X5.77Y-3.39
X5.84Y-3.98
X5.85Y-3.26
X5.852Y-3.402
X5.8537Y-3.3487
X5.886Y-4.026
X5.935Y-3.575
X5.94Y-3.92
X5.9833Y-3.2574
X5.984Y-3.776
X6.08Y-3.426
X6.08Y-3.74
X6.0874Y-3.9526
X6.12Y-3.58
X6.156Y-4.002
X6.19Y-3.2
X6.27Y-4.0
T2
X6.28Y-3.53
X6.28Y-3.09
X6.28Y-3.31
X5.61Y-4.0
X5.61Y-4.1
X6.28Y-3.76
T3
X4.5767Y-2.3013
X4.6767Y-2.3013
X4.7767Y-2.3013
X4.8767Y-2.3013
X4.9767Y-2.3013
X5.0767Y-2.3013
X5.1767Y-2.3013
X5.2767Y-2.3013
X5.3767Y-2.3013
X5.4767Y-2.3013
X5.5767Y-2.3013
X5.6767Y-2.3013
X5.7767Y-2.3013
X5.8767Y-2.3013
X5.9767Y-2.3013
X4.5767Y-1.7013
X4.6767Y-1.7013
X4.7767Y-1.7013
X4.8767Y-1.7013
X4.9767Y-1.7013
X5.0767Y-1.7013
X5.1767Y-1.7013
X5.2767Y-1.7013
X5.3767Y-1.7013
X5.4767Y-1.7013
X5.5767Y-1.7013
X5.6767Y-1.7013
X5.7767Y-1.7013
X5.8767Y-1.7013
X5.9767Y-1.7013
T4
X6.18Y-2.6822
X6.18Y-2.82
T0
M30
