G04 ================== begin FILE IDENTIFICATION RECORD ==================*
G04 Layout Name:  CC26xx_5x5_JohBal.brd*
G04 Film Name:    Top*
G04 File Format:  Gerber RS274X*
G04 File Origin:  Cadence Allegro 16.6-S021*
G04 Origin Date:  Tue Jun 28 07:27:49 2016*
G04 *
G04 Layer:  VIA CLASS/TOP*
G04 Layer:  PIN/TOP*
G04 Layer:  ETCH/TOP*
G04 Layer:  BOARD GEOMETRY/OUTLINE*
G04 *
G04 Offset:    (0.000 0.000)*
G04 Mirror:    No*
G04 Mode:      Positive*
G04 Rotation:  0*
G04 FullContactRelief:  No*
G04 UndefLineWidth:     0.020*
G04 ================== end FILE IDENTIFICATION RECORD ====================*
%FSLAX44Y44*MOMM*%
%IR0*IPPOS*OFA0.00000B0.00000*MIA0B0*SFA1.00000B1.00000*%
%AMMACRO18*
4,1,41,-.676,0.0,
-.676,-.163,
-.673381,-.191263,
-.665895,-.218641,
-.653768,-.244304,
-.637369,-.267471,
-.617196,-.287439,
-.593862,-.3036,
-.568076,-.315463,
-.540622,-.322669,
-.513,-.325,
.513,-.325,
.541278,-.322555,
.568703,-.315237,
.594439,-.303268,
.617707,-.287012,
.637798,-.266962,
.654102,-.243729,
.666124,-.218017,
.673499,-.190607,
.676,-.163,
.676,.163,
.673381,.191263,
.665895,.218641,
.653768,.244304,
.637369,.267471,
.617196,.287439,
.593862,.3036,
.568076,.315463,
.540622,.322669,
.513,.325,
-.513,.325,
-.541278,.322555,
-.568703,.315237,
-.594439,.303268,
-.617707,.287012,
-.637798,.266962,
-.654102,.243729,
-.666124,.218017,
-.673499,.190607,
-.676,.163,
-.676,0.0,
0.0*
%
%ADD18MACRO18*%
%ADD27R,1.X.5*%
%AMMACRO19*
4,1,40,.275,.135,
.275,-.135,
.272949,-.158443,
.266859,-.181173,
.256913,-.2025,
.243416,-.221776,
.226776,-.238416,
.2075,-.251913,
.186173,-.261859,
.163443,-.267949,
.14,-.27,
-.14,-.27,
-.163443,-.267949,
-.186173,-.261859,
-.2075,-.251913,
-.226776,-.238416,
-.243416,-.221776,
-.256913,-.2025,
-.266859,-.181173,
-.272949,-.158443,
-.275,-.135,
-.275,.135,
-.272949,.158443,
-.266859,.181173,
-.256913,.2025,
-.243416,.221776,
-.226776,.238416,
-.2075,.251913,
-.186173,.261859,
-.163443,.267949,
-.14,.27,
.14,.27,
.163443,.267949,
.186173,.261859,
.2075,.251913,
.226776,.238416,
.243416,.221776,
.256913,.2025,
.266859,.181173,
.272949,.158443,
.275,.135,
0.0*
%
%ADD19MACRO19*%
%AMMACRO26*
4,1,40,.135,-.275,
-.135,-.275,
-.158443,-.272949,
-.181173,-.266859,
-.2025,-.256913,
-.221776,-.243416,
-.238416,-.226776,
-.251913,-.2075,
-.261859,-.186173,
-.267949,-.163443,
-.27,-.14,
-.27,.14,
-.267949,.163443,
-.261859,.186173,
-.251913,.2075,
-.238416,.226776,
-.221776,.243416,
-.2025,.256913,
-.181173,.266859,
-.158443,.272949,
-.135,.275,
.135,.275,
.158443,.272949,
.181173,.266859,
.2025,.256913,
.221776,.243416,
.238416,.226776,
.251913,.2075,
.261859,.186173,
.267949,.163443,
.27,.14,
.27,-.14,
.267949,-.163443,
.261859,-.186173,
.251913,-.2075,
.238416,-.226776,
.221776,-.243416,
.2025,-.256913,
.181173,-.266859,
.158443,-.272949,
.135,-.275,
0.0*
%
%ADD26MACRO26*%
%AMMACRO16*
4,1,41,.45,.188,
.45,-.188,
.447065,-.220551,
.438521,-.252099,
.42463,-.281683,
.405812,-.308406,
.38264,-.331455,
.355817,-.35013,
.326159,-.363863,
.294567,-.372238,
.262,-.375,
-.262,-.375,
-.294567,-.372238,
-.326159,-.363863,
-.355817,-.35013,
-.38264,-.331455,
-.405812,-.308406,
-.42463,-.281683,
-.438521,-.252099,
-.447065,-.220551,
-.45,-.188,
-.45,.188,
-.447065,.220551,
-.438521,.252099,
-.42463,.281683,
-.405812,.308406,
-.38264,.331455,
-.355817,.35013,
-.326159,.363863,
-.294567,.372238,
-.262,.375,
-.262,.375,
.262,.375,
.294567,.372238,
.326159,.363863,
.355817,.35013,
.38264,.331455,
.405812,.308406,
.42463,.281683,
.438521,.252099,
.447065,.220551,
.45,.188,
0.0*
%
%ADD16MACRO16*%
%ADD20C,1.801*%
%ADD24R,3.55X3.55*%
%ADD11C,.099*%
%AMMACRO29*
4,1,45,0.0,.625,
-.262,.625,
-.30759,.621099,
-.35181,.60934,
-.393317,.590082,
-.430849,.563908,
-.463265,.531615,
-.489582,.494183,
-.508998,.45275,
-.520925,.408575,
-.525,.363,
-.525,.362,
-.525,-.362,
-.521099,-.40759,
-.50934,-.45181,
-.490082,-.493317,
-.463908,-.530849,
-.431615,-.563265,
-.394183,-.589582,
-.35275,-.608998,
-.308575,-.620925,
-.263,-.625,
-.262,-.625,
.262,-.625,
.30759,-.621099,
.35181,-.60934,
.393317,-.590082,
.430849,-.563908,
.463265,-.531615,
.489582,-.494183,
.508998,-.45275,
.520925,-.408575,
.525,-.363,
.525,-.362,
.525,.362,
.521099,.40759,
.50934,.45181,
.490082,.493317,
.463908,.530849,
.431615,.563265,
.394183,.589582,
.35275,.608998,
.308575,.620925,
.263,.625,
.262,.625,
0.0,.625,
0.0*
%
%ADD29MACRO29*%
%ADD12O,1.X1.*%
%AMMACRO25*
4,1,45,-.225,0.0,
-.225,-.062,
-.224137,-.072861,
-.221402,-.083406,
-.216877,-.093317,
-.210699,-.102291,
-.203057,-.110056,
-.194183,-.116377,
-.184346,-.12106,
-.173845,-.123964,
-.163,-.125,
-.162,-.125,
.162,-.125,
.172861,-.124137,
.183406,-.121402,
.193317,-.116877,
.202291,-.110699,
.210056,-.103057,
.216377,-.094183,
.22106,-.084346,
.223964,-.073845,
.225,-.063,
.225,-.062,
.225,.062,
.224137,.072861,
.221402,.083406,
.216877,.093317,
.210699,.102291,
.203057,.110056,
.194183,.116377,
.184346,.12106,
.173845,.123964,
.163,.125,
.162,.125,
-.162,.125,
-.172861,.124137,
-.183406,.121402,
-.193317,.116877,
-.202291,.110699,
-.210056,.103057,
-.216377,.094183,
-.22106,.084346,
-.223964,.073845,
-.225,.063,
-.225,.062,
-.225,0.0,
0.0*
%
%ADD25MACRO25*%
%AMMACRO17*
4,1,40,-.135,.275,
.135,.275,
.158443,.272949,
.181173,.266859,
.2025,.256913,
.221776,.243416,
.238416,.226776,
.251913,.2075,
.261859,.186173,
.267949,.163443,
.27,.14,
.27,-.14,
.267949,-.163443,
.261859,-.186173,
.251913,-.2075,
.238416,-.226776,
.221776,-.243416,
.2025,-.256913,
.181173,-.266859,
.158443,-.272949,
.135,-.275,
-.135,-.275,
-.158443,-.272949,
-.181173,-.266859,
-.2025,-.256913,
-.221776,-.243416,
-.238416,-.226776,
-.251913,-.2075,
-.261859,-.186173,
-.267949,-.163443,
-.27,-.14,
-.27,.14,
-.267949,.163443,
-.261859,.186173,
-.251913,.2075,
-.238416,.226776,
-.221776,.243416,
-.2025,.256913,
-.181173,.266859,
-.158443,.272949,
-.135,.275,
0.0*
%
%ADD17MACRO17*%
%AMMACRO14*
4,1,40,-.275,-.135,
-.275,.135,
-.272949,.158443,
-.266859,.181173,
-.256913,.2025,
-.243416,.221776,
-.226776,.238416,
-.2075,.251913,
-.186173,.261859,
-.163443,.267949,
-.14,.27,
.14,.27,
.163443,.267949,
.186173,.261859,
.2075,.251913,
.226776,.238416,
.243416,.221776,
.256913,.2025,
.266859,.181173,
.272949,.158443,
.275,.135,
.275,-.135,
.272949,-.158443,
.266859,-.181173,
.256913,-.2025,
.243416,-.221776,
.226776,-.238416,
.2075,-.251913,
.186173,-.261859,
.163443,-.267949,
.14,-.27,
-.14,-.27,
-.163443,-.267949,
-.186173,-.261859,
-.2075,-.251913,
-.226776,-.238416,
-.243416,-.221776,
-.256913,-.2025,
-.266859,-.181173,
-.272949,-.158443,
-.275,-.135,
0.0*
%
%ADD14MACRO14*%
%AMMACRO21*
4,1,40,-.188,.45,
.188,.45,
.220551,.447065,
.252099,.438521,
.281683,.42463,
.308406,.405812,
.331455,.38264,
.35013,.355817,
.363863,.326159,
.372238,.294567,
.375,.262,
.375,-.262,
.372238,-.294567,
.363863,-.326159,
.35013,-.355817,
.331455,-.38264,
.308406,-.405812,
.281683,-.42463,
.252099,-.438521,
.220551,-.447065,
.188,-.45,
-.188,-.45,
-.220551,-.447065,
-.252099,-.438521,
-.281683,-.42463,
-.308406,-.405812,
-.331455,-.38264,
-.35013,-.355817,
-.363863,-.326159,
-.372238,-.294567,
-.375,-.262,
-.375,.262,
-.372238,.294567,
-.363863,.326159,
-.35013,.355817,
-.331455,.38264,
-.308406,.405812,
-.281683,.42463,
-.252099,.438521,
-.220551,.447065,
-.188,.45,
0.0*
%
%ADD21MACRO21*%
%AMMACRO15*
4,1,40,.238,-.675,
-.238,-.675,
-.279234,-.671305,
-.3192,-.660506,
-.356683,-.642931,
-.390545,-.619114,
-.419757,-.589779,
-.443431,-.555817,
-.460848,-.51826,
-.471479,-.478249,
-.475,-.438,
-.475,.438,
-.471305,.479234,
-.460506,.5192,
-.442931,.556683,
-.419114,.590545,
-.389779,.619757,
-.355817,.643431,
-.31826,.660848,
-.278249,.671479,
-.238,.675,
.238,.675,
.279234,.671305,
.3192,.660506,
.356683,.642931,
.390545,.619114,
.419757,.589779,
.443431,.555817,
.460848,.51826,
.471479,.478249,
.475,.438,
.475,-.438,
.471305,-.479234,
.460506,-.5192,
.442931,-.556683,
.419114,-.590545,
.389779,-.619757,
.355817,-.643431,
.31826,-.660848,
.278249,-.671479,
.238,-.675,
0.0*
%
%ADD15MACRO15*%
%ADD23O,.8X.3*%
%ADD22O,.3X.8*%
%ADD10C,.5*%
%ADD28R,.46X.5*%
%AMMACRO13*
4,1,41,0.0,-1.,
.519,-1.,
.602564,-.992645,
.683582,-.970892,
.759592,-.9354,
.828283,-.887248,
.88757,-.8279,
.93565,-.759158,
.971063,-.683112,
.992732,-.602072,
1.,-.519,
1.,.519,
.992645,.602564,
.970892,.683582,
.9354,.759592,
.887248,.828283,
.8279,.88757,
.759158,.93565,
.683112,.971063,
.602072,.992732,
.519,1.,
-.519,1.,
-.602564,.992645,
-.683582,.970892,
-.759592,.9354,
-.828283,.887248,
-.88757,.8279,
-.93565,.759158,
-.971063,.683112,
-.992732,.602072,
-1.,.519,
-1.,-.519,
-.992645,-.602564,
-.970892,-.683582,
-.9354,-.759592,
-.887248,-.828283,
-.8279,-.88757,
-.759158,-.93565,
-.683112,-.971063,
-.602072,-.992732,
-.519,-1.,
0.0,-1.,
0.0*
%
%ADD13MACRO13*%
%ADD30C,.2*%
%ADD31C,.3*%
%ADD32C,.4*%
%ADD33C,.02*%
%ADD34C,.6*%
%ADD35C,.15*%
%ADD36C,1.806*%
G75*
%LPD*%
G75*
G36*
G01X1260250Y1263460D02*
G03X1260520Y1265000I-4257J1540D01*
G01Y1281000D01*
G02X1260810Y1281710I1001J5D01*
G01X1261810Y1282710D01*
G02X1262520Y1283000I705J-711D01*
G01X1454990D01*
G02X1455990Y1282000I0J-1000D01*
G01Y959520D01*
G02X1455370Y958590I-1001J-5D01*
G01X1453380Y957770D01*
X1452800Y957880D01*
X1452580Y958100D01*
G03X1446000Y961020I-7086J-7094D01*
G01X1445000D01*
G03X1437350Y945170I505J-10015D01*
G01X1437520Y944940D01*
X1437560Y944390D01*
X1436610Y942550D01*
G02X1435730Y942010I-887J459D01*
G01X1094420D01*
G02X1093550Y942510I-4J1001D01*
G01X1092550Y944250D01*
Y944770D01*
X1092680Y945010D01*
G03X1084500Y960020I-8690J4998D01*
G01X1083500D01*
G03X1078170Y958160I505J-10014D01*
G01X1077940Y957990D01*
X1077390Y957950D01*
X1075550Y958900D01*
G02X1075010Y959790I460J888D01*
G01Y1282000D01*
G02X1076010Y1283000I1000J0D01*
G01X1215330D01*
X1215910Y1282420D01*
Y1282210D01*
X1227910D01*
X1228490Y1282790D01*
Y1283000D01*
X1237330D01*
X1237910Y1282420D01*
Y1282210D01*
X1250480D01*
G02X1251480Y1281210I0J-1000D01*
G01Y1281170D01*
Y1265000D01*
G03X1251750Y1263460I4527J0D01*
G02X1251800Y1263240I-943J-330D01*
G03X1252330Y1261910I2848J364D01*
G02X1252520Y1261320I-808J-586D01*
G01Y1260680D01*
G02X1252330Y1260090I-998J-4D01*
G03X1251800Y1258760I2318J-1694D01*
G02X1251750Y1258540I-993J110D01*
G03X1251480Y1257000I4257J-1540D01*
G01Y1236000D01*
G03X1251750Y1234460I4527J0D01*
G02X1251800Y1234240I-943J-330D01*
G03X1252130Y1233230I2846J371D01*
G02X1250770Y1231870I-878J-482D01*
G03X1249760Y1232200I-1381J-2516D01*
G02X1249540Y1232250I110J993D01*
G03X1248000Y1232520I-1540J-4257D01*
G01X1213430D01*
X1212900Y1232940D01*
X1212810Y1233270D01*
G03Y1222730I-20810J-5270D01*
G01X1212900Y1223060D01*
X1213430Y1223480D01*
X1248000D01*
G03X1249540Y1223750I0J4527D01*
G02X1249760Y1223800I330J-943D01*
G03X1250200Y1223890I-354J2850D01*
G01X1250340Y1223930D01*
X1250480D01*
G02X1251480Y1222930I0J-1000D01*
G01Y1166000D01*
G03X1252100Y1163720I4519J4D01*
G02X1252230Y1163270I-869J-495D01*
G03X1252520Y1162300I2143J112D01*
G02X1252650Y1161800I-869J-493D01*
G01Y1161200D01*
G02X1252520Y1160700I-999J-7D01*
G03X1252230Y1159620I1855J-1077D01*
G01Y1158380D01*
G03X1252250Y1158120I2142J34D01*
G01Y1157000D01*
X1252000D01*
Y1143910D01*
X1251670Y1143420D01*
X1251370Y1143300D01*
G03X1251200Y1143230I1065J-2827D01*
G01X1251100Y1143180D01*
X1250890Y1143130D01*
X1250770D01*
G02X1249770Y1144130I0J1000D01*
G01Y1144550D01*
G03X1249480Y1145250I-1000J-4D01*
G01X1215570Y1179160D01*
G02X1215280Y1179860I710J704D01*
G01Y1182630D01*
G03X1212130Y1185770I-3148J-8D01*
G01X1201870D01*
G03X1199660Y1184870I-6J-3149D01*
G01X1199530Y1184740D01*
X1199220Y1184600D01*
X1197560Y1184470D01*
X1197240Y1184560D01*
X1197080Y1184670D01*
G03X1195400Y1185220I-1689J-2317D01*
G01X1192600D01*
G03X1189730Y1182350I0J-2870D01*
G01Y1179650D01*
G03X1192600Y1176780I2870J0D01*
G01X1195400D01*
G03X1197080Y1177330I-9J2867D01*
G01X1197240Y1177440D01*
X1197560Y1177530D01*
X1199220Y1177400D01*
X1199530Y1177260D01*
X1199660Y1177130D01*
G03X1201870Y1176230I2204J2249D01*
G01X1211670D01*
G02X1212370Y1175940I-4J-1000D01*
G01X1218340Y1169970D01*
G02X1218550Y1168880I-711J-702D01*
G01X1218440Y1168600D01*
X1217940Y1168270D01*
X1215630D01*
X1215140Y1168590D01*
X1215020Y1168870D01*
G03X1212130Y1170770I-2890J-1248D01*
G01X1201870D01*
G03X1199660Y1169870I-6J-3149D01*
G01X1199530Y1169740D01*
X1199220Y1169600D01*
X1197560Y1169470D01*
X1197240Y1169560D01*
X1197080Y1169670D01*
G03X1195400Y1170220I-1689J-2317D01*
G01X1192600D01*
G03X1189730Y1167350I0J-2870D01*
G01Y1164650D01*
G03X1189900Y1163690I2868J13D01*
G01X1189980Y1163460D01*
X1189910Y1162980D01*
X1188830Y1161440D01*
G02X1188010Y1161020I-815J581D01*
G01X1136720D01*
G03X1136020Y1160730I4J-1000D01*
G01X1082270Y1106980D01*
G03X1081980Y1106280I710J-704D01*
G01Y1059220D01*
G03X1082270Y1058520I1000J4D01*
G01X1085070Y1055720D01*
X1085220Y1055340D01*
X1085210Y1055130D01*
G03X1088870Y1058790I3790J-130D01*
G01X1088660Y1058780D01*
X1088280Y1058930D01*
X1086810Y1060400D01*
G02X1086520Y1061100I710J704D01*
G01Y1062230D01*
G02X1086840Y1062970I1002J6D01*
G01X1088090Y1064110D01*
X1088470Y1064240D01*
X1088690Y1064220D01*
G03X1091590Y1070770I312J3779D01*
G02X1091270Y1071500I679J733D01*
G01Y1104900D01*
G02X1091560Y1105600I1000J-4D01*
G01X1100840Y1114880D01*
G02X1101830Y1115140I714J-703D01*
G01X1103780Y1114570D01*
X1104150Y1114180D01*
X1104210Y1113910D01*
G03X1114990Y1124690I8810J1970D01*
G01X1114720Y1124750D01*
X1114330Y1125120D01*
X1113760Y1127070D01*
G02X1114020Y1128060I963J276D01*
G01X1129020Y1143060D01*
G02X1130110Y1143270I702J-711D01*
G01X1130390Y1143160D01*
X1130720Y1142660D01*
Y1110520D01*
G02X1130400Y1109790I-999J3D01*
G03X1133470Y1103260I2588J-2770D01*
G01X1133700Y1103290D01*
X1134100Y1103170D01*
X1135390Y1102030D01*
G02X1135730Y1101280I-660J-751D01*
G01Y1096750D01*
X1135450Y1096280D01*
X1135200Y1096150D01*
G03X1137480Y1089050I1795J-3340D01*
G01X1137700Y1089080D01*
X1138100Y1088960D01*
X1139390Y1087820D01*
G02X1139730Y1087070I-661J-752D01*
G01Y1061770D01*
G02X1139410Y1061030I-1002J-6D01*
G01X1138160Y1059890D01*
X1137780Y1059760D01*
X1137560Y1059780D01*
G03X1133460Y1055870I-311J-3779D01*
G01X1133470Y1055660D01*
X1133320Y1055280D01*
X1129020Y1050980D01*
G03X1128730Y1050280I710J-704D01*
G01Y1001140D01*
G02X1128110Y1000210I-1001J-4D01*
G01X1127830Y1000100D01*
X1127250Y1000220D01*
X1116560Y1010900D01*
G02X1116270Y1011600I710J704D01*
G01Y1013500D01*
G02X1116590Y1014230I999J-3D01*
G03X1113390Y1020740I-2589J2769D01*
G01X1113170Y1020710D01*
X1112750Y1020820D01*
X1111420Y1021950D01*
G02X1111070Y1022710I651J760D01*
G01Y1032900D01*
G02X1111360Y1033600I1000J-4D01*
G01X1113980Y1036220D01*
G03X1114270Y1036920I-710J704D01*
G01Y1039500D01*
G02X1114590Y1040230I999J-3D01*
G03X1110740Y1046570I-2590J2766D01*
G01X1110500Y1046490D01*
X1110030Y1046560D01*
X1108490Y1047640D01*
G02X1108070Y1048460I581J815D01*
G01Y1060010D01*
G02X1108360Y1060710I1000J-4D01*
G01X1112280Y1064630D01*
X1112660Y1064780D01*
X1112870Y1064770D01*
G03X1109210Y1068430I130J3790D01*
G01X1109220Y1068220D01*
X1109070Y1067840D01*
X1103820Y1062590D01*
G03X1103530Y1061890I710J-704D01*
G01Y1009420D01*
G03X1103820Y1008720I1000J4D01*
G01X1133520Y979020D01*
G03X1134220Y978730I704J710D01*
G01X1155530D01*
G03X1156230Y979020I-4J1000D01*
G01X1161650Y984440D01*
G02X1162350Y984730I704J-710D01*
G01X1181510D01*
X1181970Y984460D01*
X1182110Y984230D01*
G03X1184600Y982780I2490J1413D01*
G01X1187400D01*
G03X1189090Y983330I0J2871D01*
G02X1189680Y983520I586J-808D01*
G01X1190320D01*
G02X1190910Y983330I4J-998D01*
G03X1191520Y982990I1692J2319D01*
G02X1192050Y982500I-369J-931D01*
G01X1192520Y981510D01*
G03X1192420Y981230I3516J-1414D01*
G01X1191500Y980780D01*
G02X1190840Y980700I-443J893D01*
G03X1190130Y973210I-832J-3700D01*
G01X1190340Y973220D01*
X1190720Y973070D01*
X1191970Y971820D01*
G03X1192670Y971530I704J710D01*
G01X1197050D01*
G03X1197750Y971820I-4J1000D01*
G01X1200370Y974440D01*
G02X1201070Y974730I704J-710D01*
G01X1222780D01*
G03X1223480Y975020I-4J1000D01*
G01X1225900Y977440D01*
G02X1226600Y977730I704J-710D01*
G01X1407530D01*
G03X1408230Y978020I-4J1000D01*
G01X1416780Y986570D01*
G03X1417070Y987270I-710J704D01*
G01Y1077800D01*
G02X1417360Y1078500I999J-4D01*
G01X1417790Y1078940D01*
G02X1418390Y1079230I710J-704D01*
G03X1416380Y1086430I-394J3771D01*
G01X1416090Y1086290D01*
X1415480Y1086400D01*
X1415250Y1086620D01*
G02Y1088040I706J710D01*
G01X1417280Y1090070D01*
X1417660Y1090220D01*
X1417870Y1090210D01*
G03X1414210Y1093870I130J3790D01*
G01X1414220Y1093660D01*
X1414070Y1093280D01*
X1409820Y1089030D01*
G03X1409530Y1088330I710J-704D01*
G01Y991150D01*
G02X1409240Y990450I-1000J4D01*
G01X1404350Y985560D01*
G02X1403650Y985270I-704J710D01*
G01X1396740D01*
G02X1395990Y985610I2J1001D01*
G01X1394850Y986900D01*
X1394730Y987300D01*
X1394760Y987520D01*
G03X1394060Y990240I-3760J482D01*
G02X1393870Y990830I808J586D01*
G01Y991440D01*
G02X1394060Y992030I998J4D01*
G03X1388230Y996860I-3052J2250D01*
G02X1387500Y996540I-733J679D01*
G01X1385950D01*
G03X1385250Y996250I4J-1000D01*
G01X1381560Y992560D01*
G02X1380860Y992270I-704J710D01*
G01X1225400D01*
G02X1224700Y992560I4J1000D01*
G01X1222560Y994700D01*
G02X1222270Y995400I710J704D01*
G01Y997350D01*
G03X1222260Y997630I-2871J38D01*
G01X1222250Y997680D01*
Y997730D01*
G02X1223250Y998730I1000J0D01*
G01X1269530D01*
G03X1270230Y999020I-4J1000D01*
G01X1286980Y1015770D01*
G03X1287270Y1016470I-710J704D01*
G01Y1021470D01*
G02X1287680Y1022280I999J3D01*
G01X1289170Y1023380D01*
X1289630Y1023460D01*
X1289870Y1023380D01*
G03X1294720Y1026270I1130J3619D01*
G01X1294750Y1026420D01*
X1294880Y1026670D01*
X1295650Y1027440D01*
G02X1296350Y1027730I704J-710D01*
G01X1377200D01*
G02X1377900Y1027440I-4J-1000D01*
G01X1389460Y1015880D01*
X1389820Y1015730D01*
X1389970D01*
G03X1391320Y1021400I3031J2274D01*
G01X1391030Y1021250D01*
X1390400Y1021360D01*
X1383730Y1028030D01*
G02X1383520Y1029120I711J702D01*
G01X1383630Y1029400D01*
X1384130Y1029730D01*
X1387630D01*
G03X1391020Y1033120I-5J3395D01*
G01Y1036880D01*
G03X1387630Y1040270I-3395J-5D01*
G01X1382370D01*
G03X1380390Y1039630I4J-3395D01*
G02X1379810Y1039440I-587J811D01*
G01X1379190D01*
G02X1378610Y1039630I7J1001D01*
G03X1376630Y1040270I-1984J-2755D01*
G01X1371370D01*
G03X1368410Y1038530I4J-3395D01*
G01X1368280Y1038290D01*
X1367820Y1038020D01*
X1299610D01*
G02X1298610Y1039020I0J1000D01*
G01Y1039240D01*
X1298700Y1039430D01*
G03X1298960Y1040210I-3445J1582D01*
G01X1298990Y1040350D01*
X1299120Y1040600D01*
X1308730Y1050210D01*
G03X1309020Y1050910I-710J704D01*
G01Y1108220D01*
G02X1310020Y1109220I1000J0D01*
G01X1313370D01*
G03X1314080Y1109510I5J1001D01*
G01X1329230Y1124660D01*
G03X1329520Y1125370I-711J705D01*
G01Y1169630D01*
G03X1329230Y1170340I-1001J5D01*
G01X1322340Y1177230D01*
G03X1321630Y1177520I-705J-711D01*
G01X1293370D01*
G03X1292660Y1177230I-5J-1001D01*
G01X1283770Y1168340D01*
G03X1283480Y1167630I711J-705D01*
G01Y1141140D01*
G02X1283100Y1140350I-1001J-5D01*
G01X1281680Y1139230D01*
X1281240Y1139140D01*
X1281020Y1139190D01*
G03X1280350Y1139270I-673J-2790D01*
G01X1277650D01*
G03X1275250Y1137970I0J-2865D01*
G01X1275110Y1137750D01*
X1274670Y1137520D01*
X1274370D01*
G03X1273660Y1137230I-5J-1001D01*
G01X1271250Y1134810D01*
G02X1270540Y1134520I-705J711D01*
G01X1269000D01*
G02X1268000Y1135520I0J1000D01*
G01Y1153080D01*
X1268010Y1153130D01*
G03X1268020Y1153380I-2136J211D01*
G01Y1154620D01*
G03X1268010Y1154870I-2146J39D01*
G01X1268000Y1154920D01*
Y1156000D01*
G03X1267000Y1157000I-1000J0D01*
G01X1260750D01*
G02X1259750Y1158000I0J1000D01*
G01Y1158120D01*
G03X1259770Y1158380I-2122J294D01*
G01Y1159620D01*
G03X1259480Y1160700I-2145J3D01*
G02X1259350Y1161200I869J493D01*
G01Y1161800D01*
G02X1259480Y1162300I999J7D01*
G03X1259770Y1163270I-1853J1082D01*
G02X1259900Y1163720I999J-45D01*
G03X1260520Y1166000I-3899J2284D01*
G01Y1228000D01*
G03X1260300Y1229380I-4518J-13D01*
G02X1260260Y1229600I959J288D01*
G03X1259690Y1231080I-2859J-251D01*
G02X1259490Y1231670I799J600D01*
G01X1259480Y1232320D01*
G02X1259670Y1232910I1000J4D01*
G03X1260200Y1234240I-2318J1694D01*
G02X1260250Y1234460I993J-110D01*
G03X1260520Y1236000I-4257J1540D01*
G01Y1257000D01*
G03X1260250Y1258540I-4527J0D01*
G02X1260200Y1258760I943J330D01*
G03X1259670Y1260090I-2848J-364D01*
G02X1259480Y1260680I808J586D01*
G01Y1261320D01*
G02X1259670Y1261910I998J4D01*
G03X1260200Y1263240I-2318J1694D01*
G02X1260250Y1263460I993J-110D01*
G37*
G36*
G01X1151700Y1024560D02*
X1146780Y1029480D01*
G03X1146080Y1029770I-704J-710D01*
G01X1143500D01*
G02X1142770Y1030090I3J999D01*
G03X1142310Y1030510I-2778J-2581D01*
G02X1142730Y1032280I610J790D01*
G03X1144590Y1038770I-729J3720D01*
G02X1144270Y1039500I679J733D01*
G01Y1143350D01*
X1144420Y1143710D01*
X1144440Y1143730D01*
X1208650D01*
G02X1209350Y1143440I-4J-1000D01*
G01X1211440Y1141350D01*
G02X1211730Y1140650I-710J-704D01*
G01Y1130070D01*
G02X1211330Y1129270I-1000J0D01*
G01X1209850Y1128170D01*
X1209390Y1128080D01*
X1209160Y1128150D01*
G03X1208350Y1128270I-821J-2748D01*
G01X1205650D01*
G03X1203250Y1126970I0J-2865D01*
G01X1203110Y1126750D01*
X1202670Y1126520D01*
X1193370D01*
G03X1192660Y1126230I-5J-1001D01*
G01X1180760Y1114330D01*
G03X1180470Y1113620I711J-705D01*
G01Y1041250D01*
G02X1180200Y1040570I-999J3D01*
G03X1180820Y1034890I2789J-2569D01*
G02X1181200Y1034390I-566J-824D01*
G01X1181390Y1033800D01*
G02X1181400Y1033180I-944J-325D01*
G03X1184350Y1028270I3600J-1178D01*
G01X1184520Y1028240D01*
X1184780Y1028090D01*
X1185840Y1026980D01*
X1185970Y1026710D01*
X1185990Y1026540D01*
Y1026520D01*
X1186020Y1026300D01*
X1185900Y1025900D01*
X1184760Y1024610D01*
G02X1184010Y1024270I-752J661D01*
G01X1152400D01*
G02X1151700Y1024560I4J1000D01*
G37*
G36*
G01X1147400Y1290900D02*
Y1352600D01*
X1403200D01*
Y1340500D01*
X1239200D01*
Y1322500D01*
X1249200D01*
Y1317480D01*
X1258300Y1304280D01*
Y1283500D01*
X1253700D01*
Y1302850D01*
X1248490Y1310400D01*
X1217200D01*
Y1322500D01*
X1227200D01*
Y1330500D01*
X1169200D01*
Y1303800D01*
X1249200D01*
Y1283500D01*
X1239200D01*
Y1290900D01*
X1227200D01*
Y1283500D01*
X1217200D01*
Y1290900D01*
X1147400D01*
G37*
G36*
G01X1218250Y1045030D02*
X1216560Y1046710D01*
G02X1216270Y1047420I710J704D01*
G01Y1053380D01*
G03X1213790Y1057000I-3894J-8D01*
G01X1213600Y1057080D01*
X1213310Y1057360D01*
X1212610Y1059110D01*
X1212620Y1059510D01*
X1212710Y1059700D01*
G03X1213020Y1061120I-3086J1418D01*
G01Y1064880D01*
G03X1209630Y1068270I-3395J-5D01*
G01X1204370D01*
G03X1202920Y1067940I10J-3394D01*
G01X1202690Y1067830D01*
X1202180Y1067860D01*
X1200530Y1068910D01*
G02X1200070Y1069750I540J842D01*
G01Y1083700D01*
G02X1200360Y1084400I1000J-4D01*
G01X1209900Y1093940D01*
G02X1210600Y1094230I704J-710D01*
G01X1216320D01*
X1216610Y1094140D01*
X1216740Y1094040D01*
G03X1218500Y1093480I1753J2462D01*
G01X1223480D01*
G02X1224480Y1092480I0J-1000D01*
G01Y1087500D01*
G03X1224860Y1086040I3018J6D01*
G01X1224920Y1085930D01*
X1224980Y1085690D01*
Y1085180D01*
G02X1224690Y1084470I-1001J-5D01*
G01X1223770Y1083560D01*
G03X1223480Y1082850I711J-705D01*
G01Y1057790D01*
X1223050Y1057240D01*
X1222710Y1057160D01*
G03X1219730Y1053380I915J-3786D01*
G01Y1045950D01*
G02X1219110Y1045030I-998J4D01*
G01X1218830Y1044910D01*
X1218250Y1045030D01*
G37*
G36*
G01X1185510Y1090820D02*
Y1111530D01*
G02X1185800Y1112240I1001J5D01*
G01X1194750Y1121190D01*
G02X1195460Y1121480I705J-711D01*
G01X1202670D01*
X1203110Y1121250D01*
X1203250Y1121030D01*
G03X1203430Y1120780I2415J1549D01*
G01X1203550Y1120630D01*
X1203660Y1120320D01*
X1203650Y1118670D01*
X1203530Y1118350D01*
X1203410Y1118210D01*
G03X1202730Y1116350I2204J-1860D01*
G01Y1113650D01*
G03X1204250Y1111120I2866J0D01*
G01X1204470Y1111000D01*
X1204740Y1110620D01*
X1205010Y1108790D01*
G02X1204730Y1107940I-990J-145D01*
G01X1187210Y1090420D01*
G02X1186120Y1090210I-702J711D01*
G01X1185840Y1090320D01*
X1185510Y1090820D01*
G37*
G36*
G01X1207600Y1230720D02*
X1195760Y1236170D01*
X1191250Y1228000D01*
X1195760Y1219830D01*
X1207600Y1225280D01*
G03Y1230720I-1260J2720D01*
G37*
G36*
G01X1210000Y1276000D02*
Y1283000D01*
X1249000D01*
Y1276000D01*
X1210000D01*
G37*
G36*
G01X1251090Y1055670D02*
G03X1249400Y1056220I-1690J-2321D01*
G01X1246600D01*
G03X1245320Y1055920I0J-2881D01*
G01X1245020Y1055770D01*
X1244400Y1055870D01*
X1238560Y1061710D01*
G02X1238270Y1062420I710J704D01*
G01Y1065630D01*
G03X1237520Y1067750I-3394J-8D01*
G01X1237420Y1067880D01*
X1237300Y1068200D01*
Y1069800D01*
X1237420Y1070120D01*
X1237520Y1070250D01*
G03X1238270Y1072370I-2644J2128D01*
G01Y1077630D01*
G03X1238220Y1078230I-3397J19D01*
G01X1238170Y1078480D01*
X1238310Y1078930D01*
X1238490Y1079110D01*
G02X1239910I710J-704D01*
G01X1252210Y1066810D01*
G02X1252500Y1066160I-707J-705D01*
G01X1252590Y1064630D01*
X1252480Y1064290D01*
X1252360Y1064140D01*
G03X1251730Y1062350I2228J-1790D01*
G01Y1059650D01*
G03X1252930Y1057310I2882J0D01*
G02Y1055690I-578J-810D01*
G03X1252910Y1055670I1995J-2015D01*
G02X1252320Y1055480I-586J808D01*
G01X1251680D01*
G02X1251090Y1055670I-4J998D01*
G37*
G36*
G01X1302690Y1052710D02*
X1294850Y1044870D01*
X1294600Y1044740D01*
X1294460Y1044710D01*
G03X1294080Y1044600I862J-3689D01*
G01X1293930Y1044560D01*
X1293770D01*
G02X1292770Y1045560I0J1000D01*
G01Y1098610D01*
G03X1292480Y1099310I-1000J-4D01*
G01X1290790Y1101000D01*
G02X1290500Y1101690I710J704D01*
G01X1290490Y1102310D01*
G02X1290690Y1102920I1000J10D01*
G03X1291270Y1104650I-2290J1730D01*
G01Y1107350D01*
G03X1291200Y1108000I-2872J19D01*
G01X1291170Y1108110D01*
Y1108220D01*
G02X1292170Y1109220I1000J0D01*
G01X1301980D01*
G02X1302980Y1108220I0J-1000D01*
G01Y1053420D01*
G02X1302690Y1052710I-1000J-6D01*
G37*
G36*
G01X1292520Y1114580D02*
X1291370Y1115820D01*
X1291240Y1116200D01*
X1291260Y1116420D01*
G03X1291270Y1116650I-2860J240D01*
G01Y1119350D01*
G03X1288400Y1122220I-2870J0D01*
G01X1287090D01*
G02X1286160Y1122840I-4J1001D01*
G01X1286050Y1123120D01*
X1286170Y1123700D01*
X1289150Y1126690D01*
G02X1289850Y1126980I704J-710D01*
G01X1305780D01*
G03X1306480Y1127270I-4J1000D01*
G01X1311340Y1132130D01*
X1311740Y1132270D01*
X1311970Y1132250D01*
G03X1312370Y1132230I407J4125D01*
G01X1317630D01*
G03X1321770Y1136370I-5J4145D01*
G01Y1143630D01*
G03X1317630Y1147770I-4145J-5D01*
G01X1312370D01*
G03X1308230Y1143630I5J-4145D01*
G01Y1136370D01*
G03X1308250Y1135970I4145J7D01*
G01X1308270Y1135740D01*
X1308130Y1135340D01*
X1304600Y1131810D01*
G02X1303900Y1131520I-704J710D01*
G01X1292140D01*
G02X1291210Y1132140I-4J1001D01*
G01X1291100Y1132420D01*
X1291220Y1133000D01*
X1292230Y1134020D01*
G03X1292520Y1134720I-710J704D01*
G01Y1153500D01*
G02X1292810Y1154200I1000J-4D01*
G01X1293220Y1154610D01*
X1293730Y1154740D01*
X1293990Y1154670D01*
G03X1295070Y1154530I1069J4007D01*
G01X1300330D01*
G03X1304470Y1158670I-5J4145D01*
G01Y1165930D01*
G03X1300330Y1170070I-4145J-5D01*
G01X1295070D01*
X1294850D01*
X1294490Y1170220D01*
X1294340Y1170360D01*
G02Y1171780I707J710D01*
G01X1294750Y1172190D01*
G02X1295460Y1172480I705J-711D01*
G01X1319540D01*
G02X1320250Y1172190I5J-1001D01*
G01X1324190Y1168250D01*
G02X1324480Y1167540I-711J-705D01*
G01Y1127460D01*
G02X1324190Y1126750I-1001J-5D01*
G01X1311990Y1114550D01*
G02X1311280Y1114260I-705J711D01*
G01X1307810D01*
X1307570Y1114320D01*
X1307460Y1114380D01*
G03X1304540I-1460J-2640D01*
G01X1304430Y1114320D01*
X1304190Y1114260D01*
X1293250D01*
G02X1292520Y1114580I3J1000D01*
G37*
%LPC*%
G75*
G36*
G01X1088500Y1274520D02*
X1089500D01*
G02X1089000Y1254480I-507J-10014D01*
G02X1088500Y1274520I7J10026D01*
G37*
G36*
G01X1390830Y1066000D02*
X1394000Y1062830D01*
G02X1394290Y1062120I-711J-705D01*
G01Y1048880D01*
G02X1394000Y1048170I-1001J-5D01*
G01X1390830Y1045000D01*
G02X1390120Y1044710I-705J711D01*
G01X1390040D01*
X1389760Y1044490D01*
G02X1387630Y1043730I-2140J2634D01*
G01X1382370D01*
G02X1379240Y1045830I8J3394D01*
G01X1379160Y1046020D01*
X1377000Y1048170D01*
G02X1376710Y1048880I711J705D01*
G01Y1062120D01*
G02X1377000Y1062830I1001J5D01*
G01X1377410Y1063240D01*
X1377490Y1063420D01*
G02X1379580Y1065510I3510J-1420D01*
G01X1379760Y1065590D01*
X1380170Y1066000D01*
G02X1380880Y1066290I705J-711D01*
G01X1390120D01*
G02X1390830Y1066000I5J-1001D01*
G37*
G54D36*
X1113020Y969820D03*
X1417820D03*
Y1115880D03*
%LPD*%
G75*
G36*
G01X1393000Y1061590D02*
Y1049410D01*
G02X1392710Y1048710I-1000J4D01*
G01X1390290Y1046290D01*
G02X1389590Y1046000I-704J710D01*
G01X1381410D01*
G02X1380710Y1046290I4J1000D01*
G01X1380020Y1046980D01*
Y1050880D01*
G03X1378460Y1053730I-3395J-6D01*
G01X1378240Y1053870D01*
X1378000Y1054320D01*
Y1061590D01*
G02X1378290Y1062290I1000J-4D01*
G01X1380710Y1064710D01*
G02X1381410Y1065000I704J-710D01*
G01X1389590D01*
G02X1390290Y1064710I-4J-1000D01*
G01X1392710Y1062290D01*
G02X1393000Y1061590I-710J-704D01*
G37*
G54D10*
X1078000Y1013000D03*
Y1051000D03*
X1080000Y1118000D03*
Y1278000D03*
X1117000Y949000D03*
X1081000Y967000D03*
X1114000Y1017000D03*
X1089000Y1055000D03*
Y1068000D03*
X1112000Y1043000D03*
X1113000Y1068560D03*
X1105000Y1147000D03*
X1118000Y1166000D03*
X1108000Y1214000D03*
X1097000Y1177000D03*
X1086000Y1203500D03*
X1084500Y1234000D03*
X1108000Y1258000D03*
X1159000Y946000D03*
X1142000Y994750D03*
X1144000Y1012000D03*
X1143760Y1003240D03*
X1139000Y1018000D03*
X1153000Y1029000D03*
X1140000Y1027500D03*
X1137000Y1005000D03*
X1142000Y1036000D03*
X1137250Y1056000D03*
X1153000D03*
X1132990Y1107020D03*
X1137000Y1092810D03*
X1153000Y1096000D03*
X1158000Y1120000D03*
X1152000Y1137000D03*
Y1167000D03*
X1168000Y1180000D03*
X1136000Y1201000D03*
X1155500Y1237500D03*
X1127000Y1224000D03*
X1153000Y1278000D03*
X1126000Y1274000D03*
X1196000Y980000D03*
X1190000Y977000D03*
X1202000Y987000D03*
X1208000Y947000D03*
X1185000Y965000D03*
X1189750Y1027000D03*
X1185000Y1032000D03*
X1196250Y1027000D03*
X1202000Y996000D03*
X1201000Y1032000D03*
X1174000Y1029000D03*
X1182990Y1038000D03*
X1172000Y1073000D03*
X1208000Y1086000D03*
X1213000Y1091000D03*
X1199000Y1106000D03*
X1190000Y1112000D03*
X1188000Y1096000D03*
X1184000Y1136000D03*
X1175000Y1165000D03*
X1207000Y1140000D03*
X1199000Y1132000D03*
X1187000Y1196000D03*
X1192000Y1261000D03*
X1208000Y1277000D03*
X1185000Y1276000D03*
X1253000Y974000D03*
X1245000Y948000D03*
X1259250Y1029500D03*
X1251000Y1035000D03*
X1245000Y1040000D03*
X1246000Y1068000D03*
X1232000Y1100000D03*
X1241000D03*
X1250000D03*
X1259000D03*
Y1109000D03*
X1250000D03*
X1241000D03*
X1232000D03*
X1259000Y1118000D03*
X1250000D03*
X1241000D03*
X1232000D03*
X1218000Y1086000D03*
X1259000Y1127000D03*
X1250000D03*
X1241000D03*
X1232000D03*
X1241000Y1162000D03*
X1230000Y1183000D03*
X1244000Y1180000D03*
Y1216000D03*
X1246500Y1248000D03*
X1240000Y1265000D03*
X1233000Y1276000D03*
X1293000Y948000D03*
X1291000Y1027000D03*
X1289750Y1035000D03*
X1282000Y1004000D03*
X1295250Y1041000D03*
X1300500Y1101000D03*
X1298000Y1094000D03*
X1271000Y1165000D03*
Y1159000D03*
X1279000Y1151000D03*
Y1160000D03*
X1272000Y1200000D03*
X1289000Y1208000D03*
X1267000Y1170000D03*
X1280000Y1175000D03*
X1273000Y1225000D03*
X1291500Y1243000D03*
X1267000Y1278000D03*
X1313000Y968000D03*
X1334000Y947000D03*
X1308000Y1021000D03*
X1331000Y1011000D03*
X1310000Y1045000D03*
X1315000Y1074500D03*
X1341500Y1058000D03*
X1347000Y1069000D03*
X1333000Y1106000D03*
X1312000Y1120000D03*
X1316000Y1089500D03*
X1305000Y1118000D03*
X1347000Y1146000D03*
X1307000Y1152000D03*
X1323000Y1208000D03*
X1306000Y1170000D03*
Y1278000D03*
X1312500Y1266000D03*
X1374000Y968000D03*
X1375000Y947000D03*
X1391000Y988000D03*
X1393000Y1018000D03*
X1354000Y1024000D03*
X1382000Y1009000D03*
X1391000Y994270D03*
X1385000Y1059000D03*
X1389000Y1056000D03*
X1381000D03*
X1389000Y1062000D03*
X1381000D03*
X1378000Y1071000D03*
X1366000Y1043000D03*
X1373000Y1051000D03*
X1368000Y1113000D03*
X1391000Y1107000D03*
X1392500Y1114000D03*
X1389500Y1090500D03*
X1391000Y1172000D03*
X1370000Y1188000D03*
X1353000Y1186000D03*
X1357000Y1238000D03*
X1368500Y1277000D03*
X1420000Y947000D03*
X1418000Y1094000D03*
Y1083000D03*
X1430000Y1121500D03*
X1423500Y1140500D03*
X1403500Y1156500D03*
X1413000Y1191000D03*
X1414000Y1243500D03*
X1437000Y1239000D03*
X1404500Y1220500D03*
X1403000Y1267500D03*
X1451000Y972000D03*
Y1009000D03*
Y1050000D03*
X1449000Y1084000D03*
X1444000Y1166000D03*
X1447000Y1213000D03*
Y1278000D03*
X1442000Y1264500D03*
G54D11*
X1113020Y969820D03*
Y1115880D03*
X1417820Y969820D03*
Y1115880D03*
G54D20*
X1192000Y1228000D03*
G54D30*
G01X1182990Y1038000D02*
Y1112990D01*
X1194000Y1124000D01*
X1207000D01*
G01X1221000Y1116500D02*
X1213530D01*
X1212030Y1115000D01*
X1207000D01*
G01X1221000Y1121500D02*
X1213950D01*
X1211450Y1124000D01*
X1207000D01*
G01X1226000Y1049000D02*
Y1082220D01*
X1227500Y1083720D01*
Y1090000D01*
G01X1232500D02*
Y1082280D01*
X1233000Y1081780D01*
Y1075000D01*
G01D02*
Y1063000D01*
G01X1269000Y1116500D02*
X1280470D01*
X1281970Y1118000D01*
X1287000D01*
G01X1306000Y1111740D02*
X1289260D01*
X1287000Y1114000D01*
Y1118000D01*
G01X1269000Y1111500D02*
X1281450D01*
X1286950Y1106000D01*
X1287000D01*
G01X1306000Y1111740D02*
X1312740D01*
X1327000Y1126000D01*
Y1169000D01*
X1321000Y1175000D01*
X1294000D01*
X1286000Y1167000D01*
Y1137020D01*
X1283980Y1135000D01*
X1279000D01*
G01X1269000Y1131500D02*
X1271500D01*
X1275000Y1135000D01*
X1279000D01*
G54D21*
X1219000Y1075000D03*
X1233000D03*
X1219000Y1063000D03*
X1233000D03*
G54D12*
X1084000Y950000D03*
X1089000Y1264500D03*
X1445500Y951000D03*
G54D31*
G01X1210000Y1049000D02*
X1222930Y1036070D01*
X1241070D01*
X1245000Y1040000D01*
G01X1251000Y1035000D02*
Y1043520D01*
X1248000Y1046520D01*
Y1052000D01*
G01D02*
X1244000D01*
X1233000Y1063000D01*
G01X1295250Y1041000D02*
X1306000Y1051750D01*
Y1111740D01*
G01X1289750Y1035000D02*
X1374000D01*
G01X1289750D02*
Y1097770D01*
X1287000Y1100520D01*
Y1106000D01*
G01X1374000Y1035000D02*
X1385000D01*
G54D13*
X1164000Y1200000D03*
Y1256000D03*
X1220000Y1200000D03*
Y1256000D03*
G54D22*
X1257500Y1090000D03*
X1252500D03*
X1247500D03*
X1242500D03*
X1237500D03*
X1232500D03*
X1227500D03*
Y1138000D03*
X1232500D03*
X1237500D03*
X1242500D03*
X1247500D03*
X1252500D03*
X1257500D03*
X1262500Y1090000D03*
Y1138000D03*
G54D32*
G01X1207000Y1063000D02*
Y1052000D01*
X1210000Y1049000D01*
G54D23*
X1221000Y1096500D03*
Y1101500D03*
Y1106500D03*
Y1111500D03*
Y1116500D03*
Y1121500D03*
Y1126500D03*
Y1131500D03*
X1269000Y1121500D03*
Y1116500D03*
Y1111500D03*
Y1106500D03*
Y1101500D03*
Y1096500D03*
Y1131500D03*
Y1126500D03*
G54D14*
X1210000Y987000D03*
X1186000D03*
X1194000D03*
X1210000Y996000D03*
X1186000D03*
X1194000D03*
X1199000Y1115000D03*
X1207000D03*
X1218000Y987000D03*
Y996000D03*
X1248000Y1052000D03*
X1256000D03*
X1248000Y1061000D03*
X1256000D03*
X1248000Y1274000D03*
X1256000D03*
G54D33*
G01X1070000Y937000D02*
X1461000D01*
Y1360000D01*
X1070000D01*
Y937000D01*
G54D15*
X1210000Y1049000D03*
X1226000D03*
G54D24*
X1245000Y1114000D03*
G54D34*
G01X1248000Y1228000D02*
X1192000D01*
G01X1256000Y1166000D02*
Y1228000D01*
G01Y1236000D02*
Y1257000D01*
G01Y1274000D02*
Y1281000D01*
G01Y1265000D02*
Y1274000D01*
G54D25*
Y1154000D03*
Y1159000D03*
Y1164000D03*
X1264250Y1154000D03*
Y1159000D03*
Y1164000D03*
G54D16*
X1207000Y1077000D03*
Y1063000D03*
X1385000Y1035000D03*
X1374000D03*
X1385000Y1049000D03*
X1374000D03*
G54D35*
G01X1114000Y1017000D02*
Y1010250D01*
X1137250Y987000D01*
X1150000D01*
X1164000Y1001000D01*
X1269000D01*
X1285000Y1017000D01*
Y1096520D01*
X1275020Y1106500D01*
X1269000D01*
G01X1112000Y1043000D02*
Y1037450D01*
X1108800Y1034250D01*
Y1011200D01*
X1136000Y984000D01*
X1152010D01*
X1164010Y996000D01*
X1186000D01*
G01X1113000Y1068560D02*
X1105800Y1061360D01*
Y1009950D01*
X1134750Y981000D01*
X1155000D01*
X1161000Y987000D01*
X1186000D01*
G01X1089000Y1055000D02*
X1084250Y1059750D01*
Y1105750D01*
X1137250Y1158750D01*
X1222770D01*
X1237500Y1144020D01*
Y1138000D01*
G01X1089000Y1068000D02*
Y1106250D01*
X1138500Y1155750D01*
X1221520D01*
X1232500Y1144770D01*
Y1138000D01*
G01X1142000Y994750D02*
X1154250Y1007000D01*
X1266500D01*
X1279000Y1019500D01*
Y1089000D01*
X1271500Y1096500D01*
X1269000D01*
G01X1144000Y1012000D02*
X1145000Y1013000D01*
X1264000D01*
X1273000Y1022000D01*
Y1066250D01*
X1257500Y1081750D01*
Y1090000D01*
G01X1137250Y1056000D02*
X1131000Y1049750D01*
Y998000D01*
X1139000Y990000D01*
X1148750D01*
X1162750Y1004000D01*
X1267750D01*
X1282000Y1018250D01*
Y1094520D01*
X1275020Y1101500D01*
X1269000D01*
G01X1143760Y1003240D02*
X1150520Y1010000D01*
X1265250D01*
X1276000Y1020750D01*
Y1067500D01*
X1262500Y1081000D01*
Y1090000D01*
G01X1139000Y1018000D02*
X1145390D01*
X1147390Y1016000D01*
X1262750D01*
X1270000Y1023250D01*
Y1065000D01*
X1252500Y1082500D01*
Y1090000D01*
G01X1140000Y1027500D02*
X1145550D01*
X1151050Y1022000D01*
X1260250D01*
X1264000Y1025750D01*
Y1062480D01*
X1242500Y1083980D01*
Y1090000D01*
G01X1137000Y1005000D02*
Y1010550D01*
X1134000Y1013550D01*
Y1020010D01*
X1136740Y1022750D01*
X1144890D01*
X1148640Y1019000D01*
X1261500D01*
X1267000Y1024500D01*
Y1063750D01*
X1247500Y1083250D01*
Y1090000D01*
G01X1142000Y1036000D02*
Y1144500D01*
X1143500Y1146000D01*
X1210000D01*
X1214000Y1142000D01*
Y1127480D01*
X1214980Y1126500D01*
X1221000D01*
G01X1227500Y1138000D02*
Y1145520D01*
X1220270Y1152750D01*
X1139750D01*
X1132990Y1145990D01*
Y1107020D01*
G01X1137000Y1092810D02*
X1138000Y1093810D01*
Y1146750D01*
X1141000Y1149750D01*
X1218000D01*
X1221000Y1146750D01*
Y1131500D01*
G01X1418000Y1094000D02*
X1411800Y1087800D01*
Y989800D01*
X1405000Y983000D01*
X1224000D01*
X1221000Y980000D01*
X1196000D01*
G01X1190000Y977000D02*
X1193200Y973800D01*
X1196520D01*
X1199720Y977000D01*
X1222250D01*
X1225250Y980000D01*
X1407000D01*
X1414800Y987800D01*
Y1079800D01*
X1418000Y1083000D01*
G01X1202000Y987000D02*
X1210000D01*
G01X1194000D02*
X1202000D01*
G01X1189750Y1027000D02*
X1191270Y1028520D01*
Y1087020D01*
X1210750Y1106500D01*
X1221000D01*
G01X1185000Y1032000D02*
X1188200Y1035200D01*
Y1088200D01*
X1211500Y1111500D01*
X1221000D01*
G01X1196250Y1027000D02*
X1194800Y1028450D01*
Y1086300D01*
X1210000Y1101500D01*
X1221000D01*
G01X1202000Y996000D02*
X1210000D01*
G01X1194000D02*
X1202000D01*
G01X1201000Y1032000D02*
Y1037550D01*
X1197800Y1040750D01*
Y1085050D01*
X1209250Y1096500D01*
X1221000D01*
G01X1207000Y1166000D02*
X1194000D01*
G01X1207000D02*
X1220520D01*
X1242500Y1144020D01*
Y1138000D01*
G01X1207000Y1181000D02*
X1194000D01*
G01X1207000D02*
X1210520D01*
X1247500Y1144020D01*
Y1138000D01*
G01X1391000Y988000D02*
X1390000Y987000D01*
X1218000D01*
G01X1391000Y994270D02*
X1386480D01*
X1382210Y990000D01*
X1224050D01*
X1218050Y996000D01*
X1218000D01*
G01X1237500Y1090000D02*
Y1084730D01*
X1256000Y1066230D01*
Y1061000D01*
G01D02*
Y1052000D01*
G01D02*
X1259250Y1048750D01*
Y1029500D01*
G01X1256000Y1164000D02*
Y1166000D01*
G01X1257500Y1138000D02*
Y1149230D01*
X1256000Y1150730D01*
Y1154000D01*
G01X1393000Y1018000D02*
X1390550D01*
X1378550Y1030000D01*
X1295000D01*
X1292000Y1027000D01*
X1291000D01*
G01X1315000Y1140000D02*
Y1139000D01*
X1305250Y1129250D01*
X1288500D01*
X1280750Y1121500D01*
X1269000D01*
G01Y1126500D02*
X1281500D01*
X1290250Y1135250D01*
Y1154850D01*
X1297700Y1162300D01*
G01X1262500Y1138000D02*
Y1148980D01*
X1264250Y1150730D01*
Y1154000D01*
G54D17*
X1207000Y1124000D03*
Y1132000D03*
X1279000Y1143000D03*
Y1135000D03*
G54D26*
X1256000Y1228000D03*
Y1236000D03*
Y1257000D03*
Y1265000D03*
G54D27*
X1222200Y1281000D03*
X1244200D03*
G54D18*
X1207000Y1166000D03*
Y1181000D03*
G54D28*
X1256000Y1281000D03*
G54D19*
X1194000Y1166000D03*
X1186000D03*
X1194000Y1181000D03*
X1186000D03*
X1256000Y1228000D03*
X1248000D03*
X1295000Y1106000D03*
X1287000D03*
X1295000Y1118000D03*
X1287000D03*
G54D29*
X1297700Y1140000D03*
Y1162300D03*
X1315000D03*
Y1140000D03*
M02*
