<svg xmlns="http://www.w3.org/2000/svg" xmlns:xlink="http://www.w3.org/1999/xlink" xmlns:lucid="lucid" width="1001" height="1238.64"><g transform="translate(-119 -60)" lucid:page-tab-id="0_0"><path d="M0 0h1360v1760H0z" fill="#fff"/><path d="M640 511.64c0-2.77 2.24-5 5-5h450c2.76 0 5 2.23 5 5v430c0 2.76-2.24 5-5 5H645c-2.76 0-5-2.24-5-5z" stroke="#e5e5e5" stroke-width="2" fill="#d1bcd2" fill-opacity=".5"/><use xlink:href="#a" transform="matrix(1,0,0,1,645,511.6353794848683) translate(0 24.888888888888893)"/><path d="M160 511.64c0-2.77 2.24-5 5-5h410c2.76 0 5 2.23 5 5v430c0 2.76-2.24 5-5 5H165c-2.76 0-5-2.24-5-5z" stroke="#e5e5e5" stroke-width="2" fill="#ffeca9" fill-opacity=".5"/><use xlink:href="#b" transform="matrix(1,0,0,1,165.00000000000003,511.6353794848683) translate(0 24.888888888888893)"/><path d="M528 80c17.67 0 32 17.9 32 40s-14.33 40-32 40h-96c-17.67 0-32-17.9-32-40s14.33-40 32-40z" stroke="#000" stroke-width="2" fill="#c7e8ac"/><use xlink:href="#c" transform="matrix(1,0,0,1,405,85) translate(45.55 38.4625)"/><path d="M480 162v-1" stroke="#000" stroke-width="2" fill="none"/><path d="M481 162.03h-2V161h2z"/><path d="M480 175.5l-4.64-14.25h9.28z" stroke="#000" stroke-width="2"/><path d="M580 90h220v60H580z" fill="none"/><path d="M580 150c2.07 0 3.75-1.68 3.75-3.75v-22.5c0-2.07 1.68-3.75 3.75-3.75-2.07 0-3.75-1.68-3.75-3.75v-22.5c0-2.07-1.68-3.75-3.75-3.75" stroke="#000" stroke-width="2" fill="none"/><use xlink:href="#d" transform="matrix(1,0,0,1,596.25,95) translate(0 28.6)"/><use xlink:href="#e" transform="matrix(1,0,0,1,596.25,95) translate(41.50000000000001 28.6)"/><path d="M480 180l80 60-80 60-80-60z" stroke="#000" stroke-width="2" fill="#fff"/><use xlink:href="#f" transform="matrix(1,0,0,1,405,185) translate(34.005 59.0875)"/><use xlink:href="#g" transform="matrix(1,0,0,1,405,185) translate(86.005 59.0875)"/><path d="M359.33 239h38v2h-40v-50.2h2zm78.5-46.37h-2V181h-61.2v-2h63.2z"/><path d="M398.33 240l1.34 1h-2.36v-2h2.37zM436.82 207.9l-4.64-14.27h9.28z"/><path d="M436.82 211.13l-6-18.5h12zm-3.26-16.5l3.26 10.03 3.26-10.03z"/><use xlink:href="#h" transform="matrix(1,0,0,1,351.6691733856516,169.2) translate(0 14.4)"/><path d="M288 140c17.67 0 32 17.9 32 40s-14.33 40-32 40h-96c-17.67 0-32-17.9-32-40s14.33-40 32-40z" stroke="#000" stroke-width="2" fill="#ffbbb1"/><use xlink:href="#i" transform="matrix(1,0,0,1,165,145) translate(45.025 38.4625)"/><path d="M351.67 181H339.5v-2h12.17zM338.5 184.64L324.24 180l14.26-4.64z"/><path d="M339.5 186l-18.5-6 18.5-6zm-12.03-6l10.03 3.26v-6.52z"/><path/><path d="M480 360l80 60-80 60-80-60z" stroke="#000" stroke-width="2" fill="#fff"/><use xlink:href="#j" transform="matrix(1,0,0,1,405,365) translate(45.055 59.0875)"/><use xlink:href="#k" transform="matrix(1,0,0,1,405,365) translate(63.005 59.0875)"/><path d="M481 319.2h-2v-16.95h2z"/><path d="M481 302.28h-2v-1.78l1 .75 1-.75zM480 355.5l-4.64-14.25h9.28z"/><path d="M480 358.75l-5.83-17.95h11.66zm-3.26-16.5l3.26 10.03 3.26-10.03z"/><use xlink:href="#l" transform="matrix(1,0,0,1,465.325,319.2) translate(0 14.4)"/><path d="M480 566.64l80 60-80 60-80-60z" stroke="#000" stroke-width="2" fill="#fff"/><use xlink:href="#m" transform="matrix(1,0,0,1,405,571.6353794848683) translate(33.404999999999994 59.0875)"/><use xlink:href="#n" transform="matrix(1,0,0,1,405,571.6353794848683) translate(97.655 59.0875)"/><path d="M481 546.88h-2v-12.76h2zm0-34.36h-2v-30.27h2z"/><path d="M481 482.28h-2v-1.78l1 .75 1-.75zM480 562.15l-4.64-14.27h9.28z"/><path d="M480 565.4l-6-18.52h12zm-3.26-16.52L480 558.9l3.26-10.02z"/><use xlink:href="#l" transform="matrix(1,0,0,1,465.325,512.5176897424342) translate(0 14.4)"/><path d="M400 746.64h160v100H400z" stroke="#000" stroke-width="2" fill="#c1e4f7"/><use xlink:href="#o" transform="matrix(1,0,0,1,405,751.6353794848683) translate(24.074999999999996 25.65)"/><use xlink:href="#p" transform="matrix(1,0,0,1,405,751.6353794848683) translate(66.025 25.65)"/><use xlink:href="#q" transform="matrix(1,0,0,1,405,751.6353794848683) translate(23.074999999999996 47.25)"/><use xlink:href="#r" transform="matrix(1,0,0,1,405,751.6353794848683) translate(69.975 47.25)"/><use xlink:href="#s" transform="matrix(1,0,0,1,405,751.6353794848683) translate(104.975 47.25)"/><use xlink:href="#t" transform="matrix(1,0,0,1,405,751.6353794848683) translate(33.125 68.85000000000001)"/><use xlink:href="#u" transform="matrix(1,0,0,1,405,751.6353794848683) translate(72.025 68.85000000000001)"/><path d="M481 705.96h-2V688.9h2zM481 688.9h-2v-1.76l1 .75 1-.76zM480 742.4l-4.64-14.27h9.28z"/><path d="M480 745.64l-5.87-18.08h11.74zm-3.26-16.5l3.26 10.02 3.26-10.03z"/><use xlink:href="#l" transform="matrix(1,0,0,1,465.325,705.9603794848683) translate(0 14.4)"/><path d="M480 986.64l80 60-80 60-80-60z" stroke="#000" stroke-width="2" fill="#fff"/><use xlink:href="#v" transform="matrix(1,0,0,1,405,991.6353794848683) translate(30.62999999999999 59.0875)"/><use xlink:href="#w" transform="matrix(1,0,0,1,405,991.6353794848683) translate(86.48 59.0875)"/><path d="M480 848.64v118.24" stroke="#000" stroke-width="2" fill="none"/><path d="M481 848.66h-2v-1.02h2z"/><path d="M480 982.15l-4.64-14.27h9.28z" stroke="#000" stroke-width="2"/><path d="M390 1166.64h180v80H390z" stroke="#000" stroke-width="2" fill="#3aa6dd"/><path d="M408 1166.64v80m144-80v80" stroke="#000" stroke-width="2" fill="none"/><use xlink:href="#x" transform="matrix(1,0,0,1,417.5,1171.6353794848683) translate(4.824999999999996 38.6)"/><use xlink:href="#y" transform="matrix(1,0,0,1,417.5,1171.6353794848683) translate(51.324999999999996 38.6)"/><use xlink:href="#z" transform="matrix(1,0,0,1,417.5,1171.6353794848683) translate(81.275 38.6)"/><path d="M481 1125.96h-2v-17.07h2z"/><path d="M481 1108.9h-2v-1.76l1 .75 1-.76zM480 1162.4l-4.64-14.27h9.28z"/><path d="M480 1165.64l-5.87-18.08h11.74zm-3.26-16.5l3.26 10.02 3.26-10.03z"/><use xlink:href="#l" transform="matrix(1,0,0,1,465.325,1125.9603794848683) translate(0 14.4)"/><path d="M260 566.64l80 60-80 60-80-60z" stroke="#000" stroke-width="2" fill="#fff"/><use xlink:href="#A" transform="matrix(1,0,0,1,185,571.6353794848683) translate(33.57999999999999 59.0875)"/><path d="M180 746.64h160v100H180z" stroke="#000" stroke-width="2" fill="#c1e4f7"/><use xlink:href="#o" transform="matrix(1,0,0,1,185,751.6353794848683) translate(34.55 25.65)"/><use xlink:href="#B" transform="matrix(1,0,0,1,185,751.6353794848683) translate(76.5 25.65)"/><use xlink:href="#q" transform="matrix(1,0,0,1,185,751.6353794848683) translate(23.074999999999996 47.25)"/><use xlink:href="#r" transform="matrix(1,0,0,1,185,751.6353794848683) translate(69.975 47.25)"/><use xlink:href="#s" transform="matrix(1,0,0,1,185,751.6353794848683) translate(104.975 47.25)"/><use xlink:href="#t" transform="matrix(1,0,0,1,185,751.6353794848683) translate(33.125 68.85000000000001)"/><use xlink:href="#C" transform="matrix(1,0,0,1,185,751.6353794848683) translate(72.025 68.85000000000001)"/><path d="M261 705.96h-2V688.9h2zM261 688.9h-2v-1.76l1 .75 1-.76zM260 742.4l-4.64-14.27h9.28z"/><path d="M260 745.64l-5.87-18.08h11.74zm-3.26-16.5l3.26 10.02 3.26-10.03z"/><use xlink:href="#l" transform="matrix(1,0,0,1,245.325,705.9603794848683) translate(0 14.4)"/><path d="M260 848.64v358h110.5" stroke="#000" stroke-width="2" fill="none"/><path d="M261 848.66h-2v-1.02h2z"/><path d="M385.76 1206.64l-14.26 4.63V1202z" stroke="#000" stroke-width="2"/><path d="M738.33 566.64l80 60-80 60-80-60z" stroke="#000" stroke-width="2" fill="#fff"/><use xlink:href="#m" transform="matrix(1,0,0,1,663.3333333333334,571.6353794848683) translate(33.404999999999994 59.0875)"/><use xlink:href="#n" transform="matrix(1,0,0,1,663.3333333333334,571.6353794848683) translate(97.655 59.0875)"/><path d="M397.33 627.64h-15.85v-2h15.85z"/><path d="M398.33 626.64l1.34 1h-2.36v-2h2.37zM358.52 631.06l-13.62-4.42 13.63-4.43z"/><path d="M358.52 632.1l-16.85-5.46 16.85-5.48zm-10.38-5.46l10.03 3.25v-6.52z"/><use xlink:href="#h" transform="matrix(1,0,0,1,358.525,615.8353794848683) translate(0 14.4)"/><path d="M658.33 746.64h160v100h-160z" stroke="#000" stroke-width="2" fill="#fff"/><use xlink:href="#D" transform="matrix(1,0,0,1,663.3333333333334,751.6353794848683) translate(15.549999999999997 36.9)"/><use xlink:href="#E" transform="matrix(1,0,0,1,663.3333333333334,751.6353794848683) translate(50.55 36.9)"/><use xlink:href="#F" transform="matrix(1,0,0,1,663.3333333333334,751.6353794848683) translate(53 58.5)"/><path d="M739.33 705.96h-2V688.9h2zM739.33 688.9h-2v-1.76l1 .75 1-.76zM738.33 742.4l-4.63-14.27h9.27z"/><path d="M738.33 745.64l-5.87-18.08h11.75zm-3.26-16.5l3.26 10.02 3.26-10.03z"/><use xlink:href="#l" transform="matrix(1,0,0,1,723.6583333333334,705.9603794848683) translate(0 14.4)"/><path d="M878.33 746.64h160v100h-160z" stroke="#000" stroke-width="2" fill="#c1e4f7"/><use xlink:href="#o" transform="matrix(1,0,0,1,883.3333333333334,751.6353794848683) translate(7.574999999999989 25.65)"/><use xlink:href="#G" transform="matrix(1,0,0,1,883.3333333333334,751.6353794848683) translate(49.52499999999999 25.65)"/><use xlink:href="#q" transform="matrix(1,0,0,1,883.3333333333334,751.6353794848683) translate(23.074999999999996 47.25)"/><use xlink:href="#r" transform="matrix(1,0,0,1,883.3333333333334,751.6353794848683) translate(69.975 47.25)"/><use xlink:href="#s" transform="matrix(1,0,0,1,883.3333333333334,751.6353794848683) translate(104.975 47.25)"/><use xlink:href="#t" transform="matrix(1,0,0,1,883.3333333333334,751.6353794848683) translate(33.125 68.85000000000001)"/><use xlink:href="#C" transform="matrix(1,0,0,1,883.3333333333334,751.6353794848683) translate(72.025 68.85000000000001)"/><path d="M836.86 627.64H821v-2h15.86z"/><path d="M821.03 627.64h-2.36l1.33-1-1.33-1h2.36zM873.43 626.64l-13.62 4.42v-8.85z"/><path d="M876.67 626.64l-16.86 5.47v-10.94zm-16.5 3.25l10.02-3.26-10.04-3.26z"/><use xlink:href="#h" transform="matrix(1,0,0,1,836.8583333333333,615.8353794848683) translate(0 14.4)"/><path d="M958.33 566.64l80 60-80 60-80-60z" stroke="#000" stroke-width="2" fill="#fff"/><use xlink:href="#H" transform="matrix(1,0,0,1,883.3333333333334,571.6353794848683) translate(38.58 48.775)"/><use xlink:href="#I" transform="matrix(1,0,0,1,883.3333333333334,571.6353794848683) translate(29.029999999999998 70.375)"/><use xlink:href="#J" transform="matrix(1,0,0,1,883.3333333333334,571.6353794848683) translate(76.98 70.375)"/><path d="M959.33 705.96h-2V688.9h2zM959.33 688.9h-2v-1.76l1 .75 1-.76zM958.33 742.4l-4.63-14.27h9.27z"/><path d="M958.33 745.64l-5.87-18.08h11.75zm-3.26-16.5l3.26 10.02 3.26-10.03z"/><g><use xlink:href="#l" transform="matrix(1,0,0,1,943.6583333333334,705.9603794848683) translate(0 14.4)"/></g><path d="M958.33 848.64v358H589.5" stroke="#000" stroke-width="2" fill="none"/><path d="M959.33 848.66h-2v-1.02h2z"/><path d="M574.24 1206.64l14.26-4.64v9.27z" stroke="#000" stroke-width="2"/><path d="M379.83 421H131v865.64h348v-38h2v40H129V419h250.83z"/><path d="M481 1248.66h-2v-1.02h2zM395.1 420l-14.27 4.64v-9.28z"/><path d="M398.33 420l-18.5 6v-12zm-16.5 3.26l10.03-3.26-10.03-3.26z"/><path d="M738.33 848.64v198H580.17" stroke="#000" stroke-width="2" fill="none"/><path d="M739.33 848.66h-2v-1.02h2z"/><path d="M564.9 1046.64l14.27-4.64v9.27z" stroke="#000" stroke-width="2"/><path d="M739.33 546.88h-2V421h-3.16v-2h5.16zM562.67 421v-2h148.55v2z"/><path d="M562.7 421h-2.37l1.34-1-1.34-1h2.36zM738.33 562.15l-4.63-14.27h9.27z"/><path d="M738.33 565.4l-6-18.52h12.02zm-3.26-16.52l3.26 10.03 3.26-10.02z"/><g><use xlink:href="#h" transform="matrix(1,0,0,1,711.2176897424341,409.2) translate(0 14.4)"/></g><path d="M280 866.64h180v60H280z" fill="none"/><path d="M280 926.64c2.07 0 3.75-1.68 3.75-3.75v-22.5c0-2.1 1.68-3.76 3.75-3.76-2.07 0-3.75-1.68-3.75-3.75v-22.5c0-2.1-1.68-3.76-3.75-3.76" stroke="#000" stroke-width="2" fill="none"/><g><use xlink:href="#K" transform="matrix(1,0,0,1,296.25,871.6353794848683) translate(0 28.6)"/><use xlink:href="#L" transform="matrix(1,0,0,1,296.25,871.6353794848683) translate(39.900000000000006 28.6)"/></g><path d="M1081 627.64h-40v-2h38V354.36H951.2v-2H1081zM928.24 354.36h-401.1v20.5h-2v-22.5h403.1z"/><path d="M1041.03 627.64h-2.36l1.33-1-1.33-1h2.36zM526.15 390.13l-4.63-14.27h9.27z"/><path d="M526.15 393.36l-6-18.5h12zm-3.26-16.5l3.25 10.03 3.26-10.04z"/><g><use xlink:href="#h" transform="matrix(1,0,0,1,928.2367931616227,342.5646205151317) translate(0 14.4)"/></g><defs><path fill-opacity=".5" d="M190 0L58-211 59 0H30v-248h39L202-35l-2-213h31V0h-41" id="M"/><path fill-opacity=".5" d="M24-231v-30h32v30H24zM24 0v-190h32V0H24" id="N"/><path fill-opacity=".5" d="M177-190C167-65 218 103 67 71c-23-6-38-20-44-43l32-5c15 47 100 32 89-28v-30C133-14 115 1 83 1 29 1 15-40 15-95c0-56 16-97 71-98 29-1 48 16 59 35 1-10 0-23 2-32h30zM94-22c36 0 50-32 50-73 0-42-14-75-50-75-39 0-46 34-46 75s6 73 46 73" id="O"/><path fill-opacity=".5" d="M106-169C34-169 62-67 57 0H25v-261h32l-1 103c12-21 28-36 61-36 89 0 53 116 60 194h-32v-121c2-32-8-49-39-48" id="P"/><path fill-opacity=".5" d="M59-47c-2 24 18 29 38 22v24C64 9 27 4 27-40v-127H5v-23h24l9-43h21v43h35v23H59v120" id="Q"/><g id="a"><use transform="matrix(0.08641975308641976,0,0,0.08641975308641976,0,0)" xlink:href="#M"/><use transform="matrix(0.08641975308641976,0,0,0.08641975308641976,22.38271604938272,0)" xlink:href="#N"/><use transform="matrix(0.08641975308641976,0,0,0.08641975308641976,29.20987654320988,0)" xlink:href="#O"/><use transform="matrix(0.08641975308641976,0,0,0.08641975308641976,46.49382716049383,0)" xlink:href="#P"/><use transform="matrix(0.08641975308641976,0,0,0.08641975308641976,63.777777777777786,0)" xlink:href="#Q"/></g><path fill-opacity=".5" d="M30-248c118-7 216 8 213 122C240-48 200 0 122 0H30v-248zM63-27c89 8 146-16 146-99s-60-101-146-95v194" id="R"/><path fill-opacity=".5" d="M141-36C126-15 110 5 73 4 37 3 15-17 15-53c-1-64 63-63 125-63 3-35-9-54-41-54-24 1-41 7-42 31l-33-3c5-37 33-52 76-52 45 0 72 20 72 64v82c-1 20 7 32 28 27v20c-31 9-61-2-59-35zM48-53c0 20 12 33 32 33 41-3 63-29 60-74-43 2-92-5-92 41" id="S"/><path fill-opacity=".5" d="M179-190L93 31C79 59 56 82 12 73V49c39 6 53-20 64-50L1-190h34L92-34l54-156h33" id="T"/><g id="b"><use transform="matrix(0.08641975308641976,0,0,0.08641975308641976,0,0)" xlink:href="#R"/><use transform="matrix(0.08641975308641976,0,0,0.08641975308641976,22.38271604938272,0)" xlink:href="#S"/><use transform="matrix(0.08641975308641976,0,0,0.08641975308641976,39.66666666666667,0)" xlink:href="#T"/></g><path d="M33 0v-248h34V0H33" id="U"/><path d="M210-169c-67 3-38 105-44 169h-31v-121c0-29-5-50-35-48C34-165 62-65 56 0H25l-1-190h30c1 10-1 24 2 32 10-44 99-50 107 0 11-21 27-35 58-36 85-2 47 119 55 194h-31v-121c0-29-5-49-35-48" id="V"/><path d="M115-194c55 1 70 41 70 98S169 2 115 4C84 4 66-9 55-30l1 105H24l-1-265h31l2 30c10-21 28-34 59-34zm-8 174c40 0 45-34 45-75s-6-73-45-74c-42 0-51 32-51 76 0 43 10 73 51 73" id="W"/><path d="M24 0v-261h32V0H24" id="X"/><path d="M141-36C126-15 110 5 73 4 37 3 15-17 15-53c-1-64 63-63 125-63 3-35-9-54-41-54-24 1-41 7-42 31l-33-3c5-37 33-52 76-52 45 0 72 20 72 64v82c-1 20 7 32 28 27v20c-31 9-61-2-59-35zM48-53c0 20 12 33 32 33 41-3 63-29 60-74-43 2-92-5-92 41" id="Y"/><path d="M117-194c89-4 53 116 60 194h-32v-121c0-31-8-49-39-48C34-167 62-67 57 0H25l-1-190h30c1 10-1 24 2 32 11-22 29-35 61-36" id="Z"/><path d="M59-47c-2 24 18 29 38 22v24C64 9 27 4 27-40v-127H5v-23h24l9-43h21v43h35v23H59v120" id="aa"/><g id="c"><use transform="matrix(0.05,0,0,0.05,0,0)" xlink:href="#U"/><use transform="matrix(0.05,0,0,0.05,5,0)" xlink:href="#V"/><use transform="matrix(0.05,0,0,0.05,19.950000000000003,0)" xlink:href="#W"/><use transform="matrix(0.05,0,0,0.05,29.950000000000003,0)" xlink:href="#X"/><use transform="matrix(0.05,0,0,0.05,33.900000000000006,0)" xlink:href="#Y"/><use transform="matrix(0.05,0,0,0.05,43.900000000000006,0)" xlink:href="#Z"/><use transform="matrix(0.05,0,0,0.05,53.900000000000006,0)" xlink:href="#aa"/></g><path d="M233-177c-1 41-23 64-60 70L243 0h-38l-65-103H63V0H30v-248c88 3 205-21 203 71zM63-129c60-2 137 13 137-47 0-61-80-42-137-45v92" id="ab"/><path d="M127-220V0H93v-220H8v-28h204v28h-85" id="ac"/><path d="M212-179c-10-28-35-45-73-45-59 0-87 40-87 99 0 60 29 101 89 101 43 0 62-24 78-52l27 14C228-24 195 4 139 4 59 4 22-46 18-125c-6-104 99-153 187-111 19 9 31 26 39 46" id="ad"/><g id="d"><use transform="matrix(0.05,0,0,0.05,0,0)" xlink:href="#ab"/><use transform="matrix(0.05,0,0,0.05,12.600000000000001,0)" xlink:href="#ac"/><use transform="matrix(0.05,0,0,0.05,23.550000000000004,0)" xlink:href="#ad"/></g><path d="M96-169c-40 0-48 33-48 73s9 75 48 75c24 0 41-14 43-38l32 2c-6 37-31 61-74 61-59 0-76-41-82-99-10-93 101-131 147-64 4 7 5 14 7 22l-32 3c-4-21-16-35-41-35" id="ae"/><path d="M24-231v-30h32v30H24zM24 0v-190h32V0H24" id="af"/><path d="M115-194c53 0 69 39 70 98 0 66-23 100-70 100C84 3 66-7 56-30L54 0H23l1-261h32v101c10-23 28-34 59-34zm-8 174c40 0 45-34 45-75 0-40-5-75-45-74-42 0-51 32-51 76 0 43 10 73 51 73" id="ag"/><path d="M114-163C36-179 61-72 57 0H25l-1-190h30c1 12-1 29 2 39 6-27 23-49 58-41v29" id="ah"/><path d="M100-194c62-1 85 37 85 99 1 63-27 99-86 99S16-35 15-95c0-66 28-99 85-99zM99-20c44 1 53-31 53-75 0-43-8-75-51-75s-53 32-53 75 10 74 51 75" id="ai"/><g id="e"><use transform="matrix(0.05,0,0,0.05,0,0)" xlink:href="#ae"/><use transform="matrix(0.05,0,0,0.05,9,0)" xlink:href="#Y"/><use transform="matrix(0.05,0,0,0.05,19,0)" xlink:href="#X"/><use transform="matrix(0.05,0,0,0.05,22.95,0)" xlink:href="#af"/><use transform="matrix(0.05,0,0,0.05,26.899999999999995,0)" xlink:href="#ag"/><use transform="matrix(0.05,0,0,0.05,36.9,0)" xlink:href="#ah"/><use transform="matrix(0.05,0,0,0.05,42.85,0)" xlink:href="#Y"/><use transform="matrix(0.05,0,0,0.05,52.85,0)" xlink:href="#aa"/><use transform="matrix(0.05,0,0,0.05,57.85,0)" xlink:href="#af"/><use transform="matrix(0.05,0,0,0.05,61.800000000000004,0)" xlink:href="#ai"/><use transform="matrix(0.05,0,0,0.05,71.80000000000001,0)" xlink:href="#Z"/></g><path d="M185-189c-5-48-123-54-124 2 14 75 158 14 163 119 3 78-121 87-175 55-17-10-28-26-33-46l33-7c5 56 141 63 141-1 0-78-155-14-162-118-5-82 145-84 179-34 5 7 8 16 11 25" id="aj"/><path d="M100-194c63 0 86 42 84 106H49c0 40 14 67 53 68 26 1 43-12 49-29l28 8c-11 28-37 45-77 45C44 4 14-33 15-96c1-61 26-98 85-98zm52 81c6-60-76-77-97-28-3 7-6 17-6 28h103" id="ak"/><path d="M33-154v-36h34v36H33zM33 0v-36h34V0H33" id="al"/><g id="f"><use transform="matrix(0.05,0,0,0.05,0,0)" xlink:href="#aj"/><use transform="matrix(0.05,0,0,0.05,12,0)" xlink:href="#aa"/><use transform="matrix(0.05,0,0,0.05,17,0)" xlink:href="#Y"/><use transform="matrix(0.05,0,0,0.05,27,0)" xlink:href="#aa"/><use transform="matrix(0.05,0,0,0.05,32,0)" xlink:href="#ak"/><use transform="matrix(0.05,0,0,0.05,42,0)" xlink:href="#al"/></g><path d="M103-251c84 0 111 97 45 133-19 10-37 24-39 52H78c0-63 77-55 77-114 0-30-21-42-52-43-32 0-53 17-56 46l-32-2c7-45 34-72 88-72zM77 0v-35h34V0H77" id="am"/><g id="g"><use transform="matrix(0.05,0,0,0.05,0,0)" xlink:href="#ai"/><use transform="matrix(0.05,0,0,0.05,10,0)" xlink:href="#Z"/><use transform="matrix(0.05,0,0,0.05,20,0)" xlink:href="#am"/></g><path d="M190 0L58-211 59 0H30v-248h39L202-35l-2-213h31V0h-41" id="an"/><g id="h"><use transform="matrix(0.05,0,0,0.05,0,0)" xlink:href="#an"/><use transform="matrix(0.05,0,0,0.05,12.950000000000001,0)" xlink:href="#ai"/></g><path d="M30 0v-248h187v28H63v79h144v27H63v87h162V0H30" id="ao"/><path d="M141 0L90-78 38 0H4l68-98-65-92h35l48 74 47-74h35l-64 92 68 98h-35" id="ap"/><g id="i"><use transform="matrix(0.05,0,0,0.05,0,0)" xlink:href="#ao"/><use transform="matrix(0.05,0,0,0.05,12,0)" xlink:href="#ap"/><use transform="matrix(0.05,0,0,0.05,21,0)" xlink:href="#W"/><use transform="matrix(0.05,0,0,0.05,31,0)" xlink:href="#X"/><use transform="matrix(0.05,0,0,0.05,34.95,0)" xlink:href="#Y"/><use transform="matrix(0.05,0,0,0.05,44.95,0)" xlink:href="#Z"/><use transform="matrix(0.05,0,0,0.05,54.95,0)" xlink:href="#aa"/></g><path d="M135-143c-3-34-86-38-87 0 15 53 115 12 119 90S17 21 10-45l28-5c4 36 97 45 98 0-10-56-113-15-118-90-4-57 82-63 122-42 12 7 21 19 24 35" id="aq"/><g id="j"><use transform="matrix(0.05,0,0,0.05,0,0)" xlink:href="#af"/><use transform="matrix(0.05,0,0,0.05,3.95,0)" xlink:href="#aq"/></g><path d="M30-248c118-7 216 8 213 122C240-48 200 0 122 0H30v-248zM63-27c89 8 146-16 146-99s-60-101-146-95v194" id="ar"/><path d="M179-190L93 31C79 59 56 82 12 73V49c39 6 53-20 64-50L1-190h34L92-34l54-156h33" id="as"/><g id="k"><use transform="matrix(0.05,0,0,0.05,0,0)" xlink:href="#ar"/><use transform="matrix(0.05,0,0,0.05,12.950000000000001,0)" xlink:href="#Y"/><use transform="matrix(0.05,0,0,0.05,22.950000000000003,0)" xlink:href="#as"/><use transform="matrix(0.05,0,0,0.05,31.950000000000003,0)" xlink:href="#am"/></g><path d="M137-103V0h-34v-103L8-248h37l75 118 75-118h37" id="at"/><g id="l"><use transform="matrix(0.05,0,0,0.05,0,0)" xlink:href="#at"/><use transform="matrix(0.05,0,0,0.05,10.35,0)" xlink:href="#ak"/><use transform="matrix(0.05,0,0,0.05,20.35,0)" xlink:href="#aq"/></g><path d="M205 0l-28-72H64L36 0H1l101-248h38L239 0h-34zm-38-99l-47-123c-12 45-31 82-46 123h93" id="au"/><path d="M30 0v-248h33v221h125V0H30" id="av"/><g id="m"><use transform="matrix(0.05,0,0,0.05,0,0)" xlink:href="#au"/><use transform="matrix(0.05,0,0,0.05,12,0)" xlink:href="#ad"/><use transform="matrix(0.05,0,0,0.05,24.950000000000003,0)" xlink:href="#ad"/><use transform="matrix(0.05,0,0,0.05,37.900000000000006,0)" xlink:href="#ao"/><use transform="matrix(0.05,0,0,0.05,49.900000000000006,0)" xlink:href="#av"/></g><g id="n"><use transform="matrix(0.05,0,0,0.05,0,0)" xlink:href="#af"/><use transform="matrix(0.05,0,0,0.05,3.95,0)" xlink:href="#Z"/><use transform="matrix(0.05,0,0,0.05,13.949999999999998,0)" xlink:href="#aa"/></g><g id="o"><use transform="matrix(0.05,0,0,0.05,0,0)" xlink:href="#ab"/><use transform="matrix(0.05,0,0,0.05,12.950000000000001,0)" xlink:href="#ak"/><use transform="matrix(0.05,0,0,0.05,22.950000000000003,0)" xlink:href="#ae"/><use transform="matrix(0.05,0,0,0.05,31.950000000000003,0)" xlink:href="#al"/></g><g id="p"><use transform="matrix(0.05,0,0,0.05,0,0)" xlink:href="#au"/><use transform="matrix(0.05,0,0,0.05,12,0)" xlink:href="#ad"/><use transform="matrix(0.05,0,0,0.05,24.950000000000003,0)" xlink:href="#ad"/><use transform="matrix(0.05,0,0,0.05,37.900000000000006,0)" xlink:href="#ao"/><use transform="matrix(0.05,0,0,0.05,49.900000000000006,0)" xlink:href="#av"/></g><path d="M63-220v92h138v28H63V0H30v-248h175v28H63" id="aw"/><path d="M145-31C134-9 116 4 85 4 32 4 16-35 15-94c0-59 17-99 70-100 32-1 48 14 60 33 0-11-1-24 2-32h30l-1 268h-32zM93-21c41 0 51-33 51-76s-8-73-50-73c-40 0-46 35-46 75s5 74 45 74" id="ax"/><g id="q"><use transform="matrix(0.05,0,0,0.05,0,0)" xlink:href="#aw"/><use transform="matrix(0.05,0,0,0.05,10.950000000000001,0)" xlink:href="#ah"/><use transform="matrix(0.05,0,0,0.05,16.900000000000002,0)" xlink:href="#ak"/><use transform="matrix(0.05,0,0,0.05,26.900000000000002,0)" xlink:href="#ax"/><use transform="matrix(0.05,0,0,0.05,36.900000000000006,0)" xlink:href="#al"/></g><path d="M101-251c82-7 93 87 43 132L82-64C71-53 59-42 53-27h129V0H18c2-99 128-94 128-182 0-28-16-43-45-43s-46 15-49 41l-32-3c6-41 34-60 81-64" id="ay"/><path d="M101-251c68 0 85 55 85 127S166 4 100 4C33 4 14-52 14-124c0-73 17-127 87-127zm-1 229c47 0 54-49 54-102s-4-102-53-102c-51 0-55 48-55 102 0 53 5 102 54 102" id="az"/><g id="r"><use transform="matrix(0.05,0,0,0.05,0,0)" xlink:href="#ay"/><use transform="matrix(0.05,0,0,0.05,10,0)" xlink:href="#az"/><use transform="matrix(0.05,0,0,0.05,20,0)" xlink:href="#az"/></g><path d="M197 0v-115H63V0H30v-248h33v105h134v-105h34V0h-34" id="aA"/><path d="M9 0v-24l116-142H16v-24h144v24L44-24h123V0H9" id="aB"/><g id="s"><use transform="matrix(0.05,0,0,0.05,0,0)" xlink:href="#aA"/><use transform="matrix(0.05,0,0,0.05,12.950000000000001,0)" xlink:href="#aB"/></g><path d="M84 4C-5 8 30-112 23-190h32v120c0 31 7 50 39 49 72-2 45-101 50-169h31l1 190h-30c-1-10 1-25-2-33-11 22-28 36-60 37" id="aC"/><g id="t"><use transform="matrix(0.05,0,0,0.05,0,0)" xlink:href="#ar"/><use transform="matrix(0.05,0,0,0.05,12.950000000000001,0)" xlink:href="#aC"/><use transform="matrix(0.05,0,0,0.05,22.950000000000003,0)" xlink:href="#ah"/><use transform="matrix(0.05,0,0,0.05,28.900000000000002,0)" xlink:href="#al"/></g><path d="M27 0v-27h64v-190l-56 39v-29l58-41h29v221h61V0H27" id="aD"/><path d="M16-82v-28h88v28H16" id="aE"/><g id="u"><use transform="matrix(0.05,0,0,0.05,0,0)" xlink:href="#aD"/><use transform="matrix(0.05,0,0,0.05,10,0)" xlink:href="#aE"/><use transform="matrix(0.05,0,0,0.05,15.949999999999998,0)" xlink:href="#V"/><use transform="matrix(0.05,0,0,0.05,30.899999999999995,0)" xlink:href="#af"/><use transform="matrix(0.05,0,0,0.05,34.85,0)" xlink:href="#Z"/></g><path d="M240 0l2-218c-23 76-54 145-80 218h-23L58-218 59 0H30v-248h44l77 211c21-75 51-140 76-211h43V0h-30" id="aF"/><g id="v"><use transform="matrix(0.05,0,0,0.05,0,0)" xlink:href="#aw"/><use transform="matrix(0.05,0,0,0.05,10.950000000000001,0)" xlink:href="#ab"/><use transform="matrix(0.05,0,0,0.05,23.900000000000002,0)" xlink:href="#au"/><use transform="matrix(0.05,0,0,0.05,35.900000000000006,0)" xlink:href="#aF"/></g><path d="M101-234c-31-9-42 10-38 44h38v23H63V0H32v-167H5v-23h27c-7-52 17-82 69-68v24" id="aG"/><g id="w"><use transform="matrix(0.05,0,0,0.05,0,0)" xlink:href="#aG"/><use transform="matrix(0.05,0,0,0.05,5,0)" xlink:href="#aC"/><use transform="matrix(0.05,0,0,0.05,15,0)" xlink:href="#X"/><use transform="matrix(0.05,0,0,0.05,18.95,0)" xlink:href="#X"/><use transform="matrix(0.05,0,0,0.05,22.9,0)" xlink:href="#am"/></g><path d="M266 0h-40l-56-210L115 0H75L2-248h35L96-30l15-64 43-154h32l59 218 59-218h35" id="aH"/><g id="x"><use transform="matrix(0.05,0,0,0.05,0,0)" xlink:href="#aH"/><use transform="matrix(0.05,0,0,0.05,16.599999999999998,0)" xlink:href="#ah"/><use transform="matrix(0.05,0,0,0.05,22.549999999999997,0)" xlink:href="#af"/><use transform="matrix(0.05,0,0,0.05,26.499999999999996,0)" xlink:href="#aa"/><use transform="matrix(0.05,0,0,0.05,31.499999999999996,0)" xlink:href="#ak"/></g><g id="y"><use transform="matrix(0.05,0,0,0.05,0,0)" xlink:href="#aj"/><use transform="matrix(0.05,0,0,0.05,12,0)" xlink:href="#ar"/></g><path d="M85-194c31 0 48 13 60 33l-1-100h32l1 261h-30c-2-10 0-23-3-31C134-8 116 4 85 4 32 4 16-35 15-94c0-66 23-100 70-100zm9 24c-40 0-46 34-46 75 0 40 6 74 45 74 42 0 51-32 51-76 0-42-9-74-50-73" id="aI"/><g id="z"><use transform="matrix(0.05,0,0,0.05,0,0)" xlink:href="#ad"/><use transform="matrix(0.05,0,0,0.05,12.950000000000001,0)" xlink:href="#Y"/><use transform="matrix(0.05,0,0,0.05,22.950000000000003,0)" xlink:href="#ah"/><use transform="matrix(0.05,0,0,0.05,28.900000000000002,0)" xlink:href="#aI"/></g><path d="M0 4l72-265h28L28 4H0" id="aJ"/><path d="M126-127c33 6 58 20 58 59 0 88-139 92-164 29-3-8-5-16-6-25l32-3c6 27 21 44 54 44 32 0 52-15 52-46 0-38-36-46-79-43v-28c39 1 72-4 72-42 0-27-17-43-46-43-28 0-47 15-49 41l-32-3c6-42 35-63 81-64 48-1 79 21 79 65 0 36-21 52-52 59" id="aK"/><g id="A"><use transform="matrix(0.05,0,0,0.05,0,0)" xlink:href="#ac"/><use transform="matrix(0.05,0,0,0.05,10.950000000000001,0)" xlink:href="#aD"/><use transform="matrix(0.05,0,0,0.05,20.950000000000003,0)" xlink:href="#aJ"/><use transform="matrix(0.05,0,0,0.05,25.950000000000003,0)" xlink:href="#ac"/><use transform="matrix(0.05,0,0,0.05,36.900000000000006,0)" xlink:href="#ay"/><use transform="matrix(0.05,0,0,0.05,46.900000000000006,0)" xlink:href="#aJ"/><use transform="matrix(0.05,0,0,0.05,51.900000000000006,0)" xlink:href="#ac"/><use transform="matrix(0.05,0,0,0.05,62.85,0)" xlink:href="#aK"/><use transform="matrix(0.05,0,0,0.05,72.85000000000001,0)" xlink:href="#am"/></g><path d="M143 4C61 4 22-44 18-125c-5-107 100-154 193-111 17 8 29 25 37 43l-32 9c-13-25-37-40-76-40-61 0-88 39-88 99 0 61 29 100 91 101 35 0 62-11 79-27v-45h-74v-28h105v86C228-13 192 4 143 4" id="aL"/><g id="B"><use transform="matrix(0.05,0,0,0.05,0,0)" xlink:href="#ao"/><use transform="matrix(0.05,0,0,0.05,12,0)" xlink:href="#ad"/><use transform="matrix(0.05,0,0,0.05,24.950000000000003,0)" xlink:href="#aL"/></g><path d="M54-142c48-35 137-8 131 61C196 18 31 33 14-55l32-4c7 23 22 37 52 37 35-1 51-22 54-58 4-55-73-65-99-34H22l8-134h141v27H59" id="aM"/><g id="C"><use transform="matrix(0.05,0,0,0.05,0,0)" xlink:href="#aM"/><use transform="matrix(0.05,0,0,0.05,10,0)" xlink:href="#aE"/><use transform="matrix(0.05,0,0,0.05,15.949999999999998,0)" xlink:href="#V"/><use transform="matrix(0.05,0,0,0.05,30.899999999999995,0)" xlink:href="#af"/><use transform="matrix(0.05,0,0,0.05,34.85,0)" xlink:href="#Z"/></g><path d="M177-190C167-65 218 103 67 71c-23-6-38-20-44-43l32-5c15 47 100 32 89-28v-30C133-14 115 1 83 1 29 1 15-40 15-95c0-56 16-97 71-98 29-1 48 16 59 35 1-10 0-23 2-32h30zM94-22c36 0 50-32 50-73 0-42-14-75-50-75-39 0-46 34-46 75s6 73 46 73" id="aN"/><g id="D"><use transform="matrix(0.05,0,0,0.05,0,0)" xlink:href="#av"/><use transform="matrix(0.05,0,0,0.05,10,0)" xlink:href="#ai"/><use transform="matrix(0.05,0,0,0.05,20,0)" xlink:href="#aN"/></g><path d="M108 0H70L1-190h34L89-25l56-165h34" id="aO"/><g id="E"><use transform="matrix(0.05,0,0,0.05,0,0)" xlink:href="#V"/><use transform="matrix(0.05,0,0,0.05,14.950000000000001,0)" xlink:href="#ai"/><use transform="matrix(0.05,0,0,0.05,24.950000000000003,0)" xlink:href="#aO"/><use transform="matrix(0.05,0,0,0.05,33.95,0)" xlink:href="#ak"/><use transform="matrix(0.05,0,0,0.05,43.95,0)" xlink:href="#V"/><use transform="matrix(0.05,0,0,0.05,58.900000000000006,0)" xlink:href="#ak"/><use transform="matrix(0.05,0,0,0.05,68.9,0)" xlink:href="#Z"/><use transform="matrix(0.05,0,0,0.05,78.9,0)" xlink:href="#aa"/></g><g id="F"><use transform="matrix(0.05,0,0,0.05,0,0)" xlink:href="#ak"/><use transform="matrix(0.05,0,0,0.05,10,0)" xlink:href="#aO"/><use transform="matrix(0.05,0,0,0.05,19,0)" xlink:href="#ak"/><use transform="matrix(0.05,0,0,0.05,29,0)" xlink:href="#Z"/><use transform="matrix(0.05,0,0,0.05,39,0)" xlink:href="#aa"/></g><g id="G"><use transform="matrix(0.05,0,0,0.05,0,0)" xlink:href="#ao"/><use transform="matrix(0.05,0,0,0.05,12,0)" xlink:href="#ad"/><use transform="matrix(0.05,0,0,0.05,24.950000000000003,0)" xlink:href="#aL"/><use transform="matrix(0.05,0,0,0.05,38.95,0)" xlink:href="#aJ"/><use transform="matrix(0.05,0,0,0.05,43.95,0)" xlink:href="#ao"/><use transform="matrix(0.05,0,0,0.05,55.95,0)" xlink:href="#ad"/><use transform="matrix(0.05,0,0,0.05,68.9,0)" xlink:href="#ai"/><use transform="matrix(0.05,0,0,0.05,78.9,0)" xlink:href="#aL"/></g><g id="H"><use transform="matrix(0.05,0,0,0.05,0,0)" xlink:href="#an"/><use transform="matrix(0.05,0,0,0.05,12.950000000000001,0)" xlink:href="#ai"/><use transform="matrix(0.05,0,0,0.05,22.950000000000003,0)" xlink:href="#aE"/><use transform="matrix(0.05,0,0,0.05,28.900000000000002,0)" xlink:href="#V"/><use transform="matrix(0.05,0,0,0.05,43.85,0)" xlink:href="#ai"/><use transform="matrix(0.05,0,0,0.05,53.85,0)" xlink:href="#aO"/><use transform="matrix(0.05,0,0,0.05,62.85,0)" xlink:href="#ak"/></g><g id="I"><use transform="matrix(0.05,0,0,0.05,0,0)" xlink:href="#aI"/><use transform="matrix(0.05,0,0,0.05,10,0)" xlink:href="#ak"/><use transform="matrix(0.05,0,0,0.05,20,0)" xlink:href="#X"/><use transform="matrix(0.05,0,0,0.05,23.95,0)" xlink:href="#Y"/><use transform="matrix(0.05,0,0,0.05,33.95,0)" xlink:href="#as"/></g><g id="J"><use transform="matrix(0.05,0,0,0.05,0,0)" xlink:href="#W"/><use transform="matrix(0.05,0,0,0.05,10,0)" xlink:href="#Y"/><use transform="matrix(0.05,0,0,0.05,20,0)" xlink:href="#aq"/><use transform="matrix(0.05,0,0,0.05,29,0)" xlink:href="#aa"/><use transform="matrix(0.05,0,0,0.05,34,0)" xlink:href="#am"/></g><g id="K"><use transform="matrix(0.05,0,0,0.05,0,0)" xlink:href="#aw"/><use transform="matrix(0.05,0,0,0.05,10.950000000000001,0)" xlink:href="#X"/><use transform="matrix(0.05,0,0,0.05,14.9,0)" xlink:href="#Y"/><use transform="matrix(0.05,0,0,0.05,24.900000000000002,0)" xlink:href="#aN"/></g><g id="L"><use transform="matrix(0.05,0,0,0.05,0,0)" xlink:href="#ac"/><use transform="matrix(0.05,0,0,0.05,10.950000000000001,0)" xlink:href="#aD"/><use transform="matrix(0.05,0,0,0.05,20.950000000000003,0)" xlink:href="#aJ"/><use transform="matrix(0.05,0,0,0.05,25.950000000000003,0)" xlink:href="#ac"/><use transform="matrix(0.05,0,0,0.05,36.900000000000006,0)" xlink:href="#ay"/><use transform="matrix(0.05,0,0,0.05,46.900000000000006,0)" xlink:href="#aJ"/><use transform="matrix(0.05,0,0,0.05,51.900000000000006,0)" xlink:href="#ac"/><use transform="matrix(0.05,0,0,0.05,62.85,0)" xlink:href="#aK"/></g></defs></g></svg>