<?xml version="1.0" encoding="utf-8"?>
<!-- Generator: Adobe Illustrator 24.0.0, SVG Export Plug-In . SVG Version: 6.00 Build 0)  -->
<svg version="1.1" id="Capa_1" xmlns="http://www.w3.org/2000/svg" xmlns:xlink="http://www.w3.org/1999/xlink" x="0px" y="0px"
	 viewBox="0 0 160.5 160.5" style="enable-background:new 0 0 160.5 160.5;" xml:space="preserve">
<style type="text/css">
	.st0{fill:#267CB9;}
</style>
<g>
	<path class="st0" d="M43.4,82.1C39.2,103.9,17,97.5,8.9,81.7c-0.6-1.2,0.1-2.6,1.5-2.8c10.7-1.7,22-14.1,32.7,1.7
		C43.4,81,43.5,81.6,43.4,82.1z M20.3,68.6c0.2-12.2,9.2-7.2,14.8-12.3c0.7-0.6,0.9-1.7,0.4-2.5c-6.2-10.4-21,0.6-28.4-7.1
		C5.4,45,2.7,47.1,4,49c0.7,1,1.8,2,3.1,2.9c1,0.7,1.1,2.2,0.1,3.1c-20.7,18,9.7,31.6,13.1,14C20.3,68.9,20.3,68.7,20.3,68.6z
		 M160.1,45.6c-0.1,1.3-1.6,2.2-2.8,1.6C70.7,6,239.8,138.8,57.8,154c-0.6,0-1.2,0.1-1.8,0.2c-1.9,0.3-3.1-1.9-1.8-3.3l0,0
		c1-1.1,0.5-2.8-0.9-3.2c-12.1-3.3-26.3,8.2-6.6-9.2c0.8-0.7,0.9-1.8,0.3-2.6c-19.5-26.6,25.5-62.5-21.2-67
		c-1.3-0.1-2.2-1.6-1.6-2.8c5.3-11.7,25.3,3.2,24.6-16c0-0.9-0.7-1.7-1.6-1.8C4.1,39.9,50.1,27.8,52,12.5c0.2-1.5,1.8-2.3,3-1.5
		c0.8,0.5,1.7,1.3,2.4,2.2c1,1.1,2.8,0.7,3.3-0.7C70-15.6,79.1,42.9,83.5,51.8c0,0.1,0.1,0.2,0.2,0.3C95.3,68,119,97.8,109,126.2
		c11.3-29.9-4.9-54.4-15.6-74.3c0-0.1-0.1-0.1-0.1-0.2C72.4,3.3,166-14.5,160.1,45.6z M48.9,27.5c-4.2-0.4-12,8.5-1.3,6.4
		c0.3-0.1,0.6-0.2,0.8-0.4c0.9-0.7,1.9-1.5,2.2-3.9C50.7,28.6,50,27.6,48.9,27.5z"/>
</g>
</svg>
