G04 #@! TF.GenerationSoftware,KiCad,Pcbnew,(5.1.5-0-10_14)*
G04 #@! TF.CreationDate,2021-05-03T17:37:28-04:00*
G04 #@! TF.ProjectId,ESLO_RB2,45534c4f-5f52-4423-922e-6b696361645f,rev?*
G04 #@! TF.SameCoordinates,Original*
G04 #@! TF.FileFunction,Copper,L4,Bot*
G04 #@! TF.FilePolarity,Positive*
%FSLAX46Y46*%
G04 Gerber Fmt 4.6, Leading zero omitted, Abs format (unit mm)*
G04 Created by KiCad (PCBNEW (5.1.5-0-10_14)) date 2021-05-03 17:37:28*
%MOMM*%
%LPD*%
G04 APERTURE LIST*
%ADD10R,0.600000X1.300000*%
%ADD11R,0.600000X1.900000*%
%ADD12R,0.600000X2.300000*%
%ADD13R,0.600000X2.500000*%
%ADD14R,1.300000X0.600000*%
%ADD15R,1.900000X0.600000*%
%ADD16R,2.300000X0.600000*%
%ADD17R,2.500000X0.600000*%
%ADD18R,0.600000X2.000000*%
%ADD19R,1.060000X0.650000*%
%ADD20C,0.100000*%
%ADD21R,3.400000X1.800000*%
%ADD22R,5.090000X2.000000*%
%ADD23C,0.450000*%
%ADD24C,0.150000*%
G04 APERTURE END LIST*
D10*
X211260000Y-96600000D03*
D11*
X212530000Y-96900000D03*
D12*
X213800000Y-97100000D03*
D13*
X215070000Y-97200000D03*
X216340000Y-97200000D03*
D12*
X217610000Y-97100000D03*
D11*
X218880000Y-96900000D03*
D10*
X220150000Y-96600000D03*
D14*
X207930000Y-84240000D03*
D15*
X207630000Y-85510000D03*
D16*
X207430000Y-86780000D03*
D17*
X207330000Y-88050000D03*
X207330000Y-89320000D03*
D16*
X207430000Y-90590000D03*
D15*
X207630000Y-91860000D03*
D14*
X207930000Y-93130000D03*
D18*
X222400000Y-94050000D03*
X221400000Y-94050000D03*
D19*
X222600000Y-84200000D03*
X222600000Y-85150000D03*
X222600000Y-83250000D03*
X220400000Y-83250000D03*
X220400000Y-84200000D03*
X220400000Y-85150000D03*
G04 #@! TA.AperFunction,SMDPad,CuDef*
D20*
G36*
X217200000Y-81259878D02*
G01*
X217610122Y-81670000D01*
X217200000Y-82080122D01*
X216789878Y-81670000D01*
X217200000Y-81259878D01*
G37*
G04 #@! TD.AperFunction*
G04 #@! TA.AperFunction,Conductor*
G36*
X217579289Y-81470000D02*
G01*
X217370000Y-81260711D01*
X217370000Y-81010000D01*
X217680000Y-81010000D01*
X217680000Y-81470000D01*
X217579289Y-81470000D01*
G37*
G04 #@! TD.AperFunction*
G04 #@! TA.AperFunction,Conductor*
G36*
X217370000Y-82330000D02*
G01*
X217370000Y-82079289D01*
X217579289Y-81870000D01*
X217680000Y-81870000D01*
X217680000Y-82330000D01*
X217370000Y-82330000D01*
G37*
G04 #@! TD.AperFunction*
G04 #@! TA.AperFunction,Conductor*
G36*
X216720000Y-82330000D02*
G01*
X216720000Y-81870000D01*
X216820711Y-81870000D01*
X217030000Y-82079289D01*
X217030000Y-82330000D01*
X216720000Y-82330000D01*
G37*
G04 #@! TD.AperFunction*
G04 #@! TA.AperFunction,Conductor*
G36*
X216820711Y-81470000D02*
G01*
X216720000Y-81470000D01*
X216720000Y-81010000D01*
X217030000Y-81010000D01*
X217030000Y-81260711D01*
X216820711Y-81470000D01*
G37*
G04 #@! TD.AperFunction*
G04 #@! TA.AperFunction,SMDPad,CuDef*
G36*
X217646958Y-79780710D02*
G01*
X217661276Y-79782834D01*
X217675317Y-79786351D01*
X217688946Y-79791228D01*
X217702031Y-79797417D01*
X217714447Y-79804858D01*
X217726073Y-79813481D01*
X217736798Y-79823202D01*
X217746519Y-79833927D01*
X217755142Y-79845553D01*
X217762583Y-79857969D01*
X217768772Y-79871054D01*
X217773649Y-79884683D01*
X217777166Y-79898724D01*
X217779290Y-79913042D01*
X217780000Y-79927500D01*
X217780000Y-80272500D01*
X217779290Y-80286958D01*
X217777166Y-80301276D01*
X217773649Y-80315317D01*
X217768772Y-80328946D01*
X217762583Y-80342031D01*
X217755142Y-80354447D01*
X217746519Y-80366073D01*
X217736798Y-80376798D01*
X217726073Y-80386519D01*
X217714447Y-80395142D01*
X217702031Y-80402583D01*
X217688946Y-80408772D01*
X217675317Y-80413649D01*
X217661276Y-80417166D01*
X217646958Y-80419290D01*
X217632500Y-80420000D01*
X217337500Y-80420000D01*
X217323042Y-80419290D01*
X217308724Y-80417166D01*
X217294683Y-80413649D01*
X217281054Y-80408772D01*
X217267969Y-80402583D01*
X217255553Y-80395142D01*
X217243927Y-80386519D01*
X217233202Y-80376798D01*
X217223481Y-80366073D01*
X217214858Y-80354447D01*
X217207417Y-80342031D01*
X217201228Y-80328946D01*
X217196351Y-80315317D01*
X217192834Y-80301276D01*
X217190710Y-80286958D01*
X217190000Y-80272500D01*
X217190000Y-79927500D01*
X217190710Y-79913042D01*
X217192834Y-79898724D01*
X217196351Y-79884683D01*
X217201228Y-79871054D01*
X217207417Y-79857969D01*
X217214858Y-79845553D01*
X217223481Y-79833927D01*
X217233202Y-79823202D01*
X217243927Y-79813481D01*
X217255553Y-79804858D01*
X217267969Y-79797417D01*
X217281054Y-79791228D01*
X217294683Y-79786351D01*
X217308724Y-79782834D01*
X217323042Y-79780710D01*
X217337500Y-79780000D01*
X217632500Y-79780000D01*
X217646958Y-79780710D01*
G37*
G04 #@! TD.AperFunction*
G04 #@! TA.AperFunction,SMDPad,CuDef*
G36*
X216676958Y-79780710D02*
G01*
X216691276Y-79782834D01*
X216705317Y-79786351D01*
X216718946Y-79791228D01*
X216732031Y-79797417D01*
X216744447Y-79804858D01*
X216756073Y-79813481D01*
X216766798Y-79823202D01*
X216776519Y-79833927D01*
X216785142Y-79845553D01*
X216792583Y-79857969D01*
X216798772Y-79871054D01*
X216803649Y-79884683D01*
X216807166Y-79898724D01*
X216809290Y-79913042D01*
X216810000Y-79927500D01*
X216810000Y-80272500D01*
X216809290Y-80286958D01*
X216807166Y-80301276D01*
X216803649Y-80315317D01*
X216798772Y-80328946D01*
X216792583Y-80342031D01*
X216785142Y-80354447D01*
X216776519Y-80366073D01*
X216766798Y-80376798D01*
X216756073Y-80386519D01*
X216744447Y-80395142D01*
X216732031Y-80402583D01*
X216718946Y-80408772D01*
X216705317Y-80413649D01*
X216691276Y-80417166D01*
X216676958Y-80419290D01*
X216662500Y-80420000D01*
X216367500Y-80420000D01*
X216353042Y-80419290D01*
X216338724Y-80417166D01*
X216324683Y-80413649D01*
X216311054Y-80408772D01*
X216297969Y-80402583D01*
X216285553Y-80395142D01*
X216273927Y-80386519D01*
X216263202Y-80376798D01*
X216253481Y-80366073D01*
X216244858Y-80354447D01*
X216237417Y-80342031D01*
X216231228Y-80328946D01*
X216226351Y-80315317D01*
X216222834Y-80301276D01*
X216220710Y-80286958D01*
X216220000Y-80272500D01*
X216220000Y-79927500D01*
X216220710Y-79913042D01*
X216222834Y-79898724D01*
X216226351Y-79884683D01*
X216231228Y-79871054D01*
X216237417Y-79857969D01*
X216244858Y-79845553D01*
X216253481Y-79833927D01*
X216263202Y-79823202D01*
X216273927Y-79813481D01*
X216285553Y-79804858D01*
X216297969Y-79797417D01*
X216311054Y-79791228D01*
X216324683Y-79786351D01*
X216338724Y-79782834D01*
X216353042Y-79780710D01*
X216367500Y-79780000D01*
X216662500Y-79780000D01*
X216676958Y-79780710D01*
G37*
G04 #@! TD.AperFunction*
D21*
X213700000Y-90450000D03*
D22*
X215700000Y-78300000D03*
G04 #@! TA.AperFunction,SMDPad,CuDef*
D20*
G36*
X220190439Y-89150451D02*
G01*
X220199540Y-89151801D01*
X220208464Y-89154037D01*
X220217127Y-89157136D01*
X220225443Y-89161070D01*
X220233335Y-89165800D01*
X220240724Y-89171280D01*
X220247541Y-89177459D01*
X220253720Y-89184276D01*
X220259200Y-89191665D01*
X220263930Y-89199557D01*
X220267864Y-89207873D01*
X220270963Y-89216536D01*
X220273199Y-89225460D01*
X220274549Y-89234561D01*
X220275000Y-89243750D01*
X220275000Y-89456250D01*
X220274549Y-89465439D01*
X220273199Y-89474540D01*
X220270963Y-89483464D01*
X220267864Y-89492127D01*
X220263930Y-89500443D01*
X220259200Y-89508335D01*
X220253720Y-89515724D01*
X220247541Y-89522541D01*
X220240724Y-89528720D01*
X220233335Y-89534200D01*
X220225443Y-89538930D01*
X220217127Y-89542864D01*
X220208464Y-89545963D01*
X220199540Y-89548199D01*
X220190439Y-89549549D01*
X220181250Y-89550000D01*
X219993750Y-89550000D01*
X219984561Y-89549549D01*
X219975460Y-89548199D01*
X219966536Y-89545963D01*
X219957873Y-89542864D01*
X219949557Y-89538930D01*
X219941665Y-89534200D01*
X219934276Y-89528720D01*
X219927459Y-89522541D01*
X219921280Y-89515724D01*
X219915800Y-89508335D01*
X219911070Y-89500443D01*
X219907136Y-89492127D01*
X219904037Y-89483464D01*
X219901801Y-89474540D01*
X219900451Y-89465439D01*
X219900000Y-89456250D01*
X219900000Y-89243750D01*
X219900451Y-89234561D01*
X219901801Y-89225460D01*
X219904037Y-89216536D01*
X219907136Y-89207873D01*
X219911070Y-89199557D01*
X219915800Y-89191665D01*
X219921280Y-89184276D01*
X219927459Y-89177459D01*
X219934276Y-89171280D01*
X219941665Y-89165800D01*
X219949557Y-89161070D01*
X219957873Y-89157136D01*
X219966536Y-89154037D01*
X219975460Y-89151801D01*
X219984561Y-89150451D01*
X219993750Y-89150000D01*
X220181250Y-89150000D01*
X220190439Y-89150451D01*
G37*
G04 #@! TD.AperFunction*
G04 #@! TA.AperFunction,SMDPad,CuDef*
G36*
X220190439Y-88500451D02*
G01*
X220199540Y-88501801D01*
X220208464Y-88504037D01*
X220217127Y-88507136D01*
X220225443Y-88511070D01*
X220233335Y-88515800D01*
X220240724Y-88521280D01*
X220247541Y-88527459D01*
X220253720Y-88534276D01*
X220259200Y-88541665D01*
X220263930Y-88549557D01*
X220267864Y-88557873D01*
X220270963Y-88566536D01*
X220273199Y-88575460D01*
X220274549Y-88584561D01*
X220275000Y-88593750D01*
X220275000Y-88806250D01*
X220274549Y-88815439D01*
X220273199Y-88824540D01*
X220270963Y-88833464D01*
X220267864Y-88842127D01*
X220263930Y-88850443D01*
X220259200Y-88858335D01*
X220253720Y-88865724D01*
X220247541Y-88872541D01*
X220240724Y-88878720D01*
X220233335Y-88884200D01*
X220225443Y-88888930D01*
X220217127Y-88892864D01*
X220208464Y-88895963D01*
X220199540Y-88898199D01*
X220190439Y-88899549D01*
X220181250Y-88900000D01*
X219993750Y-88900000D01*
X219984561Y-88899549D01*
X219975460Y-88898199D01*
X219966536Y-88895963D01*
X219957873Y-88892864D01*
X219949557Y-88888930D01*
X219941665Y-88884200D01*
X219934276Y-88878720D01*
X219927459Y-88872541D01*
X219921280Y-88865724D01*
X219915800Y-88858335D01*
X219911070Y-88850443D01*
X219907136Y-88842127D01*
X219904037Y-88833464D01*
X219901801Y-88824540D01*
X219900451Y-88815439D01*
X219900000Y-88806250D01*
X219900000Y-88593750D01*
X219900451Y-88584561D01*
X219901801Y-88575460D01*
X219904037Y-88566536D01*
X219907136Y-88557873D01*
X219911070Y-88549557D01*
X219915800Y-88541665D01*
X219921280Y-88534276D01*
X219927459Y-88527459D01*
X219934276Y-88521280D01*
X219941665Y-88515800D01*
X219949557Y-88511070D01*
X219957873Y-88507136D01*
X219966536Y-88504037D01*
X219975460Y-88501801D01*
X219984561Y-88500451D01*
X219993750Y-88500000D01*
X220181250Y-88500000D01*
X220190439Y-88500451D01*
G37*
G04 #@! TD.AperFunction*
G04 #@! TA.AperFunction,SMDPad,CuDef*
G36*
X220190439Y-87850451D02*
G01*
X220199540Y-87851801D01*
X220208464Y-87854037D01*
X220217127Y-87857136D01*
X220225443Y-87861070D01*
X220233335Y-87865800D01*
X220240724Y-87871280D01*
X220247541Y-87877459D01*
X220253720Y-87884276D01*
X220259200Y-87891665D01*
X220263930Y-87899557D01*
X220267864Y-87907873D01*
X220270963Y-87916536D01*
X220273199Y-87925460D01*
X220274549Y-87934561D01*
X220275000Y-87943750D01*
X220275000Y-88156250D01*
X220274549Y-88165439D01*
X220273199Y-88174540D01*
X220270963Y-88183464D01*
X220267864Y-88192127D01*
X220263930Y-88200443D01*
X220259200Y-88208335D01*
X220253720Y-88215724D01*
X220247541Y-88222541D01*
X220240724Y-88228720D01*
X220233335Y-88234200D01*
X220225443Y-88238930D01*
X220217127Y-88242864D01*
X220208464Y-88245963D01*
X220199540Y-88248199D01*
X220190439Y-88249549D01*
X220181250Y-88250000D01*
X219993750Y-88250000D01*
X219984561Y-88249549D01*
X219975460Y-88248199D01*
X219966536Y-88245963D01*
X219957873Y-88242864D01*
X219949557Y-88238930D01*
X219941665Y-88234200D01*
X219934276Y-88228720D01*
X219927459Y-88222541D01*
X219921280Y-88215724D01*
X219915800Y-88208335D01*
X219911070Y-88200443D01*
X219907136Y-88192127D01*
X219904037Y-88183464D01*
X219901801Y-88174540D01*
X219900451Y-88165439D01*
X219900000Y-88156250D01*
X219900000Y-87943750D01*
X219900451Y-87934561D01*
X219901801Y-87925460D01*
X219904037Y-87916536D01*
X219907136Y-87907873D01*
X219911070Y-87899557D01*
X219915800Y-87891665D01*
X219921280Y-87884276D01*
X219927459Y-87877459D01*
X219934276Y-87871280D01*
X219941665Y-87865800D01*
X219949557Y-87861070D01*
X219957873Y-87857136D01*
X219966536Y-87854037D01*
X219975460Y-87851801D01*
X219984561Y-87850451D01*
X219993750Y-87850000D01*
X220181250Y-87850000D01*
X220190439Y-87850451D01*
G37*
G04 #@! TD.AperFunction*
G04 #@! TA.AperFunction,SMDPad,CuDef*
G36*
X218415439Y-87850451D02*
G01*
X218424540Y-87851801D01*
X218433464Y-87854037D01*
X218442127Y-87857136D01*
X218450443Y-87861070D01*
X218458335Y-87865800D01*
X218465724Y-87871280D01*
X218472541Y-87877459D01*
X218478720Y-87884276D01*
X218484200Y-87891665D01*
X218488930Y-87899557D01*
X218492864Y-87907873D01*
X218495963Y-87916536D01*
X218498199Y-87925460D01*
X218499549Y-87934561D01*
X218500000Y-87943750D01*
X218500000Y-88156250D01*
X218499549Y-88165439D01*
X218498199Y-88174540D01*
X218495963Y-88183464D01*
X218492864Y-88192127D01*
X218488930Y-88200443D01*
X218484200Y-88208335D01*
X218478720Y-88215724D01*
X218472541Y-88222541D01*
X218465724Y-88228720D01*
X218458335Y-88234200D01*
X218450443Y-88238930D01*
X218442127Y-88242864D01*
X218433464Y-88245963D01*
X218424540Y-88248199D01*
X218415439Y-88249549D01*
X218406250Y-88250000D01*
X218218750Y-88250000D01*
X218209561Y-88249549D01*
X218200460Y-88248199D01*
X218191536Y-88245963D01*
X218182873Y-88242864D01*
X218174557Y-88238930D01*
X218166665Y-88234200D01*
X218159276Y-88228720D01*
X218152459Y-88222541D01*
X218146280Y-88215724D01*
X218140800Y-88208335D01*
X218136070Y-88200443D01*
X218132136Y-88192127D01*
X218129037Y-88183464D01*
X218126801Y-88174540D01*
X218125451Y-88165439D01*
X218125000Y-88156250D01*
X218125000Y-87943750D01*
X218125451Y-87934561D01*
X218126801Y-87925460D01*
X218129037Y-87916536D01*
X218132136Y-87907873D01*
X218136070Y-87899557D01*
X218140800Y-87891665D01*
X218146280Y-87884276D01*
X218152459Y-87877459D01*
X218159276Y-87871280D01*
X218166665Y-87865800D01*
X218174557Y-87861070D01*
X218182873Y-87857136D01*
X218191536Y-87854037D01*
X218200460Y-87851801D01*
X218209561Y-87850451D01*
X218218750Y-87850000D01*
X218406250Y-87850000D01*
X218415439Y-87850451D01*
G37*
G04 #@! TD.AperFunction*
G04 #@! TA.AperFunction,SMDPad,CuDef*
G36*
X218415439Y-88500451D02*
G01*
X218424540Y-88501801D01*
X218433464Y-88504037D01*
X218442127Y-88507136D01*
X218450443Y-88511070D01*
X218458335Y-88515800D01*
X218465724Y-88521280D01*
X218472541Y-88527459D01*
X218478720Y-88534276D01*
X218484200Y-88541665D01*
X218488930Y-88549557D01*
X218492864Y-88557873D01*
X218495963Y-88566536D01*
X218498199Y-88575460D01*
X218499549Y-88584561D01*
X218500000Y-88593750D01*
X218500000Y-88806250D01*
X218499549Y-88815439D01*
X218498199Y-88824540D01*
X218495963Y-88833464D01*
X218492864Y-88842127D01*
X218488930Y-88850443D01*
X218484200Y-88858335D01*
X218478720Y-88865724D01*
X218472541Y-88872541D01*
X218465724Y-88878720D01*
X218458335Y-88884200D01*
X218450443Y-88888930D01*
X218442127Y-88892864D01*
X218433464Y-88895963D01*
X218424540Y-88898199D01*
X218415439Y-88899549D01*
X218406250Y-88900000D01*
X218218750Y-88900000D01*
X218209561Y-88899549D01*
X218200460Y-88898199D01*
X218191536Y-88895963D01*
X218182873Y-88892864D01*
X218174557Y-88888930D01*
X218166665Y-88884200D01*
X218159276Y-88878720D01*
X218152459Y-88872541D01*
X218146280Y-88865724D01*
X218140800Y-88858335D01*
X218136070Y-88850443D01*
X218132136Y-88842127D01*
X218129037Y-88833464D01*
X218126801Y-88824540D01*
X218125451Y-88815439D01*
X218125000Y-88806250D01*
X218125000Y-88593750D01*
X218125451Y-88584561D01*
X218126801Y-88575460D01*
X218129037Y-88566536D01*
X218132136Y-88557873D01*
X218136070Y-88549557D01*
X218140800Y-88541665D01*
X218146280Y-88534276D01*
X218152459Y-88527459D01*
X218159276Y-88521280D01*
X218166665Y-88515800D01*
X218174557Y-88511070D01*
X218182873Y-88507136D01*
X218191536Y-88504037D01*
X218200460Y-88501801D01*
X218209561Y-88500451D01*
X218218750Y-88500000D01*
X218406250Y-88500000D01*
X218415439Y-88500451D01*
G37*
G04 #@! TD.AperFunction*
G04 #@! TA.AperFunction,SMDPad,CuDef*
G36*
X218415439Y-89150451D02*
G01*
X218424540Y-89151801D01*
X218433464Y-89154037D01*
X218442127Y-89157136D01*
X218450443Y-89161070D01*
X218458335Y-89165800D01*
X218465724Y-89171280D01*
X218472541Y-89177459D01*
X218478720Y-89184276D01*
X218484200Y-89191665D01*
X218488930Y-89199557D01*
X218492864Y-89207873D01*
X218495963Y-89216536D01*
X218498199Y-89225460D01*
X218499549Y-89234561D01*
X218500000Y-89243750D01*
X218500000Y-89456250D01*
X218499549Y-89465439D01*
X218498199Y-89474540D01*
X218495963Y-89483464D01*
X218492864Y-89492127D01*
X218488930Y-89500443D01*
X218484200Y-89508335D01*
X218478720Y-89515724D01*
X218472541Y-89522541D01*
X218465724Y-89528720D01*
X218458335Y-89534200D01*
X218450443Y-89538930D01*
X218442127Y-89542864D01*
X218433464Y-89545963D01*
X218424540Y-89548199D01*
X218415439Y-89549549D01*
X218406250Y-89550000D01*
X218218750Y-89550000D01*
X218209561Y-89549549D01*
X218200460Y-89548199D01*
X218191536Y-89545963D01*
X218182873Y-89542864D01*
X218174557Y-89538930D01*
X218166665Y-89534200D01*
X218159276Y-89528720D01*
X218152459Y-89522541D01*
X218146280Y-89515724D01*
X218140800Y-89508335D01*
X218136070Y-89500443D01*
X218132136Y-89492127D01*
X218129037Y-89483464D01*
X218126801Y-89474540D01*
X218125451Y-89465439D01*
X218125000Y-89456250D01*
X218125000Y-89243750D01*
X218125451Y-89234561D01*
X218126801Y-89225460D01*
X218129037Y-89216536D01*
X218132136Y-89207873D01*
X218136070Y-89199557D01*
X218140800Y-89191665D01*
X218146280Y-89184276D01*
X218152459Y-89177459D01*
X218159276Y-89171280D01*
X218166665Y-89165800D01*
X218174557Y-89161070D01*
X218182873Y-89157136D01*
X218191536Y-89154037D01*
X218200460Y-89151801D01*
X218209561Y-89150451D01*
X218218750Y-89150000D01*
X218406250Y-89150000D01*
X218415439Y-89150451D01*
G37*
G04 #@! TD.AperFunction*
G04 #@! TA.AperFunction,SMDPad,CuDef*
G36*
X219474504Y-87901204D02*
G01*
X219498773Y-87904804D01*
X219522571Y-87910765D01*
X219545671Y-87919030D01*
X219567849Y-87929520D01*
X219588893Y-87942133D01*
X219608598Y-87956747D01*
X219626777Y-87973223D01*
X219643253Y-87991402D01*
X219657867Y-88011107D01*
X219670480Y-88032151D01*
X219680970Y-88054329D01*
X219689235Y-88077429D01*
X219695196Y-88101227D01*
X219698796Y-88125496D01*
X219700000Y-88150000D01*
X219700000Y-89250000D01*
X219698796Y-89274504D01*
X219695196Y-89298773D01*
X219689235Y-89322571D01*
X219680970Y-89345671D01*
X219670480Y-89367849D01*
X219657867Y-89388893D01*
X219643253Y-89408598D01*
X219626777Y-89426777D01*
X219608598Y-89443253D01*
X219588893Y-89457867D01*
X219567849Y-89470480D01*
X219545671Y-89480970D01*
X219522571Y-89489235D01*
X219498773Y-89495196D01*
X219474504Y-89498796D01*
X219450000Y-89500000D01*
X218950000Y-89500000D01*
X218925496Y-89498796D01*
X218901227Y-89495196D01*
X218877429Y-89489235D01*
X218854329Y-89480970D01*
X218832151Y-89470480D01*
X218811107Y-89457867D01*
X218791402Y-89443253D01*
X218773223Y-89426777D01*
X218756747Y-89408598D01*
X218742133Y-89388893D01*
X218729520Y-89367849D01*
X218719030Y-89345671D01*
X218710765Y-89322571D01*
X218704804Y-89298773D01*
X218701204Y-89274504D01*
X218700000Y-89250000D01*
X218700000Y-88150000D01*
X218701204Y-88125496D01*
X218704804Y-88101227D01*
X218710765Y-88077429D01*
X218719030Y-88054329D01*
X218729520Y-88032151D01*
X218742133Y-88011107D01*
X218756747Y-87991402D01*
X218773223Y-87973223D01*
X218791402Y-87956747D01*
X218811107Y-87942133D01*
X218832151Y-87929520D01*
X218854329Y-87919030D01*
X218877429Y-87910765D01*
X218901227Y-87904804D01*
X218925496Y-87901204D01*
X218950000Y-87900000D01*
X219450000Y-87900000D01*
X219474504Y-87901204D01*
G37*
G04 #@! TD.AperFunction*
G04 #@! TA.AperFunction,SMDPad,CuDef*
G36*
X218476958Y-86380710D02*
G01*
X218491276Y-86382834D01*
X218505317Y-86386351D01*
X218518946Y-86391228D01*
X218532031Y-86397417D01*
X218544447Y-86404858D01*
X218556073Y-86413481D01*
X218566798Y-86423202D01*
X218576519Y-86433927D01*
X218585142Y-86445553D01*
X218592583Y-86457969D01*
X218598772Y-86471054D01*
X218603649Y-86484683D01*
X218607166Y-86498724D01*
X218609290Y-86513042D01*
X218610000Y-86527500D01*
X218610000Y-86872500D01*
X218609290Y-86886958D01*
X218607166Y-86901276D01*
X218603649Y-86915317D01*
X218598772Y-86928946D01*
X218592583Y-86942031D01*
X218585142Y-86954447D01*
X218576519Y-86966073D01*
X218566798Y-86976798D01*
X218556073Y-86986519D01*
X218544447Y-86995142D01*
X218532031Y-87002583D01*
X218518946Y-87008772D01*
X218505317Y-87013649D01*
X218491276Y-87017166D01*
X218476958Y-87019290D01*
X218462500Y-87020000D01*
X218167500Y-87020000D01*
X218153042Y-87019290D01*
X218138724Y-87017166D01*
X218124683Y-87013649D01*
X218111054Y-87008772D01*
X218097969Y-87002583D01*
X218085553Y-86995142D01*
X218073927Y-86986519D01*
X218063202Y-86976798D01*
X218053481Y-86966073D01*
X218044858Y-86954447D01*
X218037417Y-86942031D01*
X218031228Y-86928946D01*
X218026351Y-86915317D01*
X218022834Y-86901276D01*
X218020710Y-86886958D01*
X218020000Y-86872500D01*
X218020000Y-86527500D01*
X218020710Y-86513042D01*
X218022834Y-86498724D01*
X218026351Y-86484683D01*
X218031228Y-86471054D01*
X218037417Y-86457969D01*
X218044858Y-86445553D01*
X218053481Y-86433927D01*
X218063202Y-86423202D01*
X218073927Y-86413481D01*
X218085553Y-86404858D01*
X218097969Y-86397417D01*
X218111054Y-86391228D01*
X218124683Y-86386351D01*
X218138724Y-86382834D01*
X218153042Y-86380710D01*
X218167500Y-86380000D01*
X218462500Y-86380000D01*
X218476958Y-86380710D01*
G37*
G04 #@! TD.AperFunction*
G04 #@! TA.AperFunction,SMDPad,CuDef*
G36*
X219446958Y-86380710D02*
G01*
X219461276Y-86382834D01*
X219475317Y-86386351D01*
X219488946Y-86391228D01*
X219502031Y-86397417D01*
X219514447Y-86404858D01*
X219526073Y-86413481D01*
X219536798Y-86423202D01*
X219546519Y-86433927D01*
X219555142Y-86445553D01*
X219562583Y-86457969D01*
X219568772Y-86471054D01*
X219573649Y-86484683D01*
X219577166Y-86498724D01*
X219579290Y-86513042D01*
X219580000Y-86527500D01*
X219580000Y-86872500D01*
X219579290Y-86886958D01*
X219577166Y-86901276D01*
X219573649Y-86915317D01*
X219568772Y-86928946D01*
X219562583Y-86942031D01*
X219555142Y-86954447D01*
X219546519Y-86966073D01*
X219536798Y-86976798D01*
X219526073Y-86986519D01*
X219514447Y-86995142D01*
X219502031Y-87002583D01*
X219488946Y-87008772D01*
X219475317Y-87013649D01*
X219461276Y-87017166D01*
X219446958Y-87019290D01*
X219432500Y-87020000D01*
X219137500Y-87020000D01*
X219123042Y-87019290D01*
X219108724Y-87017166D01*
X219094683Y-87013649D01*
X219081054Y-87008772D01*
X219067969Y-87002583D01*
X219055553Y-86995142D01*
X219043927Y-86986519D01*
X219033202Y-86976798D01*
X219023481Y-86966073D01*
X219014858Y-86954447D01*
X219007417Y-86942031D01*
X219001228Y-86928946D01*
X218996351Y-86915317D01*
X218992834Y-86901276D01*
X218990710Y-86886958D01*
X218990000Y-86872500D01*
X218990000Y-86527500D01*
X218990710Y-86513042D01*
X218992834Y-86498724D01*
X218996351Y-86484683D01*
X219001228Y-86471054D01*
X219007417Y-86457969D01*
X219014858Y-86445553D01*
X219023481Y-86433927D01*
X219033202Y-86423202D01*
X219043927Y-86413481D01*
X219055553Y-86404858D01*
X219067969Y-86397417D01*
X219081054Y-86391228D01*
X219094683Y-86386351D01*
X219108724Y-86382834D01*
X219123042Y-86380710D01*
X219137500Y-86380000D01*
X219432500Y-86380000D01*
X219446958Y-86380710D01*
G37*
G04 #@! TD.AperFunction*
G04 #@! TA.AperFunction,SMDPad,CuDef*
G36*
X221161958Y-86380710D02*
G01*
X221176276Y-86382834D01*
X221190317Y-86386351D01*
X221203946Y-86391228D01*
X221217031Y-86397417D01*
X221229447Y-86404858D01*
X221241073Y-86413481D01*
X221251798Y-86423202D01*
X221261519Y-86433927D01*
X221270142Y-86445553D01*
X221277583Y-86457969D01*
X221283772Y-86471054D01*
X221288649Y-86484683D01*
X221292166Y-86498724D01*
X221294290Y-86513042D01*
X221295000Y-86527500D01*
X221295000Y-86872500D01*
X221294290Y-86886958D01*
X221292166Y-86901276D01*
X221288649Y-86915317D01*
X221283772Y-86928946D01*
X221277583Y-86942031D01*
X221270142Y-86954447D01*
X221261519Y-86966073D01*
X221251798Y-86976798D01*
X221241073Y-86986519D01*
X221229447Y-86995142D01*
X221217031Y-87002583D01*
X221203946Y-87008772D01*
X221190317Y-87013649D01*
X221176276Y-87017166D01*
X221161958Y-87019290D01*
X221147500Y-87020000D01*
X220852500Y-87020000D01*
X220838042Y-87019290D01*
X220823724Y-87017166D01*
X220809683Y-87013649D01*
X220796054Y-87008772D01*
X220782969Y-87002583D01*
X220770553Y-86995142D01*
X220758927Y-86986519D01*
X220748202Y-86976798D01*
X220738481Y-86966073D01*
X220729858Y-86954447D01*
X220722417Y-86942031D01*
X220716228Y-86928946D01*
X220711351Y-86915317D01*
X220707834Y-86901276D01*
X220705710Y-86886958D01*
X220705000Y-86872500D01*
X220705000Y-86527500D01*
X220705710Y-86513042D01*
X220707834Y-86498724D01*
X220711351Y-86484683D01*
X220716228Y-86471054D01*
X220722417Y-86457969D01*
X220729858Y-86445553D01*
X220738481Y-86433927D01*
X220748202Y-86423202D01*
X220758927Y-86413481D01*
X220770553Y-86404858D01*
X220782969Y-86397417D01*
X220796054Y-86391228D01*
X220809683Y-86386351D01*
X220823724Y-86382834D01*
X220838042Y-86380710D01*
X220852500Y-86380000D01*
X221147500Y-86380000D01*
X221161958Y-86380710D01*
G37*
G04 #@! TD.AperFunction*
G04 #@! TA.AperFunction,SMDPad,CuDef*
G36*
X222131958Y-86380710D02*
G01*
X222146276Y-86382834D01*
X222160317Y-86386351D01*
X222173946Y-86391228D01*
X222187031Y-86397417D01*
X222199447Y-86404858D01*
X222211073Y-86413481D01*
X222221798Y-86423202D01*
X222231519Y-86433927D01*
X222240142Y-86445553D01*
X222247583Y-86457969D01*
X222253772Y-86471054D01*
X222258649Y-86484683D01*
X222262166Y-86498724D01*
X222264290Y-86513042D01*
X222265000Y-86527500D01*
X222265000Y-86872500D01*
X222264290Y-86886958D01*
X222262166Y-86901276D01*
X222258649Y-86915317D01*
X222253772Y-86928946D01*
X222247583Y-86942031D01*
X222240142Y-86954447D01*
X222231519Y-86966073D01*
X222221798Y-86976798D01*
X222211073Y-86986519D01*
X222199447Y-86995142D01*
X222187031Y-87002583D01*
X222173946Y-87008772D01*
X222160317Y-87013649D01*
X222146276Y-87017166D01*
X222131958Y-87019290D01*
X222117500Y-87020000D01*
X221822500Y-87020000D01*
X221808042Y-87019290D01*
X221793724Y-87017166D01*
X221779683Y-87013649D01*
X221766054Y-87008772D01*
X221752969Y-87002583D01*
X221740553Y-86995142D01*
X221728927Y-86986519D01*
X221718202Y-86976798D01*
X221708481Y-86966073D01*
X221699858Y-86954447D01*
X221692417Y-86942031D01*
X221686228Y-86928946D01*
X221681351Y-86915317D01*
X221677834Y-86901276D01*
X221675710Y-86886958D01*
X221675000Y-86872500D01*
X221675000Y-86527500D01*
X221675710Y-86513042D01*
X221677834Y-86498724D01*
X221681351Y-86484683D01*
X221686228Y-86471054D01*
X221692417Y-86457969D01*
X221699858Y-86445553D01*
X221708481Y-86433927D01*
X221718202Y-86423202D01*
X221728927Y-86413481D01*
X221740553Y-86404858D01*
X221752969Y-86397417D01*
X221766054Y-86391228D01*
X221779683Y-86386351D01*
X221793724Y-86382834D01*
X221808042Y-86380710D01*
X221822500Y-86380000D01*
X222117500Y-86380000D01*
X222131958Y-86380710D01*
G37*
G04 #@! TD.AperFunction*
G04 #@! TA.AperFunction,SMDPad,CuDef*
G36*
X225046958Y-87480710D02*
G01*
X225061276Y-87482834D01*
X225075317Y-87486351D01*
X225088946Y-87491228D01*
X225102031Y-87497417D01*
X225114447Y-87504858D01*
X225126073Y-87513481D01*
X225136798Y-87523202D01*
X225146519Y-87533927D01*
X225155142Y-87545553D01*
X225162583Y-87557969D01*
X225168772Y-87571054D01*
X225173649Y-87584683D01*
X225177166Y-87598724D01*
X225179290Y-87613042D01*
X225180000Y-87627500D01*
X225180000Y-87972500D01*
X225179290Y-87986958D01*
X225177166Y-88001276D01*
X225173649Y-88015317D01*
X225168772Y-88028946D01*
X225162583Y-88042031D01*
X225155142Y-88054447D01*
X225146519Y-88066073D01*
X225136798Y-88076798D01*
X225126073Y-88086519D01*
X225114447Y-88095142D01*
X225102031Y-88102583D01*
X225088946Y-88108772D01*
X225075317Y-88113649D01*
X225061276Y-88117166D01*
X225046958Y-88119290D01*
X225032500Y-88120000D01*
X224737500Y-88120000D01*
X224723042Y-88119290D01*
X224708724Y-88117166D01*
X224694683Y-88113649D01*
X224681054Y-88108772D01*
X224667969Y-88102583D01*
X224655553Y-88095142D01*
X224643927Y-88086519D01*
X224633202Y-88076798D01*
X224623481Y-88066073D01*
X224614858Y-88054447D01*
X224607417Y-88042031D01*
X224601228Y-88028946D01*
X224596351Y-88015317D01*
X224592834Y-88001276D01*
X224590710Y-87986958D01*
X224590000Y-87972500D01*
X224590000Y-87627500D01*
X224590710Y-87613042D01*
X224592834Y-87598724D01*
X224596351Y-87584683D01*
X224601228Y-87571054D01*
X224607417Y-87557969D01*
X224614858Y-87545553D01*
X224623481Y-87533927D01*
X224633202Y-87523202D01*
X224643927Y-87513481D01*
X224655553Y-87504858D01*
X224667969Y-87497417D01*
X224681054Y-87491228D01*
X224694683Y-87486351D01*
X224708724Y-87482834D01*
X224723042Y-87480710D01*
X224737500Y-87480000D01*
X225032500Y-87480000D01*
X225046958Y-87480710D01*
G37*
G04 #@! TD.AperFunction*
G04 #@! TA.AperFunction,SMDPad,CuDef*
G36*
X224076958Y-87480710D02*
G01*
X224091276Y-87482834D01*
X224105317Y-87486351D01*
X224118946Y-87491228D01*
X224132031Y-87497417D01*
X224144447Y-87504858D01*
X224156073Y-87513481D01*
X224166798Y-87523202D01*
X224176519Y-87533927D01*
X224185142Y-87545553D01*
X224192583Y-87557969D01*
X224198772Y-87571054D01*
X224203649Y-87584683D01*
X224207166Y-87598724D01*
X224209290Y-87613042D01*
X224210000Y-87627500D01*
X224210000Y-87972500D01*
X224209290Y-87986958D01*
X224207166Y-88001276D01*
X224203649Y-88015317D01*
X224198772Y-88028946D01*
X224192583Y-88042031D01*
X224185142Y-88054447D01*
X224176519Y-88066073D01*
X224166798Y-88076798D01*
X224156073Y-88086519D01*
X224144447Y-88095142D01*
X224132031Y-88102583D01*
X224118946Y-88108772D01*
X224105317Y-88113649D01*
X224091276Y-88117166D01*
X224076958Y-88119290D01*
X224062500Y-88120000D01*
X223767500Y-88120000D01*
X223753042Y-88119290D01*
X223738724Y-88117166D01*
X223724683Y-88113649D01*
X223711054Y-88108772D01*
X223697969Y-88102583D01*
X223685553Y-88095142D01*
X223673927Y-88086519D01*
X223663202Y-88076798D01*
X223653481Y-88066073D01*
X223644858Y-88054447D01*
X223637417Y-88042031D01*
X223631228Y-88028946D01*
X223626351Y-88015317D01*
X223622834Y-88001276D01*
X223620710Y-87986958D01*
X223620000Y-87972500D01*
X223620000Y-87627500D01*
X223620710Y-87613042D01*
X223622834Y-87598724D01*
X223626351Y-87584683D01*
X223631228Y-87571054D01*
X223637417Y-87557969D01*
X223644858Y-87545553D01*
X223653481Y-87533927D01*
X223663202Y-87523202D01*
X223673927Y-87513481D01*
X223685553Y-87504858D01*
X223697969Y-87497417D01*
X223711054Y-87491228D01*
X223724683Y-87486351D01*
X223738724Y-87482834D01*
X223753042Y-87480710D01*
X223767500Y-87480000D01*
X224062500Y-87480000D01*
X224076958Y-87480710D01*
G37*
G04 #@! TD.AperFunction*
G04 #@! TA.AperFunction,SMDPad,CuDef*
G36*
X215546958Y-84480710D02*
G01*
X215561276Y-84482834D01*
X215575317Y-84486351D01*
X215588946Y-84491228D01*
X215602031Y-84497417D01*
X215614447Y-84504858D01*
X215626073Y-84513481D01*
X215636798Y-84523202D01*
X215646519Y-84533927D01*
X215655142Y-84545553D01*
X215662583Y-84557969D01*
X215668772Y-84571054D01*
X215673649Y-84584683D01*
X215677166Y-84598724D01*
X215679290Y-84613042D01*
X215680000Y-84627500D01*
X215680000Y-84972500D01*
X215679290Y-84986958D01*
X215677166Y-85001276D01*
X215673649Y-85015317D01*
X215668772Y-85028946D01*
X215662583Y-85042031D01*
X215655142Y-85054447D01*
X215646519Y-85066073D01*
X215636798Y-85076798D01*
X215626073Y-85086519D01*
X215614447Y-85095142D01*
X215602031Y-85102583D01*
X215588946Y-85108772D01*
X215575317Y-85113649D01*
X215561276Y-85117166D01*
X215546958Y-85119290D01*
X215532500Y-85120000D01*
X215237500Y-85120000D01*
X215223042Y-85119290D01*
X215208724Y-85117166D01*
X215194683Y-85113649D01*
X215181054Y-85108772D01*
X215167969Y-85102583D01*
X215155553Y-85095142D01*
X215143927Y-85086519D01*
X215133202Y-85076798D01*
X215123481Y-85066073D01*
X215114858Y-85054447D01*
X215107417Y-85042031D01*
X215101228Y-85028946D01*
X215096351Y-85015317D01*
X215092834Y-85001276D01*
X215090710Y-84986958D01*
X215090000Y-84972500D01*
X215090000Y-84627500D01*
X215090710Y-84613042D01*
X215092834Y-84598724D01*
X215096351Y-84584683D01*
X215101228Y-84571054D01*
X215107417Y-84557969D01*
X215114858Y-84545553D01*
X215123481Y-84533927D01*
X215133202Y-84523202D01*
X215143927Y-84513481D01*
X215155553Y-84504858D01*
X215167969Y-84497417D01*
X215181054Y-84491228D01*
X215194683Y-84486351D01*
X215208724Y-84482834D01*
X215223042Y-84480710D01*
X215237500Y-84480000D01*
X215532500Y-84480000D01*
X215546958Y-84480710D01*
G37*
G04 #@! TD.AperFunction*
G04 #@! TA.AperFunction,SMDPad,CuDef*
G36*
X214576958Y-84480710D02*
G01*
X214591276Y-84482834D01*
X214605317Y-84486351D01*
X214618946Y-84491228D01*
X214632031Y-84497417D01*
X214644447Y-84504858D01*
X214656073Y-84513481D01*
X214666798Y-84523202D01*
X214676519Y-84533927D01*
X214685142Y-84545553D01*
X214692583Y-84557969D01*
X214698772Y-84571054D01*
X214703649Y-84584683D01*
X214707166Y-84598724D01*
X214709290Y-84613042D01*
X214710000Y-84627500D01*
X214710000Y-84972500D01*
X214709290Y-84986958D01*
X214707166Y-85001276D01*
X214703649Y-85015317D01*
X214698772Y-85028946D01*
X214692583Y-85042031D01*
X214685142Y-85054447D01*
X214676519Y-85066073D01*
X214666798Y-85076798D01*
X214656073Y-85086519D01*
X214644447Y-85095142D01*
X214632031Y-85102583D01*
X214618946Y-85108772D01*
X214605317Y-85113649D01*
X214591276Y-85117166D01*
X214576958Y-85119290D01*
X214562500Y-85120000D01*
X214267500Y-85120000D01*
X214253042Y-85119290D01*
X214238724Y-85117166D01*
X214224683Y-85113649D01*
X214211054Y-85108772D01*
X214197969Y-85102583D01*
X214185553Y-85095142D01*
X214173927Y-85086519D01*
X214163202Y-85076798D01*
X214153481Y-85066073D01*
X214144858Y-85054447D01*
X214137417Y-85042031D01*
X214131228Y-85028946D01*
X214126351Y-85015317D01*
X214122834Y-85001276D01*
X214120710Y-84986958D01*
X214120000Y-84972500D01*
X214120000Y-84627500D01*
X214120710Y-84613042D01*
X214122834Y-84598724D01*
X214126351Y-84584683D01*
X214131228Y-84571054D01*
X214137417Y-84557969D01*
X214144858Y-84545553D01*
X214153481Y-84533927D01*
X214163202Y-84523202D01*
X214173927Y-84513481D01*
X214185553Y-84504858D01*
X214197969Y-84497417D01*
X214211054Y-84491228D01*
X214224683Y-84486351D01*
X214238724Y-84482834D01*
X214253042Y-84480710D01*
X214267500Y-84480000D01*
X214562500Y-84480000D01*
X214576958Y-84480710D01*
G37*
G04 #@! TD.AperFunction*
G04 #@! TA.AperFunction,SMDPad,CuDef*
G36*
X217646958Y-82880710D02*
G01*
X217661276Y-82882834D01*
X217675317Y-82886351D01*
X217688946Y-82891228D01*
X217702031Y-82897417D01*
X217714447Y-82904858D01*
X217726073Y-82913481D01*
X217736798Y-82923202D01*
X217746519Y-82933927D01*
X217755142Y-82945553D01*
X217762583Y-82957969D01*
X217768772Y-82971054D01*
X217773649Y-82984683D01*
X217777166Y-82998724D01*
X217779290Y-83013042D01*
X217780000Y-83027500D01*
X217780000Y-83372500D01*
X217779290Y-83386958D01*
X217777166Y-83401276D01*
X217773649Y-83415317D01*
X217768772Y-83428946D01*
X217762583Y-83442031D01*
X217755142Y-83454447D01*
X217746519Y-83466073D01*
X217736798Y-83476798D01*
X217726073Y-83486519D01*
X217714447Y-83495142D01*
X217702031Y-83502583D01*
X217688946Y-83508772D01*
X217675317Y-83513649D01*
X217661276Y-83517166D01*
X217646958Y-83519290D01*
X217632500Y-83520000D01*
X217337500Y-83520000D01*
X217323042Y-83519290D01*
X217308724Y-83517166D01*
X217294683Y-83513649D01*
X217281054Y-83508772D01*
X217267969Y-83502583D01*
X217255553Y-83495142D01*
X217243927Y-83486519D01*
X217233202Y-83476798D01*
X217223481Y-83466073D01*
X217214858Y-83454447D01*
X217207417Y-83442031D01*
X217201228Y-83428946D01*
X217196351Y-83415317D01*
X217192834Y-83401276D01*
X217190710Y-83386958D01*
X217190000Y-83372500D01*
X217190000Y-83027500D01*
X217190710Y-83013042D01*
X217192834Y-82998724D01*
X217196351Y-82984683D01*
X217201228Y-82971054D01*
X217207417Y-82957969D01*
X217214858Y-82945553D01*
X217223481Y-82933927D01*
X217233202Y-82923202D01*
X217243927Y-82913481D01*
X217255553Y-82904858D01*
X217267969Y-82897417D01*
X217281054Y-82891228D01*
X217294683Y-82886351D01*
X217308724Y-82882834D01*
X217323042Y-82880710D01*
X217337500Y-82880000D01*
X217632500Y-82880000D01*
X217646958Y-82880710D01*
G37*
G04 #@! TD.AperFunction*
G04 #@! TA.AperFunction,SMDPad,CuDef*
G36*
X216676958Y-82880710D02*
G01*
X216691276Y-82882834D01*
X216705317Y-82886351D01*
X216718946Y-82891228D01*
X216732031Y-82897417D01*
X216744447Y-82904858D01*
X216756073Y-82913481D01*
X216766798Y-82923202D01*
X216776519Y-82933927D01*
X216785142Y-82945553D01*
X216792583Y-82957969D01*
X216798772Y-82971054D01*
X216803649Y-82984683D01*
X216807166Y-82998724D01*
X216809290Y-83013042D01*
X216810000Y-83027500D01*
X216810000Y-83372500D01*
X216809290Y-83386958D01*
X216807166Y-83401276D01*
X216803649Y-83415317D01*
X216798772Y-83428946D01*
X216792583Y-83442031D01*
X216785142Y-83454447D01*
X216776519Y-83466073D01*
X216766798Y-83476798D01*
X216756073Y-83486519D01*
X216744447Y-83495142D01*
X216732031Y-83502583D01*
X216718946Y-83508772D01*
X216705317Y-83513649D01*
X216691276Y-83517166D01*
X216676958Y-83519290D01*
X216662500Y-83520000D01*
X216367500Y-83520000D01*
X216353042Y-83519290D01*
X216338724Y-83517166D01*
X216324683Y-83513649D01*
X216311054Y-83508772D01*
X216297969Y-83502583D01*
X216285553Y-83495142D01*
X216273927Y-83486519D01*
X216263202Y-83476798D01*
X216253481Y-83466073D01*
X216244858Y-83454447D01*
X216237417Y-83442031D01*
X216231228Y-83428946D01*
X216226351Y-83415317D01*
X216222834Y-83401276D01*
X216220710Y-83386958D01*
X216220000Y-83372500D01*
X216220000Y-83027500D01*
X216220710Y-83013042D01*
X216222834Y-82998724D01*
X216226351Y-82984683D01*
X216231228Y-82971054D01*
X216237417Y-82957969D01*
X216244858Y-82945553D01*
X216253481Y-82933927D01*
X216263202Y-82923202D01*
X216273927Y-82913481D01*
X216285553Y-82904858D01*
X216297969Y-82897417D01*
X216311054Y-82891228D01*
X216324683Y-82886351D01*
X216338724Y-82882834D01*
X216353042Y-82880710D01*
X216367500Y-82880000D01*
X216662500Y-82880000D01*
X216676958Y-82880710D01*
G37*
G04 #@! TD.AperFunction*
G04 #@! TA.AperFunction,SMDPad,CuDef*
G36*
X225031958Y-88580710D02*
G01*
X225046276Y-88582834D01*
X225060317Y-88586351D01*
X225073946Y-88591228D01*
X225087031Y-88597417D01*
X225099447Y-88604858D01*
X225111073Y-88613481D01*
X225121798Y-88623202D01*
X225131519Y-88633927D01*
X225140142Y-88645553D01*
X225147583Y-88657969D01*
X225153772Y-88671054D01*
X225158649Y-88684683D01*
X225162166Y-88698724D01*
X225164290Y-88713042D01*
X225165000Y-88727500D01*
X225165000Y-89072500D01*
X225164290Y-89086958D01*
X225162166Y-89101276D01*
X225158649Y-89115317D01*
X225153772Y-89128946D01*
X225147583Y-89142031D01*
X225140142Y-89154447D01*
X225131519Y-89166073D01*
X225121798Y-89176798D01*
X225111073Y-89186519D01*
X225099447Y-89195142D01*
X225087031Y-89202583D01*
X225073946Y-89208772D01*
X225060317Y-89213649D01*
X225046276Y-89217166D01*
X225031958Y-89219290D01*
X225017500Y-89220000D01*
X224722500Y-89220000D01*
X224708042Y-89219290D01*
X224693724Y-89217166D01*
X224679683Y-89213649D01*
X224666054Y-89208772D01*
X224652969Y-89202583D01*
X224640553Y-89195142D01*
X224628927Y-89186519D01*
X224618202Y-89176798D01*
X224608481Y-89166073D01*
X224599858Y-89154447D01*
X224592417Y-89142031D01*
X224586228Y-89128946D01*
X224581351Y-89115317D01*
X224577834Y-89101276D01*
X224575710Y-89086958D01*
X224575000Y-89072500D01*
X224575000Y-88727500D01*
X224575710Y-88713042D01*
X224577834Y-88698724D01*
X224581351Y-88684683D01*
X224586228Y-88671054D01*
X224592417Y-88657969D01*
X224599858Y-88645553D01*
X224608481Y-88633927D01*
X224618202Y-88623202D01*
X224628927Y-88613481D01*
X224640553Y-88604858D01*
X224652969Y-88597417D01*
X224666054Y-88591228D01*
X224679683Y-88586351D01*
X224693724Y-88582834D01*
X224708042Y-88580710D01*
X224722500Y-88580000D01*
X225017500Y-88580000D01*
X225031958Y-88580710D01*
G37*
G04 #@! TD.AperFunction*
G04 #@! TA.AperFunction,SMDPad,CuDef*
G36*
X224061958Y-88580710D02*
G01*
X224076276Y-88582834D01*
X224090317Y-88586351D01*
X224103946Y-88591228D01*
X224117031Y-88597417D01*
X224129447Y-88604858D01*
X224141073Y-88613481D01*
X224151798Y-88623202D01*
X224161519Y-88633927D01*
X224170142Y-88645553D01*
X224177583Y-88657969D01*
X224183772Y-88671054D01*
X224188649Y-88684683D01*
X224192166Y-88698724D01*
X224194290Y-88713042D01*
X224195000Y-88727500D01*
X224195000Y-89072500D01*
X224194290Y-89086958D01*
X224192166Y-89101276D01*
X224188649Y-89115317D01*
X224183772Y-89128946D01*
X224177583Y-89142031D01*
X224170142Y-89154447D01*
X224161519Y-89166073D01*
X224151798Y-89176798D01*
X224141073Y-89186519D01*
X224129447Y-89195142D01*
X224117031Y-89202583D01*
X224103946Y-89208772D01*
X224090317Y-89213649D01*
X224076276Y-89217166D01*
X224061958Y-89219290D01*
X224047500Y-89220000D01*
X223752500Y-89220000D01*
X223738042Y-89219290D01*
X223723724Y-89217166D01*
X223709683Y-89213649D01*
X223696054Y-89208772D01*
X223682969Y-89202583D01*
X223670553Y-89195142D01*
X223658927Y-89186519D01*
X223648202Y-89176798D01*
X223638481Y-89166073D01*
X223629858Y-89154447D01*
X223622417Y-89142031D01*
X223616228Y-89128946D01*
X223611351Y-89115317D01*
X223607834Y-89101276D01*
X223605710Y-89086958D01*
X223605000Y-89072500D01*
X223605000Y-88727500D01*
X223605710Y-88713042D01*
X223607834Y-88698724D01*
X223611351Y-88684683D01*
X223616228Y-88671054D01*
X223622417Y-88657969D01*
X223629858Y-88645553D01*
X223638481Y-88633927D01*
X223648202Y-88623202D01*
X223658927Y-88613481D01*
X223670553Y-88604858D01*
X223682969Y-88597417D01*
X223696054Y-88591228D01*
X223709683Y-88586351D01*
X223723724Y-88582834D01*
X223738042Y-88580710D01*
X223752500Y-88580000D01*
X224047500Y-88580000D01*
X224061958Y-88580710D01*
G37*
G04 #@! TD.AperFunction*
G04 #@! TA.AperFunction,SMDPad,CuDef*
G36*
X224076958Y-86380710D02*
G01*
X224091276Y-86382834D01*
X224105317Y-86386351D01*
X224118946Y-86391228D01*
X224132031Y-86397417D01*
X224144447Y-86404858D01*
X224156073Y-86413481D01*
X224166798Y-86423202D01*
X224176519Y-86433927D01*
X224185142Y-86445553D01*
X224192583Y-86457969D01*
X224198772Y-86471054D01*
X224203649Y-86484683D01*
X224207166Y-86498724D01*
X224209290Y-86513042D01*
X224210000Y-86527500D01*
X224210000Y-86872500D01*
X224209290Y-86886958D01*
X224207166Y-86901276D01*
X224203649Y-86915317D01*
X224198772Y-86928946D01*
X224192583Y-86942031D01*
X224185142Y-86954447D01*
X224176519Y-86966073D01*
X224166798Y-86976798D01*
X224156073Y-86986519D01*
X224144447Y-86995142D01*
X224132031Y-87002583D01*
X224118946Y-87008772D01*
X224105317Y-87013649D01*
X224091276Y-87017166D01*
X224076958Y-87019290D01*
X224062500Y-87020000D01*
X223767500Y-87020000D01*
X223753042Y-87019290D01*
X223738724Y-87017166D01*
X223724683Y-87013649D01*
X223711054Y-87008772D01*
X223697969Y-87002583D01*
X223685553Y-86995142D01*
X223673927Y-86986519D01*
X223663202Y-86976798D01*
X223653481Y-86966073D01*
X223644858Y-86954447D01*
X223637417Y-86942031D01*
X223631228Y-86928946D01*
X223626351Y-86915317D01*
X223622834Y-86901276D01*
X223620710Y-86886958D01*
X223620000Y-86872500D01*
X223620000Y-86527500D01*
X223620710Y-86513042D01*
X223622834Y-86498724D01*
X223626351Y-86484683D01*
X223631228Y-86471054D01*
X223637417Y-86457969D01*
X223644858Y-86445553D01*
X223653481Y-86433927D01*
X223663202Y-86423202D01*
X223673927Y-86413481D01*
X223685553Y-86404858D01*
X223697969Y-86397417D01*
X223711054Y-86391228D01*
X223724683Y-86386351D01*
X223738724Y-86382834D01*
X223753042Y-86380710D01*
X223767500Y-86380000D01*
X224062500Y-86380000D01*
X224076958Y-86380710D01*
G37*
G04 #@! TD.AperFunction*
G04 #@! TA.AperFunction,SMDPad,CuDef*
G36*
X225046958Y-86380710D02*
G01*
X225061276Y-86382834D01*
X225075317Y-86386351D01*
X225088946Y-86391228D01*
X225102031Y-86397417D01*
X225114447Y-86404858D01*
X225126073Y-86413481D01*
X225136798Y-86423202D01*
X225146519Y-86433927D01*
X225155142Y-86445553D01*
X225162583Y-86457969D01*
X225168772Y-86471054D01*
X225173649Y-86484683D01*
X225177166Y-86498724D01*
X225179290Y-86513042D01*
X225180000Y-86527500D01*
X225180000Y-86872500D01*
X225179290Y-86886958D01*
X225177166Y-86901276D01*
X225173649Y-86915317D01*
X225168772Y-86928946D01*
X225162583Y-86942031D01*
X225155142Y-86954447D01*
X225146519Y-86966073D01*
X225136798Y-86976798D01*
X225126073Y-86986519D01*
X225114447Y-86995142D01*
X225102031Y-87002583D01*
X225088946Y-87008772D01*
X225075317Y-87013649D01*
X225061276Y-87017166D01*
X225046958Y-87019290D01*
X225032500Y-87020000D01*
X224737500Y-87020000D01*
X224723042Y-87019290D01*
X224708724Y-87017166D01*
X224694683Y-87013649D01*
X224681054Y-87008772D01*
X224667969Y-87002583D01*
X224655553Y-86995142D01*
X224643927Y-86986519D01*
X224633202Y-86976798D01*
X224623481Y-86966073D01*
X224614858Y-86954447D01*
X224607417Y-86942031D01*
X224601228Y-86928946D01*
X224596351Y-86915317D01*
X224592834Y-86901276D01*
X224590710Y-86886958D01*
X224590000Y-86872500D01*
X224590000Y-86527500D01*
X224590710Y-86513042D01*
X224592834Y-86498724D01*
X224596351Y-86484683D01*
X224601228Y-86471054D01*
X224607417Y-86457969D01*
X224614858Y-86445553D01*
X224623481Y-86433927D01*
X224633202Y-86423202D01*
X224643927Y-86413481D01*
X224655553Y-86404858D01*
X224667969Y-86397417D01*
X224681054Y-86391228D01*
X224694683Y-86386351D01*
X224708724Y-86382834D01*
X224723042Y-86380710D01*
X224737500Y-86380000D01*
X225032500Y-86380000D01*
X225046958Y-86380710D01*
G37*
G04 #@! TD.AperFunction*
G04 #@! TA.AperFunction,SMDPad,CuDef*
G36*
X217631958Y-84480710D02*
G01*
X217646276Y-84482834D01*
X217660317Y-84486351D01*
X217673946Y-84491228D01*
X217687031Y-84497417D01*
X217699447Y-84504858D01*
X217711073Y-84513481D01*
X217721798Y-84523202D01*
X217731519Y-84533927D01*
X217740142Y-84545553D01*
X217747583Y-84557969D01*
X217753772Y-84571054D01*
X217758649Y-84584683D01*
X217762166Y-84598724D01*
X217764290Y-84613042D01*
X217765000Y-84627500D01*
X217765000Y-84972500D01*
X217764290Y-84986958D01*
X217762166Y-85001276D01*
X217758649Y-85015317D01*
X217753772Y-85028946D01*
X217747583Y-85042031D01*
X217740142Y-85054447D01*
X217731519Y-85066073D01*
X217721798Y-85076798D01*
X217711073Y-85086519D01*
X217699447Y-85095142D01*
X217687031Y-85102583D01*
X217673946Y-85108772D01*
X217660317Y-85113649D01*
X217646276Y-85117166D01*
X217631958Y-85119290D01*
X217617500Y-85120000D01*
X217322500Y-85120000D01*
X217308042Y-85119290D01*
X217293724Y-85117166D01*
X217279683Y-85113649D01*
X217266054Y-85108772D01*
X217252969Y-85102583D01*
X217240553Y-85095142D01*
X217228927Y-85086519D01*
X217218202Y-85076798D01*
X217208481Y-85066073D01*
X217199858Y-85054447D01*
X217192417Y-85042031D01*
X217186228Y-85028946D01*
X217181351Y-85015317D01*
X217177834Y-85001276D01*
X217175710Y-84986958D01*
X217175000Y-84972500D01*
X217175000Y-84627500D01*
X217175710Y-84613042D01*
X217177834Y-84598724D01*
X217181351Y-84584683D01*
X217186228Y-84571054D01*
X217192417Y-84557969D01*
X217199858Y-84545553D01*
X217208481Y-84533927D01*
X217218202Y-84523202D01*
X217228927Y-84513481D01*
X217240553Y-84504858D01*
X217252969Y-84497417D01*
X217266054Y-84491228D01*
X217279683Y-84486351D01*
X217293724Y-84482834D01*
X217308042Y-84480710D01*
X217322500Y-84480000D01*
X217617500Y-84480000D01*
X217631958Y-84480710D01*
G37*
G04 #@! TD.AperFunction*
G04 #@! TA.AperFunction,SMDPad,CuDef*
G36*
X216661958Y-84480710D02*
G01*
X216676276Y-84482834D01*
X216690317Y-84486351D01*
X216703946Y-84491228D01*
X216717031Y-84497417D01*
X216729447Y-84504858D01*
X216741073Y-84513481D01*
X216751798Y-84523202D01*
X216761519Y-84533927D01*
X216770142Y-84545553D01*
X216777583Y-84557969D01*
X216783772Y-84571054D01*
X216788649Y-84584683D01*
X216792166Y-84598724D01*
X216794290Y-84613042D01*
X216795000Y-84627500D01*
X216795000Y-84972500D01*
X216794290Y-84986958D01*
X216792166Y-85001276D01*
X216788649Y-85015317D01*
X216783772Y-85028946D01*
X216777583Y-85042031D01*
X216770142Y-85054447D01*
X216761519Y-85066073D01*
X216751798Y-85076798D01*
X216741073Y-85086519D01*
X216729447Y-85095142D01*
X216717031Y-85102583D01*
X216703946Y-85108772D01*
X216690317Y-85113649D01*
X216676276Y-85117166D01*
X216661958Y-85119290D01*
X216647500Y-85120000D01*
X216352500Y-85120000D01*
X216338042Y-85119290D01*
X216323724Y-85117166D01*
X216309683Y-85113649D01*
X216296054Y-85108772D01*
X216282969Y-85102583D01*
X216270553Y-85095142D01*
X216258927Y-85086519D01*
X216248202Y-85076798D01*
X216238481Y-85066073D01*
X216229858Y-85054447D01*
X216222417Y-85042031D01*
X216216228Y-85028946D01*
X216211351Y-85015317D01*
X216207834Y-85001276D01*
X216205710Y-84986958D01*
X216205000Y-84972500D01*
X216205000Y-84627500D01*
X216205710Y-84613042D01*
X216207834Y-84598724D01*
X216211351Y-84584683D01*
X216216228Y-84571054D01*
X216222417Y-84557969D01*
X216229858Y-84545553D01*
X216238481Y-84533927D01*
X216248202Y-84523202D01*
X216258927Y-84513481D01*
X216270553Y-84504858D01*
X216282969Y-84497417D01*
X216296054Y-84491228D01*
X216309683Y-84486351D01*
X216323724Y-84482834D01*
X216338042Y-84480710D01*
X216352500Y-84480000D01*
X216647500Y-84480000D01*
X216661958Y-84480710D01*
G37*
G04 #@! TD.AperFunction*
G04 #@! TA.AperFunction,SMDPad,CuDef*
G36*
X215565191Y-87726053D02*
G01*
X215586426Y-87729203D01*
X215607250Y-87734419D01*
X215627462Y-87741651D01*
X215646868Y-87750830D01*
X215665281Y-87761866D01*
X215682524Y-87774654D01*
X215698430Y-87789070D01*
X215712846Y-87804976D01*
X215725634Y-87822219D01*
X215736670Y-87840632D01*
X215745849Y-87860038D01*
X215753081Y-87880250D01*
X215758297Y-87901074D01*
X215761447Y-87922309D01*
X215762500Y-87943750D01*
X215762500Y-88456250D01*
X215761447Y-88477691D01*
X215758297Y-88498926D01*
X215753081Y-88519750D01*
X215745849Y-88539962D01*
X215736670Y-88559368D01*
X215725634Y-88577781D01*
X215712846Y-88595024D01*
X215698430Y-88610930D01*
X215682524Y-88625346D01*
X215665281Y-88638134D01*
X215646868Y-88649170D01*
X215627462Y-88658349D01*
X215607250Y-88665581D01*
X215586426Y-88670797D01*
X215565191Y-88673947D01*
X215543750Y-88675000D01*
X215106250Y-88675000D01*
X215084809Y-88673947D01*
X215063574Y-88670797D01*
X215042750Y-88665581D01*
X215022538Y-88658349D01*
X215003132Y-88649170D01*
X214984719Y-88638134D01*
X214967476Y-88625346D01*
X214951570Y-88610930D01*
X214937154Y-88595024D01*
X214924366Y-88577781D01*
X214913330Y-88559368D01*
X214904151Y-88539962D01*
X214896919Y-88519750D01*
X214891703Y-88498926D01*
X214888553Y-88477691D01*
X214887500Y-88456250D01*
X214887500Y-87943750D01*
X214888553Y-87922309D01*
X214891703Y-87901074D01*
X214896919Y-87880250D01*
X214904151Y-87860038D01*
X214913330Y-87840632D01*
X214924366Y-87822219D01*
X214937154Y-87804976D01*
X214951570Y-87789070D01*
X214967476Y-87774654D01*
X214984719Y-87761866D01*
X215003132Y-87750830D01*
X215022538Y-87741651D01*
X215042750Y-87734419D01*
X215063574Y-87729203D01*
X215084809Y-87726053D01*
X215106250Y-87725000D01*
X215543750Y-87725000D01*
X215565191Y-87726053D01*
G37*
G04 #@! TD.AperFunction*
G04 #@! TA.AperFunction,SMDPad,CuDef*
G36*
X217140191Y-87726053D02*
G01*
X217161426Y-87729203D01*
X217182250Y-87734419D01*
X217202462Y-87741651D01*
X217221868Y-87750830D01*
X217240281Y-87761866D01*
X217257524Y-87774654D01*
X217273430Y-87789070D01*
X217287846Y-87804976D01*
X217300634Y-87822219D01*
X217311670Y-87840632D01*
X217320849Y-87860038D01*
X217328081Y-87880250D01*
X217333297Y-87901074D01*
X217336447Y-87922309D01*
X217337500Y-87943750D01*
X217337500Y-88456250D01*
X217336447Y-88477691D01*
X217333297Y-88498926D01*
X217328081Y-88519750D01*
X217320849Y-88539962D01*
X217311670Y-88559368D01*
X217300634Y-88577781D01*
X217287846Y-88595024D01*
X217273430Y-88610930D01*
X217257524Y-88625346D01*
X217240281Y-88638134D01*
X217221868Y-88649170D01*
X217202462Y-88658349D01*
X217182250Y-88665581D01*
X217161426Y-88670797D01*
X217140191Y-88673947D01*
X217118750Y-88675000D01*
X216681250Y-88675000D01*
X216659809Y-88673947D01*
X216638574Y-88670797D01*
X216617750Y-88665581D01*
X216597538Y-88658349D01*
X216578132Y-88649170D01*
X216559719Y-88638134D01*
X216542476Y-88625346D01*
X216526570Y-88610930D01*
X216512154Y-88595024D01*
X216499366Y-88577781D01*
X216488330Y-88559368D01*
X216479151Y-88539962D01*
X216471919Y-88519750D01*
X216466703Y-88498926D01*
X216463553Y-88477691D01*
X216462500Y-88456250D01*
X216462500Y-87943750D01*
X216463553Y-87922309D01*
X216466703Y-87901074D01*
X216471919Y-87880250D01*
X216479151Y-87860038D01*
X216488330Y-87840632D01*
X216499366Y-87822219D01*
X216512154Y-87804976D01*
X216526570Y-87789070D01*
X216542476Y-87774654D01*
X216559719Y-87761866D01*
X216578132Y-87750830D01*
X216597538Y-87741651D01*
X216617750Y-87734419D01*
X216638574Y-87729203D01*
X216659809Y-87726053D01*
X216681250Y-87725000D01*
X217118750Y-87725000D01*
X217140191Y-87726053D01*
G37*
G04 #@! TD.AperFunction*
G04 #@! TA.AperFunction,SMDPad,CuDef*
G36*
X219252691Y-81026053D02*
G01*
X219273926Y-81029203D01*
X219294750Y-81034419D01*
X219314962Y-81041651D01*
X219334368Y-81050830D01*
X219352781Y-81061866D01*
X219370024Y-81074654D01*
X219385930Y-81089070D01*
X219400346Y-81104976D01*
X219413134Y-81122219D01*
X219424170Y-81140632D01*
X219433349Y-81160038D01*
X219440581Y-81180250D01*
X219445797Y-81201074D01*
X219448947Y-81222309D01*
X219450000Y-81243750D01*
X219450000Y-81756250D01*
X219448947Y-81777691D01*
X219445797Y-81798926D01*
X219440581Y-81819750D01*
X219433349Y-81839962D01*
X219424170Y-81859368D01*
X219413134Y-81877781D01*
X219400346Y-81895024D01*
X219385930Y-81910930D01*
X219370024Y-81925346D01*
X219352781Y-81938134D01*
X219334368Y-81949170D01*
X219314962Y-81958349D01*
X219294750Y-81965581D01*
X219273926Y-81970797D01*
X219252691Y-81973947D01*
X219231250Y-81975000D01*
X218793750Y-81975000D01*
X218772309Y-81973947D01*
X218751074Y-81970797D01*
X218730250Y-81965581D01*
X218710038Y-81958349D01*
X218690632Y-81949170D01*
X218672219Y-81938134D01*
X218654976Y-81925346D01*
X218639070Y-81910930D01*
X218624654Y-81895024D01*
X218611866Y-81877781D01*
X218600830Y-81859368D01*
X218591651Y-81839962D01*
X218584419Y-81819750D01*
X218579203Y-81798926D01*
X218576053Y-81777691D01*
X218575000Y-81756250D01*
X218575000Y-81243750D01*
X218576053Y-81222309D01*
X218579203Y-81201074D01*
X218584419Y-81180250D01*
X218591651Y-81160038D01*
X218600830Y-81140632D01*
X218611866Y-81122219D01*
X218624654Y-81104976D01*
X218639070Y-81089070D01*
X218654976Y-81074654D01*
X218672219Y-81061866D01*
X218690632Y-81050830D01*
X218710038Y-81041651D01*
X218730250Y-81034419D01*
X218751074Y-81029203D01*
X218772309Y-81026053D01*
X218793750Y-81025000D01*
X219231250Y-81025000D01*
X219252691Y-81026053D01*
G37*
G04 #@! TD.AperFunction*
G04 #@! TA.AperFunction,SMDPad,CuDef*
G36*
X220827691Y-81026053D02*
G01*
X220848926Y-81029203D01*
X220869750Y-81034419D01*
X220889962Y-81041651D01*
X220909368Y-81050830D01*
X220927781Y-81061866D01*
X220945024Y-81074654D01*
X220960930Y-81089070D01*
X220975346Y-81104976D01*
X220988134Y-81122219D01*
X220999170Y-81140632D01*
X221008349Y-81160038D01*
X221015581Y-81180250D01*
X221020797Y-81201074D01*
X221023947Y-81222309D01*
X221025000Y-81243750D01*
X221025000Y-81756250D01*
X221023947Y-81777691D01*
X221020797Y-81798926D01*
X221015581Y-81819750D01*
X221008349Y-81839962D01*
X220999170Y-81859368D01*
X220988134Y-81877781D01*
X220975346Y-81895024D01*
X220960930Y-81910930D01*
X220945024Y-81925346D01*
X220927781Y-81938134D01*
X220909368Y-81949170D01*
X220889962Y-81958349D01*
X220869750Y-81965581D01*
X220848926Y-81970797D01*
X220827691Y-81973947D01*
X220806250Y-81975000D01*
X220368750Y-81975000D01*
X220347309Y-81973947D01*
X220326074Y-81970797D01*
X220305250Y-81965581D01*
X220285038Y-81958349D01*
X220265632Y-81949170D01*
X220247219Y-81938134D01*
X220229976Y-81925346D01*
X220214070Y-81910930D01*
X220199654Y-81895024D01*
X220186866Y-81877781D01*
X220175830Y-81859368D01*
X220166651Y-81839962D01*
X220159419Y-81819750D01*
X220154203Y-81798926D01*
X220151053Y-81777691D01*
X220150000Y-81756250D01*
X220150000Y-81243750D01*
X220151053Y-81222309D01*
X220154203Y-81201074D01*
X220159419Y-81180250D01*
X220166651Y-81160038D01*
X220175830Y-81140632D01*
X220186866Y-81122219D01*
X220199654Y-81104976D01*
X220214070Y-81089070D01*
X220229976Y-81074654D01*
X220247219Y-81061866D01*
X220265632Y-81050830D01*
X220285038Y-81041651D01*
X220305250Y-81034419D01*
X220326074Y-81029203D01*
X220347309Y-81026053D01*
X220368750Y-81025000D01*
X220806250Y-81025000D01*
X220827691Y-81026053D01*
G37*
G04 #@! TD.AperFunction*
D23*
X215700000Y-95600000D03*
X208769849Y-89145884D03*
X210515358Y-80618212D03*
X206700000Y-89300000D03*
X221943263Y-88428318D03*
X221381794Y-92518206D03*
X210134079Y-89099990D03*
X215800000Y-86900000D03*
X208641366Y-87589013D03*
X217449990Y-91262540D03*
X213477557Y-81650010D03*
X222889990Y-87460701D03*
X212522726Y-91310453D03*
X209300000Y-90900016D03*
X219800000Y-81200000D03*
X221400000Y-81600000D03*
X223800000Y-83600000D03*
X224200000Y-84400000D03*
X224500000Y-85200000D03*
X225100000Y-90100000D03*
X224900000Y-91000000D03*
X224600000Y-91800000D03*
X224300000Y-92600000D03*
X223900000Y-93400000D03*
X223500000Y-94100000D03*
X222100000Y-95700000D03*
X221200000Y-96400000D03*
X220500000Y-92700000D03*
X223200000Y-92500000D03*
X215150000Y-95050000D03*
X216500000Y-95400000D03*
X213500000Y-95400000D03*
X210300000Y-96400000D03*
X209500000Y-95800000D03*
X208700000Y-95000000D03*
X212400000Y-79700000D03*
X210900000Y-81200000D03*
X210000000Y-81400000D03*
X208100000Y-83400000D03*
X210200000Y-83500000D03*
X209200000Y-85100000D03*
X223700000Y-85100000D03*
X219400000Y-79900000D03*
X214500000Y-95400000D03*
X210900000Y-95100000D03*
X211003449Y-88539861D03*
X220100000Y-87200000D03*
X209000000Y-86800000D03*
X212075079Y-83088510D03*
X219237500Y-83162500D03*
X208826710Y-89980794D03*
X210200003Y-91118835D03*
X222203108Y-89462192D03*
X221950000Y-82450000D03*
X224500000Y-86000000D03*
X220309344Y-80349980D03*
X223340000Y-84140000D03*
X211631114Y-91532474D03*
X218350010Y-91760463D03*
X218150000Y-95050000D03*
X211781448Y-85045037D03*
X212527876Y-93697876D03*
X210823949Y-85207633D03*
X211114824Y-90726247D03*
X211595909Y-90367680D03*
X219200000Y-91100000D03*
X219300000Y-90312203D03*
X211563691Y-86472721D03*
X209100000Y-92729990D03*
X209637500Y-94550000D03*
X210300000Y-85500000D03*
X211541491Y-87372733D03*
X208300000Y-84884982D03*
X214366376Y-82508309D03*
X214864658Y-82174049D03*
X208355508Y-94228823D03*
X209470357Y-87776418D03*
D24*
X208769849Y-89280151D02*
X208769849Y-89145884D01*
X207330000Y-89320000D02*
X208730000Y-89320000D01*
X208730000Y-89320000D02*
X208769849Y-89280151D01*
X210833556Y-80618212D02*
X210515358Y-80618212D01*
X211251768Y-80200000D02*
X210833556Y-80618212D01*
X214950000Y-80200000D02*
X211251768Y-80200000D01*
X215700000Y-79450000D02*
X214950000Y-80200000D01*
X215700000Y-78300000D02*
X215700000Y-79450000D01*
X221400000Y-92536412D02*
X221381794Y-92518206D01*
X221400000Y-94050000D02*
X221400000Y-92536412D01*
X214400000Y-85500000D02*
X215800000Y-86900000D01*
X214400000Y-84800000D02*
X214400000Y-85500000D01*
X216500000Y-86200000D02*
X215800000Y-86900000D01*
X216500000Y-84800000D02*
X216500000Y-86200000D01*
X213700000Y-90450000D02*
X213383179Y-90450000D01*
X213383179Y-90450000D02*
X212747725Y-91085454D01*
X212747725Y-91085454D02*
X212522726Y-91310453D01*
X208330379Y-87900000D02*
X208641366Y-87589013D01*
X208300000Y-87900000D02*
X208330379Y-87900000D01*
X208150000Y-88050000D02*
X208300000Y-87900000D01*
X207330000Y-88050000D02*
X208150000Y-88050000D01*
X220400000Y-82450000D02*
X220400000Y-83250000D01*
X219450000Y-81500000D02*
X220400000Y-82450000D01*
X219012500Y-81500000D02*
X219450000Y-81500000D01*
X220400000Y-84200000D02*
X219331810Y-84200000D01*
X219720000Y-84200000D02*
X220400000Y-84200000D01*
X217800000Y-84500000D02*
X217500000Y-84800000D01*
X219031810Y-84500000D02*
X217800000Y-84500000D01*
X219331810Y-84200000D02*
X219031810Y-84500000D01*
X211003449Y-88539861D02*
X209263588Y-86800000D01*
X209263588Y-86800000D02*
X209000000Y-86800000D01*
X215610010Y-84254990D02*
X215565000Y-84300000D01*
X217244990Y-84254990D02*
X215610010Y-84254990D01*
X217470000Y-84480000D02*
X217244990Y-84254990D01*
X217470000Y-84800000D02*
X217470000Y-84480000D01*
X217100010Y-82555010D02*
X218630010Y-82555010D01*
X218630010Y-82555010D02*
X219237500Y-83162500D01*
X216875000Y-82330000D02*
X217100010Y-82555010D01*
X216875000Y-82100000D02*
X216875000Y-82330000D01*
X212705059Y-83088510D02*
X212075079Y-83088510D01*
X214493580Y-81299989D02*
X212705059Y-83088510D01*
X215124268Y-81299989D02*
X214493580Y-81299989D01*
X215600001Y-81775722D02*
X215124268Y-81299989D01*
X215385000Y-84800000D02*
X215385000Y-84480000D01*
X215385000Y-84480000D02*
X215600001Y-84264999D01*
X215600001Y-84264999D02*
X215600001Y-81775722D01*
X219331810Y-83256810D02*
X219331810Y-84200000D01*
X219237500Y-83162500D02*
X219331810Y-83256810D01*
X217200000Y-81565000D02*
X217525000Y-81240000D01*
X217200000Y-81670000D02*
X217200000Y-81565000D01*
X217525000Y-80140000D02*
X217485000Y-80100000D01*
X217525000Y-81240000D02*
X217525000Y-80140000D01*
X224885000Y-88885000D02*
X224870000Y-88900000D01*
X224885000Y-87800000D02*
X224885000Y-88885000D01*
X222600000Y-82775000D02*
X222275000Y-82450000D01*
X222600000Y-83250000D02*
X222600000Y-82775000D01*
X222275000Y-82450000D02*
X221950000Y-82450000D01*
X224885000Y-86700000D02*
X224885000Y-87800000D01*
X224885000Y-86385000D02*
X224500000Y-86000000D01*
X224885000Y-86700000D02*
X224885000Y-86385000D01*
X221623910Y-85775001D02*
X224275001Y-85775001D01*
X218315000Y-86700000D02*
X218315000Y-86380000D01*
X221398911Y-86000000D02*
X221623910Y-85775001D01*
X218315000Y-86380000D02*
X218695000Y-86000000D01*
X218695000Y-86000000D02*
X221398911Y-86000000D01*
X224275001Y-85775001D02*
X224500000Y-86000000D01*
X217485000Y-79780000D02*
X217485000Y-80100000D01*
X216213200Y-79554990D02*
X217259990Y-79554990D01*
X217259990Y-79554990D02*
X217485000Y-79780000D01*
X215900000Y-79868190D02*
X216213200Y-79554990D01*
X215900000Y-80400000D02*
X215900000Y-79868190D01*
X215900000Y-82948535D02*
X215900000Y-80400000D01*
X217485000Y-83200000D02*
X217485000Y-83520000D01*
X215900011Y-83431821D02*
X215900011Y-82948546D01*
X215900011Y-82948546D02*
X215900000Y-82948535D01*
X216268190Y-83800000D02*
X215900011Y-83431821D01*
X217205000Y-83800000D02*
X216268190Y-83800000D01*
X217485000Y-83520000D02*
X217205000Y-83800000D01*
X213894990Y-87207490D02*
X213894990Y-84473200D01*
X215299990Y-83068200D02*
X215299990Y-81943377D01*
X215325000Y-88200000D02*
X214887500Y-88200000D01*
X214887500Y-88200000D02*
X213894990Y-87207490D01*
X211500000Y-83700000D02*
X211400000Y-83600000D01*
X211400000Y-83600000D02*
X211400000Y-82700000D01*
X215299990Y-81943377D02*
X215031931Y-81675318D01*
X212517848Y-83700000D02*
X211500000Y-83700000D01*
X214542530Y-81675318D02*
X212517848Y-83700000D01*
X213894990Y-84473200D02*
X215299990Y-83068200D01*
X215849989Y-80450011D02*
X215900000Y-80400000D01*
X213649989Y-80450011D02*
X215849989Y-80450011D01*
X211400000Y-82700000D02*
X213649989Y-80450011D01*
X215031931Y-81675318D02*
X214542530Y-81675318D01*
X220159324Y-80500000D02*
X220309344Y-80349980D01*
X217885000Y-80500000D02*
X220159324Y-80500000D01*
X217485000Y-80100000D02*
X217885000Y-80500000D01*
X224870000Y-89220000D02*
X224870000Y-88900000D01*
X224177807Y-89912193D02*
X224870000Y-89220000D01*
X218674693Y-89912193D02*
X224177807Y-89912193D01*
X218312500Y-89550000D02*
X218674693Y-89912193D01*
X218312500Y-89350000D02*
X218312500Y-89550000D01*
X216875000Y-80460000D02*
X216515000Y-80100000D01*
X216875000Y-81070000D02*
X216875000Y-80460000D01*
X216494990Y-81620010D02*
X216875000Y-81240000D01*
X216494990Y-82859990D02*
X216494990Y-81620010D01*
X216515000Y-82880000D02*
X216494990Y-82859990D01*
X216515000Y-83200000D02*
X216515000Y-82880000D01*
X223915000Y-88885000D02*
X223900000Y-88900000D01*
X223915000Y-87800000D02*
X223915000Y-88885000D01*
X223915000Y-87546810D02*
X223915000Y-87800000D01*
X223068190Y-86700000D02*
X223915000Y-87546810D01*
X221970000Y-86700000D02*
X223068190Y-86700000D01*
X221374417Y-88900000D02*
X223605000Y-88900000D01*
X223605000Y-88900000D02*
X223900000Y-88900000D01*
X221174417Y-88700000D02*
X221374417Y-88900000D01*
X220087500Y-88700000D02*
X221174417Y-88700000D01*
X223280000Y-84200000D02*
X222600000Y-84200000D01*
X223340000Y-84140000D02*
X223280000Y-84200000D01*
X217599979Y-88575021D02*
X217599979Y-89712553D01*
X218200011Y-91610464D02*
X218350010Y-91760463D01*
X218312500Y-88050000D02*
X218125000Y-88050000D01*
X218125000Y-88050000D02*
X217599979Y-88575021D01*
X217599979Y-89712553D02*
X218200011Y-90312584D01*
X218200011Y-90312584D02*
X218200011Y-91610464D01*
X223117248Y-82291413D02*
X223244124Y-82441266D01*
X222987387Y-82144122D02*
X223117248Y-82291413D01*
X222854633Y-81999494D02*
X222987387Y-82144122D01*
X222580553Y-81718344D02*
X222718990Y-81857535D01*
X222439337Y-81581932D02*
X222580553Y-81718344D01*
X222295419Y-81448380D02*
X222439337Y-81581932D01*
X221848013Y-81065376D02*
X221999733Y-81190079D01*
X217905010Y-81719990D02*
X217905010Y-81504916D01*
X221537329Y-80825284D02*
X221693907Y-80943800D01*
X223340000Y-83821802D02*
X223340000Y-84140000D01*
X222148848Y-81317730D02*
X222295419Y-81448380D01*
X221693907Y-80943800D02*
X221848013Y-81065376D01*
X221502483Y-80799990D02*
X221537329Y-80825284D01*
X217525000Y-82100000D02*
X217905010Y-81719990D01*
X223355001Y-83806801D02*
X223340000Y-83821802D01*
X223355001Y-82577672D02*
X223355001Y-83806801D01*
X222718990Y-81857535D02*
X222854633Y-81999494D01*
X218609936Y-80799990D02*
X221502483Y-80799990D01*
X223244124Y-82441266D02*
X223355001Y-82577672D01*
X217905010Y-81504916D02*
X218609936Y-80799990D01*
X221999733Y-81190079D02*
X222148848Y-81317730D01*
X209083999Y-90349999D02*
X210738576Y-90349999D01*
X210738576Y-90349999D02*
X211114824Y-90726247D01*
X208843998Y-90590000D02*
X209083999Y-90349999D01*
X207430000Y-90590000D02*
X208843998Y-90590000D01*
X207630000Y-91860000D02*
X210648131Y-91860000D01*
X210648131Y-91860000D02*
X211600000Y-90908131D01*
X211600000Y-90908131D02*
X211600000Y-90300000D01*
X218170000Y-93130000D02*
X219200000Y-92100000D01*
X219200000Y-92100000D02*
X219200000Y-91100000D01*
X207930000Y-93130000D02*
X218170000Y-93130000D01*
X219618198Y-90312203D02*
X219300000Y-90312203D01*
X222400000Y-94050000D02*
X222400000Y-92900000D01*
X222400000Y-92900000D02*
X219812203Y-90312203D01*
X219812203Y-90312203D02*
X219618198Y-90312203D01*
X207930000Y-84240000D02*
X207930000Y-84690000D01*
X207930000Y-84690000D02*
X208124982Y-84884982D01*
X208124982Y-84884982D02*
X208300000Y-84884982D01*
X221920000Y-85150000D02*
X222600000Y-85150000D01*
X221200000Y-82587500D02*
X221200000Y-84430000D01*
X221200000Y-84430000D02*
X221920000Y-85150000D01*
X220587500Y-81975000D02*
X221200000Y-82587500D01*
X220587500Y-81500000D02*
X220587500Y-81975000D01*
X216900000Y-87725000D02*
X216900000Y-88200000D01*
X216900000Y-86800000D02*
X216900000Y-87725000D01*
X218550000Y-85150000D02*
X216900000Y-86800000D01*
X220400000Y-85150000D02*
X218550000Y-85150000D01*
X217200000Y-88500000D02*
X216900000Y-88200000D01*
X217899990Y-88925010D02*
X218125000Y-88700000D01*
X218125000Y-88700000D02*
X218312500Y-88700000D01*
X217899990Y-89588286D02*
X217899990Y-88925010D01*
X218566012Y-90254308D02*
X217899990Y-89588286D01*
X218800012Y-91544461D02*
X218566012Y-91310461D01*
X218566012Y-91310461D02*
X218566012Y-90254308D01*
X218800012Y-91976465D02*
X218800012Y-91544461D01*
X218476477Y-92300000D02*
X218800012Y-91976465D01*
X216900000Y-88200000D02*
X216900000Y-89436852D01*
X218200000Y-92300000D02*
X218476477Y-92300000D01*
X217900000Y-90436852D02*
X217900000Y-92000000D01*
X216900000Y-89436852D02*
X217900000Y-90436852D01*
X217900000Y-92000000D02*
X218200000Y-92300000D01*
X220275000Y-88050000D02*
X220087500Y-88050000D01*
X221000000Y-87325000D02*
X220275000Y-88050000D01*
X221000000Y-86700000D02*
X221000000Y-87325000D01*
X223074990Y-86154990D02*
X221668200Y-86154990D01*
X223620000Y-86700000D02*
X223074990Y-86154990D01*
X223915000Y-86700000D02*
X223620000Y-86700000D01*
X221668200Y-86154990D02*
X221123190Y-86700000D01*
X221123190Y-86700000D02*
X221000000Y-86700000D01*
X219285000Y-86700000D02*
X221000000Y-86700000D01*
X214366376Y-82826507D02*
X214366376Y-82508309D01*
X210666856Y-86149989D02*
X211161780Y-85655065D01*
X211810937Y-85655065D02*
X214366376Y-83099626D01*
X208949989Y-86149989D02*
X210666856Y-86149989D01*
X214366376Y-83099626D02*
X214366376Y-82826507D01*
X211161780Y-85655065D02*
X211810937Y-85655065D01*
X208310000Y-85510000D02*
X208949989Y-86149989D01*
X207630000Y-85510000D02*
X208310000Y-85510000D01*
X208655000Y-86400000D02*
X210841124Y-86400000D01*
X211286048Y-85955076D02*
X211961691Y-85955076D01*
X207430000Y-86780000D02*
X208275000Y-86780000D01*
X208275000Y-86780000D02*
X208655000Y-86400000D01*
X214864658Y-83052109D02*
X214864658Y-82174049D01*
X211961691Y-85955076D02*
X214864658Y-83052109D01*
X210841124Y-86400000D02*
X211286048Y-85955076D01*
M02*
