M48
; DRILL file {KiCad (5.1.5-0-10_14)} date Monday, May 03, 2021 at 05:37:23 PM
; FORMAT={-:-/ absolute / inch / decimal}
; #@! TF.CreationDate,2021-05-03T17:37:23-04:00
; #@! TF.GenerationSoftware,Kicad,Pcbnew,(5.1.5-0-10_14)
; #@! TF.FileFunction,Plated,1,4,PTH
FMAT,2
INCH
T1C0.0079
%
G90
G05
T1
X8.1378Y-3.5157
X8.1929Y-3.2835
X8.2008Y-3.3419
X8.203Y-3.7098
X8.2142Y-3.4484
X8.2165Y-3.7402
X8.2193Y-3.5097
X8.2215Y-3.5426
X8.2283Y-3.4173
X8.2323Y-3.6508
X8.2362Y-3.3504
X8.2402Y-3.5787
X8.2469Y-3.4558
X8.248Y-3.7717
X8.2534Y-3.7224
X8.2677Y-3.2047
X8.273Y-3.5079
X8.2756Y-3.2874
X8.2756Y-3.5874
X8.2795Y-3.3661
X8.2795Y-3.7953
X8.288Y-3.1739
X8.3002Y-3.3546
X8.3031Y-3.1969
X8.3031Y-3.7441
X8.3072Y-3.4858
X8.3116Y-3.5719
X8.3284Y-3.4399
X8.3293Y-3.4044
X8.3305Y-3.5578
X8.3319Y-3.6036
X8.3379Y-3.3482
X8.3494Y-3.2712
X8.3622Y-3.1378
X8.367Y-3.5949
X8.3672Y-3.6889
X8.4046Y-3.2146
X8.4055Y-3.7559
X8.4396Y-3.2484
X8.4449Y-3.7559
X8.4592Y-3.2352
X8.4705Y-3.7421
X8.4921Y-3.7638
X8.4961Y-3.4213
X8.5236Y-3.7559
X8.561Y-3.593
X8.5886Y-3.7421
X8.5965Y-3.6126
X8.6299Y-3.5866
X8.6314Y-3.2741
X8.6339Y-3.5556
X8.6378Y-3.1457
X8.6535Y-3.1969
X8.6654Y-3.4331
X8.6736Y-3.1634
X8.6811Y-3.6496
X8.7087Y-3.7953
X8.7158Y-3.6424
X8.7165Y-3.2126
X8.7379Y-3.4814
X8.7382Y-3.2461
X8.7441Y-3.7677
X8.7482Y-3.5221
X8.7752Y-3.4433
X8.7874Y-3.6417
X8.7929Y-3.3126
X8.7992Y-3.7047
X8.8071Y-3.3504
X8.811Y-3.2913
X8.815Y-3.6772
X8.8268Y-3.3228
X8.8307Y-3.6457
X8.8386Y-3.3543
X8.8386Y-3.3858
X8.8425Y-3.6142
X8.8543Y-3.5827
X8.8622Y-3.5472
T0
M30
