G04 #@! TF.GenerationSoftware,KiCad,Pcbnew,(5.1.5-0-10_14)*
G04 #@! TF.CreationDate,2021-05-03T17:37:28-04:00*
G04 #@! TF.ProjectId,ESLO_RB2,45534c4f-5f52-4423-922e-6b696361645f,rev?*
G04 #@! TF.SameCoordinates,Original*
G04 #@! TF.FileFunction,Soldermask,Top*
G04 #@! TF.FilePolarity,Negative*
%FSLAX46Y46*%
G04 Gerber Fmt 4.6, Leading zero omitted, Abs format (unit mm)*
G04 Created by KiCad (PCBNEW (5.1.5-0-10_14)) date 2021-05-03 17:37:28*
%MOMM*%
%LPD*%
G04 APERTURE LIST*
%ADD10C,0.100000*%
G04 APERTURE END LIST*
D10*
G36*
X219951000Y-96611000D02*
G01*
X219199000Y-96611000D01*
X219199000Y-96009000D01*
X219951000Y-96009000D01*
X219951000Y-96611000D01*
G37*
G36*
X212201000Y-96611000D02*
G01*
X211449000Y-96611000D01*
X211449000Y-96009000D01*
X212201000Y-96009000D01*
X212201000Y-96611000D01*
G37*
G36*
X219951000Y-95341000D02*
G01*
X219199000Y-95341000D01*
X219199000Y-94739000D01*
X219951000Y-94739000D01*
X219951000Y-95341000D01*
G37*
G36*
X212201000Y-95341000D02*
G01*
X211449000Y-95341000D01*
X211449000Y-94739000D01*
X212201000Y-94739000D01*
X212201000Y-95341000D01*
G37*
G36*
X209058900Y-91623398D02*
G01*
X209071151Y-91624000D01*
X209653849Y-91624000D01*
X209666100Y-91623398D01*
X209668638Y-91623148D01*
X210056360Y-91623148D01*
X210072499Y-91624737D01*
X210082108Y-91627652D01*
X210090972Y-91632390D01*
X210098737Y-91638763D01*
X210105110Y-91646528D01*
X210109848Y-91655392D01*
X210112763Y-91665001D01*
X210114352Y-91681140D01*
X210114352Y-91873043D01*
X210116754Y-91897429D01*
X210123867Y-91920878D01*
X210135418Y-91942489D01*
X210150963Y-91961431D01*
X210169905Y-91976976D01*
X210191516Y-91988527D01*
X210214965Y-91995640D01*
X210239351Y-91998042D01*
X210263737Y-91995640D01*
X210287186Y-91988527D01*
X210308797Y-91976976D01*
X210327739Y-91961431D01*
X210371493Y-91917677D01*
X210384028Y-91907390D01*
X210392892Y-91902652D01*
X210402501Y-91899737D01*
X210418640Y-91898148D01*
X210831360Y-91898148D01*
X210847499Y-91899737D01*
X210857108Y-91902652D01*
X210865972Y-91907390D01*
X210873737Y-91913763D01*
X210880110Y-91921528D01*
X210884848Y-91930392D01*
X210887763Y-91940001D01*
X210889352Y-91956140D01*
X210889352Y-92343862D01*
X210889102Y-92346400D01*
X210888500Y-92358651D01*
X210888500Y-93441349D01*
X210889102Y-93453600D01*
X210889352Y-93456138D01*
X210889352Y-93843860D01*
X210887763Y-93859999D01*
X210884848Y-93869608D01*
X210880110Y-93878472D01*
X210873737Y-93886237D01*
X210865972Y-93892610D01*
X210857108Y-93897348D01*
X210847499Y-93900263D01*
X210831360Y-93901852D01*
X210418640Y-93901852D01*
X210402501Y-93900263D01*
X210392892Y-93897348D01*
X210384028Y-93892610D01*
X210371493Y-93882323D01*
X210327739Y-93838569D01*
X210308797Y-93823024D01*
X210287186Y-93811473D01*
X210263737Y-93804360D01*
X210239351Y-93801958D01*
X210214965Y-93804360D01*
X210191516Y-93811473D01*
X210169905Y-93823024D01*
X210150963Y-93838569D01*
X210135418Y-93857511D01*
X210123867Y-93879122D01*
X210116754Y-93902571D01*
X210114352Y-93926957D01*
X210114352Y-94118860D01*
X210112763Y-94134999D01*
X210109848Y-94144608D01*
X210105110Y-94153472D01*
X210098737Y-94161237D01*
X210090972Y-94167610D01*
X210082108Y-94172348D01*
X210072499Y-94175263D01*
X210056360Y-94176852D01*
X209668638Y-94176852D01*
X209666100Y-94176602D01*
X209653849Y-94176000D01*
X209071151Y-94176000D01*
X209058900Y-94176602D01*
X209056362Y-94176852D01*
X208668640Y-94176852D01*
X208652501Y-94175263D01*
X208642892Y-94172348D01*
X208634028Y-94167610D01*
X208626263Y-94161237D01*
X208619890Y-94153472D01*
X208615152Y-94144608D01*
X208612237Y-94134999D01*
X208610648Y-94118860D01*
X208610648Y-93926957D01*
X208608246Y-93902571D01*
X208601133Y-93879122D01*
X208589582Y-93857511D01*
X208574037Y-93838569D01*
X208555095Y-93823024D01*
X208533484Y-93811473D01*
X208510035Y-93804360D01*
X208485649Y-93801958D01*
X208461263Y-93804360D01*
X208437814Y-93811473D01*
X208416203Y-93823024D01*
X208397261Y-93838569D01*
X208353507Y-93882323D01*
X208340972Y-93892610D01*
X208332108Y-93897348D01*
X208322499Y-93900263D01*
X208306360Y-93901852D01*
X207893640Y-93901852D01*
X207877501Y-93900263D01*
X207867892Y-93897348D01*
X207859028Y-93892610D01*
X207851263Y-93886237D01*
X207844890Y-93878472D01*
X207840152Y-93869608D01*
X207837237Y-93859999D01*
X207835648Y-93843860D01*
X207835648Y-93456138D01*
X207835898Y-93453600D01*
X207836500Y-93441349D01*
X207836500Y-92426105D01*
X208613500Y-92426105D01*
X208613500Y-93373895D01*
X208615902Y-93398281D01*
X208623015Y-93421730D01*
X208634566Y-93443341D01*
X208650111Y-93462283D01*
X208669053Y-93477828D01*
X208690664Y-93489379D01*
X208714113Y-93496492D01*
X208738499Y-93498894D01*
X208762885Y-93496492D01*
X208786334Y-93489379D01*
X208807945Y-93477828D01*
X208826887Y-93462283D01*
X208871493Y-93417677D01*
X208884028Y-93407390D01*
X208892892Y-93402652D01*
X208902501Y-93399737D01*
X208918640Y-93398148D01*
X209056362Y-93398148D01*
X209058900Y-93398398D01*
X209071151Y-93399000D01*
X209653849Y-93399000D01*
X209666100Y-93398398D01*
X209668638Y-93398148D01*
X209806360Y-93398148D01*
X209822499Y-93399737D01*
X209832108Y-93402652D01*
X209840972Y-93407390D01*
X209853507Y-93417677D01*
X209898113Y-93462283D01*
X209917055Y-93477828D01*
X209938666Y-93489379D01*
X209962115Y-93496492D01*
X209986501Y-93498894D01*
X210010887Y-93496492D01*
X210034336Y-93489379D01*
X210055947Y-93477828D01*
X210074889Y-93462283D01*
X210090434Y-93443341D01*
X210101985Y-93421730D01*
X210109098Y-93398281D01*
X210111500Y-93373895D01*
X210111500Y-92426105D01*
X210109098Y-92401719D01*
X210101985Y-92378270D01*
X210090434Y-92356659D01*
X210074889Y-92337717D01*
X210055947Y-92322172D01*
X210034336Y-92310621D01*
X210010887Y-92303508D01*
X209986501Y-92301106D01*
X209962115Y-92303508D01*
X209938666Y-92310621D01*
X209917055Y-92322172D01*
X209898113Y-92337717D01*
X209853507Y-92382323D01*
X209840972Y-92392610D01*
X209832108Y-92397348D01*
X209822499Y-92400263D01*
X209806360Y-92401852D01*
X209668638Y-92401852D01*
X209666100Y-92401602D01*
X209653849Y-92401000D01*
X209071151Y-92401000D01*
X209058900Y-92401602D01*
X209056362Y-92401852D01*
X208918640Y-92401852D01*
X208902501Y-92400263D01*
X208892892Y-92397348D01*
X208884028Y-92392610D01*
X208871493Y-92382323D01*
X208826887Y-92337717D01*
X208807945Y-92322172D01*
X208786334Y-92310621D01*
X208762885Y-92303508D01*
X208738499Y-92301106D01*
X208714113Y-92303508D01*
X208690664Y-92310621D01*
X208669053Y-92322172D01*
X208650111Y-92337717D01*
X208634566Y-92356659D01*
X208623015Y-92378270D01*
X208615902Y-92401719D01*
X208613500Y-92426105D01*
X207836500Y-92426105D01*
X207836500Y-92358651D01*
X207835898Y-92346400D01*
X207835648Y-92343862D01*
X207835648Y-91956140D01*
X207837237Y-91940001D01*
X207840152Y-91930392D01*
X207844890Y-91921528D01*
X207851263Y-91913763D01*
X207859028Y-91907390D01*
X207867892Y-91902652D01*
X207877501Y-91899737D01*
X207893640Y-91898148D01*
X208306360Y-91898148D01*
X208322499Y-91899737D01*
X208332108Y-91902652D01*
X208340972Y-91907390D01*
X208353507Y-91917677D01*
X208397261Y-91961431D01*
X208416203Y-91976976D01*
X208437814Y-91988527D01*
X208461263Y-91995640D01*
X208485649Y-91998042D01*
X208510035Y-91995640D01*
X208533484Y-91988527D01*
X208555095Y-91976976D01*
X208574037Y-91961431D01*
X208589582Y-91942489D01*
X208601133Y-91920878D01*
X208608246Y-91897429D01*
X208610648Y-91873043D01*
X208610648Y-91681140D01*
X208612237Y-91665001D01*
X208615152Y-91655392D01*
X208619890Y-91646528D01*
X208626263Y-91638763D01*
X208634028Y-91632390D01*
X208642892Y-91627652D01*
X208652501Y-91624737D01*
X208668640Y-91623148D01*
X209056362Y-91623148D01*
X209058900Y-91623398D01*
G37*
G36*
X212201000Y-94071000D02*
G01*
X211449000Y-94071000D01*
X211449000Y-93469000D01*
X212201000Y-93469000D01*
X212201000Y-94071000D01*
G37*
G36*
X219951000Y-94071000D02*
G01*
X219199000Y-94071000D01*
X219199000Y-93469000D01*
X219951000Y-93469000D01*
X219951000Y-94071000D01*
G37*
G36*
X219951000Y-92801000D02*
G01*
X219199000Y-92801000D01*
X219199000Y-92199000D01*
X219951000Y-92199000D01*
X219951000Y-92801000D01*
G37*
G36*
X212201000Y-92801000D02*
G01*
X211449000Y-92801000D01*
X211449000Y-92199000D01*
X212201000Y-92199000D01*
X212201000Y-92801000D01*
G37*
G36*
X223856938Y-90131716D02*
G01*
X223877557Y-90137971D01*
X223896553Y-90148124D01*
X223913208Y-90161792D01*
X223926876Y-90178447D01*
X223937029Y-90197443D01*
X223943284Y-90218062D01*
X223946000Y-90245640D01*
X223946000Y-90754360D01*
X223943284Y-90781938D01*
X223937029Y-90802557D01*
X223926876Y-90821553D01*
X223913208Y-90838208D01*
X223896553Y-90851876D01*
X223877557Y-90862029D01*
X223856938Y-90868284D01*
X223829360Y-90871000D01*
X223370640Y-90871000D01*
X223343062Y-90868284D01*
X223322443Y-90862029D01*
X223303447Y-90851876D01*
X223286792Y-90838208D01*
X223273124Y-90821553D01*
X223262971Y-90802557D01*
X223256716Y-90781938D01*
X223254000Y-90754360D01*
X223254000Y-90245640D01*
X223256716Y-90218062D01*
X223262971Y-90197443D01*
X223273124Y-90178447D01*
X223286792Y-90161792D01*
X223303447Y-90148124D01*
X223322443Y-90137971D01*
X223343062Y-90131716D01*
X223370640Y-90129000D01*
X223829360Y-90129000D01*
X223856938Y-90131716D01*
G37*
G36*
X222886938Y-90131716D02*
G01*
X222907557Y-90137971D01*
X222926553Y-90148124D01*
X222943208Y-90161792D01*
X222956876Y-90178447D01*
X222967029Y-90197443D01*
X222973284Y-90218062D01*
X222976000Y-90245640D01*
X222976000Y-90754360D01*
X222973284Y-90781938D01*
X222967029Y-90802557D01*
X222956876Y-90821553D01*
X222943208Y-90838208D01*
X222926553Y-90851876D01*
X222907557Y-90862029D01*
X222886938Y-90868284D01*
X222859360Y-90871000D01*
X222400640Y-90871000D01*
X222373062Y-90868284D01*
X222352443Y-90862029D01*
X222333447Y-90851876D01*
X222316792Y-90838208D01*
X222303124Y-90821553D01*
X222292971Y-90802557D01*
X222286716Y-90781938D01*
X222284000Y-90754360D01*
X222284000Y-90245640D01*
X222286716Y-90218062D01*
X222292971Y-90197443D01*
X222303124Y-90178447D01*
X222316792Y-90161792D01*
X222333447Y-90148124D01*
X222352443Y-90137971D01*
X222373062Y-90131716D01*
X222400640Y-90129000D01*
X222859360Y-90129000D01*
X222886938Y-90131716D01*
G37*
G36*
X221826938Y-90131716D02*
G01*
X221847557Y-90137971D01*
X221866553Y-90148124D01*
X221883208Y-90161792D01*
X221896876Y-90178447D01*
X221907029Y-90197443D01*
X221913284Y-90218062D01*
X221916000Y-90245640D01*
X221916000Y-90754360D01*
X221913284Y-90781938D01*
X221907029Y-90802557D01*
X221896876Y-90821553D01*
X221883208Y-90838208D01*
X221866553Y-90851876D01*
X221847557Y-90862029D01*
X221826938Y-90868284D01*
X221799360Y-90871000D01*
X221340640Y-90871000D01*
X221313062Y-90868284D01*
X221292443Y-90862029D01*
X221273447Y-90851876D01*
X221256792Y-90838208D01*
X221243124Y-90821553D01*
X221232971Y-90802557D01*
X221226716Y-90781938D01*
X221224000Y-90754360D01*
X221224000Y-90245640D01*
X221226716Y-90218062D01*
X221232971Y-90197443D01*
X221243124Y-90178447D01*
X221256792Y-90161792D01*
X221273447Y-90148124D01*
X221292443Y-90137971D01*
X221313062Y-90131716D01*
X221340640Y-90129000D01*
X221799360Y-90129000D01*
X221826938Y-90131716D01*
G37*
G36*
X220856938Y-90131716D02*
G01*
X220877557Y-90137971D01*
X220896553Y-90148124D01*
X220913208Y-90161792D01*
X220926876Y-90178447D01*
X220937029Y-90197443D01*
X220943284Y-90218062D01*
X220946000Y-90245640D01*
X220946000Y-90754360D01*
X220943284Y-90781938D01*
X220937029Y-90802557D01*
X220926876Y-90821553D01*
X220913208Y-90838208D01*
X220896553Y-90851876D01*
X220877557Y-90862029D01*
X220856938Y-90868284D01*
X220829360Y-90871000D01*
X220370640Y-90871000D01*
X220343062Y-90868284D01*
X220322443Y-90862029D01*
X220303447Y-90851876D01*
X220286792Y-90838208D01*
X220273124Y-90821553D01*
X220262971Y-90802557D01*
X220256716Y-90781938D01*
X220254000Y-90754360D01*
X220254000Y-90245640D01*
X220256716Y-90218062D01*
X220262971Y-90197443D01*
X220273124Y-90178447D01*
X220286792Y-90161792D01*
X220303447Y-90148124D01*
X220322443Y-90137971D01*
X220343062Y-90131716D01*
X220370640Y-90129000D01*
X220829360Y-90129000D01*
X220856938Y-90131716D01*
G37*
G36*
X213205355Y-82875083D02*
G01*
X213210029Y-82876501D01*
X213214330Y-82878800D01*
X213220702Y-82884029D01*
X213241076Y-82897643D01*
X213263715Y-82907020D01*
X213287749Y-82911800D01*
X213312253Y-82911800D01*
X213336286Y-82907019D01*
X213358925Y-82897642D01*
X213379298Y-82884029D01*
X213385670Y-82878800D01*
X213389971Y-82876501D01*
X213394645Y-82875083D01*
X213405641Y-82874000D01*
X213694359Y-82874000D01*
X213705355Y-82875083D01*
X213710029Y-82876501D01*
X213714330Y-82878800D01*
X213720702Y-82884029D01*
X213741076Y-82897643D01*
X213763715Y-82907020D01*
X213787749Y-82911800D01*
X213812253Y-82911800D01*
X213836286Y-82907019D01*
X213858925Y-82897642D01*
X213879298Y-82884029D01*
X213885670Y-82878800D01*
X213889971Y-82876501D01*
X213894645Y-82875083D01*
X213905641Y-82874000D01*
X214194359Y-82874000D01*
X214205355Y-82875083D01*
X214210029Y-82876501D01*
X214214330Y-82878800D01*
X214220702Y-82884029D01*
X214241076Y-82897643D01*
X214263715Y-82907020D01*
X214287749Y-82911800D01*
X214312253Y-82911800D01*
X214336286Y-82907019D01*
X214358925Y-82897642D01*
X214379298Y-82884029D01*
X214385670Y-82878800D01*
X214389971Y-82876501D01*
X214394645Y-82875083D01*
X214405641Y-82874000D01*
X214694359Y-82874000D01*
X214705355Y-82875083D01*
X214710029Y-82876501D01*
X214714330Y-82878800D01*
X214720702Y-82884029D01*
X214741076Y-82897643D01*
X214763715Y-82907020D01*
X214787749Y-82911800D01*
X214812253Y-82911800D01*
X214836286Y-82907019D01*
X214858925Y-82897642D01*
X214879298Y-82884029D01*
X214885670Y-82878800D01*
X214889971Y-82876501D01*
X214894645Y-82875083D01*
X214905641Y-82874000D01*
X215194359Y-82874000D01*
X215205355Y-82875083D01*
X215210029Y-82876501D01*
X215214330Y-82878800D01*
X215220702Y-82884029D01*
X215241076Y-82897643D01*
X215263715Y-82907020D01*
X215287749Y-82911800D01*
X215312253Y-82911800D01*
X215336286Y-82907019D01*
X215358925Y-82897642D01*
X215379298Y-82884029D01*
X215385670Y-82878800D01*
X215389971Y-82876501D01*
X215394645Y-82875083D01*
X215405641Y-82874000D01*
X215694359Y-82874000D01*
X215705355Y-82875083D01*
X215710029Y-82876501D01*
X215714330Y-82878800D01*
X215720702Y-82884029D01*
X215741076Y-82897643D01*
X215763715Y-82907020D01*
X215787749Y-82911800D01*
X215812253Y-82911800D01*
X215836286Y-82907019D01*
X215858925Y-82897642D01*
X215879298Y-82884029D01*
X215885670Y-82878800D01*
X215889971Y-82876501D01*
X215894645Y-82875083D01*
X215905641Y-82874000D01*
X216194359Y-82874000D01*
X216205355Y-82875083D01*
X216210029Y-82876501D01*
X216214330Y-82878800D01*
X216220702Y-82884029D01*
X216241076Y-82897643D01*
X216263715Y-82907020D01*
X216287749Y-82911800D01*
X216312253Y-82911800D01*
X216336286Y-82907019D01*
X216358925Y-82897642D01*
X216379298Y-82884029D01*
X216385670Y-82878800D01*
X216389971Y-82876501D01*
X216394645Y-82875083D01*
X216405641Y-82874000D01*
X216694359Y-82874000D01*
X216705355Y-82875083D01*
X216710029Y-82876501D01*
X216714330Y-82878800D01*
X216720702Y-82884029D01*
X216741076Y-82897643D01*
X216763715Y-82907020D01*
X216787749Y-82911800D01*
X216812253Y-82911800D01*
X216836286Y-82907019D01*
X216858925Y-82897642D01*
X216879298Y-82884029D01*
X216885670Y-82878800D01*
X216889971Y-82876501D01*
X216894645Y-82875083D01*
X216905641Y-82874000D01*
X217194359Y-82874000D01*
X217205355Y-82875083D01*
X217210029Y-82876501D01*
X217214330Y-82878800D01*
X217220702Y-82884029D01*
X217241076Y-82897643D01*
X217263715Y-82907020D01*
X217287749Y-82911800D01*
X217312253Y-82911800D01*
X217336286Y-82907019D01*
X217358925Y-82897642D01*
X217379298Y-82884029D01*
X217385670Y-82878800D01*
X217389971Y-82876501D01*
X217394645Y-82875083D01*
X217405641Y-82874000D01*
X217694359Y-82874000D01*
X217705355Y-82875083D01*
X217710029Y-82876501D01*
X217714330Y-82878800D01*
X217720702Y-82884029D01*
X217741076Y-82897643D01*
X217763715Y-82907020D01*
X217787749Y-82911800D01*
X217812253Y-82911800D01*
X217836286Y-82907019D01*
X217858925Y-82897642D01*
X217879298Y-82884029D01*
X217885670Y-82878800D01*
X217889971Y-82876501D01*
X217894645Y-82875083D01*
X217905641Y-82874000D01*
X218194359Y-82874000D01*
X218205355Y-82875083D01*
X218210029Y-82876501D01*
X218214330Y-82878800D01*
X218220702Y-82884029D01*
X218241076Y-82897643D01*
X218263715Y-82907020D01*
X218287749Y-82911800D01*
X218312253Y-82911800D01*
X218336286Y-82907019D01*
X218358925Y-82897642D01*
X218379298Y-82884029D01*
X218385670Y-82878800D01*
X218389971Y-82876501D01*
X218394645Y-82875083D01*
X218405641Y-82874000D01*
X218694359Y-82874000D01*
X218705355Y-82875083D01*
X218710029Y-82876501D01*
X218714331Y-82878800D01*
X218718104Y-82881896D01*
X218721200Y-82885669D01*
X218723499Y-82889971D01*
X218724917Y-82894645D01*
X218726000Y-82905641D01*
X218726000Y-83749001D01*
X218728402Y-83773387D01*
X218735515Y-83796836D01*
X218747066Y-83818447D01*
X218762611Y-83837389D01*
X218781553Y-83852934D01*
X218803164Y-83864485D01*
X218826613Y-83871598D01*
X218850999Y-83874000D01*
X219694359Y-83874000D01*
X219705355Y-83875083D01*
X219710029Y-83876501D01*
X219714331Y-83878800D01*
X219718104Y-83881896D01*
X219721200Y-83885669D01*
X219723499Y-83889971D01*
X219724917Y-83894645D01*
X219726000Y-83905641D01*
X219726000Y-84194359D01*
X219724917Y-84205355D01*
X219723499Y-84210029D01*
X219721200Y-84214330D01*
X219715971Y-84220702D01*
X219702357Y-84241076D01*
X219692980Y-84263715D01*
X219688200Y-84287749D01*
X219688200Y-84312253D01*
X219692981Y-84336286D01*
X219702358Y-84358925D01*
X219715971Y-84379298D01*
X219721200Y-84385670D01*
X219723499Y-84389971D01*
X219724917Y-84394645D01*
X219726000Y-84405641D01*
X219726000Y-84694359D01*
X219724917Y-84705355D01*
X219723499Y-84710029D01*
X219721200Y-84714330D01*
X219715971Y-84720702D01*
X219702357Y-84741076D01*
X219692980Y-84763715D01*
X219688200Y-84787749D01*
X219688200Y-84812253D01*
X219692981Y-84836286D01*
X219702358Y-84858925D01*
X219715971Y-84879298D01*
X219721200Y-84885670D01*
X219723499Y-84889971D01*
X219724917Y-84894645D01*
X219726000Y-84905641D01*
X219726000Y-85194359D01*
X219724917Y-85205355D01*
X219723499Y-85210029D01*
X219721200Y-85214330D01*
X219715971Y-85220702D01*
X219702357Y-85241076D01*
X219692980Y-85263715D01*
X219688200Y-85287749D01*
X219688200Y-85312253D01*
X219692981Y-85336286D01*
X219702358Y-85358925D01*
X219715971Y-85379298D01*
X219721200Y-85385670D01*
X219723499Y-85389971D01*
X219724917Y-85394645D01*
X219726000Y-85405641D01*
X219726000Y-85694359D01*
X219724917Y-85705355D01*
X219723499Y-85710029D01*
X219721200Y-85714330D01*
X219715971Y-85720702D01*
X219702357Y-85741076D01*
X219692980Y-85763715D01*
X219688200Y-85787749D01*
X219688200Y-85812253D01*
X219692981Y-85836286D01*
X219702358Y-85858925D01*
X219715971Y-85879298D01*
X219721200Y-85885670D01*
X219723499Y-85889971D01*
X219724917Y-85894645D01*
X219726000Y-85905641D01*
X219726000Y-86194359D01*
X219724917Y-86205355D01*
X219723499Y-86210029D01*
X219721200Y-86214330D01*
X219715971Y-86220702D01*
X219702357Y-86241076D01*
X219692980Y-86263715D01*
X219688200Y-86287749D01*
X219688200Y-86312253D01*
X219692981Y-86336286D01*
X219702358Y-86358925D01*
X219715971Y-86379298D01*
X219721200Y-86385670D01*
X219723499Y-86389971D01*
X219724917Y-86394645D01*
X219726000Y-86405641D01*
X219726000Y-86694359D01*
X219724917Y-86705355D01*
X219723499Y-86710029D01*
X219721200Y-86714330D01*
X219715971Y-86720702D01*
X219702357Y-86741076D01*
X219692980Y-86763715D01*
X219688200Y-86787749D01*
X219688200Y-86812253D01*
X219692981Y-86836286D01*
X219702358Y-86858925D01*
X219715971Y-86879298D01*
X219721200Y-86885670D01*
X219723499Y-86889971D01*
X219724917Y-86894645D01*
X219726000Y-86905641D01*
X219726000Y-87194359D01*
X219724917Y-87205355D01*
X219723499Y-87210029D01*
X219721200Y-87214330D01*
X219715971Y-87220702D01*
X219702357Y-87241076D01*
X219692980Y-87263715D01*
X219688200Y-87287749D01*
X219688200Y-87312253D01*
X219692981Y-87336286D01*
X219702358Y-87358925D01*
X219715971Y-87379298D01*
X219721200Y-87385670D01*
X219723499Y-87389971D01*
X219724917Y-87394645D01*
X219726000Y-87405641D01*
X219726000Y-87694359D01*
X219724917Y-87705355D01*
X219723499Y-87710029D01*
X219721200Y-87714330D01*
X219715971Y-87720702D01*
X219702357Y-87741076D01*
X219692980Y-87763715D01*
X219688200Y-87787749D01*
X219688200Y-87812253D01*
X219692981Y-87836286D01*
X219702358Y-87858925D01*
X219715971Y-87879298D01*
X219721200Y-87885670D01*
X219723499Y-87889971D01*
X219724917Y-87894645D01*
X219726000Y-87905641D01*
X219726000Y-88194359D01*
X219724917Y-88205355D01*
X219723499Y-88210029D01*
X219721200Y-88214330D01*
X219715971Y-88220702D01*
X219702357Y-88241076D01*
X219692980Y-88263715D01*
X219688200Y-88287749D01*
X219688200Y-88312253D01*
X219692981Y-88336286D01*
X219702358Y-88358925D01*
X219715971Y-88379298D01*
X219721200Y-88385670D01*
X219723499Y-88389971D01*
X219724917Y-88394645D01*
X219726000Y-88405641D01*
X219726000Y-88694359D01*
X219724917Y-88705355D01*
X219723499Y-88710029D01*
X219721200Y-88714330D01*
X219715971Y-88720702D01*
X219702357Y-88741076D01*
X219692980Y-88763715D01*
X219688200Y-88787749D01*
X219688200Y-88812253D01*
X219692981Y-88836286D01*
X219702358Y-88858925D01*
X219715971Y-88879298D01*
X219721200Y-88885670D01*
X219723499Y-88889971D01*
X219724917Y-88894645D01*
X219726000Y-88905641D01*
X219726000Y-89194359D01*
X219724917Y-89205355D01*
X219723499Y-89210029D01*
X219721200Y-89214330D01*
X219715971Y-89220702D01*
X219702357Y-89241076D01*
X219692980Y-89263715D01*
X219688200Y-89287749D01*
X219688200Y-89312253D01*
X219692981Y-89336286D01*
X219702358Y-89358925D01*
X219715971Y-89379298D01*
X219721200Y-89385670D01*
X219723499Y-89389971D01*
X219724917Y-89394645D01*
X219726000Y-89405641D01*
X219726000Y-89694359D01*
X219724917Y-89705355D01*
X219723499Y-89710029D01*
X219721200Y-89714331D01*
X219718104Y-89718104D01*
X219714331Y-89721200D01*
X219710029Y-89723499D01*
X219705355Y-89724917D01*
X219694359Y-89726000D01*
X218850999Y-89726000D01*
X218826613Y-89728402D01*
X218803164Y-89735515D01*
X218781553Y-89747066D01*
X218762611Y-89762611D01*
X218747066Y-89781553D01*
X218735515Y-89803164D01*
X218728402Y-89826613D01*
X218726000Y-89850999D01*
X218726000Y-90694359D01*
X218724917Y-90705355D01*
X218723499Y-90710029D01*
X218721200Y-90714331D01*
X218718104Y-90718104D01*
X218714331Y-90721200D01*
X218710029Y-90723499D01*
X218705355Y-90724917D01*
X218694359Y-90726000D01*
X218405641Y-90726000D01*
X218394645Y-90724917D01*
X218389971Y-90723499D01*
X218385670Y-90721200D01*
X218379298Y-90715971D01*
X218358924Y-90702357D01*
X218336285Y-90692980D01*
X218312251Y-90688200D01*
X218287747Y-90688200D01*
X218263714Y-90692981D01*
X218241075Y-90702358D01*
X218220702Y-90715971D01*
X218214330Y-90721200D01*
X218210029Y-90723499D01*
X218205355Y-90724917D01*
X218194359Y-90726000D01*
X217905641Y-90726000D01*
X217894645Y-90724917D01*
X217889971Y-90723499D01*
X217885670Y-90721200D01*
X217879298Y-90715971D01*
X217858924Y-90702357D01*
X217836285Y-90692980D01*
X217812251Y-90688200D01*
X217787747Y-90688200D01*
X217763714Y-90692981D01*
X217741075Y-90702358D01*
X217720702Y-90715971D01*
X217714330Y-90721200D01*
X217710029Y-90723499D01*
X217705355Y-90724917D01*
X217694359Y-90726000D01*
X217405641Y-90726000D01*
X217394645Y-90724917D01*
X217389971Y-90723499D01*
X217385670Y-90721200D01*
X217379298Y-90715971D01*
X217358924Y-90702357D01*
X217336285Y-90692980D01*
X217312251Y-90688200D01*
X217287747Y-90688200D01*
X217263714Y-90692981D01*
X217241075Y-90702358D01*
X217220702Y-90715971D01*
X217214330Y-90721200D01*
X217210029Y-90723499D01*
X217205355Y-90724917D01*
X217194359Y-90726000D01*
X216905641Y-90726000D01*
X216894645Y-90724917D01*
X216889971Y-90723499D01*
X216885670Y-90721200D01*
X216879298Y-90715971D01*
X216858924Y-90702357D01*
X216836285Y-90692980D01*
X216812251Y-90688200D01*
X216787747Y-90688200D01*
X216763714Y-90692981D01*
X216741075Y-90702358D01*
X216720702Y-90715971D01*
X216714330Y-90721200D01*
X216710029Y-90723499D01*
X216705355Y-90724917D01*
X216694359Y-90726000D01*
X216405641Y-90726000D01*
X216394645Y-90724917D01*
X216389971Y-90723499D01*
X216385670Y-90721200D01*
X216379298Y-90715971D01*
X216358924Y-90702357D01*
X216336285Y-90692980D01*
X216312251Y-90688200D01*
X216287747Y-90688200D01*
X216263714Y-90692981D01*
X216241075Y-90702358D01*
X216220702Y-90715971D01*
X216214330Y-90721200D01*
X216210029Y-90723499D01*
X216205355Y-90724917D01*
X216194359Y-90726000D01*
X215905641Y-90726000D01*
X215894645Y-90724917D01*
X215889971Y-90723499D01*
X215885670Y-90721200D01*
X215879298Y-90715971D01*
X215858924Y-90702357D01*
X215836285Y-90692980D01*
X215812251Y-90688200D01*
X215787747Y-90688200D01*
X215763714Y-90692981D01*
X215741075Y-90702358D01*
X215720702Y-90715971D01*
X215714330Y-90721200D01*
X215710029Y-90723499D01*
X215705355Y-90724917D01*
X215694359Y-90726000D01*
X215405641Y-90726000D01*
X215394645Y-90724917D01*
X215389971Y-90723499D01*
X215385670Y-90721200D01*
X215379298Y-90715971D01*
X215358924Y-90702357D01*
X215336285Y-90692980D01*
X215312251Y-90688200D01*
X215287747Y-90688200D01*
X215263714Y-90692981D01*
X215241075Y-90702358D01*
X215220702Y-90715971D01*
X215214330Y-90721200D01*
X215210029Y-90723499D01*
X215205355Y-90724917D01*
X215194359Y-90726000D01*
X214905641Y-90726000D01*
X214894645Y-90724917D01*
X214889971Y-90723499D01*
X214885670Y-90721200D01*
X214879298Y-90715971D01*
X214858924Y-90702357D01*
X214836285Y-90692980D01*
X214812251Y-90688200D01*
X214787747Y-90688200D01*
X214763714Y-90692981D01*
X214741075Y-90702358D01*
X214720702Y-90715971D01*
X214714330Y-90721200D01*
X214710029Y-90723499D01*
X214705355Y-90724917D01*
X214694359Y-90726000D01*
X214405641Y-90726000D01*
X214394645Y-90724917D01*
X214389971Y-90723499D01*
X214385670Y-90721200D01*
X214379298Y-90715971D01*
X214358924Y-90702357D01*
X214336285Y-90692980D01*
X214312251Y-90688200D01*
X214287747Y-90688200D01*
X214263714Y-90692981D01*
X214241075Y-90702358D01*
X214220702Y-90715971D01*
X214214330Y-90721200D01*
X214210029Y-90723499D01*
X214205355Y-90724917D01*
X214194359Y-90726000D01*
X213905641Y-90726000D01*
X213894645Y-90724917D01*
X213889971Y-90723499D01*
X213885670Y-90721200D01*
X213879298Y-90715971D01*
X213858924Y-90702357D01*
X213836285Y-90692980D01*
X213812251Y-90688200D01*
X213787747Y-90688200D01*
X213763714Y-90692981D01*
X213741075Y-90702358D01*
X213720702Y-90715971D01*
X213714330Y-90721200D01*
X213710029Y-90723499D01*
X213705355Y-90724917D01*
X213694359Y-90726000D01*
X213405641Y-90726000D01*
X213394645Y-90724917D01*
X213389971Y-90723499D01*
X213385670Y-90721200D01*
X213379298Y-90715971D01*
X213358924Y-90702357D01*
X213336285Y-90692980D01*
X213312251Y-90688200D01*
X213287747Y-90688200D01*
X213263714Y-90692981D01*
X213241075Y-90702358D01*
X213220702Y-90715971D01*
X213214330Y-90721200D01*
X213210029Y-90723499D01*
X213205355Y-90724917D01*
X213194359Y-90726000D01*
X212905641Y-90726000D01*
X212894645Y-90724917D01*
X212889971Y-90723499D01*
X212885669Y-90721200D01*
X212881896Y-90718104D01*
X212878800Y-90714331D01*
X212876501Y-90710029D01*
X212875083Y-90705355D01*
X212874000Y-90694359D01*
X212874000Y-89850999D01*
X212871598Y-89826613D01*
X212864485Y-89803164D01*
X212852934Y-89781553D01*
X212837389Y-89762611D01*
X212818447Y-89747066D01*
X212796836Y-89735515D01*
X212773387Y-89728402D01*
X212749001Y-89726000D01*
X211905641Y-89726000D01*
X211894645Y-89724917D01*
X211889971Y-89723499D01*
X211885669Y-89721200D01*
X211881896Y-89718104D01*
X211878800Y-89714331D01*
X211876501Y-89710029D01*
X211875083Y-89705355D01*
X211874000Y-89694359D01*
X211874000Y-89405641D01*
X211875083Y-89394645D01*
X211876501Y-89389971D01*
X211878800Y-89385670D01*
X211884029Y-89379298D01*
X211897643Y-89358924D01*
X211907020Y-89336285D01*
X211911800Y-89312251D01*
X211911800Y-89287747D01*
X211907019Y-89263714D01*
X211897642Y-89241075D01*
X211884029Y-89220702D01*
X211878800Y-89214330D01*
X211876501Y-89210029D01*
X211875083Y-89205355D01*
X211874000Y-89194359D01*
X211874000Y-88905641D01*
X211875083Y-88894645D01*
X211876501Y-88889971D01*
X211878800Y-88885670D01*
X211884029Y-88879298D01*
X211897643Y-88858924D01*
X211907020Y-88836285D01*
X211911800Y-88812251D01*
X211911800Y-88787747D01*
X211907019Y-88763714D01*
X211897642Y-88741075D01*
X211884029Y-88720702D01*
X211878800Y-88714330D01*
X211876501Y-88710029D01*
X211875083Y-88705355D01*
X211874000Y-88694359D01*
X211874000Y-88405641D01*
X211875083Y-88394645D01*
X211876501Y-88389971D01*
X211878800Y-88385670D01*
X211884029Y-88379298D01*
X211897643Y-88358924D01*
X211907020Y-88336285D01*
X211911800Y-88312251D01*
X211911800Y-88287747D01*
X211907019Y-88263714D01*
X211897642Y-88241075D01*
X211884029Y-88220702D01*
X211878800Y-88214330D01*
X211876501Y-88210029D01*
X211875083Y-88205355D01*
X211874000Y-88194359D01*
X211874000Y-87905641D01*
X211875083Y-87894645D01*
X211876501Y-87889971D01*
X211878800Y-87885670D01*
X211884029Y-87879298D01*
X211897643Y-87858924D01*
X211907020Y-87836285D01*
X211911800Y-87812251D01*
X211911800Y-87787747D01*
X211907019Y-87763714D01*
X211897642Y-87741075D01*
X211884029Y-87720702D01*
X211878800Y-87714330D01*
X211876501Y-87710029D01*
X211875083Y-87705355D01*
X211874000Y-87694359D01*
X211874000Y-87405641D01*
X211875083Y-87394645D01*
X211876501Y-87389971D01*
X211878800Y-87385670D01*
X211884029Y-87379298D01*
X211897643Y-87358924D01*
X211907020Y-87336285D01*
X211911800Y-87312251D01*
X211911800Y-87287747D01*
X211907019Y-87263714D01*
X211897642Y-87241075D01*
X211884029Y-87220702D01*
X211878800Y-87214330D01*
X211876501Y-87210029D01*
X211875083Y-87205355D01*
X211874000Y-87194359D01*
X211874000Y-86905641D01*
X211875083Y-86894645D01*
X211876501Y-86889971D01*
X211878800Y-86885670D01*
X211884029Y-86879298D01*
X211897643Y-86858924D01*
X211907020Y-86836285D01*
X211911800Y-86812251D01*
X211911800Y-86787747D01*
X211907019Y-86763714D01*
X211897642Y-86741075D01*
X211884029Y-86720702D01*
X211878800Y-86714330D01*
X211876501Y-86710029D01*
X211875083Y-86705355D01*
X211874000Y-86694359D01*
X211874000Y-86405641D01*
X211875083Y-86394645D01*
X211876501Y-86389971D01*
X211878800Y-86385670D01*
X211884029Y-86379298D01*
X211897643Y-86358924D01*
X211907020Y-86336285D01*
X211911800Y-86312251D01*
X211911800Y-86287747D01*
X211907019Y-86263714D01*
X211897642Y-86241075D01*
X211884029Y-86220702D01*
X211878800Y-86214330D01*
X211876501Y-86210029D01*
X211875083Y-86205355D01*
X211874000Y-86194359D01*
X211874000Y-85905641D01*
X211875083Y-85894645D01*
X211876501Y-85889971D01*
X211878800Y-85885670D01*
X211884029Y-85879298D01*
X211897643Y-85858924D01*
X211907020Y-85836285D01*
X211911800Y-85812251D01*
X211911800Y-85787747D01*
X211907019Y-85763714D01*
X211897642Y-85741075D01*
X211884029Y-85720702D01*
X211878800Y-85714330D01*
X211876501Y-85710029D01*
X211875083Y-85705355D01*
X211874000Y-85694359D01*
X211874000Y-85405641D01*
X211875083Y-85394645D01*
X211876501Y-85389971D01*
X211878800Y-85385670D01*
X211884029Y-85379298D01*
X211897643Y-85358924D01*
X211907020Y-85336285D01*
X211911800Y-85312251D01*
X211911800Y-85287747D01*
X211907019Y-85263714D01*
X211897642Y-85241075D01*
X211884029Y-85220702D01*
X211878800Y-85214330D01*
X211876501Y-85210029D01*
X211875083Y-85205355D01*
X211874000Y-85194359D01*
X211874000Y-84905641D01*
X211875083Y-84894645D01*
X211876501Y-84889971D01*
X211878800Y-84885670D01*
X211884029Y-84879298D01*
X211897643Y-84858924D01*
X211907020Y-84836285D01*
X211911800Y-84812251D01*
X211911800Y-84787747D01*
X211907019Y-84763714D01*
X211897642Y-84741075D01*
X211884029Y-84720702D01*
X211878800Y-84714330D01*
X211876501Y-84710029D01*
X211875083Y-84705355D01*
X211874000Y-84694359D01*
X211874000Y-84405641D01*
X211875083Y-84394645D01*
X211876501Y-84389971D01*
X211878800Y-84385670D01*
X211884029Y-84379298D01*
X211897643Y-84358924D01*
X211907020Y-84336285D01*
X211911800Y-84312251D01*
X211911800Y-84287749D01*
X212813200Y-84287749D01*
X212813200Y-84312253D01*
X212817981Y-84336286D01*
X212827358Y-84358925D01*
X212840971Y-84379298D01*
X212846200Y-84385670D01*
X212848499Y-84389971D01*
X212849917Y-84394645D01*
X212851000Y-84405641D01*
X212851000Y-84694359D01*
X212849917Y-84705355D01*
X212848499Y-84710029D01*
X212846200Y-84714330D01*
X212840971Y-84720702D01*
X212827357Y-84741076D01*
X212817980Y-84763715D01*
X212813200Y-84787749D01*
X212813200Y-84812253D01*
X212817981Y-84836286D01*
X212827358Y-84858925D01*
X212840971Y-84879298D01*
X212846200Y-84885670D01*
X212848499Y-84889971D01*
X212849917Y-84894645D01*
X212851000Y-84905641D01*
X212851000Y-85194359D01*
X212849917Y-85205355D01*
X212848499Y-85210029D01*
X212846200Y-85214330D01*
X212840971Y-85220702D01*
X212827357Y-85241076D01*
X212817980Y-85263715D01*
X212813200Y-85287749D01*
X212813200Y-85312253D01*
X212817981Y-85336286D01*
X212827358Y-85358925D01*
X212840971Y-85379298D01*
X212846200Y-85385670D01*
X212848499Y-85389971D01*
X212849917Y-85394645D01*
X212851000Y-85405641D01*
X212851000Y-85694359D01*
X212849917Y-85705355D01*
X212848499Y-85710029D01*
X212846200Y-85714330D01*
X212840971Y-85720702D01*
X212827357Y-85741076D01*
X212817980Y-85763715D01*
X212813200Y-85787749D01*
X212813200Y-85812253D01*
X212817981Y-85836286D01*
X212827358Y-85858925D01*
X212840971Y-85879298D01*
X212846200Y-85885670D01*
X212848499Y-85889971D01*
X212849917Y-85894645D01*
X212851000Y-85905641D01*
X212851000Y-86194359D01*
X212849917Y-86205355D01*
X212848499Y-86210029D01*
X212846200Y-86214330D01*
X212840971Y-86220702D01*
X212827357Y-86241076D01*
X212817980Y-86263715D01*
X212813200Y-86287749D01*
X212813200Y-86312253D01*
X212817981Y-86336286D01*
X212827358Y-86358925D01*
X212840971Y-86379298D01*
X212846200Y-86385670D01*
X212848499Y-86389971D01*
X212849917Y-86394645D01*
X212851000Y-86405641D01*
X212851000Y-86694359D01*
X212849917Y-86705355D01*
X212848499Y-86710029D01*
X212846200Y-86714330D01*
X212840971Y-86720702D01*
X212827357Y-86741076D01*
X212817980Y-86763715D01*
X212813200Y-86787749D01*
X212813200Y-86812253D01*
X212817981Y-86836286D01*
X212827358Y-86858925D01*
X212840971Y-86879298D01*
X212846200Y-86885670D01*
X212848499Y-86889971D01*
X212849917Y-86894645D01*
X212851000Y-86905641D01*
X212851000Y-87194359D01*
X212849917Y-87205355D01*
X212848499Y-87210029D01*
X212846200Y-87214330D01*
X212840971Y-87220702D01*
X212827357Y-87241076D01*
X212817980Y-87263715D01*
X212813200Y-87287749D01*
X212813200Y-87312253D01*
X212817981Y-87336286D01*
X212827358Y-87358925D01*
X212840971Y-87379298D01*
X212846200Y-87385670D01*
X212848499Y-87389971D01*
X212849917Y-87394645D01*
X212851000Y-87405641D01*
X212851000Y-87694359D01*
X212849917Y-87705355D01*
X212848499Y-87710029D01*
X212846200Y-87714330D01*
X212840971Y-87720702D01*
X212827357Y-87741076D01*
X212817980Y-87763715D01*
X212813200Y-87787749D01*
X212813200Y-87812253D01*
X212817981Y-87836286D01*
X212827358Y-87858925D01*
X212840971Y-87879298D01*
X212846200Y-87885670D01*
X212848499Y-87889971D01*
X212849917Y-87894645D01*
X212851000Y-87905641D01*
X212851000Y-88194359D01*
X212849917Y-88205355D01*
X212848499Y-88210029D01*
X212846200Y-88214330D01*
X212840971Y-88220702D01*
X212827357Y-88241076D01*
X212817980Y-88263715D01*
X212813200Y-88287749D01*
X212813200Y-88312253D01*
X212817981Y-88336286D01*
X212827358Y-88358925D01*
X212840971Y-88379298D01*
X212846200Y-88385670D01*
X212848499Y-88389971D01*
X212849917Y-88394645D01*
X212851000Y-88405641D01*
X212851000Y-88694359D01*
X212849917Y-88705355D01*
X212848499Y-88710029D01*
X212846200Y-88714330D01*
X212840971Y-88720702D01*
X212827357Y-88741076D01*
X212817980Y-88763715D01*
X212813200Y-88787749D01*
X212813200Y-88812253D01*
X212817981Y-88836286D01*
X212827358Y-88858925D01*
X212840971Y-88879298D01*
X212846200Y-88885670D01*
X212848499Y-88889971D01*
X212849917Y-88894645D01*
X212851000Y-88905641D01*
X212851000Y-89194359D01*
X212849917Y-89205355D01*
X212848499Y-89210029D01*
X212846200Y-89214330D01*
X212840971Y-89220702D01*
X212827357Y-89241076D01*
X212817980Y-89263715D01*
X212813200Y-89287749D01*
X212813200Y-89312253D01*
X212817981Y-89336286D01*
X212827358Y-89358925D01*
X212840971Y-89379298D01*
X212846200Y-89385670D01*
X212848499Y-89389971D01*
X212849917Y-89394645D01*
X212851000Y-89405641D01*
X212851000Y-89624001D01*
X212853402Y-89648387D01*
X212860515Y-89671836D01*
X212872066Y-89693447D01*
X212887611Y-89712389D01*
X212906553Y-89727934D01*
X212928164Y-89739485D01*
X212951613Y-89746598D01*
X212975999Y-89749000D01*
X213194359Y-89749000D01*
X213205355Y-89750083D01*
X213210029Y-89751501D01*
X213214330Y-89753800D01*
X213220702Y-89759029D01*
X213241076Y-89772643D01*
X213263715Y-89782020D01*
X213287749Y-89786800D01*
X213312253Y-89786800D01*
X213336286Y-89782019D01*
X213358925Y-89772642D01*
X213379298Y-89759029D01*
X213385670Y-89753800D01*
X213389971Y-89751501D01*
X213394645Y-89750083D01*
X213405641Y-89749000D01*
X213694359Y-89749000D01*
X213705355Y-89750083D01*
X213710029Y-89751501D01*
X213714330Y-89753800D01*
X213720702Y-89759029D01*
X213741076Y-89772643D01*
X213763715Y-89782020D01*
X213787749Y-89786800D01*
X213812253Y-89786800D01*
X213836286Y-89782019D01*
X213858925Y-89772642D01*
X213879298Y-89759029D01*
X213885670Y-89753800D01*
X213889971Y-89751501D01*
X213894645Y-89750083D01*
X213905641Y-89749000D01*
X214194359Y-89749000D01*
X214205355Y-89750083D01*
X214210029Y-89751501D01*
X214214330Y-89753800D01*
X214220702Y-89759029D01*
X214241076Y-89772643D01*
X214263715Y-89782020D01*
X214287749Y-89786800D01*
X214312253Y-89786800D01*
X214336286Y-89782019D01*
X214358925Y-89772642D01*
X214379298Y-89759029D01*
X214385670Y-89753800D01*
X214389971Y-89751501D01*
X214394645Y-89750083D01*
X214405641Y-89749000D01*
X214694359Y-89749000D01*
X214705355Y-89750083D01*
X214710029Y-89751501D01*
X214714330Y-89753800D01*
X214720702Y-89759029D01*
X214741076Y-89772643D01*
X214763715Y-89782020D01*
X214787749Y-89786800D01*
X214812253Y-89786800D01*
X214836286Y-89782019D01*
X214858925Y-89772642D01*
X214879298Y-89759029D01*
X214885670Y-89753800D01*
X214889971Y-89751501D01*
X214894645Y-89750083D01*
X214905641Y-89749000D01*
X215194359Y-89749000D01*
X215205355Y-89750083D01*
X215210029Y-89751501D01*
X215214330Y-89753800D01*
X215220702Y-89759029D01*
X215241076Y-89772643D01*
X215263715Y-89782020D01*
X215287749Y-89786800D01*
X215312253Y-89786800D01*
X215336286Y-89782019D01*
X215358925Y-89772642D01*
X215379298Y-89759029D01*
X215385670Y-89753800D01*
X215389971Y-89751501D01*
X215394645Y-89750083D01*
X215405641Y-89749000D01*
X215694359Y-89749000D01*
X215705355Y-89750083D01*
X215710029Y-89751501D01*
X215714330Y-89753800D01*
X215720702Y-89759029D01*
X215741076Y-89772643D01*
X215763715Y-89782020D01*
X215787749Y-89786800D01*
X215812253Y-89786800D01*
X215836286Y-89782019D01*
X215858925Y-89772642D01*
X215879298Y-89759029D01*
X215885670Y-89753800D01*
X215889971Y-89751501D01*
X215894645Y-89750083D01*
X215905641Y-89749000D01*
X216194359Y-89749000D01*
X216205355Y-89750083D01*
X216210029Y-89751501D01*
X216214330Y-89753800D01*
X216220702Y-89759029D01*
X216241076Y-89772643D01*
X216263715Y-89782020D01*
X216287749Y-89786800D01*
X216312253Y-89786800D01*
X216336286Y-89782019D01*
X216358925Y-89772642D01*
X216379298Y-89759029D01*
X216385670Y-89753800D01*
X216389971Y-89751501D01*
X216394645Y-89750083D01*
X216405641Y-89749000D01*
X216694359Y-89749000D01*
X216705355Y-89750083D01*
X216710029Y-89751501D01*
X216714330Y-89753800D01*
X216720702Y-89759029D01*
X216741076Y-89772643D01*
X216763715Y-89782020D01*
X216787749Y-89786800D01*
X216812253Y-89786800D01*
X216836286Y-89782019D01*
X216858925Y-89772642D01*
X216879298Y-89759029D01*
X216885670Y-89753800D01*
X216889971Y-89751501D01*
X216894645Y-89750083D01*
X216905641Y-89749000D01*
X217194359Y-89749000D01*
X217205355Y-89750083D01*
X217210029Y-89751501D01*
X217214330Y-89753800D01*
X217220702Y-89759029D01*
X217241076Y-89772643D01*
X217263715Y-89782020D01*
X217287749Y-89786800D01*
X217312253Y-89786800D01*
X217336286Y-89782019D01*
X217358925Y-89772642D01*
X217379298Y-89759029D01*
X217385670Y-89753800D01*
X217389971Y-89751501D01*
X217394645Y-89750083D01*
X217405641Y-89749000D01*
X217694359Y-89749000D01*
X217705355Y-89750083D01*
X217710029Y-89751501D01*
X217714330Y-89753800D01*
X217720702Y-89759029D01*
X217741076Y-89772643D01*
X217763715Y-89782020D01*
X217787749Y-89786800D01*
X217812253Y-89786800D01*
X217836286Y-89782019D01*
X217858925Y-89772642D01*
X217879298Y-89759029D01*
X217885670Y-89753800D01*
X217889971Y-89751501D01*
X217894645Y-89750083D01*
X217905641Y-89749000D01*
X218194359Y-89749000D01*
X218205355Y-89750083D01*
X218210029Y-89751501D01*
X218214330Y-89753800D01*
X218220702Y-89759029D01*
X218241076Y-89772643D01*
X218263715Y-89782020D01*
X218287749Y-89786800D01*
X218312253Y-89786800D01*
X218336286Y-89782019D01*
X218358925Y-89772642D01*
X218379298Y-89759029D01*
X218385670Y-89753800D01*
X218389971Y-89751501D01*
X218394645Y-89750083D01*
X218405641Y-89749000D01*
X218624001Y-89749000D01*
X218648387Y-89746598D01*
X218671836Y-89739485D01*
X218693447Y-89727934D01*
X218712389Y-89712389D01*
X218727934Y-89693447D01*
X218739485Y-89671836D01*
X218746598Y-89648387D01*
X218749000Y-89624001D01*
X218749000Y-89405641D01*
X218750083Y-89394645D01*
X218751501Y-89389971D01*
X218753800Y-89385670D01*
X218759029Y-89379298D01*
X218772643Y-89358924D01*
X218782020Y-89336285D01*
X218786800Y-89312251D01*
X218786800Y-89287747D01*
X218782019Y-89263714D01*
X218772642Y-89241075D01*
X218759029Y-89220702D01*
X218753800Y-89214330D01*
X218751501Y-89210029D01*
X218750083Y-89205355D01*
X218749000Y-89194359D01*
X218749000Y-88905641D01*
X218750083Y-88894645D01*
X218751501Y-88889971D01*
X218753800Y-88885670D01*
X218759029Y-88879298D01*
X218772643Y-88858924D01*
X218782020Y-88836285D01*
X218786800Y-88812251D01*
X218786800Y-88787747D01*
X218782019Y-88763714D01*
X218772642Y-88741075D01*
X218759029Y-88720702D01*
X218753800Y-88714330D01*
X218751501Y-88710029D01*
X218750083Y-88705355D01*
X218749000Y-88694359D01*
X218749000Y-88405641D01*
X218750083Y-88394645D01*
X218751501Y-88389971D01*
X218753800Y-88385670D01*
X218759029Y-88379298D01*
X218772643Y-88358924D01*
X218782020Y-88336285D01*
X218786800Y-88312251D01*
X218786800Y-88287747D01*
X218782019Y-88263714D01*
X218772642Y-88241075D01*
X218759029Y-88220702D01*
X218753800Y-88214330D01*
X218751501Y-88210029D01*
X218750083Y-88205355D01*
X218749000Y-88194359D01*
X218749000Y-87905641D01*
X218750083Y-87894645D01*
X218751501Y-87889971D01*
X218753800Y-87885670D01*
X218759029Y-87879298D01*
X218772643Y-87858924D01*
X218782020Y-87836285D01*
X218786800Y-87812251D01*
X218786800Y-87787747D01*
X218782019Y-87763714D01*
X218772642Y-87741075D01*
X218759029Y-87720702D01*
X218753800Y-87714330D01*
X218751501Y-87710029D01*
X218750083Y-87705355D01*
X218749000Y-87694359D01*
X218749000Y-87405641D01*
X218750083Y-87394645D01*
X218751501Y-87389971D01*
X218753800Y-87385670D01*
X218759029Y-87379298D01*
X218772643Y-87358924D01*
X218782020Y-87336285D01*
X218786800Y-87312251D01*
X218786800Y-87287747D01*
X218782019Y-87263714D01*
X218772642Y-87241075D01*
X218759029Y-87220702D01*
X218753800Y-87214330D01*
X218751501Y-87210029D01*
X218750083Y-87205355D01*
X218749000Y-87194359D01*
X218749000Y-86905641D01*
X218750083Y-86894645D01*
X218751501Y-86889971D01*
X218753800Y-86885670D01*
X218759029Y-86879298D01*
X218772643Y-86858924D01*
X218782020Y-86836285D01*
X218786800Y-86812251D01*
X218786800Y-86787747D01*
X218782019Y-86763714D01*
X218772642Y-86741075D01*
X218759029Y-86720702D01*
X218753800Y-86714330D01*
X218751501Y-86710029D01*
X218750083Y-86705355D01*
X218749000Y-86694359D01*
X218749000Y-86405641D01*
X218750083Y-86394645D01*
X218751501Y-86389971D01*
X218753800Y-86385670D01*
X218759029Y-86379298D01*
X218772643Y-86358924D01*
X218782020Y-86336285D01*
X218786800Y-86312251D01*
X218786800Y-86287747D01*
X218782019Y-86263714D01*
X218772642Y-86241075D01*
X218759029Y-86220702D01*
X218753800Y-86214330D01*
X218751501Y-86210029D01*
X218750083Y-86205355D01*
X218749000Y-86194359D01*
X218749000Y-85905641D01*
X218750083Y-85894645D01*
X218751501Y-85889971D01*
X218753800Y-85885670D01*
X218759029Y-85879298D01*
X218772643Y-85858924D01*
X218782020Y-85836285D01*
X218786800Y-85812251D01*
X218786800Y-85787747D01*
X218782019Y-85763714D01*
X218772642Y-85741075D01*
X218759029Y-85720702D01*
X218753800Y-85714330D01*
X218751501Y-85710029D01*
X218750083Y-85705355D01*
X218749000Y-85694359D01*
X218749000Y-85405641D01*
X218750083Y-85394645D01*
X218751501Y-85389971D01*
X218753800Y-85385670D01*
X218759029Y-85379298D01*
X218772643Y-85358924D01*
X218782020Y-85336285D01*
X218786800Y-85312251D01*
X218786800Y-85287747D01*
X218782019Y-85263714D01*
X218772642Y-85241075D01*
X218759029Y-85220702D01*
X218753800Y-85214330D01*
X218751501Y-85210029D01*
X218750083Y-85205355D01*
X218749000Y-85194359D01*
X218749000Y-84905641D01*
X218750083Y-84894645D01*
X218751501Y-84889971D01*
X218753800Y-84885670D01*
X218759029Y-84879298D01*
X218772643Y-84858924D01*
X218782020Y-84836285D01*
X218786800Y-84812251D01*
X218786800Y-84787747D01*
X218782019Y-84763714D01*
X218772642Y-84741075D01*
X218759029Y-84720702D01*
X218753800Y-84714330D01*
X218751501Y-84710029D01*
X218750083Y-84705355D01*
X218749000Y-84694359D01*
X218749000Y-84405641D01*
X218750083Y-84394645D01*
X218751501Y-84389971D01*
X218753800Y-84385670D01*
X218759029Y-84379298D01*
X218772643Y-84358924D01*
X218782020Y-84336285D01*
X218786800Y-84312251D01*
X218786800Y-84287747D01*
X218782019Y-84263714D01*
X218772642Y-84241075D01*
X218759029Y-84220702D01*
X218753800Y-84214330D01*
X218751501Y-84210029D01*
X218750083Y-84205355D01*
X218749000Y-84194359D01*
X218749000Y-83975999D01*
X218746598Y-83951613D01*
X218739485Y-83928164D01*
X218727934Y-83906553D01*
X218712389Y-83887611D01*
X218693447Y-83872066D01*
X218671836Y-83860515D01*
X218648387Y-83853402D01*
X218624001Y-83851000D01*
X218405641Y-83851000D01*
X218394645Y-83849917D01*
X218389971Y-83848499D01*
X218385670Y-83846200D01*
X218379298Y-83840971D01*
X218358924Y-83827357D01*
X218336285Y-83817980D01*
X218312251Y-83813200D01*
X218287747Y-83813200D01*
X218263714Y-83817981D01*
X218241075Y-83827358D01*
X218220702Y-83840971D01*
X218214330Y-83846200D01*
X218210029Y-83848499D01*
X218205355Y-83849917D01*
X218194359Y-83851000D01*
X217905641Y-83851000D01*
X217894645Y-83849917D01*
X217889971Y-83848499D01*
X217885670Y-83846200D01*
X217879298Y-83840971D01*
X217858924Y-83827357D01*
X217836285Y-83817980D01*
X217812251Y-83813200D01*
X217787747Y-83813200D01*
X217763714Y-83817981D01*
X217741075Y-83827358D01*
X217720702Y-83840971D01*
X217714330Y-83846200D01*
X217710029Y-83848499D01*
X217705355Y-83849917D01*
X217694359Y-83851000D01*
X217405641Y-83851000D01*
X217394645Y-83849917D01*
X217389971Y-83848499D01*
X217385670Y-83846200D01*
X217379298Y-83840971D01*
X217358924Y-83827357D01*
X217336285Y-83817980D01*
X217312251Y-83813200D01*
X217287747Y-83813200D01*
X217263714Y-83817981D01*
X217241075Y-83827358D01*
X217220702Y-83840971D01*
X217214330Y-83846200D01*
X217210029Y-83848499D01*
X217205355Y-83849917D01*
X217194359Y-83851000D01*
X216905641Y-83851000D01*
X216894645Y-83849917D01*
X216889971Y-83848499D01*
X216885670Y-83846200D01*
X216879298Y-83840971D01*
X216858924Y-83827357D01*
X216836285Y-83817980D01*
X216812251Y-83813200D01*
X216787747Y-83813200D01*
X216763714Y-83817981D01*
X216741075Y-83827358D01*
X216720702Y-83840971D01*
X216714330Y-83846200D01*
X216710029Y-83848499D01*
X216705355Y-83849917D01*
X216694359Y-83851000D01*
X216405641Y-83851000D01*
X216394645Y-83849917D01*
X216389971Y-83848499D01*
X216385670Y-83846200D01*
X216379298Y-83840971D01*
X216358924Y-83827357D01*
X216336285Y-83817980D01*
X216312251Y-83813200D01*
X216287747Y-83813200D01*
X216263714Y-83817981D01*
X216241075Y-83827358D01*
X216220702Y-83840971D01*
X216214330Y-83846200D01*
X216210029Y-83848499D01*
X216205355Y-83849917D01*
X216194359Y-83851000D01*
X215905641Y-83851000D01*
X215894645Y-83849917D01*
X215889971Y-83848499D01*
X215885670Y-83846200D01*
X215879298Y-83840971D01*
X215858924Y-83827357D01*
X215836285Y-83817980D01*
X215812251Y-83813200D01*
X215787747Y-83813200D01*
X215763714Y-83817981D01*
X215741075Y-83827358D01*
X215720702Y-83840971D01*
X215714330Y-83846200D01*
X215710029Y-83848499D01*
X215705355Y-83849917D01*
X215694359Y-83851000D01*
X215405641Y-83851000D01*
X215394645Y-83849917D01*
X215389971Y-83848499D01*
X215385670Y-83846200D01*
X215379298Y-83840971D01*
X215358924Y-83827357D01*
X215336285Y-83817980D01*
X215312251Y-83813200D01*
X215287747Y-83813200D01*
X215263714Y-83817981D01*
X215241075Y-83827358D01*
X215220702Y-83840971D01*
X215214330Y-83846200D01*
X215210029Y-83848499D01*
X215205355Y-83849917D01*
X215194359Y-83851000D01*
X214905641Y-83851000D01*
X214894645Y-83849917D01*
X214889971Y-83848499D01*
X214885670Y-83846200D01*
X214879298Y-83840971D01*
X214858924Y-83827357D01*
X214836285Y-83817980D01*
X214812251Y-83813200D01*
X214787747Y-83813200D01*
X214763714Y-83817981D01*
X214741075Y-83827358D01*
X214720702Y-83840971D01*
X214714330Y-83846200D01*
X214710029Y-83848499D01*
X214705355Y-83849917D01*
X214694359Y-83851000D01*
X214405641Y-83851000D01*
X214394645Y-83849917D01*
X214389971Y-83848499D01*
X214385670Y-83846200D01*
X214379298Y-83840971D01*
X214358924Y-83827357D01*
X214336285Y-83817980D01*
X214312251Y-83813200D01*
X214287747Y-83813200D01*
X214263714Y-83817981D01*
X214241075Y-83827358D01*
X214220702Y-83840971D01*
X214214330Y-83846200D01*
X214210029Y-83848499D01*
X214205355Y-83849917D01*
X214194359Y-83851000D01*
X213905641Y-83851000D01*
X213894645Y-83849917D01*
X213889971Y-83848499D01*
X213885670Y-83846200D01*
X213879298Y-83840971D01*
X213858924Y-83827357D01*
X213836285Y-83817980D01*
X213812251Y-83813200D01*
X213787747Y-83813200D01*
X213763714Y-83817981D01*
X213741075Y-83827358D01*
X213720702Y-83840971D01*
X213714330Y-83846200D01*
X213710029Y-83848499D01*
X213705355Y-83849917D01*
X213694359Y-83851000D01*
X213405641Y-83851000D01*
X213394645Y-83849917D01*
X213389971Y-83848499D01*
X213385670Y-83846200D01*
X213379298Y-83840971D01*
X213358924Y-83827357D01*
X213336285Y-83817980D01*
X213312251Y-83813200D01*
X213287747Y-83813200D01*
X213263714Y-83817981D01*
X213241075Y-83827358D01*
X213220702Y-83840971D01*
X213214330Y-83846200D01*
X213210029Y-83848499D01*
X213205355Y-83849917D01*
X213194359Y-83851000D01*
X212975999Y-83851000D01*
X212951613Y-83853402D01*
X212928164Y-83860515D01*
X212906553Y-83872066D01*
X212887611Y-83887611D01*
X212872066Y-83906553D01*
X212860515Y-83928164D01*
X212853402Y-83951613D01*
X212851000Y-83975999D01*
X212851000Y-84194359D01*
X212849917Y-84205355D01*
X212848499Y-84210029D01*
X212846200Y-84214330D01*
X212840971Y-84220702D01*
X212827357Y-84241076D01*
X212817980Y-84263715D01*
X212813200Y-84287749D01*
X211911800Y-84287749D01*
X211911800Y-84287747D01*
X211907019Y-84263714D01*
X211897642Y-84241075D01*
X211884029Y-84220702D01*
X211878800Y-84214330D01*
X211876501Y-84210029D01*
X211875083Y-84205355D01*
X211874000Y-84194359D01*
X211874000Y-83905641D01*
X211875083Y-83894645D01*
X211876501Y-83889971D01*
X211878800Y-83885669D01*
X211881896Y-83881896D01*
X211885669Y-83878800D01*
X211889971Y-83876501D01*
X211894645Y-83875083D01*
X211905641Y-83874000D01*
X212749001Y-83874000D01*
X212773387Y-83871598D01*
X212796836Y-83864485D01*
X212818447Y-83852934D01*
X212837389Y-83837389D01*
X212852934Y-83818447D01*
X212864485Y-83796836D01*
X212871598Y-83773387D01*
X212874000Y-83749001D01*
X212874000Y-82905641D01*
X212875083Y-82894645D01*
X212876501Y-82889971D01*
X212878800Y-82885669D01*
X212881896Y-82881896D01*
X212885669Y-82878800D01*
X212889971Y-82876501D01*
X212894645Y-82875083D01*
X212905641Y-82874000D01*
X213194359Y-82874000D01*
X213205355Y-82875083D01*
G37*
G36*
X218311509Y-84177323D02*
G01*
X218338057Y-84185376D01*
X218362516Y-84198450D01*
X218383956Y-84216044D01*
X218401550Y-84237484D01*
X218414624Y-84261943D01*
X218422677Y-84288491D01*
X218426000Y-84322229D01*
X218426000Y-89277771D01*
X218422677Y-89311509D01*
X218414624Y-89338057D01*
X218401550Y-89362516D01*
X218383956Y-89383956D01*
X218362516Y-89401550D01*
X218338057Y-89414624D01*
X218311509Y-89422677D01*
X218277771Y-89426000D01*
X213322229Y-89426000D01*
X213288491Y-89422677D01*
X213261943Y-89414624D01*
X213237484Y-89401550D01*
X213216044Y-89383956D01*
X213198450Y-89362516D01*
X213185376Y-89338057D01*
X213177323Y-89311509D01*
X213174000Y-89277771D01*
X213174000Y-84322229D01*
X213177323Y-84288491D01*
X213185376Y-84261943D01*
X213198450Y-84237484D01*
X213216044Y-84216044D01*
X213237484Y-84198450D01*
X213261943Y-84185376D01*
X213288491Y-84177323D01*
X213322229Y-84174000D01*
X218277771Y-84174000D01*
X218311509Y-84177323D01*
G37*
G36*
X207951000Y-90726000D02*
G01*
X206649000Y-90726000D01*
X206649000Y-89674000D01*
X207951000Y-89674000D01*
X207951000Y-90726000D01*
G37*
G36*
X211356938Y-89331716D02*
G01*
X211377557Y-89337971D01*
X211396553Y-89348124D01*
X211413208Y-89361792D01*
X211426876Y-89378447D01*
X211437029Y-89397443D01*
X211443284Y-89418062D01*
X211446000Y-89445640D01*
X211446000Y-89954360D01*
X211443284Y-89981938D01*
X211437029Y-90002557D01*
X211426876Y-90021553D01*
X211413208Y-90038208D01*
X211396553Y-90051876D01*
X211377557Y-90062029D01*
X211356938Y-90068284D01*
X211329360Y-90071000D01*
X210870640Y-90071000D01*
X210843062Y-90068284D01*
X210822443Y-90062029D01*
X210803447Y-90051876D01*
X210786792Y-90038208D01*
X210773124Y-90021553D01*
X210762971Y-90002557D01*
X210756716Y-89981938D01*
X210754000Y-89954360D01*
X210754000Y-89445640D01*
X210756716Y-89418062D01*
X210762971Y-89397443D01*
X210773124Y-89378447D01*
X210786792Y-89361792D01*
X210803447Y-89348124D01*
X210822443Y-89337971D01*
X210843062Y-89331716D01*
X210870640Y-89329000D01*
X211329360Y-89329000D01*
X211356938Y-89331716D01*
G37*
G36*
X210386938Y-89331716D02*
G01*
X210407557Y-89337971D01*
X210426553Y-89348124D01*
X210443208Y-89361792D01*
X210456876Y-89378447D01*
X210467029Y-89397443D01*
X210473284Y-89418062D01*
X210476000Y-89445640D01*
X210476000Y-89954360D01*
X210473284Y-89981938D01*
X210467029Y-90002557D01*
X210456876Y-90021553D01*
X210443208Y-90038208D01*
X210426553Y-90051876D01*
X210407557Y-90062029D01*
X210386938Y-90068284D01*
X210359360Y-90071000D01*
X209900640Y-90071000D01*
X209873062Y-90068284D01*
X209852443Y-90062029D01*
X209833447Y-90051876D01*
X209816792Y-90038208D01*
X209803124Y-90021553D01*
X209792971Y-90002557D01*
X209786716Y-89981938D01*
X209784000Y-89954360D01*
X209784000Y-89445640D01*
X209786716Y-89418062D01*
X209792971Y-89397443D01*
X209803124Y-89378447D01*
X209816792Y-89361792D01*
X209833447Y-89348124D01*
X209852443Y-89337971D01*
X209873062Y-89331716D01*
X209900640Y-89329000D01*
X210359360Y-89329000D01*
X210386938Y-89331716D01*
G37*
G36*
X221841938Y-89031716D02*
G01*
X221862557Y-89037971D01*
X221881553Y-89048124D01*
X221898208Y-89061792D01*
X221911876Y-89078447D01*
X221922029Y-89097443D01*
X221928284Y-89118062D01*
X221931000Y-89145640D01*
X221931000Y-89654360D01*
X221928284Y-89681938D01*
X221922029Y-89702557D01*
X221911876Y-89721553D01*
X221898208Y-89738208D01*
X221881553Y-89751876D01*
X221862557Y-89762029D01*
X221841938Y-89768284D01*
X221814360Y-89771000D01*
X221355640Y-89771000D01*
X221328062Y-89768284D01*
X221307443Y-89762029D01*
X221288447Y-89751876D01*
X221271792Y-89738208D01*
X221258124Y-89721553D01*
X221247971Y-89702557D01*
X221241716Y-89681938D01*
X221239000Y-89654360D01*
X221239000Y-89145640D01*
X221241716Y-89118062D01*
X221247971Y-89097443D01*
X221258124Y-89078447D01*
X221271792Y-89061792D01*
X221288447Y-89048124D01*
X221307443Y-89037971D01*
X221328062Y-89031716D01*
X221355640Y-89029000D01*
X221814360Y-89029000D01*
X221841938Y-89031716D01*
G37*
G36*
X220871938Y-89031716D02*
G01*
X220892557Y-89037971D01*
X220911553Y-89048124D01*
X220928208Y-89061792D01*
X220941876Y-89078447D01*
X220952029Y-89097443D01*
X220958284Y-89118062D01*
X220961000Y-89145640D01*
X220961000Y-89654360D01*
X220958284Y-89681938D01*
X220952029Y-89702557D01*
X220941876Y-89721553D01*
X220928208Y-89738208D01*
X220911553Y-89751876D01*
X220892557Y-89762029D01*
X220871938Y-89768284D01*
X220844360Y-89771000D01*
X220385640Y-89771000D01*
X220358062Y-89768284D01*
X220337443Y-89762029D01*
X220318447Y-89751876D01*
X220301792Y-89738208D01*
X220288124Y-89721553D01*
X220277971Y-89702557D01*
X220271716Y-89681938D01*
X220269000Y-89654360D01*
X220269000Y-89145640D01*
X220271716Y-89118062D01*
X220277971Y-89097443D01*
X220288124Y-89078447D01*
X220301792Y-89061792D01*
X220318447Y-89048124D01*
X220337443Y-89037971D01*
X220358062Y-89031716D01*
X220385640Y-89029000D01*
X220844360Y-89029000D01*
X220871938Y-89031716D01*
G37*
G36*
X207936938Y-88481716D02*
G01*
X207957557Y-88487971D01*
X207976553Y-88498124D01*
X207993208Y-88511792D01*
X208006876Y-88528447D01*
X208017029Y-88547443D01*
X208023284Y-88568062D01*
X208026000Y-88595640D01*
X208026000Y-89104360D01*
X208023284Y-89131938D01*
X208017029Y-89152557D01*
X208006876Y-89171553D01*
X207993208Y-89188208D01*
X207976553Y-89201876D01*
X207957557Y-89212029D01*
X207936938Y-89218284D01*
X207909360Y-89221000D01*
X207450640Y-89221000D01*
X207423062Y-89218284D01*
X207402443Y-89212029D01*
X207383447Y-89201876D01*
X207366792Y-89188208D01*
X207353124Y-89171553D01*
X207342971Y-89152557D01*
X207336716Y-89131938D01*
X207334000Y-89104360D01*
X207334000Y-88595640D01*
X207336716Y-88568062D01*
X207342971Y-88547443D01*
X207353124Y-88528447D01*
X207366792Y-88511792D01*
X207383447Y-88498124D01*
X207402443Y-88487971D01*
X207423062Y-88481716D01*
X207450640Y-88479000D01*
X207909360Y-88479000D01*
X207936938Y-88481716D01*
G37*
G36*
X208906938Y-88481716D02*
G01*
X208927557Y-88487971D01*
X208946553Y-88498124D01*
X208963208Y-88511792D01*
X208976876Y-88528447D01*
X208987029Y-88547443D01*
X208993284Y-88568062D01*
X208996000Y-88595640D01*
X208996000Y-89104360D01*
X208993284Y-89131938D01*
X208987029Y-89152557D01*
X208976876Y-89171553D01*
X208963208Y-89188208D01*
X208946553Y-89201876D01*
X208927557Y-89212029D01*
X208906938Y-89218284D01*
X208879360Y-89221000D01*
X208420640Y-89221000D01*
X208393062Y-89218284D01*
X208372443Y-89212029D01*
X208353447Y-89201876D01*
X208336792Y-89188208D01*
X208323124Y-89171553D01*
X208312971Y-89152557D01*
X208306716Y-89131938D01*
X208304000Y-89104360D01*
X208304000Y-88595640D01*
X208306716Y-88568062D01*
X208312971Y-88547443D01*
X208323124Y-88528447D01*
X208336792Y-88511792D01*
X208353447Y-88498124D01*
X208372443Y-88487971D01*
X208393062Y-88481716D01*
X208420640Y-88479000D01*
X208879360Y-88479000D01*
X208906938Y-88481716D01*
G37*
G36*
X211356938Y-88231716D02*
G01*
X211377557Y-88237971D01*
X211396553Y-88248124D01*
X211413208Y-88261792D01*
X211426876Y-88278447D01*
X211437029Y-88297443D01*
X211443284Y-88318062D01*
X211446000Y-88345640D01*
X211446000Y-88854360D01*
X211443284Y-88881938D01*
X211437029Y-88902557D01*
X211426876Y-88921553D01*
X211413208Y-88938208D01*
X211396553Y-88951876D01*
X211377557Y-88962029D01*
X211356938Y-88968284D01*
X211329360Y-88971000D01*
X210870640Y-88971000D01*
X210843062Y-88968284D01*
X210822443Y-88962029D01*
X210803447Y-88951876D01*
X210786792Y-88938208D01*
X210773124Y-88921553D01*
X210762971Y-88902557D01*
X210756716Y-88881938D01*
X210754000Y-88854360D01*
X210754000Y-88345640D01*
X210756716Y-88318062D01*
X210762971Y-88297443D01*
X210773124Y-88278447D01*
X210786792Y-88261792D01*
X210803447Y-88248124D01*
X210822443Y-88237971D01*
X210843062Y-88231716D01*
X210870640Y-88229000D01*
X211329360Y-88229000D01*
X211356938Y-88231716D01*
G37*
G36*
X210386938Y-88231716D02*
G01*
X210407557Y-88237971D01*
X210426553Y-88248124D01*
X210443208Y-88261792D01*
X210456876Y-88278447D01*
X210467029Y-88297443D01*
X210473284Y-88318062D01*
X210476000Y-88345640D01*
X210476000Y-88854360D01*
X210473284Y-88881938D01*
X210467029Y-88902557D01*
X210456876Y-88921553D01*
X210443208Y-88938208D01*
X210426553Y-88951876D01*
X210407557Y-88962029D01*
X210386938Y-88968284D01*
X210359360Y-88971000D01*
X209900640Y-88971000D01*
X209873062Y-88968284D01*
X209852443Y-88962029D01*
X209833447Y-88951876D01*
X209816792Y-88938208D01*
X209803124Y-88921553D01*
X209792971Y-88902557D01*
X209786716Y-88881938D01*
X209784000Y-88854360D01*
X209784000Y-88345640D01*
X209786716Y-88318062D01*
X209792971Y-88297443D01*
X209803124Y-88278447D01*
X209816792Y-88261792D01*
X209833447Y-88248124D01*
X209852443Y-88237971D01*
X209873062Y-88231716D01*
X209900640Y-88229000D01*
X210359360Y-88229000D01*
X210386938Y-88231716D01*
G37*
G36*
X223856938Y-87931716D02*
G01*
X223877557Y-87937971D01*
X223896553Y-87948124D01*
X223913208Y-87961792D01*
X223926876Y-87978447D01*
X223937029Y-87997443D01*
X223943284Y-88018062D01*
X223946000Y-88045640D01*
X223946000Y-88554360D01*
X223943284Y-88581938D01*
X223937029Y-88602557D01*
X223926876Y-88621553D01*
X223913208Y-88638208D01*
X223896553Y-88651876D01*
X223877557Y-88662029D01*
X223856938Y-88668284D01*
X223829360Y-88671000D01*
X223370640Y-88671000D01*
X223343062Y-88668284D01*
X223322443Y-88662029D01*
X223303447Y-88651876D01*
X223286792Y-88638208D01*
X223273124Y-88621553D01*
X223262971Y-88602557D01*
X223256716Y-88581938D01*
X223254000Y-88554360D01*
X223254000Y-88045640D01*
X223256716Y-88018062D01*
X223262971Y-87997443D01*
X223273124Y-87978447D01*
X223286792Y-87961792D01*
X223303447Y-87948124D01*
X223322443Y-87937971D01*
X223343062Y-87931716D01*
X223370640Y-87929000D01*
X223829360Y-87929000D01*
X223856938Y-87931716D01*
G37*
G36*
X220856938Y-87931716D02*
G01*
X220877557Y-87937971D01*
X220896553Y-87948124D01*
X220913208Y-87961792D01*
X220926876Y-87978447D01*
X220937029Y-87997443D01*
X220943284Y-88018062D01*
X220946000Y-88045640D01*
X220946000Y-88554360D01*
X220943284Y-88581938D01*
X220937029Y-88602557D01*
X220926876Y-88621553D01*
X220913208Y-88638208D01*
X220896553Y-88651876D01*
X220877557Y-88662029D01*
X220856938Y-88668284D01*
X220829360Y-88671000D01*
X220370640Y-88671000D01*
X220343062Y-88668284D01*
X220322443Y-88662029D01*
X220303447Y-88651876D01*
X220286792Y-88638208D01*
X220273124Y-88621553D01*
X220262971Y-88602557D01*
X220256716Y-88581938D01*
X220254000Y-88554360D01*
X220254000Y-88045640D01*
X220256716Y-88018062D01*
X220262971Y-87997443D01*
X220273124Y-87978447D01*
X220286792Y-87961792D01*
X220303447Y-87948124D01*
X220322443Y-87937971D01*
X220343062Y-87931716D01*
X220370640Y-87929000D01*
X220829360Y-87929000D01*
X220856938Y-87931716D01*
G37*
G36*
X221826938Y-87931716D02*
G01*
X221847557Y-87937971D01*
X221866553Y-87948124D01*
X221883208Y-87961792D01*
X221896876Y-87978447D01*
X221907029Y-87997443D01*
X221913284Y-88018062D01*
X221916000Y-88045640D01*
X221916000Y-88554360D01*
X221913284Y-88581938D01*
X221907029Y-88602557D01*
X221896876Y-88621553D01*
X221883208Y-88638208D01*
X221866553Y-88651876D01*
X221847557Y-88662029D01*
X221826938Y-88668284D01*
X221799360Y-88671000D01*
X221340640Y-88671000D01*
X221313062Y-88668284D01*
X221292443Y-88662029D01*
X221273447Y-88651876D01*
X221256792Y-88638208D01*
X221243124Y-88621553D01*
X221232971Y-88602557D01*
X221226716Y-88581938D01*
X221224000Y-88554360D01*
X221224000Y-88045640D01*
X221226716Y-88018062D01*
X221232971Y-87997443D01*
X221243124Y-87978447D01*
X221256792Y-87961792D01*
X221273447Y-87948124D01*
X221292443Y-87937971D01*
X221313062Y-87931716D01*
X221340640Y-87929000D01*
X221799360Y-87929000D01*
X221826938Y-87931716D01*
G37*
G36*
X222886938Y-87931716D02*
G01*
X222907557Y-87937971D01*
X222926553Y-87948124D01*
X222943208Y-87961792D01*
X222956876Y-87978447D01*
X222967029Y-87997443D01*
X222973284Y-88018062D01*
X222976000Y-88045640D01*
X222976000Y-88554360D01*
X222973284Y-88581938D01*
X222967029Y-88602557D01*
X222956876Y-88621553D01*
X222943208Y-88638208D01*
X222926553Y-88651876D01*
X222907557Y-88662029D01*
X222886938Y-88668284D01*
X222859360Y-88671000D01*
X222400640Y-88671000D01*
X222373062Y-88668284D01*
X222352443Y-88662029D01*
X222333447Y-88651876D01*
X222316792Y-88638208D01*
X222303124Y-88621553D01*
X222292971Y-88602557D01*
X222286716Y-88581938D01*
X222284000Y-88554360D01*
X222284000Y-88045640D01*
X222286716Y-88018062D01*
X222292971Y-87997443D01*
X222303124Y-87978447D01*
X222316792Y-87961792D01*
X222333447Y-87948124D01*
X222352443Y-87937971D01*
X222373062Y-87931716D01*
X222400640Y-87929000D01*
X222859360Y-87929000D01*
X222886938Y-87931716D01*
G37*
G36*
X207936938Y-87381716D02*
G01*
X207957557Y-87387971D01*
X207976553Y-87398124D01*
X207993208Y-87411792D01*
X208006876Y-87428447D01*
X208017029Y-87447443D01*
X208023284Y-87468062D01*
X208026000Y-87495640D01*
X208026000Y-88004360D01*
X208023284Y-88031938D01*
X208017029Y-88052557D01*
X208006876Y-88071553D01*
X207993208Y-88088208D01*
X207976553Y-88101876D01*
X207957557Y-88112029D01*
X207936938Y-88118284D01*
X207909360Y-88121000D01*
X207450640Y-88121000D01*
X207423062Y-88118284D01*
X207402443Y-88112029D01*
X207383447Y-88101876D01*
X207366792Y-88088208D01*
X207353124Y-88071553D01*
X207342971Y-88052557D01*
X207336716Y-88031938D01*
X207334000Y-88004360D01*
X207334000Y-87495640D01*
X207336716Y-87468062D01*
X207342971Y-87447443D01*
X207353124Y-87428447D01*
X207366792Y-87411792D01*
X207383447Y-87398124D01*
X207402443Y-87387971D01*
X207423062Y-87381716D01*
X207450640Y-87379000D01*
X207909360Y-87379000D01*
X207936938Y-87381716D01*
G37*
G36*
X208906938Y-87381716D02*
G01*
X208927557Y-87387971D01*
X208946553Y-87398124D01*
X208963208Y-87411792D01*
X208976876Y-87428447D01*
X208987029Y-87447443D01*
X208993284Y-87468062D01*
X208996000Y-87495640D01*
X208996000Y-88004360D01*
X208993284Y-88031938D01*
X208987029Y-88052557D01*
X208976876Y-88071553D01*
X208963208Y-88088208D01*
X208946553Y-88101876D01*
X208927557Y-88112029D01*
X208906938Y-88118284D01*
X208879360Y-88121000D01*
X208420640Y-88121000D01*
X208393062Y-88118284D01*
X208372443Y-88112029D01*
X208353447Y-88101876D01*
X208336792Y-88088208D01*
X208323124Y-88071553D01*
X208312971Y-88052557D01*
X208306716Y-88031938D01*
X208304000Y-88004360D01*
X208304000Y-87495640D01*
X208306716Y-87468062D01*
X208312971Y-87447443D01*
X208323124Y-87428447D01*
X208336792Y-87411792D01*
X208353447Y-87398124D01*
X208372443Y-87387971D01*
X208393062Y-87381716D01*
X208420640Y-87379000D01*
X208879360Y-87379000D01*
X208906938Y-87381716D01*
G37*
G36*
X221841938Y-86831716D02*
G01*
X221862557Y-86837971D01*
X221881553Y-86848124D01*
X221898208Y-86861792D01*
X221911876Y-86878447D01*
X221922029Y-86897443D01*
X221928284Y-86918062D01*
X221931000Y-86945640D01*
X221931000Y-87454360D01*
X221928284Y-87481938D01*
X221922029Y-87502557D01*
X221911876Y-87521553D01*
X221898208Y-87538208D01*
X221881553Y-87551876D01*
X221862557Y-87562029D01*
X221841938Y-87568284D01*
X221814360Y-87571000D01*
X221355640Y-87571000D01*
X221328062Y-87568284D01*
X221307443Y-87562029D01*
X221288447Y-87551876D01*
X221271792Y-87538208D01*
X221258124Y-87521553D01*
X221247971Y-87502557D01*
X221241716Y-87481938D01*
X221239000Y-87454360D01*
X221239000Y-86945640D01*
X221241716Y-86918062D01*
X221247971Y-86897443D01*
X221258124Y-86878447D01*
X221271792Y-86861792D01*
X221288447Y-86848124D01*
X221307443Y-86837971D01*
X221328062Y-86831716D01*
X221355640Y-86829000D01*
X221814360Y-86829000D01*
X221841938Y-86831716D01*
G37*
G36*
X220871938Y-86831716D02*
G01*
X220892557Y-86837971D01*
X220911553Y-86848124D01*
X220928208Y-86861792D01*
X220941876Y-86878447D01*
X220952029Y-86897443D01*
X220958284Y-86918062D01*
X220961000Y-86945640D01*
X220961000Y-87454360D01*
X220958284Y-87481938D01*
X220952029Y-87502557D01*
X220941876Y-87521553D01*
X220928208Y-87538208D01*
X220911553Y-87551876D01*
X220892557Y-87562029D01*
X220871938Y-87568284D01*
X220844360Y-87571000D01*
X220385640Y-87571000D01*
X220358062Y-87568284D01*
X220337443Y-87562029D01*
X220318447Y-87551876D01*
X220301792Y-87538208D01*
X220288124Y-87521553D01*
X220277971Y-87502557D01*
X220271716Y-87481938D01*
X220269000Y-87454360D01*
X220269000Y-86945640D01*
X220271716Y-86918062D01*
X220277971Y-86897443D01*
X220288124Y-86878447D01*
X220301792Y-86861792D01*
X220318447Y-86848124D01*
X220337443Y-86837971D01*
X220358062Y-86831716D01*
X220385640Y-86829000D01*
X220844360Y-86829000D01*
X220871938Y-86831716D01*
G37*
G36*
X207621968Y-85403565D02*
G01*
X207660638Y-85415296D01*
X207696277Y-85434346D01*
X207727517Y-85459983D01*
X207753154Y-85491223D01*
X207772204Y-85526862D01*
X207783935Y-85565532D01*
X207788500Y-85611888D01*
X207788500Y-86688112D01*
X207783935Y-86734468D01*
X207772204Y-86773138D01*
X207753154Y-86808777D01*
X207727517Y-86840017D01*
X207696277Y-86865654D01*
X207660638Y-86884704D01*
X207621968Y-86896435D01*
X207575612Y-86901000D01*
X206924388Y-86901000D01*
X206878032Y-86896435D01*
X206839362Y-86884704D01*
X206803723Y-86865654D01*
X206772483Y-86840017D01*
X206746846Y-86808777D01*
X206727796Y-86773138D01*
X206716065Y-86734468D01*
X206711500Y-86688112D01*
X206711500Y-85611888D01*
X206716065Y-85565532D01*
X206727796Y-85526862D01*
X206746846Y-85491223D01*
X206772483Y-85459983D01*
X206803723Y-85434346D01*
X206839362Y-85415296D01*
X206878032Y-85403565D01*
X206924388Y-85399000D01*
X207575612Y-85399000D01*
X207621968Y-85403565D01*
G37*
G36*
X209496968Y-85403565D02*
G01*
X209535638Y-85415296D01*
X209571277Y-85434346D01*
X209602517Y-85459983D01*
X209628154Y-85491223D01*
X209647204Y-85526862D01*
X209658935Y-85565532D01*
X209663500Y-85611888D01*
X209663500Y-86688112D01*
X209658935Y-86734468D01*
X209647204Y-86773138D01*
X209628154Y-86808777D01*
X209602517Y-86840017D01*
X209571277Y-86865654D01*
X209535638Y-86884704D01*
X209496968Y-86896435D01*
X209450612Y-86901000D01*
X208799388Y-86901000D01*
X208753032Y-86896435D01*
X208714362Y-86884704D01*
X208678723Y-86865654D01*
X208647483Y-86840017D01*
X208621846Y-86808777D01*
X208602796Y-86773138D01*
X208591065Y-86734468D01*
X208586500Y-86688112D01*
X208586500Y-85611888D01*
X208591065Y-85565532D01*
X208602796Y-85526862D01*
X208621846Y-85491223D01*
X208647483Y-85459983D01*
X208678723Y-85434346D01*
X208714362Y-85415296D01*
X208753032Y-85403565D01*
X208799388Y-85399000D01*
X209450612Y-85399000D01*
X209496968Y-85403565D01*
G37*
G36*
X221841938Y-85731716D02*
G01*
X221862557Y-85737971D01*
X221881553Y-85748124D01*
X221898208Y-85761792D01*
X221911876Y-85778447D01*
X221922029Y-85797443D01*
X221928284Y-85818062D01*
X221931000Y-85845640D01*
X221931000Y-86354360D01*
X221928284Y-86381938D01*
X221922029Y-86402557D01*
X221911876Y-86421553D01*
X221898208Y-86438208D01*
X221881553Y-86451876D01*
X221862557Y-86462029D01*
X221841938Y-86468284D01*
X221814360Y-86471000D01*
X221355640Y-86471000D01*
X221328062Y-86468284D01*
X221307443Y-86462029D01*
X221288447Y-86451876D01*
X221271792Y-86438208D01*
X221258124Y-86421553D01*
X221247971Y-86402557D01*
X221241716Y-86381938D01*
X221239000Y-86354360D01*
X221239000Y-85845640D01*
X221241716Y-85818062D01*
X221247971Y-85797443D01*
X221258124Y-85778447D01*
X221271792Y-85761792D01*
X221288447Y-85748124D01*
X221307443Y-85737971D01*
X221328062Y-85731716D01*
X221355640Y-85729000D01*
X221814360Y-85729000D01*
X221841938Y-85731716D01*
G37*
G36*
X220871938Y-85731716D02*
G01*
X220892557Y-85737971D01*
X220911553Y-85748124D01*
X220928208Y-85761792D01*
X220941876Y-85778447D01*
X220952029Y-85797443D01*
X220958284Y-85818062D01*
X220961000Y-85845640D01*
X220961000Y-86354360D01*
X220958284Y-86381938D01*
X220952029Y-86402557D01*
X220941876Y-86421553D01*
X220928208Y-86438208D01*
X220911553Y-86451876D01*
X220892557Y-86462029D01*
X220871938Y-86468284D01*
X220844360Y-86471000D01*
X220385640Y-86471000D01*
X220358062Y-86468284D01*
X220337443Y-86462029D01*
X220318447Y-86451876D01*
X220301792Y-86438208D01*
X220288124Y-86421553D01*
X220277971Y-86402557D01*
X220271716Y-86381938D01*
X220269000Y-86354360D01*
X220269000Y-85845640D01*
X220271716Y-85818062D01*
X220277971Y-85797443D01*
X220288124Y-85778447D01*
X220301792Y-85761792D01*
X220318447Y-85748124D01*
X220337443Y-85737971D01*
X220358062Y-85731716D01*
X220385640Y-85729000D01*
X220844360Y-85729000D01*
X220871938Y-85731716D01*
G37*
G36*
X222601000Y-85251000D02*
G01*
X220599000Y-85251000D01*
X220599000Y-84249000D01*
X222601000Y-84249000D01*
X222601000Y-85251000D01*
G37*
G36*
X209554591Y-83778085D02*
G01*
X209588569Y-83788393D01*
X209619890Y-83805134D01*
X209647339Y-83827661D01*
X209669866Y-83855110D01*
X209686607Y-83886431D01*
X209696915Y-83920409D01*
X209701000Y-83961890D01*
X209701000Y-84638110D01*
X209696915Y-84679591D01*
X209686607Y-84713569D01*
X209669866Y-84744890D01*
X209647339Y-84772339D01*
X209619890Y-84794866D01*
X209588569Y-84811607D01*
X209554591Y-84821915D01*
X209513110Y-84826000D01*
X208911890Y-84826000D01*
X208870409Y-84821915D01*
X208836431Y-84811607D01*
X208805110Y-84794866D01*
X208777661Y-84772339D01*
X208755134Y-84744890D01*
X208738393Y-84713569D01*
X208728085Y-84679591D01*
X208724000Y-84638110D01*
X208724000Y-83961890D01*
X208728085Y-83920409D01*
X208738393Y-83886431D01*
X208755134Y-83855110D01*
X208777661Y-83827661D01*
X208805110Y-83805134D01*
X208836431Y-83788393D01*
X208870409Y-83778085D01*
X208911890Y-83774000D01*
X209513110Y-83774000D01*
X209554591Y-83778085D01*
G37*
G36*
X211129591Y-83778085D02*
G01*
X211163569Y-83788393D01*
X211194890Y-83805134D01*
X211222339Y-83827661D01*
X211244866Y-83855110D01*
X211261607Y-83886431D01*
X211271915Y-83920409D01*
X211276000Y-83961890D01*
X211276000Y-84638110D01*
X211271915Y-84679591D01*
X211261607Y-84713569D01*
X211244866Y-84744890D01*
X211222339Y-84772339D01*
X211194890Y-84794866D01*
X211163569Y-84811607D01*
X211129591Y-84821915D01*
X211088110Y-84826000D01*
X210486890Y-84826000D01*
X210445409Y-84821915D01*
X210411431Y-84811607D01*
X210380110Y-84794866D01*
X210352661Y-84772339D01*
X210330134Y-84744890D01*
X210313393Y-84713569D01*
X210303085Y-84679591D01*
X210299000Y-84638110D01*
X210299000Y-83961890D01*
X210303085Y-83920409D01*
X210313393Y-83886431D01*
X210330134Y-83855110D01*
X210352661Y-83827661D01*
X210380110Y-83805134D01*
X210411431Y-83788393D01*
X210445409Y-83778085D01*
X210486890Y-83774000D01*
X211088110Y-83774000D01*
X211129591Y-83778085D01*
G37*
G36*
X222601000Y-83851000D02*
G01*
X220599000Y-83851000D01*
X220599000Y-82849000D01*
X222601000Y-82849000D01*
X222601000Y-83851000D01*
G37*
G36*
X211142091Y-82178085D02*
G01*
X211176069Y-82188393D01*
X211207390Y-82205134D01*
X211234839Y-82227661D01*
X211257366Y-82255110D01*
X211274107Y-82286431D01*
X211284415Y-82320409D01*
X211288500Y-82361890D01*
X211288500Y-83038110D01*
X211284415Y-83079591D01*
X211274107Y-83113569D01*
X211257366Y-83144890D01*
X211234839Y-83172339D01*
X211207390Y-83194866D01*
X211176069Y-83211607D01*
X211142091Y-83221915D01*
X211100610Y-83226000D01*
X210499390Y-83226000D01*
X210457909Y-83221915D01*
X210423931Y-83211607D01*
X210392610Y-83194866D01*
X210365161Y-83172339D01*
X210342634Y-83144890D01*
X210325893Y-83113569D01*
X210315585Y-83079591D01*
X210311500Y-83038110D01*
X210311500Y-82361890D01*
X210315585Y-82320409D01*
X210325893Y-82286431D01*
X210342634Y-82255110D01*
X210365161Y-82227661D01*
X210392610Y-82205134D01*
X210423931Y-82188393D01*
X210457909Y-82178085D01*
X210499390Y-82174000D01*
X211100610Y-82174000D01*
X211142091Y-82178085D01*
G37*
G36*
X209567091Y-82178085D02*
G01*
X209601069Y-82188393D01*
X209632390Y-82205134D01*
X209659839Y-82227661D01*
X209682366Y-82255110D01*
X209699107Y-82286431D01*
X209709415Y-82320409D01*
X209713500Y-82361890D01*
X209713500Y-83038110D01*
X209709415Y-83079591D01*
X209699107Y-83113569D01*
X209682366Y-83144890D01*
X209659839Y-83172339D01*
X209632390Y-83194866D01*
X209601069Y-83211607D01*
X209567091Y-83221915D01*
X209525610Y-83226000D01*
X208924390Y-83226000D01*
X208882909Y-83221915D01*
X208848931Y-83211607D01*
X208817610Y-83194866D01*
X208790161Y-83172339D01*
X208767634Y-83144890D01*
X208750893Y-83113569D01*
X208740585Y-83079591D01*
X208736500Y-83038110D01*
X208736500Y-82361890D01*
X208740585Y-82320409D01*
X208750893Y-82286431D01*
X208767634Y-82255110D01*
X208790161Y-82227661D01*
X208817610Y-82205134D01*
X208848931Y-82188393D01*
X208882909Y-82178085D01*
X208924390Y-82174000D01*
X209525610Y-82174000D01*
X209567091Y-82178085D01*
G37*
G36*
X220726938Y-81631716D02*
G01*
X220747557Y-81637971D01*
X220766553Y-81648124D01*
X220783208Y-81661792D01*
X220796876Y-81678447D01*
X220807029Y-81697443D01*
X220813284Y-81718062D01*
X220816000Y-81745640D01*
X220816000Y-82254360D01*
X220813284Y-82281938D01*
X220807029Y-82302557D01*
X220796876Y-82321553D01*
X220783208Y-82338208D01*
X220766553Y-82351876D01*
X220747557Y-82362029D01*
X220726938Y-82368284D01*
X220699360Y-82371000D01*
X220240640Y-82371000D01*
X220213062Y-82368284D01*
X220192443Y-82362029D01*
X220173447Y-82351876D01*
X220156792Y-82338208D01*
X220143124Y-82321553D01*
X220132971Y-82302557D01*
X220126716Y-82281938D01*
X220124000Y-82254360D01*
X220124000Y-81745640D01*
X220126716Y-81718062D01*
X220132971Y-81697443D01*
X220143124Y-81678447D01*
X220156792Y-81661792D01*
X220173447Y-81648124D01*
X220192443Y-81637971D01*
X220213062Y-81631716D01*
X220240640Y-81629000D01*
X220699360Y-81629000D01*
X220726938Y-81631716D01*
G37*
G36*
X212386938Y-81631716D02*
G01*
X212407557Y-81637971D01*
X212426553Y-81648124D01*
X212443208Y-81661792D01*
X212456876Y-81678447D01*
X212467029Y-81697443D01*
X212473284Y-81718062D01*
X212476000Y-81745640D01*
X212476000Y-82254360D01*
X212473284Y-82281938D01*
X212467029Y-82302557D01*
X212456876Y-82321553D01*
X212443208Y-82338208D01*
X212426553Y-82351876D01*
X212407557Y-82362029D01*
X212386938Y-82368284D01*
X212359360Y-82371000D01*
X211900640Y-82371000D01*
X211873062Y-82368284D01*
X211852443Y-82362029D01*
X211833447Y-82351876D01*
X211816792Y-82338208D01*
X211803124Y-82321553D01*
X211792971Y-82302557D01*
X211786716Y-82281938D01*
X211784000Y-82254360D01*
X211784000Y-81745640D01*
X211786716Y-81718062D01*
X211792971Y-81697443D01*
X211803124Y-81678447D01*
X211816792Y-81661792D01*
X211833447Y-81648124D01*
X211852443Y-81637971D01*
X211873062Y-81631716D01*
X211900640Y-81629000D01*
X212359360Y-81629000D01*
X212386938Y-81631716D01*
G37*
G36*
X213356938Y-81631716D02*
G01*
X213377557Y-81637971D01*
X213396553Y-81648124D01*
X213413208Y-81661792D01*
X213426876Y-81678447D01*
X213437029Y-81697443D01*
X213443284Y-81718062D01*
X213446000Y-81745640D01*
X213446000Y-82254360D01*
X213443284Y-82281938D01*
X213437029Y-82302557D01*
X213426876Y-82321553D01*
X213413208Y-82338208D01*
X213396553Y-82351876D01*
X213377557Y-82362029D01*
X213356938Y-82368284D01*
X213329360Y-82371000D01*
X212870640Y-82371000D01*
X212843062Y-82368284D01*
X212822443Y-82362029D01*
X212803447Y-82351876D01*
X212786792Y-82338208D01*
X212773124Y-82321553D01*
X212762971Y-82302557D01*
X212756716Y-82281938D01*
X212754000Y-82254360D01*
X212754000Y-81745640D01*
X212756716Y-81718062D01*
X212762971Y-81697443D01*
X212773124Y-81678447D01*
X212786792Y-81661792D01*
X212803447Y-81648124D01*
X212822443Y-81637971D01*
X212843062Y-81631716D01*
X212870640Y-81629000D01*
X213329360Y-81629000D01*
X213356938Y-81631716D01*
G37*
G36*
X219756938Y-81631716D02*
G01*
X219777557Y-81637971D01*
X219796553Y-81648124D01*
X219813208Y-81661792D01*
X219826876Y-81678447D01*
X219837029Y-81697443D01*
X219843284Y-81718062D01*
X219846000Y-81745640D01*
X219846000Y-82254360D01*
X219843284Y-82281938D01*
X219837029Y-82302557D01*
X219826876Y-82321553D01*
X219813208Y-82338208D01*
X219796553Y-82351876D01*
X219777557Y-82362029D01*
X219756938Y-82368284D01*
X219729360Y-82371000D01*
X219270640Y-82371000D01*
X219243062Y-82368284D01*
X219222443Y-82362029D01*
X219203447Y-82351876D01*
X219186792Y-82338208D01*
X219173124Y-82321553D01*
X219162971Y-82302557D01*
X219156716Y-82281938D01*
X219154000Y-82254360D01*
X219154000Y-81745640D01*
X219156716Y-81718062D01*
X219162971Y-81697443D01*
X219173124Y-81678447D01*
X219186792Y-81661792D01*
X219203447Y-81648124D01*
X219222443Y-81637971D01*
X219243062Y-81631716D01*
X219270640Y-81629000D01*
X219729360Y-81629000D01*
X219756938Y-81631716D01*
G37*
G36*
X217866000Y-82276000D02*
G01*
X217314000Y-82276000D01*
X217314000Y-80924000D01*
X217866000Y-80924000D01*
X217866000Y-82276000D01*
G37*
G36*
X218686000Y-82276000D02*
G01*
X218134000Y-82276000D01*
X218134000Y-80924000D01*
X218686000Y-80924000D01*
X218686000Y-82276000D01*
G37*
G36*
X215251000Y-81801000D02*
G01*
X214549000Y-81801000D01*
X214549000Y-80599000D01*
X215251000Y-80599000D01*
X215251000Y-81801000D01*
G37*
G36*
X216651000Y-81801000D02*
G01*
X215949000Y-81801000D01*
X215949000Y-80599000D01*
X216651000Y-80599000D01*
X216651000Y-81801000D01*
G37*
G36*
X217786938Y-79631716D02*
G01*
X217807557Y-79637971D01*
X217826553Y-79648124D01*
X217843208Y-79661792D01*
X217856876Y-79678447D01*
X217867029Y-79697443D01*
X217873284Y-79718062D01*
X217876000Y-79745640D01*
X217876000Y-80254360D01*
X217873284Y-80281938D01*
X217867029Y-80302557D01*
X217856876Y-80321553D01*
X217843208Y-80338208D01*
X217826553Y-80351876D01*
X217807557Y-80362029D01*
X217786938Y-80368284D01*
X217759360Y-80371000D01*
X217300640Y-80371000D01*
X217273062Y-80368284D01*
X217252443Y-80362029D01*
X217233447Y-80351876D01*
X217216792Y-80338208D01*
X217203124Y-80321553D01*
X217192971Y-80302557D01*
X217186716Y-80281938D01*
X217184000Y-80254360D01*
X217184000Y-79745640D01*
X217186716Y-79718062D01*
X217192971Y-79697443D01*
X217203124Y-79678447D01*
X217216792Y-79661792D01*
X217233447Y-79648124D01*
X217252443Y-79637971D01*
X217273062Y-79631716D01*
X217300640Y-79629000D01*
X217759360Y-79629000D01*
X217786938Y-79631716D01*
G37*
G36*
X218756938Y-79631716D02*
G01*
X218777557Y-79637971D01*
X218796553Y-79648124D01*
X218813208Y-79661792D01*
X218826876Y-79678447D01*
X218837029Y-79697443D01*
X218843284Y-79718062D01*
X218846000Y-79745640D01*
X218846000Y-80254360D01*
X218843284Y-80281938D01*
X218837029Y-80302557D01*
X218826876Y-80321553D01*
X218813208Y-80338208D01*
X218796553Y-80351876D01*
X218777557Y-80362029D01*
X218756938Y-80368284D01*
X218729360Y-80371000D01*
X218270640Y-80371000D01*
X218243062Y-80368284D01*
X218222443Y-80362029D01*
X218203447Y-80351876D01*
X218186792Y-80338208D01*
X218173124Y-80321553D01*
X218162971Y-80302557D01*
X218156716Y-80281938D01*
X218154000Y-80254360D01*
X218154000Y-79745640D01*
X218156716Y-79718062D01*
X218162971Y-79697443D01*
X218173124Y-79678447D01*
X218186792Y-79661792D01*
X218203447Y-79648124D01*
X218222443Y-79637971D01*
X218243062Y-79631716D01*
X218270640Y-79629000D01*
X218729360Y-79629000D01*
X218756938Y-79631716D01*
G37*
G36*
X214556938Y-79331716D02*
G01*
X214577557Y-79337971D01*
X214596553Y-79348124D01*
X214613208Y-79361792D01*
X214626876Y-79378447D01*
X214637029Y-79397443D01*
X214643284Y-79418062D01*
X214646000Y-79445640D01*
X214646000Y-79954360D01*
X214643284Y-79981938D01*
X214637029Y-80002557D01*
X214626876Y-80021553D01*
X214613208Y-80038208D01*
X214596553Y-80051876D01*
X214577557Y-80062029D01*
X214556938Y-80068284D01*
X214529360Y-80071000D01*
X214070640Y-80071000D01*
X214043062Y-80068284D01*
X214022443Y-80062029D01*
X214003447Y-80051876D01*
X213986792Y-80038208D01*
X213973124Y-80021553D01*
X213962971Y-80002557D01*
X213956716Y-79981938D01*
X213954000Y-79954360D01*
X213954000Y-79445640D01*
X213956716Y-79418062D01*
X213962971Y-79397443D01*
X213973124Y-79378447D01*
X213986792Y-79361792D01*
X214003447Y-79348124D01*
X214022443Y-79337971D01*
X214043062Y-79331716D01*
X214070640Y-79329000D01*
X214529360Y-79329000D01*
X214556938Y-79331716D01*
G37*
G36*
X215686938Y-79331716D02*
G01*
X215707557Y-79337971D01*
X215726553Y-79348124D01*
X215743208Y-79361792D01*
X215756876Y-79378447D01*
X215767029Y-79397443D01*
X215773284Y-79418062D01*
X215776000Y-79445640D01*
X215776000Y-79954360D01*
X215773284Y-79981938D01*
X215767029Y-80002557D01*
X215756876Y-80021553D01*
X215743208Y-80038208D01*
X215726553Y-80051876D01*
X215707557Y-80062029D01*
X215686938Y-80068284D01*
X215659360Y-80071000D01*
X215200640Y-80071000D01*
X215173062Y-80068284D01*
X215152443Y-80062029D01*
X215133447Y-80051876D01*
X215116792Y-80038208D01*
X215103124Y-80021553D01*
X215092971Y-80002557D01*
X215086716Y-79981938D01*
X215084000Y-79954360D01*
X215084000Y-79445640D01*
X215086716Y-79418062D01*
X215092971Y-79397443D01*
X215103124Y-79378447D01*
X215116792Y-79361792D01*
X215133447Y-79348124D01*
X215152443Y-79337971D01*
X215173062Y-79331716D01*
X215200640Y-79329000D01*
X215659360Y-79329000D01*
X215686938Y-79331716D01*
G37*
G36*
X213586938Y-79331716D02*
G01*
X213607557Y-79337971D01*
X213626553Y-79348124D01*
X213643208Y-79361792D01*
X213656876Y-79378447D01*
X213667029Y-79397443D01*
X213673284Y-79418062D01*
X213676000Y-79445640D01*
X213676000Y-79954360D01*
X213673284Y-79981938D01*
X213667029Y-80002557D01*
X213656876Y-80021553D01*
X213643208Y-80038208D01*
X213626553Y-80051876D01*
X213607557Y-80062029D01*
X213586938Y-80068284D01*
X213559360Y-80071000D01*
X213100640Y-80071000D01*
X213073062Y-80068284D01*
X213052443Y-80062029D01*
X213033447Y-80051876D01*
X213016792Y-80038208D01*
X213003124Y-80021553D01*
X212992971Y-80002557D01*
X212986716Y-79981938D01*
X212984000Y-79954360D01*
X212984000Y-79445640D01*
X212986716Y-79418062D01*
X212992971Y-79397443D01*
X213003124Y-79378447D01*
X213016792Y-79361792D01*
X213033447Y-79348124D01*
X213052443Y-79337971D01*
X213073062Y-79331716D01*
X213100640Y-79329000D01*
X213559360Y-79329000D01*
X213586938Y-79331716D01*
G37*
G36*
X216656938Y-79331716D02*
G01*
X216677557Y-79337971D01*
X216696553Y-79348124D01*
X216713208Y-79361792D01*
X216726876Y-79378447D01*
X216737029Y-79397443D01*
X216743284Y-79418062D01*
X216746000Y-79445640D01*
X216746000Y-79954360D01*
X216743284Y-79981938D01*
X216737029Y-80002557D01*
X216726876Y-80021553D01*
X216713208Y-80038208D01*
X216696553Y-80051876D01*
X216677557Y-80062029D01*
X216656938Y-80068284D01*
X216629360Y-80071000D01*
X216170640Y-80071000D01*
X216143062Y-80068284D01*
X216122443Y-80062029D01*
X216103447Y-80051876D01*
X216086792Y-80038208D01*
X216073124Y-80021553D01*
X216062971Y-80002557D01*
X216056716Y-79981938D01*
X216054000Y-79954360D01*
X216054000Y-79445640D01*
X216056716Y-79418062D01*
X216062971Y-79397443D01*
X216073124Y-79378447D01*
X216086792Y-79361792D01*
X216103447Y-79348124D01*
X216122443Y-79337971D01*
X216143062Y-79331716D01*
X216170640Y-79329000D01*
X216629360Y-79329000D01*
X216656938Y-79331716D01*
G37*
G36*
X218756938Y-78531716D02*
G01*
X218777557Y-78537971D01*
X218796553Y-78548124D01*
X218813208Y-78561792D01*
X218826876Y-78578447D01*
X218837029Y-78597443D01*
X218843284Y-78618062D01*
X218846000Y-78645640D01*
X218846000Y-79154360D01*
X218843284Y-79181938D01*
X218837029Y-79202557D01*
X218826876Y-79221553D01*
X218813208Y-79238208D01*
X218796553Y-79251876D01*
X218777557Y-79262029D01*
X218756938Y-79268284D01*
X218729360Y-79271000D01*
X218270640Y-79271000D01*
X218243062Y-79268284D01*
X218222443Y-79262029D01*
X218203447Y-79251876D01*
X218186792Y-79238208D01*
X218173124Y-79221553D01*
X218162971Y-79202557D01*
X218156716Y-79181938D01*
X218154000Y-79154360D01*
X218154000Y-78645640D01*
X218156716Y-78618062D01*
X218162971Y-78597443D01*
X218173124Y-78578447D01*
X218186792Y-78561792D01*
X218203447Y-78548124D01*
X218222443Y-78537971D01*
X218243062Y-78531716D01*
X218270640Y-78529000D01*
X218729360Y-78529000D01*
X218756938Y-78531716D01*
G37*
G36*
X217786938Y-78531716D02*
G01*
X217807557Y-78537971D01*
X217826553Y-78548124D01*
X217843208Y-78561792D01*
X217856876Y-78578447D01*
X217867029Y-78597443D01*
X217873284Y-78618062D01*
X217876000Y-78645640D01*
X217876000Y-79154360D01*
X217873284Y-79181938D01*
X217867029Y-79202557D01*
X217856876Y-79221553D01*
X217843208Y-79238208D01*
X217826553Y-79251876D01*
X217807557Y-79262029D01*
X217786938Y-79268284D01*
X217759360Y-79271000D01*
X217300640Y-79271000D01*
X217273062Y-79268284D01*
X217252443Y-79262029D01*
X217233447Y-79251876D01*
X217216792Y-79238208D01*
X217203124Y-79221553D01*
X217192971Y-79202557D01*
X217186716Y-79181938D01*
X217184000Y-79154360D01*
X217184000Y-78645640D01*
X217186716Y-78618062D01*
X217192971Y-78597443D01*
X217203124Y-78578447D01*
X217216792Y-78561792D01*
X217233447Y-78548124D01*
X217252443Y-78537971D01*
X217273062Y-78531716D01*
X217300640Y-78529000D01*
X217759360Y-78529000D01*
X217786938Y-78531716D01*
G37*
G36*
X217151000Y-78181000D02*
G01*
X214249000Y-78181000D01*
X214249000Y-77379000D01*
X217151000Y-77379000D01*
X217151000Y-78181000D01*
G37*
G36*
X213651000Y-77981000D02*
G01*
X212549000Y-77981000D01*
X212549000Y-75879000D01*
X213651000Y-75879000D01*
X213651000Y-77981000D01*
G37*
G36*
X218851000Y-77981000D02*
G01*
X217749000Y-77981000D01*
X217749000Y-75879000D01*
X218851000Y-75879000D01*
X218851000Y-77981000D01*
G37*
G36*
X217151000Y-76481000D02*
G01*
X214249000Y-76481000D01*
X214249000Y-75679000D01*
X217151000Y-75679000D01*
X217151000Y-76481000D01*
G37*
M02*
