G04 #@! TF.GenerationSoftware,KiCad,Pcbnew,(5.1.5-0-10_14)*
G04 #@! TF.CreationDate,2021-05-03T17:37:28-04:00*
G04 #@! TF.ProjectId,ESLO_RB2,45534c4f-5f52-4423-922e-6b696361645f,rev?*
G04 #@! TF.SameCoordinates,Original*
G04 #@! TF.FileFunction,Paste,Top*
G04 #@! TF.FilePolarity,Positive*
%FSLAX46Y46*%
G04 Gerber Fmt 4.6, Leading zero omitted, Abs format (unit mm)*
G04 Created by KiCad (PCBNEW (5.1.5-0-10_14)) date 2021-05-03 17:37:28*
%MOMM*%
%LPD*%
G04 APERTURE LIST*
%ADD10C,0.100000*%
%ADD11R,0.200000X0.350000*%
%ADD12R,0.600000X1.100000*%
%ADD13R,0.800000X0.900000*%
%ADD14R,0.400000X0.675000*%
%ADD15R,0.675000X0.400000*%
%ADD16R,0.650000X0.500000*%
%ADD17R,0.450000X0.250000*%
%ADD18R,2.800000X0.700000*%
%ADD19R,1.000000X2.000000*%
G04 APERTURE END LIST*
D10*
G36*
X223761958Y-90180710D02*
G01*
X223776276Y-90182834D01*
X223790317Y-90186351D01*
X223803946Y-90191228D01*
X223817031Y-90197417D01*
X223829447Y-90204858D01*
X223841073Y-90213481D01*
X223851798Y-90223202D01*
X223861519Y-90233927D01*
X223870142Y-90245553D01*
X223877583Y-90257969D01*
X223883772Y-90271054D01*
X223888649Y-90284683D01*
X223892166Y-90298724D01*
X223894290Y-90313042D01*
X223895000Y-90327500D01*
X223895000Y-90672500D01*
X223894290Y-90686958D01*
X223892166Y-90701276D01*
X223888649Y-90715317D01*
X223883772Y-90728946D01*
X223877583Y-90742031D01*
X223870142Y-90754447D01*
X223861519Y-90766073D01*
X223851798Y-90776798D01*
X223841073Y-90786519D01*
X223829447Y-90795142D01*
X223817031Y-90802583D01*
X223803946Y-90808772D01*
X223790317Y-90813649D01*
X223776276Y-90817166D01*
X223761958Y-90819290D01*
X223747500Y-90820000D01*
X223452500Y-90820000D01*
X223438042Y-90819290D01*
X223423724Y-90817166D01*
X223409683Y-90813649D01*
X223396054Y-90808772D01*
X223382969Y-90802583D01*
X223370553Y-90795142D01*
X223358927Y-90786519D01*
X223348202Y-90776798D01*
X223338481Y-90766073D01*
X223329858Y-90754447D01*
X223322417Y-90742031D01*
X223316228Y-90728946D01*
X223311351Y-90715317D01*
X223307834Y-90701276D01*
X223305710Y-90686958D01*
X223305000Y-90672500D01*
X223305000Y-90327500D01*
X223305710Y-90313042D01*
X223307834Y-90298724D01*
X223311351Y-90284683D01*
X223316228Y-90271054D01*
X223322417Y-90257969D01*
X223329858Y-90245553D01*
X223338481Y-90233927D01*
X223348202Y-90223202D01*
X223358927Y-90213481D01*
X223370553Y-90204858D01*
X223382969Y-90197417D01*
X223396054Y-90191228D01*
X223409683Y-90186351D01*
X223423724Y-90182834D01*
X223438042Y-90180710D01*
X223452500Y-90180000D01*
X223747500Y-90180000D01*
X223761958Y-90180710D01*
G37*
G36*
X222791958Y-90180710D02*
G01*
X222806276Y-90182834D01*
X222820317Y-90186351D01*
X222833946Y-90191228D01*
X222847031Y-90197417D01*
X222859447Y-90204858D01*
X222871073Y-90213481D01*
X222881798Y-90223202D01*
X222891519Y-90233927D01*
X222900142Y-90245553D01*
X222907583Y-90257969D01*
X222913772Y-90271054D01*
X222918649Y-90284683D01*
X222922166Y-90298724D01*
X222924290Y-90313042D01*
X222925000Y-90327500D01*
X222925000Y-90672500D01*
X222924290Y-90686958D01*
X222922166Y-90701276D01*
X222918649Y-90715317D01*
X222913772Y-90728946D01*
X222907583Y-90742031D01*
X222900142Y-90754447D01*
X222891519Y-90766073D01*
X222881798Y-90776798D01*
X222871073Y-90786519D01*
X222859447Y-90795142D01*
X222847031Y-90802583D01*
X222833946Y-90808772D01*
X222820317Y-90813649D01*
X222806276Y-90817166D01*
X222791958Y-90819290D01*
X222777500Y-90820000D01*
X222482500Y-90820000D01*
X222468042Y-90819290D01*
X222453724Y-90817166D01*
X222439683Y-90813649D01*
X222426054Y-90808772D01*
X222412969Y-90802583D01*
X222400553Y-90795142D01*
X222388927Y-90786519D01*
X222378202Y-90776798D01*
X222368481Y-90766073D01*
X222359858Y-90754447D01*
X222352417Y-90742031D01*
X222346228Y-90728946D01*
X222341351Y-90715317D01*
X222337834Y-90701276D01*
X222335710Y-90686958D01*
X222335000Y-90672500D01*
X222335000Y-90327500D01*
X222335710Y-90313042D01*
X222337834Y-90298724D01*
X222341351Y-90284683D01*
X222346228Y-90271054D01*
X222352417Y-90257969D01*
X222359858Y-90245553D01*
X222368481Y-90233927D01*
X222378202Y-90223202D01*
X222388927Y-90213481D01*
X222400553Y-90204858D01*
X222412969Y-90197417D01*
X222426054Y-90191228D01*
X222439683Y-90186351D01*
X222453724Y-90182834D01*
X222468042Y-90180710D01*
X222482500Y-90180000D01*
X222777500Y-90180000D01*
X222791958Y-90180710D01*
G37*
G36*
X211027691Y-83826053D02*
G01*
X211048926Y-83829203D01*
X211069750Y-83834419D01*
X211089962Y-83841651D01*
X211109368Y-83850830D01*
X211127781Y-83861866D01*
X211145024Y-83874654D01*
X211160930Y-83889070D01*
X211175346Y-83904976D01*
X211188134Y-83922219D01*
X211199170Y-83940632D01*
X211208349Y-83960038D01*
X211215581Y-83980250D01*
X211220797Y-84001074D01*
X211223947Y-84022309D01*
X211225000Y-84043750D01*
X211225000Y-84556250D01*
X211223947Y-84577691D01*
X211220797Y-84598926D01*
X211215581Y-84619750D01*
X211208349Y-84639962D01*
X211199170Y-84659368D01*
X211188134Y-84677781D01*
X211175346Y-84695024D01*
X211160930Y-84710930D01*
X211145024Y-84725346D01*
X211127781Y-84738134D01*
X211109368Y-84749170D01*
X211089962Y-84758349D01*
X211069750Y-84765581D01*
X211048926Y-84770797D01*
X211027691Y-84773947D01*
X211006250Y-84775000D01*
X210568750Y-84775000D01*
X210547309Y-84773947D01*
X210526074Y-84770797D01*
X210505250Y-84765581D01*
X210485038Y-84758349D01*
X210465632Y-84749170D01*
X210447219Y-84738134D01*
X210429976Y-84725346D01*
X210414070Y-84710930D01*
X210399654Y-84695024D01*
X210386866Y-84677781D01*
X210375830Y-84659368D01*
X210366651Y-84639962D01*
X210359419Y-84619750D01*
X210354203Y-84598926D01*
X210351053Y-84577691D01*
X210350000Y-84556250D01*
X210350000Y-84043750D01*
X210351053Y-84022309D01*
X210354203Y-84001074D01*
X210359419Y-83980250D01*
X210366651Y-83960038D01*
X210375830Y-83940632D01*
X210386866Y-83922219D01*
X210399654Y-83904976D01*
X210414070Y-83889070D01*
X210429976Y-83874654D01*
X210447219Y-83861866D01*
X210465632Y-83850830D01*
X210485038Y-83841651D01*
X210505250Y-83834419D01*
X210526074Y-83829203D01*
X210547309Y-83826053D01*
X210568750Y-83825000D01*
X211006250Y-83825000D01*
X211027691Y-83826053D01*
G37*
G36*
X209452691Y-83826053D02*
G01*
X209473926Y-83829203D01*
X209494750Y-83834419D01*
X209514962Y-83841651D01*
X209534368Y-83850830D01*
X209552781Y-83861866D01*
X209570024Y-83874654D01*
X209585930Y-83889070D01*
X209600346Y-83904976D01*
X209613134Y-83922219D01*
X209624170Y-83940632D01*
X209633349Y-83960038D01*
X209640581Y-83980250D01*
X209645797Y-84001074D01*
X209648947Y-84022309D01*
X209650000Y-84043750D01*
X209650000Y-84556250D01*
X209648947Y-84577691D01*
X209645797Y-84598926D01*
X209640581Y-84619750D01*
X209633349Y-84639962D01*
X209624170Y-84659368D01*
X209613134Y-84677781D01*
X209600346Y-84695024D01*
X209585930Y-84710930D01*
X209570024Y-84725346D01*
X209552781Y-84738134D01*
X209534368Y-84749170D01*
X209514962Y-84758349D01*
X209494750Y-84765581D01*
X209473926Y-84770797D01*
X209452691Y-84773947D01*
X209431250Y-84775000D01*
X208993750Y-84775000D01*
X208972309Y-84773947D01*
X208951074Y-84770797D01*
X208930250Y-84765581D01*
X208910038Y-84758349D01*
X208890632Y-84749170D01*
X208872219Y-84738134D01*
X208854976Y-84725346D01*
X208839070Y-84710930D01*
X208824654Y-84695024D01*
X208811866Y-84677781D01*
X208800830Y-84659368D01*
X208791651Y-84639962D01*
X208784419Y-84619750D01*
X208779203Y-84598926D01*
X208776053Y-84577691D01*
X208775000Y-84556250D01*
X208775000Y-84043750D01*
X208776053Y-84022309D01*
X208779203Y-84001074D01*
X208784419Y-83980250D01*
X208791651Y-83960038D01*
X208800830Y-83940632D01*
X208811866Y-83922219D01*
X208824654Y-83904976D01*
X208839070Y-83889070D01*
X208854976Y-83874654D01*
X208872219Y-83861866D01*
X208890632Y-83850830D01*
X208910038Y-83841651D01*
X208930250Y-83834419D01*
X208951074Y-83829203D01*
X208972309Y-83826053D01*
X208993750Y-83825000D01*
X209431250Y-83825000D01*
X209452691Y-83826053D01*
G37*
D11*
X206800000Y-89900000D03*
X206800000Y-90500000D03*
X207300000Y-89900000D03*
X207300000Y-90500000D03*
X207800000Y-89900000D03*
X207800000Y-90500000D03*
D10*
G36*
X209392642Y-85451174D02*
G01*
X209416303Y-85454684D01*
X209439507Y-85460496D01*
X209462029Y-85468554D01*
X209483653Y-85478782D01*
X209504170Y-85491079D01*
X209523383Y-85505329D01*
X209541107Y-85521393D01*
X209557171Y-85539117D01*
X209571421Y-85558330D01*
X209583718Y-85578847D01*
X209593946Y-85600471D01*
X209602004Y-85622993D01*
X209607816Y-85646197D01*
X209611326Y-85669858D01*
X209612500Y-85693750D01*
X209612500Y-86606250D01*
X209611326Y-86630142D01*
X209607816Y-86653803D01*
X209602004Y-86677007D01*
X209593946Y-86699529D01*
X209583718Y-86721153D01*
X209571421Y-86741670D01*
X209557171Y-86760883D01*
X209541107Y-86778607D01*
X209523383Y-86794671D01*
X209504170Y-86808921D01*
X209483653Y-86821218D01*
X209462029Y-86831446D01*
X209439507Y-86839504D01*
X209416303Y-86845316D01*
X209392642Y-86848826D01*
X209368750Y-86850000D01*
X208881250Y-86850000D01*
X208857358Y-86848826D01*
X208833697Y-86845316D01*
X208810493Y-86839504D01*
X208787971Y-86831446D01*
X208766347Y-86821218D01*
X208745830Y-86808921D01*
X208726617Y-86794671D01*
X208708893Y-86778607D01*
X208692829Y-86760883D01*
X208678579Y-86741670D01*
X208666282Y-86721153D01*
X208656054Y-86699529D01*
X208647996Y-86677007D01*
X208642184Y-86653803D01*
X208638674Y-86630142D01*
X208637500Y-86606250D01*
X208637500Y-85693750D01*
X208638674Y-85669858D01*
X208642184Y-85646197D01*
X208647996Y-85622993D01*
X208656054Y-85600471D01*
X208666282Y-85578847D01*
X208678579Y-85558330D01*
X208692829Y-85539117D01*
X208708893Y-85521393D01*
X208726617Y-85505329D01*
X208745830Y-85491079D01*
X208766347Y-85478782D01*
X208787971Y-85468554D01*
X208810493Y-85460496D01*
X208833697Y-85454684D01*
X208857358Y-85451174D01*
X208881250Y-85450000D01*
X209368750Y-85450000D01*
X209392642Y-85451174D01*
G37*
G36*
X207517642Y-85451174D02*
G01*
X207541303Y-85454684D01*
X207564507Y-85460496D01*
X207587029Y-85468554D01*
X207608653Y-85478782D01*
X207629170Y-85491079D01*
X207648383Y-85505329D01*
X207666107Y-85521393D01*
X207682171Y-85539117D01*
X207696421Y-85558330D01*
X207708718Y-85578847D01*
X207718946Y-85600471D01*
X207727004Y-85622993D01*
X207732816Y-85646197D01*
X207736326Y-85669858D01*
X207737500Y-85693750D01*
X207737500Y-86606250D01*
X207736326Y-86630142D01*
X207732816Y-86653803D01*
X207727004Y-86677007D01*
X207718946Y-86699529D01*
X207708718Y-86721153D01*
X207696421Y-86741670D01*
X207682171Y-86760883D01*
X207666107Y-86778607D01*
X207648383Y-86794671D01*
X207629170Y-86808921D01*
X207608653Y-86821218D01*
X207587029Y-86831446D01*
X207564507Y-86839504D01*
X207541303Y-86845316D01*
X207517642Y-86848826D01*
X207493750Y-86850000D01*
X207006250Y-86850000D01*
X206982358Y-86848826D01*
X206958697Y-86845316D01*
X206935493Y-86839504D01*
X206912971Y-86831446D01*
X206891347Y-86821218D01*
X206870830Y-86808921D01*
X206851617Y-86794671D01*
X206833893Y-86778607D01*
X206817829Y-86760883D01*
X206803579Y-86741670D01*
X206791282Y-86721153D01*
X206781054Y-86699529D01*
X206772996Y-86677007D01*
X206767184Y-86653803D01*
X206763674Y-86630142D01*
X206762500Y-86606250D01*
X206762500Y-85693750D01*
X206763674Y-85669858D01*
X206767184Y-85646197D01*
X206772996Y-85622993D01*
X206781054Y-85600471D01*
X206791282Y-85578847D01*
X206803579Y-85558330D01*
X206817829Y-85539117D01*
X206833893Y-85521393D01*
X206851617Y-85505329D01*
X206870830Y-85491079D01*
X206891347Y-85478782D01*
X206912971Y-85468554D01*
X206935493Y-85460496D01*
X206958697Y-85454684D01*
X206982358Y-85451174D01*
X207006250Y-85450000D01*
X207493750Y-85450000D01*
X207517642Y-85451174D01*
G37*
G36*
X208811958Y-87430710D02*
G01*
X208826276Y-87432834D01*
X208840317Y-87436351D01*
X208853946Y-87441228D01*
X208867031Y-87447417D01*
X208879447Y-87454858D01*
X208891073Y-87463481D01*
X208901798Y-87473202D01*
X208911519Y-87483927D01*
X208920142Y-87495553D01*
X208927583Y-87507969D01*
X208933772Y-87521054D01*
X208938649Y-87534683D01*
X208942166Y-87548724D01*
X208944290Y-87563042D01*
X208945000Y-87577500D01*
X208945000Y-87922500D01*
X208944290Y-87936958D01*
X208942166Y-87951276D01*
X208938649Y-87965317D01*
X208933772Y-87978946D01*
X208927583Y-87992031D01*
X208920142Y-88004447D01*
X208911519Y-88016073D01*
X208901798Y-88026798D01*
X208891073Y-88036519D01*
X208879447Y-88045142D01*
X208867031Y-88052583D01*
X208853946Y-88058772D01*
X208840317Y-88063649D01*
X208826276Y-88067166D01*
X208811958Y-88069290D01*
X208797500Y-88070000D01*
X208502500Y-88070000D01*
X208488042Y-88069290D01*
X208473724Y-88067166D01*
X208459683Y-88063649D01*
X208446054Y-88058772D01*
X208432969Y-88052583D01*
X208420553Y-88045142D01*
X208408927Y-88036519D01*
X208398202Y-88026798D01*
X208388481Y-88016073D01*
X208379858Y-88004447D01*
X208372417Y-87992031D01*
X208366228Y-87978946D01*
X208361351Y-87965317D01*
X208357834Y-87951276D01*
X208355710Y-87936958D01*
X208355000Y-87922500D01*
X208355000Y-87577500D01*
X208355710Y-87563042D01*
X208357834Y-87548724D01*
X208361351Y-87534683D01*
X208366228Y-87521054D01*
X208372417Y-87507969D01*
X208379858Y-87495553D01*
X208388481Y-87483927D01*
X208398202Y-87473202D01*
X208408927Y-87463481D01*
X208420553Y-87454858D01*
X208432969Y-87447417D01*
X208446054Y-87441228D01*
X208459683Y-87436351D01*
X208473724Y-87432834D01*
X208488042Y-87430710D01*
X208502500Y-87430000D01*
X208797500Y-87430000D01*
X208811958Y-87430710D01*
G37*
G36*
X207841958Y-87430710D02*
G01*
X207856276Y-87432834D01*
X207870317Y-87436351D01*
X207883946Y-87441228D01*
X207897031Y-87447417D01*
X207909447Y-87454858D01*
X207921073Y-87463481D01*
X207931798Y-87473202D01*
X207941519Y-87483927D01*
X207950142Y-87495553D01*
X207957583Y-87507969D01*
X207963772Y-87521054D01*
X207968649Y-87534683D01*
X207972166Y-87548724D01*
X207974290Y-87563042D01*
X207975000Y-87577500D01*
X207975000Y-87922500D01*
X207974290Y-87936958D01*
X207972166Y-87951276D01*
X207968649Y-87965317D01*
X207963772Y-87978946D01*
X207957583Y-87992031D01*
X207950142Y-88004447D01*
X207941519Y-88016073D01*
X207931798Y-88026798D01*
X207921073Y-88036519D01*
X207909447Y-88045142D01*
X207897031Y-88052583D01*
X207883946Y-88058772D01*
X207870317Y-88063649D01*
X207856276Y-88067166D01*
X207841958Y-88069290D01*
X207827500Y-88070000D01*
X207532500Y-88070000D01*
X207518042Y-88069290D01*
X207503724Y-88067166D01*
X207489683Y-88063649D01*
X207476054Y-88058772D01*
X207462969Y-88052583D01*
X207450553Y-88045142D01*
X207438927Y-88036519D01*
X207428202Y-88026798D01*
X207418481Y-88016073D01*
X207409858Y-88004447D01*
X207402417Y-87992031D01*
X207396228Y-87978946D01*
X207391351Y-87965317D01*
X207387834Y-87951276D01*
X207385710Y-87936958D01*
X207385000Y-87922500D01*
X207385000Y-87577500D01*
X207385710Y-87563042D01*
X207387834Y-87548724D01*
X207391351Y-87534683D01*
X207396228Y-87521054D01*
X207402417Y-87507969D01*
X207409858Y-87495553D01*
X207418481Y-87483927D01*
X207428202Y-87473202D01*
X207438927Y-87463481D01*
X207450553Y-87454858D01*
X207462969Y-87447417D01*
X207476054Y-87441228D01*
X207489683Y-87436351D01*
X207503724Y-87432834D01*
X207518042Y-87430710D01*
X207532500Y-87430000D01*
X207827500Y-87430000D01*
X207841958Y-87430710D01*
G37*
G36*
X207841958Y-88530710D02*
G01*
X207856276Y-88532834D01*
X207870317Y-88536351D01*
X207883946Y-88541228D01*
X207897031Y-88547417D01*
X207909447Y-88554858D01*
X207921073Y-88563481D01*
X207931798Y-88573202D01*
X207941519Y-88583927D01*
X207950142Y-88595553D01*
X207957583Y-88607969D01*
X207963772Y-88621054D01*
X207968649Y-88634683D01*
X207972166Y-88648724D01*
X207974290Y-88663042D01*
X207975000Y-88677500D01*
X207975000Y-89022500D01*
X207974290Y-89036958D01*
X207972166Y-89051276D01*
X207968649Y-89065317D01*
X207963772Y-89078946D01*
X207957583Y-89092031D01*
X207950142Y-89104447D01*
X207941519Y-89116073D01*
X207931798Y-89126798D01*
X207921073Y-89136519D01*
X207909447Y-89145142D01*
X207897031Y-89152583D01*
X207883946Y-89158772D01*
X207870317Y-89163649D01*
X207856276Y-89167166D01*
X207841958Y-89169290D01*
X207827500Y-89170000D01*
X207532500Y-89170000D01*
X207518042Y-89169290D01*
X207503724Y-89167166D01*
X207489683Y-89163649D01*
X207476054Y-89158772D01*
X207462969Y-89152583D01*
X207450553Y-89145142D01*
X207438927Y-89136519D01*
X207428202Y-89126798D01*
X207418481Y-89116073D01*
X207409858Y-89104447D01*
X207402417Y-89092031D01*
X207396228Y-89078946D01*
X207391351Y-89065317D01*
X207387834Y-89051276D01*
X207385710Y-89036958D01*
X207385000Y-89022500D01*
X207385000Y-88677500D01*
X207385710Y-88663042D01*
X207387834Y-88648724D01*
X207391351Y-88634683D01*
X207396228Y-88621054D01*
X207402417Y-88607969D01*
X207409858Y-88595553D01*
X207418481Y-88583927D01*
X207428202Y-88573202D01*
X207438927Y-88563481D01*
X207450553Y-88554858D01*
X207462969Y-88547417D01*
X207476054Y-88541228D01*
X207489683Y-88536351D01*
X207503724Y-88532834D01*
X207518042Y-88530710D01*
X207532500Y-88530000D01*
X207827500Y-88530000D01*
X207841958Y-88530710D01*
G37*
G36*
X208811958Y-88530710D02*
G01*
X208826276Y-88532834D01*
X208840317Y-88536351D01*
X208853946Y-88541228D01*
X208867031Y-88547417D01*
X208879447Y-88554858D01*
X208891073Y-88563481D01*
X208901798Y-88573202D01*
X208911519Y-88583927D01*
X208920142Y-88595553D01*
X208927583Y-88607969D01*
X208933772Y-88621054D01*
X208938649Y-88634683D01*
X208942166Y-88648724D01*
X208944290Y-88663042D01*
X208945000Y-88677500D01*
X208945000Y-89022500D01*
X208944290Y-89036958D01*
X208942166Y-89051276D01*
X208938649Y-89065317D01*
X208933772Y-89078946D01*
X208927583Y-89092031D01*
X208920142Y-89104447D01*
X208911519Y-89116073D01*
X208901798Y-89126798D01*
X208891073Y-89136519D01*
X208879447Y-89145142D01*
X208867031Y-89152583D01*
X208853946Y-89158772D01*
X208840317Y-89163649D01*
X208826276Y-89167166D01*
X208811958Y-89169290D01*
X208797500Y-89170000D01*
X208502500Y-89170000D01*
X208488042Y-89169290D01*
X208473724Y-89167166D01*
X208459683Y-89163649D01*
X208446054Y-89158772D01*
X208432969Y-89152583D01*
X208420553Y-89145142D01*
X208408927Y-89136519D01*
X208398202Y-89126798D01*
X208388481Y-89116073D01*
X208379858Y-89104447D01*
X208372417Y-89092031D01*
X208366228Y-89078946D01*
X208361351Y-89065317D01*
X208357834Y-89051276D01*
X208355710Y-89036958D01*
X208355000Y-89022500D01*
X208355000Y-88677500D01*
X208355710Y-88663042D01*
X208357834Y-88648724D01*
X208361351Y-88634683D01*
X208366228Y-88621054D01*
X208372417Y-88607969D01*
X208379858Y-88595553D01*
X208388481Y-88583927D01*
X208398202Y-88573202D01*
X208408927Y-88563481D01*
X208420553Y-88554858D01*
X208432969Y-88547417D01*
X208446054Y-88541228D01*
X208459683Y-88536351D01*
X208473724Y-88532834D01*
X208488042Y-88530710D01*
X208502500Y-88530000D01*
X208797500Y-88530000D01*
X208811958Y-88530710D01*
G37*
D12*
X214900000Y-81200000D03*
X216300000Y-81200000D03*
D10*
G36*
X211040191Y-82226053D02*
G01*
X211061426Y-82229203D01*
X211082250Y-82234419D01*
X211102462Y-82241651D01*
X211121868Y-82250830D01*
X211140281Y-82261866D01*
X211157524Y-82274654D01*
X211173430Y-82289070D01*
X211187846Y-82304976D01*
X211200634Y-82322219D01*
X211211670Y-82340632D01*
X211220849Y-82360038D01*
X211228081Y-82380250D01*
X211233297Y-82401074D01*
X211236447Y-82422309D01*
X211237500Y-82443750D01*
X211237500Y-82956250D01*
X211236447Y-82977691D01*
X211233297Y-82998926D01*
X211228081Y-83019750D01*
X211220849Y-83039962D01*
X211211670Y-83059368D01*
X211200634Y-83077781D01*
X211187846Y-83095024D01*
X211173430Y-83110930D01*
X211157524Y-83125346D01*
X211140281Y-83138134D01*
X211121868Y-83149170D01*
X211102462Y-83158349D01*
X211082250Y-83165581D01*
X211061426Y-83170797D01*
X211040191Y-83173947D01*
X211018750Y-83175000D01*
X210581250Y-83175000D01*
X210559809Y-83173947D01*
X210538574Y-83170797D01*
X210517750Y-83165581D01*
X210497538Y-83158349D01*
X210478132Y-83149170D01*
X210459719Y-83138134D01*
X210442476Y-83125346D01*
X210426570Y-83110930D01*
X210412154Y-83095024D01*
X210399366Y-83077781D01*
X210388330Y-83059368D01*
X210379151Y-83039962D01*
X210371919Y-83019750D01*
X210366703Y-82998926D01*
X210363553Y-82977691D01*
X210362500Y-82956250D01*
X210362500Y-82443750D01*
X210363553Y-82422309D01*
X210366703Y-82401074D01*
X210371919Y-82380250D01*
X210379151Y-82360038D01*
X210388330Y-82340632D01*
X210399366Y-82322219D01*
X210412154Y-82304976D01*
X210426570Y-82289070D01*
X210442476Y-82274654D01*
X210459719Y-82261866D01*
X210478132Y-82250830D01*
X210497538Y-82241651D01*
X210517750Y-82234419D01*
X210538574Y-82229203D01*
X210559809Y-82226053D01*
X210581250Y-82225000D01*
X211018750Y-82225000D01*
X211040191Y-82226053D01*
G37*
G36*
X209465191Y-82226053D02*
G01*
X209486426Y-82229203D01*
X209507250Y-82234419D01*
X209527462Y-82241651D01*
X209546868Y-82250830D01*
X209565281Y-82261866D01*
X209582524Y-82274654D01*
X209598430Y-82289070D01*
X209612846Y-82304976D01*
X209625634Y-82322219D01*
X209636670Y-82340632D01*
X209645849Y-82360038D01*
X209653081Y-82380250D01*
X209658297Y-82401074D01*
X209661447Y-82422309D01*
X209662500Y-82443750D01*
X209662500Y-82956250D01*
X209661447Y-82977691D01*
X209658297Y-82998926D01*
X209653081Y-83019750D01*
X209645849Y-83039962D01*
X209636670Y-83059368D01*
X209625634Y-83077781D01*
X209612846Y-83095024D01*
X209598430Y-83110930D01*
X209582524Y-83125346D01*
X209565281Y-83138134D01*
X209546868Y-83149170D01*
X209527462Y-83158349D01*
X209507250Y-83165581D01*
X209486426Y-83170797D01*
X209465191Y-83173947D01*
X209443750Y-83175000D01*
X209006250Y-83175000D01*
X208984809Y-83173947D01*
X208963574Y-83170797D01*
X208942750Y-83165581D01*
X208922538Y-83158349D01*
X208903132Y-83149170D01*
X208884719Y-83138134D01*
X208867476Y-83125346D01*
X208851570Y-83110930D01*
X208837154Y-83095024D01*
X208824366Y-83077781D01*
X208813330Y-83059368D01*
X208804151Y-83039962D01*
X208796919Y-83019750D01*
X208791703Y-82998926D01*
X208788553Y-82977691D01*
X208787500Y-82956250D01*
X208787500Y-82443750D01*
X208788553Y-82422309D01*
X208791703Y-82401074D01*
X208796919Y-82380250D01*
X208804151Y-82360038D01*
X208813330Y-82340632D01*
X208824366Y-82322219D01*
X208837154Y-82304976D01*
X208851570Y-82289070D01*
X208867476Y-82274654D01*
X208884719Y-82261866D01*
X208903132Y-82250830D01*
X208922538Y-82241651D01*
X208942750Y-82234419D01*
X208963574Y-82229203D01*
X208984809Y-82226053D01*
X209006250Y-82225000D01*
X209443750Y-82225000D01*
X209465191Y-82226053D01*
G37*
D13*
X221050000Y-84750000D03*
X221050000Y-83350000D03*
X222150000Y-83350000D03*
X222150000Y-84750000D03*
D10*
G36*
X213491958Y-79380710D02*
G01*
X213506276Y-79382834D01*
X213520317Y-79386351D01*
X213533946Y-79391228D01*
X213547031Y-79397417D01*
X213559447Y-79404858D01*
X213571073Y-79413481D01*
X213581798Y-79423202D01*
X213591519Y-79433927D01*
X213600142Y-79445553D01*
X213607583Y-79457969D01*
X213613772Y-79471054D01*
X213618649Y-79484683D01*
X213622166Y-79498724D01*
X213624290Y-79513042D01*
X213625000Y-79527500D01*
X213625000Y-79872500D01*
X213624290Y-79886958D01*
X213622166Y-79901276D01*
X213618649Y-79915317D01*
X213613772Y-79928946D01*
X213607583Y-79942031D01*
X213600142Y-79954447D01*
X213591519Y-79966073D01*
X213581798Y-79976798D01*
X213571073Y-79986519D01*
X213559447Y-79995142D01*
X213547031Y-80002583D01*
X213533946Y-80008772D01*
X213520317Y-80013649D01*
X213506276Y-80017166D01*
X213491958Y-80019290D01*
X213477500Y-80020000D01*
X213182500Y-80020000D01*
X213168042Y-80019290D01*
X213153724Y-80017166D01*
X213139683Y-80013649D01*
X213126054Y-80008772D01*
X213112969Y-80002583D01*
X213100553Y-79995142D01*
X213088927Y-79986519D01*
X213078202Y-79976798D01*
X213068481Y-79966073D01*
X213059858Y-79954447D01*
X213052417Y-79942031D01*
X213046228Y-79928946D01*
X213041351Y-79915317D01*
X213037834Y-79901276D01*
X213035710Y-79886958D01*
X213035000Y-79872500D01*
X213035000Y-79527500D01*
X213035710Y-79513042D01*
X213037834Y-79498724D01*
X213041351Y-79484683D01*
X213046228Y-79471054D01*
X213052417Y-79457969D01*
X213059858Y-79445553D01*
X213068481Y-79433927D01*
X213078202Y-79423202D01*
X213088927Y-79413481D01*
X213100553Y-79404858D01*
X213112969Y-79397417D01*
X213126054Y-79391228D01*
X213139683Y-79386351D01*
X213153724Y-79382834D01*
X213168042Y-79380710D01*
X213182500Y-79380000D01*
X213477500Y-79380000D01*
X213491958Y-79380710D01*
G37*
G36*
X214461958Y-79380710D02*
G01*
X214476276Y-79382834D01*
X214490317Y-79386351D01*
X214503946Y-79391228D01*
X214517031Y-79397417D01*
X214529447Y-79404858D01*
X214541073Y-79413481D01*
X214551798Y-79423202D01*
X214561519Y-79433927D01*
X214570142Y-79445553D01*
X214577583Y-79457969D01*
X214583772Y-79471054D01*
X214588649Y-79484683D01*
X214592166Y-79498724D01*
X214594290Y-79513042D01*
X214595000Y-79527500D01*
X214595000Y-79872500D01*
X214594290Y-79886958D01*
X214592166Y-79901276D01*
X214588649Y-79915317D01*
X214583772Y-79928946D01*
X214577583Y-79942031D01*
X214570142Y-79954447D01*
X214561519Y-79966073D01*
X214551798Y-79976798D01*
X214541073Y-79986519D01*
X214529447Y-79995142D01*
X214517031Y-80002583D01*
X214503946Y-80008772D01*
X214490317Y-80013649D01*
X214476276Y-80017166D01*
X214461958Y-80019290D01*
X214447500Y-80020000D01*
X214152500Y-80020000D01*
X214138042Y-80019290D01*
X214123724Y-80017166D01*
X214109683Y-80013649D01*
X214096054Y-80008772D01*
X214082969Y-80002583D01*
X214070553Y-79995142D01*
X214058927Y-79986519D01*
X214048202Y-79976798D01*
X214038481Y-79966073D01*
X214029858Y-79954447D01*
X214022417Y-79942031D01*
X214016228Y-79928946D01*
X214011351Y-79915317D01*
X214007834Y-79901276D01*
X214005710Y-79886958D01*
X214005000Y-79872500D01*
X214005000Y-79527500D01*
X214005710Y-79513042D01*
X214007834Y-79498724D01*
X214011351Y-79484683D01*
X214016228Y-79471054D01*
X214022417Y-79457969D01*
X214029858Y-79445553D01*
X214038481Y-79433927D01*
X214048202Y-79423202D01*
X214058927Y-79413481D01*
X214070553Y-79404858D01*
X214082969Y-79397417D01*
X214096054Y-79391228D01*
X214109683Y-79386351D01*
X214123724Y-79382834D01*
X214138042Y-79380710D01*
X214152500Y-79380000D01*
X214447500Y-79380000D01*
X214461958Y-79380710D01*
G37*
G36*
X215591958Y-79380710D02*
G01*
X215606276Y-79382834D01*
X215620317Y-79386351D01*
X215633946Y-79391228D01*
X215647031Y-79397417D01*
X215659447Y-79404858D01*
X215671073Y-79413481D01*
X215681798Y-79423202D01*
X215691519Y-79433927D01*
X215700142Y-79445553D01*
X215707583Y-79457969D01*
X215713772Y-79471054D01*
X215718649Y-79484683D01*
X215722166Y-79498724D01*
X215724290Y-79513042D01*
X215725000Y-79527500D01*
X215725000Y-79872500D01*
X215724290Y-79886958D01*
X215722166Y-79901276D01*
X215718649Y-79915317D01*
X215713772Y-79928946D01*
X215707583Y-79942031D01*
X215700142Y-79954447D01*
X215691519Y-79966073D01*
X215681798Y-79976798D01*
X215671073Y-79986519D01*
X215659447Y-79995142D01*
X215647031Y-80002583D01*
X215633946Y-80008772D01*
X215620317Y-80013649D01*
X215606276Y-80017166D01*
X215591958Y-80019290D01*
X215577500Y-80020000D01*
X215282500Y-80020000D01*
X215268042Y-80019290D01*
X215253724Y-80017166D01*
X215239683Y-80013649D01*
X215226054Y-80008772D01*
X215212969Y-80002583D01*
X215200553Y-79995142D01*
X215188927Y-79986519D01*
X215178202Y-79976798D01*
X215168481Y-79966073D01*
X215159858Y-79954447D01*
X215152417Y-79942031D01*
X215146228Y-79928946D01*
X215141351Y-79915317D01*
X215137834Y-79901276D01*
X215135710Y-79886958D01*
X215135000Y-79872500D01*
X215135000Y-79527500D01*
X215135710Y-79513042D01*
X215137834Y-79498724D01*
X215141351Y-79484683D01*
X215146228Y-79471054D01*
X215152417Y-79457969D01*
X215159858Y-79445553D01*
X215168481Y-79433927D01*
X215178202Y-79423202D01*
X215188927Y-79413481D01*
X215200553Y-79404858D01*
X215212969Y-79397417D01*
X215226054Y-79391228D01*
X215239683Y-79386351D01*
X215253724Y-79382834D01*
X215268042Y-79380710D01*
X215282500Y-79380000D01*
X215577500Y-79380000D01*
X215591958Y-79380710D01*
G37*
G36*
X216561958Y-79380710D02*
G01*
X216576276Y-79382834D01*
X216590317Y-79386351D01*
X216603946Y-79391228D01*
X216617031Y-79397417D01*
X216629447Y-79404858D01*
X216641073Y-79413481D01*
X216651798Y-79423202D01*
X216661519Y-79433927D01*
X216670142Y-79445553D01*
X216677583Y-79457969D01*
X216683772Y-79471054D01*
X216688649Y-79484683D01*
X216692166Y-79498724D01*
X216694290Y-79513042D01*
X216695000Y-79527500D01*
X216695000Y-79872500D01*
X216694290Y-79886958D01*
X216692166Y-79901276D01*
X216688649Y-79915317D01*
X216683772Y-79928946D01*
X216677583Y-79942031D01*
X216670142Y-79954447D01*
X216661519Y-79966073D01*
X216651798Y-79976798D01*
X216641073Y-79986519D01*
X216629447Y-79995142D01*
X216617031Y-80002583D01*
X216603946Y-80008772D01*
X216590317Y-80013649D01*
X216576276Y-80017166D01*
X216561958Y-80019290D01*
X216547500Y-80020000D01*
X216252500Y-80020000D01*
X216238042Y-80019290D01*
X216223724Y-80017166D01*
X216209683Y-80013649D01*
X216196054Y-80008772D01*
X216182969Y-80002583D01*
X216170553Y-79995142D01*
X216158927Y-79986519D01*
X216148202Y-79976798D01*
X216138481Y-79966073D01*
X216129858Y-79954447D01*
X216122417Y-79942031D01*
X216116228Y-79928946D01*
X216111351Y-79915317D01*
X216107834Y-79901276D01*
X216105710Y-79886958D01*
X216105000Y-79872500D01*
X216105000Y-79527500D01*
X216105710Y-79513042D01*
X216107834Y-79498724D01*
X216111351Y-79484683D01*
X216116228Y-79471054D01*
X216122417Y-79457969D01*
X216129858Y-79445553D01*
X216138481Y-79433927D01*
X216148202Y-79423202D01*
X216158927Y-79413481D01*
X216170553Y-79404858D01*
X216182969Y-79397417D01*
X216196054Y-79391228D01*
X216209683Y-79386351D01*
X216223724Y-79382834D01*
X216238042Y-79380710D01*
X216252500Y-79380000D01*
X216547500Y-79380000D01*
X216561958Y-79380710D01*
G37*
G36*
X209662500Y-93450000D02*
G01*
X209812500Y-93450000D01*
X210062500Y-93700000D01*
X210062500Y-94125000D01*
X209662500Y-94125000D01*
X209662500Y-93450000D01*
G37*
D14*
X209362500Y-93787500D03*
D10*
G36*
X208662500Y-93700000D02*
G01*
X208912500Y-93450000D01*
X209062500Y-93450000D01*
X209062500Y-94125000D01*
X208662500Y-94125000D01*
X208662500Y-93700000D01*
G37*
G36*
X207887500Y-93450000D02*
G01*
X208562500Y-93450000D01*
X208562500Y-93600000D01*
X208312500Y-93850000D01*
X207887500Y-93850000D01*
X207887500Y-93450000D01*
G37*
D15*
X208225000Y-93150000D03*
X208225000Y-92650000D03*
D10*
G36*
X207887500Y-91950000D02*
G01*
X208312500Y-91950000D01*
X208562500Y-92200000D01*
X208562500Y-92350000D01*
X207887500Y-92350000D01*
X207887500Y-91950000D01*
G37*
G36*
X208662500Y-92100000D02*
G01*
X208662500Y-91675000D01*
X209062500Y-91675000D01*
X209062500Y-92350000D01*
X208912500Y-92350000D01*
X208662500Y-92100000D01*
G37*
D14*
X209362500Y-92012500D03*
D10*
G36*
X209662500Y-91675000D02*
G01*
X210062500Y-91675000D01*
X210062500Y-92100000D01*
X209812500Y-92350000D01*
X209662500Y-92350000D01*
X209662500Y-91675000D01*
G37*
G36*
X210162500Y-92200000D02*
G01*
X210412500Y-91950000D01*
X210837500Y-91950000D01*
X210837500Y-92350000D01*
X210162500Y-92350000D01*
X210162500Y-92200000D01*
G37*
D15*
X210500000Y-92650000D03*
X210500000Y-93150000D03*
D10*
G36*
X210162500Y-93600000D02*
G01*
X210162500Y-93450000D01*
X210837500Y-93450000D01*
X210837500Y-93850000D01*
X210412500Y-93850000D01*
X210162500Y-93600000D01*
G37*
D16*
X211825000Y-96310000D03*
X219575000Y-96310000D03*
X211825000Y-95040000D03*
X219575000Y-95040000D03*
X211825000Y-93770000D03*
X219575000Y-93770000D03*
X211825000Y-92500000D03*
X219575000Y-92500000D03*
D17*
X217590000Y-82100000D03*
X218410000Y-82100000D03*
X217590000Y-81600000D03*
X218410000Y-81600000D03*
X217590000Y-81100000D03*
X218410000Y-81100000D03*
D10*
G36*
X219618626Y-83925301D02*
G01*
X219624693Y-83926201D01*
X219630643Y-83927691D01*
X219636418Y-83929758D01*
X219641962Y-83932380D01*
X219647223Y-83935533D01*
X219652150Y-83939187D01*
X219656694Y-83943306D01*
X219660813Y-83947850D01*
X219664467Y-83952777D01*
X219667620Y-83958038D01*
X219670242Y-83963582D01*
X219672309Y-83969357D01*
X219673799Y-83975307D01*
X219674699Y-83981374D01*
X219675000Y-83987500D01*
X219675000Y-84112500D01*
X219674699Y-84118626D01*
X219673799Y-84124693D01*
X219672309Y-84130643D01*
X219670242Y-84136418D01*
X219667620Y-84141962D01*
X219664467Y-84147223D01*
X219660813Y-84152150D01*
X219656694Y-84156694D01*
X219652150Y-84160813D01*
X219647223Y-84164467D01*
X219641962Y-84167620D01*
X219636418Y-84170242D01*
X219630643Y-84172309D01*
X219624693Y-84173799D01*
X219618626Y-84174699D01*
X219612500Y-84175000D01*
X218862500Y-84175000D01*
X218856374Y-84174699D01*
X218850307Y-84173799D01*
X218844357Y-84172309D01*
X218838582Y-84170242D01*
X218833038Y-84167620D01*
X218827777Y-84164467D01*
X218822850Y-84160813D01*
X218818306Y-84156694D01*
X218814187Y-84152150D01*
X218810533Y-84147223D01*
X218807380Y-84141962D01*
X218804758Y-84136418D01*
X218802691Y-84130643D01*
X218801201Y-84124693D01*
X218800301Y-84118626D01*
X218800000Y-84112500D01*
X218800000Y-83987500D01*
X218800301Y-83981374D01*
X218801201Y-83975307D01*
X218802691Y-83969357D01*
X218804758Y-83963582D01*
X218807380Y-83958038D01*
X218810533Y-83952777D01*
X218814187Y-83947850D01*
X218818306Y-83943306D01*
X218822850Y-83939187D01*
X218827777Y-83935533D01*
X218833038Y-83932380D01*
X218838582Y-83929758D01*
X218844357Y-83927691D01*
X218850307Y-83926201D01*
X218856374Y-83925301D01*
X218862500Y-83925000D01*
X219612500Y-83925000D01*
X219618626Y-83925301D01*
G37*
G36*
X219618626Y-84425301D02*
G01*
X219624693Y-84426201D01*
X219630643Y-84427691D01*
X219636418Y-84429758D01*
X219641962Y-84432380D01*
X219647223Y-84435533D01*
X219652150Y-84439187D01*
X219656694Y-84443306D01*
X219660813Y-84447850D01*
X219664467Y-84452777D01*
X219667620Y-84458038D01*
X219670242Y-84463582D01*
X219672309Y-84469357D01*
X219673799Y-84475307D01*
X219674699Y-84481374D01*
X219675000Y-84487500D01*
X219675000Y-84612500D01*
X219674699Y-84618626D01*
X219673799Y-84624693D01*
X219672309Y-84630643D01*
X219670242Y-84636418D01*
X219667620Y-84641962D01*
X219664467Y-84647223D01*
X219660813Y-84652150D01*
X219656694Y-84656694D01*
X219652150Y-84660813D01*
X219647223Y-84664467D01*
X219641962Y-84667620D01*
X219636418Y-84670242D01*
X219630643Y-84672309D01*
X219624693Y-84673799D01*
X219618626Y-84674699D01*
X219612500Y-84675000D01*
X218862500Y-84675000D01*
X218856374Y-84674699D01*
X218850307Y-84673799D01*
X218844357Y-84672309D01*
X218838582Y-84670242D01*
X218833038Y-84667620D01*
X218827777Y-84664467D01*
X218822850Y-84660813D01*
X218818306Y-84656694D01*
X218814187Y-84652150D01*
X218810533Y-84647223D01*
X218807380Y-84641962D01*
X218804758Y-84636418D01*
X218802691Y-84630643D01*
X218801201Y-84624693D01*
X218800301Y-84618626D01*
X218800000Y-84612500D01*
X218800000Y-84487500D01*
X218800301Y-84481374D01*
X218801201Y-84475307D01*
X218802691Y-84469357D01*
X218804758Y-84463582D01*
X218807380Y-84458038D01*
X218810533Y-84452777D01*
X218814187Y-84447850D01*
X218818306Y-84443306D01*
X218822850Y-84439187D01*
X218827777Y-84435533D01*
X218833038Y-84432380D01*
X218838582Y-84429758D01*
X218844357Y-84427691D01*
X218850307Y-84426201D01*
X218856374Y-84425301D01*
X218862500Y-84425000D01*
X219612500Y-84425000D01*
X219618626Y-84425301D01*
G37*
G36*
X219618626Y-84925301D02*
G01*
X219624693Y-84926201D01*
X219630643Y-84927691D01*
X219636418Y-84929758D01*
X219641962Y-84932380D01*
X219647223Y-84935533D01*
X219652150Y-84939187D01*
X219656694Y-84943306D01*
X219660813Y-84947850D01*
X219664467Y-84952777D01*
X219667620Y-84958038D01*
X219670242Y-84963582D01*
X219672309Y-84969357D01*
X219673799Y-84975307D01*
X219674699Y-84981374D01*
X219675000Y-84987500D01*
X219675000Y-85112500D01*
X219674699Y-85118626D01*
X219673799Y-85124693D01*
X219672309Y-85130643D01*
X219670242Y-85136418D01*
X219667620Y-85141962D01*
X219664467Y-85147223D01*
X219660813Y-85152150D01*
X219656694Y-85156694D01*
X219652150Y-85160813D01*
X219647223Y-85164467D01*
X219641962Y-85167620D01*
X219636418Y-85170242D01*
X219630643Y-85172309D01*
X219624693Y-85173799D01*
X219618626Y-85174699D01*
X219612500Y-85175000D01*
X218862500Y-85175000D01*
X218856374Y-85174699D01*
X218850307Y-85173799D01*
X218844357Y-85172309D01*
X218838582Y-85170242D01*
X218833038Y-85167620D01*
X218827777Y-85164467D01*
X218822850Y-85160813D01*
X218818306Y-85156694D01*
X218814187Y-85152150D01*
X218810533Y-85147223D01*
X218807380Y-85141962D01*
X218804758Y-85136418D01*
X218802691Y-85130643D01*
X218801201Y-85124693D01*
X218800301Y-85118626D01*
X218800000Y-85112500D01*
X218800000Y-84987500D01*
X218800301Y-84981374D01*
X218801201Y-84975307D01*
X218802691Y-84969357D01*
X218804758Y-84963582D01*
X218807380Y-84958038D01*
X218810533Y-84952777D01*
X218814187Y-84947850D01*
X218818306Y-84943306D01*
X218822850Y-84939187D01*
X218827777Y-84935533D01*
X218833038Y-84932380D01*
X218838582Y-84929758D01*
X218844357Y-84927691D01*
X218850307Y-84926201D01*
X218856374Y-84925301D01*
X218862500Y-84925000D01*
X219612500Y-84925000D01*
X219618626Y-84925301D01*
G37*
G36*
X219618626Y-85425301D02*
G01*
X219624693Y-85426201D01*
X219630643Y-85427691D01*
X219636418Y-85429758D01*
X219641962Y-85432380D01*
X219647223Y-85435533D01*
X219652150Y-85439187D01*
X219656694Y-85443306D01*
X219660813Y-85447850D01*
X219664467Y-85452777D01*
X219667620Y-85458038D01*
X219670242Y-85463582D01*
X219672309Y-85469357D01*
X219673799Y-85475307D01*
X219674699Y-85481374D01*
X219675000Y-85487500D01*
X219675000Y-85612500D01*
X219674699Y-85618626D01*
X219673799Y-85624693D01*
X219672309Y-85630643D01*
X219670242Y-85636418D01*
X219667620Y-85641962D01*
X219664467Y-85647223D01*
X219660813Y-85652150D01*
X219656694Y-85656694D01*
X219652150Y-85660813D01*
X219647223Y-85664467D01*
X219641962Y-85667620D01*
X219636418Y-85670242D01*
X219630643Y-85672309D01*
X219624693Y-85673799D01*
X219618626Y-85674699D01*
X219612500Y-85675000D01*
X218862500Y-85675000D01*
X218856374Y-85674699D01*
X218850307Y-85673799D01*
X218844357Y-85672309D01*
X218838582Y-85670242D01*
X218833038Y-85667620D01*
X218827777Y-85664467D01*
X218822850Y-85660813D01*
X218818306Y-85656694D01*
X218814187Y-85652150D01*
X218810533Y-85647223D01*
X218807380Y-85641962D01*
X218804758Y-85636418D01*
X218802691Y-85630643D01*
X218801201Y-85624693D01*
X218800301Y-85618626D01*
X218800000Y-85612500D01*
X218800000Y-85487500D01*
X218800301Y-85481374D01*
X218801201Y-85475307D01*
X218802691Y-85469357D01*
X218804758Y-85463582D01*
X218807380Y-85458038D01*
X218810533Y-85452777D01*
X218814187Y-85447850D01*
X218818306Y-85443306D01*
X218822850Y-85439187D01*
X218827777Y-85435533D01*
X218833038Y-85432380D01*
X218838582Y-85429758D01*
X218844357Y-85427691D01*
X218850307Y-85426201D01*
X218856374Y-85425301D01*
X218862500Y-85425000D01*
X219612500Y-85425000D01*
X219618626Y-85425301D01*
G37*
G36*
X219618626Y-85925301D02*
G01*
X219624693Y-85926201D01*
X219630643Y-85927691D01*
X219636418Y-85929758D01*
X219641962Y-85932380D01*
X219647223Y-85935533D01*
X219652150Y-85939187D01*
X219656694Y-85943306D01*
X219660813Y-85947850D01*
X219664467Y-85952777D01*
X219667620Y-85958038D01*
X219670242Y-85963582D01*
X219672309Y-85969357D01*
X219673799Y-85975307D01*
X219674699Y-85981374D01*
X219675000Y-85987500D01*
X219675000Y-86112500D01*
X219674699Y-86118626D01*
X219673799Y-86124693D01*
X219672309Y-86130643D01*
X219670242Y-86136418D01*
X219667620Y-86141962D01*
X219664467Y-86147223D01*
X219660813Y-86152150D01*
X219656694Y-86156694D01*
X219652150Y-86160813D01*
X219647223Y-86164467D01*
X219641962Y-86167620D01*
X219636418Y-86170242D01*
X219630643Y-86172309D01*
X219624693Y-86173799D01*
X219618626Y-86174699D01*
X219612500Y-86175000D01*
X218862500Y-86175000D01*
X218856374Y-86174699D01*
X218850307Y-86173799D01*
X218844357Y-86172309D01*
X218838582Y-86170242D01*
X218833038Y-86167620D01*
X218827777Y-86164467D01*
X218822850Y-86160813D01*
X218818306Y-86156694D01*
X218814187Y-86152150D01*
X218810533Y-86147223D01*
X218807380Y-86141962D01*
X218804758Y-86136418D01*
X218802691Y-86130643D01*
X218801201Y-86124693D01*
X218800301Y-86118626D01*
X218800000Y-86112500D01*
X218800000Y-85987500D01*
X218800301Y-85981374D01*
X218801201Y-85975307D01*
X218802691Y-85969357D01*
X218804758Y-85963582D01*
X218807380Y-85958038D01*
X218810533Y-85952777D01*
X218814187Y-85947850D01*
X218818306Y-85943306D01*
X218822850Y-85939187D01*
X218827777Y-85935533D01*
X218833038Y-85932380D01*
X218838582Y-85929758D01*
X218844357Y-85927691D01*
X218850307Y-85926201D01*
X218856374Y-85925301D01*
X218862500Y-85925000D01*
X219612500Y-85925000D01*
X219618626Y-85925301D01*
G37*
G36*
X219618626Y-86425301D02*
G01*
X219624693Y-86426201D01*
X219630643Y-86427691D01*
X219636418Y-86429758D01*
X219641962Y-86432380D01*
X219647223Y-86435533D01*
X219652150Y-86439187D01*
X219656694Y-86443306D01*
X219660813Y-86447850D01*
X219664467Y-86452777D01*
X219667620Y-86458038D01*
X219670242Y-86463582D01*
X219672309Y-86469357D01*
X219673799Y-86475307D01*
X219674699Y-86481374D01*
X219675000Y-86487500D01*
X219675000Y-86612500D01*
X219674699Y-86618626D01*
X219673799Y-86624693D01*
X219672309Y-86630643D01*
X219670242Y-86636418D01*
X219667620Y-86641962D01*
X219664467Y-86647223D01*
X219660813Y-86652150D01*
X219656694Y-86656694D01*
X219652150Y-86660813D01*
X219647223Y-86664467D01*
X219641962Y-86667620D01*
X219636418Y-86670242D01*
X219630643Y-86672309D01*
X219624693Y-86673799D01*
X219618626Y-86674699D01*
X219612500Y-86675000D01*
X218862500Y-86675000D01*
X218856374Y-86674699D01*
X218850307Y-86673799D01*
X218844357Y-86672309D01*
X218838582Y-86670242D01*
X218833038Y-86667620D01*
X218827777Y-86664467D01*
X218822850Y-86660813D01*
X218818306Y-86656694D01*
X218814187Y-86652150D01*
X218810533Y-86647223D01*
X218807380Y-86641962D01*
X218804758Y-86636418D01*
X218802691Y-86630643D01*
X218801201Y-86624693D01*
X218800301Y-86618626D01*
X218800000Y-86612500D01*
X218800000Y-86487500D01*
X218800301Y-86481374D01*
X218801201Y-86475307D01*
X218802691Y-86469357D01*
X218804758Y-86463582D01*
X218807380Y-86458038D01*
X218810533Y-86452777D01*
X218814187Y-86447850D01*
X218818306Y-86443306D01*
X218822850Y-86439187D01*
X218827777Y-86435533D01*
X218833038Y-86432380D01*
X218838582Y-86429758D01*
X218844357Y-86427691D01*
X218850307Y-86426201D01*
X218856374Y-86425301D01*
X218862500Y-86425000D01*
X219612500Y-86425000D01*
X219618626Y-86425301D01*
G37*
G36*
X219618626Y-86925301D02*
G01*
X219624693Y-86926201D01*
X219630643Y-86927691D01*
X219636418Y-86929758D01*
X219641962Y-86932380D01*
X219647223Y-86935533D01*
X219652150Y-86939187D01*
X219656694Y-86943306D01*
X219660813Y-86947850D01*
X219664467Y-86952777D01*
X219667620Y-86958038D01*
X219670242Y-86963582D01*
X219672309Y-86969357D01*
X219673799Y-86975307D01*
X219674699Y-86981374D01*
X219675000Y-86987500D01*
X219675000Y-87112500D01*
X219674699Y-87118626D01*
X219673799Y-87124693D01*
X219672309Y-87130643D01*
X219670242Y-87136418D01*
X219667620Y-87141962D01*
X219664467Y-87147223D01*
X219660813Y-87152150D01*
X219656694Y-87156694D01*
X219652150Y-87160813D01*
X219647223Y-87164467D01*
X219641962Y-87167620D01*
X219636418Y-87170242D01*
X219630643Y-87172309D01*
X219624693Y-87173799D01*
X219618626Y-87174699D01*
X219612500Y-87175000D01*
X218862500Y-87175000D01*
X218856374Y-87174699D01*
X218850307Y-87173799D01*
X218844357Y-87172309D01*
X218838582Y-87170242D01*
X218833038Y-87167620D01*
X218827777Y-87164467D01*
X218822850Y-87160813D01*
X218818306Y-87156694D01*
X218814187Y-87152150D01*
X218810533Y-87147223D01*
X218807380Y-87141962D01*
X218804758Y-87136418D01*
X218802691Y-87130643D01*
X218801201Y-87124693D01*
X218800301Y-87118626D01*
X218800000Y-87112500D01*
X218800000Y-86987500D01*
X218800301Y-86981374D01*
X218801201Y-86975307D01*
X218802691Y-86969357D01*
X218804758Y-86963582D01*
X218807380Y-86958038D01*
X218810533Y-86952777D01*
X218814187Y-86947850D01*
X218818306Y-86943306D01*
X218822850Y-86939187D01*
X218827777Y-86935533D01*
X218833038Y-86932380D01*
X218838582Y-86929758D01*
X218844357Y-86927691D01*
X218850307Y-86926201D01*
X218856374Y-86925301D01*
X218862500Y-86925000D01*
X219612500Y-86925000D01*
X219618626Y-86925301D01*
G37*
G36*
X219618626Y-87425301D02*
G01*
X219624693Y-87426201D01*
X219630643Y-87427691D01*
X219636418Y-87429758D01*
X219641962Y-87432380D01*
X219647223Y-87435533D01*
X219652150Y-87439187D01*
X219656694Y-87443306D01*
X219660813Y-87447850D01*
X219664467Y-87452777D01*
X219667620Y-87458038D01*
X219670242Y-87463582D01*
X219672309Y-87469357D01*
X219673799Y-87475307D01*
X219674699Y-87481374D01*
X219675000Y-87487500D01*
X219675000Y-87612500D01*
X219674699Y-87618626D01*
X219673799Y-87624693D01*
X219672309Y-87630643D01*
X219670242Y-87636418D01*
X219667620Y-87641962D01*
X219664467Y-87647223D01*
X219660813Y-87652150D01*
X219656694Y-87656694D01*
X219652150Y-87660813D01*
X219647223Y-87664467D01*
X219641962Y-87667620D01*
X219636418Y-87670242D01*
X219630643Y-87672309D01*
X219624693Y-87673799D01*
X219618626Y-87674699D01*
X219612500Y-87675000D01*
X218862500Y-87675000D01*
X218856374Y-87674699D01*
X218850307Y-87673799D01*
X218844357Y-87672309D01*
X218838582Y-87670242D01*
X218833038Y-87667620D01*
X218827777Y-87664467D01*
X218822850Y-87660813D01*
X218818306Y-87656694D01*
X218814187Y-87652150D01*
X218810533Y-87647223D01*
X218807380Y-87641962D01*
X218804758Y-87636418D01*
X218802691Y-87630643D01*
X218801201Y-87624693D01*
X218800301Y-87618626D01*
X218800000Y-87612500D01*
X218800000Y-87487500D01*
X218800301Y-87481374D01*
X218801201Y-87475307D01*
X218802691Y-87469357D01*
X218804758Y-87463582D01*
X218807380Y-87458038D01*
X218810533Y-87452777D01*
X218814187Y-87447850D01*
X218818306Y-87443306D01*
X218822850Y-87439187D01*
X218827777Y-87435533D01*
X218833038Y-87432380D01*
X218838582Y-87429758D01*
X218844357Y-87427691D01*
X218850307Y-87426201D01*
X218856374Y-87425301D01*
X218862500Y-87425000D01*
X219612500Y-87425000D01*
X219618626Y-87425301D01*
G37*
G36*
X219618626Y-87925301D02*
G01*
X219624693Y-87926201D01*
X219630643Y-87927691D01*
X219636418Y-87929758D01*
X219641962Y-87932380D01*
X219647223Y-87935533D01*
X219652150Y-87939187D01*
X219656694Y-87943306D01*
X219660813Y-87947850D01*
X219664467Y-87952777D01*
X219667620Y-87958038D01*
X219670242Y-87963582D01*
X219672309Y-87969357D01*
X219673799Y-87975307D01*
X219674699Y-87981374D01*
X219675000Y-87987500D01*
X219675000Y-88112500D01*
X219674699Y-88118626D01*
X219673799Y-88124693D01*
X219672309Y-88130643D01*
X219670242Y-88136418D01*
X219667620Y-88141962D01*
X219664467Y-88147223D01*
X219660813Y-88152150D01*
X219656694Y-88156694D01*
X219652150Y-88160813D01*
X219647223Y-88164467D01*
X219641962Y-88167620D01*
X219636418Y-88170242D01*
X219630643Y-88172309D01*
X219624693Y-88173799D01*
X219618626Y-88174699D01*
X219612500Y-88175000D01*
X218862500Y-88175000D01*
X218856374Y-88174699D01*
X218850307Y-88173799D01*
X218844357Y-88172309D01*
X218838582Y-88170242D01*
X218833038Y-88167620D01*
X218827777Y-88164467D01*
X218822850Y-88160813D01*
X218818306Y-88156694D01*
X218814187Y-88152150D01*
X218810533Y-88147223D01*
X218807380Y-88141962D01*
X218804758Y-88136418D01*
X218802691Y-88130643D01*
X218801201Y-88124693D01*
X218800301Y-88118626D01*
X218800000Y-88112500D01*
X218800000Y-87987500D01*
X218800301Y-87981374D01*
X218801201Y-87975307D01*
X218802691Y-87969357D01*
X218804758Y-87963582D01*
X218807380Y-87958038D01*
X218810533Y-87952777D01*
X218814187Y-87947850D01*
X218818306Y-87943306D01*
X218822850Y-87939187D01*
X218827777Y-87935533D01*
X218833038Y-87932380D01*
X218838582Y-87929758D01*
X218844357Y-87927691D01*
X218850307Y-87926201D01*
X218856374Y-87925301D01*
X218862500Y-87925000D01*
X219612500Y-87925000D01*
X219618626Y-87925301D01*
G37*
G36*
X219618626Y-88425301D02*
G01*
X219624693Y-88426201D01*
X219630643Y-88427691D01*
X219636418Y-88429758D01*
X219641962Y-88432380D01*
X219647223Y-88435533D01*
X219652150Y-88439187D01*
X219656694Y-88443306D01*
X219660813Y-88447850D01*
X219664467Y-88452777D01*
X219667620Y-88458038D01*
X219670242Y-88463582D01*
X219672309Y-88469357D01*
X219673799Y-88475307D01*
X219674699Y-88481374D01*
X219675000Y-88487500D01*
X219675000Y-88612500D01*
X219674699Y-88618626D01*
X219673799Y-88624693D01*
X219672309Y-88630643D01*
X219670242Y-88636418D01*
X219667620Y-88641962D01*
X219664467Y-88647223D01*
X219660813Y-88652150D01*
X219656694Y-88656694D01*
X219652150Y-88660813D01*
X219647223Y-88664467D01*
X219641962Y-88667620D01*
X219636418Y-88670242D01*
X219630643Y-88672309D01*
X219624693Y-88673799D01*
X219618626Y-88674699D01*
X219612500Y-88675000D01*
X218862500Y-88675000D01*
X218856374Y-88674699D01*
X218850307Y-88673799D01*
X218844357Y-88672309D01*
X218838582Y-88670242D01*
X218833038Y-88667620D01*
X218827777Y-88664467D01*
X218822850Y-88660813D01*
X218818306Y-88656694D01*
X218814187Y-88652150D01*
X218810533Y-88647223D01*
X218807380Y-88641962D01*
X218804758Y-88636418D01*
X218802691Y-88630643D01*
X218801201Y-88624693D01*
X218800301Y-88618626D01*
X218800000Y-88612500D01*
X218800000Y-88487500D01*
X218800301Y-88481374D01*
X218801201Y-88475307D01*
X218802691Y-88469357D01*
X218804758Y-88463582D01*
X218807380Y-88458038D01*
X218810533Y-88452777D01*
X218814187Y-88447850D01*
X218818306Y-88443306D01*
X218822850Y-88439187D01*
X218827777Y-88435533D01*
X218833038Y-88432380D01*
X218838582Y-88429758D01*
X218844357Y-88427691D01*
X218850307Y-88426201D01*
X218856374Y-88425301D01*
X218862500Y-88425000D01*
X219612500Y-88425000D01*
X219618626Y-88425301D01*
G37*
G36*
X219618626Y-88925301D02*
G01*
X219624693Y-88926201D01*
X219630643Y-88927691D01*
X219636418Y-88929758D01*
X219641962Y-88932380D01*
X219647223Y-88935533D01*
X219652150Y-88939187D01*
X219656694Y-88943306D01*
X219660813Y-88947850D01*
X219664467Y-88952777D01*
X219667620Y-88958038D01*
X219670242Y-88963582D01*
X219672309Y-88969357D01*
X219673799Y-88975307D01*
X219674699Y-88981374D01*
X219675000Y-88987500D01*
X219675000Y-89112500D01*
X219674699Y-89118626D01*
X219673799Y-89124693D01*
X219672309Y-89130643D01*
X219670242Y-89136418D01*
X219667620Y-89141962D01*
X219664467Y-89147223D01*
X219660813Y-89152150D01*
X219656694Y-89156694D01*
X219652150Y-89160813D01*
X219647223Y-89164467D01*
X219641962Y-89167620D01*
X219636418Y-89170242D01*
X219630643Y-89172309D01*
X219624693Y-89173799D01*
X219618626Y-89174699D01*
X219612500Y-89175000D01*
X218862500Y-89175000D01*
X218856374Y-89174699D01*
X218850307Y-89173799D01*
X218844357Y-89172309D01*
X218838582Y-89170242D01*
X218833038Y-89167620D01*
X218827777Y-89164467D01*
X218822850Y-89160813D01*
X218818306Y-89156694D01*
X218814187Y-89152150D01*
X218810533Y-89147223D01*
X218807380Y-89141962D01*
X218804758Y-89136418D01*
X218802691Y-89130643D01*
X218801201Y-89124693D01*
X218800301Y-89118626D01*
X218800000Y-89112500D01*
X218800000Y-88987500D01*
X218800301Y-88981374D01*
X218801201Y-88975307D01*
X218802691Y-88969357D01*
X218804758Y-88963582D01*
X218807380Y-88958038D01*
X218810533Y-88952777D01*
X218814187Y-88947850D01*
X218818306Y-88943306D01*
X218822850Y-88939187D01*
X218827777Y-88935533D01*
X218833038Y-88932380D01*
X218838582Y-88929758D01*
X218844357Y-88927691D01*
X218850307Y-88926201D01*
X218856374Y-88925301D01*
X218862500Y-88925000D01*
X219612500Y-88925000D01*
X219618626Y-88925301D01*
G37*
G36*
X219618626Y-89425301D02*
G01*
X219624693Y-89426201D01*
X219630643Y-89427691D01*
X219636418Y-89429758D01*
X219641962Y-89432380D01*
X219647223Y-89435533D01*
X219652150Y-89439187D01*
X219656694Y-89443306D01*
X219660813Y-89447850D01*
X219664467Y-89452777D01*
X219667620Y-89458038D01*
X219670242Y-89463582D01*
X219672309Y-89469357D01*
X219673799Y-89475307D01*
X219674699Y-89481374D01*
X219675000Y-89487500D01*
X219675000Y-89612500D01*
X219674699Y-89618626D01*
X219673799Y-89624693D01*
X219672309Y-89630643D01*
X219670242Y-89636418D01*
X219667620Y-89641962D01*
X219664467Y-89647223D01*
X219660813Y-89652150D01*
X219656694Y-89656694D01*
X219652150Y-89660813D01*
X219647223Y-89664467D01*
X219641962Y-89667620D01*
X219636418Y-89670242D01*
X219630643Y-89672309D01*
X219624693Y-89673799D01*
X219618626Y-89674699D01*
X219612500Y-89675000D01*
X218862500Y-89675000D01*
X218856374Y-89674699D01*
X218850307Y-89673799D01*
X218844357Y-89672309D01*
X218838582Y-89670242D01*
X218833038Y-89667620D01*
X218827777Y-89664467D01*
X218822850Y-89660813D01*
X218818306Y-89656694D01*
X218814187Y-89652150D01*
X218810533Y-89647223D01*
X218807380Y-89641962D01*
X218804758Y-89636418D01*
X218802691Y-89630643D01*
X218801201Y-89624693D01*
X218800301Y-89618626D01*
X218800000Y-89612500D01*
X218800000Y-89487500D01*
X218800301Y-89481374D01*
X218801201Y-89475307D01*
X218802691Y-89469357D01*
X218804758Y-89463582D01*
X218807380Y-89458038D01*
X218810533Y-89452777D01*
X218814187Y-89447850D01*
X218818306Y-89443306D01*
X218822850Y-89439187D01*
X218827777Y-89435533D01*
X218833038Y-89432380D01*
X218838582Y-89429758D01*
X218844357Y-89427691D01*
X218850307Y-89426201D01*
X218856374Y-89425301D01*
X218862500Y-89425000D01*
X219612500Y-89425000D01*
X219618626Y-89425301D01*
G37*
G36*
X218618626Y-89800301D02*
G01*
X218624693Y-89801201D01*
X218630643Y-89802691D01*
X218636418Y-89804758D01*
X218641962Y-89807380D01*
X218647223Y-89810533D01*
X218652150Y-89814187D01*
X218656694Y-89818306D01*
X218660813Y-89822850D01*
X218664467Y-89827777D01*
X218667620Y-89833038D01*
X218670242Y-89838582D01*
X218672309Y-89844357D01*
X218673799Y-89850307D01*
X218674699Y-89856374D01*
X218675000Y-89862500D01*
X218675000Y-90612500D01*
X218674699Y-90618626D01*
X218673799Y-90624693D01*
X218672309Y-90630643D01*
X218670242Y-90636418D01*
X218667620Y-90641962D01*
X218664467Y-90647223D01*
X218660813Y-90652150D01*
X218656694Y-90656694D01*
X218652150Y-90660813D01*
X218647223Y-90664467D01*
X218641962Y-90667620D01*
X218636418Y-90670242D01*
X218630643Y-90672309D01*
X218624693Y-90673799D01*
X218618626Y-90674699D01*
X218612500Y-90675000D01*
X218487500Y-90675000D01*
X218481374Y-90674699D01*
X218475307Y-90673799D01*
X218469357Y-90672309D01*
X218463582Y-90670242D01*
X218458038Y-90667620D01*
X218452777Y-90664467D01*
X218447850Y-90660813D01*
X218443306Y-90656694D01*
X218439187Y-90652150D01*
X218435533Y-90647223D01*
X218432380Y-90641962D01*
X218429758Y-90636418D01*
X218427691Y-90630643D01*
X218426201Y-90624693D01*
X218425301Y-90618626D01*
X218425000Y-90612500D01*
X218425000Y-89862500D01*
X218425301Y-89856374D01*
X218426201Y-89850307D01*
X218427691Y-89844357D01*
X218429758Y-89838582D01*
X218432380Y-89833038D01*
X218435533Y-89827777D01*
X218439187Y-89822850D01*
X218443306Y-89818306D01*
X218447850Y-89814187D01*
X218452777Y-89810533D01*
X218458038Y-89807380D01*
X218463582Y-89804758D01*
X218469357Y-89802691D01*
X218475307Y-89801201D01*
X218481374Y-89800301D01*
X218487500Y-89800000D01*
X218612500Y-89800000D01*
X218618626Y-89800301D01*
G37*
G36*
X218118626Y-89800301D02*
G01*
X218124693Y-89801201D01*
X218130643Y-89802691D01*
X218136418Y-89804758D01*
X218141962Y-89807380D01*
X218147223Y-89810533D01*
X218152150Y-89814187D01*
X218156694Y-89818306D01*
X218160813Y-89822850D01*
X218164467Y-89827777D01*
X218167620Y-89833038D01*
X218170242Y-89838582D01*
X218172309Y-89844357D01*
X218173799Y-89850307D01*
X218174699Y-89856374D01*
X218175000Y-89862500D01*
X218175000Y-90612500D01*
X218174699Y-90618626D01*
X218173799Y-90624693D01*
X218172309Y-90630643D01*
X218170242Y-90636418D01*
X218167620Y-90641962D01*
X218164467Y-90647223D01*
X218160813Y-90652150D01*
X218156694Y-90656694D01*
X218152150Y-90660813D01*
X218147223Y-90664467D01*
X218141962Y-90667620D01*
X218136418Y-90670242D01*
X218130643Y-90672309D01*
X218124693Y-90673799D01*
X218118626Y-90674699D01*
X218112500Y-90675000D01*
X217987500Y-90675000D01*
X217981374Y-90674699D01*
X217975307Y-90673799D01*
X217969357Y-90672309D01*
X217963582Y-90670242D01*
X217958038Y-90667620D01*
X217952777Y-90664467D01*
X217947850Y-90660813D01*
X217943306Y-90656694D01*
X217939187Y-90652150D01*
X217935533Y-90647223D01*
X217932380Y-90641962D01*
X217929758Y-90636418D01*
X217927691Y-90630643D01*
X217926201Y-90624693D01*
X217925301Y-90618626D01*
X217925000Y-90612500D01*
X217925000Y-89862500D01*
X217925301Y-89856374D01*
X217926201Y-89850307D01*
X217927691Y-89844357D01*
X217929758Y-89838582D01*
X217932380Y-89833038D01*
X217935533Y-89827777D01*
X217939187Y-89822850D01*
X217943306Y-89818306D01*
X217947850Y-89814187D01*
X217952777Y-89810533D01*
X217958038Y-89807380D01*
X217963582Y-89804758D01*
X217969357Y-89802691D01*
X217975307Y-89801201D01*
X217981374Y-89800301D01*
X217987500Y-89800000D01*
X218112500Y-89800000D01*
X218118626Y-89800301D01*
G37*
G36*
X217618626Y-89800301D02*
G01*
X217624693Y-89801201D01*
X217630643Y-89802691D01*
X217636418Y-89804758D01*
X217641962Y-89807380D01*
X217647223Y-89810533D01*
X217652150Y-89814187D01*
X217656694Y-89818306D01*
X217660813Y-89822850D01*
X217664467Y-89827777D01*
X217667620Y-89833038D01*
X217670242Y-89838582D01*
X217672309Y-89844357D01*
X217673799Y-89850307D01*
X217674699Y-89856374D01*
X217675000Y-89862500D01*
X217675000Y-90612500D01*
X217674699Y-90618626D01*
X217673799Y-90624693D01*
X217672309Y-90630643D01*
X217670242Y-90636418D01*
X217667620Y-90641962D01*
X217664467Y-90647223D01*
X217660813Y-90652150D01*
X217656694Y-90656694D01*
X217652150Y-90660813D01*
X217647223Y-90664467D01*
X217641962Y-90667620D01*
X217636418Y-90670242D01*
X217630643Y-90672309D01*
X217624693Y-90673799D01*
X217618626Y-90674699D01*
X217612500Y-90675000D01*
X217487500Y-90675000D01*
X217481374Y-90674699D01*
X217475307Y-90673799D01*
X217469357Y-90672309D01*
X217463582Y-90670242D01*
X217458038Y-90667620D01*
X217452777Y-90664467D01*
X217447850Y-90660813D01*
X217443306Y-90656694D01*
X217439187Y-90652150D01*
X217435533Y-90647223D01*
X217432380Y-90641962D01*
X217429758Y-90636418D01*
X217427691Y-90630643D01*
X217426201Y-90624693D01*
X217425301Y-90618626D01*
X217425000Y-90612500D01*
X217425000Y-89862500D01*
X217425301Y-89856374D01*
X217426201Y-89850307D01*
X217427691Y-89844357D01*
X217429758Y-89838582D01*
X217432380Y-89833038D01*
X217435533Y-89827777D01*
X217439187Y-89822850D01*
X217443306Y-89818306D01*
X217447850Y-89814187D01*
X217452777Y-89810533D01*
X217458038Y-89807380D01*
X217463582Y-89804758D01*
X217469357Y-89802691D01*
X217475307Y-89801201D01*
X217481374Y-89800301D01*
X217487500Y-89800000D01*
X217612500Y-89800000D01*
X217618626Y-89800301D01*
G37*
G36*
X217118626Y-89800301D02*
G01*
X217124693Y-89801201D01*
X217130643Y-89802691D01*
X217136418Y-89804758D01*
X217141962Y-89807380D01*
X217147223Y-89810533D01*
X217152150Y-89814187D01*
X217156694Y-89818306D01*
X217160813Y-89822850D01*
X217164467Y-89827777D01*
X217167620Y-89833038D01*
X217170242Y-89838582D01*
X217172309Y-89844357D01*
X217173799Y-89850307D01*
X217174699Y-89856374D01*
X217175000Y-89862500D01*
X217175000Y-90612500D01*
X217174699Y-90618626D01*
X217173799Y-90624693D01*
X217172309Y-90630643D01*
X217170242Y-90636418D01*
X217167620Y-90641962D01*
X217164467Y-90647223D01*
X217160813Y-90652150D01*
X217156694Y-90656694D01*
X217152150Y-90660813D01*
X217147223Y-90664467D01*
X217141962Y-90667620D01*
X217136418Y-90670242D01*
X217130643Y-90672309D01*
X217124693Y-90673799D01*
X217118626Y-90674699D01*
X217112500Y-90675000D01*
X216987500Y-90675000D01*
X216981374Y-90674699D01*
X216975307Y-90673799D01*
X216969357Y-90672309D01*
X216963582Y-90670242D01*
X216958038Y-90667620D01*
X216952777Y-90664467D01*
X216947850Y-90660813D01*
X216943306Y-90656694D01*
X216939187Y-90652150D01*
X216935533Y-90647223D01*
X216932380Y-90641962D01*
X216929758Y-90636418D01*
X216927691Y-90630643D01*
X216926201Y-90624693D01*
X216925301Y-90618626D01*
X216925000Y-90612500D01*
X216925000Y-89862500D01*
X216925301Y-89856374D01*
X216926201Y-89850307D01*
X216927691Y-89844357D01*
X216929758Y-89838582D01*
X216932380Y-89833038D01*
X216935533Y-89827777D01*
X216939187Y-89822850D01*
X216943306Y-89818306D01*
X216947850Y-89814187D01*
X216952777Y-89810533D01*
X216958038Y-89807380D01*
X216963582Y-89804758D01*
X216969357Y-89802691D01*
X216975307Y-89801201D01*
X216981374Y-89800301D01*
X216987500Y-89800000D01*
X217112500Y-89800000D01*
X217118626Y-89800301D01*
G37*
G36*
X216618626Y-89800301D02*
G01*
X216624693Y-89801201D01*
X216630643Y-89802691D01*
X216636418Y-89804758D01*
X216641962Y-89807380D01*
X216647223Y-89810533D01*
X216652150Y-89814187D01*
X216656694Y-89818306D01*
X216660813Y-89822850D01*
X216664467Y-89827777D01*
X216667620Y-89833038D01*
X216670242Y-89838582D01*
X216672309Y-89844357D01*
X216673799Y-89850307D01*
X216674699Y-89856374D01*
X216675000Y-89862500D01*
X216675000Y-90612500D01*
X216674699Y-90618626D01*
X216673799Y-90624693D01*
X216672309Y-90630643D01*
X216670242Y-90636418D01*
X216667620Y-90641962D01*
X216664467Y-90647223D01*
X216660813Y-90652150D01*
X216656694Y-90656694D01*
X216652150Y-90660813D01*
X216647223Y-90664467D01*
X216641962Y-90667620D01*
X216636418Y-90670242D01*
X216630643Y-90672309D01*
X216624693Y-90673799D01*
X216618626Y-90674699D01*
X216612500Y-90675000D01*
X216487500Y-90675000D01*
X216481374Y-90674699D01*
X216475307Y-90673799D01*
X216469357Y-90672309D01*
X216463582Y-90670242D01*
X216458038Y-90667620D01*
X216452777Y-90664467D01*
X216447850Y-90660813D01*
X216443306Y-90656694D01*
X216439187Y-90652150D01*
X216435533Y-90647223D01*
X216432380Y-90641962D01*
X216429758Y-90636418D01*
X216427691Y-90630643D01*
X216426201Y-90624693D01*
X216425301Y-90618626D01*
X216425000Y-90612500D01*
X216425000Y-89862500D01*
X216425301Y-89856374D01*
X216426201Y-89850307D01*
X216427691Y-89844357D01*
X216429758Y-89838582D01*
X216432380Y-89833038D01*
X216435533Y-89827777D01*
X216439187Y-89822850D01*
X216443306Y-89818306D01*
X216447850Y-89814187D01*
X216452777Y-89810533D01*
X216458038Y-89807380D01*
X216463582Y-89804758D01*
X216469357Y-89802691D01*
X216475307Y-89801201D01*
X216481374Y-89800301D01*
X216487500Y-89800000D01*
X216612500Y-89800000D01*
X216618626Y-89800301D01*
G37*
G36*
X216118626Y-89800301D02*
G01*
X216124693Y-89801201D01*
X216130643Y-89802691D01*
X216136418Y-89804758D01*
X216141962Y-89807380D01*
X216147223Y-89810533D01*
X216152150Y-89814187D01*
X216156694Y-89818306D01*
X216160813Y-89822850D01*
X216164467Y-89827777D01*
X216167620Y-89833038D01*
X216170242Y-89838582D01*
X216172309Y-89844357D01*
X216173799Y-89850307D01*
X216174699Y-89856374D01*
X216175000Y-89862500D01*
X216175000Y-90612500D01*
X216174699Y-90618626D01*
X216173799Y-90624693D01*
X216172309Y-90630643D01*
X216170242Y-90636418D01*
X216167620Y-90641962D01*
X216164467Y-90647223D01*
X216160813Y-90652150D01*
X216156694Y-90656694D01*
X216152150Y-90660813D01*
X216147223Y-90664467D01*
X216141962Y-90667620D01*
X216136418Y-90670242D01*
X216130643Y-90672309D01*
X216124693Y-90673799D01*
X216118626Y-90674699D01*
X216112500Y-90675000D01*
X215987500Y-90675000D01*
X215981374Y-90674699D01*
X215975307Y-90673799D01*
X215969357Y-90672309D01*
X215963582Y-90670242D01*
X215958038Y-90667620D01*
X215952777Y-90664467D01*
X215947850Y-90660813D01*
X215943306Y-90656694D01*
X215939187Y-90652150D01*
X215935533Y-90647223D01*
X215932380Y-90641962D01*
X215929758Y-90636418D01*
X215927691Y-90630643D01*
X215926201Y-90624693D01*
X215925301Y-90618626D01*
X215925000Y-90612500D01*
X215925000Y-89862500D01*
X215925301Y-89856374D01*
X215926201Y-89850307D01*
X215927691Y-89844357D01*
X215929758Y-89838582D01*
X215932380Y-89833038D01*
X215935533Y-89827777D01*
X215939187Y-89822850D01*
X215943306Y-89818306D01*
X215947850Y-89814187D01*
X215952777Y-89810533D01*
X215958038Y-89807380D01*
X215963582Y-89804758D01*
X215969357Y-89802691D01*
X215975307Y-89801201D01*
X215981374Y-89800301D01*
X215987500Y-89800000D01*
X216112500Y-89800000D01*
X216118626Y-89800301D01*
G37*
G36*
X215618626Y-89800301D02*
G01*
X215624693Y-89801201D01*
X215630643Y-89802691D01*
X215636418Y-89804758D01*
X215641962Y-89807380D01*
X215647223Y-89810533D01*
X215652150Y-89814187D01*
X215656694Y-89818306D01*
X215660813Y-89822850D01*
X215664467Y-89827777D01*
X215667620Y-89833038D01*
X215670242Y-89838582D01*
X215672309Y-89844357D01*
X215673799Y-89850307D01*
X215674699Y-89856374D01*
X215675000Y-89862500D01*
X215675000Y-90612500D01*
X215674699Y-90618626D01*
X215673799Y-90624693D01*
X215672309Y-90630643D01*
X215670242Y-90636418D01*
X215667620Y-90641962D01*
X215664467Y-90647223D01*
X215660813Y-90652150D01*
X215656694Y-90656694D01*
X215652150Y-90660813D01*
X215647223Y-90664467D01*
X215641962Y-90667620D01*
X215636418Y-90670242D01*
X215630643Y-90672309D01*
X215624693Y-90673799D01*
X215618626Y-90674699D01*
X215612500Y-90675000D01*
X215487500Y-90675000D01*
X215481374Y-90674699D01*
X215475307Y-90673799D01*
X215469357Y-90672309D01*
X215463582Y-90670242D01*
X215458038Y-90667620D01*
X215452777Y-90664467D01*
X215447850Y-90660813D01*
X215443306Y-90656694D01*
X215439187Y-90652150D01*
X215435533Y-90647223D01*
X215432380Y-90641962D01*
X215429758Y-90636418D01*
X215427691Y-90630643D01*
X215426201Y-90624693D01*
X215425301Y-90618626D01*
X215425000Y-90612500D01*
X215425000Y-89862500D01*
X215425301Y-89856374D01*
X215426201Y-89850307D01*
X215427691Y-89844357D01*
X215429758Y-89838582D01*
X215432380Y-89833038D01*
X215435533Y-89827777D01*
X215439187Y-89822850D01*
X215443306Y-89818306D01*
X215447850Y-89814187D01*
X215452777Y-89810533D01*
X215458038Y-89807380D01*
X215463582Y-89804758D01*
X215469357Y-89802691D01*
X215475307Y-89801201D01*
X215481374Y-89800301D01*
X215487500Y-89800000D01*
X215612500Y-89800000D01*
X215618626Y-89800301D01*
G37*
G36*
X215118626Y-89800301D02*
G01*
X215124693Y-89801201D01*
X215130643Y-89802691D01*
X215136418Y-89804758D01*
X215141962Y-89807380D01*
X215147223Y-89810533D01*
X215152150Y-89814187D01*
X215156694Y-89818306D01*
X215160813Y-89822850D01*
X215164467Y-89827777D01*
X215167620Y-89833038D01*
X215170242Y-89838582D01*
X215172309Y-89844357D01*
X215173799Y-89850307D01*
X215174699Y-89856374D01*
X215175000Y-89862500D01*
X215175000Y-90612500D01*
X215174699Y-90618626D01*
X215173799Y-90624693D01*
X215172309Y-90630643D01*
X215170242Y-90636418D01*
X215167620Y-90641962D01*
X215164467Y-90647223D01*
X215160813Y-90652150D01*
X215156694Y-90656694D01*
X215152150Y-90660813D01*
X215147223Y-90664467D01*
X215141962Y-90667620D01*
X215136418Y-90670242D01*
X215130643Y-90672309D01*
X215124693Y-90673799D01*
X215118626Y-90674699D01*
X215112500Y-90675000D01*
X214987500Y-90675000D01*
X214981374Y-90674699D01*
X214975307Y-90673799D01*
X214969357Y-90672309D01*
X214963582Y-90670242D01*
X214958038Y-90667620D01*
X214952777Y-90664467D01*
X214947850Y-90660813D01*
X214943306Y-90656694D01*
X214939187Y-90652150D01*
X214935533Y-90647223D01*
X214932380Y-90641962D01*
X214929758Y-90636418D01*
X214927691Y-90630643D01*
X214926201Y-90624693D01*
X214925301Y-90618626D01*
X214925000Y-90612500D01*
X214925000Y-89862500D01*
X214925301Y-89856374D01*
X214926201Y-89850307D01*
X214927691Y-89844357D01*
X214929758Y-89838582D01*
X214932380Y-89833038D01*
X214935533Y-89827777D01*
X214939187Y-89822850D01*
X214943306Y-89818306D01*
X214947850Y-89814187D01*
X214952777Y-89810533D01*
X214958038Y-89807380D01*
X214963582Y-89804758D01*
X214969357Y-89802691D01*
X214975307Y-89801201D01*
X214981374Y-89800301D01*
X214987500Y-89800000D01*
X215112500Y-89800000D01*
X215118626Y-89800301D01*
G37*
G36*
X214618626Y-89800301D02*
G01*
X214624693Y-89801201D01*
X214630643Y-89802691D01*
X214636418Y-89804758D01*
X214641962Y-89807380D01*
X214647223Y-89810533D01*
X214652150Y-89814187D01*
X214656694Y-89818306D01*
X214660813Y-89822850D01*
X214664467Y-89827777D01*
X214667620Y-89833038D01*
X214670242Y-89838582D01*
X214672309Y-89844357D01*
X214673799Y-89850307D01*
X214674699Y-89856374D01*
X214675000Y-89862500D01*
X214675000Y-90612500D01*
X214674699Y-90618626D01*
X214673799Y-90624693D01*
X214672309Y-90630643D01*
X214670242Y-90636418D01*
X214667620Y-90641962D01*
X214664467Y-90647223D01*
X214660813Y-90652150D01*
X214656694Y-90656694D01*
X214652150Y-90660813D01*
X214647223Y-90664467D01*
X214641962Y-90667620D01*
X214636418Y-90670242D01*
X214630643Y-90672309D01*
X214624693Y-90673799D01*
X214618626Y-90674699D01*
X214612500Y-90675000D01*
X214487500Y-90675000D01*
X214481374Y-90674699D01*
X214475307Y-90673799D01*
X214469357Y-90672309D01*
X214463582Y-90670242D01*
X214458038Y-90667620D01*
X214452777Y-90664467D01*
X214447850Y-90660813D01*
X214443306Y-90656694D01*
X214439187Y-90652150D01*
X214435533Y-90647223D01*
X214432380Y-90641962D01*
X214429758Y-90636418D01*
X214427691Y-90630643D01*
X214426201Y-90624693D01*
X214425301Y-90618626D01*
X214425000Y-90612500D01*
X214425000Y-89862500D01*
X214425301Y-89856374D01*
X214426201Y-89850307D01*
X214427691Y-89844357D01*
X214429758Y-89838582D01*
X214432380Y-89833038D01*
X214435533Y-89827777D01*
X214439187Y-89822850D01*
X214443306Y-89818306D01*
X214447850Y-89814187D01*
X214452777Y-89810533D01*
X214458038Y-89807380D01*
X214463582Y-89804758D01*
X214469357Y-89802691D01*
X214475307Y-89801201D01*
X214481374Y-89800301D01*
X214487500Y-89800000D01*
X214612500Y-89800000D01*
X214618626Y-89800301D01*
G37*
G36*
X214118626Y-89800301D02*
G01*
X214124693Y-89801201D01*
X214130643Y-89802691D01*
X214136418Y-89804758D01*
X214141962Y-89807380D01*
X214147223Y-89810533D01*
X214152150Y-89814187D01*
X214156694Y-89818306D01*
X214160813Y-89822850D01*
X214164467Y-89827777D01*
X214167620Y-89833038D01*
X214170242Y-89838582D01*
X214172309Y-89844357D01*
X214173799Y-89850307D01*
X214174699Y-89856374D01*
X214175000Y-89862500D01*
X214175000Y-90612500D01*
X214174699Y-90618626D01*
X214173799Y-90624693D01*
X214172309Y-90630643D01*
X214170242Y-90636418D01*
X214167620Y-90641962D01*
X214164467Y-90647223D01*
X214160813Y-90652150D01*
X214156694Y-90656694D01*
X214152150Y-90660813D01*
X214147223Y-90664467D01*
X214141962Y-90667620D01*
X214136418Y-90670242D01*
X214130643Y-90672309D01*
X214124693Y-90673799D01*
X214118626Y-90674699D01*
X214112500Y-90675000D01*
X213987500Y-90675000D01*
X213981374Y-90674699D01*
X213975307Y-90673799D01*
X213969357Y-90672309D01*
X213963582Y-90670242D01*
X213958038Y-90667620D01*
X213952777Y-90664467D01*
X213947850Y-90660813D01*
X213943306Y-90656694D01*
X213939187Y-90652150D01*
X213935533Y-90647223D01*
X213932380Y-90641962D01*
X213929758Y-90636418D01*
X213927691Y-90630643D01*
X213926201Y-90624693D01*
X213925301Y-90618626D01*
X213925000Y-90612500D01*
X213925000Y-89862500D01*
X213925301Y-89856374D01*
X213926201Y-89850307D01*
X213927691Y-89844357D01*
X213929758Y-89838582D01*
X213932380Y-89833038D01*
X213935533Y-89827777D01*
X213939187Y-89822850D01*
X213943306Y-89818306D01*
X213947850Y-89814187D01*
X213952777Y-89810533D01*
X213958038Y-89807380D01*
X213963582Y-89804758D01*
X213969357Y-89802691D01*
X213975307Y-89801201D01*
X213981374Y-89800301D01*
X213987500Y-89800000D01*
X214112500Y-89800000D01*
X214118626Y-89800301D01*
G37*
G36*
X213618626Y-89800301D02*
G01*
X213624693Y-89801201D01*
X213630643Y-89802691D01*
X213636418Y-89804758D01*
X213641962Y-89807380D01*
X213647223Y-89810533D01*
X213652150Y-89814187D01*
X213656694Y-89818306D01*
X213660813Y-89822850D01*
X213664467Y-89827777D01*
X213667620Y-89833038D01*
X213670242Y-89838582D01*
X213672309Y-89844357D01*
X213673799Y-89850307D01*
X213674699Y-89856374D01*
X213675000Y-89862500D01*
X213675000Y-90612500D01*
X213674699Y-90618626D01*
X213673799Y-90624693D01*
X213672309Y-90630643D01*
X213670242Y-90636418D01*
X213667620Y-90641962D01*
X213664467Y-90647223D01*
X213660813Y-90652150D01*
X213656694Y-90656694D01*
X213652150Y-90660813D01*
X213647223Y-90664467D01*
X213641962Y-90667620D01*
X213636418Y-90670242D01*
X213630643Y-90672309D01*
X213624693Y-90673799D01*
X213618626Y-90674699D01*
X213612500Y-90675000D01*
X213487500Y-90675000D01*
X213481374Y-90674699D01*
X213475307Y-90673799D01*
X213469357Y-90672309D01*
X213463582Y-90670242D01*
X213458038Y-90667620D01*
X213452777Y-90664467D01*
X213447850Y-90660813D01*
X213443306Y-90656694D01*
X213439187Y-90652150D01*
X213435533Y-90647223D01*
X213432380Y-90641962D01*
X213429758Y-90636418D01*
X213427691Y-90630643D01*
X213426201Y-90624693D01*
X213425301Y-90618626D01*
X213425000Y-90612500D01*
X213425000Y-89862500D01*
X213425301Y-89856374D01*
X213426201Y-89850307D01*
X213427691Y-89844357D01*
X213429758Y-89838582D01*
X213432380Y-89833038D01*
X213435533Y-89827777D01*
X213439187Y-89822850D01*
X213443306Y-89818306D01*
X213447850Y-89814187D01*
X213452777Y-89810533D01*
X213458038Y-89807380D01*
X213463582Y-89804758D01*
X213469357Y-89802691D01*
X213475307Y-89801201D01*
X213481374Y-89800301D01*
X213487500Y-89800000D01*
X213612500Y-89800000D01*
X213618626Y-89800301D01*
G37*
G36*
X213118626Y-89800301D02*
G01*
X213124693Y-89801201D01*
X213130643Y-89802691D01*
X213136418Y-89804758D01*
X213141962Y-89807380D01*
X213147223Y-89810533D01*
X213152150Y-89814187D01*
X213156694Y-89818306D01*
X213160813Y-89822850D01*
X213164467Y-89827777D01*
X213167620Y-89833038D01*
X213170242Y-89838582D01*
X213172309Y-89844357D01*
X213173799Y-89850307D01*
X213174699Y-89856374D01*
X213175000Y-89862500D01*
X213175000Y-90612500D01*
X213174699Y-90618626D01*
X213173799Y-90624693D01*
X213172309Y-90630643D01*
X213170242Y-90636418D01*
X213167620Y-90641962D01*
X213164467Y-90647223D01*
X213160813Y-90652150D01*
X213156694Y-90656694D01*
X213152150Y-90660813D01*
X213147223Y-90664467D01*
X213141962Y-90667620D01*
X213136418Y-90670242D01*
X213130643Y-90672309D01*
X213124693Y-90673799D01*
X213118626Y-90674699D01*
X213112500Y-90675000D01*
X212987500Y-90675000D01*
X212981374Y-90674699D01*
X212975307Y-90673799D01*
X212969357Y-90672309D01*
X212963582Y-90670242D01*
X212958038Y-90667620D01*
X212952777Y-90664467D01*
X212947850Y-90660813D01*
X212943306Y-90656694D01*
X212939187Y-90652150D01*
X212935533Y-90647223D01*
X212932380Y-90641962D01*
X212929758Y-90636418D01*
X212927691Y-90630643D01*
X212926201Y-90624693D01*
X212925301Y-90618626D01*
X212925000Y-90612500D01*
X212925000Y-89862500D01*
X212925301Y-89856374D01*
X212926201Y-89850307D01*
X212927691Y-89844357D01*
X212929758Y-89838582D01*
X212932380Y-89833038D01*
X212935533Y-89827777D01*
X212939187Y-89822850D01*
X212943306Y-89818306D01*
X212947850Y-89814187D01*
X212952777Y-89810533D01*
X212958038Y-89807380D01*
X212963582Y-89804758D01*
X212969357Y-89802691D01*
X212975307Y-89801201D01*
X212981374Y-89800301D01*
X212987500Y-89800000D01*
X213112500Y-89800000D01*
X213118626Y-89800301D01*
G37*
G36*
X212743626Y-89425301D02*
G01*
X212749693Y-89426201D01*
X212755643Y-89427691D01*
X212761418Y-89429758D01*
X212766962Y-89432380D01*
X212772223Y-89435533D01*
X212777150Y-89439187D01*
X212781694Y-89443306D01*
X212785813Y-89447850D01*
X212789467Y-89452777D01*
X212792620Y-89458038D01*
X212795242Y-89463582D01*
X212797309Y-89469357D01*
X212798799Y-89475307D01*
X212799699Y-89481374D01*
X212800000Y-89487500D01*
X212800000Y-89612500D01*
X212799699Y-89618626D01*
X212798799Y-89624693D01*
X212797309Y-89630643D01*
X212795242Y-89636418D01*
X212792620Y-89641962D01*
X212789467Y-89647223D01*
X212785813Y-89652150D01*
X212781694Y-89656694D01*
X212777150Y-89660813D01*
X212772223Y-89664467D01*
X212766962Y-89667620D01*
X212761418Y-89670242D01*
X212755643Y-89672309D01*
X212749693Y-89673799D01*
X212743626Y-89674699D01*
X212737500Y-89675000D01*
X211987500Y-89675000D01*
X211981374Y-89674699D01*
X211975307Y-89673799D01*
X211969357Y-89672309D01*
X211963582Y-89670242D01*
X211958038Y-89667620D01*
X211952777Y-89664467D01*
X211947850Y-89660813D01*
X211943306Y-89656694D01*
X211939187Y-89652150D01*
X211935533Y-89647223D01*
X211932380Y-89641962D01*
X211929758Y-89636418D01*
X211927691Y-89630643D01*
X211926201Y-89624693D01*
X211925301Y-89618626D01*
X211925000Y-89612500D01*
X211925000Y-89487500D01*
X211925301Y-89481374D01*
X211926201Y-89475307D01*
X211927691Y-89469357D01*
X211929758Y-89463582D01*
X211932380Y-89458038D01*
X211935533Y-89452777D01*
X211939187Y-89447850D01*
X211943306Y-89443306D01*
X211947850Y-89439187D01*
X211952777Y-89435533D01*
X211958038Y-89432380D01*
X211963582Y-89429758D01*
X211969357Y-89427691D01*
X211975307Y-89426201D01*
X211981374Y-89425301D01*
X211987500Y-89425000D01*
X212737500Y-89425000D01*
X212743626Y-89425301D01*
G37*
G36*
X212743626Y-88925301D02*
G01*
X212749693Y-88926201D01*
X212755643Y-88927691D01*
X212761418Y-88929758D01*
X212766962Y-88932380D01*
X212772223Y-88935533D01*
X212777150Y-88939187D01*
X212781694Y-88943306D01*
X212785813Y-88947850D01*
X212789467Y-88952777D01*
X212792620Y-88958038D01*
X212795242Y-88963582D01*
X212797309Y-88969357D01*
X212798799Y-88975307D01*
X212799699Y-88981374D01*
X212800000Y-88987500D01*
X212800000Y-89112500D01*
X212799699Y-89118626D01*
X212798799Y-89124693D01*
X212797309Y-89130643D01*
X212795242Y-89136418D01*
X212792620Y-89141962D01*
X212789467Y-89147223D01*
X212785813Y-89152150D01*
X212781694Y-89156694D01*
X212777150Y-89160813D01*
X212772223Y-89164467D01*
X212766962Y-89167620D01*
X212761418Y-89170242D01*
X212755643Y-89172309D01*
X212749693Y-89173799D01*
X212743626Y-89174699D01*
X212737500Y-89175000D01*
X211987500Y-89175000D01*
X211981374Y-89174699D01*
X211975307Y-89173799D01*
X211969357Y-89172309D01*
X211963582Y-89170242D01*
X211958038Y-89167620D01*
X211952777Y-89164467D01*
X211947850Y-89160813D01*
X211943306Y-89156694D01*
X211939187Y-89152150D01*
X211935533Y-89147223D01*
X211932380Y-89141962D01*
X211929758Y-89136418D01*
X211927691Y-89130643D01*
X211926201Y-89124693D01*
X211925301Y-89118626D01*
X211925000Y-89112500D01*
X211925000Y-88987500D01*
X211925301Y-88981374D01*
X211926201Y-88975307D01*
X211927691Y-88969357D01*
X211929758Y-88963582D01*
X211932380Y-88958038D01*
X211935533Y-88952777D01*
X211939187Y-88947850D01*
X211943306Y-88943306D01*
X211947850Y-88939187D01*
X211952777Y-88935533D01*
X211958038Y-88932380D01*
X211963582Y-88929758D01*
X211969357Y-88927691D01*
X211975307Y-88926201D01*
X211981374Y-88925301D01*
X211987500Y-88925000D01*
X212737500Y-88925000D01*
X212743626Y-88925301D01*
G37*
G36*
X212743626Y-88425301D02*
G01*
X212749693Y-88426201D01*
X212755643Y-88427691D01*
X212761418Y-88429758D01*
X212766962Y-88432380D01*
X212772223Y-88435533D01*
X212777150Y-88439187D01*
X212781694Y-88443306D01*
X212785813Y-88447850D01*
X212789467Y-88452777D01*
X212792620Y-88458038D01*
X212795242Y-88463582D01*
X212797309Y-88469357D01*
X212798799Y-88475307D01*
X212799699Y-88481374D01*
X212800000Y-88487500D01*
X212800000Y-88612500D01*
X212799699Y-88618626D01*
X212798799Y-88624693D01*
X212797309Y-88630643D01*
X212795242Y-88636418D01*
X212792620Y-88641962D01*
X212789467Y-88647223D01*
X212785813Y-88652150D01*
X212781694Y-88656694D01*
X212777150Y-88660813D01*
X212772223Y-88664467D01*
X212766962Y-88667620D01*
X212761418Y-88670242D01*
X212755643Y-88672309D01*
X212749693Y-88673799D01*
X212743626Y-88674699D01*
X212737500Y-88675000D01*
X211987500Y-88675000D01*
X211981374Y-88674699D01*
X211975307Y-88673799D01*
X211969357Y-88672309D01*
X211963582Y-88670242D01*
X211958038Y-88667620D01*
X211952777Y-88664467D01*
X211947850Y-88660813D01*
X211943306Y-88656694D01*
X211939187Y-88652150D01*
X211935533Y-88647223D01*
X211932380Y-88641962D01*
X211929758Y-88636418D01*
X211927691Y-88630643D01*
X211926201Y-88624693D01*
X211925301Y-88618626D01*
X211925000Y-88612500D01*
X211925000Y-88487500D01*
X211925301Y-88481374D01*
X211926201Y-88475307D01*
X211927691Y-88469357D01*
X211929758Y-88463582D01*
X211932380Y-88458038D01*
X211935533Y-88452777D01*
X211939187Y-88447850D01*
X211943306Y-88443306D01*
X211947850Y-88439187D01*
X211952777Y-88435533D01*
X211958038Y-88432380D01*
X211963582Y-88429758D01*
X211969357Y-88427691D01*
X211975307Y-88426201D01*
X211981374Y-88425301D01*
X211987500Y-88425000D01*
X212737500Y-88425000D01*
X212743626Y-88425301D01*
G37*
G36*
X212743626Y-87925301D02*
G01*
X212749693Y-87926201D01*
X212755643Y-87927691D01*
X212761418Y-87929758D01*
X212766962Y-87932380D01*
X212772223Y-87935533D01*
X212777150Y-87939187D01*
X212781694Y-87943306D01*
X212785813Y-87947850D01*
X212789467Y-87952777D01*
X212792620Y-87958038D01*
X212795242Y-87963582D01*
X212797309Y-87969357D01*
X212798799Y-87975307D01*
X212799699Y-87981374D01*
X212800000Y-87987500D01*
X212800000Y-88112500D01*
X212799699Y-88118626D01*
X212798799Y-88124693D01*
X212797309Y-88130643D01*
X212795242Y-88136418D01*
X212792620Y-88141962D01*
X212789467Y-88147223D01*
X212785813Y-88152150D01*
X212781694Y-88156694D01*
X212777150Y-88160813D01*
X212772223Y-88164467D01*
X212766962Y-88167620D01*
X212761418Y-88170242D01*
X212755643Y-88172309D01*
X212749693Y-88173799D01*
X212743626Y-88174699D01*
X212737500Y-88175000D01*
X211987500Y-88175000D01*
X211981374Y-88174699D01*
X211975307Y-88173799D01*
X211969357Y-88172309D01*
X211963582Y-88170242D01*
X211958038Y-88167620D01*
X211952777Y-88164467D01*
X211947850Y-88160813D01*
X211943306Y-88156694D01*
X211939187Y-88152150D01*
X211935533Y-88147223D01*
X211932380Y-88141962D01*
X211929758Y-88136418D01*
X211927691Y-88130643D01*
X211926201Y-88124693D01*
X211925301Y-88118626D01*
X211925000Y-88112500D01*
X211925000Y-87987500D01*
X211925301Y-87981374D01*
X211926201Y-87975307D01*
X211927691Y-87969357D01*
X211929758Y-87963582D01*
X211932380Y-87958038D01*
X211935533Y-87952777D01*
X211939187Y-87947850D01*
X211943306Y-87943306D01*
X211947850Y-87939187D01*
X211952777Y-87935533D01*
X211958038Y-87932380D01*
X211963582Y-87929758D01*
X211969357Y-87927691D01*
X211975307Y-87926201D01*
X211981374Y-87925301D01*
X211987500Y-87925000D01*
X212737500Y-87925000D01*
X212743626Y-87925301D01*
G37*
G36*
X212743626Y-87425301D02*
G01*
X212749693Y-87426201D01*
X212755643Y-87427691D01*
X212761418Y-87429758D01*
X212766962Y-87432380D01*
X212772223Y-87435533D01*
X212777150Y-87439187D01*
X212781694Y-87443306D01*
X212785813Y-87447850D01*
X212789467Y-87452777D01*
X212792620Y-87458038D01*
X212795242Y-87463582D01*
X212797309Y-87469357D01*
X212798799Y-87475307D01*
X212799699Y-87481374D01*
X212800000Y-87487500D01*
X212800000Y-87612500D01*
X212799699Y-87618626D01*
X212798799Y-87624693D01*
X212797309Y-87630643D01*
X212795242Y-87636418D01*
X212792620Y-87641962D01*
X212789467Y-87647223D01*
X212785813Y-87652150D01*
X212781694Y-87656694D01*
X212777150Y-87660813D01*
X212772223Y-87664467D01*
X212766962Y-87667620D01*
X212761418Y-87670242D01*
X212755643Y-87672309D01*
X212749693Y-87673799D01*
X212743626Y-87674699D01*
X212737500Y-87675000D01*
X211987500Y-87675000D01*
X211981374Y-87674699D01*
X211975307Y-87673799D01*
X211969357Y-87672309D01*
X211963582Y-87670242D01*
X211958038Y-87667620D01*
X211952777Y-87664467D01*
X211947850Y-87660813D01*
X211943306Y-87656694D01*
X211939187Y-87652150D01*
X211935533Y-87647223D01*
X211932380Y-87641962D01*
X211929758Y-87636418D01*
X211927691Y-87630643D01*
X211926201Y-87624693D01*
X211925301Y-87618626D01*
X211925000Y-87612500D01*
X211925000Y-87487500D01*
X211925301Y-87481374D01*
X211926201Y-87475307D01*
X211927691Y-87469357D01*
X211929758Y-87463582D01*
X211932380Y-87458038D01*
X211935533Y-87452777D01*
X211939187Y-87447850D01*
X211943306Y-87443306D01*
X211947850Y-87439187D01*
X211952777Y-87435533D01*
X211958038Y-87432380D01*
X211963582Y-87429758D01*
X211969357Y-87427691D01*
X211975307Y-87426201D01*
X211981374Y-87425301D01*
X211987500Y-87425000D01*
X212737500Y-87425000D01*
X212743626Y-87425301D01*
G37*
G36*
X212743626Y-86925301D02*
G01*
X212749693Y-86926201D01*
X212755643Y-86927691D01*
X212761418Y-86929758D01*
X212766962Y-86932380D01*
X212772223Y-86935533D01*
X212777150Y-86939187D01*
X212781694Y-86943306D01*
X212785813Y-86947850D01*
X212789467Y-86952777D01*
X212792620Y-86958038D01*
X212795242Y-86963582D01*
X212797309Y-86969357D01*
X212798799Y-86975307D01*
X212799699Y-86981374D01*
X212800000Y-86987500D01*
X212800000Y-87112500D01*
X212799699Y-87118626D01*
X212798799Y-87124693D01*
X212797309Y-87130643D01*
X212795242Y-87136418D01*
X212792620Y-87141962D01*
X212789467Y-87147223D01*
X212785813Y-87152150D01*
X212781694Y-87156694D01*
X212777150Y-87160813D01*
X212772223Y-87164467D01*
X212766962Y-87167620D01*
X212761418Y-87170242D01*
X212755643Y-87172309D01*
X212749693Y-87173799D01*
X212743626Y-87174699D01*
X212737500Y-87175000D01*
X211987500Y-87175000D01*
X211981374Y-87174699D01*
X211975307Y-87173799D01*
X211969357Y-87172309D01*
X211963582Y-87170242D01*
X211958038Y-87167620D01*
X211952777Y-87164467D01*
X211947850Y-87160813D01*
X211943306Y-87156694D01*
X211939187Y-87152150D01*
X211935533Y-87147223D01*
X211932380Y-87141962D01*
X211929758Y-87136418D01*
X211927691Y-87130643D01*
X211926201Y-87124693D01*
X211925301Y-87118626D01*
X211925000Y-87112500D01*
X211925000Y-86987500D01*
X211925301Y-86981374D01*
X211926201Y-86975307D01*
X211927691Y-86969357D01*
X211929758Y-86963582D01*
X211932380Y-86958038D01*
X211935533Y-86952777D01*
X211939187Y-86947850D01*
X211943306Y-86943306D01*
X211947850Y-86939187D01*
X211952777Y-86935533D01*
X211958038Y-86932380D01*
X211963582Y-86929758D01*
X211969357Y-86927691D01*
X211975307Y-86926201D01*
X211981374Y-86925301D01*
X211987500Y-86925000D01*
X212737500Y-86925000D01*
X212743626Y-86925301D01*
G37*
G36*
X212743626Y-86425301D02*
G01*
X212749693Y-86426201D01*
X212755643Y-86427691D01*
X212761418Y-86429758D01*
X212766962Y-86432380D01*
X212772223Y-86435533D01*
X212777150Y-86439187D01*
X212781694Y-86443306D01*
X212785813Y-86447850D01*
X212789467Y-86452777D01*
X212792620Y-86458038D01*
X212795242Y-86463582D01*
X212797309Y-86469357D01*
X212798799Y-86475307D01*
X212799699Y-86481374D01*
X212800000Y-86487500D01*
X212800000Y-86612500D01*
X212799699Y-86618626D01*
X212798799Y-86624693D01*
X212797309Y-86630643D01*
X212795242Y-86636418D01*
X212792620Y-86641962D01*
X212789467Y-86647223D01*
X212785813Y-86652150D01*
X212781694Y-86656694D01*
X212777150Y-86660813D01*
X212772223Y-86664467D01*
X212766962Y-86667620D01*
X212761418Y-86670242D01*
X212755643Y-86672309D01*
X212749693Y-86673799D01*
X212743626Y-86674699D01*
X212737500Y-86675000D01*
X211987500Y-86675000D01*
X211981374Y-86674699D01*
X211975307Y-86673799D01*
X211969357Y-86672309D01*
X211963582Y-86670242D01*
X211958038Y-86667620D01*
X211952777Y-86664467D01*
X211947850Y-86660813D01*
X211943306Y-86656694D01*
X211939187Y-86652150D01*
X211935533Y-86647223D01*
X211932380Y-86641962D01*
X211929758Y-86636418D01*
X211927691Y-86630643D01*
X211926201Y-86624693D01*
X211925301Y-86618626D01*
X211925000Y-86612500D01*
X211925000Y-86487500D01*
X211925301Y-86481374D01*
X211926201Y-86475307D01*
X211927691Y-86469357D01*
X211929758Y-86463582D01*
X211932380Y-86458038D01*
X211935533Y-86452777D01*
X211939187Y-86447850D01*
X211943306Y-86443306D01*
X211947850Y-86439187D01*
X211952777Y-86435533D01*
X211958038Y-86432380D01*
X211963582Y-86429758D01*
X211969357Y-86427691D01*
X211975307Y-86426201D01*
X211981374Y-86425301D01*
X211987500Y-86425000D01*
X212737500Y-86425000D01*
X212743626Y-86425301D01*
G37*
G36*
X212743626Y-85925301D02*
G01*
X212749693Y-85926201D01*
X212755643Y-85927691D01*
X212761418Y-85929758D01*
X212766962Y-85932380D01*
X212772223Y-85935533D01*
X212777150Y-85939187D01*
X212781694Y-85943306D01*
X212785813Y-85947850D01*
X212789467Y-85952777D01*
X212792620Y-85958038D01*
X212795242Y-85963582D01*
X212797309Y-85969357D01*
X212798799Y-85975307D01*
X212799699Y-85981374D01*
X212800000Y-85987500D01*
X212800000Y-86112500D01*
X212799699Y-86118626D01*
X212798799Y-86124693D01*
X212797309Y-86130643D01*
X212795242Y-86136418D01*
X212792620Y-86141962D01*
X212789467Y-86147223D01*
X212785813Y-86152150D01*
X212781694Y-86156694D01*
X212777150Y-86160813D01*
X212772223Y-86164467D01*
X212766962Y-86167620D01*
X212761418Y-86170242D01*
X212755643Y-86172309D01*
X212749693Y-86173799D01*
X212743626Y-86174699D01*
X212737500Y-86175000D01*
X211987500Y-86175000D01*
X211981374Y-86174699D01*
X211975307Y-86173799D01*
X211969357Y-86172309D01*
X211963582Y-86170242D01*
X211958038Y-86167620D01*
X211952777Y-86164467D01*
X211947850Y-86160813D01*
X211943306Y-86156694D01*
X211939187Y-86152150D01*
X211935533Y-86147223D01*
X211932380Y-86141962D01*
X211929758Y-86136418D01*
X211927691Y-86130643D01*
X211926201Y-86124693D01*
X211925301Y-86118626D01*
X211925000Y-86112500D01*
X211925000Y-85987500D01*
X211925301Y-85981374D01*
X211926201Y-85975307D01*
X211927691Y-85969357D01*
X211929758Y-85963582D01*
X211932380Y-85958038D01*
X211935533Y-85952777D01*
X211939187Y-85947850D01*
X211943306Y-85943306D01*
X211947850Y-85939187D01*
X211952777Y-85935533D01*
X211958038Y-85932380D01*
X211963582Y-85929758D01*
X211969357Y-85927691D01*
X211975307Y-85926201D01*
X211981374Y-85925301D01*
X211987500Y-85925000D01*
X212737500Y-85925000D01*
X212743626Y-85925301D01*
G37*
G36*
X212743626Y-85425301D02*
G01*
X212749693Y-85426201D01*
X212755643Y-85427691D01*
X212761418Y-85429758D01*
X212766962Y-85432380D01*
X212772223Y-85435533D01*
X212777150Y-85439187D01*
X212781694Y-85443306D01*
X212785813Y-85447850D01*
X212789467Y-85452777D01*
X212792620Y-85458038D01*
X212795242Y-85463582D01*
X212797309Y-85469357D01*
X212798799Y-85475307D01*
X212799699Y-85481374D01*
X212800000Y-85487500D01*
X212800000Y-85612500D01*
X212799699Y-85618626D01*
X212798799Y-85624693D01*
X212797309Y-85630643D01*
X212795242Y-85636418D01*
X212792620Y-85641962D01*
X212789467Y-85647223D01*
X212785813Y-85652150D01*
X212781694Y-85656694D01*
X212777150Y-85660813D01*
X212772223Y-85664467D01*
X212766962Y-85667620D01*
X212761418Y-85670242D01*
X212755643Y-85672309D01*
X212749693Y-85673799D01*
X212743626Y-85674699D01*
X212737500Y-85675000D01*
X211987500Y-85675000D01*
X211981374Y-85674699D01*
X211975307Y-85673799D01*
X211969357Y-85672309D01*
X211963582Y-85670242D01*
X211958038Y-85667620D01*
X211952777Y-85664467D01*
X211947850Y-85660813D01*
X211943306Y-85656694D01*
X211939187Y-85652150D01*
X211935533Y-85647223D01*
X211932380Y-85641962D01*
X211929758Y-85636418D01*
X211927691Y-85630643D01*
X211926201Y-85624693D01*
X211925301Y-85618626D01*
X211925000Y-85612500D01*
X211925000Y-85487500D01*
X211925301Y-85481374D01*
X211926201Y-85475307D01*
X211927691Y-85469357D01*
X211929758Y-85463582D01*
X211932380Y-85458038D01*
X211935533Y-85452777D01*
X211939187Y-85447850D01*
X211943306Y-85443306D01*
X211947850Y-85439187D01*
X211952777Y-85435533D01*
X211958038Y-85432380D01*
X211963582Y-85429758D01*
X211969357Y-85427691D01*
X211975307Y-85426201D01*
X211981374Y-85425301D01*
X211987500Y-85425000D01*
X212737500Y-85425000D01*
X212743626Y-85425301D01*
G37*
G36*
X212743626Y-84925301D02*
G01*
X212749693Y-84926201D01*
X212755643Y-84927691D01*
X212761418Y-84929758D01*
X212766962Y-84932380D01*
X212772223Y-84935533D01*
X212777150Y-84939187D01*
X212781694Y-84943306D01*
X212785813Y-84947850D01*
X212789467Y-84952777D01*
X212792620Y-84958038D01*
X212795242Y-84963582D01*
X212797309Y-84969357D01*
X212798799Y-84975307D01*
X212799699Y-84981374D01*
X212800000Y-84987500D01*
X212800000Y-85112500D01*
X212799699Y-85118626D01*
X212798799Y-85124693D01*
X212797309Y-85130643D01*
X212795242Y-85136418D01*
X212792620Y-85141962D01*
X212789467Y-85147223D01*
X212785813Y-85152150D01*
X212781694Y-85156694D01*
X212777150Y-85160813D01*
X212772223Y-85164467D01*
X212766962Y-85167620D01*
X212761418Y-85170242D01*
X212755643Y-85172309D01*
X212749693Y-85173799D01*
X212743626Y-85174699D01*
X212737500Y-85175000D01*
X211987500Y-85175000D01*
X211981374Y-85174699D01*
X211975307Y-85173799D01*
X211969357Y-85172309D01*
X211963582Y-85170242D01*
X211958038Y-85167620D01*
X211952777Y-85164467D01*
X211947850Y-85160813D01*
X211943306Y-85156694D01*
X211939187Y-85152150D01*
X211935533Y-85147223D01*
X211932380Y-85141962D01*
X211929758Y-85136418D01*
X211927691Y-85130643D01*
X211926201Y-85124693D01*
X211925301Y-85118626D01*
X211925000Y-85112500D01*
X211925000Y-84987500D01*
X211925301Y-84981374D01*
X211926201Y-84975307D01*
X211927691Y-84969357D01*
X211929758Y-84963582D01*
X211932380Y-84958038D01*
X211935533Y-84952777D01*
X211939187Y-84947850D01*
X211943306Y-84943306D01*
X211947850Y-84939187D01*
X211952777Y-84935533D01*
X211958038Y-84932380D01*
X211963582Y-84929758D01*
X211969357Y-84927691D01*
X211975307Y-84926201D01*
X211981374Y-84925301D01*
X211987500Y-84925000D01*
X212737500Y-84925000D01*
X212743626Y-84925301D01*
G37*
G36*
X212743626Y-84425301D02*
G01*
X212749693Y-84426201D01*
X212755643Y-84427691D01*
X212761418Y-84429758D01*
X212766962Y-84432380D01*
X212772223Y-84435533D01*
X212777150Y-84439187D01*
X212781694Y-84443306D01*
X212785813Y-84447850D01*
X212789467Y-84452777D01*
X212792620Y-84458038D01*
X212795242Y-84463582D01*
X212797309Y-84469357D01*
X212798799Y-84475307D01*
X212799699Y-84481374D01*
X212800000Y-84487500D01*
X212800000Y-84612500D01*
X212799699Y-84618626D01*
X212798799Y-84624693D01*
X212797309Y-84630643D01*
X212795242Y-84636418D01*
X212792620Y-84641962D01*
X212789467Y-84647223D01*
X212785813Y-84652150D01*
X212781694Y-84656694D01*
X212777150Y-84660813D01*
X212772223Y-84664467D01*
X212766962Y-84667620D01*
X212761418Y-84670242D01*
X212755643Y-84672309D01*
X212749693Y-84673799D01*
X212743626Y-84674699D01*
X212737500Y-84675000D01*
X211987500Y-84675000D01*
X211981374Y-84674699D01*
X211975307Y-84673799D01*
X211969357Y-84672309D01*
X211963582Y-84670242D01*
X211958038Y-84667620D01*
X211952777Y-84664467D01*
X211947850Y-84660813D01*
X211943306Y-84656694D01*
X211939187Y-84652150D01*
X211935533Y-84647223D01*
X211932380Y-84641962D01*
X211929758Y-84636418D01*
X211927691Y-84630643D01*
X211926201Y-84624693D01*
X211925301Y-84618626D01*
X211925000Y-84612500D01*
X211925000Y-84487500D01*
X211925301Y-84481374D01*
X211926201Y-84475307D01*
X211927691Y-84469357D01*
X211929758Y-84463582D01*
X211932380Y-84458038D01*
X211935533Y-84452777D01*
X211939187Y-84447850D01*
X211943306Y-84443306D01*
X211947850Y-84439187D01*
X211952777Y-84435533D01*
X211958038Y-84432380D01*
X211963582Y-84429758D01*
X211969357Y-84427691D01*
X211975307Y-84426201D01*
X211981374Y-84425301D01*
X211987500Y-84425000D01*
X212737500Y-84425000D01*
X212743626Y-84425301D01*
G37*
G36*
X212743626Y-83925301D02*
G01*
X212749693Y-83926201D01*
X212755643Y-83927691D01*
X212761418Y-83929758D01*
X212766962Y-83932380D01*
X212772223Y-83935533D01*
X212777150Y-83939187D01*
X212781694Y-83943306D01*
X212785813Y-83947850D01*
X212789467Y-83952777D01*
X212792620Y-83958038D01*
X212795242Y-83963582D01*
X212797309Y-83969357D01*
X212798799Y-83975307D01*
X212799699Y-83981374D01*
X212800000Y-83987500D01*
X212800000Y-84112500D01*
X212799699Y-84118626D01*
X212798799Y-84124693D01*
X212797309Y-84130643D01*
X212795242Y-84136418D01*
X212792620Y-84141962D01*
X212789467Y-84147223D01*
X212785813Y-84152150D01*
X212781694Y-84156694D01*
X212777150Y-84160813D01*
X212772223Y-84164467D01*
X212766962Y-84167620D01*
X212761418Y-84170242D01*
X212755643Y-84172309D01*
X212749693Y-84173799D01*
X212743626Y-84174699D01*
X212737500Y-84175000D01*
X211987500Y-84175000D01*
X211981374Y-84174699D01*
X211975307Y-84173799D01*
X211969357Y-84172309D01*
X211963582Y-84170242D01*
X211958038Y-84167620D01*
X211952777Y-84164467D01*
X211947850Y-84160813D01*
X211943306Y-84156694D01*
X211939187Y-84152150D01*
X211935533Y-84147223D01*
X211932380Y-84141962D01*
X211929758Y-84136418D01*
X211927691Y-84130643D01*
X211926201Y-84124693D01*
X211925301Y-84118626D01*
X211925000Y-84112500D01*
X211925000Y-83987500D01*
X211925301Y-83981374D01*
X211926201Y-83975307D01*
X211927691Y-83969357D01*
X211929758Y-83963582D01*
X211932380Y-83958038D01*
X211935533Y-83952777D01*
X211939187Y-83947850D01*
X211943306Y-83943306D01*
X211947850Y-83939187D01*
X211952777Y-83935533D01*
X211958038Y-83932380D01*
X211963582Y-83929758D01*
X211969357Y-83927691D01*
X211975307Y-83926201D01*
X211981374Y-83925301D01*
X211987500Y-83925000D01*
X212737500Y-83925000D01*
X212743626Y-83925301D01*
G37*
G36*
X213118626Y-82925301D02*
G01*
X213124693Y-82926201D01*
X213130643Y-82927691D01*
X213136418Y-82929758D01*
X213141962Y-82932380D01*
X213147223Y-82935533D01*
X213152150Y-82939187D01*
X213156694Y-82943306D01*
X213160813Y-82947850D01*
X213164467Y-82952777D01*
X213167620Y-82958038D01*
X213170242Y-82963582D01*
X213172309Y-82969357D01*
X213173799Y-82975307D01*
X213174699Y-82981374D01*
X213175000Y-82987500D01*
X213175000Y-83737500D01*
X213174699Y-83743626D01*
X213173799Y-83749693D01*
X213172309Y-83755643D01*
X213170242Y-83761418D01*
X213167620Y-83766962D01*
X213164467Y-83772223D01*
X213160813Y-83777150D01*
X213156694Y-83781694D01*
X213152150Y-83785813D01*
X213147223Y-83789467D01*
X213141962Y-83792620D01*
X213136418Y-83795242D01*
X213130643Y-83797309D01*
X213124693Y-83798799D01*
X213118626Y-83799699D01*
X213112500Y-83800000D01*
X212987500Y-83800000D01*
X212981374Y-83799699D01*
X212975307Y-83798799D01*
X212969357Y-83797309D01*
X212963582Y-83795242D01*
X212958038Y-83792620D01*
X212952777Y-83789467D01*
X212947850Y-83785813D01*
X212943306Y-83781694D01*
X212939187Y-83777150D01*
X212935533Y-83772223D01*
X212932380Y-83766962D01*
X212929758Y-83761418D01*
X212927691Y-83755643D01*
X212926201Y-83749693D01*
X212925301Y-83743626D01*
X212925000Y-83737500D01*
X212925000Y-82987500D01*
X212925301Y-82981374D01*
X212926201Y-82975307D01*
X212927691Y-82969357D01*
X212929758Y-82963582D01*
X212932380Y-82958038D01*
X212935533Y-82952777D01*
X212939187Y-82947850D01*
X212943306Y-82943306D01*
X212947850Y-82939187D01*
X212952777Y-82935533D01*
X212958038Y-82932380D01*
X212963582Y-82929758D01*
X212969357Y-82927691D01*
X212975307Y-82926201D01*
X212981374Y-82925301D01*
X212987500Y-82925000D01*
X213112500Y-82925000D01*
X213118626Y-82925301D01*
G37*
G36*
X213618626Y-82925301D02*
G01*
X213624693Y-82926201D01*
X213630643Y-82927691D01*
X213636418Y-82929758D01*
X213641962Y-82932380D01*
X213647223Y-82935533D01*
X213652150Y-82939187D01*
X213656694Y-82943306D01*
X213660813Y-82947850D01*
X213664467Y-82952777D01*
X213667620Y-82958038D01*
X213670242Y-82963582D01*
X213672309Y-82969357D01*
X213673799Y-82975307D01*
X213674699Y-82981374D01*
X213675000Y-82987500D01*
X213675000Y-83737500D01*
X213674699Y-83743626D01*
X213673799Y-83749693D01*
X213672309Y-83755643D01*
X213670242Y-83761418D01*
X213667620Y-83766962D01*
X213664467Y-83772223D01*
X213660813Y-83777150D01*
X213656694Y-83781694D01*
X213652150Y-83785813D01*
X213647223Y-83789467D01*
X213641962Y-83792620D01*
X213636418Y-83795242D01*
X213630643Y-83797309D01*
X213624693Y-83798799D01*
X213618626Y-83799699D01*
X213612500Y-83800000D01*
X213487500Y-83800000D01*
X213481374Y-83799699D01*
X213475307Y-83798799D01*
X213469357Y-83797309D01*
X213463582Y-83795242D01*
X213458038Y-83792620D01*
X213452777Y-83789467D01*
X213447850Y-83785813D01*
X213443306Y-83781694D01*
X213439187Y-83777150D01*
X213435533Y-83772223D01*
X213432380Y-83766962D01*
X213429758Y-83761418D01*
X213427691Y-83755643D01*
X213426201Y-83749693D01*
X213425301Y-83743626D01*
X213425000Y-83737500D01*
X213425000Y-82987500D01*
X213425301Y-82981374D01*
X213426201Y-82975307D01*
X213427691Y-82969357D01*
X213429758Y-82963582D01*
X213432380Y-82958038D01*
X213435533Y-82952777D01*
X213439187Y-82947850D01*
X213443306Y-82943306D01*
X213447850Y-82939187D01*
X213452777Y-82935533D01*
X213458038Y-82932380D01*
X213463582Y-82929758D01*
X213469357Y-82927691D01*
X213475307Y-82926201D01*
X213481374Y-82925301D01*
X213487500Y-82925000D01*
X213612500Y-82925000D01*
X213618626Y-82925301D01*
G37*
G36*
X214118626Y-82925301D02*
G01*
X214124693Y-82926201D01*
X214130643Y-82927691D01*
X214136418Y-82929758D01*
X214141962Y-82932380D01*
X214147223Y-82935533D01*
X214152150Y-82939187D01*
X214156694Y-82943306D01*
X214160813Y-82947850D01*
X214164467Y-82952777D01*
X214167620Y-82958038D01*
X214170242Y-82963582D01*
X214172309Y-82969357D01*
X214173799Y-82975307D01*
X214174699Y-82981374D01*
X214175000Y-82987500D01*
X214175000Y-83737500D01*
X214174699Y-83743626D01*
X214173799Y-83749693D01*
X214172309Y-83755643D01*
X214170242Y-83761418D01*
X214167620Y-83766962D01*
X214164467Y-83772223D01*
X214160813Y-83777150D01*
X214156694Y-83781694D01*
X214152150Y-83785813D01*
X214147223Y-83789467D01*
X214141962Y-83792620D01*
X214136418Y-83795242D01*
X214130643Y-83797309D01*
X214124693Y-83798799D01*
X214118626Y-83799699D01*
X214112500Y-83800000D01*
X213987500Y-83800000D01*
X213981374Y-83799699D01*
X213975307Y-83798799D01*
X213969357Y-83797309D01*
X213963582Y-83795242D01*
X213958038Y-83792620D01*
X213952777Y-83789467D01*
X213947850Y-83785813D01*
X213943306Y-83781694D01*
X213939187Y-83777150D01*
X213935533Y-83772223D01*
X213932380Y-83766962D01*
X213929758Y-83761418D01*
X213927691Y-83755643D01*
X213926201Y-83749693D01*
X213925301Y-83743626D01*
X213925000Y-83737500D01*
X213925000Y-82987500D01*
X213925301Y-82981374D01*
X213926201Y-82975307D01*
X213927691Y-82969357D01*
X213929758Y-82963582D01*
X213932380Y-82958038D01*
X213935533Y-82952777D01*
X213939187Y-82947850D01*
X213943306Y-82943306D01*
X213947850Y-82939187D01*
X213952777Y-82935533D01*
X213958038Y-82932380D01*
X213963582Y-82929758D01*
X213969357Y-82927691D01*
X213975307Y-82926201D01*
X213981374Y-82925301D01*
X213987500Y-82925000D01*
X214112500Y-82925000D01*
X214118626Y-82925301D01*
G37*
G36*
X214618626Y-82925301D02*
G01*
X214624693Y-82926201D01*
X214630643Y-82927691D01*
X214636418Y-82929758D01*
X214641962Y-82932380D01*
X214647223Y-82935533D01*
X214652150Y-82939187D01*
X214656694Y-82943306D01*
X214660813Y-82947850D01*
X214664467Y-82952777D01*
X214667620Y-82958038D01*
X214670242Y-82963582D01*
X214672309Y-82969357D01*
X214673799Y-82975307D01*
X214674699Y-82981374D01*
X214675000Y-82987500D01*
X214675000Y-83737500D01*
X214674699Y-83743626D01*
X214673799Y-83749693D01*
X214672309Y-83755643D01*
X214670242Y-83761418D01*
X214667620Y-83766962D01*
X214664467Y-83772223D01*
X214660813Y-83777150D01*
X214656694Y-83781694D01*
X214652150Y-83785813D01*
X214647223Y-83789467D01*
X214641962Y-83792620D01*
X214636418Y-83795242D01*
X214630643Y-83797309D01*
X214624693Y-83798799D01*
X214618626Y-83799699D01*
X214612500Y-83800000D01*
X214487500Y-83800000D01*
X214481374Y-83799699D01*
X214475307Y-83798799D01*
X214469357Y-83797309D01*
X214463582Y-83795242D01*
X214458038Y-83792620D01*
X214452777Y-83789467D01*
X214447850Y-83785813D01*
X214443306Y-83781694D01*
X214439187Y-83777150D01*
X214435533Y-83772223D01*
X214432380Y-83766962D01*
X214429758Y-83761418D01*
X214427691Y-83755643D01*
X214426201Y-83749693D01*
X214425301Y-83743626D01*
X214425000Y-83737500D01*
X214425000Y-82987500D01*
X214425301Y-82981374D01*
X214426201Y-82975307D01*
X214427691Y-82969357D01*
X214429758Y-82963582D01*
X214432380Y-82958038D01*
X214435533Y-82952777D01*
X214439187Y-82947850D01*
X214443306Y-82943306D01*
X214447850Y-82939187D01*
X214452777Y-82935533D01*
X214458038Y-82932380D01*
X214463582Y-82929758D01*
X214469357Y-82927691D01*
X214475307Y-82926201D01*
X214481374Y-82925301D01*
X214487500Y-82925000D01*
X214612500Y-82925000D01*
X214618626Y-82925301D01*
G37*
G36*
X215118626Y-82925301D02*
G01*
X215124693Y-82926201D01*
X215130643Y-82927691D01*
X215136418Y-82929758D01*
X215141962Y-82932380D01*
X215147223Y-82935533D01*
X215152150Y-82939187D01*
X215156694Y-82943306D01*
X215160813Y-82947850D01*
X215164467Y-82952777D01*
X215167620Y-82958038D01*
X215170242Y-82963582D01*
X215172309Y-82969357D01*
X215173799Y-82975307D01*
X215174699Y-82981374D01*
X215175000Y-82987500D01*
X215175000Y-83737500D01*
X215174699Y-83743626D01*
X215173799Y-83749693D01*
X215172309Y-83755643D01*
X215170242Y-83761418D01*
X215167620Y-83766962D01*
X215164467Y-83772223D01*
X215160813Y-83777150D01*
X215156694Y-83781694D01*
X215152150Y-83785813D01*
X215147223Y-83789467D01*
X215141962Y-83792620D01*
X215136418Y-83795242D01*
X215130643Y-83797309D01*
X215124693Y-83798799D01*
X215118626Y-83799699D01*
X215112500Y-83800000D01*
X214987500Y-83800000D01*
X214981374Y-83799699D01*
X214975307Y-83798799D01*
X214969357Y-83797309D01*
X214963582Y-83795242D01*
X214958038Y-83792620D01*
X214952777Y-83789467D01*
X214947850Y-83785813D01*
X214943306Y-83781694D01*
X214939187Y-83777150D01*
X214935533Y-83772223D01*
X214932380Y-83766962D01*
X214929758Y-83761418D01*
X214927691Y-83755643D01*
X214926201Y-83749693D01*
X214925301Y-83743626D01*
X214925000Y-83737500D01*
X214925000Y-82987500D01*
X214925301Y-82981374D01*
X214926201Y-82975307D01*
X214927691Y-82969357D01*
X214929758Y-82963582D01*
X214932380Y-82958038D01*
X214935533Y-82952777D01*
X214939187Y-82947850D01*
X214943306Y-82943306D01*
X214947850Y-82939187D01*
X214952777Y-82935533D01*
X214958038Y-82932380D01*
X214963582Y-82929758D01*
X214969357Y-82927691D01*
X214975307Y-82926201D01*
X214981374Y-82925301D01*
X214987500Y-82925000D01*
X215112500Y-82925000D01*
X215118626Y-82925301D01*
G37*
G36*
X215618626Y-82925301D02*
G01*
X215624693Y-82926201D01*
X215630643Y-82927691D01*
X215636418Y-82929758D01*
X215641962Y-82932380D01*
X215647223Y-82935533D01*
X215652150Y-82939187D01*
X215656694Y-82943306D01*
X215660813Y-82947850D01*
X215664467Y-82952777D01*
X215667620Y-82958038D01*
X215670242Y-82963582D01*
X215672309Y-82969357D01*
X215673799Y-82975307D01*
X215674699Y-82981374D01*
X215675000Y-82987500D01*
X215675000Y-83737500D01*
X215674699Y-83743626D01*
X215673799Y-83749693D01*
X215672309Y-83755643D01*
X215670242Y-83761418D01*
X215667620Y-83766962D01*
X215664467Y-83772223D01*
X215660813Y-83777150D01*
X215656694Y-83781694D01*
X215652150Y-83785813D01*
X215647223Y-83789467D01*
X215641962Y-83792620D01*
X215636418Y-83795242D01*
X215630643Y-83797309D01*
X215624693Y-83798799D01*
X215618626Y-83799699D01*
X215612500Y-83800000D01*
X215487500Y-83800000D01*
X215481374Y-83799699D01*
X215475307Y-83798799D01*
X215469357Y-83797309D01*
X215463582Y-83795242D01*
X215458038Y-83792620D01*
X215452777Y-83789467D01*
X215447850Y-83785813D01*
X215443306Y-83781694D01*
X215439187Y-83777150D01*
X215435533Y-83772223D01*
X215432380Y-83766962D01*
X215429758Y-83761418D01*
X215427691Y-83755643D01*
X215426201Y-83749693D01*
X215425301Y-83743626D01*
X215425000Y-83737500D01*
X215425000Y-82987500D01*
X215425301Y-82981374D01*
X215426201Y-82975307D01*
X215427691Y-82969357D01*
X215429758Y-82963582D01*
X215432380Y-82958038D01*
X215435533Y-82952777D01*
X215439187Y-82947850D01*
X215443306Y-82943306D01*
X215447850Y-82939187D01*
X215452777Y-82935533D01*
X215458038Y-82932380D01*
X215463582Y-82929758D01*
X215469357Y-82927691D01*
X215475307Y-82926201D01*
X215481374Y-82925301D01*
X215487500Y-82925000D01*
X215612500Y-82925000D01*
X215618626Y-82925301D01*
G37*
G36*
X216118626Y-82925301D02*
G01*
X216124693Y-82926201D01*
X216130643Y-82927691D01*
X216136418Y-82929758D01*
X216141962Y-82932380D01*
X216147223Y-82935533D01*
X216152150Y-82939187D01*
X216156694Y-82943306D01*
X216160813Y-82947850D01*
X216164467Y-82952777D01*
X216167620Y-82958038D01*
X216170242Y-82963582D01*
X216172309Y-82969357D01*
X216173799Y-82975307D01*
X216174699Y-82981374D01*
X216175000Y-82987500D01*
X216175000Y-83737500D01*
X216174699Y-83743626D01*
X216173799Y-83749693D01*
X216172309Y-83755643D01*
X216170242Y-83761418D01*
X216167620Y-83766962D01*
X216164467Y-83772223D01*
X216160813Y-83777150D01*
X216156694Y-83781694D01*
X216152150Y-83785813D01*
X216147223Y-83789467D01*
X216141962Y-83792620D01*
X216136418Y-83795242D01*
X216130643Y-83797309D01*
X216124693Y-83798799D01*
X216118626Y-83799699D01*
X216112500Y-83800000D01*
X215987500Y-83800000D01*
X215981374Y-83799699D01*
X215975307Y-83798799D01*
X215969357Y-83797309D01*
X215963582Y-83795242D01*
X215958038Y-83792620D01*
X215952777Y-83789467D01*
X215947850Y-83785813D01*
X215943306Y-83781694D01*
X215939187Y-83777150D01*
X215935533Y-83772223D01*
X215932380Y-83766962D01*
X215929758Y-83761418D01*
X215927691Y-83755643D01*
X215926201Y-83749693D01*
X215925301Y-83743626D01*
X215925000Y-83737500D01*
X215925000Y-82987500D01*
X215925301Y-82981374D01*
X215926201Y-82975307D01*
X215927691Y-82969357D01*
X215929758Y-82963582D01*
X215932380Y-82958038D01*
X215935533Y-82952777D01*
X215939187Y-82947850D01*
X215943306Y-82943306D01*
X215947850Y-82939187D01*
X215952777Y-82935533D01*
X215958038Y-82932380D01*
X215963582Y-82929758D01*
X215969357Y-82927691D01*
X215975307Y-82926201D01*
X215981374Y-82925301D01*
X215987500Y-82925000D01*
X216112500Y-82925000D01*
X216118626Y-82925301D01*
G37*
G36*
X216618626Y-82925301D02*
G01*
X216624693Y-82926201D01*
X216630643Y-82927691D01*
X216636418Y-82929758D01*
X216641962Y-82932380D01*
X216647223Y-82935533D01*
X216652150Y-82939187D01*
X216656694Y-82943306D01*
X216660813Y-82947850D01*
X216664467Y-82952777D01*
X216667620Y-82958038D01*
X216670242Y-82963582D01*
X216672309Y-82969357D01*
X216673799Y-82975307D01*
X216674699Y-82981374D01*
X216675000Y-82987500D01*
X216675000Y-83737500D01*
X216674699Y-83743626D01*
X216673799Y-83749693D01*
X216672309Y-83755643D01*
X216670242Y-83761418D01*
X216667620Y-83766962D01*
X216664467Y-83772223D01*
X216660813Y-83777150D01*
X216656694Y-83781694D01*
X216652150Y-83785813D01*
X216647223Y-83789467D01*
X216641962Y-83792620D01*
X216636418Y-83795242D01*
X216630643Y-83797309D01*
X216624693Y-83798799D01*
X216618626Y-83799699D01*
X216612500Y-83800000D01*
X216487500Y-83800000D01*
X216481374Y-83799699D01*
X216475307Y-83798799D01*
X216469357Y-83797309D01*
X216463582Y-83795242D01*
X216458038Y-83792620D01*
X216452777Y-83789467D01*
X216447850Y-83785813D01*
X216443306Y-83781694D01*
X216439187Y-83777150D01*
X216435533Y-83772223D01*
X216432380Y-83766962D01*
X216429758Y-83761418D01*
X216427691Y-83755643D01*
X216426201Y-83749693D01*
X216425301Y-83743626D01*
X216425000Y-83737500D01*
X216425000Y-82987500D01*
X216425301Y-82981374D01*
X216426201Y-82975307D01*
X216427691Y-82969357D01*
X216429758Y-82963582D01*
X216432380Y-82958038D01*
X216435533Y-82952777D01*
X216439187Y-82947850D01*
X216443306Y-82943306D01*
X216447850Y-82939187D01*
X216452777Y-82935533D01*
X216458038Y-82932380D01*
X216463582Y-82929758D01*
X216469357Y-82927691D01*
X216475307Y-82926201D01*
X216481374Y-82925301D01*
X216487500Y-82925000D01*
X216612500Y-82925000D01*
X216618626Y-82925301D01*
G37*
G36*
X217118626Y-82925301D02*
G01*
X217124693Y-82926201D01*
X217130643Y-82927691D01*
X217136418Y-82929758D01*
X217141962Y-82932380D01*
X217147223Y-82935533D01*
X217152150Y-82939187D01*
X217156694Y-82943306D01*
X217160813Y-82947850D01*
X217164467Y-82952777D01*
X217167620Y-82958038D01*
X217170242Y-82963582D01*
X217172309Y-82969357D01*
X217173799Y-82975307D01*
X217174699Y-82981374D01*
X217175000Y-82987500D01*
X217175000Y-83737500D01*
X217174699Y-83743626D01*
X217173799Y-83749693D01*
X217172309Y-83755643D01*
X217170242Y-83761418D01*
X217167620Y-83766962D01*
X217164467Y-83772223D01*
X217160813Y-83777150D01*
X217156694Y-83781694D01*
X217152150Y-83785813D01*
X217147223Y-83789467D01*
X217141962Y-83792620D01*
X217136418Y-83795242D01*
X217130643Y-83797309D01*
X217124693Y-83798799D01*
X217118626Y-83799699D01*
X217112500Y-83800000D01*
X216987500Y-83800000D01*
X216981374Y-83799699D01*
X216975307Y-83798799D01*
X216969357Y-83797309D01*
X216963582Y-83795242D01*
X216958038Y-83792620D01*
X216952777Y-83789467D01*
X216947850Y-83785813D01*
X216943306Y-83781694D01*
X216939187Y-83777150D01*
X216935533Y-83772223D01*
X216932380Y-83766962D01*
X216929758Y-83761418D01*
X216927691Y-83755643D01*
X216926201Y-83749693D01*
X216925301Y-83743626D01*
X216925000Y-83737500D01*
X216925000Y-82987500D01*
X216925301Y-82981374D01*
X216926201Y-82975307D01*
X216927691Y-82969357D01*
X216929758Y-82963582D01*
X216932380Y-82958038D01*
X216935533Y-82952777D01*
X216939187Y-82947850D01*
X216943306Y-82943306D01*
X216947850Y-82939187D01*
X216952777Y-82935533D01*
X216958038Y-82932380D01*
X216963582Y-82929758D01*
X216969357Y-82927691D01*
X216975307Y-82926201D01*
X216981374Y-82925301D01*
X216987500Y-82925000D01*
X217112500Y-82925000D01*
X217118626Y-82925301D01*
G37*
G36*
X217618626Y-82925301D02*
G01*
X217624693Y-82926201D01*
X217630643Y-82927691D01*
X217636418Y-82929758D01*
X217641962Y-82932380D01*
X217647223Y-82935533D01*
X217652150Y-82939187D01*
X217656694Y-82943306D01*
X217660813Y-82947850D01*
X217664467Y-82952777D01*
X217667620Y-82958038D01*
X217670242Y-82963582D01*
X217672309Y-82969357D01*
X217673799Y-82975307D01*
X217674699Y-82981374D01*
X217675000Y-82987500D01*
X217675000Y-83737500D01*
X217674699Y-83743626D01*
X217673799Y-83749693D01*
X217672309Y-83755643D01*
X217670242Y-83761418D01*
X217667620Y-83766962D01*
X217664467Y-83772223D01*
X217660813Y-83777150D01*
X217656694Y-83781694D01*
X217652150Y-83785813D01*
X217647223Y-83789467D01*
X217641962Y-83792620D01*
X217636418Y-83795242D01*
X217630643Y-83797309D01*
X217624693Y-83798799D01*
X217618626Y-83799699D01*
X217612500Y-83800000D01*
X217487500Y-83800000D01*
X217481374Y-83799699D01*
X217475307Y-83798799D01*
X217469357Y-83797309D01*
X217463582Y-83795242D01*
X217458038Y-83792620D01*
X217452777Y-83789467D01*
X217447850Y-83785813D01*
X217443306Y-83781694D01*
X217439187Y-83777150D01*
X217435533Y-83772223D01*
X217432380Y-83766962D01*
X217429758Y-83761418D01*
X217427691Y-83755643D01*
X217426201Y-83749693D01*
X217425301Y-83743626D01*
X217425000Y-83737500D01*
X217425000Y-82987500D01*
X217425301Y-82981374D01*
X217426201Y-82975307D01*
X217427691Y-82969357D01*
X217429758Y-82963582D01*
X217432380Y-82958038D01*
X217435533Y-82952777D01*
X217439187Y-82947850D01*
X217443306Y-82943306D01*
X217447850Y-82939187D01*
X217452777Y-82935533D01*
X217458038Y-82932380D01*
X217463582Y-82929758D01*
X217469357Y-82927691D01*
X217475307Y-82926201D01*
X217481374Y-82925301D01*
X217487500Y-82925000D01*
X217612500Y-82925000D01*
X217618626Y-82925301D01*
G37*
G36*
X218118626Y-82925301D02*
G01*
X218124693Y-82926201D01*
X218130643Y-82927691D01*
X218136418Y-82929758D01*
X218141962Y-82932380D01*
X218147223Y-82935533D01*
X218152150Y-82939187D01*
X218156694Y-82943306D01*
X218160813Y-82947850D01*
X218164467Y-82952777D01*
X218167620Y-82958038D01*
X218170242Y-82963582D01*
X218172309Y-82969357D01*
X218173799Y-82975307D01*
X218174699Y-82981374D01*
X218175000Y-82987500D01*
X218175000Y-83737500D01*
X218174699Y-83743626D01*
X218173799Y-83749693D01*
X218172309Y-83755643D01*
X218170242Y-83761418D01*
X218167620Y-83766962D01*
X218164467Y-83772223D01*
X218160813Y-83777150D01*
X218156694Y-83781694D01*
X218152150Y-83785813D01*
X218147223Y-83789467D01*
X218141962Y-83792620D01*
X218136418Y-83795242D01*
X218130643Y-83797309D01*
X218124693Y-83798799D01*
X218118626Y-83799699D01*
X218112500Y-83800000D01*
X217987500Y-83800000D01*
X217981374Y-83799699D01*
X217975307Y-83798799D01*
X217969357Y-83797309D01*
X217963582Y-83795242D01*
X217958038Y-83792620D01*
X217952777Y-83789467D01*
X217947850Y-83785813D01*
X217943306Y-83781694D01*
X217939187Y-83777150D01*
X217935533Y-83772223D01*
X217932380Y-83766962D01*
X217929758Y-83761418D01*
X217927691Y-83755643D01*
X217926201Y-83749693D01*
X217925301Y-83743626D01*
X217925000Y-83737500D01*
X217925000Y-82987500D01*
X217925301Y-82981374D01*
X217926201Y-82975307D01*
X217927691Y-82969357D01*
X217929758Y-82963582D01*
X217932380Y-82958038D01*
X217935533Y-82952777D01*
X217939187Y-82947850D01*
X217943306Y-82943306D01*
X217947850Y-82939187D01*
X217952777Y-82935533D01*
X217958038Y-82932380D01*
X217963582Y-82929758D01*
X217969357Y-82927691D01*
X217975307Y-82926201D01*
X217981374Y-82925301D01*
X217987500Y-82925000D01*
X218112500Y-82925000D01*
X218118626Y-82925301D01*
G37*
G36*
X218618626Y-82925301D02*
G01*
X218624693Y-82926201D01*
X218630643Y-82927691D01*
X218636418Y-82929758D01*
X218641962Y-82932380D01*
X218647223Y-82935533D01*
X218652150Y-82939187D01*
X218656694Y-82943306D01*
X218660813Y-82947850D01*
X218664467Y-82952777D01*
X218667620Y-82958038D01*
X218670242Y-82963582D01*
X218672309Y-82969357D01*
X218673799Y-82975307D01*
X218674699Y-82981374D01*
X218675000Y-82987500D01*
X218675000Y-83737500D01*
X218674699Y-83743626D01*
X218673799Y-83749693D01*
X218672309Y-83755643D01*
X218670242Y-83761418D01*
X218667620Y-83766962D01*
X218664467Y-83772223D01*
X218660813Y-83777150D01*
X218656694Y-83781694D01*
X218652150Y-83785813D01*
X218647223Y-83789467D01*
X218641962Y-83792620D01*
X218636418Y-83795242D01*
X218630643Y-83797309D01*
X218624693Y-83798799D01*
X218618626Y-83799699D01*
X218612500Y-83800000D01*
X218487500Y-83800000D01*
X218481374Y-83799699D01*
X218475307Y-83798799D01*
X218469357Y-83797309D01*
X218463582Y-83795242D01*
X218458038Y-83792620D01*
X218452777Y-83789467D01*
X218447850Y-83785813D01*
X218443306Y-83781694D01*
X218439187Y-83777150D01*
X218435533Y-83772223D01*
X218432380Y-83766962D01*
X218429758Y-83761418D01*
X218427691Y-83755643D01*
X218426201Y-83749693D01*
X218425301Y-83743626D01*
X218425000Y-83737500D01*
X218425000Y-82987500D01*
X218425301Y-82981374D01*
X218426201Y-82975307D01*
X218427691Y-82969357D01*
X218429758Y-82963582D01*
X218432380Y-82958038D01*
X218435533Y-82952777D01*
X218439187Y-82947850D01*
X218443306Y-82943306D01*
X218447850Y-82939187D01*
X218452777Y-82935533D01*
X218458038Y-82932380D01*
X218463582Y-82929758D01*
X218469357Y-82927691D01*
X218475307Y-82926201D01*
X218481374Y-82925301D01*
X218487500Y-82925000D01*
X218612500Y-82925000D01*
X218618626Y-82925301D01*
G37*
G36*
X214159504Y-88216204D02*
G01*
X214183773Y-88219804D01*
X214207571Y-88225765D01*
X214230671Y-88234030D01*
X214252849Y-88244520D01*
X214273893Y-88257133D01*
X214293598Y-88271747D01*
X214311777Y-88288223D01*
X214328253Y-88306402D01*
X214342867Y-88326107D01*
X214355480Y-88347151D01*
X214365970Y-88369329D01*
X214374235Y-88392429D01*
X214380196Y-88416227D01*
X214383796Y-88440496D01*
X214385000Y-88465000D01*
X214385000Y-89005000D01*
X214383796Y-89029504D01*
X214380196Y-89053773D01*
X214374235Y-89077571D01*
X214365970Y-89100671D01*
X214355480Y-89122849D01*
X214342867Y-89143893D01*
X214328253Y-89163598D01*
X214311777Y-89181777D01*
X214293598Y-89198253D01*
X214273893Y-89212867D01*
X214252849Y-89225480D01*
X214230671Y-89235970D01*
X214207571Y-89244235D01*
X214183773Y-89250196D01*
X214159504Y-89253796D01*
X214135000Y-89255000D01*
X213595000Y-89255000D01*
X213570496Y-89253796D01*
X213546227Y-89250196D01*
X213522429Y-89244235D01*
X213499329Y-89235970D01*
X213477151Y-89225480D01*
X213456107Y-89212867D01*
X213436402Y-89198253D01*
X213418223Y-89181777D01*
X213401747Y-89163598D01*
X213387133Y-89143893D01*
X213374520Y-89122849D01*
X213364030Y-89100671D01*
X213355765Y-89077571D01*
X213349804Y-89053773D01*
X213346204Y-89029504D01*
X213345000Y-89005000D01*
X213345000Y-88465000D01*
X213346204Y-88440496D01*
X213349804Y-88416227D01*
X213355765Y-88392429D01*
X213364030Y-88369329D01*
X213374520Y-88347151D01*
X213387133Y-88326107D01*
X213401747Y-88306402D01*
X213418223Y-88288223D01*
X213436402Y-88271747D01*
X213456107Y-88257133D01*
X213477151Y-88244520D01*
X213499329Y-88234030D01*
X213522429Y-88225765D01*
X213546227Y-88219804D01*
X213570496Y-88216204D01*
X213595000Y-88215000D01*
X214135000Y-88215000D01*
X214159504Y-88216204D01*
G37*
G36*
X215449504Y-88216204D02*
G01*
X215473773Y-88219804D01*
X215497571Y-88225765D01*
X215520671Y-88234030D01*
X215542849Y-88244520D01*
X215563893Y-88257133D01*
X215583598Y-88271747D01*
X215601777Y-88288223D01*
X215618253Y-88306402D01*
X215632867Y-88326107D01*
X215645480Y-88347151D01*
X215655970Y-88369329D01*
X215664235Y-88392429D01*
X215670196Y-88416227D01*
X215673796Y-88440496D01*
X215675000Y-88465000D01*
X215675000Y-89005000D01*
X215673796Y-89029504D01*
X215670196Y-89053773D01*
X215664235Y-89077571D01*
X215655970Y-89100671D01*
X215645480Y-89122849D01*
X215632867Y-89143893D01*
X215618253Y-89163598D01*
X215601777Y-89181777D01*
X215583598Y-89198253D01*
X215563893Y-89212867D01*
X215542849Y-89225480D01*
X215520671Y-89235970D01*
X215497571Y-89244235D01*
X215473773Y-89250196D01*
X215449504Y-89253796D01*
X215425000Y-89255000D01*
X214885000Y-89255000D01*
X214860496Y-89253796D01*
X214836227Y-89250196D01*
X214812429Y-89244235D01*
X214789329Y-89235970D01*
X214767151Y-89225480D01*
X214746107Y-89212867D01*
X214726402Y-89198253D01*
X214708223Y-89181777D01*
X214691747Y-89163598D01*
X214677133Y-89143893D01*
X214664520Y-89122849D01*
X214654030Y-89100671D01*
X214645765Y-89077571D01*
X214639804Y-89053773D01*
X214636204Y-89029504D01*
X214635000Y-89005000D01*
X214635000Y-88465000D01*
X214636204Y-88440496D01*
X214639804Y-88416227D01*
X214645765Y-88392429D01*
X214654030Y-88369329D01*
X214664520Y-88347151D01*
X214677133Y-88326107D01*
X214691747Y-88306402D01*
X214708223Y-88288223D01*
X214726402Y-88271747D01*
X214746107Y-88257133D01*
X214767151Y-88244520D01*
X214789329Y-88234030D01*
X214812429Y-88225765D01*
X214836227Y-88219804D01*
X214860496Y-88216204D01*
X214885000Y-88215000D01*
X215425000Y-88215000D01*
X215449504Y-88216204D01*
G37*
G36*
X216739504Y-88216204D02*
G01*
X216763773Y-88219804D01*
X216787571Y-88225765D01*
X216810671Y-88234030D01*
X216832849Y-88244520D01*
X216853893Y-88257133D01*
X216873598Y-88271747D01*
X216891777Y-88288223D01*
X216908253Y-88306402D01*
X216922867Y-88326107D01*
X216935480Y-88347151D01*
X216945970Y-88369329D01*
X216954235Y-88392429D01*
X216960196Y-88416227D01*
X216963796Y-88440496D01*
X216965000Y-88465000D01*
X216965000Y-89005000D01*
X216963796Y-89029504D01*
X216960196Y-89053773D01*
X216954235Y-89077571D01*
X216945970Y-89100671D01*
X216935480Y-89122849D01*
X216922867Y-89143893D01*
X216908253Y-89163598D01*
X216891777Y-89181777D01*
X216873598Y-89198253D01*
X216853893Y-89212867D01*
X216832849Y-89225480D01*
X216810671Y-89235970D01*
X216787571Y-89244235D01*
X216763773Y-89250196D01*
X216739504Y-89253796D01*
X216715000Y-89255000D01*
X216175000Y-89255000D01*
X216150496Y-89253796D01*
X216126227Y-89250196D01*
X216102429Y-89244235D01*
X216079329Y-89235970D01*
X216057151Y-89225480D01*
X216036107Y-89212867D01*
X216016402Y-89198253D01*
X215998223Y-89181777D01*
X215981747Y-89163598D01*
X215967133Y-89143893D01*
X215954520Y-89122849D01*
X215944030Y-89100671D01*
X215935765Y-89077571D01*
X215929804Y-89053773D01*
X215926204Y-89029504D01*
X215925000Y-89005000D01*
X215925000Y-88465000D01*
X215926204Y-88440496D01*
X215929804Y-88416227D01*
X215935765Y-88392429D01*
X215944030Y-88369329D01*
X215954520Y-88347151D01*
X215967133Y-88326107D01*
X215981747Y-88306402D01*
X215998223Y-88288223D01*
X216016402Y-88271747D01*
X216036107Y-88257133D01*
X216057151Y-88244520D01*
X216079329Y-88234030D01*
X216102429Y-88225765D01*
X216126227Y-88219804D01*
X216150496Y-88216204D01*
X216175000Y-88215000D01*
X216715000Y-88215000D01*
X216739504Y-88216204D01*
G37*
G36*
X218029504Y-88216204D02*
G01*
X218053773Y-88219804D01*
X218077571Y-88225765D01*
X218100671Y-88234030D01*
X218122849Y-88244520D01*
X218143893Y-88257133D01*
X218163598Y-88271747D01*
X218181777Y-88288223D01*
X218198253Y-88306402D01*
X218212867Y-88326107D01*
X218225480Y-88347151D01*
X218235970Y-88369329D01*
X218244235Y-88392429D01*
X218250196Y-88416227D01*
X218253796Y-88440496D01*
X218255000Y-88465000D01*
X218255000Y-89005000D01*
X218253796Y-89029504D01*
X218250196Y-89053773D01*
X218244235Y-89077571D01*
X218235970Y-89100671D01*
X218225480Y-89122849D01*
X218212867Y-89143893D01*
X218198253Y-89163598D01*
X218181777Y-89181777D01*
X218163598Y-89198253D01*
X218143893Y-89212867D01*
X218122849Y-89225480D01*
X218100671Y-89235970D01*
X218077571Y-89244235D01*
X218053773Y-89250196D01*
X218029504Y-89253796D01*
X218005000Y-89255000D01*
X217465000Y-89255000D01*
X217440496Y-89253796D01*
X217416227Y-89250196D01*
X217392429Y-89244235D01*
X217369329Y-89235970D01*
X217347151Y-89225480D01*
X217326107Y-89212867D01*
X217306402Y-89198253D01*
X217288223Y-89181777D01*
X217271747Y-89163598D01*
X217257133Y-89143893D01*
X217244520Y-89122849D01*
X217234030Y-89100671D01*
X217225765Y-89077571D01*
X217219804Y-89053773D01*
X217216204Y-89029504D01*
X217215000Y-89005000D01*
X217215000Y-88465000D01*
X217216204Y-88440496D01*
X217219804Y-88416227D01*
X217225765Y-88392429D01*
X217234030Y-88369329D01*
X217244520Y-88347151D01*
X217257133Y-88326107D01*
X217271747Y-88306402D01*
X217288223Y-88288223D01*
X217306402Y-88271747D01*
X217326107Y-88257133D01*
X217347151Y-88244520D01*
X217369329Y-88234030D01*
X217392429Y-88225765D01*
X217416227Y-88219804D01*
X217440496Y-88216204D01*
X217465000Y-88215000D01*
X218005000Y-88215000D01*
X218029504Y-88216204D01*
G37*
G36*
X214159504Y-86926204D02*
G01*
X214183773Y-86929804D01*
X214207571Y-86935765D01*
X214230671Y-86944030D01*
X214252849Y-86954520D01*
X214273893Y-86967133D01*
X214293598Y-86981747D01*
X214311777Y-86998223D01*
X214328253Y-87016402D01*
X214342867Y-87036107D01*
X214355480Y-87057151D01*
X214365970Y-87079329D01*
X214374235Y-87102429D01*
X214380196Y-87126227D01*
X214383796Y-87150496D01*
X214385000Y-87175000D01*
X214385000Y-87715000D01*
X214383796Y-87739504D01*
X214380196Y-87763773D01*
X214374235Y-87787571D01*
X214365970Y-87810671D01*
X214355480Y-87832849D01*
X214342867Y-87853893D01*
X214328253Y-87873598D01*
X214311777Y-87891777D01*
X214293598Y-87908253D01*
X214273893Y-87922867D01*
X214252849Y-87935480D01*
X214230671Y-87945970D01*
X214207571Y-87954235D01*
X214183773Y-87960196D01*
X214159504Y-87963796D01*
X214135000Y-87965000D01*
X213595000Y-87965000D01*
X213570496Y-87963796D01*
X213546227Y-87960196D01*
X213522429Y-87954235D01*
X213499329Y-87945970D01*
X213477151Y-87935480D01*
X213456107Y-87922867D01*
X213436402Y-87908253D01*
X213418223Y-87891777D01*
X213401747Y-87873598D01*
X213387133Y-87853893D01*
X213374520Y-87832849D01*
X213364030Y-87810671D01*
X213355765Y-87787571D01*
X213349804Y-87763773D01*
X213346204Y-87739504D01*
X213345000Y-87715000D01*
X213345000Y-87175000D01*
X213346204Y-87150496D01*
X213349804Y-87126227D01*
X213355765Y-87102429D01*
X213364030Y-87079329D01*
X213374520Y-87057151D01*
X213387133Y-87036107D01*
X213401747Y-87016402D01*
X213418223Y-86998223D01*
X213436402Y-86981747D01*
X213456107Y-86967133D01*
X213477151Y-86954520D01*
X213499329Y-86944030D01*
X213522429Y-86935765D01*
X213546227Y-86929804D01*
X213570496Y-86926204D01*
X213595000Y-86925000D01*
X214135000Y-86925000D01*
X214159504Y-86926204D01*
G37*
G36*
X215449504Y-86926204D02*
G01*
X215473773Y-86929804D01*
X215497571Y-86935765D01*
X215520671Y-86944030D01*
X215542849Y-86954520D01*
X215563893Y-86967133D01*
X215583598Y-86981747D01*
X215601777Y-86998223D01*
X215618253Y-87016402D01*
X215632867Y-87036107D01*
X215645480Y-87057151D01*
X215655970Y-87079329D01*
X215664235Y-87102429D01*
X215670196Y-87126227D01*
X215673796Y-87150496D01*
X215675000Y-87175000D01*
X215675000Y-87715000D01*
X215673796Y-87739504D01*
X215670196Y-87763773D01*
X215664235Y-87787571D01*
X215655970Y-87810671D01*
X215645480Y-87832849D01*
X215632867Y-87853893D01*
X215618253Y-87873598D01*
X215601777Y-87891777D01*
X215583598Y-87908253D01*
X215563893Y-87922867D01*
X215542849Y-87935480D01*
X215520671Y-87945970D01*
X215497571Y-87954235D01*
X215473773Y-87960196D01*
X215449504Y-87963796D01*
X215425000Y-87965000D01*
X214885000Y-87965000D01*
X214860496Y-87963796D01*
X214836227Y-87960196D01*
X214812429Y-87954235D01*
X214789329Y-87945970D01*
X214767151Y-87935480D01*
X214746107Y-87922867D01*
X214726402Y-87908253D01*
X214708223Y-87891777D01*
X214691747Y-87873598D01*
X214677133Y-87853893D01*
X214664520Y-87832849D01*
X214654030Y-87810671D01*
X214645765Y-87787571D01*
X214639804Y-87763773D01*
X214636204Y-87739504D01*
X214635000Y-87715000D01*
X214635000Y-87175000D01*
X214636204Y-87150496D01*
X214639804Y-87126227D01*
X214645765Y-87102429D01*
X214654030Y-87079329D01*
X214664520Y-87057151D01*
X214677133Y-87036107D01*
X214691747Y-87016402D01*
X214708223Y-86998223D01*
X214726402Y-86981747D01*
X214746107Y-86967133D01*
X214767151Y-86954520D01*
X214789329Y-86944030D01*
X214812429Y-86935765D01*
X214836227Y-86929804D01*
X214860496Y-86926204D01*
X214885000Y-86925000D01*
X215425000Y-86925000D01*
X215449504Y-86926204D01*
G37*
G36*
X216739504Y-86926204D02*
G01*
X216763773Y-86929804D01*
X216787571Y-86935765D01*
X216810671Y-86944030D01*
X216832849Y-86954520D01*
X216853893Y-86967133D01*
X216873598Y-86981747D01*
X216891777Y-86998223D01*
X216908253Y-87016402D01*
X216922867Y-87036107D01*
X216935480Y-87057151D01*
X216945970Y-87079329D01*
X216954235Y-87102429D01*
X216960196Y-87126227D01*
X216963796Y-87150496D01*
X216965000Y-87175000D01*
X216965000Y-87715000D01*
X216963796Y-87739504D01*
X216960196Y-87763773D01*
X216954235Y-87787571D01*
X216945970Y-87810671D01*
X216935480Y-87832849D01*
X216922867Y-87853893D01*
X216908253Y-87873598D01*
X216891777Y-87891777D01*
X216873598Y-87908253D01*
X216853893Y-87922867D01*
X216832849Y-87935480D01*
X216810671Y-87945970D01*
X216787571Y-87954235D01*
X216763773Y-87960196D01*
X216739504Y-87963796D01*
X216715000Y-87965000D01*
X216175000Y-87965000D01*
X216150496Y-87963796D01*
X216126227Y-87960196D01*
X216102429Y-87954235D01*
X216079329Y-87945970D01*
X216057151Y-87935480D01*
X216036107Y-87922867D01*
X216016402Y-87908253D01*
X215998223Y-87891777D01*
X215981747Y-87873598D01*
X215967133Y-87853893D01*
X215954520Y-87832849D01*
X215944030Y-87810671D01*
X215935765Y-87787571D01*
X215929804Y-87763773D01*
X215926204Y-87739504D01*
X215925000Y-87715000D01*
X215925000Y-87175000D01*
X215926204Y-87150496D01*
X215929804Y-87126227D01*
X215935765Y-87102429D01*
X215944030Y-87079329D01*
X215954520Y-87057151D01*
X215967133Y-87036107D01*
X215981747Y-87016402D01*
X215998223Y-86998223D01*
X216016402Y-86981747D01*
X216036107Y-86967133D01*
X216057151Y-86954520D01*
X216079329Y-86944030D01*
X216102429Y-86935765D01*
X216126227Y-86929804D01*
X216150496Y-86926204D01*
X216175000Y-86925000D01*
X216715000Y-86925000D01*
X216739504Y-86926204D01*
G37*
G36*
X218029504Y-86926204D02*
G01*
X218053773Y-86929804D01*
X218077571Y-86935765D01*
X218100671Y-86944030D01*
X218122849Y-86954520D01*
X218143893Y-86967133D01*
X218163598Y-86981747D01*
X218181777Y-86998223D01*
X218198253Y-87016402D01*
X218212867Y-87036107D01*
X218225480Y-87057151D01*
X218235970Y-87079329D01*
X218244235Y-87102429D01*
X218250196Y-87126227D01*
X218253796Y-87150496D01*
X218255000Y-87175000D01*
X218255000Y-87715000D01*
X218253796Y-87739504D01*
X218250196Y-87763773D01*
X218244235Y-87787571D01*
X218235970Y-87810671D01*
X218225480Y-87832849D01*
X218212867Y-87853893D01*
X218198253Y-87873598D01*
X218181777Y-87891777D01*
X218163598Y-87908253D01*
X218143893Y-87922867D01*
X218122849Y-87935480D01*
X218100671Y-87945970D01*
X218077571Y-87954235D01*
X218053773Y-87960196D01*
X218029504Y-87963796D01*
X218005000Y-87965000D01*
X217465000Y-87965000D01*
X217440496Y-87963796D01*
X217416227Y-87960196D01*
X217392429Y-87954235D01*
X217369329Y-87945970D01*
X217347151Y-87935480D01*
X217326107Y-87922867D01*
X217306402Y-87908253D01*
X217288223Y-87891777D01*
X217271747Y-87873598D01*
X217257133Y-87853893D01*
X217244520Y-87832849D01*
X217234030Y-87810671D01*
X217225765Y-87787571D01*
X217219804Y-87763773D01*
X217216204Y-87739504D01*
X217215000Y-87715000D01*
X217215000Y-87175000D01*
X217216204Y-87150496D01*
X217219804Y-87126227D01*
X217225765Y-87102429D01*
X217234030Y-87079329D01*
X217244520Y-87057151D01*
X217257133Y-87036107D01*
X217271747Y-87016402D01*
X217288223Y-86998223D01*
X217306402Y-86981747D01*
X217326107Y-86967133D01*
X217347151Y-86954520D01*
X217369329Y-86944030D01*
X217392429Y-86935765D01*
X217416227Y-86929804D01*
X217440496Y-86926204D01*
X217465000Y-86925000D01*
X218005000Y-86925000D01*
X218029504Y-86926204D01*
G37*
G36*
X214159504Y-85636204D02*
G01*
X214183773Y-85639804D01*
X214207571Y-85645765D01*
X214230671Y-85654030D01*
X214252849Y-85664520D01*
X214273893Y-85677133D01*
X214293598Y-85691747D01*
X214311777Y-85708223D01*
X214328253Y-85726402D01*
X214342867Y-85746107D01*
X214355480Y-85767151D01*
X214365970Y-85789329D01*
X214374235Y-85812429D01*
X214380196Y-85836227D01*
X214383796Y-85860496D01*
X214385000Y-85885000D01*
X214385000Y-86425000D01*
X214383796Y-86449504D01*
X214380196Y-86473773D01*
X214374235Y-86497571D01*
X214365970Y-86520671D01*
X214355480Y-86542849D01*
X214342867Y-86563893D01*
X214328253Y-86583598D01*
X214311777Y-86601777D01*
X214293598Y-86618253D01*
X214273893Y-86632867D01*
X214252849Y-86645480D01*
X214230671Y-86655970D01*
X214207571Y-86664235D01*
X214183773Y-86670196D01*
X214159504Y-86673796D01*
X214135000Y-86675000D01*
X213595000Y-86675000D01*
X213570496Y-86673796D01*
X213546227Y-86670196D01*
X213522429Y-86664235D01*
X213499329Y-86655970D01*
X213477151Y-86645480D01*
X213456107Y-86632867D01*
X213436402Y-86618253D01*
X213418223Y-86601777D01*
X213401747Y-86583598D01*
X213387133Y-86563893D01*
X213374520Y-86542849D01*
X213364030Y-86520671D01*
X213355765Y-86497571D01*
X213349804Y-86473773D01*
X213346204Y-86449504D01*
X213345000Y-86425000D01*
X213345000Y-85885000D01*
X213346204Y-85860496D01*
X213349804Y-85836227D01*
X213355765Y-85812429D01*
X213364030Y-85789329D01*
X213374520Y-85767151D01*
X213387133Y-85746107D01*
X213401747Y-85726402D01*
X213418223Y-85708223D01*
X213436402Y-85691747D01*
X213456107Y-85677133D01*
X213477151Y-85664520D01*
X213499329Y-85654030D01*
X213522429Y-85645765D01*
X213546227Y-85639804D01*
X213570496Y-85636204D01*
X213595000Y-85635000D01*
X214135000Y-85635000D01*
X214159504Y-85636204D01*
G37*
G36*
X215449504Y-85636204D02*
G01*
X215473773Y-85639804D01*
X215497571Y-85645765D01*
X215520671Y-85654030D01*
X215542849Y-85664520D01*
X215563893Y-85677133D01*
X215583598Y-85691747D01*
X215601777Y-85708223D01*
X215618253Y-85726402D01*
X215632867Y-85746107D01*
X215645480Y-85767151D01*
X215655970Y-85789329D01*
X215664235Y-85812429D01*
X215670196Y-85836227D01*
X215673796Y-85860496D01*
X215675000Y-85885000D01*
X215675000Y-86425000D01*
X215673796Y-86449504D01*
X215670196Y-86473773D01*
X215664235Y-86497571D01*
X215655970Y-86520671D01*
X215645480Y-86542849D01*
X215632867Y-86563893D01*
X215618253Y-86583598D01*
X215601777Y-86601777D01*
X215583598Y-86618253D01*
X215563893Y-86632867D01*
X215542849Y-86645480D01*
X215520671Y-86655970D01*
X215497571Y-86664235D01*
X215473773Y-86670196D01*
X215449504Y-86673796D01*
X215425000Y-86675000D01*
X214885000Y-86675000D01*
X214860496Y-86673796D01*
X214836227Y-86670196D01*
X214812429Y-86664235D01*
X214789329Y-86655970D01*
X214767151Y-86645480D01*
X214746107Y-86632867D01*
X214726402Y-86618253D01*
X214708223Y-86601777D01*
X214691747Y-86583598D01*
X214677133Y-86563893D01*
X214664520Y-86542849D01*
X214654030Y-86520671D01*
X214645765Y-86497571D01*
X214639804Y-86473773D01*
X214636204Y-86449504D01*
X214635000Y-86425000D01*
X214635000Y-85885000D01*
X214636204Y-85860496D01*
X214639804Y-85836227D01*
X214645765Y-85812429D01*
X214654030Y-85789329D01*
X214664520Y-85767151D01*
X214677133Y-85746107D01*
X214691747Y-85726402D01*
X214708223Y-85708223D01*
X214726402Y-85691747D01*
X214746107Y-85677133D01*
X214767151Y-85664520D01*
X214789329Y-85654030D01*
X214812429Y-85645765D01*
X214836227Y-85639804D01*
X214860496Y-85636204D01*
X214885000Y-85635000D01*
X215425000Y-85635000D01*
X215449504Y-85636204D01*
G37*
G36*
X216739504Y-85636204D02*
G01*
X216763773Y-85639804D01*
X216787571Y-85645765D01*
X216810671Y-85654030D01*
X216832849Y-85664520D01*
X216853893Y-85677133D01*
X216873598Y-85691747D01*
X216891777Y-85708223D01*
X216908253Y-85726402D01*
X216922867Y-85746107D01*
X216935480Y-85767151D01*
X216945970Y-85789329D01*
X216954235Y-85812429D01*
X216960196Y-85836227D01*
X216963796Y-85860496D01*
X216965000Y-85885000D01*
X216965000Y-86425000D01*
X216963796Y-86449504D01*
X216960196Y-86473773D01*
X216954235Y-86497571D01*
X216945970Y-86520671D01*
X216935480Y-86542849D01*
X216922867Y-86563893D01*
X216908253Y-86583598D01*
X216891777Y-86601777D01*
X216873598Y-86618253D01*
X216853893Y-86632867D01*
X216832849Y-86645480D01*
X216810671Y-86655970D01*
X216787571Y-86664235D01*
X216763773Y-86670196D01*
X216739504Y-86673796D01*
X216715000Y-86675000D01*
X216175000Y-86675000D01*
X216150496Y-86673796D01*
X216126227Y-86670196D01*
X216102429Y-86664235D01*
X216079329Y-86655970D01*
X216057151Y-86645480D01*
X216036107Y-86632867D01*
X216016402Y-86618253D01*
X215998223Y-86601777D01*
X215981747Y-86583598D01*
X215967133Y-86563893D01*
X215954520Y-86542849D01*
X215944030Y-86520671D01*
X215935765Y-86497571D01*
X215929804Y-86473773D01*
X215926204Y-86449504D01*
X215925000Y-86425000D01*
X215925000Y-85885000D01*
X215926204Y-85860496D01*
X215929804Y-85836227D01*
X215935765Y-85812429D01*
X215944030Y-85789329D01*
X215954520Y-85767151D01*
X215967133Y-85746107D01*
X215981747Y-85726402D01*
X215998223Y-85708223D01*
X216016402Y-85691747D01*
X216036107Y-85677133D01*
X216057151Y-85664520D01*
X216079329Y-85654030D01*
X216102429Y-85645765D01*
X216126227Y-85639804D01*
X216150496Y-85636204D01*
X216175000Y-85635000D01*
X216715000Y-85635000D01*
X216739504Y-85636204D01*
G37*
G36*
X218029504Y-85636204D02*
G01*
X218053773Y-85639804D01*
X218077571Y-85645765D01*
X218100671Y-85654030D01*
X218122849Y-85664520D01*
X218143893Y-85677133D01*
X218163598Y-85691747D01*
X218181777Y-85708223D01*
X218198253Y-85726402D01*
X218212867Y-85746107D01*
X218225480Y-85767151D01*
X218235970Y-85789329D01*
X218244235Y-85812429D01*
X218250196Y-85836227D01*
X218253796Y-85860496D01*
X218255000Y-85885000D01*
X218255000Y-86425000D01*
X218253796Y-86449504D01*
X218250196Y-86473773D01*
X218244235Y-86497571D01*
X218235970Y-86520671D01*
X218225480Y-86542849D01*
X218212867Y-86563893D01*
X218198253Y-86583598D01*
X218181777Y-86601777D01*
X218163598Y-86618253D01*
X218143893Y-86632867D01*
X218122849Y-86645480D01*
X218100671Y-86655970D01*
X218077571Y-86664235D01*
X218053773Y-86670196D01*
X218029504Y-86673796D01*
X218005000Y-86675000D01*
X217465000Y-86675000D01*
X217440496Y-86673796D01*
X217416227Y-86670196D01*
X217392429Y-86664235D01*
X217369329Y-86655970D01*
X217347151Y-86645480D01*
X217326107Y-86632867D01*
X217306402Y-86618253D01*
X217288223Y-86601777D01*
X217271747Y-86583598D01*
X217257133Y-86563893D01*
X217244520Y-86542849D01*
X217234030Y-86520671D01*
X217225765Y-86497571D01*
X217219804Y-86473773D01*
X217216204Y-86449504D01*
X217215000Y-86425000D01*
X217215000Y-85885000D01*
X217216204Y-85860496D01*
X217219804Y-85836227D01*
X217225765Y-85812429D01*
X217234030Y-85789329D01*
X217244520Y-85767151D01*
X217257133Y-85746107D01*
X217271747Y-85726402D01*
X217288223Y-85708223D01*
X217306402Y-85691747D01*
X217326107Y-85677133D01*
X217347151Y-85664520D01*
X217369329Y-85654030D01*
X217392429Y-85645765D01*
X217416227Y-85639804D01*
X217440496Y-85636204D01*
X217465000Y-85635000D01*
X218005000Y-85635000D01*
X218029504Y-85636204D01*
G37*
G36*
X214159504Y-84346204D02*
G01*
X214183773Y-84349804D01*
X214207571Y-84355765D01*
X214230671Y-84364030D01*
X214252849Y-84374520D01*
X214273893Y-84387133D01*
X214293598Y-84401747D01*
X214311777Y-84418223D01*
X214328253Y-84436402D01*
X214342867Y-84456107D01*
X214355480Y-84477151D01*
X214365970Y-84499329D01*
X214374235Y-84522429D01*
X214380196Y-84546227D01*
X214383796Y-84570496D01*
X214385000Y-84595000D01*
X214385000Y-85135000D01*
X214383796Y-85159504D01*
X214380196Y-85183773D01*
X214374235Y-85207571D01*
X214365970Y-85230671D01*
X214355480Y-85252849D01*
X214342867Y-85273893D01*
X214328253Y-85293598D01*
X214311777Y-85311777D01*
X214293598Y-85328253D01*
X214273893Y-85342867D01*
X214252849Y-85355480D01*
X214230671Y-85365970D01*
X214207571Y-85374235D01*
X214183773Y-85380196D01*
X214159504Y-85383796D01*
X214135000Y-85385000D01*
X213595000Y-85385000D01*
X213570496Y-85383796D01*
X213546227Y-85380196D01*
X213522429Y-85374235D01*
X213499329Y-85365970D01*
X213477151Y-85355480D01*
X213456107Y-85342867D01*
X213436402Y-85328253D01*
X213418223Y-85311777D01*
X213401747Y-85293598D01*
X213387133Y-85273893D01*
X213374520Y-85252849D01*
X213364030Y-85230671D01*
X213355765Y-85207571D01*
X213349804Y-85183773D01*
X213346204Y-85159504D01*
X213345000Y-85135000D01*
X213345000Y-84595000D01*
X213346204Y-84570496D01*
X213349804Y-84546227D01*
X213355765Y-84522429D01*
X213364030Y-84499329D01*
X213374520Y-84477151D01*
X213387133Y-84456107D01*
X213401747Y-84436402D01*
X213418223Y-84418223D01*
X213436402Y-84401747D01*
X213456107Y-84387133D01*
X213477151Y-84374520D01*
X213499329Y-84364030D01*
X213522429Y-84355765D01*
X213546227Y-84349804D01*
X213570496Y-84346204D01*
X213595000Y-84345000D01*
X214135000Y-84345000D01*
X214159504Y-84346204D01*
G37*
G36*
X215449504Y-84346204D02*
G01*
X215473773Y-84349804D01*
X215497571Y-84355765D01*
X215520671Y-84364030D01*
X215542849Y-84374520D01*
X215563893Y-84387133D01*
X215583598Y-84401747D01*
X215601777Y-84418223D01*
X215618253Y-84436402D01*
X215632867Y-84456107D01*
X215645480Y-84477151D01*
X215655970Y-84499329D01*
X215664235Y-84522429D01*
X215670196Y-84546227D01*
X215673796Y-84570496D01*
X215675000Y-84595000D01*
X215675000Y-85135000D01*
X215673796Y-85159504D01*
X215670196Y-85183773D01*
X215664235Y-85207571D01*
X215655970Y-85230671D01*
X215645480Y-85252849D01*
X215632867Y-85273893D01*
X215618253Y-85293598D01*
X215601777Y-85311777D01*
X215583598Y-85328253D01*
X215563893Y-85342867D01*
X215542849Y-85355480D01*
X215520671Y-85365970D01*
X215497571Y-85374235D01*
X215473773Y-85380196D01*
X215449504Y-85383796D01*
X215425000Y-85385000D01*
X214885000Y-85385000D01*
X214860496Y-85383796D01*
X214836227Y-85380196D01*
X214812429Y-85374235D01*
X214789329Y-85365970D01*
X214767151Y-85355480D01*
X214746107Y-85342867D01*
X214726402Y-85328253D01*
X214708223Y-85311777D01*
X214691747Y-85293598D01*
X214677133Y-85273893D01*
X214664520Y-85252849D01*
X214654030Y-85230671D01*
X214645765Y-85207571D01*
X214639804Y-85183773D01*
X214636204Y-85159504D01*
X214635000Y-85135000D01*
X214635000Y-84595000D01*
X214636204Y-84570496D01*
X214639804Y-84546227D01*
X214645765Y-84522429D01*
X214654030Y-84499329D01*
X214664520Y-84477151D01*
X214677133Y-84456107D01*
X214691747Y-84436402D01*
X214708223Y-84418223D01*
X214726402Y-84401747D01*
X214746107Y-84387133D01*
X214767151Y-84374520D01*
X214789329Y-84364030D01*
X214812429Y-84355765D01*
X214836227Y-84349804D01*
X214860496Y-84346204D01*
X214885000Y-84345000D01*
X215425000Y-84345000D01*
X215449504Y-84346204D01*
G37*
G36*
X216739504Y-84346204D02*
G01*
X216763773Y-84349804D01*
X216787571Y-84355765D01*
X216810671Y-84364030D01*
X216832849Y-84374520D01*
X216853893Y-84387133D01*
X216873598Y-84401747D01*
X216891777Y-84418223D01*
X216908253Y-84436402D01*
X216922867Y-84456107D01*
X216935480Y-84477151D01*
X216945970Y-84499329D01*
X216954235Y-84522429D01*
X216960196Y-84546227D01*
X216963796Y-84570496D01*
X216965000Y-84595000D01*
X216965000Y-85135000D01*
X216963796Y-85159504D01*
X216960196Y-85183773D01*
X216954235Y-85207571D01*
X216945970Y-85230671D01*
X216935480Y-85252849D01*
X216922867Y-85273893D01*
X216908253Y-85293598D01*
X216891777Y-85311777D01*
X216873598Y-85328253D01*
X216853893Y-85342867D01*
X216832849Y-85355480D01*
X216810671Y-85365970D01*
X216787571Y-85374235D01*
X216763773Y-85380196D01*
X216739504Y-85383796D01*
X216715000Y-85385000D01*
X216175000Y-85385000D01*
X216150496Y-85383796D01*
X216126227Y-85380196D01*
X216102429Y-85374235D01*
X216079329Y-85365970D01*
X216057151Y-85355480D01*
X216036107Y-85342867D01*
X216016402Y-85328253D01*
X215998223Y-85311777D01*
X215981747Y-85293598D01*
X215967133Y-85273893D01*
X215954520Y-85252849D01*
X215944030Y-85230671D01*
X215935765Y-85207571D01*
X215929804Y-85183773D01*
X215926204Y-85159504D01*
X215925000Y-85135000D01*
X215925000Y-84595000D01*
X215926204Y-84570496D01*
X215929804Y-84546227D01*
X215935765Y-84522429D01*
X215944030Y-84499329D01*
X215954520Y-84477151D01*
X215967133Y-84456107D01*
X215981747Y-84436402D01*
X215998223Y-84418223D01*
X216016402Y-84401747D01*
X216036107Y-84387133D01*
X216057151Y-84374520D01*
X216079329Y-84364030D01*
X216102429Y-84355765D01*
X216126227Y-84349804D01*
X216150496Y-84346204D01*
X216175000Y-84345000D01*
X216715000Y-84345000D01*
X216739504Y-84346204D01*
G37*
G36*
X218029504Y-84346204D02*
G01*
X218053773Y-84349804D01*
X218077571Y-84355765D01*
X218100671Y-84364030D01*
X218122849Y-84374520D01*
X218143893Y-84387133D01*
X218163598Y-84401747D01*
X218181777Y-84418223D01*
X218198253Y-84436402D01*
X218212867Y-84456107D01*
X218225480Y-84477151D01*
X218235970Y-84499329D01*
X218244235Y-84522429D01*
X218250196Y-84546227D01*
X218253796Y-84570496D01*
X218255000Y-84595000D01*
X218255000Y-85135000D01*
X218253796Y-85159504D01*
X218250196Y-85183773D01*
X218244235Y-85207571D01*
X218235970Y-85230671D01*
X218225480Y-85252849D01*
X218212867Y-85273893D01*
X218198253Y-85293598D01*
X218181777Y-85311777D01*
X218163598Y-85328253D01*
X218143893Y-85342867D01*
X218122849Y-85355480D01*
X218100671Y-85365970D01*
X218077571Y-85374235D01*
X218053773Y-85380196D01*
X218029504Y-85383796D01*
X218005000Y-85385000D01*
X217465000Y-85385000D01*
X217440496Y-85383796D01*
X217416227Y-85380196D01*
X217392429Y-85374235D01*
X217369329Y-85365970D01*
X217347151Y-85355480D01*
X217326107Y-85342867D01*
X217306402Y-85328253D01*
X217288223Y-85311777D01*
X217271747Y-85293598D01*
X217257133Y-85273893D01*
X217244520Y-85252849D01*
X217234030Y-85230671D01*
X217225765Y-85207571D01*
X217219804Y-85183773D01*
X217216204Y-85159504D01*
X217215000Y-85135000D01*
X217215000Y-84595000D01*
X217216204Y-84570496D01*
X217219804Y-84546227D01*
X217225765Y-84522429D01*
X217234030Y-84499329D01*
X217244520Y-84477151D01*
X217257133Y-84456107D01*
X217271747Y-84436402D01*
X217288223Y-84418223D01*
X217306402Y-84401747D01*
X217326107Y-84387133D01*
X217347151Y-84374520D01*
X217369329Y-84364030D01*
X217392429Y-84355765D01*
X217416227Y-84349804D01*
X217440496Y-84346204D01*
X217465000Y-84345000D01*
X218005000Y-84345000D01*
X218029504Y-84346204D01*
G37*
G36*
X220776958Y-89080710D02*
G01*
X220791276Y-89082834D01*
X220805317Y-89086351D01*
X220818946Y-89091228D01*
X220832031Y-89097417D01*
X220844447Y-89104858D01*
X220856073Y-89113481D01*
X220866798Y-89123202D01*
X220876519Y-89133927D01*
X220885142Y-89145553D01*
X220892583Y-89157969D01*
X220898772Y-89171054D01*
X220903649Y-89184683D01*
X220907166Y-89198724D01*
X220909290Y-89213042D01*
X220910000Y-89227500D01*
X220910000Y-89572500D01*
X220909290Y-89586958D01*
X220907166Y-89601276D01*
X220903649Y-89615317D01*
X220898772Y-89628946D01*
X220892583Y-89642031D01*
X220885142Y-89654447D01*
X220876519Y-89666073D01*
X220866798Y-89676798D01*
X220856073Y-89686519D01*
X220844447Y-89695142D01*
X220832031Y-89702583D01*
X220818946Y-89708772D01*
X220805317Y-89713649D01*
X220791276Y-89717166D01*
X220776958Y-89719290D01*
X220762500Y-89720000D01*
X220467500Y-89720000D01*
X220453042Y-89719290D01*
X220438724Y-89717166D01*
X220424683Y-89713649D01*
X220411054Y-89708772D01*
X220397969Y-89702583D01*
X220385553Y-89695142D01*
X220373927Y-89686519D01*
X220363202Y-89676798D01*
X220353481Y-89666073D01*
X220344858Y-89654447D01*
X220337417Y-89642031D01*
X220331228Y-89628946D01*
X220326351Y-89615317D01*
X220322834Y-89601276D01*
X220320710Y-89586958D01*
X220320000Y-89572500D01*
X220320000Y-89227500D01*
X220320710Y-89213042D01*
X220322834Y-89198724D01*
X220326351Y-89184683D01*
X220331228Y-89171054D01*
X220337417Y-89157969D01*
X220344858Y-89145553D01*
X220353481Y-89133927D01*
X220363202Y-89123202D01*
X220373927Y-89113481D01*
X220385553Y-89104858D01*
X220397969Y-89097417D01*
X220411054Y-89091228D01*
X220424683Y-89086351D01*
X220438724Y-89082834D01*
X220453042Y-89080710D01*
X220467500Y-89080000D01*
X220762500Y-89080000D01*
X220776958Y-89080710D01*
G37*
G36*
X221746958Y-89080710D02*
G01*
X221761276Y-89082834D01*
X221775317Y-89086351D01*
X221788946Y-89091228D01*
X221802031Y-89097417D01*
X221814447Y-89104858D01*
X221826073Y-89113481D01*
X221836798Y-89123202D01*
X221846519Y-89133927D01*
X221855142Y-89145553D01*
X221862583Y-89157969D01*
X221868772Y-89171054D01*
X221873649Y-89184683D01*
X221877166Y-89198724D01*
X221879290Y-89213042D01*
X221880000Y-89227500D01*
X221880000Y-89572500D01*
X221879290Y-89586958D01*
X221877166Y-89601276D01*
X221873649Y-89615317D01*
X221868772Y-89628946D01*
X221862583Y-89642031D01*
X221855142Y-89654447D01*
X221846519Y-89666073D01*
X221836798Y-89676798D01*
X221826073Y-89686519D01*
X221814447Y-89695142D01*
X221802031Y-89702583D01*
X221788946Y-89708772D01*
X221775317Y-89713649D01*
X221761276Y-89717166D01*
X221746958Y-89719290D01*
X221732500Y-89720000D01*
X221437500Y-89720000D01*
X221423042Y-89719290D01*
X221408724Y-89717166D01*
X221394683Y-89713649D01*
X221381054Y-89708772D01*
X221367969Y-89702583D01*
X221355553Y-89695142D01*
X221343927Y-89686519D01*
X221333202Y-89676798D01*
X221323481Y-89666073D01*
X221314858Y-89654447D01*
X221307417Y-89642031D01*
X221301228Y-89628946D01*
X221296351Y-89615317D01*
X221292834Y-89601276D01*
X221290710Y-89586958D01*
X221290000Y-89572500D01*
X221290000Y-89227500D01*
X221290710Y-89213042D01*
X221292834Y-89198724D01*
X221296351Y-89184683D01*
X221301228Y-89171054D01*
X221307417Y-89157969D01*
X221314858Y-89145553D01*
X221323481Y-89133927D01*
X221333202Y-89123202D01*
X221343927Y-89113481D01*
X221355553Y-89104858D01*
X221367969Y-89097417D01*
X221381054Y-89091228D01*
X221394683Y-89086351D01*
X221408724Y-89082834D01*
X221423042Y-89080710D01*
X221437500Y-89080000D01*
X221732500Y-89080000D01*
X221746958Y-89080710D01*
G37*
G36*
X220761958Y-90180710D02*
G01*
X220776276Y-90182834D01*
X220790317Y-90186351D01*
X220803946Y-90191228D01*
X220817031Y-90197417D01*
X220829447Y-90204858D01*
X220841073Y-90213481D01*
X220851798Y-90223202D01*
X220861519Y-90233927D01*
X220870142Y-90245553D01*
X220877583Y-90257969D01*
X220883772Y-90271054D01*
X220888649Y-90284683D01*
X220892166Y-90298724D01*
X220894290Y-90313042D01*
X220895000Y-90327500D01*
X220895000Y-90672500D01*
X220894290Y-90686958D01*
X220892166Y-90701276D01*
X220888649Y-90715317D01*
X220883772Y-90728946D01*
X220877583Y-90742031D01*
X220870142Y-90754447D01*
X220861519Y-90766073D01*
X220851798Y-90776798D01*
X220841073Y-90786519D01*
X220829447Y-90795142D01*
X220817031Y-90802583D01*
X220803946Y-90808772D01*
X220790317Y-90813649D01*
X220776276Y-90817166D01*
X220761958Y-90819290D01*
X220747500Y-90820000D01*
X220452500Y-90820000D01*
X220438042Y-90819290D01*
X220423724Y-90817166D01*
X220409683Y-90813649D01*
X220396054Y-90808772D01*
X220382969Y-90802583D01*
X220370553Y-90795142D01*
X220358927Y-90786519D01*
X220348202Y-90776798D01*
X220338481Y-90766073D01*
X220329858Y-90754447D01*
X220322417Y-90742031D01*
X220316228Y-90728946D01*
X220311351Y-90715317D01*
X220307834Y-90701276D01*
X220305710Y-90686958D01*
X220305000Y-90672500D01*
X220305000Y-90327500D01*
X220305710Y-90313042D01*
X220307834Y-90298724D01*
X220311351Y-90284683D01*
X220316228Y-90271054D01*
X220322417Y-90257969D01*
X220329858Y-90245553D01*
X220338481Y-90233927D01*
X220348202Y-90223202D01*
X220358927Y-90213481D01*
X220370553Y-90204858D01*
X220382969Y-90197417D01*
X220396054Y-90191228D01*
X220409683Y-90186351D01*
X220423724Y-90182834D01*
X220438042Y-90180710D01*
X220452500Y-90180000D01*
X220747500Y-90180000D01*
X220761958Y-90180710D01*
G37*
G36*
X221731958Y-90180710D02*
G01*
X221746276Y-90182834D01*
X221760317Y-90186351D01*
X221773946Y-90191228D01*
X221787031Y-90197417D01*
X221799447Y-90204858D01*
X221811073Y-90213481D01*
X221821798Y-90223202D01*
X221831519Y-90233927D01*
X221840142Y-90245553D01*
X221847583Y-90257969D01*
X221853772Y-90271054D01*
X221858649Y-90284683D01*
X221862166Y-90298724D01*
X221864290Y-90313042D01*
X221865000Y-90327500D01*
X221865000Y-90672500D01*
X221864290Y-90686958D01*
X221862166Y-90701276D01*
X221858649Y-90715317D01*
X221853772Y-90728946D01*
X221847583Y-90742031D01*
X221840142Y-90754447D01*
X221831519Y-90766073D01*
X221821798Y-90776798D01*
X221811073Y-90786519D01*
X221799447Y-90795142D01*
X221787031Y-90802583D01*
X221773946Y-90808772D01*
X221760317Y-90813649D01*
X221746276Y-90817166D01*
X221731958Y-90819290D01*
X221717500Y-90820000D01*
X221422500Y-90820000D01*
X221408042Y-90819290D01*
X221393724Y-90817166D01*
X221379683Y-90813649D01*
X221366054Y-90808772D01*
X221352969Y-90802583D01*
X221340553Y-90795142D01*
X221328927Y-90786519D01*
X221318202Y-90776798D01*
X221308481Y-90766073D01*
X221299858Y-90754447D01*
X221292417Y-90742031D01*
X221286228Y-90728946D01*
X221281351Y-90715317D01*
X221277834Y-90701276D01*
X221275710Y-90686958D01*
X221275000Y-90672500D01*
X221275000Y-90327500D01*
X221275710Y-90313042D01*
X221277834Y-90298724D01*
X221281351Y-90284683D01*
X221286228Y-90271054D01*
X221292417Y-90257969D01*
X221299858Y-90245553D01*
X221308481Y-90233927D01*
X221318202Y-90223202D01*
X221328927Y-90213481D01*
X221340553Y-90204858D01*
X221352969Y-90197417D01*
X221366054Y-90191228D01*
X221379683Y-90186351D01*
X221393724Y-90182834D01*
X221408042Y-90180710D01*
X221422500Y-90180000D01*
X221717500Y-90180000D01*
X221731958Y-90180710D01*
G37*
G36*
X223761958Y-87980710D02*
G01*
X223776276Y-87982834D01*
X223790317Y-87986351D01*
X223803946Y-87991228D01*
X223817031Y-87997417D01*
X223829447Y-88004858D01*
X223841073Y-88013481D01*
X223851798Y-88023202D01*
X223861519Y-88033927D01*
X223870142Y-88045553D01*
X223877583Y-88057969D01*
X223883772Y-88071054D01*
X223888649Y-88084683D01*
X223892166Y-88098724D01*
X223894290Y-88113042D01*
X223895000Y-88127500D01*
X223895000Y-88472500D01*
X223894290Y-88486958D01*
X223892166Y-88501276D01*
X223888649Y-88515317D01*
X223883772Y-88528946D01*
X223877583Y-88542031D01*
X223870142Y-88554447D01*
X223861519Y-88566073D01*
X223851798Y-88576798D01*
X223841073Y-88586519D01*
X223829447Y-88595142D01*
X223817031Y-88602583D01*
X223803946Y-88608772D01*
X223790317Y-88613649D01*
X223776276Y-88617166D01*
X223761958Y-88619290D01*
X223747500Y-88620000D01*
X223452500Y-88620000D01*
X223438042Y-88619290D01*
X223423724Y-88617166D01*
X223409683Y-88613649D01*
X223396054Y-88608772D01*
X223382969Y-88602583D01*
X223370553Y-88595142D01*
X223358927Y-88586519D01*
X223348202Y-88576798D01*
X223338481Y-88566073D01*
X223329858Y-88554447D01*
X223322417Y-88542031D01*
X223316228Y-88528946D01*
X223311351Y-88515317D01*
X223307834Y-88501276D01*
X223305710Y-88486958D01*
X223305000Y-88472500D01*
X223305000Y-88127500D01*
X223305710Y-88113042D01*
X223307834Y-88098724D01*
X223311351Y-88084683D01*
X223316228Y-88071054D01*
X223322417Y-88057969D01*
X223329858Y-88045553D01*
X223338481Y-88033927D01*
X223348202Y-88023202D01*
X223358927Y-88013481D01*
X223370553Y-88004858D01*
X223382969Y-87997417D01*
X223396054Y-87991228D01*
X223409683Y-87986351D01*
X223423724Y-87982834D01*
X223438042Y-87980710D01*
X223452500Y-87980000D01*
X223747500Y-87980000D01*
X223761958Y-87980710D01*
G37*
G36*
X222791958Y-87980710D02*
G01*
X222806276Y-87982834D01*
X222820317Y-87986351D01*
X222833946Y-87991228D01*
X222847031Y-87997417D01*
X222859447Y-88004858D01*
X222871073Y-88013481D01*
X222881798Y-88023202D01*
X222891519Y-88033927D01*
X222900142Y-88045553D01*
X222907583Y-88057969D01*
X222913772Y-88071054D01*
X222918649Y-88084683D01*
X222922166Y-88098724D01*
X222924290Y-88113042D01*
X222925000Y-88127500D01*
X222925000Y-88472500D01*
X222924290Y-88486958D01*
X222922166Y-88501276D01*
X222918649Y-88515317D01*
X222913772Y-88528946D01*
X222907583Y-88542031D01*
X222900142Y-88554447D01*
X222891519Y-88566073D01*
X222881798Y-88576798D01*
X222871073Y-88586519D01*
X222859447Y-88595142D01*
X222847031Y-88602583D01*
X222833946Y-88608772D01*
X222820317Y-88613649D01*
X222806276Y-88617166D01*
X222791958Y-88619290D01*
X222777500Y-88620000D01*
X222482500Y-88620000D01*
X222468042Y-88619290D01*
X222453724Y-88617166D01*
X222439683Y-88613649D01*
X222426054Y-88608772D01*
X222412969Y-88602583D01*
X222400553Y-88595142D01*
X222388927Y-88586519D01*
X222378202Y-88576798D01*
X222368481Y-88566073D01*
X222359858Y-88554447D01*
X222352417Y-88542031D01*
X222346228Y-88528946D01*
X222341351Y-88515317D01*
X222337834Y-88501276D01*
X222335710Y-88486958D01*
X222335000Y-88472500D01*
X222335000Y-88127500D01*
X222335710Y-88113042D01*
X222337834Y-88098724D01*
X222341351Y-88084683D01*
X222346228Y-88071054D01*
X222352417Y-88057969D01*
X222359858Y-88045553D01*
X222368481Y-88033927D01*
X222378202Y-88023202D01*
X222388927Y-88013481D01*
X222400553Y-88004858D01*
X222412969Y-87997417D01*
X222426054Y-87991228D01*
X222439683Y-87986351D01*
X222453724Y-87982834D01*
X222468042Y-87980710D01*
X222482500Y-87980000D01*
X222777500Y-87980000D01*
X222791958Y-87980710D01*
G37*
G36*
X220761958Y-87980710D02*
G01*
X220776276Y-87982834D01*
X220790317Y-87986351D01*
X220803946Y-87991228D01*
X220817031Y-87997417D01*
X220829447Y-88004858D01*
X220841073Y-88013481D01*
X220851798Y-88023202D01*
X220861519Y-88033927D01*
X220870142Y-88045553D01*
X220877583Y-88057969D01*
X220883772Y-88071054D01*
X220888649Y-88084683D01*
X220892166Y-88098724D01*
X220894290Y-88113042D01*
X220895000Y-88127500D01*
X220895000Y-88472500D01*
X220894290Y-88486958D01*
X220892166Y-88501276D01*
X220888649Y-88515317D01*
X220883772Y-88528946D01*
X220877583Y-88542031D01*
X220870142Y-88554447D01*
X220861519Y-88566073D01*
X220851798Y-88576798D01*
X220841073Y-88586519D01*
X220829447Y-88595142D01*
X220817031Y-88602583D01*
X220803946Y-88608772D01*
X220790317Y-88613649D01*
X220776276Y-88617166D01*
X220761958Y-88619290D01*
X220747500Y-88620000D01*
X220452500Y-88620000D01*
X220438042Y-88619290D01*
X220423724Y-88617166D01*
X220409683Y-88613649D01*
X220396054Y-88608772D01*
X220382969Y-88602583D01*
X220370553Y-88595142D01*
X220358927Y-88586519D01*
X220348202Y-88576798D01*
X220338481Y-88566073D01*
X220329858Y-88554447D01*
X220322417Y-88542031D01*
X220316228Y-88528946D01*
X220311351Y-88515317D01*
X220307834Y-88501276D01*
X220305710Y-88486958D01*
X220305000Y-88472500D01*
X220305000Y-88127500D01*
X220305710Y-88113042D01*
X220307834Y-88098724D01*
X220311351Y-88084683D01*
X220316228Y-88071054D01*
X220322417Y-88057969D01*
X220329858Y-88045553D01*
X220338481Y-88033927D01*
X220348202Y-88023202D01*
X220358927Y-88013481D01*
X220370553Y-88004858D01*
X220382969Y-87997417D01*
X220396054Y-87991228D01*
X220409683Y-87986351D01*
X220423724Y-87982834D01*
X220438042Y-87980710D01*
X220452500Y-87980000D01*
X220747500Y-87980000D01*
X220761958Y-87980710D01*
G37*
G36*
X221731958Y-87980710D02*
G01*
X221746276Y-87982834D01*
X221760317Y-87986351D01*
X221773946Y-87991228D01*
X221787031Y-87997417D01*
X221799447Y-88004858D01*
X221811073Y-88013481D01*
X221821798Y-88023202D01*
X221831519Y-88033927D01*
X221840142Y-88045553D01*
X221847583Y-88057969D01*
X221853772Y-88071054D01*
X221858649Y-88084683D01*
X221862166Y-88098724D01*
X221864290Y-88113042D01*
X221865000Y-88127500D01*
X221865000Y-88472500D01*
X221864290Y-88486958D01*
X221862166Y-88501276D01*
X221858649Y-88515317D01*
X221853772Y-88528946D01*
X221847583Y-88542031D01*
X221840142Y-88554447D01*
X221831519Y-88566073D01*
X221821798Y-88576798D01*
X221811073Y-88586519D01*
X221799447Y-88595142D01*
X221787031Y-88602583D01*
X221773946Y-88608772D01*
X221760317Y-88613649D01*
X221746276Y-88617166D01*
X221731958Y-88619290D01*
X221717500Y-88620000D01*
X221422500Y-88620000D01*
X221408042Y-88619290D01*
X221393724Y-88617166D01*
X221379683Y-88613649D01*
X221366054Y-88608772D01*
X221352969Y-88602583D01*
X221340553Y-88595142D01*
X221328927Y-88586519D01*
X221318202Y-88576798D01*
X221308481Y-88566073D01*
X221299858Y-88554447D01*
X221292417Y-88542031D01*
X221286228Y-88528946D01*
X221281351Y-88515317D01*
X221277834Y-88501276D01*
X221275710Y-88486958D01*
X221275000Y-88472500D01*
X221275000Y-88127500D01*
X221275710Y-88113042D01*
X221277834Y-88098724D01*
X221281351Y-88084683D01*
X221286228Y-88071054D01*
X221292417Y-88057969D01*
X221299858Y-88045553D01*
X221308481Y-88033927D01*
X221318202Y-88023202D01*
X221328927Y-88013481D01*
X221340553Y-88004858D01*
X221352969Y-87997417D01*
X221366054Y-87991228D01*
X221379683Y-87986351D01*
X221393724Y-87982834D01*
X221408042Y-87980710D01*
X221422500Y-87980000D01*
X221717500Y-87980000D01*
X221731958Y-87980710D01*
G37*
G36*
X218661958Y-78580710D02*
G01*
X218676276Y-78582834D01*
X218690317Y-78586351D01*
X218703946Y-78591228D01*
X218717031Y-78597417D01*
X218729447Y-78604858D01*
X218741073Y-78613481D01*
X218751798Y-78623202D01*
X218761519Y-78633927D01*
X218770142Y-78645553D01*
X218777583Y-78657969D01*
X218783772Y-78671054D01*
X218788649Y-78684683D01*
X218792166Y-78698724D01*
X218794290Y-78713042D01*
X218795000Y-78727500D01*
X218795000Y-79072500D01*
X218794290Y-79086958D01*
X218792166Y-79101276D01*
X218788649Y-79115317D01*
X218783772Y-79128946D01*
X218777583Y-79142031D01*
X218770142Y-79154447D01*
X218761519Y-79166073D01*
X218751798Y-79176798D01*
X218741073Y-79186519D01*
X218729447Y-79195142D01*
X218717031Y-79202583D01*
X218703946Y-79208772D01*
X218690317Y-79213649D01*
X218676276Y-79217166D01*
X218661958Y-79219290D01*
X218647500Y-79220000D01*
X218352500Y-79220000D01*
X218338042Y-79219290D01*
X218323724Y-79217166D01*
X218309683Y-79213649D01*
X218296054Y-79208772D01*
X218282969Y-79202583D01*
X218270553Y-79195142D01*
X218258927Y-79186519D01*
X218248202Y-79176798D01*
X218238481Y-79166073D01*
X218229858Y-79154447D01*
X218222417Y-79142031D01*
X218216228Y-79128946D01*
X218211351Y-79115317D01*
X218207834Y-79101276D01*
X218205710Y-79086958D01*
X218205000Y-79072500D01*
X218205000Y-78727500D01*
X218205710Y-78713042D01*
X218207834Y-78698724D01*
X218211351Y-78684683D01*
X218216228Y-78671054D01*
X218222417Y-78657969D01*
X218229858Y-78645553D01*
X218238481Y-78633927D01*
X218248202Y-78623202D01*
X218258927Y-78613481D01*
X218270553Y-78604858D01*
X218282969Y-78597417D01*
X218296054Y-78591228D01*
X218309683Y-78586351D01*
X218323724Y-78582834D01*
X218338042Y-78580710D01*
X218352500Y-78580000D01*
X218647500Y-78580000D01*
X218661958Y-78580710D01*
G37*
G36*
X217691958Y-78580710D02*
G01*
X217706276Y-78582834D01*
X217720317Y-78586351D01*
X217733946Y-78591228D01*
X217747031Y-78597417D01*
X217759447Y-78604858D01*
X217771073Y-78613481D01*
X217781798Y-78623202D01*
X217791519Y-78633927D01*
X217800142Y-78645553D01*
X217807583Y-78657969D01*
X217813772Y-78671054D01*
X217818649Y-78684683D01*
X217822166Y-78698724D01*
X217824290Y-78713042D01*
X217825000Y-78727500D01*
X217825000Y-79072500D01*
X217824290Y-79086958D01*
X217822166Y-79101276D01*
X217818649Y-79115317D01*
X217813772Y-79128946D01*
X217807583Y-79142031D01*
X217800142Y-79154447D01*
X217791519Y-79166073D01*
X217781798Y-79176798D01*
X217771073Y-79186519D01*
X217759447Y-79195142D01*
X217747031Y-79202583D01*
X217733946Y-79208772D01*
X217720317Y-79213649D01*
X217706276Y-79217166D01*
X217691958Y-79219290D01*
X217677500Y-79220000D01*
X217382500Y-79220000D01*
X217368042Y-79219290D01*
X217353724Y-79217166D01*
X217339683Y-79213649D01*
X217326054Y-79208772D01*
X217312969Y-79202583D01*
X217300553Y-79195142D01*
X217288927Y-79186519D01*
X217278202Y-79176798D01*
X217268481Y-79166073D01*
X217259858Y-79154447D01*
X217252417Y-79142031D01*
X217246228Y-79128946D01*
X217241351Y-79115317D01*
X217237834Y-79101276D01*
X217235710Y-79086958D01*
X217235000Y-79072500D01*
X217235000Y-78727500D01*
X217235710Y-78713042D01*
X217237834Y-78698724D01*
X217241351Y-78684683D01*
X217246228Y-78671054D01*
X217252417Y-78657969D01*
X217259858Y-78645553D01*
X217268481Y-78633927D01*
X217278202Y-78623202D01*
X217288927Y-78613481D01*
X217300553Y-78604858D01*
X217312969Y-78597417D01*
X217326054Y-78591228D01*
X217339683Y-78586351D01*
X217353724Y-78582834D01*
X217368042Y-78580710D01*
X217382500Y-78580000D01*
X217677500Y-78580000D01*
X217691958Y-78580710D01*
G37*
G36*
X218661958Y-79680710D02*
G01*
X218676276Y-79682834D01*
X218690317Y-79686351D01*
X218703946Y-79691228D01*
X218717031Y-79697417D01*
X218729447Y-79704858D01*
X218741073Y-79713481D01*
X218751798Y-79723202D01*
X218761519Y-79733927D01*
X218770142Y-79745553D01*
X218777583Y-79757969D01*
X218783772Y-79771054D01*
X218788649Y-79784683D01*
X218792166Y-79798724D01*
X218794290Y-79813042D01*
X218795000Y-79827500D01*
X218795000Y-80172500D01*
X218794290Y-80186958D01*
X218792166Y-80201276D01*
X218788649Y-80215317D01*
X218783772Y-80228946D01*
X218777583Y-80242031D01*
X218770142Y-80254447D01*
X218761519Y-80266073D01*
X218751798Y-80276798D01*
X218741073Y-80286519D01*
X218729447Y-80295142D01*
X218717031Y-80302583D01*
X218703946Y-80308772D01*
X218690317Y-80313649D01*
X218676276Y-80317166D01*
X218661958Y-80319290D01*
X218647500Y-80320000D01*
X218352500Y-80320000D01*
X218338042Y-80319290D01*
X218323724Y-80317166D01*
X218309683Y-80313649D01*
X218296054Y-80308772D01*
X218282969Y-80302583D01*
X218270553Y-80295142D01*
X218258927Y-80286519D01*
X218248202Y-80276798D01*
X218238481Y-80266073D01*
X218229858Y-80254447D01*
X218222417Y-80242031D01*
X218216228Y-80228946D01*
X218211351Y-80215317D01*
X218207834Y-80201276D01*
X218205710Y-80186958D01*
X218205000Y-80172500D01*
X218205000Y-79827500D01*
X218205710Y-79813042D01*
X218207834Y-79798724D01*
X218211351Y-79784683D01*
X218216228Y-79771054D01*
X218222417Y-79757969D01*
X218229858Y-79745553D01*
X218238481Y-79733927D01*
X218248202Y-79723202D01*
X218258927Y-79713481D01*
X218270553Y-79704858D01*
X218282969Y-79697417D01*
X218296054Y-79691228D01*
X218309683Y-79686351D01*
X218323724Y-79682834D01*
X218338042Y-79680710D01*
X218352500Y-79680000D01*
X218647500Y-79680000D01*
X218661958Y-79680710D01*
G37*
G36*
X217691958Y-79680710D02*
G01*
X217706276Y-79682834D01*
X217720317Y-79686351D01*
X217733946Y-79691228D01*
X217747031Y-79697417D01*
X217759447Y-79704858D01*
X217771073Y-79713481D01*
X217781798Y-79723202D01*
X217791519Y-79733927D01*
X217800142Y-79745553D01*
X217807583Y-79757969D01*
X217813772Y-79771054D01*
X217818649Y-79784683D01*
X217822166Y-79798724D01*
X217824290Y-79813042D01*
X217825000Y-79827500D01*
X217825000Y-80172500D01*
X217824290Y-80186958D01*
X217822166Y-80201276D01*
X217818649Y-80215317D01*
X217813772Y-80228946D01*
X217807583Y-80242031D01*
X217800142Y-80254447D01*
X217791519Y-80266073D01*
X217781798Y-80276798D01*
X217771073Y-80286519D01*
X217759447Y-80295142D01*
X217747031Y-80302583D01*
X217733946Y-80308772D01*
X217720317Y-80313649D01*
X217706276Y-80317166D01*
X217691958Y-80319290D01*
X217677500Y-80320000D01*
X217382500Y-80320000D01*
X217368042Y-80319290D01*
X217353724Y-80317166D01*
X217339683Y-80313649D01*
X217326054Y-80308772D01*
X217312969Y-80302583D01*
X217300553Y-80295142D01*
X217288927Y-80286519D01*
X217278202Y-80276798D01*
X217268481Y-80266073D01*
X217259858Y-80254447D01*
X217252417Y-80242031D01*
X217246228Y-80228946D01*
X217241351Y-80215317D01*
X217237834Y-80201276D01*
X217235710Y-80186958D01*
X217235000Y-80172500D01*
X217235000Y-79827500D01*
X217235710Y-79813042D01*
X217237834Y-79798724D01*
X217241351Y-79784683D01*
X217246228Y-79771054D01*
X217252417Y-79757969D01*
X217259858Y-79745553D01*
X217268481Y-79733927D01*
X217278202Y-79723202D01*
X217288927Y-79713481D01*
X217300553Y-79704858D01*
X217312969Y-79697417D01*
X217326054Y-79691228D01*
X217339683Y-79686351D01*
X217353724Y-79682834D01*
X217368042Y-79680710D01*
X217382500Y-79680000D01*
X217677500Y-79680000D01*
X217691958Y-79680710D01*
G37*
G36*
X221746958Y-86880710D02*
G01*
X221761276Y-86882834D01*
X221775317Y-86886351D01*
X221788946Y-86891228D01*
X221802031Y-86897417D01*
X221814447Y-86904858D01*
X221826073Y-86913481D01*
X221836798Y-86923202D01*
X221846519Y-86933927D01*
X221855142Y-86945553D01*
X221862583Y-86957969D01*
X221868772Y-86971054D01*
X221873649Y-86984683D01*
X221877166Y-86998724D01*
X221879290Y-87013042D01*
X221880000Y-87027500D01*
X221880000Y-87372500D01*
X221879290Y-87386958D01*
X221877166Y-87401276D01*
X221873649Y-87415317D01*
X221868772Y-87428946D01*
X221862583Y-87442031D01*
X221855142Y-87454447D01*
X221846519Y-87466073D01*
X221836798Y-87476798D01*
X221826073Y-87486519D01*
X221814447Y-87495142D01*
X221802031Y-87502583D01*
X221788946Y-87508772D01*
X221775317Y-87513649D01*
X221761276Y-87517166D01*
X221746958Y-87519290D01*
X221732500Y-87520000D01*
X221437500Y-87520000D01*
X221423042Y-87519290D01*
X221408724Y-87517166D01*
X221394683Y-87513649D01*
X221381054Y-87508772D01*
X221367969Y-87502583D01*
X221355553Y-87495142D01*
X221343927Y-87486519D01*
X221333202Y-87476798D01*
X221323481Y-87466073D01*
X221314858Y-87454447D01*
X221307417Y-87442031D01*
X221301228Y-87428946D01*
X221296351Y-87415317D01*
X221292834Y-87401276D01*
X221290710Y-87386958D01*
X221290000Y-87372500D01*
X221290000Y-87027500D01*
X221290710Y-87013042D01*
X221292834Y-86998724D01*
X221296351Y-86984683D01*
X221301228Y-86971054D01*
X221307417Y-86957969D01*
X221314858Y-86945553D01*
X221323481Y-86933927D01*
X221333202Y-86923202D01*
X221343927Y-86913481D01*
X221355553Y-86904858D01*
X221367969Y-86897417D01*
X221381054Y-86891228D01*
X221394683Y-86886351D01*
X221408724Y-86882834D01*
X221423042Y-86880710D01*
X221437500Y-86880000D01*
X221732500Y-86880000D01*
X221746958Y-86880710D01*
G37*
G36*
X220776958Y-86880710D02*
G01*
X220791276Y-86882834D01*
X220805317Y-86886351D01*
X220818946Y-86891228D01*
X220832031Y-86897417D01*
X220844447Y-86904858D01*
X220856073Y-86913481D01*
X220866798Y-86923202D01*
X220876519Y-86933927D01*
X220885142Y-86945553D01*
X220892583Y-86957969D01*
X220898772Y-86971054D01*
X220903649Y-86984683D01*
X220907166Y-86998724D01*
X220909290Y-87013042D01*
X220910000Y-87027500D01*
X220910000Y-87372500D01*
X220909290Y-87386958D01*
X220907166Y-87401276D01*
X220903649Y-87415317D01*
X220898772Y-87428946D01*
X220892583Y-87442031D01*
X220885142Y-87454447D01*
X220876519Y-87466073D01*
X220866798Y-87476798D01*
X220856073Y-87486519D01*
X220844447Y-87495142D01*
X220832031Y-87502583D01*
X220818946Y-87508772D01*
X220805317Y-87513649D01*
X220791276Y-87517166D01*
X220776958Y-87519290D01*
X220762500Y-87520000D01*
X220467500Y-87520000D01*
X220453042Y-87519290D01*
X220438724Y-87517166D01*
X220424683Y-87513649D01*
X220411054Y-87508772D01*
X220397969Y-87502583D01*
X220385553Y-87495142D01*
X220373927Y-87486519D01*
X220363202Y-87476798D01*
X220353481Y-87466073D01*
X220344858Y-87454447D01*
X220337417Y-87442031D01*
X220331228Y-87428946D01*
X220326351Y-87415317D01*
X220322834Y-87401276D01*
X220320710Y-87386958D01*
X220320000Y-87372500D01*
X220320000Y-87027500D01*
X220320710Y-87013042D01*
X220322834Y-86998724D01*
X220326351Y-86984683D01*
X220331228Y-86971054D01*
X220337417Y-86957969D01*
X220344858Y-86945553D01*
X220353481Y-86933927D01*
X220363202Y-86923202D01*
X220373927Y-86913481D01*
X220385553Y-86904858D01*
X220397969Y-86897417D01*
X220411054Y-86891228D01*
X220424683Y-86886351D01*
X220438724Y-86882834D01*
X220453042Y-86880710D01*
X220467500Y-86880000D01*
X220762500Y-86880000D01*
X220776958Y-86880710D01*
G37*
G36*
X213261958Y-81680710D02*
G01*
X213276276Y-81682834D01*
X213290317Y-81686351D01*
X213303946Y-81691228D01*
X213317031Y-81697417D01*
X213329447Y-81704858D01*
X213341073Y-81713481D01*
X213351798Y-81723202D01*
X213361519Y-81733927D01*
X213370142Y-81745553D01*
X213377583Y-81757969D01*
X213383772Y-81771054D01*
X213388649Y-81784683D01*
X213392166Y-81798724D01*
X213394290Y-81813042D01*
X213395000Y-81827500D01*
X213395000Y-82172500D01*
X213394290Y-82186958D01*
X213392166Y-82201276D01*
X213388649Y-82215317D01*
X213383772Y-82228946D01*
X213377583Y-82242031D01*
X213370142Y-82254447D01*
X213361519Y-82266073D01*
X213351798Y-82276798D01*
X213341073Y-82286519D01*
X213329447Y-82295142D01*
X213317031Y-82302583D01*
X213303946Y-82308772D01*
X213290317Y-82313649D01*
X213276276Y-82317166D01*
X213261958Y-82319290D01*
X213247500Y-82320000D01*
X212952500Y-82320000D01*
X212938042Y-82319290D01*
X212923724Y-82317166D01*
X212909683Y-82313649D01*
X212896054Y-82308772D01*
X212882969Y-82302583D01*
X212870553Y-82295142D01*
X212858927Y-82286519D01*
X212848202Y-82276798D01*
X212838481Y-82266073D01*
X212829858Y-82254447D01*
X212822417Y-82242031D01*
X212816228Y-82228946D01*
X212811351Y-82215317D01*
X212807834Y-82201276D01*
X212805710Y-82186958D01*
X212805000Y-82172500D01*
X212805000Y-81827500D01*
X212805710Y-81813042D01*
X212807834Y-81798724D01*
X212811351Y-81784683D01*
X212816228Y-81771054D01*
X212822417Y-81757969D01*
X212829858Y-81745553D01*
X212838481Y-81733927D01*
X212848202Y-81723202D01*
X212858927Y-81713481D01*
X212870553Y-81704858D01*
X212882969Y-81697417D01*
X212896054Y-81691228D01*
X212909683Y-81686351D01*
X212923724Y-81682834D01*
X212938042Y-81680710D01*
X212952500Y-81680000D01*
X213247500Y-81680000D01*
X213261958Y-81680710D01*
G37*
G36*
X212291958Y-81680710D02*
G01*
X212306276Y-81682834D01*
X212320317Y-81686351D01*
X212333946Y-81691228D01*
X212347031Y-81697417D01*
X212359447Y-81704858D01*
X212371073Y-81713481D01*
X212381798Y-81723202D01*
X212391519Y-81733927D01*
X212400142Y-81745553D01*
X212407583Y-81757969D01*
X212413772Y-81771054D01*
X212418649Y-81784683D01*
X212422166Y-81798724D01*
X212424290Y-81813042D01*
X212425000Y-81827500D01*
X212425000Y-82172500D01*
X212424290Y-82186958D01*
X212422166Y-82201276D01*
X212418649Y-82215317D01*
X212413772Y-82228946D01*
X212407583Y-82242031D01*
X212400142Y-82254447D01*
X212391519Y-82266073D01*
X212381798Y-82276798D01*
X212371073Y-82286519D01*
X212359447Y-82295142D01*
X212347031Y-82302583D01*
X212333946Y-82308772D01*
X212320317Y-82313649D01*
X212306276Y-82317166D01*
X212291958Y-82319290D01*
X212277500Y-82320000D01*
X211982500Y-82320000D01*
X211968042Y-82319290D01*
X211953724Y-82317166D01*
X211939683Y-82313649D01*
X211926054Y-82308772D01*
X211912969Y-82302583D01*
X211900553Y-82295142D01*
X211888927Y-82286519D01*
X211878202Y-82276798D01*
X211868481Y-82266073D01*
X211859858Y-82254447D01*
X211852417Y-82242031D01*
X211846228Y-82228946D01*
X211841351Y-82215317D01*
X211837834Y-82201276D01*
X211835710Y-82186958D01*
X211835000Y-82172500D01*
X211835000Y-81827500D01*
X211835710Y-81813042D01*
X211837834Y-81798724D01*
X211841351Y-81784683D01*
X211846228Y-81771054D01*
X211852417Y-81757969D01*
X211859858Y-81745553D01*
X211868481Y-81733927D01*
X211878202Y-81723202D01*
X211888927Y-81713481D01*
X211900553Y-81704858D01*
X211912969Y-81697417D01*
X211926054Y-81691228D01*
X211939683Y-81686351D01*
X211953724Y-81682834D01*
X211968042Y-81680710D01*
X211982500Y-81680000D01*
X212277500Y-81680000D01*
X212291958Y-81680710D01*
G37*
G36*
X210291958Y-88280710D02*
G01*
X210306276Y-88282834D01*
X210320317Y-88286351D01*
X210333946Y-88291228D01*
X210347031Y-88297417D01*
X210359447Y-88304858D01*
X210371073Y-88313481D01*
X210381798Y-88323202D01*
X210391519Y-88333927D01*
X210400142Y-88345553D01*
X210407583Y-88357969D01*
X210413772Y-88371054D01*
X210418649Y-88384683D01*
X210422166Y-88398724D01*
X210424290Y-88413042D01*
X210425000Y-88427500D01*
X210425000Y-88772500D01*
X210424290Y-88786958D01*
X210422166Y-88801276D01*
X210418649Y-88815317D01*
X210413772Y-88828946D01*
X210407583Y-88842031D01*
X210400142Y-88854447D01*
X210391519Y-88866073D01*
X210381798Y-88876798D01*
X210371073Y-88886519D01*
X210359447Y-88895142D01*
X210347031Y-88902583D01*
X210333946Y-88908772D01*
X210320317Y-88913649D01*
X210306276Y-88917166D01*
X210291958Y-88919290D01*
X210277500Y-88920000D01*
X209982500Y-88920000D01*
X209968042Y-88919290D01*
X209953724Y-88917166D01*
X209939683Y-88913649D01*
X209926054Y-88908772D01*
X209912969Y-88902583D01*
X209900553Y-88895142D01*
X209888927Y-88886519D01*
X209878202Y-88876798D01*
X209868481Y-88866073D01*
X209859858Y-88854447D01*
X209852417Y-88842031D01*
X209846228Y-88828946D01*
X209841351Y-88815317D01*
X209837834Y-88801276D01*
X209835710Y-88786958D01*
X209835000Y-88772500D01*
X209835000Y-88427500D01*
X209835710Y-88413042D01*
X209837834Y-88398724D01*
X209841351Y-88384683D01*
X209846228Y-88371054D01*
X209852417Y-88357969D01*
X209859858Y-88345553D01*
X209868481Y-88333927D01*
X209878202Y-88323202D01*
X209888927Y-88313481D01*
X209900553Y-88304858D01*
X209912969Y-88297417D01*
X209926054Y-88291228D01*
X209939683Y-88286351D01*
X209953724Y-88282834D01*
X209968042Y-88280710D01*
X209982500Y-88280000D01*
X210277500Y-88280000D01*
X210291958Y-88280710D01*
G37*
G36*
X211261958Y-88280710D02*
G01*
X211276276Y-88282834D01*
X211290317Y-88286351D01*
X211303946Y-88291228D01*
X211317031Y-88297417D01*
X211329447Y-88304858D01*
X211341073Y-88313481D01*
X211351798Y-88323202D01*
X211361519Y-88333927D01*
X211370142Y-88345553D01*
X211377583Y-88357969D01*
X211383772Y-88371054D01*
X211388649Y-88384683D01*
X211392166Y-88398724D01*
X211394290Y-88413042D01*
X211395000Y-88427500D01*
X211395000Y-88772500D01*
X211394290Y-88786958D01*
X211392166Y-88801276D01*
X211388649Y-88815317D01*
X211383772Y-88828946D01*
X211377583Y-88842031D01*
X211370142Y-88854447D01*
X211361519Y-88866073D01*
X211351798Y-88876798D01*
X211341073Y-88886519D01*
X211329447Y-88895142D01*
X211317031Y-88902583D01*
X211303946Y-88908772D01*
X211290317Y-88913649D01*
X211276276Y-88917166D01*
X211261958Y-88919290D01*
X211247500Y-88920000D01*
X210952500Y-88920000D01*
X210938042Y-88919290D01*
X210923724Y-88917166D01*
X210909683Y-88913649D01*
X210896054Y-88908772D01*
X210882969Y-88902583D01*
X210870553Y-88895142D01*
X210858927Y-88886519D01*
X210848202Y-88876798D01*
X210838481Y-88866073D01*
X210829858Y-88854447D01*
X210822417Y-88842031D01*
X210816228Y-88828946D01*
X210811351Y-88815317D01*
X210807834Y-88801276D01*
X210805710Y-88786958D01*
X210805000Y-88772500D01*
X210805000Y-88427500D01*
X210805710Y-88413042D01*
X210807834Y-88398724D01*
X210811351Y-88384683D01*
X210816228Y-88371054D01*
X210822417Y-88357969D01*
X210829858Y-88345553D01*
X210838481Y-88333927D01*
X210848202Y-88323202D01*
X210858927Y-88313481D01*
X210870553Y-88304858D01*
X210882969Y-88297417D01*
X210896054Y-88291228D01*
X210909683Y-88286351D01*
X210923724Y-88282834D01*
X210938042Y-88280710D01*
X210952500Y-88280000D01*
X211247500Y-88280000D01*
X211261958Y-88280710D01*
G37*
G36*
X221746958Y-85780710D02*
G01*
X221761276Y-85782834D01*
X221775317Y-85786351D01*
X221788946Y-85791228D01*
X221802031Y-85797417D01*
X221814447Y-85804858D01*
X221826073Y-85813481D01*
X221836798Y-85823202D01*
X221846519Y-85833927D01*
X221855142Y-85845553D01*
X221862583Y-85857969D01*
X221868772Y-85871054D01*
X221873649Y-85884683D01*
X221877166Y-85898724D01*
X221879290Y-85913042D01*
X221880000Y-85927500D01*
X221880000Y-86272500D01*
X221879290Y-86286958D01*
X221877166Y-86301276D01*
X221873649Y-86315317D01*
X221868772Y-86328946D01*
X221862583Y-86342031D01*
X221855142Y-86354447D01*
X221846519Y-86366073D01*
X221836798Y-86376798D01*
X221826073Y-86386519D01*
X221814447Y-86395142D01*
X221802031Y-86402583D01*
X221788946Y-86408772D01*
X221775317Y-86413649D01*
X221761276Y-86417166D01*
X221746958Y-86419290D01*
X221732500Y-86420000D01*
X221437500Y-86420000D01*
X221423042Y-86419290D01*
X221408724Y-86417166D01*
X221394683Y-86413649D01*
X221381054Y-86408772D01*
X221367969Y-86402583D01*
X221355553Y-86395142D01*
X221343927Y-86386519D01*
X221333202Y-86376798D01*
X221323481Y-86366073D01*
X221314858Y-86354447D01*
X221307417Y-86342031D01*
X221301228Y-86328946D01*
X221296351Y-86315317D01*
X221292834Y-86301276D01*
X221290710Y-86286958D01*
X221290000Y-86272500D01*
X221290000Y-85927500D01*
X221290710Y-85913042D01*
X221292834Y-85898724D01*
X221296351Y-85884683D01*
X221301228Y-85871054D01*
X221307417Y-85857969D01*
X221314858Y-85845553D01*
X221323481Y-85833927D01*
X221333202Y-85823202D01*
X221343927Y-85813481D01*
X221355553Y-85804858D01*
X221367969Y-85797417D01*
X221381054Y-85791228D01*
X221394683Y-85786351D01*
X221408724Y-85782834D01*
X221423042Y-85780710D01*
X221437500Y-85780000D01*
X221732500Y-85780000D01*
X221746958Y-85780710D01*
G37*
G36*
X220776958Y-85780710D02*
G01*
X220791276Y-85782834D01*
X220805317Y-85786351D01*
X220818946Y-85791228D01*
X220832031Y-85797417D01*
X220844447Y-85804858D01*
X220856073Y-85813481D01*
X220866798Y-85823202D01*
X220876519Y-85833927D01*
X220885142Y-85845553D01*
X220892583Y-85857969D01*
X220898772Y-85871054D01*
X220903649Y-85884683D01*
X220907166Y-85898724D01*
X220909290Y-85913042D01*
X220910000Y-85927500D01*
X220910000Y-86272500D01*
X220909290Y-86286958D01*
X220907166Y-86301276D01*
X220903649Y-86315317D01*
X220898772Y-86328946D01*
X220892583Y-86342031D01*
X220885142Y-86354447D01*
X220876519Y-86366073D01*
X220866798Y-86376798D01*
X220856073Y-86386519D01*
X220844447Y-86395142D01*
X220832031Y-86402583D01*
X220818946Y-86408772D01*
X220805317Y-86413649D01*
X220791276Y-86417166D01*
X220776958Y-86419290D01*
X220762500Y-86420000D01*
X220467500Y-86420000D01*
X220453042Y-86419290D01*
X220438724Y-86417166D01*
X220424683Y-86413649D01*
X220411054Y-86408772D01*
X220397969Y-86402583D01*
X220385553Y-86395142D01*
X220373927Y-86386519D01*
X220363202Y-86376798D01*
X220353481Y-86366073D01*
X220344858Y-86354447D01*
X220337417Y-86342031D01*
X220331228Y-86328946D01*
X220326351Y-86315317D01*
X220322834Y-86301276D01*
X220320710Y-86286958D01*
X220320000Y-86272500D01*
X220320000Y-85927500D01*
X220320710Y-85913042D01*
X220322834Y-85898724D01*
X220326351Y-85884683D01*
X220331228Y-85871054D01*
X220337417Y-85857969D01*
X220344858Y-85845553D01*
X220353481Y-85833927D01*
X220363202Y-85823202D01*
X220373927Y-85813481D01*
X220385553Y-85804858D01*
X220397969Y-85797417D01*
X220411054Y-85791228D01*
X220424683Y-85786351D01*
X220438724Y-85782834D01*
X220453042Y-85780710D01*
X220467500Y-85780000D01*
X220762500Y-85780000D01*
X220776958Y-85780710D01*
G37*
G36*
X220631958Y-81680710D02*
G01*
X220646276Y-81682834D01*
X220660317Y-81686351D01*
X220673946Y-81691228D01*
X220687031Y-81697417D01*
X220699447Y-81704858D01*
X220711073Y-81713481D01*
X220721798Y-81723202D01*
X220731519Y-81733927D01*
X220740142Y-81745553D01*
X220747583Y-81757969D01*
X220753772Y-81771054D01*
X220758649Y-81784683D01*
X220762166Y-81798724D01*
X220764290Y-81813042D01*
X220765000Y-81827500D01*
X220765000Y-82172500D01*
X220764290Y-82186958D01*
X220762166Y-82201276D01*
X220758649Y-82215317D01*
X220753772Y-82228946D01*
X220747583Y-82242031D01*
X220740142Y-82254447D01*
X220731519Y-82266073D01*
X220721798Y-82276798D01*
X220711073Y-82286519D01*
X220699447Y-82295142D01*
X220687031Y-82302583D01*
X220673946Y-82308772D01*
X220660317Y-82313649D01*
X220646276Y-82317166D01*
X220631958Y-82319290D01*
X220617500Y-82320000D01*
X220322500Y-82320000D01*
X220308042Y-82319290D01*
X220293724Y-82317166D01*
X220279683Y-82313649D01*
X220266054Y-82308772D01*
X220252969Y-82302583D01*
X220240553Y-82295142D01*
X220228927Y-82286519D01*
X220218202Y-82276798D01*
X220208481Y-82266073D01*
X220199858Y-82254447D01*
X220192417Y-82242031D01*
X220186228Y-82228946D01*
X220181351Y-82215317D01*
X220177834Y-82201276D01*
X220175710Y-82186958D01*
X220175000Y-82172500D01*
X220175000Y-81827500D01*
X220175710Y-81813042D01*
X220177834Y-81798724D01*
X220181351Y-81784683D01*
X220186228Y-81771054D01*
X220192417Y-81757969D01*
X220199858Y-81745553D01*
X220208481Y-81733927D01*
X220218202Y-81723202D01*
X220228927Y-81713481D01*
X220240553Y-81704858D01*
X220252969Y-81697417D01*
X220266054Y-81691228D01*
X220279683Y-81686351D01*
X220293724Y-81682834D01*
X220308042Y-81680710D01*
X220322500Y-81680000D01*
X220617500Y-81680000D01*
X220631958Y-81680710D01*
G37*
G36*
X219661958Y-81680710D02*
G01*
X219676276Y-81682834D01*
X219690317Y-81686351D01*
X219703946Y-81691228D01*
X219717031Y-81697417D01*
X219729447Y-81704858D01*
X219741073Y-81713481D01*
X219751798Y-81723202D01*
X219761519Y-81733927D01*
X219770142Y-81745553D01*
X219777583Y-81757969D01*
X219783772Y-81771054D01*
X219788649Y-81784683D01*
X219792166Y-81798724D01*
X219794290Y-81813042D01*
X219795000Y-81827500D01*
X219795000Y-82172500D01*
X219794290Y-82186958D01*
X219792166Y-82201276D01*
X219788649Y-82215317D01*
X219783772Y-82228946D01*
X219777583Y-82242031D01*
X219770142Y-82254447D01*
X219761519Y-82266073D01*
X219751798Y-82276798D01*
X219741073Y-82286519D01*
X219729447Y-82295142D01*
X219717031Y-82302583D01*
X219703946Y-82308772D01*
X219690317Y-82313649D01*
X219676276Y-82317166D01*
X219661958Y-82319290D01*
X219647500Y-82320000D01*
X219352500Y-82320000D01*
X219338042Y-82319290D01*
X219323724Y-82317166D01*
X219309683Y-82313649D01*
X219296054Y-82308772D01*
X219282969Y-82302583D01*
X219270553Y-82295142D01*
X219258927Y-82286519D01*
X219248202Y-82276798D01*
X219238481Y-82266073D01*
X219229858Y-82254447D01*
X219222417Y-82242031D01*
X219216228Y-82228946D01*
X219211351Y-82215317D01*
X219207834Y-82201276D01*
X219205710Y-82186958D01*
X219205000Y-82172500D01*
X219205000Y-81827500D01*
X219205710Y-81813042D01*
X219207834Y-81798724D01*
X219211351Y-81784683D01*
X219216228Y-81771054D01*
X219222417Y-81757969D01*
X219229858Y-81745553D01*
X219238481Y-81733927D01*
X219248202Y-81723202D01*
X219258927Y-81713481D01*
X219270553Y-81704858D01*
X219282969Y-81697417D01*
X219296054Y-81691228D01*
X219309683Y-81686351D01*
X219323724Y-81682834D01*
X219338042Y-81680710D01*
X219352500Y-81680000D01*
X219647500Y-81680000D01*
X219661958Y-81680710D01*
G37*
G36*
X211261958Y-89380710D02*
G01*
X211276276Y-89382834D01*
X211290317Y-89386351D01*
X211303946Y-89391228D01*
X211317031Y-89397417D01*
X211329447Y-89404858D01*
X211341073Y-89413481D01*
X211351798Y-89423202D01*
X211361519Y-89433927D01*
X211370142Y-89445553D01*
X211377583Y-89457969D01*
X211383772Y-89471054D01*
X211388649Y-89484683D01*
X211392166Y-89498724D01*
X211394290Y-89513042D01*
X211395000Y-89527500D01*
X211395000Y-89872500D01*
X211394290Y-89886958D01*
X211392166Y-89901276D01*
X211388649Y-89915317D01*
X211383772Y-89928946D01*
X211377583Y-89942031D01*
X211370142Y-89954447D01*
X211361519Y-89966073D01*
X211351798Y-89976798D01*
X211341073Y-89986519D01*
X211329447Y-89995142D01*
X211317031Y-90002583D01*
X211303946Y-90008772D01*
X211290317Y-90013649D01*
X211276276Y-90017166D01*
X211261958Y-90019290D01*
X211247500Y-90020000D01*
X210952500Y-90020000D01*
X210938042Y-90019290D01*
X210923724Y-90017166D01*
X210909683Y-90013649D01*
X210896054Y-90008772D01*
X210882969Y-90002583D01*
X210870553Y-89995142D01*
X210858927Y-89986519D01*
X210848202Y-89976798D01*
X210838481Y-89966073D01*
X210829858Y-89954447D01*
X210822417Y-89942031D01*
X210816228Y-89928946D01*
X210811351Y-89915317D01*
X210807834Y-89901276D01*
X210805710Y-89886958D01*
X210805000Y-89872500D01*
X210805000Y-89527500D01*
X210805710Y-89513042D01*
X210807834Y-89498724D01*
X210811351Y-89484683D01*
X210816228Y-89471054D01*
X210822417Y-89457969D01*
X210829858Y-89445553D01*
X210838481Y-89433927D01*
X210848202Y-89423202D01*
X210858927Y-89413481D01*
X210870553Y-89404858D01*
X210882969Y-89397417D01*
X210896054Y-89391228D01*
X210909683Y-89386351D01*
X210923724Y-89382834D01*
X210938042Y-89380710D01*
X210952500Y-89380000D01*
X211247500Y-89380000D01*
X211261958Y-89380710D01*
G37*
G36*
X210291958Y-89380710D02*
G01*
X210306276Y-89382834D01*
X210320317Y-89386351D01*
X210333946Y-89391228D01*
X210347031Y-89397417D01*
X210359447Y-89404858D01*
X210371073Y-89413481D01*
X210381798Y-89423202D01*
X210391519Y-89433927D01*
X210400142Y-89445553D01*
X210407583Y-89457969D01*
X210413772Y-89471054D01*
X210418649Y-89484683D01*
X210422166Y-89498724D01*
X210424290Y-89513042D01*
X210425000Y-89527500D01*
X210425000Y-89872500D01*
X210424290Y-89886958D01*
X210422166Y-89901276D01*
X210418649Y-89915317D01*
X210413772Y-89928946D01*
X210407583Y-89942031D01*
X210400142Y-89954447D01*
X210391519Y-89966073D01*
X210381798Y-89976798D01*
X210371073Y-89986519D01*
X210359447Y-89995142D01*
X210347031Y-90002583D01*
X210333946Y-90008772D01*
X210320317Y-90013649D01*
X210306276Y-90017166D01*
X210291958Y-90019290D01*
X210277500Y-90020000D01*
X209982500Y-90020000D01*
X209968042Y-90019290D01*
X209953724Y-90017166D01*
X209939683Y-90013649D01*
X209926054Y-90008772D01*
X209912969Y-90002583D01*
X209900553Y-89995142D01*
X209888927Y-89986519D01*
X209878202Y-89976798D01*
X209868481Y-89966073D01*
X209859858Y-89954447D01*
X209852417Y-89942031D01*
X209846228Y-89928946D01*
X209841351Y-89915317D01*
X209837834Y-89901276D01*
X209835710Y-89886958D01*
X209835000Y-89872500D01*
X209835000Y-89527500D01*
X209835710Y-89513042D01*
X209837834Y-89498724D01*
X209841351Y-89484683D01*
X209846228Y-89471054D01*
X209852417Y-89457969D01*
X209859858Y-89445553D01*
X209868481Y-89433927D01*
X209878202Y-89423202D01*
X209888927Y-89413481D01*
X209900553Y-89404858D01*
X209912969Y-89397417D01*
X209926054Y-89391228D01*
X209939683Y-89386351D01*
X209953724Y-89382834D01*
X209968042Y-89380710D01*
X209982500Y-89380000D01*
X210277500Y-89380000D01*
X210291958Y-89380710D01*
G37*
D18*
X215700000Y-77780000D03*
X215700000Y-76080000D03*
D19*
X218300000Y-76930000D03*
X213100000Y-76930000D03*
M02*
