M48
;Layer_Color=13278208
;FILE_FORMAT=4:4
METRIC,TZ
;TYPE=PLATED
T1F00S00C0.1999
T2F00S00C0.4501
T3F00S00C0.9500
%
T01
X1271727Y10711057
Y10700897
Y10690737
Y10680577
Y10670417
Y10660258
Y10650098
Y10639938
X1276807Y10645017
Y10655177
Y10665338
Y10675498
Y10685658
Y10695818
Y10705978
Y10634857
X1554556Y10639938
Y10650098
Y10660258
Y10670417
Y10680577
Y10690737
Y10700897
Y10711057
X1559636Y10705978
Y10695818
Y10685658
Y10675498
Y10665338
Y10655177
Y10645017
X1559687Y10634730
X1559636Y10716138
Y10726298
Y10736458
X1554556Y10731479
Y10741538
Y10751698
Y10761858
X1559636Y10766937
Y10756777
Y10746617
X1554556Y10721217
X1276807Y10716138
X1271727Y10721217
Y10731378
X1276807Y10726399
Y10736458
X1271727Y10741538
X1276807Y10746617
X1271727Y10751698
X1276807Y10756777
X1271727Y10761858
X1276807Y10766937
X2449932Y11478773
X2498725
X2547518
X2596312
X2645131
X2693924
X2742717
X2791511
X2840330
X2889123
Y11527566
Y11576360
Y11625178
X2875559Y11647124
X2874874Y11667672
X2889123Y11673972
X2853182Y11650476
X2841930Y11650375
X2847823Y11643060
X2820467Y11648521
X2820111Y11666631
X2791511Y11673972
X2784678Y11623756
X2795422Y11568409
X2762529Y11593174
X2745029Y11534221
X2638273Y11536812
X2543124Y11541968
X2493518Y11542374
X2449932Y11527566
Y11576360
Y11625178
Y11673972
X2498725
X2547518
X2596312
X2645131
X2645562Y11650222
X2693924Y11673972
X2742717
X2582316Y11611970
X2531516Y11611361
T02
X2787828Y10252614
X2784653Y10195463
X2832278
X2860853Y10255789
X2879903Y10290713
X2737028Y10252614
Y10195463
X2689403
X2641778
X2594153
Y10239913
X2641778Y10252614
X2527478Y10271663
X2489378Y10278013
X2451278Y10290713
Y10243088
X2498903Y10195463
X2546528
X1565453Y10424062
X1517828
X1470203
X1422578
X1374953
Y10468513
X1422578Y10481213
Y10566938
Y10614563
X1470203
Y10566938
X1517828
Y10614563
X1565453
Y10566938
X1568628Y10481213
X1517828
X1308278Y10500262
X1270178Y10503438
X1232078Y10519313
Y10566938
X1279703
X1327328
X1374953
Y10614563
X1327328
X1279703
X1232078
Y10471688
X1279703Y10424062
X1327328
X1613078
X1641653Y10484388
X1660703Y10519313
Y10566938
Y10614563
X1600378Y10627263
X1816278Y10512963
X1863903
Y10465338
X1816278
Y10417712
Y10370088
X1854378Y10401838
X1892478Y10398663
X1911528Y10465338
X1959153
Y10512963
X1911528
Y10322463
X1959153
Y10366913
X1863903Y10322463
X2006778
X2054403
X2102028
X2149653
X2197278
X2225853Y10382788
X2244903Y10417712
Y10465338
Y10512963
X2232203Y10525663
X2149653Y10512963
Y10465338
X2102028
Y10512963
X2054403
X2006778
Y10465338
X2054403
X2102028Y10379613
X2152828
X2006778
X2206803Y10601863
X2451278Y10385963
X2498903
X2546528
Y10338337
X2594153
Y10385963
X2641778
X2689403
X2737028
Y10338337
X2689403
X2641778
X2498903
X2451278
X2733853Y10519313
X2784653Y10385963
Y10338337
X2879903
Y10385963
X2848153Y10430413
X2822753Y10919363
X2791003
Y10989213
X2803703Y11059062
X2892603Y11046364
Y10995563
X2860853Y10970164
X2752903Y10989213
X2759253Y11059062
X2714803
X2664003
X2619553
X2575103
X2537003
X2492553Y11046364
Y10995563
X2537003
X2575103
X2613203Y10963813
X2651303Y10976512
X2638603Y10919363
X2587803
X2537003
X2492553Y10944763
X2689403Y10919363
X2740203
X2213153
X2181403
X2130603
X2079803
X2029003
X2041703Y10976512
X2003603Y10963813
X2009953Y11059062
X2054403
X2105203
X2149653
X2194103
X2181403Y10989213
X2143303
X2251253Y10970164
X2283003Y10995563
Y11046364
X1965503Y11059062
X1927403
X1882953Y11046364
Y10995563
X1927403
X1965503
X1978203Y10919363
X1927403
X1882953Y10944763
X1673403Y10995563
Y11046364
X1641653Y10970164
X1603553Y10919363
X1571803
X1521003
X1470203
X1419403
X1368603
X1317803
X1273353Y10944763
Y10995563
X1317803
X1355903
Y11059062
X1317803
X1273353Y11046364
X1400353Y11059062
X1444803
X1495603
X1540053
X1584503
X1571803Y10989213
X1533703
X1432103Y10976512
X1394003Y10963813
X1406703Y11452762
X1457503
X1508303
X1559103
X1432103Y11503563
X1394003
X1355903Y11452762
X1305103
X1273353Y11465463
X1609903Y11452762
X1641653Y11503563
X1876603Y11497213
X1921053Y11484513
X1971853
X2022653
X2073453
X2124253
X2175053
X2206803
X2866212Y11541765
X2825928Y11705773
X2820771Y11787129
X2583129Y11543162
X2276653Y11548013
X2244903Y11528962
X2175053Y11548013
X2136953
X2143303Y11611512
X2187753
X2232203Y11614688
X2276653Y11598813
X2225853Y11697238
X2098853Y11611512
X2048053
X2003603
X1997253Y11522614
X2035353Y11535312
X1959153Y11554363
X1921053
X1876603Y11548013
Y11598813
X1921053Y11611512
X1959153
X1660703Y11567063
Y11516263
X1616253Y11589288
X1594790Y11691014
X1578153Y11586113
Y11522614
X1540053
X1476553Y11586113
X1432103
X1394003
X1355903
X1317803
Y11528962
X1355903
X1273353Y11516263
Y11567063
X1882953Y12030613
Y12081414
Y12132213
X1927403Y12144913
X1965503
Y12087762
X1927403Y12090938
Y12017913
X1978203
X2029003
X2079803
X2130603
X2181403
X2213153
X2251253Y12065538
X2283003Y12081414
Y12132213
X2225853Y12148088
X2194103Y12144913
X2149653
X2105203
X2054403
X2009953
X2003603Y12056013
X2041703Y12068713
X2143303Y12081414
X2181403
X2205406Y12221163
T03
X2476678Y10303413
X2502078
X2527478
X2552878
X2578278
X2679878
X2705278
X2730678
X1511478Y10532013
X1486078
X1460678
X1359078
X1333678
X1308278
X1282878
X1257478
X1841678Y10430413
X1867078
X1892478
X1917878
X1943278
X2044878
X2070278
X2095678
X2524303Y11027313
X2549703
X2575103
X2600503
X2625903
X2684043
X2709443
X2734843
X2125243
X2099843
X2074443
X2016303
X1990903
X1965503
X1940103
X1914703
X1515643
X1490243
X1464843
X1406703
X1381303
X1355903
X1330503
X1305103
X2481682Y11576207
X2507082
X2532482
X2557882
X2583282
X2685720Y11578264
X2711120
X2736520
X2118893Y11586113
X2093493
X2068093
X2009953
X1984553
X1959153
X1933753
X1908353
X1524178Y11560713
X1498778
X1473378
X1406703
X1381303
X1355903
X1330503
X1305103
X1914703Y12119513
X1940103
X1965503
X1990903
X2016303
X2076628
X2102028
X2127428
M30
