M48
;Layer_Color=13278208
;FILE_FORMAT=4:4
METRIC,TZ
;TYPE=NON_PLATED
T4F00S00C0.5999
%
T04
X2649077Y10162352
X2658936
X2669039
X2678996
X2067861Y10289315
X2057756
X2047896
X2037791Y10289376
X1459980Y10400458
X1449858Y10400403
X1439792Y10400458
X1429725Y10400621
X1194811Y10572747
X1194894Y10582772
X1194811Y10592799
X1194853Y10602784
X1694865Y10602761
X1694815Y10592773
Y10582736
X1694915Y10572698
X1773668Y10546969
X1773726Y10537100
X1773784Y10527057
X1773668Y10516956
X2331976Y10517061
Y10526937
X2332072Y10537103
X2331976Y10547029
X2415023Y10483573
Y10473553
X2415071Y10463534
X2415023Y10453610
X2913018Y10453567
X2913108Y10463362
X2913198Y10473606
X2913108Y10483490
X2914120Y11080681
Y11090551
Y11100605
X2914059Y11110597
X2679150Y10883092
X2669074
X2658997
X2649000
X2649080Y10774596
X2659054Y10774685
X2669028
X2679183
X2414051Y11080582
X2414095Y11090626
X2414051Y11100581
Y11110580
X2304447Y11110566
X2304517Y11100549
Y11090673
X2304588Y11080586
X2069361Y10883025
X2059497Y10882906
X2049633Y10883143
X2039413
X2037867Y10774768
X2047752Y10774678
X2057906Y10774589
X2067970
X1804426Y11080737
X1804285Y11090586
X1804426Y11100435
X1804567Y11110564
X1694684
X1694825Y11100435
Y11090586
Y11080597
X1459899Y10883148
X1449772
X1440058
X1429931
X1194771Y11080616
X1194820Y11090591
X1194869Y11100664
X1194820Y11110638
X1430126Y11308074
X1440041
X1449955
X1459870
Y11416566
X1449955Y11416426
X1439899
X1429985
X2039277Y11441921
X2049350Y11442041
X2059424Y11441921
X2069618Y11441801
X2069442Y11308073
X2059525
X2049460
X2039345
X2648899Y11308096
X2658938
X2669177Y11308029
X2679149Y11308163
X2675930Y11445779
X2685911Y11445736
X2665863Y11445822
X2655882Y11445779
X2069515Y11866954
X2059364Y11866820
X2049484
X2039468
X1694818Y11892748
X1694876Y11902697
X1804498Y11669301
X1804415Y11659355
X1804498Y11649410
Y11639382
X1194888Y11892621
Y11902780
X1194793Y11912559
Y11922622
X1694818Y11922712
Y11912705
X1804382Y12172767
X1804537Y12182728
X1804382Y12192844
X1804537Y12202805
X2039468Y11975283
X2049484
X2059447Y11975089
X2069739Y11975295
X2304448Y12172872
Y12182753
X2304313Y12192769
X2304448Y12202784
X2417986Y11936484
X2417927Y11926536
X2417986Y11916469
X2417927Y11906520
X2923755Y11906361
X2923873Y11916366
Y11926371
Y11936493
X2685847Y12397134
X2675953Y12397236
X2665854Y12397134
X2655754Y12397236
X2069482Y12400270
X2059439
X2049552
X2039510Y12400193
X1459905Y12398868
X1449905
X1439810Y12398862
X1429842
M30
