G04 #@! TF.GenerationSoftware,KiCad,Pcbnew,(5.1.5-0-10_14)*
G04 #@! TF.CreationDate,2020-03-10T08:19:59-07:00*
G04 #@! TF.ProjectId,ARBO BT,4152424f-2042-4542-9e6b-696361645f70,rev?*
G04 #@! TF.SameCoordinates,Original*
G04 #@! TF.FileFunction,Copper,L1,Top*
G04 #@! TF.FilePolarity,Positive*
%FSLAX46Y46*%
G04 Gerber Fmt 4.6, Leading zero omitted, Abs format (unit mm)*
G04 Created by KiCad (PCBNEW (5.1.5-0-10_14)) date 2020-03-10 08:19:59*
%MOMM*%
%LPD*%
G04 APERTURE LIST*
%ADD10C,0.200000*%
%ADD11C,0.200000*%
%ADD12R,2.000000X3.000000*%
%ADD13C,0.100000*%
%ADD14R,0.800000X0.900000*%
%ADD15R,1.100000X0.380000*%
%ADD16R,0.630000X0.230000*%
%ADD17R,0.180000X0.200000*%
%ADD18R,0.350000X0.375000*%
%ADD19R,0.375000X0.350000*%
%ADD20R,0.600000X1.100000*%
%ADD21R,0.650000X1.060000*%
%ADD22C,0.279000*%
%ADD23C,0.450000*%
%ADD24C,0.127000*%
%ADD25C,0.076200*%
%ADD26C,0.250000*%
G04 APERTURE END LIST*
D10*
G36*
X141100000Y-75450000D02*
G01*
X135900000Y-75450000D01*
X135900000Y-80250000D01*
X141100000Y-80250000D01*
X141100000Y-75450000D01*
G37*
X141100000Y-75450000D02*
X135900000Y-75450000D01*
X135900000Y-80250000D01*
X141100000Y-80250000D01*
X141100000Y-75450000D01*
G36*
X124460000Y-73055000D02*
G01*
X123550000Y-73055000D01*
X123550000Y-72760000D01*
X124350000Y-72760000D01*
X124460000Y-72865000D01*
X124460000Y-73055000D01*
G37*
X124460000Y-73055000D02*
X123550000Y-73055000D01*
X123550000Y-72760000D01*
X124350000Y-72760000D01*
X124460000Y-72865000D01*
X124460000Y-73055000D01*
D11*
X135900000Y-75450000D03*
X140900000Y-81050000D03*
X140500000Y-81050000D03*
X140100000Y-81050000D03*
X139700000Y-81050000D03*
X139300000Y-81050000D03*
X138900000Y-81050000D03*
X138500000Y-81050000D03*
X138100000Y-81050000D03*
X137700000Y-81050000D03*
X137300000Y-81050000D03*
X136900000Y-81050000D03*
X136500000Y-81050000D03*
X136100000Y-81050000D03*
X135700000Y-81050000D03*
X135100000Y-80450000D03*
X135100000Y-80050000D03*
X135100000Y-79650000D03*
X135100000Y-79250000D03*
X135100000Y-78850000D03*
X135100000Y-78450000D03*
X135100000Y-78050000D03*
X135100000Y-77650000D03*
X135100000Y-77250000D03*
X135100000Y-76850000D03*
X135100000Y-76450000D03*
X135100000Y-76050000D03*
X135100000Y-75650000D03*
X135100000Y-75250000D03*
X135900000Y-75050000D03*
X136300000Y-75050000D03*
X136700000Y-75050000D03*
X137100000Y-75050000D03*
X137500000Y-75050000D03*
X135500000Y-75050000D03*
X135500000Y-75450000D03*
X135500000Y-75850000D03*
X135500000Y-76250000D03*
X135500000Y-76650000D03*
X135500000Y-77050000D03*
X135500000Y-77450000D03*
X135500000Y-77850000D03*
X135500000Y-78250000D03*
X135500000Y-78650000D03*
X135500000Y-79050000D03*
X135500000Y-79450000D03*
X135500000Y-79850000D03*
X135500000Y-80250000D03*
X135500000Y-80650000D03*
X135900000Y-80650000D03*
X136300000Y-80650000D03*
X136700000Y-80650000D03*
X137100000Y-80650000D03*
X137500000Y-80650000D03*
X137900000Y-80650000D03*
X138300000Y-80650000D03*
X138700000Y-80650000D03*
X139100000Y-80650000D03*
X139500000Y-80650000D03*
X139900000Y-80650000D03*
X140300000Y-80650000D03*
X140700000Y-80650000D03*
X141100000Y-80650000D03*
X141500000Y-80450000D03*
X141500000Y-80050000D03*
X141500000Y-79650000D03*
X141500000Y-79250000D03*
X141500000Y-78850000D03*
X141500000Y-78450000D03*
X141500000Y-78050000D03*
X141500000Y-77650000D03*
X141500000Y-77250000D03*
X141500000Y-76850000D03*
X141500000Y-76450000D03*
X141500000Y-76050000D03*
X141500000Y-75650000D03*
X141500000Y-75250000D03*
X141100000Y-75050000D03*
X140700000Y-75050000D03*
X140300000Y-75050000D03*
X139900000Y-75050000D03*
X139500000Y-75050000D03*
X139100000Y-75050000D03*
X138700000Y-75050000D03*
X138300000Y-75050000D03*
X137900000Y-75050000D03*
X136100000Y-74650000D03*
X140500000Y-74650000D03*
X140100000Y-74650000D03*
X139700000Y-74650000D03*
X139300000Y-74650000D03*
X138900000Y-74650000D03*
X138500000Y-74650000D03*
X137700000Y-74650000D03*
X138100000Y-74650000D03*
D12*
X149300000Y-78750000D03*
G04 #@! TA.AperFunction,SMDPad,CuDef*
D13*
G36*
X142659802Y-75980482D02*
G01*
X142669509Y-75981921D01*
X142679028Y-75984306D01*
X142688268Y-75987612D01*
X142697140Y-75991808D01*
X142705557Y-75996853D01*
X142713439Y-76002699D01*
X142720711Y-76009289D01*
X142727301Y-76016561D01*
X142733147Y-76024443D01*
X142738192Y-76032860D01*
X142742388Y-76041732D01*
X142745694Y-76050972D01*
X142748079Y-76060491D01*
X142749518Y-76070198D01*
X142750000Y-76080000D01*
X142750000Y-76340000D01*
X142749518Y-76349802D01*
X142748079Y-76359509D01*
X142745694Y-76369028D01*
X142742388Y-76378268D01*
X142738192Y-76387140D01*
X142733147Y-76395557D01*
X142727301Y-76403439D01*
X142720711Y-76410711D01*
X142713439Y-76417301D01*
X142705557Y-76423147D01*
X142697140Y-76428192D01*
X142688268Y-76432388D01*
X142679028Y-76435694D01*
X142669509Y-76438079D01*
X142659802Y-76439518D01*
X142650000Y-76440000D01*
X142450000Y-76440000D01*
X142440198Y-76439518D01*
X142430491Y-76438079D01*
X142420972Y-76435694D01*
X142411732Y-76432388D01*
X142402860Y-76428192D01*
X142394443Y-76423147D01*
X142386561Y-76417301D01*
X142379289Y-76410711D01*
X142372699Y-76403439D01*
X142366853Y-76395557D01*
X142361808Y-76387140D01*
X142357612Y-76378268D01*
X142354306Y-76369028D01*
X142351921Y-76359509D01*
X142350482Y-76349802D01*
X142350000Y-76340000D01*
X142350000Y-76080000D01*
X142350482Y-76070198D01*
X142351921Y-76060491D01*
X142354306Y-76050972D01*
X142357612Y-76041732D01*
X142361808Y-76032860D01*
X142366853Y-76024443D01*
X142372699Y-76016561D01*
X142379289Y-76009289D01*
X142386561Y-76002699D01*
X142394443Y-75996853D01*
X142402860Y-75991808D01*
X142411732Y-75987612D01*
X142420972Y-75984306D01*
X142430491Y-75981921D01*
X142440198Y-75980482D01*
X142450000Y-75980000D01*
X142650000Y-75980000D01*
X142659802Y-75980482D01*
G37*
G04 #@! TD.AperFunction*
G04 #@! TA.AperFunction,SMDPad,CuDef*
G36*
X142659802Y-76620482D02*
G01*
X142669509Y-76621921D01*
X142679028Y-76624306D01*
X142688268Y-76627612D01*
X142697140Y-76631808D01*
X142705557Y-76636853D01*
X142713439Y-76642699D01*
X142720711Y-76649289D01*
X142727301Y-76656561D01*
X142733147Y-76664443D01*
X142738192Y-76672860D01*
X142742388Y-76681732D01*
X142745694Y-76690972D01*
X142748079Y-76700491D01*
X142749518Y-76710198D01*
X142750000Y-76720000D01*
X142750000Y-76980000D01*
X142749518Y-76989802D01*
X142748079Y-76999509D01*
X142745694Y-77009028D01*
X142742388Y-77018268D01*
X142738192Y-77027140D01*
X142733147Y-77035557D01*
X142727301Y-77043439D01*
X142720711Y-77050711D01*
X142713439Y-77057301D01*
X142705557Y-77063147D01*
X142697140Y-77068192D01*
X142688268Y-77072388D01*
X142679028Y-77075694D01*
X142669509Y-77078079D01*
X142659802Y-77079518D01*
X142650000Y-77080000D01*
X142450000Y-77080000D01*
X142440198Y-77079518D01*
X142430491Y-77078079D01*
X142420972Y-77075694D01*
X142411732Y-77072388D01*
X142402860Y-77068192D01*
X142394443Y-77063147D01*
X142386561Y-77057301D01*
X142379289Y-77050711D01*
X142372699Y-77043439D01*
X142366853Y-77035557D01*
X142361808Y-77027140D01*
X142357612Y-77018268D01*
X142354306Y-77009028D01*
X142351921Y-76999509D01*
X142350482Y-76989802D01*
X142350000Y-76980000D01*
X142350000Y-76720000D01*
X142350482Y-76710198D01*
X142351921Y-76700491D01*
X142354306Y-76690972D01*
X142357612Y-76681732D01*
X142361808Y-76672860D01*
X142366853Y-76664443D01*
X142372699Y-76656561D01*
X142379289Y-76649289D01*
X142386561Y-76642699D01*
X142394443Y-76636853D01*
X142402860Y-76631808D01*
X142411732Y-76627612D01*
X142420972Y-76624306D01*
X142430491Y-76621921D01*
X142440198Y-76620482D01*
X142450000Y-76620000D01*
X142650000Y-76620000D01*
X142659802Y-76620482D01*
G37*
G04 #@! TD.AperFunction*
D14*
X143850000Y-73950000D03*
X143850000Y-72550000D03*
X144950000Y-72550000D03*
X144950000Y-73950000D03*
G04 #@! TA.AperFunction,SMDPad,CuDef*
D13*
G36*
X126446958Y-72230710D02*
G01*
X126461276Y-72232834D01*
X126475317Y-72236351D01*
X126488946Y-72241228D01*
X126502031Y-72247417D01*
X126514447Y-72254858D01*
X126526073Y-72263481D01*
X126536798Y-72273202D01*
X126546519Y-72283927D01*
X126555142Y-72295553D01*
X126562583Y-72307969D01*
X126568772Y-72321054D01*
X126573649Y-72334683D01*
X126577166Y-72348724D01*
X126579290Y-72363042D01*
X126580000Y-72377500D01*
X126580000Y-72722500D01*
X126579290Y-72736958D01*
X126577166Y-72751276D01*
X126573649Y-72765317D01*
X126568772Y-72778946D01*
X126562583Y-72792031D01*
X126555142Y-72804447D01*
X126546519Y-72816073D01*
X126536798Y-72826798D01*
X126526073Y-72836519D01*
X126514447Y-72845142D01*
X126502031Y-72852583D01*
X126488946Y-72858772D01*
X126475317Y-72863649D01*
X126461276Y-72867166D01*
X126446958Y-72869290D01*
X126432500Y-72870000D01*
X126137500Y-72870000D01*
X126123042Y-72869290D01*
X126108724Y-72867166D01*
X126094683Y-72863649D01*
X126081054Y-72858772D01*
X126067969Y-72852583D01*
X126055553Y-72845142D01*
X126043927Y-72836519D01*
X126033202Y-72826798D01*
X126023481Y-72816073D01*
X126014858Y-72804447D01*
X126007417Y-72792031D01*
X126001228Y-72778946D01*
X125996351Y-72765317D01*
X125992834Y-72751276D01*
X125990710Y-72736958D01*
X125990000Y-72722500D01*
X125990000Y-72377500D01*
X125990710Y-72363042D01*
X125992834Y-72348724D01*
X125996351Y-72334683D01*
X126001228Y-72321054D01*
X126007417Y-72307969D01*
X126014858Y-72295553D01*
X126023481Y-72283927D01*
X126033202Y-72273202D01*
X126043927Y-72263481D01*
X126055553Y-72254858D01*
X126067969Y-72247417D01*
X126081054Y-72241228D01*
X126094683Y-72236351D01*
X126108724Y-72232834D01*
X126123042Y-72230710D01*
X126137500Y-72230000D01*
X126432500Y-72230000D01*
X126446958Y-72230710D01*
G37*
G04 #@! TD.AperFunction*
G04 #@! TA.AperFunction,SMDPad,CuDef*
G36*
X125476958Y-72230710D02*
G01*
X125491276Y-72232834D01*
X125505317Y-72236351D01*
X125518946Y-72241228D01*
X125532031Y-72247417D01*
X125544447Y-72254858D01*
X125556073Y-72263481D01*
X125566798Y-72273202D01*
X125576519Y-72283927D01*
X125585142Y-72295553D01*
X125592583Y-72307969D01*
X125598772Y-72321054D01*
X125603649Y-72334683D01*
X125607166Y-72348724D01*
X125609290Y-72363042D01*
X125610000Y-72377500D01*
X125610000Y-72722500D01*
X125609290Y-72736958D01*
X125607166Y-72751276D01*
X125603649Y-72765317D01*
X125598772Y-72778946D01*
X125592583Y-72792031D01*
X125585142Y-72804447D01*
X125576519Y-72816073D01*
X125566798Y-72826798D01*
X125556073Y-72836519D01*
X125544447Y-72845142D01*
X125532031Y-72852583D01*
X125518946Y-72858772D01*
X125505317Y-72863649D01*
X125491276Y-72867166D01*
X125476958Y-72869290D01*
X125462500Y-72870000D01*
X125167500Y-72870000D01*
X125153042Y-72869290D01*
X125138724Y-72867166D01*
X125124683Y-72863649D01*
X125111054Y-72858772D01*
X125097969Y-72852583D01*
X125085553Y-72845142D01*
X125073927Y-72836519D01*
X125063202Y-72826798D01*
X125053481Y-72816073D01*
X125044858Y-72804447D01*
X125037417Y-72792031D01*
X125031228Y-72778946D01*
X125026351Y-72765317D01*
X125022834Y-72751276D01*
X125020710Y-72736958D01*
X125020000Y-72722500D01*
X125020000Y-72377500D01*
X125020710Y-72363042D01*
X125022834Y-72348724D01*
X125026351Y-72334683D01*
X125031228Y-72321054D01*
X125037417Y-72307969D01*
X125044858Y-72295553D01*
X125053481Y-72283927D01*
X125063202Y-72273202D01*
X125073927Y-72263481D01*
X125085553Y-72254858D01*
X125097969Y-72247417D01*
X125111054Y-72241228D01*
X125124683Y-72236351D01*
X125138724Y-72232834D01*
X125153042Y-72230710D01*
X125167500Y-72230000D01*
X125462500Y-72230000D01*
X125476958Y-72230710D01*
G37*
G04 #@! TD.AperFunction*
G04 #@! TA.AperFunction,SMDPad,CuDef*
G36*
X141891958Y-81930710D02*
G01*
X141906276Y-81932834D01*
X141920317Y-81936351D01*
X141933946Y-81941228D01*
X141947031Y-81947417D01*
X141959447Y-81954858D01*
X141971073Y-81963481D01*
X141981798Y-81973202D01*
X141991519Y-81983927D01*
X142000142Y-81995553D01*
X142007583Y-82007969D01*
X142013772Y-82021054D01*
X142018649Y-82034683D01*
X142022166Y-82048724D01*
X142024290Y-82063042D01*
X142025000Y-82077500D01*
X142025000Y-82422500D01*
X142024290Y-82436958D01*
X142022166Y-82451276D01*
X142018649Y-82465317D01*
X142013772Y-82478946D01*
X142007583Y-82492031D01*
X142000142Y-82504447D01*
X141991519Y-82516073D01*
X141981798Y-82526798D01*
X141971073Y-82536519D01*
X141959447Y-82545142D01*
X141947031Y-82552583D01*
X141933946Y-82558772D01*
X141920317Y-82563649D01*
X141906276Y-82567166D01*
X141891958Y-82569290D01*
X141877500Y-82570000D01*
X141582500Y-82570000D01*
X141568042Y-82569290D01*
X141553724Y-82567166D01*
X141539683Y-82563649D01*
X141526054Y-82558772D01*
X141512969Y-82552583D01*
X141500553Y-82545142D01*
X141488927Y-82536519D01*
X141478202Y-82526798D01*
X141468481Y-82516073D01*
X141459858Y-82504447D01*
X141452417Y-82492031D01*
X141446228Y-82478946D01*
X141441351Y-82465317D01*
X141437834Y-82451276D01*
X141435710Y-82436958D01*
X141435000Y-82422500D01*
X141435000Y-82077500D01*
X141435710Y-82063042D01*
X141437834Y-82048724D01*
X141441351Y-82034683D01*
X141446228Y-82021054D01*
X141452417Y-82007969D01*
X141459858Y-81995553D01*
X141468481Y-81983927D01*
X141478202Y-81973202D01*
X141488927Y-81963481D01*
X141500553Y-81954858D01*
X141512969Y-81947417D01*
X141526054Y-81941228D01*
X141539683Y-81936351D01*
X141553724Y-81932834D01*
X141568042Y-81930710D01*
X141582500Y-81930000D01*
X141877500Y-81930000D01*
X141891958Y-81930710D01*
G37*
G04 #@! TD.AperFunction*
G04 #@! TA.AperFunction,SMDPad,CuDef*
G36*
X142861958Y-81930710D02*
G01*
X142876276Y-81932834D01*
X142890317Y-81936351D01*
X142903946Y-81941228D01*
X142917031Y-81947417D01*
X142929447Y-81954858D01*
X142941073Y-81963481D01*
X142951798Y-81973202D01*
X142961519Y-81983927D01*
X142970142Y-81995553D01*
X142977583Y-82007969D01*
X142983772Y-82021054D01*
X142988649Y-82034683D01*
X142992166Y-82048724D01*
X142994290Y-82063042D01*
X142995000Y-82077500D01*
X142995000Y-82422500D01*
X142994290Y-82436958D01*
X142992166Y-82451276D01*
X142988649Y-82465317D01*
X142983772Y-82478946D01*
X142977583Y-82492031D01*
X142970142Y-82504447D01*
X142961519Y-82516073D01*
X142951798Y-82526798D01*
X142941073Y-82536519D01*
X142929447Y-82545142D01*
X142917031Y-82552583D01*
X142903946Y-82558772D01*
X142890317Y-82563649D01*
X142876276Y-82567166D01*
X142861958Y-82569290D01*
X142847500Y-82570000D01*
X142552500Y-82570000D01*
X142538042Y-82569290D01*
X142523724Y-82567166D01*
X142509683Y-82563649D01*
X142496054Y-82558772D01*
X142482969Y-82552583D01*
X142470553Y-82545142D01*
X142458927Y-82536519D01*
X142448202Y-82526798D01*
X142438481Y-82516073D01*
X142429858Y-82504447D01*
X142422417Y-82492031D01*
X142416228Y-82478946D01*
X142411351Y-82465317D01*
X142407834Y-82451276D01*
X142405710Y-82436958D01*
X142405000Y-82422500D01*
X142405000Y-82077500D01*
X142405710Y-82063042D01*
X142407834Y-82048724D01*
X142411351Y-82034683D01*
X142416228Y-82021054D01*
X142422417Y-82007969D01*
X142429858Y-81995553D01*
X142438481Y-81983927D01*
X142448202Y-81973202D01*
X142458927Y-81963481D01*
X142470553Y-81954858D01*
X142482969Y-81947417D01*
X142496054Y-81941228D01*
X142509683Y-81936351D01*
X142523724Y-81932834D01*
X142538042Y-81930710D01*
X142552500Y-81930000D01*
X142847500Y-81930000D01*
X142861958Y-81930710D01*
G37*
G04 #@! TD.AperFunction*
G04 #@! TA.AperFunction,SMDPad,CuDef*
G36*
X143941958Y-81930710D02*
G01*
X143956276Y-81932834D01*
X143970317Y-81936351D01*
X143983946Y-81941228D01*
X143997031Y-81947417D01*
X144009447Y-81954858D01*
X144021073Y-81963481D01*
X144031798Y-81973202D01*
X144041519Y-81983927D01*
X144050142Y-81995553D01*
X144057583Y-82007969D01*
X144063772Y-82021054D01*
X144068649Y-82034683D01*
X144072166Y-82048724D01*
X144074290Y-82063042D01*
X144075000Y-82077500D01*
X144075000Y-82422500D01*
X144074290Y-82436958D01*
X144072166Y-82451276D01*
X144068649Y-82465317D01*
X144063772Y-82478946D01*
X144057583Y-82492031D01*
X144050142Y-82504447D01*
X144041519Y-82516073D01*
X144031798Y-82526798D01*
X144021073Y-82536519D01*
X144009447Y-82545142D01*
X143997031Y-82552583D01*
X143983946Y-82558772D01*
X143970317Y-82563649D01*
X143956276Y-82567166D01*
X143941958Y-82569290D01*
X143927500Y-82570000D01*
X143632500Y-82570000D01*
X143618042Y-82569290D01*
X143603724Y-82567166D01*
X143589683Y-82563649D01*
X143576054Y-82558772D01*
X143562969Y-82552583D01*
X143550553Y-82545142D01*
X143538927Y-82536519D01*
X143528202Y-82526798D01*
X143518481Y-82516073D01*
X143509858Y-82504447D01*
X143502417Y-82492031D01*
X143496228Y-82478946D01*
X143491351Y-82465317D01*
X143487834Y-82451276D01*
X143485710Y-82436958D01*
X143485000Y-82422500D01*
X143485000Y-82077500D01*
X143485710Y-82063042D01*
X143487834Y-82048724D01*
X143491351Y-82034683D01*
X143496228Y-82021054D01*
X143502417Y-82007969D01*
X143509858Y-81995553D01*
X143518481Y-81983927D01*
X143528202Y-81973202D01*
X143538927Y-81963481D01*
X143550553Y-81954858D01*
X143562969Y-81947417D01*
X143576054Y-81941228D01*
X143589683Y-81936351D01*
X143603724Y-81932834D01*
X143618042Y-81930710D01*
X143632500Y-81930000D01*
X143927500Y-81930000D01*
X143941958Y-81930710D01*
G37*
G04 #@! TD.AperFunction*
G04 #@! TA.AperFunction,SMDPad,CuDef*
G36*
X144911958Y-81930710D02*
G01*
X144926276Y-81932834D01*
X144940317Y-81936351D01*
X144953946Y-81941228D01*
X144967031Y-81947417D01*
X144979447Y-81954858D01*
X144991073Y-81963481D01*
X145001798Y-81973202D01*
X145011519Y-81983927D01*
X145020142Y-81995553D01*
X145027583Y-82007969D01*
X145033772Y-82021054D01*
X145038649Y-82034683D01*
X145042166Y-82048724D01*
X145044290Y-82063042D01*
X145045000Y-82077500D01*
X145045000Y-82422500D01*
X145044290Y-82436958D01*
X145042166Y-82451276D01*
X145038649Y-82465317D01*
X145033772Y-82478946D01*
X145027583Y-82492031D01*
X145020142Y-82504447D01*
X145011519Y-82516073D01*
X145001798Y-82526798D01*
X144991073Y-82536519D01*
X144979447Y-82545142D01*
X144967031Y-82552583D01*
X144953946Y-82558772D01*
X144940317Y-82563649D01*
X144926276Y-82567166D01*
X144911958Y-82569290D01*
X144897500Y-82570000D01*
X144602500Y-82570000D01*
X144588042Y-82569290D01*
X144573724Y-82567166D01*
X144559683Y-82563649D01*
X144546054Y-82558772D01*
X144532969Y-82552583D01*
X144520553Y-82545142D01*
X144508927Y-82536519D01*
X144498202Y-82526798D01*
X144488481Y-82516073D01*
X144479858Y-82504447D01*
X144472417Y-82492031D01*
X144466228Y-82478946D01*
X144461351Y-82465317D01*
X144457834Y-82451276D01*
X144455710Y-82436958D01*
X144455000Y-82422500D01*
X144455000Y-82077500D01*
X144455710Y-82063042D01*
X144457834Y-82048724D01*
X144461351Y-82034683D01*
X144466228Y-82021054D01*
X144472417Y-82007969D01*
X144479858Y-81995553D01*
X144488481Y-81983927D01*
X144498202Y-81973202D01*
X144508927Y-81963481D01*
X144520553Y-81954858D01*
X144532969Y-81947417D01*
X144546054Y-81941228D01*
X144559683Y-81936351D01*
X144573724Y-81932834D01*
X144588042Y-81930710D01*
X144602500Y-81930000D01*
X144897500Y-81930000D01*
X144911958Y-81930710D01*
G37*
G04 #@! TD.AperFunction*
D15*
X128925000Y-79540000D03*
X128925000Y-75460000D03*
D16*
X127600000Y-78300000D03*
X127600000Y-77900000D03*
X127600000Y-77500000D03*
X127600000Y-77100000D03*
X127600000Y-76700000D03*
X130250000Y-76700000D03*
X130250000Y-77100000D03*
X130250000Y-77500000D03*
X130250000Y-77900000D03*
X130250000Y-78300000D03*
D17*
X124400000Y-73350000D03*
X124000000Y-73350000D03*
X123600000Y-73350000D03*
X123600000Y-72450000D03*
X124000000Y-72450000D03*
X124400000Y-72450000D03*
G04 #@! TA.AperFunction,SMDPad,CuDef*
D13*
G36*
X134027691Y-77776053D02*
G01*
X134048926Y-77779203D01*
X134069750Y-77784419D01*
X134089962Y-77791651D01*
X134109368Y-77800830D01*
X134127781Y-77811866D01*
X134145024Y-77824654D01*
X134160930Y-77839070D01*
X134175346Y-77854976D01*
X134188134Y-77872219D01*
X134199170Y-77890632D01*
X134208349Y-77910038D01*
X134215581Y-77930250D01*
X134220797Y-77951074D01*
X134223947Y-77972309D01*
X134225000Y-77993750D01*
X134225000Y-78506250D01*
X134223947Y-78527691D01*
X134220797Y-78548926D01*
X134215581Y-78569750D01*
X134208349Y-78589962D01*
X134199170Y-78609368D01*
X134188134Y-78627781D01*
X134175346Y-78645024D01*
X134160930Y-78660930D01*
X134145024Y-78675346D01*
X134127781Y-78688134D01*
X134109368Y-78699170D01*
X134089962Y-78708349D01*
X134069750Y-78715581D01*
X134048926Y-78720797D01*
X134027691Y-78723947D01*
X134006250Y-78725000D01*
X133568750Y-78725000D01*
X133547309Y-78723947D01*
X133526074Y-78720797D01*
X133505250Y-78715581D01*
X133485038Y-78708349D01*
X133465632Y-78699170D01*
X133447219Y-78688134D01*
X133429976Y-78675346D01*
X133414070Y-78660930D01*
X133399654Y-78645024D01*
X133386866Y-78627781D01*
X133375830Y-78609368D01*
X133366651Y-78589962D01*
X133359419Y-78569750D01*
X133354203Y-78548926D01*
X133351053Y-78527691D01*
X133350000Y-78506250D01*
X133350000Y-77993750D01*
X133351053Y-77972309D01*
X133354203Y-77951074D01*
X133359419Y-77930250D01*
X133366651Y-77910038D01*
X133375830Y-77890632D01*
X133386866Y-77872219D01*
X133399654Y-77854976D01*
X133414070Y-77839070D01*
X133429976Y-77824654D01*
X133447219Y-77811866D01*
X133465632Y-77800830D01*
X133485038Y-77791651D01*
X133505250Y-77784419D01*
X133526074Y-77779203D01*
X133547309Y-77776053D01*
X133568750Y-77775000D01*
X134006250Y-77775000D01*
X134027691Y-77776053D01*
G37*
G04 #@! TD.AperFunction*
G04 #@! TA.AperFunction,SMDPad,CuDef*
G36*
X132452691Y-77776053D02*
G01*
X132473926Y-77779203D01*
X132494750Y-77784419D01*
X132514962Y-77791651D01*
X132534368Y-77800830D01*
X132552781Y-77811866D01*
X132570024Y-77824654D01*
X132585930Y-77839070D01*
X132600346Y-77854976D01*
X132613134Y-77872219D01*
X132624170Y-77890632D01*
X132633349Y-77910038D01*
X132640581Y-77930250D01*
X132645797Y-77951074D01*
X132648947Y-77972309D01*
X132650000Y-77993750D01*
X132650000Y-78506250D01*
X132648947Y-78527691D01*
X132645797Y-78548926D01*
X132640581Y-78569750D01*
X132633349Y-78589962D01*
X132624170Y-78609368D01*
X132613134Y-78627781D01*
X132600346Y-78645024D01*
X132585930Y-78660930D01*
X132570024Y-78675346D01*
X132552781Y-78688134D01*
X132534368Y-78699170D01*
X132514962Y-78708349D01*
X132494750Y-78715581D01*
X132473926Y-78720797D01*
X132452691Y-78723947D01*
X132431250Y-78725000D01*
X131993750Y-78725000D01*
X131972309Y-78723947D01*
X131951074Y-78720797D01*
X131930250Y-78715581D01*
X131910038Y-78708349D01*
X131890632Y-78699170D01*
X131872219Y-78688134D01*
X131854976Y-78675346D01*
X131839070Y-78660930D01*
X131824654Y-78645024D01*
X131811866Y-78627781D01*
X131800830Y-78609368D01*
X131791651Y-78589962D01*
X131784419Y-78569750D01*
X131779203Y-78548926D01*
X131776053Y-78527691D01*
X131775000Y-78506250D01*
X131775000Y-77993750D01*
X131776053Y-77972309D01*
X131779203Y-77951074D01*
X131784419Y-77930250D01*
X131791651Y-77910038D01*
X131800830Y-77890632D01*
X131811866Y-77872219D01*
X131824654Y-77854976D01*
X131839070Y-77839070D01*
X131854976Y-77824654D01*
X131872219Y-77811866D01*
X131890632Y-77800830D01*
X131910038Y-77791651D01*
X131930250Y-77784419D01*
X131951074Y-77779203D01*
X131972309Y-77776053D01*
X131993750Y-77775000D01*
X132431250Y-77775000D01*
X132452691Y-77776053D01*
G37*
G04 #@! TD.AperFunction*
G04 #@! TA.AperFunction,SMDPad,CuDef*
G36*
X141611958Y-73080710D02*
G01*
X141626276Y-73082834D01*
X141640317Y-73086351D01*
X141653946Y-73091228D01*
X141667031Y-73097417D01*
X141679447Y-73104858D01*
X141691073Y-73113481D01*
X141701798Y-73123202D01*
X141711519Y-73133927D01*
X141720142Y-73145553D01*
X141727583Y-73157969D01*
X141733772Y-73171054D01*
X141738649Y-73184683D01*
X141742166Y-73198724D01*
X141744290Y-73213042D01*
X141745000Y-73227500D01*
X141745000Y-73572500D01*
X141744290Y-73586958D01*
X141742166Y-73601276D01*
X141738649Y-73615317D01*
X141733772Y-73628946D01*
X141727583Y-73642031D01*
X141720142Y-73654447D01*
X141711519Y-73666073D01*
X141701798Y-73676798D01*
X141691073Y-73686519D01*
X141679447Y-73695142D01*
X141667031Y-73702583D01*
X141653946Y-73708772D01*
X141640317Y-73713649D01*
X141626276Y-73717166D01*
X141611958Y-73719290D01*
X141597500Y-73720000D01*
X141302500Y-73720000D01*
X141288042Y-73719290D01*
X141273724Y-73717166D01*
X141259683Y-73713649D01*
X141246054Y-73708772D01*
X141232969Y-73702583D01*
X141220553Y-73695142D01*
X141208927Y-73686519D01*
X141198202Y-73676798D01*
X141188481Y-73666073D01*
X141179858Y-73654447D01*
X141172417Y-73642031D01*
X141166228Y-73628946D01*
X141161351Y-73615317D01*
X141157834Y-73601276D01*
X141155710Y-73586958D01*
X141155000Y-73572500D01*
X141155000Y-73227500D01*
X141155710Y-73213042D01*
X141157834Y-73198724D01*
X141161351Y-73184683D01*
X141166228Y-73171054D01*
X141172417Y-73157969D01*
X141179858Y-73145553D01*
X141188481Y-73133927D01*
X141198202Y-73123202D01*
X141208927Y-73113481D01*
X141220553Y-73104858D01*
X141232969Y-73097417D01*
X141246054Y-73091228D01*
X141259683Y-73086351D01*
X141273724Y-73082834D01*
X141288042Y-73080710D01*
X141302500Y-73080000D01*
X141597500Y-73080000D01*
X141611958Y-73080710D01*
G37*
G04 #@! TD.AperFunction*
G04 #@! TA.AperFunction,SMDPad,CuDef*
G36*
X142581958Y-73080710D02*
G01*
X142596276Y-73082834D01*
X142610317Y-73086351D01*
X142623946Y-73091228D01*
X142637031Y-73097417D01*
X142649447Y-73104858D01*
X142661073Y-73113481D01*
X142671798Y-73123202D01*
X142681519Y-73133927D01*
X142690142Y-73145553D01*
X142697583Y-73157969D01*
X142703772Y-73171054D01*
X142708649Y-73184683D01*
X142712166Y-73198724D01*
X142714290Y-73213042D01*
X142715000Y-73227500D01*
X142715000Y-73572500D01*
X142714290Y-73586958D01*
X142712166Y-73601276D01*
X142708649Y-73615317D01*
X142703772Y-73628946D01*
X142697583Y-73642031D01*
X142690142Y-73654447D01*
X142681519Y-73666073D01*
X142671798Y-73676798D01*
X142661073Y-73686519D01*
X142649447Y-73695142D01*
X142637031Y-73702583D01*
X142623946Y-73708772D01*
X142610317Y-73713649D01*
X142596276Y-73717166D01*
X142581958Y-73719290D01*
X142567500Y-73720000D01*
X142272500Y-73720000D01*
X142258042Y-73719290D01*
X142243724Y-73717166D01*
X142229683Y-73713649D01*
X142216054Y-73708772D01*
X142202969Y-73702583D01*
X142190553Y-73695142D01*
X142178927Y-73686519D01*
X142168202Y-73676798D01*
X142158481Y-73666073D01*
X142149858Y-73654447D01*
X142142417Y-73642031D01*
X142136228Y-73628946D01*
X142131351Y-73615317D01*
X142127834Y-73601276D01*
X142125710Y-73586958D01*
X142125000Y-73572500D01*
X142125000Y-73227500D01*
X142125710Y-73213042D01*
X142127834Y-73198724D01*
X142131351Y-73184683D01*
X142136228Y-73171054D01*
X142142417Y-73157969D01*
X142149858Y-73145553D01*
X142158481Y-73133927D01*
X142168202Y-73123202D01*
X142178927Y-73113481D01*
X142190553Y-73104858D01*
X142202969Y-73097417D01*
X142216054Y-73091228D01*
X142229683Y-73086351D01*
X142243724Y-73082834D01*
X142258042Y-73080710D01*
X142272500Y-73080000D01*
X142567500Y-73080000D01*
X142581958Y-73080710D01*
G37*
G04 #@! TD.AperFunction*
G04 #@! TA.AperFunction,SMDPad,CuDef*
G36*
X130739802Y-81450482D02*
G01*
X130749509Y-81451921D01*
X130759028Y-81454306D01*
X130768268Y-81457612D01*
X130777140Y-81461808D01*
X130785557Y-81466853D01*
X130793439Y-81472699D01*
X130800711Y-81479289D01*
X130807301Y-81486561D01*
X130813147Y-81494443D01*
X130818192Y-81502860D01*
X130822388Y-81511732D01*
X130825694Y-81520972D01*
X130828079Y-81530491D01*
X130829518Y-81540198D01*
X130830000Y-81550000D01*
X130830000Y-81750000D01*
X130829518Y-81759802D01*
X130828079Y-81769509D01*
X130825694Y-81779028D01*
X130822388Y-81788268D01*
X130818192Y-81797140D01*
X130813147Y-81805557D01*
X130807301Y-81813439D01*
X130800711Y-81820711D01*
X130793439Y-81827301D01*
X130785557Y-81833147D01*
X130777140Y-81838192D01*
X130768268Y-81842388D01*
X130759028Y-81845694D01*
X130749509Y-81848079D01*
X130739802Y-81849518D01*
X130730000Y-81850000D01*
X130470000Y-81850000D01*
X130460198Y-81849518D01*
X130450491Y-81848079D01*
X130440972Y-81845694D01*
X130431732Y-81842388D01*
X130422860Y-81838192D01*
X130414443Y-81833147D01*
X130406561Y-81827301D01*
X130399289Y-81820711D01*
X130392699Y-81813439D01*
X130386853Y-81805557D01*
X130381808Y-81797140D01*
X130377612Y-81788268D01*
X130374306Y-81779028D01*
X130371921Y-81769509D01*
X130370482Y-81759802D01*
X130370000Y-81750000D01*
X130370000Y-81550000D01*
X130370482Y-81540198D01*
X130371921Y-81530491D01*
X130374306Y-81520972D01*
X130377612Y-81511732D01*
X130381808Y-81502860D01*
X130386853Y-81494443D01*
X130392699Y-81486561D01*
X130399289Y-81479289D01*
X130406561Y-81472699D01*
X130414443Y-81466853D01*
X130422860Y-81461808D01*
X130431732Y-81457612D01*
X130440972Y-81454306D01*
X130450491Y-81451921D01*
X130460198Y-81450482D01*
X130470000Y-81450000D01*
X130730000Y-81450000D01*
X130739802Y-81450482D01*
G37*
G04 #@! TD.AperFunction*
G04 #@! TA.AperFunction,SMDPad,CuDef*
G36*
X131379802Y-81450482D02*
G01*
X131389509Y-81451921D01*
X131399028Y-81454306D01*
X131408268Y-81457612D01*
X131417140Y-81461808D01*
X131425557Y-81466853D01*
X131433439Y-81472699D01*
X131440711Y-81479289D01*
X131447301Y-81486561D01*
X131453147Y-81494443D01*
X131458192Y-81502860D01*
X131462388Y-81511732D01*
X131465694Y-81520972D01*
X131468079Y-81530491D01*
X131469518Y-81540198D01*
X131470000Y-81550000D01*
X131470000Y-81750000D01*
X131469518Y-81759802D01*
X131468079Y-81769509D01*
X131465694Y-81779028D01*
X131462388Y-81788268D01*
X131458192Y-81797140D01*
X131453147Y-81805557D01*
X131447301Y-81813439D01*
X131440711Y-81820711D01*
X131433439Y-81827301D01*
X131425557Y-81833147D01*
X131417140Y-81838192D01*
X131408268Y-81842388D01*
X131399028Y-81845694D01*
X131389509Y-81848079D01*
X131379802Y-81849518D01*
X131370000Y-81850000D01*
X131110000Y-81850000D01*
X131100198Y-81849518D01*
X131090491Y-81848079D01*
X131080972Y-81845694D01*
X131071732Y-81842388D01*
X131062860Y-81838192D01*
X131054443Y-81833147D01*
X131046561Y-81827301D01*
X131039289Y-81820711D01*
X131032699Y-81813439D01*
X131026853Y-81805557D01*
X131021808Y-81797140D01*
X131017612Y-81788268D01*
X131014306Y-81779028D01*
X131011921Y-81769509D01*
X131010482Y-81759802D01*
X131010000Y-81750000D01*
X131010000Y-81550000D01*
X131010482Y-81540198D01*
X131011921Y-81530491D01*
X131014306Y-81520972D01*
X131017612Y-81511732D01*
X131021808Y-81502860D01*
X131026853Y-81494443D01*
X131032699Y-81486561D01*
X131039289Y-81479289D01*
X131046561Y-81472699D01*
X131054443Y-81466853D01*
X131062860Y-81461808D01*
X131071732Y-81457612D01*
X131080972Y-81454306D01*
X131090491Y-81451921D01*
X131100198Y-81450482D01*
X131110000Y-81450000D01*
X131370000Y-81450000D01*
X131379802Y-81450482D01*
G37*
G04 #@! TD.AperFunction*
G04 #@! TA.AperFunction,SMDPad,CuDef*
G36*
X131379802Y-80550482D02*
G01*
X131389509Y-80551921D01*
X131399028Y-80554306D01*
X131408268Y-80557612D01*
X131417140Y-80561808D01*
X131425557Y-80566853D01*
X131433439Y-80572699D01*
X131440711Y-80579289D01*
X131447301Y-80586561D01*
X131453147Y-80594443D01*
X131458192Y-80602860D01*
X131462388Y-80611732D01*
X131465694Y-80620972D01*
X131468079Y-80630491D01*
X131469518Y-80640198D01*
X131470000Y-80650000D01*
X131470000Y-80850000D01*
X131469518Y-80859802D01*
X131468079Y-80869509D01*
X131465694Y-80879028D01*
X131462388Y-80888268D01*
X131458192Y-80897140D01*
X131453147Y-80905557D01*
X131447301Y-80913439D01*
X131440711Y-80920711D01*
X131433439Y-80927301D01*
X131425557Y-80933147D01*
X131417140Y-80938192D01*
X131408268Y-80942388D01*
X131399028Y-80945694D01*
X131389509Y-80948079D01*
X131379802Y-80949518D01*
X131370000Y-80950000D01*
X131110000Y-80950000D01*
X131100198Y-80949518D01*
X131090491Y-80948079D01*
X131080972Y-80945694D01*
X131071732Y-80942388D01*
X131062860Y-80938192D01*
X131054443Y-80933147D01*
X131046561Y-80927301D01*
X131039289Y-80920711D01*
X131032699Y-80913439D01*
X131026853Y-80905557D01*
X131021808Y-80897140D01*
X131017612Y-80888268D01*
X131014306Y-80879028D01*
X131011921Y-80869509D01*
X131010482Y-80859802D01*
X131010000Y-80850000D01*
X131010000Y-80650000D01*
X131010482Y-80640198D01*
X131011921Y-80630491D01*
X131014306Y-80620972D01*
X131017612Y-80611732D01*
X131021808Y-80602860D01*
X131026853Y-80594443D01*
X131032699Y-80586561D01*
X131039289Y-80579289D01*
X131046561Y-80572699D01*
X131054443Y-80566853D01*
X131062860Y-80561808D01*
X131071732Y-80557612D01*
X131080972Y-80554306D01*
X131090491Y-80551921D01*
X131100198Y-80550482D01*
X131110000Y-80550000D01*
X131370000Y-80550000D01*
X131379802Y-80550482D01*
G37*
G04 #@! TD.AperFunction*
G04 #@! TA.AperFunction,SMDPad,CuDef*
G36*
X130739802Y-80550482D02*
G01*
X130749509Y-80551921D01*
X130759028Y-80554306D01*
X130768268Y-80557612D01*
X130777140Y-80561808D01*
X130785557Y-80566853D01*
X130793439Y-80572699D01*
X130800711Y-80579289D01*
X130807301Y-80586561D01*
X130813147Y-80594443D01*
X130818192Y-80602860D01*
X130822388Y-80611732D01*
X130825694Y-80620972D01*
X130828079Y-80630491D01*
X130829518Y-80640198D01*
X130830000Y-80650000D01*
X130830000Y-80850000D01*
X130829518Y-80859802D01*
X130828079Y-80869509D01*
X130825694Y-80879028D01*
X130822388Y-80888268D01*
X130818192Y-80897140D01*
X130813147Y-80905557D01*
X130807301Y-80913439D01*
X130800711Y-80920711D01*
X130793439Y-80927301D01*
X130785557Y-80933147D01*
X130777140Y-80938192D01*
X130768268Y-80942388D01*
X130759028Y-80945694D01*
X130749509Y-80948079D01*
X130739802Y-80949518D01*
X130730000Y-80950000D01*
X130470000Y-80950000D01*
X130460198Y-80949518D01*
X130450491Y-80948079D01*
X130440972Y-80945694D01*
X130431732Y-80942388D01*
X130422860Y-80938192D01*
X130414443Y-80933147D01*
X130406561Y-80927301D01*
X130399289Y-80920711D01*
X130392699Y-80913439D01*
X130386853Y-80905557D01*
X130381808Y-80897140D01*
X130377612Y-80888268D01*
X130374306Y-80879028D01*
X130371921Y-80869509D01*
X130370482Y-80859802D01*
X130370000Y-80850000D01*
X130370000Y-80650000D01*
X130370482Y-80640198D01*
X130371921Y-80630491D01*
X130374306Y-80620972D01*
X130377612Y-80611732D01*
X130381808Y-80602860D01*
X130386853Y-80594443D01*
X130392699Y-80586561D01*
X130399289Y-80579289D01*
X130406561Y-80572699D01*
X130414443Y-80566853D01*
X130422860Y-80561808D01*
X130431732Y-80557612D01*
X130440972Y-80554306D01*
X130450491Y-80551921D01*
X130460198Y-80550482D01*
X130470000Y-80550000D01*
X130730000Y-80550000D01*
X130739802Y-80550482D01*
G37*
G04 #@! TD.AperFunction*
G04 #@! TA.AperFunction,SMDPad,CuDef*
G36*
X125561958Y-75830710D02*
G01*
X125576276Y-75832834D01*
X125590317Y-75836351D01*
X125603946Y-75841228D01*
X125617031Y-75847417D01*
X125629447Y-75854858D01*
X125641073Y-75863481D01*
X125651798Y-75873202D01*
X125661519Y-75883927D01*
X125670142Y-75895553D01*
X125677583Y-75907969D01*
X125683772Y-75921054D01*
X125688649Y-75934683D01*
X125692166Y-75948724D01*
X125694290Y-75963042D01*
X125695000Y-75977500D01*
X125695000Y-76322500D01*
X125694290Y-76336958D01*
X125692166Y-76351276D01*
X125688649Y-76365317D01*
X125683772Y-76378946D01*
X125677583Y-76392031D01*
X125670142Y-76404447D01*
X125661519Y-76416073D01*
X125651798Y-76426798D01*
X125641073Y-76436519D01*
X125629447Y-76445142D01*
X125617031Y-76452583D01*
X125603946Y-76458772D01*
X125590317Y-76463649D01*
X125576276Y-76467166D01*
X125561958Y-76469290D01*
X125547500Y-76470000D01*
X125252500Y-76470000D01*
X125238042Y-76469290D01*
X125223724Y-76467166D01*
X125209683Y-76463649D01*
X125196054Y-76458772D01*
X125182969Y-76452583D01*
X125170553Y-76445142D01*
X125158927Y-76436519D01*
X125148202Y-76426798D01*
X125138481Y-76416073D01*
X125129858Y-76404447D01*
X125122417Y-76392031D01*
X125116228Y-76378946D01*
X125111351Y-76365317D01*
X125107834Y-76351276D01*
X125105710Y-76336958D01*
X125105000Y-76322500D01*
X125105000Y-75977500D01*
X125105710Y-75963042D01*
X125107834Y-75948724D01*
X125111351Y-75934683D01*
X125116228Y-75921054D01*
X125122417Y-75907969D01*
X125129858Y-75895553D01*
X125138481Y-75883927D01*
X125148202Y-75873202D01*
X125158927Y-75863481D01*
X125170553Y-75854858D01*
X125182969Y-75847417D01*
X125196054Y-75841228D01*
X125209683Y-75836351D01*
X125223724Y-75832834D01*
X125238042Y-75830710D01*
X125252500Y-75830000D01*
X125547500Y-75830000D01*
X125561958Y-75830710D01*
G37*
G04 #@! TD.AperFunction*
G04 #@! TA.AperFunction,SMDPad,CuDef*
G36*
X126531958Y-75830710D02*
G01*
X126546276Y-75832834D01*
X126560317Y-75836351D01*
X126573946Y-75841228D01*
X126587031Y-75847417D01*
X126599447Y-75854858D01*
X126611073Y-75863481D01*
X126621798Y-75873202D01*
X126631519Y-75883927D01*
X126640142Y-75895553D01*
X126647583Y-75907969D01*
X126653772Y-75921054D01*
X126658649Y-75934683D01*
X126662166Y-75948724D01*
X126664290Y-75963042D01*
X126665000Y-75977500D01*
X126665000Y-76322500D01*
X126664290Y-76336958D01*
X126662166Y-76351276D01*
X126658649Y-76365317D01*
X126653772Y-76378946D01*
X126647583Y-76392031D01*
X126640142Y-76404447D01*
X126631519Y-76416073D01*
X126621798Y-76426798D01*
X126611073Y-76436519D01*
X126599447Y-76445142D01*
X126587031Y-76452583D01*
X126573946Y-76458772D01*
X126560317Y-76463649D01*
X126546276Y-76467166D01*
X126531958Y-76469290D01*
X126517500Y-76470000D01*
X126222500Y-76470000D01*
X126208042Y-76469290D01*
X126193724Y-76467166D01*
X126179683Y-76463649D01*
X126166054Y-76458772D01*
X126152969Y-76452583D01*
X126140553Y-76445142D01*
X126128927Y-76436519D01*
X126118202Y-76426798D01*
X126108481Y-76416073D01*
X126099858Y-76404447D01*
X126092417Y-76392031D01*
X126086228Y-76378946D01*
X126081351Y-76365317D01*
X126077834Y-76351276D01*
X126075710Y-76336958D01*
X126075000Y-76322500D01*
X126075000Y-75977500D01*
X126075710Y-75963042D01*
X126077834Y-75948724D01*
X126081351Y-75934683D01*
X126086228Y-75921054D01*
X126092417Y-75907969D01*
X126099858Y-75895553D01*
X126108481Y-75883927D01*
X126118202Y-75873202D01*
X126128927Y-75863481D01*
X126140553Y-75854858D01*
X126152969Y-75847417D01*
X126166054Y-75841228D01*
X126179683Y-75836351D01*
X126193724Y-75832834D01*
X126208042Y-75830710D01*
X126222500Y-75830000D01*
X126517500Y-75830000D01*
X126531958Y-75830710D01*
G37*
G04 #@! TD.AperFunction*
D18*
X124600000Y-78750000D03*
X124100000Y-78750000D03*
X124100000Y-77225000D03*
X124600000Y-77225000D03*
D19*
X123587500Y-78737500D03*
X125112500Y-78737500D03*
X123587500Y-77237500D03*
X125112500Y-77237500D03*
X123587500Y-77737500D03*
X123587500Y-78237500D03*
X125112500Y-77737500D03*
X125112500Y-78237500D03*
G04 #@! TA.AperFunction,SMDPad,CuDef*
D13*
G36*
X133639802Y-82350482D02*
G01*
X133649509Y-82351921D01*
X133659028Y-82354306D01*
X133668268Y-82357612D01*
X133677140Y-82361808D01*
X133685557Y-82366853D01*
X133693439Y-82372699D01*
X133700711Y-82379289D01*
X133707301Y-82386561D01*
X133713147Y-82394443D01*
X133718192Y-82402860D01*
X133722388Y-82411732D01*
X133725694Y-82420972D01*
X133728079Y-82430491D01*
X133729518Y-82440198D01*
X133730000Y-82450000D01*
X133730000Y-82650000D01*
X133729518Y-82659802D01*
X133728079Y-82669509D01*
X133725694Y-82679028D01*
X133722388Y-82688268D01*
X133718192Y-82697140D01*
X133713147Y-82705557D01*
X133707301Y-82713439D01*
X133700711Y-82720711D01*
X133693439Y-82727301D01*
X133685557Y-82733147D01*
X133677140Y-82738192D01*
X133668268Y-82742388D01*
X133659028Y-82745694D01*
X133649509Y-82748079D01*
X133639802Y-82749518D01*
X133630000Y-82750000D01*
X133370000Y-82750000D01*
X133360198Y-82749518D01*
X133350491Y-82748079D01*
X133340972Y-82745694D01*
X133331732Y-82742388D01*
X133322860Y-82738192D01*
X133314443Y-82733147D01*
X133306561Y-82727301D01*
X133299289Y-82720711D01*
X133292699Y-82713439D01*
X133286853Y-82705557D01*
X133281808Y-82697140D01*
X133277612Y-82688268D01*
X133274306Y-82679028D01*
X133271921Y-82669509D01*
X133270482Y-82659802D01*
X133270000Y-82650000D01*
X133270000Y-82450000D01*
X133270482Y-82440198D01*
X133271921Y-82430491D01*
X133274306Y-82420972D01*
X133277612Y-82411732D01*
X133281808Y-82402860D01*
X133286853Y-82394443D01*
X133292699Y-82386561D01*
X133299289Y-82379289D01*
X133306561Y-82372699D01*
X133314443Y-82366853D01*
X133322860Y-82361808D01*
X133331732Y-82357612D01*
X133340972Y-82354306D01*
X133350491Y-82351921D01*
X133360198Y-82350482D01*
X133370000Y-82350000D01*
X133630000Y-82350000D01*
X133639802Y-82350482D01*
G37*
G04 #@! TD.AperFunction*
G04 #@! TA.AperFunction,SMDPad,CuDef*
G36*
X134279802Y-82350482D02*
G01*
X134289509Y-82351921D01*
X134299028Y-82354306D01*
X134308268Y-82357612D01*
X134317140Y-82361808D01*
X134325557Y-82366853D01*
X134333439Y-82372699D01*
X134340711Y-82379289D01*
X134347301Y-82386561D01*
X134353147Y-82394443D01*
X134358192Y-82402860D01*
X134362388Y-82411732D01*
X134365694Y-82420972D01*
X134368079Y-82430491D01*
X134369518Y-82440198D01*
X134370000Y-82450000D01*
X134370000Y-82650000D01*
X134369518Y-82659802D01*
X134368079Y-82669509D01*
X134365694Y-82679028D01*
X134362388Y-82688268D01*
X134358192Y-82697140D01*
X134353147Y-82705557D01*
X134347301Y-82713439D01*
X134340711Y-82720711D01*
X134333439Y-82727301D01*
X134325557Y-82733147D01*
X134317140Y-82738192D01*
X134308268Y-82742388D01*
X134299028Y-82745694D01*
X134289509Y-82748079D01*
X134279802Y-82749518D01*
X134270000Y-82750000D01*
X134010000Y-82750000D01*
X134000198Y-82749518D01*
X133990491Y-82748079D01*
X133980972Y-82745694D01*
X133971732Y-82742388D01*
X133962860Y-82738192D01*
X133954443Y-82733147D01*
X133946561Y-82727301D01*
X133939289Y-82720711D01*
X133932699Y-82713439D01*
X133926853Y-82705557D01*
X133921808Y-82697140D01*
X133917612Y-82688268D01*
X133914306Y-82679028D01*
X133911921Y-82669509D01*
X133910482Y-82659802D01*
X133910000Y-82650000D01*
X133910000Y-82450000D01*
X133910482Y-82440198D01*
X133911921Y-82430491D01*
X133914306Y-82420972D01*
X133917612Y-82411732D01*
X133921808Y-82402860D01*
X133926853Y-82394443D01*
X133932699Y-82386561D01*
X133939289Y-82379289D01*
X133946561Y-82372699D01*
X133954443Y-82366853D01*
X133962860Y-82361808D01*
X133971732Y-82357612D01*
X133980972Y-82354306D01*
X133990491Y-82351921D01*
X134000198Y-82350482D01*
X134010000Y-82350000D01*
X134270000Y-82350000D01*
X134279802Y-82350482D01*
G37*
G04 #@! TD.AperFunction*
G04 #@! TA.AperFunction,SMDPad,CuDef*
G36*
X130461958Y-72230710D02*
G01*
X130476276Y-72232834D01*
X130490317Y-72236351D01*
X130503946Y-72241228D01*
X130517031Y-72247417D01*
X130529447Y-72254858D01*
X130541073Y-72263481D01*
X130551798Y-72273202D01*
X130561519Y-72283927D01*
X130570142Y-72295553D01*
X130577583Y-72307969D01*
X130583772Y-72321054D01*
X130588649Y-72334683D01*
X130592166Y-72348724D01*
X130594290Y-72363042D01*
X130595000Y-72377500D01*
X130595000Y-72722500D01*
X130594290Y-72736958D01*
X130592166Y-72751276D01*
X130588649Y-72765317D01*
X130583772Y-72778946D01*
X130577583Y-72792031D01*
X130570142Y-72804447D01*
X130561519Y-72816073D01*
X130551798Y-72826798D01*
X130541073Y-72836519D01*
X130529447Y-72845142D01*
X130517031Y-72852583D01*
X130503946Y-72858772D01*
X130490317Y-72863649D01*
X130476276Y-72867166D01*
X130461958Y-72869290D01*
X130447500Y-72870000D01*
X130152500Y-72870000D01*
X130138042Y-72869290D01*
X130123724Y-72867166D01*
X130109683Y-72863649D01*
X130096054Y-72858772D01*
X130082969Y-72852583D01*
X130070553Y-72845142D01*
X130058927Y-72836519D01*
X130048202Y-72826798D01*
X130038481Y-72816073D01*
X130029858Y-72804447D01*
X130022417Y-72792031D01*
X130016228Y-72778946D01*
X130011351Y-72765317D01*
X130007834Y-72751276D01*
X130005710Y-72736958D01*
X130005000Y-72722500D01*
X130005000Y-72377500D01*
X130005710Y-72363042D01*
X130007834Y-72348724D01*
X130011351Y-72334683D01*
X130016228Y-72321054D01*
X130022417Y-72307969D01*
X130029858Y-72295553D01*
X130038481Y-72283927D01*
X130048202Y-72273202D01*
X130058927Y-72263481D01*
X130070553Y-72254858D01*
X130082969Y-72247417D01*
X130096054Y-72241228D01*
X130109683Y-72236351D01*
X130123724Y-72232834D01*
X130138042Y-72230710D01*
X130152500Y-72230000D01*
X130447500Y-72230000D01*
X130461958Y-72230710D01*
G37*
G04 #@! TD.AperFunction*
G04 #@! TA.AperFunction,SMDPad,CuDef*
G36*
X129491958Y-72230710D02*
G01*
X129506276Y-72232834D01*
X129520317Y-72236351D01*
X129533946Y-72241228D01*
X129547031Y-72247417D01*
X129559447Y-72254858D01*
X129571073Y-72263481D01*
X129581798Y-72273202D01*
X129591519Y-72283927D01*
X129600142Y-72295553D01*
X129607583Y-72307969D01*
X129613772Y-72321054D01*
X129618649Y-72334683D01*
X129622166Y-72348724D01*
X129624290Y-72363042D01*
X129625000Y-72377500D01*
X129625000Y-72722500D01*
X129624290Y-72736958D01*
X129622166Y-72751276D01*
X129618649Y-72765317D01*
X129613772Y-72778946D01*
X129607583Y-72792031D01*
X129600142Y-72804447D01*
X129591519Y-72816073D01*
X129581798Y-72826798D01*
X129571073Y-72836519D01*
X129559447Y-72845142D01*
X129547031Y-72852583D01*
X129533946Y-72858772D01*
X129520317Y-72863649D01*
X129506276Y-72867166D01*
X129491958Y-72869290D01*
X129477500Y-72870000D01*
X129182500Y-72870000D01*
X129168042Y-72869290D01*
X129153724Y-72867166D01*
X129139683Y-72863649D01*
X129126054Y-72858772D01*
X129112969Y-72852583D01*
X129100553Y-72845142D01*
X129088927Y-72836519D01*
X129078202Y-72826798D01*
X129068481Y-72816073D01*
X129059858Y-72804447D01*
X129052417Y-72792031D01*
X129046228Y-72778946D01*
X129041351Y-72765317D01*
X129037834Y-72751276D01*
X129035710Y-72736958D01*
X129035000Y-72722500D01*
X129035000Y-72377500D01*
X129035710Y-72363042D01*
X129037834Y-72348724D01*
X129041351Y-72334683D01*
X129046228Y-72321054D01*
X129052417Y-72307969D01*
X129059858Y-72295553D01*
X129068481Y-72283927D01*
X129078202Y-72273202D01*
X129088927Y-72263481D01*
X129100553Y-72254858D01*
X129112969Y-72247417D01*
X129126054Y-72241228D01*
X129139683Y-72236351D01*
X129153724Y-72232834D01*
X129168042Y-72230710D01*
X129182500Y-72230000D01*
X129477500Y-72230000D01*
X129491958Y-72230710D01*
G37*
G04 #@! TD.AperFunction*
D20*
X132400000Y-80050000D03*
X133800000Y-80050000D03*
D21*
X124000000Y-80200000D03*
X125900000Y-80200000D03*
X125900000Y-82400000D03*
X124950000Y-82400000D03*
X124000000Y-82400000D03*
G04 #@! TA.AperFunction,SMDPad,CuDef*
D13*
G36*
X140219802Y-82150482D02*
G01*
X140229509Y-82151921D01*
X140239028Y-82154306D01*
X140248268Y-82157612D01*
X140257140Y-82161808D01*
X140265557Y-82166853D01*
X140273439Y-82172699D01*
X140280711Y-82179289D01*
X140287301Y-82186561D01*
X140293147Y-82194443D01*
X140298192Y-82202860D01*
X140302388Y-82211732D01*
X140305694Y-82220972D01*
X140308079Y-82230491D01*
X140309518Y-82240198D01*
X140310000Y-82250000D01*
X140310000Y-82450000D01*
X140309518Y-82459802D01*
X140308079Y-82469509D01*
X140305694Y-82479028D01*
X140302388Y-82488268D01*
X140298192Y-82497140D01*
X140293147Y-82505557D01*
X140287301Y-82513439D01*
X140280711Y-82520711D01*
X140273439Y-82527301D01*
X140265557Y-82533147D01*
X140257140Y-82538192D01*
X140248268Y-82542388D01*
X140239028Y-82545694D01*
X140229509Y-82548079D01*
X140219802Y-82549518D01*
X140210000Y-82550000D01*
X139950000Y-82550000D01*
X139940198Y-82549518D01*
X139930491Y-82548079D01*
X139920972Y-82545694D01*
X139911732Y-82542388D01*
X139902860Y-82538192D01*
X139894443Y-82533147D01*
X139886561Y-82527301D01*
X139879289Y-82520711D01*
X139872699Y-82513439D01*
X139866853Y-82505557D01*
X139861808Y-82497140D01*
X139857612Y-82488268D01*
X139854306Y-82479028D01*
X139851921Y-82469509D01*
X139850482Y-82459802D01*
X139850000Y-82450000D01*
X139850000Y-82250000D01*
X139850482Y-82240198D01*
X139851921Y-82230491D01*
X139854306Y-82220972D01*
X139857612Y-82211732D01*
X139861808Y-82202860D01*
X139866853Y-82194443D01*
X139872699Y-82186561D01*
X139879289Y-82179289D01*
X139886561Y-82172699D01*
X139894443Y-82166853D01*
X139902860Y-82161808D01*
X139911732Y-82157612D01*
X139920972Y-82154306D01*
X139930491Y-82151921D01*
X139940198Y-82150482D01*
X139950000Y-82150000D01*
X140210000Y-82150000D01*
X140219802Y-82150482D01*
G37*
G04 #@! TD.AperFunction*
G04 #@! TA.AperFunction,SMDPad,CuDef*
G36*
X140859802Y-82150482D02*
G01*
X140869509Y-82151921D01*
X140879028Y-82154306D01*
X140888268Y-82157612D01*
X140897140Y-82161808D01*
X140905557Y-82166853D01*
X140913439Y-82172699D01*
X140920711Y-82179289D01*
X140927301Y-82186561D01*
X140933147Y-82194443D01*
X140938192Y-82202860D01*
X140942388Y-82211732D01*
X140945694Y-82220972D01*
X140948079Y-82230491D01*
X140949518Y-82240198D01*
X140950000Y-82250000D01*
X140950000Y-82450000D01*
X140949518Y-82459802D01*
X140948079Y-82469509D01*
X140945694Y-82479028D01*
X140942388Y-82488268D01*
X140938192Y-82497140D01*
X140933147Y-82505557D01*
X140927301Y-82513439D01*
X140920711Y-82520711D01*
X140913439Y-82527301D01*
X140905557Y-82533147D01*
X140897140Y-82538192D01*
X140888268Y-82542388D01*
X140879028Y-82545694D01*
X140869509Y-82548079D01*
X140859802Y-82549518D01*
X140850000Y-82550000D01*
X140590000Y-82550000D01*
X140580198Y-82549518D01*
X140570491Y-82548079D01*
X140560972Y-82545694D01*
X140551732Y-82542388D01*
X140542860Y-82538192D01*
X140534443Y-82533147D01*
X140526561Y-82527301D01*
X140519289Y-82520711D01*
X140512699Y-82513439D01*
X140506853Y-82505557D01*
X140501808Y-82497140D01*
X140497612Y-82488268D01*
X140494306Y-82479028D01*
X140491921Y-82469509D01*
X140490482Y-82459802D01*
X140490000Y-82450000D01*
X140490000Y-82250000D01*
X140490482Y-82240198D01*
X140491921Y-82230491D01*
X140494306Y-82220972D01*
X140497612Y-82211732D01*
X140501808Y-82202860D01*
X140506853Y-82194443D01*
X140512699Y-82186561D01*
X140519289Y-82179289D01*
X140526561Y-82172699D01*
X140534443Y-82166853D01*
X140542860Y-82161808D01*
X140551732Y-82157612D01*
X140560972Y-82154306D01*
X140570491Y-82151921D01*
X140580198Y-82150482D01*
X140590000Y-82150000D01*
X140850000Y-82150000D01*
X140859802Y-82150482D01*
G37*
G04 #@! TD.AperFunction*
G04 #@! TA.AperFunction,SMDPad,CuDef*
G36*
X138569802Y-82150482D02*
G01*
X138579509Y-82151921D01*
X138589028Y-82154306D01*
X138598268Y-82157612D01*
X138607140Y-82161808D01*
X138615557Y-82166853D01*
X138623439Y-82172699D01*
X138630711Y-82179289D01*
X138637301Y-82186561D01*
X138643147Y-82194443D01*
X138648192Y-82202860D01*
X138652388Y-82211732D01*
X138655694Y-82220972D01*
X138658079Y-82230491D01*
X138659518Y-82240198D01*
X138660000Y-82250000D01*
X138660000Y-82450000D01*
X138659518Y-82459802D01*
X138658079Y-82469509D01*
X138655694Y-82479028D01*
X138652388Y-82488268D01*
X138648192Y-82497140D01*
X138643147Y-82505557D01*
X138637301Y-82513439D01*
X138630711Y-82520711D01*
X138623439Y-82527301D01*
X138615557Y-82533147D01*
X138607140Y-82538192D01*
X138598268Y-82542388D01*
X138589028Y-82545694D01*
X138579509Y-82548079D01*
X138569802Y-82549518D01*
X138560000Y-82550000D01*
X138300000Y-82550000D01*
X138290198Y-82549518D01*
X138280491Y-82548079D01*
X138270972Y-82545694D01*
X138261732Y-82542388D01*
X138252860Y-82538192D01*
X138244443Y-82533147D01*
X138236561Y-82527301D01*
X138229289Y-82520711D01*
X138222699Y-82513439D01*
X138216853Y-82505557D01*
X138211808Y-82497140D01*
X138207612Y-82488268D01*
X138204306Y-82479028D01*
X138201921Y-82469509D01*
X138200482Y-82459802D01*
X138200000Y-82450000D01*
X138200000Y-82250000D01*
X138200482Y-82240198D01*
X138201921Y-82230491D01*
X138204306Y-82220972D01*
X138207612Y-82211732D01*
X138211808Y-82202860D01*
X138216853Y-82194443D01*
X138222699Y-82186561D01*
X138229289Y-82179289D01*
X138236561Y-82172699D01*
X138244443Y-82166853D01*
X138252860Y-82161808D01*
X138261732Y-82157612D01*
X138270972Y-82154306D01*
X138280491Y-82151921D01*
X138290198Y-82150482D01*
X138300000Y-82150000D01*
X138560000Y-82150000D01*
X138569802Y-82150482D01*
G37*
G04 #@! TD.AperFunction*
G04 #@! TA.AperFunction,SMDPad,CuDef*
G36*
X139209802Y-82150482D02*
G01*
X139219509Y-82151921D01*
X139229028Y-82154306D01*
X139238268Y-82157612D01*
X139247140Y-82161808D01*
X139255557Y-82166853D01*
X139263439Y-82172699D01*
X139270711Y-82179289D01*
X139277301Y-82186561D01*
X139283147Y-82194443D01*
X139288192Y-82202860D01*
X139292388Y-82211732D01*
X139295694Y-82220972D01*
X139298079Y-82230491D01*
X139299518Y-82240198D01*
X139300000Y-82250000D01*
X139300000Y-82450000D01*
X139299518Y-82459802D01*
X139298079Y-82469509D01*
X139295694Y-82479028D01*
X139292388Y-82488268D01*
X139288192Y-82497140D01*
X139283147Y-82505557D01*
X139277301Y-82513439D01*
X139270711Y-82520711D01*
X139263439Y-82527301D01*
X139255557Y-82533147D01*
X139247140Y-82538192D01*
X139238268Y-82542388D01*
X139229028Y-82545694D01*
X139219509Y-82548079D01*
X139209802Y-82549518D01*
X139200000Y-82550000D01*
X138940000Y-82550000D01*
X138930198Y-82549518D01*
X138920491Y-82548079D01*
X138910972Y-82545694D01*
X138901732Y-82542388D01*
X138892860Y-82538192D01*
X138884443Y-82533147D01*
X138876561Y-82527301D01*
X138869289Y-82520711D01*
X138862699Y-82513439D01*
X138856853Y-82505557D01*
X138851808Y-82497140D01*
X138847612Y-82488268D01*
X138844306Y-82479028D01*
X138841921Y-82469509D01*
X138840482Y-82459802D01*
X138840000Y-82450000D01*
X138840000Y-82250000D01*
X138840482Y-82240198D01*
X138841921Y-82230491D01*
X138844306Y-82220972D01*
X138847612Y-82211732D01*
X138851808Y-82202860D01*
X138856853Y-82194443D01*
X138862699Y-82186561D01*
X138869289Y-82179289D01*
X138876561Y-82172699D01*
X138884443Y-82166853D01*
X138892860Y-82161808D01*
X138901732Y-82157612D01*
X138910972Y-82154306D01*
X138920491Y-82151921D01*
X138930198Y-82150482D01*
X138940000Y-82150000D01*
X139200000Y-82150000D01*
X139209802Y-82150482D01*
G37*
G04 #@! TD.AperFunction*
G04 #@! TA.AperFunction,SMDPad,CuDef*
G36*
X128059802Y-73750482D02*
G01*
X128069509Y-73751921D01*
X128079028Y-73754306D01*
X128088268Y-73757612D01*
X128097140Y-73761808D01*
X128105557Y-73766853D01*
X128113439Y-73772699D01*
X128120711Y-73779289D01*
X128127301Y-73786561D01*
X128133147Y-73794443D01*
X128138192Y-73802860D01*
X128142388Y-73811732D01*
X128145694Y-73820972D01*
X128148079Y-73830491D01*
X128149518Y-73840198D01*
X128150000Y-73850000D01*
X128150000Y-74050000D01*
X128149518Y-74059802D01*
X128148079Y-74069509D01*
X128145694Y-74079028D01*
X128142388Y-74088268D01*
X128138192Y-74097140D01*
X128133147Y-74105557D01*
X128127301Y-74113439D01*
X128120711Y-74120711D01*
X128113439Y-74127301D01*
X128105557Y-74133147D01*
X128097140Y-74138192D01*
X128088268Y-74142388D01*
X128079028Y-74145694D01*
X128069509Y-74148079D01*
X128059802Y-74149518D01*
X128050000Y-74150000D01*
X127790000Y-74150000D01*
X127780198Y-74149518D01*
X127770491Y-74148079D01*
X127760972Y-74145694D01*
X127751732Y-74142388D01*
X127742860Y-74138192D01*
X127734443Y-74133147D01*
X127726561Y-74127301D01*
X127719289Y-74120711D01*
X127712699Y-74113439D01*
X127706853Y-74105557D01*
X127701808Y-74097140D01*
X127697612Y-74088268D01*
X127694306Y-74079028D01*
X127691921Y-74069509D01*
X127690482Y-74059802D01*
X127690000Y-74050000D01*
X127690000Y-73850000D01*
X127690482Y-73840198D01*
X127691921Y-73830491D01*
X127694306Y-73820972D01*
X127697612Y-73811732D01*
X127701808Y-73802860D01*
X127706853Y-73794443D01*
X127712699Y-73786561D01*
X127719289Y-73779289D01*
X127726561Y-73772699D01*
X127734443Y-73766853D01*
X127742860Y-73761808D01*
X127751732Y-73757612D01*
X127760972Y-73754306D01*
X127770491Y-73751921D01*
X127780198Y-73750482D01*
X127790000Y-73750000D01*
X128050000Y-73750000D01*
X128059802Y-73750482D01*
G37*
G04 #@! TD.AperFunction*
G04 #@! TA.AperFunction,SMDPad,CuDef*
G36*
X127419802Y-73750482D02*
G01*
X127429509Y-73751921D01*
X127439028Y-73754306D01*
X127448268Y-73757612D01*
X127457140Y-73761808D01*
X127465557Y-73766853D01*
X127473439Y-73772699D01*
X127480711Y-73779289D01*
X127487301Y-73786561D01*
X127493147Y-73794443D01*
X127498192Y-73802860D01*
X127502388Y-73811732D01*
X127505694Y-73820972D01*
X127508079Y-73830491D01*
X127509518Y-73840198D01*
X127510000Y-73850000D01*
X127510000Y-74050000D01*
X127509518Y-74059802D01*
X127508079Y-74069509D01*
X127505694Y-74079028D01*
X127502388Y-74088268D01*
X127498192Y-74097140D01*
X127493147Y-74105557D01*
X127487301Y-74113439D01*
X127480711Y-74120711D01*
X127473439Y-74127301D01*
X127465557Y-74133147D01*
X127457140Y-74138192D01*
X127448268Y-74142388D01*
X127439028Y-74145694D01*
X127429509Y-74148079D01*
X127419802Y-74149518D01*
X127410000Y-74150000D01*
X127150000Y-74150000D01*
X127140198Y-74149518D01*
X127130491Y-74148079D01*
X127120972Y-74145694D01*
X127111732Y-74142388D01*
X127102860Y-74138192D01*
X127094443Y-74133147D01*
X127086561Y-74127301D01*
X127079289Y-74120711D01*
X127072699Y-74113439D01*
X127066853Y-74105557D01*
X127061808Y-74097140D01*
X127057612Y-74088268D01*
X127054306Y-74079028D01*
X127051921Y-74069509D01*
X127050482Y-74059802D01*
X127050000Y-74050000D01*
X127050000Y-73850000D01*
X127050482Y-73840198D01*
X127051921Y-73830491D01*
X127054306Y-73820972D01*
X127057612Y-73811732D01*
X127061808Y-73802860D01*
X127066853Y-73794443D01*
X127072699Y-73786561D01*
X127079289Y-73779289D01*
X127086561Y-73772699D01*
X127094443Y-73766853D01*
X127102860Y-73761808D01*
X127111732Y-73757612D01*
X127120972Y-73754306D01*
X127130491Y-73751921D01*
X127140198Y-73750482D01*
X127150000Y-73750000D01*
X127410000Y-73750000D01*
X127419802Y-73750482D01*
G37*
G04 #@! TD.AperFunction*
G04 #@! TA.AperFunction,SMDPad,CuDef*
G36*
X124359802Y-74850482D02*
G01*
X124369509Y-74851921D01*
X124379028Y-74854306D01*
X124388268Y-74857612D01*
X124397140Y-74861808D01*
X124405557Y-74866853D01*
X124413439Y-74872699D01*
X124420711Y-74879289D01*
X124427301Y-74886561D01*
X124433147Y-74894443D01*
X124438192Y-74902860D01*
X124442388Y-74911732D01*
X124445694Y-74920972D01*
X124448079Y-74930491D01*
X124449518Y-74940198D01*
X124450000Y-74950000D01*
X124450000Y-75150000D01*
X124449518Y-75159802D01*
X124448079Y-75169509D01*
X124445694Y-75179028D01*
X124442388Y-75188268D01*
X124438192Y-75197140D01*
X124433147Y-75205557D01*
X124427301Y-75213439D01*
X124420711Y-75220711D01*
X124413439Y-75227301D01*
X124405557Y-75233147D01*
X124397140Y-75238192D01*
X124388268Y-75242388D01*
X124379028Y-75245694D01*
X124369509Y-75248079D01*
X124359802Y-75249518D01*
X124350000Y-75250000D01*
X124090000Y-75250000D01*
X124080198Y-75249518D01*
X124070491Y-75248079D01*
X124060972Y-75245694D01*
X124051732Y-75242388D01*
X124042860Y-75238192D01*
X124034443Y-75233147D01*
X124026561Y-75227301D01*
X124019289Y-75220711D01*
X124012699Y-75213439D01*
X124006853Y-75205557D01*
X124001808Y-75197140D01*
X123997612Y-75188268D01*
X123994306Y-75179028D01*
X123991921Y-75169509D01*
X123990482Y-75159802D01*
X123990000Y-75150000D01*
X123990000Y-74950000D01*
X123990482Y-74940198D01*
X123991921Y-74930491D01*
X123994306Y-74920972D01*
X123997612Y-74911732D01*
X124001808Y-74902860D01*
X124006853Y-74894443D01*
X124012699Y-74886561D01*
X124019289Y-74879289D01*
X124026561Y-74872699D01*
X124034443Y-74866853D01*
X124042860Y-74861808D01*
X124051732Y-74857612D01*
X124060972Y-74854306D01*
X124070491Y-74851921D01*
X124080198Y-74850482D01*
X124090000Y-74850000D01*
X124350000Y-74850000D01*
X124359802Y-74850482D01*
G37*
G04 #@! TD.AperFunction*
G04 #@! TA.AperFunction,SMDPad,CuDef*
G36*
X123719802Y-74850482D02*
G01*
X123729509Y-74851921D01*
X123739028Y-74854306D01*
X123748268Y-74857612D01*
X123757140Y-74861808D01*
X123765557Y-74866853D01*
X123773439Y-74872699D01*
X123780711Y-74879289D01*
X123787301Y-74886561D01*
X123793147Y-74894443D01*
X123798192Y-74902860D01*
X123802388Y-74911732D01*
X123805694Y-74920972D01*
X123808079Y-74930491D01*
X123809518Y-74940198D01*
X123810000Y-74950000D01*
X123810000Y-75150000D01*
X123809518Y-75159802D01*
X123808079Y-75169509D01*
X123805694Y-75179028D01*
X123802388Y-75188268D01*
X123798192Y-75197140D01*
X123793147Y-75205557D01*
X123787301Y-75213439D01*
X123780711Y-75220711D01*
X123773439Y-75227301D01*
X123765557Y-75233147D01*
X123757140Y-75238192D01*
X123748268Y-75242388D01*
X123739028Y-75245694D01*
X123729509Y-75248079D01*
X123719802Y-75249518D01*
X123710000Y-75250000D01*
X123450000Y-75250000D01*
X123440198Y-75249518D01*
X123430491Y-75248079D01*
X123420972Y-75245694D01*
X123411732Y-75242388D01*
X123402860Y-75238192D01*
X123394443Y-75233147D01*
X123386561Y-75227301D01*
X123379289Y-75220711D01*
X123372699Y-75213439D01*
X123366853Y-75205557D01*
X123361808Y-75197140D01*
X123357612Y-75188268D01*
X123354306Y-75179028D01*
X123351921Y-75169509D01*
X123350482Y-75159802D01*
X123350000Y-75150000D01*
X123350000Y-74950000D01*
X123350482Y-74940198D01*
X123351921Y-74930491D01*
X123354306Y-74920972D01*
X123357612Y-74911732D01*
X123361808Y-74902860D01*
X123366853Y-74894443D01*
X123372699Y-74886561D01*
X123379289Y-74879289D01*
X123386561Y-74872699D01*
X123394443Y-74866853D01*
X123402860Y-74861808D01*
X123411732Y-74857612D01*
X123420972Y-74854306D01*
X123430491Y-74851921D01*
X123440198Y-74850482D01*
X123450000Y-74850000D01*
X123710000Y-74850000D01*
X123719802Y-74850482D01*
G37*
G04 #@! TD.AperFunction*
G04 #@! TA.AperFunction,SMDPad,CuDef*
G36*
X123719802Y-73950482D02*
G01*
X123729509Y-73951921D01*
X123739028Y-73954306D01*
X123748268Y-73957612D01*
X123757140Y-73961808D01*
X123765557Y-73966853D01*
X123773439Y-73972699D01*
X123780711Y-73979289D01*
X123787301Y-73986561D01*
X123793147Y-73994443D01*
X123798192Y-74002860D01*
X123802388Y-74011732D01*
X123805694Y-74020972D01*
X123808079Y-74030491D01*
X123809518Y-74040198D01*
X123810000Y-74050000D01*
X123810000Y-74250000D01*
X123809518Y-74259802D01*
X123808079Y-74269509D01*
X123805694Y-74279028D01*
X123802388Y-74288268D01*
X123798192Y-74297140D01*
X123793147Y-74305557D01*
X123787301Y-74313439D01*
X123780711Y-74320711D01*
X123773439Y-74327301D01*
X123765557Y-74333147D01*
X123757140Y-74338192D01*
X123748268Y-74342388D01*
X123739028Y-74345694D01*
X123729509Y-74348079D01*
X123719802Y-74349518D01*
X123710000Y-74350000D01*
X123450000Y-74350000D01*
X123440198Y-74349518D01*
X123430491Y-74348079D01*
X123420972Y-74345694D01*
X123411732Y-74342388D01*
X123402860Y-74338192D01*
X123394443Y-74333147D01*
X123386561Y-74327301D01*
X123379289Y-74320711D01*
X123372699Y-74313439D01*
X123366853Y-74305557D01*
X123361808Y-74297140D01*
X123357612Y-74288268D01*
X123354306Y-74279028D01*
X123351921Y-74269509D01*
X123350482Y-74259802D01*
X123350000Y-74250000D01*
X123350000Y-74050000D01*
X123350482Y-74040198D01*
X123351921Y-74030491D01*
X123354306Y-74020972D01*
X123357612Y-74011732D01*
X123361808Y-74002860D01*
X123366853Y-73994443D01*
X123372699Y-73986561D01*
X123379289Y-73979289D01*
X123386561Y-73972699D01*
X123394443Y-73966853D01*
X123402860Y-73961808D01*
X123411732Y-73957612D01*
X123420972Y-73954306D01*
X123430491Y-73951921D01*
X123440198Y-73950482D01*
X123450000Y-73950000D01*
X123710000Y-73950000D01*
X123719802Y-73950482D01*
G37*
G04 #@! TD.AperFunction*
G04 #@! TA.AperFunction,SMDPad,CuDef*
G36*
X124359802Y-73950482D02*
G01*
X124369509Y-73951921D01*
X124379028Y-73954306D01*
X124388268Y-73957612D01*
X124397140Y-73961808D01*
X124405557Y-73966853D01*
X124413439Y-73972699D01*
X124420711Y-73979289D01*
X124427301Y-73986561D01*
X124433147Y-73994443D01*
X124438192Y-74002860D01*
X124442388Y-74011732D01*
X124445694Y-74020972D01*
X124448079Y-74030491D01*
X124449518Y-74040198D01*
X124450000Y-74050000D01*
X124450000Y-74250000D01*
X124449518Y-74259802D01*
X124448079Y-74269509D01*
X124445694Y-74279028D01*
X124442388Y-74288268D01*
X124438192Y-74297140D01*
X124433147Y-74305557D01*
X124427301Y-74313439D01*
X124420711Y-74320711D01*
X124413439Y-74327301D01*
X124405557Y-74333147D01*
X124397140Y-74338192D01*
X124388268Y-74342388D01*
X124379028Y-74345694D01*
X124369509Y-74348079D01*
X124359802Y-74349518D01*
X124350000Y-74350000D01*
X124090000Y-74350000D01*
X124080198Y-74349518D01*
X124070491Y-74348079D01*
X124060972Y-74345694D01*
X124051732Y-74342388D01*
X124042860Y-74338192D01*
X124034443Y-74333147D01*
X124026561Y-74327301D01*
X124019289Y-74320711D01*
X124012699Y-74313439D01*
X124006853Y-74305557D01*
X124001808Y-74297140D01*
X123997612Y-74288268D01*
X123994306Y-74279028D01*
X123991921Y-74269509D01*
X123990482Y-74259802D01*
X123990000Y-74250000D01*
X123990000Y-74050000D01*
X123990482Y-74040198D01*
X123991921Y-74030491D01*
X123994306Y-74020972D01*
X123997612Y-74011732D01*
X124001808Y-74002860D01*
X124006853Y-73994443D01*
X124012699Y-73986561D01*
X124019289Y-73979289D01*
X124026561Y-73972699D01*
X124034443Y-73966853D01*
X124042860Y-73961808D01*
X124051732Y-73957612D01*
X124060972Y-73954306D01*
X124070491Y-73951921D01*
X124080198Y-73950482D01*
X124090000Y-73950000D01*
X124350000Y-73950000D01*
X124359802Y-73950482D01*
G37*
G04 #@! TD.AperFunction*
G04 #@! TA.AperFunction,SMDPad,CuDef*
G36*
X132579802Y-76850482D02*
G01*
X132589509Y-76851921D01*
X132599028Y-76854306D01*
X132608268Y-76857612D01*
X132617140Y-76861808D01*
X132625557Y-76866853D01*
X132633439Y-76872699D01*
X132640711Y-76879289D01*
X132647301Y-76886561D01*
X132653147Y-76894443D01*
X132658192Y-76902860D01*
X132662388Y-76911732D01*
X132665694Y-76920972D01*
X132668079Y-76930491D01*
X132669518Y-76940198D01*
X132670000Y-76950000D01*
X132670000Y-77150000D01*
X132669518Y-77159802D01*
X132668079Y-77169509D01*
X132665694Y-77179028D01*
X132662388Y-77188268D01*
X132658192Y-77197140D01*
X132653147Y-77205557D01*
X132647301Y-77213439D01*
X132640711Y-77220711D01*
X132633439Y-77227301D01*
X132625557Y-77233147D01*
X132617140Y-77238192D01*
X132608268Y-77242388D01*
X132599028Y-77245694D01*
X132589509Y-77248079D01*
X132579802Y-77249518D01*
X132570000Y-77250000D01*
X132310000Y-77250000D01*
X132300198Y-77249518D01*
X132290491Y-77248079D01*
X132280972Y-77245694D01*
X132271732Y-77242388D01*
X132262860Y-77238192D01*
X132254443Y-77233147D01*
X132246561Y-77227301D01*
X132239289Y-77220711D01*
X132232699Y-77213439D01*
X132226853Y-77205557D01*
X132221808Y-77197140D01*
X132217612Y-77188268D01*
X132214306Y-77179028D01*
X132211921Y-77169509D01*
X132210482Y-77159802D01*
X132210000Y-77150000D01*
X132210000Y-76950000D01*
X132210482Y-76940198D01*
X132211921Y-76930491D01*
X132214306Y-76920972D01*
X132217612Y-76911732D01*
X132221808Y-76902860D01*
X132226853Y-76894443D01*
X132232699Y-76886561D01*
X132239289Y-76879289D01*
X132246561Y-76872699D01*
X132254443Y-76866853D01*
X132262860Y-76861808D01*
X132271732Y-76857612D01*
X132280972Y-76854306D01*
X132290491Y-76851921D01*
X132300198Y-76850482D01*
X132310000Y-76850000D01*
X132570000Y-76850000D01*
X132579802Y-76850482D01*
G37*
G04 #@! TD.AperFunction*
G04 #@! TA.AperFunction,SMDPad,CuDef*
G36*
X131939802Y-76850482D02*
G01*
X131949509Y-76851921D01*
X131959028Y-76854306D01*
X131968268Y-76857612D01*
X131977140Y-76861808D01*
X131985557Y-76866853D01*
X131993439Y-76872699D01*
X132000711Y-76879289D01*
X132007301Y-76886561D01*
X132013147Y-76894443D01*
X132018192Y-76902860D01*
X132022388Y-76911732D01*
X132025694Y-76920972D01*
X132028079Y-76930491D01*
X132029518Y-76940198D01*
X132030000Y-76950000D01*
X132030000Y-77150000D01*
X132029518Y-77159802D01*
X132028079Y-77169509D01*
X132025694Y-77179028D01*
X132022388Y-77188268D01*
X132018192Y-77197140D01*
X132013147Y-77205557D01*
X132007301Y-77213439D01*
X132000711Y-77220711D01*
X131993439Y-77227301D01*
X131985557Y-77233147D01*
X131977140Y-77238192D01*
X131968268Y-77242388D01*
X131959028Y-77245694D01*
X131949509Y-77248079D01*
X131939802Y-77249518D01*
X131930000Y-77250000D01*
X131670000Y-77250000D01*
X131660198Y-77249518D01*
X131650491Y-77248079D01*
X131640972Y-77245694D01*
X131631732Y-77242388D01*
X131622860Y-77238192D01*
X131614443Y-77233147D01*
X131606561Y-77227301D01*
X131599289Y-77220711D01*
X131592699Y-77213439D01*
X131586853Y-77205557D01*
X131581808Y-77197140D01*
X131577612Y-77188268D01*
X131574306Y-77179028D01*
X131571921Y-77169509D01*
X131570482Y-77159802D01*
X131570000Y-77150000D01*
X131570000Y-76950000D01*
X131570482Y-76940198D01*
X131571921Y-76930491D01*
X131574306Y-76920972D01*
X131577612Y-76911732D01*
X131581808Y-76902860D01*
X131586853Y-76894443D01*
X131592699Y-76886561D01*
X131599289Y-76879289D01*
X131606561Y-76872699D01*
X131614443Y-76866853D01*
X131622860Y-76861808D01*
X131631732Y-76857612D01*
X131640972Y-76854306D01*
X131650491Y-76851921D01*
X131660198Y-76850482D01*
X131670000Y-76850000D01*
X131930000Y-76850000D01*
X131939802Y-76850482D01*
G37*
G04 #@! TD.AperFunction*
G04 #@! TA.AperFunction,SMDPad,CuDef*
G36*
X143639802Y-76650482D02*
G01*
X143649509Y-76651921D01*
X143659028Y-76654306D01*
X143668268Y-76657612D01*
X143677140Y-76661808D01*
X143685557Y-76666853D01*
X143693439Y-76672699D01*
X143700711Y-76679289D01*
X143707301Y-76686561D01*
X143713147Y-76694443D01*
X143718192Y-76702860D01*
X143722388Y-76711732D01*
X143725694Y-76720972D01*
X143728079Y-76730491D01*
X143729518Y-76740198D01*
X143730000Y-76750000D01*
X143730000Y-76950000D01*
X143729518Y-76959802D01*
X143728079Y-76969509D01*
X143725694Y-76979028D01*
X143722388Y-76988268D01*
X143718192Y-76997140D01*
X143713147Y-77005557D01*
X143707301Y-77013439D01*
X143700711Y-77020711D01*
X143693439Y-77027301D01*
X143685557Y-77033147D01*
X143677140Y-77038192D01*
X143668268Y-77042388D01*
X143659028Y-77045694D01*
X143649509Y-77048079D01*
X143639802Y-77049518D01*
X143630000Y-77050000D01*
X143370000Y-77050000D01*
X143360198Y-77049518D01*
X143350491Y-77048079D01*
X143340972Y-77045694D01*
X143331732Y-77042388D01*
X143322860Y-77038192D01*
X143314443Y-77033147D01*
X143306561Y-77027301D01*
X143299289Y-77020711D01*
X143292699Y-77013439D01*
X143286853Y-77005557D01*
X143281808Y-76997140D01*
X143277612Y-76988268D01*
X143274306Y-76979028D01*
X143271921Y-76969509D01*
X143270482Y-76959802D01*
X143270000Y-76950000D01*
X143270000Y-76750000D01*
X143270482Y-76740198D01*
X143271921Y-76730491D01*
X143274306Y-76720972D01*
X143277612Y-76711732D01*
X143281808Y-76702860D01*
X143286853Y-76694443D01*
X143292699Y-76686561D01*
X143299289Y-76679289D01*
X143306561Y-76672699D01*
X143314443Y-76666853D01*
X143322860Y-76661808D01*
X143331732Y-76657612D01*
X143340972Y-76654306D01*
X143350491Y-76651921D01*
X143360198Y-76650482D01*
X143370000Y-76650000D01*
X143630000Y-76650000D01*
X143639802Y-76650482D01*
G37*
G04 #@! TD.AperFunction*
G04 #@! TA.AperFunction,SMDPad,CuDef*
G36*
X144279802Y-76650482D02*
G01*
X144289509Y-76651921D01*
X144299028Y-76654306D01*
X144308268Y-76657612D01*
X144317140Y-76661808D01*
X144325557Y-76666853D01*
X144333439Y-76672699D01*
X144340711Y-76679289D01*
X144347301Y-76686561D01*
X144353147Y-76694443D01*
X144358192Y-76702860D01*
X144362388Y-76711732D01*
X144365694Y-76720972D01*
X144368079Y-76730491D01*
X144369518Y-76740198D01*
X144370000Y-76750000D01*
X144370000Y-76950000D01*
X144369518Y-76959802D01*
X144368079Y-76969509D01*
X144365694Y-76979028D01*
X144362388Y-76988268D01*
X144358192Y-76997140D01*
X144353147Y-77005557D01*
X144347301Y-77013439D01*
X144340711Y-77020711D01*
X144333439Y-77027301D01*
X144325557Y-77033147D01*
X144317140Y-77038192D01*
X144308268Y-77042388D01*
X144299028Y-77045694D01*
X144289509Y-77048079D01*
X144279802Y-77049518D01*
X144270000Y-77050000D01*
X144010000Y-77050000D01*
X144000198Y-77049518D01*
X143990491Y-77048079D01*
X143980972Y-77045694D01*
X143971732Y-77042388D01*
X143962860Y-77038192D01*
X143954443Y-77033147D01*
X143946561Y-77027301D01*
X143939289Y-77020711D01*
X143932699Y-77013439D01*
X143926853Y-77005557D01*
X143921808Y-76997140D01*
X143917612Y-76988268D01*
X143914306Y-76979028D01*
X143911921Y-76969509D01*
X143910482Y-76959802D01*
X143910000Y-76950000D01*
X143910000Y-76750000D01*
X143910482Y-76740198D01*
X143911921Y-76730491D01*
X143914306Y-76720972D01*
X143917612Y-76711732D01*
X143921808Y-76702860D01*
X143926853Y-76694443D01*
X143932699Y-76686561D01*
X143939289Y-76679289D01*
X143946561Y-76672699D01*
X143954443Y-76666853D01*
X143962860Y-76661808D01*
X143971732Y-76657612D01*
X143980972Y-76654306D01*
X143990491Y-76651921D01*
X144000198Y-76650482D01*
X144010000Y-76650000D01*
X144270000Y-76650000D01*
X144279802Y-76650482D01*
G37*
G04 #@! TD.AperFunction*
G04 #@! TA.AperFunction,SMDPad,CuDef*
G36*
X139939802Y-71950482D02*
G01*
X139949509Y-71951921D01*
X139959028Y-71954306D01*
X139968268Y-71957612D01*
X139977140Y-71961808D01*
X139985557Y-71966853D01*
X139993439Y-71972699D01*
X140000711Y-71979289D01*
X140007301Y-71986561D01*
X140013147Y-71994443D01*
X140018192Y-72002860D01*
X140022388Y-72011732D01*
X140025694Y-72020972D01*
X140028079Y-72030491D01*
X140029518Y-72040198D01*
X140030000Y-72050000D01*
X140030000Y-72250000D01*
X140029518Y-72259802D01*
X140028079Y-72269509D01*
X140025694Y-72279028D01*
X140022388Y-72288268D01*
X140018192Y-72297140D01*
X140013147Y-72305557D01*
X140007301Y-72313439D01*
X140000711Y-72320711D01*
X139993439Y-72327301D01*
X139985557Y-72333147D01*
X139977140Y-72338192D01*
X139968268Y-72342388D01*
X139959028Y-72345694D01*
X139949509Y-72348079D01*
X139939802Y-72349518D01*
X139930000Y-72350000D01*
X139670000Y-72350000D01*
X139660198Y-72349518D01*
X139650491Y-72348079D01*
X139640972Y-72345694D01*
X139631732Y-72342388D01*
X139622860Y-72338192D01*
X139614443Y-72333147D01*
X139606561Y-72327301D01*
X139599289Y-72320711D01*
X139592699Y-72313439D01*
X139586853Y-72305557D01*
X139581808Y-72297140D01*
X139577612Y-72288268D01*
X139574306Y-72279028D01*
X139571921Y-72269509D01*
X139570482Y-72259802D01*
X139570000Y-72250000D01*
X139570000Y-72050000D01*
X139570482Y-72040198D01*
X139571921Y-72030491D01*
X139574306Y-72020972D01*
X139577612Y-72011732D01*
X139581808Y-72002860D01*
X139586853Y-71994443D01*
X139592699Y-71986561D01*
X139599289Y-71979289D01*
X139606561Y-71972699D01*
X139614443Y-71966853D01*
X139622860Y-71961808D01*
X139631732Y-71957612D01*
X139640972Y-71954306D01*
X139650491Y-71951921D01*
X139660198Y-71950482D01*
X139670000Y-71950000D01*
X139930000Y-71950000D01*
X139939802Y-71950482D01*
G37*
G04 #@! TD.AperFunction*
G04 #@! TA.AperFunction,SMDPad,CuDef*
G36*
X140579802Y-71950482D02*
G01*
X140589509Y-71951921D01*
X140599028Y-71954306D01*
X140608268Y-71957612D01*
X140617140Y-71961808D01*
X140625557Y-71966853D01*
X140633439Y-71972699D01*
X140640711Y-71979289D01*
X140647301Y-71986561D01*
X140653147Y-71994443D01*
X140658192Y-72002860D01*
X140662388Y-72011732D01*
X140665694Y-72020972D01*
X140668079Y-72030491D01*
X140669518Y-72040198D01*
X140670000Y-72050000D01*
X140670000Y-72250000D01*
X140669518Y-72259802D01*
X140668079Y-72269509D01*
X140665694Y-72279028D01*
X140662388Y-72288268D01*
X140658192Y-72297140D01*
X140653147Y-72305557D01*
X140647301Y-72313439D01*
X140640711Y-72320711D01*
X140633439Y-72327301D01*
X140625557Y-72333147D01*
X140617140Y-72338192D01*
X140608268Y-72342388D01*
X140599028Y-72345694D01*
X140589509Y-72348079D01*
X140579802Y-72349518D01*
X140570000Y-72350000D01*
X140310000Y-72350000D01*
X140300198Y-72349518D01*
X140290491Y-72348079D01*
X140280972Y-72345694D01*
X140271732Y-72342388D01*
X140262860Y-72338192D01*
X140254443Y-72333147D01*
X140246561Y-72327301D01*
X140239289Y-72320711D01*
X140232699Y-72313439D01*
X140226853Y-72305557D01*
X140221808Y-72297140D01*
X140217612Y-72288268D01*
X140214306Y-72279028D01*
X140211921Y-72269509D01*
X140210482Y-72259802D01*
X140210000Y-72250000D01*
X140210000Y-72050000D01*
X140210482Y-72040198D01*
X140211921Y-72030491D01*
X140214306Y-72020972D01*
X140217612Y-72011732D01*
X140221808Y-72002860D01*
X140226853Y-71994443D01*
X140232699Y-71986561D01*
X140239289Y-71979289D01*
X140246561Y-71972699D01*
X140254443Y-71966853D01*
X140262860Y-71961808D01*
X140271732Y-71957612D01*
X140280972Y-71954306D01*
X140290491Y-71951921D01*
X140300198Y-71950482D01*
X140310000Y-71950000D01*
X140570000Y-71950000D01*
X140579802Y-71950482D01*
G37*
G04 #@! TD.AperFunction*
G04 #@! TA.AperFunction,SMDPad,CuDef*
G36*
X138815191Y-72876053D02*
G01*
X138836426Y-72879203D01*
X138857250Y-72884419D01*
X138877462Y-72891651D01*
X138896868Y-72900830D01*
X138915281Y-72911866D01*
X138932524Y-72924654D01*
X138948430Y-72939070D01*
X138962846Y-72954976D01*
X138975634Y-72972219D01*
X138986670Y-72990632D01*
X138995849Y-73010038D01*
X139003081Y-73030250D01*
X139008297Y-73051074D01*
X139011447Y-73072309D01*
X139012500Y-73093750D01*
X139012500Y-73606250D01*
X139011447Y-73627691D01*
X139008297Y-73648926D01*
X139003081Y-73669750D01*
X138995849Y-73689962D01*
X138986670Y-73709368D01*
X138975634Y-73727781D01*
X138962846Y-73745024D01*
X138948430Y-73760930D01*
X138932524Y-73775346D01*
X138915281Y-73788134D01*
X138896868Y-73799170D01*
X138877462Y-73808349D01*
X138857250Y-73815581D01*
X138836426Y-73820797D01*
X138815191Y-73823947D01*
X138793750Y-73825000D01*
X138356250Y-73825000D01*
X138334809Y-73823947D01*
X138313574Y-73820797D01*
X138292750Y-73815581D01*
X138272538Y-73808349D01*
X138253132Y-73799170D01*
X138234719Y-73788134D01*
X138217476Y-73775346D01*
X138201570Y-73760930D01*
X138187154Y-73745024D01*
X138174366Y-73727781D01*
X138163330Y-73709368D01*
X138154151Y-73689962D01*
X138146919Y-73669750D01*
X138141703Y-73648926D01*
X138138553Y-73627691D01*
X138137500Y-73606250D01*
X138137500Y-73093750D01*
X138138553Y-73072309D01*
X138141703Y-73051074D01*
X138146919Y-73030250D01*
X138154151Y-73010038D01*
X138163330Y-72990632D01*
X138174366Y-72972219D01*
X138187154Y-72954976D01*
X138201570Y-72939070D01*
X138217476Y-72924654D01*
X138234719Y-72911866D01*
X138253132Y-72900830D01*
X138272538Y-72891651D01*
X138292750Y-72884419D01*
X138313574Y-72879203D01*
X138334809Y-72876053D01*
X138356250Y-72875000D01*
X138793750Y-72875000D01*
X138815191Y-72876053D01*
G37*
G04 #@! TD.AperFunction*
G04 #@! TA.AperFunction,SMDPad,CuDef*
G36*
X140390191Y-72876053D02*
G01*
X140411426Y-72879203D01*
X140432250Y-72884419D01*
X140452462Y-72891651D01*
X140471868Y-72900830D01*
X140490281Y-72911866D01*
X140507524Y-72924654D01*
X140523430Y-72939070D01*
X140537846Y-72954976D01*
X140550634Y-72972219D01*
X140561670Y-72990632D01*
X140570849Y-73010038D01*
X140578081Y-73030250D01*
X140583297Y-73051074D01*
X140586447Y-73072309D01*
X140587500Y-73093750D01*
X140587500Y-73606250D01*
X140586447Y-73627691D01*
X140583297Y-73648926D01*
X140578081Y-73669750D01*
X140570849Y-73689962D01*
X140561670Y-73709368D01*
X140550634Y-73727781D01*
X140537846Y-73745024D01*
X140523430Y-73760930D01*
X140507524Y-73775346D01*
X140490281Y-73788134D01*
X140471868Y-73799170D01*
X140452462Y-73808349D01*
X140432250Y-73815581D01*
X140411426Y-73820797D01*
X140390191Y-73823947D01*
X140368750Y-73825000D01*
X139931250Y-73825000D01*
X139909809Y-73823947D01*
X139888574Y-73820797D01*
X139867750Y-73815581D01*
X139847538Y-73808349D01*
X139828132Y-73799170D01*
X139809719Y-73788134D01*
X139792476Y-73775346D01*
X139776570Y-73760930D01*
X139762154Y-73745024D01*
X139749366Y-73727781D01*
X139738330Y-73709368D01*
X139729151Y-73689962D01*
X139721919Y-73669750D01*
X139716703Y-73648926D01*
X139713553Y-73627691D01*
X139712500Y-73606250D01*
X139712500Y-73093750D01*
X139713553Y-73072309D01*
X139716703Y-73051074D01*
X139721919Y-73030250D01*
X139729151Y-73010038D01*
X139738330Y-72990632D01*
X139749366Y-72972219D01*
X139762154Y-72954976D01*
X139776570Y-72939070D01*
X139792476Y-72924654D01*
X139809719Y-72911866D01*
X139828132Y-72900830D01*
X139847538Y-72891651D01*
X139867750Y-72884419D01*
X139888574Y-72879203D01*
X139909809Y-72876053D01*
X139931250Y-72875000D01*
X140368750Y-72875000D01*
X140390191Y-72876053D01*
G37*
G04 #@! TD.AperFunction*
G04 #@! TA.AperFunction,SMDPad,CuDef*
G36*
X134139802Y-72250482D02*
G01*
X134149509Y-72251921D01*
X134159028Y-72254306D01*
X134168268Y-72257612D01*
X134177140Y-72261808D01*
X134185557Y-72266853D01*
X134193439Y-72272699D01*
X134200711Y-72279289D01*
X134207301Y-72286561D01*
X134213147Y-72294443D01*
X134218192Y-72302860D01*
X134222388Y-72311732D01*
X134225694Y-72320972D01*
X134228079Y-72330491D01*
X134229518Y-72340198D01*
X134230000Y-72350000D01*
X134230000Y-72550000D01*
X134229518Y-72559802D01*
X134228079Y-72569509D01*
X134225694Y-72579028D01*
X134222388Y-72588268D01*
X134218192Y-72597140D01*
X134213147Y-72605557D01*
X134207301Y-72613439D01*
X134200711Y-72620711D01*
X134193439Y-72627301D01*
X134185557Y-72633147D01*
X134177140Y-72638192D01*
X134168268Y-72642388D01*
X134159028Y-72645694D01*
X134149509Y-72648079D01*
X134139802Y-72649518D01*
X134130000Y-72650000D01*
X133870000Y-72650000D01*
X133860198Y-72649518D01*
X133850491Y-72648079D01*
X133840972Y-72645694D01*
X133831732Y-72642388D01*
X133822860Y-72638192D01*
X133814443Y-72633147D01*
X133806561Y-72627301D01*
X133799289Y-72620711D01*
X133792699Y-72613439D01*
X133786853Y-72605557D01*
X133781808Y-72597140D01*
X133777612Y-72588268D01*
X133774306Y-72579028D01*
X133771921Y-72569509D01*
X133770482Y-72559802D01*
X133770000Y-72550000D01*
X133770000Y-72350000D01*
X133770482Y-72340198D01*
X133771921Y-72330491D01*
X133774306Y-72320972D01*
X133777612Y-72311732D01*
X133781808Y-72302860D01*
X133786853Y-72294443D01*
X133792699Y-72286561D01*
X133799289Y-72279289D01*
X133806561Y-72272699D01*
X133814443Y-72266853D01*
X133822860Y-72261808D01*
X133831732Y-72257612D01*
X133840972Y-72254306D01*
X133850491Y-72251921D01*
X133860198Y-72250482D01*
X133870000Y-72250000D01*
X134130000Y-72250000D01*
X134139802Y-72250482D01*
G37*
G04 #@! TD.AperFunction*
G04 #@! TA.AperFunction,SMDPad,CuDef*
G36*
X133499802Y-72250482D02*
G01*
X133509509Y-72251921D01*
X133519028Y-72254306D01*
X133528268Y-72257612D01*
X133537140Y-72261808D01*
X133545557Y-72266853D01*
X133553439Y-72272699D01*
X133560711Y-72279289D01*
X133567301Y-72286561D01*
X133573147Y-72294443D01*
X133578192Y-72302860D01*
X133582388Y-72311732D01*
X133585694Y-72320972D01*
X133588079Y-72330491D01*
X133589518Y-72340198D01*
X133590000Y-72350000D01*
X133590000Y-72550000D01*
X133589518Y-72559802D01*
X133588079Y-72569509D01*
X133585694Y-72579028D01*
X133582388Y-72588268D01*
X133578192Y-72597140D01*
X133573147Y-72605557D01*
X133567301Y-72613439D01*
X133560711Y-72620711D01*
X133553439Y-72627301D01*
X133545557Y-72633147D01*
X133537140Y-72638192D01*
X133528268Y-72642388D01*
X133519028Y-72645694D01*
X133509509Y-72648079D01*
X133499802Y-72649518D01*
X133490000Y-72650000D01*
X133230000Y-72650000D01*
X133220198Y-72649518D01*
X133210491Y-72648079D01*
X133200972Y-72645694D01*
X133191732Y-72642388D01*
X133182860Y-72638192D01*
X133174443Y-72633147D01*
X133166561Y-72627301D01*
X133159289Y-72620711D01*
X133152699Y-72613439D01*
X133146853Y-72605557D01*
X133141808Y-72597140D01*
X133137612Y-72588268D01*
X133134306Y-72579028D01*
X133131921Y-72569509D01*
X133130482Y-72559802D01*
X133130000Y-72550000D01*
X133130000Y-72350000D01*
X133130482Y-72340198D01*
X133131921Y-72330491D01*
X133134306Y-72320972D01*
X133137612Y-72311732D01*
X133141808Y-72302860D01*
X133146853Y-72294443D01*
X133152699Y-72286561D01*
X133159289Y-72279289D01*
X133166561Y-72272699D01*
X133174443Y-72266853D01*
X133182860Y-72261808D01*
X133191732Y-72257612D01*
X133200972Y-72254306D01*
X133210491Y-72251921D01*
X133220198Y-72250482D01*
X133230000Y-72250000D01*
X133490000Y-72250000D01*
X133499802Y-72250482D01*
G37*
G04 #@! TD.AperFunction*
G04 #@! TA.AperFunction,SMDPad,CuDef*
G36*
X135565191Y-72876053D02*
G01*
X135586426Y-72879203D01*
X135607250Y-72884419D01*
X135627462Y-72891651D01*
X135646868Y-72900830D01*
X135665281Y-72911866D01*
X135682524Y-72924654D01*
X135698430Y-72939070D01*
X135712846Y-72954976D01*
X135725634Y-72972219D01*
X135736670Y-72990632D01*
X135745849Y-73010038D01*
X135753081Y-73030250D01*
X135758297Y-73051074D01*
X135761447Y-73072309D01*
X135762500Y-73093750D01*
X135762500Y-73606250D01*
X135761447Y-73627691D01*
X135758297Y-73648926D01*
X135753081Y-73669750D01*
X135745849Y-73689962D01*
X135736670Y-73709368D01*
X135725634Y-73727781D01*
X135712846Y-73745024D01*
X135698430Y-73760930D01*
X135682524Y-73775346D01*
X135665281Y-73788134D01*
X135646868Y-73799170D01*
X135627462Y-73808349D01*
X135607250Y-73815581D01*
X135586426Y-73820797D01*
X135565191Y-73823947D01*
X135543750Y-73825000D01*
X135106250Y-73825000D01*
X135084809Y-73823947D01*
X135063574Y-73820797D01*
X135042750Y-73815581D01*
X135022538Y-73808349D01*
X135003132Y-73799170D01*
X134984719Y-73788134D01*
X134967476Y-73775346D01*
X134951570Y-73760930D01*
X134937154Y-73745024D01*
X134924366Y-73727781D01*
X134913330Y-73709368D01*
X134904151Y-73689962D01*
X134896919Y-73669750D01*
X134891703Y-73648926D01*
X134888553Y-73627691D01*
X134887500Y-73606250D01*
X134887500Y-73093750D01*
X134888553Y-73072309D01*
X134891703Y-73051074D01*
X134896919Y-73030250D01*
X134904151Y-73010038D01*
X134913330Y-72990632D01*
X134924366Y-72972219D01*
X134937154Y-72954976D01*
X134951570Y-72939070D01*
X134967476Y-72924654D01*
X134984719Y-72911866D01*
X135003132Y-72900830D01*
X135022538Y-72891651D01*
X135042750Y-72884419D01*
X135063574Y-72879203D01*
X135084809Y-72876053D01*
X135106250Y-72875000D01*
X135543750Y-72875000D01*
X135565191Y-72876053D01*
G37*
G04 #@! TD.AperFunction*
G04 #@! TA.AperFunction,SMDPad,CuDef*
G36*
X137140191Y-72876053D02*
G01*
X137161426Y-72879203D01*
X137182250Y-72884419D01*
X137202462Y-72891651D01*
X137221868Y-72900830D01*
X137240281Y-72911866D01*
X137257524Y-72924654D01*
X137273430Y-72939070D01*
X137287846Y-72954976D01*
X137300634Y-72972219D01*
X137311670Y-72990632D01*
X137320849Y-73010038D01*
X137328081Y-73030250D01*
X137333297Y-73051074D01*
X137336447Y-73072309D01*
X137337500Y-73093750D01*
X137337500Y-73606250D01*
X137336447Y-73627691D01*
X137333297Y-73648926D01*
X137328081Y-73669750D01*
X137320849Y-73689962D01*
X137311670Y-73709368D01*
X137300634Y-73727781D01*
X137287846Y-73745024D01*
X137273430Y-73760930D01*
X137257524Y-73775346D01*
X137240281Y-73788134D01*
X137221868Y-73799170D01*
X137202462Y-73808349D01*
X137182250Y-73815581D01*
X137161426Y-73820797D01*
X137140191Y-73823947D01*
X137118750Y-73825000D01*
X136681250Y-73825000D01*
X136659809Y-73823947D01*
X136638574Y-73820797D01*
X136617750Y-73815581D01*
X136597538Y-73808349D01*
X136578132Y-73799170D01*
X136559719Y-73788134D01*
X136542476Y-73775346D01*
X136526570Y-73760930D01*
X136512154Y-73745024D01*
X136499366Y-73727781D01*
X136488330Y-73709368D01*
X136479151Y-73689962D01*
X136471919Y-73669750D01*
X136466703Y-73648926D01*
X136463553Y-73627691D01*
X136462500Y-73606250D01*
X136462500Y-73093750D01*
X136463553Y-73072309D01*
X136466703Y-73051074D01*
X136471919Y-73030250D01*
X136479151Y-73010038D01*
X136488330Y-72990632D01*
X136499366Y-72972219D01*
X136512154Y-72954976D01*
X136526570Y-72939070D01*
X136542476Y-72924654D01*
X136559719Y-72911866D01*
X136578132Y-72900830D01*
X136597538Y-72891651D01*
X136617750Y-72884419D01*
X136638574Y-72879203D01*
X136659809Y-72876053D01*
X136681250Y-72875000D01*
X137118750Y-72875000D01*
X137140191Y-72876053D01*
G37*
G04 #@! TD.AperFunction*
G04 #@! TA.AperFunction,SMDPad,CuDef*
G36*
X129540191Y-81976053D02*
G01*
X129561426Y-81979203D01*
X129582250Y-81984419D01*
X129602462Y-81991651D01*
X129621868Y-82000830D01*
X129640281Y-82011866D01*
X129657524Y-82024654D01*
X129673430Y-82039070D01*
X129687846Y-82054976D01*
X129700634Y-82072219D01*
X129711670Y-82090632D01*
X129720849Y-82110038D01*
X129728081Y-82130250D01*
X129733297Y-82151074D01*
X129736447Y-82172309D01*
X129737500Y-82193750D01*
X129737500Y-82706250D01*
X129736447Y-82727691D01*
X129733297Y-82748926D01*
X129728081Y-82769750D01*
X129720849Y-82789962D01*
X129711670Y-82809368D01*
X129700634Y-82827781D01*
X129687846Y-82845024D01*
X129673430Y-82860930D01*
X129657524Y-82875346D01*
X129640281Y-82888134D01*
X129621868Y-82899170D01*
X129602462Y-82908349D01*
X129582250Y-82915581D01*
X129561426Y-82920797D01*
X129540191Y-82923947D01*
X129518750Y-82925000D01*
X129081250Y-82925000D01*
X129059809Y-82923947D01*
X129038574Y-82920797D01*
X129017750Y-82915581D01*
X128997538Y-82908349D01*
X128978132Y-82899170D01*
X128959719Y-82888134D01*
X128942476Y-82875346D01*
X128926570Y-82860930D01*
X128912154Y-82845024D01*
X128899366Y-82827781D01*
X128888330Y-82809368D01*
X128879151Y-82789962D01*
X128871919Y-82769750D01*
X128866703Y-82748926D01*
X128863553Y-82727691D01*
X128862500Y-82706250D01*
X128862500Y-82193750D01*
X128863553Y-82172309D01*
X128866703Y-82151074D01*
X128871919Y-82130250D01*
X128879151Y-82110038D01*
X128888330Y-82090632D01*
X128899366Y-82072219D01*
X128912154Y-82054976D01*
X128926570Y-82039070D01*
X128942476Y-82024654D01*
X128959719Y-82011866D01*
X128978132Y-82000830D01*
X128997538Y-81991651D01*
X129017750Y-81984419D01*
X129038574Y-81979203D01*
X129059809Y-81976053D01*
X129081250Y-81975000D01*
X129518750Y-81975000D01*
X129540191Y-81976053D01*
G37*
G04 #@! TD.AperFunction*
G04 #@! TA.AperFunction,SMDPad,CuDef*
G36*
X127965191Y-81976053D02*
G01*
X127986426Y-81979203D01*
X128007250Y-81984419D01*
X128027462Y-81991651D01*
X128046868Y-82000830D01*
X128065281Y-82011866D01*
X128082524Y-82024654D01*
X128098430Y-82039070D01*
X128112846Y-82054976D01*
X128125634Y-82072219D01*
X128136670Y-82090632D01*
X128145849Y-82110038D01*
X128153081Y-82130250D01*
X128158297Y-82151074D01*
X128161447Y-82172309D01*
X128162500Y-82193750D01*
X128162500Y-82706250D01*
X128161447Y-82727691D01*
X128158297Y-82748926D01*
X128153081Y-82769750D01*
X128145849Y-82789962D01*
X128136670Y-82809368D01*
X128125634Y-82827781D01*
X128112846Y-82845024D01*
X128098430Y-82860930D01*
X128082524Y-82875346D01*
X128065281Y-82888134D01*
X128046868Y-82899170D01*
X128027462Y-82908349D01*
X128007250Y-82915581D01*
X127986426Y-82920797D01*
X127965191Y-82923947D01*
X127943750Y-82925000D01*
X127506250Y-82925000D01*
X127484809Y-82923947D01*
X127463574Y-82920797D01*
X127442750Y-82915581D01*
X127422538Y-82908349D01*
X127403132Y-82899170D01*
X127384719Y-82888134D01*
X127367476Y-82875346D01*
X127351570Y-82860930D01*
X127337154Y-82845024D01*
X127324366Y-82827781D01*
X127313330Y-82809368D01*
X127304151Y-82789962D01*
X127296919Y-82769750D01*
X127291703Y-82748926D01*
X127288553Y-82727691D01*
X127287500Y-82706250D01*
X127287500Y-82193750D01*
X127288553Y-82172309D01*
X127291703Y-82151074D01*
X127296919Y-82130250D01*
X127304151Y-82110038D01*
X127313330Y-82090632D01*
X127324366Y-82072219D01*
X127337154Y-82054976D01*
X127351570Y-82039070D01*
X127367476Y-82024654D01*
X127384719Y-82011866D01*
X127403132Y-82000830D01*
X127422538Y-81991651D01*
X127442750Y-81984419D01*
X127463574Y-81979203D01*
X127484809Y-81976053D01*
X127506250Y-81975000D01*
X127943750Y-81975000D01*
X127965191Y-81976053D01*
G37*
G04 #@! TD.AperFunction*
G04 #@! TA.AperFunction,SMDPad,CuDef*
G36*
X129540191Y-80276053D02*
G01*
X129561426Y-80279203D01*
X129582250Y-80284419D01*
X129602462Y-80291651D01*
X129621868Y-80300830D01*
X129640281Y-80311866D01*
X129657524Y-80324654D01*
X129673430Y-80339070D01*
X129687846Y-80354976D01*
X129700634Y-80372219D01*
X129711670Y-80390632D01*
X129720849Y-80410038D01*
X129728081Y-80430250D01*
X129733297Y-80451074D01*
X129736447Y-80472309D01*
X129737500Y-80493750D01*
X129737500Y-81006250D01*
X129736447Y-81027691D01*
X129733297Y-81048926D01*
X129728081Y-81069750D01*
X129720849Y-81089962D01*
X129711670Y-81109368D01*
X129700634Y-81127781D01*
X129687846Y-81145024D01*
X129673430Y-81160930D01*
X129657524Y-81175346D01*
X129640281Y-81188134D01*
X129621868Y-81199170D01*
X129602462Y-81208349D01*
X129582250Y-81215581D01*
X129561426Y-81220797D01*
X129540191Y-81223947D01*
X129518750Y-81225000D01*
X129081250Y-81225000D01*
X129059809Y-81223947D01*
X129038574Y-81220797D01*
X129017750Y-81215581D01*
X128997538Y-81208349D01*
X128978132Y-81199170D01*
X128959719Y-81188134D01*
X128942476Y-81175346D01*
X128926570Y-81160930D01*
X128912154Y-81145024D01*
X128899366Y-81127781D01*
X128888330Y-81109368D01*
X128879151Y-81089962D01*
X128871919Y-81069750D01*
X128866703Y-81048926D01*
X128863553Y-81027691D01*
X128862500Y-81006250D01*
X128862500Y-80493750D01*
X128863553Y-80472309D01*
X128866703Y-80451074D01*
X128871919Y-80430250D01*
X128879151Y-80410038D01*
X128888330Y-80390632D01*
X128899366Y-80372219D01*
X128912154Y-80354976D01*
X128926570Y-80339070D01*
X128942476Y-80324654D01*
X128959719Y-80311866D01*
X128978132Y-80300830D01*
X128997538Y-80291651D01*
X129017750Y-80284419D01*
X129038574Y-80279203D01*
X129059809Y-80276053D01*
X129081250Y-80275000D01*
X129518750Y-80275000D01*
X129540191Y-80276053D01*
G37*
G04 #@! TD.AperFunction*
G04 #@! TA.AperFunction,SMDPad,CuDef*
G36*
X127965191Y-80276053D02*
G01*
X127986426Y-80279203D01*
X128007250Y-80284419D01*
X128027462Y-80291651D01*
X128046868Y-80300830D01*
X128065281Y-80311866D01*
X128082524Y-80324654D01*
X128098430Y-80339070D01*
X128112846Y-80354976D01*
X128125634Y-80372219D01*
X128136670Y-80390632D01*
X128145849Y-80410038D01*
X128153081Y-80430250D01*
X128158297Y-80451074D01*
X128161447Y-80472309D01*
X128162500Y-80493750D01*
X128162500Y-81006250D01*
X128161447Y-81027691D01*
X128158297Y-81048926D01*
X128153081Y-81069750D01*
X128145849Y-81089962D01*
X128136670Y-81109368D01*
X128125634Y-81127781D01*
X128112846Y-81145024D01*
X128098430Y-81160930D01*
X128082524Y-81175346D01*
X128065281Y-81188134D01*
X128046868Y-81199170D01*
X128027462Y-81208349D01*
X128007250Y-81215581D01*
X127986426Y-81220797D01*
X127965191Y-81223947D01*
X127943750Y-81225000D01*
X127506250Y-81225000D01*
X127484809Y-81223947D01*
X127463574Y-81220797D01*
X127442750Y-81215581D01*
X127422538Y-81208349D01*
X127403132Y-81199170D01*
X127384719Y-81188134D01*
X127367476Y-81175346D01*
X127351570Y-81160930D01*
X127337154Y-81145024D01*
X127324366Y-81127781D01*
X127313330Y-81109368D01*
X127304151Y-81089962D01*
X127296919Y-81069750D01*
X127291703Y-81048926D01*
X127288553Y-81027691D01*
X127287500Y-81006250D01*
X127287500Y-80493750D01*
X127288553Y-80472309D01*
X127291703Y-80451074D01*
X127296919Y-80430250D01*
X127304151Y-80410038D01*
X127313330Y-80390632D01*
X127324366Y-80372219D01*
X127337154Y-80354976D01*
X127351570Y-80339070D01*
X127367476Y-80324654D01*
X127384719Y-80311866D01*
X127403132Y-80300830D01*
X127422538Y-80291651D01*
X127442750Y-80284419D01*
X127463574Y-80279203D01*
X127484809Y-80276053D01*
X127506250Y-80275000D01*
X127943750Y-80275000D01*
X127965191Y-80276053D01*
G37*
G04 #@! TD.AperFunction*
G04 #@! TA.AperFunction,SMDPad,CuDef*
G36*
X126446958Y-73530710D02*
G01*
X126461276Y-73532834D01*
X126475317Y-73536351D01*
X126488946Y-73541228D01*
X126502031Y-73547417D01*
X126514447Y-73554858D01*
X126526073Y-73563481D01*
X126536798Y-73573202D01*
X126546519Y-73583927D01*
X126555142Y-73595553D01*
X126562583Y-73607969D01*
X126568772Y-73621054D01*
X126573649Y-73634683D01*
X126577166Y-73648724D01*
X126579290Y-73663042D01*
X126580000Y-73677500D01*
X126580000Y-74022500D01*
X126579290Y-74036958D01*
X126577166Y-74051276D01*
X126573649Y-74065317D01*
X126568772Y-74078946D01*
X126562583Y-74092031D01*
X126555142Y-74104447D01*
X126546519Y-74116073D01*
X126536798Y-74126798D01*
X126526073Y-74136519D01*
X126514447Y-74145142D01*
X126502031Y-74152583D01*
X126488946Y-74158772D01*
X126475317Y-74163649D01*
X126461276Y-74167166D01*
X126446958Y-74169290D01*
X126432500Y-74170000D01*
X126137500Y-74170000D01*
X126123042Y-74169290D01*
X126108724Y-74167166D01*
X126094683Y-74163649D01*
X126081054Y-74158772D01*
X126067969Y-74152583D01*
X126055553Y-74145142D01*
X126043927Y-74136519D01*
X126033202Y-74126798D01*
X126023481Y-74116073D01*
X126014858Y-74104447D01*
X126007417Y-74092031D01*
X126001228Y-74078946D01*
X125996351Y-74065317D01*
X125992834Y-74051276D01*
X125990710Y-74036958D01*
X125990000Y-74022500D01*
X125990000Y-73677500D01*
X125990710Y-73663042D01*
X125992834Y-73648724D01*
X125996351Y-73634683D01*
X126001228Y-73621054D01*
X126007417Y-73607969D01*
X126014858Y-73595553D01*
X126023481Y-73583927D01*
X126033202Y-73573202D01*
X126043927Y-73563481D01*
X126055553Y-73554858D01*
X126067969Y-73547417D01*
X126081054Y-73541228D01*
X126094683Y-73536351D01*
X126108724Y-73532834D01*
X126123042Y-73530710D01*
X126137500Y-73530000D01*
X126432500Y-73530000D01*
X126446958Y-73530710D01*
G37*
G04 #@! TD.AperFunction*
G04 #@! TA.AperFunction,SMDPad,CuDef*
G36*
X125476958Y-73530710D02*
G01*
X125491276Y-73532834D01*
X125505317Y-73536351D01*
X125518946Y-73541228D01*
X125532031Y-73547417D01*
X125544447Y-73554858D01*
X125556073Y-73563481D01*
X125566798Y-73573202D01*
X125576519Y-73583927D01*
X125585142Y-73595553D01*
X125592583Y-73607969D01*
X125598772Y-73621054D01*
X125603649Y-73634683D01*
X125607166Y-73648724D01*
X125609290Y-73663042D01*
X125610000Y-73677500D01*
X125610000Y-74022500D01*
X125609290Y-74036958D01*
X125607166Y-74051276D01*
X125603649Y-74065317D01*
X125598772Y-74078946D01*
X125592583Y-74092031D01*
X125585142Y-74104447D01*
X125576519Y-74116073D01*
X125566798Y-74126798D01*
X125556073Y-74136519D01*
X125544447Y-74145142D01*
X125532031Y-74152583D01*
X125518946Y-74158772D01*
X125505317Y-74163649D01*
X125491276Y-74167166D01*
X125476958Y-74169290D01*
X125462500Y-74170000D01*
X125167500Y-74170000D01*
X125153042Y-74169290D01*
X125138724Y-74167166D01*
X125124683Y-74163649D01*
X125111054Y-74158772D01*
X125097969Y-74152583D01*
X125085553Y-74145142D01*
X125073927Y-74136519D01*
X125063202Y-74126798D01*
X125053481Y-74116073D01*
X125044858Y-74104447D01*
X125037417Y-74092031D01*
X125031228Y-74078946D01*
X125026351Y-74065317D01*
X125022834Y-74051276D01*
X125020710Y-74036958D01*
X125020000Y-74022500D01*
X125020000Y-73677500D01*
X125020710Y-73663042D01*
X125022834Y-73648724D01*
X125026351Y-73634683D01*
X125031228Y-73621054D01*
X125037417Y-73607969D01*
X125044858Y-73595553D01*
X125053481Y-73583927D01*
X125063202Y-73573202D01*
X125073927Y-73563481D01*
X125085553Y-73554858D01*
X125097969Y-73547417D01*
X125111054Y-73541228D01*
X125124683Y-73536351D01*
X125138724Y-73532834D01*
X125153042Y-73530710D01*
X125167500Y-73530000D01*
X125462500Y-73530000D01*
X125476958Y-73530710D01*
G37*
G04 #@! TD.AperFunction*
G04 #@! TA.AperFunction,SMDPad,CuDef*
G36*
X147809802Y-75520482D02*
G01*
X147819509Y-75521921D01*
X147829028Y-75524306D01*
X147838268Y-75527612D01*
X147847140Y-75531808D01*
X147855557Y-75536853D01*
X147863439Y-75542699D01*
X147870711Y-75549289D01*
X147877301Y-75556561D01*
X147883147Y-75564443D01*
X147888192Y-75572860D01*
X147892388Y-75581732D01*
X147895694Y-75590972D01*
X147898079Y-75600491D01*
X147899518Y-75610198D01*
X147900000Y-75620000D01*
X147900000Y-75880000D01*
X147899518Y-75889802D01*
X147898079Y-75899509D01*
X147895694Y-75909028D01*
X147892388Y-75918268D01*
X147888192Y-75927140D01*
X147883147Y-75935557D01*
X147877301Y-75943439D01*
X147870711Y-75950711D01*
X147863439Y-75957301D01*
X147855557Y-75963147D01*
X147847140Y-75968192D01*
X147838268Y-75972388D01*
X147829028Y-75975694D01*
X147819509Y-75978079D01*
X147809802Y-75979518D01*
X147800000Y-75980000D01*
X147600000Y-75980000D01*
X147590198Y-75979518D01*
X147580491Y-75978079D01*
X147570972Y-75975694D01*
X147561732Y-75972388D01*
X147552860Y-75968192D01*
X147544443Y-75963147D01*
X147536561Y-75957301D01*
X147529289Y-75950711D01*
X147522699Y-75943439D01*
X147516853Y-75935557D01*
X147511808Y-75927140D01*
X147507612Y-75918268D01*
X147504306Y-75909028D01*
X147501921Y-75899509D01*
X147500482Y-75889802D01*
X147500000Y-75880000D01*
X147500000Y-75620000D01*
X147500482Y-75610198D01*
X147501921Y-75600491D01*
X147504306Y-75590972D01*
X147507612Y-75581732D01*
X147511808Y-75572860D01*
X147516853Y-75564443D01*
X147522699Y-75556561D01*
X147529289Y-75549289D01*
X147536561Y-75542699D01*
X147544443Y-75536853D01*
X147552860Y-75531808D01*
X147561732Y-75527612D01*
X147570972Y-75524306D01*
X147580491Y-75521921D01*
X147590198Y-75520482D01*
X147600000Y-75520000D01*
X147800000Y-75520000D01*
X147809802Y-75520482D01*
G37*
G04 #@! TD.AperFunction*
G04 #@! TA.AperFunction,SMDPad,CuDef*
G36*
X147809802Y-76160482D02*
G01*
X147819509Y-76161921D01*
X147829028Y-76164306D01*
X147838268Y-76167612D01*
X147847140Y-76171808D01*
X147855557Y-76176853D01*
X147863439Y-76182699D01*
X147870711Y-76189289D01*
X147877301Y-76196561D01*
X147883147Y-76204443D01*
X147888192Y-76212860D01*
X147892388Y-76221732D01*
X147895694Y-76230972D01*
X147898079Y-76240491D01*
X147899518Y-76250198D01*
X147900000Y-76260000D01*
X147900000Y-76520000D01*
X147899518Y-76529802D01*
X147898079Y-76539509D01*
X147895694Y-76549028D01*
X147892388Y-76558268D01*
X147888192Y-76567140D01*
X147883147Y-76575557D01*
X147877301Y-76583439D01*
X147870711Y-76590711D01*
X147863439Y-76597301D01*
X147855557Y-76603147D01*
X147847140Y-76608192D01*
X147838268Y-76612388D01*
X147829028Y-76615694D01*
X147819509Y-76618079D01*
X147809802Y-76619518D01*
X147800000Y-76620000D01*
X147600000Y-76620000D01*
X147590198Y-76619518D01*
X147580491Y-76618079D01*
X147570972Y-76615694D01*
X147561732Y-76612388D01*
X147552860Y-76608192D01*
X147544443Y-76603147D01*
X147536561Y-76597301D01*
X147529289Y-76590711D01*
X147522699Y-76583439D01*
X147516853Y-76575557D01*
X147511808Y-76567140D01*
X147507612Y-76558268D01*
X147504306Y-76549028D01*
X147501921Y-76539509D01*
X147500482Y-76529802D01*
X147500000Y-76520000D01*
X147500000Y-76260000D01*
X147500482Y-76250198D01*
X147501921Y-76240491D01*
X147504306Y-76230972D01*
X147507612Y-76221732D01*
X147511808Y-76212860D01*
X147516853Y-76204443D01*
X147522699Y-76196561D01*
X147529289Y-76189289D01*
X147536561Y-76182699D01*
X147544443Y-76176853D01*
X147552860Y-76171808D01*
X147561732Y-76167612D01*
X147570972Y-76164306D01*
X147580491Y-76161921D01*
X147590198Y-76160482D01*
X147600000Y-76160000D01*
X147800000Y-76160000D01*
X147809802Y-76160482D01*
G37*
G04 #@! TD.AperFunction*
G04 #@! TA.AperFunction,SMDPad,CuDef*
G36*
X143339802Y-75050482D02*
G01*
X143349509Y-75051921D01*
X143359028Y-75054306D01*
X143368268Y-75057612D01*
X143377140Y-75061808D01*
X143385557Y-75066853D01*
X143393439Y-75072699D01*
X143400711Y-75079289D01*
X143407301Y-75086561D01*
X143413147Y-75094443D01*
X143418192Y-75102860D01*
X143422388Y-75111732D01*
X143425694Y-75120972D01*
X143428079Y-75130491D01*
X143429518Y-75140198D01*
X143430000Y-75150000D01*
X143430000Y-75350000D01*
X143429518Y-75359802D01*
X143428079Y-75369509D01*
X143425694Y-75379028D01*
X143422388Y-75388268D01*
X143418192Y-75397140D01*
X143413147Y-75405557D01*
X143407301Y-75413439D01*
X143400711Y-75420711D01*
X143393439Y-75427301D01*
X143385557Y-75433147D01*
X143377140Y-75438192D01*
X143368268Y-75442388D01*
X143359028Y-75445694D01*
X143349509Y-75448079D01*
X143339802Y-75449518D01*
X143330000Y-75450000D01*
X143070000Y-75450000D01*
X143060198Y-75449518D01*
X143050491Y-75448079D01*
X143040972Y-75445694D01*
X143031732Y-75442388D01*
X143022860Y-75438192D01*
X143014443Y-75433147D01*
X143006561Y-75427301D01*
X142999289Y-75420711D01*
X142992699Y-75413439D01*
X142986853Y-75405557D01*
X142981808Y-75397140D01*
X142977612Y-75388268D01*
X142974306Y-75379028D01*
X142971921Y-75369509D01*
X142970482Y-75359802D01*
X142970000Y-75350000D01*
X142970000Y-75150000D01*
X142970482Y-75140198D01*
X142971921Y-75130491D01*
X142974306Y-75120972D01*
X142977612Y-75111732D01*
X142981808Y-75102860D01*
X142986853Y-75094443D01*
X142992699Y-75086561D01*
X142999289Y-75079289D01*
X143006561Y-75072699D01*
X143014443Y-75066853D01*
X143022860Y-75061808D01*
X143031732Y-75057612D01*
X143040972Y-75054306D01*
X143050491Y-75051921D01*
X143060198Y-75050482D01*
X143070000Y-75050000D01*
X143330000Y-75050000D01*
X143339802Y-75050482D01*
G37*
G04 #@! TD.AperFunction*
G04 #@! TA.AperFunction,SMDPad,CuDef*
G36*
X142699802Y-75050482D02*
G01*
X142709509Y-75051921D01*
X142719028Y-75054306D01*
X142728268Y-75057612D01*
X142737140Y-75061808D01*
X142745557Y-75066853D01*
X142753439Y-75072699D01*
X142760711Y-75079289D01*
X142767301Y-75086561D01*
X142773147Y-75094443D01*
X142778192Y-75102860D01*
X142782388Y-75111732D01*
X142785694Y-75120972D01*
X142788079Y-75130491D01*
X142789518Y-75140198D01*
X142790000Y-75150000D01*
X142790000Y-75350000D01*
X142789518Y-75359802D01*
X142788079Y-75369509D01*
X142785694Y-75379028D01*
X142782388Y-75388268D01*
X142778192Y-75397140D01*
X142773147Y-75405557D01*
X142767301Y-75413439D01*
X142760711Y-75420711D01*
X142753439Y-75427301D01*
X142745557Y-75433147D01*
X142737140Y-75438192D01*
X142728268Y-75442388D01*
X142719028Y-75445694D01*
X142709509Y-75448079D01*
X142699802Y-75449518D01*
X142690000Y-75450000D01*
X142430000Y-75450000D01*
X142420198Y-75449518D01*
X142410491Y-75448079D01*
X142400972Y-75445694D01*
X142391732Y-75442388D01*
X142382860Y-75438192D01*
X142374443Y-75433147D01*
X142366561Y-75427301D01*
X142359289Y-75420711D01*
X142352699Y-75413439D01*
X142346853Y-75405557D01*
X142341808Y-75397140D01*
X142337612Y-75388268D01*
X142334306Y-75379028D01*
X142331921Y-75369509D01*
X142330482Y-75359802D01*
X142330000Y-75350000D01*
X142330000Y-75150000D01*
X142330482Y-75140198D01*
X142331921Y-75130491D01*
X142334306Y-75120972D01*
X142337612Y-75111732D01*
X142341808Y-75102860D01*
X142346853Y-75094443D01*
X142352699Y-75086561D01*
X142359289Y-75079289D01*
X142366561Y-75072699D01*
X142374443Y-75066853D01*
X142382860Y-75061808D01*
X142391732Y-75057612D01*
X142400972Y-75054306D01*
X142410491Y-75051921D01*
X142420198Y-75050482D01*
X142430000Y-75050000D01*
X142690000Y-75050000D01*
X142699802Y-75050482D01*
G37*
G04 #@! TD.AperFunction*
G04 #@! TA.AperFunction,SMDPad,CuDef*
G36*
X142659802Y-77670482D02*
G01*
X142669509Y-77671921D01*
X142679028Y-77674306D01*
X142688268Y-77677612D01*
X142697140Y-77681808D01*
X142705557Y-77686853D01*
X142713439Y-77692699D01*
X142720711Y-77699289D01*
X142727301Y-77706561D01*
X142733147Y-77714443D01*
X142738192Y-77722860D01*
X142742388Y-77731732D01*
X142745694Y-77740972D01*
X142748079Y-77750491D01*
X142749518Y-77760198D01*
X142750000Y-77770000D01*
X142750000Y-78030000D01*
X142749518Y-78039802D01*
X142748079Y-78049509D01*
X142745694Y-78059028D01*
X142742388Y-78068268D01*
X142738192Y-78077140D01*
X142733147Y-78085557D01*
X142727301Y-78093439D01*
X142720711Y-78100711D01*
X142713439Y-78107301D01*
X142705557Y-78113147D01*
X142697140Y-78118192D01*
X142688268Y-78122388D01*
X142679028Y-78125694D01*
X142669509Y-78128079D01*
X142659802Y-78129518D01*
X142650000Y-78130000D01*
X142450000Y-78130000D01*
X142440198Y-78129518D01*
X142430491Y-78128079D01*
X142420972Y-78125694D01*
X142411732Y-78122388D01*
X142402860Y-78118192D01*
X142394443Y-78113147D01*
X142386561Y-78107301D01*
X142379289Y-78100711D01*
X142372699Y-78093439D01*
X142366853Y-78085557D01*
X142361808Y-78077140D01*
X142357612Y-78068268D01*
X142354306Y-78059028D01*
X142351921Y-78049509D01*
X142350482Y-78039802D01*
X142350000Y-78030000D01*
X142350000Y-77770000D01*
X142350482Y-77760198D01*
X142351921Y-77750491D01*
X142354306Y-77740972D01*
X142357612Y-77731732D01*
X142361808Y-77722860D01*
X142366853Y-77714443D01*
X142372699Y-77706561D01*
X142379289Y-77699289D01*
X142386561Y-77692699D01*
X142394443Y-77686853D01*
X142402860Y-77681808D01*
X142411732Y-77677612D01*
X142420972Y-77674306D01*
X142430491Y-77671921D01*
X142440198Y-77670482D01*
X142450000Y-77670000D01*
X142650000Y-77670000D01*
X142659802Y-77670482D01*
G37*
G04 #@! TD.AperFunction*
G04 #@! TA.AperFunction,SMDPad,CuDef*
G36*
X142659802Y-78310482D02*
G01*
X142669509Y-78311921D01*
X142679028Y-78314306D01*
X142688268Y-78317612D01*
X142697140Y-78321808D01*
X142705557Y-78326853D01*
X142713439Y-78332699D01*
X142720711Y-78339289D01*
X142727301Y-78346561D01*
X142733147Y-78354443D01*
X142738192Y-78362860D01*
X142742388Y-78371732D01*
X142745694Y-78380972D01*
X142748079Y-78390491D01*
X142749518Y-78400198D01*
X142750000Y-78410000D01*
X142750000Y-78670000D01*
X142749518Y-78679802D01*
X142748079Y-78689509D01*
X142745694Y-78699028D01*
X142742388Y-78708268D01*
X142738192Y-78717140D01*
X142733147Y-78725557D01*
X142727301Y-78733439D01*
X142720711Y-78740711D01*
X142713439Y-78747301D01*
X142705557Y-78753147D01*
X142697140Y-78758192D01*
X142688268Y-78762388D01*
X142679028Y-78765694D01*
X142669509Y-78768079D01*
X142659802Y-78769518D01*
X142650000Y-78770000D01*
X142450000Y-78770000D01*
X142440198Y-78769518D01*
X142430491Y-78768079D01*
X142420972Y-78765694D01*
X142411732Y-78762388D01*
X142402860Y-78758192D01*
X142394443Y-78753147D01*
X142386561Y-78747301D01*
X142379289Y-78740711D01*
X142372699Y-78733439D01*
X142366853Y-78725557D01*
X142361808Y-78717140D01*
X142357612Y-78708268D01*
X142354306Y-78699028D01*
X142351921Y-78689509D01*
X142350482Y-78679802D01*
X142350000Y-78670000D01*
X142350000Y-78410000D01*
X142350482Y-78400198D01*
X142351921Y-78390491D01*
X142354306Y-78380972D01*
X142357612Y-78371732D01*
X142361808Y-78362860D01*
X142366853Y-78354443D01*
X142372699Y-78346561D01*
X142379289Y-78339289D01*
X142386561Y-78332699D01*
X142394443Y-78326853D01*
X142402860Y-78321808D01*
X142411732Y-78317612D01*
X142420972Y-78314306D01*
X142430491Y-78311921D01*
X142440198Y-78310482D01*
X142450000Y-78310000D01*
X142650000Y-78310000D01*
X142659802Y-78310482D01*
G37*
G04 #@! TD.AperFunction*
G04 #@! TA.AperFunction,SMDPad,CuDef*
G36*
X144889802Y-81000482D02*
G01*
X144899509Y-81001921D01*
X144909028Y-81004306D01*
X144918268Y-81007612D01*
X144927140Y-81011808D01*
X144935557Y-81016853D01*
X144943439Y-81022699D01*
X144950711Y-81029289D01*
X144957301Y-81036561D01*
X144963147Y-81044443D01*
X144968192Y-81052860D01*
X144972388Y-81061732D01*
X144975694Y-81070972D01*
X144978079Y-81080491D01*
X144979518Y-81090198D01*
X144980000Y-81100000D01*
X144980000Y-81300000D01*
X144979518Y-81309802D01*
X144978079Y-81319509D01*
X144975694Y-81329028D01*
X144972388Y-81338268D01*
X144968192Y-81347140D01*
X144963147Y-81355557D01*
X144957301Y-81363439D01*
X144950711Y-81370711D01*
X144943439Y-81377301D01*
X144935557Y-81383147D01*
X144927140Y-81388192D01*
X144918268Y-81392388D01*
X144909028Y-81395694D01*
X144899509Y-81398079D01*
X144889802Y-81399518D01*
X144880000Y-81400000D01*
X144620000Y-81400000D01*
X144610198Y-81399518D01*
X144600491Y-81398079D01*
X144590972Y-81395694D01*
X144581732Y-81392388D01*
X144572860Y-81388192D01*
X144564443Y-81383147D01*
X144556561Y-81377301D01*
X144549289Y-81370711D01*
X144542699Y-81363439D01*
X144536853Y-81355557D01*
X144531808Y-81347140D01*
X144527612Y-81338268D01*
X144524306Y-81329028D01*
X144521921Y-81319509D01*
X144520482Y-81309802D01*
X144520000Y-81300000D01*
X144520000Y-81100000D01*
X144520482Y-81090198D01*
X144521921Y-81080491D01*
X144524306Y-81070972D01*
X144527612Y-81061732D01*
X144531808Y-81052860D01*
X144536853Y-81044443D01*
X144542699Y-81036561D01*
X144549289Y-81029289D01*
X144556561Y-81022699D01*
X144564443Y-81016853D01*
X144572860Y-81011808D01*
X144581732Y-81007612D01*
X144590972Y-81004306D01*
X144600491Y-81001921D01*
X144610198Y-81000482D01*
X144620000Y-81000000D01*
X144880000Y-81000000D01*
X144889802Y-81000482D01*
G37*
G04 #@! TD.AperFunction*
G04 #@! TA.AperFunction,SMDPad,CuDef*
G36*
X144249802Y-81000482D02*
G01*
X144259509Y-81001921D01*
X144269028Y-81004306D01*
X144278268Y-81007612D01*
X144287140Y-81011808D01*
X144295557Y-81016853D01*
X144303439Y-81022699D01*
X144310711Y-81029289D01*
X144317301Y-81036561D01*
X144323147Y-81044443D01*
X144328192Y-81052860D01*
X144332388Y-81061732D01*
X144335694Y-81070972D01*
X144338079Y-81080491D01*
X144339518Y-81090198D01*
X144340000Y-81100000D01*
X144340000Y-81300000D01*
X144339518Y-81309802D01*
X144338079Y-81319509D01*
X144335694Y-81329028D01*
X144332388Y-81338268D01*
X144328192Y-81347140D01*
X144323147Y-81355557D01*
X144317301Y-81363439D01*
X144310711Y-81370711D01*
X144303439Y-81377301D01*
X144295557Y-81383147D01*
X144287140Y-81388192D01*
X144278268Y-81392388D01*
X144269028Y-81395694D01*
X144259509Y-81398079D01*
X144249802Y-81399518D01*
X144240000Y-81400000D01*
X143980000Y-81400000D01*
X143970198Y-81399518D01*
X143960491Y-81398079D01*
X143950972Y-81395694D01*
X143941732Y-81392388D01*
X143932860Y-81388192D01*
X143924443Y-81383147D01*
X143916561Y-81377301D01*
X143909289Y-81370711D01*
X143902699Y-81363439D01*
X143896853Y-81355557D01*
X143891808Y-81347140D01*
X143887612Y-81338268D01*
X143884306Y-81329028D01*
X143881921Y-81319509D01*
X143880482Y-81309802D01*
X143880000Y-81300000D01*
X143880000Y-81100000D01*
X143880482Y-81090198D01*
X143881921Y-81080491D01*
X143884306Y-81070972D01*
X143887612Y-81061732D01*
X143891808Y-81052860D01*
X143896853Y-81044443D01*
X143902699Y-81036561D01*
X143909289Y-81029289D01*
X143916561Y-81022699D01*
X143924443Y-81016853D01*
X143932860Y-81011808D01*
X143941732Y-81007612D01*
X143950972Y-81004306D01*
X143960491Y-81001921D01*
X143970198Y-81000482D01*
X143980000Y-81000000D01*
X144240000Y-81000000D01*
X144249802Y-81000482D01*
G37*
G04 #@! TD.AperFunction*
G04 #@! TA.AperFunction,SMDPad,CuDef*
G36*
X128446958Y-72230710D02*
G01*
X128461276Y-72232834D01*
X128475317Y-72236351D01*
X128488946Y-72241228D01*
X128502031Y-72247417D01*
X128514447Y-72254858D01*
X128526073Y-72263481D01*
X128536798Y-72273202D01*
X128546519Y-72283927D01*
X128555142Y-72295553D01*
X128562583Y-72307969D01*
X128568772Y-72321054D01*
X128573649Y-72334683D01*
X128577166Y-72348724D01*
X128579290Y-72363042D01*
X128580000Y-72377500D01*
X128580000Y-72722500D01*
X128579290Y-72736958D01*
X128577166Y-72751276D01*
X128573649Y-72765317D01*
X128568772Y-72778946D01*
X128562583Y-72792031D01*
X128555142Y-72804447D01*
X128546519Y-72816073D01*
X128536798Y-72826798D01*
X128526073Y-72836519D01*
X128514447Y-72845142D01*
X128502031Y-72852583D01*
X128488946Y-72858772D01*
X128475317Y-72863649D01*
X128461276Y-72867166D01*
X128446958Y-72869290D01*
X128432500Y-72870000D01*
X128137500Y-72870000D01*
X128123042Y-72869290D01*
X128108724Y-72867166D01*
X128094683Y-72863649D01*
X128081054Y-72858772D01*
X128067969Y-72852583D01*
X128055553Y-72845142D01*
X128043927Y-72836519D01*
X128033202Y-72826798D01*
X128023481Y-72816073D01*
X128014858Y-72804447D01*
X128007417Y-72792031D01*
X128001228Y-72778946D01*
X127996351Y-72765317D01*
X127992834Y-72751276D01*
X127990710Y-72736958D01*
X127990000Y-72722500D01*
X127990000Y-72377500D01*
X127990710Y-72363042D01*
X127992834Y-72348724D01*
X127996351Y-72334683D01*
X128001228Y-72321054D01*
X128007417Y-72307969D01*
X128014858Y-72295553D01*
X128023481Y-72283927D01*
X128033202Y-72273202D01*
X128043927Y-72263481D01*
X128055553Y-72254858D01*
X128067969Y-72247417D01*
X128081054Y-72241228D01*
X128094683Y-72236351D01*
X128108724Y-72232834D01*
X128123042Y-72230710D01*
X128137500Y-72230000D01*
X128432500Y-72230000D01*
X128446958Y-72230710D01*
G37*
G04 #@! TD.AperFunction*
G04 #@! TA.AperFunction,SMDPad,CuDef*
G36*
X127476958Y-72230710D02*
G01*
X127491276Y-72232834D01*
X127505317Y-72236351D01*
X127518946Y-72241228D01*
X127532031Y-72247417D01*
X127544447Y-72254858D01*
X127556073Y-72263481D01*
X127566798Y-72273202D01*
X127576519Y-72283927D01*
X127585142Y-72295553D01*
X127592583Y-72307969D01*
X127598772Y-72321054D01*
X127603649Y-72334683D01*
X127607166Y-72348724D01*
X127609290Y-72363042D01*
X127610000Y-72377500D01*
X127610000Y-72722500D01*
X127609290Y-72736958D01*
X127607166Y-72751276D01*
X127603649Y-72765317D01*
X127598772Y-72778946D01*
X127592583Y-72792031D01*
X127585142Y-72804447D01*
X127576519Y-72816073D01*
X127566798Y-72826798D01*
X127556073Y-72836519D01*
X127544447Y-72845142D01*
X127532031Y-72852583D01*
X127518946Y-72858772D01*
X127505317Y-72863649D01*
X127491276Y-72867166D01*
X127476958Y-72869290D01*
X127462500Y-72870000D01*
X127167500Y-72870000D01*
X127153042Y-72869290D01*
X127138724Y-72867166D01*
X127124683Y-72863649D01*
X127111054Y-72858772D01*
X127097969Y-72852583D01*
X127085553Y-72845142D01*
X127073927Y-72836519D01*
X127063202Y-72826798D01*
X127053481Y-72816073D01*
X127044858Y-72804447D01*
X127037417Y-72792031D01*
X127031228Y-72778946D01*
X127026351Y-72765317D01*
X127022834Y-72751276D01*
X127020710Y-72736958D01*
X127020000Y-72722500D01*
X127020000Y-72377500D01*
X127020710Y-72363042D01*
X127022834Y-72348724D01*
X127026351Y-72334683D01*
X127031228Y-72321054D01*
X127037417Y-72307969D01*
X127044858Y-72295553D01*
X127053481Y-72283927D01*
X127063202Y-72273202D01*
X127073927Y-72263481D01*
X127085553Y-72254858D01*
X127097969Y-72247417D01*
X127111054Y-72241228D01*
X127124683Y-72236351D01*
X127138724Y-72232834D01*
X127153042Y-72230710D01*
X127167500Y-72230000D01*
X127462500Y-72230000D01*
X127476958Y-72230710D01*
G37*
G04 #@! TD.AperFunction*
G04 #@! TA.AperFunction,SMDPad,CuDef*
G36*
X136899802Y-82350482D02*
G01*
X136909509Y-82351921D01*
X136919028Y-82354306D01*
X136928268Y-82357612D01*
X136937140Y-82361808D01*
X136945557Y-82366853D01*
X136953439Y-82372699D01*
X136960711Y-82379289D01*
X136967301Y-82386561D01*
X136973147Y-82394443D01*
X136978192Y-82402860D01*
X136982388Y-82411732D01*
X136985694Y-82420972D01*
X136988079Y-82430491D01*
X136989518Y-82440198D01*
X136990000Y-82450000D01*
X136990000Y-82650000D01*
X136989518Y-82659802D01*
X136988079Y-82669509D01*
X136985694Y-82679028D01*
X136982388Y-82688268D01*
X136978192Y-82697140D01*
X136973147Y-82705557D01*
X136967301Y-82713439D01*
X136960711Y-82720711D01*
X136953439Y-82727301D01*
X136945557Y-82733147D01*
X136937140Y-82738192D01*
X136928268Y-82742388D01*
X136919028Y-82745694D01*
X136909509Y-82748079D01*
X136899802Y-82749518D01*
X136890000Y-82750000D01*
X136630000Y-82750000D01*
X136620198Y-82749518D01*
X136610491Y-82748079D01*
X136600972Y-82745694D01*
X136591732Y-82742388D01*
X136582860Y-82738192D01*
X136574443Y-82733147D01*
X136566561Y-82727301D01*
X136559289Y-82720711D01*
X136552699Y-82713439D01*
X136546853Y-82705557D01*
X136541808Y-82697140D01*
X136537612Y-82688268D01*
X136534306Y-82679028D01*
X136531921Y-82669509D01*
X136530482Y-82659802D01*
X136530000Y-82650000D01*
X136530000Y-82450000D01*
X136530482Y-82440198D01*
X136531921Y-82430491D01*
X136534306Y-82420972D01*
X136537612Y-82411732D01*
X136541808Y-82402860D01*
X136546853Y-82394443D01*
X136552699Y-82386561D01*
X136559289Y-82379289D01*
X136566561Y-82372699D01*
X136574443Y-82366853D01*
X136582860Y-82361808D01*
X136591732Y-82357612D01*
X136600972Y-82354306D01*
X136610491Y-82351921D01*
X136620198Y-82350482D01*
X136630000Y-82350000D01*
X136890000Y-82350000D01*
X136899802Y-82350482D01*
G37*
G04 #@! TD.AperFunction*
G04 #@! TA.AperFunction,SMDPad,CuDef*
G36*
X137539802Y-82350482D02*
G01*
X137549509Y-82351921D01*
X137559028Y-82354306D01*
X137568268Y-82357612D01*
X137577140Y-82361808D01*
X137585557Y-82366853D01*
X137593439Y-82372699D01*
X137600711Y-82379289D01*
X137607301Y-82386561D01*
X137613147Y-82394443D01*
X137618192Y-82402860D01*
X137622388Y-82411732D01*
X137625694Y-82420972D01*
X137628079Y-82430491D01*
X137629518Y-82440198D01*
X137630000Y-82450000D01*
X137630000Y-82650000D01*
X137629518Y-82659802D01*
X137628079Y-82669509D01*
X137625694Y-82679028D01*
X137622388Y-82688268D01*
X137618192Y-82697140D01*
X137613147Y-82705557D01*
X137607301Y-82713439D01*
X137600711Y-82720711D01*
X137593439Y-82727301D01*
X137585557Y-82733147D01*
X137577140Y-82738192D01*
X137568268Y-82742388D01*
X137559028Y-82745694D01*
X137549509Y-82748079D01*
X137539802Y-82749518D01*
X137530000Y-82750000D01*
X137270000Y-82750000D01*
X137260198Y-82749518D01*
X137250491Y-82748079D01*
X137240972Y-82745694D01*
X137231732Y-82742388D01*
X137222860Y-82738192D01*
X137214443Y-82733147D01*
X137206561Y-82727301D01*
X137199289Y-82720711D01*
X137192699Y-82713439D01*
X137186853Y-82705557D01*
X137181808Y-82697140D01*
X137177612Y-82688268D01*
X137174306Y-82679028D01*
X137171921Y-82669509D01*
X137170482Y-82659802D01*
X137170000Y-82650000D01*
X137170000Y-82450000D01*
X137170482Y-82440198D01*
X137171921Y-82430491D01*
X137174306Y-82420972D01*
X137177612Y-82411732D01*
X137181808Y-82402860D01*
X137186853Y-82394443D01*
X137192699Y-82386561D01*
X137199289Y-82379289D01*
X137206561Y-82372699D01*
X137214443Y-82366853D01*
X137222860Y-82361808D01*
X137231732Y-82357612D01*
X137240972Y-82354306D01*
X137250491Y-82351921D01*
X137260198Y-82350482D01*
X137270000Y-82350000D01*
X137530000Y-82350000D01*
X137539802Y-82350482D01*
G37*
G04 #@! TD.AperFunction*
G04 #@! TA.AperFunction,SMDPad,CuDef*
G36*
X126446958Y-74630710D02*
G01*
X126461276Y-74632834D01*
X126475317Y-74636351D01*
X126488946Y-74641228D01*
X126502031Y-74647417D01*
X126514447Y-74654858D01*
X126526073Y-74663481D01*
X126536798Y-74673202D01*
X126546519Y-74683927D01*
X126555142Y-74695553D01*
X126562583Y-74707969D01*
X126568772Y-74721054D01*
X126573649Y-74734683D01*
X126577166Y-74748724D01*
X126579290Y-74763042D01*
X126580000Y-74777500D01*
X126580000Y-75122500D01*
X126579290Y-75136958D01*
X126577166Y-75151276D01*
X126573649Y-75165317D01*
X126568772Y-75178946D01*
X126562583Y-75192031D01*
X126555142Y-75204447D01*
X126546519Y-75216073D01*
X126536798Y-75226798D01*
X126526073Y-75236519D01*
X126514447Y-75245142D01*
X126502031Y-75252583D01*
X126488946Y-75258772D01*
X126475317Y-75263649D01*
X126461276Y-75267166D01*
X126446958Y-75269290D01*
X126432500Y-75270000D01*
X126137500Y-75270000D01*
X126123042Y-75269290D01*
X126108724Y-75267166D01*
X126094683Y-75263649D01*
X126081054Y-75258772D01*
X126067969Y-75252583D01*
X126055553Y-75245142D01*
X126043927Y-75236519D01*
X126033202Y-75226798D01*
X126023481Y-75216073D01*
X126014858Y-75204447D01*
X126007417Y-75192031D01*
X126001228Y-75178946D01*
X125996351Y-75165317D01*
X125992834Y-75151276D01*
X125990710Y-75136958D01*
X125990000Y-75122500D01*
X125990000Y-74777500D01*
X125990710Y-74763042D01*
X125992834Y-74748724D01*
X125996351Y-74734683D01*
X126001228Y-74721054D01*
X126007417Y-74707969D01*
X126014858Y-74695553D01*
X126023481Y-74683927D01*
X126033202Y-74673202D01*
X126043927Y-74663481D01*
X126055553Y-74654858D01*
X126067969Y-74647417D01*
X126081054Y-74641228D01*
X126094683Y-74636351D01*
X126108724Y-74632834D01*
X126123042Y-74630710D01*
X126137500Y-74630000D01*
X126432500Y-74630000D01*
X126446958Y-74630710D01*
G37*
G04 #@! TD.AperFunction*
G04 #@! TA.AperFunction,SMDPad,CuDef*
G36*
X125476958Y-74630710D02*
G01*
X125491276Y-74632834D01*
X125505317Y-74636351D01*
X125518946Y-74641228D01*
X125532031Y-74647417D01*
X125544447Y-74654858D01*
X125556073Y-74663481D01*
X125566798Y-74673202D01*
X125576519Y-74683927D01*
X125585142Y-74695553D01*
X125592583Y-74707969D01*
X125598772Y-74721054D01*
X125603649Y-74734683D01*
X125607166Y-74748724D01*
X125609290Y-74763042D01*
X125610000Y-74777500D01*
X125610000Y-75122500D01*
X125609290Y-75136958D01*
X125607166Y-75151276D01*
X125603649Y-75165317D01*
X125598772Y-75178946D01*
X125592583Y-75192031D01*
X125585142Y-75204447D01*
X125576519Y-75216073D01*
X125566798Y-75226798D01*
X125556073Y-75236519D01*
X125544447Y-75245142D01*
X125532031Y-75252583D01*
X125518946Y-75258772D01*
X125505317Y-75263649D01*
X125491276Y-75267166D01*
X125476958Y-75269290D01*
X125462500Y-75270000D01*
X125167500Y-75270000D01*
X125153042Y-75269290D01*
X125138724Y-75267166D01*
X125124683Y-75263649D01*
X125111054Y-75258772D01*
X125097969Y-75252583D01*
X125085553Y-75245142D01*
X125073927Y-75236519D01*
X125063202Y-75226798D01*
X125053481Y-75216073D01*
X125044858Y-75204447D01*
X125037417Y-75192031D01*
X125031228Y-75178946D01*
X125026351Y-75165317D01*
X125022834Y-75151276D01*
X125020710Y-75136958D01*
X125020000Y-75122500D01*
X125020000Y-74777500D01*
X125020710Y-74763042D01*
X125022834Y-74748724D01*
X125026351Y-74734683D01*
X125031228Y-74721054D01*
X125037417Y-74707969D01*
X125044858Y-74695553D01*
X125053481Y-74683927D01*
X125063202Y-74673202D01*
X125073927Y-74663481D01*
X125085553Y-74654858D01*
X125097969Y-74647417D01*
X125111054Y-74641228D01*
X125124683Y-74636351D01*
X125138724Y-74632834D01*
X125153042Y-74630710D01*
X125167500Y-74630000D01*
X125462500Y-74630000D01*
X125476958Y-74630710D01*
G37*
G04 #@! TD.AperFunction*
G04 #@! TA.AperFunction,SMDPad,CuDef*
G36*
X135239802Y-82350482D02*
G01*
X135249509Y-82351921D01*
X135259028Y-82354306D01*
X135268268Y-82357612D01*
X135277140Y-82361808D01*
X135285557Y-82366853D01*
X135293439Y-82372699D01*
X135300711Y-82379289D01*
X135307301Y-82386561D01*
X135313147Y-82394443D01*
X135318192Y-82402860D01*
X135322388Y-82411732D01*
X135325694Y-82420972D01*
X135328079Y-82430491D01*
X135329518Y-82440198D01*
X135330000Y-82450000D01*
X135330000Y-82650000D01*
X135329518Y-82659802D01*
X135328079Y-82669509D01*
X135325694Y-82679028D01*
X135322388Y-82688268D01*
X135318192Y-82697140D01*
X135313147Y-82705557D01*
X135307301Y-82713439D01*
X135300711Y-82720711D01*
X135293439Y-82727301D01*
X135285557Y-82733147D01*
X135277140Y-82738192D01*
X135268268Y-82742388D01*
X135259028Y-82745694D01*
X135249509Y-82748079D01*
X135239802Y-82749518D01*
X135230000Y-82750000D01*
X134970000Y-82750000D01*
X134960198Y-82749518D01*
X134950491Y-82748079D01*
X134940972Y-82745694D01*
X134931732Y-82742388D01*
X134922860Y-82738192D01*
X134914443Y-82733147D01*
X134906561Y-82727301D01*
X134899289Y-82720711D01*
X134892699Y-82713439D01*
X134886853Y-82705557D01*
X134881808Y-82697140D01*
X134877612Y-82688268D01*
X134874306Y-82679028D01*
X134871921Y-82669509D01*
X134870482Y-82659802D01*
X134870000Y-82650000D01*
X134870000Y-82450000D01*
X134870482Y-82440198D01*
X134871921Y-82430491D01*
X134874306Y-82420972D01*
X134877612Y-82411732D01*
X134881808Y-82402860D01*
X134886853Y-82394443D01*
X134892699Y-82386561D01*
X134899289Y-82379289D01*
X134906561Y-82372699D01*
X134914443Y-82366853D01*
X134922860Y-82361808D01*
X134931732Y-82357612D01*
X134940972Y-82354306D01*
X134950491Y-82351921D01*
X134960198Y-82350482D01*
X134970000Y-82350000D01*
X135230000Y-82350000D01*
X135239802Y-82350482D01*
G37*
G04 #@! TD.AperFunction*
G04 #@! TA.AperFunction,SMDPad,CuDef*
G36*
X135879802Y-82350482D02*
G01*
X135889509Y-82351921D01*
X135899028Y-82354306D01*
X135908268Y-82357612D01*
X135917140Y-82361808D01*
X135925557Y-82366853D01*
X135933439Y-82372699D01*
X135940711Y-82379289D01*
X135947301Y-82386561D01*
X135953147Y-82394443D01*
X135958192Y-82402860D01*
X135962388Y-82411732D01*
X135965694Y-82420972D01*
X135968079Y-82430491D01*
X135969518Y-82440198D01*
X135970000Y-82450000D01*
X135970000Y-82650000D01*
X135969518Y-82659802D01*
X135968079Y-82669509D01*
X135965694Y-82679028D01*
X135962388Y-82688268D01*
X135958192Y-82697140D01*
X135953147Y-82705557D01*
X135947301Y-82713439D01*
X135940711Y-82720711D01*
X135933439Y-82727301D01*
X135925557Y-82733147D01*
X135917140Y-82738192D01*
X135908268Y-82742388D01*
X135899028Y-82745694D01*
X135889509Y-82748079D01*
X135879802Y-82749518D01*
X135870000Y-82750000D01*
X135610000Y-82750000D01*
X135600198Y-82749518D01*
X135590491Y-82748079D01*
X135580972Y-82745694D01*
X135571732Y-82742388D01*
X135562860Y-82738192D01*
X135554443Y-82733147D01*
X135546561Y-82727301D01*
X135539289Y-82720711D01*
X135532699Y-82713439D01*
X135526853Y-82705557D01*
X135521808Y-82697140D01*
X135517612Y-82688268D01*
X135514306Y-82679028D01*
X135511921Y-82669509D01*
X135510482Y-82659802D01*
X135510000Y-82650000D01*
X135510000Y-82450000D01*
X135510482Y-82440198D01*
X135511921Y-82430491D01*
X135514306Y-82420972D01*
X135517612Y-82411732D01*
X135521808Y-82402860D01*
X135526853Y-82394443D01*
X135532699Y-82386561D01*
X135539289Y-82379289D01*
X135546561Y-82372699D01*
X135554443Y-82366853D01*
X135562860Y-82361808D01*
X135571732Y-82357612D01*
X135580972Y-82354306D01*
X135590491Y-82351921D01*
X135600198Y-82350482D01*
X135610000Y-82350000D01*
X135870000Y-82350000D01*
X135879802Y-82350482D01*
G37*
G04 #@! TD.AperFunction*
G04 #@! TA.AperFunction,SMDPad,CuDef*
G36*
X132659802Y-82350482D02*
G01*
X132669509Y-82351921D01*
X132679028Y-82354306D01*
X132688268Y-82357612D01*
X132697140Y-82361808D01*
X132705557Y-82366853D01*
X132713439Y-82372699D01*
X132720711Y-82379289D01*
X132727301Y-82386561D01*
X132733147Y-82394443D01*
X132738192Y-82402860D01*
X132742388Y-82411732D01*
X132745694Y-82420972D01*
X132748079Y-82430491D01*
X132749518Y-82440198D01*
X132750000Y-82450000D01*
X132750000Y-82650000D01*
X132749518Y-82659802D01*
X132748079Y-82669509D01*
X132745694Y-82679028D01*
X132742388Y-82688268D01*
X132738192Y-82697140D01*
X132733147Y-82705557D01*
X132727301Y-82713439D01*
X132720711Y-82720711D01*
X132713439Y-82727301D01*
X132705557Y-82733147D01*
X132697140Y-82738192D01*
X132688268Y-82742388D01*
X132679028Y-82745694D01*
X132669509Y-82748079D01*
X132659802Y-82749518D01*
X132650000Y-82750000D01*
X132390000Y-82750000D01*
X132380198Y-82749518D01*
X132370491Y-82748079D01*
X132360972Y-82745694D01*
X132351732Y-82742388D01*
X132342860Y-82738192D01*
X132334443Y-82733147D01*
X132326561Y-82727301D01*
X132319289Y-82720711D01*
X132312699Y-82713439D01*
X132306853Y-82705557D01*
X132301808Y-82697140D01*
X132297612Y-82688268D01*
X132294306Y-82679028D01*
X132291921Y-82669509D01*
X132290482Y-82659802D01*
X132290000Y-82650000D01*
X132290000Y-82450000D01*
X132290482Y-82440198D01*
X132291921Y-82430491D01*
X132294306Y-82420972D01*
X132297612Y-82411732D01*
X132301808Y-82402860D01*
X132306853Y-82394443D01*
X132312699Y-82386561D01*
X132319289Y-82379289D01*
X132326561Y-82372699D01*
X132334443Y-82366853D01*
X132342860Y-82361808D01*
X132351732Y-82357612D01*
X132360972Y-82354306D01*
X132370491Y-82351921D01*
X132380198Y-82350482D01*
X132390000Y-82350000D01*
X132650000Y-82350000D01*
X132659802Y-82350482D01*
G37*
G04 #@! TD.AperFunction*
G04 #@! TA.AperFunction,SMDPad,CuDef*
G36*
X132019802Y-82350482D02*
G01*
X132029509Y-82351921D01*
X132039028Y-82354306D01*
X132048268Y-82357612D01*
X132057140Y-82361808D01*
X132065557Y-82366853D01*
X132073439Y-82372699D01*
X132080711Y-82379289D01*
X132087301Y-82386561D01*
X132093147Y-82394443D01*
X132098192Y-82402860D01*
X132102388Y-82411732D01*
X132105694Y-82420972D01*
X132108079Y-82430491D01*
X132109518Y-82440198D01*
X132110000Y-82450000D01*
X132110000Y-82650000D01*
X132109518Y-82659802D01*
X132108079Y-82669509D01*
X132105694Y-82679028D01*
X132102388Y-82688268D01*
X132098192Y-82697140D01*
X132093147Y-82705557D01*
X132087301Y-82713439D01*
X132080711Y-82720711D01*
X132073439Y-82727301D01*
X132065557Y-82733147D01*
X132057140Y-82738192D01*
X132048268Y-82742388D01*
X132039028Y-82745694D01*
X132029509Y-82748079D01*
X132019802Y-82749518D01*
X132010000Y-82750000D01*
X131750000Y-82750000D01*
X131740198Y-82749518D01*
X131730491Y-82748079D01*
X131720972Y-82745694D01*
X131711732Y-82742388D01*
X131702860Y-82738192D01*
X131694443Y-82733147D01*
X131686561Y-82727301D01*
X131679289Y-82720711D01*
X131672699Y-82713439D01*
X131666853Y-82705557D01*
X131661808Y-82697140D01*
X131657612Y-82688268D01*
X131654306Y-82679028D01*
X131651921Y-82669509D01*
X131650482Y-82659802D01*
X131650000Y-82650000D01*
X131650000Y-82450000D01*
X131650482Y-82440198D01*
X131651921Y-82430491D01*
X131654306Y-82420972D01*
X131657612Y-82411732D01*
X131661808Y-82402860D01*
X131666853Y-82394443D01*
X131672699Y-82386561D01*
X131679289Y-82379289D01*
X131686561Y-82372699D01*
X131694443Y-82366853D01*
X131702860Y-82361808D01*
X131711732Y-82357612D01*
X131720972Y-82354306D01*
X131730491Y-82351921D01*
X131740198Y-82350482D01*
X131750000Y-82350000D01*
X132010000Y-82350000D01*
X132019802Y-82350482D01*
G37*
G04 #@! TD.AperFunction*
G04 #@! TA.AperFunction,SMDPad,CuDef*
G36*
X133619802Y-81450482D02*
G01*
X133629509Y-81451921D01*
X133639028Y-81454306D01*
X133648268Y-81457612D01*
X133657140Y-81461808D01*
X133665557Y-81466853D01*
X133673439Y-81472699D01*
X133680711Y-81479289D01*
X133687301Y-81486561D01*
X133693147Y-81494443D01*
X133698192Y-81502860D01*
X133702388Y-81511732D01*
X133705694Y-81520972D01*
X133708079Y-81530491D01*
X133709518Y-81540198D01*
X133710000Y-81550000D01*
X133710000Y-81750000D01*
X133709518Y-81759802D01*
X133708079Y-81769509D01*
X133705694Y-81779028D01*
X133702388Y-81788268D01*
X133698192Y-81797140D01*
X133693147Y-81805557D01*
X133687301Y-81813439D01*
X133680711Y-81820711D01*
X133673439Y-81827301D01*
X133665557Y-81833147D01*
X133657140Y-81838192D01*
X133648268Y-81842388D01*
X133639028Y-81845694D01*
X133629509Y-81848079D01*
X133619802Y-81849518D01*
X133610000Y-81850000D01*
X133350000Y-81850000D01*
X133340198Y-81849518D01*
X133330491Y-81848079D01*
X133320972Y-81845694D01*
X133311732Y-81842388D01*
X133302860Y-81838192D01*
X133294443Y-81833147D01*
X133286561Y-81827301D01*
X133279289Y-81820711D01*
X133272699Y-81813439D01*
X133266853Y-81805557D01*
X133261808Y-81797140D01*
X133257612Y-81788268D01*
X133254306Y-81779028D01*
X133251921Y-81769509D01*
X133250482Y-81759802D01*
X133250000Y-81750000D01*
X133250000Y-81550000D01*
X133250482Y-81540198D01*
X133251921Y-81530491D01*
X133254306Y-81520972D01*
X133257612Y-81511732D01*
X133261808Y-81502860D01*
X133266853Y-81494443D01*
X133272699Y-81486561D01*
X133279289Y-81479289D01*
X133286561Y-81472699D01*
X133294443Y-81466853D01*
X133302860Y-81461808D01*
X133311732Y-81457612D01*
X133320972Y-81454306D01*
X133330491Y-81451921D01*
X133340198Y-81450482D01*
X133350000Y-81450000D01*
X133610000Y-81450000D01*
X133619802Y-81450482D01*
G37*
G04 #@! TD.AperFunction*
G04 #@! TA.AperFunction,SMDPad,CuDef*
G36*
X134259802Y-81450482D02*
G01*
X134269509Y-81451921D01*
X134279028Y-81454306D01*
X134288268Y-81457612D01*
X134297140Y-81461808D01*
X134305557Y-81466853D01*
X134313439Y-81472699D01*
X134320711Y-81479289D01*
X134327301Y-81486561D01*
X134333147Y-81494443D01*
X134338192Y-81502860D01*
X134342388Y-81511732D01*
X134345694Y-81520972D01*
X134348079Y-81530491D01*
X134349518Y-81540198D01*
X134350000Y-81550000D01*
X134350000Y-81750000D01*
X134349518Y-81759802D01*
X134348079Y-81769509D01*
X134345694Y-81779028D01*
X134342388Y-81788268D01*
X134338192Y-81797140D01*
X134333147Y-81805557D01*
X134327301Y-81813439D01*
X134320711Y-81820711D01*
X134313439Y-81827301D01*
X134305557Y-81833147D01*
X134297140Y-81838192D01*
X134288268Y-81842388D01*
X134279028Y-81845694D01*
X134269509Y-81848079D01*
X134259802Y-81849518D01*
X134250000Y-81850000D01*
X133990000Y-81850000D01*
X133980198Y-81849518D01*
X133970491Y-81848079D01*
X133960972Y-81845694D01*
X133951732Y-81842388D01*
X133942860Y-81838192D01*
X133934443Y-81833147D01*
X133926561Y-81827301D01*
X133919289Y-81820711D01*
X133912699Y-81813439D01*
X133906853Y-81805557D01*
X133901808Y-81797140D01*
X133897612Y-81788268D01*
X133894306Y-81779028D01*
X133891921Y-81769509D01*
X133890482Y-81759802D01*
X133890000Y-81750000D01*
X133890000Y-81550000D01*
X133890482Y-81540198D01*
X133891921Y-81530491D01*
X133894306Y-81520972D01*
X133897612Y-81511732D01*
X133901808Y-81502860D01*
X133906853Y-81494443D01*
X133912699Y-81486561D01*
X133919289Y-81479289D01*
X133926561Y-81472699D01*
X133934443Y-81466853D01*
X133942860Y-81461808D01*
X133951732Y-81457612D01*
X133960972Y-81454306D01*
X133970491Y-81451921D01*
X133980198Y-81450482D01*
X133990000Y-81450000D01*
X134250000Y-81450000D01*
X134259802Y-81450482D01*
G37*
G04 #@! TD.AperFunction*
G04 #@! TA.AperFunction,SMDPad,CuDef*
G36*
X133539802Y-76850482D02*
G01*
X133549509Y-76851921D01*
X133559028Y-76854306D01*
X133568268Y-76857612D01*
X133577140Y-76861808D01*
X133585557Y-76866853D01*
X133593439Y-76872699D01*
X133600711Y-76879289D01*
X133607301Y-76886561D01*
X133613147Y-76894443D01*
X133618192Y-76902860D01*
X133622388Y-76911732D01*
X133625694Y-76920972D01*
X133628079Y-76930491D01*
X133629518Y-76940198D01*
X133630000Y-76950000D01*
X133630000Y-77150000D01*
X133629518Y-77159802D01*
X133628079Y-77169509D01*
X133625694Y-77179028D01*
X133622388Y-77188268D01*
X133618192Y-77197140D01*
X133613147Y-77205557D01*
X133607301Y-77213439D01*
X133600711Y-77220711D01*
X133593439Y-77227301D01*
X133585557Y-77233147D01*
X133577140Y-77238192D01*
X133568268Y-77242388D01*
X133559028Y-77245694D01*
X133549509Y-77248079D01*
X133539802Y-77249518D01*
X133530000Y-77250000D01*
X133270000Y-77250000D01*
X133260198Y-77249518D01*
X133250491Y-77248079D01*
X133240972Y-77245694D01*
X133231732Y-77242388D01*
X133222860Y-77238192D01*
X133214443Y-77233147D01*
X133206561Y-77227301D01*
X133199289Y-77220711D01*
X133192699Y-77213439D01*
X133186853Y-77205557D01*
X133181808Y-77197140D01*
X133177612Y-77188268D01*
X133174306Y-77179028D01*
X133171921Y-77169509D01*
X133170482Y-77159802D01*
X133170000Y-77150000D01*
X133170000Y-76950000D01*
X133170482Y-76940198D01*
X133171921Y-76930491D01*
X133174306Y-76920972D01*
X133177612Y-76911732D01*
X133181808Y-76902860D01*
X133186853Y-76894443D01*
X133192699Y-76886561D01*
X133199289Y-76879289D01*
X133206561Y-76872699D01*
X133214443Y-76866853D01*
X133222860Y-76861808D01*
X133231732Y-76857612D01*
X133240972Y-76854306D01*
X133250491Y-76851921D01*
X133260198Y-76850482D01*
X133270000Y-76850000D01*
X133530000Y-76850000D01*
X133539802Y-76850482D01*
G37*
G04 #@! TD.AperFunction*
G04 #@! TA.AperFunction,SMDPad,CuDef*
G36*
X134179802Y-76850482D02*
G01*
X134189509Y-76851921D01*
X134199028Y-76854306D01*
X134208268Y-76857612D01*
X134217140Y-76861808D01*
X134225557Y-76866853D01*
X134233439Y-76872699D01*
X134240711Y-76879289D01*
X134247301Y-76886561D01*
X134253147Y-76894443D01*
X134258192Y-76902860D01*
X134262388Y-76911732D01*
X134265694Y-76920972D01*
X134268079Y-76930491D01*
X134269518Y-76940198D01*
X134270000Y-76950000D01*
X134270000Y-77150000D01*
X134269518Y-77159802D01*
X134268079Y-77169509D01*
X134265694Y-77179028D01*
X134262388Y-77188268D01*
X134258192Y-77197140D01*
X134253147Y-77205557D01*
X134247301Y-77213439D01*
X134240711Y-77220711D01*
X134233439Y-77227301D01*
X134225557Y-77233147D01*
X134217140Y-77238192D01*
X134208268Y-77242388D01*
X134199028Y-77245694D01*
X134189509Y-77248079D01*
X134179802Y-77249518D01*
X134170000Y-77250000D01*
X133910000Y-77250000D01*
X133900198Y-77249518D01*
X133890491Y-77248079D01*
X133880972Y-77245694D01*
X133871732Y-77242388D01*
X133862860Y-77238192D01*
X133854443Y-77233147D01*
X133846561Y-77227301D01*
X133839289Y-77220711D01*
X133832699Y-77213439D01*
X133826853Y-77205557D01*
X133821808Y-77197140D01*
X133817612Y-77188268D01*
X133814306Y-77179028D01*
X133811921Y-77169509D01*
X133810482Y-77159802D01*
X133810000Y-77150000D01*
X133810000Y-76950000D01*
X133810482Y-76940198D01*
X133811921Y-76930491D01*
X133814306Y-76920972D01*
X133817612Y-76911732D01*
X133821808Y-76902860D01*
X133826853Y-76894443D01*
X133832699Y-76886561D01*
X133839289Y-76879289D01*
X133846561Y-76872699D01*
X133854443Y-76866853D01*
X133862860Y-76861808D01*
X133871732Y-76857612D01*
X133880972Y-76854306D01*
X133890491Y-76851921D01*
X133900198Y-76850482D01*
X133910000Y-76850000D01*
X134170000Y-76850000D01*
X134179802Y-76850482D01*
G37*
G04 #@! TD.AperFunction*
G04 #@! TA.AperFunction,SMDPad,CuDef*
G36*
X145279802Y-75050482D02*
G01*
X145289509Y-75051921D01*
X145299028Y-75054306D01*
X145308268Y-75057612D01*
X145317140Y-75061808D01*
X145325557Y-75066853D01*
X145333439Y-75072699D01*
X145340711Y-75079289D01*
X145347301Y-75086561D01*
X145353147Y-75094443D01*
X145358192Y-75102860D01*
X145362388Y-75111732D01*
X145365694Y-75120972D01*
X145368079Y-75130491D01*
X145369518Y-75140198D01*
X145370000Y-75150000D01*
X145370000Y-75350000D01*
X145369518Y-75359802D01*
X145368079Y-75369509D01*
X145365694Y-75379028D01*
X145362388Y-75388268D01*
X145358192Y-75397140D01*
X145353147Y-75405557D01*
X145347301Y-75413439D01*
X145340711Y-75420711D01*
X145333439Y-75427301D01*
X145325557Y-75433147D01*
X145317140Y-75438192D01*
X145308268Y-75442388D01*
X145299028Y-75445694D01*
X145289509Y-75448079D01*
X145279802Y-75449518D01*
X145270000Y-75450000D01*
X145010000Y-75450000D01*
X145000198Y-75449518D01*
X144990491Y-75448079D01*
X144980972Y-75445694D01*
X144971732Y-75442388D01*
X144962860Y-75438192D01*
X144954443Y-75433147D01*
X144946561Y-75427301D01*
X144939289Y-75420711D01*
X144932699Y-75413439D01*
X144926853Y-75405557D01*
X144921808Y-75397140D01*
X144917612Y-75388268D01*
X144914306Y-75379028D01*
X144911921Y-75369509D01*
X144910482Y-75359802D01*
X144910000Y-75350000D01*
X144910000Y-75150000D01*
X144910482Y-75140198D01*
X144911921Y-75130491D01*
X144914306Y-75120972D01*
X144917612Y-75111732D01*
X144921808Y-75102860D01*
X144926853Y-75094443D01*
X144932699Y-75086561D01*
X144939289Y-75079289D01*
X144946561Y-75072699D01*
X144954443Y-75066853D01*
X144962860Y-75061808D01*
X144971732Y-75057612D01*
X144980972Y-75054306D01*
X144990491Y-75051921D01*
X145000198Y-75050482D01*
X145010000Y-75050000D01*
X145270000Y-75050000D01*
X145279802Y-75050482D01*
G37*
G04 #@! TD.AperFunction*
G04 #@! TA.AperFunction,SMDPad,CuDef*
G36*
X144639802Y-75050482D02*
G01*
X144649509Y-75051921D01*
X144659028Y-75054306D01*
X144668268Y-75057612D01*
X144677140Y-75061808D01*
X144685557Y-75066853D01*
X144693439Y-75072699D01*
X144700711Y-75079289D01*
X144707301Y-75086561D01*
X144713147Y-75094443D01*
X144718192Y-75102860D01*
X144722388Y-75111732D01*
X144725694Y-75120972D01*
X144728079Y-75130491D01*
X144729518Y-75140198D01*
X144730000Y-75150000D01*
X144730000Y-75350000D01*
X144729518Y-75359802D01*
X144728079Y-75369509D01*
X144725694Y-75379028D01*
X144722388Y-75388268D01*
X144718192Y-75397140D01*
X144713147Y-75405557D01*
X144707301Y-75413439D01*
X144700711Y-75420711D01*
X144693439Y-75427301D01*
X144685557Y-75433147D01*
X144677140Y-75438192D01*
X144668268Y-75442388D01*
X144659028Y-75445694D01*
X144649509Y-75448079D01*
X144639802Y-75449518D01*
X144630000Y-75450000D01*
X144370000Y-75450000D01*
X144360198Y-75449518D01*
X144350491Y-75448079D01*
X144340972Y-75445694D01*
X144331732Y-75442388D01*
X144322860Y-75438192D01*
X144314443Y-75433147D01*
X144306561Y-75427301D01*
X144299289Y-75420711D01*
X144292699Y-75413439D01*
X144286853Y-75405557D01*
X144281808Y-75397140D01*
X144277612Y-75388268D01*
X144274306Y-75379028D01*
X144271921Y-75369509D01*
X144270482Y-75359802D01*
X144270000Y-75350000D01*
X144270000Y-75150000D01*
X144270482Y-75140198D01*
X144271921Y-75130491D01*
X144274306Y-75120972D01*
X144277612Y-75111732D01*
X144281808Y-75102860D01*
X144286853Y-75094443D01*
X144292699Y-75086561D01*
X144299289Y-75079289D01*
X144306561Y-75072699D01*
X144314443Y-75066853D01*
X144322860Y-75061808D01*
X144331732Y-75057612D01*
X144340972Y-75054306D01*
X144350491Y-75051921D01*
X144360198Y-75050482D01*
X144370000Y-75050000D01*
X144630000Y-75050000D01*
X144639802Y-75050482D01*
G37*
G04 #@! TD.AperFunction*
G04 #@! TA.AperFunction,SMDPad,CuDef*
G36*
X142649802Y-81000482D02*
G01*
X142659509Y-81001921D01*
X142669028Y-81004306D01*
X142678268Y-81007612D01*
X142687140Y-81011808D01*
X142695557Y-81016853D01*
X142703439Y-81022699D01*
X142710711Y-81029289D01*
X142717301Y-81036561D01*
X142723147Y-81044443D01*
X142728192Y-81052860D01*
X142732388Y-81061732D01*
X142735694Y-81070972D01*
X142738079Y-81080491D01*
X142739518Y-81090198D01*
X142740000Y-81100000D01*
X142740000Y-81300000D01*
X142739518Y-81309802D01*
X142738079Y-81319509D01*
X142735694Y-81329028D01*
X142732388Y-81338268D01*
X142728192Y-81347140D01*
X142723147Y-81355557D01*
X142717301Y-81363439D01*
X142710711Y-81370711D01*
X142703439Y-81377301D01*
X142695557Y-81383147D01*
X142687140Y-81388192D01*
X142678268Y-81392388D01*
X142669028Y-81395694D01*
X142659509Y-81398079D01*
X142649802Y-81399518D01*
X142640000Y-81400000D01*
X142380000Y-81400000D01*
X142370198Y-81399518D01*
X142360491Y-81398079D01*
X142350972Y-81395694D01*
X142341732Y-81392388D01*
X142332860Y-81388192D01*
X142324443Y-81383147D01*
X142316561Y-81377301D01*
X142309289Y-81370711D01*
X142302699Y-81363439D01*
X142296853Y-81355557D01*
X142291808Y-81347140D01*
X142287612Y-81338268D01*
X142284306Y-81329028D01*
X142281921Y-81319509D01*
X142280482Y-81309802D01*
X142280000Y-81300000D01*
X142280000Y-81100000D01*
X142280482Y-81090198D01*
X142281921Y-81080491D01*
X142284306Y-81070972D01*
X142287612Y-81061732D01*
X142291808Y-81052860D01*
X142296853Y-81044443D01*
X142302699Y-81036561D01*
X142309289Y-81029289D01*
X142316561Y-81022699D01*
X142324443Y-81016853D01*
X142332860Y-81011808D01*
X142341732Y-81007612D01*
X142350972Y-81004306D01*
X142360491Y-81001921D01*
X142370198Y-81000482D01*
X142380000Y-81000000D01*
X142640000Y-81000000D01*
X142649802Y-81000482D01*
G37*
G04 #@! TD.AperFunction*
G04 #@! TA.AperFunction,SMDPad,CuDef*
G36*
X143289802Y-81000482D02*
G01*
X143299509Y-81001921D01*
X143309028Y-81004306D01*
X143318268Y-81007612D01*
X143327140Y-81011808D01*
X143335557Y-81016853D01*
X143343439Y-81022699D01*
X143350711Y-81029289D01*
X143357301Y-81036561D01*
X143363147Y-81044443D01*
X143368192Y-81052860D01*
X143372388Y-81061732D01*
X143375694Y-81070972D01*
X143378079Y-81080491D01*
X143379518Y-81090198D01*
X143380000Y-81100000D01*
X143380000Y-81300000D01*
X143379518Y-81309802D01*
X143378079Y-81319509D01*
X143375694Y-81329028D01*
X143372388Y-81338268D01*
X143368192Y-81347140D01*
X143363147Y-81355557D01*
X143357301Y-81363439D01*
X143350711Y-81370711D01*
X143343439Y-81377301D01*
X143335557Y-81383147D01*
X143327140Y-81388192D01*
X143318268Y-81392388D01*
X143309028Y-81395694D01*
X143299509Y-81398079D01*
X143289802Y-81399518D01*
X143280000Y-81400000D01*
X143020000Y-81400000D01*
X143010198Y-81399518D01*
X143000491Y-81398079D01*
X142990972Y-81395694D01*
X142981732Y-81392388D01*
X142972860Y-81388192D01*
X142964443Y-81383147D01*
X142956561Y-81377301D01*
X142949289Y-81370711D01*
X142942699Y-81363439D01*
X142936853Y-81355557D01*
X142931808Y-81347140D01*
X142927612Y-81338268D01*
X142924306Y-81329028D01*
X142921921Y-81319509D01*
X142920482Y-81309802D01*
X142920000Y-81300000D01*
X142920000Y-81100000D01*
X142920482Y-81090198D01*
X142921921Y-81080491D01*
X142924306Y-81070972D01*
X142927612Y-81061732D01*
X142931808Y-81052860D01*
X142936853Y-81044443D01*
X142942699Y-81036561D01*
X142949289Y-81029289D01*
X142956561Y-81022699D01*
X142964443Y-81016853D01*
X142972860Y-81011808D01*
X142981732Y-81007612D01*
X142990972Y-81004306D01*
X143000491Y-81001921D01*
X143010198Y-81000482D01*
X143020000Y-81000000D01*
X143280000Y-81000000D01*
X143289802Y-81000482D01*
G37*
G04 #@! TD.AperFunction*
G04 #@! TA.AperFunction,SMDPad,CuDef*
G36*
X132365191Y-75276053D02*
G01*
X132386426Y-75279203D01*
X132407250Y-75284419D01*
X132427462Y-75291651D01*
X132446868Y-75300830D01*
X132465281Y-75311866D01*
X132482524Y-75324654D01*
X132498430Y-75339070D01*
X132512846Y-75354976D01*
X132525634Y-75372219D01*
X132536670Y-75390632D01*
X132545849Y-75410038D01*
X132553081Y-75430250D01*
X132558297Y-75451074D01*
X132561447Y-75472309D01*
X132562500Y-75493750D01*
X132562500Y-76006250D01*
X132561447Y-76027691D01*
X132558297Y-76048926D01*
X132553081Y-76069750D01*
X132545849Y-76089962D01*
X132536670Y-76109368D01*
X132525634Y-76127781D01*
X132512846Y-76145024D01*
X132498430Y-76160930D01*
X132482524Y-76175346D01*
X132465281Y-76188134D01*
X132446868Y-76199170D01*
X132427462Y-76208349D01*
X132407250Y-76215581D01*
X132386426Y-76220797D01*
X132365191Y-76223947D01*
X132343750Y-76225000D01*
X131906250Y-76225000D01*
X131884809Y-76223947D01*
X131863574Y-76220797D01*
X131842750Y-76215581D01*
X131822538Y-76208349D01*
X131803132Y-76199170D01*
X131784719Y-76188134D01*
X131767476Y-76175346D01*
X131751570Y-76160930D01*
X131737154Y-76145024D01*
X131724366Y-76127781D01*
X131713330Y-76109368D01*
X131704151Y-76089962D01*
X131696919Y-76069750D01*
X131691703Y-76048926D01*
X131688553Y-76027691D01*
X131687500Y-76006250D01*
X131687500Y-75493750D01*
X131688553Y-75472309D01*
X131691703Y-75451074D01*
X131696919Y-75430250D01*
X131704151Y-75410038D01*
X131713330Y-75390632D01*
X131724366Y-75372219D01*
X131737154Y-75354976D01*
X131751570Y-75339070D01*
X131767476Y-75324654D01*
X131784719Y-75311866D01*
X131803132Y-75300830D01*
X131822538Y-75291651D01*
X131842750Y-75284419D01*
X131863574Y-75279203D01*
X131884809Y-75276053D01*
X131906250Y-75275000D01*
X132343750Y-75275000D01*
X132365191Y-75276053D01*
G37*
G04 #@! TD.AperFunction*
G04 #@! TA.AperFunction,SMDPad,CuDef*
G36*
X133940191Y-75276053D02*
G01*
X133961426Y-75279203D01*
X133982250Y-75284419D01*
X134002462Y-75291651D01*
X134021868Y-75300830D01*
X134040281Y-75311866D01*
X134057524Y-75324654D01*
X134073430Y-75339070D01*
X134087846Y-75354976D01*
X134100634Y-75372219D01*
X134111670Y-75390632D01*
X134120849Y-75410038D01*
X134128081Y-75430250D01*
X134133297Y-75451074D01*
X134136447Y-75472309D01*
X134137500Y-75493750D01*
X134137500Y-76006250D01*
X134136447Y-76027691D01*
X134133297Y-76048926D01*
X134128081Y-76069750D01*
X134120849Y-76089962D01*
X134111670Y-76109368D01*
X134100634Y-76127781D01*
X134087846Y-76145024D01*
X134073430Y-76160930D01*
X134057524Y-76175346D01*
X134040281Y-76188134D01*
X134021868Y-76199170D01*
X134002462Y-76208349D01*
X133982250Y-76215581D01*
X133961426Y-76220797D01*
X133940191Y-76223947D01*
X133918750Y-76225000D01*
X133481250Y-76225000D01*
X133459809Y-76223947D01*
X133438574Y-76220797D01*
X133417750Y-76215581D01*
X133397538Y-76208349D01*
X133378132Y-76199170D01*
X133359719Y-76188134D01*
X133342476Y-76175346D01*
X133326570Y-76160930D01*
X133312154Y-76145024D01*
X133299366Y-76127781D01*
X133288330Y-76109368D01*
X133279151Y-76089962D01*
X133271919Y-76069750D01*
X133266703Y-76048926D01*
X133263553Y-76027691D01*
X133262500Y-76006250D01*
X133262500Y-75493750D01*
X133263553Y-75472309D01*
X133266703Y-75451074D01*
X133271919Y-75430250D01*
X133279151Y-75410038D01*
X133288330Y-75390632D01*
X133299366Y-75372219D01*
X133312154Y-75354976D01*
X133326570Y-75339070D01*
X133342476Y-75324654D01*
X133359719Y-75311866D01*
X133378132Y-75300830D01*
X133397538Y-75291651D01*
X133417750Y-75284419D01*
X133438574Y-75279203D01*
X133459809Y-75276053D01*
X133481250Y-75275000D01*
X133918750Y-75275000D01*
X133940191Y-75276053D01*
G37*
G04 #@! TD.AperFunction*
G04 #@! TA.AperFunction,SMDPad,CuDef*
G36*
X133940191Y-73576053D02*
G01*
X133961426Y-73579203D01*
X133982250Y-73584419D01*
X134002462Y-73591651D01*
X134021868Y-73600830D01*
X134040281Y-73611866D01*
X134057524Y-73624654D01*
X134073430Y-73639070D01*
X134087846Y-73654976D01*
X134100634Y-73672219D01*
X134111670Y-73690632D01*
X134120849Y-73710038D01*
X134128081Y-73730250D01*
X134133297Y-73751074D01*
X134136447Y-73772309D01*
X134137500Y-73793750D01*
X134137500Y-74306250D01*
X134136447Y-74327691D01*
X134133297Y-74348926D01*
X134128081Y-74369750D01*
X134120849Y-74389962D01*
X134111670Y-74409368D01*
X134100634Y-74427781D01*
X134087846Y-74445024D01*
X134073430Y-74460930D01*
X134057524Y-74475346D01*
X134040281Y-74488134D01*
X134021868Y-74499170D01*
X134002462Y-74508349D01*
X133982250Y-74515581D01*
X133961426Y-74520797D01*
X133940191Y-74523947D01*
X133918750Y-74525000D01*
X133481250Y-74525000D01*
X133459809Y-74523947D01*
X133438574Y-74520797D01*
X133417750Y-74515581D01*
X133397538Y-74508349D01*
X133378132Y-74499170D01*
X133359719Y-74488134D01*
X133342476Y-74475346D01*
X133326570Y-74460930D01*
X133312154Y-74445024D01*
X133299366Y-74427781D01*
X133288330Y-74409368D01*
X133279151Y-74389962D01*
X133271919Y-74369750D01*
X133266703Y-74348926D01*
X133263553Y-74327691D01*
X133262500Y-74306250D01*
X133262500Y-73793750D01*
X133263553Y-73772309D01*
X133266703Y-73751074D01*
X133271919Y-73730250D01*
X133279151Y-73710038D01*
X133288330Y-73690632D01*
X133299366Y-73672219D01*
X133312154Y-73654976D01*
X133326570Y-73639070D01*
X133342476Y-73624654D01*
X133359719Y-73611866D01*
X133378132Y-73600830D01*
X133397538Y-73591651D01*
X133417750Y-73584419D01*
X133438574Y-73579203D01*
X133459809Y-73576053D01*
X133481250Y-73575000D01*
X133918750Y-73575000D01*
X133940191Y-73576053D01*
G37*
G04 #@! TD.AperFunction*
G04 #@! TA.AperFunction,SMDPad,CuDef*
G36*
X132365191Y-73576053D02*
G01*
X132386426Y-73579203D01*
X132407250Y-73584419D01*
X132427462Y-73591651D01*
X132446868Y-73600830D01*
X132465281Y-73611866D01*
X132482524Y-73624654D01*
X132498430Y-73639070D01*
X132512846Y-73654976D01*
X132525634Y-73672219D01*
X132536670Y-73690632D01*
X132545849Y-73710038D01*
X132553081Y-73730250D01*
X132558297Y-73751074D01*
X132561447Y-73772309D01*
X132562500Y-73793750D01*
X132562500Y-74306250D01*
X132561447Y-74327691D01*
X132558297Y-74348926D01*
X132553081Y-74369750D01*
X132545849Y-74389962D01*
X132536670Y-74409368D01*
X132525634Y-74427781D01*
X132512846Y-74445024D01*
X132498430Y-74460930D01*
X132482524Y-74475346D01*
X132465281Y-74488134D01*
X132446868Y-74499170D01*
X132427462Y-74508349D01*
X132407250Y-74515581D01*
X132386426Y-74520797D01*
X132365191Y-74523947D01*
X132343750Y-74525000D01*
X131906250Y-74525000D01*
X131884809Y-74523947D01*
X131863574Y-74520797D01*
X131842750Y-74515581D01*
X131822538Y-74508349D01*
X131803132Y-74499170D01*
X131784719Y-74488134D01*
X131767476Y-74475346D01*
X131751570Y-74460930D01*
X131737154Y-74445024D01*
X131724366Y-74427781D01*
X131713330Y-74409368D01*
X131704151Y-74389962D01*
X131696919Y-74369750D01*
X131691703Y-74348926D01*
X131688553Y-74327691D01*
X131687500Y-74306250D01*
X131687500Y-73793750D01*
X131688553Y-73772309D01*
X131691703Y-73751074D01*
X131696919Y-73730250D01*
X131704151Y-73710038D01*
X131713330Y-73690632D01*
X131724366Y-73672219D01*
X131737154Y-73654976D01*
X131751570Y-73639070D01*
X131767476Y-73624654D01*
X131784719Y-73611866D01*
X131803132Y-73600830D01*
X131822538Y-73591651D01*
X131842750Y-73584419D01*
X131863574Y-73579203D01*
X131884809Y-73576053D01*
X131906250Y-73575000D01*
X132343750Y-73575000D01*
X132365191Y-73576053D01*
G37*
G04 #@! TD.AperFunction*
G04 #@! TA.AperFunction,SMDPad,CuDef*
G36*
X129476958Y-73730710D02*
G01*
X129491276Y-73732834D01*
X129505317Y-73736351D01*
X129518946Y-73741228D01*
X129532031Y-73747417D01*
X129544447Y-73754858D01*
X129556073Y-73763481D01*
X129566798Y-73773202D01*
X129576519Y-73783927D01*
X129585142Y-73795553D01*
X129592583Y-73807969D01*
X129598772Y-73821054D01*
X129603649Y-73834683D01*
X129607166Y-73848724D01*
X129609290Y-73863042D01*
X129610000Y-73877500D01*
X129610000Y-74222500D01*
X129609290Y-74236958D01*
X129607166Y-74251276D01*
X129603649Y-74265317D01*
X129598772Y-74278946D01*
X129592583Y-74292031D01*
X129585142Y-74304447D01*
X129576519Y-74316073D01*
X129566798Y-74326798D01*
X129556073Y-74336519D01*
X129544447Y-74345142D01*
X129532031Y-74352583D01*
X129518946Y-74358772D01*
X129505317Y-74363649D01*
X129491276Y-74367166D01*
X129476958Y-74369290D01*
X129462500Y-74370000D01*
X129167500Y-74370000D01*
X129153042Y-74369290D01*
X129138724Y-74367166D01*
X129124683Y-74363649D01*
X129111054Y-74358772D01*
X129097969Y-74352583D01*
X129085553Y-74345142D01*
X129073927Y-74336519D01*
X129063202Y-74326798D01*
X129053481Y-74316073D01*
X129044858Y-74304447D01*
X129037417Y-74292031D01*
X129031228Y-74278946D01*
X129026351Y-74265317D01*
X129022834Y-74251276D01*
X129020710Y-74236958D01*
X129020000Y-74222500D01*
X129020000Y-73877500D01*
X129020710Y-73863042D01*
X129022834Y-73848724D01*
X129026351Y-73834683D01*
X129031228Y-73821054D01*
X129037417Y-73807969D01*
X129044858Y-73795553D01*
X129053481Y-73783927D01*
X129063202Y-73773202D01*
X129073927Y-73763481D01*
X129085553Y-73754858D01*
X129097969Y-73747417D01*
X129111054Y-73741228D01*
X129124683Y-73736351D01*
X129138724Y-73732834D01*
X129153042Y-73730710D01*
X129167500Y-73730000D01*
X129462500Y-73730000D01*
X129476958Y-73730710D01*
G37*
G04 #@! TD.AperFunction*
G04 #@! TA.AperFunction,SMDPad,CuDef*
G36*
X130446958Y-73730710D02*
G01*
X130461276Y-73732834D01*
X130475317Y-73736351D01*
X130488946Y-73741228D01*
X130502031Y-73747417D01*
X130514447Y-73754858D01*
X130526073Y-73763481D01*
X130536798Y-73773202D01*
X130546519Y-73783927D01*
X130555142Y-73795553D01*
X130562583Y-73807969D01*
X130568772Y-73821054D01*
X130573649Y-73834683D01*
X130577166Y-73848724D01*
X130579290Y-73863042D01*
X130580000Y-73877500D01*
X130580000Y-74222500D01*
X130579290Y-74236958D01*
X130577166Y-74251276D01*
X130573649Y-74265317D01*
X130568772Y-74278946D01*
X130562583Y-74292031D01*
X130555142Y-74304447D01*
X130546519Y-74316073D01*
X130536798Y-74326798D01*
X130526073Y-74336519D01*
X130514447Y-74345142D01*
X130502031Y-74352583D01*
X130488946Y-74358772D01*
X130475317Y-74363649D01*
X130461276Y-74367166D01*
X130446958Y-74369290D01*
X130432500Y-74370000D01*
X130137500Y-74370000D01*
X130123042Y-74369290D01*
X130108724Y-74367166D01*
X130094683Y-74363649D01*
X130081054Y-74358772D01*
X130067969Y-74352583D01*
X130055553Y-74345142D01*
X130043927Y-74336519D01*
X130033202Y-74326798D01*
X130023481Y-74316073D01*
X130014858Y-74304447D01*
X130007417Y-74292031D01*
X130001228Y-74278946D01*
X129996351Y-74265317D01*
X129992834Y-74251276D01*
X129990710Y-74236958D01*
X129990000Y-74222500D01*
X129990000Y-73877500D01*
X129990710Y-73863042D01*
X129992834Y-73848724D01*
X129996351Y-73834683D01*
X130001228Y-73821054D01*
X130007417Y-73807969D01*
X130014858Y-73795553D01*
X130023481Y-73783927D01*
X130033202Y-73773202D01*
X130043927Y-73763481D01*
X130055553Y-73754858D01*
X130067969Y-73747417D01*
X130081054Y-73741228D01*
X130094683Y-73736351D01*
X130108724Y-73732834D01*
X130123042Y-73730710D01*
X130137500Y-73730000D01*
X130432500Y-73730000D01*
X130446958Y-73730710D01*
G37*
G04 #@! TD.AperFunction*
G04 #@! TA.AperFunction,SMDPad,CuDef*
G36*
X132531958Y-72230710D02*
G01*
X132546276Y-72232834D01*
X132560317Y-72236351D01*
X132573946Y-72241228D01*
X132587031Y-72247417D01*
X132599447Y-72254858D01*
X132611073Y-72263481D01*
X132621798Y-72273202D01*
X132631519Y-72283927D01*
X132640142Y-72295553D01*
X132647583Y-72307969D01*
X132653772Y-72321054D01*
X132658649Y-72334683D01*
X132662166Y-72348724D01*
X132664290Y-72363042D01*
X132665000Y-72377500D01*
X132665000Y-72722500D01*
X132664290Y-72736958D01*
X132662166Y-72751276D01*
X132658649Y-72765317D01*
X132653772Y-72778946D01*
X132647583Y-72792031D01*
X132640142Y-72804447D01*
X132631519Y-72816073D01*
X132621798Y-72826798D01*
X132611073Y-72836519D01*
X132599447Y-72845142D01*
X132587031Y-72852583D01*
X132573946Y-72858772D01*
X132560317Y-72863649D01*
X132546276Y-72867166D01*
X132531958Y-72869290D01*
X132517500Y-72870000D01*
X132222500Y-72870000D01*
X132208042Y-72869290D01*
X132193724Y-72867166D01*
X132179683Y-72863649D01*
X132166054Y-72858772D01*
X132152969Y-72852583D01*
X132140553Y-72845142D01*
X132128927Y-72836519D01*
X132118202Y-72826798D01*
X132108481Y-72816073D01*
X132099858Y-72804447D01*
X132092417Y-72792031D01*
X132086228Y-72778946D01*
X132081351Y-72765317D01*
X132077834Y-72751276D01*
X132075710Y-72736958D01*
X132075000Y-72722500D01*
X132075000Y-72377500D01*
X132075710Y-72363042D01*
X132077834Y-72348724D01*
X132081351Y-72334683D01*
X132086228Y-72321054D01*
X132092417Y-72307969D01*
X132099858Y-72295553D01*
X132108481Y-72283927D01*
X132118202Y-72273202D01*
X132128927Y-72263481D01*
X132140553Y-72254858D01*
X132152969Y-72247417D01*
X132166054Y-72241228D01*
X132179683Y-72236351D01*
X132193724Y-72232834D01*
X132208042Y-72230710D01*
X132222500Y-72230000D01*
X132517500Y-72230000D01*
X132531958Y-72230710D01*
G37*
G04 #@! TD.AperFunction*
G04 #@! TA.AperFunction,SMDPad,CuDef*
G36*
X131561958Y-72230710D02*
G01*
X131576276Y-72232834D01*
X131590317Y-72236351D01*
X131603946Y-72241228D01*
X131617031Y-72247417D01*
X131629447Y-72254858D01*
X131641073Y-72263481D01*
X131651798Y-72273202D01*
X131661519Y-72283927D01*
X131670142Y-72295553D01*
X131677583Y-72307969D01*
X131683772Y-72321054D01*
X131688649Y-72334683D01*
X131692166Y-72348724D01*
X131694290Y-72363042D01*
X131695000Y-72377500D01*
X131695000Y-72722500D01*
X131694290Y-72736958D01*
X131692166Y-72751276D01*
X131688649Y-72765317D01*
X131683772Y-72778946D01*
X131677583Y-72792031D01*
X131670142Y-72804447D01*
X131661519Y-72816073D01*
X131651798Y-72826798D01*
X131641073Y-72836519D01*
X131629447Y-72845142D01*
X131617031Y-72852583D01*
X131603946Y-72858772D01*
X131590317Y-72863649D01*
X131576276Y-72867166D01*
X131561958Y-72869290D01*
X131547500Y-72870000D01*
X131252500Y-72870000D01*
X131238042Y-72869290D01*
X131223724Y-72867166D01*
X131209683Y-72863649D01*
X131196054Y-72858772D01*
X131182969Y-72852583D01*
X131170553Y-72845142D01*
X131158927Y-72836519D01*
X131148202Y-72826798D01*
X131138481Y-72816073D01*
X131129858Y-72804447D01*
X131122417Y-72792031D01*
X131116228Y-72778946D01*
X131111351Y-72765317D01*
X131107834Y-72751276D01*
X131105710Y-72736958D01*
X131105000Y-72722500D01*
X131105000Y-72377500D01*
X131105710Y-72363042D01*
X131107834Y-72348724D01*
X131111351Y-72334683D01*
X131116228Y-72321054D01*
X131122417Y-72307969D01*
X131129858Y-72295553D01*
X131138481Y-72283927D01*
X131148202Y-72273202D01*
X131158927Y-72263481D01*
X131170553Y-72254858D01*
X131182969Y-72247417D01*
X131196054Y-72241228D01*
X131209683Y-72236351D01*
X131223724Y-72232834D01*
X131238042Y-72230710D01*
X131252500Y-72230000D01*
X131547500Y-72230000D01*
X131561958Y-72230710D01*
G37*
G04 #@! TD.AperFunction*
G04 #@! TA.AperFunction,SMDPad,CuDef*
G36*
X142581958Y-71980710D02*
G01*
X142596276Y-71982834D01*
X142610317Y-71986351D01*
X142623946Y-71991228D01*
X142637031Y-71997417D01*
X142649447Y-72004858D01*
X142661073Y-72013481D01*
X142671798Y-72023202D01*
X142681519Y-72033927D01*
X142690142Y-72045553D01*
X142697583Y-72057969D01*
X142703772Y-72071054D01*
X142708649Y-72084683D01*
X142712166Y-72098724D01*
X142714290Y-72113042D01*
X142715000Y-72127500D01*
X142715000Y-72472500D01*
X142714290Y-72486958D01*
X142712166Y-72501276D01*
X142708649Y-72515317D01*
X142703772Y-72528946D01*
X142697583Y-72542031D01*
X142690142Y-72554447D01*
X142681519Y-72566073D01*
X142671798Y-72576798D01*
X142661073Y-72586519D01*
X142649447Y-72595142D01*
X142637031Y-72602583D01*
X142623946Y-72608772D01*
X142610317Y-72613649D01*
X142596276Y-72617166D01*
X142581958Y-72619290D01*
X142567500Y-72620000D01*
X142272500Y-72620000D01*
X142258042Y-72619290D01*
X142243724Y-72617166D01*
X142229683Y-72613649D01*
X142216054Y-72608772D01*
X142202969Y-72602583D01*
X142190553Y-72595142D01*
X142178927Y-72586519D01*
X142168202Y-72576798D01*
X142158481Y-72566073D01*
X142149858Y-72554447D01*
X142142417Y-72542031D01*
X142136228Y-72528946D01*
X142131351Y-72515317D01*
X142127834Y-72501276D01*
X142125710Y-72486958D01*
X142125000Y-72472500D01*
X142125000Y-72127500D01*
X142125710Y-72113042D01*
X142127834Y-72098724D01*
X142131351Y-72084683D01*
X142136228Y-72071054D01*
X142142417Y-72057969D01*
X142149858Y-72045553D01*
X142158481Y-72033927D01*
X142168202Y-72023202D01*
X142178927Y-72013481D01*
X142190553Y-72004858D01*
X142202969Y-71997417D01*
X142216054Y-71991228D01*
X142229683Y-71986351D01*
X142243724Y-71982834D01*
X142258042Y-71980710D01*
X142272500Y-71980000D01*
X142567500Y-71980000D01*
X142581958Y-71980710D01*
G37*
G04 #@! TD.AperFunction*
G04 #@! TA.AperFunction,SMDPad,CuDef*
G36*
X141611958Y-71980710D02*
G01*
X141626276Y-71982834D01*
X141640317Y-71986351D01*
X141653946Y-71991228D01*
X141667031Y-71997417D01*
X141679447Y-72004858D01*
X141691073Y-72013481D01*
X141701798Y-72023202D01*
X141711519Y-72033927D01*
X141720142Y-72045553D01*
X141727583Y-72057969D01*
X141733772Y-72071054D01*
X141738649Y-72084683D01*
X141742166Y-72098724D01*
X141744290Y-72113042D01*
X141745000Y-72127500D01*
X141745000Y-72472500D01*
X141744290Y-72486958D01*
X141742166Y-72501276D01*
X141738649Y-72515317D01*
X141733772Y-72528946D01*
X141727583Y-72542031D01*
X141720142Y-72554447D01*
X141711519Y-72566073D01*
X141701798Y-72576798D01*
X141691073Y-72586519D01*
X141679447Y-72595142D01*
X141667031Y-72602583D01*
X141653946Y-72608772D01*
X141640317Y-72613649D01*
X141626276Y-72617166D01*
X141611958Y-72619290D01*
X141597500Y-72620000D01*
X141302500Y-72620000D01*
X141288042Y-72619290D01*
X141273724Y-72617166D01*
X141259683Y-72613649D01*
X141246054Y-72608772D01*
X141232969Y-72602583D01*
X141220553Y-72595142D01*
X141208927Y-72586519D01*
X141198202Y-72576798D01*
X141188481Y-72566073D01*
X141179858Y-72554447D01*
X141172417Y-72542031D01*
X141166228Y-72528946D01*
X141161351Y-72515317D01*
X141157834Y-72501276D01*
X141155710Y-72486958D01*
X141155000Y-72472500D01*
X141155000Y-72127500D01*
X141155710Y-72113042D01*
X141157834Y-72098724D01*
X141161351Y-72084683D01*
X141166228Y-72071054D01*
X141172417Y-72057969D01*
X141179858Y-72045553D01*
X141188481Y-72033927D01*
X141198202Y-72023202D01*
X141208927Y-72013481D01*
X141220553Y-72004858D01*
X141232969Y-71997417D01*
X141246054Y-71991228D01*
X141259683Y-71986351D01*
X141273724Y-71982834D01*
X141288042Y-71980710D01*
X141302500Y-71980000D01*
X141597500Y-71980000D01*
X141611958Y-71980710D01*
G37*
G04 #@! TD.AperFunction*
G04 #@! TA.AperFunction,SMDPad,CuDef*
G36*
X138399802Y-71950482D02*
G01*
X138409509Y-71951921D01*
X138419028Y-71954306D01*
X138428268Y-71957612D01*
X138437140Y-71961808D01*
X138445557Y-71966853D01*
X138453439Y-71972699D01*
X138460711Y-71979289D01*
X138467301Y-71986561D01*
X138473147Y-71994443D01*
X138478192Y-72002860D01*
X138482388Y-72011732D01*
X138485694Y-72020972D01*
X138488079Y-72030491D01*
X138489518Y-72040198D01*
X138490000Y-72050000D01*
X138490000Y-72250000D01*
X138489518Y-72259802D01*
X138488079Y-72269509D01*
X138485694Y-72279028D01*
X138482388Y-72288268D01*
X138478192Y-72297140D01*
X138473147Y-72305557D01*
X138467301Y-72313439D01*
X138460711Y-72320711D01*
X138453439Y-72327301D01*
X138445557Y-72333147D01*
X138437140Y-72338192D01*
X138428268Y-72342388D01*
X138419028Y-72345694D01*
X138409509Y-72348079D01*
X138399802Y-72349518D01*
X138390000Y-72350000D01*
X138130000Y-72350000D01*
X138120198Y-72349518D01*
X138110491Y-72348079D01*
X138100972Y-72345694D01*
X138091732Y-72342388D01*
X138082860Y-72338192D01*
X138074443Y-72333147D01*
X138066561Y-72327301D01*
X138059289Y-72320711D01*
X138052699Y-72313439D01*
X138046853Y-72305557D01*
X138041808Y-72297140D01*
X138037612Y-72288268D01*
X138034306Y-72279028D01*
X138031921Y-72269509D01*
X138030482Y-72259802D01*
X138030000Y-72250000D01*
X138030000Y-72050000D01*
X138030482Y-72040198D01*
X138031921Y-72030491D01*
X138034306Y-72020972D01*
X138037612Y-72011732D01*
X138041808Y-72002860D01*
X138046853Y-71994443D01*
X138052699Y-71986561D01*
X138059289Y-71979289D01*
X138066561Y-71972699D01*
X138074443Y-71966853D01*
X138082860Y-71961808D01*
X138091732Y-71957612D01*
X138100972Y-71954306D01*
X138110491Y-71951921D01*
X138120198Y-71950482D01*
X138130000Y-71950000D01*
X138390000Y-71950000D01*
X138399802Y-71950482D01*
G37*
G04 #@! TD.AperFunction*
G04 #@! TA.AperFunction,SMDPad,CuDef*
G36*
X139039802Y-71950482D02*
G01*
X139049509Y-71951921D01*
X139059028Y-71954306D01*
X139068268Y-71957612D01*
X139077140Y-71961808D01*
X139085557Y-71966853D01*
X139093439Y-71972699D01*
X139100711Y-71979289D01*
X139107301Y-71986561D01*
X139113147Y-71994443D01*
X139118192Y-72002860D01*
X139122388Y-72011732D01*
X139125694Y-72020972D01*
X139128079Y-72030491D01*
X139129518Y-72040198D01*
X139130000Y-72050000D01*
X139130000Y-72250000D01*
X139129518Y-72259802D01*
X139128079Y-72269509D01*
X139125694Y-72279028D01*
X139122388Y-72288268D01*
X139118192Y-72297140D01*
X139113147Y-72305557D01*
X139107301Y-72313439D01*
X139100711Y-72320711D01*
X139093439Y-72327301D01*
X139085557Y-72333147D01*
X139077140Y-72338192D01*
X139068268Y-72342388D01*
X139059028Y-72345694D01*
X139049509Y-72348079D01*
X139039802Y-72349518D01*
X139030000Y-72350000D01*
X138770000Y-72350000D01*
X138760198Y-72349518D01*
X138750491Y-72348079D01*
X138740972Y-72345694D01*
X138731732Y-72342388D01*
X138722860Y-72338192D01*
X138714443Y-72333147D01*
X138706561Y-72327301D01*
X138699289Y-72320711D01*
X138692699Y-72313439D01*
X138686853Y-72305557D01*
X138681808Y-72297140D01*
X138677612Y-72288268D01*
X138674306Y-72279028D01*
X138671921Y-72269509D01*
X138670482Y-72259802D01*
X138670000Y-72250000D01*
X138670000Y-72050000D01*
X138670482Y-72040198D01*
X138671921Y-72030491D01*
X138674306Y-72020972D01*
X138677612Y-72011732D01*
X138681808Y-72002860D01*
X138686853Y-71994443D01*
X138692699Y-71986561D01*
X138699289Y-71979289D01*
X138706561Y-71972699D01*
X138714443Y-71966853D01*
X138722860Y-71961808D01*
X138731732Y-71957612D01*
X138740972Y-71954306D01*
X138750491Y-71951921D01*
X138760198Y-71950482D01*
X138770000Y-71950000D01*
X139030000Y-71950000D01*
X139039802Y-71950482D01*
G37*
G04 #@! TD.AperFunction*
D22*
X139700000Y-81050000D03*
X128550000Y-74050000D03*
X132980000Y-77050000D03*
X129780000Y-72020000D03*
X132120000Y-75100000D03*
X133030000Y-74050000D03*
X142030000Y-81200000D03*
X138590000Y-82110000D03*
X144750000Y-81650000D03*
X133100000Y-78250000D03*
X123600000Y-72200006D03*
X124902500Y-76252500D03*
X124800000Y-74450000D03*
X126900000Y-79650000D03*
D23*
X127796669Y-78768509D03*
D22*
X136100000Y-75650000D03*
X139200000Y-75850000D03*
X136050000Y-78050000D03*
X139850000Y-80000000D03*
X145200000Y-75750000D03*
X142000000Y-72760000D03*
X128600000Y-81950000D03*
X133500000Y-82180000D03*
X136200000Y-82200000D03*
X143710000Y-75810000D03*
X140645529Y-74504471D03*
X126561892Y-77650000D03*
D23*
X130320000Y-75530000D03*
D22*
X137800000Y-72650000D03*
X141881309Y-75381309D03*
X141175000Y-74575000D03*
X134120000Y-82000000D03*
X134650000Y-79140000D03*
X132600000Y-79000000D03*
D23*
X131880002Y-81840000D03*
D22*
X142040000Y-77250000D03*
D23*
X123600000Y-81450000D03*
X124600028Y-71900000D03*
D22*
X131400000Y-75950000D03*
D23*
X128226983Y-76211120D03*
D22*
X141850000Y-79650000D03*
X123850000Y-74600000D03*
X123600000Y-73749998D03*
X140500000Y-81379996D03*
X138800000Y-81450000D03*
X141850000Y-78850000D03*
X129700000Y-76700000D03*
X141850000Y-78450000D03*
X128200000Y-76700000D03*
X129700000Y-77100000D03*
X138135212Y-81450002D03*
X129700000Y-77500000D03*
X137650000Y-81360000D03*
X129700000Y-77900000D03*
X137829509Y-81779509D03*
X128200000Y-77900000D03*
X136699992Y-81820000D03*
X128200000Y-77500000D03*
X136584290Y-81450000D03*
X128200000Y-77100000D03*
X137110013Y-81751146D03*
X134542064Y-81891110D03*
X124600000Y-78050000D03*
X135500000Y-81650000D03*
X124700000Y-75850000D03*
X139900000Y-74150000D03*
X144420006Y-82240000D03*
X143200000Y-82250000D03*
X139300000Y-74250000D03*
X139200000Y-81450000D03*
D24*
X140100000Y-74850000D02*
X140300000Y-75050000D01*
X140100000Y-74650000D02*
X140100000Y-74850000D01*
X137500000Y-75050000D02*
X137500000Y-75450000D01*
X137500000Y-75450000D02*
X135900000Y-75450000D01*
X135500000Y-76250000D02*
X135900000Y-76250000D01*
X135900000Y-76250000D02*
X135900000Y-75450000D01*
X135300000Y-76050000D02*
X135500000Y-76250000D01*
X135100000Y-76050000D02*
X135300000Y-76050000D01*
X128835000Y-72000000D02*
X128285000Y-72550000D01*
X129750000Y-72000000D02*
X128835000Y-72000000D01*
X130300000Y-72550000D02*
X129750000Y-72000000D01*
X131870000Y-73050000D02*
X130800000Y-73050000D01*
X130800000Y-73050000D02*
X130300000Y-72550000D01*
X132370000Y-72550000D02*
X131870000Y-73050000D01*
X124100000Y-77539500D02*
X123902000Y-77737500D01*
X123902000Y-77737500D02*
X123587500Y-77737500D01*
X124100000Y-77225000D02*
X124100000Y-77539500D01*
X133500000Y-81570000D02*
X133480000Y-81550000D01*
X133500000Y-82550000D02*
X133500000Y-81570000D01*
X138430000Y-82280000D02*
X138430000Y-82350000D01*
X138725000Y-81985000D02*
X138430000Y-82280000D01*
X139715000Y-81985000D02*
X138725000Y-81985000D01*
X140080000Y-82350000D02*
X139715000Y-81985000D01*
X135450000Y-82200000D02*
X135100000Y-82550000D01*
X136410000Y-82200000D02*
X135450000Y-82200000D01*
X136760000Y-82550000D02*
X136410000Y-82200000D01*
X128020000Y-74050000D02*
X127920000Y-73950000D01*
X129315000Y-74050000D02*
X128020000Y-74050000D01*
X133400000Y-77050000D02*
X132980000Y-77050000D01*
X132125000Y-75105000D02*
X132120000Y-75100000D01*
X132125000Y-75750000D02*
X132125000Y-75105000D01*
X133030000Y-74050000D02*
X133700000Y-74050000D01*
X142030000Y-81200000D02*
X142510000Y-81200000D01*
X144750000Y-81200000D02*
X144750000Y-81650000D01*
X133100000Y-78250000D02*
X133787500Y-78250000D01*
X123600000Y-72450000D02*
X123600000Y-72200006D01*
X126285000Y-73850000D02*
X126285000Y-74050000D01*
X126785000Y-74350000D02*
X126285000Y-73850000D01*
X127520000Y-74350000D02*
X126785000Y-74350000D01*
X127920000Y-73950000D02*
X127520000Y-74350000D01*
X124820000Y-74450000D02*
X124220000Y-75050000D01*
X125785000Y-74450000D02*
X124820000Y-74450000D01*
X126285000Y-74950000D02*
X125785000Y-74450000D01*
X124100000Y-77055000D02*
X124100000Y-77225000D01*
X125005000Y-76150000D02*
X124100000Y-77055000D01*
X125400000Y-76150000D02*
X125005000Y-76150000D01*
X126350000Y-80200000D02*
X126900000Y-79650000D01*
X125900000Y-80200000D02*
X126350000Y-80200000D01*
X142310000Y-76450000D02*
X142550000Y-76210000D01*
X141500000Y-76450000D02*
X142310000Y-76450000D01*
X143769710Y-74910290D02*
X145000290Y-74910290D01*
X145140000Y-75050000D02*
X145140000Y-75250000D01*
X145000290Y-74910290D02*
X145140000Y-75050000D01*
X143430000Y-75250000D02*
X143769710Y-74910290D01*
X143200000Y-75250000D02*
X143430000Y-75250000D01*
X145140000Y-75690000D02*
X145200000Y-75750000D01*
X145140000Y-75250000D02*
X145140000Y-75690000D01*
X142420000Y-72330000D02*
X142420000Y-72300000D01*
X141450000Y-73300000D02*
X142420000Y-72330000D01*
X141450000Y-73400000D02*
X141450000Y-73300000D01*
X135900000Y-75450000D02*
X136100000Y-75650000D01*
X140300000Y-75650000D02*
X140100000Y-75850000D01*
X140100000Y-75850000D02*
X139200000Y-75850000D01*
X140300000Y-75050000D02*
X140300000Y-75650000D01*
X128800000Y-81950000D02*
X128797282Y-81950000D01*
X128797282Y-81950000D02*
X128600000Y-81950000D01*
X129300000Y-82450000D02*
X128800000Y-81950000D01*
X132520000Y-82550000D02*
X133500000Y-82550000D01*
X142240000Y-71800000D02*
X142420000Y-71980000D01*
X142420000Y-71980000D02*
X142420000Y-72300000D01*
X138410000Y-71800000D02*
X142240000Y-71800000D01*
X138260000Y-71950000D02*
X138410000Y-71800000D01*
X138260000Y-72150000D02*
X138260000Y-71950000D01*
X139800000Y-76450000D02*
X139200000Y-75850000D01*
X141500000Y-76450000D02*
X139800000Y-76450000D01*
X127801550Y-78773390D02*
X127796669Y-78768509D01*
X129334610Y-78773390D02*
X127801550Y-78773390D01*
X129808000Y-78300000D02*
X129334610Y-78773390D01*
X130250000Y-78300000D02*
X129808000Y-78300000D01*
D25*
X139598190Y-74332650D02*
X139700000Y-74434460D01*
X139700000Y-74434460D02*
X139700000Y-74650000D01*
X138900000Y-72450000D02*
X139400000Y-72950000D01*
X138900000Y-72150000D02*
X138900000Y-72450000D01*
X139400000Y-72950000D02*
X139400000Y-73900000D01*
X139598190Y-74098190D02*
X139598190Y-74332650D01*
X139400000Y-73900000D02*
X139598190Y-74098190D01*
D24*
X141599999Y-75950001D02*
X141500000Y-76050000D01*
X144270000Y-75250000D02*
X143710000Y-75810000D01*
X141709710Y-75840290D02*
X141599999Y-75950001D01*
X143679710Y-75840290D02*
X141709710Y-75840290D01*
X144500000Y-75250000D02*
X144270000Y-75250000D01*
D25*
X141300000Y-72150000D02*
X141450000Y-72300000D01*
X140500000Y-74650000D02*
X140900000Y-74250000D01*
X140900000Y-72150000D02*
X141300000Y-72150000D01*
X140900000Y-74250000D02*
X140900000Y-72150000D01*
X140440000Y-72150000D02*
X140900000Y-72150000D01*
D24*
X143710000Y-75810000D02*
X143679710Y-75840290D01*
X131890000Y-82550000D02*
X131880000Y-82550000D01*
X134200000Y-82550000D02*
X134140000Y-82550000D01*
X134240000Y-76850000D02*
X134040000Y-77050000D01*
X126815000Y-72050000D02*
X127315000Y-72550000D01*
X125815000Y-72050000D02*
X126815000Y-72050000D01*
X125315000Y-72550000D02*
X125815000Y-72050000D01*
X134120000Y-82530000D02*
X134140000Y-82550000D01*
X135340000Y-82950000D02*
X135740000Y-82550000D01*
X134540000Y-82950000D02*
X135340000Y-82950000D01*
X134140000Y-82550000D02*
X134540000Y-82950000D01*
X137000000Y-82950000D02*
X137400000Y-82550000D01*
X136140000Y-82950000D02*
X137000000Y-82950000D01*
X135740000Y-82550000D02*
X136140000Y-82950000D01*
X125112500Y-77737500D02*
X125112500Y-78237500D01*
X123587500Y-78737500D02*
X123587500Y-78237500D01*
X134600000Y-76850000D02*
X134240000Y-76850000D01*
X135100000Y-76850000D02*
X134600000Y-76850000D01*
X129485000Y-73250000D02*
X130285000Y-74050000D01*
X128015000Y-73250000D02*
X129485000Y-73250000D01*
X127315000Y-72550000D02*
X128015000Y-73250000D01*
X135100000Y-78050000D02*
X134884799Y-78265201D01*
X127600000Y-78300000D02*
X127800000Y-78300000D01*
X138500000Y-81050000D02*
X138500000Y-81750000D01*
X141500000Y-80450000D02*
X141500000Y-81750000D01*
X140100000Y-81050000D02*
X140100000Y-81750000D01*
X138500000Y-81750000D02*
X140100000Y-81750000D01*
X143650000Y-81750000D02*
X144150000Y-81250000D01*
X141500000Y-81750000D02*
X143650000Y-81750000D01*
X137500000Y-82550000D02*
X137400000Y-82550000D01*
X138300000Y-81750000D02*
X137500000Y-82550000D01*
X138500000Y-81750000D02*
X138300000Y-81750000D01*
X134120000Y-82020000D02*
X134120000Y-82530000D01*
X136500000Y-81050000D02*
X135550000Y-82000000D01*
X135700000Y-81050000D02*
X135150000Y-81600000D01*
X135150000Y-81600000D02*
X135150000Y-82000000D01*
X135550000Y-82000000D02*
X135150000Y-82000000D01*
X134040000Y-77050000D02*
X133540000Y-77550000D01*
X132912500Y-77550000D02*
X132212500Y-78250000D01*
X133540000Y-77550000D02*
X132912500Y-77550000D01*
X137400000Y-81550000D02*
X137400000Y-82550000D01*
X137300000Y-81450000D02*
X137400000Y-81550000D01*
X137300000Y-81050000D02*
X137300000Y-81450000D01*
X140100000Y-81750000D02*
X140101905Y-81751905D01*
X140101905Y-81751905D02*
X141498095Y-81751905D01*
X141498095Y-81751905D02*
X141500000Y-81750000D01*
X125315000Y-72550000D02*
X124500000Y-72550000D01*
X124500000Y-72550000D02*
X124400000Y-72450000D01*
X123712500Y-78237500D02*
X123587500Y-78237500D01*
X124200000Y-77750000D02*
X123712500Y-78237500D01*
X125100000Y-77750000D02*
X124200000Y-77750000D01*
X125112500Y-77737500D02*
X125100000Y-77750000D01*
X131100000Y-76310000D02*
X130320000Y-75530000D01*
X132212500Y-78250000D02*
X131100000Y-77137500D01*
X131100000Y-77137500D02*
X131100000Y-76310000D01*
X130285000Y-74050000D02*
X130285000Y-75495000D01*
X128800000Y-77850000D02*
X128350000Y-78300000D01*
X128800000Y-77050000D02*
X128800000Y-77850000D01*
X128350000Y-78300000D02*
X127600000Y-78300000D01*
X130320000Y-75530000D02*
X128800000Y-77050000D01*
X130285000Y-75495000D02*
X130320000Y-75530000D01*
X125112500Y-78237500D02*
X125974392Y-78237500D01*
X128100000Y-79875000D02*
X126237500Y-78012500D01*
X130600000Y-80750000D02*
X130600000Y-80450000D01*
X130025000Y-79875000D02*
X128100000Y-79875000D01*
X130600000Y-80450000D02*
X130025000Y-79875000D01*
X125974392Y-78237500D02*
X126561892Y-77650000D01*
X128115000Y-71750000D02*
X127315000Y-72550000D01*
X136950000Y-71750000D02*
X128115000Y-71750000D01*
X137800000Y-72600000D02*
X136950000Y-71750000D01*
X137800000Y-73550000D02*
X137800000Y-72600000D01*
X138900000Y-74650000D02*
X137800000Y-73550000D01*
X141612617Y-75650000D02*
X141501609Y-75650000D01*
X142012617Y-75250000D02*
X141612617Y-75650000D01*
X142560000Y-75250000D02*
X142012617Y-75250000D01*
X142350000Y-73400000D02*
X140700000Y-75050000D01*
X142420000Y-73400000D02*
X142420000Y-73400000D01*
X142420000Y-73400000D02*
X142350000Y-73400000D01*
X134120000Y-82220000D02*
X134120000Y-82020000D01*
X134130000Y-82230000D02*
X134120000Y-82220000D01*
X134920000Y-82230000D02*
X134130000Y-82230000D01*
X135150000Y-82000000D02*
X134920000Y-82230000D01*
D25*
X130935000Y-73400000D02*
X130619168Y-73715832D01*
X134300000Y-73400000D02*
X130935000Y-73400000D01*
X130619168Y-73715832D02*
X130285000Y-74050000D01*
X135050000Y-74150000D02*
X134300000Y-73400000D01*
X136200000Y-74150000D02*
X135050000Y-74150000D01*
X136700000Y-74650000D02*
X136200000Y-74150000D01*
X136700000Y-75050000D02*
X136700000Y-74650000D01*
D24*
X134650000Y-75700000D02*
X134650000Y-76850000D01*
X135100000Y-75250000D02*
X134650000Y-75700000D01*
X134120000Y-81650000D02*
X134120000Y-82020000D01*
X134850000Y-80300000D02*
X134850000Y-81050000D01*
X134250000Y-81650000D02*
X134120000Y-81650000D01*
X134850000Y-81050000D02*
X134250000Y-81650000D01*
X135100000Y-80050000D02*
X134850000Y-80300000D01*
D25*
X134884799Y-78905201D02*
X134650000Y-79140000D01*
X134884799Y-78265201D02*
X134884799Y-78905201D01*
D24*
X134760000Y-79250000D02*
X134650000Y-79140000D01*
X135100000Y-79250000D02*
X134760000Y-79250000D01*
X132212500Y-78725000D02*
X132487500Y-79000000D01*
X132487500Y-79000000D02*
X132600000Y-79000000D01*
X132212500Y-78250000D02*
X132212500Y-78725000D01*
X131880000Y-82550000D02*
X131880000Y-81840002D01*
X131880000Y-81840002D02*
X131880002Y-81840000D01*
X131240000Y-81650000D02*
X131690002Y-81650000D01*
X131690002Y-81650000D02*
X131880002Y-81840000D01*
X142350000Y-78540000D02*
X142040000Y-78230000D01*
X142550000Y-78540000D02*
X142350000Y-78540000D01*
X142040000Y-77447282D02*
X142040000Y-77250000D01*
X142040000Y-78230000D02*
X142040000Y-77447282D01*
X141500000Y-77250000D02*
X142040000Y-77250000D01*
D25*
X132860000Y-71950000D02*
X133360000Y-72450000D01*
X132000000Y-71950000D02*
X132860000Y-71950000D01*
X131400000Y-72550000D02*
X132000000Y-71950000D01*
X137600000Y-74150000D02*
X138100000Y-74650000D01*
X137600000Y-72850000D02*
X137600000Y-74150000D01*
X133860000Y-71950000D02*
X136700000Y-71950000D01*
X136700000Y-71950000D02*
X137600000Y-72850000D01*
X133360000Y-72450000D02*
X133860000Y-71950000D01*
X132920000Y-74820000D02*
X132150000Y-74050000D01*
X132920000Y-76470000D02*
X132920000Y-74820000D01*
X132920000Y-76570000D02*
X132440000Y-77050000D01*
X132920000Y-76470000D02*
X132920000Y-76570000D01*
X134080000Y-76470000D02*
X132920000Y-76470000D01*
X134400000Y-76150000D02*
X134080000Y-76470000D01*
X135200000Y-74650000D02*
X134400000Y-75450000D01*
X134400000Y-75450000D02*
X134400000Y-76150000D01*
X136100000Y-74650000D02*
X135200000Y-74650000D01*
X133700000Y-75950000D02*
X133700000Y-75750000D01*
X136399999Y-74950001D02*
X136300000Y-75050000D01*
X136399999Y-74598309D02*
X136399999Y-74950001D01*
X136151690Y-74350000D02*
X136399999Y-74598309D01*
X135100000Y-74350000D02*
X136151690Y-74350000D01*
X133700000Y-75750000D02*
X135100000Y-74350000D01*
X142700000Y-80750000D02*
X142200000Y-80750000D01*
X141900000Y-80450000D02*
X141500000Y-80050000D01*
X142200000Y-80750000D02*
X141900000Y-80450000D01*
X143140000Y-81190000D02*
X142700000Y-80750000D01*
X143140000Y-81250000D02*
X143140000Y-81190000D01*
X129995111Y-73215111D02*
X129330000Y-72550000D01*
X134424566Y-72559790D02*
X133769245Y-73215111D01*
X133769245Y-73215111D02*
X129995111Y-73215111D01*
X137200000Y-74650000D02*
X136000000Y-73450000D01*
X135682082Y-72559790D02*
X134424566Y-72559790D01*
X136000000Y-72877708D02*
X135682082Y-72559790D01*
X136000000Y-73450000D02*
X136000000Y-72877708D01*
X137700000Y-74650000D02*
X137200000Y-74650000D01*
X143400000Y-76850000D02*
X143500000Y-76950000D01*
D26*
X141500000Y-76850000D02*
X143400000Y-76850000D01*
D24*
X127025000Y-83150000D02*
X127725000Y-82450000D01*
X124545000Y-83150000D02*
X127025000Y-83150000D01*
X124000000Y-82605000D02*
X124545000Y-83150000D01*
X124000000Y-82400000D02*
X124000000Y-82605000D01*
X124000000Y-81850000D02*
X123600000Y-81450000D01*
X124000000Y-82400000D02*
X124000000Y-81850000D01*
X123950000Y-71900000D02*
X124600028Y-71900000D01*
X124000000Y-71950000D02*
X123950000Y-71900000D01*
X124000000Y-72450000D02*
X124000000Y-71950000D01*
X123400000Y-71900000D02*
X123950000Y-71900000D01*
X123200000Y-72100000D02*
X123400000Y-71900000D01*
X123200000Y-80650000D02*
X123200000Y-72100000D01*
X124950000Y-81454732D02*
X124950000Y-82400000D01*
X124573405Y-81078137D02*
X124950000Y-81454732D01*
X123628137Y-81078137D02*
X124573405Y-81078137D01*
X123200000Y-80650000D02*
X123628137Y-81078137D01*
X124915000Y-75550000D02*
X123200000Y-75550000D01*
X125315000Y-75150000D02*
X124915000Y-75550000D01*
D26*
X144150000Y-76850000D02*
X144140000Y-76850000D01*
D25*
X131400000Y-76650000D02*
X131400000Y-75950000D01*
X131800000Y-77050000D02*
X131400000Y-76650000D01*
X124000000Y-73350000D02*
X124400000Y-73350000D01*
X124000000Y-73930000D02*
X124000000Y-73350000D01*
X124220000Y-74150000D02*
X124000000Y-73930000D01*
X125015000Y-74150000D02*
X125315000Y-73850000D01*
X124220000Y-74150000D02*
X125015000Y-74150000D01*
X125649168Y-74184168D02*
X125315000Y-73850000D01*
X125841668Y-74184168D02*
X125649168Y-74184168D01*
X128001984Y-75851984D02*
X126513279Y-74363279D01*
X126020779Y-74363279D02*
X125841668Y-74184168D01*
X126513279Y-74363279D02*
X126020779Y-74363279D01*
X128001984Y-75986121D02*
X128001984Y-75851984D01*
X128226983Y-76211120D02*
X128001984Y-75986121D01*
X125900000Y-81850000D02*
X125900000Y-82400000D01*
X127962500Y-81550000D02*
X126200000Y-81550000D01*
X128762500Y-80750000D02*
X127962500Y-81550000D01*
X126200000Y-81550000D02*
X125900000Y-81850000D01*
X129300000Y-80750000D02*
X128762500Y-80750000D01*
X123800000Y-80300000D02*
X123850000Y-80350000D01*
X127263388Y-81211612D02*
X125463612Y-81211612D01*
X125463612Y-81211612D02*
X124452000Y-80200000D01*
X127725000Y-80750000D02*
X127263388Y-81211612D01*
X124452000Y-80200000D02*
X124000000Y-80200000D01*
X124600000Y-77081250D02*
X124600000Y-77225000D01*
X125031250Y-76650000D02*
X124600000Y-77081250D01*
X125870000Y-76650000D02*
X125031250Y-76650000D01*
X126370000Y-76150000D02*
X125870000Y-76650000D01*
X143180000Y-82850000D02*
X143780000Y-82250000D01*
X139100000Y-82380000D02*
X139570000Y-82850000D01*
X139570000Y-82850000D02*
X143180000Y-82850000D01*
X139100000Y-82250000D02*
X139100000Y-82380000D01*
X141630000Y-82350000D02*
X141730000Y-82250000D01*
X140820000Y-82350000D02*
X141630000Y-82350000D01*
X140720000Y-82250000D02*
X140820000Y-82350000D01*
X127330000Y-73900000D02*
X127280000Y-73950000D01*
X127280000Y-73545000D02*
X127280000Y-73950000D01*
X126285000Y-72550000D02*
X127280000Y-73545000D01*
X137000001Y-74732771D02*
X137000001Y-74950001D01*
X136078842Y-73811612D02*
X137000001Y-74732771D01*
X135786612Y-73811612D02*
X136078842Y-73811612D01*
X137000001Y-74950001D02*
X137100000Y-75050000D01*
X135325000Y-73350000D02*
X135786612Y-73811612D01*
X136900000Y-72700000D02*
X136900000Y-73150000D01*
X134254760Y-72195240D02*
X136395240Y-72195240D01*
X136395240Y-72195240D02*
X136900000Y-72700000D01*
X134000000Y-72450000D02*
X134254760Y-72195240D01*
X138600000Y-73950000D02*
X139300000Y-74650000D01*
X138600000Y-73150000D02*
X138600000Y-73950000D01*
X139800000Y-73000000D02*
X140150000Y-73350000D01*
X139800000Y-72150000D02*
X139800000Y-73000000D01*
X141850000Y-79650000D02*
X141500000Y-79650000D01*
X123600000Y-74600000D02*
X123580000Y-74580000D01*
X123850000Y-74600000D02*
X123600000Y-74600000D01*
X123580000Y-74580000D02*
X123580000Y-75050000D01*
X123580000Y-74150000D02*
X123580000Y-74580000D01*
X134700000Y-78050000D02*
X135100000Y-77650000D01*
X134700000Y-78720000D02*
X134700000Y-78050000D01*
X133800000Y-79620000D02*
X134700000Y-78720000D01*
X133800000Y-80050000D02*
X133800000Y-79620000D01*
X134500000Y-77850000D02*
X135100000Y-77250000D01*
X132400000Y-79650000D02*
X132800000Y-79250000D01*
X134500000Y-78610000D02*
X134500000Y-77850000D01*
X132400000Y-80050000D02*
X132400000Y-79650000D01*
X133860000Y-79250000D02*
X134500000Y-78610000D01*
X132800000Y-79250000D02*
X133860000Y-79250000D01*
D24*
X144950000Y-74100000D02*
X144950000Y-73950000D01*
X142100000Y-74650000D02*
X144400000Y-74650000D01*
X144400000Y-74650000D02*
X144950000Y-74100000D01*
X141500000Y-75250000D02*
X142100000Y-74650000D01*
X144950000Y-72700000D02*
X144950000Y-72550000D01*
X141813510Y-74336490D02*
X142362048Y-74336490D01*
X144400000Y-73250000D02*
X144950000Y-72700000D01*
X141100000Y-75050000D02*
X141813510Y-74336490D01*
X143448538Y-73250000D02*
X144400000Y-73250000D01*
X142362048Y-74336490D02*
X143448538Y-73250000D01*
D25*
X123600000Y-73350000D02*
X123600000Y-73749998D01*
X140500000Y-81050000D02*
X140500000Y-81379996D01*
X138700000Y-81350000D02*
X138800000Y-81450000D01*
X138700000Y-80650000D02*
X138700000Y-81350000D01*
X126544332Y-77237500D02*
X125112500Y-77237500D01*
X126841102Y-77534270D02*
X126544332Y-77237500D01*
X127650474Y-79138092D02*
X126841102Y-78328720D01*
X131240000Y-80750000D02*
X129628092Y-79138092D01*
X126841102Y-78328720D02*
X126841102Y-77534270D01*
X129628092Y-79138092D02*
X127650474Y-79138092D01*
X134200000Y-80950000D02*
X131440000Y-80950000D01*
X131440000Y-80950000D02*
X131240000Y-80750000D01*
X134400000Y-80750000D02*
X134200000Y-80950000D01*
X134800000Y-79650000D02*
X134400000Y-80050000D01*
X134400000Y-80050000D02*
X134400000Y-80750000D01*
X135100000Y-79650000D02*
X134800000Y-79650000D01*
X130600000Y-81280000D02*
X130606210Y-81273790D01*
X130600000Y-81650000D02*
X130600000Y-81280000D01*
X126621237Y-78737500D02*
X125112500Y-78737500D01*
X127998848Y-80115111D02*
X126621237Y-78737500D01*
X129779141Y-80115111D02*
X127998848Y-80115111D01*
X129975000Y-80310970D02*
X129779141Y-80115111D01*
X130403790Y-81273790D02*
X129975000Y-80845000D01*
X129975000Y-80845000D02*
X129975000Y-80310970D01*
X130606210Y-81273790D02*
X130403790Y-81273790D01*
X130730000Y-81150000D02*
X130606210Y-81273790D01*
X134300000Y-81150000D02*
X130730000Y-81150000D01*
X134600000Y-80850000D02*
X134300000Y-81150000D01*
X134600000Y-80256810D02*
X134600000Y-80850000D01*
X135006810Y-79850000D02*
X134600000Y-80256810D01*
X135500000Y-79850000D02*
X135006810Y-79850000D01*
X141850000Y-78850000D02*
X141500000Y-78850000D01*
X129700000Y-76700000D02*
X130250000Y-76700000D01*
X141500000Y-78450000D02*
X141850000Y-78450000D01*
X127600000Y-76700000D02*
X128200000Y-76700000D01*
X129700000Y-77100000D02*
X130250000Y-77100000D01*
X138100000Y-81414790D02*
X138135212Y-81450002D01*
X138100000Y-81050000D02*
X138100000Y-81414790D01*
X129700000Y-77500000D02*
X130250000Y-77500000D01*
X137500000Y-80650000D02*
X137500000Y-81210000D01*
X137500000Y-81210000D02*
X137650000Y-81360000D01*
X129700000Y-77900000D02*
X130250000Y-77900000D01*
X137829509Y-81582227D02*
X137829509Y-81779509D01*
X137897602Y-81514134D02*
X137829509Y-81582227D01*
X137700000Y-81050000D02*
X137897602Y-81247602D01*
X137897602Y-81247602D02*
X137897602Y-81514134D01*
X127600000Y-77900000D02*
X128200000Y-77900000D01*
X136900000Y-81619992D02*
X136699992Y-81820000D01*
X136900000Y-81050000D02*
X136900000Y-81619992D01*
X128200000Y-77500000D02*
X127600000Y-77500000D01*
X136584290Y-81315710D02*
X136584290Y-81450000D01*
X136700000Y-81200000D02*
X136584290Y-81315710D01*
X136700000Y-80650000D02*
X136700000Y-81200000D01*
X128200000Y-77100000D02*
X127600000Y-77100000D01*
X137100000Y-81741133D02*
X137110013Y-81751146D01*
X137100000Y-80650000D02*
X137100000Y-81741133D01*
X135900000Y-80650000D02*
X135800001Y-80749999D01*
X135800001Y-80749999D02*
X135683175Y-80749999D01*
X135683175Y-80749999D02*
X134542064Y-81891110D01*
X124600000Y-78750000D02*
X124600000Y-78050000D01*
X123587500Y-76935500D02*
X124673000Y-75850000D01*
X124673000Y-75850000D02*
X124700000Y-75850000D01*
X123587500Y-77237500D02*
X123587500Y-76935500D01*
X135900000Y-81250000D02*
X135500000Y-81650000D01*
X135900000Y-80950000D02*
X135900000Y-81250000D01*
X136200000Y-80650000D02*
X135900000Y-80950000D01*
X136300000Y-80650000D02*
X136200000Y-80650000D01*
X139900000Y-75050000D02*
X139900000Y-74150000D01*
X144750000Y-82250000D02*
X144430006Y-82250000D01*
X144430006Y-82250000D02*
X144420006Y-82240000D01*
X143200000Y-82250000D02*
X142700000Y-82250000D01*
X139500000Y-74450000D02*
X139300000Y-74250000D01*
X139500000Y-75050000D02*
X139500000Y-74450000D01*
X139100000Y-81350000D02*
X139200000Y-81450000D01*
X139100000Y-80650000D02*
X139100000Y-81350000D01*
M02*
