G04 #@! TF.GenerationSoftware,KiCad,Pcbnew,(5.1.5-0-10_14)*
G04 #@! TF.CreationDate,2020-03-10T08:19:59-07:00*
G04 #@! TF.ProjectId,ARBO BT,4152424f-2042-4542-9e6b-696361645f70,rev?*
G04 #@! TF.SameCoordinates,Original*
G04 #@! TF.FileFunction,Paste,Top*
G04 #@! TF.FilePolarity,Positive*
%FSLAX46Y46*%
G04 Gerber Fmt 4.6, Leading zero omitted, Abs format (unit mm)*
G04 Created by KiCad (PCBNEW (5.1.5-0-10_14)) date 2020-03-10 08:19:59*
%MOMM*%
%LPD*%
G04 APERTURE LIST*
%ADD10C,0.200000*%
%ADD11R,2.000000X3.000000*%
%ADD12C,0.100000*%
%ADD13R,0.800000X0.900000*%
%ADD14R,1.100000X0.380000*%
%ADD15R,0.630000X0.230000*%
%ADD16R,0.180000X0.200000*%
%ADD17R,0.350000X0.375000*%
%ADD18R,0.375000X0.350000*%
%ADD19R,0.600000X1.100000*%
%ADD20R,0.650000X1.060000*%
G04 APERTURE END LIST*
D10*
X135900000Y-75450000D03*
X140900000Y-81050000D03*
X140500000Y-81050000D03*
X140100000Y-81050000D03*
X139700000Y-81050000D03*
X139300000Y-81050000D03*
X138900000Y-81050000D03*
X138500000Y-81050000D03*
X138100000Y-81050000D03*
X137700000Y-81050000D03*
X137300000Y-81050000D03*
X136900000Y-81050000D03*
X136500000Y-81050000D03*
X136100000Y-81050000D03*
X135700000Y-81050000D03*
X135100000Y-80450000D03*
X135100000Y-80050000D03*
X135100000Y-79650000D03*
X135100000Y-79250000D03*
X135100000Y-78850000D03*
X135100000Y-78450000D03*
X135100000Y-78050000D03*
X135100000Y-77650000D03*
X135100000Y-77250000D03*
X135100000Y-76850000D03*
X135100000Y-76450000D03*
X135100000Y-76050000D03*
X135100000Y-75650000D03*
X135100000Y-75250000D03*
X135900000Y-75050000D03*
X136300000Y-75050000D03*
X136700000Y-75050000D03*
X137100000Y-75050000D03*
X137500000Y-75050000D03*
X135500000Y-75050000D03*
X135500000Y-75450000D03*
X135500000Y-75850000D03*
X135500000Y-76250000D03*
X135500000Y-76650000D03*
X135500000Y-77050000D03*
X135500000Y-77450000D03*
X135500000Y-77850000D03*
X135500000Y-78250000D03*
X135500000Y-78650000D03*
X135500000Y-79050000D03*
X135500000Y-79450000D03*
X135500000Y-79850000D03*
X135500000Y-80250000D03*
X135500000Y-80650000D03*
X135900000Y-80650000D03*
X136300000Y-80650000D03*
X136700000Y-80650000D03*
X137100000Y-80650000D03*
X137500000Y-80650000D03*
X137900000Y-80650000D03*
X138300000Y-80650000D03*
X138700000Y-80650000D03*
X139100000Y-80650000D03*
X139500000Y-80650000D03*
X139900000Y-80650000D03*
X140300000Y-80650000D03*
X140700000Y-80650000D03*
X141100000Y-80650000D03*
X141500000Y-80450000D03*
X141500000Y-80050000D03*
X141500000Y-79650000D03*
X141500000Y-79250000D03*
X141500000Y-78850000D03*
X141500000Y-78450000D03*
X141500000Y-78050000D03*
X141500000Y-77650000D03*
X141500000Y-77250000D03*
X141500000Y-76850000D03*
X141500000Y-76450000D03*
X141500000Y-76050000D03*
X141500000Y-75650000D03*
X141500000Y-75250000D03*
X141100000Y-75050000D03*
X140700000Y-75050000D03*
X140300000Y-75050000D03*
X139900000Y-75050000D03*
X139500000Y-75050000D03*
X139100000Y-75050000D03*
X138700000Y-75050000D03*
X138300000Y-75050000D03*
X137900000Y-75050000D03*
X136100000Y-74650000D03*
X140500000Y-74650000D03*
X140100000Y-74650000D03*
X139700000Y-74650000D03*
X139300000Y-74650000D03*
X138900000Y-74650000D03*
X138500000Y-74650000D03*
X137700000Y-74650000D03*
X138100000Y-74650000D03*
D11*
X149300000Y-78750000D03*
D12*
G36*
X142658292Y-76026383D02*
G01*
X142666010Y-76027528D01*
X142673578Y-76029423D01*
X142680923Y-76032052D01*
X142687976Y-76035387D01*
X142694668Y-76039398D01*
X142700934Y-76044046D01*
X142706715Y-76049285D01*
X142711954Y-76055066D01*
X142716602Y-76061332D01*
X142720613Y-76068024D01*
X142723948Y-76075077D01*
X142726577Y-76082422D01*
X142728472Y-76089990D01*
X142729617Y-76097708D01*
X142730000Y-76105500D01*
X142730000Y-76264500D01*
X142729617Y-76272292D01*
X142728472Y-76280010D01*
X142726577Y-76287578D01*
X142723948Y-76294923D01*
X142720613Y-76301976D01*
X142716602Y-76308668D01*
X142711954Y-76314934D01*
X142706715Y-76320715D01*
X142700934Y-76325954D01*
X142694668Y-76330602D01*
X142687976Y-76334613D01*
X142680923Y-76337948D01*
X142673578Y-76340577D01*
X142666010Y-76342472D01*
X142658292Y-76343617D01*
X142650500Y-76344000D01*
X142449500Y-76344000D01*
X142441708Y-76343617D01*
X142433990Y-76342472D01*
X142426422Y-76340577D01*
X142419077Y-76337948D01*
X142412024Y-76334613D01*
X142405332Y-76330602D01*
X142399066Y-76325954D01*
X142393285Y-76320715D01*
X142388046Y-76314934D01*
X142383398Y-76308668D01*
X142379387Y-76301976D01*
X142376052Y-76294923D01*
X142373423Y-76287578D01*
X142371528Y-76280010D01*
X142370383Y-76272292D01*
X142370000Y-76264500D01*
X142370000Y-76105500D01*
X142370383Y-76097708D01*
X142371528Y-76089990D01*
X142373423Y-76082422D01*
X142376052Y-76075077D01*
X142379387Y-76068024D01*
X142383398Y-76061332D01*
X142388046Y-76055066D01*
X142393285Y-76049285D01*
X142399066Y-76044046D01*
X142405332Y-76039398D01*
X142412024Y-76035387D01*
X142419077Y-76032052D01*
X142426422Y-76029423D01*
X142433990Y-76027528D01*
X142441708Y-76026383D01*
X142449500Y-76026000D01*
X142650500Y-76026000D01*
X142658292Y-76026383D01*
G37*
G36*
X142658292Y-76716383D02*
G01*
X142666010Y-76717528D01*
X142673578Y-76719423D01*
X142680923Y-76722052D01*
X142687976Y-76725387D01*
X142694668Y-76729398D01*
X142700934Y-76734046D01*
X142706715Y-76739285D01*
X142711954Y-76745066D01*
X142716602Y-76751332D01*
X142720613Y-76758024D01*
X142723948Y-76765077D01*
X142726577Y-76772422D01*
X142728472Y-76779990D01*
X142729617Y-76787708D01*
X142730000Y-76795500D01*
X142730000Y-76954500D01*
X142729617Y-76962292D01*
X142728472Y-76970010D01*
X142726577Y-76977578D01*
X142723948Y-76984923D01*
X142720613Y-76991976D01*
X142716602Y-76998668D01*
X142711954Y-77004934D01*
X142706715Y-77010715D01*
X142700934Y-77015954D01*
X142694668Y-77020602D01*
X142687976Y-77024613D01*
X142680923Y-77027948D01*
X142673578Y-77030577D01*
X142666010Y-77032472D01*
X142658292Y-77033617D01*
X142650500Y-77034000D01*
X142449500Y-77034000D01*
X142441708Y-77033617D01*
X142433990Y-77032472D01*
X142426422Y-77030577D01*
X142419077Y-77027948D01*
X142412024Y-77024613D01*
X142405332Y-77020602D01*
X142399066Y-77015954D01*
X142393285Y-77010715D01*
X142388046Y-77004934D01*
X142383398Y-76998668D01*
X142379387Y-76991976D01*
X142376052Y-76984923D01*
X142373423Y-76977578D01*
X142371528Y-76970010D01*
X142370383Y-76962292D01*
X142370000Y-76954500D01*
X142370000Y-76795500D01*
X142370383Y-76787708D01*
X142371528Y-76779990D01*
X142373423Y-76772422D01*
X142376052Y-76765077D01*
X142379387Y-76758024D01*
X142383398Y-76751332D01*
X142388046Y-76745066D01*
X142393285Y-76739285D01*
X142399066Y-76734046D01*
X142405332Y-76729398D01*
X142412024Y-76725387D01*
X142419077Y-76722052D01*
X142426422Y-76719423D01*
X142433990Y-76717528D01*
X142441708Y-76716383D01*
X142449500Y-76716000D01*
X142650500Y-76716000D01*
X142658292Y-76716383D01*
G37*
D13*
X143850000Y-73950000D03*
X143850000Y-72550000D03*
X144950000Y-72550000D03*
X144950000Y-73950000D03*
D12*
G36*
X126446958Y-72230710D02*
G01*
X126461276Y-72232834D01*
X126475317Y-72236351D01*
X126488946Y-72241228D01*
X126502031Y-72247417D01*
X126514447Y-72254858D01*
X126526073Y-72263481D01*
X126536798Y-72273202D01*
X126546519Y-72283927D01*
X126555142Y-72295553D01*
X126562583Y-72307969D01*
X126568772Y-72321054D01*
X126573649Y-72334683D01*
X126577166Y-72348724D01*
X126579290Y-72363042D01*
X126580000Y-72377500D01*
X126580000Y-72722500D01*
X126579290Y-72736958D01*
X126577166Y-72751276D01*
X126573649Y-72765317D01*
X126568772Y-72778946D01*
X126562583Y-72792031D01*
X126555142Y-72804447D01*
X126546519Y-72816073D01*
X126536798Y-72826798D01*
X126526073Y-72836519D01*
X126514447Y-72845142D01*
X126502031Y-72852583D01*
X126488946Y-72858772D01*
X126475317Y-72863649D01*
X126461276Y-72867166D01*
X126446958Y-72869290D01*
X126432500Y-72870000D01*
X126137500Y-72870000D01*
X126123042Y-72869290D01*
X126108724Y-72867166D01*
X126094683Y-72863649D01*
X126081054Y-72858772D01*
X126067969Y-72852583D01*
X126055553Y-72845142D01*
X126043927Y-72836519D01*
X126033202Y-72826798D01*
X126023481Y-72816073D01*
X126014858Y-72804447D01*
X126007417Y-72792031D01*
X126001228Y-72778946D01*
X125996351Y-72765317D01*
X125992834Y-72751276D01*
X125990710Y-72736958D01*
X125990000Y-72722500D01*
X125990000Y-72377500D01*
X125990710Y-72363042D01*
X125992834Y-72348724D01*
X125996351Y-72334683D01*
X126001228Y-72321054D01*
X126007417Y-72307969D01*
X126014858Y-72295553D01*
X126023481Y-72283927D01*
X126033202Y-72273202D01*
X126043927Y-72263481D01*
X126055553Y-72254858D01*
X126067969Y-72247417D01*
X126081054Y-72241228D01*
X126094683Y-72236351D01*
X126108724Y-72232834D01*
X126123042Y-72230710D01*
X126137500Y-72230000D01*
X126432500Y-72230000D01*
X126446958Y-72230710D01*
G37*
G36*
X125476958Y-72230710D02*
G01*
X125491276Y-72232834D01*
X125505317Y-72236351D01*
X125518946Y-72241228D01*
X125532031Y-72247417D01*
X125544447Y-72254858D01*
X125556073Y-72263481D01*
X125566798Y-72273202D01*
X125576519Y-72283927D01*
X125585142Y-72295553D01*
X125592583Y-72307969D01*
X125598772Y-72321054D01*
X125603649Y-72334683D01*
X125607166Y-72348724D01*
X125609290Y-72363042D01*
X125610000Y-72377500D01*
X125610000Y-72722500D01*
X125609290Y-72736958D01*
X125607166Y-72751276D01*
X125603649Y-72765317D01*
X125598772Y-72778946D01*
X125592583Y-72792031D01*
X125585142Y-72804447D01*
X125576519Y-72816073D01*
X125566798Y-72826798D01*
X125556073Y-72836519D01*
X125544447Y-72845142D01*
X125532031Y-72852583D01*
X125518946Y-72858772D01*
X125505317Y-72863649D01*
X125491276Y-72867166D01*
X125476958Y-72869290D01*
X125462500Y-72870000D01*
X125167500Y-72870000D01*
X125153042Y-72869290D01*
X125138724Y-72867166D01*
X125124683Y-72863649D01*
X125111054Y-72858772D01*
X125097969Y-72852583D01*
X125085553Y-72845142D01*
X125073927Y-72836519D01*
X125063202Y-72826798D01*
X125053481Y-72816073D01*
X125044858Y-72804447D01*
X125037417Y-72792031D01*
X125031228Y-72778946D01*
X125026351Y-72765317D01*
X125022834Y-72751276D01*
X125020710Y-72736958D01*
X125020000Y-72722500D01*
X125020000Y-72377500D01*
X125020710Y-72363042D01*
X125022834Y-72348724D01*
X125026351Y-72334683D01*
X125031228Y-72321054D01*
X125037417Y-72307969D01*
X125044858Y-72295553D01*
X125053481Y-72283927D01*
X125063202Y-72273202D01*
X125073927Y-72263481D01*
X125085553Y-72254858D01*
X125097969Y-72247417D01*
X125111054Y-72241228D01*
X125124683Y-72236351D01*
X125138724Y-72232834D01*
X125153042Y-72230710D01*
X125167500Y-72230000D01*
X125462500Y-72230000D01*
X125476958Y-72230710D01*
G37*
G36*
X141891958Y-81930710D02*
G01*
X141906276Y-81932834D01*
X141920317Y-81936351D01*
X141933946Y-81941228D01*
X141947031Y-81947417D01*
X141959447Y-81954858D01*
X141971073Y-81963481D01*
X141981798Y-81973202D01*
X141991519Y-81983927D01*
X142000142Y-81995553D01*
X142007583Y-82007969D01*
X142013772Y-82021054D01*
X142018649Y-82034683D01*
X142022166Y-82048724D01*
X142024290Y-82063042D01*
X142025000Y-82077500D01*
X142025000Y-82422500D01*
X142024290Y-82436958D01*
X142022166Y-82451276D01*
X142018649Y-82465317D01*
X142013772Y-82478946D01*
X142007583Y-82492031D01*
X142000142Y-82504447D01*
X141991519Y-82516073D01*
X141981798Y-82526798D01*
X141971073Y-82536519D01*
X141959447Y-82545142D01*
X141947031Y-82552583D01*
X141933946Y-82558772D01*
X141920317Y-82563649D01*
X141906276Y-82567166D01*
X141891958Y-82569290D01*
X141877500Y-82570000D01*
X141582500Y-82570000D01*
X141568042Y-82569290D01*
X141553724Y-82567166D01*
X141539683Y-82563649D01*
X141526054Y-82558772D01*
X141512969Y-82552583D01*
X141500553Y-82545142D01*
X141488927Y-82536519D01*
X141478202Y-82526798D01*
X141468481Y-82516073D01*
X141459858Y-82504447D01*
X141452417Y-82492031D01*
X141446228Y-82478946D01*
X141441351Y-82465317D01*
X141437834Y-82451276D01*
X141435710Y-82436958D01*
X141435000Y-82422500D01*
X141435000Y-82077500D01*
X141435710Y-82063042D01*
X141437834Y-82048724D01*
X141441351Y-82034683D01*
X141446228Y-82021054D01*
X141452417Y-82007969D01*
X141459858Y-81995553D01*
X141468481Y-81983927D01*
X141478202Y-81973202D01*
X141488927Y-81963481D01*
X141500553Y-81954858D01*
X141512969Y-81947417D01*
X141526054Y-81941228D01*
X141539683Y-81936351D01*
X141553724Y-81932834D01*
X141568042Y-81930710D01*
X141582500Y-81930000D01*
X141877500Y-81930000D01*
X141891958Y-81930710D01*
G37*
G36*
X142861958Y-81930710D02*
G01*
X142876276Y-81932834D01*
X142890317Y-81936351D01*
X142903946Y-81941228D01*
X142917031Y-81947417D01*
X142929447Y-81954858D01*
X142941073Y-81963481D01*
X142951798Y-81973202D01*
X142961519Y-81983927D01*
X142970142Y-81995553D01*
X142977583Y-82007969D01*
X142983772Y-82021054D01*
X142988649Y-82034683D01*
X142992166Y-82048724D01*
X142994290Y-82063042D01*
X142995000Y-82077500D01*
X142995000Y-82422500D01*
X142994290Y-82436958D01*
X142992166Y-82451276D01*
X142988649Y-82465317D01*
X142983772Y-82478946D01*
X142977583Y-82492031D01*
X142970142Y-82504447D01*
X142961519Y-82516073D01*
X142951798Y-82526798D01*
X142941073Y-82536519D01*
X142929447Y-82545142D01*
X142917031Y-82552583D01*
X142903946Y-82558772D01*
X142890317Y-82563649D01*
X142876276Y-82567166D01*
X142861958Y-82569290D01*
X142847500Y-82570000D01*
X142552500Y-82570000D01*
X142538042Y-82569290D01*
X142523724Y-82567166D01*
X142509683Y-82563649D01*
X142496054Y-82558772D01*
X142482969Y-82552583D01*
X142470553Y-82545142D01*
X142458927Y-82536519D01*
X142448202Y-82526798D01*
X142438481Y-82516073D01*
X142429858Y-82504447D01*
X142422417Y-82492031D01*
X142416228Y-82478946D01*
X142411351Y-82465317D01*
X142407834Y-82451276D01*
X142405710Y-82436958D01*
X142405000Y-82422500D01*
X142405000Y-82077500D01*
X142405710Y-82063042D01*
X142407834Y-82048724D01*
X142411351Y-82034683D01*
X142416228Y-82021054D01*
X142422417Y-82007969D01*
X142429858Y-81995553D01*
X142438481Y-81983927D01*
X142448202Y-81973202D01*
X142458927Y-81963481D01*
X142470553Y-81954858D01*
X142482969Y-81947417D01*
X142496054Y-81941228D01*
X142509683Y-81936351D01*
X142523724Y-81932834D01*
X142538042Y-81930710D01*
X142552500Y-81930000D01*
X142847500Y-81930000D01*
X142861958Y-81930710D01*
G37*
G36*
X143941958Y-81930710D02*
G01*
X143956276Y-81932834D01*
X143970317Y-81936351D01*
X143983946Y-81941228D01*
X143997031Y-81947417D01*
X144009447Y-81954858D01*
X144021073Y-81963481D01*
X144031798Y-81973202D01*
X144041519Y-81983927D01*
X144050142Y-81995553D01*
X144057583Y-82007969D01*
X144063772Y-82021054D01*
X144068649Y-82034683D01*
X144072166Y-82048724D01*
X144074290Y-82063042D01*
X144075000Y-82077500D01*
X144075000Y-82422500D01*
X144074290Y-82436958D01*
X144072166Y-82451276D01*
X144068649Y-82465317D01*
X144063772Y-82478946D01*
X144057583Y-82492031D01*
X144050142Y-82504447D01*
X144041519Y-82516073D01*
X144031798Y-82526798D01*
X144021073Y-82536519D01*
X144009447Y-82545142D01*
X143997031Y-82552583D01*
X143983946Y-82558772D01*
X143970317Y-82563649D01*
X143956276Y-82567166D01*
X143941958Y-82569290D01*
X143927500Y-82570000D01*
X143632500Y-82570000D01*
X143618042Y-82569290D01*
X143603724Y-82567166D01*
X143589683Y-82563649D01*
X143576054Y-82558772D01*
X143562969Y-82552583D01*
X143550553Y-82545142D01*
X143538927Y-82536519D01*
X143528202Y-82526798D01*
X143518481Y-82516073D01*
X143509858Y-82504447D01*
X143502417Y-82492031D01*
X143496228Y-82478946D01*
X143491351Y-82465317D01*
X143487834Y-82451276D01*
X143485710Y-82436958D01*
X143485000Y-82422500D01*
X143485000Y-82077500D01*
X143485710Y-82063042D01*
X143487834Y-82048724D01*
X143491351Y-82034683D01*
X143496228Y-82021054D01*
X143502417Y-82007969D01*
X143509858Y-81995553D01*
X143518481Y-81983927D01*
X143528202Y-81973202D01*
X143538927Y-81963481D01*
X143550553Y-81954858D01*
X143562969Y-81947417D01*
X143576054Y-81941228D01*
X143589683Y-81936351D01*
X143603724Y-81932834D01*
X143618042Y-81930710D01*
X143632500Y-81930000D01*
X143927500Y-81930000D01*
X143941958Y-81930710D01*
G37*
G36*
X144911958Y-81930710D02*
G01*
X144926276Y-81932834D01*
X144940317Y-81936351D01*
X144953946Y-81941228D01*
X144967031Y-81947417D01*
X144979447Y-81954858D01*
X144991073Y-81963481D01*
X145001798Y-81973202D01*
X145011519Y-81983927D01*
X145020142Y-81995553D01*
X145027583Y-82007969D01*
X145033772Y-82021054D01*
X145038649Y-82034683D01*
X145042166Y-82048724D01*
X145044290Y-82063042D01*
X145045000Y-82077500D01*
X145045000Y-82422500D01*
X145044290Y-82436958D01*
X145042166Y-82451276D01*
X145038649Y-82465317D01*
X145033772Y-82478946D01*
X145027583Y-82492031D01*
X145020142Y-82504447D01*
X145011519Y-82516073D01*
X145001798Y-82526798D01*
X144991073Y-82536519D01*
X144979447Y-82545142D01*
X144967031Y-82552583D01*
X144953946Y-82558772D01*
X144940317Y-82563649D01*
X144926276Y-82567166D01*
X144911958Y-82569290D01*
X144897500Y-82570000D01*
X144602500Y-82570000D01*
X144588042Y-82569290D01*
X144573724Y-82567166D01*
X144559683Y-82563649D01*
X144546054Y-82558772D01*
X144532969Y-82552583D01*
X144520553Y-82545142D01*
X144508927Y-82536519D01*
X144498202Y-82526798D01*
X144488481Y-82516073D01*
X144479858Y-82504447D01*
X144472417Y-82492031D01*
X144466228Y-82478946D01*
X144461351Y-82465317D01*
X144457834Y-82451276D01*
X144455710Y-82436958D01*
X144455000Y-82422500D01*
X144455000Y-82077500D01*
X144455710Y-82063042D01*
X144457834Y-82048724D01*
X144461351Y-82034683D01*
X144466228Y-82021054D01*
X144472417Y-82007969D01*
X144479858Y-81995553D01*
X144488481Y-81983927D01*
X144498202Y-81973202D01*
X144508927Y-81963481D01*
X144520553Y-81954858D01*
X144532969Y-81947417D01*
X144546054Y-81941228D01*
X144559683Y-81936351D01*
X144573724Y-81932834D01*
X144588042Y-81930710D01*
X144602500Y-81930000D01*
X144897500Y-81930000D01*
X144911958Y-81930710D01*
G37*
D14*
X128925000Y-79540000D03*
X128925000Y-75460000D03*
D15*
X127600000Y-78300000D03*
X127600000Y-77900000D03*
X127600000Y-77500000D03*
X127600000Y-77100000D03*
X127600000Y-76700000D03*
X130250000Y-76700000D03*
X130250000Y-77100000D03*
X130250000Y-77500000D03*
X130250000Y-77900000D03*
X130250000Y-78300000D03*
D16*
X124400000Y-73350000D03*
X124000000Y-73350000D03*
X123600000Y-73350000D03*
X123600000Y-72450000D03*
X124000000Y-72450000D03*
X124400000Y-72450000D03*
D12*
G36*
X134027691Y-77776053D02*
G01*
X134048926Y-77779203D01*
X134069750Y-77784419D01*
X134089962Y-77791651D01*
X134109368Y-77800830D01*
X134127781Y-77811866D01*
X134145024Y-77824654D01*
X134160930Y-77839070D01*
X134175346Y-77854976D01*
X134188134Y-77872219D01*
X134199170Y-77890632D01*
X134208349Y-77910038D01*
X134215581Y-77930250D01*
X134220797Y-77951074D01*
X134223947Y-77972309D01*
X134225000Y-77993750D01*
X134225000Y-78506250D01*
X134223947Y-78527691D01*
X134220797Y-78548926D01*
X134215581Y-78569750D01*
X134208349Y-78589962D01*
X134199170Y-78609368D01*
X134188134Y-78627781D01*
X134175346Y-78645024D01*
X134160930Y-78660930D01*
X134145024Y-78675346D01*
X134127781Y-78688134D01*
X134109368Y-78699170D01*
X134089962Y-78708349D01*
X134069750Y-78715581D01*
X134048926Y-78720797D01*
X134027691Y-78723947D01*
X134006250Y-78725000D01*
X133568750Y-78725000D01*
X133547309Y-78723947D01*
X133526074Y-78720797D01*
X133505250Y-78715581D01*
X133485038Y-78708349D01*
X133465632Y-78699170D01*
X133447219Y-78688134D01*
X133429976Y-78675346D01*
X133414070Y-78660930D01*
X133399654Y-78645024D01*
X133386866Y-78627781D01*
X133375830Y-78609368D01*
X133366651Y-78589962D01*
X133359419Y-78569750D01*
X133354203Y-78548926D01*
X133351053Y-78527691D01*
X133350000Y-78506250D01*
X133350000Y-77993750D01*
X133351053Y-77972309D01*
X133354203Y-77951074D01*
X133359419Y-77930250D01*
X133366651Y-77910038D01*
X133375830Y-77890632D01*
X133386866Y-77872219D01*
X133399654Y-77854976D01*
X133414070Y-77839070D01*
X133429976Y-77824654D01*
X133447219Y-77811866D01*
X133465632Y-77800830D01*
X133485038Y-77791651D01*
X133505250Y-77784419D01*
X133526074Y-77779203D01*
X133547309Y-77776053D01*
X133568750Y-77775000D01*
X134006250Y-77775000D01*
X134027691Y-77776053D01*
G37*
G36*
X132452691Y-77776053D02*
G01*
X132473926Y-77779203D01*
X132494750Y-77784419D01*
X132514962Y-77791651D01*
X132534368Y-77800830D01*
X132552781Y-77811866D01*
X132570024Y-77824654D01*
X132585930Y-77839070D01*
X132600346Y-77854976D01*
X132613134Y-77872219D01*
X132624170Y-77890632D01*
X132633349Y-77910038D01*
X132640581Y-77930250D01*
X132645797Y-77951074D01*
X132648947Y-77972309D01*
X132650000Y-77993750D01*
X132650000Y-78506250D01*
X132648947Y-78527691D01*
X132645797Y-78548926D01*
X132640581Y-78569750D01*
X132633349Y-78589962D01*
X132624170Y-78609368D01*
X132613134Y-78627781D01*
X132600346Y-78645024D01*
X132585930Y-78660930D01*
X132570024Y-78675346D01*
X132552781Y-78688134D01*
X132534368Y-78699170D01*
X132514962Y-78708349D01*
X132494750Y-78715581D01*
X132473926Y-78720797D01*
X132452691Y-78723947D01*
X132431250Y-78725000D01*
X131993750Y-78725000D01*
X131972309Y-78723947D01*
X131951074Y-78720797D01*
X131930250Y-78715581D01*
X131910038Y-78708349D01*
X131890632Y-78699170D01*
X131872219Y-78688134D01*
X131854976Y-78675346D01*
X131839070Y-78660930D01*
X131824654Y-78645024D01*
X131811866Y-78627781D01*
X131800830Y-78609368D01*
X131791651Y-78589962D01*
X131784419Y-78569750D01*
X131779203Y-78548926D01*
X131776053Y-78527691D01*
X131775000Y-78506250D01*
X131775000Y-77993750D01*
X131776053Y-77972309D01*
X131779203Y-77951074D01*
X131784419Y-77930250D01*
X131791651Y-77910038D01*
X131800830Y-77890632D01*
X131811866Y-77872219D01*
X131824654Y-77854976D01*
X131839070Y-77839070D01*
X131854976Y-77824654D01*
X131872219Y-77811866D01*
X131890632Y-77800830D01*
X131910038Y-77791651D01*
X131930250Y-77784419D01*
X131951074Y-77779203D01*
X131972309Y-77776053D01*
X131993750Y-77775000D01*
X132431250Y-77775000D01*
X132452691Y-77776053D01*
G37*
G36*
X141611958Y-73080710D02*
G01*
X141626276Y-73082834D01*
X141640317Y-73086351D01*
X141653946Y-73091228D01*
X141667031Y-73097417D01*
X141679447Y-73104858D01*
X141691073Y-73113481D01*
X141701798Y-73123202D01*
X141711519Y-73133927D01*
X141720142Y-73145553D01*
X141727583Y-73157969D01*
X141733772Y-73171054D01*
X141738649Y-73184683D01*
X141742166Y-73198724D01*
X141744290Y-73213042D01*
X141745000Y-73227500D01*
X141745000Y-73572500D01*
X141744290Y-73586958D01*
X141742166Y-73601276D01*
X141738649Y-73615317D01*
X141733772Y-73628946D01*
X141727583Y-73642031D01*
X141720142Y-73654447D01*
X141711519Y-73666073D01*
X141701798Y-73676798D01*
X141691073Y-73686519D01*
X141679447Y-73695142D01*
X141667031Y-73702583D01*
X141653946Y-73708772D01*
X141640317Y-73713649D01*
X141626276Y-73717166D01*
X141611958Y-73719290D01*
X141597500Y-73720000D01*
X141302500Y-73720000D01*
X141288042Y-73719290D01*
X141273724Y-73717166D01*
X141259683Y-73713649D01*
X141246054Y-73708772D01*
X141232969Y-73702583D01*
X141220553Y-73695142D01*
X141208927Y-73686519D01*
X141198202Y-73676798D01*
X141188481Y-73666073D01*
X141179858Y-73654447D01*
X141172417Y-73642031D01*
X141166228Y-73628946D01*
X141161351Y-73615317D01*
X141157834Y-73601276D01*
X141155710Y-73586958D01*
X141155000Y-73572500D01*
X141155000Y-73227500D01*
X141155710Y-73213042D01*
X141157834Y-73198724D01*
X141161351Y-73184683D01*
X141166228Y-73171054D01*
X141172417Y-73157969D01*
X141179858Y-73145553D01*
X141188481Y-73133927D01*
X141198202Y-73123202D01*
X141208927Y-73113481D01*
X141220553Y-73104858D01*
X141232969Y-73097417D01*
X141246054Y-73091228D01*
X141259683Y-73086351D01*
X141273724Y-73082834D01*
X141288042Y-73080710D01*
X141302500Y-73080000D01*
X141597500Y-73080000D01*
X141611958Y-73080710D01*
G37*
G36*
X142581958Y-73080710D02*
G01*
X142596276Y-73082834D01*
X142610317Y-73086351D01*
X142623946Y-73091228D01*
X142637031Y-73097417D01*
X142649447Y-73104858D01*
X142661073Y-73113481D01*
X142671798Y-73123202D01*
X142681519Y-73133927D01*
X142690142Y-73145553D01*
X142697583Y-73157969D01*
X142703772Y-73171054D01*
X142708649Y-73184683D01*
X142712166Y-73198724D01*
X142714290Y-73213042D01*
X142715000Y-73227500D01*
X142715000Y-73572500D01*
X142714290Y-73586958D01*
X142712166Y-73601276D01*
X142708649Y-73615317D01*
X142703772Y-73628946D01*
X142697583Y-73642031D01*
X142690142Y-73654447D01*
X142681519Y-73666073D01*
X142671798Y-73676798D01*
X142661073Y-73686519D01*
X142649447Y-73695142D01*
X142637031Y-73702583D01*
X142623946Y-73708772D01*
X142610317Y-73713649D01*
X142596276Y-73717166D01*
X142581958Y-73719290D01*
X142567500Y-73720000D01*
X142272500Y-73720000D01*
X142258042Y-73719290D01*
X142243724Y-73717166D01*
X142229683Y-73713649D01*
X142216054Y-73708772D01*
X142202969Y-73702583D01*
X142190553Y-73695142D01*
X142178927Y-73686519D01*
X142168202Y-73676798D01*
X142158481Y-73666073D01*
X142149858Y-73654447D01*
X142142417Y-73642031D01*
X142136228Y-73628946D01*
X142131351Y-73615317D01*
X142127834Y-73601276D01*
X142125710Y-73586958D01*
X142125000Y-73572500D01*
X142125000Y-73227500D01*
X142125710Y-73213042D01*
X142127834Y-73198724D01*
X142131351Y-73184683D01*
X142136228Y-73171054D01*
X142142417Y-73157969D01*
X142149858Y-73145553D01*
X142158481Y-73133927D01*
X142168202Y-73123202D01*
X142178927Y-73113481D01*
X142190553Y-73104858D01*
X142202969Y-73097417D01*
X142216054Y-73091228D01*
X142229683Y-73086351D01*
X142243724Y-73082834D01*
X142258042Y-73080710D01*
X142272500Y-73080000D01*
X142567500Y-73080000D01*
X142581958Y-73080710D01*
G37*
G36*
X130662292Y-81470383D02*
G01*
X130670010Y-81471528D01*
X130677578Y-81473423D01*
X130684923Y-81476052D01*
X130691976Y-81479387D01*
X130698668Y-81483398D01*
X130704934Y-81488046D01*
X130710715Y-81493285D01*
X130715954Y-81499066D01*
X130720602Y-81505332D01*
X130724613Y-81512024D01*
X130727948Y-81519077D01*
X130730577Y-81526422D01*
X130732472Y-81533990D01*
X130733617Y-81541708D01*
X130734000Y-81549500D01*
X130734000Y-81750500D01*
X130733617Y-81758292D01*
X130732472Y-81766010D01*
X130730577Y-81773578D01*
X130727948Y-81780923D01*
X130724613Y-81787976D01*
X130720602Y-81794668D01*
X130715954Y-81800934D01*
X130710715Y-81806715D01*
X130704934Y-81811954D01*
X130698668Y-81816602D01*
X130691976Y-81820613D01*
X130684923Y-81823948D01*
X130677578Y-81826577D01*
X130670010Y-81828472D01*
X130662292Y-81829617D01*
X130654500Y-81830000D01*
X130495500Y-81830000D01*
X130487708Y-81829617D01*
X130479990Y-81828472D01*
X130472422Y-81826577D01*
X130465077Y-81823948D01*
X130458024Y-81820613D01*
X130451332Y-81816602D01*
X130445066Y-81811954D01*
X130439285Y-81806715D01*
X130434046Y-81800934D01*
X130429398Y-81794668D01*
X130425387Y-81787976D01*
X130422052Y-81780923D01*
X130419423Y-81773578D01*
X130417528Y-81766010D01*
X130416383Y-81758292D01*
X130416000Y-81750500D01*
X130416000Y-81549500D01*
X130416383Y-81541708D01*
X130417528Y-81533990D01*
X130419423Y-81526422D01*
X130422052Y-81519077D01*
X130425387Y-81512024D01*
X130429398Y-81505332D01*
X130434046Y-81499066D01*
X130439285Y-81493285D01*
X130445066Y-81488046D01*
X130451332Y-81483398D01*
X130458024Y-81479387D01*
X130465077Y-81476052D01*
X130472422Y-81473423D01*
X130479990Y-81471528D01*
X130487708Y-81470383D01*
X130495500Y-81470000D01*
X130654500Y-81470000D01*
X130662292Y-81470383D01*
G37*
G36*
X131352292Y-81470383D02*
G01*
X131360010Y-81471528D01*
X131367578Y-81473423D01*
X131374923Y-81476052D01*
X131381976Y-81479387D01*
X131388668Y-81483398D01*
X131394934Y-81488046D01*
X131400715Y-81493285D01*
X131405954Y-81499066D01*
X131410602Y-81505332D01*
X131414613Y-81512024D01*
X131417948Y-81519077D01*
X131420577Y-81526422D01*
X131422472Y-81533990D01*
X131423617Y-81541708D01*
X131424000Y-81549500D01*
X131424000Y-81750500D01*
X131423617Y-81758292D01*
X131422472Y-81766010D01*
X131420577Y-81773578D01*
X131417948Y-81780923D01*
X131414613Y-81787976D01*
X131410602Y-81794668D01*
X131405954Y-81800934D01*
X131400715Y-81806715D01*
X131394934Y-81811954D01*
X131388668Y-81816602D01*
X131381976Y-81820613D01*
X131374923Y-81823948D01*
X131367578Y-81826577D01*
X131360010Y-81828472D01*
X131352292Y-81829617D01*
X131344500Y-81830000D01*
X131185500Y-81830000D01*
X131177708Y-81829617D01*
X131169990Y-81828472D01*
X131162422Y-81826577D01*
X131155077Y-81823948D01*
X131148024Y-81820613D01*
X131141332Y-81816602D01*
X131135066Y-81811954D01*
X131129285Y-81806715D01*
X131124046Y-81800934D01*
X131119398Y-81794668D01*
X131115387Y-81787976D01*
X131112052Y-81780923D01*
X131109423Y-81773578D01*
X131107528Y-81766010D01*
X131106383Y-81758292D01*
X131106000Y-81750500D01*
X131106000Y-81549500D01*
X131106383Y-81541708D01*
X131107528Y-81533990D01*
X131109423Y-81526422D01*
X131112052Y-81519077D01*
X131115387Y-81512024D01*
X131119398Y-81505332D01*
X131124046Y-81499066D01*
X131129285Y-81493285D01*
X131135066Y-81488046D01*
X131141332Y-81483398D01*
X131148024Y-81479387D01*
X131155077Y-81476052D01*
X131162422Y-81473423D01*
X131169990Y-81471528D01*
X131177708Y-81470383D01*
X131185500Y-81470000D01*
X131344500Y-81470000D01*
X131352292Y-81470383D01*
G37*
G36*
X131352292Y-80570383D02*
G01*
X131360010Y-80571528D01*
X131367578Y-80573423D01*
X131374923Y-80576052D01*
X131381976Y-80579387D01*
X131388668Y-80583398D01*
X131394934Y-80588046D01*
X131400715Y-80593285D01*
X131405954Y-80599066D01*
X131410602Y-80605332D01*
X131414613Y-80612024D01*
X131417948Y-80619077D01*
X131420577Y-80626422D01*
X131422472Y-80633990D01*
X131423617Y-80641708D01*
X131424000Y-80649500D01*
X131424000Y-80850500D01*
X131423617Y-80858292D01*
X131422472Y-80866010D01*
X131420577Y-80873578D01*
X131417948Y-80880923D01*
X131414613Y-80887976D01*
X131410602Y-80894668D01*
X131405954Y-80900934D01*
X131400715Y-80906715D01*
X131394934Y-80911954D01*
X131388668Y-80916602D01*
X131381976Y-80920613D01*
X131374923Y-80923948D01*
X131367578Y-80926577D01*
X131360010Y-80928472D01*
X131352292Y-80929617D01*
X131344500Y-80930000D01*
X131185500Y-80930000D01*
X131177708Y-80929617D01*
X131169990Y-80928472D01*
X131162422Y-80926577D01*
X131155077Y-80923948D01*
X131148024Y-80920613D01*
X131141332Y-80916602D01*
X131135066Y-80911954D01*
X131129285Y-80906715D01*
X131124046Y-80900934D01*
X131119398Y-80894668D01*
X131115387Y-80887976D01*
X131112052Y-80880923D01*
X131109423Y-80873578D01*
X131107528Y-80866010D01*
X131106383Y-80858292D01*
X131106000Y-80850500D01*
X131106000Y-80649500D01*
X131106383Y-80641708D01*
X131107528Y-80633990D01*
X131109423Y-80626422D01*
X131112052Y-80619077D01*
X131115387Y-80612024D01*
X131119398Y-80605332D01*
X131124046Y-80599066D01*
X131129285Y-80593285D01*
X131135066Y-80588046D01*
X131141332Y-80583398D01*
X131148024Y-80579387D01*
X131155077Y-80576052D01*
X131162422Y-80573423D01*
X131169990Y-80571528D01*
X131177708Y-80570383D01*
X131185500Y-80570000D01*
X131344500Y-80570000D01*
X131352292Y-80570383D01*
G37*
G36*
X130662292Y-80570383D02*
G01*
X130670010Y-80571528D01*
X130677578Y-80573423D01*
X130684923Y-80576052D01*
X130691976Y-80579387D01*
X130698668Y-80583398D01*
X130704934Y-80588046D01*
X130710715Y-80593285D01*
X130715954Y-80599066D01*
X130720602Y-80605332D01*
X130724613Y-80612024D01*
X130727948Y-80619077D01*
X130730577Y-80626422D01*
X130732472Y-80633990D01*
X130733617Y-80641708D01*
X130734000Y-80649500D01*
X130734000Y-80850500D01*
X130733617Y-80858292D01*
X130732472Y-80866010D01*
X130730577Y-80873578D01*
X130727948Y-80880923D01*
X130724613Y-80887976D01*
X130720602Y-80894668D01*
X130715954Y-80900934D01*
X130710715Y-80906715D01*
X130704934Y-80911954D01*
X130698668Y-80916602D01*
X130691976Y-80920613D01*
X130684923Y-80923948D01*
X130677578Y-80926577D01*
X130670010Y-80928472D01*
X130662292Y-80929617D01*
X130654500Y-80930000D01*
X130495500Y-80930000D01*
X130487708Y-80929617D01*
X130479990Y-80928472D01*
X130472422Y-80926577D01*
X130465077Y-80923948D01*
X130458024Y-80920613D01*
X130451332Y-80916602D01*
X130445066Y-80911954D01*
X130439285Y-80906715D01*
X130434046Y-80900934D01*
X130429398Y-80894668D01*
X130425387Y-80887976D01*
X130422052Y-80880923D01*
X130419423Y-80873578D01*
X130417528Y-80866010D01*
X130416383Y-80858292D01*
X130416000Y-80850500D01*
X130416000Y-80649500D01*
X130416383Y-80641708D01*
X130417528Y-80633990D01*
X130419423Y-80626422D01*
X130422052Y-80619077D01*
X130425387Y-80612024D01*
X130429398Y-80605332D01*
X130434046Y-80599066D01*
X130439285Y-80593285D01*
X130445066Y-80588046D01*
X130451332Y-80583398D01*
X130458024Y-80579387D01*
X130465077Y-80576052D01*
X130472422Y-80573423D01*
X130479990Y-80571528D01*
X130487708Y-80570383D01*
X130495500Y-80570000D01*
X130654500Y-80570000D01*
X130662292Y-80570383D01*
G37*
G36*
X125561958Y-75830710D02*
G01*
X125576276Y-75832834D01*
X125590317Y-75836351D01*
X125603946Y-75841228D01*
X125617031Y-75847417D01*
X125629447Y-75854858D01*
X125641073Y-75863481D01*
X125651798Y-75873202D01*
X125661519Y-75883927D01*
X125670142Y-75895553D01*
X125677583Y-75907969D01*
X125683772Y-75921054D01*
X125688649Y-75934683D01*
X125692166Y-75948724D01*
X125694290Y-75963042D01*
X125695000Y-75977500D01*
X125695000Y-76322500D01*
X125694290Y-76336958D01*
X125692166Y-76351276D01*
X125688649Y-76365317D01*
X125683772Y-76378946D01*
X125677583Y-76392031D01*
X125670142Y-76404447D01*
X125661519Y-76416073D01*
X125651798Y-76426798D01*
X125641073Y-76436519D01*
X125629447Y-76445142D01*
X125617031Y-76452583D01*
X125603946Y-76458772D01*
X125590317Y-76463649D01*
X125576276Y-76467166D01*
X125561958Y-76469290D01*
X125547500Y-76470000D01*
X125252500Y-76470000D01*
X125238042Y-76469290D01*
X125223724Y-76467166D01*
X125209683Y-76463649D01*
X125196054Y-76458772D01*
X125182969Y-76452583D01*
X125170553Y-76445142D01*
X125158927Y-76436519D01*
X125148202Y-76426798D01*
X125138481Y-76416073D01*
X125129858Y-76404447D01*
X125122417Y-76392031D01*
X125116228Y-76378946D01*
X125111351Y-76365317D01*
X125107834Y-76351276D01*
X125105710Y-76336958D01*
X125105000Y-76322500D01*
X125105000Y-75977500D01*
X125105710Y-75963042D01*
X125107834Y-75948724D01*
X125111351Y-75934683D01*
X125116228Y-75921054D01*
X125122417Y-75907969D01*
X125129858Y-75895553D01*
X125138481Y-75883927D01*
X125148202Y-75873202D01*
X125158927Y-75863481D01*
X125170553Y-75854858D01*
X125182969Y-75847417D01*
X125196054Y-75841228D01*
X125209683Y-75836351D01*
X125223724Y-75832834D01*
X125238042Y-75830710D01*
X125252500Y-75830000D01*
X125547500Y-75830000D01*
X125561958Y-75830710D01*
G37*
G36*
X126531958Y-75830710D02*
G01*
X126546276Y-75832834D01*
X126560317Y-75836351D01*
X126573946Y-75841228D01*
X126587031Y-75847417D01*
X126599447Y-75854858D01*
X126611073Y-75863481D01*
X126621798Y-75873202D01*
X126631519Y-75883927D01*
X126640142Y-75895553D01*
X126647583Y-75907969D01*
X126653772Y-75921054D01*
X126658649Y-75934683D01*
X126662166Y-75948724D01*
X126664290Y-75963042D01*
X126665000Y-75977500D01*
X126665000Y-76322500D01*
X126664290Y-76336958D01*
X126662166Y-76351276D01*
X126658649Y-76365317D01*
X126653772Y-76378946D01*
X126647583Y-76392031D01*
X126640142Y-76404447D01*
X126631519Y-76416073D01*
X126621798Y-76426798D01*
X126611073Y-76436519D01*
X126599447Y-76445142D01*
X126587031Y-76452583D01*
X126573946Y-76458772D01*
X126560317Y-76463649D01*
X126546276Y-76467166D01*
X126531958Y-76469290D01*
X126517500Y-76470000D01*
X126222500Y-76470000D01*
X126208042Y-76469290D01*
X126193724Y-76467166D01*
X126179683Y-76463649D01*
X126166054Y-76458772D01*
X126152969Y-76452583D01*
X126140553Y-76445142D01*
X126128927Y-76436519D01*
X126118202Y-76426798D01*
X126108481Y-76416073D01*
X126099858Y-76404447D01*
X126092417Y-76392031D01*
X126086228Y-76378946D01*
X126081351Y-76365317D01*
X126077834Y-76351276D01*
X126075710Y-76336958D01*
X126075000Y-76322500D01*
X126075000Y-75977500D01*
X126075710Y-75963042D01*
X126077834Y-75948724D01*
X126081351Y-75934683D01*
X126086228Y-75921054D01*
X126092417Y-75907969D01*
X126099858Y-75895553D01*
X126108481Y-75883927D01*
X126118202Y-75873202D01*
X126128927Y-75863481D01*
X126140553Y-75854858D01*
X126152969Y-75847417D01*
X126166054Y-75841228D01*
X126179683Y-75836351D01*
X126193724Y-75832834D01*
X126208042Y-75830710D01*
X126222500Y-75830000D01*
X126517500Y-75830000D01*
X126531958Y-75830710D01*
G37*
D17*
X124600000Y-78750000D03*
X124100000Y-78750000D03*
X124100000Y-77225000D03*
X124600000Y-77225000D03*
D18*
X123587500Y-78737500D03*
X125112500Y-78737500D03*
X123587500Y-77237500D03*
X125112500Y-77237500D03*
X123587500Y-77737500D03*
X123587500Y-78237500D03*
X125112500Y-77737500D03*
X125112500Y-78237500D03*
D12*
G36*
X133562292Y-82370383D02*
G01*
X133570010Y-82371528D01*
X133577578Y-82373423D01*
X133584923Y-82376052D01*
X133591976Y-82379387D01*
X133598668Y-82383398D01*
X133604934Y-82388046D01*
X133610715Y-82393285D01*
X133615954Y-82399066D01*
X133620602Y-82405332D01*
X133624613Y-82412024D01*
X133627948Y-82419077D01*
X133630577Y-82426422D01*
X133632472Y-82433990D01*
X133633617Y-82441708D01*
X133634000Y-82449500D01*
X133634000Y-82650500D01*
X133633617Y-82658292D01*
X133632472Y-82666010D01*
X133630577Y-82673578D01*
X133627948Y-82680923D01*
X133624613Y-82687976D01*
X133620602Y-82694668D01*
X133615954Y-82700934D01*
X133610715Y-82706715D01*
X133604934Y-82711954D01*
X133598668Y-82716602D01*
X133591976Y-82720613D01*
X133584923Y-82723948D01*
X133577578Y-82726577D01*
X133570010Y-82728472D01*
X133562292Y-82729617D01*
X133554500Y-82730000D01*
X133395500Y-82730000D01*
X133387708Y-82729617D01*
X133379990Y-82728472D01*
X133372422Y-82726577D01*
X133365077Y-82723948D01*
X133358024Y-82720613D01*
X133351332Y-82716602D01*
X133345066Y-82711954D01*
X133339285Y-82706715D01*
X133334046Y-82700934D01*
X133329398Y-82694668D01*
X133325387Y-82687976D01*
X133322052Y-82680923D01*
X133319423Y-82673578D01*
X133317528Y-82666010D01*
X133316383Y-82658292D01*
X133316000Y-82650500D01*
X133316000Y-82449500D01*
X133316383Y-82441708D01*
X133317528Y-82433990D01*
X133319423Y-82426422D01*
X133322052Y-82419077D01*
X133325387Y-82412024D01*
X133329398Y-82405332D01*
X133334046Y-82399066D01*
X133339285Y-82393285D01*
X133345066Y-82388046D01*
X133351332Y-82383398D01*
X133358024Y-82379387D01*
X133365077Y-82376052D01*
X133372422Y-82373423D01*
X133379990Y-82371528D01*
X133387708Y-82370383D01*
X133395500Y-82370000D01*
X133554500Y-82370000D01*
X133562292Y-82370383D01*
G37*
G36*
X134252292Y-82370383D02*
G01*
X134260010Y-82371528D01*
X134267578Y-82373423D01*
X134274923Y-82376052D01*
X134281976Y-82379387D01*
X134288668Y-82383398D01*
X134294934Y-82388046D01*
X134300715Y-82393285D01*
X134305954Y-82399066D01*
X134310602Y-82405332D01*
X134314613Y-82412024D01*
X134317948Y-82419077D01*
X134320577Y-82426422D01*
X134322472Y-82433990D01*
X134323617Y-82441708D01*
X134324000Y-82449500D01*
X134324000Y-82650500D01*
X134323617Y-82658292D01*
X134322472Y-82666010D01*
X134320577Y-82673578D01*
X134317948Y-82680923D01*
X134314613Y-82687976D01*
X134310602Y-82694668D01*
X134305954Y-82700934D01*
X134300715Y-82706715D01*
X134294934Y-82711954D01*
X134288668Y-82716602D01*
X134281976Y-82720613D01*
X134274923Y-82723948D01*
X134267578Y-82726577D01*
X134260010Y-82728472D01*
X134252292Y-82729617D01*
X134244500Y-82730000D01*
X134085500Y-82730000D01*
X134077708Y-82729617D01*
X134069990Y-82728472D01*
X134062422Y-82726577D01*
X134055077Y-82723948D01*
X134048024Y-82720613D01*
X134041332Y-82716602D01*
X134035066Y-82711954D01*
X134029285Y-82706715D01*
X134024046Y-82700934D01*
X134019398Y-82694668D01*
X134015387Y-82687976D01*
X134012052Y-82680923D01*
X134009423Y-82673578D01*
X134007528Y-82666010D01*
X134006383Y-82658292D01*
X134006000Y-82650500D01*
X134006000Y-82449500D01*
X134006383Y-82441708D01*
X134007528Y-82433990D01*
X134009423Y-82426422D01*
X134012052Y-82419077D01*
X134015387Y-82412024D01*
X134019398Y-82405332D01*
X134024046Y-82399066D01*
X134029285Y-82393285D01*
X134035066Y-82388046D01*
X134041332Y-82383398D01*
X134048024Y-82379387D01*
X134055077Y-82376052D01*
X134062422Y-82373423D01*
X134069990Y-82371528D01*
X134077708Y-82370383D01*
X134085500Y-82370000D01*
X134244500Y-82370000D01*
X134252292Y-82370383D01*
G37*
G36*
X130461958Y-72230710D02*
G01*
X130476276Y-72232834D01*
X130490317Y-72236351D01*
X130503946Y-72241228D01*
X130517031Y-72247417D01*
X130529447Y-72254858D01*
X130541073Y-72263481D01*
X130551798Y-72273202D01*
X130561519Y-72283927D01*
X130570142Y-72295553D01*
X130577583Y-72307969D01*
X130583772Y-72321054D01*
X130588649Y-72334683D01*
X130592166Y-72348724D01*
X130594290Y-72363042D01*
X130595000Y-72377500D01*
X130595000Y-72722500D01*
X130594290Y-72736958D01*
X130592166Y-72751276D01*
X130588649Y-72765317D01*
X130583772Y-72778946D01*
X130577583Y-72792031D01*
X130570142Y-72804447D01*
X130561519Y-72816073D01*
X130551798Y-72826798D01*
X130541073Y-72836519D01*
X130529447Y-72845142D01*
X130517031Y-72852583D01*
X130503946Y-72858772D01*
X130490317Y-72863649D01*
X130476276Y-72867166D01*
X130461958Y-72869290D01*
X130447500Y-72870000D01*
X130152500Y-72870000D01*
X130138042Y-72869290D01*
X130123724Y-72867166D01*
X130109683Y-72863649D01*
X130096054Y-72858772D01*
X130082969Y-72852583D01*
X130070553Y-72845142D01*
X130058927Y-72836519D01*
X130048202Y-72826798D01*
X130038481Y-72816073D01*
X130029858Y-72804447D01*
X130022417Y-72792031D01*
X130016228Y-72778946D01*
X130011351Y-72765317D01*
X130007834Y-72751276D01*
X130005710Y-72736958D01*
X130005000Y-72722500D01*
X130005000Y-72377500D01*
X130005710Y-72363042D01*
X130007834Y-72348724D01*
X130011351Y-72334683D01*
X130016228Y-72321054D01*
X130022417Y-72307969D01*
X130029858Y-72295553D01*
X130038481Y-72283927D01*
X130048202Y-72273202D01*
X130058927Y-72263481D01*
X130070553Y-72254858D01*
X130082969Y-72247417D01*
X130096054Y-72241228D01*
X130109683Y-72236351D01*
X130123724Y-72232834D01*
X130138042Y-72230710D01*
X130152500Y-72230000D01*
X130447500Y-72230000D01*
X130461958Y-72230710D01*
G37*
G36*
X129491958Y-72230710D02*
G01*
X129506276Y-72232834D01*
X129520317Y-72236351D01*
X129533946Y-72241228D01*
X129547031Y-72247417D01*
X129559447Y-72254858D01*
X129571073Y-72263481D01*
X129581798Y-72273202D01*
X129591519Y-72283927D01*
X129600142Y-72295553D01*
X129607583Y-72307969D01*
X129613772Y-72321054D01*
X129618649Y-72334683D01*
X129622166Y-72348724D01*
X129624290Y-72363042D01*
X129625000Y-72377500D01*
X129625000Y-72722500D01*
X129624290Y-72736958D01*
X129622166Y-72751276D01*
X129618649Y-72765317D01*
X129613772Y-72778946D01*
X129607583Y-72792031D01*
X129600142Y-72804447D01*
X129591519Y-72816073D01*
X129581798Y-72826798D01*
X129571073Y-72836519D01*
X129559447Y-72845142D01*
X129547031Y-72852583D01*
X129533946Y-72858772D01*
X129520317Y-72863649D01*
X129506276Y-72867166D01*
X129491958Y-72869290D01*
X129477500Y-72870000D01*
X129182500Y-72870000D01*
X129168042Y-72869290D01*
X129153724Y-72867166D01*
X129139683Y-72863649D01*
X129126054Y-72858772D01*
X129112969Y-72852583D01*
X129100553Y-72845142D01*
X129088927Y-72836519D01*
X129078202Y-72826798D01*
X129068481Y-72816073D01*
X129059858Y-72804447D01*
X129052417Y-72792031D01*
X129046228Y-72778946D01*
X129041351Y-72765317D01*
X129037834Y-72751276D01*
X129035710Y-72736958D01*
X129035000Y-72722500D01*
X129035000Y-72377500D01*
X129035710Y-72363042D01*
X129037834Y-72348724D01*
X129041351Y-72334683D01*
X129046228Y-72321054D01*
X129052417Y-72307969D01*
X129059858Y-72295553D01*
X129068481Y-72283927D01*
X129078202Y-72273202D01*
X129088927Y-72263481D01*
X129100553Y-72254858D01*
X129112969Y-72247417D01*
X129126054Y-72241228D01*
X129139683Y-72236351D01*
X129153724Y-72232834D01*
X129168042Y-72230710D01*
X129182500Y-72230000D01*
X129477500Y-72230000D01*
X129491958Y-72230710D01*
G37*
D19*
X132400000Y-80050000D03*
X133800000Y-80050000D03*
D20*
X124000000Y-80200000D03*
X125900000Y-80200000D03*
X125900000Y-82400000D03*
X124950000Y-82400000D03*
X124000000Y-82400000D03*
D12*
G36*
X140142292Y-82170383D02*
G01*
X140150010Y-82171528D01*
X140157578Y-82173423D01*
X140164923Y-82176052D01*
X140171976Y-82179387D01*
X140178668Y-82183398D01*
X140184934Y-82188046D01*
X140190715Y-82193285D01*
X140195954Y-82199066D01*
X140200602Y-82205332D01*
X140204613Y-82212024D01*
X140207948Y-82219077D01*
X140210577Y-82226422D01*
X140212472Y-82233990D01*
X140213617Y-82241708D01*
X140214000Y-82249500D01*
X140214000Y-82450500D01*
X140213617Y-82458292D01*
X140212472Y-82466010D01*
X140210577Y-82473578D01*
X140207948Y-82480923D01*
X140204613Y-82487976D01*
X140200602Y-82494668D01*
X140195954Y-82500934D01*
X140190715Y-82506715D01*
X140184934Y-82511954D01*
X140178668Y-82516602D01*
X140171976Y-82520613D01*
X140164923Y-82523948D01*
X140157578Y-82526577D01*
X140150010Y-82528472D01*
X140142292Y-82529617D01*
X140134500Y-82530000D01*
X139975500Y-82530000D01*
X139967708Y-82529617D01*
X139959990Y-82528472D01*
X139952422Y-82526577D01*
X139945077Y-82523948D01*
X139938024Y-82520613D01*
X139931332Y-82516602D01*
X139925066Y-82511954D01*
X139919285Y-82506715D01*
X139914046Y-82500934D01*
X139909398Y-82494668D01*
X139905387Y-82487976D01*
X139902052Y-82480923D01*
X139899423Y-82473578D01*
X139897528Y-82466010D01*
X139896383Y-82458292D01*
X139896000Y-82450500D01*
X139896000Y-82249500D01*
X139896383Y-82241708D01*
X139897528Y-82233990D01*
X139899423Y-82226422D01*
X139902052Y-82219077D01*
X139905387Y-82212024D01*
X139909398Y-82205332D01*
X139914046Y-82199066D01*
X139919285Y-82193285D01*
X139925066Y-82188046D01*
X139931332Y-82183398D01*
X139938024Y-82179387D01*
X139945077Y-82176052D01*
X139952422Y-82173423D01*
X139959990Y-82171528D01*
X139967708Y-82170383D01*
X139975500Y-82170000D01*
X140134500Y-82170000D01*
X140142292Y-82170383D01*
G37*
G36*
X140832292Y-82170383D02*
G01*
X140840010Y-82171528D01*
X140847578Y-82173423D01*
X140854923Y-82176052D01*
X140861976Y-82179387D01*
X140868668Y-82183398D01*
X140874934Y-82188046D01*
X140880715Y-82193285D01*
X140885954Y-82199066D01*
X140890602Y-82205332D01*
X140894613Y-82212024D01*
X140897948Y-82219077D01*
X140900577Y-82226422D01*
X140902472Y-82233990D01*
X140903617Y-82241708D01*
X140904000Y-82249500D01*
X140904000Y-82450500D01*
X140903617Y-82458292D01*
X140902472Y-82466010D01*
X140900577Y-82473578D01*
X140897948Y-82480923D01*
X140894613Y-82487976D01*
X140890602Y-82494668D01*
X140885954Y-82500934D01*
X140880715Y-82506715D01*
X140874934Y-82511954D01*
X140868668Y-82516602D01*
X140861976Y-82520613D01*
X140854923Y-82523948D01*
X140847578Y-82526577D01*
X140840010Y-82528472D01*
X140832292Y-82529617D01*
X140824500Y-82530000D01*
X140665500Y-82530000D01*
X140657708Y-82529617D01*
X140649990Y-82528472D01*
X140642422Y-82526577D01*
X140635077Y-82523948D01*
X140628024Y-82520613D01*
X140621332Y-82516602D01*
X140615066Y-82511954D01*
X140609285Y-82506715D01*
X140604046Y-82500934D01*
X140599398Y-82494668D01*
X140595387Y-82487976D01*
X140592052Y-82480923D01*
X140589423Y-82473578D01*
X140587528Y-82466010D01*
X140586383Y-82458292D01*
X140586000Y-82450500D01*
X140586000Y-82249500D01*
X140586383Y-82241708D01*
X140587528Y-82233990D01*
X140589423Y-82226422D01*
X140592052Y-82219077D01*
X140595387Y-82212024D01*
X140599398Y-82205332D01*
X140604046Y-82199066D01*
X140609285Y-82193285D01*
X140615066Y-82188046D01*
X140621332Y-82183398D01*
X140628024Y-82179387D01*
X140635077Y-82176052D01*
X140642422Y-82173423D01*
X140649990Y-82171528D01*
X140657708Y-82170383D01*
X140665500Y-82170000D01*
X140824500Y-82170000D01*
X140832292Y-82170383D01*
G37*
G36*
X138492292Y-82170383D02*
G01*
X138500010Y-82171528D01*
X138507578Y-82173423D01*
X138514923Y-82176052D01*
X138521976Y-82179387D01*
X138528668Y-82183398D01*
X138534934Y-82188046D01*
X138540715Y-82193285D01*
X138545954Y-82199066D01*
X138550602Y-82205332D01*
X138554613Y-82212024D01*
X138557948Y-82219077D01*
X138560577Y-82226422D01*
X138562472Y-82233990D01*
X138563617Y-82241708D01*
X138564000Y-82249500D01*
X138564000Y-82450500D01*
X138563617Y-82458292D01*
X138562472Y-82466010D01*
X138560577Y-82473578D01*
X138557948Y-82480923D01*
X138554613Y-82487976D01*
X138550602Y-82494668D01*
X138545954Y-82500934D01*
X138540715Y-82506715D01*
X138534934Y-82511954D01*
X138528668Y-82516602D01*
X138521976Y-82520613D01*
X138514923Y-82523948D01*
X138507578Y-82526577D01*
X138500010Y-82528472D01*
X138492292Y-82529617D01*
X138484500Y-82530000D01*
X138325500Y-82530000D01*
X138317708Y-82529617D01*
X138309990Y-82528472D01*
X138302422Y-82526577D01*
X138295077Y-82523948D01*
X138288024Y-82520613D01*
X138281332Y-82516602D01*
X138275066Y-82511954D01*
X138269285Y-82506715D01*
X138264046Y-82500934D01*
X138259398Y-82494668D01*
X138255387Y-82487976D01*
X138252052Y-82480923D01*
X138249423Y-82473578D01*
X138247528Y-82466010D01*
X138246383Y-82458292D01*
X138246000Y-82450500D01*
X138246000Y-82249500D01*
X138246383Y-82241708D01*
X138247528Y-82233990D01*
X138249423Y-82226422D01*
X138252052Y-82219077D01*
X138255387Y-82212024D01*
X138259398Y-82205332D01*
X138264046Y-82199066D01*
X138269285Y-82193285D01*
X138275066Y-82188046D01*
X138281332Y-82183398D01*
X138288024Y-82179387D01*
X138295077Y-82176052D01*
X138302422Y-82173423D01*
X138309990Y-82171528D01*
X138317708Y-82170383D01*
X138325500Y-82170000D01*
X138484500Y-82170000D01*
X138492292Y-82170383D01*
G37*
G36*
X139182292Y-82170383D02*
G01*
X139190010Y-82171528D01*
X139197578Y-82173423D01*
X139204923Y-82176052D01*
X139211976Y-82179387D01*
X139218668Y-82183398D01*
X139224934Y-82188046D01*
X139230715Y-82193285D01*
X139235954Y-82199066D01*
X139240602Y-82205332D01*
X139244613Y-82212024D01*
X139247948Y-82219077D01*
X139250577Y-82226422D01*
X139252472Y-82233990D01*
X139253617Y-82241708D01*
X139254000Y-82249500D01*
X139254000Y-82450500D01*
X139253617Y-82458292D01*
X139252472Y-82466010D01*
X139250577Y-82473578D01*
X139247948Y-82480923D01*
X139244613Y-82487976D01*
X139240602Y-82494668D01*
X139235954Y-82500934D01*
X139230715Y-82506715D01*
X139224934Y-82511954D01*
X139218668Y-82516602D01*
X139211976Y-82520613D01*
X139204923Y-82523948D01*
X139197578Y-82526577D01*
X139190010Y-82528472D01*
X139182292Y-82529617D01*
X139174500Y-82530000D01*
X139015500Y-82530000D01*
X139007708Y-82529617D01*
X138999990Y-82528472D01*
X138992422Y-82526577D01*
X138985077Y-82523948D01*
X138978024Y-82520613D01*
X138971332Y-82516602D01*
X138965066Y-82511954D01*
X138959285Y-82506715D01*
X138954046Y-82500934D01*
X138949398Y-82494668D01*
X138945387Y-82487976D01*
X138942052Y-82480923D01*
X138939423Y-82473578D01*
X138937528Y-82466010D01*
X138936383Y-82458292D01*
X138936000Y-82450500D01*
X138936000Y-82249500D01*
X138936383Y-82241708D01*
X138937528Y-82233990D01*
X138939423Y-82226422D01*
X138942052Y-82219077D01*
X138945387Y-82212024D01*
X138949398Y-82205332D01*
X138954046Y-82199066D01*
X138959285Y-82193285D01*
X138965066Y-82188046D01*
X138971332Y-82183398D01*
X138978024Y-82179387D01*
X138985077Y-82176052D01*
X138992422Y-82173423D01*
X138999990Y-82171528D01*
X139007708Y-82170383D01*
X139015500Y-82170000D01*
X139174500Y-82170000D01*
X139182292Y-82170383D01*
G37*
G36*
X128032292Y-73770383D02*
G01*
X128040010Y-73771528D01*
X128047578Y-73773423D01*
X128054923Y-73776052D01*
X128061976Y-73779387D01*
X128068668Y-73783398D01*
X128074934Y-73788046D01*
X128080715Y-73793285D01*
X128085954Y-73799066D01*
X128090602Y-73805332D01*
X128094613Y-73812024D01*
X128097948Y-73819077D01*
X128100577Y-73826422D01*
X128102472Y-73833990D01*
X128103617Y-73841708D01*
X128104000Y-73849500D01*
X128104000Y-74050500D01*
X128103617Y-74058292D01*
X128102472Y-74066010D01*
X128100577Y-74073578D01*
X128097948Y-74080923D01*
X128094613Y-74087976D01*
X128090602Y-74094668D01*
X128085954Y-74100934D01*
X128080715Y-74106715D01*
X128074934Y-74111954D01*
X128068668Y-74116602D01*
X128061976Y-74120613D01*
X128054923Y-74123948D01*
X128047578Y-74126577D01*
X128040010Y-74128472D01*
X128032292Y-74129617D01*
X128024500Y-74130000D01*
X127865500Y-74130000D01*
X127857708Y-74129617D01*
X127849990Y-74128472D01*
X127842422Y-74126577D01*
X127835077Y-74123948D01*
X127828024Y-74120613D01*
X127821332Y-74116602D01*
X127815066Y-74111954D01*
X127809285Y-74106715D01*
X127804046Y-74100934D01*
X127799398Y-74094668D01*
X127795387Y-74087976D01*
X127792052Y-74080923D01*
X127789423Y-74073578D01*
X127787528Y-74066010D01*
X127786383Y-74058292D01*
X127786000Y-74050500D01*
X127786000Y-73849500D01*
X127786383Y-73841708D01*
X127787528Y-73833990D01*
X127789423Y-73826422D01*
X127792052Y-73819077D01*
X127795387Y-73812024D01*
X127799398Y-73805332D01*
X127804046Y-73799066D01*
X127809285Y-73793285D01*
X127815066Y-73788046D01*
X127821332Y-73783398D01*
X127828024Y-73779387D01*
X127835077Y-73776052D01*
X127842422Y-73773423D01*
X127849990Y-73771528D01*
X127857708Y-73770383D01*
X127865500Y-73770000D01*
X128024500Y-73770000D01*
X128032292Y-73770383D01*
G37*
G36*
X127342292Y-73770383D02*
G01*
X127350010Y-73771528D01*
X127357578Y-73773423D01*
X127364923Y-73776052D01*
X127371976Y-73779387D01*
X127378668Y-73783398D01*
X127384934Y-73788046D01*
X127390715Y-73793285D01*
X127395954Y-73799066D01*
X127400602Y-73805332D01*
X127404613Y-73812024D01*
X127407948Y-73819077D01*
X127410577Y-73826422D01*
X127412472Y-73833990D01*
X127413617Y-73841708D01*
X127414000Y-73849500D01*
X127414000Y-74050500D01*
X127413617Y-74058292D01*
X127412472Y-74066010D01*
X127410577Y-74073578D01*
X127407948Y-74080923D01*
X127404613Y-74087976D01*
X127400602Y-74094668D01*
X127395954Y-74100934D01*
X127390715Y-74106715D01*
X127384934Y-74111954D01*
X127378668Y-74116602D01*
X127371976Y-74120613D01*
X127364923Y-74123948D01*
X127357578Y-74126577D01*
X127350010Y-74128472D01*
X127342292Y-74129617D01*
X127334500Y-74130000D01*
X127175500Y-74130000D01*
X127167708Y-74129617D01*
X127159990Y-74128472D01*
X127152422Y-74126577D01*
X127145077Y-74123948D01*
X127138024Y-74120613D01*
X127131332Y-74116602D01*
X127125066Y-74111954D01*
X127119285Y-74106715D01*
X127114046Y-74100934D01*
X127109398Y-74094668D01*
X127105387Y-74087976D01*
X127102052Y-74080923D01*
X127099423Y-74073578D01*
X127097528Y-74066010D01*
X127096383Y-74058292D01*
X127096000Y-74050500D01*
X127096000Y-73849500D01*
X127096383Y-73841708D01*
X127097528Y-73833990D01*
X127099423Y-73826422D01*
X127102052Y-73819077D01*
X127105387Y-73812024D01*
X127109398Y-73805332D01*
X127114046Y-73799066D01*
X127119285Y-73793285D01*
X127125066Y-73788046D01*
X127131332Y-73783398D01*
X127138024Y-73779387D01*
X127145077Y-73776052D01*
X127152422Y-73773423D01*
X127159990Y-73771528D01*
X127167708Y-73770383D01*
X127175500Y-73770000D01*
X127334500Y-73770000D01*
X127342292Y-73770383D01*
G37*
G36*
X124332292Y-74870383D02*
G01*
X124340010Y-74871528D01*
X124347578Y-74873423D01*
X124354923Y-74876052D01*
X124361976Y-74879387D01*
X124368668Y-74883398D01*
X124374934Y-74888046D01*
X124380715Y-74893285D01*
X124385954Y-74899066D01*
X124390602Y-74905332D01*
X124394613Y-74912024D01*
X124397948Y-74919077D01*
X124400577Y-74926422D01*
X124402472Y-74933990D01*
X124403617Y-74941708D01*
X124404000Y-74949500D01*
X124404000Y-75150500D01*
X124403617Y-75158292D01*
X124402472Y-75166010D01*
X124400577Y-75173578D01*
X124397948Y-75180923D01*
X124394613Y-75187976D01*
X124390602Y-75194668D01*
X124385954Y-75200934D01*
X124380715Y-75206715D01*
X124374934Y-75211954D01*
X124368668Y-75216602D01*
X124361976Y-75220613D01*
X124354923Y-75223948D01*
X124347578Y-75226577D01*
X124340010Y-75228472D01*
X124332292Y-75229617D01*
X124324500Y-75230000D01*
X124165500Y-75230000D01*
X124157708Y-75229617D01*
X124149990Y-75228472D01*
X124142422Y-75226577D01*
X124135077Y-75223948D01*
X124128024Y-75220613D01*
X124121332Y-75216602D01*
X124115066Y-75211954D01*
X124109285Y-75206715D01*
X124104046Y-75200934D01*
X124099398Y-75194668D01*
X124095387Y-75187976D01*
X124092052Y-75180923D01*
X124089423Y-75173578D01*
X124087528Y-75166010D01*
X124086383Y-75158292D01*
X124086000Y-75150500D01*
X124086000Y-74949500D01*
X124086383Y-74941708D01*
X124087528Y-74933990D01*
X124089423Y-74926422D01*
X124092052Y-74919077D01*
X124095387Y-74912024D01*
X124099398Y-74905332D01*
X124104046Y-74899066D01*
X124109285Y-74893285D01*
X124115066Y-74888046D01*
X124121332Y-74883398D01*
X124128024Y-74879387D01*
X124135077Y-74876052D01*
X124142422Y-74873423D01*
X124149990Y-74871528D01*
X124157708Y-74870383D01*
X124165500Y-74870000D01*
X124324500Y-74870000D01*
X124332292Y-74870383D01*
G37*
G36*
X123642292Y-74870383D02*
G01*
X123650010Y-74871528D01*
X123657578Y-74873423D01*
X123664923Y-74876052D01*
X123671976Y-74879387D01*
X123678668Y-74883398D01*
X123684934Y-74888046D01*
X123690715Y-74893285D01*
X123695954Y-74899066D01*
X123700602Y-74905332D01*
X123704613Y-74912024D01*
X123707948Y-74919077D01*
X123710577Y-74926422D01*
X123712472Y-74933990D01*
X123713617Y-74941708D01*
X123714000Y-74949500D01*
X123714000Y-75150500D01*
X123713617Y-75158292D01*
X123712472Y-75166010D01*
X123710577Y-75173578D01*
X123707948Y-75180923D01*
X123704613Y-75187976D01*
X123700602Y-75194668D01*
X123695954Y-75200934D01*
X123690715Y-75206715D01*
X123684934Y-75211954D01*
X123678668Y-75216602D01*
X123671976Y-75220613D01*
X123664923Y-75223948D01*
X123657578Y-75226577D01*
X123650010Y-75228472D01*
X123642292Y-75229617D01*
X123634500Y-75230000D01*
X123475500Y-75230000D01*
X123467708Y-75229617D01*
X123459990Y-75228472D01*
X123452422Y-75226577D01*
X123445077Y-75223948D01*
X123438024Y-75220613D01*
X123431332Y-75216602D01*
X123425066Y-75211954D01*
X123419285Y-75206715D01*
X123414046Y-75200934D01*
X123409398Y-75194668D01*
X123405387Y-75187976D01*
X123402052Y-75180923D01*
X123399423Y-75173578D01*
X123397528Y-75166010D01*
X123396383Y-75158292D01*
X123396000Y-75150500D01*
X123396000Y-74949500D01*
X123396383Y-74941708D01*
X123397528Y-74933990D01*
X123399423Y-74926422D01*
X123402052Y-74919077D01*
X123405387Y-74912024D01*
X123409398Y-74905332D01*
X123414046Y-74899066D01*
X123419285Y-74893285D01*
X123425066Y-74888046D01*
X123431332Y-74883398D01*
X123438024Y-74879387D01*
X123445077Y-74876052D01*
X123452422Y-74873423D01*
X123459990Y-74871528D01*
X123467708Y-74870383D01*
X123475500Y-74870000D01*
X123634500Y-74870000D01*
X123642292Y-74870383D01*
G37*
G36*
X123642292Y-73970383D02*
G01*
X123650010Y-73971528D01*
X123657578Y-73973423D01*
X123664923Y-73976052D01*
X123671976Y-73979387D01*
X123678668Y-73983398D01*
X123684934Y-73988046D01*
X123690715Y-73993285D01*
X123695954Y-73999066D01*
X123700602Y-74005332D01*
X123704613Y-74012024D01*
X123707948Y-74019077D01*
X123710577Y-74026422D01*
X123712472Y-74033990D01*
X123713617Y-74041708D01*
X123714000Y-74049500D01*
X123714000Y-74250500D01*
X123713617Y-74258292D01*
X123712472Y-74266010D01*
X123710577Y-74273578D01*
X123707948Y-74280923D01*
X123704613Y-74287976D01*
X123700602Y-74294668D01*
X123695954Y-74300934D01*
X123690715Y-74306715D01*
X123684934Y-74311954D01*
X123678668Y-74316602D01*
X123671976Y-74320613D01*
X123664923Y-74323948D01*
X123657578Y-74326577D01*
X123650010Y-74328472D01*
X123642292Y-74329617D01*
X123634500Y-74330000D01*
X123475500Y-74330000D01*
X123467708Y-74329617D01*
X123459990Y-74328472D01*
X123452422Y-74326577D01*
X123445077Y-74323948D01*
X123438024Y-74320613D01*
X123431332Y-74316602D01*
X123425066Y-74311954D01*
X123419285Y-74306715D01*
X123414046Y-74300934D01*
X123409398Y-74294668D01*
X123405387Y-74287976D01*
X123402052Y-74280923D01*
X123399423Y-74273578D01*
X123397528Y-74266010D01*
X123396383Y-74258292D01*
X123396000Y-74250500D01*
X123396000Y-74049500D01*
X123396383Y-74041708D01*
X123397528Y-74033990D01*
X123399423Y-74026422D01*
X123402052Y-74019077D01*
X123405387Y-74012024D01*
X123409398Y-74005332D01*
X123414046Y-73999066D01*
X123419285Y-73993285D01*
X123425066Y-73988046D01*
X123431332Y-73983398D01*
X123438024Y-73979387D01*
X123445077Y-73976052D01*
X123452422Y-73973423D01*
X123459990Y-73971528D01*
X123467708Y-73970383D01*
X123475500Y-73970000D01*
X123634500Y-73970000D01*
X123642292Y-73970383D01*
G37*
G36*
X124332292Y-73970383D02*
G01*
X124340010Y-73971528D01*
X124347578Y-73973423D01*
X124354923Y-73976052D01*
X124361976Y-73979387D01*
X124368668Y-73983398D01*
X124374934Y-73988046D01*
X124380715Y-73993285D01*
X124385954Y-73999066D01*
X124390602Y-74005332D01*
X124394613Y-74012024D01*
X124397948Y-74019077D01*
X124400577Y-74026422D01*
X124402472Y-74033990D01*
X124403617Y-74041708D01*
X124404000Y-74049500D01*
X124404000Y-74250500D01*
X124403617Y-74258292D01*
X124402472Y-74266010D01*
X124400577Y-74273578D01*
X124397948Y-74280923D01*
X124394613Y-74287976D01*
X124390602Y-74294668D01*
X124385954Y-74300934D01*
X124380715Y-74306715D01*
X124374934Y-74311954D01*
X124368668Y-74316602D01*
X124361976Y-74320613D01*
X124354923Y-74323948D01*
X124347578Y-74326577D01*
X124340010Y-74328472D01*
X124332292Y-74329617D01*
X124324500Y-74330000D01*
X124165500Y-74330000D01*
X124157708Y-74329617D01*
X124149990Y-74328472D01*
X124142422Y-74326577D01*
X124135077Y-74323948D01*
X124128024Y-74320613D01*
X124121332Y-74316602D01*
X124115066Y-74311954D01*
X124109285Y-74306715D01*
X124104046Y-74300934D01*
X124099398Y-74294668D01*
X124095387Y-74287976D01*
X124092052Y-74280923D01*
X124089423Y-74273578D01*
X124087528Y-74266010D01*
X124086383Y-74258292D01*
X124086000Y-74250500D01*
X124086000Y-74049500D01*
X124086383Y-74041708D01*
X124087528Y-74033990D01*
X124089423Y-74026422D01*
X124092052Y-74019077D01*
X124095387Y-74012024D01*
X124099398Y-74005332D01*
X124104046Y-73999066D01*
X124109285Y-73993285D01*
X124115066Y-73988046D01*
X124121332Y-73983398D01*
X124128024Y-73979387D01*
X124135077Y-73976052D01*
X124142422Y-73973423D01*
X124149990Y-73971528D01*
X124157708Y-73970383D01*
X124165500Y-73970000D01*
X124324500Y-73970000D01*
X124332292Y-73970383D01*
G37*
G36*
X132552292Y-76870383D02*
G01*
X132560010Y-76871528D01*
X132567578Y-76873423D01*
X132574923Y-76876052D01*
X132581976Y-76879387D01*
X132588668Y-76883398D01*
X132594934Y-76888046D01*
X132600715Y-76893285D01*
X132605954Y-76899066D01*
X132610602Y-76905332D01*
X132614613Y-76912024D01*
X132617948Y-76919077D01*
X132620577Y-76926422D01*
X132622472Y-76933990D01*
X132623617Y-76941708D01*
X132624000Y-76949500D01*
X132624000Y-77150500D01*
X132623617Y-77158292D01*
X132622472Y-77166010D01*
X132620577Y-77173578D01*
X132617948Y-77180923D01*
X132614613Y-77187976D01*
X132610602Y-77194668D01*
X132605954Y-77200934D01*
X132600715Y-77206715D01*
X132594934Y-77211954D01*
X132588668Y-77216602D01*
X132581976Y-77220613D01*
X132574923Y-77223948D01*
X132567578Y-77226577D01*
X132560010Y-77228472D01*
X132552292Y-77229617D01*
X132544500Y-77230000D01*
X132385500Y-77230000D01*
X132377708Y-77229617D01*
X132369990Y-77228472D01*
X132362422Y-77226577D01*
X132355077Y-77223948D01*
X132348024Y-77220613D01*
X132341332Y-77216602D01*
X132335066Y-77211954D01*
X132329285Y-77206715D01*
X132324046Y-77200934D01*
X132319398Y-77194668D01*
X132315387Y-77187976D01*
X132312052Y-77180923D01*
X132309423Y-77173578D01*
X132307528Y-77166010D01*
X132306383Y-77158292D01*
X132306000Y-77150500D01*
X132306000Y-76949500D01*
X132306383Y-76941708D01*
X132307528Y-76933990D01*
X132309423Y-76926422D01*
X132312052Y-76919077D01*
X132315387Y-76912024D01*
X132319398Y-76905332D01*
X132324046Y-76899066D01*
X132329285Y-76893285D01*
X132335066Y-76888046D01*
X132341332Y-76883398D01*
X132348024Y-76879387D01*
X132355077Y-76876052D01*
X132362422Y-76873423D01*
X132369990Y-76871528D01*
X132377708Y-76870383D01*
X132385500Y-76870000D01*
X132544500Y-76870000D01*
X132552292Y-76870383D01*
G37*
G36*
X131862292Y-76870383D02*
G01*
X131870010Y-76871528D01*
X131877578Y-76873423D01*
X131884923Y-76876052D01*
X131891976Y-76879387D01*
X131898668Y-76883398D01*
X131904934Y-76888046D01*
X131910715Y-76893285D01*
X131915954Y-76899066D01*
X131920602Y-76905332D01*
X131924613Y-76912024D01*
X131927948Y-76919077D01*
X131930577Y-76926422D01*
X131932472Y-76933990D01*
X131933617Y-76941708D01*
X131934000Y-76949500D01*
X131934000Y-77150500D01*
X131933617Y-77158292D01*
X131932472Y-77166010D01*
X131930577Y-77173578D01*
X131927948Y-77180923D01*
X131924613Y-77187976D01*
X131920602Y-77194668D01*
X131915954Y-77200934D01*
X131910715Y-77206715D01*
X131904934Y-77211954D01*
X131898668Y-77216602D01*
X131891976Y-77220613D01*
X131884923Y-77223948D01*
X131877578Y-77226577D01*
X131870010Y-77228472D01*
X131862292Y-77229617D01*
X131854500Y-77230000D01*
X131695500Y-77230000D01*
X131687708Y-77229617D01*
X131679990Y-77228472D01*
X131672422Y-77226577D01*
X131665077Y-77223948D01*
X131658024Y-77220613D01*
X131651332Y-77216602D01*
X131645066Y-77211954D01*
X131639285Y-77206715D01*
X131634046Y-77200934D01*
X131629398Y-77194668D01*
X131625387Y-77187976D01*
X131622052Y-77180923D01*
X131619423Y-77173578D01*
X131617528Y-77166010D01*
X131616383Y-77158292D01*
X131616000Y-77150500D01*
X131616000Y-76949500D01*
X131616383Y-76941708D01*
X131617528Y-76933990D01*
X131619423Y-76926422D01*
X131622052Y-76919077D01*
X131625387Y-76912024D01*
X131629398Y-76905332D01*
X131634046Y-76899066D01*
X131639285Y-76893285D01*
X131645066Y-76888046D01*
X131651332Y-76883398D01*
X131658024Y-76879387D01*
X131665077Y-76876052D01*
X131672422Y-76873423D01*
X131679990Y-76871528D01*
X131687708Y-76870383D01*
X131695500Y-76870000D01*
X131854500Y-76870000D01*
X131862292Y-76870383D01*
G37*
G36*
X143562292Y-76670383D02*
G01*
X143570010Y-76671528D01*
X143577578Y-76673423D01*
X143584923Y-76676052D01*
X143591976Y-76679387D01*
X143598668Y-76683398D01*
X143604934Y-76688046D01*
X143610715Y-76693285D01*
X143615954Y-76699066D01*
X143620602Y-76705332D01*
X143624613Y-76712024D01*
X143627948Y-76719077D01*
X143630577Y-76726422D01*
X143632472Y-76733990D01*
X143633617Y-76741708D01*
X143634000Y-76749500D01*
X143634000Y-76950500D01*
X143633617Y-76958292D01*
X143632472Y-76966010D01*
X143630577Y-76973578D01*
X143627948Y-76980923D01*
X143624613Y-76987976D01*
X143620602Y-76994668D01*
X143615954Y-77000934D01*
X143610715Y-77006715D01*
X143604934Y-77011954D01*
X143598668Y-77016602D01*
X143591976Y-77020613D01*
X143584923Y-77023948D01*
X143577578Y-77026577D01*
X143570010Y-77028472D01*
X143562292Y-77029617D01*
X143554500Y-77030000D01*
X143395500Y-77030000D01*
X143387708Y-77029617D01*
X143379990Y-77028472D01*
X143372422Y-77026577D01*
X143365077Y-77023948D01*
X143358024Y-77020613D01*
X143351332Y-77016602D01*
X143345066Y-77011954D01*
X143339285Y-77006715D01*
X143334046Y-77000934D01*
X143329398Y-76994668D01*
X143325387Y-76987976D01*
X143322052Y-76980923D01*
X143319423Y-76973578D01*
X143317528Y-76966010D01*
X143316383Y-76958292D01*
X143316000Y-76950500D01*
X143316000Y-76749500D01*
X143316383Y-76741708D01*
X143317528Y-76733990D01*
X143319423Y-76726422D01*
X143322052Y-76719077D01*
X143325387Y-76712024D01*
X143329398Y-76705332D01*
X143334046Y-76699066D01*
X143339285Y-76693285D01*
X143345066Y-76688046D01*
X143351332Y-76683398D01*
X143358024Y-76679387D01*
X143365077Y-76676052D01*
X143372422Y-76673423D01*
X143379990Y-76671528D01*
X143387708Y-76670383D01*
X143395500Y-76670000D01*
X143554500Y-76670000D01*
X143562292Y-76670383D01*
G37*
G36*
X144252292Y-76670383D02*
G01*
X144260010Y-76671528D01*
X144267578Y-76673423D01*
X144274923Y-76676052D01*
X144281976Y-76679387D01*
X144288668Y-76683398D01*
X144294934Y-76688046D01*
X144300715Y-76693285D01*
X144305954Y-76699066D01*
X144310602Y-76705332D01*
X144314613Y-76712024D01*
X144317948Y-76719077D01*
X144320577Y-76726422D01*
X144322472Y-76733990D01*
X144323617Y-76741708D01*
X144324000Y-76749500D01*
X144324000Y-76950500D01*
X144323617Y-76958292D01*
X144322472Y-76966010D01*
X144320577Y-76973578D01*
X144317948Y-76980923D01*
X144314613Y-76987976D01*
X144310602Y-76994668D01*
X144305954Y-77000934D01*
X144300715Y-77006715D01*
X144294934Y-77011954D01*
X144288668Y-77016602D01*
X144281976Y-77020613D01*
X144274923Y-77023948D01*
X144267578Y-77026577D01*
X144260010Y-77028472D01*
X144252292Y-77029617D01*
X144244500Y-77030000D01*
X144085500Y-77030000D01*
X144077708Y-77029617D01*
X144069990Y-77028472D01*
X144062422Y-77026577D01*
X144055077Y-77023948D01*
X144048024Y-77020613D01*
X144041332Y-77016602D01*
X144035066Y-77011954D01*
X144029285Y-77006715D01*
X144024046Y-77000934D01*
X144019398Y-76994668D01*
X144015387Y-76987976D01*
X144012052Y-76980923D01*
X144009423Y-76973578D01*
X144007528Y-76966010D01*
X144006383Y-76958292D01*
X144006000Y-76950500D01*
X144006000Y-76749500D01*
X144006383Y-76741708D01*
X144007528Y-76733990D01*
X144009423Y-76726422D01*
X144012052Y-76719077D01*
X144015387Y-76712024D01*
X144019398Y-76705332D01*
X144024046Y-76699066D01*
X144029285Y-76693285D01*
X144035066Y-76688046D01*
X144041332Y-76683398D01*
X144048024Y-76679387D01*
X144055077Y-76676052D01*
X144062422Y-76673423D01*
X144069990Y-76671528D01*
X144077708Y-76670383D01*
X144085500Y-76670000D01*
X144244500Y-76670000D01*
X144252292Y-76670383D01*
G37*
G36*
X139862292Y-71970383D02*
G01*
X139870010Y-71971528D01*
X139877578Y-71973423D01*
X139884923Y-71976052D01*
X139891976Y-71979387D01*
X139898668Y-71983398D01*
X139904934Y-71988046D01*
X139910715Y-71993285D01*
X139915954Y-71999066D01*
X139920602Y-72005332D01*
X139924613Y-72012024D01*
X139927948Y-72019077D01*
X139930577Y-72026422D01*
X139932472Y-72033990D01*
X139933617Y-72041708D01*
X139934000Y-72049500D01*
X139934000Y-72250500D01*
X139933617Y-72258292D01*
X139932472Y-72266010D01*
X139930577Y-72273578D01*
X139927948Y-72280923D01*
X139924613Y-72287976D01*
X139920602Y-72294668D01*
X139915954Y-72300934D01*
X139910715Y-72306715D01*
X139904934Y-72311954D01*
X139898668Y-72316602D01*
X139891976Y-72320613D01*
X139884923Y-72323948D01*
X139877578Y-72326577D01*
X139870010Y-72328472D01*
X139862292Y-72329617D01*
X139854500Y-72330000D01*
X139695500Y-72330000D01*
X139687708Y-72329617D01*
X139679990Y-72328472D01*
X139672422Y-72326577D01*
X139665077Y-72323948D01*
X139658024Y-72320613D01*
X139651332Y-72316602D01*
X139645066Y-72311954D01*
X139639285Y-72306715D01*
X139634046Y-72300934D01*
X139629398Y-72294668D01*
X139625387Y-72287976D01*
X139622052Y-72280923D01*
X139619423Y-72273578D01*
X139617528Y-72266010D01*
X139616383Y-72258292D01*
X139616000Y-72250500D01*
X139616000Y-72049500D01*
X139616383Y-72041708D01*
X139617528Y-72033990D01*
X139619423Y-72026422D01*
X139622052Y-72019077D01*
X139625387Y-72012024D01*
X139629398Y-72005332D01*
X139634046Y-71999066D01*
X139639285Y-71993285D01*
X139645066Y-71988046D01*
X139651332Y-71983398D01*
X139658024Y-71979387D01*
X139665077Y-71976052D01*
X139672422Y-71973423D01*
X139679990Y-71971528D01*
X139687708Y-71970383D01*
X139695500Y-71970000D01*
X139854500Y-71970000D01*
X139862292Y-71970383D01*
G37*
G36*
X140552292Y-71970383D02*
G01*
X140560010Y-71971528D01*
X140567578Y-71973423D01*
X140574923Y-71976052D01*
X140581976Y-71979387D01*
X140588668Y-71983398D01*
X140594934Y-71988046D01*
X140600715Y-71993285D01*
X140605954Y-71999066D01*
X140610602Y-72005332D01*
X140614613Y-72012024D01*
X140617948Y-72019077D01*
X140620577Y-72026422D01*
X140622472Y-72033990D01*
X140623617Y-72041708D01*
X140624000Y-72049500D01*
X140624000Y-72250500D01*
X140623617Y-72258292D01*
X140622472Y-72266010D01*
X140620577Y-72273578D01*
X140617948Y-72280923D01*
X140614613Y-72287976D01*
X140610602Y-72294668D01*
X140605954Y-72300934D01*
X140600715Y-72306715D01*
X140594934Y-72311954D01*
X140588668Y-72316602D01*
X140581976Y-72320613D01*
X140574923Y-72323948D01*
X140567578Y-72326577D01*
X140560010Y-72328472D01*
X140552292Y-72329617D01*
X140544500Y-72330000D01*
X140385500Y-72330000D01*
X140377708Y-72329617D01*
X140369990Y-72328472D01*
X140362422Y-72326577D01*
X140355077Y-72323948D01*
X140348024Y-72320613D01*
X140341332Y-72316602D01*
X140335066Y-72311954D01*
X140329285Y-72306715D01*
X140324046Y-72300934D01*
X140319398Y-72294668D01*
X140315387Y-72287976D01*
X140312052Y-72280923D01*
X140309423Y-72273578D01*
X140307528Y-72266010D01*
X140306383Y-72258292D01*
X140306000Y-72250500D01*
X140306000Y-72049500D01*
X140306383Y-72041708D01*
X140307528Y-72033990D01*
X140309423Y-72026422D01*
X140312052Y-72019077D01*
X140315387Y-72012024D01*
X140319398Y-72005332D01*
X140324046Y-71999066D01*
X140329285Y-71993285D01*
X140335066Y-71988046D01*
X140341332Y-71983398D01*
X140348024Y-71979387D01*
X140355077Y-71976052D01*
X140362422Y-71973423D01*
X140369990Y-71971528D01*
X140377708Y-71970383D01*
X140385500Y-71970000D01*
X140544500Y-71970000D01*
X140552292Y-71970383D01*
G37*
G36*
X138815191Y-72876053D02*
G01*
X138836426Y-72879203D01*
X138857250Y-72884419D01*
X138877462Y-72891651D01*
X138896868Y-72900830D01*
X138915281Y-72911866D01*
X138932524Y-72924654D01*
X138948430Y-72939070D01*
X138962846Y-72954976D01*
X138975634Y-72972219D01*
X138986670Y-72990632D01*
X138995849Y-73010038D01*
X139003081Y-73030250D01*
X139008297Y-73051074D01*
X139011447Y-73072309D01*
X139012500Y-73093750D01*
X139012500Y-73606250D01*
X139011447Y-73627691D01*
X139008297Y-73648926D01*
X139003081Y-73669750D01*
X138995849Y-73689962D01*
X138986670Y-73709368D01*
X138975634Y-73727781D01*
X138962846Y-73745024D01*
X138948430Y-73760930D01*
X138932524Y-73775346D01*
X138915281Y-73788134D01*
X138896868Y-73799170D01*
X138877462Y-73808349D01*
X138857250Y-73815581D01*
X138836426Y-73820797D01*
X138815191Y-73823947D01*
X138793750Y-73825000D01*
X138356250Y-73825000D01*
X138334809Y-73823947D01*
X138313574Y-73820797D01*
X138292750Y-73815581D01*
X138272538Y-73808349D01*
X138253132Y-73799170D01*
X138234719Y-73788134D01*
X138217476Y-73775346D01*
X138201570Y-73760930D01*
X138187154Y-73745024D01*
X138174366Y-73727781D01*
X138163330Y-73709368D01*
X138154151Y-73689962D01*
X138146919Y-73669750D01*
X138141703Y-73648926D01*
X138138553Y-73627691D01*
X138137500Y-73606250D01*
X138137500Y-73093750D01*
X138138553Y-73072309D01*
X138141703Y-73051074D01*
X138146919Y-73030250D01*
X138154151Y-73010038D01*
X138163330Y-72990632D01*
X138174366Y-72972219D01*
X138187154Y-72954976D01*
X138201570Y-72939070D01*
X138217476Y-72924654D01*
X138234719Y-72911866D01*
X138253132Y-72900830D01*
X138272538Y-72891651D01*
X138292750Y-72884419D01*
X138313574Y-72879203D01*
X138334809Y-72876053D01*
X138356250Y-72875000D01*
X138793750Y-72875000D01*
X138815191Y-72876053D01*
G37*
G36*
X140390191Y-72876053D02*
G01*
X140411426Y-72879203D01*
X140432250Y-72884419D01*
X140452462Y-72891651D01*
X140471868Y-72900830D01*
X140490281Y-72911866D01*
X140507524Y-72924654D01*
X140523430Y-72939070D01*
X140537846Y-72954976D01*
X140550634Y-72972219D01*
X140561670Y-72990632D01*
X140570849Y-73010038D01*
X140578081Y-73030250D01*
X140583297Y-73051074D01*
X140586447Y-73072309D01*
X140587500Y-73093750D01*
X140587500Y-73606250D01*
X140586447Y-73627691D01*
X140583297Y-73648926D01*
X140578081Y-73669750D01*
X140570849Y-73689962D01*
X140561670Y-73709368D01*
X140550634Y-73727781D01*
X140537846Y-73745024D01*
X140523430Y-73760930D01*
X140507524Y-73775346D01*
X140490281Y-73788134D01*
X140471868Y-73799170D01*
X140452462Y-73808349D01*
X140432250Y-73815581D01*
X140411426Y-73820797D01*
X140390191Y-73823947D01*
X140368750Y-73825000D01*
X139931250Y-73825000D01*
X139909809Y-73823947D01*
X139888574Y-73820797D01*
X139867750Y-73815581D01*
X139847538Y-73808349D01*
X139828132Y-73799170D01*
X139809719Y-73788134D01*
X139792476Y-73775346D01*
X139776570Y-73760930D01*
X139762154Y-73745024D01*
X139749366Y-73727781D01*
X139738330Y-73709368D01*
X139729151Y-73689962D01*
X139721919Y-73669750D01*
X139716703Y-73648926D01*
X139713553Y-73627691D01*
X139712500Y-73606250D01*
X139712500Y-73093750D01*
X139713553Y-73072309D01*
X139716703Y-73051074D01*
X139721919Y-73030250D01*
X139729151Y-73010038D01*
X139738330Y-72990632D01*
X139749366Y-72972219D01*
X139762154Y-72954976D01*
X139776570Y-72939070D01*
X139792476Y-72924654D01*
X139809719Y-72911866D01*
X139828132Y-72900830D01*
X139847538Y-72891651D01*
X139867750Y-72884419D01*
X139888574Y-72879203D01*
X139909809Y-72876053D01*
X139931250Y-72875000D01*
X140368750Y-72875000D01*
X140390191Y-72876053D01*
G37*
G36*
X134112292Y-72270383D02*
G01*
X134120010Y-72271528D01*
X134127578Y-72273423D01*
X134134923Y-72276052D01*
X134141976Y-72279387D01*
X134148668Y-72283398D01*
X134154934Y-72288046D01*
X134160715Y-72293285D01*
X134165954Y-72299066D01*
X134170602Y-72305332D01*
X134174613Y-72312024D01*
X134177948Y-72319077D01*
X134180577Y-72326422D01*
X134182472Y-72333990D01*
X134183617Y-72341708D01*
X134184000Y-72349500D01*
X134184000Y-72550500D01*
X134183617Y-72558292D01*
X134182472Y-72566010D01*
X134180577Y-72573578D01*
X134177948Y-72580923D01*
X134174613Y-72587976D01*
X134170602Y-72594668D01*
X134165954Y-72600934D01*
X134160715Y-72606715D01*
X134154934Y-72611954D01*
X134148668Y-72616602D01*
X134141976Y-72620613D01*
X134134923Y-72623948D01*
X134127578Y-72626577D01*
X134120010Y-72628472D01*
X134112292Y-72629617D01*
X134104500Y-72630000D01*
X133945500Y-72630000D01*
X133937708Y-72629617D01*
X133929990Y-72628472D01*
X133922422Y-72626577D01*
X133915077Y-72623948D01*
X133908024Y-72620613D01*
X133901332Y-72616602D01*
X133895066Y-72611954D01*
X133889285Y-72606715D01*
X133884046Y-72600934D01*
X133879398Y-72594668D01*
X133875387Y-72587976D01*
X133872052Y-72580923D01*
X133869423Y-72573578D01*
X133867528Y-72566010D01*
X133866383Y-72558292D01*
X133866000Y-72550500D01*
X133866000Y-72349500D01*
X133866383Y-72341708D01*
X133867528Y-72333990D01*
X133869423Y-72326422D01*
X133872052Y-72319077D01*
X133875387Y-72312024D01*
X133879398Y-72305332D01*
X133884046Y-72299066D01*
X133889285Y-72293285D01*
X133895066Y-72288046D01*
X133901332Y-72283398D01*
X133908024Y-72279387D01*
X133915077Y-72276052D01*
X133922422Y-72273423D01*
X133929990Y-72271528D01*
X133937708Y-72270383D01*
X133945500Y-72270000D01*
X134104500Y-72270000D01*
X134112292Y-72270383D01*
G37*
G36*
X133422292Y-72270383D02*
G01*
X133430010Y-72271528D01*
X133437578Y-72273423D01*
X133444923Y-72276052D01*
X133451976Y-72279387D01*
X133458668Y-72283398D01*
X133464934Y-72288046D01*
X133470715Y-72293285D01*
X133475954Y-72299066D01*
X133480602Y-72305332D01*
X133484613Y-72312024D01*
X133487948Y-72319077D01*
X133490577Y-72326422D01*
X133492472Y-72333990D01*
X133493617Y-72341708D01*
X133494000Y-72349500D01*
X133494000Y-72550500D01*
X133493617Y-72558292D01*
X133492472Y-72566010D01*
X133490577Y-72573578D01*
X133487948Y-72580923D01*
X133484613Y-72587976D01*
X133480602Y-72594668D01*
X133475954Y-72600934D01*
X133470715Y-72606715D01*
X133464934Y-72611954D01*
X133458668Y-72616602D01*
X133451976Y-72620613D01*
X133444923Y-72623948D01*
X133437578Y-72626577D01*
X133430010Y-72628472D01*
X133422292Y-72629617D01*
X133414500Y-72630000D01*
X133255500Y-72630000D01*
X133247708Y-72629617D01*
X133239990Y-72628472D01*
X133232422Y-72626577D01*
X133225077Y-72623948D01*
X133218024Y-72620613D01*
X133211332Y-72616602D01*
X133205066Y-72611954D01*
X133199285Y-72606715D01*
X133194046Y-72600934D01*
X133189398Y-72594668D01*
X133185387Y-72587976D01*
X133182052Y-72580923D01*
X133179423Y-72573578D01*
X133177528Y-72566010D01*
X133176383Y-72558292D01*
X133176000Y-72550500D01*
X133176000Y-72349500D01*
X133176383Y-72341708D01*
X133177528Y-72333990D01*
X133179423Y-72326422D01*
X133182052Y-72319077D01*
X133185387Y-72312024D01*
X133189398Y-72305332D01*
X133194046Y-72299066D01*
X133199285Y-72293285D01*
X133205066Y-72288046D01*
X133211332Y-72283398D01*
X133218024Y-72279387D01*
X133225077Y-72276052D01*
X133232422Y-72273423D01*
X133239990Y-72271528D01*
X133247708Y-72270383D01*
X133255500Y-72270000D01*
X133414500Y-72270000D01*
X133422292Y-72270383D01*
G37*
G36*
X135565191Y-72876053D02*
G01*
X135586426Y-72879203D01*
X135607250Y-72884419D01*
X135627462Y-72891651D01*
X135646868Y-72900830D01*
X135665281Y-72911866D01*
X135682524Y-72924654D01*
X135698430Y-72939070D01*
X135712846Y-72954976D01*
X135725634Y-72972219D01*
X135736670Y-72990632D01*
X135745849Y-73010038D01*
X135753081Y-73030250D01*
X135758297Y-73051074D01*
X135761447Y-73072309D01*
X135762500Y-73093750D01*
X135762500Y-73606250D01*
X135761447Y-73627691D01*
X135758297Y-73648926D01*
X135753081Y-73669750D01*
X135745849Y-73689962D01*
X135736670Y-73709368D01*
X135725634Y-73727781D01*
X135712846Y-73745024D01*
X135698430Y-73760930D01*
X135682524Y-73775346D01*
X135665281Y-73788134D01*
X135646868Y-73799170D01*
X135627462Y-73808349D01*
X135607250Y-73815581D01*
X135586426Y-73820797D01*
X135565191Y-73823947D01*
X135543750Y-73825000D01*
X135106250Y-73825000D01*
X135084809Y-73823947D01*
X135063574Y-73820797D01*
X135042750Y-73815581D01*
X135022538Y-73808349D01*
X135003132Y-73799170D01*
X134984719Y-73788134D01*
X134967476Y-73775346D01*
X134951570Y-73760930D01*
X134937154Y-73745024D01*
X134924366Y-73727781D01*
X134913330Y-73709368D01*
X134904151Y-73689962D01*
X134896919Y-73669750D01*
X134891703Y-73648926D01*
X134888553Y-73627691D01*
X134887500Y-73606250D01*
X134887500Y-73093750D01*
X134888553Y-73072309D01*
X134891703Y-73051074D01*
X134896919Y-73030250D01*
X134904151Y-73010038D01*
X134913330Y-72990632D01*
X134924366Y-72972219D01*
X134937154Y-72954976D01*
X134951570Y-72939070D01*
X134967476Y-72924654D01*
X134984719Y-72911866D01*
X135003132Y-72900830D01*
X135022538Y-72891651D01*
X135042750Y-72884419D01*
X135063574Y-72879203D01*
X135084809Y-72876053D01*
X135106250Y-72875000D01*
X135543750Y-72875000D01*
X135565191Y-72876053D01*
G37*
G36*
X137140191Y-72876053D02*
G01*
X137161426Y-72879203D01*
X137182250Y-72884419D01*
X137202462Y-72891651D01*
X137221868Y-72900830D01*
X137240281Y-72911866D01*
X137257524Y-72924654D01*
X137273430Y-72939070D01*
X137287846Y-72954976D01*
X137300634Y-72972219D01*
X137311670Y-72990632D01*
X137320849Y-73010038D01*
X137328081Y-73030250D01*
X137333297Y-73051074D01*
X137336447Y-73072309D01*
X137337500Y-73093750D01*
X137337500Y-73606250D01*
X137336447Y-73627691D01*
X137333297Y-73648926D01*
X137328081Y-73669750D01*
X137320849Y-73689962D01*
X137311670Y-73709368D01*
X137300634Y-73727781D01*
X137287846Y-73745024D01*
X137273430Y-73760930D01*
X137257524Y-73775346D01*
X137240281Y-73788134D01*
X137221868Y-73799170D01*
X137202462Y-73808349D01*
X137182250Y-73815581D01*
X137161426Y-73820797D01*
X137140191Y-73823947D01*
X137118750Y-73825000D01*
X136681250Y-73825000D01*
X136659809Y-73823947D01*
X136638574Y-73820797D01*
X136617750Y-73815581D01*
X136597538Y-73808349D01*
X136578132Y-73799170D01*
X136559719Y-73788134D01*
X136542476Y-73775346D01*
X136526570Y-73760930D01*
X136512154Y-73745024D01*
X136499366Y-73727781D01*
X136488330Y-73709368D01*
X136479151Y-73689962D01*
X136471919Y-73669750D01*
X136466703Y-73648926D01*
X136463553Y-73627691D01*
X136462500Y-73606250D01*
X136462500Y-73093750D01*
X136463553Y-73072309D01*
X136466703Y-73051074D01*
X136471919Y-73030250D01*
X136479151Y-73010038D01*
X136488330Y-72990632D01*
X136499366Y-72972219D01*
X136512154Y-72954976D01*
X136526570Y-72939070D01*
X136542476Y-72924654D01*
X136559719Y-72911866D01*
X136578132Y-72900830D01*
X136597538Y-72891651D01*
X136617750Y-72884419D01*
X136638574Y-72879203D01*
X136659809Y-72876053D01*
X136681250Y-72875000D01*
X137118750Y-72875000D01*
X137140191Y-72876053D01*
G37*
G36*
X129540191Y-81976053D02*
G01*
X129561426Y-81979203D01*
X129582250Y-81984419D01*
X129602462Y-81991651D01*
X129621868Y-82000830D01*
X129640281Y-82011866D01*
X129657524Y-82024654D01*
X129673430Y-82039070D01*
X129687846Y-82054976D01*
X129700634Y-82072219D01*
X129711670Y-82090632D01*
X129720849Y-82110038D01*
X129728081Y-82130250D01*
X129733297Y-82151074D01*
X129736447Y-82172309D01*
X129737500Y-82193750D01*
X129737500Y-82706250D01*
X129736447Y-82727691D01*
X129733297Y-82748926D01*
X129728081Y-82769750D01*
X129720849Y-82789962D01*
X129711670Y-82809368D01*
X129700634Y-82827781D01*
X129687846Y-82845024D01*
X129673430Y-82860930D01*
X129657524Y-82875346D01*
X129640281Y-82888134D01*
X129621868Y-82899170D01*
X129602462Y-82908349D01*
X129582250Y-82915581D01*
X129561426Y-82920797D01*
X129540191Y-82923947D01*
X129518750Y-82925000D01*
X129081250Y-82925000D01*
X129059809Y-82923947D01*
X129038574Y-82920797D01*
X129017750Y-82915581D01*
X128997538Y-82908349D01*
X128978132Y-82899170D01*
X128959719Y-82888134D01*
X128942476Y-82875346D01*
X128926570Y-82860930D01*
X128912154Y-82845024D01*
X128899366Y-82827781D01*
X128888330Y-82809368D01*
X128879151Y-82789962D01*
X128871919Y-82769750D01*
X128866703Y-82748926D01*
X128863553Y-82727691D01*
X128862500Y-82706250D01*
X128862500Y-82193750D01*
X128863553Y-82172309D01*
X128866703Y-82151074D01*
X128871919Y-82130250D01*
X128879151Y-82110038D01*
X128888330Y-82090632D01*
X128899366Y-82072219D01*
X128912154Y-82054976D01*
X128926570Y-82039070D01*
X128942476Y-82024654D01*
X128959719Y-82011866D01*
X128978132Y-82000830D01*
X128997538Y-81991651D01*
X129017750Y-81984419D01*
X129038574Y-81979203D01*
X129059809Y-81976053D01*
X129081250Y-81975000D01*
X129518750Y-81975000D01*
X129540191Y-81976053D01*
G37*
G36*
X127965191Y-81976053D02*
G01*
X127986426Y-81979203D01*
X128007250Y-81984419D01*
X128027462Y-81991651D01*
X128046868Y-82000830D01*
X128065281Y-82011866D01*
X128082524Y-82024654D01*
X128098430Y-82039070D01*
X128112846Y-82054976D01*
X128125634Y-82072219D01*
X128136670Y-82090632D01*
X128145849Y-82110038D01*
X128153081Y-82130250D01*
X128158297Y-82151074D01*
X128161447Y-82172309D01*
X128162500Y-82193750D01*
X128162500Y-82706250D01*
X128161447Y-82727691D01*
X128158297Y-82748926D01*
X128153081Y-82769750D01*
X128145849Y-82789962D01*
X128136670Y-82809368D01*
X128125634Y-82827781D01*
X128112846Y-82845024D01*
X128098430Y-82860930D01*
X128082524Y-82875346D01*
X128065281Y-82888134D01*
X128046868Y-82899170D01*
X128027462Y-82908349D01*
X128007250Y-82915581D01*
X127986426Y-82920797D01*
X127965191Y-82923947D01*
X127943750Y-82925000D01*
X127506250Y-82925000D01*
X127484809Y-82923947D01*
X127463574Y-82920797D01*
X127442750Y-82915581D01*
X127422538Y-82908349D01*
X127403132Y-82899170D01*
X127384719Y-82888134D01*
X127367476Y-82875346D01*
X127351570Y-82860930D01*
X127337154Y-82845024D01*
X127324366Y-82827781D01*
X127313330Y-82809368D01*
X127304151Y-82789962D01*
X127296919Y-82769750D01*
X127291703Y-82748926D01*
X127288553Y-82727691D01*
X127287500Y-82706250D01*
X127287500Y-82193750D01*
X127288553Y-82172309D01*
X127291703Y-82151074D01*
X127296919Y-82130250D01*
X127304151Y-82110038D01*
X127313330Y-82090632D01*
X127324366Y-82072219D01*
X127337154Y-82054976D01*
X127351570Y-82039070D01*
X127367476Y-82024654D01*
X127384719Y-82011866D01*
X127403132Y-82000830D01*
X127422538Y-81991651D01*
X127442750Y-81984419D01*
X127463574Y-81979203D01*
X127484809Y-81976053D01*
X127506250Y-81975000D01*
X127943750Y-81975000D01*
X127965191Y-81976053D01*
G37*
G36*
X129540191Y-80276053D02*
G01*
X129561426Y-80279203D01*
X129582250Y-80284419D01*
X129602462Y-80291651D01*
X129621868Y-80300830D01*
X129640281Y-80311866D01*
X129657524Y-80324654D01*
X129673430Y-80339070D01*
X129687846Y-80354976D01*
X129700634Y-80372219D01*
X129711670Y-80390632D01*
X129720849Y-80410038D01*
X129728081Y-80430250D01*
X129733297Y-80451074D01*
X129736447Y-80472309D01*
X129737500Y-80493750D01*
X129737500Y-81006250D01*
X129736447Y-81027691D01*
X129733297Y-81048926D01*
X129728081Y-81069750D01*
X129720849Y-81089962D01*
X129711670Y-81109368D01*
X129700634Y-81127781D01*
X129687846Y-81145024D01*
X129673430Y-81160930D01*
X129657524Y-81175346D01*
X129640281Y-81188134D01*
X129621868Y-81199170D01*
X129602462Y-81208349D01*
X129582250Y-81215581D01*
X129561426Y-81220797D01*
X129540191Y-81223947D01*
X129518750Y-81225000D01*
X129081250Y-81225000D01*
X129059809Y-81223947D01*
X129038574Y-81220797D01*
X129017750Y-81215581D01*
X128997538Y-81208349D01*
X128978132Y-81199170D01*
X128959719Y-81188134D01*
X128942476Y-81175346D01*
X128926570Y-81160930D01*
X128912154Y-81145024D01*
X128899366Y-81127781D01*
X128888330Y-81109368D01*
X128879151Y-81089962D01*
X128871919Y-81069750D01*
X128866703Y-81048926D01*
X128863553Y-81027691D01*
X128862500Y-81006250D01*
X128862500Y-80493750D01*
X128863553Y-80472309D01*
X128866703Y-80451074D01*
X128871919Y-80430250D01*
X128879151Y-80410038D01*
X128888330Y-80390632D01*
X128899366Y-80372219D01*
X128912154Y-80354976D01*
X128926570Y-80339070D01*
X128942476Y-80324654D01*
X128959719Y-80311866D01*
X128978132Y-80300830D01*
X128997538Y-80291651D01*
X129017750Y-80284419D01*
X129038574Y-80279203D01*
X129059809Y-80276053D01*
X129081250Y-80275000D01*
X129518750Y-80275000D01*
X129540191Y-80276053D01*
G37*
G36*
X127965191Y-80276053D02*
G01*
X127986426Y-80279203D01*
X128007250Y-80284419D01*
X128027462Y-80291651D01*
X128046868Y-80300830D01*
X128065281Y-80311866D01*
X128082524Y-80324654D01*
X128098430Y-80339070D01*
X128112846Y-80354976D01*
X128125634Y-80372219D01*
X128136670Y-80390632D01*
X128145849Y-80410038D01*
X128153081Y-80430250D01*
X128158297Y-80451074D01*
X128161447Y-80472309D01*
X128162500Y-80493750D01*
X128162500Y-81006250D01*
X128161447Y-81027691D01*
X128158297Y-81048926D01*
X128153081Y-81069750D01*
X128145849Y-81089962D01*
X128136670Y-81109368D01*
X128125634Y-81127781D01*
X128112846Y-81145024D01*
X128098430Y-81160930D01*
X128082524Y-81175346D01*
X128065281Y-81188134D01*
X128046868Y-81199170D01*
X128027462Y-81208349D01*
X128007250Y-81215581D01*
X127986426Y-81220797D01*
X127965191Y-81223947D01*
X127943750Y-81225000D01*
X127506250Y-81225000D01*
X127484809Y-81223947D01*
X127463574Y-81220797D01*
X127442750Y-81215581D01*
X127422538Y-81208349D01*
X127403132Y-81199170D01*
X127384719Y-81188134D01*
X127367476Y-81175346D01*
X127351570Y-81160930D01*
X127337154Y-81145024D01*
X127324366Y-81127781D01*
X127313330Y-81109368D01*
X127304151Y-81089962D01*
X127296919Y-81069750D01*
X127291703Y-81048926D01*
X127288553Y-81027691D01*
X127287500Y-81006250D01*
X127287500Y-80493750D01*
X127288553Y-80472309D01*
X127291703Y-80451074D01*
X127296919Y-80430250D01*
X127304151Y-80410038D01*
X127313330Y-80390632D01*
X127324366Y-80372219D01*
X127337154Y-80354976D01*
X127351570Y-80339070D01*
X127367476Y-80324654D01*
X127384719Y-80311866D01*
X127403132Y-80300830D01*
X127422538Y-80291651D01*
X127442750Y-80284419D01*
X127463574Y-80279203D01*
X127484809Y-80276053D01*
X127506250Y-80275000D01*
X127943750Y-80275000D01*
X127965191Y-80276053D01*
G37*
G36*
X126446958Y-73530710D02*
G01*
X126461276Y-73532834D01*
X126475317Y-73536351D01*
X126488946Y-73541228D01*
X126502031Y-73547417D01*
X126514447Y-73554858D01*
X126526073Y-73563481D01*
X126536798Y-73573202D01*
X126546519Y-73583927D01*
X126555142Y-73595553D01*
X126562583Y-73607969D01*
X126568772Y-73621054D01*
X126573649Y-73634683D01*
X126577166Y-73648724D01*
X126579290Y-73663042D01*
X126580000Y-73677500D01*
X126580000Y-74022500D01*
X126579290Y-74036958D01*
X126577166Y-74051276D01*
X126573649Y-74065317D01*
X126568772Y-74078946D01*
X126562583Y-74092031D01*
X126555142Y-74104447D01*
X126546519Y-74116073D01*
X126536798Y-74126798D01*
X126526073Y-74136519D01*
X126514447Y-74145142D01*
X126502031Y-74152583D01*
X126488946Y-74158772D01*
X126475317Y-74163649D01*
X126461276Y-74167166D01*
X126446958Y-74169290D01*
X126432500Y-74170000D01*
X126137500Y-74170000D01*
X126123042Y-74169290D01*
X126108724Y-74167166D01*
X126094683Y-74163649D01*
X126081054Y-74158772D01*
X126067969Y-74152583D01*
X126055553Y-74145142D01*
X126043927Y-74136519D01*
X126033202Y-74126798D01*
X126023481Y-74116073D01*
X126014858Y-74104447D01*
X126007417Y-74092031D01*
X126001228Y-74078946D01*
X125996351Y-74065317D01*
X125992834Y-74051276D01*
X125990710Y-74036958D01*
X125990000Y-74022500D01*
X125990000Y-73677500D01*
X125990710Y-73663042D01*
X125992834Y-73648724D01*
X125996351Y-73634683D01*
X126001228Y-73621054D01*
X126007417Y-73607969D01*
X126014858Y-73595553D01*
X126023481Y-73583927D01*
X126033202Y-73573202D01*
X126043927Y-73563481D01*
X126055553Y-73554858D01*
X126067969Y-73547417D01*
X126081054Y-73541228D01*
X126094683Y-73536351D01*
X126108724Y-73532834D01*
X126123042Y-73530710D01*
X126137500Y-73530000D01*
X126432500Y-73530000D01*
X126446958Y-73530710D01*
G37*
G36*
X125476958Y-73530710D02*
G01*
X125491276Y-73532834D01*
X125505317Y-73536351D01*
X125518946Y-73541228D01*
X125532031Y-73547417D01*
X125544447Y-73554858D01*
X125556073Y-73563481D01*
X125566798Y-73573202D01*
X125576519Y-73583927D01*
X125585142Y-73595553D01*
X125592583Y-73607969D01*
X125598772Y-73621054D01*
X125603649Y-73634683D01*
X125607166Y-73648724D01*
X125609290Y-73663042D01*
X125610000Y-73677500D01*
X125610000Y-74022500D01*
X125609290Y-74036958D01*
X125607166Y-74051276D01*
X125603649Y-74065317D01*
X125598772Y-74078946D01*
X125592583Y-74092031D01*
X125585142Y-74104447D01*
X125576519Y-74116073D01*
X125566798Y-74126798D01*
X125556073Y-74136519D01*
X125544447Y-74145142D01*
X125532031Y-74152583D01*
X125518946Y-74158772D01*
X125505317Y-74163649D01*
X125491276Y-74167166D01*
X125476958Y-74169290D01*
X125462500Y-74170000D01*
X125167500Y-74170000D01*
X125153042Y-74169290D01*
X125138724Y-74167166D01*
X125124683Y-74163649D01*
X125111054Y-74158772D01*
X125097969Y-74152583D01*
X125085553Y-74145142D01*
X125073927Y-74136519D01*
X125063202Y-74126798D01*
X125053481Y-74116073D01*
X125044858Y-74104447D01*
X125037417Y-74092031D01*
X125031228Y-74078946D01*
X125026351Y-74065317D01*
X125022834Y-74051276D01*
X125020710Y-74036958D01*
X125020000Y-74022500D01*
X125020000Y-73677500D01*
X125020710Y-73663042D01*
X125022834Y-73648724D01*
X125026351Y-73634683D01*
X125031228Y-73621054D01*
X125037417Y-73607969D01*
X125044858Y-73595553D01*
X125053481Y-73583927D01*
X125063202Y-73573202D01*
X125073927Y-73563481D01*
X125085553Y-73554858D01*
X125097969Y-73547417D01*
X125111054Y-73541228D01*
X125124683Y-73536351D01*
X125138724Y-73532834D01*
X125153042Y-73530710D01*
X125167500Y-73530000D01*
X125462500Y-73530000D01*
X125476958Y-73530710D01*
G37*
G36*
X147808292Y-75566383D02*
G01*
X147816010Y-75567528D01*
X147823578Y-75569423D01*
X147830923Y-75572052D01*
X147837976Y-75575387D01*
X147844668Y-75579398D01*
X147850934Y-75584046D01*
X147856715Y-75589285D01*
X147861954Y-75595066D01*
X147866602Y-75601332D01*
X147870613Y-75608024D01*
X147873948Y-75615077D01*
X147876577Y-75622422D01*
X147878472Y-75629990D01*
X147879617Y-75637708D01*
X147880000Y-75645500D01*
X147880000Y-75804500D01*
X147879617Y-75812292D01*
X147878472Y-75820010D01*
X147876577Y-75827578D01*
X147873948Y-75834923D01*
X147870613Y-75841976D01*
X147866602Y-75848668D01*
X147861954Y-75854934D01*
X147856715Y-75860715D01*
X147850934Y-75865954D01*
X147844668Y-75870602D01*
X147837976Y-75874613D01*
X147830923Y-75877948D01*
X147823578Y-75880577D01*
X147816010Y-75882472D01*
X147808292Y-75883617D01*
X147800500Y-75884000D01*
X147599500Y-75884000D01*
X147591708Y-75883617D01*
X147583990Y-75882472D01*
X147576422Y-75880577D01*
X147569077Y-75877948D01*
X147562024Y-75874613D01*
X147555332Y-75870602D01*
X147549066Y-75865954D01*
X147543285Y-75860715D01*
X147538046Y-75854934D01*
X147533398Y-75848668D01*
X147529387Y-75841976D01*
X147526052Y-75834923D01*
X147523423Y-75827578D01*
X147521528Y-75820010D01*
X147520383Y-75812292D01*
X147520000Y-75804500D01*
X147520000Y-75645500D01*
X147520383Y-75637708D01*
X147521528Y-75629990D01*
X147523423Y-75622422D01*
X147526052Y-75615077D01*
X147529387Y-75608024D01*
X147533398Y-75601332D01*
X147538046Y-75595066D01*
X147543285Y-75589285D01*
X147549066Y-75584046D01*
X147555332Y-75579398D01*
X147562024Y-75575387D01*
X147569077Y-75572052D01*
X147576422Y-75569423D01*
X147583990Y-75567528D01*
X147591708Y-75566383D01*
X147599500Y-75566000D01*
X147800500Y-75566000D01*
X147808292Y-75566383D01*
G37*
G36*
X147808292Y-76256383D02*
G01*
X147816010Y-76257528D01*
X147823578Y-76259423D01*
X147830923Y-76262052D01*
X147837976Y-76265387D01*
X147844668Y-76269398D01*
X147850934Y-76274046D01*
X147856715Y-76279285D01*
X147861954Y-76285066D01*
X147866602Y-76291332D01*
X147870613Y-76298024D01*
X147873948Y-76305077D01*
X147876577Y-76312422D01*
X147878472Y-76319990D01*
X147879617Y-76327708D01*
X147880000Y-76335500D01*
X147880000Y-76494500D01*
X147879617Y-76502292D01*
X147878472Y-76510010D01*
X147876577Y-76517578D01*
X147873948Y-76524923D01*
X147870613Y-76531976D01*
X147866602Y-76538668D01*
X147861954Y-76544934D01*
X147856715Y-76550715D01*
X147850934Y-76555954D01*
X147844668Y-76560602D01*
X147837976Y-76564613D01*
X147830923Y-76567948D01*
X147823578Y-76570577D01*
X147816010Y-76572472D01*
X147808292Y-76573617D01*
X147800500Y-76574000D01*
X147599500Y-76574000D01*
X147591708Y-76573617D01*
X147583990Y-76572472D01*
X147576422Y-76570577D01*
X147569077Y-76567948D01*
X147562024Y-76564613D01*
X147555332Y-76560602D01*
X147549066Y-76555954D01*
X147543285Y-76550715D01*
X147538046Y-76544934D01*
X147533398Y-76538668D01*
X147529387Y-76531976D01*
X147526052Y-76524923D01*
X147523423Y-76517578D01*
X147521528Y-76510010D01*
X147520383Y-76502292D01*
X147520000Y-76494500D01*
X147520000Y-76335500D01*
X147520383Y-76327708D01*
X147521528Y-76319990D01*
X147523423Y-76312422D01*
X147526052Y-76305077D01*
X147529387Y-76298024D01*
X147533398Y-76291332D01*
X147538046Y-76285066D01*
X147543285Y-76279285D01*
X147549066Y-76274046D01*
X147555332Y-76269398D01*
X147562024Y-76265387D01*
X147569077Y-76262052D01*
X147576422Y-76259423D01*
X147583990Y-76257528D01*
X147591708Y-76256383D01*
X147599500Y-76256000D01*
X147800500Y-76256000D01*
X147808292Y-76256383D01*
G37*
G36*
X143312292Y-75070383D02*
G01*
X143320010Y-75071528D01*
X143327578Y-75073423D01*
X143334923Y-75076052D01*
X143341976Y-75079387D01*
X143348668Y-75083398D01*
X143354934Y-75088046D01*
X143360715Y-75093285D01*
X143365954Y-75099066D01*
X143370602Y-75105332D01*
X143374613Y-75112024D01*
X143377948Y-75119077D01*
X143380577Y-75126422D01*
X143382472Y-75133990D01*
X143383617Y-75141708D01*
X143384000Y-75149500D01*
X143384000Y-75350500D01*
X143383617Y-75358292D01*
X143382472Y-75366010D01*
X143380577Y-75373578D01*
X143377948Y-75380923D01*
X143374613Y-75387976D01*
X143370602Y-75394668D01*
X143365954Y-75400934D01*
X143360715Y-75406715D01*
X143354934Y-75411954D01*
X143348668Y-75416602D01*
X143341976Y-75420613D01*
X143334923Y-75423948D01*
X143327578Y-75426577D01*
X143320010Y-75428472D01*
X143312292Y-75429617D01*
X143304500Y-75430000D01*
X143145500Y-75430000D01*
X143137708Y-75429617D01*
X143129990Y-75428472D01*
X143122422Y-75426577D01*
X143115077Y-75423948D01*
X143108024Y-75420613D01*
X143101332Y-75416602D01*
X143095066Y-75411954D01*
X143089285Y-75406715D01*
X143084046Y-75400934D01*
X143079398Y-75394668D01*
X143075387Y-75387976D01*
X143072052Y-75380923D01*
X143069423Y-75373578D01*
X143067528Y-75366010D01*
X143066383Y-75358292D01*
X143066000Y-75350500D01*
X143066000Y-75149500D01*
X143066383Y-75141708D01*
X143067528Y-75133990D01*
X143069423Y-75126422D01*
X143072052Y-75119077D01*
X143075387Y-75112024D01*
X143079398Y-75105332D01*
X143084046Y-75099066D01*
X143089285Y-75093285D01*
X143095066Y-75088046D01*
X143101332Y-75083398D01*
X143108024Y-75079387D01*
X143115077Y-75076052D01*
X143122422Y-75073423D01*
X143129990Y-75071528D01*
X143137708Y-75070383D01*
X143145500Y-75070000D01*
X143304500Y-75070000D01*
X143312292Y-75070383D01*
G37*
G36*
X142622292Y-75070383D02*
G01*
X142630010Y-75071528D01*
X142637578Y-75073423D01*
X142644923Y-75076052D01*
X142651976Y-75079387D01*
X142658668Y-75083398D01*
X142664934Y-75088046D01*
X142670715Y-75093285D01*
X142675954Y-75099066D01*
X142680602Y-75105332D01*
X142684613Y-75112024D01*
X142687948Y-75119077D01*
X142690577Y-75126422D01*
X142692472Y-75133990D01*
X142693617Y-75141708D01*
X142694000Y-75149500D01*
X142694000Y-75350500D01*
X142693617Y-75358292D01*
X142692472Y-75366010D01*
X142690577Y-75373578D01*
X142687948Y-75380923D01*
X142684613Y-75387976D01*
X142680602Y-75394668D01*
X142675954Y-75400934D01*
X142670715Y-75406715D01*
X142664934Y-75411954D01*
X142658668Y-75416602D01*
X142651976Y-75420613D01*
X142644923Y-75423948D01*
X142637578Y-75426577D01*
X142630010Y-75428472D01*
X142622292Y-75429617D01*
X142614500Y-75430000D01*
X142455500Y-75430000D01*
X142447708Y-75429617D01*
X142439990Y-75428472D01*
X142432422Y-75426577D01*
X142425077Y-75423948D01*
X142418024Y-75420613D01*
X142411332Y-75416602D01*
X142405066Y-75411954D01*
X142399285Y-75406715D01*
X142394046Y-75400934D01*
X142389398Y-75394668D01*
X142385387Y-75387976D01*
X142382052Y-75380923D01*
X142379423Y-75373578D01*
X142377528Y-75366010D01*
X142376383Y-75358292D01*
X142376000Y-75350500D01*
X142376000Y-75149500D01*
X142376383Y-75141708D01*
X142377528Y-75133990D01*
X142379423Y-75126422D01*
X142382052Y-75119077D01*
X142385387Y-75112024D01*
X142389398Y-75105332D01*
X142394046Y-75099066D01*
X142399285Y-75093285D01*
X142405066Y-75088046D01*
X142411332Y-75083398D01*
X142418024Y-75079387D01*
X142425077Y-75076052D01*
X142432422Y-75073423D01*
X142439990Y-75071528D01*
X142447708Y-75070383D01*
X142455500Y-75070000D01*
X142614500Y-75070000D01*
X142622292Y-75070383D01*
G37*
G36*
X142658292Y-77716383D02*
G01*
X142666010Y-77717528D01*
X142673578Y-77719423D01*
X142680923Y-77722052D01*
X142687976Y-77725387D01*
X142694668Y-77729398D01*
X142700934Y-77734046D01*
X142706715Y-77739285D01*
X142711954Y-77745066D01*
X142716602Y-77751332D01*
X142720613Y-77758024D01*
X142723948Y-77765077D01*
X142726577Y-77772422D01*
X142728472Y-77779990D01*
X142729617Y-77787708D01*
X142730000Y-77795500D01*
X142730000Y-77954500D01*
X142729617Y-77962292D01*
X142728472Y-77970010D01*
X142726577Y-77977578D01*
X142723948Y-77984923D01*
X142720613Y-77991976D01*
X142716602Y-77998668D01*
X142711954Y-78004934D01*
X142706715Y-78010715D01*
X142700934Y-78015954D01*
X142694668Y-78020602D01*
X142687976Y-78024613D01*
X142680923Y-78027948D01*
X142673578Y-78030577D01*
X142666010Y-78032472D01*
X142658292Y-78033617D01*
X142650500Y-78034000D01*
X142449500Y-78034000D01*
X142441708Y-78033617D01*
X142433990Y-78032472D01*
X142426422Y-78030577D01*
X142419077Y-78027948D01*
X142412024Y-78024613D01*
X142405332Y-78020602D01*
X142399066Y-78015954D01*
X142393285Y-78010715D01*
X142388046Y-78004934D01*
X142383398Y-77998668D01*
X142379387Y-77991976D01*
X142376052Y-77984923D01*
X142373423Y-77977578D01*
X142371528Y-77970010D01*
X142370383Y-77962292D01*
X142370000Y-77954500D01*
X142370000Y-77795500D01*
X142370383Y-77787708D01*
X142371528Y-77779990D01*
X142373423Y-77772422D01*
X142376052Y-77765077D01*
X142379387Y-77758024D01*
X142383398Y-77751332D01*
X142388046Y-77745066D01*
X142393285Y-77739285D01*
X142399066Y-77734046D01*
X142405332Y-77729398D01*
X142412024Y-77725387D01*
X142419077Y-77722052D01*
X142426422Y-77719423D01*
X142433990Y-77717528D01*
X142441708Y-77716383D01*
X142449500Y-77716000D01*
X142650500Y-77716000D01*
X142658292Y-77716383D01*
G37*
G36*
X142658292Y-78406383D02*
G01*
X142666010Y-78407528D01*
X142673578Y-78409423D01*
X142680923Y-78412052D01*
X142687976Y-78415387D01*
X142694668Y-78419398D01*
X142700934Y-78424046D01*
X142706715Y-78429285D01*
X142711954Y-78435066D01*
X142716602Y-78441332D01*
X142720613Y-78448024D01*
X142723948Y-78455077D01*
X142726577Y-78462422D01*
X142728472Y-78469990D01*
X142729617Y-78477708D01*
X142730000Y-78485500D01*
X142730000Y-78644500D01*
X142729617Y-78652292D01*
X142728472Y-78660010D01*
X142726577Y-78667578D01*
X142723948Y-78674923D01*
X142720613Y-78681976D01*
X142716602Y-78688668D01*
X142711954Y-78694934D01*
X142706715Y-78700715D01*
X142700934Y-78705954D01*
X142694668Y-78710602D01*
X142687976Y-78714613D01*
X142680923Y-78717948D01*
X142673578Y-78720577D01*
X142666010Y-78722472D01*
X142658292Y-78723617D01*
X142650500Y-78724000D01*
X142449500Y-78724000D01*
X142441708Y-78723617D01*
X142433990Y-78722472D01*
X142426422Y-78720577D01*
X142419077Y-78717948D01*
X142412024Y-78714613D01*
X142405332Y-78710602D01*
X142399066Y-78705954D01*
X142393285Y-78700715D01*
X142388046Y-78694934D01*
X142383398Y-78688668D01*
X142379387Y-78681976D01*
X142376052Y-78674923D01*
X142373423Y-78667578D01*
X142371528Y-78660010D01*
X142370383Y-78652292D01*
X142370000Y-78644500D01*
X142370000Y-78485500D01*
X142370383Y-78477708D01*
X142371528Y-78469990D01*
X142373423Y-78462422D01*
X142376052Y-78455077D01*
X142379387Y-78448024D01*
X142383398Y-78441332D01*
X142388046Y-78435066D01*
X142393285Y-78429285D01*
X142399066Y-78424046D01*
X142405332Y-78419398D01*
X142412024Y-78415387D01*
X142419077Y-78412052D01*
X142426422Y-78409423D01*
X142433990Y-78407528D01*
X142441708Y-78406383D01*
X142449500Y-78406000D01*
X142650500Y-78406000D01*
X142658292Y-78406383D01*
G37*
G36*
X144862292Y-81020383D02*
G01*
X144870010Y-81021528D01*
X144877578Y-81023423D01*
X144884923Y-81026052D01*
X144891976Y-81029387D01*
X144898668Y-81033398D01*
X144904934Y-81038046D01*
X144910715Y-81043285D01*
X144915954Y-81049066D01*
X144920602Y-81055332D01*
X144924613Y-81062024D01*
X144927948Y-81069077D01*
X144930577Y-81076422D01*
X144932472Y-81083990D01*
X144933617Y-81091708D01*
X144934000Y-81099500D01*
X144934000Y-81300500D01*
X144933617Y-81308292D01*
X144932472Y-81316010D01*
X144930577Y-81323578D01*
X144927948Y-81330923D01*
X144924613Y-81337976D01*
X144920602Y-81344668D01*
X144915954Y-81350934D01*
X144910715Y-81356715D01*
X144904934Y-81361954D01*
X144898668Y-81366602D01*
X144891976Y-81370613D01*
X144884923Y-81373948D01*
X144877578Y-81376577D01*
X144870010Y-81378472D01*
X144862292Y-81379617D01*
X144854500Y-81380000D01*
X144695500Y-81380000D01*
X144687708Y-81379617D01*
X144679990Y-81378472D01*
X144672422Y-81376577D01*
X144665077Y-81373948D01*
X144658024Y-81370613D01*
X144651332Y-81366602D01*
X144645066Y-81361954D01*
X144639285Y-81356715D01*
X144634046Y-81350934D01*
X144629398Y-81344668D01*
X144625387Y-81337976D01*
X144622052Y-81330923D01*
X144619423Y-81323578D01*
X144617528Y-81316010D01*
X144616383Y-81308292D01*
X144616000Y-81300500D01*
X144616000Y-81099500D01*
X144616383Y-81091708D01*
X144617528Y-81083990D01*
X144619423Y-81076422D01*
X144622052Y-81069077D01*
X144625387Y-81062024D01*
X144629398Y-81055332D01*
X144634046Y-81049066D01*
X144639285Y-81043285D01*
X144645066Y-81038046D01*
X144651332Y-81033398D01*
X144658024Y-81029387D01*
X144665077Y-81026052D01*
X144672422Y-81023423D01*
X144679990Y-81021528D01*
X144687708Y-81020383D01*
X144695500Y-81020000D01*
X144854500Y-81020000D01*
X144862292Y-81020383D01*
G37*
G36*
X144172292Y-81020383D02*
G01*
X144180010Y-81021528D01*
X144187578Y-81023423D01*
X144194923Y-81026052D01*
X144201976Y-81029387D01*
X144208668Y-81033398D01*
X144214934Y-81038046D01*
X144220715Y-81043285D01*
X144225954Y-81049066D01*
X144230602Y-81055332D01*
X144234613Y-81062024D01*
X144237948Y-81069077D01*
X144240577Y-81076422D01*
X144242472Y-81083990D01*
X144243617Y-81091708D01*
X144244000Y-81099500D01*
X144244000Y-81300500D01*
X144243617Y-81308292D01*
X144242472Y-81316010D01*
X144240577Y-81323578D01*
X144237948Y-81330923D01*
X144234613Y-81337976D01*
X144230602Y-81344668D01*
X144225954Y-81350934D01*
X144220715Y-81356715D01*
X144214934Y-81361954D01*
X144208668Y-81366602D01*
X144201976Y-81370613D01*
X144194923Y-81373948D01*
X144187578Y-81376577D01*
X144180010Y-81378472D01*
X144172292Y-81379617D01*
X144164500Y-81380000D01*
X144005500Y-81380000D01*
X143997708Y-81379617D01*
X143989990Y-81378472D01*
X143982422Y-81376577D01*
X143975077Y-81373948D01*
X143968024Y-81370613D01*
X143961332Y-81366602D01*
X143955066Y-81361954D01*
X143949285Y-81356715D01*
X143944046Y-81350934D01*
X143939398Y-81344668D01*
X143935387Y-81337976D01*
X143932052Y-81330923D01*
X143929423Y-81323578D01*
X143927528Y-81316010D01*
X143926383Y-81308292D01*
X143926000Y-81300500D01*
X143926000Y-81099500D01*
X143926383Y-81091708D01*
X143927528Y-81083990D01*
X143929423Y-81076422D01*
X143932052Y-81069077D01*
X143935387Y-81062024D01*
X143939398Y-81055332D01*
X143944046Y-81049066D01*
X143949285Y-81043285D01*
X143955066Y-81038046D01*
X143961332Y-81033398D01*
X143968024Y-81029387D01*
X143975077Y-81026052D01*
X143982422Y-81023423D01*
X143989990Y-81021528D01*
X143997708Y-81020383D01*
X144005500Y-81020000D01*
X144164500Y-81020000D01*
X144172292Y-81020383D01*
G37*
G36*
X128446958Y-72230710D02*
G01*
X128461276Y-72232834D01*
X128475317Y-72236351D01*
X128488946Y-72241228D01*
X128502031Y-72247417D01*
X128514447Y-72254858D01*
X128526073Y-72263481D01*
X128536798Y-72273202D01*
X128546519Y-72283927D01*
X128555142Y-72295553D01*
X128562583Y-72307969D01*
X128568772Y-72321054D01*
X128573649Y-72334683D01*
X128577166Y-72348724D01*
X128579290Y-72363042D01*
X128580000Y-72377500D01*
X128580000Y-72722500D01*
X128579290Y-72736958D01*
X128577166Y-72751276D01*
X128573649Y-72765317D01*
X128568772Y-72778946D01*
X128562583Y-72792031D01*
X128555142Y-72804447D01*
X128546519Y-72816073D01*
X128536798Y-72826798D01*
X128526073Y-72836519D01*
X128514447Y-72845142D01*
X128502031Y-72852583D01*
X128488946Y-72858772D01*
X128475317Y-72863649D01*
X128461276Y-72867166D01*
X128446958Y-72869290D01*
X128432500Y-72870000D01*
X128137500Y-72870000D01*
X128123042Y-72869290D01*
X128108724Y-72867166D01*
X128094683Y-72863649D01*
X128081054Y-72858772D01*
X128067969Y-72852583D01*
X128055553Y-72845142D01*
X128043927Y-72836519D01*
X128033202Y-72826798D01*
X128023481Y-72816073D01*
X128014858Y-72804447D01*
X128007417Y-72792031D01*
X128001228Y-72778946D01*
X127996351Y-72765317D01*
X127992834Y-72751276D01*
X127990710Y-72736958D01*
X127990000Y-72722500D01*
X127990000Y-72377500D01*
X127990710Y-72363042D01*
X127992834Y-72348724D01*
X127996351Y-72334683D01*
X128001228Y-72321054D01*
X128007417Y-72307969D01*
X128014858Y-72295553D01*
X128023481Y-72283927D01*
X128033202Y-72273202D01*
X128043927Y-72263481D01*
X128055553Y-72254858D01*
X128067969Y-72247417D01*
X128081054Y-72241228D01*
X128094683Y-72236351D01*
X128108724Y-72232834D01*
X128123042Y-72230710D01*
X128137500Y-72230000D01*
X128432500Y-72230000D01*
X128446958Y-72230710D01*
G37*
G36*
X127476958Y-72230710D02*
G01*
X127491276Y-72232834D01*
X127505317Y-72236351D01*
X127518946Y-72241228D01*
X127532031Y-72247417D01*
X127544447Y-72254858D01*
X127556073Y-72263481D01*
X127566798Y-72273202D01*
X127576519Y-72283927D01*
X127585142Y-72295553D01*
X127592583Y-72307969D01*
X127598772Y-72321054D01*
X127603649Y-72334683D01*
X127607166Y-72348724D01*
X127609290Y-72363042D01*
X127610000Y-72377500D01*
X127610000Y-72722500D01*
X127609290Y-72736958D01*
X127607166Y-72751276D01*
X127603649Y-72765317D01*
X127598772Y-72778946D01*
X127592583Y-72792031D01*
X127585142Y-72804447D01*
X127576519Y-72816073D01*
X127566798Y-72826798D01*
X127556073Y-72836519D01*
X127544447Y-72845142D01*
X127532031Y-72852583D01*
X127518946Y-72858772D01*
X127505317Y-72863649D01*
X127491276Y-72867166D01*
X127476958Y-72869290D01*
X127462500Y-72870000D01*
X127167500Y-72870000D01*
X127153042Y-72869290D01*
X127138724Y-72867166D01*
X127124683Y-72863649D01*
X127111054Y-72858772D01*
X127097969Y-72852583D01*
X127085553Y-72845142D01*
X127073927Y-72836519D01*
X127063202Y-72826798D01*
X127053481Y-72816073D01*
X127044858Y-72804447D01*
X127037417Y-72792031D01*
X127031228Y-72778946D01*
X127026351Y-72765317D01*
X127022834Y-72751276D01*
X127020710Y-72736958D01*
X127020000Y-72722500D01*
X127020000Y-72377500D01*
X127020710Y-72363042D01*
X127022834Y-72348724D01*
X127026351Y-72334683D01*
X127031228Y-72321054D01*
X127037417Y-72307969D01*
X127044858Y-72295553D01*
X127053481Y-72283927D01*
X127063202Y-72273202D01*
X127073927Y-72263481D01*
X127085553Y-72254858D01*
X127097969Y-72247417D01*
X127111054Y-72241228D01*
X127124683Y-72236351D01*
X127138724Y-72232834D01*
X127153042Y-72230710D01*
X127167500Y-72230000D01*
X127462500Y-72230000D01*
X127476958Y-72230710D01*
G37*
G36*
X136822292Y-82370383D02*
G01*
X136830010Y-82371528D01*
X136837578Y-82373423D01*
X136844923Y-82376052D01*
X136851976Y-82379387D01*
X136858668Y-82383398D01*
X136864934Y-82388046D01*
X136870715Y-82393285D01*
X136875954Y-82399066D01*
X136880602Y-82405332D01*
X136884613Y-82412024D01*
X136887948Y-82419077D01*
X136890577Y-82426422D01*
X136892472Y-82433990D01*
X136893617Y-82441708D01*
X136894000Y-82449500D01*
X136894000Y-82650500D01*
X136893617Y-82658292D01*
X136892472Y-82666010D01*
X136890577Y-82673578D01*
X136887948Y-82680923D01*
X136884613Y-82687976D01*
X136880602Y-82694668D01*
X136875954Y-82700934D01*
X136870715Y-82706715D01*
X136864934Y-82711954D01*
X136858668Y-82716602D01*
X136851976Y-82720613D01*
X136844923Y-82723948D01*
X136837578Y-82726577D01*
X136830010Y-82728472D01*
X136822292Y-82729617D01*
X136814500Y-82730000D01*
X136655500Y-82730000D01*
X136647708Y-82729617D01*
X136639990Y-82728472D01*
X136632422Y-82726577D01*
X136625077Y-82723948D01*
X136618024Y-82720613D01*
X136611332Y-82716602D01*
X136605066Y-82711954D01*
X136599285Y-82706715D01*
X136594046Y-82700934D01*
X136589398Y-82694668D01*
X136585387Y-82687976D01*
X136582052Y-82680923D01*
X136579423Y-82673578D01*
X136577528Y-82666010D01*
X136576383Y-82658292D01*
X136576000Y-82650500D01*
X136576000Y-82449500D01*
X136576383Y-82441708D01*
X136577528Y-82433990D01*
X136579423Y-82426422D01*
X136582052Y-82419077D01*
X136585387Y-82412024D01*
X136589398Y-82405332D01*
X136594046Y-82399066D01*
X136599285Y-82393285D01*
X136605066Y-82388046D01*
X136611332Y-82383398D01*
X136618024Y-82379387D01*
X136625077Y-82376052D01*
X136632422Y-82373423D01*
X136639990Y-82371528D01*
X136647708Y-82370383D01*
X136655500Y-82370000D01*
X136814500Y-82370000D01*
X136822292Y-82370383D01*
G37*
G36*
X137512292Y-82370383D02*
G01*
X137520010Y-82371528D01*
X137527578Y-82373423D01*
X137534923Y-82376052D01*
X137541976Y-82379387D01*
X137548668Y-82383398D01*
X137554934Y-82388046D01*
X137560715Y-82393285D01*
X137565954Y-82399066D01*
X137570602Y-82405332D01*
X137574613Y-82412024D01*
X137577948Y-82419077D01*
X137580577Y-82426422D01*
X137582472Y-82433990D01*
X137583617Y-82441708D01*
X137584000Y-82449500D01*
X137584000Y-82650500D01*
X137583617Y-82658292D01*
X137582472Y-82666010D01*
X137580577Y-82673578D01*
X137577948Y-82680923D01*
X137574613Y-82687976D01*
X137570602Y-82694668D01*
X137565954Y-82700934D01*
X137560715Y-82706715D01*
X137554934Y-82711954D01*
X137548668Y-82716602D01*
X137541976Y-82720613D01*
X137534923Y-82723948D01*
X137527578Y-82726577D01*
X137520010Y-82728472D01*
X137512292Y-82729617D01*
X137504500Y-82730000D01*
X137345500Y-82730000D01*
X137337708Y-82729617D01*
X137329990Y-82728472D01*
X137322422Y-82726577D01*
X137315077Y-82723948D01*
X137308024Y-82720613D01*
X137301332Y-82716602D01*
X137295066Y-82711954D01*
X137289285Y-82706715D01*
X137284046Y-82700934D01*
X137279398Y-82694668D01*
X137275387Y-82687976D01*
X137272052Y-82680923D01*
X137269423Y-82673578D01*
X137267528Y-82666010D01*
X137266383Y-82658292D01*
X137266000Y-82650500D01*
X137266000Y-82449500D01*
X137266383Y-82441708D01*
X137267528Y-82433990D01*
X137269423Y-82426422D01*
X137272052Y-82419077D01*
X137275387Y-82412024D01*
X137279398Y-82405332D01*
X137284046Y-82399066D01*
X137289285Y-82393285D01*
X137295066Y-82388046D01*
X137301332Y-82383398D01*
X137308024Y-82379387D01*
X137315077Y-82376052D01*
X137322422Y-82373423D01*
X137329990Y-82371528D01*
X137337708Y-82370383D01*
X137345500Y-82370000D01*
X137504500Y-82370000D01*
X137512292Y-82370383D01*
G37*
G36*
X126446958Y-74630710D02*
G01*
X126461276Y-74632834D01*
X126475317Y-74636351D01*
X126488946Y-74641228D01*
X126502031Y-74647417D01*
X126514447Y-74654858D01*
X126526073Y-74663481D01*
X126536798Y-74673202D01*
X126546519Y-74683927D01*
X126555142Y-74695553D01*
X126562583Y-74707969D01*
X126568772Y-74721054D01*
X126573649Y-74734683D01*
X126577166Y-74748724D01*
X126579290Y-74763042D01*
X126580000Y-74777500D01*
X126580000Y-75122500D01*
X126579290Y-75136958D01*
X126577166Y-75151276D01*
X126573649Y-75165317D01*
X126568772Y-75178946D01*
X126562583Y-75192031D01*
X126555142Y-75204447D01*
X126546519Y-75216073D01*
X126536798Y-75226798D01*
X126526073Y-75236519D01*
X126514447Y-75245142D01*
X126502031Y-75252583D01*
X126488946Y-75258772D01*
X126475317Y-75263649D01*
X126461276Y-75267166D01*
X126446958Y-75269290D01*
X126432500Y-75270000D01*
X126137500Y-75270000D01*
X126123042Y-75269290D01*
X126108724Y-75267166D01*
X126094683Y-75263649D01*
X126081054Y-75258772D01*
X126067969Y-75252583D01*
X126055553Y-75245142D01*
X126043927Y-75236519D01*
X126033202Y-75226798D01*
X126023481Y-75216073D01*
X126014858Y-75204447D01*
X126007417Y-75192031D01*
X126001228Y-75178946D01*
X125996351Y-75165317D01*
X125992834Y-75151276D01*
X125990710Y-75136958D01*
X125990000Y-75122500D01*
X125990000Y-74777500D01*
X125990710Y-74763042D01*
X125992834Y-74748724D01*
X125996351Y-74734683D01*
X126001228Y-74721054D01*
X126007417Y-74707969D01*
X126014858Y-74695553D01*
X126023481Y-74683927D01*
X126033202Y-74673202D01*
X126043927Y-74663481D01*
X126055553Y-74654858D01*
X126067969Y-74647417D01*
X126081054Y-74641228D01*
X126094683Y-74636351D01*
X126108724Y-74632834D01*
X126123042Y-74630710D01*
X126137500Y-74630000D01*
X126432500Y-74630000D01*
X126446958Y-74630710D01*
G37*
G36*
X125476958Y-74630710D02*
G01*
X125491276Y-74632834D01*
X125505317Y-74636351D01*
X125518946Y-74641228D01*
X125532031Y-74647417D01*
X125544447Y-74654858D01*
X125556073Y-74663481D01*
X125566798Y-74673202D01*
X125576519Y-74683927D01*
X125585142Y-74695553D01*
X125592583Y-74707969D01*
X125598772Y-74721054D01*
X125603649Y-74734683D01*
X125607166Y-74748724D01*
X125609290Y-74763042D01*
X125610000Y-74777500D01*
X125610000Y-75122500D01*
X125609290Y-75136958D01*
X125607166Y-75151276D01*
X125603649Y-75165317D01*
X125598772Y-75178946D01*
X125592583Y-75192031D01*
X125585142Y-75204447D01*
X125576519Y-75216073D01*
X125566798Y-75226798D01*
X125556073Y-75236519D01*
X125544447Y-75245142D01*
X125532031Y-75252583D01*
X125518946Y-75258772D01*
X125505317Y-75263649D01*
X125491276Y-75267166D01*
X125476958Y-75269290D01*
X125462500Y-75270000D01*
X125167500Y-75270000D01*
X125153042Y-75269290D01*
X125138724Y-75267166D01*
X125124683Y-75263649D01*
X125111054Y-75258772D01*
X125097969Y-75252583D01*
X125085553Y-75245142D01*
X125073927Y-75236519D01*
X125063202Y-75226798D01*
X125053481Y-75216073D01*
X125044858Y-75204447D01*
X125037417Y-75192031D01*
X125031228Y-75178946D01*
X125026351Y-75165317D01*
X125022834Y-75151276D01*
X125020710Y-75136958D01*
X125020000Y-75122500D01*
X125020000Y-74777500D01*
X125020710Y-74763042D01*
X125022834Y-74748724D01*
X125026351Y-74734683D01*
X125031228Y-74721054D01*
X125037417Y-74707969D01*
X125044858Y-74695553D01*
X125053481Y-74683927D01*
X125063202Y-74673202D01*
X125073927Y-74663481D01*
X125085553Y-74654858D01*
X125097969Y-74647417D01*
X125111054Y-74641228D01*
X125124683Y-74636351D01*
X125138724Y-74632834D01*
X125153042Y-74630710D01*
X125167500Y-74630000D01*
X125462500Y-74630000D01*
X125476958Y-74630710D01*
G37*
G36*
X135162292Y-82370383D02*
G01*
X135170010Y-82371528D01*
X135177578Y-82373423D01*
X135184923Y-82376052D01*
X135191976Y-82379387D01*
X135198668Y-82383398D01*
X135204934Y-82388046D01*
X135210715Y-82393285D01*
X135215954Y-82399066D01*
X135220602Y-82405332D01*
X135224613Y-82412024D01*
X135227948Y-82419077D01*
X135230577Y-82426422D01*
X135232472Y-82433990D01*
X135233617Y-82441708D01*
X135234000Y-82449500D01*
X135234000Y-82650500D01*
X135233617Y-82658292D01*
X135232472Y-82666010D01*
X135230577Y-82673578D01*
X135227948Y-82680923D01*
X135224613Y-82687976D01*
X135220602Y-82694668D01*
X135215954Y-82700934D01*
X135210715Y-82706715D01*
X135204934Y-82711954D01*
X135198668Y-82716602D01*
X135191976Y-82720613D01*
X135184923Y-82723948D01*
X135177578Y-82726577D01*
X135170010Y-82728472D01*
X135162292Y-82729617D01*
X135154500Y-82730000D01*
X134995500Y-82730000D01*
X134987708Y-82729617D01*
X134979990Y-82728472D01*
X134972422Y-82726577D01*
X134965077Y-82723948D01*
X134958024Y-82720613D01*
X134951332Y-82716602D01*
X134945066Y-82711954D01*
X134939285Y-82706715D01*
X134934046Y-82700934D01*
X134929398Y-82694668D01*
X134925387Y-82687976D01*
X134922052Y-82680923D01*
X134919423Y-82673578D01*
X134917528Y-82666010D01*
X134916383Y-82658292D01*
X134916000Y-82650500D01*
X134916000Y-82449500D01*
X134916383Y-82441708D01*
X134917528Y-82433990D01*
X134919423Y-82426422D01*
X134922052Y-82419077D01*
X134925387Y-82412024D01*
X134929398Y-82405332D01*
X134934046Y-82399066D01*
X134939285Y-82393285D01*
X134945066Y-82388046D01*
X134951332Y-82383398D01*
X134958024Y-82379387D01*
X134965077Y-82376052D01*
X134972422Y-82373423D01*
X134979990Y-82371528D01*
X134987708Y-82370383D01*
X134995500Y-82370000D01*
X135154500Y-82370000D01*
X135162292Y-82370383D01*
G37*
G36*
X135852292Y-82370383D02*
G01*
X135860010Y-82371528D01*
X135867578Y-82373423D01*
X135874923Y-82376052D01*
X135881976Y-82379387D01*
X135888668Y-82383398D01*
X135894934Y-82388046D01*
X135900715Y-82393285D01*
X135905954Y-82399066D01*
X135910602Y-82405332D01*
X135914613Y-82412024D01*
X135917948Y-82419077D01*
X135920577Y-82426422D01*
X135922472Y-82433990D01*
X135923617Y-82441708D01*
X135924000Y-82449500D01*
X135924000Y-82650500D01*
X135923617Y-82658292D01*
X135922472Y-82666010D01*
X135920577Y-82673578D01*
X135917948Y-82680923D01*
X135914613Y-82687976D01*
X135910602Y-82694668D01*
X135905954Y-82700934D01*
X135900715Y-82706715D01*
X135894934Y-82711954D01*
X135888668Y-82716602D01*
X135881976Y-82720613D01*
X135874923Y-82723948D01*
X135867578Y-82726577D01*
X135860010Y-82728472D01*
X135852292Y-82729617D01*
X135844500Y-82730000D01*
X135685500Y-82730000D01*
X135677708Y-82729617D01*
X135669990Y-82728472D01*
X135662422Y-82726577D01*
X135655077Y-82723948D01*
X135648024Y-82720613D01*
X135641332Y-82716602D01*
X135635066Y-82711954D01*
X135629285Y-82706715D01*
X135624046Y-82700934D01*
X135619398Y-82694668D01*
X135615387Y-82687976D01*
X135612052Y-82680923D01*
X135609423Y-82673578D01*
X135607528Y-82666010D01*
X135606383Y-82658292D01*
X135606000Y-82650500D01*
X135606000Y-82449500D01*
X135606383Y-82441708D01*
X135607528Y-82433990D01*
X135609423Y-82426422D01*
X135612052Y-82419077D01*
X135615387Y-82412024D01*
X135619398Y-82405332D01*
X135624046Y-82399066D01*
X135629285Y-82393285D01*
X135635066Y-82388046D01*
X135641332Y-82383398D01*
X135648024Y-82379387D01*
X135655077Y-82376052D01*
X135662422Y-82373423D01*
X135669990Y-82371528D01*
X135677708Y-82370383D01*
X135685500Y-82370000D01*
X135844500Y-82370000D01*
X135852292Y-82370383D01*
G37*
G36*
X132632292Y-82370383D02*
G01*
X132640010Y-82371528D01*
X132647578Y-82373423D01*
X132654923Y-82376052D01*
X132661976Y-82379387D01*
X132668668Y-82383398D01*
X132674934Y-82388046D01*
X132680715Y-82393285D01*
X132685954Y-82399066D01*
X132690602Y-82405332D01*
X132694613Y-82412024D01*
X132697948Y-82419077D01*
X132700577Y-82426422D01*
X132702472Y-82433990D01*
X132703617Y-82441708D01*
X132704000Y-82449500D01*
X132704000Y-82650500D01*
X132703617Y-82658292D01*
X132702472Y-82666010D01*
X132700577Y-82673578D01*
X132697948Y-82680923D01*
X132694613Y-82687976D01*
X132690602Y-82694668D01*
X132685954Y-82700934D01*
X132680715Y-82706715D01*
X132674934Y-82711954D01*
X132668668Y-82716602D01*
X132661976Y-82720613D01*
X132654923Y-82723948D01*
X132647578Y-82726577D01*
X132640010Y-82728472D01*
X132632292Y-82729617D01*
X132624500Y-82730000D01*
X132465500Y-82730000D01*
X132457708Y-82729617D01*
X132449990Y-82728472D01*
X132442422Y-82726577D01*
X132435077Y-82723948D01*
X132428024Y-82720613D01*
X132421332Y-82716602D01*
X132415066Y-82711954D01*
X132409285Y-82706715D01*
X132404046Y-82700934D01*
X132399398Y-82694668D01*
X132395387Y-82687976D01*
X132392052Y-82680923D01*
X132389423Y-82673578D01*
X132387528Y-82666010D01*
X132386383Y-82658292D01*
X132386000Y-82650500D01*
X132386000Y-82449500D01*
X132386383Y-82441708D01*
X132387528Y-82433990D01*
X132389423Y-82426422D01*
X132392052Y-82419077D01*
X132395387Y-82412024D01*
X132399398Y-82405332D01*
X132404046Y-82399066D01*
X132409285Y-82393285D01*
X132415066Y-82388046D01*
X132421332Y-82383398D01*
X132428024Y-82379387D01*
X132435077Y-82376052D01*
X132442422Y-82373423D01*
X132449990Y-82371528D01*
X132457708Y-82370383D01*
X132465500Y-82370000D01*
X132624500Y-82370000D01*
X132632292Y-82370383D01*
G37*
G36*
X131942292Y-82370383D02*
G01*
X131950010Y-82371528D01*
X131957578Y-82373423D01*
X131964923Y-82376052D01*
X131971976Y-82379387D01*
X131978668Y-82383398D01*
X131984934Y-82388046D01*
X131990715Y-82393285D01*
X131995954Y-82399066D01*
X132000602Y-82405332D01*
X132004613Y-82412024D01*
X132007948Y-82419077D01*
X132010577Y-82426422D01*
X132012472Y-82433990D01*
X132013617Y-82441708D01*
X132014000Y-82449500D01*
X132014000Y-82650500D01*
X132013617Y-82658292D01*
X132012472Y-82666010D01*
X132010577Y-82673578D01*
X132007948Y-82680923D01*
X132004613Y-82687976D01*
X132000602Y-82694668D01*
X131995954Y-82700934D01*
X131990715Y-82706715D01*
X131984934Y-82711954D01*
X131978668Y-82716602D01*
X131971976Y-82720613D01*
X131964923Y-82723948D01*
X131957578Y-82726577D01*
X131950010Y-82728472D01*
X131942292Y-82729617D01*
X131934500Y-82730000D01*
X131775500Y-82730000D01*
X131767708Y-82729617D01*
X131759990Y-82728472D01*
X131752422Y-82726577D01*
X131745077Y-82723948D01*
X131738024Y-82720613D01*
X131731332Y-82716602D01*
X131725066Y-82711954D01*
X131719285Y-82706715D01*
X131714046Y-82700934D01*
X131709398Y-82694668D01*
X131705387Y-82687976D01*
X131702052Y-82680923D01*
X131699423Y-82673578D01*
X131697528Y-82666010D01*
X131696383Y-82658292D01*
X131696000Y-82650500D01*
X131696000Y-82449500D01*
X131696383Y-82441708D01*
X131697528Y-82433990D01*
X131699423Y-82426422D01*
X131702052Y-82419077D01*
X131705387Y-82412024D01*
X131709398Y-82405332D01*
X131714046Y-82399066D01*
X131719285Y-82393285D01*
X131725066Y-82388046D01*
X131731332Y-82383398D01*
X131738024Y-82379387D01*
X131745077Y-82376052D01*
X131752422Y-82373423D01*
X131759990Y-82371528D01*
X131767708Y-82370383D01*
X131775500Y-82370000D01*
X131934500Y-82370000D01*
X131942292Y-82370383D01*
G37*
G36*
X133542292Y-81470383D02*
G01*
X133550010Y-81471528D01*
X133557578Y-81473423D01*
X133564923Y-81476052D01*
X133571976Y-81479387D01*
X133578668Y-81483398D01*
X133584934Y-81488046D01*
X133590715Y-81493285D01*
X133595954Y-81499066D01*
X133600602Y-81505332D01*
X133604613Y-81512024D01*
X133607948Y-81519077D01*
X133610577Y-81526422D01*
X133612472Y-81533990D01*
X133613617Y-81541708D01*
X133614000Y-81549500D01*
X133614000Y-81750500D01*
X133613617Y-81758292D01*
X133612472Y-81766010D01*
X133610577Y-81773578D01*
X133607948Y-81780923D01*
X133604613Y-81787976D01*
X133600602Y-81794668D01*
X133595954Y-81800934D01*
X133590715Y-81806715D01*
X133584934Y-81811954D01*
X133578668Y-81816602D01*
X133571976Y-81820613D01*
X133564923Y-81823948D01*
X133557578Y-81826577D01*
X133550010Y-81828472D01*
X133542292Y-81829617D01*
X133534500Y-81830000D01*
X133375500Y-81830000D01*
X133367708Y-81829617D01*
X133359990Y-81828472D01*
X133352422Y-81826577D01*
X133345077Y-81823948D01*
X133338024Y-81820613D01*
X133331332Y-81816602D01*
X133325066Y-81811954D01*
X133319285Y-81806715D01*
X133314046Y-81800934D01*
X133309398Y-81794668D01*
X133305387Y-81787976D01*
X133302052Y-81780923D01*
X133299423Y-81773578D01*
X133297528Y-81766010D01*
X133296383Y-81758292D01*
X133296000Y-81750500D01*
X133296000Y-81549500D01*
X133296383Y-81541708D01*
X133297528Y-81533990D01*
X133299423Y-81526422D01*
X133302052Y-81519077D01*
X133305387Y-81512024D01*
X133309398Y-81505332D01*
X133314046Y-81499066D01*
X133319285Y-81493285D01*
X133325066Y-81488046D01*
X133331332Y-81483398D01*
X133338024Y-81479387D01*
X133345077Y-81476052D01*
X133352422Y-81473423D01*
X133359990Y-81471528D01*
X133367708Y-81470383D01*
X133375500Y-81470000D01*
X133534500Y-81470000D01*
X133542292Y-81470383D01*
G37*
G36*
X134232292Y-81470383D02*
G01*
X134240010Y-81471528D01*
X134247578Y-81473423D01*
X134254923Y-81476052D01*
X134261976Y-81479387D01*
X134268668Y-81483398D01*
X134274934Y-81488046D01*
X134280715Y-81493285D01*
X134285954Y-81499066D01*
X134290602Y-81505332D01*
X134294613Y-81512024D01*
X134297948Y-81519077D01*
X134300577Y-81526422D01*
X134302472Y-81533990D01*
X134303617Y-81541708D01*
X134304000Y-81549500D01*
X134304000Y-81750500D01*
X134303617Y-81758292D01*
X134302472Y-81766010D01*
X134300577Y-81773578D01*
X134297948Y-81780923D01*
X134294613Y-81787976D01*
X134290602Y-81794668D01*
X134285954Y-81800934D01*
X134280715Y-81806715D01*
X134274934Y-81811954D01*
X134268668Y-81816602D01*
X134261976Y-81820613D01*
X134254923Y-81823948D01*
X134247578Y-81826577D01*
X134240010Y-81828472D01*
X134232292Y-81829617D01*
X134224500Y-81830000D01*
X134065500Y-81830000D01*
X134057708Y-81829617D01*
X134049990Y-81828472D01*
X134042422Y-81826577D01*
X134035077Y-81823948D01*
X134028024Y-81820613D01*
X134021332Y-81816602D01*
X134015066Y-81811954D01*
X134009285Y-81806715D01*
X134004046Y-81800934D01*
X133999398Y-81794668D01*
X133995387Y-81787976D01*
X133992052Y-81780923D01*
X133989423Y-81773578D01*
X133987528Y-81766010D01*
X133986383Y-81758292D01*
X133986000Y-81750500D01*
X133986000Y-81549500D01*
X133986383Y-81541708D01*
X133987528Y-81533990D01*
X133989423Y-81526422D01*
X133992052Y-81519077D01*
X133995387Y-81512024D01*
X133999398Y-81505332D01*
X134004046Y-81499066D01*
X134009285Y-81493285D01*
X134015066Y-81488046D01*
X134021332Y-81483398D01*
X134028024Y-81479387D01*
X134035077Y-81476052D01*
X134042422Y-81473423D01*
X134049990Y-81471528D01*
X134057708Y-81470383D01*
X134065500Y-81470000D01*
X134224500Y-81470000D01*
X134232292Y-81470383D01*
G37*
G36*
X133462292Y-76870383D02*
G01*
X133470010Y-76871528D01*
X133477578Y-76873423D01*
X133484923Y-76876052D01*
X133491976Y-76879387D01*
X133498668Y-76883398D01*
X133504934Y-76888046D01*
X133510715Y-76893285D01*
X133515954Y-76899066D01*
X133520602Y-76905332D01*
X133524613Y-76912024D01*
X133527948Y-76919077D01*
X133530577Y-76926422D01*
X133532472Y-76933990D01*
X133533617Y-76941708D01*
X133534000Y-76949500D01*
X133534000Y-77150500D01*
X133533617Y-77158292D01*
X133532472Y-77166010D01*
X133530577Y-77173578D01*
X133527948Y-77180923D01*
X133524613Y-77187976D01*
X133520602Y-77194668D01*
X133515954Y-77200934D01*
X133510715Y-77206715D01*
X133504934Y-77211954D01*
X133498668Y-77216602D01*
X133491976Y-77220613D01*
X133484923Y-77223948D01*
X133477578Y-77226577D01*
X133470010Y-77228472D01*
X133462292Y-77229617D01*
X133454500Y-77230000D01*
X133295500Y-77230000D01*
X133287708Y-77229617D01*
X133279990Y-77228472D01*
X133272422Y-77226577D01*
X133265077Y-77223948D01*
X133258024Y-77220613D01*
X133251332Y-77216602D01*
X133245066Y-77211954D01*
X133239285Y-77206715D01*
X133234046Y-77200934D01*
X133229398Y-77194668D01*
X133225387Y-77187976D01*
X133222052Y-77180923D01*
X133219423Y-77173578D01*
X133217528Y-77166010D01*
X133216383Y-77158292D01*
X133216000Y-77150500D01*
X133216000Y-76949500D01*
X133216383Y-76941708D01*
X133217528Y-76933990D01*
X133219423Y-76926422D01*
X133222052Y-76919077D01*
X133225387Y-76912024D01*
X133229398Y-76905332D01*
X133234046Y-76899066D01*
X133239285Y-76893285D01*
X133245066Y-76888046D01*
X133251332Y-76883398D01*
X133258024Y-76879387D01*
X133265077Y-76876052D01*
X133272422Y-76873423D01*
X133279990Y-76871528D01*
X133287708Y-76870383D01*
X133295500Y-76870000D01*
X133454500Y-76870000D01*
X133462292Y-76870383D01*
G37*
G36*
X134152292Y-76870383D02*
G01*
X134160010Y-76871528D01*
X134167578Y-76873423D01*
X134174923Y-76876052D01*
X134181976Y-76879387D01*
X134188668Y-76883398D01*
X134194934Y-76888046D01*
X134200715Y-76893285D01*
X134205954Y-76899066D01*
X134210602Y-76905332D01*
X134214613Y-76912024D01*
X134217948Y-76919077D01*
X134220577Y-76926422D01*
X134222472Y-76933990D01*
X134223617Y-76941708D01*
X134224000Y-76949500D01*
X134224000Y-77150500D01*
X134223617Y-77158292D01*
X134222472Y-77166010D01*
X134220577Y-77173578D01*
X134217948Y-77180923D01*
X134214613Y-77187976D01*
X134210602Y-77194668D01*
X134205954Y-77200934D01*
X134200715Y-77206715D01*
X134194934Y-77211954D01*
X134188668Y-77216602D01*
X134181976Y-77220613D01*
X134174923Y-77223948D01*
X134167578Y-77226577D01*
X134160010Y-77228472D01*
X134152292Y-77229617D01*
X134144500Y-77230000D01*
X133985500Y-77230000D01*
X133977708Y-77229617D01*
X133969990Y-77228472D01*
X133962422Y-77226577D01*
X133955077Y-77223948D01*
X133948024Y-77220613D01*
X133941332Y-77216602D01*
X133935066Y-77211954D01*
X133929285Y-77206715D01*
X133924046Y-77200934D01*
X133919398Y-77194668D01*
X133915387Y-77187976D01*
X133912052Y-77180923D01*
X133909423Y-77173578D01*
X133907528Y-77166010D01*
X133906383Y-77158292D01*
X133906000Y-77150500D01*
X133906000Y-76949500D01*
X133906383Y-76941708D01*
X133907528Y-76933990D01*
X133909423Y-76926422D01*
X133912052Y-76919077D01*
X133915387Y-76912024D01*
X133919398Y-76905332D01*
X133924046Y-76899066D01*
X133929285Y-76893285D01*
X133935066Y-76888046D01*
X133941332Y-76883398D01*
X133948024Y-76879387D01*
X133955077Y-76876052D01*
X133962422Y-76873423D01*
X133969990Y-76871528D01*
X133977708Y-76870383D01*
X133985500Y-76870000D01*
X134144500Y-76870000D01*
X134152292Y-76870383D01*
G37*
G36*
X145252292Y-75070383D02*
G01*
X145260010Y-75071528D01*
X145267578Y-75073423D01*
X145274923Y-75076052D01*
X145281976Y-75079387D01*
X145288668Y-75083398D01*
X145294934Y-75088046D01*
X145300715Y-75093285D01*
X145305954Y-75099066D01*
X145310602Y-75105332D01*
X145314613Y-75112024D01*
X145317948Y-75119077D01*
X145320577Y-75126422D01*
X145322472Y-75133990D01*
X145323617Y-75141708D01*
X145324000Y-75149500D01*
X145324000Y-75350500D01*
X145323617Y-75358292D01*
X145322472Y-75366010D01*
X145320577Y-75373578D01*
X145317948Y-75380923D01*
X145314613Y-75387976D01*
X145310602Y-75394668D01*
X145305954Y-75400934D01*
X145300715Y-75406715D01*
X145294934Y-75411954D01*
X145288668Y-75416602D01*
X145281976Y-75420613D01*
X145274923Y-75423948D01*
X145267578Y-75426577D01*
X145260010Y-75428472D01*
X145252292Y-75429617D01*
X145244500Y-75430000D01*
X145085500Y-75430000D01*
X145077708Y-75429617D01*
X145069990Y-75428472D01*
X145062422Y-75426577D01*
X145055077Y-75423948D01*
X145048024Y-75420613D01*
X145041332Y-75416602D01*
X145035066Y-75411954D01*
X145029285Y-75406715D01*
X145024046Y-75400934D01*
X145019398Y-75394668D01*
X145015387Y-75387976D01*
X145012052Y-75380923D01*
X145009423Y-75373578D01*
X145007528Y-75366010D01*
X145006383Y-75358292D01*
X145006000Y-75350500D01*
X145006000Y-75149500D01*
X145006383Y-75141708D01*
X145007528Y-75133990D01*
X145009423Y-75126422D01*
X145012052Y-75119077D01*
X145015387Y-75112024D01*
X145019398Y-75105332D01*
X145024046Y-75099066D01*
X145029285Y-75093285D01*
X145035066Y-75088046D01*
X145041332Y-75083398D01*
X145048024Y-75079387D01*
X145055077Y-75076052D01*
X145062422Y-75073423D01*
X145069990Y-75071528D01*
X145077708Y-75070383D01*
X145085500Y-75070000D01*
X145244500Y-75070000D01*
X145252292Y-75070383D01*
G37*
G36*
X144562292Y-75070383D02*
G01*
X144570010Y-75071528D01*
X144577578Y-75073423D01*
X144584923Y-75076052D01*
X144591976Y-75079387D01*
X144598668Y-75083398D01*
X144604934Y-75088046D01*
X144610715Y-75093285D01*
X144615954Y-75099066D01*
X144620602Y-75105332D01*
X144624613Y-75112024D01*
X144627948Y-75119077D01*
X144630577Y-75126422D01*
X144632472Y-75133990D01*
X144633617Y-75141708D01*
X144634000Y-75149500D01*
X144634000Y-75350500D01*
X144633617Y-75358292D01*
X144632472Y-75366010D01*
X144630577Y-75373578D01*
X144627948Y-75380923D01*
X144624613Y-75387976D01*
X144620602Y-75394668D01*
X144615954Y-75400934D01*
X144610715Y-75406715D01*
X144604934Y-75411954D01*
X144598668Y-75416602D01*
X144591976Y-75420613D01*
X144584923Y-75423948D01*
X144577578Y-75426577D01*
X144570010Y-75428472D01*
X144562292Y-75429617D01*
X144554500Y-75430000D01*
X144395500Y-75430000D01*
X144387708Y-75429617D01*
X144379990Y-75428472D01*
X144372422Y-75426577D01*
X144365077Y-75423948D01*
X144358024Y-75420613D01*
X144351332Y-75416602D01*
X144345066Y-75411954D01*
X144339285Y-75406715D01*
X144334046Y-75400934D01*
X144329398Y-75394668D01*
X144325387Y-75387976D01*
X144322052Y-75380923D01*
X144319423Y-75373578D01*
X144317528Y-75366010D01*
X144316383Y-75358292D01*
X144316000Y-75350500D01*
X144316000Y-75149500D01*
X144316383Y-75141708D01*
X144317528Y-75133990D01*
X144319423Y-75126422D01*
X144322052Y-75119077D01*
X144325387Y-75112024D01*
X144329398Y-75105332D01*
X144334046Y-75099066D01*
X144339285Y-75093285D01*
X144345066Y-75088046D01*
X144351332Y-75083398D01*
X144358024Y-75079387D01*
X144365077Y-75076052D01*
X144372422Y-75073423D01*
X144379990Y-75071528D01*
X144387708Y-75070383D01*
X144395500Y-75070000D01*
X144554500Y-75070000D01*
X144562292Y-75070383D01*
G37*
G36*
X142572292Y-81020383D02*
G01*
X142580010Y-81021528D01*
X142587578Y-81023423D01*
X142594923Y-81026052D01*
X142601976Y-81029387D01*
X142608668Y-81033398D01*
X142614934Y-81038046D01*
X142620715Y-81043285D01*
X142625954Y-81049066D01*
X142630602Y-81055332D01*
X142634613Y-81062024D01*
X142637948Y-81069077D01*
X142640577Y-81076422D01*
X142642472Y-81083990D01*
X142643617Y-81091708D01*
X142644000Y-81099500D01*
X142644000Y-81300500D01*
X142643617Y-81308292D01*
X142642472Y-81316010D01*
X142640577Y-81323578D01*
X142637948Y-81330923D01*
X142634613Y-81337976D01*
X142630602Y-81344668D01*
X142625954Y-81350934D01*
X142620715Y-81356715D01*
X142614934Y-81361954D01*
X142608668Y-81366602D01*
X142601976Y-81370613D01*
X142594923Y-81373948D01*
X142587578Y-81376577D01*
X142580010Y-81378472D01*
X142572292Y-81379617D01*
X142564500Y-81380000D01*
X142405500Y-81380000D01*
X142397708Y-81379617D01*
X142389990Y-81378472D01*
X142382422Y-81376577D01*
X142375077Y-81373948D01*
X142368024Y-81370613D01*
X142361332Y-81366602D01*
X142355066Y-81361954D01*
X142349285Y-81356715D01*
X142344046Y-81350934D01*
X142339398Y-81344668D01*
X142335387Y-81337976D01*
X142332052Y-81330923D01*
X142329423Y-81323578D01*
X142327528Y-81316010D01*
X142326383Y-81308292D01*
X142326000Y-81300500D01*
X142326000Y-81099500D01*
X142326383Y-81091708D01*
X142327528Y-81083990D01*
X142329423Y-81076422D01*
X142332052Y-81069077D01*
X142335387Y-81062024D01*
X142339398Y-81055332D01*
X142344046Y-81049066D01*
X142349285Y-81043285D01*
X142355066Y-81038046D01*
X142361332Y-81033398D01*
X142368024Y-81029387D01*
X142375077Y-81026052D01*
X142382422Y-81023423D01*
X142389990Y-81021528D01*
X142397708Y-81020383D01*
X142405500Y-81020000D01*
X142564500Y-81020000D01*
X142572292Y-81020383D01*
G37*
G36*
X143262292Y-81020383D02*
G01*
X143270010Y-81021528D01*
X143277578Y-81023423D01*
X143284923Y-81026052D01*
X143291976Y-81029387D01*
X143298668Y-81033398D01*
X143304934Y-81038046D01*
X143310715Y-81043285D01*
X143315954Y-81049066D01*
X143320602Y-81055332D01*
X143324613Y-81062024D01*
X143327948Y-81069077D01*
X143330577Y-81076422D01*
X143332472Y-81083990D01*
X143333617Y-81091708D01*
X143334000Y-81099500D01*
X143334000Y-81300500D01*
X143333617Y-81308292D01*
X143332472Y-81316010D01*
X143330577Y-81323578D01*
X143327948Y-81330923D01*
X143324613Y-81337976D01*
X143320602Y-81344668D01*
X143315954Y-81350934D01*
X143310715Y-81356715D01*
X143304934Y-81361954D01*
X143298668Y-81366602D01*
X143291976Y-81370613D01*
X143284923Y-81373948D01*
X143277578Y-81376577D01*
X143270010Y-81378472D01*
X143262292Y-81379617D01*
X143254500Y-81380000D01*
X143095500Y-81380000D01*
X143087708Y-81379617D01*
X143079990Y-81378472D01*
X143072422Y-81376577D01*
X143065077Y-81373948D01*
X143058024Y-81370613D01*
X143051332Y-81366602D01*
X143045066Y-81361954D01*
X143039285Y-81356715D01*
X143034046Y-81350934D01*
X143029398Y-81344668D01*
X143025387Y-81337976D01*
X143022052Y-81330923D01*
X143019423Y-81323578D01*
X143017528Y-81316010D01*
X143016383Y-81308292D01*
X143016000Y-81300500D01*
X143016000Y-81099500D01*
X143016383Y-81091708D01*
X143017528Y-81083990D01*
X143019423Y-81076422D01*
X143022052Y-81069077D01*
X143025387Y-81062024D01*
X143029398Y-81055332D01*
X143034046Y-81049066D01*
X143039285Y-81043285D01*
X143045066Y-81038046D01*
X143051332Y-81033398D01*
X143058024Y-81029387D01*
X143065077Y-81026052D01*
X143072422Y-81023423D01*
X143079990Y-81021528D01*
X143087708Y-81020383D01*
X143095500Y-81020000D01*
X143254500Y-81020000D01*
X143262292Y-81020383D01*
G37*
G36*
X132365191Y-75276053D02*
G01*
X132386426Y-75279203D01*
X132407250Y-75284419D01*
X132427462Y-75291651D01*
X132446868Y-75300830D01*
X132465281Y-75311866D01*
X132482524Y-75324654D01*
X132498430Y-75339070D01*
X132512846Y-75354976D01*
X132525634Y-75372219D01*
X132536670Y-75390632D01*
X132545849Y-75410038D01*
X132553081Y-75430250D01*
X132558297Y-75451074D01*
X132561447Y-75472309D01*
X132562500Y-75493750D01*
X132562500Y-76006250D01*
X132561447Y-76027691D01*
X132558297Y-76048926D01*
X132553081Y-76069750D01*
X132545849Y-76089962D01*
X132536670Y-76109368D01*
X132525634Y-76127781D01*
X132512846Y-76145024D01*
X132498430Y-76160930D01*
X132482524Y-76175346D01*
X132465281Y-76188134D01*
X132446868Y-76199170D01*
X132427462Y-76208349D01*
X132407250Y-76215581D01*
X132386426Y-76220797D01*
X132365191Y-76223947D01*
X132343750Y-76225000D01*
X131906250Y-76225000D01*
X131884809Y-76223947D01*
X131863574Y-76220797D01*
X131842750Y-76215581D01*
X131822538Y-76208349D01*
X131803132Y-76199170D01*
X131784719Y-76188134D01*
X131767476Y-76175346D01*
X131751570Y-76160930D01*
X131737154Y-76145024D01*
X131724366Y-76127781D01*
X131713330Y-76109368D01*
X131704151Y-76089962D01*
X131696919Y-76069750D01*
X131691703Y-76048926D01*
X131688553Y-76027691D01*
X131687500Y-76006250D01*
X131687500Y-75493750D01*
X131688553Y-75472309D01*
X131691703Y-75451074D01*
X131696919Y-75430250D01*
X131704151Y-75410038D01*
X131713330Y-75390632D01*
X131724366Y-75372219D01*
X131737154Y-75354976D01*
X131751570Y-75339070D01*
X131767476Y-75324654D01*
X131784719Y-75311866D01*
X131803132Y-75300830D01*
X131822538Y-75291651D01*
X131842750Y-75284419D01*
X131863574Y-75279203D01*
X131884809Y-75276053D01*
X131906250Y-75275000D01*
X132343750Y-75275000D01*
X132365191Y-75276053D01*
G37*
G36*
X133940191Y-75276053D02*
G01*
X133961426Y-75279203D01*
X133982250Y-75284419D01*
X134002462Y-75291651D01*
X134021868Y-75300830D01*
X134040281Y-75311866D01*
X134057524Y-75324654D01*
X134073430Y-75339070D01*
X134087846Y-75354976D01*
X134100634Y-75372219D01*
X134111670Y-75390632D01*
X134120849Y-75410038D01*
X134128081Y-75430250D01*
X134133297Y-75451074D01*
X134136447Y-75472309D01*
X134137500Y-75493750D01*
X134137500Y-76006250D01*
X134136447Y-76027691D01*
X134133297Y-76048926D01*
X134128081Y-76069750D01*
X134120849Y-76089962D01*
X134111670Y-76109368D01*
X134100634Y-76127781D01*
X134087846Y-76145024D01*
X134073430Y-76160930D01*
X134057524Y-76175346D01*
X134040281Y-76188134D01*
X134021868Y-76199170D01*
X134002462Y-76208349D01*
X133982250Y-76215581D01*
X133961426Y-76220797D01*
X133940191Y-76223947D01*
X133918750Y-76225000D01*
X133481250Y-76225000D01*
X133459809Y-76223947D01*
X133438574Y-76220797D01*
X133417750Y-76215581D01*
X133397538Y-76208349D01*
X133378132Y-76199170D01*
X133359719Y-76188134D01*
X133342476Y-76175346D01*
X133326570Y-76160930D01*
X133312154Y-76145024D01*
X133299366Y-76127781D01*
X133288330Y-76109368D01*
X133279151Y-76089962D01*
X133271919Y-76069750D01*
X133266703Y-76048926D01*
X133263553Y-76027691D01*
X133262500Y-76006250D01*
X133262500Y-75493750D01*
X133263553Y-75472309D01*
X133266703Y-75451074D01*
X133271919Y-75430250D01*
X133279151Y-75410038D01*
X133288330Y-75390632D01*
X133299366Y-75372219D01*
X133312154Y-75354976D01*
X133326570Y-75339070D01*
X133342476Y-75324654D01*
X133359719Y-75311866D01*
X133378132Y-75300830D01*
X133397538Y-75291651D01*
X133417750Y-75284419D01*
X133438574Y-75279203D01*
X133459809Y-75276053D01*
X133481250Y-75275000D01*
X133918750Y-75275000D01*
X133940191Y-75276053D01*
G37*
G36*
X133940191Y-73576053D02*
G01*
X133961426Y-73579203D01*
X133982250Y-73584419D01*
X134002462Y-73591651D01*
X134021868Y-73600830D01*
X134040281Y-73611866D01*
X134057524Y-73624654D01*
X134073430Y-73639070D01*
X134087846Y-73654976D01*
X134100634Y-73672219D01*
X134111670Y-73690632D01*
X134120849Y-73710038D01*
X134128081Y-73730250D01*
X134133297Y-73751074D01*
X134136447Y-73772309D01*
X134137500Y-73793750D01*
X134137500Y-74306250D01*
X134136447Y-74327691D01*
X134133297Y-74348926D01*
X134128081Y-74369750D01*
X134120849Y-74389962D01*
X134111670Y-74409368D01*
X134100634Y-74427781D01*
X134087846Y-74445024D01*
X134073430Y-74460930D01*
X134057524Y-74475346D01*
X134040281Y-74488134D01*
X134021868Y-74499170D01*
X134002462Y-74508349D01*
X133982250Y-74515581D01*
X133961426Y-74520797D01*
X133940191Y-74523947D01*
X133918750Y-74525000D01*
X133481250Y-74525000D01*
X133459809Y-74523947D01*
X133438574Y-74520797D01*
X133417750Y-74515581D01*
X133397538Y-74508349D01*
X133378132Y-74499170D01*
X133359719Y-74488134D01*
X133342476Y-74475346D01*
X133326570Y-74460930D01*
X133312154Y-74445024D01*
X133299366Y-74427781D01*
X133288330Y-74409368D01*
X133279151Y-74389962D01*
X133271919Y-74369750D01*
X133266703Y-74348926D01*
X133263553Y-74327691D01*
X133262500Y-74306250D01*
X133262500Y-73793750D01*
X133263553Y-73772309D01*
X133266703Y-73751074D01*
X133271919Y-73730250D01*
X133279151Y-73710038D01*
X133288330Y-73690632D01*
X133299366Y-73672219D01*
X133312154Y-73654976D01*
X133326570Y-73639070D01*
X133342476Y-73624654D01*
X133359719Y-73611866D01*
X133378132Y-73600830D01*
X133397538Y-73591651D01*
X133417750Y-73584419D01*
X133438574Y-73579203D01*
X133459809Y-73576053D01*
X133481250Y-73575000D01*
X133918750Y-73575000D01*
X133940191Y-73576053D01*
G37*
G36*
X132365191Y-73576053D02*
G01*
X132386426Y-73579203D01*
X132407250Y-73584419D01*
X132427462Y-73591651D01*
X132446868Y-73600830D01*
X132465281Y-73611866D01*
X132482524Y-73624654D01*
X132498430Y-73639070D01*
X132512846Y-73654976D01*
X132525634Y-73672219D01*
X132536670Y-73690632D01*
X132545849Y-73710038D01*
X132553081Y-73730250D01*
X132558297Y-73751074D01*
X132561447Y-73772309D01*
X132562500Y-73793750D01*
X132562500Y-74306250D01*
X132561447Y-74327691D01*
X132558297Y-74348926D01*
X132553081Y-74369750D01*
X132545849Y-74389962D01*
X132536670Y-74409368D01*
X132525634Y-74427781D01*
X132512846Y-74445024D01*
X132498430Y-74460930D01*
X132482524Y-74475346D01*
X132465281Y-74488134D01*
X132446868Y-74499170D01*
X132427462Y-74508349D01*
X132407250Y-74515581D01*
X132386426Y-74520797D01*
X132365191Y-74523947D01*
X132343750Y-74525000D01*
X131906250Y-74525000D01*
X131884809Y-74523947D01*
X131863574Y-74520797D01*
X131842750Y-74515581D01*
X131822538Y-74508349D01*
X131803132Y-74499170D01*
X131784719Y-74488134D01*
X131767476Y-74475346D01*
X131751570Y-74460930D01*
X131737154Y-74445024D01*
X131724366Y-74427781D01*
X131713330Y-74409368D01*
X131704151Y-74389962D01*
X131696919Y-74369750D01*
X131691703Y-74348926D01*
X131688553Y-74327691D01*
X131687500Y-74306250D01*
X131687500Y-73793750D01*
X131688553Y-73772309D01*
X131691703Y-73751074D01*
X131696919Y-73730250D01*
X131704151Y-73710038D01*
X131713330Y-73690632D01*
X131724366Y-73672219D01*
X131737154Y-73654976D01*
X131751570Y-73639070D01*
X131767476Y-73624654D01*
X131784719Y-73611866D01*
X131803132Y-73600830D01*
X131822538Y-73591651D01*
X131842750Y-73584419D01*
X131863574Y-73579203D01*
X131884809Y-73576053D01*
X131906250Y-73575000D01*
X132343750Y-73575000D01*
X132365191Y-73576053D01*
G37*
G36*
X129476958Y-73730710D02*
G01*
X129491276Y-73732834D01*
X129505317Y-73736351D01*
X129518946Y-73741228D01*
X129532031Y-73747417D01*
X129544447Y-73754858D01*
X129556073Y-73763481D01*
X129566798Y-73773202D01*
X129576519Y-73783927D01*
X129585142Y-73795553D01*
X129592583Y-73807969D01*
X129598772Y-73821054D01*
X129603649Y-73834683D01*
X129607166Y-73848724D01*
X129609290Y-73863042D01*
X129610000Y-73877500D01*
X129610000Y-74222500D01*
X129609290Y-74236958D01*
X129607166Y-74251276D01*
X129603649Y-74265317D01*
X129598772Y-74278946D01*
X129592583Y-74292031D01*
X129585142Y-74304447D01*
X129576519Y-74316073D01*
X129566798Y-74326798D01*
X129556073Y-74336519D01*
X129544447Y-74345142D01*
X129532031Y-74352583D01*
X129518946Y-74358772D01*
X129505317Y-74363649D01*
X129491276Y-74367166D01*
X129476958Y-74369290D01*
X129462500Y-74370000D01*
X129167500Y-74370000D01*
X129153042Y-74369290D01*
X129138724Y-74367166D01*
X129124683Y-74363649D01*
X129111054Y-74358772D01*
X129097969Y-74352583D01*
X129085553Y-74345142D01*
X129073927Y-74336519D01*
X129063202Y-74326798D01*
X129053481Y-74316073D01*
X129044858Y-74304447D01*
X129037417Y-74292031D01*
X129031228Y-74278946D01*
X129026351Y-74265317D01*
X129022834Y-74251276D01*
X129020710Y-74236958D01*
X129020000Y-74222500D01*
X129020000Y-73877500D01*
X129020710Y-73863042D01*
X129022834Y-73848724D01*
X129026351Y-73834683D01*
X129031228Y-73821054D01*
X129037417Y-73807969D01*
X129044858Y-73795553D01*
X129053481Y-73783927D01*
X129063202Y-73773202D01*
X129073927Y-73763481D01*
X129085553Y-73754858D01*
X129097969Y-73747417D01*
X129111054Y-73741228D01*
X129124683Y-73736351D01*
X129138724Y-73732834D01*
X129153042Y-73730710D01*
X129167500Y-73730000D01*
X129462500Y-73730000D01*
X129476958Y-73730710D01*
G37*
G36*
X130446958Y-73730710D02*
G01*
X130461276Y-73732834D01*
X130475317Y-73736351D01*
X130488946Y-73741228D01*
X130502031Y-73747417D01*
X130514447Y-73754858D01*
X130526073Y-73763481D01*
X130536798Y-73773202D01*
X130546519Y-73783927D01*
X130555142Y-73795553D01*
X130562583Y-73807969D01*
X130568772Y-73821054D01*
X130573649Y-73834683D01*
X130577166Y-73848724D01*
X130579290Y-73863042D01*
X130580000Y-73877500D01*
X130580000Y-74222500D01*
X130579290Y-74236958D01*
X130577166Y-74251276D01*
X130573649Y-74265317D01*
X130568772Y-74278946D01*
X130562583Y-74292031D01*
X130555142Y-74304447D01*
X130546519Y-74316073D01*
X130536798Y-74326798D01*
X130526073Y-74336519D01*
X130514447Y-74345142D01*
X130502031Y-74352583D01*
X130488946Y-74358772D01*
X130475317Y-74363649D01*
X130461276Y-74367166D01*
X130446958Y-74369290D01*
X130432500Y-74370000D01*
X130137500Y-74370000D01*
X130123042Y-74369290D01*
X130108724Y-74367166D01*
X130094683Y-74363649D01*
X130081054Y-74358772D01*
X130067969Y-74352583D01*
X130055553Y-74345142D01*
X130043927Y-74336519D01*
X130033202Y-74326798D01*
X130023481Y-74316073D01*
X130014858Y-74304447D01*
X130007417Y-74292031D01*
X130001228Y-74278946D01*
X129996351Y-74265317D01*
X129992834Y-74251276D01*
X129990710Y-74236958D01*
X129990000Y-74222500D01*
X129990000Y-73877500D01*
X129990710Y-73863042D01*
X129992834Y-73848724D01*
X129996351Y-73834683D01*
X130001228Y-73821054D01*
X130007417Y-73807969D01*
X130014858Y-73795553D01*
X130023481Y-73783927D01*
X130033202Y-73773202D01*
X130043927Y-73763481D01*
X130055553Y-73754858D01*
X130067969Y-73747417D01*
X130081054Y-73741228D01*
X130094683Y-73736351D01*
X130108724Y-73732834D01*
X130123042Y-73730710D01*
X130137500Y-73730000D01*
X130432500Y-73730000D01*
X130446958Y-73730710D01*
G37*
G36*
X132531958Y-72230710D02*
G01*
X132546276Y-72232834D01*
X132560317Y-72236351D01*
X132573946Y-72241228D01*
X132587031Y-72247417D01*
X132599447Y-72254858D01*
X132611073Y-72263481D01*
X132621798Y-72273202D01*
X132631519Y-72283927D01*
X132640142Y-72295553D01*
X132647583Y-72307969D01*
X132653772Y-72321054D01*
X132658649Y-72334683D01*
X132662166Y-72348724D01*
X132664290Y-72363042D01*
X132665000Y-72377500D01*
X132665000Y-72722500D01*
X132664290Y-72736958D01*
X132662166Y-72751276D01*
X132658649Y-72765317D01*
X132653772Y-72778946D01*
X132647583Y-72792031D01*
X132640142Y-72804447D01*
X132631519Y-72816073D01*
X132621798Y-72826798D01*
X132611073Y-72836519D01*
X132599447Y-72845142D01*
X132587031Y-72852583D01*
X132573946Y-72858772D01*
X132560317Y-72863649D01*
X132546276Y-72867166D01*
X132531958Y-72869290D01*
X132517500Y-72870000D01*
X132222500Y-72870000D01*
X132208042Y-72869290D01*
X132193724Y-72867166D01*
X132179683Y-72863649D01*
X132166054Y-72858772D01*
X132152969Y-72852583D01*
X132140553Y-72845142D01*
X132128927Y-72836519D01*
X132118202Y-72826798D01*
X132108481Y-72816073D01*
X132099858Y-72804447D01*
X132092417Y-72792031D01*
X132086228Y-72778946D01*
X132081351Y-72765317D01*
X132077834Y-72751276D01*
X132075710Y-72736958D01*
X132075000Y-72722500D01*
X132075000Y-72377500D01*
X132075710Y-72363042D01*
X132077834Y-72348724D01*
X132081351Y-72334683D01*
X132086228Y-72321054D01*
X132092417Y-72307969D01*
X132099858Y-72295553D01*
X132108481Y-72283927D01*
X132118202Y-72273202D01*
X132128927Y-72263481D01*
X132140553Y-72254858D01*
X132152969Y-72247417D01*
X132166054Y-72241228D01*
X132179683Y-72236351D01*
X132193724Y-72232834D01*
X132208042Y-72230710D01*
X132222500Y-72230000D01*
X132517500Y-72230000D01*
X132531958Y-72230710D01*
G37*
G36*
X131561958Y-72230710D02*
G01*
X131576276Y-72232834D01*
X131590317Y-72236351D01*
X131603946Y-72241228D01*
X131617031Y-72247417D01*
X131629447Y-72254858D01*
X131641073Y-72263481D01*
X131651798Y-72273202D01*
X131661519Y-72283927D01*
X131670142Y-72295553D01*
X131677583Y-72307969D01*
X131683772Y-72321054D01*
X131688649Y-72334683D01*
X131692166Y-72348724D01*
X131694290Y-72363042D01*
X131695000Y-72377500D01*
X131695000Y-72722500D01*
X131694290Y-72736958D01*
X131692166Y-72751276D01*
X131688649Y-72765317D01*
X131683772Y-72778946D01*
X131677583Y-72792031D01*
X131670142Y-72804447D01*
X131661519Y-72816073D01*
X131651798Y-72826798D01*
X131641073Y-72836519D01*
X131629447Y-72845142D01*
X131617031Y-72852583D01*
X131603946Y-72858772D01*
X131590317Y-72863649D01*
X131576276Y-72867166D01*
X131561958Y-72869290D01*
X131547500Y-72870000D01*
X131252500Y-72870000D01*
X131238042Y-72869290D01*
X131223724Y-72867166D01*
X131209683Y-72863649D01*
X131196054Y-72858772D01*
X131182969Y-72852583D01*
X131170553Y-72845142D01*
X131158927Y-72836519D01*
X131148202Y-72826798D01*
X131138481Y-72816073D01*
X131129858Y-72804447D01*
X131122417Y-72792031D01*
X131116228Y-72778946D01*
X131111351Y-72765317D01*
X131107834Y-72751276D01*
X131105710Y-72736958D01*
X131105000Y-72722500D01*
X131105000Y-72377500D01*
X131105710Y-72363042D01*
X131107834Y-72348724D01*
X131111351Y-72334683D01*
X131116228Y-72321054D01*
X131122417Y-72307969D01*
X131129858Y-72295553D01*
X131138481Y-72283927D01*
X131148202Y-72273202D01*
X131158927Y-72263481D01*
X131170553Y-72254858D01*
X131182969Y-72247417D01*
X131196054Y-72241228D01*
X131209683Y-72236351D01*
X131223724Y-72232834D01*
X131238042Y-72230710D01*
X131252500Y-72230000D01*
X131547500Y-72230000D01*
X131561958Y-72230710D01*
G37*
G36*
X142581958Y-71980710D02*
G01*
X142596276Y-71982834D01*
X142610317Y-71986351D01*
X142623946Y-71991228D01*
X142637031Y-71997417D01*
X142649447Y-72004858D01*
X142661073Y-72013481D01*
X142671798Y-72023202D01*
X142681519Y-72033927D01*
X142690142Y-72045553D01*
X142697583Y-72057969D01*
X142703772Y-72071054D01*
X142708649Y-72084683D01*
X142712166Y-72098724D01*
X142714290Y-72113042D01*
X142715000Y-72127500D01*
X142715000Y-72472500D01*
X142714290Y-72486958D01*
X142712166Y-72501276D01*
X142708649Y-72515317D01*
X142703772Y-72528946D01*
X142697583Y-72542031D01*
X142690142Y-72554447D01*
X142681519Y-72566073D01*
X142671798Y-72576798D01*
X142661073Y-72586519D01*
X142649447Y-72595142D01*
X142637031Y-72602583D01*
X142623946Y-72608772D01*
X142610317Y-72613649D01*
X142596276Y-72617166D01*
X142581958Y-72619290D01*
X142567500Y-72620000D01*
X142272500Y-72620000D01*
X142258042Y-72619290D01*
X142243724Y-72617166D01*
X142229683Y-72613649D01*
X142216054Y-72608772D01*
X142202969Y-72602583D01*
X142190553Y-72595142D01*
X142178927Y-72586519D01*
X142168202Y-72576798D01*
X142158481Y-72566073D01*
X142149858Y-72554447D01*
X142142417Y-72542031D01*
X142136228Y-72528946D01*
X142131351Y-72515317D01*
X142127834Y-72501276D01*
X142125710Y-72486958D01*
X142125000Y-72472500D01*
X142125000Y-72127500D01*
X142125710Y-72113042D01*
X142127834Y-72098724D01*
X142131351Y-72084683D01*
X142136228Y-72071054D01*
X142142417Y-72057969D01*
X142149858Y-72045553D01*
X142158481Y-72033927D01*
X142168202Y-72023202D01*
X142178927Y-72013481D01*
X142190553Y-72004858D01*
X142202969Y-71997417D01*
X142216054Y-71991228D01*
X142229683Y-71986351D01*
X142243724Y-71982834D01*
X142258042Y-71980710D01*
X142272500Y-71980000D01*
X142567500Y-71980000D01*
X142581958Y-71980710D01*
G37*
G36*
X141611958Y-71980710D02*
G01*
X141626276Y-71982834D01*
X141640317Y-71986351D01*
X141653946Y-71991228D01*
X141667031Y-71997417D01*
X141679447Y-72004858D01*
X141691073Y-72013481D01*
X141701798Y-72023202D01*
X141711519Y-72033927D01*
X141720142Y-72045553D01*
X141727583Y-72057969D01*
X141733772Y-72071054D01*
X141738649Y-72084683D01*
X141742166Y-72098724D01*
X141744290Y-72113042D01*
X141745000Y-72127500D01*
X141745000Y-72472500D01*
X141744290Y-72486958D01*
X141742166Y-72501276D01*
X141738649Y-72515317D01*
X141733772Y-72528946D01*
X141727583Y-72542031D01*
X141720142Y-72554447D01*
X141711519Y-72566073D01*
X141701798Y-72576798D01*
X141691073Y-72586519D01*
X141679447Y-72595142D01*
X141667031Y-72602583D01*
X141653946Y-72608772D01*
X141640317Y-72613649D01*
X141626276Y-72617166D01*
X141611958Y-72619290D01*
X141597500Y-72620000D01*
X141302500Y-72620000D01*
X141288042Y-72619290D01*
X141273724Y-72617166D01*
X141259683Y-72613649D01*
X141246054Y-72608772D01*
X141232969Y-72602583D01*
X141220553Y-72595142D01*
X141208927Y-72586519D01*
X141198202Y-72576798D01*
X141188481Y-72566073D01*
X141179858Y-72554447D01*
X141172417Y-72542031D01*
X141166228Y-72528946D01*
X141161351Y-72515317D01*
X141157834Y-72501276D01*
X141155710Y-72486958D01*
X141155000Y-72472500D01*
X141155000Y-72127500D01*
X141155710Y-72113042D01*
X141157834Y-72098724D01*
X141161351Y-72084683D01*
X141166228Y-72071054D01*
X141172417Y-72057969D01*
X141179858Y-72045553D01*
X141188481Y-72033927D01*
X141198202Y-72023202D01*
X141208927Y-72013481D01*
X141220553Y-72004858D01*
X141232969Y-71997417D01*
X141246054Y-71991228D01*
X141259683Y-71986351D01*
X141273724Y-71982834D01*
X141288042Y-71980710D01*
X141302500Y-71980000D01*
X141597500Y-71980000D01*
X141611958Y-71980710D01*
G37*
G36*
X138322292Y-71970383D02*
G01*
X138330010Y-71971528D01*
X138337578Y-71973423D01*
X138344923Y-71976052D01*
X138351976Y-71979387D01*
X138358668Y-71983398D01*
X138364934Y-71988046D01*
X138370715Y-71993285D01*
X138375954Y-71999066D01*
X138380602Y-72005332D01*
X138384613Y-72012024D01*
X138387948Y-72019077D01*
X138390577Y-72026422D01*
X138392472Y-72033990D01*
X138393617Y-72041708D01*
X138394000Y-72049500D01*
X138394000Y-72250500D01*
X138393617Y-72258292D01*
X138392472Y-72266010D01*
X138390577Y-72273578D01*
X138387948Y-72280923D01*
X138384613Y-72287976D01*
X138380602Y-72294668D01*
X138375954Y-72300934D01*
X138370715Y-72306715D01*
X138364934Y-72311954D01*
X138358668Y-72316602D01*
X138351976Y-72320613D01*
X138344923Y-72323948D01*
X138337578Y-72326577D01*
X138330010Y-72328472D01*
X138322292Y-72329617D01*
X138314500Y-72330000D01*
X138155500Y-72330000D01*
X138147708Y-72329617D01*
X138139990Y-72328472D01*
X138132422Y-72326577D01*
X138125077Y-72323948D01*
X138118024Y-72320613D01*
X138111332Y-72316602D01*
X138105066Y-72311954D01*
X138099285Y-72306715D01*
X138094046Y-72300934D01*
X138089398Y-72294668D01*
X138085387Y-72287976D01*
X138082052Y-72280923D01*
X138079423Y-72273578D01*
X138077528Y-72266010D01*
X138076383Y-72258292D01*
X138076000Y-72250500D01*
X138076000Y-72049500D01*
X138076383Y-72041708D01*
X138077528Y-72033990D01*
X138079423Y-72026422D01*
X138082052Y-72019077D01*
X138085387Y-72012024D01*
X138089398Y-72005332D01*
X138094046Y-71999066D01*
X138099285Y-71993285D01*
X138105066Y-71988046D01*
X138111332Y-71983398D01*
X138118024Y-71979387D01*
X138125077Y-71976052D01*
X138132422Y-71973423D01*
X138139990Y-71971528D01*
X138147708Y-71970383D01*
X138155500Y-71970000D01*
X138314500Y-71970000D01*
X138322292Y-71970383D01*
G37*
G36*
X139012292Y-71970383D02*
G01*
X139020010Y-71971528D01*
X139027578Y-71973423D01*
X139034923Y-71976052D01*
X139041976Y-71979387D01*
X139048668Y-71983398D01*
X139054934Y-71988046D01*
X139060715Y-71993285D01*
X139065954Y-71999066D01*
X139070602Y-72005332D01*
X139074613Y-72012024D01*
X139077948Y-72019077D01*
X139080577Y-72026422D01*
X139082472Y-72033990D01*
X139083617Y-72041708D01*
X139084000Y-72049500D01*
X139084000Y-72250500D01*
X139083617Y-72258292D01*
X139082472Y-72266010D01*
X139080577Y-72273578D01*
X139077948Y-72280923D01*
X139074613Y-72287976D01*
X139070602Y-72294668D01*
X139065954Y-72300934D01*
X139060715Y-72306715D01*
X139054934Y-72311954D01*
X139048668Y-72316602D01*
X139041976Y-72320613D01*
X139034923Y-72323948D01*
X139027578Y-72326577D01*
X139020010Y-72328472D01*
X139012292Y-72329617D01*
X139004500Y-72330000D01*
X138845500Y-72330000D01*
X138837708Y-72329617D01*
X138829990Y-72328472D01*
X138822422Y-72326577D01*
X138815077Y-72323948D01*
X138808024Y-72320613D01*
X138801332Y-72316602D01*
X138795066Y-72311954D01*
X138789285Y-72306715D01*
X138784046Y-72300934D01*
X138779398Y-72294668D01*
X138775387Y-72287976D01*
X138772052Y-72280923D01*
X138769423Y-72273578D01*
X138767528Y-72266010D01*
X138766383Y-72258292D01*
X138766000Y-72250500D01*
X138766000Y-72049500D01*
X138766383Y-72041708D01*
X138767528Y-72033990D01*
X138769423Y-72026422D01*
X138772052Y-72019077D01*
X138775387Y-72012024D01*
X138779398Y-72005332D01*
X138784046Y-71999066D01*
X138789285Y-71993285D01*
X138795066Y-71988046D01*
X138801332Y-71983398D01*
X138808024Y-71979387D01*
X138815077Y-71976052D01*
X138822422Y-71973423D01*
X138829990Y-71971528D01*
X138837708Y-71970383D01*
X138845500Y-71970000D01*
X139004500Y-71970000D01*
X139012292Y-71970383D01*
G37*
M02*
