G04 #@! TF.GenerationSoftware,KiCad,Pcbnew,(5.1.5-0-10_14)*
G04 #@! TF.CreationDate,2020-03-10T08:19:59-07:00*
G04 #@! TF.ProjectId,ARBO BT,4152424f-2042-4542-9e6b-696361645f70,rev?*
G04 #@! TF.SameCoordinates,Original*
G04 #@! TF.FileFunction,Copper,L2,Inr*
G04 #@! TF.FilePolarity,Positive*
%FSLAX46Y46*%
G04 Gerber Fmt 4.6, Leading zero omitted, Abs format (unit mm)*
G04 Created by KiCad (PCBNEW (5.1.5-0-10_14)) date 2020-03-10 08:19:59*
%MOMM*%
%LPD*%
G04 APERTURE LIST*
%ADD10C,0.279000*%
%ADD11C,0.450000*%
%ADD12C,0.076200*%
%ADD13C,0.127000*%
%ADD14C,0.200000*%
G04 APERTURE END LIST*
D10*
X139700000Y-81050000D03*
X128550000Y-74050000D03*
X132980000Y-77050000D03*
X129780000Y-72020000D03*
X132120000Y-75100000D03*
X133030000Y-74050000D03*
X142030000Y-81200000D03*
X138590000Y-82110000D03*
X144750000Y-81650000D03*
X133100000Y-78250000D03*
X123600000Y-72200006D03*
X124902500Y-76252500D03*
X124800000Y-74450000D03*
X126900000Y-79650000D03*
D11*
X127796669Y-78768509D03*
D10*
X136100000Y-75650000D03*
X139200000Y-75850000D03*
X136050000Y-78050000D03*
X139850000Y-80000000D03*
X145200000Y-75750000D03*
X142000000Y-72760000D03*
X128600000Y-81950000D03*
X133500000Y-82180000D03*
X136200000Y-82200000D03*
X143710000Y-75810000D03*
X140645529Y-74504471D03*
X126561892Y-77650000D03*
D11*
X130320000Y-75530000D03*
D10*
X137800000Y-72650000D03*
X141881309Y-75381309D03*
X141175000Y-74575000D03*
X134120000Y-82000000D03*
X134650000Y-79140000D03*
X132600000Y-79000000D03*
D11*
X131880002Y-81840000D03*
D10*
X142040000Y-77250000D03*
D11*
X123600000Y-81450000D03*
X124600028Y-71900000D03*
D10*
X131400000Y-75950000D03*
D11*
X128226983Y-76211120D03*
D10*
X141850000Y-79650000D03*
X123850000Y-74600000D03*
X123600000Y-73749998D03*
X133750000Y-83130000D03*
X140500000Y-81379996D03*
X138800000Y-81450000D03*
X131100002Y-78000000D03*
X141850000Y-78850000D03*
X129700000Y-76700000D03*
X141850000Y-78450000D03*
X128200000Y-76700000D03*
X129700000Y-77100000D03*
X130100000Y-77500000D03*
X138135212Y-81450002D03*
X129700000Y-77500000D03*
X130750000Y-78550000D03*
X137650000Y-81360000D03*
X129700000Y-77900000D03*
X137829509Y-81779509D03*
X129100000Y-77300010D03*
X128200000Y-77900000D03*
X136699992Y-81820000D03*
X128200000Y-77500000D03*
X136584290Y-81450000D03*
X128200000Y-77100000D03*
X137110013Y-81751146D03*
X134542064Y-81891110D03*
X124600000Y-78050000D03*
X135500000Y-81650000D03*
X124700000Y-75850000D03*
X139900000Y-74150000D03*
X144420006Y-82240000D03*
X143200000Y-82250000D03*
X139300000Y-74250000D03*
X139200000Y-81450000D03*
X139200000Y-80950000D03*
D12*
X141951058Y-75810000D02*
X140645529Y-74504471D01*
X143710000Y-75810000D02*
X141951058Y-75810000D01*
D13*
X138950000Y-73800000D02*
X137800000Y-72650000D01*
X140400000Y-73800000D02*
X141035501Y-74435501D01*
X141035501Y-74435501D02*
X141175000Y-74575000D01*
X138950000Y-73800000D02*
X140400000Y-73800000D01*
X132600000Y-79000000D02*
X132600000Y-79020000D01*
X132720000Y-79140000D02*
X134650000Y-79140000D01*
X132600000Y-79020000D02*
X132720000Y-79140000D01*
X134120000Y-82000000D02*
X133960000Y-81840000D01*
X133960000Y-81840000D02*
X131880002Y-81840000D01*
X141175000Y-74585000D02*
X141175000Y-74575000D01*
X141881309Y-75291309D02*
X141175000Y-74585000D01*
X141881309Y-75381309D02*
X141881309Y-75291309D01*
X138950000Y-73800000D02*
X138950000Y-74357282D01*
X141842718Y-77250000D02*
X142040000Y-77250000D01*
X138950000Y-74357282D02*
X141842718Y-77250000D01*
X126561892Y-76288108D02*
X126561892Y-77650000D01*
X127100000Y-75750000D02*
X126561892Y-76288108D01*
X130100000Y-75750000D02*
X127100000Y-75750000D01*
X130320000Y-75530000D02*
X130100000Y-75750000D01*
D12*
X128238103Y-76200000D02*
X128226983Y-76211120D01*
X131150000Y-76200000D02*
X128238103Y-76200000D01*
X131400000Y-75950000D02*
X131150000Y-76200000D01*
X123850000Y-74797282D02*
X123850000Y-74600000D01*
X127400000Y-82850000D02*
X123850000Y-79300000D01*
X123850000Y-79300000D02*
X123850000Y-74797282D01*
X140250000Y-81447282D02*
X138847282Y-82850000D01*
X140250000Y-81240000D02*
X140250000Y-81447282D01*
X141840000Y-79650000D02*
X140250000Y-81240000D01*
X138847282Y-82850000D02*
X127400000Y-82850000D01*
X141850000Y-79650000D02*
X141840000Y-79650000D01*
X138937278Y-83140000D02*
X140500000Y-81577278D01*
X140500000Y-81577278D02*
X140500000Y-81379996D01*
X127290000Y-83140000D02*
X138937278Y-83140000D01*
X123600000Y-79450000D02*
X127290000Y-83140000D01*
X123600000Y-73749998D02*
X123600000Y-79450000D01*
X131100002Y-78100002D02*
X131100002Y-78000000D01*
X132550000Y-79550000D02*
X131100002Y-78100002D01*
X136600000Y-79550000D02*
X132550000Y-79550000D01*
X138500000Y-81450000D02*
X136600000Y-79550000D01*
X138800000Y-81450000D02*
X138500000Y-81450000D01*
X129750000Y-76650000D02*
X129700000Y-76700000D01*
X139650000Y-76650000D02*
X129750000Y-76650000D01*
X141850000Y-78850000D02*
X139650000Y-76650000D01*
X129290000Y-76700000D02*
X128200000Y-76700000D01*
X139800000Y-76400000D02*
X129590000Y-76400000D01*
X129590000Y-76400000D02*
X129290000Y-76700000D01*
X141850000Y-78450000D02*
X139800000Y-76400000D01*
X137995713Y-81310503D02*
X138135212Y-81450002D01*
X136485210Y-79800000D02*
X137995713Y-81310503D01*
X129700000Y-77100000D02*
X132400000Y-79800000D01*
X132400000Y-79800000D02*
X136485210Y-79800000D01*
X136340000Y-80050000D02*
X137510501Y-81220501D01*
X129700000Y-77500000D02*
X132250000Y-80050000D01*
X132250000Y-80050000D02*
X136340000Y-80050000D01*
X137510501Y-81220501D02*
X137650000Y-81360000D01*
X129700000Y-77900000D02*
X132100000Y-80300000D01*
X132100000Y-80300000D02*
X136152718Y-80300000D01*
X136152718Y-80300000D02*
X137632227Y-81779509D01*
X137632227Y-81779509D02*
X137829509Y-81779509D01*
X129100010Y-77300010D02*
X129100000Y-77300010D01*
X129700000Y-77900000D02*
X129100010Y-77300010D01*
X136502710Y-81820000D02*
X136699992Y-81820000D01*
X135682710Y-81000000D02*
X136502710Y-81820000D01*
X131300000Y-81000000D02*
X135682710Y-81000000D01*
X128200000Y-77900000D02*
X131300000Y-81000000D01*
X131759889Y-80784889D02*
X128475000Y-77500000D01*
X135919179Y-80784889D02*
X131759889Y-80784889D01*
X128475000Y-77500000D02*
X128200000Y-77500000D01*
X136584290Y-81450000D02*
X135919179Y-80784889D01*
X128200000Y-77100000D02*
X128475000Y-77100000D01*
X131925000Y-80550000D02*
X136106149Y-80550000D01*
X128475000Y-77100000D02*
X131925000Y-80550000D01*
X136106149Y-80550000D02*
X137110013Y-81553864D01*
X137110013Y-81553864D02*
X137110013Y-81751146D01*
X124739499Y-78189499D02*
X124600000Y-78050000D01*
X134100954Y-81450000D02*
X128000000Y-81450000D01*
X128000000Y-81450000D02*
X124739499Y-78189499D01*
X134542064Y-81891110D02*
X134100954Y-81450000D01*
X131778072Y-81234488D02*
X131762560Y-81250000D01*
X135084487Y-81234487D02*
X131778072Y-81234488D01*
X129202718Y-81250000D02*
X124560501Y-76607783D01*
X135500000Y-81650000D02*
X135084487Y-81234487D01*
X124560501Y-76607783D02*
X124560501Y-75989499D01*
X124560501Y-75989499D02*
X124700000Y-75850000D01*
X131762560Y-81250000D02*
X129202718Y-81250000D01*
X142850000Y-80867276D02*
X144222724Y-82240000D01*
X139900000Y-74150000D02*
X142850000Y-77100000D01*
X142850000Y-77100000D02*
X142850000Y-80867276D01*
X144222724Y-82240000D02*
X144420006Y-82240000D01*
X139439499Y-74389499D02*
X139300000Y-74250000D01*
X139639499Y-74389499D02*
X139439499Y-74389499D01*
X142650000Y-81700000D02*
X142650000Y-77400000D01*
X142650000Y-77400000D02*
X139639499Y-74389499D01*
X143200000Y-82250000D02*
X142650000Y-81700000D01*
X139200000Y-80950000D02*
X139200000Y-81450000D01*
D14*
G36*
X124125028Y-71853217D02*
G01*
X124125028Y-71946783D01*
X124143282Y-72038552D01*
X124179089Y-72124997D01*
X124231072Y-72202795D01*
X124297233Y-72268956D01*
X124375031Y-72320939D01*
X124461476Y-72356746D01*
X124553245Y-72375000D01*
X124646811Y-72375000D01*
X124738580Y-72356746D01*
X124825025Y-72320939D01*
X124902823Y-72268956D01*
X124968984Y-72202795D01*
X125020967Y-72124997D01*
X125056774Y-72038552D01*
X125075028Y-71946783D01*
X125075028Y-71853217D01*
X125059470Y-71775000D01*
X145625001Y-71775000D01*
X145625001Y-77350000D01*
X143500000Y-77350000D01*
X143480491Y-77351921D01*
X143461732Y-77357612D01*
X143444443Y-77366853D01*
X143429289Y-77379289D01*
X143416853Y-77394443D01*
X143407612Y-77411732D01*
X143401921Y-77430491D01*
X143400000Y-77450000D01*
X143400000Y-80550000D01*
X143401921Y-80569509D01*
X143407612Y-80588268D01*
X143416853Y-80605557D01*
X143429289Y-80620711D01*
X143444443Y-80633147D01*
X143461732Y-80642388D01*
X143480491Y-80648079D01*
X143500000Y-80650000D01*
X145625000Y-80650000D01*
X145625000Y-83225000D01*
X139259712Y-83225000D01*
X140693721Y-81790992D01*
X140704702Y-81781980D01*
X140716520Y-81767581D01*
X140723918Y-81758566D01*
X140740705Y-81738112D01*
X140761989Y-81698292D01*
X140767457Y-81688063D01*
X140778207Y-81652626D01*
X140802545Y-81628288D01*
X140845171Y-81564494D01*
X140874532Y-81493609D01*
X140889500Y-81418358D01*
X140889500Y-81341634D01*
X140874532Y-81266383D01*
X140845171Y-81195498D01*
X140802545Y-81131704D01*
X140784138Y-81113297D01*
X141857935Y-80039500D01*
X141888362Y-80039500D01*
X141963613Y-80024532D01*
X142034498Y-79995171D01*
X142098292Y-79952545D01*
X142152545Y-79898292D01*
X142195171Y-79834498D01*
X142224532Y-79763613D01*
X142239500Y-79688362D01*
X142239500Y-79611638D01*
X142224532Y-79536387D01*
X142195171Y-79465502D01*
X142152545Y-79401708D01*
X142098292Y-79347455D01*
X142034498Y-79304829D01*
X141963613Y-79275468D01*
X141888362Y-79260500D01*
X141811638Y-79260500D01*
X141736387Y-79275468D01*
X141665502Y-79304829D01*
X141601708Y-79347455D01*
X141547455Y-79401708D01*
X141504829Y-79465502D01*
X141475468Y-79536387D01*
X141460500Y-79611638D01*
X141460500Y-79622065D01*
X140086419Y-80996147D01*
X140074532Y-80936387D01*
X140045171Y-80865502D01*
X140002545Y-80801708D01*
X139948292Y-80747455D01*
X139884498Y-80704829D01*
X139813613Y-80675468D01*
X139738362Y-80660500D01*
X139661638Y-80660500D01*
X139586387Y-80675468D01*
X139515502Y-80704829D01*
X139507986Y-80709851D01*
X139502545Y-80701708D01*
X139448292Y-80647455D01*
X139384498Y-80604829D01*
X139313613Y-80575468D01*
X139238362Y-80560500D01*
X139161638Y-80560500D01*
X139086387Y-80575468D01*
X139015502Y-80604829D01*
X138951708Y-80647455D01*
X138897455Y-80701708D01*
X138854829Y-80765502D01*
X138825468Y-80836387D01*
X138810500Y-80911638D01*
X138810500Y-80988362D01*
X138824849Y-81060500D01*
X138761638Y-81060500D01*
X138686387Y-81075468D01*
X138615502Y-81104829D01*
X138583588Y-81126153D01*
X136813720Y-79356286D01*
X136804702Y-79345298D01*
X136760834Y-79309295D01*
X136710784Y-79282543D01*
X136656477Y-79266070D01*
X136614142Y-79261900D01*
X136614134Y-79261900D01*
X136600000Y-79260508D01*
X136585866Y-79261900D01*
X135021099Y-79261900D01*
X135024532Y-79253613D01*
X135039500Y-79178362D01*
X135039500Y-79101638D01*
X135024532Y-79026387D01*
X134995171Y-78955502D01*
X134952545Y-78891708D01*
X134898292Y-78837455D01*
X134834498Y-78794829D01*
X134763613Y-78765468D01*
X134688362Y-78750500D01*
X134611638Y-78750500D01*
X134536387Y-78765468D01*
X134465502Y-78794829D01*
X134418103Y-78826500D01*
X132949726Y-78826500D01*
X132945171Y-78815502D01*
X132902545Y-78751708D01*
X132848292Y-78697455D01*
X132784498Y-78654829D01*
X132713613Y-78625468D01*
X132638362Y-78610500D01*
X132561638Y-78610500D01*
X132486387Y-78625468D01*
X132415502Y-78654829D01*
X132351708Y-78697455D01*
X132297455Y-78751708D01*
X132254829Y-78815502D01*
X132245488Y-78838053D01*
X131482251Y-78074817D01*
X131489502Y-78038362D01*
X131489502Y-77961638D01*
X131474534Y-77886387D01*
X131445173Y-77815502D01*
X131402547Y-77751708D01*
X131348294Y-77697455D01*
X131284500Y-77654829D01*
X131213615Y-77625468D01*
X131138364Y-77610500D01*
X131061640Y-77610500D01*
X130986389Y-77625468D01*
X130915504Y-77654829D01*
X130851710Y-77697455D01*
X130797457Y-77751708D01*
X130782110Y-77774676D01*
X130489500Y-77482066D01*
X130489500Y-77461638D01*
X130474532Y-77386387D01*
X130445171Y-77315502D01*
X130402545Y-77251708D01*
X130348292Y-77197455D01*
X130284498Y-77154829D01*
X130213613Y-77125468D01*
X130138362Y-77110500D01*
X130117934Y-77110500D01*
X130089500Y-77082066D01*
X130089500Y-77061638D01*
X130074532Y-76986387D01*
X130054531Y-76938100D01*
X139530666Y-76938100D01*
X141460500Y-78867935D01*
X141460500Y-78888362D01*
X141475468Y-78963613D01*
X141504829Y-79034498D01*
X141547455Y-79098292D01*
X141601708Y-79152545D01*
X141665502Y-79195171D01*
X141736387Y-79224532D01*
X141811638Y-79239500D01*
X141888362Y-79239500D01*
X141963613Y-79224532D01*
X142034498Y-79195171D01*
X142098292Y-79152545D01*
X142152545Y-79098292D01*
X142195171Y-79034498D01*
X142224532Y-78963613D01*
X142239500Y-78888362D01*
X142239500Y-78811638D01*
X142224532Y-78736387D01*
X142195171Y-78665502D01*
X142184813Y-78650000D01*
X142195171Y-78634498D01*
X142224532Y-78563613D01*
X142239500Y-78488362D01*
X142239500Y-78411638D01*
X142224532Y-78336387D01*
X142195171Y-78265502D01*
X142152545Y-78201708D01*
X142098292Y-78147455D01*
X142034498Y-78104829D01*
X141963613Y-78075468D01*
X141888362Y-78060500D01*
X141867935Y-78060500D01*
X140013720Y-76206286D01*
X140004702Y-76195298D01*
X139960834Y-76159295D01*
X139910784Y-76132543D01*
X139856477Y-76116070D01*
X139814142Y-76111900D01*
X139814134Y-76111900D01*
X139800000Y-76110508D01*
X139785866Y-76111900D01*
X131754531Y-76111900D01*
X131774532Y-76063613D01*
X131789500Y-75988362D01*
X131789500Y-75911638D01*
X131774532Y-75836387D01*
X131745171Y-75765502D01*
X131702545Y-75701708D01*
X131648292Y-75647455D01*
X131584498Y-75604829D01*
X131513613Y-75575468D01*
X131438362Y-75560500D01*
X131361638Y-75560500D01*
X131286387Y-75575468D01*
X131215502Y-75604829D01*
X131151708Y-75647455D01*
X131097455Y-75701708D01*
X131054829Y-75765502D01*
X131025468Y-75836387D01*
X131010500Y-75911638D01*
X131010500Y-75911900D01*
X130603423Y-75911900D01*
X130622795Y-75898956D01*
X130688956Y-75832795D01*
X130740939Y-75754997D01*
X130776746Y-75668552D01*
X130795000Y-75576783D01*
X130795000Y-75483217D01*
X130776746Y-75391448D01*
X130740939Y-75305003D01*
X130688956Y-75227205D01*
X130622795Y-75161044D01*
X130544997Y-75109061D01*
X130458552Y-75073254D01*
X130366783Y-75055000D01*
X130273217Y-75055000D01*
X130181448Y-75073254D01*
X130095003Y-75109061D01*
X130017205Y-75161044D01*
X129951044Y-75227205D01*
X129899061Y-75305003D01*
X129863254Y-75391448D01*
X129854293Y-75436500D01*
X127115392Y-75436500D01*
X127100000Y-75434984D01*
X127084608Y-75436500D01*
X127038543Y-75441037D01*
X126979449Y-75458963D01*
X126924986Y-75488074D01*
X126877250Y-75527250D01*
X126867438Y-75539206D01*
X126351104Y-76055541D01*
X126339142Y-76065358D01*
X126299966Y-76113095D01*
X126270855Y-76167558D01*
X126257641Y-76211120D01*
X126252929Y-76226652D01*
X126246876Y-76288108D01*
X126248392Y-76303500D01*
X126248393Y-77418102D01*
X126216721Y-77465502D01*
X126187360Y-77536387D01*
X126172392Y-77611638D01*
X126172392Y-77688362D01*
X126187360Y-77763613D01*
X126216721Y-77834498D01*
X126259347Y-77898292D01*
X126313600Y-77952545D01*
X126377394Y-77995171D01*
X126448279Y-78024532D01*
X126523530Y-78039500D01*
X126600254Y-78039500D01*
X126675505Y-78024532D01*
X126746390Y-77995171D01*
X126810184Y-77952545D01*
X126864437Y-77898292D01*
X126907063Y-77834498D01*
X126936424Y-77763613D01*
X126951392Y-77688362D01*
X126951392Y-77611638D01*
X126936424Y-77536387D01*
X126907063Y-77465502D01*
X126875392Y-77418103D01*
X126875392Y-76417963D01*
X127229856Y-76063500D01*
X127773993Y-76063500D01*
X127770237Y-76072568D01*
X127751983Y-76164337D01*
X127751983Y-76257903D01*
X127770237Y-76349672D01*
X127806044Y-76436117D01*
X127856958Y-76512315D01*
X127854829Y-76515502D01*
X127825468Y-76586387D01*
X127810500Y-76661638D01*
X127810500Y-76738362D01*
X127825468Y-76813613D01*
X127854829Y-76884498D01*
X127865187Y-76900000D01*
X127854829Y-76915502D01*
X127825468Y-76986387D01*
X127810500Y-77061638D01*
X127810500Y-77138362D01*
X127825468Y-77213613D01*
X127854829Y-77284498D01*
X127865187Y-77300000D01*
X127854829Y-77315502D01*
X127825468Y-77386387D01*
X127810500Y-77461638D01*
X127810500Y-77538362D01*
X127825468Y-77613613D01*
X127854829Y-77684498D01*
X127865187Y-77700000D01*
X127854829Y-77715502D01*
X127825468Y-77786387D01*
X127810500Y-77861638D01*
X127810500Y-77938362D01*
X127825468Y-78013613D01*
X127854829Y-78084498D01*
X127897455Y-78148292D01*
X127951708Y-78202545D01*
X128015502Y-78245171D01*
X128086387Y-78274532D01*
X128161638Y-78289500D01*
X128182066Y-78289500D01*
X130854465Y-80961900D01*
X129322053Y-80961900D01*
X124848601Y-76488449D01*
X124848601Y-76210040D01*
X124884498Y-76195171D01*
X124948292Y-76152545D01*
X125002545Y-76098292D01*
X125045171Y-76034498D01*
X125074532Y-75963613D01*
X125089500Y-75888362D01*
X125089500Y-75811638D01*
X125074532Y-75736387D01*
X125045171Y-75665502D01*
X125002545Y-75601708D01*
X124948292Y-75547455D01*
X124884498Y-75504829D01*
X124813613Y-75475468D01*
X124738362Y-75460500D01*
X124661638Y-75460500D01*
X124586387Y-75475468D01*
X124515502Y-75504829D01*
X124451708Y-75547455D01*
X124397455Y-75601708D01*
X124354829Y-75665502D01*
X124325468Y-75736387D01*
X124310500Y-75811638D01*
X124310500Y-75846059D01*
X124293045Y-75878715D01*
X124276571Y-75933022D01*
X124271009Y-75989499D01*
X124272402Y-76003643D01*
X124272401Y-76593648D01*
X124271009Y-76607783D01*
X124272401Y-76621917D01*
X124272401Y-76621924D01*
X124276571Y-76664259D01*
X124293044Y-76718566D01*
X124319796Y-76768616D01*
X124355799Y-76812485D01*
X124366787Y-76821503D01*
X128707183Y-81161900D01*
X128119335Y-81161900D01*
X124989500Y-78032066D01*
X124989500Y-78011638D01*
X124974532Y-77936387D01*
X124945171Y-77865502D01*
X124902545Y-77801708D01*
X124848292Y-77747455D01*
X124784498Y-77704829D01*
X124713613Y-77675468D01*
X124638362Y-77660500D01*
X124561638Y-77660500D01*
X124486387Y-77675468D01*
X124415502Y-77704829D01*
X124351708Y-77747455D01*
X124297455Y-77801708D01*
X124254829Y-77865502D01*
X124225468Y-77936387D01*
X124210500Y-78011638D01*
X124210500Y-78088362D01*
X124225468Y-78163613D01*
X124254829Y-78234498D01*
X124297455Y-78298292D01*
X124351708Y-78352545D01*
X124415502Y-78395171D01*
X124486387Y-78424532D01*
X124561638Y-78439500D01*
X124582066Y-78439500D01*
X127786282Y-81643717D01*
X127795298Y-81654702D01*
X127806280Y-81663715D01*
X127806282Y-81663717D01*
X127807830Y-81664987D01*
X127839166Y-81690705D01*
X127889216Y-81717457D01*
X127907592Y-81723031D01*
X127943522Y-81733931D01*
X127972406Y-81736775D01*
X127985858Y-81738100D01*
X127985863Y-81738100D01*
X128000000Y-81739492D01*
X128014137Y-81738100D01*
X131415965Y-81738100D01*
X131405002Y-81793217D01*
X131405002Y-81886783D01*
X131423256Y-81978552D01*
X131459063Y-82064997D01*
X131511046Y-82142795D01*
X131577207Y-82208956D01*
X131655005Y-82260939D01*
X131741450Y-82296746D01*
X131833219Y-82315000D01*
X131926785Y-82315000D01*
X132018554Y-82296746D01*
X132104999Y-82260939D01*
X132182797Y-82208956D01*
X132238253Y-82153500D01*
X133761989Y-82153500D01*
X133774829Y-82184498D01*
X133817455Y-82248292D01*
X133871708Y-82302545D01*
X133935502Y-82345171D01*
X134006387Y-82374532D01*
X134081638Y-82389500D01*
X134158362Y-82389500D01*
X134233613Y-82374532D01*
X134304498Y-82345171D01*
X134368292Y-82302545D01*
X134412006Y-82258831D01*
X134428451Y-82265642D01*
X134503702Y-82280610D01*
X134580426Y-82280610D01*
X134655677Y-82265642D01*
X134726562Y-82236281D01*
X134790356Y-82193655D01*
X134844609Y-82139402D01*
X134887235Y-82075608D01*
X134916596Y-82004723D01*
X134931564Y-81929472D01*
X134931564Y-81852748D01*
X134916596Y-81777497D01*
X134887235Y-81706612D01*
X134844609Y-81642818D01*
X134790356Y-81588565D01*
X134726562Y-81545939D01*
X134670182Y-81522586D01*
X134965152Y-81522586D01*
X135110500Y-81667935D01*
X135110500Y-81688362D01*
X135125468Y-81763613D01*
X135154829Y-81834498D01*
X135197455Y-81898292D01*
X135251708Y-81952545D01*
X135315502Y-81995171D01*
X135386387Y-82024532D01*
X135461638Y-82039500D01*
X135538362Y-82039500D01*
X135613613Y-82024532D01*
X135684498Y-81995171D01*
X135748292Y-81952545D01*
X135802545Y-81898292D01*
X135845171Y-81834498D01*
X135874532Y-81763613D01*
X135889500Y-81688362D01*
X135889500Y-81614225D01*
X136288995Y-82013720D01*
X136298008Y-82024702D01*
X136308990Y-82033715D01*
X136308992Y-82033717D01*
X136314652Y-82038362D01*
X136341876Y-82060705D01*
X136391926Y-82087457D01*
X136427360Y-82098205D01*
X136451700Y-82122545D01*
X136515494Y-82165171D01*
X136586379Y-82194532D01*
X136661630Y-82209500D01*
X136738354Y-82209500D01*
X136813605Y-82194532D01*
X136884490Y-82165171D01*
X136948284Y-82122545D01*
X136960161Y-82110668D01*
X136996400Y-82125678D01*
X137071651Y-82140646D01*
X137148375Y-82140646D01*
X137223626Y-82125678D01*
X137294511Y-82096317D01*
X137358305Y-82053691D01*
X137412558Y-81999438D01*
X137424883Y-81980992D01*
X137427525Y-81984211D01*
X137471393Y-82020214D01*
X137521443Y-82046966D01*
X137537851Y-82051943D01*
X137556878Y-82057715D01*
X137581217Y-82082054D01*
X137645011Y-82124680D01*
X137715896Y-82154041D01*
X137791147Y-82169009D01*
X137867871Y-82169009D01*
X137943122Y-82154041D01*
X138014007Y-82124680D01*
X138077801Y-82082054D01*
X138132054Y-82027801D01*
X138174680Y-81964007D01*
X138204041Y-81893122D01*
X138216401Y-81830983D01*
X138248825Y-81824534D01*
X138319710Y-81795173D01*
X138383504Y-81752547D01*
X138411757Y-81724294D01*
X138443522Y-81733931D01*
X138472406Y-81736775D01*
X138485858Y-81738100D01*
X138485863Y-81738100D01*
X138500000Y-81739492D01*
X138514137Y-81738100D01*
X138537263Y-81738100D01*
X138551708Y-81752545D01*
X138615502Y-81795171D01*
X138686387Y-81824532D01*
X138761638Y-81839500D01*
X138838362Y-81839500D01*
X138913613Y-81824532D01*
X138984498Y-81795171D01*
X139000000Y-81784813D01*
X139015502Y-81795171D01*
X139086387Y-81824532D01*
X139161638Y-81839500D01*
X139238362Y-81839500D01*
X139313613Y-81824532D01*
X139384498Y-81795171D01*
X139448292Y-81752545D01*
X139502545Y-81698292D01*
X139545171Y-81634498D01*
X139574532Y-81563613D01*
X139589500Y-81488362D01*
X139589500Y-81425151D01*
X139661638Y-81439500D01*
X139738362Y-81439500D01*
X139813613Y-81424532D01*
X139884498Y-81395171D01*
X139915172Y-81374675D01*
X138727948Y-82561900D01*
X127519335Y-82561900D01*
X124138100Y-79180666D01*
X124138100Y-74862737D01*
X124152545Y-74848292D01*
X124195171Y-74784498D01*
X124224532Y-74713613D01*
X124239500Y-74638362D01*
X124239500Y-74561638D01*
X124224532Y-74486387D01*
X124195171Y-74415502D01*
X124152545Y-74351708D01*
X124098292Y-74297455D01*
X124034498Y-74254829D01*
X123963613Y-74225468D01*
X123888362Y-74210500D01*
X123888100Y-74210500D01*
X123888100Y-74012735D01*
X123902545Y-73998290D01*
X123945171Y-73934496D01*
X123974532Y-73863611D01*
X123989500Y-73788360D01*
X123989500Y-73711636D01*
X123974532Y-73636385D01*
X123945171Y-73565500D01*
X123902545Y-73501706D01*
X123848292Y-73447453D01*
X123784498Y-73404827D01*
X123713613Y-73375466D01*
X123638362Y-73360498D01*
X123561638Y-73360498D01*
X123486387Y-73375466D01*
X123415502Y-73404827D01*
X123351708Y-73447453D01*
X123297455Y-73501706D01*
X123254829Y-73565500D01*
X123225468Y-73636385D01*
X123210500Y-73711636D01*
X123210500Y-73788360D01*
X123225468Y-73863611D01*
X123254829Y-73934496D01*
X123297455Y-73998290D01*
X123311900Y-74012735D01*
X123311901Y-79435855D01*
X123310508Y-79450000D01*
X123316070Y-79506477D01*
X123326453Y-79540705D01*
X123332544Y-79560784D01*
X123359296Y-79610834D01*
X123395299Y-79654702D01*
X123406281Y-79663715D01*
X126967565Y-83225000D01*
X123175000Y-83225000D01*
X123175000Y-81665193D01*
X123179061Y-81674997D01*
X123231044Y-81752795D01*
X123297205Y-81818956D01*
X123375003Y-81870939D01*
X123461448Y-81906746D01*
X123553217Y-81925000D01*
X123646783Y-81925000D01*
X123738552Y-81906746D01*
X123824997Y-81870939D01*
X123902795Y-81818956D01*
X123968956Y-81752795D01*
X124020939Y-81674997D01*
X124056746Y-81588552D01*
X124075000Y-81496783D01*
X124075000Y-81403217D01*
X124056746Y-81311448D01*
X124020939Y-81225003D01*
X123968956Y-81147205D01*
X123902795Y-81081044D01*
X123824997Y-81029061D01*
X123738552Y-80993254D01*
X123646783Y-80975000D01*
X123553217Y-80975000D01*
X123461448Y-80993254D01*
X123375003Y-81029061D01*
X123297205Y-81081044D01*
X123231044Y-81147205D01*
X123179061Y-81225003D01*
X123175000Y-81234807D01*
X123175000Y-72611638D01*
X137410500Y-72611638D01*
X137410500Y-72688362D01*
X137425468Y-72763613D01*
X137454829Y-72834498D01*
X137497455Y-72898292D01*
X137551708Y-72952545D01*
X137615502Y-72995171D01*
X137686387Y-73024532D01*
X137742298Y-73035653D01*
X138636500Y-73929856D01*
X138636501Y-74341880D01*
X138634984Y-74357282D01*
X138641037Y-74418738D01*
X138658964Y-74477833D01*
X138688074Y-74532295D01*
X138702877Y-74550332D01*
X138727251Y-74580032D01*
X138739207Y-74589844D01*
X141610156Y-77460794D01*
X141619968Y-77472750D01*
X141667704Y-77511926D01*
X141722167Y-77541037D01*
X141773066Y-77556477D01*
X141781261Y-77558963D01*
X141804780Y-77561279D01*
X141855502Y-77595171D01*
X141926387Y-77624532D01*
X142001638Y-77639500D01*
X142078362Y-77639500D01*
X142153613Y-77624532D01*
X142224498Y-77595171D01*
X142288292Y-77552545D01*
X142341701Y-77499136D01*
X142361901Y-77519336D01*
X142361900Y-81685865D01*
X142360508Y-81700000D01*
X142361900Y-81714134D01*
X142361900Y-81714141D01*
X142364260Y-81738100D01*
X142366070Y-81756477D01*
X142368235Y-81763613D01*
X142382543Y-81810783D01*
X142409295Y-81860833D01*
X142445298Y-81904702D01*
X142456286Y-81913720D01*
X142810500Y-82267935D01*
X142810500Y-82288362D01*
X142825468Y-82363613D01*
X142854829Y-82434498D01*
X142897455Y-82498292D01*
X142951708Y-82552545D01*
X143015502Y-82595171D01*
X143086387Y-82624532D01*
X143161638Y-82639500D01*
X143238362Y-82639500D01*
X143313613Y-82624532D01*
X143384498Y-82595171D01*
X143448292Y-82552545D01*
X143502545Y-82498292D01*
X143545171Y-82434498D01*
X143574532Y-82363613D01*
X143589500Y-82288362D01*
X143589500Y-82211638D01*
X143574532Y-82136387D01*
X143545171Y-82065502D01*
X143502545Y-82001708D01*
X143448292Y-81947455D01*
X143384498Y-81904829D01*
X143313613Y-81875468D01*
X143238362Y-81860500D01*
X143217935Y-81860500D01*
X142938100Y-81580666D01*
X142938100Y-81362810D01*
X144009009Y-82433720D01*
X144018022Y-82444702D01*
X144029004Y-82453715D01*
X144029006Y-82453717D01*
X144036554Y-82459911D01*
X144061890Y-82480705D01*
X144111940Y-82507457D01*
X144130856Y-82513195D01*
X144147375Y-82518206D01*
X144171714Y-82542545D01*
X144235508Y-82585171D01*
X144306393Y-82614532D01*
X144381644Y-82629500D01*
X144458368Y-82629500D01*
X144533619Y-82614532D01*
X144604504Y-82585171D01*
X144668298Y-82542545D01*
X144722551Y-82488292D01*
X144765177Y-82424498D01*
X144794538Y-82353613D01*
X144809506Y-82278362D01*
X144809506Y-82201638D01*
X144794538Y-82126387D01*
X144765177Y-82055502D01*
X144722551Y-81991708D01*
X144668298Y-81937455D01*
X144604504Y-81894829D01*
X144533619Y-81865468D01*
X144458368Y-81850500D01*
X144381644Y-81850500D01*
X144306393Y-81865468D01*
X144270496Y-81880337D01*
X143138100Y-80747942D01*
X143138100Y-77114134D01*
X143139492Y-77099999D01*
X143138100Y-77085865D01*
X143138100Y-77085858D01*
X143133930Y-77043523D01*
X143130603Y-77032553D01*
X143128933Y-77027049D01*
X143117457Y-76989216D01*
X143090705Y-76939166D01*
X143054702Y-76895298D01*
X143043721Y-76886286D01*
X142255535Y-76098100D01*
X143447263Y-76098100D01*
X143461708Y-76112545D01*
X143525502Y-76155171D01*
X143596387Y-76184532D01*
X143671638Y-76199500D01*
X143748362Y-76199500D01*
X143823613Y-76184532D01*
X143894498Y-76155171D01*
X143958292Y-76112545D01*
X144012545Y-76058292D01*
X144055171Y-75994498D01*
X144084532Y-75923613D01*
X144099500Y-75848362D01*
X144099500Y-75771638D01*
X144084532Y-75696387D01*
X144055171Y-75625502D01*
X144012545Y-75561708D01*
X143958292Y-75507455D01*
X143894498Y-75464829D01*
X143823613Y-75435468D01*
X143748362Y-75420500D01*
X143671638Y-75420500D01*
X143596387Y-75435468D01*
X143525502Y-75464829D01*
X143461708Y-75507455D01*
X143447263Y-75521900D01*
X142244667Y-75521900D01*
X142255841Y-75494922D01*
X142270809Y-75419671D01*
X142270809Y-75342947D01*
X142255841Y-75267696D01*
X142226480Y-75196811D01*
X142183854Y-75133017D01*
X142129601Y-75078764D01*
X142076918Y-75043562D01*
X141563136Y-74529781D01*
X141549532Y-74461387D01*
X141520171Y-74390502D01*
X141477545Y-74326708D01*
X141423292Y-74272455D01*
X141359498Y-74229829D01*
X141288613Y-74200468D01*
X141232703Y-74189347D01*
X140632567Y-73589212D01*
X140622750Y-73577250D01*
X140575014Y-73538074D01*
X140520551Y-73508963D01*
X140461457Y-73491037D01*
X140415392Y-73486500D01*
X140400000Y-73484984D01*
X140384608Y-73486500D01*
X139079856Y-73486500D01*
X138185653Y-72592298D01*
X138174532Y-72536387D01*
X138145171Y-72465502D01*
X138102545Y-72401708D01*
X138048292Y-72347455D01*
X137984498Y-72304829D01*
X137913613Y-72275468D01*
X137838362Y-72260500D01*
X137761638Y-72260500D01*
X137686387Y-72275468D01*
X137615502Y-72304829D01*
X137551708Y-72347455D01*
X137497455Y-72401708D01*
X137454829Y-72465502D01*
X137425468Y-72536387D01*
X137410500Y-72611638D01*
X123175000Y-72611638D01*
X123175000Y-71775000D01*
X124140586Y-71775000D01*
X124125028Y-71853217D01*
G37*
X124125028Y-71853217D02*
X124125028Y-71946783D01*
X124143282Y-72038552D01*
X124179089Y-72124997D01*
X124231072Y-72202795D01*
X124297233Y-72268956D01*
X124375031Y-72320939D01*
X124461476Y-72356746D01*
X124553245Y-72375000D01*
X124646811Y-72375000D01*
X124738580Y-72356746D01*
X124825025Y-72320939D01*
X124902823Y-72268956D01*
X124968984Y-72202795D01*
X125020967Y-72124997D01*
X125056774Y-72038552D01*
X125075028Y-71946783D01*
X125075028Y-71853217D01*
X125059470Y-71775000D01*
X145625001Y-71775000D01*
X145625001Y-77350000D01*
X143500000Y-77350000D01*
X143480491Y-77351921D01*
X143461732Y-77357612D01*
X143444443Y-77366853D01*
X143429289Y-77379289D01*
X143416853Y-77394443D01*
X143407612Y-77411732D01*
X143401921Y-77430491D01*
X143400000Y-77450000D01*
X143400000Y-80550000D01*
X143401921Y-80569509D01*
X143407612Y-80588268D01*
X143416853Y-80605557D01*
X143429289Y-80620711D01*
X143444443Y-80633147D01*
X143461732Y-80642388D01*
X143480491Y-80648079D01*
X143500000Y-80650000D01*
X145625000Y-80650000D01*
X145625000Y-83225000D01*
X139259712Y-83225000D01*
X140693721Y-81790992D01*
X140704702Y-81781980D01*
X140716520Y-81767581D01*
X140723918Y-81758566D01*
X140740705Y-81738112D01*
X140761989Y-81698292D01*
X140767457Y-81688063D01*
X140778207Y-81652626D01*
X140802545Y-81628288D01*
X140845171Y-81564494D01*
X140874532Y-81493609D01*
X140889500Y-81418358D01*
X140889500Y-81341634D01*
X140874532Y-81266383D01*
X140845171Y-81195498D01*
X140802545Y-81131704D01*
X140784138Y-81113297D01*
X141857935Y-80039500D01*
X141888362Y-80039500D01*
X141963613Y-80024532D01*
X142034498Y-79995171D01*
X142098292Y-79952545D01*
X142152545Y-79898292D01*
X142195171Y-79834498D01*
X142224532Y-79763613D01*
X142239500Y-79688362D01*
X142239500Y-79611638D01*
X142224532Y-79536387D01*
X142195171Y-79465502D01*
X142152545Y-79401708D01*
X142098292Y-79347455D01*
X142034498Y-79304829D01*
X141963613Y-79275468D01*
X141888362Y-79260500D01*
X141811638Y-79260500D01*
X141736387Y-79275468D01*
X141665502Y-79304829D01*
X141601708Y-79347455D01*
X141547455Y-79401708D01*
X141504829Y-79465502D01*
X141475468Y-79536387D01*
X141460500Y-79611638D01*
X141460500Y-79622065D01*
X140086419Y-80996147D01*
X140074532Y-80936387D01*
X140045171Y-80865502D01*
X140002545Y-80801708D01*
X139948292Y-80747455D01*
X139884498Y-80704829D01*
X139813613Y-80675468D01*
X139738362Y-80660500D01*
X139661638Y-80660500D01*
X139586387Y-80675468D01*
X139515502Y-80704829D01*
X139507986Y-80709851D01*
X139502545Y-80701708D01*
X139448292Y-80647455D01*
X139384498Y-80604829D01*
X139313613Y-80575468D01*
X139238362Y-80560500D01*
X139161638Y-80560500D01*
X139086387Y-80575468D01*
X139015502Y-80604829D01*
X138951708Y-80647455D01*
X138897455Y-80701708D01*
X138854829Y-80765502D01*
X138825468Y-80836387D01*
X138810500Y-80911638D01*
X138810500Y-80988362D01*
X138824849Y-81060500D01*
X138761638Y-81060500D01*
X138686387Y-81075468D01*
X138615502Y-81104829D01*
X138583588Y-81126153D01*
X136813720Y-79356286D01*
X136804702Y-79345298D01*
X136760834Y-79309295D01*
X136710784Y-79282543D01*
X136656477Y-79266070D01*
X136614142Y-79261900D01*
X136614134Y-79261900D01*
X136600000Y-79260508D01*
X136585866Y-79261900D01*
X135021099Y-79261900D01*
X135024532Y-79253613D01*
X135039500Y-79178362D01*
X135039500Y-79101638D01*
X135024532Y-79026387D01*
X134995171Y-78955502D01*
X134952545Y-78891708D01*
X134898292Y-78837455D01*
X134834498Y-78794829D01*
X134763613Y-78765468D01*
X134688362Y-78750500D01*
X134611638Y-78750500D01*
X134536387Y-78765468D01*
X134465502Y-78794829D01*
X134418103Y-78826500D01*
X132949726Y-78826500D01*
X132945171Y-78815502D01*
X132902545Y-78751708D01*
X132848292Y-78697455D01*
X132784498Y-78654829D01*
X132713613Y-78625468D01*
X132638362Y-78610500D01*
X132561638Y-78610500D01*
X132486387Y-78625468D01*
X132415502Y-78654829D01*
X132351708Y-78697455D01*
X132297455Y-78751708D01*
X132254829Y-78815502D01*
X132245488Y-78838053D01*
X131482251Y-78074817D01*
X131489502Y-78038362D01*
X131489502Y-77961638D01*
X131474534Y-77886387D01*
X131445173Y-77815502D01*
X131402547Y-77751708D01*
X131348294Y-77697455D01*
X131284500Y-77654829D01*
X131213615Y-77625468D01*
X131138364Y-77610500D01*
X131061640Y-77610500D01*
X130986389Y-77625468D01*
X130915504Y-77654829D01*
X130851710Y-77697455D01*
X130797457Y-77751708D01*
X130782110Y-77774676D01*
X130489500Y-77482066D01*
X130489500Y-77461638D01*
X130474532Y-77386387D01*
X130445171Y-77315502D01*
X130402545Y-77251708D01*
X130348292Y-77197455D01*
X130284498Y-77154829D01*
X130213613Y-77125468D01*
X130138362Y-77110500D01*
X130117934Y-77110500D01*
X130089500Y-77082066D01*
X130089500Y-77061638D01*
X130074532Y-76986387D01*
X130054531Y-76938100D01*
X139530666Y-76938100D01*
X141460500Y-78867935D01*
X141460500Y-78888362D01*
X141475468Y-78963613D01*
X141504829Y-79034498D01*
X141547455Y-79098292D01*
X141601708Y-79152545D01*
X141665502Y-79195171D01*
X141736387Y-79224532D01*
X141811638Y-79239500D01*
X141888362Y-79239500D01*
X141963613Y-79224532D01*
X142034498Y-79195171D01*
X142098292Y-79152545D01*
X142152545Y-79098292D01*
X142195171Y-79034498D01*
X142224532Y-78963613D01*
X142239500Y-78888362D01*
X142239500Y-78811638D01*
X142224532Y-78736387D01*
X142195171Y-78665502D01*
X142184813Y-78650000D01*
X142195171Y-78634498D01*
X142224532Y-78563613D01*
X142239500Y-78488362D01*
X142239500Y-78411638D01*
X142224532Y-78336387D01*
X142195171Y-78265502D01*
X142152545Y-78201708D01*
X142098292Y-78147455D01*
X142034498Y-78104829D01*
X141963613Y-78075468D01*
X141888362Y-78060500D01*
X141867935Y-78060500D01*
X140013720Y-76206286D01*
X140004702Y-76195298D01*
X139960834Y-76159295D01*
X139910784Y-76132543D01*
X139856477Y-76116070D01*
X139814142Y-76111900D01*
X139814134Y-76111900D01*
X139800000Y-76110508D01*
X139785866Y-76111900D01*
X131754531Y-76111900D01*
X131774532Y-76063613D01*
X131789500Y-75988362D01*
X131789500Y-75911638D01*
X131774532Y-75836387D01*
X131745171Y-75765502D01*
X131702545Y-75701708D01*
X131648292Y-75647455D01*
X131584498Y-75604829D01*
X131513613Y-75575468D01*
X131438362Y-75560500D01*
X131361638Y-75560500D01*
X131286387Y-75575468D01*
X131215502Y-75604829D01*
X131151708Y-75647455D01*
X131097455Y-75701708D01*
X131054829Y-75765502D01*
X131025468Y-75836387D01*
X131010500Y-75911638D01*
X131010500Y-75911900D01*
X130603423Y-75911900D01*
X130622795Y-75898956D01*
X130688956Y-75832795D01*
X130740939Y-75754997D01*
X130776746Y-75668552D01*
X130795000Y-75576783D01*
X130795000Y-75483217D01*
X130776746Y-75391448D01*
X130740939Y-75305003D01*
X130688956Y-75227205D01*
X130622795Y-75161044D01*
X130544997Y-75109061D01*
X130458552Y-75073254D01*
X130366783Y-75055000D01*
X130273217Y-75055000D01*
X130181448Y-75073254D01*
X130095003Y-75109061D01*
X130017205Y-75161044D01*
X129951044Y-75227205D01*
X129899061Y-75305003D01*
X129863254Y-75391448D01*
X129854293Y-75436500D01*
X127115392Y-75436500D01*
X127100000Y-75434984D01*
X127084608Y-75436500D01*
X127038543Y-75441037D01*
X126979449Y-75458963D01*
X126924986Y-75488074D01*
X126877250Y-75527250D01*
X126867438Y-75539206D01*
X126351104Y-76055541D01*
X126339142Y-76065358D01*
X126299966Y-76113095D01*
X126270855Y-76167558D01*
X126257641Y-76211120D01*
X126252929Y-76226652D01*
X126246876Y-76288108D01*
X126248392Y-76303500D01*
X126248393Y-77418102D01*
X126216721Y-77465502D01*
X126187360Y-77536387D01*
X126172392Y-77611638D01*
X126172392Y-77688362D01*
X126187360Y-77763613D01*
X126216721Y-77834498D01*
X126259347Y-77898292D01*
X126313600Y-77952545D01*
X126377394Y-77995171D01*
X126448279Y-78024532D01*
X126523530Y-78039500D01*
X126600254Y-78039500D01*
X126675505Y-78024532D01*
X126746390Y-77995171D01*
X126810184Y-77952545D01*
X126864437Y-77898292D01*
X126907063Y-77834498D01*
X126936424Y-77763613D01*
X126951392Y-77688362D01*
X126951392Y-77611638D01*
X126936424Y-77536387D01*
X126907063Y-77465502D01*
X126875392Y-77418103D01*
X126875392Y-76417963D01*
X127229856Y-76063500D01*
X127773993Y-76063500D01*
X127770237Y-76072568D01*
X127751983Y-76164337D01*
X127751983Y-76257903D01*
X127770237Y-76349672D01*
X127806044Y-76436117D01*
X127856958Y-76512315D01*
X127854829Y-76515502D01*
X127825468Y-76586387D01*
X127810500Y-76661638D01*
X127810500Y-76738362D01*
X127825468Y-76813613D01*
X127854829Y-76884498D01*
X127865187Y-76900000D01*
X127854829Y-76915502D01*
X127825468Y-76986387D01*
X127810500Y-77061638D01*
X127810500Y-77138362D01*
X127825468Y-77213613D01*
X127854829Y-77284498D01*
X127865187Y-77300000D01*
X127854829Y-77315502D01*
X127825468Y-77386387D01*
X127810500Y-77461638D01*
X127810500Y-77538362D01*
X127825468Y-77613613D01*
X127854829Y-77684498D01*
X127865187Y-77700000D01*
X127854829Y-77715502D01*
X127825468Y-77786387D01*
X127810500Y-77861638D01*
X127810500Y-77938362D01*
X127825468Y-78013613D01*
X127854829Y-78084498D01*
X127897455Y-78148292D01*
X127951708Y-78202545D01*
X128015502Y-78245171D01*
X128086387Y-78274532D01*
X128161638Y-78289500D01*
X128182066Y-78289500D01*
X130854465Y-80961900D01*
X129322053Y-80961900D01*
X124848601Y-76488449D01*
X124848601Y-76210040D01*
X124884498Y-76195171D01*
X124948292Y-76152545D01*
X125002545Y-76098292D01*
X125045171Y-76034498D01*
X125074532Y-75963613D01*
X125089500Y-75888362D01*
X125089500Y-75811638D01*
X125074532Y-75736387D01*
X125045171Y-75665502D01*
X125002545Y-75601708D01*
X124948292Y-75547455D01*
X124884498Y-75504829D01*
X124813613Y-75475468D01*
X124738362Y-75460500D01*
X124661638Y-75460500D01*
X124586387Y-75475468D01*
X124515502Y-75504829D01*
X124451708Y-75547455D01*
X124397455Y-75601708D01*
X124354829Y-75665502D01*
X124325468Y-75736387D01*
X124310500Y-75811638D01*
X124310500Y-75846059D01*
X124293045Y-75878715D01*
X124276571Y-75933022D01*
X124271009Y-75989499D01*
X124272402Y-76003643D01*
X124272401Y-76593648D01*
X124271009Y-76607783D01*
X124272401Y-76621917D01*
X124272401Y-76621924D01*
X124276571Y-76664259D01*
X124293044Y-76718566D01*
X124319796Y-76768616D01*
X124355799Y-76812485D01*
X124366787Y-76821503D01*
X128707183Y-81161900D01*
X128119335Y-81161900D01*
X124989500Y-78032066D01*
X124989500Y-78011638D01*
X124974532Y-77936387D01*
X124945171Y-77865502D01*
X124902545Y-77801708D01*
X124848292Y-77747455D01*
X124784498Y-77704829D01*
X124713613Y-77675468D01*
X124638362Y-77660500D01*
X124561638Y-77660500D01*
X124486387Y-77675468D01*
X124415502Y-77704829D01*
X124351708Y-77747455D01*
X124297455Y-77801708D01*
X124254829Y-77865502D01*
X124225468Y-77936387D01*
X124210500Y-78011638D01*
X124210500Y-78088362D01*
X124225468Y-78163613D01*
X124254829Y-78234498D01*
X124297455Y-78298292D01*
X124351708Y-78352545D01*
X124415502Y-78395171D01*
X124486387Y-78424532D01*
X124561638Y-78439500D01*
X124582066Y-78439500D01*
X127786282Y-81643717D01*
X127795298Y-81654702D01*
X127806280Y-81663715D01*
X127806282Y-81663717D01*
X127807830Y-81664987D01*
X127839166Y-81690705D01*
X127889216Y-81717457D01*
X127907592Y-81723031D01*
X127943522Y-81733931D01*
X127972406Y-81736775D01*
X127985858Y-81738100D01*
X127985863Y-81738100D01*
X128000000Y-81739492D01*
X128014137Y-81738100D01*
X131415965Y-81738100D01*
X131405002Y-81793217D01*
X131405002Y-81886783D01*
X131423256Y-81978552D01*
X131459063Y-82064997D01*
X131511046Y-82142795D01*
X131577207Y-82208956D01*
X131655005Y-82260939D01*
X131741450Y-82296746D01*
X131833219Y-82315000D01*
X131926785Y-82315000D01*
X132018554Y-82296746D01*
X132104999Y-82260939D01*
X132182797Y-82208956D01*
X132238253Y-82153500D01*
X133761989Y-82153500D01*
X133774829Y-82184498D01*
X133817455Y-82248292D01*
X133871708Y-82302545D01*
X133935502Y-82345171D01*
X134006387Y-82374532D01*
X134081638Y-82389500D01*
X134158362Y-82389500D01*
X134233613Y-82374532D01*
X134304498Y-82345171D01*
X134368292Y-82302545D01*
X134412006Y-82258831D01*
X134428451Y-82265642D01*
X134503702Y-82280610D01*
X134580426Y-82280610D01*
X134655677Y-82265642D01*
X134726562Y-82236281D01*
X134790356Y-82193655D01*
X134844609Y-82139402D01*
X134887235Y-82075608D01*
X134916596Y-82004723D01*
X134931564Y-81929472D01*
X134931564Y-81852748D01*
X134916596Y-81777497D01*
X134887235Y-81706612D01*
X134844609Y-81642818D01*
X134790356Y-81588565D01*
X134726562Y-81545939D01*
X134670182Y-81522586D01*
X134965152Y-81522586D01*
X135110500Y-81667935D01*
X135110500Y-81688362D01*
X135125468Y-81763613D01*
X135154829Y-81834498D01*
X135197455Y-81898292D01*
X135251708Y-81952545D01*
X135315502Y-81995171D01*
X135386387Y-82024532D01*
X135461638Y-82039500D01*
X135538362Y-82039500D01*
X135613613Y-82024532D01*
X135684498Y-81995171D01*
X135748292Y-81952545D01*
X135802545Y-81898292D01*
X135845171Y-81834498D01*
X135874532Y-81763613D01*
X135889500Y-81688362D01*
X135889500Y-81614225D01*
X136288995Y-82013720D01*
X136298008Y-82024702D01*
X136308990Y-82033715D01*
X136308992Y-82033717D01*
X136314652Y-82038362D01*
X136341876Y-82060705D01*
X136391926Y-82087457D01*
X136427360Y-82098205D01*
X136451700Y-82122545D01*
X136515494Y-82165171D01*
X136586379Y-82194532D01*
X136661630Y-82209500D01*
X136738354Y-82209500D01*
X136813605Y-82194532D01*
X136884490Y-82165171D01*
X136948284Y-82122545D01*
X136960161Y-82110668D01*
X136996400Y-82125678D01*
X137071651Y-82140646D01*
X137148375Y-82140646D01*
X137223626Y-82125678D01*
X137294511Y-82096317D01*
X137358305Y-82053691D01*
X137412558Y-81999438D01*
X137424883Y-81980992D01*
X137427525Y-81984211D01*
X137471393Y-82020214D01*
X137521443Y-82046966D01*
X137537851Y-82051943D01*
X137556878Y-82057715D01*
X137581217Y-82082054D01*
X137645011Y-82124680D01*
X137715896Y-82154041D01*
X137791147Y-82169009D01*
X137867871Y-82169009D01*
X137943122Y-82154041D01*
X138014007Y-82124680D01*
X138077801Y-82082054D01*
X138132054Y-82027801D01*
X138174680Y-81964007D01*
X138204041Y-81893122D01*
X138216401Y-81830983D01*
X138248825Y-81824534D01*
X138319710Y-81795173D01*
X138383504Y-81752547D01*
X138411757Y-81724294D01*
X138443522Y-81733931D01*
X138472406Y-81736775D01*
X138485858Y-81738100D01*
X138485863Y-81738100D01*
X138500000Y-81739492D01*
X138514137Y-81738100D01*
X138537263Y-81738100D01*
X138551708Y-81752545D01*
X138615502Y-81795171D01*
X138686387Y-81824532D01*
X138761638Y-81839500D01*
X138838362Y-81839500D01*
X138913613Y-81824532D01*
X138984498Y-81795171D01*
X139000000Y-81784813D01*
X139015502Y-81795171D01*
X139086387Y-81824532D01*
X139161638Y-81839500D01*
X139238362Y-81839500D01*
X139313613Y-81824532D01*
X139384498Y-81795171D01*
X139448292Y-81752545D01*
X139502545Y-81698292D01*
X139545171Y-81634498D01*
X139574532Y-81563613D01*
X139589500Y-81488362D01*
X139589500Y-81425151D01*
X139661638Y-81439500D01*
X139738362Y-81439500D01*
X139813613Y-81424532D01*
X139884498Y-81395171D01*
X139915172Y-81374675D01*
X138727948Y-82561900D01*
X127519335Y-82561900D01*
X124138100Y-79180666D01*
X124138100Y-74862737D01*
X124152545Y-74848292D01*
X124195171Y-74784498D01*
X124224532Y-74713613D01*
X124239500Y-74638362D01*
X124239500Y-74561638D01*
X124224532Y-74486387D01*
X124195171Y-74415502D01*
X124152545Y-74351708D01*
X124098292Y-74297455D01*
X124034498Y-74254829D01*
X123963613Y-74225468D01*
X123888362Y-74210500D01*
X123888100Y-74210500D01*
X123888100Y-74012735D01*
X123902545Y-73998290D01*
X123945171Y-73934496D01*
X123974532Y-73863611D01*
X123989500Y-73788360D01*
X123989500Y-73711636D01*
X123974532Y-73636385D01*
X123945171Y-73565500D01*
X123902545Y-73501706D01*
X123848292Y-73447453D01*
X123784498Y-73404827D01*
X123713613Y-73375466D01*
X123638362Y-73360498D01*
X123561638Y-73360498D01*
X123486387Y-73375466D01*
X123415502Y-73404827D01*
X123351708Y-73447453D01*
X123297455Y-73501706D01*
X123254829Y-73565500D01*
X123225468Y-73636385D01*
X123210500Y-73711636D01*
X123210500Y-73788360D01*
X123225468Y-73863611D01*
X123254829Y-73934496D01*
X123297455Y-73998290D01*
X123311900Y-74012735D01*
X123311901Y-79435855D01*
X123310508Y-79450000D01*
X123316070Y-79506477D01*
X123326453Y-79540705D01*
X123332544Y-79560784D01*
X123359296Y-79610834D01*
X123395299Y-79654702D01*
X123406281Y-79663715D01*
X126967565Y-83225000D01*
X123175000Y-83225000D01*
X123175000Y-81665193D01*
X123179061Y-81674997D01*
X123231044Y-81752795D01*
X123297205Y-81818956D01*
X123375003Y-81870939D01*
X123461448Y-81906746D01*
X123553217Y-81925000D01*
X123646783Y-81925000D01*
X123738552Y-81906746D01*
X123824997Y-81870939D01*
X123902795Y-81818956D01*
X123968956Y-81752795D01*
X124020939Y-81674997D01*
X124056746Y-81588552D01*
X124075000Y-81496783D01*
X124075000Y-81403217D01*
X124056746Y-81311448D01*
X124020939Y-81225003D01*
X123968956Y-81147205D01*
X123902795Y-81081044D01*
X123824997Y-81029061D01*
X123738552Y-80993254D01*
X123646783Y-80975000D01*
X123553217Y-80975000D01*
X123461448Y-80993254D01*
X123375003Y-81029061D01*
X123297205Y-81081044D01*
X123231044Y-81147205D01*
X123179061Y-81225003D01*
X123175000Y-81234807D01*
X123175000Y-72611638D01*
X137410500Y-72611638D01*
X137410500Y-72688362D01*
X137425468Y-72763613D01*
X137454829Y-72834498D01*
X137497455Y-72898292D01*
X137551708Y-72952545D01*
X137615502Y-72995171D01*
X137686387Y-73024532D01*
X137742298Y-73035653D01*
X138636500Y-73929856D01*
X138636501Y-74341880D01*
X138634984Y-74357282D01*
X138641037Y-74418738D01*
X138658964Y-74477833D01*
X138688074Y-74532295D01*
X138702877Y-74550332D01*
X138727251Y-74580032D01*
X138739207Y-74589844D01*
X141610156Y-77460794D01*
X141619968Y-77472750D01*
X141667704Y-77511926D01*
X141722167Y-77541037D01*
X141773066Y-77556477D01*
X141781261Y-77558963D01*
X141804780Y-77561279D01*
X141855502Y-77595171D01*
X141926387Y-77624532D01*
X142001638Y-77639500D01*
X142078362Y-77639500D01*
X142153613Y-77624532D01*
X142224498Y-77595171D01*
X142288292Y-77552545D01*
X142341701Y-77499136D01*
X142361901Y-77519336D01*
X142361900Y-81685865D01*
X142360508Y-81700000D01*
X142361900Y-81714134D01*
X142361900Y-81714141D01*
X142364260Y-81738100D01*
X142366070Y-81756477D01*
X142368235Y-81763613D01*
X142382543Y-81810783D01*
X142409295Y-81860833D01*
X142445298Y-81904702D01*
X142456286Y-81913720D01*
X142810500Y-82267935D01*
X142810500Y-82288362D01*
X142825468Y-82363613D01*
X142854829Y-82434498D01*
X142897455Y-82498292D01*
X142951708Y-82552545D01*
X143015502Y-82595171D01*
X143086387Y-82624532D01*
X143161638Y-82639500D01*
X143238362Y-82639500D01*
X143313613Y-82624532D01*
X143384498Y-82595171D01*
X143448292Y-82552545D01*
X143502545Y-82498292D01*
X143545171Y-82434498D01*
X143574532Y-82363613D01*
X143589500Y-82288362D01*
X143589500Y-82211638D01*
X143574532Y-82136387D01*
X143545171Y-82065502D01*
X143502545Y-82001708D01*
X143448292Y-81947455D01*
X143384498Y-81904829D01*
X143313613Y-81875468D01*
X143238362Y-81860500D01*
X143217935Y-81860500D01*
X142938100Y-81580666D01*
X142938100Y-81362810D01*
X144009009Y-82433720D01*
X144018022Y-82444702D01*
X144029004Y-82453715D01*
X144029006Y-82453717D01*
X144036554Y-82459911D01*
X144061890Y-82480705D01*
X144111940Y-82507457D01*
X144130856Y-82513195D01*
X144147375Y-82518206D01*
X144171714Y-82542545D01*
X144235508Y-82585171D01*
X144306393Y-82614532D01*
X144381644Y-82629500D01*
X144458368Y-82629500D01*
X144533619Y-82614532D01*
X144604504Y-82585171D01*
X144668298Y-82542545D01*
X144722551Y-82488292D01*
X144765177Y-82424498D01*
X144794538Y-82353613D01*
X144809506Y-82278362D01*
X144809506Y-82201638D01*
X144794538Y-82126387D01*
X144765177Y-82055502D01*
X144722551Y-81991708D01*
X144668298Y-81937455D01*
X144604504Y-81894829D01*
X144533619Y-81865468D01*
X144458368Y-81850500D01*
X144381644Y-81850500D01*
X144306393Y-81865468D01*
X144270496Y-81880337D01*
X143138100Y-80747942D01*
X143138100Y-77114134D01*
X143139492Y-77099999D01*
X143138100Y-77085865D01*
X143138100Y-77085858D01*
X143133930Y-77043523D01*
X143130603Y-77032553D01*
X143128933Y-77027049D01*
X143117457Y-76989216D01*
X143090705Y-76939166D01*
X143054702Y-76895298D01*
X143043721Y-76886286D01*
X142255535Y-76098100D01*
X143447263Y-76098100D01*
X143461708Y-76112545D01*
X143525502Y-76155171D01*
X143596387Y-76184532D01*
X143671638Y-76199500D01*
X143748362Y-76199500D01*
X143823613Y-76184532D01*
X143894498Y-76155171D01*
X143958292Y-76112545D01*
X144012545Y-76058292D01*
X144055171Y-75994498D01*
X144084532Y-75923613D01*
X144099500Y-75848362D01*
X144099500Y-75771638D01*
X144084532Y-75696387D01*
X144055171Y-75625502D01*
X144012545Y-75561708D01*
X143958292Y-75507455D01*
X143894498Y-75464829D01*
X143823613Y-75435468D01*
X143748362Y-75420500D01*
X143671638Y-75420500D01*
X143596387Y-75435468D01*
X143525502Y-75464829D01*
X143461708Y-75507455D01*
X143447263Y-75521900D01*
X142244667Y-75521900D01*
X142255841Y-75494922D01*
X142270809Y-75419671D01*
X142270809Y-75342947D01*
X142255841Y-75267696D01*
X142226480Y-75196811D01*
X142183854Y-75133017D01*
X142129601Y-75078764D01*
X142076918Y-75043562D01*
X141563136Y-74529781D01*
X141549532Y-74461387D01*
X141520171Y-74390502D01*
X141477545Y-74326708D01*
X141423292Y-74272455D01*
X141359498Y-74229829D01*
X141288613Y-74200468D01*
X141232703Y-74189347D01*
X140632567Y-73589212D01*
X140622750Y-73577250D01*
X140575014Y-73538074D01*
X140520551Y-73508963D01*
X140461457Y-73491037D01*
X140415392Y-73486500D01*
X140400000Y-73484984D01*
X140384608Y-73486500D01*
X139079856Y-73486500D01*
X138185653Y-72592298D01*
X138174532Y-72536387D01*
X138145171Y-72465502D01*
X138102545Y-72401708D01*
X138048292Y-72347455D01*
X137984498Y-72304829D01*
X137913613Y-72275468D01*
X137838362Y-72260500D01*
X137761638Y-72260500D01*
X137686387Y-72275468D01*
X137615502Y-72304829D01*
X137551708Y-72347455D01*
X137497455Y-72401708D01*
X137454829Y-72465502D01*
X137425468Y-72536387D01*
X137410500Y-72611638D01*
X123175000Y-72611638D01*
X123175000Y-71775000D01*
X124140586Y-71775000D01*
X124125028Y-71853217D01*
M02*
