G04 #@! TF.GenerationSoftware,KiCad,Pcbnew,(5.1.5-0-10_14)*
G04 #@! TF.CreationDate,2020-08-21T21:41:28-04:00*
G04 #@! TF.ProjectId,ESLO,45534c4f-2e6b-4696-9361-645f70636258,rev?*
G04 #@! TF.SameCoordinates,Original*
G04 #@! TF.FileFunction,Copper,L2,Inr*
G04 #@! TF.FilePolarity,Positive*
%FSLAX46Y46*%
G04 Gerber Fmt 4.6, Leading zero omitted, Abs format (unit mm)*
G04 Created by KiCad (PCBNEW (5.1.5-0-10_14)) date 2020-08-21 21:41:28*
%MOMM*%
%LPD*%
G04 APERTURE LIST*
%ADD10C,0.254000*%
%ADD11C,0.450000*%
%ADD12C,0.250000*%
G04 APERTURE END LIST*
D10*
X153600000Y-103200000D03*
D11*
X158500000Y-113525000D03*
X158300000Y-110024992D03*
X158275000Y-106600000D03*
X158278272Y-107239683D03*
X157864812Y-110463068D03*
X146800000Y-102800000D03*
D10*
X153600000Y-104200000D03*
D11*
X146800000Y-103800000D03*
X146800000Y-104800000D03*
X146800000Y-106400000D03*
X146800000Y-107400000D03*
X146800000Y-108400000D03*
X146800000Y-109400000D03*
X146800000Y-112400000D03*
X147800000Y-112400000D03*
X148800000Y-112400000D03*
X147700000Y-102200000D03*
X147700000Y-101200000D03*
X149800000Y-107400000D03*
X149800000Y-108400000D03*
X148800000Y-108400000D03*
X147800000Y-108400000D03*
X147800000Y-107400000D03*
X148800000Y-107400000D03*
X147600000Y-104400000D03*
X160266369Y-110962220D03*
X150725000Y-101150000D03*
X151700000Y-113300000D03*
X166450000Y-103000006D03*
X169400000Y-103100000D03*
X170425000Y-104400000D03*
X169400000Y-105575000D03*
X170550000Y-106925000D03*
X169400000Y-108050000D03*
X170500000Y-109325000D03*
X167370592Y-110573006D03*
X170550000Y-111900000D03*
D12*
G36*
X170600000Y-103823055D02*
G01*
X170484095Y-103800000D01*
X170365905Y-103800000D01*
X170249986Y-103823058D01*
X170140793Y-103868287D01*
X170042522Y-103933950D01*
X169958950Y-104017522D01*
X169893287Y-104115793D01*
X169848058Y-104224986D01*
X169825000Y-104340905D01*
X169825000Y-104459095D01*
X169848058Y-104575014D01*
X169893287Y-104684207D01*
X169958950Y-104782478D01*
X170042522Y-104866050D01*
X170140793Y-104931713D01*
X170249986Y-104976942D01*
X170365905Y-105000000D01*
X170484095Y-105000000D01*
X170600000Y-104976945D01*
X170600000Y-106325000D01*
X170490905Y-106325000D01*
X170374986Y-106348058D01*
X170265793Y-106393287D01*
X170167522Y-106458950D01*
X170083950Y-106542522D01*
X170018287Y-106640793D01*
X169973058Y-106749986D01*
X169950000Y-106865905D01*
X169950000Y-106984095D01*
X169973058Y-107100014D01*
X170018287Y-107209207D01*
X170083950Y-107307478D01*
X170167522Y-107391050D01*
X170265793Y-107456713D01*
X170374986Y-107501942D01*
X170490905Y-107525000D01*
X170600001Y-107525000D01*
X170600001Y-108733137D01*
X170559095Y-108725000D01*
X170440905Y-108725000D01*
X170324986Y-108748058D01*
X170215793Y-108793287D01*
X170117522Y-108858950D01*
X170033950Y-108942522D01*
X169968287Y-109040793D01*
X169923058Y-109149986D01*
X169900000Y-109265905D01*
X169900000Y-109384095D01*
X169923058Y-109500014D01*
X169968287Y-109609207D01*
X170033950Y-109707478D01*
X170117522Y-109791050D01*
X170215793Y-109856713D01*
X170324986Y-109901942D01*
X170440905Y-109925000D01*
X170559095Y-109925000D01*
X170600001Y-109916863D01*
X170600001Y-111300000D01*
X170490905Y-111300000D01*
X170374986Y-111323058D01*
X170265793Y-111368287D01*
X170167522Y-111433950D01*
X170083950Y-111517522D01*
X170018287Y-111615793D01*
X169973058Y-111724986D01*
X169950000Y-111840905D01*
X169950000Y-111959095D01*
X169973058Y-112075014D01*
X170018287Y-112184207D01*
X170083950Y-112282478D01*
X170167522Y-112366050D01*
X170265793Y-112431713D01*
X170374986Y-112476942D01*
X170490905Y-112500000D01*
X170600001Y-112500000D01*
X170600001Y-113600000D01*
X159096836Y-113600000D01*
X159100000Y-113584095D01*
X159100000Y-113465905D01*
X159076942Y-113349986D01*
X159031713Y-113240793D01*
X158966050Y-113142522D01*
X158882478Y-113058950D01*
X158784207Y-112993287D01*
X158675014Y-112948058D01*
X158559095Y-112925000D01*
X158440905Y-112925000D01*
X158324986Y-112948058D01*
X158215793Y-112993287D01*
X158117522Y-113058950D01*
X158033950Y-113142522D01*
X157968287Y-113240793D01*
X157923058Y-113349986D01*
X157900000Y-113465905D01*
X157900000Y-113584095D01*
X157903164Y-113600000D01*
X146375000Y-113600000D01*
X146375000Y-110403973D01*
X157264812Y-110403973D01*
X157264812Y-110522163D01*
X157287870Y-110638082D01*
X157333099Y-110747275D01*
X157398762Y-110845546D01*
X157482334Y-110929118D01*
X157580605Y-110994781D01*
X157689798Y-111040010D01*
X157805717Y-111063068D01*
X157923907Y-111063068D01*
X158039826Y-111040010D01*
X158149019Y-110994781D01*
X158247290Y-110929118D01*
X158330862Y-110845546D01*
X158396525Y-110747275D01*
X158441754Y-110638082D01*
X158447870Y-110607333D01*
X158475014Y-110601934D01*
X158584207Y-110556705D01*
X158648252Y-110513911D01*
X166770592Y-110513911D01*
X166770592Y-110632101D01*
X166793650Y-110748020D01*
X166838879Y-110857213D01*
X166904542Y-110955484D01*
X166988114Y-111039056D01*
X167086385Y-111104719D01*
X167195578Y-111149948D01*
X167311497Y-111173006D01*
X167429687Y-111173006D01*
X167545606Y-111149948D01*
X167654799Y-111104719D01*
X167753070Y-111039056D01*
X167836642Y-110955484D01*
X167902305Y-110857213D01*
X167947534Y-110748020D01*
X167970592Y-110632101D01*
X167970592Y-110513911D01*
X167947534Y-110397992D01*
X167902305Y-110288799D01*
X167836642Y-110190528D01*
X167753070Y-110106956D01*
X167654799Y-110041293D01*
X167545606Y-109996064D01*
X167429687Y-109973006D01*
X167311497Y-109973006D01*
X167195578Y-109996064D01*
X167086385Y-110041293D01*
X166988114Y-110106956D01*
X166904542Y-110190528D01*
X166838879Y-110288799D01*
X166793650Y-110397992D01*
X166770592Y-110513911D01*
X158648252Y-110513911D01*
X158682478Y-110491042D01*
X158766050Y-110407470D01*
X158831713Y-110309199D01*
X158876942Y-110200006D01*
X158900000Y-110084087D01*
X158900000Y-109965897D01*
X158876942Y-109849978D01*
X158831713Y-109740785D01*
X158766050Y-109642514D01*
X158682478Y-109558942D01*
X158584207Y-109493279D01*
X158475014Y-109448050D01*
X158359095Y-109424992D01*
X158240905Y-109424992D01*
X158124986Y-109448050D01*
X158015793Y-109493279D01*
X157917522Y-109558942D01*
X157833950Y-109642514D01*
X157768287Y-109740785D01*
X157723058Y-109849978D01*
X157716942Y-109880727D01*
X157689798Y-109886126D01*
X157580605Y-109931355D01*
X157482334Y-109997018D01*
X157398762Y-110080590D01*
X157333099Y-110178861D01*
X157287870Y-110288054D01*
X157264812Y-110403973D01*
X146375000Y-110403973D01*
X146375000Y-110250000D01*
X146372598Y-110225614D01*
X146365485Y-110202165D01*
X146353934Y-110180554D01*
X146338388Y-110161612D01*
X146319446Y-110146066D01*
X146297835Y-110134515D01*
X146274386Y-110127402D01*
X146250000Y-110125000D01*
X145125000Y-110125000D01*
X145125000Y-107990905D01*
X168800000Y-107990905D01*
X168800000Y-108109095D01*
X168823058Y-108225014D01*
X168868287Y-108334207D01*
X168933950Y-108432478D01*
X169017522Y-108516050D01*
X169115793Y-108581713D01*
X169224986Y-108626942D01*
X169340905Y-108650000D01*
X169459095Y-108650000D01*
X169575014Y-108626942D01*
X169684207Y-108581713D01*
X169782478Y-108516050D01*
X169866050Y-108432478D01*
X169931713Y-108334207D01*
X169976942Y-108225014D01*
X170000000Y-108109095D01*
X170000000Y-107990905D01*
X169976942Y-107874986D01*
X169931713Y-107765793D01*
X169866050Y-107667522D01*
X169782478Y-107583950D01*
X169684207Y-107518287D01*
X169575014Y-107473058D01*
X169459095Y-107450000D01*
X169340905Y-107450000D01*
X169224986Y-107473058D01*
X169115793Y-107518287D01*
X169017522Y-107583950D01*
X168933950Y-107667522D01*
X168868287Y-107765793D01*
X168823058Y-107874986D01*
X168800000Y-107990905D01*
X145125000Y-107990905D01*
X145125000Y-106540905D01*
X157675000Y-106540905D01*
X157675000Y-106659095D01*
X157698058Y-106775014D01*
X157743287Y-106884207D01*
X157768733Y-106922290D01*
X157746559Y-106955476D01*
X157701330Y-107064669D01*
X157678272Y-107180588D01*
X157678272Y-107298778D01*
X157701330Y-107414697D01*
X157746559Y-107523890D01*
X157812222Y-107622161D01*
X157895794Y-107705733D01*
X157994065Y-107771396D01*
X158103258Y-107816625D01*
X158219177Y-107839683D01*
X158337367Y-107839683D01*
X158453286Y-107816625D01*
X158562479Y-107771396D01*
X158660750Y-107705733D01*
X158744322Y-107622161D01*
X158809985Y-107523890D01*
X158855214Y-107414697D01*
X158878272Y-107298778D01*
X158878272Y-107180588D01*
X158855214Y-107064669D01*
X158809985Y-106955476D01*
X158784539Y-106917393D01*
X158806713Y-106884207D01*
X158851942Y-106775014D01*
X158875000Y-106659095D01*
X158875000Y-106540905D01*
X158851942Y-106424986D01*
X158806713Y-106315793D01*
X158741050Y-106217522D01*
X158657478Y-106133950D01*
X158559207Y-106068287D01*
X158450014Y-106023058D01*
X158334095Y-106000000D01*
X158215905Y-106000000D01*
X158099986Y-106023058D01*
X157990793Y-106068287D01*
X157892522Y-106133950D01*
X157808950Y-106217522D01*
X157743287Y-106315793D01*
X157698058Y-106424986D01*
X157675000Y-106540905D01*
X145125000Y-106540905D01*
X145125000Y-105515905D01*
X168800000Y-105515905D01*
X168800000Y-105634095D01*
X168823058Y-105750014D01*
X168868287Y-105859207D01*
X168933950Y-105957478D01*
X169017522Y-106041050D01*
X169115793Y-106106713D01*
X169224986Y-106151942D01*
X169340905Y-106175000D01*
X169459095Y-106175000D01*
X169575014Y-106151942D01*
X169684207Y-106106713D01*
X169782478Y-106041050D01*
X169866050Y-105957478D01*
X169931713Y-105859207D01*
X169976942Y-105750014D01*
X170000000Y-105634095D01*
X170000000Y-105515905D01*
X169976942Y-105399986D01*
X169931713Y-105290793D01*
X169866050Y-105192522D01*
X169782478Y-105108950D01*
X169684207Y-105043287D01*
X169575014Y-104998058D01*
X169459095Y-104975000D01*
X169340905Y-104975000D01*
X169224986Y-104998058D01*
X169115793Y-105043287D01*
X169017522Y-105108950D01*
X168933950Y-105192522D01*
X168868287Y-105290793D01*
X168823058Y-105399986D01*
X168800000Y-105515905D01*
X145125000Y-105515905D01*
X145125000Y-103150557D01*
X153098000Y-103150557D01*
X153098000Y-103249443D01*
X153117292Y-103346428D01*
X153155133Y-103437786D01*
X153210071Y-103520006D01*
X153279994Y-103589929D01*
X153362214Y-103644867D01*
X153453572Y-103682708D01*
X153550557Y-103702000D01*
X153649443Y-103702000D01*
X153746428Y-103682708D01*
X153837786Y-103644867D01*
X153920006Y-103589929D01*
X153989929Y-103520006D01*
X154044867Y-103437786D01*
X154082708Y-103346428D01*
X154102000Y-103249443D01*
X154102000Y-103150557D01*
X154082708Y-103053572D01*
X154044867Y-102962214D01*
X154030633Y-102940911D01*
X165850000Y-102940911D01*
X165850000Y-103059101D01*
X165873058Y-103175020D01*
X165918287Y-103284213D01*
X165983950Y-103382484D01*
X166067522Y-103466056D01*
X166165793Y-103531719D01*
X166274986Y-103576948D01*
X166390905Y-103600006D01*
X166509095Y-103600006D01*
X166625014Y-103576948D01*
X166734207Y-103531719D01*
X166832478Y-103466056D01*
X166916050Y-103382484D01*
X166981713Y-103284213D01*
X167026942Y-103175020D01*
X167050000Y-103059101D01*
X167050000Y-103040905D01*
X168800000Y-103040905D01*
X168800000Y-103159095D01*
X168823058Y-103275014D01*
X168868287Y-103384207D01*
X168933950Y-103482478D01*
X169017522Y-103566050D01*
X169115793Y-103631713D01*
X169224986Y-103676942D01*
X169340905Y-103700000D01*
X169459095Y-103700000D01*
X169575014Y-103676942D01*
X169684207Y-103631713D01*
X169782478Y-103566050D01*
X169866050Y-103482478D01*
X169931713Y-103384207D01*
X169976942Y-103275014D01*
X170000000Y-103159095D01*
X170000000Y-103040905D01*
X169976942Y-102924986D01*
X169931713Y-102815793D01*
X169866050Y-102717522D01*
X169782478Y-102633950D01*
X169684207Y-102568287D01*
X169575014Y-102523058D01*
X169459095Y-102500000D01*
X169340905Y-102500000D01*
X169224986Y-102523058D01*
X169115793Y-102568287D01*
X169017522Y-102633950D01*
X168933950Y-102717522D01*
X168868287Y-102815793D01*
X168823058Y-102924986D01*
X168800000Y-103040905D01*
X167050000Y-103040905D01*
X167050000Y-102940911D01*
X167026942Y-102824992D01*
X166981713Y-102715799D01*
X166916050Y-102617528D01*
X166832478Y-102533956D01*
X166734207Y-102468293D01*
X166625014Y-102423064D01*
X166509095Y-102400006D01*
X166390905Y-102400006D01*
X166274986Y-102423064D01*
X166165793Y-102468293D01*
X166067522Y-102533956D01*
X165983950Y-102617528D01*
X165918287Y-102715799D01*
X165873058Y-102824992D01*
X165850000Y-102940911D01*
X154030633Y-102940911D01*
X153989929Y-102879994D01*
X153920006Y-102810071D01*
X153837786Y-102755133D01*
X153746428Y-102717292D01*
X153649443Y-102698000D01*
X153550557Y-102698000D01*
X153453572Y-102717292D01*
X153362214Y-102755133D01*
X153279994Y-102810071D01*
X153210071Y-102879994D01*
X153155133Y-102962214D01*
X153117292Y-103053572D01*
X153098000Y-103150557D01*
X145125000Y-103150557D01*
X145125000Y-100400000D01*
X170600000Y-100400000D01*
X170600000Y-103823055D01*
G37*
X170600000Y-103823055D02*
X170484095Y-103800000D01*
X170365905Y-103800000D01*
X170249986Y-103823058D01*
X170140793Y-103868287D01*
X170042522Y-103933950D01*
X169958950Y-104017522D01*
X169893287Y-104115793D01*
X169848058Y-104224986D01*
X169825000Y-104340905D01*
X169825000Y-104459095D01*
X169848058Y-104575014D01*
X169893287Y-104684207D01*
X169958950Y-104782478D01*
X170042522Y-104866050D01*
X170140793Y-104931713D01*
X170249986Y-104976942D01*
X170365905Y-105000000D01*
X170484095Y-105000000D01*
X170600000Y-104976945D01*
X170600000Y-106325000D01*
X170490905Y-106325000D01*
X170374986Y-106348058D01*
X170265793Y-106393287D01*
X170167522Y-106458950D01*
X170083950Y-106542522D01*
X170018287Y-106640793D01*
X169973058Y-106749986D01*
X169950000Y-106865905D01*
X169950000Y-106984095D01*
X169973058Y-107100014D01*
X170018287Y-107209207D01*
X170083950Y-107307478D01*
X170167522Y-107391050D01*
X170265793Y-107456713D01*
X170374986Y-107501942D01*
X170490905Y-107525000D01*
X170600001Y-107525000D01*
X170600001Y-108733137D01*
X170559095Y-108725000D01*
X170440905Y-108725000D01*
X170324986Y-108748058D01*
X170215793Y-108793287D01*
X170117522Y-108858950D01*
X170033950Y-108942522D01*
X169968287Y-109040793D01*
X169923058Y-109149986D01*
X169900000Y-109265905D01*
X169900000Y-109384095D01*
X169923058Y-109500014D01*
X169968287Y-109609207D01*
X170033950Y-109707478D01*
X170117522Y-109791050D01*
X170215793Y-109856713D01*
X170324986Y-109901942D01*
X170440905Y-109925000D01*
X170559095Y-109925000D01*
X170600001Y-109916863D01*
X170600001Y-111300000D01*
X170490905Y-111300000D01*
X170374986Y-111323058D01*
X170265793Y-111368287D01*
X170167522Y-111433950D01*
X170083950Y-111517522D01*
X170018287Y-111615793D01*
X169973058Y-111724986D01*
X169950000Y-111840905D01*
X169950000Y-111959095D01*
X169973058Y-112075014D01*
X170018287Y-112184207D01*
X170083950Y-112282478D01*
X170167522Y-112366050D01*
X170265793Y-112431713D01*
X170374986Y-112476942D01*
X170490905Y-112500000D01*
X170600001Y-112500000D01*
X170600001Y-113600000D01*
X159096836Y-113600000D01*
X159100000Y-113584095D01*
X159100000Y-113465905D01*
X159076942Y-113349986D01*
X159031713Y-113240793D01*
X158966050Y-113142522D01*
X158882478Y-113058950D01*
X158784207Y-112993287D01*
X158675014Y-112948058D01*
X158559095Y-112925000D01*
X158440905Y-112925000D01*
X158324986Y-112948058D01*
X158215793Y-112993287D01*
X158117522Y-113058950D01*
X158033950Y-113142522D01*
X157968287Y-113240793D01*
X157923058Y-113349986D01*
X157900000Y-113465905D01*
X157900000Y-113584095D01*
X157903164Y-113600000D01*
X146375000Y-113600000D01*
X146375000Y-110403973D01*
X157264812Y-110403973D01*
X157264812Y-110522163D01*
X157287870Y-110638082D01*
X157333099Y-110747275D01*
X157398762Y-110845546D01*
X157482334Y-110929118D01*
X157580605Y-110994781D01*
X157689798Y-111040010D01*
X157805717Y-111063068D01*
X157923907Y-111063068D01*
X158039826Y-111040010D01*
X158149019Y-110994781D01*
X158247290Y-110929118D01*
X158330862Y-110845546D01*
X158396525Y-110747275D01*
X158441754Y-110638082D01*
X158447870Y-110607333D01*
X158475014Y-110601934D01*
X158584207Y-110556705D01*
X158648252Y-110513911D01*
X166770592Y-110513911D01*
X166770592Y-110632101D01*
X166793650Y-110748020D01*
X166838879Y-110857213D01*
X166904542Y-110955484D01*
X166988114Y-111039056D01*
X167086385Y-111104719D01*
X167195578Y-111149948D01*
X167311497Y-111173006D01*
X167429687Y-111173006D01*
X167545606Y-111149948D01*
X167654799Y-111104719D01*
X167753070Y-111039056D01*
X167836642Y-110955484D01*
X167902305Y-110857213D01*
X167947534Y-110748020D01*
X167970592Y-110632101D01*
X167970592Y-110513911D01*
X167947534Y-110397992D01*
X167902305Y-110288799D01*
X167836642Y-110190528D01*
X167753070Y-110106956D01*
X167654799Y-110041293D01*
X167545606Y-109996064D01*
X167429687Y-109973006D01*
X167311497Y-109973006D01*
X167195578Y-109996064D01*
X167086385Y-110041293D01*
X166988114Y-110106956D01*
X166904542Y-110190528D01*
X166838879Y-110288799D01*
X166793650Y-110397992D01*
X166770592Y-110513911D01*
X158648252Y-110513911D01*
X158682478Y-110491042D01*
X158766050Y-110407470D01*
X158831713Y-110309199D01*
X158876942Y-110200006D01*
X158900000Y-110084087D01*
X158900000Y-109965897D01*
X158876942Y-109849978D01*
X158831713Y-109740785D01*
X158766050Y-109642514D01*
X158682478Y-109558942D01*
X158584207Y-109493279D01*
X158475014Y-109448050D01*
X158359095Y-109424992D01*
X158240905Y-109424992D01*
X158124986Y-109448050D01*
X158015793Y-109493279D01*
X157917522Y-109558942D01*
X157833950Y-109642514D01*
X157768287Y-109740785D01*
X157723058Y-109849978D01*
X157716942Y-109880727D01*
X157689798Y-109886126D01*
X157580605Y-109931355D01*
X157482334Y-109997018D01*
X157398762Y-110080590D01*
X157333099Y-110178861D01*
X157287870Y-110288054D01*
X157264812Y-110403973D01*
X146375000Y-110403973D01*
X146375000Y-110250000D01*
X146372598Y-110225614D01*
X146365485Y-110202165D01*
X146353934Y-110180554D01*
X146338388Y-110161612D01*
X146319446Y-110146066D01*
X146297835Y-110134515D01*
X146274386Y-110127402D01*
X146250000Y-110125000D01*
X145125000Y-110125000D01*
X145125000Y-107990905D01*
X168800000Y-107990905D01*
X168800000Y-108109095D01*
X168823058Y-108225014D01*
X168868287Y-108334207D01*
X168933950Y-108432478D01*
X169017522Y-108516050D01*
X169115793Y-108581713D01*
X169224986Y-108626942D01*
X169340905Y-108650000D01*
X169459095Y-108650000D01*
X169575014Y-108626942D01*
X169684207Y-108581713D01*
X169782478Y-108516050D01*
X169866050Y-108432478D01*
X169931713Y-108334207D01*
X169976942Y-108225014D01*
X170000000Y-108109095D01*
X170000000Y-107990905D01*
X169976942Y-107874986D01*
X169931713Y-107765793D01*
X169866050Y-107667522D01*
X169782478Y-107583950D01*
X169684207Y-107518287D01*
X169575014Y-107473058D01*
X169459095Y-107450000D01*
X169340905Y-107450000D01*
X169224986Y-107473058D01*
X169115793Y-107518287D01*
X169017522Y-107583950D01*
X168933950Y-107667522D01*
X168868287Y-107765793D01*
X168823058Y-107874986D01*
X168800000Y-107990905D01*
X145125000Y-107990905D01*
X145125000Y-106540905D01*
X157675000Y-106540905D01*
X157675000Y-106659095D01*
X157698058Y-106775014D01*
X157743287Y-106884207D01*
X157768733Y-106922290D01*
X157746559Y-106955476D01*
X157701330Y-107064669D01*
X157678272Y-107180588D01*
X157678272Y-107298778D01*
X157701330Y-107414697D01*
X157746559Y-107523890D01*
X157812222Y-107622161D01*
X157895794Y-107705733D01*
X157994065Y-107771396D01*
X158103258Y-107816625D01*
X158219177Y-107839683D01*
X158337367Y-107839683D01*
X158453286Y-107816625D01*
X158562479Y-107771396D01*
X158660750Y-107705733D01*
X158744322Y-107622161D01*
X158809985Y-107523890D01*
X158855214Y-107414697D01*
X158878272Y-107298778D01*
X158878272Y-107180588D01*
X158855214Y-107064669D01*
X158809985Y-106955476D01*
X158784539Y-106917393D01*
X158806713Y-106884207D01*
X158851942Y-106775014D01*
X158875000Y-106659095D01*
X158875000Y-106540905D01*
X158851942Y-106424986D01*
X158806713Y-106315793D01*
X158741050Y-106217522D01*
X158657478Y-106133950D01*
X158559207Y-106068287D01*
X158450014Y-106023058D01*
X158334095Y-106000000D01*
X158215905Y-106000000D01*
X158099986Y-106023058D01*
X157990793Y-106068287D01*
X157892522Y-106133950D01*
X157808950Y-106217522D01*
X157743287Y-106315793D01*
X157698058Y-106424986D01*
X157675000Y-106540905D01*
X145125000Y-106540905D01*
X145125000Y-105515905D01*
X168800000Y-105515905D01*
X168800000Y-105634095D01*
X168823058Y-105750014D01*
X168868287Y-105859207D01*
X168933950Y-105957478D01*
X169017522Y-106041050D01*
X169115793Y-106106713D01*
X169224986Y-106151942D01*
X169340905Y-106175000D01*
X169459095Y-106175000D01*
X169575014Y-106151942D01*
X169684207Y-106106713D01*
X169782478Y-106041050D01*
X169866050Y-105957478D01*
X169931713Y-105859207D01*
X169976942Y-105750014D01*
X170000000Y-105634095D01*
X170000000Y-105515905D01*
X169976942Y-105399986D01*
X169931713Y-105290793D01*
X169866050Y-105192522D01*
X169782478Y-105108950D01*
X169684207Y-105043287D01*
X169575014Y-104998058D01*
X169459095Y-104975000D01*
X169340905Y-104975000D01*
X169224986Y-104998058D01*
X169115793Y-105043287D01*
X169017522Y-105108950D01*
X168933950Y-105192522D01*
X168868287Y-105290793D01*
X168823058Y-105399986D01*
X168800000Y-105515905D01*
X145125000Y-105515905D01*
X145125000Y-103150557D01*
X153098000Y-103150557D01*
X153098000Y-103249443D01*
X153117292Y-103346428D01*
X153155133Y-103437786D01*
X153210071Y-103520006D01*
X153279994Y-103589929D01*
X153362214Y-103644867D01*
X153453572Y-103682708D01*
X153550557Y-103702000D01*
X153649443Y-103702000D01*
X153746428Y-103682708D01*
X153837786Y-103644867D01*
X153920006Y-103589929D01*
X153989929Y-103520006D01*
X154044867Y-103437786D01*
X154082708Y-103346428D01*
X154102000Y-103249443D01*
X154102000Y-103150557D01*
X154082708Y-103053572D01*
X154044867Y-102962214D01*
X154030633Y-102940911D01*
X165850000Y-102940911D01*
X165850000Y-103059101D01*
X165873058Y-103175020D01*
X165918287Y-103284213D01*
X165983950Y-103382484D01*
X166067522Y-103466056D01*
X166165793Y-103531719D01*
X166274986Y-103576948D01*
X166390905Y-103600006D01*
X166509095Y-103600006D01*
X166625014Y-103576948D01*
X166734207Y-103531719D01*
X166832478Y-103466056D01*
X166916050Y-103382484D01*
X166981713Y-103284213D01*
X167026942Y-103175020D01*
X167050000Y-103059101D01*
X167050000Y-103040905D01*
X168800000Y-103040905D01*
X168800000Y-103159095D01*
X168823058Y-103275014D01*
X168868287Y-103384207D01*
X168933950Y-103482478D01*
X169017522Y-103566050D01*
X169115793Y-103631713D01*
X169224986Y-103676942D01*
X169340905Y-103700000D01*
X169459095Y-103700000D01*
X169575014Y-103676942D01*
X169684207Y-103631713D01*
X169782478Y-103566050D01*
X169866050Y-103482478D01*
X169931713Y-103384207D01*
X169976942Y-103275014D01*
X170000000Y-103159095D01*
X170000000Y-103040905D01*
X169976942Y-102924986D01*
X169931713Y-102815793D01*
X169866050Y-102717522D01*
X169782478Y-102633950D01*
X169684207Y-102568287D01*
X169575014Y-102523058D01*
X169459095Y-102500000D01*
X169340905Y-102500000D01*
X169224986Y-102523058D01*
X169115793Y-102568287D01*
X169017522Y-102633950D01*
X168933950Y-102717522D01*
X168868287Y-102815793D01*
X168823058Y-102924986D01*
X168800000Y-103040905D01*
X167050000Y-103040905D01*
X167050000Y-102940911D01*
X167026942Y-102824992D01*
X166981713Y-102715799D01*
X166916050Y-102617528D01*
X166832478Y-102533956D01*
X166734207Y-102468293D01*
X166625014Y-102423064D01*
X166509095Y-102400006D01*
X166390905Y-102400006D01*
X166274986Y-102423064D01*
X166165793Y-102468293D01*
X166067522Y-102533956D01*
X165983950Y-102617528D01*
X165918287Y-102715799D01*
X165873058Y-102824992D01*
X165850000Y-102940911D01*
X154030633Y-102940911D01*
X153989929Y-102879994D01*
X153920006Y-102810071D01*
X153837786Y-102755133D01*
X153746428Y-102717292D01*
X153649443Y-102698000D01*
X153550557Y-102698000D01*
X153453572Y-102717292D01*
X153362214Y-102755133D01*
X153279994Y-102810071D01*
X153210071Y-102879994D01*
X153155133Y-102962214D01*
X153117292Y-103053572D01*
X153098000Y-103150557D01*
X145125000Y-103150557D01*
X145125000Y-100400000D01*
X170600000Y-100400000D01*
X170600000Y-103823055D01*
M02*
