M48
; DRILL file {KiCad (5.1.5-0-10_14)} date Tuesday, August 25, 2020 at 04:28:48 PM
; FORMAT={-:-/ absolute / inch / decimal}
; #@! TF.CreationDate,2020-08-25T16:28:48-04:00
; #@! TF.GenerationSoftware,Kicad,Pcbnew,(5.1.5-0-10_14)
; #@! TF.FileFunction,Plated,1,4,PTH
FMAT,2
INCH
T1C0.0079
%
G90
G05
T1
X5.7795Y-4.0472
X5.7795Y-4.0866
X5.7795Y-4.126
X5.7795Y-4.189
X5.7795Y-4.2283
X5.7795Y-4.2677
X5.7795Y-4.3071
X5.7795Y-4.4252
X5.811Y-4.1102
X5.815Y-3.9843
X5.815Y-4.0197
X5.8189Y-4.2283
X5.8189Y-4.2677
X5.8189Y-4.4252
X5.8583Y-4.0197
X5.8583Y-4.2283
X5.8583Y-4.4252
X5.8976Y-4.2283
X5.937Y-3.9764
X6.1861Y-4.3234
X6.2126Y-4.3481
X6.2181Y-4.0049
X6.2342Y-4.2087
X6.2343Y-4.2327
X6.2402Y-4.4695
X6.2598Y-4.3557
X6.5551Y-4.0551
X6.5894Y-4.3533
X6.6693Y-4.1565
X6.6693Y-4.2539
X6.6913Y-4.1299
X6.7096Y-4.1073
X6.7126Y-4.3041
X6.7146Y-4.2096
X6.7146Y-4.4055
X5.7321Y-4.1026
T0
M30
