G04 #@! TF.GenerationSoftware,KiCad,Pcbnew,(5.1.5-0-10_14)*
G04 #@! TF.CreationDate,2020-08-21T21:41:28-04:00*
G04 #@! TF.ProjectId,ESLO,45534c4f-2e6b-4696-9361-645f70636258,rev?*
G04 #@! TF.SameCoordinates,Original*
G04 #@! TF.FileFunction,Copper,L3,Inr*
G04 #@! TF.FilePolarity,Positive*
%FSLAX46Y46*%
G04 Gerber Fmt 4.6, Leading zero omitted, Abs format (unit mm)*
G04 Created by KiCad (PCBNEW (5.1.5-0-10_14)) date 2020-08-21 21:41:28*
%MOMM*%
%LPD*%
G04 APERTURE LIST*
%ADD10C,0.254000*%
%ADD11C,0.450000*%
%ADD12C,0.150000*%
%ADD13C,0.200000*%
%ADD14C,0.250000*%
G04 APERTURE END LIST*
D10*
X150350000Y-113100000D03*
D11*
X158500000Y-113525000D03*
D10*
X148350000Y-104725000D03*
X150500000Y-106250000D03*
X159150000Y-111750000D03*
X163525000Y-103675000D03*
X162300000Y-106500000D03*
X162700000Y-110650000D03*
X162750000Y-112700000D03*
X166000000Y-112800000D03*
X154950000Y-104450000D03*
X159250000Y-101600000D03*
X162700000Y-101600000D03*
X169900000Y-101700000D03*
X155700000Y-109424998D03*
X159098909Y-104401091D03*
X157482314Y-112682314D03*
X155625000Y-107375000D03*
D11*
X158300000Y-110024992D03*
D10*
X151225000Y-107875000D03*
D11*
X158275000Y-106600000D03*
D10*
X158927010Y-108547990D03*
X150673764Y-104000354D03*
X149425000Y-104675000D03*
D11*
X158278272Y-107239683D03*
D10*
X160700000Y-108900000D03*
X152500000Y-108400000D03*
D11*
X157864812Y-110463068D03*
D10*
X151550000Y-110950000D03*
X153450000Y-102175000D03*
X161500000Y-108100000D03*
D11*
X146800000Y-102800000D03*
X146800000Y-103800000D03*
X146800000Y-104800000D03*
X146800000Y-106400000D03*
X146800000Y-107400000D03*
X146800000Y-108400000D03*
X146800000Y-109400000D03*
X146800000Y-112400000D03*
X147800000Y-112400000D03*
X148800000Y-112400000D03*
X147700000Y-102200000D03*
X147700000Y-101200000D03*
X149800000Y-107400000D03*
X149800000Y-108400000D03*
X148800000Y-108400000D03*
X147800000Y-108400000D03*
X147800000Y-107400000D03*
X148800000Y-107400000D03*
X147600000Y-104400000D03*
D10*
X162300000Y-108100000D03*
D11*
X160266369Y-110962220D03*
X150725000Y-101150000D03*
X151700000Y-113300000D03*
D10*
X160734525Y-107290435D03*
X157201091Y-106023909D03*
X152548918Y-106297990D03*
X164700000Y-107300000D03*
X167434092Y-103988726D03*
D11*
X166450000Y-103000006D03*
D10*
X164700000Y-108075000D03*
X167250000Y-106300000D03*
X163900000Y-105700000D03*
X167524558Y-102732229D03*
X164700000Y-108900000D03*
X167175000Y-108875000D03*
X164700000Y-109700000D03*
X167108705Y-111001295D03*
X160700000Y-104900000D03*
X160950000Y-102325000D03*
X163900000Y-109700000D03*
X164325000Y-112000000D03*
X163900000Y-106500000D03*
X168275000Y-102300000D03*
D11*
X169400000Y-103100000D03*
X170425000Y-104400000D03*
X169400000Y-105575000D03*
X170550000Y-106925000D03*
X169400000Y-108050000D03*
X170500000Y-109325000D03*
X167370592Y-110573006D03*
X170550000Y-111900000D03*
D12*
X148350000Y-104725000D02*
X148975000Y-104725000D01*
X148975000Y-104725000D02*
X150500000Y-106250000D01*
D13*
X150500000Y-106429605D02*
X150500000Y-106250000D01*
X150775000Y-111671998D02*
X150775000Y-106704605D01*
X152628002Y-113525000D02*
X150775000Y-111671998D01*
X150775000Y-106704605D02*
X150500000Y-106429605D01*
X158500000Y-113525000D02*
X152628002Y-113525000D01*
D12*
X160550000Y-111750000D02*
X159150000Y-111750000D01*
X163500000Y-103700000D02*
X163500000Y-108800000D01*
X163475000Y-103675000D02*
X163500000Y-103700000D01*
X163500000Y-108800000D02*
X160550000Y-111750000D01*
X163525000Y-103675000D02*
X163475000Y-103675000D01*
X151375000Y-108025000D02*
X151225000Y-107875000D01*
X156300008Y-108025000D02*
X151375000Y-108025000D01*
X158300000Y-110024992D02*
X156300008Y-108025000D01*
X159075011Y-107081813D02*
X159075011Y-108399989D01*
X159075011Y-108399989D02*
X159054009Y-108420991D01*
X159054009Y-108420991D02*
X158927010Y-108547990D01*
X158275000Y-106600000D02*
X158593198Y-106600000D01*
X158593198Y-106600000D02*
X159075011Y-107081813D01*
X158050001Y-106375001D02*
X158275000Y-106600000D01*
X152298410Y-105625000D02*
X157300000Y-105625000D01*
X157300000Y-105625000D02*
X158050001Y-106375001D01*
X150673764Y-104000354D02*
X152298410Y-105625000D01*
X157370391Y-106650000D02*
X151400000Y-106650000D01*
X157960074Y-107239683D02*
X157370391Y-106650000D01*
X151400000Y-106650000D02*
X149425000Y-104675000D01*
X158278272Y-107239683D02*
X157960074Y-107239683D01*
X158911933Y-110688067D02*
X158089811Y-110688067D01*
X152500000Y-108400000D02*
X155801744Y-108400000D01*
X160700000Y-108900000D02*
X158911933Y-110688067D01*
X155801744Y-108400000D02*
X157864812Y-110463068D01*
X158089811Y-110688067D02*
X157864812Y-110463068D01*
X151550000Y-109350000D02*
X151550000Y-110950000D01*
X152500000Y-108400000D02*
X151550000Y-109350000D01*
X160700000Y-107776872D02*
X160700000Y-108900000D01*
X160050000Y-107126872D02*
X160700000Y-107776872D01*
X158075000Y-102175000D02*
X160050000Y-104150000D01*
X160050000Y-104150000D02*
X160050000Y-107126872D01*
X153450000Y-102175000D02*
X158075000Y-102175000D01*
X162300000Y-108100000D02*
X161500000Y-108100000D01*
X161500000Y-108100000D02*
X161500000Y-109728589D01*
X161500000Y-109728589D02*
X160266369Y-110962220D01*
X161500000Y-108100000D02*
X160734525Y-107334525D01*
X160734525Y-107334525D02*
X160734525Y-107290435D01*
X156927010Y-106297990D02*
X152728523Y-106297990D01*
X157201091Y-106023909D02*
X156927010Y-106297990D01*
X152728523Y-106297990D02*
X152548918Y-106297990D01*
X167307093Y-104115725D02*
X167434092Y-103988726D01*
X164700000Y-107300000D02*
X164700000Y-106722818D01*
X164700000Y-106722818D02*
X167307093Y-104115725D01*
X166475000Y-106300000D02*
X167250000Y-106300000D01*
X164700000Y-108075000D02*
X166475000Y-106300000D01*
X164556787Y-105700000D02*
X167397559Y-102859228D01*
X163900000Y-105700000D02*
X164556787Y-105700000D01*
X167397559Y-102859228D02*
X167524558Y-102732229D01*
X164725000Y-108875000D02*
X164700000Y-108900000D01*
X167175000Y-108875000D02*
X164725000Y-108875000D01*
X165807410Y-109700000D02*
X167108705Y-111001295D01*
X164700000Y-109700000D02*
X165807410Y-109700000D01*
X160950000Y-104650000D02*
X160700000Y-104900000D01*
X160950000Y-102325000D02*
X160950000Y-104650000D01*
X163900000Y-111575000D02*
X164325000Y-112000000D01*
X163900000Y-109700000D02*
X163900000Y-111575000D01*
X164254605Y-106500000D02*
X168275000Y-102479605D01*
X163900000Y-106500000D02*
X164254605Y-106500000D01*
X168275000Y-102479605D02*
X168275000Y-102300000D01*
D14*
G36*
X170600000Y-103823055D02*
G01*
X170484095Y-103800000D01*
X170365905Y-103800000D01*
X170249986Y-103823058D01*
X170140793Y-103868287D01*
X170042522Y-103933950D01*
X169958950Y-104017522D01*
X169893287Y-104115793D01*
X169848058Y-104224986D01*
X169825000Y-104340905D01*
X169825000Y-104459095D01*
X169848058Y-104575014D01*
X169893287Y-104684207D01*
X169958950Y-104782478D01*
X170042522Y-104866050D01*
X170140793Y-104931713D01*
X170249986Y-104976942D01*
X170365905Y-105000000D01*
X170484095Y-105000000D01*
X170600000Y-104976945D01*
X170600000Y-106325000D01*
X170490905Y-106325000D01*
X170374986Y-106348058D01*
X170265793Y-106393287D01*
X170167522Y-106458950D01*
X170083950Y-106542522D01*
X170018287Y-106640793D01*
X169973058Y-106749986D01*
X169950000Y-106865905D01*
X169950000Y-106984095D01*
X169973058Y-107100014D01*
X170018287Y-107209207D01*
X170083950Y-107307478D01*
X170167522Y-107391050D01*
X170265793Y-107456713D01*
X170374986Y-107501942D01*
X170490905Y-107525000D01*
X170600001Y-107525000D01*
X170600001Y-108733137D01*
X170559095Y-108725000D01*
X170440905Y-108725000D01*
X170324986Y-108748058D01*
X170215793Y-108793287D01*
X170117522Y-108858950D01*
X170033950Y-108942522D01*
X169968287Y-109040793D01*
X169923058Y-109149986D01*
X169900000Y-109265905D01*
X169900000Y-109384095D01*
X169923058Y-109500014D01*
X169968287Y-109609207D01*
X170033950Y-109707478D01*
X170117522Y-109791050D01*
X170215793Y-109856713D01*
X170324986Y-109901942D01*
X170440905Y-109925000D01*
X170559095Y-109925000D01*
X170600001Y-109916863D01*
X170600001Y-111300000D01*
X170490905Y-111300000D01*
X170374986Y-111323058D01*
X170265793Y-111368287D01*
X170167522Y-111433950D01*
X170083950Y-111517522D01*
X170018287Y-111615793D01*
X169973058Y-111724986D01*
X169950000Y-111840905D01*
X169950000Y-111959095D01*
X169973058Y-112075014D01*
X170018287Y-112184207D01*
X170083950Y-112282478D01*
X170167522Y-112366050D01*
X170265793Y-112431713D01*
X170374986Y-112476942D01*
X170490905Y-112500000D01*
X170600001Y-112500000D01*
X170600001Y-113600000D01*
X159096836Y-113600000D01*
X159100000Y-113584095D01*
X159100000Y-113465905D01*
X159076942Y-113349986D01*
X159031713Y-113240793D01*
X158966050Y-113142522D01*
X158882478Y-113058950D01*
X158784207Y-112993287D01*
X158675014Y-112948058D01*
X158559095Y-112925000D01*
X158440905Y-112925000D01*
X158324986Y-112948058D01*
X158215793Y-112993287D01*
X158130917Y-113050000D01*
X152824754Y-113050000D01*
X151625000Y-111850247D01*
X151625000Y-111446916D01*
X151696428Y-111432708D01*
X151787786Y-111394867D01*
X151870006Y-111339929D01*
X151939929Y-111270006D01*
X151994867Y-111187786D01*
X152032708Y-111096428D01*
X152052000Y-110999443D01*
X152052000Y-110900557D01*
X152032708Y-110803572D01*
X152000000Y-110724606D01*
X152000000Y-109536395D01*
X152658821Y-108877575D01*
X152725394Y-108850000D01*
X155615349Y-108850000D01*
X157264812Y-110499464D01*
X157264812Y-110522163D01*
X157287870Y-110638082D01*
X157333099Y-110747275D01*
X157398762Y-110845546D01*
X157482334Y-110929118D01*
X157580605Y-110994781D01*
X157689798Y-111040010D01*
X157805717Y-111063068D01*
X157837413Y-111063068D01*
X157838595Y-111064038D01*
X157916770Y-111105824D01*
X158001596Y-111131556D01*
X158067706Y-111138067D01*
X158067717Y-111138067D01*
X158089811Y-111140243D01*
X158111905Y-111138067D01*
X158889839Y-111138067D01*
X158911933Y-111140243D01*
X158934027Y-111138067D01*
X158934038Y-111138067D01*
X159000148Y-111131556D01*
X159084974Y-111105824D01*
X159163149Y-111064038D01*
X159231670Y-111007804D01*
X159245762Y-110990633D01*
X160858821Y-109377575D01*
X160937786Y-109344867D01*
X161020006Y-109289929D01*
X161050001Y-109259934D01*
X161050001Y-109542192D01*
X160229974Y-110362220D01*
X160207274Y-110362220D01*
X160091355Y-110385278D01*
X159982162Y-110430507D01*
X159883891Y-110496170D01*
X159800319Y-110579742D01*
X159734656Y-110678013D01*
X159689427Y-110787206D01*
X159666369Y-110903125D01*
X159666369Y-111021315D01*
X159689427Y-111137234D01*
X159734656Y-111246427D01*
X159770453Y-111300000D01*
X159375394Y-111300000D01*
X159296428Y-111267292D01*
X159199443Y-111248000D01*
X159100557Y-111248000D01*
X159003572Y-111267292D01*
X158912214Y-111305133D01*
X158829994Y-111360071D01*
X158760071Y-111429994D01*
X158705133Y-111512214D01*
X158667292Y-111603572D01*
X158648000Y-111700557D01*
X158648000Y-111799443D01*
X158667292Y-111896428D01*
X158705133Y-111987786D01*
X158760071Y-112070006D01*
X158829994Y-112139929D01*
X158912214Y-112194867D01*
X159003572Y-112232708D01*
X159100557Y-112252000D01*
X159199443Y-112252000D01*
X159296428Y-112232708D01*
X159375394Y-112200000D01*
X160527906Y-112200000D01*
X160550000Y-112202176D01*
X160572094Y-112200000D01*
X160572105Y-112200000D01*
X160638215Y-112193489D01*
X160723041Y-112167757D01*
X160801216Y-112125971D01*
X160869737Y-112069737D01*
X160883829Y-112052566D01*
X163441664Y-109494732D01*
X163417292Y-109553572D01*
X163398000Y-109650557D01*
X163398000Y-109749443D01*
X163417292Y-109846428D01*
X163450000Y-109925394D01*
X163450001Y-111552896D01*
X163447824Y-111575000D01*
X163456512Y-111663215D01*
X163482243Y-111748040D01*
X163524029Y-111826216D01*
X163566172Y-111877567D01*
X163566177Y-111877572D01*
X163580264Y-111894737D01*
X163597429Y-111908824D01*
X163847425Y-112158821D01*
X163880133Y-112237786D01*
X163935071Y-112320006D01*
X164004994Y-112389929D01*
X164087214Y-112444867D01*
X164178572Y-112482708D01*
X164275557Y-112502000D01*
X164374443Y-112502000D01*
X164471428Y-112482708D01*
X164562786Y-112444867D01*
X164645006Y-112389929D01*
X164714929Y-112320006D01*
X164769867Y-112237786D01*
X164807708Y-112146428D01*
X164827000Y-112049443D01*
X164827000Y-111950557D01*
X164807708Y-111853572D01*
X164769867Y-111762214D01*
X164714929Y-111679994D01*
X164645006Y-111610071D01*
X164562786Y-111555133D01*
X164483821Y-111522425D01*
X164350000Y-111388605D01*
X164350000Y-110059935D01*
X164379994Y-110089929D01*
X164462214Y-110144867D01*
X164553572Y-110182708D01*
X164650557Y-110202000D01*
X164749443Y-110202000D01*
X164846428Y-110182708D01*
X164925394Y-110150000D01*
X165621015Y-110150000D01*
X166631130Y-111160116D01*
X166663838Y-111239081D01*
X166718776Y-111321301D01*
X166788699Y-111391224D01*
X166870919Y-111446162D01*
X166962277Y-111484003D01*
X167059262Y-111503295D01*
X167158148Y-111503295D01*
X167255133Y-111484003D01*
X167346491Y-111446162D01*
X167428711Y-111391224D01*
X167498634Y-111321301D01*
X167553572Y-111239081D01*
X167591413Y-111147723D01*
X167595044Y-111129470D01*
X167654799Y-111104719D01*
X167753070Y-111039056D01*
X167836642Y-110955484D01*
X167902305Y-110857213D01*
X167947534Y-110748020D01*
X167970592Y-110632101D01*
X167970592Y-110513911D01*
X167947534Y-110397992D01*
X167902305Y-110288799D01*
X167836642Y-110190528D01*
X167753070Y-110106956D01*
X167654799Y-110041293D01*
X167545606Y-109996064D01*
X167429687Y-109973006D01*
X167311497Y-109973006D01*
X167195578Y-109996064D01*
X167086385Y-110041293D01*
X166988114Y-110106956D01*
X166919438Y-110175632D01*
X166141239Y-109397434D01*
X166127147Y-109380263D01*
X166059809Y-109325000D01*
X166949606Y-109325000D01*
X167028572Y-109357708D01*
X167125557Y-109377000D01*
X167224443Y-109377000D01*
X167321428Y-109357708D01*
X167412786Y-109319867D01*
X167495006Y-109264929D01*
X167564929Y-109195006D01*
X167619867Y-109112786D01*
X167657708Y-109021428D01*
X167677000Y-108924443D01*
X167677000Y-108825557D01*
X167657708Y-108728572D01*
X167619867Y-108637214D01*
X167564929Y-108554994D01*
X167495006Y-108485071D01*
X167412786Y-108430133D01*
X167321428Y-108392292D01*
X167224443Y-108373000D01*
X167125557Y-108373000D01*
X167028572Y-108392292D01*
X166949606Y-108425000D01*
X165059935Y-108425000D01*
X165089929Y-108395006D01*
X165144867Y-108312786D01*
X165177575Y-108233820D01*
X165420490Y-107990905D01*
X168800000Y-107990905D01*
X168800000Y-108109095D01*
X168823058Y-108225014D01*
X168868287Y-108334207D01*
X168933950Y-108432478D01*
X169017522Y-108516050D01*
X169115793Y-108581713D01*
X169224986Y-108626942D01*
X169340905Y-108650000D01*
X169459095Y-108650000D01*
X169575014Y-108626942D01*
X169684207Y-108581713D01*
X169782478Y-108516050D01*
X169866050Y-108432478D01*
X169931713Y-108334207D01*
X169976942Y-108225014D01*
X170000000Y-108109095D01*
X170000000Y-107990905D01*
X169976942Y-107874986D01*
X169931713Y-107765793D01*
X169866050Y-107667522D01*
X169782478Y-107583950D01*
X169684207Y-107518287D01*
X169575014Y-107473058D01*
X169459095Y-107450000D01*
X169340905Y-107450000D01*
X169224986Y-107473058D01*
X169115793Y-107518287D01*
X169017522Y-107583950D01*
X168933950Y-107667522D01*
X168868287Y-107765793D01*
X168823058Y-107874986D01*
X168800000Y-107990905D01*
X165420490Y-107990905D01*
X166661396Y-106750000D01*
X167024606Y-106750000D01*
X167103572Y-106782708D01*
X167200557Y-106802000D01*
X167299443Y-106802000D01*
X167396428Y-106782708D01*
X167487786Y-106744867D01*
X167570006Y-106689929D01*
X167639929Y-106620006D01*
X167694867Y-106537786D01*
X167732708Y-106446428D01*
X167752000Y-106349443D01*
X167752000Y-106250557D01*
X167732708Y-106153572D01*
X167694867Y-106062214D01*
X167639929Y-105979994D01*
X167570006Y-105910071D01*
X167487786Y-105855133D01*
X167396428Y-105817292D01*
X167299443Y-105798000D01*
X167200557Y-105798000D01*
X167103572Y-105817292D01*
X167024606Y-105850000D01*
X166497094Y-105850000D01*
X166474999Y-105847824D01*
X166452905Y-105850000D01*
X166452895Y-105850000D01*
X166386785Y-105856511D01*
X166317657Y-105877481D01*
X166301959Y-105882243D01*
X166223783Y-105924029D01*
X166172432Y-105966172D01*
X166172428Y-105966176D01*
X166155263Y-105980263D01*
X166141176Y-105997428D01*
X165150000Y-106988605D01*
X165150000Y-106909213D01*
X166543308Y-105515905D01*
X168800000Y-105515905D01*
X168800000Y-105634095D01*
X168823058Y-105750014D01*
X168868287Y-105859207D01*
X168933950Y-105957478D01*
X169017522Y-106041050D01*
X169115793Y-106106713D01*
X169224986Y-106151942D01*
X169340905Y-106175000D01*
X169459095Y-106175000D01*
X169575014Y-106151942D01*
X169684207Y-106106713D01*
X169782478Y-106041050D01*
X169866050Y-105957478D01*
X169931713Y-105859207D01*
X169976942Y-105750014D01*
X170000000Y-105634095D01*
X170000000Y-105515905D01*
X169976942Y-105399986D01*
X169931713Y-105290793D01*
X169866050Y-105192522D01*
X169782478Y-105108950D01*
X169684207Y-105043287D01*
X169575014Y-104998058D01*
X169459095Y-104975000D01*
X169340905Y-104975000D01*
X169224986Y-104998058D01*
X169115793Y-105043287D01*
X169017522Y-105108950D01*
X168933950Y-105192522D01*
X168868287Y-105290793D01*
X168823058Y-105399986D01*
X168800000Y-105515905D01*
X166543308Y-105515905D01*
X167592913Y-104466301D01*
X167671878Y-104433593D01*
X167754098Y-104378655D01*
X167824021Y-104308732D01*
X167878959Y-104226512D01*
X167916800Y-104135154D01*
X167936092Y-104038169D01*
X167936092Y-103939283D01*
X167916800Y-103842298D01*
X167878959Y-103750940D01*
X167824021Y-103668720D01*
X167773151Y-103617850D01*
X168350096Y-103040905D01*
X168800000Y-103040905D01*
X168800000Y-103159095D01*
X168823058Y-103275014D01*
X168868287Y-103384207D01*
X168933950Y-103482478D01*
X169017522Y-103566050D01*
X169115793Y-103631713D01*
X169224986Y-103676942D01*
X169340905Y-103700000D01*
X169459095Y-103700000D01*
X169575014Y-103676942D01*
X169684207Y-103631713D01*
X169782478Y-103566050D01*
X169866050Y-103482478D01*
X169931713Y-103384207D01*
X169976942Y-103275014D01*
X170000000Y-103159095D01*
X170000000Y-103040905D01*
X169976942Y-102924986D01*
X169931713Y-102815793D01*
X169866050Y-102717522D01*
X169782478Y-102633950D01*
X169684207Y-102568287D01*
X169575014Y-102523058D01*
X169459095Y-102500000D01*
X169340905Y-102500000D01*
X169224986Y-102523058D01*
X169115793Y-102568287D01*
X169017522Y-102633950D01*
X168933950Y-102717522D01*
X168868287Y-102815793D01*
X168823058Y-102924986D01*
X168800000Y-103040905D01*
X168350096Y-103040905D01*
X168577573Y-102813428D01*
X168594737Y-102799342D01*
X168608824Y-102782177D01*
X168608828Y-102782173D01*
X168650971Y-102730822D01*
X168692757Y-102652646D01*
X168695075Y-102645006D01*
X168718489Y-102567820D01*
X168721940Y-102532782D01*
X168757708Y-102446428D01*
X168777000Y-102349443D01*
X168777000Y-102250557D01*
X168757708Y-102153572D01*
X168719867Y-102062214D01*
X168664929Y-101979994D01*
X168595006Y-101910071D01*
X168512786Y-101855133D01*
X168421428Y-101817292D01*
X168324443Y-101798000D01*
X168225557Y-101798000D01*
X168128572Y-101817292D01*
X168037214Y-101855133D01*
X167954994Y-101910071D01*
X167885071Y-101979994D01*
X167830133Y-102062214D01*
X167792292Y-102153572D01*
X167773000Y-102250557D01*
X167773000Y-102294482D01*
X167762344Y-102287362D01*
X167670986Y-102249521D01*
X167574001Y-102230229D01*
X167475115Y-102230229D01*
X167378130Y-102249521D01*
X167286772Y-102287362D01*
X167204552Y-102342300D01*
X167134629Y-102412223D01*
X167079691Y-102494443D01*
X167046983Y-102573408D01*
X166950823Y-102669568D01*
X166916050Y-102617528D01*
X166832478Y-102533956D01*
X166734207Y-102468293D01*
X166625014Y-102423064D01*
X166509095Y-102400006D01*
X166390905Y-102400006D01*
X166274986Y-102423064D01*
X166165793Y-102468293D01*
X166067522Y-102533956D01*
X165983950Y-102617528D01*
X165918287Y-102715799D01*
X165873058Y-102824992D01*
X165850000Y-102940911D01*
X165850000Y-103059101D01*
X165873058Y-103175020D01*
X165918287Y-103284213D01*
X165983950Y-103382484D01*
X166067522Y-103466056D01*
X166119563Y-103500829D01*
X164370392Y-105250000D01*
X164125394Y-105250000D01*
X164046428Y-105217292D01*
X163950000Y-105198111D01*
X163950000Y-103942519D01*
X163969867Y-103912786D01*
X164007708Y-103821428D01*
X164027000Y-103724443D01*
X164027000Y-103625557D01*
X164007708Y-103528572D01*
X163969867Y-103437214D01*
X163914929Y-103354994D01*
X163845006Y-103285071D01*
X163762786Y-103230133D01*
X163671428Y-103192292D01*
X163574443Y-103173000D01*
X163475557Y-103173000D01*
X163378572Y-103192292D01*
X163287214Y-103230133D01*
X163204994Y-103285071D01*
X163135071Y-103354994D01*
X163080133Y-103437214D01*
X163042292Y-103528572D01*
X163023000Y-103625557D01*
X163023000Y-103673203D01*
X163022823Y-103675000D01*
X163023000Y-103676797D01*
X163023000Y-103724443D01*
X163042292Y-103821428D01*
X163050000Y-103840037D01*
X163050001Y-108613603D01*
X161950637Y-109712967D01*
X161950000Y-109706495D01*
X161950000Y-108550000D01*
X162074606Y-108550000D01*
X162153572Y-108582708D01*
X162250557Y-108602000D01*
X162349443Y-108602000D01*
X162446428Y-108582708D01*
X162537786Y-108544867D01*
X162620006Y-108489929D01*
X162689929Y-108420006D01*
X162744867Y-108337786D01*
X162782708Y-108246428D01*
X162802000Y-108149443D01*
X162802000Y-108050557D01*
X162782708Y-107953572D01*
X162744867Y-107862214D01*
X162689929Y-107779994D01*
X162620006Y-107710071D01*
X162537786Y-107655133D01*
X162446428Y-107617292D01*
X162349443Y-107598000D01*
X162250557Y-107598000D01*
X162153572Y-107617292D01*
X162074606Y-107650000D01*
X161725394Y-107650000D01*
X161658821Y-107622425D01*
X161226378Y-107189983D01*
X161217233Y-107144007D01*
X161179392Y-107052649D01*
X161124454Y-106970429D01*
X161054531Y-106900506D01*
X160972311Y-106845568D01*
X160880953Y-106807727D01*
X160783968Y-106788435D01*
X160685082Y-106788435D01*
X160588097Y-106807727D01*
X160500000Y-106844217D01*
X160500000Y-105360518D01*
X160553572Y-105382708D01*
X160650557Y-105402000D01*
X160749443Y-105402000D01*
X160846428Y-105382708D01*
X160937786Y-105344867D01*
X161020006Y-105289929D01*
X161089929Y-105220006D01*
X161144867Y-105137786D01*
X161177575Y-105058820D01*
X161252566Y-104983829D01*
X161269737Y-104969737D01*
X161325971Y-104901216D01*
X161367757Y-104823041D01*
X161393489Y-104738215D01*
X161400000Y-104672105D01*
X161400000Y-104672093D01*
X161402176Y-104650001D01*
X161400000Y-104627909D01*
X161400000Y-102550394D01*
X161432708Y-102471428D01*
X161452000Y-102374443D01*
X161452000Y-102275557D01*
X161432708Y-102178572D01*
X161394867Y-102087214D01*
X161339929Y-102004994D01*
X161270006Y-101935071D01*
X161187786Y-101880133D01*
X161096428Y-101842292D01*
X160999443Y-101823000D01*
X160900557Y-101823000D01*
X160803572Y-101842292D01*
X160712214Y-101880133D01*
X160629994Y-101935071D01*
X160560071Y-102004994D01*
X160505133Y-102087214D01*
X160467292Y-102178572D01*
X160448000Y-102275557D01*
X160448000Y-102374443D01*
X160467292Y-102471428D01*
X160500000Y-102550394D01*
X160500001Y-104127913D01*
X160500000Y-104127906D01*
X160500000Y-104127895D01*
X160493489Y-104061785D01*
X160467757Y-103976959D01*
X160449437Y-103942685D01*
X160425971Y-103898783D01*
X160383828Y-103847432D01*
X160383824Y-103847428D01*
X160369737Y-103830263D01*
X160352573Y-103816177D01*
X158408829Y-101872434D01*
X158394737Y-101855263D01*
X158326216Y-101799029D01*
X158248041Y-101757243D01*
X158163215Y-101731511D01*
X158097105Y-101725000D01*
X158097094Y-101725000D01*
X158075000Y-101722824D01*
X158052906Y-101725000D01*
X153675394Y-101725000D01*
X153596428Y-101692292D01*
X153499443Y-101673000D01*
X153400557Y-101673000D01*
X153303572Y-101692292D01*
X153212214Y-101730133D01*
X153129994Y-101785071D01*
X153060071Y-101854994D01*
X153005133Y-101937214D01*
X152967292Y-102028572D01*
X152948000Y-102125557D01*
X152948000Y-102224443D01*
X152967292Y-102321428D01*
X153005133Y-102412786D01*
X153060071Y-102495006D01*
X153129994Y-102564929D01*
X153212214Y-102619867D01*
X153303572Y-102657708D01*
X153400557Y-102677000D01*
X153499443Y-102677000D01*
X153596428Y-102657708D01*
X153675394Y-102625000D01*
X157888605Y-102625000D01*
X159600000Y-104336396D01*
X159600001Y-107104768D01*
X159597824Y-107126872D01*
X159606512Y-107215087D01*
X159632243Y-107299912D01*
X159674029Y-107378088D01*
X159716172Y-107429439D01*
X159716177Y-107429444D01*
X159730264Y-107446609D01*
X159747429Y-107460696D01*
X160250000Y-107963268D01*
X160250001Y-108674604D01*
X160222425Y-108741179D01*
X158900000Y-110063605D01*
X158900000Y-109965897D01*
X158876942Y-109849978D01*
X158831713Y-109740785D01*
X158766050Y-109642514D01*
X158682478Y-109558942D01*
X158584207Y-109493279D01*
X158475014Y-109448050D01*
X158359095Y-109424992D01*
X158336396Y-109424992D01*
X156633836Y-107722433D01*
X156619745Y-107705263D01*
X156551224Y-107649029D01*
X156473049Y-107607243D01*
X156388223Y-107581511D01*
X156322113Y-107575000D01*
X156322102Y-107575000D01*
X156300008Y-107572824D01*
X156277914Y-107575000D01*
X151628297Y-107575000D01*
X151625000Y-107570066D01*
X151625000Y-107100000D01*
X157183996Y-107100000D01*
X157626250Y-107542255D01*
X157640337Y-107559420D01*
X157657502Y-107573507D01*
X157657506Y-107573511D01*
X157708857Y-107615654D01*
X157748965Y-107637092D01*
X157787033Y-107657440D01*
X157871859Y-107683172D01*
X157873383Y-107683322D01*
X157895794Y-107705733D01*
X157994065Y-107771396D01*
X158103258Y-107816625D01*
X158219177Y-107839683D01*
X158337367Y-107839683D01*
X158453286Y-107816625D01*
X158562479Y-107771396D01*
X158625011Y-107729613D01*
X158625012Y-108146028D01*
X158607004Y-108158061D01*
X158537081Y-108227984D01*
X158482143Y-108310204D01*
X158444302Y-108401562D01*
X158425010Y-108498547D01*
X158425010Y-108597433D01*
X158444302Y-108694418D01*
X158482143Y-108785776D01*
X158537081Y-108867996D01*
X158607004Y-108937919D01*
X158689224Y-108992857D01*
X158780582Y-109030698D01*
X158877567Y-109049990D01*
X158976453Y-109049990D01*
X159073438Y-109030698D01*
X159164796Y-108992857D01*
X159247016Y-108937919D01*
X159316939Y-108867996D01*
X159371877Y-108785776D01*
X159403808Y-108708687D01*
X159450982Y-108651205D01*
X159492768Y-108573030D01*
X159518500Y-108488204D01*
X159525011Y-108422094D01*
X159525011Y-108422082D01*
X159527187Y-108399990D01*
X159525011Y-108377898D01*
X159525011Y-107103904D01*
X159527187Y-107081812D01*
X159525011Y-107059720D01*
X159525011Y-107059708D01*
X159518500Y-106993598D01*
X159492768Y-106908772D01*
X159459721Y-106846946D01*
X159450982Y-106830596D01*
X159408839Y-106779245D01*
X159408835Y-106779241D01*
X159394748Y-106762076D01*
X159377584Y-106747990D01*
X158927026Y-106297433D01*
X158912935Y-106280263D01*
X158844414Y-106224029D01*
X158766239Y-106182243D01*
X158681413Y-106156511D01*
X158679889Y-106156361D01*
X158657478Y-106133950D01*
X158559207Y-106068287D01*
X158450014Y-106023058D01*
X158334095Y-106000000D01*
X158311396Y-106000000D01*
X157633827Y-105322432D01*
X157619737Y-105305263D01*
X157551216Y-105249029D01*
X157473041Y-105207243D01*
X157388215Y-105181511D01*
X157322105Y-105175000D01*
X157322094Y-105175000D01*
X157300000Y-105172824D01*
X157277906Y-105175000D01*
X152484806Y-105175000D01*
X151625000Y-104315195D01*
X151625000Y-100400000D01*
X170600000Y-100400000D01*
X170600000Y-103823055D01*
G37*
X170600000Y-103823055D02*
X170484095Y-103800000D01*
X170365905Y-103800000D01*
X170249986Y-103823058D01*
X170140793Y-103868287D01*
X170042522Y-103933950D01*
X169958950Y-104017522D01*
X169893287Y-104115793D01*
X169848058Y-104224986D01*
X169825000Y-104340905D01*
X169825000Y-104459095D01*
X169848058Y-104575014D01*
X169893287Y-104684207D01*
X169958950Y-104782478D01*
X170042522Y-104866050D01*
X170140793Y-104931713D01*
X170249986Y-104976942D01*
X170365905Y-105000000D01*
X170484095Y-105000000D01*
X170600000Y-104976945D01*
X170600000Y-106325000D01*
X170490905Y-106325000D01*
X170374986Y-106348058D01*
X170265793Y-106393287D01*
X170167522Y-106458950D01*
X170083950Y-106542522D01*
X170018287Y-106640793D01*
X169973058Y-106749986D01*
X169950000Y-106865905D01*
X169950000Y-106984095D01*
X169973058Y-107100014D01*
X170018287Y-107209207D01*
X170083950Y-107307478D01*
X170167522Y-107391050D01*
X170265793Y-107456713D01*
X170374986Y-107501942D01*
X170490905Y-107525000D01*
X170600001Y-107525000D01*
X170600001Y-108733137D01*
X170559095Y-108725000D01*
X170440905Y-108725000D01*
X170324986Y-108748058D01*
X170215793Y-108793287D01*
X170117522Y-108858950D01*
X170033950Y-108942522D01*
X169968287Y-109040793D01*
X169923058Y-109149986D01*
X169900000Y-109265905D01*
X169900000Y-109384095D01*
X169923058Y-109500014D01*
X169968287Y-109609207D01*
X170033950Y-109707478D01*
X170117522Y-109791050D01*
X170215793Y-109856713D01*
X170324986Y-109901942D01*
X170440905Y-109925000D01*
X170559095Y-109925000D01*
X170600001Y-109916863D01*
X170600001Y-111300000D01*
X170490905Y-111300000D01*
X170374986Y-111323058D01*
X170265793Y-111368287D01*
X170167522Y-111433950D01*
X170083950Y-111517522D01*
X170018287Y-111615793D01*
X169973058Y-111724986D01*
X169950000Y-111840905D01*
X169950000Y-111959095D01*
X169973058Y-112075014D01*
X170018287Y-112184207D01*
X170083950Y-112282478D01*
X170167522Y-112366050D01*
X170265793Y-112431713D01*
X170374986Y-112476942D01*
X170490905Y-112500000D01*
X170600001Y-112500000D01*
X170600001Y-113600000D01*
X159096836Y-113600000D01*
X159100000Y-113584095D01*
X159100000Y-113465905D01*
X159076942Y-113349986D01*
X159031713Y-113240793D01*
X158966050Y-113142522D01*
X158882478Y-113058950D01*
X158784207Y-112993287D01*
X158675014Y-112948058D01*
X158559095Y-112925000D01*
X158440905Y-112925000D01*
X158324986Y-112948058D01*
X158215793Y-112993287D01*
X158130917Y-113050000D01*
X152824754Y-113050000D01*
X151625000Y-111850247D01*
X151625000Y-111446916D01*
X151696428Y-111432708D01*
X151787786Y-111394867D01*
X151870006Y-111339929D01*
X151939929Y-111270006D01*
X151994867Y-111187786D01*
X152032708Y-111096428D01*
X152052000Y-110999443D01*
X152052000Y-110900557D01*
X152032708Y-110803572D01*
X152000000Y-110724606D01*
X152000000Y-109536395D01*
X152658821Y-108877575D01*
X152725394Y-108850000D01*
X155615349Y-108850000D01*
X157264812Y-110499464D01*
X157264812Y-110522163D01*
X157287870Y-110638082D01*
X157333099Y-110747275D01*
X157398762Y-110845546D01*
X157482334Y-110929118D01*
X157580605Y-110994781D01*
X157689798Y-111040010D01*
X157805717Y-111063068D01*
X157837413Y-111063068D01*
X157838595Y-111064038D01*
X157916770Y-111105824D01*
X158001596Y-111131556D01*
X158067706Y-111138067D01*
X158067717Y-111138067D01*
X158089811Y-111140243D01*
X158111905Y-111138067D01*
X158889839Y-111138067D01*
X158911933Y-111140243D01*
X158934027Y-111138067D01*
X158934038Y-111138067D01*
X159000148Y-111131556D01*
X159084974Y-111105824D01*
X159163149Y-111064038D01*
X159231670Y-111007804D01*
X159245762Y-110990633D01*
X160858821Y-109377575D01*
X160937786Y-109344867D01*
X161020006Y-109289929D01*
X161050001Y-109259934D01*
X161050001Y-109542192D01*
X160229974Y-110362220D01*
X160207274Y-110362220D01*
X160091355Y-110385278D01*
X159982162Y-110430507D01*
X159883891Y-110496170D01*
X159800319Y-110579742D01*
X159734656Y-110678013D01*
X159689427Y-110787206D01*
X159666369Y-110903125D01*
X159666369Y-111021315D01*
X159689427Y-111137234D01*
X159734656Y-111246427D01*
X159770453Y-111300000D01*
X159375394Y-111300000D01*
X159296428Y-111267292D01*
X159199443Y-111248000D01*
X159100557Y-111248000D01*
X159003572Y-111267292D01*
X158912214Y-111305133D01*
X158829994Y-111360071D01*
X158760071Y-111429994D01*
X158705133Y-111512214D01*
X158667292Y-111603572D01*
X158648000Y-111700557D01*
X158648000Y-111799443D01*
X158667292Y-111896428D01*
X158705133Y-111987786D01*
X158760071Y-112070006D01*
X158829994Y-112139929D01*
X158912214Y-112194867D01*
X159003572Y-112232708D01*
X159100557Y-112252000D01*
X159199443Y-112252000D01*
X159296428Y-112232708D01*
X159375394Y-112200000D01*
X160527906Y-112200000D01*
X160550000Y-112202176D01*
X160572094Y-112200000D01*
X160572105Y-112200000D01*
X160638215Y-112193489D01*
X160723041Y-112167757D01*
X160801216Y-112125971D01*
X160869737Y-112069737D01*
X160883829Y-112052566D01*
X163441664Y-109494732D01*
X163417292Y-109553572D01*
X163398000Y-109650557D01*
X163398000Y-109749443D01*
X163417292Y-109846428D01*
X163450000Y-109925394D01*
X163450001Y-111552896D01*
X163447824Y-111575000D01*
X163456512Y-111663215D01*
X163482243Y-111748040D01*
X163524029Y-111826216D01*
X163566172Y-111877567D01*
X163566177Y-111877572D01*
X163580264Y-111894737D01*
X163597429Y-111908824D01*
X163847425Y-112158821D01*
X163880133Y-112237786D01*
X163935071Y-112320006D01*
X164004994Y-112389929D01*
X164087214Y-112444867D01*
X164178572Y-112482708D01*
X164275557Y-112502000D01*
X164374443Y-112502000D01*
X164471428Y-112482708D01*
X164562786Y-112444867D01*
X164645006Y-112389929D01*
X164714929Y-112320006D01*
X164769867Y-112237786D01*
X164807708Y-112146428D01*
X164827000Y-112049443D01*
X164827000Y-111950557D01*
X164807708Y-111853572D01*
X164769867Y-111762214D01*
X164714929Y-111679994D01*
X164645006Y-111610071D01*
X164562786Y-111555133D01*
X164483821Y-111522425D01*
X164350000Y-111388605D01*
X164350000Y-110059935D01*
X164379994Y-110089929D01*
X164462214Y-110144867D01*
X164553572Y-110182708D01*
X164650557Y-110202000D01*
X164749443Y-110202000D01*
X164846428Y-110182708D01*
X164925394Y-110150000D01*
X165621015Y-110150000D01*
X166631130Y-111160116D01*
X166663838Y-111239081D01*
X166718776Y-111321301D01*
X166788699Y-111391224D01*
X166870919Y-111446162D01*
X166962277Y-111484003D01*
X167059262Y-111503295D01*
X167158148Y-111503295D01*
X167255133Y-111484003D01*
X167346491Y-111446162D01*
X167428711Y-111391224D01*
X167498634Y-111321301D01*
X167553572Y-111239081D01*
X167591413Y-111147723D01*
X167595044Y-111129470D01*
X167654799Y-111104719D01*
X167753070Y-111039056D01*
X167836642Y-110955484D01*
X167902305Y-110857213D01*
X167947534Y-110748020D01*
X167970592Y-110632101D01*
X167970592Y-110513911D01*
X167947534Y-110397992D01*
X167902305Y-110288799D01*
X167836642Y-110190528D01*
X167753070Y-110106956D01*
X167654799Y-110041293D01*
X167545606Y-109996064D01*
X167429687Y-109973006D01*
X167311497Y-109973006D01*
X167195578Y-109996064D01*
X167086385Y-110041293D01*
X166988114Y-110106956D01*
X166919438Y-110175632D01*
X166141239Y-109397434D01*
X166127147Y-109380263D01*
X166059809Y-109325000D01*
X166949606Y-109325000D01*
X167028572Y-109357708D01*
X167125557Y-109377000D01*
X167224443Y-109377000D01*
X167321428Y-109357708D01*
X167412786Y-109319867D01*
X167495006Y-109264929D01*
X167564929Y-109195006D01*
X167619867Y-109112786D01*
X167657708Y-109021428D01*
X167677000Y-108924443D01*
X167677000Y-108825557D01*
X167657708Y-108728572D01*
X167619867Y-108637214D01*
X167564929Y-108554994D01*
X167495006Y-108485071D01*
X167412786Y-108430133D01*
X167321428Y-108392292D01*
X167224443Y-108373000D01*
X167125557Y-108373000D01*
X167028572Y-108392292D01*
X166949606Y-108425000D01*
X165059935Y-108425000D01*
X165089929Y-108395006D01*
X165144867Y-108312786D01*
X165177575Y-108233820D01*
X165420490Y-107990905D01*
X168800000Y-107990905D01*
X168800000Y-108109095D01*
X168823058Y-108225014D01*
X168868287Y-108334207D01*
X168933950Y-108432478D01*
X169017522Y-108516050D01*
X169115793Y-108581713D01*
X169224986Y-108626942D01*
X169340905Y-108650000D01*
X169459095Y-108650000D01*
X169575014Y-108626942D01*
X169684207Y-108581713D01*
X169782478Y-108516050D01*
X169866050Y-108432478D01*
X169931713Y-108334207D01*
X169976942Y-108225014D01*
X170000000Y-108109095D01*
X170000000Y-107990905D01*
X169976942Y-107874986D01*
X169931713Y-107765793D01*
X169866050Y-107667522D01*
X169782478Y-107583950D01*
X169684207Y-107518287D01*
X169575014Y-107473058D01*
X169459095Y-107450000D01*
X169340905Y-107450000D01*
X169224986Y-107473058D01*
X169115793Y-107518287D01*
X169017522Y-107583950D01*
X168933950Y-107667522D01*
X168868287Y-107765793D01*
X168823058Y-107874986D01*
X168800000Y-107990905D01*
X165420490Y-107990905D01*
X166661396Y-106750000D01*
X167024606Y-106750000D01*
X167103572Y-106782708D01*
X167200557Y-106802000D01*
X167299443Y-106802000D01*
X167396428Y-106782708D01*
X167487786Y-106744867D01*
X167570006Y-106689929D01*
X167639929Y-106620006D01*
X167694867Y-106537786D01*
X167732708Y-106446428D01*
X167752000Y-106349443D01*
X167752000Y-106250557D01*
X167732708Y-106153572D01*
X167694867Y-106062214D01*
X167639929Y-105979994D01*
X167570006Y-105910071D01*
X167487786Y-105855133D01*
X167396428Y-105817292D01*
X167299443Y-105798000D01*
X167200557Y-105798000D01*
X167103572Y-105817292D01*
X167024606Y-105850000D01*
X166497094Y-105850000D01*
X166474999Y-105847824D01*
X166452905Y-105850000D01*
X166452895Y-105850000D01*
X166386785Y-105856511D01*
X166317657Y-105877481D01*
X166301959Y-105882243D01*
X166223783Y-105924029D01*
X166172432Y-105966172D01*
X166172428Y-105966176D01*
X166155263Y-105980263D01*
X166141176Y-105997428D01*
X165150000Y-106988605D01*
X165150000Y-106909213D01*
X166543308Y-105515905D01*
X168800000Y-105515905D01*
X168800000Y-105634095D01*
X168823058Y-105750014D01*
X168868287Y-105859207D01*
X168933950Y-105957478D01*
X169017522Y-106041050D01*
X169115793Y-106106713D01*
X169224986Y-106151942D01*
X169340905Y-106175000D01*
X169459095Y-106175000D01*
X169575014Y-106151942D01*
X169684207Y-106106713D01*
X169782478Y-106041050D01*
X169866050Y-105957478D01*
X169931713Y-105859207D01*
X169976942Y-105750014D01*
X170000000Y-105634095D01*
X170000000Y-105515905D01*
X169976942Y-105399986D01*
X169931713Y-105290793D01*
X169866050Y-105192522D01*
X169782478Y-105108950D01*
X169684207Y-105043287D01*
X169575014Y-104998058D01*
X169459095Y-104975000D01*
X169340905Y-104975000D01*
X169224986Y-104998058D01*
X169115793Y-105043287D01*
X169017522Y-105108950D01*
X168933950Y-105192522D01*
X168868287Y-105290793D01*
X168823058Y-105399986D01*
X168800000Y-105515905D01*
X166543308Y-105515905D01*
X167592913Y-104466301D01*
X167671878Y-104433593D01*
X167754098Y-104378655D01*
X167824021Y-104308732D01*
X167878959Y-104226512D01*
X167916800Y-104135154D01*
X167936092Y-104038169D01*
X167936092Y-103939283D01*
X167916800Y-103842298D01*
X167878959Y-103750940D01*
X167824021Y-103668720D01*
X167773151Y-103617850D01*
X168350096Y-103040905D01*
X168800000Y-103040905D01*
X168800000Y-103159095D01*
X168823058Y-103275014D01*
X168868287Y-103384207D01*
X168933950Y-103482478D01*
X169017522Y-103566050D01*
X169115793Y-103631713D01*
X169224986Y-103676942D01*
X169340905Y-103700000D01*
X169459095Y-103700000D01*
X169575014Y-103676942D01*
X169684207Y-103631713D01*
X169782478Y-103566050D01*
X169866050Y-103482478D01*
X169931713Y-103384207D01*
X169976942Y-103275014D01*
X170000000Y-103159095D01*
X170000000Y-103040905D01*
X169976942Y-102924986D01*
X169931713Y-102815793D01*
X169866050Y-102717522D01*
X169782478Y-102633950D01*
X169684207Y-102568287D01*
X169575014Y-102523058D01*
X169459095Y-102500000D01*
X169340905Y-102500000D01*
X169224986Y-102523058D01*
X169115793Y-102568287D01*
X169017522Y-102633950D01*
X168933950Y-102717522D01*
X168868287Y-102815793D01*
X168823058Y-102924986D01*
X168800000Y-103040905D01*
X168350096Y-103040905D01*
X168577573Y-102813428D01*
X168594737Y-102799342D01*
X168608824Y-102782177D01*
X168608828Y-102782173D01*
X168650971Y-102730822D01*
X168692757Y-102652646D01*
X168695075Y-102645006D01*
X168718489Y-102567820D01*
X168721940Y-102532782D01*
X168757708Y-102446428D01*
X168777000Y-102349443D01*
X168777000Y-102250557D01*
X168757708Y-102153572D01*
X168719867Y-102062214D01*
X168664929Y-101979994D01*
X168595006Y-101910071D01*
X168512786Y-101855133D01*
X168421428Y-101817292D01*
X168324443Y-101798000D01*
X168225557Y-101798000D01*
X168128572Y-101817292D01*
X168037214Y-101855133D01*
X167954994Y-101910071D01*
X167885071Y-101979994D01*
X167830133Y-102062214D01*
X167792292Y-102153572D01*
X167773000Y-102250557D01*
X167773000Y-102294482D01*
X167762344Y-102287362D01*
X167670986Y-102249521D01*
X167574001Y-102230229D01*
X167475115Y-102230229D01*
X167378130Y-102249521D01*
X167286772Y-102287362D01*
X167204552Y-102342300D01*
X167134629Y-102412223D01*
X167079691Y-102494443D01*
X167046983Y-102573408D01*
X166950823Y-102669568D01*
X166916050Y-102617528D01*
X166832478Y-102533956D01*
X166734207Y-102468293D01*
X166625014Y-102423064D01*
X166509095Y-102400006D01*
X166390905Y-102400006D01*
X166274986Y-102423064D01*
X166165793Y-102468293D01*
X166067522Y-102533956D01*
X165983950Y-102617528D01*
X165918287Y-102715799D01*
X165873058Y-102824992D01*
X165850000Y-102940911D01*
X165850000Y-103059101D01*
X165873058Y-103175020D01*
X165918287Y-103284213D01*
X165983950Y-103382484D01*
X166067522Y-103466056D01*
X166119563Y-103500829D01*
X164370392Y-105250000D01*
X164125394Y-105250000D01*
X164046428Y-105217292D01*
X163950000Y-105198111D01*
X163950000Y-103942519D01*
X163969867Y-103912786D01*
X164007708Y-103821428D01*
X164027000Y-103724443D01*
X164027000Y-103625557D01*
X164007708Y-103528572D01*
X163969867Y-103437214D01*
X163914929Y-103354994D01*
X163845006Y-103285071D01*
X163762786Y-103230133D01*
X163671428Y-103192292D01*
X163574443Y-103173000D01*
X163475557Y-103173000D01*
X163378572Y-103192292D01*
X163287214Y-103230133D01*
X163204994Y-103285071D01*
X163135071Y-103354994D01*
X163080133Y-103437214D01*
X163042292Y-103528572D01*
X163023000Y-103625557D01*
X163023000Y-103673203D01*
X163022823Y-103675000D01*
X163023000Y-103676797D01*
X163023000Y-103724443D01*
X163042292Y-103821428D01*
X163050000Y-103840037D01*
X163050001Y-108613603D01*
X161950637Y-109712967D01*
X161950000Y-109706495D01*
X161950000Y-108550000D01*
X162074606Y-108550000D01*
X162153572Y-108582708D01*
X162250557Y-108602000D01*
X162349443Y-108602000D01*
X162446428Y-108582708D01*
X162537786Y-108544867D01*
X162620006Y-108489929D01*
X162689929Y-108420006D01*
X162744867Y-108337786D01*
X162782708Y-108246428D01*
X162802000Y-108149443D01*
X162802000Y-108050557D01*
X162782708Y-107953572D01*
X162744867Y-107862214D01*
X162689929Y-107779994D01*
X162620006Y-107710071D01*
X162537786Y-107655133D01*
X162446428Y-107617292D01*
X162349443Y-107598000D01*
X162250557Y-107598000D01*
X162153572Y-107617292D01*
X162074606Y-107650000D01*
X161725394Y-107650000D01*
X161658821Y-107622425D01*
X161226378Y-107189983D01*
X161217233Y-107144007D01*
X161179392Y-107052649D01*
X161124454Y-106970429D01*
X161054531Y-106900506D01*
X160972311Y-106845568D01*
X160880953Y-106807727D01*
X160783968Y-106788435D01*
X160685082Y-106788435D01*
X160588097Y-106807727D01*
X160500000Y-106844217D01*
X160500000Y-105360518D01*
X160553572Y-105382708D01*
X160650557Y-105402000D01*
X160749443Y-105402000D01*
X160846428Y-105382708D01*
X160937786Y-105344867D01*
X161020006Y-105289929D01*
X161089929Y-105220006D01*
X161144867Y-105137786D01*
X161177575Y-105058820D01*
X161252566Y-104983829D01*
X161269737Y-104969737D01*
X161325971Y-104901216D01*
X161367757Y-104823041D01*
X161393489Y-104738215D01*
X161400000Y-104672105D01*
X161400000Y-104672093D01*
X161402176Y-104650001D01*
X161400000Y-104627909D01*
X161400000Y-102550394D01*
X161432708Y-102471428D01*
X161452000Y-102374443D01*
X161452000Y-102275557D01*
X161432708Y-102178572D01*
X161394867Y-102087214D01*
X161339929Y-102004994D01*
X161270006Y-101935071D01*
X161187786Y-101880133D01*
X161096428Y-101842292D01*
X160999443Y-101823000D01*
X160900557Y-101823000D01*
X160803572Y-101842292D01*
X160712214Y-101880133D01*
X160629994Y-101935071D01*
X160560071Y-102004994D01*
X160505133Y-102087214D01*
X160467292Y-102178572D01*
X160448000Y-102275557D01*
X160448000Y-102374443D01*
X160467292Y-102471428D01*
X160500000Y-102550394D01*
X160500001Y-104127913D01*
X160500000Y-104127906D01*
X160500000Y-104127895D01*
X160493489Y-104061785D01*
X160467757Y-103976959D01*
X160449437Y-103942685D01*
X160425971Y-103898783D01*
X160383828Y-103847432D01*
X160383824Y-103847428D01*
X160369737Y-103830263D01*
X160352573Y-103816177D01*
X158408829Y-101872434D01*
X158394737Y-101855263D01*
X158326216Y-101799029D01*
X158248041Y-101757243D01*
X158163215Y-101731511D01*
X158097105Y-101725000D01*
X158097094Y-101725000D01*
X158075000Y-101722824D01*
X158052906Y-101725000D01*
X153675394Y-101725000D01*
X153596428Y-101692292D01*
X153499443Y-101673000D01*
X153400557Y-101673000D01*
X153303572Y-101692292D01*
X153212214Y-101730133D01*
X153129994Y-101785071D01*
X153060071Y-101854994D01*
X153005133Y-101937214D01*
X152967292Y-102028572D01*
X152948000Y-102125557D01*
X152948000Y-102224443D01*
X152967292Y-102321428D01*
X153005133Y-102412786D01*
X153060071Y-102495006D01*
X153129994Y-102564929D01*
X153212214Y-102619867D01*
X153303572Y-102657708D01*
X153400557Y-102677000D01*
X153499443Y-102677000D01*
X153596428Y-102657708D01*
X153675394Y-102625000D01*
X157888605Y-102625000D01*
X159600000Y-104336396D01*
X159600001Y-107104768D01*
X159597824Y-107126872D01*
X159606512Y-107215087D01*
X159632243Y-107299912D01*
X159674029Y-107378088D01*
X159716172Y-107429439D01*
X159716177Y-107429444D01*
X159730264Y-107446609D01*
X159747429Y-107460696D01*
X160250000Y-107963268D01*
X160250001Y-108674604D01*
X160222425Y-108741179D01*
X158900000Y-110063605D01*
X158900000Y-109965897D01*
X158876942Y-109849978D01*
X158831713Y-109740785D01*
X158766050Y-109642514D01*
X158682478Y-109558942D01*
X158584207Y-109493279D01*
X158475014Y-109448050D01*
X158359095Y-109424992D01*
X158336396Y-109424992D01*
X156633836Y-107722433D01*
X156619745Y-107705263D01*
X156551224Y-107649029D01*
X156473049Y-107607243D01*
X156388223Y-107581511D01*
X156322113Y-107575000D01*
X156322102Y-107575000D01*
X156300008Y-107572824D01*
X156277914Y-107575000D01*
X151628297Y-107575000D01*
X151625000Y-107570066D01*
X151625000Y-107100000D01*
X157183996Y-107100000D01*
X157626250Y-107542255D01*
X157640337Y-107559420D01*
X157657502Y-107573507D01*
X157657506Y-107573511D01*
X157708857Y-107615654D01*
X157748965Y-107637092D01*
X157787033Y-107657440D01*
X157871859Y-107683172D01*
X157873383Y-107683322D01*
X157895794Y-107705733D01*
X157994065Y-107771396D01*
X158103258Y-107816625D01*
X158219177Y-107839683D01*
X158337367Y-107839683D01*
X158453286Y-107816625D01*
X158562479Y-107771396D01*
X158625011Y-107729613D01*
X158625012Y-108146028D01*
X158607004Y-108158061D01*
X158537081Y-108227984D01*
X158482143Y-108310204D01*
X158444302Y-108401562D01*
X158425010Y-108498547D01*
X158425010Y-108597433D01*
X158444302Y-108694418D01*
X158482143Y-108785776D01*
X158537081Y-108867996D01*
X158607004Y-108937919D01*
X158689224Y-108992857D01*
X158780582Y-109030698D01*
X158877567Y-109049990D01*
X158976453Y-109049990D01*
X159073438Y-109030698D01*
X159164796Y-108992857D01*
X159247016Y-108937919D01*
X159316939Y-108867996D01*
X159371877Y-108785776D01*
X159403808Y-108708687D01*
X159450982Y-108651205D01*
X159492768Y-108573030D01*
X159518500Y-108488204D01*
X159525011Y-108422094D01*
X159525011Y-108422082D01*
X159527187Y-108399990D01*
X159525011Y-108377898D01*
X159525011Y-107103904D01*
X159527187Y-107081812D01*
X159525011Y-107059720D01*
X159525011Y-107059708D01*
X159518500Y-106993598D01*
X159492768Y-106908772D01*
X159459721Y-106846946D01*
X159450982Y-106830596D01*
X159408839Y-106779245D01*
X159408835Y-106779241D01*
X159394748Y-106762076D01*
X159377584Y-106747990D01*
X158927026Y-106297433D01*
X158912935Y-106280263D01*
X158844414Y-106224029D01*
X158766239Y-106182243D01*
X158681413Y-106156511D01*
X158679889Y-106156361D01*
X158657478Y-106133950D01*
X158559207Y-106068287D01*
X158450014Y-106023058D01*
X158334095Y-106000000D01*
X158311396Y-106000000D01*
X157633827Y-105322432D01*
X157619737Y-105305263D01*
X157551216Y-105249029D01*
X157473041Y-105207243D01*
X157388215Y-105181511D01*
X157322105Y-105175000D01*
X157322094Y-105175000D01*
X157300000Y-105172824D01*
X157277906Y-105175000D01*
X152484806Y-105175000D01*
X151625000Y-104315195D01*
X151625000Y-100400000D01*
X170600000Y-100400000D01*
X170600000Y-103823055D01*
G36*
X151125000Y-103777944D02*
G01*
X151118631Y-103762568D01*
X151063693Y-103680348D01*
X150993770Y-103610425D01*
X150911550Y-103555487D01*
X150820192Y-103517646D01*
X150723207Y-103498354D01*
X150624321Y-103498354D01*
X150527336Y-103517646D01*
X150435978Y-103555487D01*
X150353758Y-103610425D01*
X150283835Y-103680348D01*
X150228897Y-103762568D01*
X150191056Y-103853926D01*
X150171764Y-103950911D01*
X150171764Y-104049797D01*
X150191056Y-104146782D01*
X150228897Y-104238140D01*
X150283835Y-104320360D01*
X150353758Y-104390283D01*
X150435978Y-104445221D01*
X150514944Y-104477929D01*
X151125000Y-105087985D01*
X151125000Y-105738604D01*
X149902575Y-104516180D01*
X149869867Y-104437214D01*
X149814929Y-104354994D01*
X149745006Y-104285071D01*
X149662786Y-104230133D01*
X149571428Y-104192292D01*
X149474443Y-104173000D01*
X149375557Y-104173000D01*
X149278572Y-104192292D01*
X149187214Y-104230133D01*
X149104994Y-104285071D01*
X149098002Y-104292063D01*
X149063215Y-104281511D01*
X148997105Y-104275000D01*
X148997094Y-104275000D01*
X148975000Y-104272824D01*
X148952906Y-104275000D01*
X148575394Y-104275000D01*
X148496428Y-104242292D01*
X148399443Y-104223000D01*
X148300557Y-104223000D01*
X148203572Y-104242292D01*
X148112214Y-104280133D01*
X148029994Y-104335071D01*
X147960071Y-104404994D01*
X147905133Y-104487214D01*
X147867292Y-104578572D01*
X147848000Y-104675557D01*
X147848000Y-104774443D01*
X147867292Y-104871428D01*
X147905133Y-104962786D01*
X147960071Y-105045006D01*
X148029994Y-105114929D01*
X148112214Y-105169867D01*
X148203572Y-105207708D01*
X148300557Y-105227000D01*
X148399443Y-105227000D01*
X148496428Y-105207708D01*
X148575394Y-105175000D01*
X148788605Y-105175000D01*
X150022425Y-106408821D01*
X150024303Y-106413353D01*
X150022702Y-106429605D01*
X150025000Y-106452936D01*
X150031873Y-106522720D01*
X150059034Y-106612258D01*
X150103141Y-106694778D01*
X150162499Y-106767106D01*
X150180633Y-106781988D01*
X150300001Y-106901356D01*
X150300000Y-111648666D01*
X150297702Y-111671998D01*
X150300000Y-111695329D01*
X150306873Y-111765113D01*
X150334034Y-111854651D01*
X150378141Y-111937171D01*
X150437499Y-112009499D01*
X150455634Y-112024382D01*
X151125000Y-112693749D01*
X151125000Y-113600000D01*
X150409497Y-113600000D01*
X150496428Y-113582708D01*
X150587786Y-113544867D01*
X150670006Y-113489929D01*
X150739929Y-113420006D01*
X150794867Y-113337786D01*
X150832708Y-113246428D01*
X150852000Y-113149443D01*
X150852000Y-113050557D01*
X150832708Y-112953572D01*
X150794867Y-112862214D01*
X150739929Y-112779994D01*
X150670006Y-112710071D01*
X150587786Y-112655133D01*
X150496428Y-112617292D01*
X150399443Y-112598000D01*
X150300557Y-112598000D01*
X150203572Y-112617292D01*
X150112214Y-112655133D01*
X150029994Y-112710071D01*
X149960071Y-112779994D01*
X149905133Y-112862214D01*
X149867292Y-112953572D01*
X149848000Y-113050557D01*
X149848000Y-113149443D01*
X149867292Y-113246428D01*
X149905133Y-113337786D01*
X149960071Y-113420006D01*
X150029994Y-113489929D01*
X150112214Y-113544867D01*
X150203572Y-113582708D01*
X150290503Y-113600000D01*
X146625000Y-113600000D01*
X146625000Y-100400000D01*
X151125000Y-100400000D01*
X151125000Y-103777944D01*
G37*
X151125000Y-103777944D02*
X151118631Y-103762568D01*
X151063693Y-103680348D01*
X150993770Y-103610425D01*
X150911550Y-103555487D01*
X150820192Y-103517646D01*
X150723207Y-103498354D01*
X150624321Y-103498354D01*
X150527336Y-103517646D01*
X150435978Y-103555487D01*
X150353758Y-103610425D01*
X150283835Y-103680348D01*
X150228897Y-103762568D01*
X150191056Y-103853926D01*
X150171764Y-103950911D01*
X150171764Y-104049797D01*
X150191056Y-104146782D01*
X150228897Y-104238140D01*
X150283835Y-104320360D01*
X150353758Y-104390283D01*
X150435978Y-104445221D01*
X150514944Y-104477929D01*
X151125000Y-105087985D01*
X151125000Y-105738604D01*
X149902575Y-104516180D01*
X149869867Y-104437214D01*
X149814929Y-104354994D01*
X149745006Y-104285071D01*
X149662786Y-104230133D01*
X149571428Y-104192292D01*
X149474443Y-104173000D01*
X149375557Y-104173000D01*
X149278572Y-104192292D01*
X149187214Y-104230133D01*
X149104994Y-104285071D01*
X149098002Y-104292063D01*
X149063215Y-104281511D01*
X148997105Y-104275000D01*
X148997094Y-104275000D01*
X148975000Y-104272824D01*
X148952906Y-104275000D01*
X148575394Y-104275000D01*
X148496428Y-104242292D01*
X148399443Y-104223000D01*
X148300557Y-104223000D01*
X148203572Y-104242292D01*
X148112214Y-104280133D01*
X148029994Y-104335071D01*
X147960071Y-104404994D01*
X147905133Y-104487214D01*
X147867292Y-104578572D01*
X147848000Y-104675557D01*
X147848000Y-104774443D01*
X147867292Y-104871428D01*
X147905133Y-104962786D01*
X147960071Y-105045006D01*
X148029994Y-105114929D01*
X148112214Y-105169867D01*
X148203572Y-105207708D01*
X148300557Y-105227000D01*
X148399443Y-105227000D01*
X148496428Y-105207708D01*
X148575394Y-105175000D01*
X148788605Y-105175000D01*
X150022425Y-106408821D01*
X150024303Y-106413353D01*
X150022702Y-106429605D01*
X150025000Y-106452936D01*
X150031873Y-106522720D01*
X150059034Y-106612258D01*
X150103141Y-106694778D01*
X150162499Y-106767106D01*
X150180633Y-106781988D01*
X150300001Y-106901356D01*
X150300000Y-111648666D01*
X150297702Y-111671998D01*
X150300000Y-111695329D01*
X150306873Y-111765113D01*
X150334034Y-111854651D01*
X150378141Y-111937171D01*
X150437499Y-112009499D01*
X150455634Y-112024382D01*
X151125000Y-112693749D01*
X151125000Y-113600000D01*
X150409497Y-113600000D01*
X150496428Y-113582708D01*
X150587786Y-113544867D01*
X150670006Y-113489929D01*
X150739929Y-113420006D01*
X150794867Y-113337786D01*
X150832708Y-113246428D01*
X150852000Y-113149443D01*
X150852000Y-113050557D01*
X150832708Y-112953572D01*
X150794867Y-112862214D01*
X150739929Y-112779994D01*
X150670006Y-112710071D01*
X150587786Y-112655133D01*
X150496428Y-112617292D01*
X150399443Y-112598000D01*
X150300557Y-112598000D01*
X150203572Y-112617292D01*
X150112214Y-112655133D01*
X150029994Y-112710071D01*
X149960071Y-112779994D01*
X149905133Y-112862214D01*
X149867292Y-112953572D01*
X149848000Y-113050557D01*
X149848000Y-113149443D01*
X149867292Y-113246428D01*
X149905133Y-113337786D01*
X149960071Y-113420006D01*
X150029994Y-113489929D01*
X150112214Y-113544867D01*
X150203572Y-113582708D01*
X150290503Y-113600000D01*
X146625000Y-113600000D01*
X146625000Y-100400000D01*
X151125000Y-100400000D01*
X151125000Y-103777944D01*
M02*
