G04 #@! TF.GenerationSoftware,KiCad,Pcbnew,(5.1.5-0-10_14)*
G04 #@! TF.CreationDate,2020-08-25T16:28:50-04:00*
G04 #@! TF.ProjectId,ESLO,45534c4f-2e6b-4696-9361-645f70636258,rev?*
G04 #@! TF.SameCoordinates,Original*
G04 #@! TF.FileFunction,Copper,L2,Inr*
G04 #@! TF.FilePolarity,Positive*
%FSLAX46Y46*%
G04 Gerber Fmt 4.6, Leading zero omitted, Abs format (unit mm)*
G04 Created by KiCad (PCBNEW (5.1.5-0-10_14)) date 2020-08-25 16:28:50*
%MOMM*%
%LPD*%
G04 APERTURE LIST*
%ADD10C,0.450000*%
%ADD11C,0.254000*%
%ADD12C,0.150000*%
%ADD13C,0.200000*%
G04 APERTURE END LIST*
D10*
X145595000Y-104205000D03*
D11*
X151750000Y-112025000D03*
X154189596Y-113387586D03*
X151925000Y-104025000D03*
X152548225Y-104329609D03*
X154950000Y-108300000D03*
X153113591Y-103197990D03*
X153600000Y-103197990D03*
D10*
X158500000Y-113525000D03*
D11*
X162550000Y-102525000D03*
X157925000Y-105950004D03*
X155325000Y-105677032D03*
D10*
X157939428Y-101725010D03*
D11*
X162549996Y-103350000D03*
X162850004Y-105975000D03*
X166500000Y-105950000D03*
D10*
X157799746Y-110442742D03*
D11*
X156975000Y-110800000D03*
D10*
X158348716Y-106900010D03*
D11*
X156085355Y-106040724D03*
X156729507Y-111125098D03*
D10*
X158349990Y-107509690D03*
D11*
X169325000Y-112900000D03*
X160447365Y-110804532D03*
X164313591Y-113011409D03*
X162539682Y-111237500D03*
D10*
X157125702Y-109814370D03*
X146800000Y-102800000D03*
X146800000Y-103800000D03*
X146800000Y-104800000D03*
X146800000Y-106400000D03*
X146800000Y-107400000D03*
X146800000Y-108400000D03*
X146800000Y-109400000D03*
X146800000Y-112400000D03*
X147800000Y-112400000D03*
X148800000Y-112400000D03*
X147700000Y-101200000D03*
X149800000Y-107400000D03*
X147800000Y-108400000D03*
X147800000Y-107400000D03*
X148800000Y-107400000D03*
X147600000Y-104400000D03*
D11*
X155200000Y-113600000D03*
X154200000Y-108200000D03*
X164200000Y-113600000D03*
X165500000Y-100850000D03*
X151750000Y-111525000D03*
X152050000Y-106975000D03*
X150575000Y-109600000D03*
X155950000Y-101925000D03*
X163250000Y-102777010D03*
X153700000Y-113397990D03*
X159250000Y-100825000D03*
X153600000Y-104287183D03*
X166576091Y-106926091D03*
D10*
X158999768Y-110635458D03*
D11*
X165250000Y-111175000D03*
X158325000Y-106250000D03*
D10*
X150800000Y-101000000D03*
D11*
X157135890Y-103864112D03*
D10*
X147700000Y-102100000D03*
X148800000Y-102100000D03*
X166500010Y-103000006D03*
D11*
X154700000Y-103477012D03*
X160750000Y-102500000D03*
X149500000Y-101700000D03*
D10*
X170425000Y-104325000D03*
X169958441Y-104898747D03*
X169400000Y-105575000D03*
X170550000Y-106925000D03*
X169400000Y-108050000D03*
X170500000Y-109325000D03*
X167370592Y-110573006D03*
X170550000Y-111900000D03*
D11*
X159350000Y-103452010D03*
X152950000Y-105325000D03*
X156025000Y-104000000D03*
X157220966Y-104626940D03*
X159100000Y-104875000D03*
X158525000Y-104850000D03*
X152200000Y-111575000D03*
X158404023Y-104460069D03*
X161250000Y-110775000D03*
X160275000Y-113075000D03*
X161750000Y-110775000D03*
X162750000Y-112675000D03*
X162750000Y-112200000D03*
X162163591Y-110861409D03*
X159623100Y-110900000D03*
X157447957Y-109405927D03*
X158350656Y-108865887D03*
X158512551Y-108559546D03*
X158408670Y-105508670D03*
X160563612Y-105419757D03*
X158407011Y-103452010D03*
X157475000Y-103475000D03*
X160150000Y-111300000D03*
X148699996Y-104350000D03*
X164600000Y-111025000D03*
X150750000Y-101675000D03*
X164050000Y-111000000D03*
X151824996Y-101925000D03*
D12*
X153275000Y-112025000D02*
X154189596Y-112939596D01*
X154189596Y-112939596D02*
X154189596Y-113387586D01*
X152229609Y-104329609D02*
X152548225Y-104329609D01*
X151925000Y-104025000D02*
X152229609Y-104329609D01*
X154547999Y-108702001D02*
X153147999Y-108702001D01*
X154950000Y-108300000D02*
X154547999Y-108702001D01*
X152625000Y-109225000D02*
X152625000Y-112025000D01*
X153147999Y-108702001D02*
X152625000Y-109225000D01*
X152625000Y-112025000D02*
X151750000Y-112025000D01*
X153275000Y-112025000D02*
X152625000Y-112025000D01*
X153113591Y-103197990D02*
X153600000Y-103197990D01*
X162200010Y-101725010D02*
X157939428Y-101725010D01*
X162550000Y-102075000D02*
X162200010Y-101725010D01*
X162550000Y-103349996D02*
X162550000Y-102075000D01*
X162550000Y-103349996D02*
X162549996Y-103350000D01*
X162850004Y-105975000D02*
X166475000Y-105975000D01*
X166475000Y-105975000D02*
X166500000Y-105950000D01*
X156379206Y-105677032D02*
X155325000Y-105677032D01*
X156652174Y-105950000D02*
X156379206Y-105677032D01*
X157924996Y-105950000D02*
X156652174Y-105950000D01*
X157925000Y-105950004D02*
X157924996Y-105950000D01*
X158840000Y-107140000D02*
X158600010Y-106900010D01*
X158840000Y-107734279D02*
X158840000Y-107140000D01*
X158524279Y-108050000D02*
X158840000Y-107734279D01*
X156675701Y-110500701D02*
X156675701Y-108844299D01*
X157470000Y-108050000D02*
X158524279Y-108050000D01*
X156675701Y-108844299D02*
X157470000Y-108050000D01*
X158600010Y-106900010D02*
X158348716Y-106900010D01*
X156975000Y-110800000D02*
X156675701Y-110500701D01*
X158031792Y-107509690D02*
X158349990Y-107509690D01*
X158365310Y-107509690D02*
X158349990Y-107509690D01*
X158394901Y-107471111D02*
X158388569Y-107471111D01*
X158388569Y-107471111D02*
X158349990Y-107509690D01*
X156085355Y-106040724D02*
X157554321Y-107509690D01*
X157554321Y-107509690D02*
X158031792Y-107509690D01*
X157580310Y-107509690D02*
X158031792Y-107509690D01*
X156325000Y-108765000D02*
X157580310Y-107509690D01*
X156325000Y-110720591D02*
X156325000Y-108765000D01*
X156729507Y-111125098D02*
X156325000Y-110720591D01*
X169325000Y-112900000D02*
X164700000Y-112900000D01*
X164700000Y-112900000D02*
X162200000Y-110400000D01*
X160851897Y-110400000D02*
X160447365Y-110804532D01*
X162200000Y-110400000D02*
X160851897Y-110400000D01*
X164313591Y-113011409D02*
X162539682Y-111237500D01*
X154573001Y-103350013D02*
X154573001Y-103348001D01*
X154700000Y-103477012D02*
X154573001Y-103350013D01*
X154573001Y-103348001D02*
X153975000Y-102750000D01*
X153975000Y-102750000D02*
X150550000Y-102750000D01*
X150550000Y-102750000D02*
X149500000Y-101700000D01*
X160750000Y-102500000D02*
X155677012Y-102500000D01*
X155677012Y-102500000D02*
X154700000Y-103477012D01*
X157572976Y-104997988D02*
X157568962Y-105002002D01*
X159350000Y-103452010D02*
X158997999Y-103804011D01*
X158126467Y-103804011D02*
X157572976Y-104357502D01*
X157568962Y-105002002D02*
X156977012Y-105002002D01*
X158997999Y-103804011D02*
X158126467Y-103804011D01*
X156977012Y-105002002D02*
X156700011Y-104725000D01*
X156700011Y-104725000D02*
X153550000Y-104725000D01*
X153550000Y-104725000D02*
X153076999Y-105198001D01*
X153076999Y-105198001D02*
X152950000Y-105325000D01*
X157572976Y-104357502D02*
X157572976Y-104997988D01*
X157093967Y-104499941D02*
X157220966Y-104626940D01*
X156594026Y-104000000D02*
X157093967Y-104499941D01*
X156025000Y-104000000D02*
X156594026Y-104000000D01*
X159100000Y-104875000D02*
X158550000Y-104875000D01*
X158550000Y-104875000D02*
X158525000Y-104850000D01*
X156451475Y-105325022D02*
X156728476Y-105602024D01*
X152200000Y-107981220D02*
X154856198Y-105325022D01*
X154856198Y-105325022D02*
X156451475Y-105325022D01*
X158277024Y-104587068D02*
X158404023Y-104460069D01*
X156728476Y-105602024D02*
X157817498Y-105602024D01*
X157817498Y-105602024D02*
X158172998Y-105246524D01*
X158172998Y-104691094D02*
X158277024Y-104587068D01*
X158172998Y-105246524D02*
X158172998Y-104691094D01*
X152200000Y-111575000D02*
X152200000Y-107981220D01*
X161250000Y-110775000D02*
X161250000Y-112100000D01*
X161250000Y-112100000D02*
X160275000Y-113075000D01*
X162725000Y-112675000D02*
X161750000Y-111700000D01*
X162750000Y-112675000D02*
X162725000Y-112675000D01*
X161750000Y-111700000D02*
X161750000Y-110775000D01*
X162750000Y-112200000D02*
X162163591Y-111613591D01*
X162163591Y-111613591D02*
X162163591Y-110861409D01*
X157742030Y-109700000D02*
X157447957Y-109405927D01*
X158700722Y-109700000D02*
X157742030Y-109700000D01*
X159623100Y-110622378D02*
X158700722Y-109700000D01*
X159623100Y-110900000D02*
X159623100Y-110622378D01*
X158350656Y-108865887D02*
X158512551Y-108703992D01*
X158512551Y-108703992D02*
X158512551Y-108559546D01*
X160393855Y-105250000D02*
X160563612Y-105419757D01*
X158667340Y-105250000D02*
X160393855Y-105250000D01*
X158408670Y-105508670D02*
X158667340Y-105250000D01*
X157497990Y-103452010D02*
X157475000Y-103475000D01*
X158407011Y-103452010D02*
X157497990Y-103452010D01*
X157872987Y-104481770D02*
X157872987Y-105122256D01*
X157872987Y-105122256D02*
X157693230Y-105302013D01*
X150026997Y-105677001D02*
X148826995Y-104476999D01*
X160023001Y-111173001D02*
X160023001Y-106481332D01*
X153118961Y-105677001D02*
X150026997Y-105677001D01*
X158250003Y-104104754D02*
X157872987Y-104481770D01*
X160915614Y-105265095D02*
X159755273Y-104104754D01*
X157693230Y-105302013D02*
X156852744Y-105302013D01*
X160150000Y-111300000D02*
X160023001Y-111173001D01*
X156575743Y-105025011D02*
X153770951Y-105025011D01*
X153770951Y-105025011D02*
X153118961Y-105677001D01*
X148826995Y-104476999D02*
X148699996Y-104350000D01*
X159755273Y-104104754D02*
X158250003Y-104104754D01*
X156852744Y-105302013D02*
X156575743Y-105025011D01*
X160023001Y-106481332D02*
X160915614Y-105588719D01*
X160915614Y-105588719D02*
X160915614Y-105265095D01*
X152254605Y-100350000D02*
X150929605Y-101675000D01*
X164600000Y-111025000D02*
X167275011Y-108349989D01*
X167275011Y-108349989D02*
X167275011Y-105650732D01*
X150929605Y-101675000D02*
X150750000Y-101675000D01*
X161974279Y-100350000D02*
X152254605Y-100350000D01*
X167275011Y-105650732D02*
X161974279Y-100350000D01*
X164050000Y-111000000D02*
X166975000Y-108075000D01*
X166975000Y-108075000D02*
X166975000Y-105900000D01*
X166975000Y-105900000D02*
X162350000Y-101275000D01*
X152474996Y-101275000D02*
X151824996Y-101925000D01*
X162350000Y-101275000D02*
X152474996Y-101275000D01*
D13*
G36*
X150820599Y-101253677D02*
G01*
X150792056Y-101248000D01*
X150707944Y-101248000D01*
X150625449Y-101264409D01*
X150547740Y-101296598D01*
X150477803Y-101343327D01*
X150418327Y-101402803D01*
X150371598Y-101472740D01*
X150339409Y-101550449D01*
X150323000Y-101632944D01*
X150323000Y-101717056D01*
X150339409Y-101799551D01*
X150371598Y-101877260D01*
X150418327Y-101947197D01*
X150477803Y-102006673D01*
X150547740Y-102053402D01*
X150625449Y-102085591D01*
X150707944Y-102102000D01*
X150792056Y-102102000D01*
X150874551Y-102085591D01*
X150952260Y-102053402D01*
X150958964Y-102048923D01*
X151003118Y-102044574D01*
X151073805Y-102023131D01*
X151138952Y-101988309D01*
X151196053Y-101941448D01*
X151207800Y-101927134D01*
X152409935Y-100725000D01*
X161818950Y-100725000D01*
X161993950Y-100900000D01*
X152493412Y-100900000D01*
X152474996Y-100898186D01*
X152456580Y-100900000D01*
X152456577Y-100900000D01*
X152401483Y-100905426D01*
X152330796Y-100926869D01*
X152265649Y-100961691D01*
X152208548Y-101008552D01*
X152196805Y-101022861D01*
X151706453Y-101513214D01*
X151700445Y-101514409D01*
X151622736Y-101546598D01*
X151552799Y-101593327D01*
X151493323Y-101652803D01*
X151446594Y-101722740D01*
X151414405Y-101800449D01*
X151397996Y-101882944D01*
X151397996Y-101967056D01*
X151414405Y-102049551D01*
X151446594Y-102127260D01*
X151493323Y-102197197D01*
X151552799Y-102256673D01*
X151622736Y-102303402D01*
X151700445Y-102335591D01*
X151782940Y-102352000D01*
X151867052Y-102352000D01*
X151949547Y-102335591D01*
X152027256Y-102303402D01*
X152097193Y-102256673D01*
X152156669Y-102197197D01*
X152203398Y-102127260D01*
X152235587Y-102049551D01*
X152236782Y-102043543D01*
X152630326Y-101650000D01*
X157419063Y-101650000D01*
X157414428Y-101673302D01*
X157414428Y-101776718D01*
X157434604Y-101878147D01*
X157474179Y-101973691D01*
X157531634Y-102059678D01*
X157596956Y-102125000D01*
X155695428Y-102125000D01*
X155677012Y-102123186D01*
X155658596Y-102125000D01*
X155658593Y-102125000D01*
X155603499Y-102130426D01*
X155532812Y-102151869D01*
X155512119Y-102162930D01*
X155467665Y-102186690D01*
X155434904Y-102213577D01*
X155410564Y-102233552D01*
X155398821Y-102247861D01*
X154701006Y-102945676D01*
X154253195Y-102497866D01*
X154241448Y-102483552D01*
X154184347Y-102436691D01*
X154119200Y-102401869D01*
X154048513Y-102380426D01*
X153993419Y-102375000D01*
X153993416Y-102375000D01*
X153975000Y-102373186D01*
X153956584Y-102375000D01*
X150705331Y-102375000D01*
X149911786Y-101581457D01*
X149910591Y-101575449D01*
X149878402Y-101497740D01*
X149831673Y-101427803D01*
X149772197Y-101368327D01*
X149702260Y-101321598D01*
X149624551Y-101289409D01*
X149542056Y-101273000D01*
X149457944Y-101273000D01*
X149375449Y-101289409D01*
X149297740Y-101321598D01*
X149227803Y-101368327D01*
X149168327Y-101427803D01*
X149121598Y-101497740D01*
X149089409Y-101575449D01*
X149073000Y-101657944D01*
X149073000Y-101742056D01*
X149089409Y-101824551D01*
X149121598Y-101902260D01*
X149168327Y-101972197D01*
X149227803Y-102031673D01*
X149297740Y-102078402D01*
X149375449Y-102110591D01*
X149381457Y-102111786D01*
X150271814Y-103002145D01*
X150283552Y-103016448D01*
X150297855Y-103028186D01*
X150297858Y-103028189D01*
X150324450Y-103050012D01*
X150340653Y-103063309D01*
X150405800Y-103098131D01*
X150476487Y-103119574D01*
X150531581Y-103125000D01*
X150531583Y-103125000D01*
X150549999Y-103126814D01*
X150568415Y-103125000D01*
X152692744Y-103125000D01*
X152686591Y-103155934D01*
X152686591Y-103240046D01*
X152703000Y-103322541D01*
X152735189Y-103400250D01*
X152781918Y-103470187D01*
X152841394Y-103529663D01*
X152911331Y-103576392D01*
X152989040Y-103608581D01*
X153071535Y-103624990D01*
X153155647Y-103624990D01*
X153238142Y-103608581D01*
X153315851Y-103576392D01*
X153320943Y-103572990D01*
X153392648Y-103572990D01*
X153397740Y-103576392D01*
X153475449Y-103608581D01*
X153557944Y-103624990D01*
X153642056Y-103624990D01*
X153724551Y-103608581D01*
X153802260Y-103576392D01*
X153872197Y-103529663D01*
X153931673Y-103470187D01*
X153978402Y-103400250D01*
X154010591Y-103322541D01*
X154011689Y-103317019D01*
X154285605Y-103590935D01*
X154287836Y-103593653D01*
X154289409Y-103601563D01*
X154321598Y-103679272D01*
X154368327Y-103749209D01*
X154427803Y-103808685D01*
X154497740Y-103855414D01*
X154575449Y-103887603D01*
X154657944Y-103904012D01*
X154742056Y-103904012D01*
X154824551Y-103887603D01*
X154902260Y-103855414D01*
X154972197Y-103808685D01*
X155031673Y-103749209D01*
X155078402Y-103679272D01*
X155110591Y-103601563D01*
X155111786Y-103595555D01*
X155832342Y-102875000D01*
X160542648Y-102875000D01*
X160547740Y-102878402D01*
X160625449Y-102910591D01*
X160707944Y-102927000D01*
X160792056Y-102927000D01*
X160874551Y-102910591D01*
X160952260Y-102878402D01*
X161022197Y-102831673D01*
X161081673Y-102772197D01*
X161128402Y-102702260D01*
X161160591Y-102624551D01*
X161177000Y-102542056D01*
X161177000Y-102457944D01*
X161160591Y-102375449D01*
X161128402Y-102297740D01*
X161081673Y-102227803D01*
X161022197Y-102168327D01*
X160952260Y-102121598D01*
X160900143Y-102100010D01*
X162044681Y-102100010D01*
X162175001Y-102230331D01*
X162175001Y-102317647D01*
X162171598Y-102322740D01*
X162139409Y-102400449D01*
X162123000Y-102482944D01*
X162123000Y-102567056D01*
X162139409Y-102649551D01*
X162171598Y-102727260D01*
X162175000Y-102732352D01*
X162175000Y-103142642D01*
X162171594Y-103147740D01*
X162139405Y-103225449D01*
X162122996Y-103307944D01*
X162122996Y-103392056D01*
X162139405Y-103474551D01*
X162171594Y-103552260D01*
X162218323Y-103622197D01*
X162277799Y-103681673D01*
X162347736Y-103728402D01*
X162425445Y-103760591D01*
X162507940Y-103777000D01*
X162592052Y-103777000D01*
X162674547Y-103760591D01*
X162752256Y-103728402D01*
X162822193Y-103681673D01*
X162881669Y-103622197D01*
X162928398Y-103552260D01*
X162960587Y-103474551D01*
X162976996Y-103392056D01*
X162976996Y-103307944D01*
X162960587Y-103225449D01*
X162928398Y-103147740D01*
X162925000Y-103142654D01*
X162925000Y-102732352D01*
X162928402Y-102727260D01*
X162960591Y-102649551D01*
X162977000Y-102567056D01*
X162977000Y-102482944D01*
X162964432Y-102419762D01*
X166144670Y-105600000D01*
X163057356Y-105600000D01*
X163052264Y-105596598D01*
X162974555Y-105564409D01*
X162892060Y-105548000D01*
X162807948Y-105548000D01*
X162725453Y-105564409D01*
X162647744Y-105596598D01*
X162577807Y-105643327D01*
X162518331Y-105702803D01*
X162471602Y-105772740D01*
X162439413Y-105850449D01*
X162423004Y-105932944D01*
X162423004Y-106017056D01*
X162439413Y-106099551D01*
X162471602Y-106177260D01*
X162518331Y-106247197D01*
X162577807Y-106306673D01*
X162647744Y-106353402D01*
X162725453Y-106385591D01*
X162807948Y-106402000D01*
X162892060Y-106402000D01*
X162974555Y-106385591D01*
X163052264Y-106353402D01*
X163057356Y-106350000D01*
X166349881Y-106350000D01*
X166375449Y-106360591D01*
X166457944Y-106377000D01*
X166542056Y-106377000D01*
X166600001Y-106365474D01*
X166600000Y-107919670D01*
X163931457Y-110588214D01*
X163925449Y-110589409D01*
X163847740Y-110621598D01*
X163777803Y-110668327D01*
X163718327Y-110727803D01*
X163671598Y-110797740D01*
X163639409Y-110875449D01*
X163623000Y-110957944D01*
X163623000Y-111042056D01*
X163639409Y-111124551D01*
X163671598Y-111202260D01*
X163718327Y-111272197D01*
X163777803Y-111331673D01*
X163847740Y-111378402D01*
X163925449Y-111410591D01*
X164007944Y-111427000D01*
X164092056Y-111427000D01*
X164174551Y-111410591D01*
X164252260Y-111378402D01*
X164310571Y-111339441D01*
X164327803Y-111356673D01*
X164397740Y-111403402D01*
X164475449Y-111435591D01*
X164557944Y-111452000D01*
X164642056Y-111452000D01*
X164724551Y-111435591D01*
X164802260Y-111403402D01*
X164872197Y-111356673D01*
X164931673Y-111297197D01*
X164978402Y-111227260D01*
X165010591Y-111149551D01*
X165011786Y-111143543D01*
X165634031Y-110521298D01*
X166845592Y-110521298D01*
X166845592Y-110624714D01*
X166865768Y-110726143D01*
X166905343Y-110821687D01*
X166962798Y-110907674D01*
X167035924Y-110980800D01*
X167121911Y-111038255D01*
X167217455Y-111077830D01*
X167318884Y-111098006D01*
X167422300Y-111098006D01*
X167523729Y-111077830D01*
X167619273Y-111038255D01*
X167705260Y-110980800D01*
X167778386Y-110907674D01*
X167835841Y-110821687D01*
X167875416Y-110726143D01*
X167895592Y-110624714D01*
X167895592Y-110521298D01*
X167875416Y-110419869D01*
X167835841Y-110324325D01*
X167778386Y-110238338D01*
X167705260Y-110165212D01*
X167619273Y-110107757D01*
X167523729Y-110068182D01*
X167422300Y-110048006D01*
X167318884Y-110048006D01*
X167217455Y-110068182D01*
X167121911Y-110107757D01*
X167035924Y-110165212D01*
X166962798Y-110238338D01*
X166905343Y-110324325D01*
X166865768Y-110419869D01*
X166845592Y-110521298D01*
X165634031Y-110521298D01*
X167527151Y-108628179D01*
X167541459Y-108616437D01*
X167588320Y-108559336D01*
X167623142Y-108494189D01*
X167644585Y-108423502D01*
X167650011Y-108368408D01*
X167650011Y-108368405D01*
X167651825Y-108349989D01*
X167650011Y-108331573D01*
X167650011Y-107998292D01*
X168875000Y-107998292D01*
X168875000Y-108101708D01*
X168895176Y-108203137D01*
X168934751Y-108298681D01*
X168992206Y-108384668D01*
X169065332Y-108457794D01*
X169151319Y-108515249D01*
X169246863Y-108554824D01*
X169348292Y-108575000D01*
X169451708Y-108575000D01*
X169553137Y-108554824D01*
X169648681Y-108515249D01*
X169734668Y-108457794D01*
X169807794Y-108384668D01*
X169865249Y-108298681D01*
X169904824Y-108203137D01*
X169925000Y-108101708D01*
X169925000Y-107998292D01*
X169904824Y-107896863D01*
X169865249Y-107801319D01*
X169807794Y-107715332D01*
X169734668Y-107642206D01*
X169648681Y-107584751D01*
X169553137Y-107545176D01*
X169451708Y-107525000D01*
X169348292Y-107525000D01*
X169246863Y-107545176D01*
X169151319Y-107584751D01*
X169065332Y-107642206D01*
X168992206Y-107715332D01*
X168934751Y-107801319D01*
X168895176Y-107896863D01*
X168875000Y-107998292D01*
X167650011Y-107998292D01*
X167650011Y-105669147D01*
X167651825Y-105650731D01*
X167649459Y-105626708D01*
X167644585Y-105577219D01*
X167623142Y-105506532D01*
X167619154Y-105499070D01*
X167588320Y-105441385D01*
X167572299Y-105421863D01*
X167541459Y-105384284D01*
X167527150Y-105372541D01*
X165102907Y-102948298D01*
X165975010Y-102948298D01*
X165975010Y-103051714D01*
X165995186Y-103153143D01*
X166034761Y-103248687D01*
X166092216Y-103334674D01*
X166165342Y-103407800D01*
X166251329Y-103465255D01*
X166346873Y-103504830D01*
X166448302Y-103525006D01*
X166551718Y-103525006D01*
X166653147Y-103504830D01*
X166748691Y-103465255D01*
X166834678Y-103407800D01*
X166907804Y-103334674D01*
X166965259Y-103248687D01*
X167004834Y-103153143D01*
X167025010Y-103051714D01*
X167025010Y-102948298D01*
X167004834Y-102846869D01*
X166965259Y-102751325D01*
X166907804Y-102665338D01*
X166834678Y-102592212D01*
X166748691Y-102534757D01*
X166653147Y-102495182D01*
X166551718Y-102475006D01*
X166448302Y-102475006D01*
X166346873Y-102495182D01*
X166251329Y-102534757D01*
X166165342Y-102592212D01*
X166092216Y-102665338D01*
X166034761Y-102751325D01*
X165995186Y-102846869D01*
X165975010Y-102948298D01*
X165102907Y-102948298D01*
X162504608Y-100350000D01*
X170650000Y-100350000D01*
X170650000Y-103849942D01*
X170578137Y-103820176D01*
X170476708Y-103800000D01*
X170373292Y-103800000D01*
X170271863Y-103820176D01*
X170176319Y-103859751D01*
X170090332Y-103917206D01*
X170017206Y-103990332D01*
X169959751Y-104076319D01*
X169920176Y-104171863D01*
X169900000Y-104273292D01*
X169900000Y-104375086D01*
X169805304Y-104393923D01*
X169709760Y-104433498D01*
X169623773Y-104490953D01*
X169550647Y-104564079D01*
X169493192Y-104650066D01*
X169453617Y-104745610D01*
X169433441Y-104847039D01*
X169433441Y-104950455D01*
X169453305Y-105050318D01*
X169451708Y-105050000D01*
X169348292Y-105050000D01*
X169246863Y-105070176D01*
X169151319Y-105109751D01*
X169065332Y-105167206D01*
X168992206Y-105240332D01*
X168934751Y-105326319D01*
X168895176Y-105421863D01*
X168875000Y-105523292D01*
X168875000Y-105626708D01*
X168895176Y-105728137D01*
X168934751Y-105823681D01*
X168992206Y-105909668D01*
X169065332Y-105982794D01*
X169151319Y-106040249D01*
X169246863Y-106079824D01*
X169348292Y-106100000D01*
X169451708Y-106100000D01*
X169553137Y-106079824D01*
X169648681Y-106040249D01*
X169734668Y-105982794D01*
X169807794Y-105909668D01*
X169865249Y-105823681D01*
X169904824Y-105728137D01*
X169925000Y-105626708D01*
X169925000Y-105523292D01*
X169905136Y-105423429D01*
X169906733Y-105423747D01*
X170010149Y-105423747D01*
X170111578Y-105403571D01*
X170207122Y-105363996D01*
X170293109Y-105306541D01*
X170366235Y-105233415D01*
X170423690Y-105147428D01*
X170463265Y-105051884D01*
X170483441Y-104950455D01*
X170483441Y-104848661D01*
X170578137Y-104829824D01*
X170650000Y-104800058D01*
X170650000Y-106409606D01*
X170601708Y-106400000D01*
X170498292Y-106400000D01*
X170396863Y-106420176D01*
X170301319Y-106459751D01*
X170215332Y-106517206D01*
X170142206Y-106590332D01*
X170084751Y-106676319D01*
X170045176Y-106771863D01*
X170025000Y-106873292D01*
X170025000Y-106976708D01*
X170045176Y-107078137D01*
X170084751Y-107173681D01*
X170142206Y-107259668D01*
X170215332Y-107332794D01*
X170301319Y-107390249D01*
X170396863Y-107429824D01*
X170498292Y-107450000D01*
X170601708Y-107450000D01*
X170650000Y-107440394D01*
X170650000Y-108819552D01*
X170551708Y-108800000D01*
X170448292Y-108800000D01*
X170346863Y-108820176D01*
X170251319Y-108859751D01*
X170165332Y-108917206D01*
X170092206Y-108990332D01*
X170034751Y-109076319D01*
X169995176Y-109171863D01*
X169975000Y-109273292D01*
X169975000Y-109376708D01*
X169995176Y-109478137D01*
X170034751Y-109573681D01*
X170092206Y-109659668D01*
X170165332Y-109732794D01*
X170251319Y-109790249D01*
X170346863Y-109829824D01*
X170448292Y-109850000D01*
X170551708Y-109850000D01*
X170650000Y-109830448D01*
X170650000Y-111384606D01*
X170601708Y-111375000D01*
X170498292Y-111375000D01*
X170396863Y-111395176D01*
X170301319Y-111434751D01*
X170215332Y-111492206D01*
X170142206Y-111565332D01*
X170084751Y-111651319D01*
X170045176Y-111746863D01*
X170025000Y-111848292D01*
X170025000Y-111951708D01*
X170045176Y-112053137D01*
X170084751Y-112148681D01*
X170142206Y-112234668D01*
X170215332Y-112307794D01*
X170301319Y-112365249D01*
X170396863Y-112404824D01*
X170498292Y-112425000D01*
X170601708Y-112425000D01*
X170650000Y-112415394D01*
X170650000Y-113650000D01*
X159010421Y-113650000D01*
X159025000Y-113576708D01*
X159025000Y-113473292D01*
X159004824Y-113371863D01*
X158965249Y-113276319D01*
X158907794Y-113190332D01*
X158834668Y-113117206D01*
X158748681Y-113059751D01*
X158653137Y-113020176D01*
X158551708Y-113000000D01*
X158448292Y-113000000D01*
X158346863Y-113020176D01*
X158251319Y-113059751D01*
X158165332Y-113117206D01*
X158092206Y-113190332D01*
X158034751Y-113276319D01*
X157995176Y-113371863D01*
X157975000Y-113473292D01*
X157975000Y-113576708D01*
X157989579Y-113650000D01*
X154527806Y-113650000D01*
X154567998Y-113589846D01*
X154600187Y-113512137D01*
X154616596Y-113429642D01*
X154616596Y-113345530D01*
X154600187Y-113263035D01*
X154567998Y-113185326D01*
X154564596Y-113180234D01*
X154564596Y-112958011D01*
X154566410Y-112939595D01*
X154562510Y-112900000D01*
X154559170Y-112866083D01*
X154537727Y-112795396D01*
X154502905Y-112730249D01*
X154456044Y-112673148D01*
X154441736Y-112661406D01*
X153553195Y-111772866D01*
X153541448Y-111758552D01*
X153484347Y-111711691D01*
X153419200Y-111676869D01*
X153348513Y-111655426D01*
X153293419Y-111650000D01*
X153293416Y-111650000D01*
X153275000Y-111648186D01*
X153256584Y-111650000D01*
X153000000Y-111650000D01*
X153000000Y-109380329D01*
X153303330Y-109077001D01*
X154529583Y-109077001D01*
X154547999Y-109078815D01*
X154566415Y-109077001D01*
X154566418Y-109077001D01*
X154621512Y-109071575D01*
X154692199Y-109050132D01*
X154757346Y-109015310D01*
X154814447Y-108968449D01*
X154826194Y-108954135D01*
X155068545Y-108711786D01*
X155074551Y-108710591D01*
X155152260Y-108678402D01*
X155222197Y-108631673D01*
X155281673Y-108572197D01*
X155328402Y-108502260D01*
X155360591Y-108424551D01*
X155377000Y-108342056D01*
X155377000Y-108257944D01*
X155360591Y-108175449D01*
X155328402Y-108097740D01*
X155281673Y-108027803D01*
X155222197Y-107968327D01*
X155152260Y-107921598D01*
X155074551Y-107889409D01*
X154992056Y-107873000D01*
X154907944Y-107873000D01*
X154825449Y-107889409D01*
X154747740Y-107921598D01*
X154677803Y-107968327D01*
X154618327Y-108027803D01*
X154571598Y-108097740D01*
X154539409Y-108175449D01*
X154538214Y-108181455D01*
X154392669Y-108327001D01*
X153166414Y-108327001D01*
X153147998Y-108325187D01*
X153129582Y-108327001D01*
X153129580Y-108327001D01*
X153074486Y-108332427D01*
X153003799Y-108353870D01*
X153003797Y-108353871D01*
X152938652Y-108388692D01*
X152895857Y-108423812D01*
X152895854Y-108423815D01*
X152881551Y-108435553D01*
X152869812Y-108449857D01*
X152575000Y-108744670D01*
X152575000Y-108136549D01*
X154913672Y-105797879D01*
X154914409Y-105801583D01*
X154946598Y-105879292D01*
X154993327Y-105949229D01*
X155052803Y-106008705D01*
X155122740Y-106055434D01*
X155200449Y-106087623D01*
X155282944Y-106104032D01*
X155367056Y-106104032D01*
X155449551Y-106087623D01*
X155527260Y-106055434D01*
X155532352Y-106052032D01*
X155658355Y-106052032D01*
X155658355Y-106082780D01*
X155674764Y-106165275D01*
X155706953Y-106242984D01*
X155753682Y-106312921D01*
X155813158Y-106372397D01*
X155883095Y-106419126D01*
X155960804Y-106451315D01*
X155966812Y-106452510D01*
X157036986Y-107522685D01*
X156072862Y-108486809D01*
X156058553Y-108498552D01*
X156046811Y-108512860D01*
X156011691Y-108555654D01*
X155986849Y-108602130D01*
X155976870Y-108620800D01*
X155959397Y-108678402D01*
X155955427Y-108691488D01*
X155948186Y-108765000D01*
X155950001Y-108783426D01*
X155950000Y-110702175D01*
X155948186Y-110720591D01*
X155950000Y-110739007D01*
X155950000Y-110739009D01*
X155955426Y-110794103D01*
X155976869Y-110864790D01*
X156011691Y-110929937D01*
X156058552Y-110987039D01*
X156072866Y-110998786D01*
X156317721Y-111243643D01*
X156318916Y-111249649D01*
X156351105Y-111327358D01*
X156397834Y-111397295D01*
X156457310Y-111456771D01*
X156527247Y-111503500D01*
X156604956Y-111535689D01*
X156687451Y-111552098D01*
X156771563Y-111552098D01*
X156854058Y-111535689D01*
X156931767Y-111503500D01*
X157001704Y-111456771D01*
X157061180Y-111397295D01*
X157107909Y-111327358D01*
X157140098Y-111249649D01*
X157152205Y-111188780D01*
X157177260Y-111178402D01*
X157247197Y-111131673D01*
X157306673Y-111072197D01*
X157353402Y-111002260D01*
X157385591Y-110924551D01*
X157402000Y-110842056D01*
X157402000Y-110787458D01*
X157465078Y-110850536D01*
X157551065Y-110907991D01*
X157646609Y-110947566D01*
X157748038Y-110967742D01*
X157851454Y-110967742D01*
X157952883Y-110947566D01*
X158048427Y-110907991D01*
X158134414Y-110850536D01*
X158207540Y-110777410D01*
X158264995Y-110691423D01*
X158304570Y-110595879D01*
X158324746Y-110494450D01*
X158324746Y-110391034D01*
X158304570Y-110289605D01*
X158264995Y-110194061D01*
X158207540Y-110108074D01*
X158174466Y-110075000D01*
X158545393Y-110075000D01*
X159222272Y-110751880D01*
X159212509Y-110775449D01*
X159196100Y-110857944D01*
X159196100Y-110942056D01*
X159212509Y-111024551D01*
X159244698Y-111102260D01*
X159291427Y-111172197D01*
X159350903Y-111231673D01*
X159420840Y-111278402D01*
X159498549Y-111310591D01*
X159581044Y-111327000D01*
X159665156Y-111327000D01*
X159678671Y-111324312D01*
X159709692Y-111382347D01*
X159737836Y-111416641D01*
X159739409Y-111424551D01*
X159771598Y-111502260D01*
X159818327Y-111572197D01*
X159877803Y-111631673D01*
X159947740Y-111678402D01*
X160025449Y-111710591D01*
X160107944Y-111727000D01*
X160192056Y-111727000D01*
X160274551Y-111710591D01*
X160352260Y-111678402D01*
X160422197Y-111631673D01*
X160481673Y-111572197D01*
X160528402Y-111502260D01*
X160560591Y-111424551D01*
X160577000Y-111342056D01*
X160577000Y-111257944D01*
X160568613Y-111215780D01*
X160571916Y-111215123D01*
X160649625Y-111182934D01*
X160719562Y-111136205D01*
X160779038Y-111076729D01*
X160825767Y-111006792D01*
X160854799Y-110936705D01*
X160871598Y-110977260D01*
X160875000Y-110982352D01*
X160875001Y-111944668D01*
X160156457Y-112663214D01*
X160150449Y-112664409D01*
X160072740Y-112696598D01*
X160002803Y-112743327D01*
X159943327Y-112802803D01*
X159896598Y-112872740D01*
X159864409Y-112950449D01*
X159848000Y-113032944D01*
X159848000Y-113117056D01*
X159864409Y-113199551D01*
X159896598Y-113277260D01*
X159943327Y-113347197D01*
X160002803Y-113406673D01*
X160072740Y-113453402D01*
X160150449Y-113485591D01*
X160232944Y-113502000D01*
X160317056Y-113502000D01*
X160399551Y-113485591D01*
X160477260Y-113453402D01*
X160547197Y-113406673D01*
X160606673Y-113347197D01*
X160653402Y-113277260D01*
X160685591Y-113199551D01*
X160686786Y-113193543D01*
X161502145Y-112378186D01*
X161516448Y-112366448D01*
X161528186Y-112352145D01*
X161528189Y-112352142D01*
X161563309Y-112309347D01*
X161598130Y-112244202D01*
X161598781Y-112242056D01*
X161619574Y-112173513D01*
X161625000Y-112118419D01*
X161625000Y-112118417D01*
X161626174Y-112106503D01*
X162353685Y-112834016D01*
X162371598Y-112877260D01*
X162418327Y-112947197D01*
X162477803Y-113006673D01*
X162547740Y-113053402D01*
X162625449Y-113085591D01*
X162707944Y-113102000D01*
X162792056Y-113102000D01*
X162874551Y-113085591D01*
X162952260Y-113053402D01*
X163022197Y-113006673D01*
X163081673Y-112947197D01*
X163128402Y-112877260D01*
X163160591Y-112799551D01*
X163177000Y-112717056D01*
X163177000Y-112632944D01*
X163160591Y-112550449D01*
X163128402Y-112472740D01*
X163104856Y-112437500D01*
X163128402Y-112402260D01*
X163141791Y-112369938D01*
X163901805Y-113129953D01*
X163903000Y-113135960D01*
X163935189Y-113213669D01*
X163981918Y-113283606D01*
X164041394Y-113343082D01*
X164111331Y-113389811D01*
X164189040Y-113422000D01*
X164271535Y-113438409D01*
X164355647Y-113438409D01*
X164438142Y-113422000D01*
X164515851Y-113389811D01*
X164585788Y-113343082D01*
X164645264Y-113283606D01*
X164652901Y-113272175D01*
X164681581Y-113275000D01*
X164681584Y-113275000D01*
X164700000Y-113276814D01*
X164718416Y-113275000D01*
X169117648Y-113275000D01*
X169122740Y-113278402D01*
X169200449Y-113310591D01*
X169282944Y-113327000D01*
X169367056Y-113327000D01*
X169449551Y-113310591D01*
X169527260Y-113278402D01*
X169597197Y-113231673D01*
X169656673Y-113172197D01*
X169703402Y-113102260D01*
X169735591Y-113024551D01*
X169752000Y-112942056D01*
X169752000Y-112857944D01*
X169735591Y-112775449D01*
X169703402Y-112697740D01*
X169656673Y-112627803D01*
X169597197Y-112568327D01*
X169527260Y-112521598D01*
X169449551Y-112489409D01*
X169367056Y-112473000D01*
X169282944Y-112473000D01*
X169200449Y-112489409D01*
X169122740Y-112521598D01*
X169117648Y-112525000D01*
X164855330Y-112525000D01*
X162478195Y-110147866D01*
X162466448Y-110133552D01*
X162409347Y-110086691D01*
X162344200Y-110051869D01*
X162273513Y-110030426D01*
X162218419Y-110025000D01*
X162218416Y-110025000D01*
X162200000Y-110023186D01*
X162181584Y-110025000D01*
X160870313Y-110025000D01*
X160851897Y-110023186D01*
X160833481Y-110025000D01*
X160833478Y-110025000D01*
X160778384Y-110030426D01*
X160707697Y-110051869D01*
X160687004Y-110062930D01*
X160642550Y-110086690D01*
X160616494Y-110108074D01*
X160585449Y-110133552D01*
X160573706Y-110147861D01*
X160398001Y-110323566D01*
X160398001Y-106636661D01*
X161167754Y-105866909D01*
X161182062Y-105855167D01*
X161209298Y-105821979D01*
X161228923Y-105798067D01*
X161263744Y-105732921D01*
X161263745Y-105732918D01*
X161285188Y-105662232D01*
X161290614Y-105607138D01*
X161290614Y-105607136D01*
X161292428Y-105588720D01*
X161290614Y-105570304D01*
X161290614Y-105283511D01*
X161292428Y-105265095D01*
X161290407Y-105244573D01*
X161285188Y-105191582D01*
X161263745Y-105120895D01*
X161228923Y-105055748D01*
X161182062Y-104998647D01*
X161167753Y-104986904D01*
X160033468Y-103852620D01*
X160021721Y-103838306D01*
X159964620Y-103791445D01*
X159899473Y-103756623D01*
X159828786Y-103735180D01*
X159773692Y-103729754D01*
X159773689Y-103729754D01*
X159755273Y-103727940D01*
X159736857Y-103729754D01*
X159676126Y-103729754D01*
X159681673Y-103724207D01*
X159728402Y-103654270D01*
X159760591Y-103576561D01*
X159777000Y-103494066D01*
X159777000Y-103409954D01*
X159760591Y-103327459D01*
X159728402Y-103249750D01*
X159681673Y-103179813D01*
X159622197Y-103120337D01*
X159552260Y-103073608D01*
X159474551Y-103041419D01*
X159392056Y-103025010D01*
X159307944Y-103025010D01*
X159225449Y-103041419D01*
X159147740Y-103073608D01*
X159077803Y-103120337D01*
X159018327Y-103179813D01*
X158971598Y-103249750D01*
X158939409Y-103327459D01*
X158938214Y-103333466D01*
X158842670Y-103429011D01*
X158834011Y-103429011D01*
X158834011Y-103409954D01*
X158817602Y-103327459D01*
X158785413Y-103249750D01*
X158738684Y-103179813D01*
X158679208Y-103120337D01*
X158609271Y-103073608D01*
X158531562Y-103041419D01*
X158449067Y-103025010D01*
X158364955Y-103025010D01*
X158282460Y-103041419D01*
X158204751Y-103073608D01*
X158199659Y-103077010D01*
X157629972Y-103077010D01*
X157599551Y-103064409D01*
X157517056Y-103048000D01*
X157432944Y-103048000D01*
X157350449Y-103064409D01*
X157272740Y-103096598D01*
X157202803Y-103143327D01*
X157143327Y-103202803D01*
X157096598Y-103272740D01*
X157064409Y-103350449D01*
X157048000Y-103432944D01*
X157048000Y-103517056D01*
X157064409Y-103599551D01*
X157096598Y-103677260D01*
X157143327Y-103747197D01*
X157202803Y-103806673D01*
X157272740Y-103853402D01*
X157350449Y-103885591D01*
X157432944Y-103902000D01*
X157498149Y-103902000D01*
X157320842Y-104079307D01*
X157306528Y-104091054D01*
X157265457Y-104141101D01*
X156872221Y-103747866D01*
X156860474Y-103733552D01*
X156803373Y-103686691D01*
X156738226Y-103651869D01*
X156667539Y-103630426D01*
X156612445Y-103625000D01*
X156612442Y-103625000D01*
X156594026Y-103623186D01*
X156575610Y-103625000D01*
X156232352Y-103625000D01*
X156227260Y-103621598D01*
X156149551Y-103589409D01*
X156067056Y-103573000D01*
X155982944Y-103573000D01*
X155900449Y-103589409D01*
X155822740Y-103621598D01*
X155752803Y-103668327D01*
X155693327Y-103727803D01*
X155646598Y-103797740D01*
X155614409Y-103875449D01*
X155598000Y-103957944D01*
X155598000Y-104042056D01*
X155614409Y-104124551D01*
X155646598Y-104202260D01*
X155693327Y-104272197D01*
X155752803Y-104331673D01*
X155780232Y-104350000D01*
X153568415Y-104350000D01*
X153549999Y-104348186D01*
X153531583Y-104350000D01*
X153531581Y-104350000D01*
X153476487Y-104355426D01*
X153405800Y-104376869D01*
X153405798Y-104376870D01*
X153340652Y-104411691D01*
X153314081Y-104433498D01*
X153283552Y-104458552D01*
X153271809Y-104472861D01*
X152831457Y-104913214D01*
X152825449Y-104914409D01*
X152747740Y-104946598D01*
X152677803Y-104993327D01*
X152618327Y-105052803D01*
X152571598Y-105122740D01*
X152539409Y-105200449D01*
X152523000Y-105282944D01*
X152523000Y-105302001D01*
X150182327Y-105302001D01*
X149111782Y-104231457D01*
X149110587Y-104225449D01*
X149078398Y-104147740D01*
X149031669Y-104077803D01*
X148972193Y-104018327D01*
X148919238Y-103982944D01*
X151498000Y-103982944D01*
X151498000Y-104067056D01*
X151514409Y-104149551D01*
X151546598Y-104227260D01*
X151593327Y-104297197D01*
X151652803Y-104356673D01*
X151722740Y-104403402D01*
X151800449Y-104435591D01*
X151806456Y-104436786D01*
X151951418Y-104581748D01*
X151963161Y-104596057D01*
X151989390Y-104617582D01*
X152020262Y-104642918D01*
X152040754Y-104653871D01*
X152085409Y-104677740D01*
X152156096Y-104699183D01*
X152211190Y-104704609D01*
X152211192Y-104704609D01*
X152229608Y-104706423D01*
X152248024Y-104704609D01*
X152340873Y-104704609D01*
X152345965Y-104708011D01*
X152423674Y-104740200D01*
X152506169Y-104756609D01*
X152590281Y-104756609D01*
X152672776Y-104740200D01*
X152750485Y-104708011D01*
X152820422Y-104661282D01*
X152879898Y-104601806D01*
X152926627Y-104531869D01*
X152958816Y-104454160D01*
X152975225Y-104371665D01*
X152975225Y-104287553D01*
X152958816Y-104205058D01*
X152926627Y-104127349D01*
X152879898Y-104057412D01*
X152820422Y-103997936D01*
X152750485Y-103951207D01*
X152672776Y-103919018D01*
X152590281Y-103902609D01*
X152506169Y-103902609D01*
X152423674Y-103919018D01*
X152371118Y-103940788D01*
X152336786Y-103906456D01*
X152335591Y-103900449D01*
X152303402Y-103822740D01*
X152256673Y-103752803D01*
X152197197Y-103693327D01*
X152127260Y-103646598D01*
X152049551Y-103614409D01*
X151967056Y-103598000D01*
X151882944Y-103598000D01*
X151800449Y-103614409D01*
X151722740Y-103646598D01*
X151652803Y-103693327D01*
X151593327Y-103752803D01*
X151546598Y-103822740D01*
X151514409Y-103900449D01*
X151498000Y-103982944D01*
X148919238Y-103982944D01*
X148902256Y-103971598D01*
X148824547Y-103939409D01*
X148742052Y-103923000D01*
X148657940Y-103923000D01*
X148575445Y-103939409D01*
X148497736Y-103971598D01*
X148427799Y-104018327D01*
X148368323Y-104077803D01*
X148321594Y-104147740D01*
X148289405Y-104225449D01*
X148272996Y-104307944D01*
X148272996Y-104392056D01*
X148289405Y-104474551D01*
X148321594Y-104552260D01*
X148368323Y-104622197D01*
X148427799Y-104681673D01*
X148497736Y-104728402D01*
X148575445Y-104760591D01*
X148581453Y-104761786D01*
X149748806Y-105929140D01*
X149760549Y-105943449D01*
X149817650Y-105990310D01*
X149882797Y-106025132D01*
X149953484Y-106046575D01*
X150008578Y-106052001D01*
X150008580Y-106052001D01*
X150026996Y-106053815D01*
X150045412Y-106052001D01*
X153100545Y-106052001D01*
X153118961Y-106053815D01*
X153137377Y-106052001D01*
X153137380Y-106052001D01*
X153192474Y-106046575D01*
X153263161Y-106025132D01*
X153328308Y-105990310D01*
X153385409Y-105943449D01*
X153397156Y-105929135D01*
X153926281Y-105400011D01*
X154250878Y-105400011D01*
X151947862Y-107703029D01*
X151933553Y-107714772D01*
X151921811Y-107729080D01*
X151886691Y-107771874D01*
X151859364Y-107822999D01*
X151851870Y-107837020D01*
X151831006Y-107905800D01*
X151830427Y-107907708D01*
X151823186Y-107981220D01*
X151825001Y-107999646D01*
X151825000Y-111367648D01*
X151821598Y-111372740D01*
X151789409Y-111450449D01*
X151773000Y-111532944D01*
X151773000Y-111598000D01*
X151707944Y-111598000D01*
X151625449Y-111614409D01*
X151547740Y-111646598D01*
X151477803Y-111693327D01*
X151418327Y-111752803D01*
X151371598Y-111822740D01*
X151339409Y-111900449D01*
X151323000Y-111982944D01*
X151323000Y-112067056D01*
X151339409Y-112149551D01*
X151371598Y-112227260D01*
X151418327Y-112297197D01*
X151477803Y-112356673D01*
X151547740Y-112403402D01*
X151625449Y-112435591D01*
X151707944Y-112452000D01*
X151792056Y-112452000D01*
X151874551Y-112435591D01*
X151952260Y-112403402D01*
X151957352Y-112400000D01*
X152606581Y-112400000D01*
X152625000Y-112401814D01*
X152643419Y-112400000D01*
X153119671Y-112400000D01*
X153814596Y-113094926D01*
X153814596Y-113180234D01*
X153811194Y-113185326D01*
X153779005Y-113263035D01*
X153762596Y-113345530D01*
X153762596Y-113429642D01*
X153779005Y-113512137D01*
X153811194Y-113589846D01*
X153851386Y-113650000D01*
X146350000Y-113650000D01*
X146350000Y-110250000D01*
X146348079Y-110230491D01*
X146342388Y-110211732D01*
X146333147Y-110194443D01*
X146320711Y-110179289D01*
X146305557Y-110166853D01*
X146288268Y-110157612D01*
X146269509Y-110151921D01*
X146250000Y-110150000D01*
X145225000Y-110150000D01*
X145225000Y-104515451D01*
X145319904Y-104515451D01*
X145335062Y-104605307D01*
X145418153Y-104648326D01*
X145508039Y-104674309D01*
X145601268Y-104682256D01*
X145694255Y-104671863D01*
X145783428Y-104643529D01*
X145854938Y-104605307D01*
X145870096Y-104515451D01*
X145595000Y-104240355D01*
X145319904Y-104515451D01*
X145225000Y-104515451D01*
X145225000Y-104470051D01*
X145284549Y-104480096D01*
X145559645Y-104205000D01*
X145630355Y-104205000D01*
X145905451Y-104480096D01*
X145995307Y-104464938D01*
X146038326Y-104381847D01*
X146064309Y-104291961D01*
X146072256Y-104198732D01*
X146061863Y-104105745D01*
X146033529Y-104016572D01*
X145995307Y-103945062D01*
X145905451Y-103929904D01*
X145630355Y-104205000D01*
X145559645Y-104205000D01*
X145284549Y-103929904D01*
X145225000Y-103939949D01*
X145225000Y-103894549D01*
X145319904Y-103894549D01*
X145595000Y-104169645D01*
X145870096Y-103894549D01*
X145854938Y-103804693D01*
X145771847Y-103761674D01*
X145681961Y-103735691D01*
X145588732Y-103727744D01*
X145495745Y-103738137D01*
X145406572Y-103766471D01*
X145335062Y-103804693D01*
X145319904Y-103894549D01*
X145225000Y-103894549D01*
X145225000Y-100350000D01*
X151724275Y-100350000D01*
X150820599Y-101253677D01*
G37*
X150820599Y-101253677D02*
X150792056Y-101248000D01*
X150707944Y-101248000D01*
X150625449Y-101264409D01*
X150547740Y-101296598D01*
X150477803Y-101343327D01*
X150418327Y-101402803D01*
X150371598Y-101472740D01*
X150339409Y-101550449D01*
X150323000Y-101632944D01*
X150323000Y-101717056D01*
X150339409Y-101799551D01*
X150371598Y-101877260D01*
X150418327Y-101947197D01*
X150477803Y-102006673D01*
X150547740Y-102053402D01*
X150625449Y-102085591D01*
X150707944Y-102102000D01*
X150792056Y-102102000D01*
X150874551Y-102085591D01*
X150952260Y-102053402D01*
X150958964Y-102048923D01*
X151003118Y-102044574D01*
X151073805Y-102023131D01*
X151138952Y-101988309D01*
X151196053Y-101941448D01*
X151207800Y-101927134D01*
X152409935Y-100725000D01*
X161818950Y-100725000D01*
X161993950Y-100900000D01*
X152493412Y-100900000D01*
X152474996Y-100898186D01*
X152456580Y-100900000D01*
X152456577Y-100900000D01*
X152401483Y-100905426D01*
X152330796Y-100926869D01*
X152265649Y-100961691D01*
X152208548Y-101008552D01*
X152196805Y-101022861D01*
X151706453Y-101513214D01*
X151700445Y-101514409D01*
X151622736Y-101546598D01*
X151552799Y-101593327D01*
X151493323Y-101652803D01*
X151446594Y-101722740D01*
X151414405Y-101800449D01*
X151397996Y-101882944D01*
X151397996Y-101967056D01*
X151414405Y-102049551D01*
X151446594Y-102127260D01*
X151493323Y-102197197D01*
X151552799Y-102256673D01*
X151622736Y-102303402D01*
X151700445Y-102335591D01*
X151782940Y-102352000D01*
X151867052Y-102352000D01*
X151949547Y-102335591D01*
X152027256Y-102303402D01*
X152097193Y-102256673D01*
X152156669Y-102197197D01*
X152203398Y-102127260D01*
X152235587Y-102049551D01*
X152236782Y-102043543D01*
X152630326Y-101650000D01*
X157419063Y-101650000D01*
X157414428Y-101673302D01*
X157414428Y-101776718D01*
X157434604Y-101878147D01*
X157474179Y-101973691D01*
X157531634Y-102059678D01*
X157596956Y-102125000D01*
X155695428Y-102125000D01*
X155677012Y-102123186D01*
X155658596Y-102125000D01*
X155658593Y-102125000D01*
X155603499Y-102130426D01*
X155532812Y-102151869D01*
X155512119Y-102162930D01*
X155467665Y-102186690D01*
X155434904Y-102213577D01*
X155410564Y-102233552D01*
X155398821Y-102247861D01*
X154701006Y-102945676D01*
X154253195Y-102497866D01*
X154241448Y-102483552D01*
X154184347Y-102436691D01*
X154119200Y-102401869D01*
X154048513Y-102380426D01*
X153993419Y-102375000D01*
X153993416Y-102375000D01*
X153975000Y-102373186D01*
X153956584Y-102375000D01*
X150705331Y-102375000D01*
X149911786Y-101581457D01*
X149910591Y-101575449D01*
X149878402Y-101497740D01*
X149831673Y-101427803D01*
X149772197Y-101368327D01*
X149702260Y-101321598D01*
X149624551Y-101289409D01*
X149542056Y-101273000D01*
X149457944Y-101273000D01*
X149375449Y-101289409D01*
X149297740Y-101321598D01*
X149227803Y-101368327D01*
X149168327Y-101427803D01*
X149121598Y-101497740D01*
X149089409Y-101575449D01*
X149073000Y-101657944D01*
X149073000Y-101742056D01*
X149089409Y-101824551D01*
X149121598Y-101902260D01*
X149168327Y-101972197D01*
X149227803Y-102031673D01*
X149297740Y-102078402D01*
X149375449Y-102110591D01*
X149381457Y-102111786D01*
X150271814Y-103002145D01*
X150283552Y-103016448D01*
X150297855Y-103028186D01*
X150297858Y-103028189D01*
X150324450Y-103050012D01*
X150340653Y-103063309D01*
X150405800Y-103098131D01*
X150476487Y-103119574D01*
X150531581Y-103125000D01*
X150531583Y-103125000D01*
X150549999Y-103126814D01*
X150568415Y-103125000D01*
X152692744Y-103125000D01*
X152686591Y-103155934D01*
X152686591Y-103240046D01*
X152703000Y-103322541D01*
X152735189Y-103400250D01*
X152781918Y-103470187D01*
X152841394Y-103529663D01*
X152911331Y-103576392D01*
X152989040Y-103608581D01*
X153071535Y-103624990D01*
X153155647Y-103624990D01*
X153238142Y-103608581D01*
X153315851Y-103576392D01*
X153320943Y-103572990D01*
X153392648Y-103572990D01*
X153397740Y-103576392D01*
X153475449Y-103608581D01*
X153557944Y-103624990D01*
X153642056Y-103624990D01*
X153724551Y-103608581D01*
X153802260Y-103576392D01*
X153872197Y-103529663D01*
X153931673Y-103470187D01*
X153978402Y-103400250D01*
X154010591Y-103322541D01*
X154011689Y-103317019D01*
X154285605Y-103590935D01*
X154287836Y-103593653D01*
X154289409Y-103601563D01*
X154321598Y-103679272D01*
X154368327Y-103749209D01*
X154427803Y-103808685D01*
X154497740Y-103855414D01*
X154575449Y-103887603D01*
X154657944Y-103904012D01*
X154742056Y-103904012D01*
X154824551Y-103887603D01*
X154902260Y-103855414D01*
X154972197Y-103808685D01*
X155031673Y-103749209D01*
X155078402Y-103679272D01*
X155110591Y-103601563D01*
X155111786Y-103595555D01*
X155832342Y-102875000D01*
X160542648Y-102875000D01*
X160547740Y-102878402D01*
X160625449Y-102910591D01*
X160707944Y-102927000D01*
X160792056Y-102927000D01*
X160874551Y-102910591D01*
X160952260Y-102878402D01*
X161022197Y-102831673D01*
X161081673Y-102772197D01*
X161128402Y-102702260D01*
X161160591Y-102624551D01*
X161177000Y-102542056D01*
X161177000Y-102457944D01*
X161160591Y-102375449D01*
X161128402Y-102297740D01*
X161081673Y-102227803D01*
X161022197Y-102168327D01*
X160952260Y-102121598D01*
X160900143Y-102100010D01*
X162044681Y-102100010D01*
X162175001Y-102230331D01*
X162175001Y-102317647D01*
X162171598Y-102322740D01*
X162139409Y-102400449D01*
X162123000Y-102482944D01*
X162123000Y-102567056D01*
X162139409Y-102649551D01*
X162171598Y-102727260D01*
X162175000Y-102732352D01*
X162175000Y-103142642D01*
X162171594Y-103147740D01*
X162139405Y-103225449D01*
X162122996Y-103307944D01*
X162122996Y-103392056D01*
X162139405Y-103474551D01*
X162171594Y-103552260D01*
X162218323Y-103622197D01*
X162277799Y-103681673D01*
X162347736Y-103728402D01*
X162425445Y-103760591D01*
X162507940Y-103777000D01*
X162592052Y-103777000D01*
X162674547Y-103760591D01*
X162752256Y-103728402D01*
X162822193Y-103681673D01*
X162881669Y-103622197D01*
X162928398Y-103552260D01*
X162960587Y-103474551D01*
X162976996Y-103392056D01*
X162976996Y-103307944D01*
X162960587Y-103225449D01*
X162928398Y-103147740D01*
X162925000Y-103142654D01*
X162925000Y-102732352D01*
X162928402Y-102727260D01*
X162960591Y-102649551D01*
X162977000Y-102567056D01*
X162977000Y-102482944D01*
X162964432Y-102419762D01*
X166144670Y-105600000D01*
X163057356Y-105600000D01*
X163052264Y-105596598D01*
X162974555Y-105564409D01*
X162892060Y-105548000D01*
X162807948Y-105548000D01*
X162725453Y-105564409D01*
X162647744Y-105596598D01*
X162577807Y-105643327D01*
X162518331Y-105702803D01*
X162471602Y-105772740D01*
X162439413Y-105850449D01*
X162423004Y-105932944D01*
X162423004Y-106017056D01*
X162439413Y-106099551D01*
X162471602Y-106177260D01*
X162518331Y-106247197D01*
X162577807Y-106306673D01*
X162647744Y-106353402D01*
X162725453Y-106385591D01*
X162807948Y-106402000D01*
X162892060Y-106402000D01*
X162974555Y-106385591D01*
X163052264Y-106353402D01*
X163057356Y-106350000D01*
X166349881Y-106350000D01*
X166375449Y-106360591D01*
X166457944Y-106377000D01*
X166542056Y-106377000D01*
X166600001Y-106365474D01*
X166600000Y-107919670D01*
X163931457Y-110588214D01*
X163925449Y-110589409D01*
X163847740Y-110621598D01*
X163777803Y-110668327D01*
X163718327Y-110727803D01*
X163671598Y-110797740D01*
X163639409Y-110875449D01*
X163623000Y-110957944D01*
X163623000Y-111042056D01*
X163639409Y-111124551D01*
X163671598Y-111202260D01*
X163718327Y-111272197D01*
X163777803Y-111331673D01*
X163847740Y-111378402D01*
X163925449Y-111410591D01*
X164007944Y-111427000D01*
X164092056Y-111427000D01*
X164174551Y-111410591D01*
X164252260Y-111378402D01*
X164310571Y-111339441D01*
X164327803Y-111356673D01*
X164397740Y-111403402D01*
X164475449Y-111435591D01*
X164557944Y-111452000D01*
X164642056Y-111452000D01*
X164724551Y-111435591D01*
X164802260Y-111403402D01*
X164872197Y-111356673D01*
X164931673Y-111297197D01*
X164978402Y-111227260D01*
X165010591Y-111149551D01*
X165011786Y-111143543D01*
X165634031Y-110521298D01*
X166845592Y-110521298D01*
X166845592Y-110624714D01*
X166865768Y-110726143D01*
X166905343Y-110821687D01*
X166962798Y-110907674D01*
X167035924Y-110980800D01*
X167121911Y-111038255D01*
X167217455Y-111077830D01*
X167318884Y-111098006D01*
X167422300Y-111098006D01*
X167523729Y-111077830D01*
X167619273Y-111038255D01*
X167705260Y-110980800D01*
X167778386Y-110907674D01*
X167835841Y-110821687D01*
X167875416Y-110726143D01*
X167895592Y-110624714D01*
X167895592Y-110521298D01*
X167875416Y-110419869D01*
X167835841Y-110324325D01*
X167778386Y-110238338D01*
X167705260Y-110165212D01*
X167619273Y-110107757D01*
X167523729Y-110068182D01*
X167422300Y-110048006D01*
X167318884Y-110048006D01*
X167217455Y-110068182D01*
X167121911Y-110107757D01*
X167035924Y-110165212D01*
X166962798Y-110238338D01*
X166905343Y-110324325D01*
X166865768Y-110419869D01*
X166845592Y-110521298D01*
X165634031Y-110521298D01*
X167527151Y-108628179D01*
X167541459Y-108616437D01*
X167588320Y-108559336D01*
X167623142Y-108494189D01*
X167644585Y-108423502D01*
X167650011Y-108368408D01*
X167650011Y-108368405D01*
X167651825Y-108349989D01*
X167650011Y-108331573D01*
X167650011Y-107998292D01*
X168875000Y-107998292D01*
X168875000Y-108101708D01*
X168895176Y-108203137D01*
X168934751Y-108298681D01*
X168992206Y-108384668D01*
X169065332Y-108457794D01*
X169151319Y-108515249D01*
X169246863Y-108554824D01*
X169348292Y-108575000D01*
X169451708Y-108575000D01*
X169553137Y-108554824D01*
X169648681Y-108515249D01*
X169734668Y-108457794D01*
X169807794Y-108384668D01*
X169865249Y-108298681D01*
X169904824Y-108203137D01*
X169925000Y-108101708D01*
X169925000Y-107998292D01*
X169904824Y-107896863D01*
X169865249Y-107801319D01*
X169807794Y-107715332D01*
X169734668Y-107642206D01*
X169648681Y-107584751D01*
X169553137Y-107545176D01*
X169451708Y-107525000D01*
X169348292Y-107525000D01*
X169246863Y-107545176D01*
X169151319Y-107584751D01*
X169065332Y-107642206D01*
X168992206Y-107715332D01*
X168934751Y-107801319D01*
X168895176Y-107896863D01*
X168875000Y-107998292D01*
X167650011Y-107998292D01*
X167650011Y-105669147D01*
X167651825Y-105650731D01*
X167649459Y-105626708D01*
X167644585Y-105577219D01*
X167623142Y-105506532D01*
X167619154Y-105499070D01*
X167588320Y-105441385D01*
X167572299Y-105421863D01*
X167541459Y-105384284D01*
X167527150Y-105372541D01*
X165102907Y-102948298D01*
X165975010Y-102948298D01*
X165975010Y-103051714D01*
X165995186Y-103153143D01*
X166034761Y-103248687D01*
X166092216Y-103334674D01*
X166165342Y-103407800D01*
X166251329Y-103465255D01*
X166346873Y-103504830D01*
X166448302Y-103525006D01*
X166551718Y-103525006D01*
X166653147Y-103504830D01*
X166748691Y-103465255D01*
X166834678Y-103407800D01*
X166907804Y-103334674D01*
X166965259Y-103248687D01*
X167004834Y-103153143D01*
X167025010Y-103051714D01*
X167025010Y-102948298D01*
X167004834Y-102846869D01*
X166965259Y-102751325D01*
X166907804Y-102665338D01*
X166834678Y-102592212D01*
X166748691Y-102534757D01*
X166653147Y-102495182D01*
X166551718Y-102475006D01*
X166448302Y-102475006D01*
X166346873Y-102495182D01*
X166251329Y-102534757D01*
X166165342Y-102592212D01*
X166092216Y-102665338D01*
X166034761Y-102751325D01*
X165995186Y-102846869D01*
X165975010Y-102948298D01*
X165102907Y-102948298D01*
X162504608Y-100350000D01*
X170650000Y-100350000D01*
X170650000Y-103849942D01*
X170578137Y-103820176D01*
X170476708Y-103800000D01*
X170373292Y-103800000D01*
X170271863Y-103820176D01*
X170176319Y-103859751D01*
X170090332Y-103917206D01*
X170017206Y-103990332D01*
X169959751Y-104076319D01*
X169920176Y-104171863D01*
X169900000Y-104273292D01*
X169900000Y-104375086D01*
X169805304Y-104393923D01*
X169709760Y-104433498D01*
X169623773Y-104490953D01*
X169550647Y-104564079D01*
X169493192Y-104650066D01*
X169453617Y-104745610D01*
X169433441Y-104847039D01*
X169433441Y-104950455D01*
X169453305Y-105050318D01*
X169451708Y-105050000D01*
X169348292Y-105050000D01*
X169246863Y-105070176D01*
X169151319Y-105109751D01*
X169065332Y-105167206D01*
X168992206Y-105240332D01*
X168934751Y-105326319D01*
X168895176Y-105421863D01*
X168875000Y-105523292D01*
X168875000Y-105626708D01*
X168895176Y-105728137D01*
X168934751Y-105823681D01*
X168992206Y-105909668D01*
X169065332Y-105982794D01*
X169151319Y-106040249D01*
X169246863Y-106079824D01*
X169348292Y-106100000D01*
X169451708Y-106100000D01*
X169553137Y-106079824D01*
X169648681Y-106040249D01*
X169734668Y-105982794D01*
X169807794Y-105909668D01*
X169865249Y-105823681D01*
X169904824Y-105728137D01*
X169925000Y-105626708D01*
X169925000Y-105523292D01*
X169905136Y-105423429D01*
X169906733Y-105423747D01*
X170010149Y-105423747D01*
X170111578Y-105403571D01*
X170207122Y-105363996D01*
X170293109Y-105306541D01*
X170366235Y-105233415D01*
X170423690Y-105147428D01*
X170463265Y-105051884D01*
X170483441Y-104950455D01*
X170483441Y-104848661D01*
X170578137Y-104829824D01*
X170650000Y-104800058D01*
X170650000Y-106409606D01*
X170601708Y-106400000D01*
X170498292Y-106400000D01*
X170396863Y-106420176D01*
X170301319Y-106459751D01*
X170215332Y-106517206D01*
X170142206Y-106590332D01*
X170084751Y-106676319D01*
X170045176Y-106771863D01*
X170025000Y-106873292D01*
X170025000Y-106976708D01*
X170045176Y-107078137D01*
X170084751Y-107173681D01*
X170142206Y-107259668D01*
X170215332Y-107332794D01*
X170301319Y-107390249D01*
X170396863Y-107429824D01*
X170498292Y-107450000D01*
X170601708Y-107450000D01*
X170650000Y-107440394D01*
X170650000Y-108819552D01*
X170551708Y-108800000D01*
X170448292Y-108800000D01*
X170346863Y-108820176D01*
X170251319Y-108859751D01*
X170165332Y-108917206D01*
X170092206Y-108990332D01*
X170034751Y-109076319D01*
X169995176Y-109171863D01*
X169975000Y-109273292D01*
X169975000Y-109376708D01*
X169995176Y-109478137D01*
X170034751Y-109573681D01*
X170092206Y-109659668D01*
X170165332Y-109732794D01*
X170251319Y-109790249D01*
X170346863Y-109829824D01*
X170448292Y-109850000D01*
X170551708Y-109850000D01*
X170650000Y-109830448D01*
X170650000Y-111384606D01*
X170601708Y-111375000D01*
X170498292Y-111375000D01*
X170396863Y-111395176D01*
X170301319Y-111434751D01*
X170215332Y-111492206D01*
X170142206Y-111565332D01*
X170084751Y-111651319D01*
X170045176Y-111746863D01*
X170025000Y-111848292D01*
X170025000Y-111951708D01*
X170045176Y-112053137D01*
X170084751Y-112148681D01*
X170142206Y-112234668D01*
X170215332Y-112307794D01*
X170301319Y-112365249D01*
X170396863Y-112404824D01*
X170498292Y-112425000D01*
X170601708Y-112425000D01*
X170650000Y-112415394D01*
X170650000Y-113650000D01*
X159010421Y-113650000D01*
X159025000Y-113576708D01*
X159025000Y-113473292D01*
X159004824Y-113371863D01*
X158965249Y-113276319D01*
X158907794Y-113190332D01*
X158834668Y-113117206D01*
X158748681Y-113059751D01*
X158653137Y-113020176D01*
X158551708Y-113000000D01*
X158448292Y-113000000D01*
X158346863Y-113020176D01*
X158251319Y-113059751D01*
X158165332Y-113117206D01*
X158092206Y-113190332D01*
X158034751Y-113276319D01*
X157995176Y-113371863D01*
X157975000Y-113473292D01*
X157975000Y-113576708D01*
X157989579Y-113650000D01*
X154527806Y-113650000D01*
X154567998Y-113589846D01*
X154600187Y-113512137D01*
X154616596Y-113429642D01*
X154616596Y-113345530D01*
X154600187Y-113263035D01*
X154567998Y-113185326D01*
X154564596Y-113180234D01*
X154564596Y-112958011D01*
X154566410Y-112939595D01*
X154562510Y-112900000D01*
X154559170Y-112866083D01*
X154537727Y-112795396D01*
X154502905Y-112730249D01*
X154456044Y-112673148D01*
X154441736Y-112661406D01*
X153553195Y-111772866D01*
X153541448Y-111758552D01*
X153484347Y-111711691D01*
X153419200Y-111676869D01*
X153348513Y-111655426D01*
X153293419Y-111650000D01*
X153293416Y-111650000D01*
X153275000Y-111648186D01*
X153256584Y-111650000D01*
X153000000Y-111650000D01*
X153000000Y-109380329D01*
X153303330Y-109077001D01*
X154529583Y-109077001D01*
X154547999Y-109078815D01*
X154566415Y-109077001D01*
X154566418Y-109077001D01*
X154621512Y-109071575D01*
X154692199Y-109050132D01*
X154757346Y-109015310D01*
X154814447Y-108968449D01*
X154826194Y-108954135D01*
X155068545Y-108711786D01*
X155074551Y-108710591D01*
X155152260Y-108678402D01*
X155222197Y-108631673D01*
X155281673Y-108572197D01*
X155328402Y-108502260D01*
X155360591Y-108424551D01*
X155377000Y-108342056D01*
X155377000Y-108257944D01*
X155360591Y-108175449D01*
X155328402Y-108097740D01*
X155281673Y-108027803D01*
X155222197Y-107968327D01*
X155152260Y-107921598D01*
X155074551Y-107889409D01*
X154992056Y-107873000D01*
X154907944Y-107873000D01*
X154825449Y-107889409D01*
X154747740Y-107921598D01*
X154677803Y-107968327D01*
X154618327Y-108027803D01*
X154571598Y-108097740D01*
X154539409Y-108175449D01*
X154538214Y-108181455D01*
X154392669Y-108327001D01*
X153166414Y-108327001D01*
X153147998Y-108325187D01*
X153129582Y-108327001D01*
X153129580Y-108327001D01*
X153074486Y-108332427D01*
X153003799Y-108353870D01*
X153003797Y-108353871D01*
X152938652Y-108388692D01*
X152895857Y-108423812D01*
X152895854Y-108423815D01*
X152881551Y-108435553D01*
X152869812Y-108449857D01*
X152575000Y-108744670D01*
X152575000Y-108136549D01*
X154913672Y-105797879D01*
X154914409Y-105801583D01*
X154946598Y-105879292D01*
X154993327Y-105949229D01*
X155052803Y-106008705D01*
X155122740Y-106055434D01*
X155200449Y-106087623D01*
X155282944Y-106104032D01*
X155367056Y-106104032D01*
X155449551Y-106087623D01*
X155527260Y-106055434D01*
X155532352Y-106052032D01*
X155658355Y-106052032D01*
X155658355Y-106082780D01*
X155674764Y-106165275D01*
X155706953Y-106242984D01*
X155753682Y-106312921D01*
X155813158Y-106372397D01*
X155883095Y-106419126D01*
X155960804Y-106451315D01*
X155966812Y-106452510D01*
X157036986Y-107522685D01*
X156072862Y-108486809D01*
X156058553Y-108498552D01*
X156046811Y-108512860D01*
X156011691Y-108555654D01*
X155986849Y-108602130D01*
X155976870Y-108620800D01*
X155959397Y-108678402D01*
X155955427Y-108691488D01*
X155948186Y-108765000D01*
X155950001Y-108783426D01*
X155950000Y-110702175D01*
X155948186Y-110720591D01*
X155950000Y-110739007D01*
X155950000Y-110739009D01*
X155955426Y-110794103D01*
X155976869Y-110864790D01*
X156011691Y-110929937D01*
X156058552Y-110987039D01*
X156072866Y-110998786D01*
X156317721Y-111243643D01*
X156318916Y-111249649D01*
X156351105Y-111327358D01*
X156397834Y-111397295D01*
X156457310Y-111456771D01*
X156527247Y-111503500D01*
X156604956Y-111535689D01*
X156687451Y-111552098D01*
X156771563Y-111552098D01*
X156854058Y-111535689D01*
X156931767Y-111503500D01*
X157001704Y-111456771D01*
X157061180Y-111397295D01*
X157107909Y-111327358D01*
X157140098Y-111249649D01*
X157152205Y-111188780D01*
X157177260Y-111178402D01*
X157247197Y-111131673D01*
X157306673Y-111072197D01*
X157353402Y-111002260D01*
X157385591Y-110924551D01*
X157402000Y-110842056D01*
X157402000Y-110787458D01*
X157465078Y-110850536D01*
X157551065Y-110907991D01*
X157646609Y-110947566D01*
X157748038Y-110967742D01*
X157851454Y-110967742D01*
X157952883Y-110947566D01*
X158048427Y-110907991D01*
X158134414Y-110850536D01*
X158207540Y-110777410D01*
X158264995Y-110691423D01*
X158304570Y-110595879D01*
X158324746Y-110494450D01*
X158324746Y-110391034D01*
X158304570Y-110289605D01*
X158264995Y-110194061D01*
X158207540Y-110108074D01*
X158174466Y-110075000D01*
X158545393Y-110075000D01*
X159222272Y-110751880D01*
X159212509Y-110775449D01*
X159196100Y-110857944D01*
X159196100Y-110942056D01*
X159212509Y-111024551D01*
X159244698Y-111102260D01*
X159291427Y-111172197D01*
X159350903Y-111231673D01*
X159420840Y-111278402D01*
X159498549Y-111310591D01*
X159581044Y-111327000D01*
X159665156Y-111327000D01*
X159678671Y-111324312D01*
X159709692Y-111382347D01*
X159737836Y-111416641D01*
X159739409Y-111424551D01*
X159771598Y-111502260D01*
X159818327Y-111572197D01*
X159877803Y-111631673D01*
X159947740Y-111678402D01*
X160025449Y-111710591D01*
X160107944Y-111727000D01*
X160192056Y-111727000D01*
X160274551Y-111710591D01*
X160352260Y-111678402D01*
X160422197Y-111631673D01*
X160481673Y-111572197D01*
X160528402Y-111502260D01*
X160560591Y-111424551D01*
X160577000Y-111342056D01*
X160577000Y-111257944D01*
X160568613Y-111215780D01*
X160571916Y-111215123D01*
X160649625Y-111182934D01*
X160719562Y-111136205D01*
X160779038Y-111076729D01*
X160825767Y-111006792D01*
X160854799Y-110936705D01*
X160871598Y-110977260D01*
X160875000Y-110982352D01*
X160875001Y-111944668D01*
X160156457Y-112663214D01*
X160150449Y-112664409D01*
X160072740Y-112696598D01*
X160002803Y-112743327D01*
X159943327Y-112802803D01*
X159896598Y-112872740D01*
X159864409Y-112950449D01*
X159848000Y-113032944D01*
X159848000Y-113117056D01*
X159864409Y-113199551D01*
X159896598Y-113277260D01*
X159943327Y-113347197D01*
X160002803Y-113406673D01*
X160072740Y-113453402D01*
X160150449Y-113485591D01*
X160232944Y-113502000D01*
X160317056Y-113502000D01*
X160399551Y-113485591D01*
X160477260Y-113453402D01*
X160547197Y-113406673D01*
X160606673Y-113347197D01*
X160653402Y-113277260D01*
X160685591Y-113199551D01*
X160686786Y-113193543D01*
X161502145Y-112378186D01*
X161516448Y-112366448D01*
X161528186Y-112352145D01*
X161528189Y-112352142D01*
X161563309Y-112309347D01*
X161598130Y-112244202D01*
X161598781Y-112242056D01*
X161619574Y-112173513D01*
X161625000Y-112118419D01*
X161625000Y-112118417D01*
X161626174Y-112106503D01*
X162353685Y-112834016D01*
X162371598Y-112877260D01*
X162418327Y-112947197D01*
X162477803Y-113006673D01*
X162547740Y-113053402D01*
X162625449Y-113085591D01*
X162707944Y-113102000D01*
X162792056Y-113102000D01*
X162874551Y-113085591D01*
X162952260Y-113053402D01*
X163022197Y-113006673D01*
X163081673Y-112947197D01*
X163128402Y-112877260D01*
X163160591Y-112799551D01*
X163177000Y-112717056D01*
X163177000Y-112632944D01*
X163160591Y-112550449D01*
X163128402Y-112472740D01*
X163104856Y-112437500D01*
X163128402Y-112402260D01*
X163141791Y-112369938D01*
X163901805Y-113129953D01*
X163903000Y-113135960D01*
X163935189Y-113213669D01*
X163981918Y-113283606D01*
X164041394Y-113343082D01*
X164111331Y-113389811D01*
X164189040Y-113422000D01*
X164271535Y-113438409D01*
X164355647Y-113438409D01*
X164438142Y-113422000D01*
X164515851Y-113389811D01*
X164585788Y-113343082D01*
X164645264Y-113283606D01*
X164652901Y-113272175D01*
X164681581Y-113275000D01*
X164681584Y-113275000D01*
X164700000Y-113276814D01*
X164718416Y-113275000D01*
X169117648Y-113275000D01*
X169122740Y-113278402D01*
X169200449Y-113310591D01*
X169282944Y-113327000D01*
X169367056Y-113327000D01*
X169449551Y-113310591D01*
X169527260Y-113278402D01*
X169597197Y-113231673D01*
X169656673Y-113172197D01*
X169703402Y-113102260D01*
X169735591Y-113024551D01*
X169752000Y-112942056D01*
X169752000Y-112857944D01*
X169735591Y-112775449D01*
X169703402Y-112697740D01*
X169656673Y-112627803D01*
X169597197Y-112568327D01*
X169527260Y-112521598D01*
X169449551Y-112489409D01*
X169367056Y-112473000D01*
X169282944Y-112473000D01*
X169200449Y-112489409D01*
X169122740Y-112521598D01*
X169117648Y-112525000D01*
X164855330Y-112525000D01*
X162478195Y-110147866D01*
X162466448Y-110133552D01*
X162409347Y-110086691D01*
X162344200Y-110051869D01*
X162273513Y-110030426D01*
X162218419Y-110025000D01*
X162218416Y-110025000D01*
X162200000Y-110023186D01*
X162181584Y-110025000D01*
X160870313Y-110025000D01*
X160851897Y-110023186D01*
X160833481Y-110025000D01*
X160833478Y-110025000D01*
X160778384Y-110030426D01*
X160707697Y-110051869D01*
X160687004Y-110062930D01*
X160642550Y-110086690D01*
X160616494Y-110108074D01*
X160585449Y-110133552D01*
X160573706Y-110147861D01*
X160398001Y-110323566D01*
X160398001Y-106636661D01*
X161167754Y-105866909D01*
X161182062Y-105855167D01*
X161209298Y-105821979D01*
X161228923Y-105798067D01*
X161263744Y-105732921D01*
X161263745Y-105732918D01*
X161285188Y-105662232D01*
X161290614Y-105607138D01*
X161290614Y-105607136D01*
X161292428Y-105588720D01*
X161290614Y-105570304D01*
X161290614Y-105283511D01*
X161292428Y-105265095D01*
X161290407Y-105244573D01*
X161285188Y-105191582D01*
X161263745Y-105120895D01*
X161228923Y-105055748D01*
X161182062Y-104998647D01*
X161167753Y-104986904D01*
X160033468Y-103852620D01*
X160021721Y-103838306D01*
X159964620Y-103791445D01*
X159899473Y-103756623D01*
X159828786Y-103735180D01*
X159773692Y-103729754D01*
X159773689Y-103729754D01*
X159755273Y-103727940D01*
X159736857Y-103729754D01*
X159676126Y-103729754D01*
X159681673Y-103724207D01*
X159728402Y-103654270D01*
X159760591Y-103576561D01*
X159777000Y-103494066D01*
X159777000Y-103409954D01*
X159760591Y-103327459D01*
X159728402Y-103249750D01*
X159681673Y-103179813D01*
X159622197Y-103120337D01*
X159552260Y-103073608D01*
X159474551Y-103041419D01*
X159392056Y-103025010D01*
X159307944Y-103025010D01*
X159225449Y-103041419D01*
X159147740Y-103073608D01*
X159077803Y-103120337D01*
X159018327Y-103179813D01*
X158971598Y-103249750D01*
X158939409Y-103327459D01*
X158938214Y-103333466D01*
X158842670Y-103429011D01*
X158834011Y-103429011D01*
X158834011Y-103409954D01*
X158817602Y-103327459D01*
X158785413Y-103249750D01*
X158738684Y-103179813D01*
X158679208Y-103120337D01*
X158609271Y-103073608D01*
X158531562Y-103041419D01*
X158449067Y-103025010D01*
X158364955Y-103025010D01*
X158282460Y-103041419D01*
X158204751Y-103073608D01*
X158199659Y-103077010D01*
X157629972Y-103077010D01*
X157599551Y-103064409D01*
X157517056Y-103048000D01*
X157432944Y-103048000D01*
X157350449Y-103064409D01*
X157272740Y-103096598D01*
X157202803Y-103143327D01*
X157143327Y-103202803D01*
X157096598Y-103272740D01*
X157064409Y-103350449D01*
X157048000Y-103432944D01*
X157048000Y-103517056D01*
X157064409Y-103599551D01*
X157096598Y-103677260D01*
X157143327Y-103747197D01*
X157202803Y-103806673D01*
X157272740Y-103853402D01*
X157350449Y-103885591D01*
X157432944Y-103902000D01*
X157498149Y-103902000D01*
X157320842Y-104079307D01*
X157306528Y-104091054D01*
X157265457Y-104141101D01*
X156872221Y-103747866D01*
X156860474Y-103733552D01*
X156803373Y-103686691D01*
X156738226Y-103651869D01*
X156667539Y-103630426D01*
X156612445Y-103625000D01*
X156612442Y-103625000D01*
X156594026Y-103623186D01*
X156575610Y-103625000D01*
X156232352Y-103625000D01*
X156227260Y-103621598D01*
X156149551Y-103589409D01*
X156067056Y-103573000D01*
X155982944Y-103573000D01*
X155900449Y-103589409D01*
X155822740Y-103621598D01*
X155752803Y-103668327D01*
X155693327Y-103727803D01*
X155646598Y-103797740D01*
X155614409Y-103875449D01*
X155598000Y-103957944D01*
X155598000Y-104042056D01*
X155614409Y-104124551D01*
X155646598Y-104202260D01*
X155693327Y-104272197D01*
X155752803Y-104331673D01*
X155780232Y-104350000D01*
X153568415Y-104350000D01*
X153549999Y-104348186D01*
X153531583Y-104350000D01*
X153531581Y-104350000D01*
X153476487Y-104355426D01*
X153405800Y-104376869D01*
X153405798Y-104376870D01*
X153340652Y-104411691D01*
X153314081Y-104433498D01*
X153283552Y-104458552D01*
X153271809Y-104472861D01*
X152831457Y-104913214D01*
X152825449Y-104914409D01*
X152747740Y-104946598D01*
X152677803Y-104993327D01*
X152618327Y-105052803D01*
X152571598Y-105122740D01*
X152539409Y-105200449D01*
X152523000Y-105282944D01*
X152523000Y-105302001D01*
X150182327Y-105302001D01*
X149111782Y-104231457D01*
X149110587Y-104225449D01*
X149078398Y-104147740D01*
X149031669Y-104077803D01*
X148972193Y-104018327D01*
X148919238Y-103982944D01*
X151498000Y-103982944D01*
X151498000Y-104067056D01*
X151514409Y-104149551D01*
X151546598Y-104227260D01*
X151593327Y-104297197D01*
X151652803Y-104356673D01*
X151722740Y-104403402D01*
X151800449Y-104435591D01*
X151806456Y-104436786D01*
X151951418Y-104581748D01*
X151963161Y-104596057D01*
X151989390Y-104617582D01*
X152020262Y-104642918D01*
X152040754Y-104653871D01*
X152085409Y-104677740D01*
X152156096Y-104699183D01*
X152211190Y-104704609D01*
X152211192Y-104704609D01*
X152229608Y-104706423D01*
X152248024Y-104704609D01*
X152340873Y-104704609D01*
X152345965Y-104708011D01*
X152423674Y-104740200D01*
X152506169Y-104756609D01*
X152590281Y-104756609D01*
X152672776Y-104740200D01*
X152750485Y-104708011D01*
X152820422Y-104661282D01*
X152879898Y-104601806D01*
X152926627Y-104531869D01*
X152958816Y-104454160D01*
X152975225Y-104371665D01*
X152975225Y-104287553D01*
X152958816Y-104205058D01*
X152926627Y-104127349D01*
X152879898Y-104057412D01*
X152820422Y-103997936D01*
X152750485Y-103951207D01*
X152672776Y-103919018D01*
X152590281Y-103902609D01*
X152506169Y-103902609D01*
X152423674Y-103919018D01*
X152371118Y-103940788D01*
X152336786Y-103906456D01*
X152335591Y-103900449D01*
X152303402Y-103822740D01*
X152256673Y-103752803D01*
X152197197Y-103693327D01*
X152127260Y-103646598D01*
X152049551Y-103614409D01*
X151967056Y-103598000D01*
X151882944Y-103598000D01*
X151800449Y-103614409D01*
X151722740Y-103646598D01*
X151652803Y-103693327D01*
X151593327Y-103752803D01*
X151546598Y-103822740D01*
X151514409Y-103900449D01*
X151498000Y-103982944D01*
X148919238Y-103982944D01*
X148902256Y-103971598D01*
X148824547Y-103939409D01*
X148742052Y-103923000D01*
X148657940Y-103923000D01*
X148575445Y-103939409D01*
X148497736Y-103971598D01*
X148427799Y-104018327D01*
X148368323Y-104077803D01*
X148321594Y-104147740D01*
X148289405Y-104225449D01*
X148272996Y-104307944D01*
X148272996Y-104392056D01*
X148289405Y-104474551D01*
X148321594Y-104552260D01*
X148368323Y-104622197D01*
X148427799Y-104681673D01*
X148497736Y-104728402D01*
X148575445Y-104760591D01*
X148581453Y-104761786D01*
X149748806Y-105929140D01*
X149760549Y-105943449D01*
X149817650Y-105990310D01*
X149882797Y-106025132D01*
X149953484Y-106046575D01*
X150008578Y-106052001D01*
X150008580Y-106052001D01*
X150026996Y-106053815D01*
X150045412Y-106052001D01*
X153100545Y-106052001D01*
X153118961Y-106053815D01*
X153137377Y-106052001D01*
X153137380Y-106052001D01*
X153192474Y-106046575D01*
X153263161Y-106025132D01*
X153328308Y-105990310D01*
X153385409Y-105943449D01*
X153397156Y-105929135D01*
X153926281Y-105400011D01*
X154250878Y-105400011D01*
X151947862Y-107703029D01*
X151933553Y-107714772D01*
X151921811Y-107729080D01*
X151886691Y-107771874D01*
X151859364Y-107822999D01*
X151851870Y-107837020D01*
X151831006Y-107905800D01*
X151830427Y-107907708D01*
X151823186Y-107981220D01*
X151825001Y-107999646D01*
X151825000Y-111367648D01*
X151821598Y-111372740D01*
X151789409Y-111450449D01*
X151773000Y-111532944D01*
X151773000Y-111598000D01*
X151707944Y-111598000D01*
X151625449Y-111614409D01*
X151547740Y-111646598D01*
X151477803Y-111693327D01*
X151418327Y-111752803D01*
X151371598Y-111822740D01*
X151339409Y-111900449D01*
X151323000Y-111982944D01*
X151323000Y-112067056D01*
X151339409Y-112149551D01*
X151371598Y-112227260D01*
X151418327Y-112297197D01*
X151477803Y-112356673D01*
X151547740Y-112403402D01*
X151625449Y-112435591D01*
X151707944Y-112452000D01*
X151792056Y-112452000D01*
X151874551Y-112435591D01*
X151952260Y-112403402D01*
X151957352Y-112400000D01*
X152606581Y-112400000D01*
X152625000Y-112401814D01*
X152643419Y-112400000D01*
X153119671Y-112400000D01*
X153814596Y-113094926D01*
X153814596Y-113180234D01*
X153811194Y-113185326D01*
X153779005Y-113263035D01*
X153762596Y-113345530D01*
X153762596Y-113429642D01*
X153779005Y-113512137D01*
X153811194Y-113589846D01*
X153851386Y-113650000D01*
X146350000Y-113650000D01*
X146350000Y-110250000D01*
X146348079Y-110230491D01*
X146342388Y-110211732D01*
X146333147Y-110194443D01*
X146320711Y-110179289D01*
X146305557Y-110166853D01*
X146288268Y-110157612D01*
X146269509Y-110151921D01*
X146250000Y-110150000D01*
X145225000Y-110150000D01*
X145225000Y-104515451D01*
X145319904Y-104515451D01*
X145335062Y-104605307D01*
X145418153Y-104648326D01*
X145508039Y-104674309D01*
X145601268Y-104682256D01*
X145694255Y-104671863D01*
X145783428Y-104643529D01*
X145854938Y-104605307D01*
X145870096Y-104515451D01*
X145595000Y-104240355D01*
X145319904Y-104515451D01*
X145225000Y-104515451D01*
X145225000Y-104470051D01*
X145284549Y-104480096D01*
X145559645Y-104205000D01*
X145630355Y-104205000D01*
X145905451Y-104480096D01*
X145995307Y-104464938D01*
X146038326Y-104381847D01*
X146064309Y-104291961D01*
X146072256Y-104198732D01*
X146061863Y-104105745D01*
X146033529Y-104016572D01*
X145995307Y-103945062D01*
X145905451Y-103929904D01*
X145630355Y-104205000D01*
X145559645Y-104205000D01*
X145284549Y-103929904D01*
X145225000Y-103939949D01*
X145225000Y-103894549D01*
X145319904Y-103894549D01*
X145595000Y-104169645D01*
X145870096Y-103894549D01*
X145854938Y-103804693D01*
X145771847Y-103761674D01*
X145681961Y-103735691D01*
X145588732Y-103727744D01*
X145495745Y-103738137D01*
X145406572Y-103766471D01*
X145335062Y-103804693D01*
X145319904Y-103894549D01*
X145225000Y-103894549D01*
X145225000Y-100350000D01*
X151724275Y-100350000D01*
X150820599Y-101253677D01*
G36*
X160231939Y-105691954D02*
G01*
X160256994Y-105717009D01*
X159770863Y-106203141D01*
X159756554Y-106214884D01*
X159744812Y-106229192D01*
X159709692Y-106271986D01*
X159684256Y-106319574D01*
X159674871Y-106337132D01*
X159667754Y-106360595D01*
X159653428Y-106407820D01*
X159646187Y-106481332D01*
X159648002Y-106499758D01*
X159648001Y-110116949D01*
X158978917Y-109447866D01*
X158967170Y-109433552D01*
X158910069Y-109386691D01*
X158844922Y-109351869D01*
X158774235Y-109330426D01*
X158719141Y-109325000D01*
X158719138Y-109325000D01*
X158700722Y-109323186D01*
X158682306Y-109325000D01*
X157897360Y-109325000D01*
X157859743Y-109287383D01*
X157858548Y-109281376D01*
X157826359Y-109203667D01*
X157779630Y-109133730D01*
X157720154Y-109074254D01*
X157650217Y-109027525D01*
X157572508Y-108995336D01*
X157490013Y-108978927D01*
X157405901Y-108978927D01*
X157323406Y-108995336D01*
X157245697Y-109027525D01*
X157175760Y-109074254D01*
X157116284Y-109133730D01*
X157069555Y-109203667D01*
X157050701Y-109249183D01*
X157050701Y-108999628D01*
X157625330Y-108425000D01*
X158106100Y-108425000D01*
X158101960Y-108434995D01*
X158085551Y-108517490D01*
X158085551Y-108529475D01*
X158078459Y-108534214D01*
X158018983Y-108593690D01*
X157972254Y-108663627D01*
X157940065Y-108741336D01*
X157923656Y-108823831D01*
X157923656Y-108907943D01*
X157940065Y-108990438D01*
X157972254Y-109068147D01*
X158018983Y-109138084D01*
X158078459Y-109197560D01*
X158148396Y-109244289D01*
X158226105Y-109276478D01*
X158308600Y-109292887D01*
X158392712Y-109292887D01*
X158475207Y-109276478D01*
X158552916Y-109244289D01*
X158622853Y-109197560D01*
X158682329Y-109138084D01*
X158729058Y-109068147D01*
X158761247Y-108990438D01*
X158762442Y-108984430D01*
X158764686Y-108982186D01*
X158778999Y-108970440D01*
X158825860Y-108913339D01*
X158860682Y-108848192D01*
X158882125Y-108777505D01*
X158882412Y-108774589D01*
X158890953Y-108761806D01*
X158923142Y-108684097D01*
X158939551Y-108601602D01*
X158939551Y-108517490D01*
X158923142Y-108434995D01*
X158890953Y-108357286D01*
X158844224Y-108287349D01*
X158830742Y-108273867D01*
X159092140Y-108012469D01*
X159106448Y-108000727D01*
X159153309Y-107943626D01*
X159188131Y-107878479D01*
X159209574Y-107807792D01*
X159215000Y-107752698D01*
X159215000Y-107752695D01*
X159216814Y-107734279D01*
X159215000Y-107715863D01*
X159215000Y-107158415D01*
X159216814Y-107139999D01*
X159213026Y-107101538D01*
X159209574Y-107066487D01*
X159188131Y-106995800D01*
X159153309Y-106930653D01*
X159106448Y-106873552D01*
X159092134Y-106861805D01*
X158878205Y-106647876D01*
X158866458Y-106633562D01*
X158809357Y-106586701D01*
X158744210Y-106551879D01*
X158742541Y-106551373D01*
X158683384Y-106492216D01*
X158597397Y-106434761D01*
X158501853Y-106395186D01*
X158400424Y-106375010D01*
X158297008Y-106375010D01*
X158195579Y-106395186D01*
X158100035Y-106434761D01*
X158014048Y-106492216D01*
X157940922Y-106565342D01*
X157883467Y-106651329D01*
X157843892Y-106746873D01*
X157823716Y-106848302D01*
X157823716Y-106951718D01*
X157843892Y-107053147D01*
X157877668Y-107134690D01*
X157709651Y-107134690D01*
X156899960Y-106325000D01*
X157717642Y-106325000D01*
X157722740Y-106328406D01*
X157800449Y-106360595D01*
X157882944Y-106377004D01*
X157967056Y-106377004D01*
X158049551Y-106360595D01*
X158127260Y-106328406D01*
X158197197Y-106281677D01*
X158256673Y-106222201D01*
X158303402Y-106152264D01*
X158335591Y-106074555D01*
X158352000Y-105992060D01*
X158352000Y-105932763D01*
X158366614Y-105935670D01*
X158450726Y-105935670D01*
X158533221Y-105919261D01*
X158610930Y-105887072D01*
X158680867Y-105840343D01*
X158740343Y-105780867D01*
X158787072Y-105710930D01*
X158819261Y-105633221D01*
X158820456Y-105627214D01*
X158822670Y-105625000D01*
X160187203Y-105625000D01*
X160231939Y-105691954D01*
G37*
X160231939Y-105691954D02*
X160256994Y-105717009D01*
X159770863Y-106203141D01*
X159756554Y-106214884D01*
X159744812Y-106229192D01*
X159709692Y-106271986D01*
X159684256Y-106319574D01*
X159674871Y-106337132D01*
X159667754Y-106360595D01*
X159653428Y-106407820D01*
X159646187Y-106481332D01*
X159648002Y-106499758D01*
X159648001Y-110116949D01*
X158978917Y-109447866D01*
X158967170Y-109433552D01*
X158910069Y-109386691D01*
X158844922Y-109351869D01*
X158774235Y-109330426D01*
X158719141Y-109325000D01*
X158719138Y-109325000D01*
X158700722Y-109323186D01*
X158682306Y-109325000D01*
X157897360Y-109325000D01*
X157859743Y-109287383D01*
X157858548Y-109281376D01*
X157826359Y-109203667D01*
X157779630Y-109133730D01*
X157720154Y-109074254D01*
X157650217Y-109027525D01*
X157572508Y-108995336D01*
X157490013Y-108978927D01*
X157405901Y-108978927D01*
X157323406Y-108995336D01*
X157245697Y-109027525D01*
X157175760Y-109074254D01*
X157116284Y-109133730D01*
X157069555Y-109203667D01*
X157050701Y-109249183D01*
X157050701Y-108999628D01*
X157625330Y-108425000D01*
X158106100Y-108425000D01*
X158101960Y-108434995D01*
X158085551Y-108517490D01*
X158085551Y-108529475D01*
X158078459Y-108534214D01*
X158018983Y-108593690D01*
X157972254Y-108663627D01*
X157940065Y-108741336D01*
X157923656Y-108823831D01*
X157923656Y-108907943D01*
X157940065Y-108990438D01*
X157972254Y-109068147D01*
X158018983Y-109138084D01*
X158078459Y-109197560D01*
X158148396Y-109244289D01*
X158226105Y-109276478D01*
X158308600Y-109292887D01*
X158392712Y-109292887D01*
X158475207Y-109276478D01*
X158552916Y-109244289D01*
X158622853Y-109197560D01*
X158682329Y-109138084D01*
X158729058Y-109068147D01*
X158761247Y-108990438D01*
X158762442Y-108984430D01*
X158764686Y-108982186D01*
X158778999Y-108970440D01*
X158825860Y-108913339D01*
X158860682Y-108848192D01*
X158882125Y-108777505D01*
X158882412Y-108774589D01*
X158890953Y-108761806D01*
X158923142Y-108684097D01*
X158939551Y-108601602D01*
X158939551Y-108517490D01*
X158923142Y-108434995D01*
X158890953Y-108357286D01*
X158844224Y-108287349D01*
X158830742Y-108273867D01*
X159092140Y-108012469D01*
X159106448Y-108000727D01*
X159153309Y-107943626D01*
X159188131Y-107878479D01*
X159209574Y-107807792D01*
X159215000Y-107752698D01*
X159215000Y-107752695D01*
X159216814Y-107734279D01*
X159215000Y-107715863D01*
X159215000Y-107158415D01*
X159216814Y-107139999D01*
X159213026Y-107101538D01*
X159209574Y-107066487D01*
X159188131Y-106995800D01*
X159153309Y-106930653D01*
X159106448Y-106873552D01*
X159092134Y-106861805D01*
X158878205Y-106647876D01*
X158866458Y-106633562D01*
X158809357Y-106586701D01*
X158744210Y-106551879D01*
X158742541Y-106551373D01*
X158683384Y-106492216D01*
X158597397Y-106434761D01*
X158501853Y-106395186D01*
X158400424Y-106375010D01*
X158297008Y-106375010D01*
X158195579Y-106395186D01*
X158100035Y-106434761D01*
X158014048Y-106492216D01*
X157940922Y-106565342D01*
X157883467Y-106651329D01*
X157843892Y-106746873D01*
X157823716Y-106848302D01*
X157823716Y-106951718D01*
X157843892Y-107053147D01*
X157877668Y-107134690D01*
X157709651Y-107134690D01*
X156899960Y-106325000D01*
X157717642Y-106325000D01*
X157722740Y-106328406D01*
X157800449Y-106360595D01*
X157882944Y-106377004D01*
X157967056Y-106377004D01*
X158049551Y-106360595D01*
X158127260Y-106328406D01*
X158197197Y-106281677D01*
X158256673Y-106222201D01*
X158303402Y-106152264D01*
X158335591Y-106074555D01*
X158352000Y-105992060D01*
X158352000Y-105932763D01*
X158366614Y-105935670D01*
X158450726Y-105935670D01*
X158533221Y-105919261D01*
X158610930Y-105887072D01*
X158680867Y-105840343D01*
X158740343Y-105780867D01*
X158787072Y-105710930D01*
X158819261Y-105633221D01*
X158820456Y-105627214D01*
X158822670Y-105625000D01*
X160187203Y-105625000D01*
X160231939Y-105691954D01*
M02*
