M48
; DRILL file {KiCad (5.1.5-0-10_14)} date Tuesday, August 25, 2020 at 04:28:48 PM
; FORMAT={-:-/ absolute / inch / decimal}
; #@! TF.CreationDate,2020-08-25T16:28:48-04:00
; #@! TF.GenerationSoftware,Kicad,Pcbnew,(5.1.5-0-10_14)
; #@! TF.FileFunction,Plated,1,2,Blind
FMAT,2
INCH
T1C0.0039
%
G90
G05
T1
X5.8543Y-4.1083
X5.8858Y-4.0039
X5.9281Y-4.315
X5.935Y-4.003
X5.9744Y-4.3907
X5.9744Y-4.4104
X5.9774Y-4.0128
X5.9813Y-4.0955
X5.9862Y-4.2116
X6.0217Y-4.1467
X6.0472Y-4.0629
X6.0472Y-4.1058
X6.0512Y-4.4645
X6.0705Y-4.4641
X6.0709Y-4.2598
X6.0906Y-4.0739
X6.1004Y-4.2638
X6.1102Y-4.4724
X6.1152Y-4.1605
X6.1398Y-4.0128
X6.1427Y-4.0945
X6.1451Y-4.1748
X6.1705Y-4.375
X6.1801Y-4.3622
X6.1865Y-4.0891
X6.1987Y-4.3073
X6.2175Y-4.1713
X6.2333Y-4.1831
X6.2364Y-4.1126
X6.2365Y-4.0729
X6.2366Y-4.1539
X6.2407Y-4.274
X6.2411Y-4.128
X6.2697Y-3.9695
X6.2736Y-4.0729
X6.2844Y-4.3661
X6.3051Y-4.3819
X6.31Y-4.4518
X6.3168Y-4.3624
X6.3287Y-4.0354
X6.3484Y-4.3612
X6.3681Y-4.3612
X6.3844Y-4.3646
X6.3992Y-4.3794
X6.3996Y-4.0364
X6.4075Y-4.4173
X6.4075Y-4.436
X6.4272Y-4.0463
X6.4587Y-4.3701
X6.4646Y-4.4724
X6.469Y-4.4493
X6.4803Y-4.3711
X6.5059Y-4.377
X6.5157Y-3.9705
X6.5551Y-4.1713
X6.5581Y-4.2097
X6.6663Y-4.4449
T0
M30
