M48
; DRILL file {KiCad (5.1.5-0-10_14)} date Friday, August 21, 2020 at 09:41:32 PM
; FORMAT={-:-/ absolute / inch / decimal}
; #@! TF.CreationDate,2020-08-21T21:41:32-04:00
; #@! TF.GenerationSoftware,Kicad,Pcbnew,(5.1.5-0-10_14)
; #@! TF.FileFunction,Plated,1,4,PTH
FMAT,2
INCH
T1C0.0079
%
G90
G05
T1
X5.7795Y-4.0472
X5.7795Y-4.0866
X5.7795Y-4.126
X5.7795Y-4.189
X5.7795Y-4.2283
X5.7795Y-4.2677
X5.7795Y-4.3071
X5.7795Y-4.4252
X5.811Y-4.1102
X5.815Y-3.9843
X5.815Y-4.0236
X5.8189Y-4.2283
X5.8189Y-4.2677
X5.8189Y-4.4252
X5.8583Y-4.2283
X5.8583Y-4.2677
X5.8583Y-4.4252
X5.8976Y-4.2283
X5.8976Y-4.2677
X5.9341Y-3.9823
X5.9724Y-4.4606
X6.2152Y-4.3489
X6.2313Y-4.1969
X6.2314Y-4.222
X6.2323Y-4.3317
X6.2402Y-4.4695
X6.3097Y-4.3686
X6.5531Y-4.0551
X6.5894Y-4.3533
X6.6693Y-4.0591
X6.6693Y-4.1565
X6.6693Y-4.2539
X6.7096Y-4.1102
X6.7126Y-4.3041
X6.7146Y-4.2096
X6.7146Y-4.4055
T0
M30
