G04 #@! TF.GenerationSoftware,KiCad,Pcbnew,(5.1.5-0-10_14)*
G04 #@! TF.CreationDate,2020-08-21T21:41:28-04:00*
G04 #@! TF.ProjectId,ESLO,45534c4f-2e6b-4696-9361-645f70636258,rev?*
G04 #@! TF.SameCoordinates,Original*
G04 #@! TF.FileFunction,Legend,Top*
G04 #@! TF.FilePolarity,Positive*
%FSLAX46Y46*%
G04 Gerber Fmt 4.6, Leading zero omitted, Abs format (unit mm)*
G04 Created by KiCad (PCBNEW (5.1.5-0-10_14)) date 2020-08-21 21:41:28*
%MOMM*%
%LPD*%
G04 APERTURE LIST*
%ADD10C,0.120000*%
%ADD11C,0.100000*%
%ADD12C,0.150000*%
G04 APERTURE END LIST*
D10*
X179164000Y-63500000D02*
G75*
G03X179164000Y-63500000I-10000000J0D01*
G01*
X154700000Y-106300000D02*
X154700000Y-106300000D01*
X154700000Y-108350000D02*
X154700000Y-106300000D01*
X152250000Y-108350000D02*
X154700000Y-108350000D01*
X152250000Y-106300000D02*
X152250000Y-108350000D01*
X154700000Y-106300000D02*
X152250000Y-106300000D01*
D11*
X154775000Y-106040000D02*
G75*
G03X154775000Y-106040000I-50000J0D01*
G01*
X150075000Y-105275000D02*
G75*
G03X150075000Y-105275000I-50000J0D01*
G01*
X152075000Y-105275000D02*
G75*
G03X152075000Y-105275000I-50000J0D01*
G01*
X151690000Y-112200000D02*
G75*
G03X151690000Y-112200000I-50000J0D01*
G01*
D10*
X155585000Y-113310000D02*
X156310000Y-113310000D01*
X152090000Y-109090000D02*
X152090000Y-109815000D01*
X152815000Y-109090000D02*
X152090000Y-109090000D01*
X156310000Y-109090000D02*
X156310000Y-109815000D01*
X155585000Y-109090000D02*
X156310000Y-109090000D01*
X152090000Y-113310000D02*
X152090000Y-112585000D01*
X152815000Y-113310000D02*
X152090000Y-113310000D01*
X157650000Y-105875000D02*
X156100000Y-105875000D01*
X156100000Y-104075000D02*
X157400000Y-104075000D01*
X166110000Y-103565000D02*
X166110000Y-103090000D01*
X158890000Y-110310000D02*
X159365000Y-110310000D01*
X158890000Y-109835000D02*
X158890000Y-110310000D01*
X158890000Y-103090000D02*
X159365000Y-103090000D01*
X158890000Y-103565000D02*
X158890000Y-103090000D01*
X166110000Y-110310000D02*
X165635000Y-110310000D01*
X166110000Y-109835000D02*
X166110000Y-110310000D01*
X162600000Y-111350000D02*
X162600000Y-111350000D01*
X162600000Y-111850000D02*
X162600000Y-111350000D01*
X160900000Y-111350000D02*
X160900000Y-111350000D01*
X160400000Y-111350000D02*
X160900000Y-111350000D01*
X160400000Y-111850000D02*
X160400000Y-111350000D01*
X160400000Y-113050000D02*
X160400000Y-113050000D01*
X160400000Y-113550000D02*
X160400000Y-113050000D01*
X160900000Y-113550000D02*
X160400000Y-113550000D01*
X162100000Y-113550000D02*
X162100000Y-113550000D01*
X162600000Y-113550000D02*
X162100000Y-113550000D01*
X162600000Y-113050000D02*
X162600000Y-113550000D01*
X157100000Y-100315000D02*
X154650000Y-100315000D01*
X155300000Y-103535000D02*
X157100000Y-103535000D01*
X151650000Y-104653553D02*
X152150000Y-104653553D01*
X151900000Y-104300000D02*
X151650000Y-104653553D01*
X152150000Y-104653553D02*
X151900000Y-104300000D01*
X152440000Y-100570000D02*
X147360000Y-100570000D01*
X146290000Y-103560000D02*
X147390000Y-103560000D01*
X146290000Y-102440000D02*
X146290000Y-103560000D01*
X152410000Y-103560000D02*
X152410000Y-103800000D01*
X153510000Y-103560000D02*
X152410000Y-103560000D01*
X153510000Y-102440000D02*
X153510000Y-103560000D01*
X166346447Y-109250000D02*
X166346447Y-109750000D01*
X166700000Y-109500000D02*
X166346447Y-109250000D01*
X166346447Y-109750000D02*
X166700000Y-109500000D01*
X170430000Y-110040000D02*
X170430000Y-101760000D01*
X167440000Y-100690000D02*
X167440000Y-101790000D01*
X168560000Y-100690000D02*
X167440000Y-100690000D01*
X167440000Y-110010000D02*
X167200000Y-110010000D01*
X167440000Y-111110000D02*
X167440000Y-110010000D01*
X168560000Y-111110000D02*
X167440000Y-111110000D01*
X161750000Y-100450000D02*
X163100000Y-100450000D01*
X161750000Y-102200000D02*
X163100000Y-102200000D01*
X167815000Y-113635000D02*
X170100000Y-113635000D01*
X167815000Y-112165000D02*
X167815000Y-113635000D01*
X170100000Y-112165000D02*
X167815000Y-112165000D01*
X158337221Y-113410000D02*
X158662779Y-113410000D01*
X158337221Y-112390000D02*
X158662779Y-112390000D01*
D12*
X152852380Y-104842857D02*
X151852380Y-104842857D01*
X152852380Y-104271428D01*
X151852380Y-104271428D01*
X151852380Y-103938095D02*
X151852380Y-103366666D01*
X152852380Y-103652380D02*
X151852380Y-103652380D01*
X152852380Y-102509523D02*
X152852380Y-103080952D01*
X152852380Y-102795238D02*
X151852380Y-102795238D01*
X151995238Y-102890476D01*
X152090476Y-102985714D01*
X152138095Y-103080952D01*
X155382142Y-106957142D02*
X155739285Y-106957142D01*
X154989285Y-107207142D02*
X155382142Y-106957142D01*
X154989285Y-106707142D01*
X155060714Y-106492857D02*
X155025000Y-106457142D01*
X154989285Y-106385714D01*
X154989285Y-106207142D01*
X155025000Y-106135714D01*
X155060714Y-106100000D01*
X155132142Y-106064285D01*
X155203571Y-106064285D01*
X155310714Y-106100000D01*
X155739285Y-106528571D01*
X155739285Y-106064285D01*
X153894285Y-105075000D02*
X153537142Y-105325000D01*
X153894285Y-105503571D02*
X153144285Y-105503571D01*
X153144285Y-105217857D01*
X153180000Y-105146428D01*
X153215714Y-105110714D01*
X153287142Y-105075000D01*
X153394285Y-105075000D01*
X153465714Y-105110714D01*
X153501428Y-105146428D01*
X153537142Y-105217857D01*
X153537142Y-105503571D01*
X153894285Y-104717857D02*
X153894285Y-104575000D01*
X153858571Y-104503571D01*
X153822857Y-104467857D01*
X153715714Y-104396428D01*
X153572857Y-104360714D01*
X153287142Y-104360714D01*
X153215714Y-104396428D01*
X153180000Y-104432142D01*
X153144285Y-104503571D01*
X153144285Y-104646428D01*
X153180000Y-104717857D01*
X153215714Y-104753571D01*
X153287142Y-104789285D01*
X153465714Y-104789285D01*
X153537142Y-104753571D01*
X153572857Y-104717857D01*
X153608571Y-104646428D01*
X153608571Y-104503571D01*
X153572857Y-104432142D01*
X153537142Y-104396428D01*
X153465714Y-104360714D01*
X150990000Y-104444285D02*
X150740000Y-104087142D01*
X150561428Y-104444285D02*
X150561428Y-103694285D01*
X150847142Y-103694285D01*
X150918571Y-103730000D01*
X150954285Y-103765714D01*
X150990000Y-103837142D01*
X150990000Y-103944285D01*
X150954285Y-104015714D01*
X150918571Y-104051428D01*
X150847142Y-104087142D01*
X150561428Y-104087142D01*
X151668571Y-103694285D02*
X151311428Y-103694285D01*
X151275714Y-104051428D01*
X151311428Y-104015714D01*
X151382857Y-103980000D01*
X151561428Y-103980000D01*
X151632857Y-104015714D01*
X151668571Y-104051428D01*
X151704285Y-104122857D01*
X151704285Y-104301428D01*
X151668571Y-104372857D01*
X151632857Y-104408571D01*
X151561428Y-104444285D01*
X151382857Y-104444285D01*
X151311428Y-104408571D01*
X151275714Y-104372857D01*
X152990000Y-104444285D02*
X152740000Y-104087142D01*
X152561428Y-104444285D02*
X152561428Y-103694285D01*
X152847142Y-103694285D01*
X152918571Y-103730000D01*
X152954285Y-103765714D01*
X152990000Y-103837142D01*
X152990000Y-103944285D01*
X152954285Y-104015714D01*
X152918571Y-104051428D01*
X152847142Y-104087142D01*
X152561428Y-104087142D01*
X153632857Y-103944285D02*
X153632857Y-104444285D01*
X153454285Y-103658571D02*
X153275714Y-104194285D01*
X153740000Y-104194285D01*
X150067857Y-113709285D02*
X149817857Y-113352142D01*
X149639285Y-113709285D02*
X149639285Y-112959285D01*
X149925000Y-112959285D01*
X149996428Y-112995000D01*
X150032142Y-113030714D01*
X150067857Y-113102142D01*
X150067857Y-113209285D01*
X150032142Y-113280714D01*
X149996428Y-113316428D01*
X149925000Y-113352142D01*
X149639285Y-113352142D01*
X150782142Y-113709285D02*
X150353571Y-113709285D01*
X150567857Y-113709285D02*
X150567857Y-112959285D01*
X150496428Y-113066428D01*
X150425000Y-113137857D01*
X150353571Y-113173571D01*
X151139285Y-113709285D02*
X151282142Y-113709285D01*
X151353571Y-113673571D01*
X151389285Y-113637857D01*
X151460714Y-113530714D01*
X151496428Y-113387857D01*
X151496428Y-113102142D01*
X151460714Y-113030714D01*
X151425000Y-112995000D01*
X151353571Y-112959285D01*
X151210714Y-112959285D01*
X151139285Y-112995000D01*
X151103571Y-113030714D01*
X151067857Y-113102142D01*
X151067857Y-113280714D01*
X151103571Y-113352142D01*
X151139285Y-113387857D01*
X151210714Y-113423571D01*
X151353571Y-113423571D01*
X151425000Y-113387857D01*
X151460714Y-113352142D01*
X151496428Y-113280714D01*
X156769285Y-107525000D02*
X156412142Y-107775000D01*
X156769285Y-107953571D02*
X156019285Y-107953571D01*
X156019285Y-107667857D01*
X156055000Y-107596428D01*
X156090714Y-107560714D01*
X156162142Y-107525000D01*
X156269285Y-107525000D01*
X156340714Y-107560714D01*
X156376428Y-107596428D01*
X156412142Y-107667857D01*
X156412142Y-107953571D01*
X156019285Y-107275000D02*
X156019285Y-106775000D01*
X156769285Y-107096428D01*
X149390000Y-112659285D02*
X149032857Y-112659285D01*
X149032857Y-111909285D01*
X149568571Y-111909285D02*
X150032857Y-111909285D01*
X149782857Y-112195000D01*
X149890000Y-112195000D01*
X149961428Y-112230714D01*
X149997142Y-112266428D01*
X150032857Y-112337857D01*
X150032857Y-112516428D01*
X149997142Y-112587857D01*
X149961428Y-112623571D01*
X149890000Y-112659285D01*
X149675714Y-112659285D01*
X149604285Y-112623571D01*
X149568571Y-112587857D01*
X152509285Y-110815000D02*
X152509285Y-111172142D01*
X151759285Y-111172142D01*
X151830714Y-110600714D02*
X151795000Y-110565000D01*
X151759285Y-110493571D01*
X151759285Y-110315000D01*
X151795000Y-110243571D01*
X151830714Y-110207857D01*
X151902142Y-110172142D01*
X151973571Y-110172142D01*
X152080714Y-110207857D01*
X152509285Y-110636428D01*
X152509285Y-110172142D01*
X149390000Y-111609285D02*
X149032857Y-111609285D01*
X149032857Y-110859285D01*
X150032857Y-111609285D02*
X149604285Y-111609285D01*
X149818571Y-111609285D02*
X149818571Y-110859285D01*
X149747142Y-110966428D01*
X149675714Y-111037857D01*
X149604285Y-111073571D01*
X150632857Y-109397857D02*
X150597142Y-109433571D01*
X150490000Y-109469285D01*
X150418571Y-109469285D01*
X150311428Y-109433571D01*
X150240000Y-109362142D01*
X150204285Y-109290714D01*
X150168571Y-109147857D01*
X150168571Y-109040714D01*
X150204285Y-108897857D01*
X150240000Y-108826428D01*
X150311428Y-108755000D01*
X150418571Y-108719285D01*
X150490000Y-108719285D01*
X150597142Y-108755000D01*
X150632857Y-108790714D01*
X151275714Y-108969285D02*
X151275714Y-109469285D01*
X151097142Y-108683571D02*
X150918571Y-109219285D01*
X151382857Y-109219285D01*
X151597142Y-108719285D02*
X152061428Y-108719285D01*
X151811428Y-109005000D01*
X151918571Y-109005000D01*
X151990000Y-109040714D01*
X152025714Y-109076428D01*
X152061428Y-109147857D01*
X152061428Y-109326428D01*
X152025714Y-109397857D01*
X151990000Y-109433571D01*
X151918571Y-109469285D01*
X151704285Y-109469285D01*
X151632857Y-109433571D01*
X151597142Y-109397857D01*
X150642857Y-108212857D02*
X150607142Y-108248571D01*
X150500000Y-108284285D01*
X150428571Y-108284285D01*
X150321428Y-108248571D01*
X150250000Y-108177142D01*
X150214285Y-108105714D01*
X150178571Y-107962857D01*
X150178571Y-107855714D01*
X150214285Y-107712857D01*
X150250000Y-107641428D01*
X150321428Y-107570000D01*
X150428571Y-107534285D01*
X150500000Y-107534285D01*
X150607142Y-107570000D01*
X150642857Y-107605714D01*
X151285714Y-107784285D02*
X151285714Y-108284285D01*
X151107142Y-107498571D02*
X150928571Y-108034285D01*
X151392857Y-108034285D01*
X151642857Y-107605714D02*
X151678571Y-107570000D01*
X151750000Y-107534285D01*
X151928571Y-107534285D01*
X152000000Y-107570000D01*
X152035714Y-107605714D01*
X152071428Y-107677142D01*
X152071428Y-107748571D01*
X152035714Y-107855714D01*
X151607142Y-108284285D01*
X152071428Y-108284285D01*
X150082857Y-114712857D02*
X150047142Y-114748571D01*
X149940000Y-114784285D01*
X149868571Y-114784285D01*
X149761428Y-114748571D01*
X149690000Y-114677142D01*
X149654285Y-114605714D01*
X149618571Y-114462857D01*
X149618571Y-114355714D01*
X149654285Y-114212857D01*
X149690000Y-114141428D01*
X149761428Y-114070000D01*
X149868571Y-114034285D01*
X149940000Y-114034285D01*
X150047142Y-114070000D01*
X150082857Y-114105714D01*
X150725714Y-114284285D02*
X150725714Y-114784285D01*
X150547142Y-113998571D02*
X150368571Y-114534285D01*
X150832857Y-114534285D01*
X151511428Y-114784285D02*
X151082857Y-114784285D01*
X151297142Y-114784285D02*
X151297142Y-114034285D01*
X151225714Y-114141428D01*
X151154285Y-114212857D01*
X151082857Y-114248571D01*
X147017857Y-111537857D02*
X146982142Y-111573571D01*
X146875000Y-111609285D01*
X146803571Y-111609285D01*
X146696428Y-111573571D01*
X146625000Y-111502142D01*
X146589285Y-111430714D01*
X146553571Y-111287857D01*
X146553571Y-111180714D01*
X146589285Y-111037857D01*
X146625000Y-110966428D01*
X146696428Y-110895000D01*
X146803571Y-110859285D01*
X146875000Y-110859285D01*
X146982142Y-110895000D01*
X147017857Y-110930714D01*
X147660714Y-111109285D02*
X147660714Y-111609285D01*
X147482142Y-110823571D02*
X147303571Y-111359285D01*
X147767857Y-111359285D01*
X148196428Y-110859285D02*
X148267857Y-110859285D01*
X148339285Y-110895000D01*
X148375000Y-110930714D01*
X148410714Y-111002142D01*
X148446428Y-111145000D01*
X148446428Y-111323571D01*
X148410714Y-111466428D01*
X148375000Y-111537857D01*
X148339285Y-111573571D01*
X148267857Y-111609285D01*
X148196428Y-111609285D01*
X148125000Y-111573571D01*
X148089285Y-111537857D01*
X148053571Y-111466428D01*
X148017857Y-111323571D01*
X148017857Y-111145000D01*
X148053571Y-111002142D01*
X148089285Y-110930714D01*
X148125000Y-110895000D01*
X148196428Y-110859285D01*
X147032857Y-112597857D02*
X146997142Y-112633571D01*
X146890000Y-112669285D01*
X146818571Y-112669285D01*
X146711428Y-112633571D01*
X146640000Y-112562142D01*
X146604285Y-112490714D01*
X146568571Y-112347857D01*
X146568571Y-112240714D01*
X146604285Y-112097857D01*
X146640000Y-112026428D01*
X146711428Y-111955000D01*
X146818571Y-111919285D01*
X146890000Y-111919285D01*
X146997142Y-111955000D01*
X147032857Y-111990714D01*
X147282857Y-111919285D02*
X147747142Y-111919285D01*
X147497142Y-112205000D01*
X147604285Y-112205000D01*
X147675714Y-112240714D01*
X147711428Y-112276428D01*
X147747142Y-112347857D01*
X147747142Y-112526428D01*
X147711428Y-112597857D01*
X147675714Y-112633571D01*
X147604285Y-112669285D01*
X147390000Y-112669285D01*
X147318571Y-112633571D01*
X147282857Y-112597857D01*
X148104285Y-112669285D02*
X148247142Y-112669285D01*
X148318571Y-112633571D01*
X148354285Y-112597857D01*
X148425714Y-112490714D01*
X148461428Y-112347857D01*
X148461428Y-112062142D01*
X148425714Y-111990714D01*
X148390000Y-111955000D01*
X148318571Y-111919285D01*
X148175714Y-111919285D01*
X148104285Y-111955000D01*
X148068571Y-111990714D01*
X148032857Y-112062142D01*
X148032857Y-112240714D01*
X148068571Y-112312142D01*
X148104285Y-112347857D01*
X148175714Y-112383571D01*
X148318571Y-112383571D01*
X148390000Y-112347857D01*
X148425714Y-112312142D01*
X148461428Y-112240714D01*
X150062857Y-110507857D02*
X150027142Y-110543571D01*
X149920000Y-110579285D01*
X149848571Y-110579285D01*
X149741428Y-110543571D01*
X149670000Y-110472142D01*
X149634285Y-110400714D01*
X149598571Y-110257857D01*
X149598571Y-110150714D01*
X149634285Y-110007857D01*
X149670000Y-109936428D01*
X149741428Y-109865000D01*
X149848571Y-109829285D01*
X149920000Y-109829285D01*
X150027142Y-109865000D01*
X150062857Y-109900714D01*
X150312857Y-109829285D02*
X150777142Y-109829285D01*
X150527142Y-110115000D01*
X150634285Y-110115000D01*
X150705714Y-110150714D01*
X150741428Y-110186428D01*
X150777142Y-110257857D01*
X150777142Y-110436428D01*
X150741428Y-110507857D01*
X150705714Y-110543571D01*
X150634285Y-110579285D01*
X150420000Y-110579285D01*
X150348571Y-110543571D01*
X150312857Y-110507857D01*
X151205714Y-110150714D02*
X151134285Y-110115000D01*
X151098571Y-110079285D01*
X151062857Y-110007857D01*
X151062857Y-109972142D01*
X151098571Y-109900714D01*
X151134285Y-109865000D01*
X151205714Y-109829285D01*
X151348571Y-109829285D01*
X151420000Y-109865000D01*
X151455714Y-109900714D01*
X151491428Y-109972142D01*
X151491428Y-110007857D01*
X151455714Y-110079285D01*
X151420000Y-110115000D01*
X151348571Y-110150714D01*
X151205714Y-110150714D01*
X151134285Y-110186428D01*
X151098571Y-110222142D01*
X151062857Y-110293571D01*
X151062857Y-110436428D01*
X151098571Y-110507857D01*
X151134285Y-110543571D01*
X151205714Y-110579285D01*
X151348571Y-110579285D01*
X151420000Y-110543571D01*
X151455714Y-110507857D01*
X151491428Y-110436428D01*
X151491428Y-110293571D01*
X151455714Y-110222142D01*
X151420000Y-110186428D01*
X151348571Y-110150714D01*
X148082857Y-110512857D02*
X148047142Y-110548571D01*
X147940000Y-110584285D01*
X147868571Y-110584285D01*
X147761428Y-110548571D01*
X147690000Y-110477142D01*
X147654285Y-110405714D01*
X147618571Y-110262857D01*
X147618571Y-110155714D01*
X147654285Y-110012857D01*
X147690000Y-109941428D01*
X147761428Y-109870000D01*
X147868571Y-109834285D01*
X147940000Y-109834285D01*
X148047142Y-109870000D01*
X148082857Y-109905714D01*
X148332857Y-109834285D02*
X148797142Y-109834285D01*
X148547142Y-110120000D01*
X148654285Y-110120000D01*
X148725714Y-110155714D01*
X148761428Y-110191428D01*
X148797142Y-110262857D01*
X148797142Y-110441428D01*
X148761428Y-110512857D01*
X148725714Y-110548571D01*
X148654285Y-110584285D01*
X148440000Y-110584285D01*
X148368571Y-110548571D01*
X148332857Y-110512857D01*
X149047142Y-109834285D02*
X149547142Y-109834285D01*
X149225714Y-110584285D01*
X155377857Y-109387857D02*
X155342142Y-109423571D01*
X155235000Y-109459285D01*
X155163571Y-109459285D01*
X155056428Y-109423571D01*
X154985000Y-109352142D01*
X154949285Y-109280714D01*
X154913571Y-109137857D01*
X154913571Y-109030714D01*
X154949285Y-108887857D01*
X154985000Y-108816428D01*
X155056428Y-108745000D01*
X155163571Y-108709285D01*
X155235000Y-108709285D01*
X155342142Y-108745000D01*
X155377857Y-108780714D01*
X155627857Y-108709285D02*
X156092142Y-108709285D01*
X155842142Y-108995000D01*
X155949285Y-108995000D01*
X156020714Y-109030714D01*
X156056428Y-109066428D01*
X156092142Y-109137857D01*
X156092142Y-109316428D01*
X156056428Y-109387857D01*
X156020714Y-109423571D01*
X155949285Y-109459285D01*
X155735000Y-109459285D01*
X155663571Y-109423571D01*
X155627857Y-109387857D01*
X156556428Y-108709285D02*
X156627857Y-108709285D01*
X156699285Y-108745000D01*
X156735000Y-108780714D01*
X156770714Y-108852142D01*
X156806428Y-108995000D01*
X156806428Y-109173571D01*
X156770714Y-109316428D01*
X156735000Y-109387857D01*
X156699285Y-109423571D01*
X156627857Y-109459285D01*
X156556428Y-109459285D01*
X156485000Y-109423571D01*
X156449285Y-109387857D01*
X156413571Y-109316428D01*
X156377857Y-109173571D01*
X156377857Y-108995000D01*
X156413571Y-108852142D01*
X156449285Y-108780714D01*
X156485000Y-108745000D01*
X156556428Y-108709285D01*
X155377857Y-108187857D02*
X155342142Y-108223571D01*
X155235000Y-108259285D01*
X155163571Y-108259285D01*
X155056428Y-108223571D01*
X154985000Y-108152142D01*
X154949285Y-108080714D01*
X154913571Y-107937857D01*
X154913571Y-107830714D01*
X154949285Y-107687857D01*
X154985000Y-107616428D01*
X155056428Y-107545000D01*
X155163571Y-107509285D01*
X155235000Y-107509285D01*
X155342142Y-107545000D01*
X155377857Y-107580714D01*
X155663571Y-107580714D02*
X155699285Y-107545000D01*
X155770714Y-107509285D01*
X155949285Y-107509285D01*
X156020714Y-107545000D01*
X156056428Y-107580714D01*
X156092142Y-107652142D01*
X156092142Y-107723571D01*
X156056428Y-107830714D01*
X155627857Y-108259285D01*
X156092142Y-108259285D01*
X156449285Y-108259285D02*
X156592142Y-108259285D01*
X156663571Y-108223571D01*
X156699285Y-108187857D01*
X156770714Y-108080714D01*
X156806428Y-107937857D01*
X156806428Y-107652142D01*
X156770714Y-107580714D01*
X156735000Y-107545000D01*
X156663571Y-107509285D01*
X156520714Y-107509285D01*
X156449285Y-107545000D01*
X156413571Y-107580714D01*
X156377857Y-107652142D01*
X156377857Y-107830714D01*
X156413571Y-107902142D01*
X156449285Y-107937857D01*
X156520714Y-107973571D01*
X156663571Y-107973571D01*
X156735000Y-107937857D01*
X156770714Y-107902142D01*
X156806428Y-107830714D01*
X138439285Y-106103571D02*
X139046428Y-106103571D01*
X139117857Y-106067857D01*
X139153571Y-106032142D01*
X139189285Y-105960714D01*
X139189285Y-105817857D01*
X139153571Y-105746428D01*
X139117857Y-105710714D01*
X139046428Y-105675000D01*
X138439285Y-105675000D01*
X139189285Y-104925000D02*
X139189285Y-105353571D01*
X139189285Y-105139285D02*
X138439285Y-105139285D01*
X138546428Y-105210714D01*
X138617857Y-105282142D01*
X138653571Y-105353571D01*
X138510714Y-104639285D02*
X138475000Y-104603571D01*
X138439285Y-104532142D01*
X138439285Y-104353571D01*
X138475000Y-104282142D01*
X138510714Y-104246428D01*
X138582142Y-104210714D01*
X138653571Y-104210714D01*
X138760714Y-104246428D01*
X139189285Y-104675000D01*
X139189285Y-104210714D01*
X139025000Y-112357142D02*
X139025000Y-112000000D01*
X139239285Y-112428571D02*
X138489285Y-112178571D01*
X139239285Y-111928571D01*
X139239285Y-111678571D02*
X138489285Y-111678571D01*
X139239285Y-111250000D01*
X138489285Y-111250000D01*
X139239285Y-110857142D02*
X139239285Y-110714285D01*
X139203571Y-110642857D01*
X139167857Y-110607142D01*
X139060714Y-110535714D01*
X138917857Y-110500000D01*
X138632142Y-110500000D01*
X138560714Y-110535714D01*
X138525000Y-110571428D01*
X138489285Y-110642857D01*
X138489285Y-110785714D01*
X138525000Y-110857142D01*
X138560714Y-110892857D01*
X138632142Y-110928571D01*
X138810714Y-110928571D01*
X138882142Y-110892857D01*
X138917857Y-110857142D01*
X138953571Y-110785714D01*
X138953571Y-110642857D01*
X138917857Y-110571428D01*
X138882142Y-110535714D01*
X138810714Y-110500000D01*
X139239285Y-109785714D02*
X139239285Y-110214285D01*
X139239285Y-110000000D02*
X138489285Y-110000000D01*
X138596428Y-110071428D01*
X138667857Y-110142857D01*
X138703571Y-110214285D01*
X138739285Y-109142857D02*
X139239285Y-109142857D01*
X138453571Y-109321428D02*
X138989285Y-109500000D01*
X138989285Y-109035714D01*
X138739285Y-108428571D02*
X139239285Y-108428571D01*
X138453571Y-108607142D02*
X138989285Y-108785714D01*
X138989285Y-108321428D01*
X138489285Y-107678571D02*
X138489285Y-108035714D01*
X138846428Y-108071428D01*
X138810714Y-108035714D01*
X138775000Y-107964285D01*
X138775000Y-107785714D01*
X138810714Y-107714285D01*
X138846428Y-107678571D01*
X138917857Y-107642857D01*
X139096428Y-107642857D01*
X139167857Y-107678571D01*
X139203571Y-107714285D01*
X139239285Y-107785714D01*
X139239285Y-107964285D01*
X139203571Y-108035714D01*
X139167857Y-108071428D01*
X153271428Y-114089285D02*
X153271428Y-114696428D01*
X153307142Y-114767857D01*
X153342857Y-114803571D01*
X153414285Y-114839285D01*
X153557142Y-114839285D01*
X153628571Y-114803571D01*
X153664285Y-114767857D01*
X153700000Y-114696428D01*
X153700000Y-114089285D01*
X154450000Y-114839285D02*
X154021428Y-114839285D01*
X154235714Y-114839285D02*
X154235714Y-114089285D01*
X154164285Y-114196428D01*
X154092857Y-114267857D01*
X154021428Y-114303571D01*
X155164285Y-114839285D02*
X154735714Y-114839285D01*
X154950000Y-114839285D02*
X154950000Y-114089285D01*
X154878571Y-114196428D01*
X154807142Y-114267857D01*
X154735714Y-114303571D01*
X155821428Y-106264285D02*
X155821428Y-106871428D01*
X155857142Y-106942857D01*
X155892857Y-106978571D01*
X155964285Y-107014285D01*
X156107142Y-107014285D01*
X156178571Y-106978571D01*
X156214285Y-106942857D01*
X156250000Y-106871428D01*
X156250000Y-106264285D01*
X157000000Y-107014285D02*
X156571428Y-107014285D01*
X156785714Y-107014285D02*
X156785714Y-106264285D01*
X156714285Y-106371428D01*
X156642857Y-106442857D01*
X156571428Y-106478571D01*
X157464285Y-106264285D02*
X157535714Y-106264285D01*
X157607142Y-106300000D01*
X157642857Y-106335714D01*
X157678571Y-106407142D01*
X157714285Y-106550000D01*
X157714285Y-106728571D01*
X157678571Y-106871428D01*
X157642857Y-106942857D01*
X157607142Y-106978571D01*
X157535714Y-107014285D01*
X157464285Y-107014285D01*
X157392857Y-106978571D01*
X157357142Y-106942857D01*
X157321428Y-106871428D01*
X157285714Y-106728571D01*
X157285714Y-106550000D01*
X157321428Y-106407142D01*
X157357142Y-106335714D01*
X157392857Y-106300000D01*
X157464285Y-106264285D01*
X166909285Y-107271428D02*
X167516428Y-107271428D01*
X167587857Y-107235714D01*
X167623571Y-107200000D01*
X167659285Y-107128571D01*
X167659285Y-106985714D01*
X167623571Y-106914285D01*
X167587857Y-106878571D01*
X167516428Y-106842857D01*
X166909285Y-106842857D01*
X166909285Y-106164285D02*
X166909285Y-106307142D01*
X166945000Y-106378571D01*
X166980714Y-106414285D01*
X167087857Y-106485714D01*
X167230714Y-106521428D01*
X167516428Y-106521428D01*
X167587857Y-106485714D01*
X167623571Y-106450000D01*
X167659285Y-106378571D01*
X167659285Y-106235714D01*
X167623571Y-106164285D01*
X167587857Y-106128571D01*
X167516428Y-106092857D01*
X167337857Y-106092857D01*
X167266428Y-106128571D01*
X167230714Y-106164285D01*
X167195000Y-106235714D01*
X167195000Y-106378571D01*
X167230714Y-106450000D01*
X167266428Y-106485714D01*
X167337857Y-106521428D01*
X162939285Y-113021428D02*
X163546428Y-113021428D01*
X163617857Y-112985714D01*
X163653571Y-112950000D01*
X163689285Y-112878571D01*
X163689285Y-112735714D01*
X163653571Y-112664285D01*
X163617857Y-112628571D01*
X163546428Y-112592857D01*
X162939285Y-112592857D01*
X162939285Y-112307142D02*
X162939285Y-111807142D01*
X163689285Y-112128571D01*
X155628571Y-98614285D02*
X155628571Y-99221428D01*
X155664285Y-99292857D01*
X155700000Y-99328571D01*
X155771428Y-99364285D01*
X155914285Y-99364285D01*
X155985714Y-99328571D01*
X156021428Y-99292857D01*
X156057142Y-99221428D01*
X156057142Y-98614285D01*
X156807142Y-99364285D02*
X156378571Y-99364285D01*
X156592857Y-99364285D02*
X156592857Y-98614285D01*
X156521428Y-98721428D01*
X156450000Y-98792857D01*
X156378571Y-98828571D01*
X165135000Y-113159285D02*
X164885000Y-112802142D01*
X164706428Y-113159285D02*
X164706428Y-112409285D01*
X164992142Y-112409285D01*
X165063571Y-112445000D01*
X165099285Y-112480714D01*
X165135000Y-112552142D01*
X165135000Y-112659285D01*
X165099285Y-112730714D01*
X165063571Y-112766428D01*
X164992142Y-112802142D01*
X164706428Y-112802142D01*
X165385000Y-112409285D02*
X165849285Y-112409285D01*
X165599285Y-112695000D01*
X165706428Y-112695000D01*
X165777857Y-112730714D01*
X165813571Y-112766428D01*
X165849285Y-112837857D01*
X165849285Y-113016428D01*
X165813571Y-113087857D01*
X165777857Y-113123571D01*
X165706428Y-113159285D01*
X165492142Y-113159285D01*
X165420714Y-113123571D01*
X165385000Y-113087857D01*
X165135000Y-114484285D02*
X164885000Y-114127142D01*
X164706428Y-114484285D02*
X164706428Y-113734285D01*
X164992142Y-113734285D01*
X165063571Y-113770000D01*
X165099285Y-113805714D01*
X165135000Y-113877142D01*
X165135000Y-113984285D01*
X165099285Y-114055714D01*
X165063571Y-114091428D01*
X164992142Y-114127142D01*
X164706428Y-114127142D01*
X165420714Y-113805714D02*
X165456428Y-113770000D01*
X165527857Y-113734285D01*
X165706428Y-113734285D01*
X165777857Y-113770000D01*
X165813571Y-113805714D01*
X165849285Y-113877142D01*
X165849285Y-113948571D01*
X165813571Y-114055714D01*
X165385000Y-114484285D01*
X165849285Y-114484285D01*
X149650000Y-104589285D02*
X149650000Y-105125000D01*
X149614285Y-105232142D01*
X149542857Y-105303571D01*
X149435714Y-105339285D01*
X149364285Y-105339285D01*
X150400000Y-105339285D02*
X149971428Y-105339285D01*
X150185714Y-105339285D02*
X150185714Y-104589285D01*
X150114285Y-104696428D01*
X150042857Y-104767857D01*
X149971428Y-104803571D01*
X165589285Y-106150000D02*
X166125000Y-106150000D01*
X166232142Y-106185714D01*
X166303571Y-106257142D01*
X166339285Y-106364285D01*
X166339285Y-106435714D01*
X165660714Y-105828571D02*
X165625000Y-105792857D01*
X165589285Y-105721428D01*
X165589285Y-105542857D01*
X165625000Y-105471428D01*
X165660714Y-105435714D01*
X165732142Y-105400000D01*
X165803571Y-105400000D01*
X165910714Y-105435714D01*
X166339285Y-105864285D01*
X166339285Y-105400000D01*
X167562857Y-101490000D02*
X167598571Y-101525714D01*
X167634285Y-101632857D01*
X167634285Y-101704285D01*
X167598571Y-101811428D01*
X167527142Y-101882857D01*
X167455714Y-101918571D01*
X167312857Y-101954285D01*
X167205714Y-101954285D01*
X167062857Y-101918571D01*
X166991428Y-101882857D01*
X166920000Y-101811428D01*
X166884285Y-101704285D01*
X166884285Y-101632857D01*
X166920000Y-101525714D01*
X166955714Y-101490000D01*
X166884285Y-100847142D02*
X166884285Y-100990000D01*
X166920000Y-101061428D01*
X166955714Y-101097142D01*
X167062857Y-101168571D01*
X167205714Y-101204285D01*
X167491428Y-101204285D01*
X167562857Y-101168571D01*
X167598571Y-101132857D01*
X167634285Y-101061428D01*
X167634285Y-100918571D01*
X167598571Y-100847142D01*
X167562857Y-100811428D01*
X167491428Y-100775714D01*
X167312857Y-100775714D01*
X167241428Y-100811428D01*
X167205714Y-100847142D01*
X167170000Y-100918571D01*
X167170000Y-101061428D01*
X167205714Y-101132857D01*
X167241428Y-101168571D01*
X167312857Y-101204285D01*
X158922857Y-101415000D02*
X158958571Y-101450714D01*
X158994285Y-101557857D01*
X158994285Y-101629285D01*
X158958571Y-101736428D01*
X158887142Y-101807857D01*
X158815714Y-101843571D01*
X158672857Y-101879285D01*
X158565714Y-101879285D01*
X158422857Y-101843571D01*
X158351428Y-101807857D01*
X158280000Y-101736428D01*
X158244285Y-101629285D01*
X158244285Y-101557857D01*
X158280000Y-101450714D01*
X158315714Y-101415000D01*
X158244285Y-100736428D02*
X158244285Y-101093571D01*
X158601428Y-101129285D01*
X158565714Y-101093571D01*
X158530000Y-101022142D01*
X158530000Y-100843571D01*
X158565714Y-100772142D01*
X158601428Y-100736428D01*
X158672857Y-100700714D01*
X158851428Y-100700714D01*
X158922857Y-100736428D01*
X158958571Y-100772142D01*
X158994285Y-100843571D01*
X158994285Y-101022142D01*
X158958571Y-101093571D01*
X158922857Y-101129285D01*
X164147857Y-101490000D02*
X164183571Y-101525714D01*
X164219285Y-101632857D01*
X164219285Y-101704285D01*
X164183571Y-101811428D01*
X164112142Y-101882857D01*
X164040714Y-101918571D01*
X163897857Y-101954285D01*
X163790714Y-101954285D01*
X163647857Y-101918571D01*
X163576428Y-101882857D01*
X163505000Y-101811428D01*
X163469285Y-101704285D01*
X163469285Y-101632857D01*
X163505000Y-101525714D01*
X163540714Y-101490000D01*
X163719285Y-100847142D02*
X164219285Y-100847142D01*
X163433571Y-101025714D02*
X163969285Y-101204285D01*
X163969285Y-100740000D01*
X157502857Y-112937857D02*
X157467142Y-112973571D01*
X157360000Y-113009285D01*
X157288571Y-113009285D01*
X157181428Y-112973571D01*
X157110000Y-112902142D01*
X157074285Y-112830714D01*
X157038571Y-112687857D01*
X157038571Y-112580714D01*
X157074285Y-112437857D01*
X157110000Y-112366428D01*
X157181428Y-112295000D01*
X157288571Y-112259285D01*
X157360000Y-112259285D01*
X157467142Y-112295000D01*
X157502857Y-112330714D01*
X158217142Y-113009285D02*
X157788571Y-113009285D01*
X158002857Y-113009285D02*
X158002857Y-112259285D01*
X157931428Y-112366428D01*
X157860000Y-112437857D01*
X157788571Y-112473571D01*
X158895714Y-112259285D02*
X158538571Y-112259285D01*
X158502857Y-112616428D01*
X158538571Y-112580714D01*
X158610000Y-112545000D01*
X158788571Y-112545000D01*
X158860000Y-112580714D01*
X158895714Y-112616428D01*
X158931428Y-112687857D01*
X158931428Y-112866428D01*
X158895714Y-112937857D01*
X158860000Y-112973571D01*
X158788571Y-113009285D01*
X158610000Y-113009285D01*
X158538571Y-112973571D01*
X158502857Y-112937857D01*
X162672857Y-112917142D02*
X162708571Y-112952857D01*
X162744285Y-113060000D01*
X162744285Y-113131428D01*
X162708571Y-113238571D01*
X162637142Y-113310000D01*
X162565714Y-113345714D01*
X162422857Y-113381428D01*
X162315714Y-113381428D01*
X162172857Y-113345714D01*
X162101428Y-113310000D01*
X162030000Y-113238571D01*
X161994285Y-113131428D01*
X161994285Y-113060000D01*
X162030000Y-112952857D01*
X162065714Y-112917142D01*
X162744285Y-112202857D02*
X162744285Y-112631428D01*
X162744285Y-112417142D02*
X161994285Y-112417142D01*
X162101428Y-112488571D01*
X162172857Y-112560000D01*
X162208571Y-112631428D01*
X161994285Y-111952857D02*
X161994285Y-111488571D01*
X162280000Y-111738571D01*
X162280000Y-111631428D01*
X162315714Y-111560000D01*
X162351428Y-111524285D01*
X162422857Y-111488571D01*
X162601428Y-111488571D01*
X162672857Y-111524285D01*
X162708571Y-111560000D01*
X162744285Y-111631428D01*
X162744285Y-111845714D01*
X162708571Y-111917142D01*
X162672857Y-111952857D01*
X160187857Y-101415000D02*
X160223571Y-101450714D01*
X160259285Y-101557857D01*
X160259285Y-101629285D01*
X160223571Y-101736428D01*
X160152142Y-101807857D01*
X160080714Y-101843571D01*
X159937857Y-101879285D01*
X159830714Y-101879285D01*
X159687857Y-101843571D01*
X159616428Y-101807857D01*
X159545000Y-101736428D01*
X159509285Y-101629285D01*
X159509285Y-101557857D01*
X159545000Y-101450714D01*
X159580714Y-101415000D01*
X160259285Y-100700714D02*
X160259285Y-101129285D01*
X160259285Y-100915000D02*
X159509285Y-100915000D01*
X159616428Y-100986428D01*
X159687857Y-101057857D01*
X159723571Y-101129285D01*
X162067857Y-99307142D02*
X162067857Y-99664285D01*
X161817857Y-98914285D02*
X162067857Y-99307142D01*
X162317857Y-98914285D01*
X162960714Y-99664285D02*
X162532142Y-99664285D01*
X162746428Y-99664285D02*
X162746428Y-98914285D01*
X162675000Y-99021428D01*
X162603571Y-99092857D01*
X162532142Y-99128571D01*
X168746428Y-111809285D02*
X168746428Y-111059285D01*
X168925000Y-111059285D01*
X169032142Y-111095000D01*
X169103571Y-111166428D01*
X169139285Y-111237857D01*
X169175000Y-111380714D01*
X169175000Y-111487857D01*
X169139285Y-111630714D01*
X169103571Y-111702142D01*
X169032142Y-111773571D01*
X168925000Y-111809285D01*
X168746428Y-111809285D01*
X169889285Y-111809285D02*
X169460714Y-111809285D01*
X169675000Y-111809285D02*
X169675000Y-111059285D01*
X169603571Y-111166428D01*
X169532142Y-111237857D01*
X169460714Y-111273571D01*
X158017857Y-111737857D02*
X157982142Y-111773571D01*
X157875000Y-111809285D01*
X157803571Y-111809285D01*
X157696428Y-111773571D01*
X157625000Y-111702142D01*
X157589285Y-111630714D01*
X157553571Y-111487857D01*
X157553571Y-111380714D01*
X157589285Y-111237857D01*
X157625000Y-111166428D01*
X157696428Y-111095000D01*
X157803571Y-111059285D01*
X157875000Y-111059285D01*
X157982142Y-111095000D01*
X158017857Y-111130714D01*
X158732142Y-111809285D02*
X158303571Y-111809285D01*
X158517857Y-111809285D02*
X158517857Y-111059285D01*
X158446428Y-111166428D01*
X158375000Y-111237857D01*
X158303571Y-111273571D01*
X159375000Y-111309285D02*
X159375000Y-111809285D01*
X159196428Y-111023571D02*
X159017857Y-111559285D01*
X159482142Y-111559285D01*
X168509285Y-113010000D02*
X168152142Y-113260000D01*
X168509285Y-113438571D02*
X167759285Y-113438571D01*
X167759285Y-113152857D01*
X167795000Y-113081428D01*
X167830714Y-113045714D01*
X167902142Y-113010000D01*
X168009285Y-113010000D01*
X168080714Y-113045714D01*
X168116428Y-113081428D01*
X168152142Y-113152857D01*
X168152142Y-113438571D01*
X168509285Y-112295714D02*
X168509285Y-112724285D01*
X168509285Y-112510000D02*
X167759285Y-112510000D01*
X167866428Y-112581428D01*
X167937857Y-112652857D01*
X167973571Y-112724285D01*
M02*
