M48
; DRILL file {KiCad (5.1.5-0-10_14)} date Tuesday, August 25, 2020 at 04:28:48 PM
; FORMAT={-:-/ absolute / inch / decimal}
; #@! TF.CreationDate,2020-08-25T16:28:48-04:00
; #@! TF.GenerationSoftware,Kicad,Pcbnew,(5.1.5-0-10_14)
; #@! TF.FileFunction,Plated,3,4,Blind
FMAT,2
INCH
T1C0.0039
%
G90
G05
T1
X5.8268Y-4.126
X5.8415Y-3.9587
X5.8839Y-4.126
X5.9193Y-4.126
X5.9252Y-4.1831
X5.9488Y-4.2244
X5.9646Y-4.3661
X5.9681Y-4.0034
X5.9734Y-4.4144
X6.0031Y-4.1819
X6.0039Y-4.2677
X6.0226Y-4.1073
X6.0778Y-4.0217
X6.0787Y-4.1161
X6.1299Y-4.3081
X6.1496Y-4.3907
X6.1531Y-4.1776
X6.1909Y-4.2225
X6.2001Y-4.4363
X6.251Y-4.2641
X6.2618Y-4.1024
X6.2657Y-4.3996
X6.2658Y-4.2557
X6.2697Y-4.0
X6.293Y-4.2874
X6.3247Y-4.2607
X6.3268Y-4.1299
X6.3268Y-4.1929
X6.3268Y-4.2874
X6.3281Y-4.224
X6.3366Y-4.0285
X6.3583Y-4.2559
X6.3898Y-4.1929
X6.3898Y-4.2559
X6.4055Y-4.0
X6.4055Y-4.3563
X6.4075Y-4.437
X6.438Y-4.0817
X6.4528Y-4.1614
X6.4528Y-4.1929
X6.4528Y-4.3189
X6.4695Y-4.4094
X6.4843Y-4.2244
X6.4843Y-4.2549
X6.4843Y-4.2874
X6.4843Y-4.3189
X6.5169Y-4.4398
X6.5791Y-4.3701
X6.5817Y-4.2864
X6.5846Y-4.185
X6.5919Y-4.094
X6.5955Y-4.0446
X6.625Y-4.0276
X6.689Y-4.0039
T0
M30
