M48
; DRILL file {KiCad (5.1.5-0-10_14)} date Friday, August 21, 2020 at 09:41:32 PM
; FORMAT={-:-/ absolute / inch / decimal}
; #@! TF.CreationDate,2020-08-21T21:41:32-04:00
; #@! TF.GenerationSoftware,Kicad,Pcbnew,(5.1.5-0-10_14)
; #@! TF.FileFunction,Plated,3,4,Blind
FMAT,2
INCH
T1C0.0039
%
G90
G05
T1
X5.8406Y-4.123
X5.8829Y-4.1211
X5.9193Y-4.4528
X5.9252Y-4.1831
X5.932Y-4.0945
X5.9537Y-4.247
X5.9665Y-4.3681
X6.0039Y-4.2677
X6.0059Y-4.185
X6.0413Y-4.0226
X6.1004Y-4.1122
X6.127Y-4.2274
X6.1299Y-4.3081
X6.189Y-4.1742
X6.2001Y-4.4363
X6.257Y-4.2735
X6.2637Y-4.1103
X6.2657Y-4.3996
X6.2697Y-4.0
X6.3268Y-4.1299
X6.3268Y-4.2874
X6.3281Y-4.224
X6.3366Y-4.0285
X6.3583Y-4.2559
X6.3898Y-4.1929
X6.3898Y-4.2559
X6.4055Y-4.0
X6.4055Y-4.3563
X6.4075Y-4.437
X6.438Y-4.0817
X6.4528Y-4.1614
X6.4528Y-4.1929
X6.4528Y-4.3189
X6.4695Y-4.4094
X6.4843Y-4.2244
X6.4843Y-4.2549
X6.4843Y-4.2874
X6.4843Y-4.3189
X6.5354Y-4.4409
X6.5791Y-4.3701
X6.5817Y-4.2864
X6.5846Y-4.185
X6.5919Y-4.094
X6.5955Y-4.0446
X6.625Y-4.0276
X6.689Y-4.0039
T0
M30
