G04 #@! TF.GenerationSoftware,KiCad,Pcbnew,(5.1.5-0-10_14)*
G04 #@! TF.CreationDate,2021-06-08T10:06:00-04:00*
G04 #@! TF.ProjectId,ESLO_COIN_POWER,45534c4f-5f43-44f4-994e-5f504f574552,rev?*
G04 #@! TF.SameCoordinates,Original*
G04 #@! TF.FileFunction,Soldermask,Top*
G04 #@! TF.FilePolarity,Negative*
%FSLAX46Y46*%
G04 Gerber Fmt 4.6, Leading zero omitted, Abs format (unit mm)*
G04 Created by KiCad (PCBNEW (5.1.5-0-10_14)) date 2021-06-08 10:06:00*
%MOMM*%
%LPD*%
G04 APERTURE LIST*
%ADD10C,0.100000*%
G04 APERTURE END LIST*
D10*
G36*
X79943512Y-96893927D02*
G01*
X80092812Y-96923624D01*
X80256784Y-96991544D01*
X80404354Y-97090147D01*
X80529853Y-97215646D01*
X80628456Y-97363216D01*
X80696376Y-97527188D01*
X80731000Y-97701259D01*
X80731000Y-97878741D01*
X80696376Y-98052812D01*
X80628456Y-98216784D01*
X80529853Y-98364354D01*
X80404354Y-98489853D01*
X80256784Y-98588456D01*
X80092812Y-98656376D01*
X79943512Y-98686073D01*
X79918742Y-98691000D01*
X79741258Y-98691000D01*
X79716488Y-98686073D01*
X79567188Y-98656376D01*
X79403216Y-98588456D01*
X79255646Y-98489853D01*
X79130147Y-98364354D01*
X79031544Y-98216784D01*
X78963624Y-98052812D01*
X78929000Y-97878741D01*
X78929000Y-97701259D01*
X78963624Y-97527188D01*
X79031544Y-97363216D01*
X79130147Y-97215646D01*
X79255646Y-97090147D01*
X79403216Y-96991544D01*
X79567188Y-96923624D01*
X79716488Y-96893927D01*
X79741258Y-96889000D01*
X79918742Y-96889000D01*
X79943512Y-96893927D01*
G37*
G36*
X77403512Y-96893927D02*
G01*
X77552812Y-96923624D01*
X77716784Y-96991544D01*
X77864354Y-97090147D01*
X77989853Y-97215646D01*
X78088456Y-97363216D01*
X78156376Y-97527188D01*
X78191000Y-97701259D01*
X78191000Y-97878741D01*
X78156376Y-98052812D01*
X78088456Y-98216784D01*
X77989853Y-98364354D01*
X77864354Y-98489853D01*
X77716784Y-98588456D01*
X77552812Y-98656376D01*
X77403512Y-98686073D01*
X77378742Y-98691000D01*
X77201258Y-98691000D01*
X77176488Y-98686073D01*
X77027188Y-98656376D01*
X76863216Y-98588456D01*
X76715646Y-98489853D01*
X76590147Y-98364354D01*
X76491544Y-98216784D01*
X76423624Y-98052812D01*
X76389000Y-97878741D01*
X76389000Y-97701259D01*
X76423624Y-97527188D01*
X76491544Y-97363216D01*
X76590147Y-97215646D01*
X76715646Y-97090147D01*
X76863216Y-96991544D01*
X77027188Y-96923624D01*
X77176488Y-96893927D01*
X77201258Y-96889000D01*
X77378742Y-96889000D01*
X77403512Y-96893927D01*
G37*
G36*
X74863512Y-96893927D02*
G01*
X75012812Y-96923624D01*
X75176784Y-96991544D01*
X75324354Y-97090147D01*
X75449853Y-97215646D01*
X75548456Y-97363216D01*
X75616376Y-97527188D01*
X75651000Y-97701259D01*
X75651000Y-97878741D01*
X75616376Y-98052812D01*
X75548456Y-98216784D01*
X75449853Y-98364354D01*
X75324354Y-98489853D01*
X75176784Y-98588456D01*
X75012812Y-98656376D01*
X74863512Y-98686073D01*
X74838742Y-98691000D01*
X74661258Y-98691000D01*
X74636488Y-98686073D01*
X74487188Y-98656376D01*
X74323216Y-98588456D01*
X74175646Y-98489853D01*
X74050147Y-98364354D01*
X73951544Y-98216784D01*
X73883624Y-98052812D01*
X73849000Y-97878741D01*
X73849000Y-97701259D01*
X73883624Y-97527188D01*
X73951544Y-97363216D01*
X74050147Y-97215646D01*
X74175646Y-97090147D01*
X74323216Y-96991544D01*
X74487188Y-96923624D01*
X74636488Y-96893927D01*
X74661258Y-96889000D01*
X74838742Y-96889000D01*
X74863512Y-96893927D01*
G37*
G36*
X109601000Y-97501000D02*
G01*
X105899000Y-97501000D01*
X105899000Y-94799000D01*
X109601000Y-94799000D01*
X109601000Y-97501000D01*
G37*
G36*
X87851000Y-97501000D02*
G01*
X84149000Y-97501000D01*
X84149000Y-94799000D01*
X87851000Y-94799000D01*
X87851000Y-97501000D01*
G37*
G36*
X79943512Y-94353927D02*
G01*
X80092812Y-94383624D01*
X80256784Y-94451544D01*
X80404354Y-94550147D01*
X80529853Y-94675646D01*
X80628456Y-94823216D01*
X80696376Y-94987188D01*
X80731000Y-95161259D01*
X80731000Y-95338741D01*
X80696376Y-95512812D01*
X80628456Y-95676784D01*
X80529853Y-95824354D01*
X80404354Y-95949853D01*
X80256784Y-96048456D01*
X80092812Y-96116376D01*
X79943512Y-96146073D01*
X79918742Y-96151000D01*
X79741258Y-96151000D01*
X79716488Y-96146073D01*
X79567188Y-96116376D01*
X79403216Y-96048456D01*
X79255646Y-95949853D01*
X79130147Y-95824354D01*
X79031544Y-95676784D01*
X78963624Y-95512812D01*
X78929000Y-95338741D01*
X78929000Y-95161259D01*
X78963624Y-94987188D01*
X79031544Y-94823216D01*
X79130147Y-94675646D01*
X79255646Y-94550147D01*
X79403216Y-94451544D01*
X79567188Y-94383624D01*
X79716488Y-94353927D01*
X79741258Y-94349000D01*
X79918742Y-94349000D01*
X79943512Y-94353927D01*
G37*
G36*
X77403512Y-94353927D02*
G01*
X77552812Y-94383624D01*
X77716784Y-94451544D01*
X77864354Y-94550147D01*
X77989853Y-94675646D01*
X78088456Y-94823216D01*
X78156376Y-94987188D01*
X78191000Y-95161259D01*
X78191000Y-95338741D01*
X78156376Y-95512812D01*
X78088456Y-95676784D01*
X77989853Y-95824354D01*
X77864354Y-95949853D01*
X77716784Y-96048456D01*
X77552812Y-96116376D01*
X77403512Y-96146073D01*
X77378742Y-96151000D01*
X77201258Y-96151000D01*
X77176488Y-96146073D01*
X77027188Y-96116376D01*
X76863216Y-96048456D01*
X76715646Y-95949853D01*
X76590147Y-95824354D01*
X76491544Y-95676784D01*
X76423624Y-95512812D01*
X76389000Y-95338741D01*
X76389000Y-95161259D01*
X76423624Y-94987188D01*
X76491544Y-94823216D01*
X76590147Y-94675646D01*
X76715646Y-94550147D01*
X76863216Y-94451544D01*
X77027188Y-94383624D01*
X77176488Y-94353927D01*
X77201258Y-94349000D01*
X77378742Y-94349000D01*
X77403512Y-94353927D01*
G37*
G36*
X75651000Y-96151000D02*
G01*
X73849000Y-96151000D01*
X73849000Y-94349000D01*
X75651000Y-94349000D01*
X75651000Y-96151000D01*
G37*
G36*
X109601000Y-68201000D02*
G01*
X105899000Y-68201000D01*
X105899000Y-65499000D01*
X109601000Y-65499000D01*
X109601000Y-68201000D01*
G37*
G36*
X87851000Y-68201000D02*
G01*
X84149000Y-68201000D01*
X84149000Y-65499000D01*
X87851000Y-65499000D01*
X87851000Y-68201000D01*
G37*
M02*
