G04 #@! TF.GenerationSoftware,KiCad,Pcbnew,(5.1.5-0-10_14)*
G04 #@! TF.CreationDate,2021-06-02T09:33:46-04:00*
G04 #@! TF.ProjectId,ESLO_RB2_Programmer,45534c4f-5f52-4423-925f-50726f677261,rev?*
G04 #@! TF.SameCoordinates,Original*
G04 #@! TF.FileFunction,Copper,L1,Top*
G04 #@! TF.FilePolarity,Positive*
%FSLAX46Y46*%
G04 Gerber Fmt 4.6, Leading zero omitted, Abs format (unit mm)*
G04 Created by KiCad (PCBNEW (5.1.5-0-10_14)) date 2021-06-02 09:33:46*
%MOMM*%
%LPD*%
G04 APERTURE LIST*
%ADD10C,2.800000*%
%ADD11C,0.100000*%
%ADD12O,1.700000X1.700000*%
%ADD13R,1.700000X1.700000*%
%ADD14R,2.500000X0.600000*%
%ADD15R,2.400000X0.740000*%
%ADD16C,0.800000*%
%ADD17C,0.300000*%
%ADD18C,0.152400*%
%ADD19C,0.125000*%
G04 APERTURE END LIST*
D10*
X147000000Y-74500000D03*
X147000000Y-79000000D03*
X147000000Y-95000000D03*
X147000000Y-99500000D03*
G04 #@! TA.AperFunction,SMDPad,CuDef*
D11*
G36*
X135215439Y-90950451D02*
G01*
X135224540Y-90951801D01*
X135233464Y-90954037D01*
X135242127Y-90957136D01*
X135250443Y-90961070D01*
X135258335Y-90965800D01*
X135265724Y-90971280D01*
X135272541Y-90977459D01*
X135278720Y-90984276D01*
X135284200Y-90991665D01*
X135288930Y-90999557D01*
X135292864Y-91007873D01*
X135295963Y-91016536D01*
X135298199Y-91025460D01*
X135299549Y-91034561D01*
X135300000Y-91043750D01*
X135300000Y-91256250D01*
X135299549Y-91265439D01*
X135298199Y-91274540D01*
X135295963Y-91283464D01*
X135292864Y-91292127D01*
X135288930Y-91300443D01*
X135284200Y-91308335D01*
X135278720Y-91315724D01*
X135272541Y-91322541D01*
X135265724Y-91328720D01*
X135258335Y-91334200D01*
X135250443Y-91338930D01*
X135242127Y-91342864D01*
X135233464Y-91345963D01*
X135224540Y-91348199D01*
X135215439Y-91349549D01*
X135206250Y-91350000D01*
X135018750Y-91350000D01*
X135009561Y-91349549D01*
X135000460Y-91348199D01*
X134991536Y-91345963D01*
X134982873Y-91342864D01*
X134974557Y-91338930D01*
X134966665Y-91334200D01*
X134959276Y-91328720D01*
X134952459Y-91322541D01*
X134946280Y-91315724D01*
X134940800Y-91308335D01*
X134936070Y-91300443D01*
X134932136Y-91292127D01*
X134929037Y-91283464D01*
X134926801Y-91274540D01*
X134925451Y-91265439D01*
X134925000Y-91256250D01*
X134925000Y-91043750D01*
X134925451Y-91034561D01*
X134926801Y-91025460D01*
X134929037Y-91016536D01*
X134932136Y-91007873D01*
X134936070Y-90999557D01*
X134940800Y-90991665D01*
X134946280Y-90984276D01*
X134952459Y-90977459D01*
X134959276Y-90971280D01*
X134966665Y-90965800D01*
X134974557Y-90961070D01*
X134982873Y-90957136D01*
X134991536Y-90954037D01*
X135000460Y-90951801D01*
X135009561Y-90950451D01*
X135018750Y-90950000D01*
X135206250Y-90950000D01*
X135215439Y-90950451D01*
G37*
G04 #@! TD.AperFunction*
G04 #@! TA.AperFunction,SMDPad,CuDef*
G36*
X135215439Y-90300451D02*
G01*
X135224540Y-90301801D01*
X135233464Y-90304037D01*
X135242127Y-90307136D01*
X135250443Y-90311070D01*
X135258335Y-90315800D01*
X135265724Y-90321280D01*
X135272541Y-90327459D01*
X135278720Y-90334276D01*
X135284200Y-90341665D01*
X135288930Y-90349557D01*
X135292864Y-90357873D01*
X135295963Y-90366536D01*
X135298199Y-90375460D01*
X135299549Y-90384561D01*
X135300000Y-90393750D01*
X135300000Y-90606250D01*
X135299549Y-90615439D01*
X135298199Y-90624540D01*
X135295963Y-90633464D01*
X135292864Y-90642127D01*
X135288930Y-90650443D01*
X135284200Y-90658335D01*
X135278720Y-90665724D01*
X135272541Y-90672541D01*
X135265724Y-90678720D01*
X135258335Y-90684200D01*
X135250443Y-90688930D01*
X135242127Y-90692864D01*
X135233464Y-90695963D01*
X135224540Y-90698199D01*
X135215439Y-90699549D01*
X135206250Y-90700000D01*
X135018750Y-90700000D01*
X135009561Y-90699549D01*
X135000460Y-90698199D01*
X134991536Y-90695963D01*
X134982873Y-90692864D01*
X134974557Y-90688930D01*
X134966665Y-90684200D01*
X134959276Y-90678720D01*
X134952459Y-90672541D01*
X134946280Y-90665724D01*
X134940800Y-90658335D01*
X134936070Y-90650443D01*
X134932136Y-90642127D01*
X134929037Y-90633464D01*
X134926801Y-90624540D01*
X134925451Y-90615439D01*
X134925000Y-90606250D01*
X134925000Y-90393750D01*
X134925451Y-90384561D01*
X134926801Y-90375460D01*
X134929037Y-90366536D01*
X134932136Y-90357873D01*
X134936070Y-90349557D01*
X134940800Y-90341665D01*
X134946280Y-90334276D01*
X134952459Y-90327459D01*
X134959276Y-90321280D01*
X134966665Y-90315800D01*
X134974557Y-90311070D01*
X134982873Y-90307136D01*
X134991536Y-90304037D01*
X135000460Y-90301801D01*
X135009561Y-90300451D01*
X135018750Y-90300000D01*
X135206250Y-90300000D01*
X135215439Y-90300451D01*
G37*
G04 #@! TD.AperFunction*
G04 #@! TA.AperFunction,SMDPad,CuDef*
G36*
X135215439Y-89650451D02*
G01*
X135224540Y-89651801D01*
X135233464Y-89654037D01*
X135242127Y-89657136D01*
X135250443Y-89661070D01*
X135258335Y-89665800D01*
X135265724Y-89671280D01*
X135272541Y-89677459D01*
X135278720Y-89684276D01*
X135284200Y-89691665D01*
X135288930Y-89699557D01*
X135292864Y-89707873D01*
X135295963Y-89716536D01*
X135298199Y-89725460D01*
X135299549Y-89734561D01*
X135300000Y-89743750D01*
X135300000Y-89956250D01*
X135299549Y-89965439D01*
X135298199Y-89974540D01*
X135295963Y-89983464D01*
X135292864Y-89992127D01*
X135288930Y-90000443D01*
X135284200Y-90008335D01*
X135278720Y-90015724D01*
X135272541Y-90022541D01*
X135265724Y-90028720D01*
X135258335Y-90034200D01*
X135250443Y-90038930D01*
X135242127Y-90042864D01*
X135233464Y-90045963D01*
X135224540Y-90048199D01*
X135215439Y-90049549D01*
X135206250Y-90050000D01*
X135018750Y-90050000D01*
X135009561Y-90049549D01*
X135000460Y-90048199D01*
X134991536Y-90045963D01*
X134982873Y-90042864D01*
X134974557Y-90038930D01*
X134966665Y-90034200D01*
X134959276Y-90028720D01*
X134952459Y-90022541D01*
X134946280Y-90015724D01*
X134940800Y-90008335D01*
X134936070Y-90000443D01*
X134932136Y-89992127D01*
X134929037Y-89983464D01*
X134926801Y-89974540D01*
X134925451Y-89965439D01*
X134925000Y-89956250D01*
X134925000Y-89743750D01*
X134925451Y-89734561D01*
X134926801Y-89725460D01*
X134929037Y-89716536D01*
X134932136Y-89707873D01*
X134936070Y-89699557D01*
X134940800Y-89691665D01*
X134946280Y-89684276D01*
X134952459Y-89677459D01*
X134959276Y-89671280D01*
X134966665Y-89665800D01*
X134974557Y-89661070D01*
X134982873Y-89657136D01*
X134991536Y-89654037D01*
X135000460Y-89651801D01*
X135009561Y-89650451D01*
X135018750Y-89650000D01*
X135206250Y-89650000D01*
X135215439Y-89650451D01*
G37*
G04 #@! TD.AperFunction*
G04 #@! TA.AperFunction,SMDPad,CuDef*
G36*
X136990439Y-89650451D02*
G01*
X136999540Y-89651801D01*
X137008464Y-89654037D01*
X137017127Y-89657136D01*
X137025443Y-89661070D01*
X137033335Y-89665800D01*
X137040724Y-89671280D01*
X137047541Y-89677459D01*
X137053720Y-89684276D01*
X137059200Y-89691665D01*
X137063930Y-89699557D01*
X137067864Y-89707873D01*
X137070963Y-89716536D01*
X137073199Y-89725460D01*
X137074549Y-89734561D01*
X137075000Y-89743750D01*
X137075000Y-89956250D01*
X137074549Y-89965439D01*
X137073199Y-89974540D01*
X137070963Y-89983464D01*
X137067864Y-89992127D01*
X137063930Y-90000443D01*
X137059200Y-90008335D01*
X137053720Y-90015724D01*
X137047541Y-90022541D01*
X137040724Y-90028720D01*
X137033335Y-90034200D01*
X137025443Y-90038930D01*
X137017127Y-90042864D01*
X137008464Y-90045963D01*
X136999540Y-90048199D01*
X136990439Y-90049549D01*
X136981250Y-90050000D01*
X136793750Y-90050000D01*
X136784561Y-90049549D01*
X136775460Y-90048199D01*
X136766536Y-90045963D01*
X136757873Y-90042864D01*
X136749557Y-90038930D01*
X136741665Y-90034200D01*
X136734276Y-90028720D01*
X136727459Y-90022541D01*
X136721280Y-90015724D01*
X136715800Y-90008335D01*
X136711070Y-90000443D01*
X136707136Y-89992127D01*
X136704037Y-89983464D01*
X136701801Y-89974540D01*
X136700451Y-89965439D01*
X136700000Y-89956250D01*
X136700000Y-89743750D01*
X136700451Y-89734561D01*
X136701801Y-89725460D01*
X136704037Y-89716536D01*
X136707136Y-89707873D01*
X136711070Y-89699557D01*
X136715800Y-89691665D01*
X136721280Y-89684276D01*
X136727459Y-89677459D01*
X136734276Y-89671280D01*
X136741665Y-89665800D01*
X136749557Y-89661070D01*
X136757873Y-89657136D01*
X136766536Y-89654037D01*
X136775460Y-89651801D01*
X136784561Y-89650451D01*
X136793750Y-89650000D01*
X136981250Y-89650000D01*
X136990439Y-89650451D01*
G37*
G04 #@! TD.AperFunction*
G04 #@! TA.AperFunction,SMDPad,CuDef*
G36*
X136990439Y-90300451D02*
G01*
X136999540Y-90301801D01*
X137008464Y-90304037D01*
X137017127Y-90307136D01*
X137025443Y-90311070D01*
X137033335Y-90315800D01*
X137040724Y-90321280D01*
X137047541Y-90327459D01*
X137053720Y-90334276D01*
X137059200Y-90341665D01*
X137063930Y-90349557D01*
X137067864Y-90357873D01*
X137070963Y-90366536D01*
X137073199Y-90375460D01*
X137074549Y-90384561D01*
X137075000Y-90393750D01*
X137075000Y-90606250D01*
X137074549Y-90615439D01*
X137073199Y-90624540D01*
X137070963Y-90633464D01*
X137067864Y-90642127D01*
X137063930Y-90650443D01*
X137059200Y-90658335D01*
X137053720Y-90665724D01*
X137047541Y-90672541D01*
X137040724Y-90678720D01*
X137033335Y-90684200D01*
X137025443Y-90688930D01*
X137017127Y-90692864D01*
X137008464Y-90695963D01*
X136999540Y-90698199D01*
X136990439Y-90699549D01*
X136981250Y-90700000D01*
X136793750Y-90700000D01*
X136784561Y-90699549D01*
X136775460Y-90698199D01*
X136766536Y-90695963D01*
X136757873Y-90692864D01*
X136749557Y-90688930D01*
X136741665Y-90684200D01*
X136734276Y-90678720D01*
X136727459Y-90672541D01*
X136721280Y-90665724D01*
X136715800Y-90658335D01*
X136711070Y-90650443D01*
X136707136Y-90642127D01*
X136704037Y-90633464D01*
X136701801Y-90624540D01*
X136700451Y-90615439D01*
X136700000Y-90606250D01*
X136700000Y-90393750D01*
X136700451Y-90384561D01*
X136701801Y-90375460D01*
X136704037Y-90366536D01*
X136707136Y-90357873D01*
X136711070Y-90349557D01*
X136715800Y-90341665D01*
X136721280Y-90334276D01*
X136727459Y-90327459D01*
X136734276Y-90321280D01*
X136741665Y-90315800D01*
X136749557Y-90311070D01*
X136757873Y-90307136D01*
X136766536Y-90304037D01*
X136775460Y-90301801D01*
X136784561Y-90300451D01*
X136793750Y-90300000D01*
X136981250Y-90300000D01*
X136990439Y-90300451D01*
G37*
G04 #@! TD.AperFunction*
G04 #@! TA.AperFunction,SMDPad,CuDef*
G36*
X136990439Y-90950451D02*
G01*
X136999540Y-90951801D01*
X137008464Y-90954037D01*
X137017127Y-90957136D01*
X137025443Y-90961070D01*
X137033335Y-90965800D01*
X137040724Y-90971280D01*
X137047541Y-90977459D01*
X137053720Y-90984276D01*
X137059200Y-90991665D01*
X137063930Y-90999557D01*
X137067864Y-91007873D01*
X137070963Y-91016536D01*
X137073199Y-91025460D01*
X137074549Y-91034561D01*
X137075000Y-91043750D01*
X137075000Y-91256250D01*
X137074549Y-91265439D01*
X137073199Y-91274540D01*
X137070963Y-91283464D01*
X137067864Y-91292127D01*
X137063930Y-91300443D01*
X137059200Y-91308335D01*
X137053720Y-91315724D01*
X137047541Y-91322541D01*
X137040724Y-91328720D01*
X137033335Y-91334200D01*
X137025443Y-91338930D01*
X137017127Y-91342864D01*
X137008464Y-91345963D01*
X136999540Y-91348199D01*
X136990439Y-91349549D01*
X136981250Y-91350000D01*
X136793750Y-91350000D01*
X136784561Y-91349549D01*
X136775460Y-91348199D01*
X136766536Y-91345963D01*
X136757873Y-91342864D01*
X136749557Y-91338930D01*
X136741665Y-91334200D01*
X136734276Y-91328720D01*
X136727459Y-91322541D01*
X136721280Y-91315724D01*
X136715800Y-91308335D01*
X136711070Y-91300443D01*
X136707136Y-91292127D01*
X136704037Y-91283464D01*
X136701801Y-91274540D01*
X136700451Y-91265439D01*
X136700000Y-91256250D01*
X136700000Y-91043750D01*
X136700451Y-91034561D01*
X136701801Y-91025460D01*
X136704037Y-91016536D01*
X136707136Y-91007873D01*
X136711070Y-90999557D01*
X136715800Y-90991665D01*
X136721280Y-90984276D01*
X136727459Y-90977459D01*
X136734276Y-90971280D01*
X136741665Y-90965800D01*
X136749557Y-90961070D01*
X136757873Y-90957136D01*
X136766536Y-90954037D01*
X136775460Y-90951801D01*
X136784561Y-90950451D01*
X136793750Y-90950000D01*
X136981250Y-90950000D01*
X136990439Y-90950451D01*
G37*
G04 #@! TD.AperFunction*
G04 #@! TA.AperFunction,SMDPad,CuDef*
G36*
X136274504Y-89701204D02*
G01*
X136298773Y-89704804D01*
X136322571Y-89710765D01*
X136345671Y-89719030D01*
X136367849Y-89729520D01*
X136388893Y-89742133D01*
X136408598Y-89756747D01*
X136426777Y-89773223D01*
X136443253Y-89791402D01*
X136457867Y-89811107D01*
X136470480Y-89832151D01*
X136480970Y-89854329D01*
X136489235Y-89877429D01*
X136495196Y-89901227D01*
X136498796Y-89925496D01*
X136500000Y-89950000D01*
X136500000Y-91050000D01*
X136498796Y-91074504D01*
X136495196Y-91098773D01*
X136489235Y-91122571D01*
X136480970Y-91145671D01*
X136470480Y-91167849D01*
X136457867Y-91188893D01*
X136443253Y-91208598D01*
X136426777Y-91226777D01*
X136408598Y-91243253D01*
X136388893Y-91257867D01*
X136367849Y-91270480D01*
X136345671Y-91280970D01*
X136322571Y-91289235D01*
X136298773Y-91295196D01*
X136274504Y-91298796D01*
X136250000Y-91300000D01*
X135750000Y-91300000D01*
X135725496Y-91298796D01*
X135701227Y-91295196D01*
X135677429Y-91289235D01*
X135654329Y-91280970D01*
X135632151Y-91270480D01*
X135611107Y-91257867D01*
X135591402Y-91243253D01*
X135573223Y-91226777D01*
X135556747Y-91208598D01*
X135542133Y-91188893D01*
X135529520Y-91167849D01*
X135519030Y-91145671D01*
X135510765Y-91122571D01*
X135504804Y-91098773D01*
X135501204Y-91074504D01*
X135500000Y-91050000D01*
X135500000Y-89950000D01*
X135501204Y-89925496D01*
X135504804Y-89901227D01*
X135510765Y-89877429D01*
X135519030Y-89854329D01*
X135529520Y-89832151D01*
X135542133Y-89811107D01*
X135556747Y-89791402D01*
X135573223Y-89773223D01*
X135591402Y-89756747D01*
X135611107Y-89742133D01*
X135632151Y-89729520D01*
X135654329Y-89719030D01*
X135677429Y-89710765D01*
X135701227Y-89704804D01*
X135725496Y-89701204D01*
X135750000Y-89700000D01*
X136250000Y-89700000D01*
X136274504Y-89701204D01*
G37*
G04 #@! TD.AperFunction*
D12*
X137500000Y-97500000D03*
X134960000Y-97500000D03*
D13*
X132420000Y-97500000D03*
G04 #@! TA.AperFunction,SMDPad,CuDef*
D11*
G36*
X139467642Y-88301174D02*
G01*
X139491303Y-88304684D01*
X139514507Y-88310496D01*
X139537029Y-88318554D01*
X139558653Y-88328782D01*
X139579170Y-88341079D01*
X139598383Y-88355329D01*
X139616107Y-88371393D01*
X139632171Y-88389117D01*
X139646421Y-88408330D01*
X139658718Y-88428847D01*
X139668946Y-88450471D01*
X139677004Y-88472993D01*
X139682816Y-88496197D01*
X139686326Y-88519858D01*
X139687500Y-88543750D01*
X139687500Y-89456250D01*
X139686326Y-89480142D01*
X139682816Y-89503803D01*
X139677004Y-89527007D01*
X139668946Y-89549529D01*
X139658718Y-89571153D01*
X139646421Y-89591670D01*
X139632171Y-89610883D01*
X139616107Y-89628607D01*
X139598383Y-89644671D01*
X139579170Y-89658921D01*
X139558653Y-89671218D01*
X139537029Y-89681446D01*
X139514507Y-89689504D01*
X139491303Y-89695316D01*
X139467642Y-89698826D01*
X139443750Y-89700000D01*
X138956250Y-89700000D01*
X138932358Y-89698826D01*
X138908697Y-89695316D01*
X138885493Y-89689504D01*
X138862971Y-89681446D01*
X138841347Y-89671218D01*
X138820830Y-89658921D01*
X138801617Y-89644671D01*
X138783893Y-89628607D01*
X138767829Y-89610883D01*
X138753579Y-89591670D01*
X138741282Y-89571153D01*
X138731054Y-89549529D01*
X138722996Y-89527007D01*
X138717184Y-89503803D01*
X138713674Y-89480142D01*
X138712500Y-89456250D01*
X138712500Y-88543750D01*
X138713674Y-88519858D01*
X138717184Y-88496197D01*
X138722996Y-88472993D01*
X138731054Y-88450471D01*
X138741282Y-88428847D01*
X138753579Y-88408330D01*
X138767829Y-88389117D01*
X138783893Y-88371393D01*
X138801617Y-88355329D01*
X138820830Y-88341079D01*
X138841347Y-88328782D01*
X138862971Y-88318554D01*
X138885493Y-88310496D01*
X138908697Y-88304684D01*
X138932358Y-88301174D01*
X138956250Y-88300000D01*
X139443750Y-88300000D01*
X139467642Y-88301174D01*
G37*
G04 #@! TD.AperFunction*
G04 #@! TA.AperFunction,SMDPad,CuDef*
G36*
X141342642Y-88301174D02*
G01*
X141366303Y-88304684D01*
X141389507Y-88310496D01*
X141412029Y-88318554D01*
X141433653Y-88328782D01*
X141454170Y-88341079D01*
X141473383Y-88355329D01*
X141491107Y-88371393D01*
X141507171Y-88389117D01*
X141521421Y-88408330D01*
X141533718Y-88428847D01*
X141543946Y-88450471D01*
X141552004Y-88472993D01*
X141557816Y-88496197D01*
X141561326Y-88519858D01*
X141562500Y-88543750D01*
X141562500Y-89456250D01*
X141561326Y-89480142D01*
X141557816Y-89503803D01*
X141552004Y-89527007D01*
X141543946Y-89549529D01*
X141533718Y-89571153D01*
X141521421Y-89591670D01*
X141507171Y-89610883D01*
X141491107Y-89628607D01*
X141473383Y-89644671D01*
X141454170Y-89658921D01*
X141433653Y-89671218D01*
X141412029Y-89681446D01*
X141389507Y-89689504D01*
X141366303Y-89695316D01*
X141342642Y-89698826D01*
X141318750Y-89700000D01*
X140831250Y-89700000D01*
X140807358Y-89698826D01*
X140783697Y-89695316D01*
X140760493Y-89689504D01*
X140737971Y-89681446D01*
X140716347Y-89671218D01*
X140695830Y-89658921D01*
X140676617Y-89644671D01*
X140658893Y-89628607D01*
X140642829Y-89610883D01*
X140628579Y-89591670D01*
X140616282Y-89571153D01*
X140606054Y-89549529D01*
X140597996Y-89527007D01*
X140592184Y-89503803D01*
X140588674Y-89480142D01*
X140587500Y-89456250D01*
X140587500Y-88543750D01*
X140588674Y-88519858D01*
X140592184Y-88496197D01*
X140597996Y-88472993D01*
X140606054Y-88450471D01*
X140616282Y-88428847D01*
X140628579Y-88408330D01*
X140642829Y-88389117D01*
X140658893Y-88371393D01*
X140676617Y-88355329D01*
X140695830Y-88341079D01*
X140716347Y-88328782D01*
X140737971Y-88318554D01*
X140760493Y-88310496D01*
X140783697Y-88304684D01*
X140807358Y-88301174D01*
X140831250Y-88300000D01*
X141318750Y-88300000D01*
X141342642Y-88301174D01*
G37*
G04 #@! TD.AperFunction*
D14*
X148000000Y-82555000D03*
X148000000Y-83825000D03*
X148000000Y-85095000D03*
X148000000Y-86365000D03*
X148000000Y-87635000D03*
X148000000Y-88905000D03*
X148000000Y-90175000D03*
X148000000Y-91445000D03*
G04 #@! TA.AperFunction,SMDPad,CuDef*
D11*
G36*
X123665191Y-99526053D02*
G01*
X123686426Y-99529203D01*
X123707250Y-99534419D01*
X123727462Y-99541651D01*
X123746868Y-99550830D01*
X123765281Y-99561866D01*
X123782524Y-99574654D01*
X123798430Y-99589070D01*
X123812846Y-99604976D01*
X123825634Y-99622219D01*
X123836670Y-99640632D01*
X123845849Y-99660038D01*
X123853081Y-99680250D01*
X123858297Y-99701074D01*
X123861447Y-99722309D01*
X123862500Y-99743750D01*
X123862500Y-100256250D01*
X123861447Y-100277691D01*
X123858297Y-100298926D01*
X123853081Y-100319750D01*
X123845849Y-100339962D01*
X123836670Y-100359368D01*
X123825634Y-100377781D01*
X123812846Y-100395024D01*
X123798430Y-100410930D01*
X123782524Y-100425346D01*
X123765281Y-100438134D01*
X123746868Y-100449170D01*
X123727462Y-100458349D01*
X123707250Y-100465581D01*
X123686426Y-100470797D01*
X123665191Y-100473947D01*
X123643750Y-100475000D01*
X123206250Y-100475000D01*
X123184809Y-100473947D01*
X123163574Y-100470797D01*
X123142750Y-100465581D01*
X123122538Y-100458349D01*
X123103132Y-100449170D01*
X123084719Y-100438134D01*
X123067476Y-100425346D01*
X123051570Y-100410930D01*
X123037154Y-100395024D01*
X123024366Y-100377781D01*
X123013330Y-100359368D01*
X123004151Y-100339962D01*
X122996919Y-100319750D01*
X122991703Y-100298926D01*
X122988553Y-100277691D01*
X122987500Y-100256250D01*
X122987500Y-99743750D01*
X122988553Y-99722309D01*
X122991703Y-99701074D01*
X122996919Y-99680250D01*
X123004151Y-99660038D01*
X123013330Y-99640632D01*
X123024366Y-99622219D01*
X123037154Y-99604976D01*
X123051570Y-99589070D01*
X123067476Y-99574654D01*
X123084719Y-99561866D01*
X123103132Y-99550830D01*
X123122538Y-99541651D01*
X123142750Y-99534419D01*
X123163574Y-99529203D01*
X123184809Y-99526053D01*
X123206250Y-99525000D01*
X123643750Y-99525000D01*
X123665191Y-99526053D01*
G37*
G04 #@! TD.AperFunction*
G04 #@! TA.AperFunction,SMDPad,CuDef*
G36*
X125240191Y-99526053D02*
G01*
X125261426Y-99529203D01*
X125282250Y-99534419D01*
X125302462Y-99541651D01*
X125321868Y-99550830D01*
X125340281Y-99561866D01*
X125357524Y-99574654D01*
X125373430Y-99589070D01*
X125387846Y-99604976D01*
X125400634Y-99622219D01*
X125411670Y-99640632D01*
X125420849Y-99660038D01*
X125428081Y-99680250D01*
X125433297Y-99701074D01*
X125436447Y-99722309D01*
X125437500Y-99743750D01*
X125437500Y-100256250D01*
X125436447Y-100277691D01*
X125433297Y-100298926D01*
X125428081Y-100319750D01*
X125420849Y-100339962D01*
X125411670Y-100359368D01*
X125400634Y-100377781D01*
X125387846Y-100395024D01*
X125373430Y-100410930D01*
X125357524Y-100425346D01*
X125340281Y-100438134D01*
X125321868Y-100449170D01*
X125302462Y-100458349D01*
X125282250Y-100465581D01*
X125261426Y-100470797D01*
X125240191Y-100473947D01*
X125218750Y-100475000D01*
X124781250Y-100475000D01*
X124759809Y-100473947D01*
X124738574Y-100470797D01*
X124717750Y-100465581D01*
X124697538Y-100458349D01*
X124678132Y-100449170D01*
X124659719Y-100438134D01*
X124642476Y-100425346D01*
X124626570Y-100410930D01*
X124612154Y-100395024D01*
X124599366Y-100377781D01*
X124588330Y-100359368D01*
X124579151Y-100339962D01*
X124571919Y-100319750D01*
X124566703Y-100298926D01*
X124563553Y-100277691D01*
X124562500Y-100256250D01*
X124562500Y-99743750D01*
X124563553Y-99722309D01*
X124566703Y-99701074D01*
X124571919Y-99680250D01*
X124579151Y-99660038D01*
X124588330Y-99640632D01*
X124599366Y-99622219D01*
X124612154Y-99604976D01*
X124626570Y-99589070D01*
X124642476Y-99574654D01*
X124659719Y-99561866D01*
X124678132Y-99550830D01*
X124697538Y-99541651D01*
X124717750Y-99534419D01*
X124738574Y-99529203D01*
X124759809Y-99526053D01*
X124781250Y-99525000D01*
X125218750Y-99525000D01*
X125240191Y-99526053D01*
G37*
G04 #@! TD.AperFunction*
G04 #@! TA.AperFunction,SMDPad,CuDef*
G36*
X141015191Y-91526053D02*
G01*
X141036426Y-91529203D01*
X141057250Y-91534419D01*
X141077462Y-91541651D01*
X141096868Y-91550830D01*
X141115281Y-91561866D01*
X141132524Y-91574654D01*
X141148430Y-91589070D01*
X141162846Y-91604976D01*
X141175634Y-91622219D01*
X141186670Y-91640632D01*
X141195849Y-91660038D01*
X141203081Y-91680250D01*
X141208297Y-91701074D01*
X141211447Y-91722309D01*
X141212500Y-91743750D01*
X141212500Y-92256250D01*
X141211447Y-92277691D01*
X141208297Y-92298926D01*
X141203081Y-92319750D01*
X141195849Y-92339962D01*
X141186670Y-92359368D01*
X141175634Y-92377781D01*
X141162846Y-92395024D01*
X141148430Y-92410930D01*
X141132524Y-92425346D01*
X141115281Y-92438134D01*
X141096868Y-92449170D01*
X141077462Y-92458349D01*
X141057250Y-92465581D01*
X141036426Y-92470797D01*
X141015191Y-92473947D01*
X140993750Y-92475000D01*
X140556250Y-92475000D01*
X140534809Y-92473947D01*
X140513574Y-92470797D01*
X140492750Y-92465581D01*
X140472538Y-92458349D01*
X140453132Y-92449170D01*
X140434719Y-92438134D01*
X140417476Y-92425346D01*
X140401570Y-92410930D01*
X140387154Y-92395024D01*
X140374366Y-92377781D01*
X140363330Y-92359368D01*
X140354151Y-92339962D01*
X140346919Y-92319750D01*
X140341703Y-92298926D01*
X140338553Y-92277691D01*
X140337500Y-92256250D01*
X140337500Y-91743750D01*
X140338553Y-91722309D01*
X140341703Y-91701074D01*
X140346919Y-91680250D01*
X140354151Y-91660038D01*
X140363330Y-91640632D01*
X140374366Y-91622219D01*
X140387154Y-91604976D01*
X140401570Y-91589070D01*
X140417476Y-91574654D01*
X140434719Y-91561866D01*
X140453132Y-91550830D01*
X140472538Y-91541651D01*
X140492750Y-91534419D01*
X140513574Y-91529203D01*
X140534809Y-91526053D01*
X140556250Y-91525000D01*
X140993750Y-91525000D01*
X141015191Y-91526053D01*
G37*
G04 #@! TD.AperFunction*
G04 #@! TA.AperFunction,SMDPad,CuDef*
G36*
X139440191Y-91526053D02*
G01*
X139461426Y-91529203D01*
X139482250Y-91534419D01*
X139502462Y-91541651D01*
X139521868Y-91550830D01*
X139540281Y-91561866D01*
X139557524Y-91574654D01*
X139573430Y-91589070D01*
X139587846Y-91604976D01*
X139600634Y-91622219D01*
X139611670Y-91640632D01*
X139620849Y-91660038D01*
X139628081Y-91680250D01*
X139633297Y-91701074D01*
X139636447Y-91722309D01*
X139637500Y-91743750D01*
X139637500Y-92256250D01*
X139636447Y-92277691D01*
X139633297Y-92298926D01*
X139628081Y-92319750D01*
X139620849Y-92339962D01*
X139611670Y-92359368D01*
X139600634Y-92377781D01*
X139587846Y-92395024D01*
X139573430Y-92410930D01*
X139557524Y-92425346D01*
X139540281Y-92438134D01*
X139521868Y-92449170D01*
X139502462Y-92458349D01*
X139482250Y-92465581D01*
X139461426Y-92470797D01*
X139440191Y-92473947D01*
X139418750Y-92475000D01*
X138981250Y-92475000D01*
X138959809Y-92473947D01*
X138938574Y-92470797D01*
X138917750Y-92465581D01*
X138897538Y-92458349D01*
X138878132Y-92449170D01*
X138859719Y-92438134D01*
X138842476Y-92425346D01*
X138826570Y-92410930D01*
X138812154Y-92395024D01*
X138799366Y-92377781D01*
X138788330Y-92359368D01*
X138779151Y-92339962D01*
X138771919Y-92319750D01*
X138766703Y-92298926D01*
X138763553Y-92277691D01*
X138762500Y-92256250D01*
X138762500Y-91743750D01*
X138763553Y-91722309D01*
X138766703Y-91701074D01*
X138771919Y-91680250D01*
X138779151Y-91660038D01*
X138788330Y-91640632D01*
X138799366Y-91622219D01*
X138812154Y-91604976D01*
X138826570Y-91589070D01*
X138842476Y-91574654D01*
X138859719Y-91561866D01*
X138878132Y-91550830D01*
X138897538Y-91541651D01*
X138917750Y-91534419D01*
X138938574Y-91529203D01*
X138959809Y-91526053D01*
X138981250Y-91525000D01*
X139418750Y-91525000D01*
X139440191Y-91526053D01*
G37*
G04 #@! TD.AperFunction*
D12*
X136080000Y-75000000D03*
X133540000Y-75000000D03*
D13*
X131000000Y-75000000D03*
D15*
X135500000Y-85810000D03*
X131600000Y-85810000D03*
X135500000Y-84540000D03*
X131600000Y-84540000D03*
X135500000Y-83270000D03*
X131600000Y-83270000D03*
X135500000Y-82000000D03*
X131600000Y-82000000D03*
X135500000Y-80730000D03*
X131600000Y-80730000D03*
D16*
X139175000Y-90625000D03*
X148000000Y-81450000D03*
D17*
X137737500Y-89000000D02*
X139200000Y-89000000D01*
X139200000Y-89000000D02*
X139200000Y-92000000D01*
X136887500Y-89012500D02*
X136900000Y-89000000D01*
X136887500Y-89850000D02*
X136887500Y-89012500D01*
X137737500Y-89000000D02*
X136900000Y-89000000D01*
X139200000Y-92000000D02*
X139200000Y-92000000D01*
X130100000Y-80730000D02*
X131600000Y-80730000D01*
X129300000Y-81530000D02*
X130100000Y-80730000D01*
X129300000Y-87175000D02*
X129300000Y-81530000D01*
X136900000Y-89000000D02*
X131125000Y-89000000D01*
X131125000Y-89000000D02*
X129300000Y-87175000D01*
D18*
X147000000Y-95000000D02*
X145000000Y-95000000D01*
X140000000Y-100000000D02*
X125000000Y-100000000D01*
X145000000Y-95000000D02*
X140000000Y-100000000D01*
X135112500Y-90500000D02*
X135112500Y-89850000D01*
D17*
X146450000Y-87635000D02*
X148000000Y-87635000D01*
X135940000Y-77125000D02*
X146450000Y-87635000D01*
X133100000Y-77125000D02*
X135940000Y-77125000D01*
X131000000Y-75025000D02*
X133100000Y-77125000D01*
X131000000Y-75000000D02*
X131000000Y-75025000D01*
X128847589Y-87362394D02*
X128847589Y-77152411D01*
X131335195Y-89850000D02*
X128847589Y-87362394D01*
X128847589Y-77152411D02*
X131000000Y-75000000D01*
X135112500Y-89850000D02*
X131335195Y-89850000D01*
D18*
X146495000Y-91445000D02*
X148000000Y-91445000D01*
X140860000Y-85810000D02*
X146495000Y-91445000D01*
X135500000Y-85810000D02*
X140860000Y-85810000D01*
X146475000Y-90175000D02*
X148000000Y-90175000D01*
X137030000Y-80730000D02*
X146475000Y-90175000D01*
X135500000Y-80730000D02*
X137030000Y-80730000D01*
X146480000Y-88905000D02*
X148000000Y-88905000D01*
X137375000Y-79800000D02*
X146480000Y-88905000D01*
X133625000Y-81477400D02*
X133625000Y-80175000D01*
X133625000Y-80175000D02*
X134000000Y-79800000D01*
X134000000Y-79800000D02*
X137375000Y-79800000D01*
X134147600Y-82000000D02*
X133625000Y-81477400D01*
X135500000Y-82000000D02*
X134147600Y-82000000D01*
X148000000Y-82555000D02*
X148000000Y-81450000D01*
X145676210Y-82903610D02*
X146597600Y-83825000D01*
X146597600Y-83825000D02*
X148000000Y-83825000D01*
X145676210Y-80323790D02*
X145676210Y-82903610D01*
X147000000Y-79000000D02*
X145676210Y-80323790D01*
X146597600Y-85095000D02*
X148000000Y-85095000D01*
X144525000Y-83022400D02*
X146597600Y-85095000D01*
X144525000Y-76975000D02*
X144525000Y-83022400D01*
X147000000Y-74500000D02*
X144525000Y-76975000D01*
D17*
X142200000Y-90125000D02*
X141075000Y-89000000D01*
X142200000Y-92950000D02*
X142200000Y-90125000D01*
X141550000Y-93600000D02*
X142200000Y-92950000D01*
X136887500Y-91150000D02*
X136887500Y-92462500D01*
X138025000Y-93600000D02*
X141550000Y-93600000D01*
X136887500Y-92462500D02*
X138025000Y-93600000D01*
D19*
G36*
X149662500Y-101662500D02*
G01*
X122337500Y-101662500D01*
X122337500Y-100475000D01*
X122673488Y-100475000D01*
X122679522Y-100536261D01*
X122697391Y-100595167D01*
X122726409Y-100649456D01*
X122765460Y-100697040D01*
X122813044Y-100736091D01*
X122867333Y-100765109D01*
X122926239Y-100782978D01*
X122987500Y-100789012D01*
X123284375Y-100787500D01*
X123362500Y-100709375D01*
X123362500Y-100062500D01*
X123487500Y-100062500D01*
X123487500Y-100709375D01*
X123565625Y-100787500D01*
X123862500Y-100789012D01*
X123923761Y-100782978D01*
X123982667Y-100765109D01*
X124036956Y-100736091D01*
X124084540Y-100697040D01*
X124123591Y-100649456D01*
X124152609Y-100595167D01*
X124170478Y-100536261D01*
X124176512Y-100475000D01*
X124175000Y-100140625D01*
X124096875Y-100062500D01*
X123487500Y-100062500D01*
X123362500Y-100062500D01*
X122753125Y-100062500D01*
X122675000Y-100140625D01*
X122673488Y-100475000D01*
X122337500Y-100475000D01*
X122337500Y-99525000D01*
X122673488Y-99525000D01*
X122675000Y-99859375D01*
X122753125Y-99937500D01*
X123362500Y-99937500D01*
X123362500Y-99290625D01*
X123487500Y-99290625D01*
X123487500Y-99937500D01*
X124096875Y-99937500D01*
X124175000Y-99859375D01*
X124175522Y-99743750D01*
X124248488Y-99743750D01*
X124248488Y-100256250D01*
X124258725Y-100360187D01*
X124289042Y-100460129D01*
X124338275Y-100552237D01*
X124404530Y-100632970D01*
X124485263Y-100699225D01*
X124577371Y-100748458D01*
X124677313Y-100778775D01*
X124781250Y-100789012D01*
X125218750Y-100789012D01*
X125322687Y-100778775D01*
X125422629Y-100748458D01*
X125504138Y-100704890D01*
X145883498Y-100704890D01*
X146039778Y-100927963D01*
X146336810Y-101087855D01*
X146659329Y-101186727D01*
X146994939Y-101220778D01*
X147330743Y-101188702D01*
X147653837Y-101091729D01*
X147951805Y-100933588D01*
X147960222Y-100927963D01*
X148116502Y-100704890D01*
X147000000Y-99588388D01*
X145883498Y-100704890D01*
X125504138Y-100704890D01*
X125514737Y-100699225D01*
X125595470Y-100632970D01*
X125661725Y-100552237D01*
X125710958Y-100460129D01*
X125732626Y-100388700D01*
X139980913Y-100388700D01*
X140000000Y-100390580D01*
X140019087Y-100388700D01*
X140019088Y-100388700D01*
X140076198Y-100383075D01*
X140149468Y-100360849D01*
X140216995Y-100324755D01*
X140276182Y-100276182D01*
X140288355Y-100261349D01*
X141054765Y-99494939D01*
X145279222Y-99494939D01*
X145311298Y-99830743D01*
X145408271Y-100153837D01*
X145566412Y-100451805D01*
X145572037Y-100460222D01*
X145795110Y-100616502D01*
X146911612Y-99500000D01*
X147088388Y-99500000D01*
X148204890Y-100616502D01*
X148427963Y-100460222D01*
X148587855Y-100163190D01*
X148686727Y-99840671D01*
X148720778Y-99505061D01*
X148688702Y-99169257D01*
X148591729Y-98846163D01*
X148433588Y-98548195D01*
X148427963Y-98539778D01*
X148204890Y-98383498D01*
X147088388Y-99500000D01*
X146911612Y-99500000D01*
X145795110Y-98383498D01*
X145572037Y-98539778D01*
X145412145Y-98836810D01*
X145313273Y-99159329D01*
X145279222Y-99494939D01*
X141054765Y-99494939D01*
X142254594Y-98295110D01*
X145883498Y-98295110D01*
X147000000Y-99411612D01*
X148116502Y-98295110D01*
X147960222Y-98072037D01*
X147663190Y-97912145D01*
X147340671Y-97813273D01*
X147005061Y-97779222D01*
X146669257Y-97811298D01*
X146346163Y-97908271D01*
X146048195Y-98066412D01*
X146039778Y-98072037D01*
X145883498Y-98295110D01*
X142254594Y-98295110D01*
X145161005Y-95388700D01*
X145331267Y-95388700D01*
X145353310Y-95499518D01*
X145482402Y-95811173D01*
X145669814Y-96091655D01*
X145908345Y-96330186D01*
X146188827Y-96517598D01*
X146500482Y-96646690D01*
X146831333Y-96712500D01*
X147168667Y-96712500D01*
X147499518Y-96646690D01*
X147811173Y-96517598D01*
X148091655Y-96330186D01*
X148330186Y-96091655D01*
X148517598Y-95811173D01*
X148646690Y-95499518D01*
X148712500Y-95168667D01*
X148712500Y-94831333D01*
X148646690Y-94500482D01*
X148517598Y-94188827D01*
X148330186Y-93908345D01*
X148091655Y-93669814D01*
X147811173Y-93482402D01*
X147499518Y-93353310D01*
X147168667Y-93287500D01*
X146831333Y-93287500D01*
X146500482Y-93353310D01*
X146188827Y-93482402D01*
X145908345Y-93669814D01*
X145669814Y-93908345D01*
X145482402Y-94188827D01*
X145353310Y-94500482D01*
X145331267Y-94611300D01*
X145019087Y-94611300D01*
X145000000Y-94609420D01*
X144980912Y-94611300D01*
X144923802Y-94616925D01*
X144850532Y-94639151D01*
X144783005Y-94675245D01*
X144723818Y-94723818D01*
X144711650Y-94738645D01*
X139838996Y-99611300D01*
X125732626Y-99611300D01*
X125710958Y-99539871D01*
X125661725Y-99447763D01*
X125595470Y-99367030D01*
X125514737Y-99300775D01*
X125422629Y-99251542D01*
X125322687Y-99221225D01*
X125218750Y-99210988D01*
X124781250Y-99210988D01*
X124677313Y-99221225D01*
X124577371Y-99251542D01*
X124485263Y-99300775D01*
X124404530Y-99367030D01*
X124338275Y-99447763D01*
X124289042Y-99539871D01*
X124258725Y-99639813D01*
X124248488Y-99743750D01*
X124175522Y-99743750D01*
X124176512Y-99525000D01*
X124170478Y-99463739D01*
X124152609Y-99404833D01*
X124123591Y-99350544D01*
X124084540Y-99302960D01*
X124036956Y-99263909D01*
X123982667Y-99234891D01*
X123923761Y-99217022D01*
X123862500Y-99210988D01*
X123565625Y-99212500D01*
X123487500Y-99290625D01*
X123362500Y-99290625D01*
X123284375Y-99212500D01*
X122987500Y-99210988D01*
X122926239Y-99217022D01*
X122867333Y-99234891D01*
X122813044Y-99263909D01*
X122765460Y-99302960D01*
X122726409Y-99350544D01*
X122697391Y-99404833D01*
X122679522Y-99463739D01*
X122673488Y-99525000D01*
X122337500Y-99525000D01*
X122337500Y-96650000D01*
X131255988Y-96650000D01*
X131255988Y-98350000D01*
X131262022Y-98411261D01*
X131279891Y-98470167D01*
X131308909Y-98524456D01*
X131347960Y-98572040D01*
X131395544Y-98611091D01*
X131449833Y-98640109D01*
X131508739Y-98657978D01*
X131570000Y-98664012D01*
X133270000Y-98664012D01*
X133331261Y-98657978D01*
X133390167Y-98640109D01*
X133444456Y-98611091D01*
X133492040Y-98572040D01*
X133531091Y-98524456D01*
X133560109Y-98470167D01*
X133577978Y-98411261D01*
X133584012Y-98350000D01*
X133584012Y-97385504D01*
X133797500Y-97385504D01*
X133797500Y-97614496D01*
X133842174Y-97839089D01*
X133929806Y-98050650D01*
X134057027Y-98241051D01*
X134218949Y-98402973D01*
X134409350Y-98530194D01*
X134620911Y-98617826D01*
X134845504Y-98662500D01*
X135074496Y-98662500D01*
X135299089Y-98617826D01*
X135510650Y-98530194D01*
X135701051Y-98402973D01*
X135862973Y-98241051D01*
X135990194Y-98050650D01*
X136077826Y-97839089D01*
X136096874Y-97743323D01*
X136363247Y-97743323D01*
X136432559Y-97960417D01*
X136542892Y-98159818D01*
X136690007Y-98333862D01*
X136868249Y-98475861D01*
X137070769Y-98580359D01*
X137256677Y-98636750D01*
X137437500Y-98582572D01*
X137437500Y-97562500D01*
X137562500Y-97562500D01*
X137562500Y-98582572D01*
X137743323Y-98636750D01*
X137929231Y-98580359D01*
X138131751Y-98475861D01*
X138309993Y-98333862D01*
X138457108Y-98159818D01*
X138567441Y-97960417D01*
X138636753Y-97743323D01*
X138582697Y-97562500D01*
X137562500Y-97562500D01*
X137437500Y-97562500D01*
X136417303Y-97562500D01*
X136363247Y-97743323D01*
X136096874Y-97743323D01*
X136122500Y-97614496D01*
X136122500Y-97385504D01*
X136096875Y-97256677D01*
X136363247Y-97256677D01*
X136417303Y-97437500D01*
X137437500Y-97437500D01*
X137437500Y-96417428D01*
X137562500Y-96417428D01*
X137562500Y-97437500D01*
X138582697Y-97437500D01*
X138636753Y-97256677D01*
X138567441Y-97039583D01*
X138457108Y-96840182D01*
X138309993Y-96666138D01*
X138131751Y-96524139D01*
X137929231Y-96419641D01*
X137743323Y-96363250D01*
X137562500Y-96417428D01*
X137437500Y-96417428D01*
X137256677Y-96363250D01*
X137070769Y-96419641D01*
X136868249Y-96524139D01*
X136690007Y-96666138D01*
X136542892Y-96840182D01*
X136432559Y-97039583D01*
X136363247Y-97256677D01*
X136096875Y-97256677D01*
X136077826Y-97160911D01*
X135990194Y-96949350D01*
X135862973Y-96758949D01*
X135701051Y-96597027D01*
X135510650Y-96469806D01*
X135299089Y-96382174D01*
X135074496Y-96337500D01*
X134845504Y-96337500D01*
X134620911Y-96382174D01*
X134409350Y-96469806D01*
X134218949Y-96597027D01*
X134057027Y-96758949D01*
X133929806Y-96949350D01*
X133842174Y-97160911D01*
X133797500Y-97385504D01*
X133584012Y-97385504D01*
X133584012Y-96650000D01*
X133577978Y-96588739D01*
X133560109Y-96529833D01*
X133531091Y-96475544D01*
X133492040Y-96427960D01*
X133444456Y-96388909D01*
X133390167Y-96359891D01*
X133331261Y-96342022D01*
X133270000Y-96335988D01*
X131570000Y-96335988D01*
X131508739Y-96342022D01*
X131449833Y-96359891D01*
X131395544Y-96388909D01*
X131347960Y-96427960D01*
X131308909Y-96475544D01*
X131279891Y-96529833D01*
X131262022Y-96588739D01*
X131255988Y-96650000D01*
X122337500Y-96650000D01*
X122337500Y-94296369D01*
X123932504Y-94296369D01*
X123932504Y-94703631D01*
X124011956Y-95103066D01*
X124167809Y-95479327D01*
X124394071Y-95817952D01*
X124682048Y-96105929D01*
X125020673Y-96332191D01*
X125396934Y-96488044D01*
X125796369Y-96567496D01*
X126203631Y-96567496D01*
X126603066Y-96488044D01*
X126979327Y-96332191D01*
X127317952Y-96105929D01*
X127605929Y-95817952D01*
X127832191Y-95479327D01*
X127988044Y-95103066D01*
X128067496Y-94703631D01*
X128067496Y-94296369D01*
X127988044Y-93896934D01*
X127832191Y-93520673D01*
X127605929Y-93182048D01*
X127317952Y-92894071D01*
X126979327Y-92667809D01*
X126603066Y-92511956D01*
X126203631Y-92432504D01*
X125796369Y-92432504D01*
X125396934Y-92511956D01*
X125020673Y-92667809D01*
X124682048Y-92894071D01*
X124394071Y-93182048D01*
X124167809Y-93520673D01*
X124011956Y-93896934D01*
X123932504Y-94296369D01*
X122337500Y-94296369D01*
X122337500Y-91350000D01*
X134610988Y-91350000D01*
X134617022Y-91411261D01*
X134634891Y-91470167D01*
X134663909Y-91524456D01*
X134702960Y-91572040D01*
X134750544Y-91611091D01*
X134804833Y-91640109D01*
X134863739Y-91657978D01*
X134925000Y-91664012D01*
X134971875Y-91662500D01*
X135050000Y-91584375D01*
X135050000Y-91212500D01*
X134690625Y-91212500D01*
X134612500Y-91290625D01*
X134610988Y-91350000D01*
X122337500Y-91350000D01*
X122337500Y-79296369D01*
X123932504Y-79296369D01*
X123932504Y-79703631D01*
X124011956Y-80103066D01*
X124167809Y-80479327D01*
X124394071Y-80817952D01*
X124682048Y-81105929D01*
X125020673Y-81332191D01*
X125396934Y-81488044D01*
X125796369Y-81567496D01*
X126203631Y-81567496D01*
X126603066Y-81488044D01*
X126979327Y-81332191D01*
X127317952Y-81105929D01*
X127605929Y-80817952D01*
X127832191Y-80479327D01*
X127988044Y-80103066D01*
X128067496Y-79703631D01*
X128067496Y-79296369D01*
X127988044Y-78896934D01*
X127832191Y-78520673D01*
X127605929Y-78182048D01*
X127317952Y-77894071D01*
X126979327Y-77667809D01*
X126603066Y-77511956D01*
X126203631Y-77432504D01*
X125796369Y-77432504D01*
X125396934Y-77511956D01*
X125020673Y-77667809D01*
X124682048Y-77894071D01*
X124394071Y-78182048D01*
X124167809Y-78520673D01*
X124011956Y-78896934D01*
X123932504Y-79296369D01*
X122337500Y-79296369D01*
X122337500Y-77152411D01*
X128382852Y-77152411D01*
X128385090Y-77175133D01*
X128385089Y-87339682D01*
X128382852Y-87362394D01*
X128385089Y-87385105D01*
X128391782Y-87453059D01*
X128418228Y-87540240D01*
X128461174Y-87620587D01*
X128518970Y-87691013D01*
X128536619Y-87705497D01*
X130992096Y-90160975D01*
X131006576Y-90178619D01*
X131077001Y-90236415D01*
X131157348Y-90279361D01*
X131209866Y-90295292D01*
X131244528Y-90305807D01*
X131335194Y-90314737D01*
X131357906Y-90312500D01*
X134619339Y-90312500D01*
X134618823Y-90314200D01*
X134610988Y-90393750D01*
X134610988Y-90606250D01*
X134618823Y-90685800D01*
X134642027Y-90762294D01*
X134656509Y-90789388D01*
X134634891Y-90829833D01*
X134617022Y-90888739D01*
X134610988Y-90950000D01*
X134612500Y-91009375D01*
X134690625Y-91087500D01*
X135050000Y-91087500D01*
X135050000Y-91067500D01*
X135175000Y-91067500D01*
X135175000Y-91087500D01*
X135189681Y-91087500D01*
X135195000Y-91141504D01*
X135195000Y-91212500D01*
X135175000Y-91212500D01*
X135175000Y-91584375D01*
X135253125Y-91662500D01*
X135300000Y-91664012D01*
X135361261Y-91657978D01*
X135420167Y-91640109D01*
X135474456Y-91611091D01*
X135522040Y-91572040D01*
X135526284Y-91566868D01*
X135534162Y-91571079D01*
X135639967Y-91603175D01*
X135750000Y-91614012D01*
X136250000Y-91614012D01*
X136360033Y-91603175D01*
X136425000Y-91583467D01*
X136425001Y-92439778D01*
X136422763Y-92462500D01*
X136431693Y-92553165D01*
X136447995Y-92606904D01*
X136458140Y-92640347D01*
X136501086Y-92720694D01*
X136558882Y-92791119D01*
X136576526Y-92805599D01*
X137681901Y-93910975D01*
X137696381Y-93928619D01*
X137766806Y-93986415D01*
X137847153Y-94029361D01*
X137934334Y-94055807D01*
X138025000Y-94064737D01*
X138047712Y-94062500D01*
X141527288Y-94062500D01*
X141550000Y-94064737D01*
X141572712Y-94062500D01*
X141640666Y-94055807D01*
X141727847Y-94029361D01*
X141808194Y-93986415D01*
X141878619Y-93928619D01*
X141893103Y-93910970D01*
X142510971Y-93293102D01*
X142528619Y-93278619D01*
X142586415Y-93208194D01*
X142620624Y-93144193D01*
X142629361Y-93127848D01*
X142655807Y-93040666D01*
X142664737Y-92950000D01*
X142662500Y-92927288D01*
X142662500Y-90147711D01*
X142664737Y-90124999D01*
X142655807Y-90034333D01*
X142636763Y-89971555D01*
X142629361Y-89947153D01*
X142586415Y-89866806D01*
X142528619Y-89796381D01*
X142510975Y-89781901D01*
X141876512Y-89147439D01*
X141876512Y-88543750D01*
X141865795Y-88434936D01*
X141834055Y-88330304D01*
X141782512Y-88233874D01*
X141713147Y-88149353D01*
X141628626Y-88079988D01*
X141532196Y-88028445D01*
X141427564Y-87996705D01*
X141318750Y-87985988D01*
X140831250Y-87985988D01*
X140722436Y-87996705D01*
X140617804Y-88028445D01*
X140521374Y-88079988D01*
X140436853Y-88149353D01*
X140367488Y-88233874D01*
X140315945Y-88330304D01*
X140284205Y-88434936D01*
X140273488Y-88543750D01*
X140273488Y-89456250D01*
X140284205Y-89565064D01*
X140315945Y-89669696D01*
X140367488Y-89766126D01*
X140436853Y-89850647D01*
X140521374Y-89920012D01*
X140617804Y-89971555D01*
X140722436Y-90003295D01*
X140831250Y-90014012D01*
X141318750Y-90014012D01*
X141424521Y-90003595D01*
X141737501Y-90316575D01*
X141737500Y-92758427D01*
X141358427Y-93137500D01*
X138216574Y-93137500D01*
X137350000Y-92270927D01*
X137350000Y-91427210D01*
X137357973Y-91412294D01*
X137381177Y-91335800D01*
X137389012Y-91256250D01*
X137389012Y-91043750D01*
X137381177Y-90964200D01*
X137357973Y-90887706D01*
X137343491Y-90860612D01*
X137365109Y-90820167D01*
X137382978Y-90761261D01*
X137389012Y-90700000D01*
X137387500Y-90640625D01*
X137309375Y-90562500D01*
X136950000Y-90562500D01*
X136950000Y-90582500D01*
X136825000Y-90582500D01*
X136825000Y-90562500D01*
X136814012Y-90562500D01*
X136814012Y-90437500D01*
X136825000Y-90437500D01*
X136825000Y-90417500D01*
X136950000Y-90417500D01*
X136950000Y-90437500D01*
X137309375Y-90437500D01*
X137387500Y-90359375D01*
X137389012Y-90300000D01*
X137382978Y-90238739D01*
X137365109Y-90179833D01*
X137343491Y-90139388D01*
X137357973Y-90112294D01*
X137381177Y-90035800D01*
X137389012Y-89956250D01*
X137389012Y-89743750D01*
X137381177Y-89664200D01*
X137357973Y-89587706D01*
X137350000Y-89572790D01*
X137350000Y-89462500D01*
X138399104Y-89462500D01*
X138409205Y-89565064D01*
X138440945Y-89669696D01*
X138492488Y-89766126D01*
X138561853Y-89850647D01*
X138646374Y-89920012D01*
X138737500Y-89968720D01*
X138737500Y-90060412D01*
X138720808Y-90071565D01*
X138621565Y-90170808D01*
X138543591Y-90287505D01*
X138489881Y-90417172D01*
X138462500Y-90554825D01*
X138462500Y-90695175D01*
X138489881Y-90832828D01*
X138543591Y-90962495D01*
X138621565Y-91079192D01*
X138720808Y-91178435D01*
X138737501Y-91189589D01*
X138737501Y-91272853D01*
X138685263Y-91300775D01*
X138604530Y-91367030D01*
X138538275Y-91447763D01*
X138489042Y-91539871D01*
X138458725Y-91639813D01*
X138448488Y-91743750D01*
X138448488Y-92256250D01*
X138458725Y-92360187D01*
X138489042Y-92460129D01*
X138538275Y-92552237D01*
X138604530Y-92632970D01*
X138685263Y-92699225D01*
X138777371Y-92748458D01*
X138877313Y-92778775D01*
X138981250Y-92789012D01*
X139418750Y-92789012D01*
X139522687Y-92778775D01*
X139622629Y-92748458D01*
X139714737Y-92699225D01*
X139795470Y-92632970D01*
X139861725Y-92552237D01*
X139903009Y-92475000D01*
X140023488Y-92475000D01*
X140029522Y-92536261D01*
X140047391Y-92595167D01*
X140076409Y-92649456D01*
X140115460Y-92697040D01*
X140163044Y-92736091D01*
X140217333Y-92765109D01*
X140276239Y-92782978D01*
X140337500Y-92789012D01*
X140634375Y-92787500D01*
X140712500Y-92709375D01*
X140712500Y-92062500D01*
X140837500Y-92062500D01*
X140837500Y-92709375D01*
X140915625Y-92787500D01*
X141212500Y-92789012D01*
X141273761Y-92782978D01*
X141332667Y-92765109D01*
X141386956Y-92736091D01*
X141434540Y-92697040D01*
X141473591Y-92649456D01*
X141502609Y-92595167D01*
X141520478Y-92536261D01*
X141526512Y-92475000D01*
X141525000Y-92140625D01*
X141446875Y-92062500D01*
X140837500Y-92062500D01*
X140712500Y-92062500D01*
X140103125Y-92062500D01*
X140025000Y-92140625D01*
X140023488Y-92475000D01*
X139903009Y-92475000D01*
X139910958Y-92460129D01*
X139941275Y-92360187D01*
X139951512Y-92256250D01*
X139951512Y-91743750D01*
X139941275Y-91639813D01*
X139910958Y-91539871D01*
X139903010Y-91525000D01*
X140023488Y-91525000D01*
X140025000Y-91859375D01*
X140103125Y-91937500D01*
X140712500Y-91937500D01*
X140712500Y-91290625D01*
X140837500Y-91290625D01*
X140837500Y-91937500D01*
X141446875Y-91937500D01*
X141525000Y-91859375D01*
X141526512Y-91525000D01*
X141520478Y-91463739D01*
X141502609Y-91404833D01*
X141473591Y-91350544D01*
X141434540Y-91302960D01*
X141386956Y-91263909D01*
X141332667Y-91234891D01*
X141273761Y-91217022D01*
X141212500Y-91210988D01*
X140915625Y-91212500D01*
X140837500Y-91290625D01*
X140712500Y-91290625D01*
X140634375Y-91212500D01*
X140337500Y-91210988D01*
X140276239Y-91217022D01*
X140217333Y-91234891D01*
X140163044Y-91263909D01*
X140115460Y-91302960D01*
X140076409Y-91350544D01*
X140047391Y-91404833D01*
X140029522Y-91463739D01*
X140023488Y-91525000D01*
X139903010Y-91525000D01*
X139861725Y-91447763D01*
X139795470Y-91367030D01*
X139714737Y-91300775D01*
X139662500Y-91272854D01*
X139662500Y-91145127D01*
X139728435Y-91079192D01*
X139806409Y-90962495D01*
X139860119Y-90832828D01*
X139887500Y-90695175D01*
X139887500Y-90554825D01*
X139860119Y-90417172D01*
X139806409Y-90287505D01*
X139728435Y-90170808D01*
X139662500Y-90104873D01*
X139662500Y-89968720D01*
X139753626Y-89920012D01*
X139838147Y-89850647D01*
X139907512Y-89766126D01*
X139959055Y-89669696D01*
X139990795Y-89565064D01*
X140001512Y-89456250D01*
X140001512Y-88543750D01*
X139990795Y-88434936D01*
X139959055Y-88330304D01*
X139907512Y-88233874D01*
X139838147Y-88149353D01*
X139753626Y-88079988D01*
X139657196Y-88028445D01*
X139552564Y-87996705D01*
X139443750Y-87985988D01*
X138956250Y-87985988D01*
X138847436Y-87996705D01*
X138742804Y-88028445D01*
X138646374Y-88079988D01*
X138561853Y-88149353D01*
X138492488Y-88233874D01*
X138440945Y-88330304D01*
X138409205Y-88434936D01*
X138399104Y-88537500D01*
X136922712Y-88537500D01*
X136900000Y-88535263D01*
X136877288Y-88537500D01*
X131316573Y-88537500D01*
X129762500Y-86983427D01*
X129762500Y-86180000D01*
X130085988Y-86180000D01*
X130092022Y-86241261D01*
X130109891Y-86300167D01*
X130138909Y-86354456D01*
X130177960Y-86402040D01*
X130225544Y-86441091D01*
X130279833Y-86470109D01*
X130338739Y-86487978D01*
X130400000Y-86494012D01*
X131459375Y-86492500D01*
X131537500Y-86414375D01*
X131537500Y-85872500D01*
X131662500Y-85872500D01*
X131662500Y-86414375D01*
X131740625Y-86492500D01*
X132800000Y-86494012D01*
X132861261Y-86487978D01*
X132920167Y-86470109D01*
X132974456Y-86441091D01*
X133022040Y-86402040D01*
X133061091Y-86354456D01*
X133090109Y-86300167D01*
X133107978Y-86241261D01*
X133114012Y-86180000D01*
X133112500Y-85950625D01*
X133034375Y-85872500D01*
X131662500Y-85872500D01*
X131537500Y-85872500D01*
X130165625Y-85872500D01*
X130087500Y-85950625D01*
X130085988Y-86180000D01*
X129762500Y-86180000D01*
X129762500Y-83640000D01*
X130085988Y-83640000D01*
X130092022Y-83701261D01*
X130109891Y-83760167D01*
X130138909Y-83814456D01*
X130177960Y-83862040D01*
X130225544Y-83901091D01*
X130232857Y-83905000D01*
X130225544Y-83908909D01*
X130177960Y-83947960D01*
X130138909Y-83995544D01*
X130109891Y-84049833D01*
X130092022Y-84108739D01*
X130085988Y-84170000D01*
X130085988Y-84910000D01*
X130092022Y-84971261D01*
X130109891Y-85030167D01*
X130138909Y-85084456D01*
X130177960Y-85132040D01*
X130225544Y-85171091D01*
X130232857Y-85175000D01*
X130225544Y-85178909D01*
X130177960Y-85217960D01*
X130138909Y-85265544D01*
X130109891Y-85319833D01*
X130092022Y-85378739D01*
X130085988Y-85440000D01*
X130087500Y-85669375D01*
X130165625Y-85747500D01*
X131537500Y-85747500D01*
X131537500Y-85727500D01*
X131662500Y-85727500D01*
X131662500Y-85747500D01*
X133034375Y-85747500D01*
X133112500Y-85669375D01*
X133114012Y-85440000D01*
X133107978Y-85378739D01*
X133090109Y-85319833D01*
X133061091Y-85265544D01*
X133022040Y-85217960D01*
X132974456Y-85178909D01*
X132967143Y-85175000D01*
X132974456Y-85171091D01*
X133022040Y-85132040D01*
X133061091Y-85084456D01*
X133090109Y-85030167D01*
X133107978Y-84971261D01*
X133114012Y-84910000D01*
X133114012Y-84170000D01*
X133107978Y-84108739D01*
X133090109Y-84049833D01*
X133061091Y-83995544D01*
X133022040Y-83947960D01*
X132974456Y-83908909D01*
X132967143Y-83905000D01*
X132974456Y-83901091D01*
X133022040Y-83862040D01*
X133061091Y-83814456D01*
X133090109Y-83760167D01*
X133107978Y-83701261D01*
X133114012Y-83640000D01*
X133112500Y-83410625D01*
X133034375Y-83332500D01*
X131662500Y-83332500D01*
X131662500Y-83352500D01*
X131537500Y-83352500D01*
X131537500Y-83332500D01*
X130165625Y-83332500D01*
X130087500Y-83410625D01*
X130085988Y-83640000D01*
X129762500Y-83640000D01*
X129762500Y-82370000D01*
X130085988Y-82370000D01*
X130092022Y-82431261D01*
X130109891Y-82490167D01*
X130138909Y-82544456D01*
X130177960Y-82592040D01*
X130225544Y-82631091D01*
X130232857Y-82635000D01*
X130225544Y-82638909D01*
X130177960Y-82677960D01*
X130138909Y-82725544D01*
X130109891Y-82779833D01*
X130092022Y-82838739D01*
X130085988Y-82900000D01*
X130087500Y-83129375D01*
X130165625Y-83207500D01*
X131537500Y-83207500D01*
X131537500Y-82665625D01*
X131506875Y-82635000D01*
X131537500Y-82604375D01*
X131537500Y-82062500D01*
X131662500Y-82062500D01*
X131662500Y-82604375D01*
X131693125Y-82635000D01*
X131662500Y-82665625D01*
X131662500Y-83207500D01*
X133034375Y-83207500D01*
X133112500Y-83129375D01*
X133114012Y-82900000D01*
X133107978Y-82838739D01*
X133090109Y-82779833D01*
X133061091Y-82725544D01*
X133022040Y-82677960D01*
X132974456Y-82638909D01*
X132967143Y-82635000D01*
X132974456Y-82631091D01*
X133022040Y-82592040D01*
X133061091Y-82544456D01*
X133090109Y-82490167D01*
X133107978Y-82431261D01*
X133114012Y-82370000D01*
X133112500Y-82140625D01*
X133034375Y-82062500D01*
X131662500Y-82062500D01*
X131537500Y-82062500D01*
X130165625Y-82062500D01*
X130087500Y-82140625D01*
X130085988Y-82370000D01*
X129762500Y-82370000D01*
X129762500Y-81721573D01*
X130170781Y-81313292D01*
X130177960Y-81322040D01*
X130225544Y-81361091D01*
X130232857Y-81365000D01*
X130225544Y-81368909D01*
X130177960Y-81407960D01*
X130138909Y-81455544D01*
X130109891Y-81509833D01*
X130092022Y-81568739D01*
X130085988Y-81630000D01*
X130087500Y-81859375D01*
X130165625Y-81937500D01*
X131537500Y-81937500D01*
X131537500Y-81917500D01*
X131662500Y-81917500D01*
X131662500Y-81937500D01*
X133034375Y-81937500D01*
X133112500Y-81859375D01*
X133114012Y-81630000D01*
X133107978Y-81568739D01*
X133090109Y-81509833D01*
X133061091Y-81455544D01*
X133022040Y-81407960D01*
X132974456Y-81368909D01*
X132967143Y-81365000D01*
X132974456Y-81361091D01*
X133022040Y-81322040D01*
X133061091Y-81274456D01*
X133090109Y-81220167D01*
X133107978Y-81161261D01*
X133114012Y-81100000D01*
X133114012Y-80360000D01*
X133107978Y-80298739D01*
X133090109Y-80239833D01*
X133061091Y-80185544D01*
X133052438Y-80175000D01*
X133234420Y-80175000D01*
X133236301Y-80194097D01*
X133236300Y-81458312D01*
X133234420Y-81477400D01*
X133238633Y-81520175D01*
X133241925Y-81553597D01*
X133264151Y-81626867D01*
X133300245Y-81694394D01*
X133348818Y-81753582D01*
X133363651Y-81765755D01*
X133859249Y-82261354D01*
X133871418Y-82276182D01*
X133930605Y-82324755D01*
X133985988Y-82354358D01*
X133985988Y-82370000D01*
X133992022Y-82431261D01*
X134009891Y-82490167D01*
X134038909Y-82544456D01*
X134077960Y-82592040D01*
X134125544Y-82631091D01*
X134132857Y-82635000D01*
X134125544Y-82638909D01*
X134077960Y-82677960D01*
X134038909Y-82725544D01*
X134009891Y-82779833D01*
X133992022Y-82838739D01*
X133985988Y-82900000D01*
X133985988Y-83640000D01*
X133992022Y-83701261D01*
X134009891Y-83760167D01*
X134038909Y-83814456D01*
X134077960Y-83862040D01*
X134125544Y-83901091D01*
X134132857Y-83905000D01*
X134125544Y-83908909D01*
X134077960Y-83947960D01*
X134038909Y-83995544D01*
X134009891Y-84049833D01*
X133992022Y-84108739D01*
X133985988Y-84170000D01*
X133985988Y-84910000D01*
X133992022Y-84971261D01*
X134009891Y-85030167D01*
X134038909Y-85084456D01*
X134077960Y-85132040D01*
X134125544Y-85171091D01*
X134132857Y-85175000D01*
X134125544Y-85178909D01*
X134077960Y-85217960D01*
X134038909Y-85265544D01*
X134009891Y-85319833D01*
X133992022Y-85378739D01*
X133985988Y-85440000D01*
X133985988Y-86180000D01*
X133992022Y-86241261D01*
X134009891Y-86300167D01*
X134038909Y-86354456D01*
X134077960Y-86402040D01*
X134125544Y-86441091D01*
X134179833Y-86470109D01*
X134238739Y-86487978D01*
X134300000Y-86494012D01*
X136700000Y-86494012D01*
X136761261Y-86487978D01*
X136820167Y-86470109D01*
X136874456Y-86441091D01*
X136922040Y-86402040D01*
X136961091Y-86354456D01*
X136990109Y-86300167D01*
X137007978Y-86241261D01*
X137012170Y-86198700D01*
X140698996Y-86198700D01*
X146206650Y-91706355D01*
X146218818Y-91721182D01*
X146278005Y-91769755D01*
X146345532Y-91805849D01*
X146418802Y-91828075D01*
X146449558Y-91831104D01*
X146459891Y-91865167D01*
X146488909Y-91919456D01*
X146527960Y-91967040D01*
X146575544Y-92006091D01*
X146629833Y-92035109D01*
X146688739Y-92052978D01*
X146750000Y-92059012D01*
X149250000Y-92059012D01*
X149311261Y-92052978D01*
X149370167Y-92035109D01*
X149424456Y-92006091D01*
X149472040Y-91967040D01*
X149511091Y-91919456D01*
X149540109Y-91865167D01*
X149557978Y-91806261D01*
X149564012Y-91745000D01*
X149564012Y-91145000D01*
X149557978Y-91083739D01*
X149540109Y-91024833D01*
X149511091Y-90970544D01*
X149472040Y-90922960D01*
X149424456Y-90883909D01*
X149370167Y-90854891D01*
X149311261Y-90837022D01*
X149250000Y-90830988D01*
X146750000Y-90830988D01*
X146688739Y-90837022D01*
X146629833Y-90854891D01*
X146575544Y-90883909D01*
X146527960Y-90922960D01*
X146525573Y-90925868D01*
X141148355Y-85548651D01*
X141136182Y-85533818D01*
X141076995Y-85485245D01*
X141009468Y-85449151D01*
X140936198Y-85426925D01*
X140879088Y-85421300D01*
X140879087Y-85421300D01*
X140860000Y-85419420D01*
X140840913Y-85421300D01*
X137012170Y-85421300D01*
X137007978Y-85378739D01*
X136990109Y-85319833D01*
X136961091Y-85265544D01*
X136922040Y-85217960D01*
X136874456Y-85178909D01*
X136867143Y-85175000D01*
X136874456Y-85171091D01*
X136922040Y-85132040D01*
X136961091Y-85084456D01*
X136990109Y-85030167D01*
X137007978Y-84971261D01*
X137014012Y-84910000D01*
X137014012Y-84170000D01*
X137007978Y-84108739D01*
X136990109Y-84049833D01*
X136961091Y-83995544D01*
X136922040Y-83947960D01*
X136874456Y-83908909D01*
X136867143Y-83905000D01*
X136874456Y-83901091D01*
X136922040Y-83862040D01*
X136961091Y-83814456D01*
X136990109Y-83760167D01*
X137007978Y-83701261D01*
X137014012Y-83640000D01*
X137014012Y-82900000D01*
X137007978Y-82838739D01*
X136990109Y-82779833D01*
X136961091Y-82725544D01*
X136922040Y-82677960D01*
X136874456Y-82638909D01*
X136867143Y-82635000D01*
X136874456Y-82631091D01*
X136922040Y-82592040D01*
X136961091Y-82544456D01*
X136990109Y-82490167D01*
X137007978Y-82431261D01*
X137014012Y-82370000D01*
X137014012Y-81630000D01*
X137007978Y-81568739D01*
X136990109Y-81509833D01*
X136961091Y-81455544D01*
X136922040Y-81407960D01*
X136874456Y-81368909D01*
X136867143Y-81365000D01*
X136874456Y-81361091D01*
X136922040Y-81322040D01*
X136961091Y-81274456D01*
X136983266Y-81232970D01*
X146186650Y-90436355D01*
X146198818Y-90451182D01*
X146258005Y-90499755D01*
X146325532Y-90535849D01*
X146386555Y-90554360D01*
X146398802Y-90558075D01*
X146450174Y-90563135D01*
X146459891Y-90595167D01*
X146488909Y-90649456D01*
X146527960Y-90697040D01*
X146575544Y-90736091D01*
X146629833Y-90765109D01*
X146688739Y-90782978D01*
X146750000Y-90789012D01*
X149250000Y-90789012D01*
X149311261Y-90782978D01*
X149370167Y-90765109D01*
X149424456Y-90736091D01*
X149472040Y-90697040D01*
X149511091Y-90649456D01*
X149540109Y-90595167D01*
X149557978Y-90536261D01*
X149564012Y-90475000D01*
X149564012Y-89875000D01*
X149557978Y-89813739D01*
X149540109Y-89754833D01*
X149511091Y-89700544D01*
X149472040Y-89652960D01*
X149424456Y-89613909D01*
X149370167Y-89584891D01*
X149311261Y-89567022D01*
X149250000Y-89560988D01*
X146750000Y-89560988D01*
X146688739Y-89567022D01*
X146629833Y-89584891D01*
X146575544Y-89613909D01*
X146527960Y-89652960D01*
X146516558Y-89666853D01*
X137318355Y-80468651D01*
X137306182Y-80453818D01*
X137246995Y-80405245D01*
X137179468Y-80369151D01*
X137106198Y-80346925D01*
X137049088Y-80341300D01*
X137049087Y-80341300D01*
X137030000Y-80339420D01*
X137012158Y-80341177D01*
X137007978Y-80298739D01*
X136990109Y-80239833D01*
X136962778Y-80188700D01*
X137213996Y-80188700D01*
X146191650Y-89166355D01*
X146203818Y-89181182D01*
X146263005Y-89229755D01*
X146330532Y-89265849D01*
X146403802Y-89288075D01*
X146450020Y-89292627D01*
X146459891Y-89325167D01*
X146488909Y-89379456D01*
X146527960Y-89427040D01*
X146575544Y-89466091D01*
X146629833Y-89495109D01*
X146688739Y-89512978D01*
X146750000Y-89519012D01*
X149250000Y-89519012D01*
X149311261Y-89512978D01*
X149370167Y-89495109D01*
X149424456Y-89466091D01*
X149472040Y-89427040D01*
X149511091Y-89379456D01*
X149540109Y-89325167D01*
X149557978Y-89266261D01*
X149564012Y-89205000D01*
X149564012Y-88605000D01*
X149557978Y-88543739D01*
X149540109Y-88484833D01*
X149511091Y-88430544D01*
X149472040Y-88382960D01*
X149424456Y-88343909D01*
X149370167Y-88314891D01*
X149311261Y-88297022D01*
X149250000Y-88290988D01*
X146750000Y-88290988D01*
X146688739Y-88297022D01*
X146629833Y-88314891D01*
X146575544Y-88343909D01*
X146527960Y-88382960D01*
X146518812Y-88394107D01*
X137663355Y-79538651D01*
X137651182Y-79523818D01*
X137591995Y-79475245D01*
X137524468Y-79439151D01*
X137451198Y-79416925D01*
X137394088Y-79411300D01*
X137394087Y-79411300D01*
X137375000Y-79409420D01*
X137355913Y-79411300D01*
X134019087Y-79411300D01*
X133999999Y-79409420D01*
X133980912Y-79411300D01*
X133923802Y-79416925D01*
X133850532Y-79439151D01*
X133783005Y-79475245D01*
X133723818Y-79523818D01*
X133711649Y-79538646D01*
X133363646Y-79886650D01*
X133348819Y-79898818D01*
X133336651Y-79913645D01*
X133300245Y-79958006D01*
X133264152Y-80025532D01*
X133241925Y-80098803D01*
X133234420Y-80175000D01*
X133052438Y-80175000D01*
X133022040Y-80137960D01*
X132974456Y-80098909D01*
X132920167Y-80069891D01*
X132861261Y-80052022D01*
X132800000Y-80045988D01*
X130400000Y-80045988D01*
X130338739Y-80052022D01*
X130279833Y-80069891D01*
X130225544Y-80098909D01*
X130177960Y-80137960D01*
X130138909Y-80185544D01*
X130109891Y-80239833D01*
X130102114Y-80265471D01*
X130100000Y-80265263D01*
X130009334Y-80274193D01*
X129922152Y-80300639D01*
X129894166Y-80315599D01*
X129841806Y-80343585D01*
X129771381Y-80401381D01*
X129756897Y-80419030D01*
X129310089Y-80865838D01*
X129310089Y-77343984D01*
X130490061Y-76164012D01*
X131484939Y-76164012D01*
X132756901Y-77435975D01*
X132771381Y-77453619D01*
X132841806Y-77511415D01*
X132922153Y-77554361D01*
X132982887Y-77572784D01*
X133009333Y-77580807D01*
X133099999Y-77589737D01*
X133122711Y-77587500D01*
X135748427Y-77587500D01*
X146106901Y-87945975D01*
X146121381Y-87963619D01*
X146139023Y-87978097D01*
X146191806Y-88021415D01*
X146272153Y-88064361D01*
X146359334Y-88090807D01*
X146450000Y-88099737D01*
X146472712Y-88097500D01*
X146482518Y-88097500D01*
X146488909Y-88109456D01*
X146527960Y-88157040D01*
X146575544Y-88196091D01*
X146629833Y-88225109D01*
X146688739Y-88242978D01*
X146750000Y-88249012D01*
X149250000Y-88249012D01*
X149311261Y-88242978D01*
X149370167Y-88225109D01*
X149424456Y-88196091D01*
X149472040Y-88157040D01*
X149511091Y-88109456D01*
X149540109Y-88055167D01*
X149557978Y-87996261D01*
X149564012Y-87935000D01*
X149564012Y-87335000D01*
X149557978Y-87273739D01*
X149540109Y-87214833D01*
X149511091Y-87160544D01*
X149472040Y-87112960D01*
X149424456Y-87073909D01*
X149370167Y-87044891D01*
X149311261Y-87027022D01*
X149250000Y-87020988D01*
X146750000Y-87020988D01*
X146688739Y-87027022D01*
X146629833Y-87044891D01*
X146575544Y-87073909D01*
X146557660Y-87088586D01*
X146134074Y-86665000D01*
X146435988Y-86665000D01*
X146442022Y-86726261D01*
X146459891Y-86785167D01*
X146488909Y-86839456D01*
X146527960Y-86887040D01*
X146575544Y-86926091D01*
X146629833Y-86955109D01*
X146688739Y-86972978D01*
X146750000Y-86979012D01*
X147859375Y-86977500D01*
X147937500Y-86899375D01*
X147937500Y-86427500D01*
X148062500Y-86427500D01*
X148062500Y-86899375D01*
X148140625Y-86977500D01*
X149250000Y-86979012D01*
X149311261Y-86972978D01*
X149370167Y-86955109D01*
X149424456Y-86926091D01*
X149472040Y-86887040D01*
X149511091Y-86839456D01*
X149540109Y-86785167D01*
X149557978Y-86726261D01*
X149564012Y-86665000D01*
X149562500Y-86505625D01*
X149484375Y-86427500D01*
X148062500Y-86427500D01*
X147937500Y-86427500D01*
X146515625Y-86427500D01*
X146437500Y-86505625D01*
X146435988Y-86665000D01*
X146134074Y-86665000D01*
X145534074Y-86065000D01*
X146435988Y-86065000D01*
X146437500Y-86224375D01*
X146515625Y-86302500D01*
X147937500Y-86302500D01*
X147937500Y-85830625D01*
X148062500Y-85830625D01*
X148062500Y-86302500D01*
X149484375Y-86302500D01*
X149562500Y-86224375D01*
X149564012Y-86065000D01*
X149557978Y-86003739D01*
X149540109Y-85944833D01*
X149511091Y-85890544D01*
X149472040Y-85842960D01*
X149424456Y-85803909D01*
X149370167Y-85774891D01*
X149311261Y-85757022D01*
X149250000Y-85750988D01*
X148140625Y-85752500D01*
X148062500Y-85830625D01*
X147937500Y-85830625D01*
X147859375Y-85752500D01*
X146750000Y-85750988D01*
X146688739Y-85757022D01*
X146629833Y-85774891D01*
X146575544Y-85803909D01*
X146527960Y-85842960D01*
X146488909Y-85890544D01*
X146459891Y-85944833D01*
X146442022Y-86003739D01*
X146435988Y-86065000D01*
X145534074Y-86065000D01*
X136444074Y-76975000D01*
X144134420Y-76975000D01*
X144136300Y-76994087D01*
X144136301Y-83003303D01*
X144134420Y-83022400D01*
X144141925Y-83098597D01*
X144164152Y-83171868D01*
X144197839Y-83234891D01*
X144200246Y-83239395D01*
X144248819Y-83298582D01*
X144263646Y-83310750D01*
X146309250Y-85356355D01*
X146321418Y-85371182D01*
X146380605Y-85419755D01*
X146441640Y-85452379D01*
X146442022Y-85456261D01*
X146459891Y-85515167D01*
X146488909Y-85569456D01*
X146527960Y-85617040D01*
X146575544Y-85656091D01*
X146629833Y-85685109D01*
X146688739Y-85702978D01*
X146750000Y-85709012D01*
X149250000Y-85709012D01*
X149311261Y-85702978D01*
X149370167Y-85685109D01*
X149424456Y-85656091D01*
X149472040Y-85617040D01*
X149511091Y-85569456D01*
X149540109Y-85515167D01*
X149557978Y-85456261D01*
X149564012Y-85395000D01*
X149564012Y-84795000D01*
X149557978Y-84733739D01*
X149540109Y-84674833D01*
X149511091Y-84620544D01*
X149472040Y-84572960D01*
X149424456Y-84533909D01*
X149370167Y-84504891D01*
X149311261Y-84487022D01*
X149250000Y-84480988D01*
X146750000Y-84480988D01*
X146688739Y-84487022D01*
X146629833Y-84504891D01*
X146582497Y-84530192D01*
X144913700Y-82861396D01*
X144913700Y-80323790D01*
X145285630Y-80323790D01*
X145287510Y-80342877D01*
X145287511Y-82884513D01*
X145285630Y-82903610D01*
X145293135Y-82979807D01*
X145306056Y-83022400D01*
X145315362Y-83053078D01*
X145351456Y-83120605D01*
X145400029Y-83179792D01*
X145414856Y-83191960D01*
X146309249Y-84086354D01*
X146321418Y-84101182D01*
X146380605Y-84149755D01*
X146441640Y-84182379D01*
X146442022Y-84186261D01*
X146459891Y-84245167D01*
X146488909Y-84299456D01*
X146527960Y-84347040D01*
X146575544Y-84386091D01*
X146629833Y-84415109D01*
X146688739Y-84432978D01*
X146750000Y-84439012D01*
X149250000Y-84439012D01*
X149311261Y-84432978D01*
X149370167Y-84415109D01*
X149424456Y-84386091D01*
X149472040Y-84347040D01*
X149511091Y-84299456D01*
X149540109Y-84245167D01*
X149557978Y-84186261D01*
X149564012Y-84125000D01*
X149564012Y-83525000D01*
X149557978Y-83463739D01*
X149540109Y-83404833D01*
X149511091Y-83350544D01*
X149472040Y-83302960D01*
X149424456Y-83263909D01*
X149370167Y-83234891D01*
X149311261Y-83217022D01*
X149250000Y-83210988D01*
X146750000Y-83210988D01*
X146688739Y-83217022D01*
X146629833Y-83234891D01*
X146582497Y-83260192D01*
X146064910Y-82742606D01*
X146064910Y-82255000D01*
X146435988Y-82255000D01*
X146435988Y-82855000D01*
X146442022Y-82916261D01*
X146459891Y-82975167D01*
X146488909Y-83029456D01*
X146527960Y-83077040D01*
X146575544Y-83116091D01*
X146629833Y-83145109D01*
X146688739Y-83162978D01*
X146750000Y-83169012D01*
X149250000Y-83169012D01*
X149311261Y-83162978D01*
X149370167Y-83145109D01*
X149424456Y-83116091D01*
X149472040Y-83077040D01*
X149511091Y-83029456D01*
X149540109Y-82975167D01*
X149557978Y-82916261D01*
X149564012Y-82855000D01*
X149564012Y-82255000D01*
X149557978Y-82193739D01*
X149540109Y-82134833D01*
X149511091Y-82080544D01*
X149472040Y-82032960D01*
X149424456Y-81993909D01*
X149370167Y-81964891D01*
X149311261Y-81947022D01*
X149250000Y-81940988D01*
X148516639Y-81940988D01*
X148553435Y-81904192D01*
X148631409Y-81787495D01*
X148685119Y-81657828D01*
X148712500Y-81520175D01*
X148712500Y-81379825D01*
X148685119Y-81242172D01*
X148631409Y-81112505D01*
X148553435Y-80995808D01*
X148454192Y-80896565D01*
X148337495Y-80818591D01*
X148207828Y-80764881D01*
X148070175Y-80737500D01*
X147929825Y-80737500D01*
X147792172Y-80764881D01*
X147662505Y-80818591D01*
X147545808Y-80896565D01*
X147446565Y-80995808D01*
X147368591Y-81112505D01*
X147314881Y-81242172D01*
X147287500Y-81379825D01*
X147287500Y-81520175D01*
X147314881Y-81657828D01*
X147368591Y-81787495D01*
X147446565Y-81904192D01*
X147483361Y-81940988D01*
X146750000Y-81940988D01*
X146688739Y-81947022D01*
X146629833Y-81964891D01*
X146575544Y-81993909D01*
X146527960Y-82032960D01*
X146488909Y-82080544D01*
X146459891Y-82134833D01*
X146442022Y-82193739D01*
X146435988Y-82255000D01*
X146064910Y-82255000D01*
X146064910Y-80484794D01*
X146094880Y-80454824D01*
X146188827Y-80517598D01*
X146500482Y-80646690D01*
X146831333Y-80712500D01*
X147168667Y-80712500D01*
X147499518Y-80646690D01*
X147811173Y-80517598D01*
X148091655Y-80330186D01*
X148330186Y-80091655D01*
X148517598Y-79811173D01*
X148646690Y-79499518D01*
X148712500Y-79168667D01*
X148712500Y-78831333D01*
X148646690Y-78500482D01*
X148517598Y-78188827D01*
X148330186Y-77908345D01*
X148091655Y-77669814D01*
X147811173Y-77482402D01*
X147499518Y-77353310D01*
X147168667Y-77287500D01*
X146831333Y-77287500D01*
X146500482Y-77353310D01*
X146188827Y-77482402D01*
X145908345Y-77669814D01*
X145669814Y-77908345D01*
X145482402Y-78188827D01*
X145353310Y-78500482D01*
X145287500Y-78831333D01*
X145287500Y-79168667D01*
X145353310Y-79499518D01*
X145482402Y-79811173D01*
X145545176Y-79905120D01*
X145414861Y-80035435D01*
X145400028Y-80047608D01*
X145351455Y-80106796D01*
X145315361Y-80174323D01*
X145311000Y-80188700D01*
X145293135Y-80247593D01*
X145285630Y-80323790D01*
X144913700Y-80323790D01*
X144913700Y-77136004D01*
X146094880Y-75954824D01*
X146188827Y-76017598D01*
X146500482Y-76146690D01*
X146831333Y-76212500D01*
X147168667Y-76212500D01*
X147499518Y-76146690D01*
X147811173Y-76017598D01*
X148091655Y-75830186D01*
X148330186Y-75591655D01*
X148517598Y-75311173D01*
X148646690Y-74999518D01*
X148712500Y-74668667D01*
X148712500Y-74331333D01*
X148646690Y-74000482D01*
X148517598Y-73688827D01*
X148330186Y-73408345D01*
X148091655Y-73169814D01*
X147811173Y-72982402D01*
X147499518Y-72853310D01*
X147168667Y-72787500D01*
X146831333Y-72787500D01*
X146500482Y-72853310D01*
X146188827Y-72982402D01*
X145908345Y-73169814D01*
X145669814Y-73408345D01*
X145482402Y-73688827D01*
X145353310Y-74000482D01*
X145287500Y-74331333D01*
X145287500Y-74668667D01*
X145353310Y-74999518D01*
X145482402Y-75311173D01*
X145545176Y-75405120D01*
X144263651Y-76686645D01*
X144248818Y-76698818D01*
X144200245Y-76758006D01*
X144164151Y-76825533D01*
X144151631Y-76866806D01*
X144141925Y-76898803D01*
X144134420Y-76975000D01*
X136444074Y-76975000D01*
X136283103Y-76814030D01*
X136268619Y-76796381D01*
X136198194Y-76738585D01*
X136117847Y-76695639D01*
X136030666Y-76669193D01*
X135962712Y-76662500D01*
X135940000Y-76660263D01*
X135917288Y-76662500D01*
X133291574Y-76662500D01*
X132164012Y-75534939D01*
X132164012Y-74885504D01*
X132377500Y-74885504D01*
X132377500Y-75114496D01*
X132422174Y-75339089D01*
X132509806Y-75550650D01*
X132637027Y-75741051D01*
X132798949Y-75902973D01*
X132989350Y-76030194D01*
X133200911Y-76117826D01*
X133425504Y-76162500D01*
X133654496Y-76162500D01*
X133879089Y-76117826D01*
X134090650Y-76030194D01*
X134281051Y-75902973D01*
X134442973Y-75741051D01*
X134570194Y-75550650D01*
X134657826Y-75339089D01*
X134702500Y-75114496D01*
X134702500Y-74885504D01*
X134917500Y-74885504D01*
X134917500Y-75114496D01*
X134962174Y-75339089D01*
X135049806Y-75550650D01*
X135177027Y-75741051D01*
X135338949Y-75902973D01*
X135529350Y-76030194D01*
X135740911Y-76117826D01*
X135965504Y-76162500D01*
X136194496Y-76162500D01*
X136419089Y-76117826D01*
X136630650Y-76030194D01*
X136821051Y-75902973D01*
X136982973Y-75741051D01*
X137110194Y-75550650D01*
X137197826Y-75339089D01*
X137242500Y-75114496D01*
X137242500Y-74885504D01*
X137197826Y-74660911D01*
X137110194Y-74449350D01*
X136982973Y-74258949D01*
X136821051Y-74097027D01*
X136630650Y-73969806D01*
X136419089Y-73882174D01*
X136194496Y-73837500D01*
X135965504Y-73837500D01*
X135740911Y-73882174D01*
X135529350Y-73969806D01*
X135338949Y-74097027D01*
X135177027Y-74258949D01*
X135049806Y-74449350D01*
X134962174Y-74660911D01*
X134917500Y-74885504D01*
X134702500Y-74885504D01*
X134657826Y-74660911D01*
X134570194Y-74449350D01*
X134442973Y-74258949D01*
X134281051Y-74097027D01*
X134090650Y-73969806D01*
X133879089Y-73882174D01*
X133654496Y-73837500D01*
X133425504Y-73837500D01*
X133200911Y-73882174D01*
X132989350Y-73969806D01*
X132798949Y-74097027D01*
X132637027Y-74258949D01*
X132509806Y-74449350D01*
X132422174Y-74660911D01*
X132377500Y-74885504D01*
X132164012Y-74885504D01*
X132164012Y-74150000D01*
X132157978Y-74088739D01*
X132140109Y-74029833D01*
X132111091Y-73975544D01*
X132072040Y-73927960D01*
X132024456Y-73888909D01*
X131970167Y-73859891D01*
X131911261Y-73842022D01*
X131850000Y-73835988D01*
X130150000Y-73835988D01*
X130088739Y-73842022D01*
X130029833Y-73859891D01*
X129975544Y-73888909D01*
X129927960Y-73927960D01*
X129888909Y-73975544D01*
X129859891Y-74029833D01*
X129842022Y-74088739D01*
X129835988Y-74150000D01*
X129835988Y-75509939D01*
X128536615Y-76809312D01*
X128518971Y-76823792D01*
X128461175Y-76894217D01*
X128428199Y-76955912D01*
X128418229Y-76974564D01*
X128391782Y-77061746D01*
X128382852Y-77152411D01*
X122337500Y-77152411D01*
X122337500Y-72337500D01*
X149662501Y-72337500D01*
X149662500Y-101662500D01*
G37*
X149662500Y-101662500D02*
X122337500Y-101662500D01*
X122337500Y-100475000D01*
X122673488Y-100475000D01*
X122679522Y-100536261D01*
X122697391Y-100595167D01*
X122726409Y-100649456D01*
X122765460Y-100697040D01*
X122813044Y-100736091D01*
X122867333Y-100765109D01*
X122926239Y-100782978D01*
X122987500Y-100789012D01*
X123284375Y-100787500D01*
X123362500Y-100709375D01*
X123362500Y-100062500D01*
X123487500Y-100062500D01*
X123487500Y-100709375D01*
X123565625Y-100787500D01*
X123862500Y-100789012D01*
X123923761Y-100782978D01*
X123982667Y-100765109D01*
X124036956Y-100736091D01*
X124084540Y-100697040D01*
X124123591Y-100649456D01*
X124152609Y-100595167D01*
X124170478Y-100536261D01*
X124176512Y-100475000D01*
X124175000Y-100140625D01*
X124096875Y-100062500D01*
X123487500Y-100062500D01*
X123362500Y-100062500D01*
X122753125Y-100062500D01*
X122675000Y-100140625D01*
X122673488Y-100475000D01*
X122337500Y-100475000D01*
X122337500Y-99525000D01*
X122673488Y-99525000D01*
X122675000Y-99859375D01*
X122753125Y-99937500D01*
X123362500Y-99937500D01*
X123362500Y-99290625D01*
X123487500Y-99290625D01*
X123487500Y-99937500D01*
X124096875Y-99937500D01*
X124175000Y-99859375D01*
X124175522Y-99743750D01*
X124248488Y-99743750D01*
X124248488Y-100256250D01*
X124258725Y-100360187D01*
X124289042Y-100460129D01*
X124338275Y-100552237D01*
X124404530Y-100632970D01*
X124485263Y-100699225D01*
X124577371Y-100748458D01*
X124677313Y-100778775D01*
X124781250Y-100789012D01*
X125218750Y-100789012D01*
X125322687Y-100778775D01*
X125422629Y-100748458D01*
X125504138Y-100704890D01*
X145883498Y-100704890D01*
X146039778Y-100927963D01*
X146336810Y-101087855D01*
X146659329Y-101186727D01*
X146994939Y-101220778D01*
X147330743Y-101188702D01*
X147653837Y-101091729D01*
X147951805Y-100933588D01*
X147960222Y-100927963D01*
X148116502Y-100704890D01*
X147000000Y-99588388D01*
X145883498Y-100704890D01*
X125504138Y-100704890D01*
X125514737Y-100699225D01*
X125595470Y-100632970D01*
X125661725Y-100552237D01*
X125710958Y-100460129D01*
X125732626Y-100388700D01*
X139980913Y-100388700D01*
X140000000Y-100390580D01*
X140019087Y-100388700D01*
X140019088Y-100388700D01*
X140076198Y-100383075D01*
X140149468Y-100360849D01*
X140216995Y-100324755D01*
X140276182Y-100276182D01*
X140288355Y-100261349D01*
X141054765Y-99494939D01*
X145279222Y-99494939D01*
X145311298Y-99830743D01*
X145408271Y-100153837D01*
X145566412Y-100451805D01*
X145572037Y-100460222D01*
X145795110Y-100616502D01*
X146911612Y-99500000D01*
X147088388Y-99500000D01*
X148204890Y-100616502D01*
X148427963Y-100460222D01*
X148587855Y-100163190D01*
X148686727Y-99840671D01*
X148720778Y-99505061D01*
X148688702Y-99169257D01*
X148591729Y-98846163D01*
X148433588Y-98548195D01*
X148427963Y-98539778D01*
X148204890Y-98383498D01*
X147088388Y-99500000D01*
X146911612Y-99500000D01*
X145795110Y-98383498D01*
X145572037Y-98539778D01*
X145412145Y-98836810D01*
X145313273Y-99159329D01*
X145279222Y-99494939D01*
X141054765Y-99494939D01*
X142254594Y-98295110D01*
X145883498Y-98295110D01*
X147000000Y-99411612D01*
X148116502Y-98295110D01*
X147960222Y-98072037D01*
X147663190Y-97912145D01*
X147340671Y-97813273D01*
X147005061Y-97779222D01*
X146669257Y-97811298D01*
X146346163Y-97908271D01*
X146048195Y-98066412D01*
X146039778Y-98072037D01*
X145883498Y-98295110D01*
X142254594Y-98295110D01*
X145161005Y-95388700D01*
X145331267Y-95388700D01*
X145353310Y-95499518D01*
X145482402Y-95811173D01*
X145669814Y-96091655D01*
X145908345Y-96330186D01*
X146188827Y-96517598D01*
X146500482Y-96646690D01*
X146831333Y-96712500D01*
X147168667Y-96712500D01*
X147499518Y-96646690D01*
X147811173Y-96517598D01*
X148091655Y-96330186D01*
X148330186Y-96091655D01*
X148517598Y-95811173D01*
X148646690Y-95499518D01*
X148712500Y-95168667D01*
X148712500Y-94831333D01*
X148646690Y-94500482D01*
X148517598Y-94188827D01*
X148330186Y-93908345D01*
X148091655Y-93669814D01*
X147811173Y-93482402D01*
X147499518Y-93353310D01*
X147168667Y-93287500D01*
X146831333Y-93287500D01*
X146500482Y-93353310D01*
X146188827Y-93482402D01*
X145908345Y-93669814D01*
X145669814Y-93908345D01*
X145482402Y-94188827D01*
X145353310Y-94500482D01*
X145331267Y-94611300D01*
X145019087Y-94611300D01*
X145000000Y-94609420D01*
X144980912Y-94611300D01*
X144923802Y-94616925D01*
X144850532Y-94639151D01*
X144783005Y-94675245D01*
X144723818Y-94723818D01*
X144711650Y-94738645D01*
X139838996Y-99611300D01*
X125732626Y-99611300D01*
X125710958Y-99539871D01*
X125661725Y-99447763D01*
X125595470Y-99367030D01*
X125514737Y-99300775D01*
X125422629Y-99251542D01*
X125322687Y-99221225D01*
X125218750Y-99210988D01*
X124781250Y-99210988D01*
X124677313Y-99221225D01*
X124577371Y-99251542D01*
X124485263Y-99300775D01*
X124404530Y-99367030D01*
X124338275Y-99447763D01*
X124289042Y-99539871D01*
X124258725Y-99639813D01*
X124248488Y-99743750D01*
X124175522Y-99743750D01*
X124176512Y-99525000D01*
X124170478Y-99463739D01*
X124152609Y-99404833D01*
X124123591Y-99350544D01*
X124084540Y-99302960D01*
X124036956Y-99263909D01*
X123982667Y-99234891D01*
X123923761Y-99217022D01*
X123862500Y-99210988D01*
X123565625Y-99212500D01*
X123487500Y-99290625D01*
X123362500Y-99290625D01*
X123284375Y-99212500D01*
X122987500Y-99210988D01*
X122926239Y-99217022D01*
X122867333Y-99234891D01*
X122813044Y-99263909D01*
X122765460Y-99302960D01*
X122726409Y-99350544D01*
X122697391Y-99404833D01*
X122679522Y-99463739D01*
X122673488Y-99525000D01*
X122337500Y-99525000D01*
X122337500Y-96650000D01*
X131255988Y-96650000D01*
X131255988Y-98350000D01*
X131262022Y-98411261D01*
X131279891Y-98470167D01*
X131308909Y-98524456D01*
X131347960Y-98572040D01*
X131395544Y-98611091D01*
X131449833Y-98640109D01*
X131508739Y-98657978D01*
X131570000Y-98664012D01*
X133270000Y-98664012D01*
X133331261Y-98657978D01*
X133390167Y-98640109D01*
X133444456Y-98611091D01*
X133492040Y-98572040D01*
X133531091Y-98524456D01*
X133560109Y-98470167D01*
X133577978Y-98411261D01*
X133584012Y-98350000D01*
X133584012Y-97385504D01*
X133797500Y-97385504D01*
X133797500Y-97614496D01*
X133842174Y-97839089D01*
X133929806Y-98050650D01*
X134057027Y-98241051D01*
X134218949Y-98402973D01*
X134409350Y-98530194D01*
X134620911Y-98617826D01*
X134845504Y-98662500D01*
X135074496Y-98662500D01*
X135299089Y-98617826D01*
X135510650Y-98530194D01*
X135701051Y-98402973D01*
X135862973Y-98241051D01*
X135990194Y-98050650D01*
X136077826Y-97839089D01*
X136096874Y-97743323D01*
X136363247Y-97743323D01*
X136432559Y-97960417D01*
X136542892Y-98159818D01*
X136690007Y-98333862D01*
X136868249Y-98475861D01*
X137070769Y-98580359D01*
X137256677Y-98636750D01*
X137437500Y-98582572D01*
X137437500Y-97562500D01*
X137562500Y-97562500D01*
X137562500Y-98582572D01*
X137743323Y-98636750D01*
X137929231Y-98580359D01*
X138131751Y-98475861D01*
X138309993Y-98333862D01*
X138457108Y-98159818D01*
X138567441Y-97960417D01*
X138636753Y-97743323D01*
X138582697Y-97562500D01*
X137562500Y-97562500D01*
X137437500Y-97562500D01*
X136417303Y-97562500D01*
X136363247Y-97743323D01*
X136096874Y-97743323D01*
X136122500Y-97614496D01*
X136122500Y-97385504D01*
X136096875Y-97256677D01*
X136363247Y-97256677D01*
X136417303Y-97437500D01*
X137437500Y-97437500D01*
X137437500Y-96417428D01*
X137562500Y-96417428D01*
X137562500Y-97437500D01*
X138582697Y-97437500D01*
X138636753Y-97256677D01*
X138567441Y-97039583D01*
X138457108Y-96840182D01*
X138309993Y-96666138D01*
X138131751Y-96524139D01*
X137929231Y-96419641D01*
X137743323Y-96363250D01*
X137562500Y-96417428D01*
X137437500Y-96417428D01*
X137256677Y-96363250D01*
X137070769Y-96419641D01*
X136868249Y-96524139D01*
X136690007Y-96666138D01*
X136542892Y-96840182D01*
X136432559Y-97039583D01*
X136363247Y-97256677D01*
X136096875Y-97256677D01*
X136077826Y-97160911D01*
X135990194Y-96949350D01*
X135862973Y-96758949D01*
X135701051Y-96597027D01*
X135510650Y-96469806D01*
X135299089Y-96382174D01*
X135074496Y-96337500D01*
X134845504Y-96337500D01*
X134620911Y-96382174D01*
X134409350Y-96469806D01*
X134218949Y-96597027D01*
X134057027Y-96758949D01*
X133929806Y-96949350D01*
X133842174Y-97160911D01*
X133797500Y-97385504D01*
X133584012Y-97385504D01*
X133584012Y-96650000D01*
X133577978Y-96588739D01*
X133560109Y-96529833D01*
X133531091Y-96475544D01*
X133492040Y-96427960D01*
X133444456Y-96388909D01*
X133390167Y-96359891D01*
X133331261Y-96342022D01*
X133270000Y-96335988D01*
X131570000Y-96335988D01*
X131508739Y-96342022D01*
X131449833Y-96359891D01*
X131395544Y-96388909D01*
X131347960Y-96427960D01*
X131308909Y-96475544D01*
X131279891Y-96529833D01*
X131262022Y-96588739D01*
X131255988Y-96650000D01*
X122337500Y-96650000D01*
X122337500Y-94296369D01*
X123932504Y-94296369D01*
X123932504Y-94703631D01*
X124011956Y-95103066D01*
X124167809Y-95479327D01*
X124394071Y-95817952D01*
X124682048Y-96105929D01*
X125020673Y-96332191D01*
X125396934Y-96488044D01*
X125796369Y-96567496D01*
X126203631Y-96567496D01*
X126603066Y-96488044D01*
X126979327Y-96332191D01*
X127317952Y-96105929D01*
X127605929Y-95817952D01*
X127832191Y-95479327D01*
X127988044Y-95103066D01*
X128067496Y-94703631D01*
X128067496Y-94296369D01*
X127988044Y-93896934D01*
X127832191Y-93520673D01*
X127605929Y-93182048D01*
X127317952Y-92894071D01*
X126979327Y-92667809D01*
X126603066Y-92511956D01*
X126203631Y-92432504D01*
X125796369Y-92432504D01*
X125396934Y-92511956D01*
X125020673Y-92667809D01*
X124682048Y-92894071D01*
X124394071Y-93182048D01*
X124167809Y-93520673D01*
X124011956Y-93896934D01*
X123932504Y-94296369D01*
X122337500Y-94296369D01*
X122337500Y-91350000D01*
X134610988Y-91350000D01*
X134617022Y-91411261D01*
X134634891Y-91470167D01*
X134663909Y-91524456D01*
X134702960Y-91572040D01*
X134750544Y-91611091D01*
X134804833Y-91640109D01*
X134863739Y-91657978D01*
X134925000Y-91664012D01*
X134971875Y-91662500D01*
X135050000Y-91584375D01*
X135050000Y-91212500D01*
X134690625Y-91212500D01*
X134612500Y-91290625D01*
X134610988Y-91350000D01*
X122337500Y-91350000D01*
X122337500Y-79296369D01*
X123932504Y-79296369D01*
X123932504Y-79703631D01*
X124011956Y-80103066D01*
X124167809Y-80479327D01*
X124394071Y-80817952D01*
X124682048Y-81105929D01*
X125020673Y-81332191D01*
X125396934Y-81488044D01*
X125796369Y-81567496D01*
X126203631Y-81567496D01*
X126603066Y-81488044D01*
X126979327Y-81332191D01*
X127317952Y-81105929D01*
X127605929Y-80817952D01*
X127832191Y-80479327D01*
X127988044Y-80103066D01*
X128067496Y-79703631D01*
X128067496Y-79296369D01*
X127988044Y-78896934D01*
X127832191Y-78520673D01*
X127605929Y-78182048D01*
X127317952Y-77894071D01*
X126979327Y-77667809D01*
X126603066Y-77511956D01*
X126203631Y-77432504D01*
X125796369Y-77432504D01*
X125396934Y-77511956D01*
X125020673Y-77667809D01*
X124682048Y-77894071D01*
X124394071Y-78182048D01*
X124167809Y-78520673D01*
X124011956Y-78896934D01*
X123932504Y-79296369D01*
X122337500Y-79296369D01*
X122337500Y-77152411D01*
X128382852Y-77152411D01*
X128385090Y-77175133D01*
X128385089Y-87339682D01*
X128382852Y-87362394D01*
X128385089Y-87385105D01*
X128391782Y-87453059D01*
X128418228Y-87540240D01*
X128461174Y-87620587D01*
X128518970Y-87691013D01*
X128536619Y-87705497D01*
X130992096Y-90160975D01*
X131006576Y-90178619D01*
X131077001Y-90236415D01*
X131157348Y-90279361D01*
X131209866Y-90295292D01*
X131244528Y-90305807D01*
X131335194Y-90314737D01*
X131357906Y-90312500D01*
X134619339Y-90312500D01*
X134618823Y-90314200D01*
X134610988Y-90393750D01*
X134610988Y-90606250D01*
X134618823Y-90685800D01*
X134642027Y-90762294D01*
X134656509Y-90789388D01*
X134634891Y-90829833D01*
X134617022Y-90888739D01*
X134610988Y-90950000D01*
X134612500Y-91009375D01*
X134690625Y-91087500D01*
X135050000Y-91087500D01*
X135050000Y-91067500D01*
X135175000Y-91067500D01*
X135175000Y-91087500D01*
X135189681Y-91087500D01*
X135195000Y-91141504D01*
X135195000Y-91212500D01*
X135175000Y-91212500D01*
X135175000Y-91584375D01*
X135253125Y-91662500D01*
X135300000Y-91664012D01*
X135361261Y-91657978D01*
X135420167Y-91640109D01*
X135474456Y-91611091D01*
X135522040Y-91572040D01*
X135526284Y-91566868D01*
X135534162Y-91571079D01*
X135639967Y-91603175D01*
X135750000Y-91614012D01*
X136250000Y-91614012D01*
X136360033Y-91603175D01*
X136425000Y-91583467D01*
X136425001Y-92439778D01*
X136422763Y-92462500D01*
X136431693Y-92553165D01*
X136447995Y-92606904D01*
X136458140Y-92640347D01*
X136501086Y-92720694D01*
X136558882Y-92791119D01*
X136576526Y-92805599D01*
X137681901Y-93910975D01*
X137696381Y-93928619D01*
X137766806Y-93986415D01*
X137847153Y-94029361D01*
X137934334Y-94055807D01*
X138025000Y-94064737D01*
X138047712Y-94062500D01*
X141527288Y-94062500D01*
X141550000Y-94064737D01*
X141572712Y-94062500D01*
X141640666Y-94055807D01*
X141727847Y-94029361D01*
X141808194Y-93986415D01*
X141878619Y-93928619D01*
X141893103Y-93910970D01*
X142510971Y-93293102D01*
X142528619Y-93278619D01*
X142586415Y-93208194D01*
X142620624Y-93144193D01*
X142629361Y-93127848D01*
X142655807Y-93040666D01*
X142664737Y-92950000D01*
X142662500Y-92927288D01*
X142662500Y-90147711D01*
X142664737Y-90124999D01*
X142655807Y-90034333D01*
X142636763Y-89971555D01*
X142629361Y-89947153D01*
X142586415Y-89866806D01*
X142528619Y-89796381D01*
X142510975Y-89781901D01*
X141876512Y-89147439D01*
X141876512Y-88543750D01*
X141865795Y-88434936D01*
X141834055Y-88330304D01*
X141782512Y-88233874D01*
X141713147Y-88149353D01*
X141628626Y-88079988D01*
X141532196Y-88028445D01*
X141427564Y-87996705D01*
X141318750Y-87985988D01*
X140831250Y-87985988D01*
X140722436Y-87996705D01*
X140617804Y-88028445D01*
X140521374Y-88079988D01*
X140436853Y-88149353D01*
X140367488Y-88233874D01*
X140315945Y-88330304D01*
X140284205Y-88434936D01*
X140273488Y-88543750D01*
X140273488Y-89456250D01*
X140284205Y-89565064D01*
X140315945Y-89669696D01*
X140367488Y-89766126D01*
X140436853Y-89850647D01*
X140521374Y-89920012D01*
X140617804Y-89971555D01*
X140722436Y-90003295D01*
X140831250Y-90014012D01*
X141318750Y-90014012D01*
X141424521Y-90003595D01*
X141737501Y-90316575D01*
X141737500Y-92758427D01*
X141358427Y-93137500D01*
X138216574Y-93137500D01*
X137350000Y-92270927D01*
X137350000Y-91427210D01*
X137357973Y-91412294D01*
X137381177Y-91335800D01*
X137389012Y-91256250D01*
X137389012Y-91043750D01*
X137381177Y-90964200D01*
X137357973Y-90887706D01*
X137343491Y-90860612D01*
X137365109Y-90820167D01*
X137382978Y-90761261D01*
X137389012Y-90700000D01*
X137387500Y-90640625D01*
X137309375Y-90562500D01*
X136950000Y-90562500D01*
X136950000Y-90582500D01*
X136825000Y-90582500D01*
X136825000Y-90562500D01*
X136814012Y-90562500D01*
X136814012Y-90437500D01*
X136825000Y-90437500D01*
X136825000Y-90417500D01*
X136950000Y-90417500D01*
X136950000Y-90437500D01*
X137309375Y-90437500D01*
X137387500Y-90359375D01*
X137389012Y-90300000D01*
X137382978Y-90238739D01*
X137365109Y-90179833D01*
X137343491Y-90139388D01*
X137357973Y-90112294D01*
X137381177Y-90035800D01*
X137389012Y-89956250D01*
X137389012Y-89743750D01*
X137381177Y-89664200D01*
X137357973Y-89587706D01*
X137350000Y-89572790D01*
X137350000Y-89462500D01*
X138399104Y-89462500D01*
X138409205Y-89565064D01*
X138440945Y-89669696D01*
X138492488Y-89766126D01*
X138561853Y-89850647D01*
X138646374Y-89920012D01*
X138737500Y-89968720D01*
X138737500Y-90060412D01*
X138720808Y-90071565D01*
X138621565Y-90170808D01*
X138543591Y-90287505D01*
X138489881Y-90417172D01*
X138462500Y-90554825D01*
X138462500Y-90695175D01*
X138489881Y-90832828D01*
X138543591Y-90962495D01*
X138621565Y-91079192D01*
X138720808Y-91178435D01*
X138737501Y-91189589D01*
X138737501Y-91272853D01*
X138685263Y-91300775D01*
X138604530Y-91367030D01*
X138538275Y-91447763D01*
X138489042Y-91539871D01*
X138458725Y-91639813D01*
X138448488Y-91743750D01*
X138448488Y-92256250D01*
X138458725Y-92360187D01*
X138489042Y-92460129D01*
X138538275Y-92552237D01*
X138604530Y-92632970D01*
X138685263Y-92699225D01*
X138777371Y-92748458D01*
X138877313Y-92778775D01*
X138981250Y-92789012D01*
X139418750Y-92789012D01*
X139522687Y-92778775D01*
X139622629Y-92748458D01*
X139714737Y-92699225D01*
X139795470Y-92632970D01*
X139861725Y-92552237D01*
X139903009Y-92475000D01*
X140023488Y-92475000D01*
X140029522Y-92536261D01*
X140047391Y-92595167D01*
X140076409Y-92649456D01*
X140115460Y-92697040D01*
X140163044Y-92736091D01*
X140217333Y-92765109D01*
X140276239Y-92782978D01*
X140337500Y-92789012D01*
X140634375Y-92787500D01*
X140712500Y-92709375D01*
X140712500Y-92062500D01*
X140837500Y-92062500D01*
X140837500Y-92709375D01*
X140915625Y-92787500D01*
X141212500Y-92789012D01*
X141273761Y-92782978D01*
X141332667Y-92765109D01*
X141386956Y-92736091D01*
X141434540Y-92697040D01*
X141473591Y-92649456D01*
X141502609Y-92595167D01*
X141520478Y-92536261D01*
X141526512Y-92475000D01*
X141525000Y-92140625D01*
X141446875Y-92062500D01*
X140837500Y-92062500D01*
X140712500Y-92062500D01*
X140103125Y-92062500D01*
X140025000Y-92140625D01*
X140023488Y-92475000D01*
X139903009Y-92475000D01*
X139910958Y-92460129D01*
X139941275Y-92360187D01*
X139951512Y-92256250D01*
X139951512Y-91743750D01*
X139941275Y-91639813D01*
X139910958Y-91539871D01*
X139903010Y-91525000D01*
X140023488Y-91525000D01*
X140025000Y-91859375D01*
X140103125Y-91937500D01*
X140712500Y-91937500D01*
X140712500Y-91290625D01*
X140837500Y-91290625D01*
X140837500Y-91937500D01*
X141446875Y-91937500D01*
X141525000Y-91859375D01*
X141526512Y-91525000D01*
X141520478Y-91463739D01*
X141502609Y-91404833D01*
X141473591Y-91350544D01*
X141434540Y-91302960D01*
X141386956Y-91263909D01*
X141332667Y-91234891D01*
X141273761Y-91217022D01*
X141212500Y-91210988D01*
X140915625Y-91212500D01*
X140837500Y-91290625D01*
X140712500Y-91290625D01*
X140634375Y-91212500D01*
X140337500Y-91210988D01*
X140276239Y-91217022D01*
X140217333Y-91234891D01*
X140163044Y-91263909D01*
X140115460Y-91302960D01*
X140076409Y-91350544D01*
X140047391Y-91404833D01*
X140029522Y-91463739D01*
X140023488Y-91525000D01*
X139903010Y-91525000D01*
X139861725Y-91447763D01*
X139795470Y-91367030D01*
X139714737Y-91300775D01*
X139662500Y-91272854D01*
X139662500Y-91145127D01*
X139728435Y-91079192D01*
X139806409Y-90962495D01*
X139860119Y-90832828D01*
X139887500Y-90695175D01*
X139887500Y-90554825D01*
X139860119Y-90417172D01*
X139806409Y-90287505D01*
X139728435Y-90170808D01*
X139662500Y-90104873D01*
X139662500Y-89968720D01*
X139753626Y-89920012D01*
X139838147Y-89850647D01*
X139907512Y-89766126D01*
X139959055Y-89669696D01*
X139990795Y-89565064D01*
X140001512Y-89456250D01*
X140001512Y-88543750D01*
X139990795Y-88434936D01*
X139959055Y-88330304D01*
X139907512Y-88233874D01*
X139838147Y-88149353D01*
X139753626Y-88079988D01*
X139657196Y-88028445D01*
X139552564Y-87996705D01*
X139443750Y-87985988D01*
X138956250Y-87985988D01*
X138847436Y-87996705D01*
X138742804Y-88028445D01*
X138646374Y-88079988D01*
X138561853Y-88149353D01*
X138492488Y-88233874D01*
X138440945Y-88330304D01*
X138409205Y-88434936D01*
X138399104Y-88537500D01*
X136922712Y-88537500D01*
X136900000Y-88535263D01*
X136877288Y-88537500D01*
X131316573Y-88537500D01*
X129762500Y-86983427D01*
X129762500Y-86180000D01*
X130085988Y-86180000D01*
X130092022Y-86241261D01*
X130109891Y-86300167D01*
X130138909Y-86354456D01*
X130177960Y-86402040D01*
X130225544Y-86441091D01*
X130279833Y-86470109D01*
X130338739Y-86487978D01*
X130400000Y-86494012D01*
X131459375Y-86492500D01*
X131537500Y-86414375D01*
X131537500Y-85872500D01*
X131662500Y-85872500D01*
X131662500Y-86414375D01*
X131740625Y-86492500D01*
X132800000Y-86494012D01*
X132861261Y-86487978D01*
X132920167Y-86470109D01*
X132974456Y-86441091D01*
X133022040Y-86402040D01*
X133061091Y-86354456D01*
X133090109Y-86300167D01*
X133107978Y-86241261D01*
X133114012Y-86180000D01*
X133112500Y-85950625D01*
X133034375Y-85872500D01*
X131662500Y-85872500D01*
X131537500Y-85872500D01*
X130165625Y-85872500D01*
X130087500Y-85950625D01*
X130085988Y-86180000D01*
X129762500Y-86180000D01*
X129762500Y-83640000D01*
X130085988Y-83640000D01*
X130092022Y-83701261D01*
X130109891Y-83760167D01*
X130138909Y-83814456D01*
X130177960Y-83862040D01*
X130225544Y-83901091D01*
X130232857Y-83905000D01*
X130225544Y-83908909D01*
X130177960Y-83947960D01*
X130138909Y-83995544D01*
X130109891Y-84049833D01*
X130092022Y-84108739D01*
X130085988Y-84170000D01*
X130085988Y-84910000D01*
X130092022Y-84971261D01*
X130109891Y-85030167D01*
X130138909Y-85084456D01*
X130177960Y-85132040D01*
X130225544Y-85171091D01*
X130232857Y-85175000D01*
X130225544Y-85178909D01*
X130177960Y-85217960D01*
X130138909Y-85265544D01*
X130109891Y-85319833D01*
X130092022Y-85378739D01*
X130085988Y-85440000D01*
X130087500Y-85669375D01*
X130165625Y-85747500D01*
X131537500Y-85747500D01*
X131537500Y-85727500D01*
X131662500Y-85727500D01*
X131662500Y-85747500D01*
X133034375Y-85747500D01*
X133112500Y-85669375D01*
X133114012Y-85440000D01*
X133107978Y-85378739D01*
X133090109Y-85319833D01*
X133061091Y-85265544D01*
X133022040Y-85217960D01*
X132974456Y-85178909D01*
X132967143Y-85175000D01*
X132974456Y-85171091D01*
X133022040Y-85132040D01*
X133061091Y-85084456D01*
X133090109Y-85030167D01*
X133107978Y-84971261D01*
X133114012Y-84910000D01*
X133114012Y-84170000D01*
X133107978Y-84108739D01*
X133090109Y-84049833D01*
X133061091Y-83995544D01*
X133022040Y-83947960D01*
X132974456Y-83908909D01*
X132967143Y-83905000D01*
X132974456Y-83901091D01*
X133022040Y-83862040D01*
X133061091Y-83814456D01*
X133090109Y-83760167D01*
X133107978Y-83701261D01*
X133114012Y-83640000D01*
X133112500Y-83410625D01*
X133034375Y-83332500D01*
X131662500Y-83332500D01*
X131662500Y-83352500D01*
X131537500Y-83352500D01*
X131537500Y-83332500D01*
X130165625Y-83332500D01*
X130087500Y-83410625D01*
X130085988Y-83640000D01*
X129762500Y-83640000D01*
X129762500Y-82370000D01*
X130085988Y-82370000D01*
X130092022Y-82431261D01*
X130109891Y-82490167D01*
X130138909Y-82544456D01*
X130177960Y-82592040D01*
X130225544Y-82631091D01*
X130232857Y-82635000D01*
X130225544Y-82638909D01*
X130177960Y-82677960D01*
X130138909Y-82725544D01*
X130109891Y-82779833D01*
X130092022Y-82838739D01*
X130085988Y-82900000D01*
X130087500Y-83129375D01*
X130165625Y-83207500D01*
X131537500Y-83207500D01*
X131537500Y-82665625D01*
X131506875Y-82635000D01*
X131537500Y-82604375D01*
X131537500Y-82062500D01*
X131662500Y-82062500D01*
X131662500Y-82604375D01*
X131693125Y-82635000D01*
X131662500Y-82665625D01*
X131662500Y-83207500D01*
X133034375Y-83207500D01*
X133112500Y-83129375D01*
X133114012Y-82900000D01*
X133107978Y-82838739D01*
X133090109Y-82779833D01*
X133061091Y-82725544D01*
X133022040Y-82677960D01*
X132974456Y-82638909D01*
X132967143Y-82635000D01*
X132974456Y-82631091D01*
X133022040Y-82592040D01*
X133061091Y-82544456D01*
X133090109Y-82490167D01*
X133107978Y-82431261D01*
X133114012Y-82370000D01*
X133112500Y-82140625D01*
X133034375Y-82062500D01*
X131662500Y-82062500D01*
X131537500Y-82062500D01*
X130165625Y-82062500D01*
X130087500Y-82140625D01*
X130085988Y-82370000D01*
X129762500Y-82370000D01*
X129762500Y-81721573D01*
X130170781Y-81313292D01*
X130177960Y-81322040D01*
X130225544Y-81361091D01*
X130232857Y-81365000D01*
X130225544Y-81368909D01*
X130177960Y-81407960D01*
X130138909Y-81455544D01*
X130109891Y-81509833D01*
X130092022Y-81568739D01*
X130085988Y-81630000D01*
X130087500Y-81859375D01*
X130165625Y-81937500D01*
X131537500Y-81937500D01*
X131537500Y-81917500D01*
X131662500Y-81917500D01*
X131662500Y-81937500D01*
X133034375Y-81937500D01*
X133112500Y-81859375D01*
X133114012Y-81630000D01*
X133107978Y-81568739D01*
X133090109Y-81509833D01*
X133061091Y-81455544D01*
X133022040Y-81407960D01*
X132974456Y-81368909D01*
X132967143Y-81365000D01*
X132974456Y-81361091D01*
X133022040Y-81322040D01*
X133061091Y-81274456D01*
X133090109Y-81220167D01*
X133107978Y-81161261D01*
X133114012Y-81100000D01*
X133114012Y-80360000D01*
X133107978Y-80298739D01*
X133090109Y-80239833D01*
X133061091Y-80185544D01*
X133052438Y-80175000D01*
X133234420Y-80175000D01*
X133236301Y-80194097D01*
X133236300Y-81458312D01*
X133234420Y-81477400D01*
X133238633Y-81520175D01*
X133241925Y-81553597D01*
X133264151Y-81626867D01*
X133300245Y-81694394D01*
X133348818Y-81753582D01*
X133363651Y-81765755D01*
X133859249Y-82261354D01*
X133871418Y-82276182D01*
X133930605Y-82324755D01*
X133985988Y-82354358D01*
X133985988Y-82370000D01*
X133992022Y-82431261D01*
X134009891Y-82490167D01*
X134038909Y-82544456D01*
X134077960Y-82592040D01*
X134125544Y-82631091D01*
X134132857Y-82635000D01*
X134125544Y-82638909D01*
X134077960Y-82677960D01*
X134038909Y-82725544D01*
X134009891Y-82779833D01*
X133992022Y-82838739D01*
X133985988Y-82900000D01*
X133985988Y-83640000D01*
X133992022Y-83701261D01*
X134009891Y-83760167D01*
X134038909Y-83814456D01*
X134077960Y-83862040D01*
X134125544Y-83901091D01*
X134132857Y-83905000D01*
X134125544Y-83908909D01*
X134077960Y-83947960D01*
X134038909Y-83995544D01*
X134009891Y-84049833D01*
X133992022Y-84108739D01*
X133985988Y-84170000D01*
X133985988Y-84910000D01*
X133992022Y-84971261D01*
X134009891Y-85030167D01*
X134038909Y-85084456D01*
X134077960Y-85132040D01*
X134125544Y-85171091D01*
X134132857Y-85175000D01*
X134125544Y-85178909D01*
X134077960Y-85217960D01*
X134038909Y-85265544D01*
X134009891Y-85319833D01*
X133992022Y-85378739D01*
X133985988Y-85440000D01*
X133985988Y-86180000D01*
X133992022Y-86241261D01*
X134009891Y-86300167D01*
X134038909Y-86354456D01*
X134077960Y-86402040D01*
X134125544Y-86441091D01*
X134179833Y-86470109D01*
X134238739Y-86487978D01*
X134300000Y-86494012D01*
X136700000Y-86494012D01*
X136761261Y-86487978D01*
X136820167Y-86470109D01*
X136874456Y-86441091D01*
X136922040Y-86402040D01*
X136961091Y-86354456D01*
X136990109Y-86300167D01*
X137007978Y-86241261D01*
X137012170Y-86198700D01*
X140698996Y-86198700D01*
X146206650Y-91706355D01*
X146218818Y-91721182D01*
X146278005Y-91769755D01*
X146345532Y-91805849D01*
X146418802Y-91828075D01*
X146449558Y-91831104D01*
X146459891Y-91865167D01*
X146488909Y-91919456D01*
X146527960Y-91967040D01*
X146575544Y-92006091D01*
X146629833Y-92035109D01*
X146688739Y-92052978D01*
X146750000Y-92059012D01*
X149250000Y-92059012D01*
X149311261Y-92052978D01*
X149370167Y-92035109D01*
X149424456Y-92006091D01*
X149472040Y-91967040D01*
X149511091Y-91919456D01*
X149540109Y-91865167D01*
X149557978Y-91806261D01*
X149564012Y-91745000D01*
X149564012Y-91145000D01*
X149557978Y-91083739D01*
X149540109Y-91024833D01*
X149511091Y-90970544D01*
X149472040Y-90922960D01*
X149424456Y-90883909D01*
X149370167Y-90854891D01*
X149311261Y-90837022D01*
X149250000Y-90830988D01*
X146750000Y-90830988D01*
X146688739Y-90837022D01*
X146629833Y-90854891D01*
X146575544Y-90883909D01*
X146527960Y-90922960D01*
X146525573Y-90925868D01*
X141148355Y-85548651D01*
X141136182Y-85533818D01*
X141076995Y-85485245D01*
X141009468Y-85449151D01*
X140936198Y-85426925D01*
X140879088Y-85421300D01*
X140879087Y-85421300D01*
X140860000Y-85419420D01*
X140840913Y-85421300D01*
X137012170Y-85421300D01*
X137007978Y-85378739D01*
X136990109Y-85319833D01*
X136961091Y-85265544D01*
X136922040Y-85217960D01*
X136874456Y-85178909D01*
X136867143Y-85175000D01*
X136874456Y-85171091D01*
X136922040Y-85132040D01*
X136961091Y-85084456D01*
X136990109Y-85030167D01*
X137007978Y-84971261D01*
X137014012Y-84910000D01*
X137014012Y-84170000D01*
X137007978Y-84108739D01*
X136990109Y-84049833D01*
X136961091Y-83995544D01*
X136922040Y-83947960D01*
X136874456Y-83908909D01*
X136867143Y-83905000D01*
X136874456Y-83901091D01*
X136922040Y-83862040D01*
X136961091Y-83814456D01*
X136990109Y-83760167D01*
X137007978Y-83701261D01*
X137014012Y-83640000D01*
X137014012Y-82900000D01*
X137007978Y-82838739D01*
X136990109Y-82779833D01*
X136961091Y-82725544D01*
X136922040Y-82677960D01*
X136874456Y-82638909D01*
X136867143Y-82635000D01*
X136874456Y-82631091D01*
X136922040Y-82592040D01*
X136961091Y-82544456D01*
X136990109Y-82490167D01*
X137007978Y-82431261D01*
X137014012Y-82370000D01*
X137014012Y-81630000D01*
X137007978Y-81568739D01*
X136990109Y-81509833D01*
X136961091Y-81455544D01*
X136922040Y-81407960D01*
X136874456Y-81368909D01*
X136867143Y-81365000D01*
X136874456Y-81361091D01*
X136922040Y-81322040D01*
X136961091Y-81274456D01*
X136983266Y-81232970D01*
X146186650Y-90436355D01*
X146198818Y-90451182D01*
X146258005Y-90499755D01*
X146325532Y-90535849D01*
X146386555Y-90554360D01*
X146398802Y-90558075D01*
X146450174Y-90563135D01*
X146459891Y-90595167D01*
X146488909Y-90649456D01*
X146527960Y-90697040D01*
X146575544Y-90736091D01*
X146629833Y-90765109D01*
X146688739Y-90782978D01*
X146750000Y-90789012D01*
X149250000Y-90789012D01*
X149311261Y-90782978D01*
X149370167Y-90765109D01*
X149424456Y-90736091D01*
X149472040Y-90697040D01*
X149511091Y-90649456D01*
X149540109Y-90595167D01*
X149557978Y-90536261D01*
X149564012Y-90475000D01*
X149564012Y-89875000D01*
X149557978Y-89813739D01*
X149540109Y-89754833D01*
X149511091Y-89700544D01*
X149472040Y-89652960D01*
X149424456Y-89613909D01*
X149370167Y-89584891D01*
X149311261Y-89567022D01*
X149250000Y-89560988D01*
X146750000Y-89560988D01*
X146688739Y-89567022D01*
X146629833Y-89584891D01*
X146575544Y-89613909D01*
X146527960Y-89652960D01*
X146516558Y-89666853D01*
X137318355Y-80468651D01*
X137306182Y-80453818D01*
X137246995Y-80405245D01*
X137179468Y-80369151D01*
X137106198Y-80346925D01*
X137049088Y-80341300D01*
X137049087Y-80341300D01*
X137030000Y-80339420D01*
X137012158Y-80341177D01*
X137007978Y-80298739D01*
X136990109Y-80239833D01*
X136962778Y-80188700D01*
X137213996Y-80188700D01*
X146191650Y-89166355D01*
X146203818Y-89181182D01*
X146263005Y-89229755D01*
X146330532Y-89265849D01*
X146403802Y-89288075D01*
X146450020Y-89292627D01*
X146459891Y-89325167D01*
X146488909Y-89379456D01*
X146527960Y-89427040D01*
X146575544Y-89466091D01*
X146629833Y-89495109D01*
X146688739Y-89512978D01*
X146750000Y-89519012D01*
X149250000Y-89519012D01*
X149311261Y-89512978D01*
X149370167Y-89495109D01*
X149424456Y-89466091D01*
X149472040Y-89427040D01*
X149511091Y-89379456D01*
X149540109Y-89325167D01*
X149557978Y-89266261D01*
X149564012Y-89205000D01*
X149564012Y-88605000D01*
X149557978Y-88543739D01*
X149540109Y-88484833D01*
X149511091Y-88430544D01*
X149472040Y-88382960D01*
X149424456Y-88343909D01*
X149370167Y-88314891D01*
X149311261Y-88297022D01*
X149250000Y-88290988D01*
X146750000Y-88290988D01*
X146688739Y-88297022D01*
X146629833Y-88314891D01*
X146575544Y-88343909D01*
X146527960Y-88382960D01*
X146518812Y-88394107D01*
X137663355Y-79538651D01*
X137651182Y-79523818D01*
X137591995Y-79475245D01*
X137524468Y-79439151D01*
X137451198Y-79416925D01*
X137394088Y-79411300D01*
X137394087Y-79411300D01*
X137375000Y-79409420D01*
X137355913Y-79411300D01*
X134019087Y-79411300D01*
X133999999Y-79409420D01*
X133980912Y-79411300D01*
X133923802Y-79416925D01*
X133850532Y-79439151D01*
X133783005Y-79475245D01*
X133723818Y-79523818D01*
X133711649Y-79538646D01*
X133363646Y-79886650D01*
X133348819Y-79898818D01*
X133336651Y-79913645D01*
X133300245Y-79958006D01*
X133264152Y-80025532D01*
X133241925Y-80098803D01*
X133234420Y-80175000D01*
X133052438Y-80175000D01*
X133022040Y-80137960D01*
X132974456Y-80098909D01*
X132920167Y-80069891D01*
X132861261Y-80052022D01*
X132800000Y-80045988D01*
X130400000Y-80045988D01*
X130338739Y-80052022D01*
X130279833Y-80069891D01*
X130225544Y-80098909D01*
X130177960Y-80137960D01*
X130138909Y-80185544D01*
X130109891Y-80239833D01*
X130102114Y-80265471D01*
X130100000Y-80265263D01*
X130009334Y-80274193D01*
X129922152Y-80300639D01*
X129894166Y-80315599D01*
X129841806Y-80343585D01*
X129771381Y-80401381D01*
X129756897Y-80419030D01*
X129310089Y-80865838D01*
X129310089Y-77343984D01*
X130490061Y-76164012D01*
X131484939Y-76164012D01*
X132756901Y-77435975D01*
X132771381Y-77453619D01*
X132841806Y-77511415D01*
X132922153Y-77554361D01*
X132982887Y-77572784D01*
X133009333Y-77580807D01*
X133099999Y-77589737D01*
X133122711Y-77587500D01*
X135748427Y-77587500D01*
X146106901Y-87945975D01*
X146121381Y-87963619D01*
X146139023Y-87978097D01*
X146191806Y-88021415D01*
X146272153Y-88064361D01*
X146359334Y-88090807D01*
X146450000Y-88099737D01*
X146472712Y-88097500D01*
X146482518Y-88097500D01*
X146488909Y-88109456D01*
X146527960Y-88157040D01*
X146575544Y-88196091D01*
X146629833Y-88225109D01*
X146688739Y-88242978D01*
X146750000Y-88249012D01*
X149250000Y-88249012D01*
X149311261Y-88242978D01*
X149370167Y-88225109D01*
X149424456Y-88196091D01*
X149472040Y-88157040D01*
X149511091Y-88109456D01*
X149540109Y-88055167D01*
X149557978Y-87996261D01*
X149564012Y-87935000D01*
X149564012Y-87335000D01*
X149557978Y-87273739D01*
X149540109Y-87214833D01*
X149511091Y-87160544D01*
X149472040Y-87112960D01*
X149424456Y-87073909D01*
X149370167Y-87044891D01*
X149311261Y-87027022D01*
X149250000Y-87020988D01*
X146750000Y-87020988D01*
X146688739Y-87027022D01*
X146629833Y-87044891D01*
X146575544Y-87073909D01*
X146557660Y-87088586D01*
X146134074Y-86665000D01*
X146435988Y-86665000D01*
X146442022Y-86726261D01*
X146459891Y-86785167D01*
X146488909Y-86839456D01*
X146527960Y-86887040D01*
X146575544Y-86926091D01*
X146629833Y-86955109D01*
X146688739Y-86972978D01*
X146750000Y-86979012D01*
X147859375Y-86977500D01*
X147937500Y-86899375D01*
X147937500Y-86427500D01*
X148062500Y-86427500D01*
X148062500Y-86899375D01*
X148140625Y-86977500D01*
X149250000Y-86979012D01*
X149311261Y-86972978D01*
X149370167Y-86955109D01*
X149424456Y-86926091D01*
X149472040Y-86887040D01*
X149511091Y-86839456D01*
X149540109Y-86785167D01*
X149557978Y-86726261D01*
X149564012Y-86665000D01*
X149562500Y-86505625D01*
X149484375Y-86427500D01*
X148062500Y-86427500D01*
X147937500Y-86427500D01*
X146515625Y-86427500D01*
X146437500Y-86505625D01*
X146435988Y-86665000D01*
X146134074Y-86665000D01*
X145534074Y-86065000D01*
X146435988Y-86065000D01*
X146437500Y-86224375D01*
X146515625Y-86302500D01*
X147937500Y-86302500D01*
X147937500Y-85830625D01*
X148062500Y-85830625D01*
X148062500Y-86302500D01*
X149484375Y-86302500D01*
X149562500Y-86224375D01*
X149564012Y-86065000D01*
X149557978Y-86003739D01*
X149540109Y-85944833D01*
X149511091Y-85890544D01*
X149472040Y-85842960D01*
X149424456Y-85803909D01*
X149370167Y-85774891D01*
X149311261Y-85757022D01*
X149250000Y-85750988D01*
X148140625Y-85752500D01*
X148062500Y-85830625D01*
X147937500Y-85830625D01*
X147859375Y-85752500D01*
X146750000Y-85750988D01*
X146688739Y-85757022D01*
X146629833Y-85774891D01*
X146575544Y-85803909D01*
X146527960Y-85842960D01*
X146488909Y-85890544D01*
X146459891Y-85944833D01*
X146442022Y-86003739D01*
X146435988Y-86065000D01*
X145534074Y-86065000D01*
X136444074Y-76975000D01*
X144134420Y-76975000D01*
X144136300Y-76994087D01*
X144136301Y-83003303D01*
X144134420Y-83022400D01*
X144141925Y-83098597D01*
X144164152Y-83171868D01*
X144197839Y-83234891D01*
X144200246Y-83239395D01*
X144248819Y-83298582D01*
X144263646Y-83310750D01*
X146309250Y-85356355D01*
X146321418Y-85371182D01*
X146380605Y-85419755D01*
X146441640Y-85452379D01*
X146442022Y-85456261D01*
X146459891Y-85515167D01*
X146488909Y-85569456D01*
X146527960Y-85617040D01*
X146575544Y-85656091D01*
X146629833Y-85685109D01*
X146688739Y-85702978D01*
X146750000Y-85709012D01*
X149250000Y-85709012D01*
X149311261Y-85702978D01*
X149370167Y-85685109D01*
X149424456Y-85656091D01*
X149472040Y-85617040D01*
X149511091Y-85569456D01*
X149540109Y-85515167D01*
X149557978Y-85456261D01*
X149564012Y-85395000D01*
X149564012Y-84795000D01*
X149557978Y-84733739D01*
X149540109Y-84674833D01*
X149511091Y-84620544D01*
X149472040Y-84572960D01*
X149424456Y-84533909D01*
X149370167Y-84504891D01*
X149311261Y-84487022D01*
X149250000Y-84480988D01*
X146750000Y-84480988D01*
X146688739Y-84487022D01*
X146629833Y-84504891D01*
X146582497Y-84530192D01*
X144913700Y-82861396D01*
X144913700Y-80323790D01*
X145285630Y-80323790D01*
X145287510Y-80342877D01*
X145287511Y-82884513D01*
X145285630Y-82903610D01*
X145293135Y-82979807D01*
X145306056Y-83022400D01*
X145315362Y-83053078D01*
X145351456Y-83120605D01*
X145400029Y-83179792D01*
X145414856Y-83191960D01*
X146309249Y-84086354D01*
X146321418Y-84101182D01*
X146380605Y-84149755D01*
X146441640Y-84182379D01*
X146442022Y-84186261D01*
X146459891Y-84245167D01*
X146488909Y-84299456D01*
X146527960Y-84347040D01*
X146575544Y-84386091D01*
X146629833Y-84415109D01*
X146688739Y-84432978D01*
X146750000Y-84439012D01*
X149250000Y-84439012D01*
X149311261Y-84432978D01*
X149370167Y-84415109D01*
X149424456Y-84386091D01*
X149472040Y-84347040D01*
X149511091Y-84299456D01*
X149540109Y-84245167D01*
X149557978Y-84186261D01*
X149564012Y-84125000D01*
X149564012Y-83525000D01*
X149557978Y-83463739D01*
X149540109Y-83404833D01*
X149511091Y-83350544D01*
X149472040Y-83302960D01*
X149424456Y-83263909D01*
X149370167Y-83234891D01*
X149311261Y-83217022D01*
X149250000Y-83210988D01*
X146750000Y-83210988D01*
X146688739Y-83217022D01*
X146629833Y-83234891D01*
X146582497Y-83260192D01*
X146064910Y-82742606D01*
X146064910Y-82255000D01*
X146435988Y-82255000D01*
X146435988Y-82855000D01*
X146442022Y-82916261D01*
X146459891Y-82975167D01*
X146488909Y-83029456D01*
X146527960Y-83077040D01*
X146575544Y-83116091D01*
X146629833Y-83145109D01*
X146688739Y-83162978D01*
X146750000Y-83169012D01*
X149250000Y-83169012D01*
X149311261Y-83162978D01*
X149370167Y-83145109D01*
X149424456Y-83116091D01*
X149472040Y-83077040D01*
X149511091Y-83029456D01*
X149540109Y-82975167D01*
X149557978Y-82916261D01*
X149564012Y-82855000D01*
X149564012Y-82255000D01*
X149557978Y-82193739D01*
X149540109Y-82134833D01*
X149511091Y-82080544D01*
X149472040Y-82032960D01*
X149424456Y-81993909D01*
X149370167Y-81964891D01*
X149311261Y-81947022D01*
X149250000Y-81940988D01*
X148516639Y-81940988D01*
X148553435Y-81904192D01*
X148631409Y-81787495D01*
X148685119Y-81657828D01*
X148712500Y-81520175D01*
X148712500Y-81379825D01*
X148685119Y-81242172D01*
X148631409Y-81112505D01*
X148553435Y-80995808D01*
X148454192Y-80896565D01*
X148337495Y-80818591D01*
X148207828Y-80764881D01*
X148070175Y-80737500D01*
X147929825Y-80737500D01*
X147792172Y-80764881D01*
X147662505Y-80818591D01*
X147545808Y-80896565D01*
X147446565Y-80995808D01*
X147368591Y-81112505D01*
X147314881Y-81242172D01*
X147287500Y-81379825D01*
X147287500Y-81520175D01*
X147314881Y-81657828D01*
X147368591Y-81787495D01*
X147446565Y-81904192D01*
X147483361Y-81940988D01*
X146750000Y-81940988D01*
X146688739Y-81947022D01*
X146629833Y-81964891D01*
X146575544Y-81993909D01*
X146527960Y-82032960D01*
X146488909Y-82080544D01*
X146459891Y-82134833D01*
X146442022Y-82193739D01*
X146435988Y-82255000D01*
X146064910Y-82255000D01*
X146064910Y-80484794D01*
X146094880Y-80454824D01*
X146188827Y-80517598D01*
X146500482Y-80646690D01*
X146831333Y-80712500D01*
X147168667Y-80712500D01*
X147499518Y-80646690D01*
X147811173Y-80517598D01*
X148091655Y-80330186D01*
X148330186Y-80091655D01*
X148517598Y-79811173D01*
X148646690Y-79499518D01*
X148712500Y-79168667D01*
X148712500Y-78831333D01*
X148646690Y-78500482D01*
X148517598Y-78188827D01*
X148330186Y-77908345D01*
X148091655Y-77669814D01*
X147811173Y-77482402D01*
X147499518Y-77353310D01*
X147168667Y-77287500D01*
X146831333Y-77287500D01*
X146500482Y-77353310D01*
X146188827Y-77482402D01*
X145908345Y-77669814D01*
X145669814Y-77908345D01*
X145482402Y-78188827D01*
X145353310Y-78500482D01*
X145287500Y-78831333D01*
X145287500Y-79168667D01*
X145353310Y-79499518D01*
X145482402Y-79811173D01*
X145545176Y-79905120D01*
X145414861Y-80035435D01*
X145400028Y-80047608D01*
X145351455Y-80106796D01*
X145315361Y-80174323D01*
X145311000Y-80188700D01*
X145293135Y-80247593D01*
X145285630Y-80323790D01*
X144913700Y-80323790D01*
X144913700Y-77136004D01*
X146094880Y-75954824D01*
X146188827Y-76017598D01*
X146500482Y-76146690D01*
X146831333Y-76212500D01*
X147168667Y-76212500D01*
X147499518Y-76146690D01*
X147811173Y-76017598D01*
X148091655Y-75830186D01*
X148330186Y-75591655D01*
X148517598Y-75311173D01*
X148646690Y-74999518D01*
X148712500Y-74668667D01*
X148712500Y-74331333D01*
X148646690Y-74000482D01*
X148517598Y-73688827D01*
X148330186Y-73408345D01*
X148091655Y-73169814D01*
X147811173Y-72982402D01*
X147499518Y-72853310D01*
X147168667Y-72787500D01*
X146831333Y-72787500D01*
X146500482Y-72853310D01*
X146188827Y-72982402D01*
X145908345Y-73169814D01*
X145669814Y-73408345D01*
X145482402Y-73688827D01*
X145353310Y-74000482D01*
X145287500Y-74331333D01*
X145287500Y-74668667D01*
X145353310Y-74999518D01*
X145482402Y-75311173D01*
X145545176Y-75405120D01*
X144263651Y-76686645D01*
X144248818Y-76698818D01*
X144200245Y-76758006D01*
X144164151Y-76825533D01*
X144151631Y-76866806D01*
X144141925Y-76898803D01*
X144134420Y-76975000D01*
X136444074Y-76975000D01*
X136283103Y-76814030D01*
X136268619Y-76796381D01*
X136198194Y-76738585D01*
X136117847Y-76695639D01*
X136030666Y-76669193D01*
X135962712Y-76662500D01*
X135940000Y-76660263D01*
X135917288Y-76662500D01*
X133291574Y-76662500D01*
X132164012Y-75534939D01*
X132164012Y-74885504D01*
X132377500Y-74885504D01*
X132377500Y-75114496D01*
X132422174Y-75339089D01*
X132509806Y-75550650D01*
X132637027Y-75741051D01*
X132798949Y-75902973D01*
X132989350Y-76030194D01*
X133200911Y-76117826D01*
X133425504Y-76162500D01*
X133654496Y-76162500D01*
X133879089Y-76117826D01*
X134090650Y-76030194D01*
X134281051Y-75902973D01*
X134442973Y-75741051D01*
X134570194Y-75550650D01*
X134657826Y-75339089D01*
X134702500Y-75114496D01*
X134702500Y-74885504D01*
X134917500Y-74885504D01*
X134917500Y-75114496D01*
X134962174Y-75339089D01*
X135049806Y-75550650D01*
X135177027Y-75741051D01*
X135338949Y-75902973D01*
X135529350Y-76030194D01*
X135740911Y-76117826D01*
X135965504Y-76162500D01*
X136194496Y-76162500D01*
X136419089Y-76117826D01*
X136630650Y-76030194D01*
X136821051Y-75902973D01*
X136982973Y-75741051D01*
X137110194Y-75550650D01*
X137197826Y-75339089D01*
X137242500Y-75114496D01*
X137242500Y-74885504D01*
X137197826Y-74660911D01*
X137110194Y-74449350D01*
X136982973Y-74258949D01*
X136821051Y-74097027D01*
X136630650Y-73969806D01*
X136419089Y-73882174D01*
X136194496Y-73837500D01*
X135965504Y-73837500D01*
X135740911Y-73882174D01*
X135529350Y-73969806D01*
X135338949Y-74097027D01*
X135177027Y-74258949D01*
X135049806Y-74449350D01*
X134962174Y-74660911D01*
X134917500Y-74885504D01*
X134702500Y-74885504D01*
X134657826Y-74660911D01*
X134570194Y-74449350D01*
X134442973Y-74258949D01*
X134281051Y-74097027D01*
X134090650Y-73969806D01*
X133879089Y-73882174D01*
X133654496Y-73837500D01*
X133425504Y-73837500D01*
X133200911Y-73882174D01*
X132989350Y-73969806D01*
X132798949Y-74097027D01*
X132637027Y-74258949D01*
X132509806Y-74449350D01*
X132422174Y-74660911D01*
X132377500Y-74885504D01*
X132164012Y-74885504D01*
X132164012Y-74150000D01*
X132157978Y-74088739D01*
X132140109Y-74029833D01*
X132111091Y-73975544D01*
X132072040Y-73927960D01*
X132024456Y-73888909D01*
X131970167Y-73859891D01*
X131911261Y-73842022D01*
X131850000Y-73835988D01*
X130150000Y-73835988D01*
X130088739Y-73842022D01*
X130029833Y-73859891D01*
X129975544Y-73888909D01*
X129927960Y-73927960D01*
X129888909Y-73975544D01*
X129859891Y-74029833D01*
X129842022Y-74088739D01*
X129835988Y-74150000D01*
X129835988Y-75509939D01*
X128536615Y-76809312D01*
X128518971Y-76823792D01*
X128461175Y-76894217D01*
X128428199Y-76955912D01*
X128418229Y-76974564D01*
X128391782Y-77061746D01*
X128382852Y-77152411D01*
X122337500Y-77152411D01*
X122337500Y-72337500D01*
X149662501Y-72337500D01*
X149662500Y-101662500D01*
M02*
