G04 #@! TF.GenerationSoftware,KiCad,Pcbnew,(5.1.5-0-10_14)*
G04 #@! TF.CreationDate,2021-06-02T09:33:46-04:00*
G04 #@! TF.ProjectId,ESLO_RB2_Programmer,45534c4f-5f52-4423-925f-50726f677261,rev?*
G04 #@! TF.SameCoordinates,Original*
G04 #@! TF.FileFunction,Copper,L2,Bot*
G04 #@! TF.FilePolarity,Positive*
%FSLAX46Y46*%
G04 Gerber Fmt 4.6, Leading zero omitted, Abs format (unit mm)*
G04 Created by KiCad (PCBNEW (5.1.5-0-10_14)) date 2021-06-02 09:33:46*
%MOMM*%
%LPD*%
G04 APERTURE LIST*
%ADD10C,2.800000*%
%ADD11O,1.700000X1.700000*%
%ADD12R,1.700000X1.700000*%
%ADD13C,0.800000*%
%ADD14C,0.300000*%
%ADD15C,0.152400*%
%ADD16C,0.254000*%
G04 APERTURE END LIST*
D10*
X147000000Y-74500000D03*
X147000000Y-79000000D03*
X147000000Y-95000000D03*
X147000000Y-99500000D03*
D11*
X137500000Y-97500000D03*
X134960000Y-97500000D03*
D12*
X132420000Y-97500000D03*
D11*
X136080000Y-75000000D03*
X133540000Y-75000000D03*
D12*
X131000000Y-75000000D03*
D13*
X139175000Y-90625000D03*
X148000000Y-81450000D03*
D14*
X142625000Y-90625000D02*
X147000000Y-95000000D01*
X139175000Y-90625000D02*
X142625000Y-90625000D01*
D15*
X134960000Y-92340000D02*
X134960000Y-97500000D01*
X145850000Y-81450000D02*
X134960000Y-92340000D01*
X148000000Y-81450000D02*
X145850000Y-81450000D01*
D16*
G36*
X146036066Y-72696607D02*
G01*
X145702763Y-72919313D01*
X145419313Y-73202763D01*
X145196607Y-73536066D01*
X145043204Y-73906413D01*
X144965000Y-74299570D01*
X144965000Y-74700430D01*
X145043204Y-75093587D01*
X145196607Y-75463934D01*
X145419313Y-75797237D01*
X145702763Y-76080687D01*
X146036066Y-76303393D01*
X146406413Y-76456796D01*
X146799570Y-76535000D01*
X147200430Y-76535000D01*
X147593587Y-76456796D01*
X147963934Y-76303393D01*
X148297237Y-76080687D01*
X148580687Y-75797237D01*
X148803393Y-75463934D01*
X148956796Y-75093587D01*
X149035000Y-74700430D01*
X149035000Y-74299570D01*
X148956796Y-73906413D01*
X148803393Y-73536066D01*
X148580687Y-73202763D01*
X148297237Y-72919313D01*
X147963934Y-72696607D01*
X147875557Y-72660000D01*
X149340001Y-72660000D01*
X149340000Y-101340000D01*
X147883154Y-101340000D01*
X148096865Y-101225770D01*
X148240842Y-100920447D01*
X147000000Y-99679605D01*
X145759158Y-100920447D01*
X145903135Y-101225770D01*
X146129133Y-101340000D01*
X122660000Y-101340000D01*
X122660000Y-99546777D01*
X144955690Y-99546777D01*
X145004096Y-99944704D01*
X145129205Y-100325540D01*
X145274230Y-100596865D01*
X145579553Y-100740842D01*
X146820395Y-99500000D01*
X147179605Y-99500000D01*
X148420447Y-100740842D01*
X148725770Y-100596865D01*
X148906597Y-100239108D01*
X149014155Y-99852947D01*
X149044310Y-99453223D01*
X148995904Y-99055296D01*
X148870795Y-98674460D01*
X148725770Y-98403135D01*
X148420447Y-98259158D01*
X147179605Y-99500000D01*
X146820395Y-99500000D01*
X145579553Y-98259158D01*
X145274230Y-98403135D01*
X145093403Y-98760892D01*
X144985845Y-99147053D01*
X144955690Y-99546777D01*
X122660000Y-99546777D01*
X122660000Y-94264759D01*
X123611557Y-94264759D01*
X123611557Y-94735241D01*
X123703343Y-95196683D01*
X123883389Y-95631352D01*
X124144775Y-96022544D01*
X124477456Y-96355225D01*
X124868648Y-96616611D01*
X125303317Y-96796657D01*
X125764759Y-96888443D01*
X126235241Y-96888443D01*
X126696683Y-96796657D01*
X127050743Y-96650000D01*
X130931928Y-96650000D01*
X130931928Y-98350000D01*
X130944188Y-98474482D01*
X130980498Y-98594180D01*
X131039463Y-98704494D01*
X131118815Y-98801185D01*
X131215506Y-98880537D01*
X131325820Y-98939502D01*
X131445518Y-98975812D01*
X131570000Y-98988072D01*
X133270000Y-98988072D01*
X133394482Y-98975812D01*
X133514180Y-98939502D01*
X133624494Y-98880537D01*
X133721185Y-98801185D01*
X133800537Y-98704494D01*
X133859502Y-98594180D01*
X133881513Y-98521620D01*
X134013368Y-98653475D01*
X134256589Y-98815990D01*
X134526842Y-98927932D01*
X134813740Y-98985000D01*
X135106260Y-98985000D01*
X135393158Y-98927932D01*
X135663411Y-98815990D01*
X135906632Y-98653475D01*
X136113475Y-98446632D01*
X136235195Y-98264466D01*
X136304822Y-98381355D01*
X136499731Y-98597588D01*
X136733080Y-98771641D01*
X136995901Y-98896825D01*
X137143110Y-98941476D01*
X137373000Y-98820155D01*
X137373000Y-97627000D01*
X137627000Y-97627000D01*
X137627000Y-98820155D01*
X137856890Y-98941476D01*
X138004099Y-98896825D01*
X138266920Y-98771641D01*
X138500269Y-98597588D01*
X138695178Y-98381355D01*
X138844157Y-98131252D01*
X138862496Y-98079553D01*
X145759158Y-98079553D01*
X147000000Y-99320395D01*
X148240842Y-98079553D01*
X148096865Y-97774230D01*
X147739108Y-97593403D01*
X147352947Y-97485845D01*
X146953223Y-97455690D01*
X146555296Y-97504096D01*
X146174460Y-97629205D01*
X145903135Y-97774230D01*
X145759158Y-98079553D01*
X138862496Y-98079553D01*
X138941481Y-97856891D01*
X138820814Y-97627000D01*
X137627000Y-97627000D01*
X137373000Y-97627000D01*
X137353000Y-97627000D01*
X137353000Y-97373000D01*
X137373000Y-97373000D01*
X137373000Y-96179845D01*
X137627000Y-96179845D01*
X137627000Y-97373000D01*
X138820814Y-97373000D01*
X138941481Y-97143109D01*
X138844157Y-96868748D01*
X138695178Y-96618645D01*
X138500269Y-96402412D01*
X138266920Y-96228359D01*
X138004099Y-96103175D01*
X137856890Y-96058524D01*
X137627000Y-96179845D01*
X137373000Y-96179845D01*
X137143110Y-96058524D01*
X136995901Y-96103175D01*
X136733080Y-96228359D01*
X136499731Y-96402412D01*
X136304822Y-96618645D01*
X136235195Y-96735534D01*
X136113475Y-96553368D01*
X135906632Y-96346525D01*
X135671200Y-96189214D01*
X135671200Y-92634587D01*
X137782726Y-90523061D01*
X138140000Y-90523061D01*
X138140000Y-90726939D01*
X138179774Y-90926898D01*
X138257795Y-91115256D01*
X138371063Y-91284774D01*
X138515226Y-91428937D01*
X138684744Y-91542205D01*
X138873102Y-91620226D01*
X139073061Y-91660000D01*
X139276939Y-91660000D01*
X139476898Y-91620226D01*
X139665256Y-91542205D01*
X139834774Y-91428937D01*
X139853711Y-91410000D01*
X142299843Y-91410000D01*
X145117321Y-94227479D01*
X145043204Y-94406413D01*
X144965000Y-94799570D01*
X144965000Y-95200430D01*
X145043204Y-95593587D01*
X145196607Y-95963934D01*
X145419313Y-96297237D01*
X145702763Y-96580687D01*
X146036066Y-96803393D01*
X146406413Y-96956796D01*
X146799570Y-97035000D01*
X147200430Y-97035000D01*
X147593587Y-96956796D01*
X147963934Y-96803393D01*
X148297237Y-96580687D01*
X148580687Y-96297237D01*
X148803393Y-95963934D01*
X148956796Y-95593587D01*
X149035000Y-95200430D01*
X149035000Y-94799570D01*
X148956796Y-94406413D01*
X148803393Y-94036066D01*
X148580687Y-93702763D01*
X148297237Y-93419313D01*
X147963934Y-93196607D01*
X147593587Y-93043204D01*
X147200430Y-92965000D01*
X146799570Y-92965000D01*
X146406413Y-93043204D01*
X146227479Y-93117321D01*
X143207347Y-90097190D01*
X143182764Y-90067236D01*
X143063233Y-89969138D01*
X142926860Y-89896246D01*
X142778887Y-89851359D01*
X142663561Y-89840000D01*
X142663553Y-89840000D01*
X142625000Y-89836203D01*
X142586447Y-89840000D01*
X139853711Y-89840000D01*
X139834774Y-89821063D01*
X139665256Y-89707795D01*
X139476898Y-89629774D01*
X139276939Y-89590000D01*
X139073061Y-89590000D01*
X138873102Y-89629774D01*
X138684744Y-89707795D01*
X138515226Y-89821063D01*
X138371063Y-89965226D01*
X138257795Y-90134744D01*
X138179774Y-90323102D01*
X138140000Y-90523061D01*
X137782726Y-90523061D01*
X146144589Y-82161200D01*
X147247489Y-82161200D01*
X147340226Y-82253937D01*
X147509744Y-82367205D01*
X147698102Y-82445226D01*
X147898061Y-82485000D01*
X148101939Y-82485000D01*
X148301898Y-82445226D01*
X148490256Y-82367205D01*
X148659774Y-82253937D01*
X148803937Y-82109774D01*
X148917205Y-81940256D01*
X148995226Y-81751898D01*
X149035000Y-81551939D01*
X149035000Y-81348061D01*
X148995226Y-81148102D01*
X148917205Y-80959744D01*
X148803937Y-80790226D01*
X148659774Y-80646063D01*
X148490256Y-80532795D01*
X148387636Y-80490288D01*
X148580687Y-80297237D01*
X148803393Y-79963934D01*
X148956796Y-79593587D01*
X149035000Y-79200430D01*
X149035000Y-78799570D01*
X148956796Y-78406413D01*
X148803393Y-78036066D01*
X148580687Y-77702763D01*
X148297237Y-77419313D01*
X147963934Y-77196607D01*
X147593587Y-77043204D01*
X147200430Y-76965000D01*
X146799570Y-76965000D01*
X146406413Y-77043204D01*
X146036066Y-77196607D01*
X145702763Y-77419313D01*
X145419313Y-77702763D01*
X145196607Y-78036066D01*
X145043204Y-78406413D01*
X144965000Y-78799570D01*
X144965000Y-79200430D01*
X145043204Y-79593587D01*
X145196607Y-79963934D01*
X145419313Y-80297237D01*
X145702763Y-80580687D01*
X145939396Y-80738800D01*
X145884928Y-80738800D01*
X145850000Y-80735360D01*
X145815071Y-80738800D01*
X145815064Y-80738800D01*
X145710580Y-80749091D01*
X145576518Y-80789758D01*
X145452967Y-80855798D01*
X145371809Y-80922402D01*
X145371804Y-80922407D01*
X145344673Y-80944673D01*
X145322407Y-80971804D01*
X134481811Y-91812402D01*
X134454673Y-91834674D01*
X134365798Y-91942968D01*
X134299758Y-92066520D01*
X134259091Y-92200581D01*
X134248800Y-92305065D01*
X134248800Y-92305074D01*
X134245360Y-92340000D01*
X134248800Y-92374926D01*
X134248801Y-96189214D01*
X134013368Y-96346525D01*
X133881513Y-96478380D01*
X133859502Y-96405820D01*
X133800537Y-96295506D01*
X133721185Y-96198815D01*
X133624494Y-96119463D01*
X133514180Y-96060498D01*
X133394482Y-96024188D01*
X133270000Y-96011928D01*
X131570000Y-96011928D01*
X131445518Y-96024188D01*
X131325820Y-96060498D01*
X131215506Y-96119463D01*
X131118815Y-96198815D01*
X131039463Y-96295506D01*
X130980498Y-96405820D01*
X130944188Y-96525518D01*
X130931928Y-96650000D01*
X127050743Y-96650000D01*
X127131352Y-96616611D01*
X127522544Y-96355225D01*
X127855225Y-96022544D01*
X128116611Y-95631352D01*
X128296657Y-95196683D01*
X128388443Y-94735241D01*
X128388443Y-94264759D01*
X128296657Y-93803317D01*
X128116611Y-93368648D01*
X127855225Y-92977456D01*
X127522544Y-92644775D01*
X127131352Y-92383389D01*
X126696683Y-92203343D01*
X126235241Y-92111557D01*
X125764759Y-92111557D01*
X125303317Y-92203343D01*
X124868648Y-92383389D01*
X124477456Y-92644775D01*
X124144775Y-92977456D01*
X123883389Y-93368648D01*
X123703343Y-93803317D01*
X123611557Y-94264759D01*
X122660000Y-94264759D01*
X122660000Y-79264759D01*
X123611557Y-79264759D01*
X123611557Y-79735241D01*
X123703343Y-80196683D01*
X123883389Y-80631352D01*
X124144775Y-81022544D01*
X124477456Y-81355225D01*
X124868648Y-81616611D01*
X125303317Y-81796657D01*
X125764759Y-81888443D01*
X126235241Y-81888443D01*
X126696683Y-81796657D01*
X127131352Y-81616611D01*
X127522544Y-81355225D01*
X127855225Y-81022544D01*
X128116611Y-80631352D01*
X128296657Y-80196683D01*
X128388443Y-79735241D01*
X128388443Y-79264759D01*
X128296657Y-78803317D01*
X128116611Y-78368648D01*
X127855225Y-77977456D01*
X127522544Y-77644775D01*
X127131352Y-77383389D01*
X126696683Y-77203343D01*
X126235241Y-77111557D01*
X125764759Y-77111557D01*
X125303317Y-77203343D01*
X124868648Y-77383389D01*
X124477456Y-77644775D01*
X124144775Y-77977456D01*
X123883389Y-78368648D01*
X123703343Y-78803317D01*
X123611557Y-79264759D01*
X122660000Y-79264759D01*
X122660000Y-74150000D01*
X129511928Y-74150000D01*
X129511928Y-75850000D01*
X129524188Y-75974482D01*
X129560498Y-76094180D01*
X129619463Y-76204494D01*
X129698815Y-76301185D01*
X129795506Y-76380537D01*
X129905820Y-76439502D01*
X130025518Y-76475812D01*
X130150000Y-76488072D01*
X131850000Y-76488072D01*
X131974482Y-76475812D01*
X132094180Y-76439502D01*
X132204494Y-76380537D01*
X132301185Y-76301185D01*
X132380537Y-76204494D01*
X132439502Y-76094180D01*
X132461513Y-76021620D01*
X132593368Y-76153475D01*
X132836589Y-76315990D01*
X133106842Y-76427932D01*
X133393740Y-76485000D01*
X133686260Y-76485000D01*
X133973158Y-76427932D01*
X134243411Y-76315990D01*
X134486632Y-76153475D01*
X134693475Y-75946632D01*
X134810000Y-75772240D01*
X134926525Y-75946632D01*
X135133368Y-76153475D01*
X135376589Y-76315990D01*
X135646842Y-76427932D01*
X135933740Y-76485000D01*
X136226260Y-76485000D01*
X136513158Y-76427932D01*
X136783411Y-76315990D01*
X137026632Y-76153475D01*
X137233475Y-75946632D01*
X137395990Y-75703411D01*
X137507932Y-75433158D01*
X137565000Y-75146260D01*
X137565000Y-74853740D01*
X137507932Y-74566842D01*
X137395990Y-74296589D01*
X137233475Y-74053368D01*
X137026632Y-73846525D01*
X136783411Y-73684010D01*
X136513158Y-73572068D01*
X136226260Y-73515000D01*
X135933740Y-73515000D01*
X135646842Y-73572068D01*
X135376589Y-73684010D01*
X135133368Y-73846525D01*
X134926525Y-74053368D01*
X134810000Y-74227760D01*
X134693475Y-74053368D01*
X134486632Y-73846525D01*
X134243411Y-73684010D01*
X133973158Y-73572068D01*
X133686260Y-73515000D01*
X133393740Y-73515000D01*
X133106842Y-73572068D01*
X132836589Y-73684010D01*
X132593368Y-73846525D01*
X132461513Y-73978380D01*
X132439502Y-73905820D01*
X132380537Y-73795506D01*
X132301185Y-73698815D01*
X132204494Y-73619463D01*
X132094180Y-73560498D01*
X131974482Y-73524188D01*
X131850000Y-73511928D01*
X130150000Y-73511928D01*
X130025518Y-73524188D01*
X129905820Y-73560498D01*
X129795506Y-73619463D01*
X129698815Y-73698815D01*
X129619463Y-73795506D01*
X129560498Y-73905820D01*
X129524188Y-74025518D01*
X129511928Y-74150000D01*
X122660000Y-74150000D01*
X122660000Y-72660000D01*
X146124443Y-72660000D01*
X146036066Y-72696607D01*
G37*
X146036066Y-72696607D02*
X145702763Y-72919313D01*
X145419313Y-73202763D01*
X145196607Y-73536066D01*
X145043204Y-73906413D01*
X144965000Y-74299570D01*
X144965000Y-74700430D01*
X145043204Y-75093587D01*
X145196607Y-75463934D01*
X145419313Y-75797237D01*
X145702763Y-76080687D01*
X146036066Y-76303393D01*
X146406413Y-76456796D01*
X146799570Y-76535000D01*
X147200430Y-76535000D01*
X147593587Y-76456796D01*
X147963934Y-76303393D01*
X148297237Y-76080687D01*
X148580687Y-75797237D01*
X148803393Y-75463934D01*
X148956796Y-75093587D01*
X149035000Y-74700430D01*
X149035000Y-74299570D01*
X148956796Y-73906413D01*
X148803393Y-73536066D01*
X148580687Y-73202763D01*
X148297237Y-72919313D01*
X147963934Y-72696607D01*
X147875557Y-72660000D01*
X149340001Y-72660000D01*
X149340000Y-101340000D01*
X147883154Y-101340000D01*
X148096865Y-101225770D01*
X148240842Y-100920447D01*
X147000000Y-99679605D01*
X145759158Y-100920447D01*
X145903135Y-101225770D01*
X146129133Y-101340000D01*
X122660000Y-101340000D01*
X122660000Y-99546777D01*
X144955690Y-99546777D01*
X145004096Y-99944704D01*
X145129205Y-100325540D01*
X145274230Y-100596865D01*
X145579553Y-100740842D01*
X146820395Y-99500000D01*
X147179605Y-99500000D01*
X148420447Y-100740842D01*
X148725770Y-100596865D01*
X148906597Y-100239108D01*
X149014155Y-99852947D01*
X149044310Y-99453223D01*
X148995904Y-99055296D01*
X148870795Y-98674460D01*
X148725770Y-98403135D01*
X148420447Y-98259158D01*
X147179605Y-99500000D01*
X146820395Y-99500000D01*
X145579553Y-98259158D01*
X145274230Y-98403135D01*
X145093403Y-98760892D01*
X144985845Y-99147053D01*
X144955690Y-99546777D01*
X122660000Y-99546777D01*
X122660000Y-94264759D01*
X123611557Y-94264759D01*
X123611557Y-94735241D01*
X123703343Y-95196683D01*
X123883389Y-95631352D01*
X124144775Y-96022544D01*
X124477456Y-96355225D01*
X124868648Y-96616611D01*
X125303317Y-96796657D01*
X125764759Y-96888443D01*
X126235241Y-96888443D01*
X126696683Y-96796657D01*
X127050743Y-96650000D01*
X130931928Y-96650000D01*
X130931928Y-98350000D01*
X130944188Y-98474482D01*
X130980498Y-98594180D01*
X131039463Y-98704494D01*
X131118815Y-98801185D01*
X131215506Y-98880537D01*
X131325820Y-98939502D01*
X131445518Y-98975812D01*
X131570000Y-98988072D01*
X133270000Y-98988072D01*
X133394482Y-98975812D01*
X133514180Y-98939502D01*
X133624494Y-98880537D01*
X133721185Y-98801185D01*
X133800537Y-98704494D01*
X133859502Y-98594180D01*
X133881513Y-98521620D01*
X134013368Y-98653475D01*
X134256589Y-98815990D01*
X134526842Y-98927932D01*
X134813740Y-98985000D01*
X135106260Y-98985000D01*
X135393158Y-98927932D01*
X135663411Y-98815990D01*
X135906632Y-98653475D01*
X136113475Y-98446632D01*
X136235195Y-98264466D01*
X136304822Y-98381355D01*
X136499731Y-98597588D01*
X136733080Y-98771641D01*
X136995901Y-98896825D01*
X137143110Y-98941476D01*
X137373000Y-98820155D01*
X137373000Y-97627000D01*
X137627000Y-97627000D01*
X137627000Y-98820155D01*
X137856890Y-98941476D01*
X138004099Y-98896825D01*
X138266920Y-98771641D01*
X138500269Y-98597588D01*
X138695178Y-98381355D01*
X138844157Y-98131252D01*
X138862496Y-98079553D01*
X145759158Y-98079553D01*
X147000000Y-99320395D01*
X148240842Y-98079553D01*
X148096865Y-97774230D01*
X147739108Y-97593403D01*
X147352947Y-97485845D01*
X146953223Y-97455690D01*
X146555296Y-97504096D01*
X146174460Y-97629205D01*
X145903135Y-97774230D01*
X145759158Y-98079553D01*
X138862496Y-98079553D01*
X138941481Y-97856891D01*
X138820814Y-97627000D01*
X137627000Y-97627000D01*
X137373000Y-97627000D01*
X137353000Y-97627000D01*
X137353000Y-97373000D01*
X137373000Y-97373000D01*
X137373000Y-96179845D01*
X137627000Y-96179845D01*
X137627000Y-97373000D01*
X138820814Y-97373000D01*
X138941481Y-97143109D01*
X138844157Y-96868748D01*
X138695178Y-96618645D01*
X138500269Y-96402412D01*
X138266920Y-96228359D01*
X138004099Y-96103175D01*
X137856890Y-96058524D01*
X137627000Y-96179845D01*
X137373000Y-96179845D01*
X137143110Y-96058524D01*
X136995901Y-96103175D01*
X136733080Y-96228359D01*
X136499731Y-96402412D01*
X136304822Y-96618645D01*
X136235195Y-96735534D01*
X136113475Y-96553368D01*
X135906632Y-96346525D01*
X135671200Y-96189214D01*
X135671200Y-92634587D01*
X137782726Y-90523061D01*
X138140000Y-90523061D01*
X138140000Y-90726939D01*
X138179774Y-90926898D01*
X138257795Y-91115256D01*
X138371063Y-91284774D01*
X138515226Y-91428937D01*
X138684744Y-91542205D01*
X138873102Y-91620226D01*
X139073061Y-91660000D01*
X139276939Y-91660000D01*
X139476898Y-91620226D01*
X139665256Y-91542205D01*
X139834774Y-91428937D01*
X139853711Y-91410000D01*
X142299843Y-91410000D01*
X145117321Y-94227479D01*
X145043204Y-94406413D01*
X144965000Y-94799570D01*
X144965000Y-95200430D01*
X145043204Y-95593587D01*
X145196607Y-95963934D01*
X145419313Y-96297237D01*
X145702763Y-96580687D01*
X146036066Y-96803393D01*
X146406413Y-96956796D01*
X146799570Y-97035000D01*
X147200430Y-97035000D01*
X147593587Y-96956796D01*
X147963934Y-96803393D01*
X148297237Y-96580687D01*
X148580687Y-96297237D01*
X148803393Y-95963934D01*
X148956796Y-95593587D01*
X149035000Y-95200430D01*
X149035000Y-94799570D01*
X148956796Y-94406413D01*
X148803393Y-94036066D01*
X148580687Y-93702763D01*
X148297237Y-93419313D01*
X147963934Y-93196607D01*
X147593587Y-93043204D01*
X147200430Y-92965000D01*
X146799570Y-92965000D01*
X146406413Y-93043204D01*
X146227479Y-93117321D01*
X143207347Y-90097190D01*
X143182764Y-90067236D01*
X143063233Y-89969138D01*
X142926860Y-89896246D01*
X142778887Y-89851359D01*
X142663561Y-89840000D01*
X142663553Y-89840000D01*
X142625000Y-89836203D01*
X142586447Y-89840000D01*
X139853711Y-89840000D01*
X139834774Y-89821063D01*
X139665256Y-89707795D01*
X139476898Y-89629774D01*
X139276939Y-89590000D01*
X139073061Y-89590000D01*
X138873102Y-89629774D01*
X138684744Y-89707795D01*
X138515226Y-89821063D01*
X138371063Y-89965226D01*
X138257795Y-90134744D01*
X138179774Y-90323102D01*
X138140000Y-90523061D01*
X137782726Y-90523061D01*
X146144589Y-82161200D01*
X147247489Y-82161200D01*
X147340226Y-82253937D01*
X147509744Y-82367205D01*
X147698102Y-82445226D01*
X147898061Y-82485000D01*
X148101939Y-82485000D01*
X148301898Y-82445226D01*
X148490256Y-82367205D01*
X148659774Y-82253937D01*
X148803937Y-82109774D01*
X148917205Y-81940256D01*
X148995226Y-81751898D01*
X149035000Y-81551939D01*
X149035000Y-81348061D01*
X148995226Y-81148102D01*
X148917205Y-80959744D01*
X148803937Y-80790226D01*
X148659774Y-80646063D01*
X148490256Y-80532795D01*
X148387636Y-80490288D01*
X148580687Y-80297237D01*
X148803393Y-79963934D01*
X148956796Y-79593587D01*
X149035000Y-79200430D01*
X149035000Y-78799570D01*
X148956796Y-78406413D01*
X148803393Y-78036066D01*
X148580687Y-77702763D01*
X148297237Y-77419313D01*
X147963934Y-77196607D01*
X147593587Y-77043204D01*
X147200430Y-76965000D01*
X146799570Y-76965000D01*
X146406413Y-77043204D01*
X146036066Y-77196607D01*
X145702763Y-77419313D01*
X145419313Y-77702763D01*
X145196607Y-78036066D01*
X145043204Y-78406413D01*
X144965000Y-78799570D01*
X144965000Y-79200430D01*
X145043204Y-79593587D01*
X145196607Y-79963934D01*
X145419313Y-80297237D01*
X145702763Y-80580687D01*
X145939396Y-80738800D01*
X145884928Y-80738800D01*
X145850000Y-80735360D01*
X145815071Y-80738800D01*
X145815064Y-80738800D01*
X145710580Y-80749091D01*
X145576518Y-80789758D01*
X145452967Y-80855798D01*
X145371809Y-80922402D01*
X145371804Y-80922407D01*
X145344673Y-80944673D01*
X145322407Y-80971804D01*
X134481811Y-91812402D01*
X134454673Y-91834674D01*
X134365798Y-91942968D01*
X134299758Y-92066520D01*
X134259091Y-92200581D01*
X134248800Y-92305065D01*
X134248800Y-92305074D01*
X134245360Y-92340000D01*
X134248800Y-92374926D01*
X134248801Y-96189214D01*
X134013368Y-96346525D01*
X133881513Y-96478380D01*
X133859502Y-96405820D01*
X133800537Y-96295506D01*
X133721185Y-96198815D01*
X133624494Y-96119463D01*
X133514180Y-96060498D01*
X133394482Y-96024188D01*
X133270000Y-96011928D01*
X131570000Y-96011928D01*
X131445518Y-96024188D01*
X131325820Y-96060498D01*
X131215506Y-96119463D01*
X131118815Y-96198815D01*
X131039463Y-96295506D01*
X130980498Y-96405820D01*
X130944188Y-96525518D01*
X130931928Y-96650000D01*
X127050743Y-96650000D01*
X127131352Y-96616611D01*
X127522544Y-96355225D01*
X127855225Y-96022544D01*
X128116611Y-95631352D01*
X128296657Y-95196683D01*
X128388443Y-94735241D01*
X128388443Y-94264759D01*
X128296657Y-93803317D01*
X128116611Y-93368648D01*
X127855225Y-92977456D01*
X127522544Y-92644775D01*
X127131352Y-92383389D01*
X126696683Y-92203343D01*
X126235241Y-92111557D01*
X125764759Y-92111557D01*
X125303317Y-92203343D01*
X124868648Y-92383389D01*
X124477456Y-92644775D01*
X124144775Y-92977456D01*
X123883389Y-93368648D01*
X123703343Y-93803317D01*
X123611557Y-94264759D01*
X122660000Y-94264759D01*
X122660000Y-79264759D01*
X123611557Y-79264759D01*
X123611557Y-79735241D01*
X123703343Y-80196683D01*
X123883389Y-80631352D01*
X124144775Y-81022544D01*
X124477456Y-81355225D01*
X124868648Y-81616611D01*
X125303317Y-81796657D01*
X125764759Y-81888443D01*
X126235241Y-81888443D01*
X126696683Y-81796657D01*
X127131352Y-81616611D01*
X127522544Y-81355225D01*
X127855225Y-81022544D01*
X128116611Y-80631352D01*
X128296657Y-80196683D01*
X128388443Y-79735241D01*
X128388443Y-79264759D01*
X128296657Y-78803317D01*
X128116611Y-78368648D01*
X127855225Y-77977456D01*
X127522544Y-77644775D01*
X127131352Y-77383389D01*
X126696683Y-77203343D01*
X126235241Y-77111557D01*
X125764759Y-77111557D01*
X125303317Y-77203343D01*
X124868648Y-77383389D01*
X124477456Y-77644775D01*
X124144775Y-77977456D01*
X123883389Y-78368648D01*
X123703343Y-78803317D01*
X123611557Y-79264759D01*
X122660000Y-79264759D01*
X122660000Y-74150000D01*
X129511928Y-74150000D01*
X129511928Y-75850000D01*
X129524188Y-75974482D01*
X129560498Y-76094180D01*
X129619463Y-76204494D01*
X129698815Y-76301185D01*
X129795506Y-76380537D01*
X129905820Y-76439502D01*
X130025518Y-76475812D01*
X130150000Y-76488072D01*
X131850000Y-76488072D01*
X131974482Y-76475812D01*
X132094180Y-76439502D01*
X132204494Y-76380537D01*
X132301185Y-76301185D01*
X132380537Y-76204494D01*
X132439502Y-76094180D01*
X132461513Y-76021620D01*
X132593368Y-76153475D01*
X132836589Y-76315990D01*
X133106842Y-76427932D01*
X133393740Y-76485000D01*
X133686260Y-76485000D01*
X133973158Y-76427932D01*
X134243411Y-76315990D01*
X134486632Y-76153475D01*
X134693475Y-75946632D01*
X134810000Y-75772240D01*
X134926525Y-75946632D01*
X135133368Y-76153475D01*
X135376589Y-76315990D01*
X135646842Y-76427932D01*
X135933740Y-76485000D01*
X136226260Y-76485000D01*
X136513158Y-76427932D01*
X136783411Y-76315990D01*
X137026632Y-76153475D01*
X137233475Y-75946632D01*
X137395990Y-75703411D01*
X137507932Y-75433158D01*
X137565000Y-75146260D01*
X137565000Y-74853740D01*
X137507932Y-74566842D01*
X137395990Y-74296589D01*
X137233475Y-74053368D01*
X137026632Y-73846525D01*
X136783411Y-73684010D01*
X136513158Y-73572068D01*
X136226260Y-73515000D01*
X135933740Y-73515000D01*
X135646842Y-73572068D01*
X135376589Y-73684010D01*
X135133368Y-73846525D01*
X134926525Y-74053368D01*
X134810000Y-74227760D01*
X134693475Y-74053368D01*
X134486632Y-73846525D01*
X134243411Y-73684010D01*
X133973158Y-73572068D01*
X133686260Y-73515000D01*
X133393740Y-73515000D01*
X133106842Y-73572068D01*
X132836589Y-73684010D01*
X132593368Y-73846525D01*
X132461513Y-73978380D01*
X132439502Y-73905820D01*
X132380537Y-73795506D01*
X132301185Y-73698815D01*
X132204494Y-73619463D01*
X132094180Y-73560498D01*
X131974482Y-73524188D01*
X131850000Y-73511928D01*
X130150000Y-73511928D01*
X130025518Y-73524188D01*
X129905820Y-73560498D01*
X129795506Y-73619463D01*
X129698815Y-73698815D01*
X129619463Y-73795506D01*
X129560498Y-73905820D01*
X129524188Y-74025518D01*
X129511928Y-74150000D01*
X122660000Y-74150000D01*
X122660000Y-72660000D01*
X146124443Y-72660000D01*
X146036066Y-72696607D01*
M02*
