G04 ================== begin FILE IDENTIFICATION RECORD ==================*
G04 Layout Name:  CC26xx_4x4_Ext_Reg_lvl_shifter.brd*
G04 Film Name:    soldmask_top*
G04 File Format:  Gerber RS274X*
G04 File Origin:  Cadence Allegro 16.6-S021*
G04 Origin Date:  Wed Jan 21 14:47:14 2015*
G04 *
G04 Layer:  PIN/SOLDERMASK_TOP*
G04 Layer:  BOARD GEOMETRY/OUTLINE*
G04 *
G04 Offset:    (0.000 0.000)*
G04 Mirror:    No*
G04 Mode:      Positive*
G04 Rotation:  0*
G04 FullContactRelief:  No*
G04 UndefLineWidth:     0.020*
G04 ================== end FILE IDENTIFICATION RECORD ====================*
%FSLAX44Y44*MOMM*%
%IR0*IPPOS*OFA0.00000B0.00000*MIA0B0*SFA1.00000B1.00000*%
%AMMACRO30*
4,1,41,0.0,.525,
-.225,.525,
-.264071,.521582,
-.301955,.511431,
-.3375,.494856,
-.369627,.47236,
-.39736,.444627,
-.419856,.4125,
-.436431,.376955,
-.446582,.339071,
-.45,.3,
-.45,-.3,
-.446582,-.339071,
-.436431,-.376955,
-.419856,-.4125,
-.39736,-.444627,
-.369627,-.47236,
-.3375,-.494856,
-.301955,-.511431,
-.264071,-.521582,
-.225,-.525,
.225,-.525,
.264071,-.521582,
.301955,-.511431,
.3375,-.494856,
.369627,-.47236,
.39736,-.444627,
.419856,-.4125,
.436431,-.376955,
.446582,-.339071,
.45,-.3,
.45,.3,
.446582,.339071,
.436431,.376955,
.419856,.4125,
.39736,.444627,
.369627,.47236,
.3375,.494856,
.301955,.511431,
.264071,.521582,
.225,.525,
0.0,.525,
0.0*
%
%ADD30MACRO30*%
%AMMACRO29*
4,1,45,0.0,-.925,
.274,-.925,
.321836,-.921106,
.368269,-.908965,
.411888,-.888946,
.451368,-.861656,
.485509,-.827925,
.513275,-.788778,
.533821,-.745405,
.546523,-.699122,
.550995,-.651337,
.551,-.65,
.551,.65,
.54676,.697806,
.534283,.74415,
.513948,.787623,
.486373,.826904,
.452395,.8608,
.413048,.888282,
.369527,.908513,
.323153,.920879,
.275337,.925005,
.274,.925,
-.274,.925,
-.321836,.921106,
-.368269,.908965,
-.411888,.888946,
-.451368,.861656,
-.485509,.827925,
-.513275,.788778,
-.533821,.745405,
-.546523,.699122,
-.550995,.651337,
-.551,.65,
-.551,-.65,
-.54676,-.697806,
-.534283,-.74415,
-.513948,-.787623,
-.486373,-.826904,
-.452395,-.8608,
-.413048,-.888282,
-.369527,-.908513,
-.323153,-.920879,
-.275337,-.925005,
-.274,-.925,
0.0,-.925,
0.0*
%
%ADD29MACRO29*%
%AMMACRO13*
4,1,41,0.0,-1.075,
.538,-1.075,
.631328,-1.066747,
.721806,-1.042414,
.806683,-1.002739,
.883381,-.948927,
.94957,-.882615,
1.003239,-.805817,
1.042756,-.720866,
1.066921,-.630343,
1.075,-.538,
1.075,.538,
1.066747,.631328,
1.042414,.721806,
1.002739,.806683,
.948927,.883381,
.882615,.94957,
.805817,1.003239,
.720866,1.042756,
.630343,1.066921,
.538,1.075,
-.538,1.075,
-.631328,1.066747,
-.721806,1.042414,
-.806683,1.002739,
-.883381,.948927,
-.94957,.882615,
-1.003239,.805817,
-1.042756,.720866,
-1.066921,.630343,
-1.075,.538,
-1.075,-.538,
-1.066747,-.631328,
-1.042414,-.721806,
-1.002739,-.806683,
-.948927,-.883381,
-.882615,-.94957,
-.805817,-1.003239,
-.720866,-1.042756,
-.630343,-1.066921,
-.538,-1.075,
0.0,-1.075,
0.0*
%
%ADD13MACRO13*%
%ADD12O,.5X1.3*%
%AMMACRO18*
4,1,40,.325,.16,
.325,-.16,
.322569,-.187784,
.315351,-.214723,
.303564,-.24,
.287567,-.262846,
.267846,-.282567,
.245,-.298564,
.219723,-.310351,
.192784,-.317569,
.165,-.32,
-.165,-.32,
-.192784,-.317569,
-.219723,-.310351,
-.245,-.298564,
-.267846,-.282567,
-.287567,-.262846,
-.303564,-.24,
-.315351,-.214723,
-.322569,-.187784,
-.325,-.16,
-.325,.16,
-.322569,.187784,
-.315351,.214723,
-.303564,.24,
-.287567,.262846,
-.267846,.282567,
-.245,.298564,
-.219723,.310351,
-.192784,.317569,
-.165,.32,
.165,.32,
.192784,.317569,
.219723,.310351,
.245,.298564,
.267846,.282567,
.287567,.262846,
.303564,.24,
.315351,.214723,
.322569,.187784,
.325,.16,
0.0*
%
%ADD18MACRO18*%
%AMMACRO14*
4,1,40,.16,-.325,
-.16,-.325,
-.187784,-.322569,
-.214723,-.315351,
-.24,-.303564,
-.262846,-.287567,
-.282567,-.267846,
-.298564,-.245,
-.310351,-.219723,
-.317569,-.192784,
-.32,-.165,
-.32,.165,
-.317569,.192784,
-.310351,.219723,
-.298564,.245,
-.282567,.267846,
-.262846,.287567,
-.24,.303564,
-.214723,.315351,
-.187784,.322569,
-.16,.325,
.16,.325,
.187784,.322569,
.214723,.315351,
.24,.303564,
.262846,.287567,
.282567,.267846,
.298564,.245,
.310351,.219723,
.317569,.192784,
.32,.165,
.32,-.165,
.317569,-.192784,
.310351,-.219723,
.298564,-.245,
.282567,-.267846,
.262846,-.287567,
.24,-.303564,
.214723,-.315351,
.187784,-.322569,
.16,-.325,
0.0*
%
%ADD14MACRO14*%
%ADD20C,1.951*%
%ADD11C,1.699*%
%AMMACRO28*
4,1,44,-.274,.749,
.274,.749,
.321783,.74517,
.368174,.7331,
.411765,.713158,
.451231,.68595,
.485372,.652302,
.513152,.613236,
.533726,.56994,
.546469,.523729,
.550995,.476007,
.551,.475,
.551,-.475,
.54665,-.522738,
.534076,-.568995,
.51366,-.612366,
.486024,-.651534,
.452006,-.685307,
.41264,-.712659,
.369122,-.732761,
.322775,-.745,
.275007,-.749005,
.274,-.749,
-.274,-.749,
-.321783,-.74517,
-.368174,-.7331,
-.411765,-.713158,
-.451231,-.68595,
-.485372,-.652302,
-.513152,-.613236,
-.533726,-.56994,
-.546469,-.523729,
-.550995,-.476007,
-.551,-.475,
-.551,.475,
-.54665,.522738,
-.534076,.568995,
-.51366,.612366,
-.486024,.651534,
-.452006,.685307,
-.41264,.712659,
-.369122,.732761,
-.322775,.745,
-.275007,.749005,
-.274,.749,
0.0*
%
%ADD28MACRO28*%
%ADD22R,2.949X2.949*%
%AMMACRO27*
4,1,41,0.0,.375,
-.1,.375,
-.117365,.373481,
-.134202,.368969,
-.15,.361603,
-.164279,.351604,
-.176604,.339279,
-.186603,.325,
-.193969,.309202,
-.198481,.292365,
-.2,.275,
-.2,-.275,
-.198481,-.292365,
-.193969,-.309202,
-.186603,-.325,
-.176604,-.339279,
-.164279,-.351604,
-.15,-.361603,
-.134202,-.368969,
-.117365,-.373481,
-.1,-.375,
.1,-.375,
.117365,-.373481,
.134202,-.368969,
.15,-.361603,
.164279,-.351604,
.176604,-.339279,
.186603,-.325,
.193969,-.309202,
.198481,-.292365,
.2,-.275,
.2,.275,
.198481,.292365,
.193969,.309202,
.186603,.325,
.176604,.339279,
.164279,.351604,
.15,.361603,
.134202,.368969,
.117365,.373481,
.1,.375,
0.0,.375,
0.0*
%
%ADD27MACRO27*%
%AMMACRO24*
4,1,41,0.0,-.525,
.225,-.525,
.264071,-.521582,
.301955,-.511431,
.3375,-.494856,
.369627,-.47236,
.39736,-.444627,
.419856,-.4125,
.436431,-.376955,
.446582,-.339071,
.45,-.3,
.45,.3,
.446582,.339071,
.436431,.376955,
.419856,.4125,
.39736,.444627,
.369627,.47236,
.3375,.494856,
.301955,.511431,
.264071,.521582,
.225,.525,
-.225,.525,
-.264071,.521582,
-.301955,.511431,
-.3375,.494856,
-.369627,.47236,
-.39736,.444627,
-.419856,.4125,
-.436431,.376955,
-.446582,.339071,
-.45,.3,
-.45,-.3,
-.446582,-.339071,
-.436431,-.376955,
-.419856,-.4125,
-.39736,-.444627,
-.369627,-.47236,
-.3375,-.494856,
-.301955,-.511431,
-.264071,-.521582,
-.225,-.525,
0.0,-.525,
0.0*
%
%ADD24MACRO24*%
%AMMACRO21*
4,1,45,0.0,.424,
-.086,.424,
-.096819,.423375,
-.107366,.420881,
-.117319,.416593,
-.126377,.410642,
-.134263,.403208,
-.140739,.394518,
-.145607,.384836,
-.14872,.374455,
-.149983,.363691,
-.15,.363,
-.15,-.363,
-.148857,-.373777,
-.145859,-.384192,
-.141099,-.393928,
-.13472,-.402689,
-.126917,-.41021,
-.117926,-.416261,
-.108021,-.42066,
-.097503,-.423271,
-.086691,-.424017,
-.086,-.424,
.086,-.424,
.096819,-.423375,
.107366,-.420881,
.117319,-.416593,
.126377,-.410642,
.134263,-.403208,
.140739,-.394518,
.145607,-.384836,
.14872,-.374455,
.149983,-.363691,
.15,-.363,
.15,.363,
.148857,.373777,
.145859,.384192,
.141099,.393928,
.13472,.402689,
.126917,.41021,
.117926,.416261,
.108021,.42066,
.097503,.423271,
.086691,.424017,
.086,.424,
0.0,.424,
0.0*
%
%ADD21MACRO21*%
%AMMACRO16*
4,1,45,-.424,0.0,
-.424,-.086,
-.423375,-.096819,
-.420881,-.107366,
-.416593,-.117319,
-.410642,-.126377,
-.403208,-.134263,
-.394518,-.140739,
-.384836,-.145607,
-.374455,-.14872,
-.363691,-.149983,
-.363,-.15,
.363,-.15,
.373777,-.148857,
.384192,-.145859,
.393928,-.141099,
.402689,-.13472,
.41021,-.126917,
.416261,-.117926,
.42066,-.108021,
.423271,-.097503,
.424017,-.086691,
.424,-.086,
.424,.086,
.423375,.096819,
.420881,.107366,
.416593,.117319,
.410642,.126377,
.403208,.134263,
.394518,.140739,
.384836,.145607,
.374455,.14872,
.363691,.149983,
.363,.15,
-.363,.15,
-.373777,.148857,
-.384192,.145859,
-.393928,.141099,
-.402689,.13472,
-.41021,.126917,
-.416261,.117926,
-.42066,.108021,
-.423271,.097503,
-.424017,.086691,
-.424,.086,
-.424,0.0,
0.0*
%
%ADD16MACRO16*%
%AMMACRO19*
4,1,40,.288,.975,
-.288,.975,
-.337916,.970545,
-.386301,.957491,
-.431683,.936232,
-.472684,.907416,
-.508059,.871918,
-.536732,.830817,
-.557833,.785361,
-.570719,.736931,
-.575,.688,
-.575,-.688,
-.570545,-.737916,
-.557491,-.786301,
-.536232,-.831683,
-.507416,-.872684,
-.471918,-.908059,
-.430817,-.936732,
-.385361,-.957833,
-.336931,-.970719,
-.288,-.975,
.288,-.975,
.337916,-.970545,
.386301,-.957491,
.431683,-.936232,
.472684,-.907416,
.508059,-.871918,
.536732,-.830817,
.557833,-.785361,
.570719,-.736931,
.575,-.688,
.575,.688,
.570545,.737916,
.557491,.786301,
.536232,.831683,
.507416,.872684,
.471918,.908059,
.430817,.936732,
.385361,.957833,
.336931,.970719,
.288,.975,
0.0*
%
%ADD19MACRO19*%
%AMMACRO17*
4,1,40,-.325,-.16,
-.325,.16,
-.322569,.187784,
-.315351,.214723,
-.303564,.24,
-.287567,.262846,
-.267846,.282567,
-.245,.298564,
-.219723,.310351,
-.192784,.317569,
-.165,.32,
.165,.32,
.192784,.317569,
.219723,.310351,
.245,.298564,
.267846,.282567,
.287567,.262846,
.303564,.24,
.315351,.214723,
.322569,.187784,
.325,.16,
.325,-.16,
.322569,-.187784,
.315351,-.214723,
.303564,-.24,
.287567,-.262846,
.267846,-.282567,
.245,-.298564,
.219723,-.310351,
.192784,-.317569,
.165,-.32,
-.165,-.32,
-.192784,-.317569,
-.219723,-.310351,
-.245,-.298564,
-.267846,-.282567,
-.287567,-.262846,
-.303564,-.24,
-.315351,-.214723,
-.322569,-.187784,
-.325,-.16,
0.0*
%
%ADD17MACRO17*%
%AMMACRO15*
4,1,40,-.16,.325,
.16,.325,
.187784,.322569,
.214723,.315351,
.24,.303564,
.262846,.287567,
.282567,.267846,
.298564,.245,
.310351,.219723,
.317569,.192784,
.32,.165,
.32,-.165,
.317569,-.192784,
.310351,-.219723,
.298564,-.245,
.282567,-.267846,
.262846,-.287567,
.24,-.303564,
.214723,-.315351,
.187784,-.322569,
.16,-.325,
-.16,-.325,
-.187784,-.322569,
-.214723,-.315351,
-.24,-.303564,
-.262846,-.287567,
-.282567,-.267846,
-.298564,-.245,
-.310351,-.219723,
-.317569,-.192784,
-.32,-.165,
-.32,.165,
-.317569,.192784,
-.310351,.219723,
-.298564,.245,
-.282567,.267846,
-.262846,.287567,
-.24,.303564,
-.214723,.315351,
-.187784,.322569,
-.16,.325,
0.0*
%
%ADD15MACRO15*%
%ADD26R,2.601X1.1*%
%ADD10O,1.15X1.15*%
%ADD23O,3.85X1.45*%
%AMMACRO25*
4,1,45,0.0,-.7,
.312,-.7,
.361931,-.695719,
.410361,-.682833,
.455817,-.661732,
.496918,-.633059,
.532416,-.597684,
.561232,-.556683,
.582491,-.511301,
.595545,-.462916,
.6,-.413,
.6,-.412,
.6,.412,
.595719,.461931,
.582833,.510361,
.561732,.555817,
.533059,.596918,
.497684,.632416,
.456683,.661232,
.411301,.682491,
.362916,.695545,
.313,.7,
.312,.7,
-.312,.7,
-.361931,.695719,
-.410361,.682833,
-.455817,.661732,
-.496918,.633059,
-.532416,.597684,
-.561232,.556683,
-.582491,.511301,
-.595545,.462916,
-.6,.413,
-.6,.412,
-.6,-.412,
-.595719,-.461931,
-.582833,-.510361,
-.561732,-.555817,
-.533059,-.596918,
-.497684,-.632416,
-.456683,-.661232,
-.411301,-.682491,
-.362916,-.695545,
-.313,-.7,
-.312,-.7,
0.0,-.7,
0.0*
%
%ADD25MACRO25*%
%ADD31C,.02*%
G75*
%LPD*%
G75*
G54D10*
X1084000Y953000D03*
X1090000Y1311000D03*
X1444000Y953000D03*
G54D11*
X1113020Y969830D03*
Y1115880D03*
X1417820Y969830D03*
Y1115880D03*
G54D20*
X1200000Y1250000D03*
G54D21*
X1261000Y1100000D03*
X1257000D03*
X1253000D03*
X1249000D03*
X1245000D03*
X1241000D03*
X1237000D03*
X1233000D03*
Y1141000D03*
X1237000D03*
X1241000D03*
X1245000D03*
X1249000D03*
X1253000D03*
X1257000D03*
X1261000D03*
G54D12*
X1172500Y952000D03*
X1166000D03*
X1159500D03*
X1179000D03*
X1159500Y1009000D03*
X1166000D03*
X1172500D03*
X1179000D03*
X1218000Y952000D03*
X1211500D03*
X1205000D03*
X1198500D03*
X1192000D03*
X1185500D03*
Y1009000D03*
X1192000D03*
X1198500D03*
X1205000D03*
X1211500D03*
X1218000D03*
X1250500Y952000D03*
X1244000D03*
X1237500D03*
X1263500D03*
X1257000D03*
X1237500Y1009000D03*
X1244000D03*
X1250500D03*
X1257000D03*
X1263500D03*
X1296000Y952000D03*
X1289500D03*
X1283000D03*
X1276500D03*
X1270000D03*
Y1009000D03*
X1276500D03*
X1283000D03*
X1289500D03*
X1296000D03*
G54D30*
X1359000Y1062000D03*
X1373000D03*
G54D31*
G01X1069000Y937000D02*
X1460000D01*
Y1406000D01*
X1069000D01*
Y937000D01*
G54D22*
X1247000Y1120500D03*
G54D13*
X1172000Y1222000D03*
Y1278000D03*
X1228000Y1222000D03*
Y1278000D03*
G54D23*
X1321000Y1004400D03*
Y979000D03*
X1365400Y1004400D03*
Y979000D03*
G54D14*
X1218000Y1025500D03*
Y1033500D03*
X1244000Y1027000D03*
Y1035000D03*
X1261000Y1250000D03*
Y1258000D03*
Y1298000D03*
Y1306000D03*
X1300000Y1054000D03*
Y1062000D03*
G54D15*
X1206000Y1033500D03*
Y1025500D03*
X1198000Y1033500D03*
Y1025500D03*
X1228000Y953000D03*
Y945000D03*
Y1010000D03*
Y1002000D03*
X1252000Y1163000D03*
Y1155000D03*
X1261000Y1171000D03*
Y1163000D03*
Y1197000D03*
Y1189000D03*
X1305000Y953000D03*
Y945000D03*
X1290000Y1029000D03*
Y1021000D03*
G54D24*
X1310000Y1062000D03*
X1349000D03*
X1335000D03*
X1324000D03*
G54D25*
X1300000Y1142200D03*
Y1164500D03*
X1317300Y1142200D03*
Y1164500D03*
G54D16*
X1226500Y1106500D03*
Y1110500D03*
Y1114500D03*
Y1118500D03*
Y1122500D03*
Y1126500D03*
Y1130500D03*
Y1134500D03*
X1267500D03*
Y1130500D03*
Y1126500D03*
Y1122500D03*
Y1118500D03*
Y1114500D03*
Y1110500D03*
Y1106500D03*
G54D26*
X1353500Y1037500D03*
G54D17*
X1203000Y1121000D03*
X1211000D03*
X1203000Y1130000D03*
X1211000D03*
X1220000Y1183000D03*
X1241000Y1082000D03*
X1249000D03*
X1241000Y1090000D03*
X1249000D03*
X1253000Y1180000D03*
X1261000D03*
X1228000Y1183000D03*
X1253000Y1315000D03*
X1261000D03*
G54D27*
X1341000Y1027000D03*
X1346000D03*
X1351000D03*
X1341000Y1048000D03*
X1346000D03*
X1351000D03*
X1356000Y1027000D03*
X1361000D03*
X1366000D03*
X1356000Y1048000D03*
X1361000D03*
X1366000D03*
G54D18*
X1211000Y1183000D03*
X1203000D03*
X1269000Y1154000D03*
X1261000D03*
Y1250000D03*
X1253000D03*
X1305000Y1130000D03*
X1287000Y1111000D03*
X1279000D03*
X1287000Y1122000D03*
X1279000D03*
X1285000Y1140000D03*
X1277000D03*
X1305000Y1176000D03*
X1330000Y1024000D03*
X1322000D03*
X1313000Y1130000D03*
Y1176000D03*
G54D19*
X1203000Y1168000D03*
X1228000D03*
G54D28*
X1346000Y1076000D03*
X1362000D03*
G54D29*
X1346000Y1078000D03*
X1374000D03*
M02*
