G04 ================== begin FILE IDENTIFICATION RECORD ==================*
G04 Layout Name:  LP-CC2652RB.brd*
G04 Film Name:    LP-CC2652RB_paste_bottom*
G04 File Format:  Gerber RS274X*
G04 File Origin:  Cadence Allegro 17.2-S041*
G04 Origin Date:  Mon Oct 08 09:56:38 2018*
G04 *
G04 Layer:  DRAWING FORMAT/TITLE_BLOCK*
G04 Layer:  BOARD GEOMETRY/BOTTOM PASTE*
G04 Layer:  PIN/FILMMASKBOTTOM*
G04 Layer:  BOARD GEOMETRY/OUTLINE*
G04 *
G04 Offset:    (0.000 0.000)*
G04 Mirror:    No*
G04 Mode:      Positive*
G04 Rotation:  0*
G04 FullContactRelief:  No*
G04 UndefLineWidth:     0.099*
G04 ================== end FILE IDENTIFICATION RECORD ====================*
%FSLAX25Y25*MOMM*%
%IR0*IPPOS*OFA0.00000B0.00000*MIA0B0*SFA1.00000B1.00000*%
%ADD10C,1.27*%
%ADD11C,.1*%
%ADD12C,.099*%
%ADD13C,.15*%
G75*
%LPD*%
G75*
G54D10*
X20215000Y20700000D03*
X25645000D03*
X25200000Y29380000D03*
G54D11*
G01X20107500Y18320000D02*
Y16820000D01*
X27607500D01*
Y18320000D01*
X20107500D01*
G01X23857500D02*
Y16820000D01*
G01Y17320000D02*
X27607500D01*
G01Y17820000D02*
X23857500D01*
G01X25125100D02*
Y17320000D01*
G54D12*
G01X20146200Y20000000D02*
X25703800D01*
G03X25850000Y20146200I0J146200D01*
G01Y24450000D01*
G03X25740000Y24765000I-506023J0D01*
G02X25630000Y25080000I396023J315000D01*
G02X25740000Y25395000I506023J0D01*
G03X25850000Y25710000I-396023J315000D01*
G01Y29383800D01*
G03X25703800Y29530000I-146200J0D01*
G01X21580000D01*
Y29410000D01*
X21420000D01*
Y29200000D01*
X21330000D01*
Y29410000D01*
X20950000D01*
Y29200000D01*
X20860000D01*
Y29410000D01*
X20700000D01*
Y29530000D01*
X20146200D01*
G03X20000000Y29383800I0J-146200D01*
G01Y25710000D01*
G03X20110000Y25395000I506023J0D01*
G02X20220000Y25080000I-396023J-315000D01*
G02X20110000Y24765000I-506023J0D01*
G03X20000000Y24450000I396023J-315000D01*
G01Y20146200D01*
G03X20146200Y20000000I146200J0D01*
G01X23986200Y17495000D02*
Y17685500D01*
X24043100D01*
X24062000Y17676000D01*
X24076300Y17653800D01*
X24081000Y17628400D01*
X24076300Y17603000D01*
X24064400Y17583900D01*
X24043100Y17574400D01*
X23986200D01*
G01X24162500Y17495000D02*
Y17685500D01*
X24224100Y17526700D01*
X24285700Y17685500D01*
Y17495000D01*
G01X24624100Y17596600D02*
X24633500Y17606100D01*
X24640600Y17622000D01*
X24645400Y17644200D01*
X24640600Y17663300D01*
X24631200Y17676000D01*
X24614600Y17685500D01*
X24550600D01*
Y17495000D01*
X24628800D01*
X24645400Y17507700D01*
X24654900Y17526700D01*
X24659600Y17549000D01*
X24654900Y17571200D01*
X24640600Y17590200D01*
X24624100Y17596600D01*
X24550600D01*
G01X24795600Y17495000D02*
X24776600Y17498200D01*
X24760100Y17510900D01*
X24745800Y17529900D01*
X24736300Y17552100D01*
X24731600Y17577500D01*
Y17603000D01*
X24736300Y17628400D01*
X24745800Y17650600D01*
X24760100Y17669600D01*
X24776600Y17682300D01*
X24795600Y17685500D01*
X24814600Y17682300D01*
X24831100Y17669600D01*
X24845400Y17650600D01*
X24854900Y17628400D01*
X24859600Y17603000D01*
Y17577500D01*
X24854900Y17552100D01*
X24845400Y17529900D01*
X24831100Y17510900D01*
X24814600Y17498200D01*
X24795600Y17495000D01*
G01X24986100Y17685500D02*
Y17495000D01*
G01X24931600Y17685500D02*
X25040600D01*
G01X24170700Y16983700D02*
Y17174200D01*
X24218100D01*
X24237000Y17164700D01*
X24251200Y17152000D01*
X24263100Y17132900D01*
X24272600Y17110700D01*
X24274900Y17078900D01*
X24272600Y17047200D01*
X24263100Y17025000D01*
X24251200Y17005900D01*
X24237000Y16993200D01*
X24218100Y16983700D01*
X24170700D01*
G01X24354000D02*
X24413300Y17174200D01*
X24472600Y16983700D01*
G01X24451200Y17050400D02*
X24375400D01*
G01X24603800Y17174200D02*
Y16983700D01*
G01X24549300Y17174200D02*
X24658300D01*
G01X24841700Y16983700D02*
X24746900D01*
Y17174200D01*
X24841700D01*
G01X24803800Y17082100D02*
X24746900D01*
G01X24984800Y16977400D02*
X24980100Y16980500D01*
Y16986900D01*
X24984800Y16990000D01*
X24989500Y16986900D01*
Y16980500D01*
X24984800Y16977400D01*
G01Y17063100D02*
X24980100Y17066200D01*
Y17072600D01*
X24984800Y17075800D01*
X24989500Y17072600D01*
Y17066200D01*
X24984800Y17063100D01*
G01X25320800Y17142500D02*
X25335000Y17161500D01*
X25351600Y17171000D01*
X25370500Y17174200D01*
X25394200Y17167900D01*
X25410800Y17152000D01*
X25415600Y17132900D01*
X25413200Y17113900D01*
X25403700Y17098000D01*
X25356300Y17066200D01*
X25335000Y17044000D01*
X25320800Y17012300D01*
X25316000Y16983700D01*
X25415600D01*
G01X25556300Y17174200D02*
X25537300Y17167900D01*
X25523100Y17152000D01*
X25513600Y17132900D01*
X25506500Y17107500D01*
X25504200Y17078900D01*
X25506500Y17050400D01*
X25513600Y17025000D01*
X25523100Y17005900D01*
X25537300Y16990000D01*
X25556300Y16983700D01*
X25575300Y16990000D01*
X25589500Y17005900D01*
X25599000Y17025000D01*
X25606100Y17050400D01*
X25608400Y17078900D01*
X25606100Y17107500D01*
X25599000Y17132900D01*
X25589500Y17152000D01*
X25575300Y17167900D01*
X25556300Y17174200D01*
G01X25746800Y16983700D02*
Y17174200D01*
X25718400Y17136100D01*
G01Y16983700D02*
X25775200D01*
G01X25937300D02*
X25953900Y16986900D01*
X25972800Y16996400D01*
X25984700Y17012300D01*
X25989400Y17034500D01*
X25984700Y17056700D01*
X25970500Y17075800D01*
X25949100Y17085300D01*
X25925500D01*
X25911200Y17091700D01*
X25899400Y17107500D01*
X25894600Y17129700D01*
X25901800Y17152000D01*
X25918300Y17167900D01*
X25937300Y17174200D01*
X25956300Y17167900D01*
X25972800Y17152000D01*
X25980000Y17129700D01*
X25975200Y17107500D01*
X25963400Y17091700D01*
X25949100Y17085300D01*
X25925500D01*
X25904100Y17075800D01*
X25889900Y17056700D01*
X25885200Y17034500D01*
X25889900Y17012300D01*
X25901800Y16996400D01*
X25920700Y16986900D01*
X25937300Y16983700D01*
G01X26097000Y17047200D02*
X26158600D01*
G01X26318300Y16983700D02*
Y17174200D01*
X26289900Y17136100D01*
G01Y16983700D02*
X26346700D01*
G01X26508800Y17174200D02*
X26489800Y17167900D01*
X26475600Y17152000D01*
X26466100Y17132900D01*
X26459000Y17107500D01*
X26456700Y17078900D01*
X26459000Y17050400D01*
X26466100Y17025000D01*
X26475600Y17005900D01*
X26489800Y16990000D01*
X26508800Y16983700D01*
X26527800Y16990000D01*
X26542000Y17005900D01*
X26551500Y17025000D01*
X26558600Y17050400D01*
X26560900Y17078900D01*
X26558600Y17107500D01*
X26551500Y17132900D01*
X26542000Y17152000D01*
X26527800Y17167900D01*
X26508800Y17174200D01*
G01X26668500Y17047200D02*
X26730100D01*
G01X26889800Y17174200D02*
X26870800Y17167900D01*
X26856600Y17152000D01*
X26847100Y17132900D01*
X26840000Y17107500D01*
X26837700Y17078900D01*
X26840000Y17050400D01*
X26847100Y17025000D01*
X26856600Y17005900D01*
X26870800Y16990000D01*
X26889800Y16983700D01*
X26908800Y16990000D01*
X26923000Y17005900D01*
X26932500Y17025000D01*
X26939600Y17050400D01*
X26941900Y17078900D01*
X26939600Y17107500D01*
X26932500Y17132900D01*
X26923000Y17152000D01*
X26908800Y17167900D01*
X26889800Y17174200D01*
G01X27080300Y16983700D02*
X27096900Y16986900D01*
X27115800Y16996400D01*
X27127700Y17012300D01*
X27132400Y17034500D01*
X27127700Y17056700D01*
X27113500Y17075800D01*
X27092100Y17085300D01*
X27068500D01*
X27054200Y17091700D01*
X27042400Y17107500D01*
X27037600Y17129700D01*
X27044800Y17152000D01*
X27061300Y17167900D01*
X27080300Y17174200D01*
X27099300Y17167900D01*
X27115800Y17152000D01*
X27123000Y17129700D01*
X27118200Y17107500D01*
X27106400Y17091700D01*
X27092100Y17085300D01*
X27068500D01*
X27047100Y17075800D01*
X27032900Y17056700D01*
X27028200Y17034500D01*
X27032900Y17012300D01*
X27044800Y16996400D01*
X27063700Y16986900D01*
X27080300Y16983700D01*
G01X24217800Y18169200D02*
Y17978700D01*
G01X24163300Y18169200D02*
X24272300D01*
G01X24455700Y17978700D02*
X24360900D01*
Y18169200D01*
X24455700D01*
G01X24417800Y18077100D02*
X24360900D01*
G01X24549000Y17978700D02*
X24648600Y18169200D01*
G01X24549000D02*
X24648600Y17978700D01*
G01X24730000D02*
X24789300Y18169200D01*
X24848600Y17978700D01*
G01X24827200Y18045400D02*
X24751400D01*
G01X24930000Y18004100D02*
X24949000Y17988200D01*
X24970300Y17978700D01*
X24989300D01*
X25008200Y17988200D01*
X25022500Y18004100D01*
X25029600Y18026300D01*
X25024800Y18048500D01*
X25013000Y18067600D01*
X24991600Y18080300D01*
X24963200Y18086700D01*
X24946600Y18099300D01*
X24939500Y18121600D01*
X24944300Y18143800D01*
X24956100Y18159700D01*
X24972700Y18169200D01*
X24989300D01*
X25005900Y18162900D01*
X25020100Y18147000D01*
G01X25332400Y18169200D02*
X25389200D01*
G01X25360800D02*
Y17978700D01*
G01X25332400D02*
X25389200D01*
G01X25496800D02*
Y18169200D01*
X25605800Y17978700D01*
Y18169200D01*
G01X25692000Y18004100D02*
X25711000Y17988200D01*
X25732300Y17978700D01*
X25751300D01*
X25770200Y17988200D01*
X25784500Y18004100D01*
X25791600Y18026300D01*
X25786800Y18048500D01*
X25775000Y18067600D01*
X25753600Y18080300D01*
X25725200Y18086700D01*
X25708600Y18099300D01*
X25701500Y18121600D01*
X25706300Y18143800D01*
X25718100Y18159700D01*
X25734700Y18169200D01*
X25751300D01*
X25767900Y18162900D01*
X25782100Y18147000D01*
G01X25932300Y18169200D02*
Y17978700D01*
G01X25877800Y18169200D02*
X25986800D01*
G01X26075400Y17978700D02*
Y18169200D01*
X26134600D01*
X26153600Y18159700D01*
X26165500Y18147000D01*
X26170200Y18121600D01*
X26165500Y18096200D01*
X26151200Y18080300D01*
X26134600Y18070800D01*
X26075400D01*
G01X26134600D02*
X26170200Y17978700D01*
G01X26261200Y18169200D02*
Y18032700D01*
X26270600Y18004100D01*
X26289600Y17985000D01*
X26313300Y17978700D01*
X26337000Y17985000D01*
X26356000Y18004100D01*
X26365400Y18032700D01*
Y18169200D01*
G01X26442200Y17978700D02*
Y18169200D01*
X26503800Y18010400D01*
X26565400Y18169200D01*
Y17978700D01*
G01X26741700D02*
X26646900D01*
Y18169200D01*
X26741700D01*
G01X26703800Y18077100D02*
X26646900D01*
G01X26830300Y17978700D02*
Y18169200D01*
X26939300Y17978700D01*
Y18169200D01*
G01X27075300D02*
Y17978700D01*
G01X27020800Y18169200D02*
X27129800D01*
G01X27216000Y18004100D02*
X27235000Y17988200D01*
X27256300Y17978700D01*
X27275300D01*
X27294200Y17988200D01*
X27308500Y18004100D01*
X27315600Y18026300D01*
X27310800Y18048500D01*
X27299000Y18067600D01*
X27277600Y18080300D01*
X27249200Y18086700D01*
X27232600Y18099300D01*
X27225500Y18121600D01*
X27230300Y18143800D01*
X27242100Y18159700D01*
X27258700Y18169200D01*
X27275300D01*
X27291900Y18162900D01*
X27306100Y18147000D01*
G54D13*
G01X25236800Y17365000D02*
Y17516900D01*
X25281000Y17390300D01*
X25325300Y17516900D01*
Y17365000D01*
G01X25435600Y17504200D02*
X25425400Y17511800D01*
X25413500Y17516900D01*
X25399900D01*
X25384500Y17509300D01*
X25372600Y17496600D01*
X25364100Y17481500D01*
X25357300Y17456100D01*
X25355600Y17433400D01*
X25359000Y17410600D01*
X25364100Y17395400D01*
X25374300Y17380200D01*
X25386200Y17370100D01*
X25398100Y17365000D01*
X25410100D01*
X25422000Y17370100D01*
X25432200Y17377700D01*
X25440700Y17387800D01*
G01X25477800Y17516900D02*
Y17408000D01*
X25484600Y17385200D01*
X25498200Y17370100D01*
X25515200Y17365000D01*
X25532300Y17370100D01*
X25545900Y17385200D01*
X25552700Y17408000D01*
Y17516900D01*
G01X25632300D02*
X25618700Y17511800D01*
X25608500Y17499200D01*
X25601700Y17484000D01*
X25596600Y17463700D01*
X25594900Y17440900D01*
X25596600Y17418200D01*
X25601700Y17397900D01*
X25608500Y17382700D01*
X25618700Y17370100D01*
X25632300Y17365000D01*
X25646000Y17370100D01*
X25656200Y17382700D01*
X25663000Y17397900D01*
X25668100Y17418200D01*
X25669800Y17440900D01*
X25668100Y17463700D01*
X25663000Y17484000D01*
X25656200Y17499200D01*
X25646000Y17511800D01*
X25632300Y17516900D01*
G01X25717100Y17428300D02*
X25729000Y17446000D01*
X25739200Y17456100D01*
X25752900Y17461200D01*
X25764800Y17456100D01*
X25773300Y17446000D01*
X25780100Y17430800D01*
X25781800Y17413100D01*
X25780100Y17397900D01*
X25773300Y17382700D01*
X25763100Y17370100D01*
X25751200Y17365000D01*
X25737500Y17370100D01*
X25725600Y17385200D01*
X25718800Y17408000D01*
X25717100Y17433400D01*
X25720500Y17466300D01*
X25725600Y17484000D01*
X25734100Y17501700D01*
X25746000Y17514400D01*
X25758000Y17516900D01*
X25769900Y17511800D01*
X25778400Y17499200D01*
G01X25863100Y17365000D02*
X25866500Y17397900D01*
X25871700Y17425800D01*
X25878500Y17451100D01*
X25887000Y17478900D01*
X25900600Y17516900D01*
X25832500D01*
G01X26066700Y17365000D02*
Y17516900D01*
X26109300D01*
X26122900Y17509300D01*
X26131400Y17499200D01*
X26134800Y17478900D01*
X26131400Y17458700D01*
X26121200Y17446000D01*
X26109300Y17438400D01*
X26066700D01*
G01X26109300D02*
X26134800Y17365000D01*
G01X26192300Y17433400D02*
X26246800D01*
X26241700Y17451100D01*
X26233200Y17461200D01*
X26221300Y17466300D01*
X26209300Y17463700D01*
X26199100Y17456100D01*
X26192300Y17438400D01*
X26188900Y17423200D01*
Y17408000D01*
X26192300Y17392800D01*
X26200800Y17377700D01*
X26211000Y17367500D01*
X26223000Y17365000D01*
X26234900Y17370100D01*
X26246800Y17385200D01*
G01X26304300Y17466300D02*
X26334900Y17365000D01*
X26365600Y17466300D01*
G01X26452000Y17359900D02*
X26448600Y17362500D01*
Y17367500D01*
X26452000Y17370100D01*
X26455500Y17367500D01*
Y17362500D01*
X26452000Y17359900D01*
G01X26643700Y17365000D02*
X26686200Y17516900D01*
X26728800Y17365000D01*
G01X26713500Y17418200D02*
X26659000D01*
G01X25237000Y17766900D02*
Y17615000D01*
X25305100D01*
G01X25354100D02*
Y17766900D01*
X25395000D01*
X25408600Y17759300D01*
X25418800Y17741600D01*
X25422200Y17721300D01*
X25418800Y17701100D01*
X25410300Y17685900D01*
X25395000Y17678300D01*
X25354100D01*
G01X25483100Y17665600D02*
X25527400D01*
G01X25659800Y17754200D02*
X25649600Y17761800D01*
X25637700Y17766900D01*
X25624100D01*
X25608700Y17759300D01*
X25596800Y17746600D01*
X25588300Y17731500D01*
X25581500Y17706100D01*
X25579800Y17683400D01*
X25583200Y17660600D01*
X25588300Y17645400D01*
X25598500Y17630200D01*
X25610400Y17620100D01*
X25622300Y17615000D01*
X25634300D01*
X25646200Y17620100D01*
X25656400Y17627700D01*
X25664900Y17637800D01*
G01X25776900Y17754200D02*
X25766700Y17761800D01*
X25754800Y17766900D01*
X25741200D01*
X25725800Y17759300D01*
X25713900Y17746600D01*
X25705400Y17731500D01*
X25698600Y17706100D01*
X25696900Y17683400D01*
X25700300Y17660600D01*
X25705400Y17645400D01*
X25715600Y17630200D01*
X25727500Y17620100D01*
X25739400Y17615000D01*
X25751400D01*
X25763300Y17620100D01*
X25773500Y17627700D01*
X25782000Y17637800D01*
G01X25824200Y17741600D02*
X25834400Y17756800D01*
X25846300Y17764400D01*
X25860000Y17766900D01*
X25877000Y17761800D01*
X25888900Y17749200D01*
X25892300Y17734000D01*
X25890600Y17718800D01*
X25883800Y17706100D01*
X25849700Y17680800D01*
X25834400Y17663100D01*
X25824200Y17637800D01*
X25820800Y17615000D01*
X25892300D01*
G01X25941300Y17678300D02*
X25953200Y17696000D01*
X25963400Y17706100D01*
X25977100Y17711200D01*
X25989000Y17706100D01*
X25997500Y17696000D01*
X26004300Y17680800D01*
X26006000Y17663100D01*
X26004300Y17647900D01*
X25997500Y17632700D01*
X25987300Y17620100D01*
X25975400Y17615000D01*
X25961700Y17620100D01*
X25949800Y17635200D01*
X25943000Y17658000D01*
X25941300Y17683400D01*
X25944700Y17716300D01*
X25949800Y17734000D01*
X25958300Y17751700D01*
X25970200Y17764400D01*
X25982200Y17766900D01*
X25994100Y17761800D01*
X26002600Y17749200D01*
G01X26053300Y17637800D02*
X26063500Y17625100D01*
X26075400Y17617500D01*
X26090700Y17615000D01*
X26106100Y17620100D01*
X26118000Y17630200D01*
X26126500Y17647900D01*
X26128200Y17668200D01*
X26124800Y17688400D01*
X26116300Y17701100D01*
X26104400Y17711200D01*
X26092500Y17713700D01*
X26080500Y17711200D01*
X26065200Y17701100D01*
X26070300Y17766900D01*
X26116300D01*
G01X26175500Y17741600D02*
X26185700Y17756800D01*
X26197600Y17764400D01*
X26211300Y17766900D01*
X26228300Y17761800D01*
X26240200Y17749200D01*
X26243600Y17734000D01*
X26241900Y17718800D01*
X26235100Y17706100D01*
X26201000Y17680800D01*
X26185700Y17663100D01*
X26175500Y17637800D01*
X26172100Y17615000D01*
X26243600D01*
G01X26290900D02*
Y17766900D01*
X26333500D01*
X26347100Y17759300D01*
X26355600Y17749200D01*
X26359000Y17728900D01*
X26355600Y17708700D01*
X26345400Y17696000D01*
X26333500Y17688400D01*
X26290900D01*
G01X26333500D02*
X26359000Y17615000D01*
G01X26455700Y17696000D02*
X26462500Y17703600D01*
X26467600Y17716300D01*
X26471000Y17734000D01*
X26467600Y17749200D01*
X26460800Y17759300D01*
X26448900Y17766900D01*
X26402900D01*
Y17615000D01*
X26459100D01*
X26471000Y17625100D01*
X26477800Y17640300D01*
X26481200Y17658000D01*
X26477800Y17675800D01*
X26467600Y17690900D01*
X26455700Y17696000D01*
X26402900D01*
M02*
