G04 Layer_Color=16776960*
%FSLAX44Y44*%
%MOMM*%
G71*
G01*
G75*
%ADD12C,0.2000*%
%ADD13C,0.1500*%
%ADD17C,0.2500*%
%ADD18C,0.6000*%
%ADD19C,0.0254*%
%ADD20C,0.1700*%
D12*
X143800Y97600D02*
G03*
X143800Y97600I-12000J0D01*
G01*
Y72200D02*
G03*
X143800Y72200I-12000J0D01*
G01*
X66000Y52200D02*
Y102200D01*
X84000Y52200D02*
Y102200D01*
X66000D02*
X84000D01*
X66000Y52200D02*
X84000D01*
X15500Y10500D02*
Y17164D01*
X18832Y20497D01*
X22164Y17164D01*
Y10500D01*
Y15498D01*
X15500D01*
X25497Y10500D02*
Y20497D01*
X32161Y10500D01*
Y20497D01*
X35494D02*
X42158D01*
X38826D01*
Y10500D01*
X45490Y20497D02*
X52155D01*
Y18831D01*
X45490Y12166D01*
Y10500D01*
X55487Y15498D02*
X62152D01*
X65484Y20497D02*
X72148D01*
X68816D01*
Y10500D01*
X75481Y15498D02*
X82145D01*
X85478Y10500D02*
Y20497D01*
X88810Y17164D01*
X92142Y20497D01*
Y10500D01*
X102139D02*
X95474D01*
X102139Y17164D01*
Y18831D01*
X100473Y20497D01*
X97140D01*
X95474Y18831D01*
X110469Y10500D02*
Y20497D01*
X105471Y15498D01*
X112135D01*
X115468Y20497D02*
Y10500D01*
X122132D01*
X125465D02*
Y20497D01*
X130463D01*
X132129Y18831D01*
Y15498D01*
X130463Y13832D01*
X125465D01*
X128797D02*
X132129Y10500D01*
D13*
X-65000Y320000D02*
Y326665D01*
X-61668Y329997D01*
X-58335Y326665D01*
Y320000D01*
Y324998D01*
X-65000D01*
X-55003Y320000D02*
Y329997D01*
X-48339Y320000D01*
Y329997D01*
X-45006D02*
X-38342D01*
X-41674D01*
Y320000D01*
X-35010Y329997D02*
X-28345D01*
Y328331D01*
X-35010Y321666D01*
Y320000D01*
X-25013Y324998D02*
X-18348D01*
X-15016Y329997D02*
X-8352D01*
X-11684D01*
Y320000D01*
X-5019Y324998D02*
X1645D01*
X4978Y320000D02*
Y329997D01*
X8310Y326665D01*
X11642Y329997D01*
Y320000D01*
X21639D02*
X14974D01*
X21639Y326665D01*
Y328331D01*
X19973Y329997D01*
X16640D01*
X14974Y328331D01*
X29969Y320000D02*
Y329997D01*
X24971Y324998D01*
X31635D01*
X34968Y329997D02*
Y320000D01*
X41632D01*
X44965D02*
Y329997D01*
X49963D01*
X51629Y328331D01*
Y324998D01*
X49963Y323332D01*
X44965D01*
X48297D02*
X51629Y320000D01*
X64958D02*
Y329997D01*
X68290Y326665D01*
X71623Y329997D01*
Y320000D01*
X74955Y329997D02*
Y320000D01*
X79953D01*
X81619Y321666D01*
Y323332D01*
X79953Y324998D01*
X74955D01*
X79953D01*
X81619Y326665D01*
Y328331D01*
X79953Y329997D01*
X74955D01*
X84952Y320000D02*
X88284D01*
X86618D01*
Y329997D01*
X84952Y328331D01*
X99947Y320000D02*
X93282D01*
X99947Y326665D01*
Y328331D01*
X98281Y329997D01*
X94949D01*
X93282Y328331D01*
X109944Y329997D02*
X103279D01*
Y324998D01*
X106611Y326665D01*
X108278D01*
X109944Y324998D01*
Y321666D01*
X108278Y320000D01*
X104945D01*
X103279Y321666D01*
X118274Y320000D02*
Y329997D01*
X113276Y324998D01*
X119940D01*
X123273D02*
X129937D01*
X133270Y320000D02*
Y326665D01*
X136602Y329997D01*
X139934Y326665D01*
Y320000D01*
Y324998D01*
X133270D01*
X153263D02*
X159928D01*
X173257Y329997D02*
X179921D01*
X176589D01*
Y320000D01*
X188252Y329997D02*
X184919D01*
X183253Y328331D01*
Y321666D01*
X184919Y320000D01*
X188252D01*
X189918Y321666D01*
Y328331D01*
X188252Y329997D01*
X193250Y320000D02*
Y329997D01*
X198249D01*
X199915Y328331D01*
Y324998D01*
X198249Y323332D01*
X193250D01*
X218242Y329997D02*
X214910D01*
X213244Y328331D01*
Y321666D01*
X214910Y320000D01*
X218242D01*
X219908Y321666D01*
Y328331D01*
X218242Y329997D01*
X223241D02*
Y323332D01*
X226573Y320000D01*
X229905Y323332D01*
Y329997D01*
X239902D02*
X233237D01*
Y320000D01*
X239902D01*
X233237Y324998D02*
X236569D01*
X243234Y320000D02*
Y329997D01*
X248232D01*
X249898Y328331D01*
Y324998D01*
X248232Y323332D01*
X243234D01*
X246566D02*
X249898Y320000D01*
X253231Y329997D02*
Y320000D01*
X259895D01*
X263228D02*
Y326665D01*
X266560Y329997D01*
X269892Y326665D01*
Y320000D01*
Y324998D01*
X263228D01*
X273224Y329997D02*
Y328331D01*
X276557Y324998D01*
X279889Y328331D01*
Y329997D01*
X276557Y324998D02*
Y320000D01*
X293218Y324998D02*
X299882D01*
D17*
X52250Y104500D02*
G03*
X52250Y104500I-1250J0D01*
G01*
D18*
X79000Y92200D02*
G03*
X79000Y92200I-3000J0D01*
G01*
D19*
X71850Y214577D02*
X78193D01*
X70328Y214830D02*
X79462D01*
X69313Y215084D02*
X80730D01*
X68298Y215338D02*
X81491D01*
X67537Y215592D02*
X82253D01*
X66776Y215845D02*
X83014D01*
X66269Y216099D02*
X83775D01*
X65761Y216353D02*
X84282D01*
X65254Y216606D02*
X84790D01*
X64746Y216860D02*
X85297D01*
X64239Y217114D02*
X85805D01*
X63731Y217367D02*
X86312D01*
X63224Y217621D02*
X86566D01*
X62970Y217875D02*
X87073D01*
X62463Y218129D02*
X87327D01*
X62209Y218382D02*
X87834D01*
X61702Y218636D02*
X88088D01*
X61448Y218890D02*
X88595D01*
X61194Y219144D02*
X88849D01*
X60687Y219397D02*
X89103D01*
X60433Y219651D02*
X89356D01*
X60180Y219905D02*
X89610D01*
X59926Y220158D02*
X90118D01*
X59418Y220412D02*
X90371D01*
X82760Y220666D02*
X90625D01*
X79715D02*
X81238D01*
X74387D02*
X76163D01*
X70328D02*
X73119D01*
X59418D02*
X68552D01*
X83267Y220919D02*
X90879D01*
X79715D02*
X80730D01*
X74387D02*
X76163D01*
X70835D02*
X73119D01*
X59165D02*
X68045D01*
X83521Y221173D02*
X91132D01*
X79715D02*
X80477D01*
X74387D02*
X76417D01*
X71089D02*
X73119D01*
X58911D02*
X67791D01*
X83521Y221427D02*
X91386D01*
X81491D02*
X82506D01*
X79715D02*
X80477D01*
X74387D02*
X76417D01*
X71343D02*
X73119D01*
X58657D02*
X67791D01*
X83775Y221681D02*
X91640D01*
X81491D02*
X82760D01*
X77939D02*
X80223D01*
X74387D02*
X76671D01*
X71343D02*
X73119D01*
X69059D02*
X70074D01*
X58404D02*
X67537D01*
X83775Y221934D02*
X91894D01*
X78193D02*
X82760D01*
X74387D02*
X76925D01*
X71343D02*
X73119D01*
X68806D02*
X70074D01*
X58150D02*
X67537D01*
X83775Y222188D02*
X92147D01*
X78700D02*
X82760D01*
X74387D02*
X77178D01*
X71343D02*
X73119D01*
X57896D02*
X70074D01*
X83775Y222442D02*
X92401D01*
X81491D02*
X82506D01*
X78954D02*
X80477D01*
X74387D02*
X77432D01*
X71343D02*
X73119D01*
X57896D02*
X69059D01*
X83521Y222696D02*
X92655D01*
X79208D02*
X80477D01*
X74387D02*
X77686D01*
X71089D02*
X73119D01*
X57642D02*
X68298D01*
X83267Y222949D02*
X92655D01*
X79462D02*
X80477D01*
X74387D02*
X78193D01*
X70582D02*
X73119D01*
X57389D02*
X68045D01*
X83014Y223203D02*
X92908D01*
X81491D02*
X81745D01*
X79462D02*
X80477D01*
X74387D02*
X78447D01*
X69821D02*
X73119D01*
X57135D02*
X67791D01*
X81491Y223457D02*
X93162D01*
X79715D02*
X80477D01*
X77432D02*
X78447D01*
X74387D02*
X76163D01*
X68806D02*
X73119D01*
X56881D02*
X67791D01*
X81491Y223710D02*
X93162D01*
X79715D02*
X80730D01*
X77432D02*
X78447D01*
X74387D02*
X76417D01*
X71089D02*
X73119D01*
X69059D02*
X70074D01*
X56881D02*
X67791D01*
X83521Y223964D02*
X93416D01*
X79715D02*
X80730D01*
X77686D02*
X78447D01*
X75910D02*
X76417D01*
X71089D02*
X71850D01*
X56627D02*
X67791D01*
X83521Y224218D02*
X93670D01*
X79462D02*
X80730D01*
X75910D02*
X76417D01*
X71089D02*
X71850D01*
X56374D02*
X68045D01*
X83521Y224471D02*
X93670D01*
X79208D02*
X80730D01*
X75910D02*
X76671D01*
X70835D02*
X71850D01*
X56374D02*
X68045D01*
X83521Y224725D02*
X93923D01*
X78954D02*
X80730D01*
X75910D02*
X77178D01*
X70328D02*
X71850D01*
X56120D02*
X68552D01*
X55866Y224979D02*
X93923D01*
X55613Y225233D02*
X94177D01*
X55359Y225486D02*
X94177D01*
X55359Y225740D02*
X94431D01*
X55359Y225994D02*
X94431D01*
X55105Y226248D02*
X94684D01*
X55105Y226501D02*
X94684D01*
X54851Y226755D02*
X94938D01*
X54851Y227009D02*
X94938D01*
X54598Y227262D02*
X95192D01*
X54598Y227516D02*
X95192D01*
X54344Y227770D02*
X95446D01*
X54344Y228023D02*
X95446D01*
X54344Y228277D02*
X95699D01*
X54090Y228531D02*
X95699D01*
X54090Y228785D02*
X95953D01*
X79208Y229038D02*
X95953D01*
X53837D02*
X65000D01*
X79462Y229292D02*
X95953D01*
X53837D02*
X65000D01*
X79715Y229546D02*
X96207D01*
X53583D02*
X64746D01*
X79715Y229799D02*
X96207D01*
X53583D02*
X64746D01*
X88595Y230053D02*
X96207D01*
X79715D02*
X86819D01*
X53583D02*
X64746D01*
X88849Y230307D02*
X96461D01*
X79715D02*
X85297D01*
X53583D02*
X64746D01*
X89103Y230561D02*
X96461D01*
X79715D02*
X84282D01*
X53583D02*
X64746D01*
X89103Y230814D02*
X96461D01*
X79715D02*
X83521D01*
X53329D02*
X64746D01*
X88849Y231068D02*
X96714D01*
X79715D02*
X82760D01*
X53329D02*
X64746D01*
X88849Y231322D02*
X96714D01*
X79715D02*
X82253D01*
X53329D02*
X64746D01*
X88595Y231576D02*
X96714D01*
X79715D02*
X81745D01*
X53075D02*
X64746D01*
X87327Y231829D02*
X96714D01*
X79715D02*
X81238D01*
X53075D02*
X64746D01*
X85805Y232083D02*
X96968D01*
X79715D02*
X80984D01*
X53075D02*
X64746D01*
X84790Y232337D02*
X96968D01*
X79715D02*
X80477D01*
X59418D02*
X62463D01*
X53075D02*
X55359D01*
X84029Y232590D02*
X96968D01*
X79715D02*
X80223D01*
X59926D02*
X62209D01*
X53075D02*
X54851D01*
X83521Y232844D02*
X96968D01*
X59926D02*
X61955D01*
X52822D02*
X54851D01*
X83014Y233098D02*
X96968D01*
X60180D02*
X61955D01*
X52822D02*
X54851D01*
X82506Y233351D02*
X96968D01*
X60180D02*
X61955D01*
X52822D02*
X54851D01*
X81999Y233605D02*
X97222D01*
X60180D02*
X61955D01*
X52822D02*
X54851D01*
X81745Y233859D02*
X97222D01*
X60180D02*
X61955D01*
X52822D02*
X54851D01*
X91132Y234113D02*
X97222D01*
X81238D02*
X89610D01*
X63985D02*
X64746D01*
X60180D02*
X61955D01*
X56627D02*
X58150D01*
X52822D02*
X54851D01*
X91386Y234366D02*
X97222D01*
X80984D02*
X88088D01*
X63731D02*
X64746D01*
X60180D02*
X61955D01*
X56627D02*
X58404D01*
X52822D02*
X54851D01*
X91386Y234620D02*
X97222D01*
X80730D02*
X87327D01*
X63731D02*
X64746D01*
X60180D02*
X61955D01*
X56627D02*
X58404D01*
X52822D02*
X54851D01*
X91640Y234874D02*
X97222D01*
X80223D02*
X86566D01*
X63731D02*
X64746D01*
X60180D02*
X61955D01*
X56627D02*
X58404D01*
X52568D02*
X54851D01*
X91640Y235127D02*
X97222D01*
X79969D02*
X86058D01*
X63731D02*
X64746D01*
X60180D02*
X61955D01*
X56627D02*
X58404D01*
X52568D02*
X54851D01*
X91386Y235381D02*
X97222D01*
X79715D02*
X85551D01*
X63731D02*
X64746D01*
X60180D02*
X61955D01*
X56627D02*
X58404D01*
X52568D02*
X54851D01*
X91386Y235635D02*
X97222D01*
X79462D02*
X85043D01*
X63731D02*
X64746D01*
X60180D02*
X61955D01*
X56627D02*
X58404D01*
X52568D02*
X54851D01*
X90118Y235889D02*
X97222D01*
X79462D02*
X84790D01*
X63731D02*
X64746D01*
X60180D02*
X61955D01*
X56627D02*
X58404D01*
X52568D02*
X54851D01*
X88595Y236142D02*
X97222D01*
X79208D02*
X84282D01*
X63731D02*
X64746D01*
X60180D02*
X61955D01*
X56627D02*
X58404D01*
X52568D02*
X54851D01*
X87834Y236396D02*
X97222D01*
X78954D02*
X84029D01*
X63731D02*
X64746D01*
X60180D02*
X61955D01*
X56627D02*
X58404D01*
X52568D02*
X54851D01*
X87073Y236650D02*
X97222D01*
X78700D02*
X83775D01*
X63731D02*
X64746D01*
X60180D02*
X61955D01*
X56627D02*
X58404D01*
X52568D02*
X54851D01*
X86566Y236903D02*
X97222D01*
X78447D02*
X83521D01*
X63731D02*
X64746D01*
X60180D02*
X61955D01*
X56627D02*
X58404D01*
X52568D02*
X54851D01*
X86312Y237157D02*
X97222D01*
X78447D02*
X83267D01*
X63731D02*
X64746D01*
X60180D02*
X61955D01*
X56627D02*
X58404D01*
X52568D02*
X54851D01*
X85805Y237411D02*
X97222D01*
X78193D02*
X83014D01*
X63731D02*
X64746D01*
X60180D02*
X61955D01*
X56627D02*
X58404D01*
X52568D02*
X54851D01*
X85551Y237665D02*
X97222D01*
X79715D02*
X82760D01*
X78193D02*
X79208D01*
X63731D02*
X64746D01*
X60180D02*
X61955D01*
X56627D02*
X58404D01*
X52568D02*
X54851D01*
X85043Y237918D02*
X97222D01*
X79715D02*
X82506D01*
X77939D02*
X79208D01*
X63731D02*
X64746D01*
X60180D02*
X61955D01*
X56627D02*
X58404D01*
X52568D02*
X54851D01*
X84790Y238172D02*
X97222D01*
X79715D02*
X82253D01*
X77686D02*
X78954D01*
X63731D02*
X64746D01*
X60180D02*
X61955D01*
X56627D02*
X58404D01*
X52568D02*
X54851D01*
X84536Y238426D02*
X97222D01*
X79715D02*
X81999D01*
X77686D02*
X78954D01*
X63731D02*
X64746D01*
X60180D02*
X61955D01*
X56627D02*
X58404D01*
X52822D02*
X54598D01*
X92908Y238679D02*
X97222D01*
X84282D02*
X90371D01*
X79715D02*
X81999D01*
X77686D02*
X78700D01*
X63731D02*
X64746D01*
X56627D02*
X58404D01*
X93162Y238933D02*
X97222D01*
X84029D02*
X89610D01*
X79715D02*
X81745D01*
X77432D02*
X78700D01*
X63731D02*
X64746D01*
X56627D02*
X58404D01*
X93162Y239187D02*
X97222D01*
X83775D02*
X89103D01*
X79715D02*
X81491D01*
X77432D02*
X78447D01*
X63731D02*
X64746D01*
X56627D02*
X58404D01*
X93162Y239441D02*
X97222D01*
X83775D02*
X88849D01*
X79715D02*
X81491D01*
X77178D02*
X78447D01*
X63731D02*
X64746D01*
X56627D02*
X58404D01*
X93162Y239694D02*
X97222D01*
X83521D02*
X88342D01*
X79715D02*
X81238D01*
X77178D02*
X78193D01*
X63731D02*
X64746D01*
X56374D02*
X58404D01*
X92908Y239948D02*
X96968D01*
X83267D02*
X88088D01*
X79715D02*
X81238D01*
X77178D02*
X78193D01*
X63478D02*
X64746D01*
X56374D02*
X58404D01*
X92655Y240202D02*
X96968D01*
X83267D02*
X87834D01*
X79715D02*
X80984D01*
X76925D02*
X78193D01*
X63224D02*
X64746D01*
X55866D02*
X58911D01*
X90879Y240455D02*
X96968D01*
X83014D02*
X87327D01*
X79715D02*
X80984D01*
X76925D02*
X77939D01*
X52822D02*
X64746D01*
X90371Y240709D02*
X96968D01*
X82760D02*
X87327D01*
X79715D02*
X80730D01*
X76925D02*
X77939D01*
X53075D02*
X64746D01*
X89864Y240963D02*
X96968D01*
X82760D02*
X87073D01*
X79715D02*
X80730D01*
X76671D02*
X77939D01*
X53075D02*
X64746D01*
X89356Y241217D02*
X96968D01*
X82760D02*
X86819D01*
X79715D02*
X80730D01*
X76671D02*
X77686D01*
X53075D02*
X64746D01*
X89103Y241470D02*
X96714D01*
X82506D02*
X86566D01*
X79715D02*
X80477D01*
X76671D02*
X77686D01*
X53075D02*
X64746D01*
X88849Y241724D02*
X96714D01*
X82506D02*
X86566D01*
X79715D02*
X80477D01*
X76671D02*
X77686D01*
X53075D02*
X64746D01*
X88595Y241978D02*
X96714D01*
X82253D02*
X86312D01*
X79715D02*
X80477D01*
X76671D02*
X77686D01*
X53329D02*
X64746D01*
X88342Y242231D02*
X96714D01*
X82253D02*
X86312D01*
X79715D02*
X80477D01*
X76671D02*
X77686D01*
X53329D02*
X64746D01*
X88088Y242485D02*
X96461D01*
X82253D02*
X86058D01*
X79715D02*
X80223D01*
X76417D02*
X77686D01*
X53329D02*
X64746D01*
X88088Y242739D02*
X96461D01*
X82253D02*
X86058D01*
X79715D02*
X80223D01*
X76417D02*
X77432D01*
X53329D02*
X64746D01*
X87834Y242993D02*
X96461D01*
X81999D02*
X85805D01*
X79715D02*
X80223D01*
X76417D02*
X77432D01*
X53583D02*
X64746D01*
X87834Y243246D02*
X96461D01*
X81999D02*
X85805D01*
X79462D02*
X80223D01*
X76417D02*
X77432D01*
X53583D02*
X65000D01*
X87580Y243500D02*
X96207D01*
X81999D02*
X85805D01*
X79208D02*
X80223D01*
X76417D02*
X77432D01*
X53583D02*
X65000D01*
X87580Y243754D02*
X96207D01*
X81999D02*
X85551D01*
X76417D02*
X80223D01*
X53837D02*
X74387D01*
X87580Y244007D02*
X96207D01*
X81999D02*
X85551D01*
X76417D02*
X80223D01*
X53837D02*
X74641D01*
X87327Y244261D02*
X95953D01*
X81999D02*
X85551D01*
X76417D02*
X79969D01*
X53837D02*
X74641D01*
X87327Y244515D02*
X95953D01*
X81999D02*
X85551D01*
X76417D02*
X79969D01*
X54090D02*
X74641D01*
X87327Y244769D02*
X95953D01*
X81999D02*
X85551D01*
X76417D02*
X79969D01*
X54090D02*
X74641D01*
X87327Y245022D02*
X95699D01*
X81999D02*
X85551D01*
X76671D02*
X79969D01*
X54344D02*
X74641D01*
X87327Y245276D02*
X95699D01*
X81999D02*
X85551D01*
X76671D02*
X79969D01*
X54344D02*
X74641D01*
X87327Y245530D02*
X95446D01*
X81999D02*
X85551D01*
X76671D02*
X80223D01*
X54344D02*
X74895D01*
X87327Y245783D02*
X95446D01*
X81999D02*
X85551D01*
X76671D02*
X80223D01*
X54598D02*
X74895D01*
X87327Y246037D02*
X95192D01*
X81999D02*
X85551D01*
X76671D02*
X80223D01*
X54598D02*
X74895D01*
X87327Y246291D02*
X95192D01*
X81999D02*
X85551D01*
X76671D02*
X80223D01*
X54851D02*
X74895D01*
X87580Y246544D02*
X94938D01*
X81999D02*
X85551D01*
X76925D02*
X80223D01*
X54851D02*
X74895D01*
X87580Y246798D02*
X94938D01*
X82253D02*
X85551D01*
X76925D02*
X80223D01*
X55105D02*
X75149D01*
X87580Y247052D02*
X94684D01*
X82253D02*
X85805D01*
X76925D02*
X80223D01*
X55105D02*
X75149D01*
X87834Y247306D02*
X94684D01*
X82253D02*
X85805D01*
X77178D02*
X80477D01*
X55359D02*
X75149D01*
X87834Y247559D02*
X94431D01*
X82253D02*
X85805D01*
X77178D02*
X80477D01*
X55359D02*
X75149D01*
X88088Y247813D02*
X94431D01*
X82506D02*
X86058D01*
X77178D02*
X80477D01*
X55613D02*
X75402D01*
X88342Y248067D02*
X94177D01*
X82506D02*
X86058D01*
X77432D02*
X80730D01*
X55613D02*
X75402D01*
X88342Y248321D02*
X94177D01*
X82760D02*
X86312D01*
X77432D02*
X80730D01*
X55866D02*
X75402D01*
X88595Y248574D02*
X93923D01*
X82760D02*
X86312D01*
X77686D02*
X80730D01*
X56120D02*
X75656D01*
X88849Y248828D02*
X93670D01*
X83014D02*
X86566D01*
X77686D02*
X80984D01*
X56120D02*
X75656D01*
X88849Y249082D02*
X93670D01*
X83014D02*
X86566D01*
X77939D02*
X80984D01*
X56374D02*
X75656D01*
X88849Y249335D02*
X93416D01*
X83267D02*
X86819D01*
X77939D02*
X81238D01*
X56627D02*
X75910D01*
X88595Y249589D02*
X93162D01*
X83267D02*
X87073D01*
X78193D02*
X81238D01*
X56627D02*
X75910D01*
X88342Y249843D02*
X93162D01*
X83521D02*
X87327D01*
X78193D02*
X81238D01*
X56881D02*
X76163D01*
X83775Y250097D02*
X92908D01*
X78447D02*
X81491D01*
X57135D02*
X76163D01*
X84029Y250350D02*
X92655D01*
X78700D02*
X81745D01*
X57135D02*
X76417D01*
X84029Y250604D02*
X92401D01*
X78700D02*
X81745D01*
X57389D02*
X76671D01*
X84282Y250858D02*
X92401D01*
X78954D02*
X81999D01*
X57642D02*
X76671D01*
X84282Y251111D02*
X92147D01*
X79208D02*
X82253D01*
X57896D02*
X76925D01*
X84282Y251365D02*
X91894D01*
X79462D02*
X82506D01*
X58150D02*
X77178D01*
X84029Y251619D02*
X91640D01*
X79462D02*
X82506D01*
X58404D02*
X77178D01*
X83775Y251873D02*
X91386D01*
X79462D02*
X82760D01*
X58657D02*
X77432D01*
X79462Y252126D02*
X91132D01*
X58657D02*
X77686D01*
X79462Y252380D02*
X90879D01*
X58911D02*
X77939D01*
X79208Y252634D02*
X90625D01*
X59165D02*
X78193D01*
X59418Y252887D02*
X90371D01*
X59926Y253141D02*
X90118D01*
X60180Y253395D02*
X89864D01*
X60433Y253648D02*
X89610D01*
X60687Y253902D02*
X89356D01*
X60941Y254156D02*
X88849D01*
X61194Y254410D02*
X88595D01*
X61702Y254663D02*
X88342D01*
X61955Y254917D02*
X87834D01*
X62463Y255171D02*
X87580D01*
X62717Y255424D02*
X87327D01*
X63224Y255678D02*
X86819D01*
X63478Y255932D02*
X86312D01*
X63985Y256186D02*
X86058D01*
X64493Y256439D02*
X85551D01*
X65000Y256693D02*
X85043D01*
X65507Y256947D02*
X84536D01*
X66015Y257201D02*
X84029D01*
X66522Y257454D02*
X83267D01*
X67283Y257708D02*
X82760D01*
X68045Y257962D02*
X81999D01*
X68806Y258215D02*
X81238D01*
X69821Y258469D02*
X80223D01*
X71089Y258723D02*
X78954D01*
X72865Y258976D02*
X76925D01*
D20*
X126500Y44500D02*
Y53497D01*
X130998D01*
X132498Y51998D01*
Y48999D01*
X130998Y47499D01*
X126500D01*
X129499D02*
X132498Y44500D01*
X141495Y53497D02*
X135497D01*
Y48999D01*
X138496D01*
X135497D01*
Y44500D01*
X23500Y99497D02*
Y92000D01*
X24999Y90500D01*
X27998D01*
X29498Y92000D01*
Y99497D01*
X32497Y90500D02*
X35496D01*
X33997D01*
Y99497D01*
X32497Y97998D01*
X130998Y123997D02*
X125000D01*
Y115000D01*
X130998D01*
X125000Y119499D02*
X127999D01*
X133997Y123997D02*
Y115000D01*
Y119499D01*
X139995D01*
Y123997D01*
Y115000D01*
X30498Y133498D02*
X28998Y134997D01*
X26000D01*
X24500Y133498D01*
Y127500D01*
X26000Y126000D01*
X28998D01*
X30498Y127500D01*
Y130499D01*
X27499D01*
X33497Y126000D02*
Y134997D01*
X39495Y126000D01*
Y134997D01*
X42494D02*
Y126000D01*
X46993D01*
X48492Y127500D01*
Y133498D01*
X46993Y134997D01*
X42494D01*
X49500Y173997D02*
Y167999D01*
X52499Y165000D01*
X55498Y167999D01*
Y173997D01*
X64495Y172498D02*
X62996Y173997D01*
X59997D01*
X58497Y172498D01*
Y166500D01*
X59997Y165000D01*
X62996D01*
X64495Y166500D01*
X73492Y172498D02*
X71993Y173997D01*
X68994D01*
X67494Y172498D01*
Y166500D01*
X68994Y165000D01*
X71993D01*
X73492Y166500D01*
X83998Y134998D02*
X82499Y136497D01*
X79500D01*
X78000Y134998D01*
Y133498D01*
X79500Y131999D01*
X82499D01*
X83998Y130499D01*
Y129000D01*
X82499Y127500D01*
X79500D01*
X78000Y129000D01*
X92995Y134998D02*
X91496Y136497D01*
X88497D01*
X86997Y134998D01*
Y129000D01*
X88497Y127500D01*
X91496D01*
X92995Y129000D01*
X95994Y136497D02*
Y127500D01*
X101992D01*
X108498Y171998D02*
X106999Y173497D01*
X104000D01*
X102500Y171998D01*
Y170498D01*
X104000Y168999D01*
X106999D01*
X108498Y167499D01*
Y166000D01*
X106999Y164500D01*
X104000D01*
X102500Y166000D01*
X111497Y173497D02*
Y164500D01*
X115996D01*
X117495Y166000D01*
Y171998D01*
X115996Y173497D01*
X111497D01*
X120494Y164500D02*
Y170498D01*
X123493Y173497D01*
X126492Y170498D01*
Y164500D01*
Y168999D01*
X120494D01*
M02*
