G75*
G70*
%OFA0B0*%
%FSLAX24Y24*%
%IPPOS*%
%LPD*%
%AMOC8*
5,1,8,0,0,1.08239X$1,22.5*
%
%ADD10R,0.1300X0.0400*%
%ADD11R,0.0400X0.1300*%
%ADD12R,0.0660X0.0110*%
%ADD13R,0.0110X0.0660*%
%ADD14R,0.0394X0.0551*%
%ADD15R,0.0512X0.0591*%
%ADD16OC8,0.0600*%
%ADD17R,0.0591X0.0630*%
%ADD18R,0.0500X0.0220*%
%ADD19R,0.0472X0.0217*%
%ADD20R,0.0591X0.0512*%
%ADD21R,0.0580X0.0220*%
%ADD22R,0.0200X0.0110*%
%ADD23R,0.0350X0.0630*%
%ADD24R,0.0380X0.0120*%
%ADD25R,0.0340X0.0120*%
%ADD26R,0.0160X0.0300*%
%ADD27C,0.0060*%
%ADD28C,0.0540*%
%ADD29OC8,0.0540*%
%ADD30R,0.0276X0.0354*%
%ADD31R,0.1161X0.1063*%
%ADD32R,0.0354X0.0276*%
%ADD33R,0.0945X0.0787*%
%ADD34R,0.0909X0.0197*%
%ADD35C,0.0000*%
%ADD36C,0.0560*%
%ADD37C,0.0885*%
%ADD38R,0.0472X0.0472*%
%ADD39C,0.0240*%
%ADD40C,0.0120*%
%ADD41C,0.0377*%
%ADD42C,0.0100*%
%ADD43C,0.0160*%
D10*
X034395Y009120D03*
X035395Y010120D03*
X034395Y011120D03*
X035395Y012120D03*
X034395Y013120D03*
X035395Y014120D03*
X034395Y015120D03*
X035395Y016120D03*
X034395Y017120D03*
X035395Y018120D03*
X034395Y019120D03*
X035395Y020120D03*
X034395Y021120D03*
X035395Y022120D03*
X040395Y022120D03*
X041395Y021120D03*
X040395Y020120D03*
X041395Y019120D03*
X040395Y018120D03*
X041395Y017120D03*
X040395Y016120D03*
X041395Y015120D03*
X040395Y014120D03*
X041395Y013120D03*
X040395Y012120D03*
X041395Y011120D03*
X040395Y010120D03*
X041395Y009120D03*
D11*
X039895Y008620D03*
X038895Y009620D03*
X037895Y008620D03*
X036895Y009620D03*
X035895Y008620D03*
D12*
X029872Y014144D03*
X029872Y014341D03*
X029872Y014538D03*
X029872Y014735D03*
X029872Y014931D03*
X029872Y015128D03*
X029872Y015325D03*
X029872Y015522D03*
X029872Y015719D03*
X029872Y015916D03*
X029872Y016112D03*
X029872Y016309D03*
X029872Y016506D03*
X029872Y016703D03*
X029872Y016900D03*
X029872Y017097D03*
X025447Y017097D03*
X025447Y016900D03*
X025447Y016703D03*
X025447Y016506D03*
X025447Y016309D03*
X025447Y016112D03*
X025447Y015916D03*
X025447Y015719D03*
X025447Y015522D03*
X025447Y015325D03*
X025447Y015128D03*
X025447Y014931D03*
X025447Y014735D03*
X025447Y014538D03*
X025447Y014341D03*
X025447Y014144D03*
D13*
X026183Y013408D03*
X026380Y013408D03*
X026576Y013408D03*
X026773Y013408D03*
X026970Y013408D03*
X027167Y013408D03*
X027364Y013408D03*
X027561Y013408D03*
X027757Y013408D03*
X027954Y013408D03*
X028151Y013408D03*
X028348Y013408D03*
X028545Y013408D03*
X028742Y013408D03*
X028939Y013408D03*
X029135Y013408D03*
X029135Y017833D03*
X028939Y017833D03*
X028742Y017833D03*
X028545Y017833D03*
X028348Y017833D03*
X028151Y017833D03*
X027954Y017833D03*
X027757Y017833D03*
X027561Y017833D03*
X027364Y017833D03*
X027167Y017833D03*
X026970Y017833D03*
X026773Y017833D03*
X026576Y017833D03*
X026380Y017833D03*
X026183Y017833D03*
D14*
X019372Y017746D03*
X018624Y017746D03*
X018998Y018612D03*
X019372Y020305D03*
X018624Y020305D03*
X018998Y021172D03*
X019372Y022864D03*
X018624Y022864D03*
X018998Y023731D03*
X014647Y022864D03*
X013899Y022864D03*
X014273Y023731D03*
X013899Y025423D03*
X014647Y025423D03*
X014273Y026290D03*
X014273Y021172D03*
X013899Y020305D03*
X014647Y020305D03*
X014273Y018612D03*
X013899Y017746D03*
X014647Y017746D03*
X014273Y016053D03*
X013899Y015187D03*
X014647Y015187D03*
X014273Y013494D03*
X013899Y012628D03*
X014647Y012628D03*
X014273Y010935D03*
X013899Y010069D03*
X014647Y010069D03*
X014273Y008376D03*
X013899Y007510D03*
X014647Y007510D03*
X014273Y005817D03*
X013899Y004951D03*
X014647Y004951D03*
X018624Y004951D03*
X019372Y004951D03*
X018998Y005817D03*
X019372Y007510D03*
X018624Y007510D03*
X018998Y008376D03*
X019372Y010069D03*
X018624Y010069D03*
X018998Y010935D03*
X019372Y012628D03*
X018624Y012628D03*
X018998Y013494D03*
X019372Y015187D03*
X018624Y015187D03*
X018998Y016053D03*
D15*
X020198Y016014D03*
X020946Y016014D03*
X021773Y016014D03*
X022521Y016014D03*
X022521Y015227D03*
X021773Y015227D03*
X020946Y015227D03*
X020198Y015227D03*
X017797Y015227D03*
X017049Y015227D03*
X017049Y016014D03*
X017797Y016014D03*
X016222Y016014D03*
X015474Y016014D03*
X015474Y015227D03*
X016222Y015227D03*
X016222Y013455D03*
X015474Y013455D03*
X015474Y012668D03*
X016222Y012668D03*
X017049Y012668D03*
X017797Y012668D03*
X017797Y013455D03*
X017049Y013455D03*
X020198Y013455D03*
X020946Y013455D03*
X021773Y013455D03*
X022521Y013455D03*
X022521Y012668D03*
X021773Y012668D03*
X020946Y012668D03*
X020198Y012668D03*
X020198Y010896D03*
X020946Y010896D03*
X021773Y010896D03*
X022521Y010896D03*
X022521Y010109D03*
X021773Y010109D03*
X020946Y010109D03*
X020198Y010109D03*
X017797Y010109D03*
X017049Y010109D03*
X016222Y010109D03*
X015474Y010109D03*
X015474Y010896D03*
X016222Y010896D03*
X017049Y010896D03*
X017797Y010896D03*
X017797Y008337D03*
X017049Y008337D03*
X017049Y007549D03*
X017797Y007549D03*
X016222Y007549D03*
X015474Y007549D03*
X015474Y008337D03*
X016222Y008337D03*
X016222Y005778D03*
X015474Y005778D03*
X015474Y004990D03*
X016222Y004990D03*
X017049Y004990D03*
X017797Y004990D03*
X017797Y005778D03*
X017049Y005778D03*
X020198Y005778D03*
X020946Y005778D03*
X021773Y005778D03*
X022521Y005778D03*
X022521Y004990D03*
X021773Y004990D03*
X020946Y004990D03*
X020198Y004990D03*
X020198Y007549D03*
X020946Y007549D03*
X021773Y007549D03*
X022521Y007549D03*
X022521Y008337D03*
X021773Y008337D03*
X020946Y008337D03*
X020198Y008337D03*
X026498Y006565D03*
X027246Y006565D03*
X030041Y008140D03*
X030789Y008140D03*
X030789Y008927D03*
X030041Y008927D03*
X027443Y010502D03*
X026694Y010502D03*
X026694Y011447D03*
X027443Y011447D03*
X028860Y012471D03*
X029608Y012471D03*
X022521Y017786D03*
X021773Y017786D03*
X020946Y017786D03*
X020198Y017786D03*
X020198Y018573D03*
X020946Y018573D03*
X021773Y018573D03*
X022521Y018573D03*
X022521Y020345D03*
X021773Y020345D03*
X020946Y020345D03*
X020198Y020345D03*
X020198Y021132D03*
X020946Y021132D03*
X021773Y021132D03*
X022521Y021132D03*
X022521Y022904D03*
X021773Y022904D03*
X020946Y022904D03*
X020198Y022904D03*
X020198Y023691D03*
X020946Y023691D03*
X021773Y023691D03*
X022521Y023691D03*
X027088Y023494D03*
X027836Y023494D03*
X027836Y024479D03*
X027088Y024479D03*
X032600Y021132D03*
X033348Y021132D03*
X033348Y020148D03*
X032600Y020148D03*
X032600Y019164D03*
X033348Y019164D03*
X033348Y018179D03*
X032600Y018179D03*
X028624Y019754D03*
X027876Y019754D03*
X017797Y020345D03*
X017049Y020345D03*
X016222Y020345D03*
X015474Y020345D03*
X015474Y021132D03*
X016222Y021132D03*
X017049Y021132D03*
X017797Y021132D03*
X017797Y022904D03*
X017049Y022904D03*
X017049Y023691D03*
X017797Y023691D03*
X016222Y023691D03*
X015474Y023691D03*
X015474Y022904D03*
X016222Y022904D03*
X016222Y025463D03*
X015474Y025463D03*
X015474Y026250D03*
X016222Y026250D03*
X017049Y026250D03*
X017797Y026250D03*
X017797Y025463D03*
X017049Y025463D03*
X017049Y018573D03*
X017797Y018573D03*
X017797Y017786D03*
X017049Y017786D03*
X016222Y017786D03*
X015474Y017786D03*
X015474Y018573D03*
X016222Y018573D03*
X033191Y005975D03*
X033939Y005975D03*
X036143Y004597D03*
X036891Y004597D03*
X039687Y006172D03*
X040435Y006172D03*
X040435Y006959D03*
X039687Y006959D03*
X043624Y012077D03*
X044372Y012077D03*
X044372Y013652D03*
X043624Y013652D03*
X043624Y015227D03*
X044372Y015227D03*
X041813Y025463D03*
X041065Y025463D03*
X040041Y025463D03*
X039293Y025463D03*
X041065Y026447D03*
X041813Y026447D03*
D16*
X029462Y022223D03*
X028462Y022223D03*
X027462Y022223D03*
X026462Y022223D03*
X025462Y022223D03*
X025462Y021223D03*
X026462Y021223D03*
X027462Y021223D03*
X028462Y021223D03*
X029462Y021223D03*
X045078Y009424D03*
X045078Y007644D03*
D17*
X033131Y012648D03*
X031635Y012648D03*
X031635Y014656D03*
X033131Y014656D03*
D18*
X033085Y007329D03*
X033085Y006959D03*
X033085Y006589D03*
X034045Y006589D03*
X034045Y006959D03*
X034045Y007329D03*
D19*
X035612Y023317D03*
X035612Y023691D03*
X035612Y024065D03*
X036635Y024065D03*
X036635Y023317D03*
D20*
X037502Y023317D03*
X037502Y024065D03*
X038880Y024065D03*
X038880Y023317D03*
X041242Y023317D03*
X041242Y024065D03*
X034746Y024065D03*
X034746Y023317D03*
X029824Y019538D03*
X029824Y018790D03*
X029234Y007923D03*
X029234Y007175D03*
X028250Y007333D03*
X028250Y006585D03*
X032187Y006979D03*
X032187Y007727D03*
X035139Y007727D03*
X035139Y006979D03*
X037108Y006979D03*
X037108Y007727D03*
X038880Y006152D03*
X038880Y005404D03*
X037895Y005364D03*
X037895Y004616D03*
X041832Y004616D03*
X041832Y005364D03*
D21*
X040531Y005360D03*
X040531Y004990D03*
X040531Y004620D03*
X039591Y004620D03*
X039591Y005360D03*
X030885Y006589D03*
X030885Y006959D03*
X030885Y007329D03*
X029945Y007329D03*
X029945Y006589D03*
D22*
X039691Y023391D03*
X039691Y023591D03*
X039691Y023791D03*
X039691Y023991D03*
X040431Y023991D03*
X040431Y023791D03*
X040431Y023591D03*
X040431Y023391D03*
D23*
X040061Y023691D03*
D24*
X038662Y026644D03*
D25*
X038642Y026447D03*
X038642Y026250D03*
X039117Y026250D03*
X039117Y026447D03*
X039117Y026644D03*
D26*
X037098Y026845D03*
X036842Y026845D03*
X036586Y026845D03*
X036330Y026845D03*
X035523Y026845D03*
X035267Y026845D03*
X035011Y026845D03*
X034756Y026845D03*
X034756Y025655D03*
X035011Y025655D03*
X035267Y025655D03*
X035523Y025655D03*
X036330Y025655D03*
X036586Y025655D03*
X036842Y025655D03*
X037098Y025655D03*
D27*
X037214Y025970D02*
X036214Y025970D01*
X036214Y026870D01*
X037214Y026870D01*
X037214Y025970D01*
X037214Y025997D02*
X036214Y025997D01*
X036214Y026055D02*
X037214Y026055D01*
X037214Y026114D02*
X036214Y026114D01*
X036214Y026172D02*
X037214Y026172D01*
X037214Y026231D02*
X036214Y026231D01*
X036214Y026289D02*
X037214Y026289D01*
X037214Y026348D02*
X036214Y026348D01*
X036214Y026406D02*
X037214Y026406D01*
X037214Y026465D02*
X036214Y026465D01*
X036214Y026523D02*
X037214Y026523D01*
X037214Y026582D02*
X036214Y026582D01*
X036214Y026640D02*
X037214Y026640D01*
X037214Y026699D02*
X036214Y026699D01*
X036214Y026757D02*
X037214Y026757D01*
X037214Y026816D02*
X036214Y026816D01*
X035639Y026816D02*
X034639Y026816D01*
X034639Y026870D02*
X035639Y026870D01*
X035639Y025970D01*
X034639Y025970D01*
X034639Y026870D01*
X034639Y026757D02*
X035639Y026757D01*
X035639Y026699D02*
X034639Y026699D01*
X034639Y026640D02*
X035639Y026640D01*
X035639Y026582D02*
X034639Y026582D01*
X034639Y026523D02*
X035639Y026523D01*
X035639Y026465D02*
X034639Y026465D01*
X034639Y026406D02*
X035639Y026406D01*
X035639Y026348D02*
X034639Y026348D01*
X034639Y026289D02*
X035639Y026289D01*
X035639Y026231D02*
X034639Y026231D01*
X034639Y026172D02*
X035639Y026172D01*
X035639Y026114D02*
X034639Y026114D01*
X034639Y026055D02*
X035639Y026055D01*
X035639Y025997D02*
X034639Y025997D01*
D28*
X031276Y019664D02*
X030736Y019664D01*
X030736Y018664D02*
X031276Y018664D01*
D29*
X011624Y019120D03*
X010624Y019120D03*
X010624Y018120D03*
X011624Y018120D03*
X011624Y017120D03*
X010624Y017120D03*
X010624Y016120D03*
X011624Y016120D03*
X011624Y015120D03*
X010624Y015120D03*
X010624Y014120D03*
X011624Y014120D03*
X011624Y013120D03*
X010624Y013120D03*
X010624Y012120D03*
X011624Y012120D03*
X011624Y011120D03*
X010624Y011120D03*
X010624Y010120D03*
X011624Y010120D03*
X011624Y009120D03*
X010624Y009120D03*
X010624Y008120D03*
X011624Y008120D03*
X011624Y007120D03*
X010624Y007120D03*
X010624Y006120D03*
X011624Y006120D03*
X011624Y020120D03*
X010624Y020120D03*
X010624Y021120D03*
X011624Y021120D03*
X011624Y022120D03*
X010624Y022120D03*
X010624Y023120D03*
X011624Y023120D03*
X011624Y024120D03*
X010624Y024120D03*
X010624Y025120D03*
X011624Y025120D03*
D30*
X027994Y019164D03*
X028506Y019164D03*
X027521Y012077D03*
X027009Y012077D03*
D31*
X028889Y010896D03*
X031547Y010896D03*
D32*
X025297Y018514D03*
X025297Y019026D03*
D33*
X042620Y021172D03*
X044785Y021172D03*
X044785Y024636D03*
X042620Y024636D03*
D34*
X042398Y023534D03*
X042398Y023219D03*
X042398Y022904D03*
X042398Y022589D03*
X042398Y022274D03*
D35*
X044194Y003416D02*
X007974Y003416D01*
X007344Y004990D02*
X007346Y005040D01*
X007352Y005090D01*
X007362Y005139D01*
X007376Y005187D01*
X007393Y005234D01*
X007414Y005279D01*
X007439Y005323D01*
X007467Y005364D01*
X007499Y005403D01*
X007533Y005440D01*
X007570Y005474D01*
X007610Y005504D01*
X007652Y005531D01*
X007696Y005555D01*
X007742Y005576D01*
X007789Y005592D01*
X007837Y005605D01*
X007887Y005614D01*
X007936Y005619D01*
X007987Y005620D01*
X008037Y005617D01*
X008086Y005610D01*
X008135Y005599D01*
X008183Y005584D01*
X008229Y005566D01*
X008274Y005544D01*
X008317Y005518D01*
X008358Y005489D01*
X008397Y005457D01*
X008433Y005422D01*
X008465Y005384D01*
X008495Y005344D01*
X008522Y005301D01*
X008545Y005257D01*
X008564Y005211D01*
X008580Y005163D01*
X008592Y005114D01*
X008600Y005065D01*
X008604Y005015D01*
X008604Y004965D01*
X008600Y004915D01*
X008592Y004866D01*
X008580Y004817D01*
X008564Y004769D01*
X008545Y004723D01*
X008522Y004679D01*
X008495Y004636D01*
X008465Y004596D01*
X008433Y004558D01*
X008397Y004523D01*
X008358Y004491D01*
X008317Y004462D01*
X008274Y004436D01*
X008229Y004414D01*
X008183Y004396D01*
X008135Y004381D01*
X008086Y004370D01*
X008037Y004363D01*
X007987Y004360D01*
X007936Y004361D01*
X007887Y004366D01*
X007837Y004375D01*
X007789Y004388D01*
X007742Y004404D01*
X007696Y004425D01*
X007652Y004449D01*
X007610Y004476D01*
X007570Y004506D01*
X007533Y004540D01*
X007499Y004577D01*
X007467Y004616D01*
X007439Y004657D01*
X007414Y004701D01*
X007393Y004746D01*
X007376Y004793D01*
X007362Y004841D01*
X007352Y004890D01*
X007346Y004940D01*
X007344Y004990D01*
X006399Y004990D02*
X006401Y004913D01*
X006407Y004836D01*
X006416Y004759D01*
X006429Y004683D01*
X006446Y004607D01*
X006467Y004533D01*
X006491Y004459D01*
X006519Y004387D01*
X006550Y004317D01*
X006585Y004248D01*
X006623Y004180D01*
X006664Y004115D01*
X006709Y004052D01*
X006757Y003991D01*
X006807Y003932D01*
X006860Y003876D01*
X006916Y003823D01*
X006975Y003773D01*
X007036Y003725D01*
X007099Y003680D01*
X007164Y003639D01*
X007232Y003601D01*
X007301Y003566D01*
X007371Y003535D01*
X007443Y003507D01*
X007517Y003483D01*
X007591Y003462D01*
X007667Y003445D01*
X007743Y003432D01*
X007820Y003423D01*
X007897Y003417D01*
X007974Y003415D01*
X007897Y003417D01*
X007820Y003423D01*
X007743Y003432D01*
X007667Y003445D01*
X007591Y003462D01*
X007517Y003483D01*
X007443Y003507D01*
X007371Y003535D01*
X007301Y003566D01*
X007232Y003601D01*
X007164Y003639D01*
X007099Y003680D01*
X007036Y003725D01*
X006975Y003773D01*
X006916Y003823D01*
X006860Y003876D01*
X006807Y003932D01*
X006757Y003991D01*
X006709Y004052D01*
X006664Y004115D01*
X006623Y004180D01*
X006585Y004248D01*
X006550Y004317D01*
X006519Y004387D01*
X006491Y004459D01*
X006467Y004533D01*
X006446Y004607D01*
X006429Y004683D01*
X006416Y004759D01*
X006407Y004836D01*
X006401Y004913D01*
X006399Y004990D01*
X006399Y026250D01*
X007344Y026250D02*
X007346Y026300D01*
X007352Y026350D01*
X007362Y026399D01*
X007376Y026447D01*
X007393Y026494D01*
X007414Y026539D01*
X007439Y026583D01*
X007467Y026624D01*
X007499Y026663D01*
X007533Y026700D01*
X007570Y026734D01*
X007610Y026764D01*
X007652Y026791D01*
X007696Y026815D01*
X007742Y026836D01*
X007789Y026852D01*
X007837Y026865D01*
X007887Y026874D01*
X007936Y026879D01*
X007987Y026880D01*
X008037Y026877D01*
X008086Y026870D01*
X008135Y026859D01*
X008183Y026844D01*
X008229Y026826D01*
X008274Y026804D01*
X008317Y026778D01*
X008358Y026749D01*
X008397Y026717D01*
X008433Y026682D01*
X008465Y026644D01*
X008495Y026604D01*
X008522Y026561D01*
X008545Y026517D01*
X008564Y026471D01*
X008580Y026423D01*
X008592Y026374D01*
X008600Y026325D01*
X008604Y026275D01*
X008604Y026225D01*
X008600Y026175D01*
X008592Y026126D01*
X008580Y026077D01*
X008564Y026029D01*
X008545Y025983D01*
X008522Y025939D01*
X008495Y025896D01*
X008465Y025856D01*
X008433Y025818D01*
X008397Y025783D01*
X008358Y025751D01*
X008317Y025722D01*
X008274Y025696D01*
X008229Y025674D01*
X008183Y025656D01*
X008135Y025641D01*
X008086Y025630D01*
X008037Y025623D01*
X007987Y025620D01*
X007936Y025621D01*
X007887Y025626D01*
X007837Y025635D01*
X007789Y025648D01*
X007742Y025664D01*
X007696Y025685D01*
X007652Y025709D01*
X007610Y025736D01*
X007570Y025766D01*
X007533Y025800D01*
X007499Y025837D01*
X007467Y025876D01*
X007439Y025917D01*
X007414Y025961D01*
X007393Y026006D01*
X007376Y026053D01*
X007362Y026101D01*
X007352Y026150D01*
X007346Y026200D01*
X007344Y026250D01*
X006399Y026250D02*
X006401Y026327D01*
X006407Y026404D01*
X006416Y026481D01*
X006429Y026557D01*
X006446Y026633D01*
X006467Y026707D01*
X006491Y026781D01*
X006519Y026853D01*
X006550Y026923D01*
X006585Y026992D01*
X006623Y027060D01*
X006664Y027125D01*
X006709Y027188D01*
X006757Y027249D01*
X006807Y027308D01*
X006860Y027364D01*
X006916Y027417D01*
X006975Y027467D01*
X007036Y027515D01*
X007099Y027560D01*
X007164Y027601D01*
X007232Y027639D01*
X007301Y027674D01*
X007371Y027705D01*
X007443Y027733D01*
X007517Y027757D01*
X007591Y027778D01*
X007667Y027795D01*
X007743Y027808D01*
X007820Y027817D01*
X007897Y027823D01*
X007974Y027825D01*
X044194Y027825D01*
X043564Y026250D02*
X043566Y026300D01*
X043572Y026350D01*
X043582Y026399D01*
X043596Y026447D01*
X043613Y026494D01*
X043634Y026539D01*
X043659Y026583D01*
X043687Y026624D01*
X043719Y026663D01*
X043753Y026700D01*
X043790Y026734D01*
X043830Y026764D01*
X043872Y026791D01*
X043916Y026815D01*
X043962Y026836D01*
X044009Y026852D01*
X044057Y026865D01*
X044107Y026874D01*
X044156Y026879D01*
X044207Y026880D01*
X044257Y026877D01*
X044306Y026870D01*
X044355Y026859D01*
X044403Y026844D01*
X044449Y026826D01*
X044494Y026804D01*
X044537Y026778D01*
X044578Y026749D01*
X044617Y026717D01*
X044653Y026682D01*
X044685Y026644D01*
X044715Y026604D01*
X044742Y026561D01*
X044765Y026517D01*
X044784Y026471D01*
X044800Y026423D01*
X044812Y026374D01*
X044820Y026325D01*
X044824Y026275D01*
X044824Y026225D01*
X044820Y026175D01*
X044812Y026126D01*
X044800Y026077D01*
X044784Y026029D01*
X044765Y025983D01*
X044742Y025939D01*
X044715Y025896D01*
X044685Y025856D01*
X044653Y025818D01*
X044617Y025783D01*
X044578Y025751D01*
X044537Y025722D01*
X044494Y025696D01*
X044449Y025674D01*
X044403Y025656D01*
X044355Y025641D01*
X044306Y025630D01*
X044257Y025623D01*
X044207Y025620D01*
X044156Y025621D01*
X044107Y025626D01*
X044057Y025635D01*
X044009Y025648D01*
X043962Y025664D01*
X043916Y025685D01*
X043872Y025709D01*
X043830Y025736D01*
X043790Y025766D01*
X043753Y025800D01*
X043719Y025837D01*
X043687Y025876D01*
X043659Y025917D01*
X043634Y025961D01*
X043613Y026006D01*
X043596Y026053D01*
X043582Y026101D01*
X043572Y026150D01*
X043566Y026200D01*
X043564Y026250D01*
X044194Y027825D02*
X044271Y027823D01*
X044348Y027817D01*
X044425Y027808D01*
X044501Y027795D01*
X044577Y027778D01*
X044651Y027757D01*
X044725Y027733D01*
X044797Y027705D01*
X044867Y027674D01*
X044936Y027639D01*
X045004Y027601D01*
X045069Y027560D01*
X045132Y027515D01*
X045193Y027467D01*
X045252Y027417D01*
X045308Y027364D01*
X045361Y027308D01*
X045411Y027249D01*
X045459Y027188D01*
X045504Y027125D01*
X045545Y027060D01*
X045583Y026992D01*
X045618Y026923D01*
X045649Y026853D01*
X045677Y026781D01*
X045701Y026707D01*
X045722Y026633D01*
X045739Y026557D01*
X045752Y026481D01*
X045761Y026404D01*
X045767Y026327D01*
X045769Y026250D01*
X045769Y004990D01*
X043564Y004990D02*
X043566Y005040D01*
X043572Y005090D01*
X043582Y005139D01*
X043596Y005187D01*
X043613Y005234D01*
X043634Y005279D01*
X043659Y005323D01*
X043687Y005364D01*
X043719Y005403D01*
X043753Y005440D01*
X043790Y005474D01*
X043830Y005504D01*
X043872Y005531D01*
X043916Y005555D01*
X043962Y005576D01*
X044009Y005592D01*
X044057Y005605D01*
X044107Y005614D01*
X044156Y005619D01*
X044207Y005620D01*
X044257Y005617D01*
X044306Y005610D01*
X044355Y005599D01*
X044403Y005584D01*
X044449Y005566D01*
X044494Y005544D01*
X044537Y005518D01*
X044578Y005489D01*
X044617Y005457D01*
X044653Y005422D01*
X044685Y005384D01*
X044715Y005344D01*
X044742Y005301D01*
X044765Y005257D01*
X044784Y005211D01*
X044800Y005163D01*
X044812Y005114D01*
X044820Y005065D01*
X044824Y005015D01*
X044824Y004965D01*
X044820Y004915D01*
X044812Y004866D01*
X044800Y004817D01*
X044784Y004769D01*
X044765Y004723D01*
X044742Y004679D01*
X044715Y004636D01*
X044685Y004596D01*
X044653Y004558D01*
X044617Y004523D01*
X044578Y004491D01*
X044537Y004462D01*
X044494Y004436D01*
X044449Y004414D01*
X044403Y004396D01*
X044355Y004381D01*
X044306Y004370D01*
X044257Y004363D01*
X044207Y004360D01*
X044156Y004361D01*
X044107Y004366D01*
X044057Y004375D01*
X044009Y004388D01*
X043962Y004404D01*
X043916Y004425D01*
X043872Y004449D01*
X043830Y004476D01*
X043790Y004506D01*
X043753Y004540D01*
X043719Y004577D01*
X043687Y004616D01*
X043659Y004657D01*
X043634Y004701D01*
X043613Y004746D01*
X043596Y004793D01*
X043582Y004841D01*
X043572Y004890D01*
X043566Y004940D01*
X043564Y004990D01*
X044194Y003415D02*
X044271Y003417D01*
X044348Y003423D01*
X044425Y003432D01*
X044501Y003445D01*
X044577Y003462D01*
X044651Y003483D01*
X044725Y003507D01*
X044797Y003535D01*
X044867Y003566D01*
X044936Y003601D01*
X045004Y003639D01*
X045069Y003680D01*
X045132Y003725D01*
X045193Y003773D01*
X045252Y003823D01*
X045308Y003876D01*
X045361Y003932D01*
X045411Y003991D01*
X045459Y004052D01*
X045504Y004115D01*
X045545Y004180D01*
X045583Y004248D01*
X045618Y004317D01*
X045649Y004387D01*
X045677Y004459D01*
X045701Y004533D01*
X045722Y004607D01*
X045739Y004683D01*
X045752Y004759D01*
X045761Y004836D01*
X045767Y004913D01*
X045769Y004990D01*
X045767Y004913D01*
X045761Y004836D01*
X045752Y004759D01*
X045739Y004683D01*
X045722Y004607D01*
X045701Y004533D01*
X045677Y004459D01*
X045649Y004387D01*
X045618Y004317D01*
X045583Y004248D01*
X045545Y004180D01*
X045504Y004115D01*
X045459Y004052D01*
X045411Y003991D01*
X045361Y003932D01*
X045308Y003876D01*
X045252Y003823D01*
X045193Y003773D01*
X045132Y003725D01*
X045069Y003680D01*
X045004Y003639D01*
X044936Y003601D01*
X044867Y003566D01*
X044797Y003535D01*
X044725Y003507D01*
X044651Y003483D01*
X044577Y003462D01*
X044501Y003445D01*
X044425Y003432D01*
X044348Y003423D01*
X044271Y003417D01*
X044194Y003415D01*
X044271Y003417D01*
X044348Y003423D01*
X044425Y003432D01*
X044501Y003445D01*
X044577Y003462D01*
X044651Y003483D01*
X044725Y003507D01*
X044797Y003535D01*
X044867Y003566D01*
X044936Y003601D01*
X045004Y003639D01*
X045069Y003680D01*
X045132Y003725D01*
X045193Y003773D01*
X045252Y003823D01*
X045308Y003876D01*
X045361Y003932D01*
X045411Y003991D01*
X045459Y004052D01*
X045504Y004115D01*
X045545Y004180D01*
X045583Y004248D01*
X045618Y004317D01*
X045649Y004387D01*
X045677Y004459D01*
X045701Y004533D01*
X045722Y004607D01*
X045739Y004683D01*
X045752Y004759D01*
X045761Y004836D01*
X045767Y004913D01*
X045769Y004990D01*
X043407Y022038D02*
X043409Y022065D01*
X043415Y022092D01*
X043424Y022118D01*
X043437Y022142D01*
X043453Y022165D01*
X043472Y022184D01*
X043494Y022201D01*
X043518Y022215D01*
X043543Y022225D01*
X043570Y022232D01*
X043597Y022235D01*
X043625Y022234D01*
X043652Y022229D01*
X043678Y022221D01*
X043702Y022209D01*
X043725Y022193D01*
X043746Y022175D01*
X043763Y022154D01*
X043778Y022130D01*
X043789Y022105D01*
X043797Y022079D01*
X043801Y022052D01*
X043801Y022024D01*
X043797Y021997D01*
X043789Y021971D01*
X043778Y021946D01*
X043763Y021922D01*
X043746Y021901D01*
X043725Y021883D01*
X043703Y021867D01*
X043678Y021855D01*
X043652Y021847D01*
X043625Y021842D01*
X043597Y021841D01*
X043570Y021844D01*
X043543Y021851D01*
X043518Y021861D01*
X043494Y021875D01*
X043472Y021892D01*
X043453Y021911D01*
X043437Y021934D01*
X043424Y021958D01*
X043415Y021984D01*
X043409Y022011D01*
X043407Y022038D01*
X043407Y023770D02*
X043409Y023797D01*
X043415Y023824D01*
X043424Y023850D01*
X043437Y023874D01*
X043453Y023897D01*
X043472Y023916D01*
X043494Y023933D01*
X043518Y023947D01*
X043543Y023957D01*
X043570Y023964D01*
X043597Y023967D01*
X043625Y023966D01*
X043652Y023961D01*
X043678Y023953D01*
X043702Y023941D01*
X043725Y023925D01*
X043746Y023907D01*
X043763Y023886D01*
X043778Y023862D01*
X043789Y023837D01*
X043797Y023811D01*
X043801Y023784D01*
X043801Y023756D01*
X043797Y023729D01*
X043789Y023703D01*
X043778Y023678D01*
X043763Y023654D01*
X043746Y023633D01*
X043725Y023615D01*
X043703Y023599D01*
X043678Y023587D01*
X043652Y023579D01*
X043625Y023574D01*
X043597Y023573D01*
X043570Y023576D01*
X043543Y023583D01*
X043518Y023593D01*
X043494Y023607D01*
X043472Y023624D01*
X043453Y023643D01*
X043437Y023666D01*
X043424Y023690D01*
X043415Y023716D01*
X043409Y023743D01*
X043407Y023770D01*
X045769Y026250D02*
X045767Y026327D01*
X045761Y026404D01*
X045752Y026481D01*
X045739Y026557D01*
X045722Y026633D01*
X045701Y026707D01*
X045677Y026781D01*
X045649Y026853D01*
X045618Y026923D01*
X045583Y026992D01*
X045545Y027060D01*
X045504Y027125D01*
X045459Y027188D01*
X045411Y027249D01*
X045361Y027308D01*
X045308Y027364D01*
X045252Y027417D01*
X045193Y027467D01*
X045132Y027515D01*
X045069Y027560D01*
X045004Y027601D01*
X044936Y027639D01*
X044867Y027674D01*
X044797Y027705D01*
X044725Y027733D01*
X044651Y027757D01*
X044577Y027778D01*
X044501Y027795D01*
X044425Y027808D01*
X044348Y027817D01*
X044271Y027823D01*
X044194Y027825D01*
X044271Y027823D01*
X044348Y027817D01*
X044425Y027808D01*
X044501Y027795D01*
X044577Y027778D01*
X044651Y027757D01*
X044725Y027733D01*
X044797Y027705D01*
X044867Y027674D01*
X044936Y027639D01*
X045004Y027601D01*
X045069Y027560D01*
X045132Y027515D01*
X045193Y027467D01*
X045252Y027417D01*
X045308Y027364D01*
X045361Y027308D01*
X045411Y027249D01*
X045459Y027188D01*
X045504Y027125D01*
X045545Y027060D01*
X045583Y026992D01*
X045618Y026923D01*
X045649Y026853D01*
X045677Y026781D01*
X045701Y026707D01*
X045722Y026633D01*
X045739Y026557D01*
X045752Y026481D01*
X045761Y026404D01*
X045767Y026327D01*
X045769Y026250D01*
X007974Y027825D02*
X007897Y027823D01*
X007820Y027817D01*
X007743Y027808D01*
X007667Y027795D01*
X007591Y027778D01*
X007517Y027757D01*
X007443Y027733D01*
X007371Y027705D01*
X007301Y027674D01*
X007232Y027639D01*
X007164Y027601D01*
X007099Y027560D01*
X007036Y027515D01*
X006975Y027467D01*
X006916Y027417D01*
X006860Y027364D01*
X006807Y027308D01*
X006757Y027249D01*
X006709Y027188D01*
X006664Y027125D01*
X006623Y027060D01*
X006585Y026992D01*
X006550Y026923D01*
X006519Y026853D01*
X006491Y026781D01*
X006467Y026707D01*
X006446Y026633D01*
X006429Y026557D01*
X006416Y026481D01*
X006407Y026404D01*
X006401Y026327D01*
X006399Y026250D01*
X006401Y026327D01*
X006407Y026404D01*
X006416Y026481D01*
X006429Y026557D01*
X006446Y026633D01*
X006467Y026707D01*
X006491Y026781D01*
X006519Y026853D01*
X006550Y026923D01*
X006585Y026992D01*
X006623Y027060D01*
X006664Y027125D01*
X006709Y027188D01*
X006757Y027249D01*
X006807Y027308D01*
X006860Y027364D01*
X006916Y027417D01*
X006975Y027467D01*
X007036Y027515D01*
X007099Y027560D01*
X007164Y027601D01*
X007232Y027639D01*
X007301Y027674D01*
X007371Y027705D01*
X007443Y027733D01*
X007517Y027757D01*
X007591Y027778D01*
X007667Y027795D01*
X007743Y027808D01*
X007820Y027817D01*
X007897Y027823D01*
X007974Y027825D01*
X006399Y004990D02*
X006401Y004913D01*
X006407Y004836D01*
X006416Y004759D01*
X006429Y004683D01*
X006446Y004607D01*
X006467Y004533D01*
X006491Y004459D01*
X006519Y004387D01*
X006550Y004317D01*
X006585Y004248D01*
X006623Y004180D01*
X006664Y004115D01*
X006709Y004052D01*
X006757Y003991D01*
X006807Y003932D01*
X006860Y003876D01*
X006916Y003823D01*
X006975Y003773D01*
X007036Y003725D01*
X007099Y003680D01*
X007164Y003639D01*
X007232Y003601D01*
X007301Y003566D01*
X007371Y003535D01*
X007443Y003507D01*
X007517Y003483D01*
X007591Y003462D01*
X007667Y003445D01*
X007743Y003432D01*
X007820Y003423D01*
X007897Y003417D01*
X007974Y003415D01*
D36*
X032580Y026447D03*
X033368Y026447D03*
D37*
X044098Y009914D03*
X044098Y007154D03*
D38*
X044411Y011290D03*
X043584Y011290D03*
X043584Y012864D03*
X044411Y012864D03*
X044411Y014439D03*
X043584Y014439D03*
D39*
X040257Y018770D02*
X040257Y020148D01*
X040285Y020120D01*
X040395Y020120D01*
X040395Y022120D02*
X040261Y022120D01*
X040257Y022116D01*
X039470Y022116D01*
X038998Y022116D01*
X040061Y023101D02*
X040061Y023691D01*
X040061Y024282D01*
X040966Y024675D02*
X041242Y024675D01*
X041517Y024675D01*
X041242Y024675D02*
X041242Y024065D01*
X041222Y023337D02*
X040691Y023337D01*
X040651Y023376D01*
X041222Y023337D02*
X041242Y023317D01*
X041242Y022904D01*
X041635Y022510D01*
X041635Y022313D01*
X041675Y022274D01*
X042398Y022274D01*
X042383Y023691D02*
X042383Y023888D01*
X042029Y023888D01*
X042383Y023888D02*
X042620Y023888D01*
X039509Y023376D02*
X038939Y023376D01*
X038880Y023317D01*
X037502Y023317D01*
X036635Y023317D01*
X036124Y023691D02*
X035612Y023691D01*
X035612Y023317D02*
X034746Y023317D01*
X033939Y023317D01*
X033368Y023888D01*
X033368Y026447D01*
X033958Y026841D02*
X033761Y027038D01*
X032777Y027038D01*
X032580Y026841D01*
X032580Y026447D01*
X033958Y026841D02*
X033958Y025857D01*
X034160Y025655D01*
X034756Y025655D01*
X035011Y025655D01*
X035267Y025655D01*
X035021Y024675D02*
X034746Y024675D01*
X034470Y024675D01*
X034746Y024675D02*
X034746Y024065D01*
X037226Y024675D02*
X037502Y024675D01*
X037777Y024675D01*
X037502Y024675D02*
X037502Y024065D01*
X038604Y024675D02*
X038880Y024675D01*
X039155Y024675D01*
X038880Y024675D02*
X038880Y024065D01*
X036895Y009620D02*
X036895Y009534D01*
X036911Y009518D01*
X036911Y008731D01*
X036714Y008534D01*
X036517Y008534D01*
X035139Y007727D02*
X035120Y007746D01*
X034549Y007746D01*
X034045Y006959D02*
X035317Y006959D01*
X035356Y006959D02*
X035139Y006979D01*
X035356Y006959D02*
X036124Y006959D01*
X033085Y006959D02*
X032206Y006959D01*
X032167Y006959D02*
X030885Y006959D01*
X029945Y006589D02*
X028254Y006589D01*
X036911Y004616D02*
X037895Y004616D01*
X039587Y004616D01*
X040531Y004620D02*
X041828Y004620D01*
X041832Y004616D02*
X041852Y004597D01*
X042620Y004597D01*
X041832Y005364D02*
X041832Y005975D01*
D40*
X041242Y004990D02*
X040531Y004990D01*
X040061Y004990D02*
X040061Y005581D01*
X040257Y005778D01*
X040257Y005994D01*
X040435Y006172D01*
X039687Y006172D02*
X039687Y006959D01*
X039687Y006172D02*
X039591Y006076D01*
X039591Y005360D01*
X038923Y005360D01*
X038880Y005404D01*
X039691Y004620D02*
X040061Y004990D01*
X039691Y004620D02*
X039591Y004620D01*
X039587Y004616D01*
X041828Y004620D02*
X041832Y004616D01*
X036911Y004616D02*
X036891Y004597D01*
X036083Y004601D02*
X034352Y004601D01*
X034352Y004719D02*
X035707Y004719D01*
X035707Y004657D02*
X036083Y004657D01*
X036083Y004537D01*
X035707Y004537D01*
X035707Y004278D01*
X035720Y004232D01*
X035736Y004203D01*
X034352Y004203D01*
X034352Y004990D01*
X035736Y004990D01*
X035720Y004961D01*
X035707Y004916D01*
X035707Y004657D01*
X035707Y004482D02*
X034352Y004482D01*
X034352Y004364D02*
X035707Y004364D01*
X035716Y004245D02*
X034352Y004245D01*
X034352Y004838D02*
X035707Y004838D01*
X035718Y004956D02*
X034352Y004956D01*
X033939Y005975D02*
X033761Y006152D01*
X033761Y006172D01*
X033565Y006368D01*
X033565Y007156D01*
X033738Y007329D01*
X034045Y007329D01*
X033085Y007329D02*
X033085Y007660D01*
X033171Y007746D01*
X032187Y007727D02*
X032187Y008337D01*
X031399Y008927D02*
X030789Y008927D01*
X030041Y008927D02*
X030041Y008140D01*
X029945Y008044D01*
X029945Y007329D01*
X029387Y007329D01*
X029234Y007175D01*
X029234Y007923D02*
X029234Y008534D01*
X028250Y007943D02*
X028250Y007333D01*
X028254Y006589D02*
X028250Y006585D01*
X027246Y006565D01*
X026872Y006997D02*
X026864Y007005D01*
X026823Y007028D01*
X026777Y007040D01*
X026558Y007040D01*
X026558Y006625D01*
X026438Y006625D01*
X026438Y007040D01*
X026218Y007040D01*
X026172Y007028D01*
X026131Y007005D01*
X026098Y006971D01*
X026084Y006948D01*
X026084Y008298D01*
X026872Y008298D01*
X026872Y006997D01*
X026872Y007089D02*
X026084Y007089D01*
X026084Y006971D02*
X026097Y006971D01*
X026084Y007208D02*
X026872Y007208D01*
X026872Y007326D02*
X026084Y007326D01*
X026084Y007445D02*
X026872Y007445D01*
X026872Y007563D02*
X026084Y007563D01*
X026084Y007682D02*
X026872Y007682D01*
X026872Y007800D02*
X026084Y007800D01*
X026084Y007919D02*
X026872Y007919D01*
X026872Y008037D02*
X026084Y008037D01*
X026084Y008156D02*
X026872Y008156D01*
X026872Y008274D02*
X026084Y008274D01*
X026438Y006971D02*
X026558Y006971D01*
X026558Y006852D02*
X026438Y006852D01*
X026438Y006734D02*
X026558Y006734D01*
X024116Y005975D02*
X023919Y005778D01*
X022521Y005778D01*
X021773Y004990D02*
X021773Y004420D01*
X021754Y004400D01*
X020198Y004420D02*
X020179Y004400D01*
X020198Y004420D02*
X020198Y004990D01*
X019391Y004597D02*
X019391Y005384D01*
X018624Y005364D02*
X018624Y004951D01*
X018624Y005364D02*
X018407Y005581D01*
X017817Y005798D02*
X017797Y005778D01*
X017817Y005798D02*
X017817Y006172D01*
X018013Y006368D01*
X023722Y006368D01*
X023919Y006565D01*
X023919Y013258D01*
X025002Y014341D01*
X025447Y014341D01*
X025447Y014538D02*
X024805Y014538D01*
X023722Y013455D01*
X023722Y008534D01*
X023525Y008337D01*
X022521Y008337D01*
X023328Y008927D02*
X018013Y008927D01*
X017817Y008731D01*
X017817Y008357D01*
X017797Y008337D01*
X018407Y008140D02*
X018624Y007923D01*
X018624Y007510D01*
X019194Y006959D02*
X017620Y006959D01*
X017029Y006368D01*
X013683Y006368D01*
X012895Y007156D01*
X012895Y007849D01*
X011624Y009120D01*
X011021Y009518D02*
X010624Y009120D01*
X011021Y009518D02*
X012502Y009518D01*
X013289Y008731D01*
X013289Y007156D01*
X013486Y006959D01*
X014470Y006959D01*
X014667Y007156D01*
X014667Y007943D01*
X013899Y007923D02*
X013899Y007510D01*
X013899Y007923D02*
X013683Y008140D01*
X013683Y008927D02*
X011714Y010896D01*
X011714Y011030D01*
X011624Y011120D01*
X011187Y011683D02*
X010624Y011120D01*
X011187Y011683D02*
X012108Y011683D01*
X013289Y010502D01*
X013289Y009715D01*
X013486Y009518D01*
X014470Y009518D01*
X014667Y009715D01*
X014667Y010502D01*
X013899Y010483D02*
X013683Y010699D01*
X013899Y010483D02*
X013899Y010069D01*
X015474Y010109D02*
X015474Y009538D01*
X015454Y009518D01*
X017029Y009518D02*
X017049Y009538D01*
X017049Y010109D01*
X017620Y009518D02*
X017029Y008927D01*
X013683Y008927D01*
X012108Y007549D02*
X011053Y007549D01*
X010624Y007120D01*
X011624Y007120D02*
X012895Y005849D01*
X012895Y004597D01*
X013486Y004006D01*
X017226Y004006D01*
X017620Y004400D01*
X019194Y004400D01*
X019391Y004597D01*
X017049Y004420D02*
X017029Y004400D01*
X017049Y004420D02*
X017049Y004990D01*
X015474Y004990D02*
X015474Y004420D01*
X015454Y004400D01*
X014667Y004597D02*
X014470Y004400D01*
X013486Y004400D01*
X013289Y004597D01*
X013289Y006368D01*
X012108Y007549D01*
X013683Y005581D02*
X013899Y005364D01*
X013899Y004951D01*
X014667Y004597D02*
X014667Y005384D01*
X015454Y006959D02*
X015474Y006979D01*
X015474Y007549D01*
X017049Y007549D02*
X017049Y006979D01*
X017029Y006959D01*
X019194Y006959D02*
X019391Y007156D01*
X019391Y007943D01*
X020198Y007549D02*
X020198Y006979D01*
X020179Y006959D01*
X021754Y006959D02*
X021773Y006979D01*
X021773Y007549D01*
X023328Y008927D02*
X023525Y009124D01*
X023525Y013652D01*
X024608Y014735D01*
X025447Y014735D01*
X025447Y014931D02*
X024411Y014931D01*
X023328Y013849D01*
X023328Y011093D01*
X023131Y010896D01*
X022521Y010896D01*
X022935Y011486D02*
X018013Y011486D01*
X017817Y011290D01*
X017817Y010719D01*
X017797Y010699D01*
X018407Y010699D02*
X018624Y010483D01*
X018624Y010069D01*
X019194Y009518D02*
X017620Y009518D01*
X019194Y009518D02*
X019391Y009715D01*
X019391Y010502D01*
X020198Y010109D02*
X020198Y009538D01*
X020179Y009518D01*
X021754Y009518D02*
X021773Y009538D01*
X021773Y010109D01*
X022935Y011486D02*
X023131Y011683D01*
X023131Y014046D01*
X024214Y015128D01*
X025447Y015128D01*
X025447Y015325D02*
X024017Y015325D01*
X022541Y013849D01*
X022541Y013475D01*
X022521Y013455D01*
X022344Y013455D01*
X022344Y014046D02*
X018013Y014046D01*
X017817Y013849D01*
X017817Y013475D01*
X017797Y013455D01*
X018407Y013258D02*
X018624Y013042D01*
X018624Y012628D01*
X019194Y012077D02*
X017620Y012077D01*
X017029Y011486D01*
X013257Y011486D01*
X011624Y013120D01*
X011911Y013652D02*
X011155Y013652D01*
X010624Y013120D01*
X011911Y013652D02*
X013486Y012077D01*
X014470Y012077D01*
X014667Y012274D01*
X014667Y013061D01*
X013899Y013042D02*
X013683Y013258D01*
X013899Y013042D02*
X013899Y012628D01*
X015474Y012668D02*
X015474Y012097D01*
X015454Y012077D01*
X017029Y012077D02*
X017049Y012097D01*
X017049Y012668D01*
X017029Y014046D02*
X012698Y014046D01*
X011624Y015120D01*
X011124Y015620D02*
X010624Y015120D01*
X011124Y015620D02*
X012305Y015620D01*
X013289Y014636D01*
X014470Y014636D01*
X014647Y014813D01*
X014647Y015187D01*
X013899Y015187D02*
X013899Y015601D01*
X013683Y015817D01*
X012139Y016605D02*
X011624Y017120D01*
X011911Y017589D02*
X011092Y017589D01*
X010624Y017120D01*
X011911Y017589D02*
X012305Y017195D01*
X014470Y017195D01*
X014647Y017372D01*
X014647Y017746D01*
X013899Y017746D02*
X013899Y018160D01*
X013683Y018376D01*
X014273Y019557D02*
X011061Y019557D01*
X010624Y019120D01*
X011624Y019120D02*
X011667Y019164D01*
X017029Y019164D01*
X017620Y019754D01*
X019194Y019754D01*
X019372Y019931D01*
X019372Y020305D01*
X018624Y020305D02*
X018624Y020719D01*
X018407Y020935D01*
X017817Y021152D02*
X017817Y021526D01*
X018013Y021723D01*
X023525Y021723D01*
X023919Y021329D01*
X023919Y017195D01*
X024411Y016703D01*
X025447Y016703D01*
X025447Y016506D02*
X024214Y016506D01*
X023525Y017195D01*
X023525Y019951D01*
X023131Y020345D01*
X022521Y020345D01*
X021773Y020345D02*
X021773Y019774D01*
X021754Y019754D01*
X022935Y019164D02*
X018013Y019164D01*
X017817Y018967D01*
X017817Y018593D01*
X017797Y018573D01*
X018407Y018376D02*
X018624Y018160D01*
X018624Y017746D01*
X019372Y017746D02*
X019372Y017372D01*
X019194Y017195D01*
X017620Y017195D01*
X017029Y016605D01*
X012139Y016605D01*
X015454Y017195D02*
X015474Y017215D01*
X015474Y017786D01*
X017049Y017786D02*
X017049Y017215D01*
X017029Y017195D01*
X017817Y016408D02*
X017817Y016034D01*
X017797Y016014D01*
X017817Y016408D02*
X018013Y016605D01*
X022935Y016605D01*
X023624Y015916D01*
X025447Y015916D01*
X025447Y016112D02*
X023820Y016112D01*
X022541Y017392D01*
X022541Y017766D01*
X022521Y017786D01*
X021773Y017786D02*
X021773Y017215D01*
X021754Y017195D01*
X023131Y017195D02*
X023131Y018967D01*
X022935Y019164D01*
X020198Y019774D02*
X020179Y019754D01*
X020198Y019774D02*
X020198Y020345D01*
X017817Y021152D02*
X017797Y021132D01*
X017029Y021723D02*
X012698Y021723D01*
X012108Y021132D01*
X011635Y021132D01*
X011624Y021120D01*
X011911Y021526D02*
X011029Y021526D01*
X010624Y021120D01*
X011911Y021526D02*
X012698Y022313D01*
X014470Y022313D01*
X014647Y022490D01*
X014647Y022864D01*
X013899Y022864D02*
X013899Y023278D01*
X013683Y023494D01*
X014273Y024675D02*
X011179Y024675D01*
X010624Y024120D01*
X013683Y026053D02*
X013899Y025837D01*
X013899Y025423D01*
X014647Y025423D02*
X014647Y025049D01*
X014273Y024675D01*
X015454Y024872D02*
X015474Y024892D01*
X015474Y025463D01*
X017049Y025463D02*
X017049Y024892D01*
X017029Y024872D01*
X017797Y025463D02*
X023877Y025463D01*
X023948Y025434D02*
X025297Y024085D01*
X025297Y022429D01*
X025326Y022359D02*
X025462Y022223D01*
X025326Y022358D02*
X025314Y022373D01*
X025305Y022391D01*
X025299Y022409D01*
X025297Y022429D01*
X024313Y022510D02*
X023919Y022904D01*
X022521Y022904D01*
X021773Y022904D02*
X021773Y022333D01*
X021754Y022313D01*
X020198Y022333D02*
X020179Y022313D01*
X020198Y022333D02*
X020198Y022904D01*
X019372Y022864D02*
X019372Y022490D01*
X019194Y022313D01*
X017620Y022313D01*
X017029Y021723D01*
X017029Y022313D02*
X017049Y022333D01*
X017049Y022904D01*
X017797Y023691D02*
X017797Y024065D01*
X018013Y024282D01*
X024313Y024282D01*
X024706Y023888D01*
X024706Y017195D01*
X024805Y017097D01*
X025447Y017097D01*
X025447Y016900D02*
X024608Y016900D01*
X024313Y017195D01*
X024313Y022510D01*
X023948Y025434D02*
X023933Y025446D01*
X023915Y025455D01*
X023897Y025461D01*
X023877Y025463D01*
X018624Y023278D02*
X018624Y022864D01*
X018624Y023278D02*
X018407Y023494D01*
X015474Y022904D02*
X015474Y022333D01*
X015454Y022313D01*
X013899Y020719D02*
X013683Y020935D01*
X013899Y020719D02*
X013899Y020305D01*
X014647Y020305D02*
X014647Y019931D01*
X014273Y019557D01*
X015454Y019754D02*
X015474Y019774D01*
X015474Y020345D01*
X017049Y020345D02*
X017049Y019774D01*
X017029Y019754D01*
X020198Y017786D02*
X020198Y017215D01*
X020179Y017195D01*
X018624Y015601D02*
X018407Y015817D01*
X018624Y015601D02*
X018624Y015187D01*
X019372Y015187D02*
X019372Y014813D01*
X019194Y014636D01*
X017620Y014636D01*
X017029Y014046D01*
X017029Y014636D02*
X017049Y014656D01*
X017049Y015227D01*
X015474Y015227D02*
X015474Y014656D01*
X015454Y014636D01*
X019391Y013061D02*
X019391Y012274D01*
X019194Y012077D01*
X020179Y012077D02*
X020198Y012097D01*
X020198Y012668D01*
X021773Y012668D02*
X021773Y012097D01*
X021754Y012077D01*
X024116Y012864D02*
X024116Y005975D01*
X029945Y006589D02*
X030045Y006589D01*
X030415Y006959D01*
X030415Y007549D01*
X030612Y007746D01*
X030612Y008140D01*
X030789Y008140D01*
X032167Y006959D02*
X032187Y006979D01*
X032206Y006959D01*
X033085Y006589D02*
X033085Y006081D01*
X033191Y005975D01*
X035139Y006979D02*
X035317Y006959D01*
X031006Y006172D02*
X030885Y006292D01*
X030885Y006589D01*
X029628Y011880D02*
X029608Y011900D01*
X029608Y012471D01*
X025447Y014144D02*
X025395Y014144D01*
X024116Y012864D01*
X022344Y014046D02*
X023820Y015522D01*
X025447Y015522D01*
X025447Y015719D02*
X023230Y015719D01*
X022935Y016014D01*
X022521Y016014D01*
X021773Y015227D02*
X021773Y014656D01*
X021754Y014636D01*
X024017Y016309D02*
X023131Y017195D01*
X024017Y016309D02*
X025447Y016309D01*
X040161Y023591D02*
X040431Y023591D01*
X043013Y015227D02*
X043624Y015227D01*
X044372Y015227D02*
X044372Y014479D01*
X044411Y014439D01*
X044372Y013652D02*
X044372Y012884D01*
X044391Y012864D01*
X044411Y012864D01*
X044372Y012077D02*
X044372Y011329D01*
X044411Y011290D01*
X043624Y012077D02*
X043013Y012077D01*
X043013Y013652D02*
X043624Y013652D01*
D41*
X043013Y013652D03*
X043013Y015227D03*
X038486Y016605D03*
X040257Y018770D03*
X038880Y018967D03*
X037895Y018967D03*
X036911Y018967D03*
X035927Y018967D03*
X034352Y018573D03*
X034352Y017983D03*
X031990Y018573D03*
X031990Y019164D03*
X031990Y020148D03*
X031990Y021132D03*
X029824Y020148D03*
X028171Y018573D03*
X029037Y018494D03*
X029509Y018061D03*
X028801Y017235D03*
X029234Y016998D03*
X028368Y016998D03*
X027462Y016998D03*
X026281Y016998D03*
X025887Y018376D03*
X027462Y018573D03*
X030612Y016565D03*
X031596Y016605D03*
X031990Y016211D03*
X031990Y015620D03*
X030612Y015817D03*
X029234Y015030D03*
X028840Y014833D03*
X028840Y014242D03*
X027856Y014242D03*
X027265Y014242D03*
X026675Y014242D03*
X025297Y013258D03*
X024903Y012864D03*
X026675Y012668D03*
X027147Y012668D03*
X026084Y011447D03*
X026084Y010502D03*
X029234Y008534D03*
X028250Y007943D03*
X026478Y008101D03*
X026478Y007628D03*
X026478Y007156D03*
X031006Y006172D03*
X031399Y007549D03*
X032187Y008337D03*
X031399Y008927D03*
X033171Y007746D03*
X034549Y007746D03*
X036124Y006959D03*
X036911Y005975D03*
X037305Y005384D03*
X035533Y004597D03*
X035061Y004597D03*
X034588Y004597D03*
X034549Y006565D03*
X036517Y008534D03*
X037383Y008337D03*
X037698Y007549D03*
X038210Y007549D03*
X038486Y007943D03*
X038486Y006959D03*
X041045Y006959D03*
X041832Y005975D03*
X041242Y004990D03*
X042620Y004597D03*
X033958Y009715D03*
X032383Y010502D03*
X032383Y011290D03*
X034155Y011683D03*
X035533Y013061D03*
X035730Y013652D03*
X032383Y014439D03*
X031399Y014046D03*
X029824Y013849D03*
X029628Y013061D03*
X030809Y012668D03*
X029628Y011880D03*
X028643Y015817D03*
X021754Y014636D03*
X020179Y014636D03*
X018407Y015817D03*
X017029Y014636D03*
X015454Y014636D03*
X013683Y015817D03*
X015454Y017195D03*
X017029Y017195D03*
X018407Y018376D03*
X017029Y019754D03*
X015454Y019754D03*
X013683Y020935D03*
X015454Y022313D03*
X017029Y022313D03*
X018407Y023494D03*
X017029Y024872D03*
X015454Y024872D03*
X013683Y026053D03*
X013683Y023494D03*
X018407Y020935D03*
X020179Y019754D03*
X021754Y019754D03*
X021754Y017195D03*
X020179Y017195D03*
X018407Y013258D03*
X017029Y012077D03*
X015454Y012077D03*
X013683Y013258D03*
X013683Y010699D03*
X015454Y009518D03*
X017029Y009518D03*
X018407Y010699D03*
X020179Y009518D03*
X021754Y009518D03*
X018407Y008140D03*
X017029Y006959D03*
X015454Y006959D03*
X013683Y008140D03*
X013683Y005581D03*
X015454Y004400D03*
X017029Y004400D03*
X018407Y005581D03*
X020179Y004400D03*
X021754Y004400D03*
X021754Y006959D03*
X020179Y006959D03*
X020179Y012077D03*
X021754Y012077D03*
X013683Y018376D03*
X020179Y022313D03*
X021754Y022313D03*
X034470Y024675D03*
X035021Y024675D03*
X035533Y025266D03*
X036281Y025227D03*
X036517Y024833D03*
X036754Y025227D03*
X037226Y024675D03*
X037777Y024675D03*
X038604Y024675D03*
X039155Y024675D03*
X038683Y025148D03*
X038289Y025463D03*
X039667Y026250D03*
X040966Y024675D03*
X041517Y024675D03*
X042029Y023888D03*
X042620Y023888D03*
X042423Y025463D03*
X042423Y026447D03*
X040061Y024282D03*
X040061Y023101D03*
X039470Y022116D03*
X038998Y022116D03*
X040061Y021605D03*
X040061Y021132D03*
X040061Y020660D03*
X036360Y021723D03*
X036360Y022235D03*
X036124Y023691D03*
X043013Y012077D03*
X039116Y011093D03*
X038643Y011093D03*
D42*
X037698Y010896D02*
X037502Y010699D01*
X036517Y010699D01*
X036320Y010502D01*
X036320Y009912D01*
X035927Y009518D01*
X035533Y009518D01*
X035139Y009124D01*
X034399Y009124D01*
X034395Y009120D01*
X034391Y009124D01*
X033958Y009124D01*
X033958Y009715D01*
X033368Y010109D02*
X034883Y010109D01*
X035395Y010120D01*
X035395Y010758D01*
X035533Y010896D01*
X037305Y010896D01*
X037502Y011093D01*
X037502Y018573D01*
X037895Y018967D01*
X037305Y018573D02*
X036911Y018967D01*
X037305Y018573D02*
X037305Y012471D01*
X036954Y012120D01*
X035395Y012120D01*
X035533Y013061D02*
X034454Y013061D01*
X034395Y013120D01*
X035395Y014120D02*
X035470Y014046D01*
X035730Y014046D01*
X035730Y013652D01*
X036320Y014439D02*
X036320Y015817D01*
X037108Y015817D01*
X037108Y014439D01*
X036320Y014439D01*
X036320Y014448D02*
X037108Y014448D01*
X037108Y014546D02*
X036320Y014546D01*
X036320Y014645D02*
X037108Y014645D01*
X037108Y014743D02*
X036320Y014743D01*
X036320Y014842D02*
X037108Y014842D01*
X037108Y014940D02*
X036320Y014940D01*
X036320Y015039D02*
X037108Y015039D01*
X037108Y015137D02*
X036320Y015137D01*
X036320Y015236D02*
X037108Y015236D01*
X037108Y015334D02*
X036320Y015334D01*
X036320Y015433D02*
X037108Y015433D01*
X037108Y015531D02*
X036320Y015531D01*
X036320Y015630D02*
X037108Y015630D01*
X037108Y015728D02*
X036320Y015728D01*
X035395Y016120D02*
X035533Y016758D01*
X035533Y017392D01*
X035336Y017589D01*
X031399Y017589D01*
X030710Y016900D01*
X029872Y016900D01*
X029872Y017097D02*
X029332Y017097D01*
X029234Y016998D01*
X028939Y017372D02*
X028801Y017235D01*
X028939Y017372D02*
X028939Y017833D01*
X029135Y017833D02*
X029281Y017833D01*
X029509Y018061D01*
X029037Y018494D02*
X028742Y018199D01*
X028742Y017833D01*
X028545Y017833D02*
X028545Y018238D01*
X028722Y018416D01*
X028722Y018652D01*
X029037Y018967D01*
X029647Y018967D01*
X029824Y018790D01*
X029950Y018664D01*
X031006Y018664D01*
X031990Y018573D02*
X032383Y018179D01*
X032600Y018179D01*
X033348Y018179D02*
X034155Y018179D01*
X034352Y017983D01*
X035139Y017983D01*
X035336Y018179D01*
X035395Y018120D01*
X034352Y018573D02*
X034352Y019077D01*
X034395Y019120D01*
X034852Y019164D01*
X033348Y019164D01*
X032600Y019164D02*
X031990Y019164D01*
X031990Y020148D02*
X032600Y020148D01*
X033348Y020148D02*
X034868Y020148D01*
X035395Y020120D01*
X039104Y020120D01*
X039273Y019951D01*
X039273Y018770D01*
X037895Y017392D01*
X037895Y010109D01*
X037502Y009715D01*
X037502Y008927D01*
X036399Y007825D01*
X036399Y007471D01*
X036517Y007353D01*
X036517Y006565D01*
X036320Y006368D01*
X034746Y006368D01*
X034549Y006565D01*
X034525Y006589D01*
X034045Y006589D01*
X031399Y007549D02*
X031179Y007329D01*
X030885Y007329D01*
X034395Y009120D02*
X034939Y009120D01*
X033368Y010109D02*
X033171Y010305D01*
X033171Y011880D01*
X032974Y012077D01*
X030612Y012077D01*
X030415Y012274D01*
X030415Y014242D01*
X030317Y014341D01*
X029872Y014341D01*
X029872Y014538D02*
X029135Y014538D01*
X028840Y014833D01*
X029234Y014833D02*
X029332Y014735D01*
X029872Y014735D01*
X029872Y014931D02*
X030907Y014931D01*
X031202Y014636D01*
X031616Y014636D01*
X031635Y014656D01*
X032088Y015128D02*
X032383Y015423D01*
X032383Y016605D01*
X032974Y017195D01*
X034820Y017195D01*
X034395Y017120D01*
X031990Y016211D02*
X031301Y015522D01*
X029872Y015522D01*
X029872Y015325D02*
X031694Y015325D01*
X031990Y015620D01*
X032088Y015128D02*
X029872Y015128D01*
X029234Y015030D02*
X029234Y014833D01*
X028840Y014242D02*
X029135Y013947D01*
X029135Y013408D01*
X028939Y013408D02*
X028939Y013002D01*
X029037Y012904D01*
X029470Y012904D01*
X029628Y013061D01*
X029824Y013849D02*
X029872Y013896D01*
X029872Y014144D01*
X028742Y013408D02*
X028742Y012589D01*
X028860Y012471D01*
X028348Y011979D02*
X028840Y011486D01*
X028840Y010945D01*
X028889Y010896D01*
X027954Y010601D02*
X027856Y010502D01*
X027443Y010502D01*
X027954Y010601D02*
X027954Y013408D01*
X027757Y013408D02*
X027757Y014144D01*
X027856Y014242D01*
X027364Y014144D02*
X027265Y014242D01*
X027364Y014144D02*
X027364Y013408D01*
X027364Y012963D01*
X027502Y012825D01*
X027502Y012549D01*
X027305Y012353D01*
X027108Y012353D01*
X027069Y012313D01*
X027069Y012136D01*
X027009Y012077D01*
X026872Y012077D01*
X026675Y011880D01*
X026675Y011467D01*
X026694Y011447D01*
X026084Y011447D01*
X027443Y011447D02*
X027521Y011526D01*
X027521Y012077D01*
X027541Y012097D01*
X027541Y012274D01*
X027698Y012431D01*
X027698Y012904D01*
X027561Y013042D01*
X027561Y013408D01*
X027167Y013408D02*
X026970Y013408D01*
X026773Y013408D02*
X026773Y014144D01*
X026675Y014242D01*
X026576Y013408D02*
X026576Y012766D01*
X026675Y012668D01*
X026380Y012963D02*
X026281Y012864D01*
X024903Y012864D01*
X025297Y013258D02*
X025447Y013408D01*
X026183Y013408D01*
X026380Y013408D02*
X026380Y012963D01*
X027167Y012727D02*
X027167Y013408D01*
X027167Y012727D02*
X027147Y012668D01*
X028348Y011979D02*
X028348Y013408D01*
X030809Y012668D02*
X030828Y012648D01*
X031635Y012648D01*
X034155Y011683D02*
X034155Y011093D01*
X034868Y011093D01*
X034395Y011120D01*
X037698Y010896D02*
X037698Y017786D01*
X038880Y018967D01*
X039470Y018573D02*
X038092Y017195D01*
X038092Y009715D01*
X038407Y009400D01*
X038407Y008731D01*
X039391Y007746D01*
X041242Y007746D01*
X041635Y007353D01*
X041635Y006762D01*
X041242Y006368D01*
X041242Y005581D01*
X041021Y005360D01*
X040531Y005360D01*
X038880Y006152D02*
X038880Y006565D01*
X038486Y006959D01*
X038486Y007353D02*
X037502Y007353D01*
X037502Y007357D01*
X037553Y007409D01*
X037553Y007798D01*
X037698Y007943D01*
X037698Y008213D01*
X037722Y008270D01*
X037722Y008404D01*
X037698Y008461D01*
X037698Y008841D01*
X037702Y008845D01*
X037702Y009321D01*
X038092Y009321D01*
X038092Y007943D01*
X038486Y007549D01*
X038486Y007353D01*
X038486Y007356D02*
X037502Y007356D01*
X037553Y007454D02*
X038486Y007454D01*
X038483Y007553D02*
X037553Y007553D01*
X037553Y007651D02*
X038384Y007651D01*
X038286Y007750D02*
X037553Y007750D01*
X037603Y007848D02*
X038187Y007848D01*
X038092Y007947D02*
X037698Y007947D01*
X037698Y008045D02*
X038092Y008045D01*
X038092Y008144D02*
X037698Y008144D01*
X037711Y008242D02*
X038092Y008242D01*
X038092Y008341D02*
X037722Y008341D01*
X037707Y008439D02*
X038092Y008439D01*
X038092Y008538D02*
X037698Y008538D01*
X037698Y008636D02*
X038092Y008636D01*
X038092Y008735D02*
X037698Y008735D01*
X037698Y008833D02*
X038092Y008833D01*
X038092Y008932D02*
X037702Y008932D01*
X037702Y009030D02*
X038092Y009030D01*
X038092Y009129D02*
X037702Y009129D01*
X037702Y009227D02*
X038092Y009227D01*
X037383Y008337D02*
X037108Y008061D01*
X037108Y007727D01*
X037108Y006979D02*
X037108Y006172D01*
X036911Y005975D01*
X037305Y005384D02*
X037324Y005364D01*
X037895Y005364D01*
X040435Y006959D02*
X041045Y006959D01*
X041395Y009120D02*
X041439Y009164D01*
X041439Y010502D01*
X041242Y010699D01*
X040061Y010699D01*
X038289Y012471D01*
X038289Y016408D01*
X038486Y016605D01*
X038683Y016329D02*
X039470Y016329D01*
X039470Y012471D01*
X038683Y012471D01*
X038683Y016329D01*
X038683Y016319D02*
X039470Y016319D01*
X039470Y016221D02*
X038683Y016221D01*
X038683Y016122D02*
X039470Y016122D01*
X039470Y016024D02*
X038683Y016024D01*
X038683Y015925D02*
X039470Y015925D01*
X039470Y015827D02*
X038683Y015827D01*
X038683Y015728D02*
X039470Y015728D01*
X039470Y015630D02*
X038683Y015630D01*
X038683Y015531D02*
X039470Y015531D01*
X039470Y015433D02*
X038683Y015433D01*
X038683Y015334D02*
X039470Y015334D01*
X039470Y015236D02*
X038683Y015236D01*
X038683Y015137D02*
X039470Y015137D01*
X039470Y015039D02*
X038683Y015039D01*
X038683Y014940D02*
X039470Y014940D01*
X039470Y014842D02*
X038683Y014842D01*
X038683Y014743D02*
X039470Y014743D01*
X039470Y014645D02*
X038683Y014645D01*
X038683Y014546D02*
X039470Y014546D01*
X039470Y014448D02*
X038683Y014448D01*
X038683Y014349D02*
X039470Y014349D01*
X039470Y014251D02*
X038683Y014251D01*
X038683Y014152D02*
X039470Y014152D01*
X039470Y014054D02*
X038683Y014054D01*
X038683Y013955D02*
X039470Y013955D01*
X039470Y013857D02*
X038683Y013857D01*
X038683Y013758D02*
X039470Y013758D01*
X039470Y013660D02*
X038683Y013660D01*
X038683Y013561D02*
X039470Y013561D01*
X039470Y013463D02*
X038683Y013463D01*
X038683Y013364D02*
X039470Y013364D01*
X039470Y013266D02*
X038683Y013266D01*
X038683Y013167D02*
X039470Y013167D01*
X039470Y013069D02*
X038683Y013069D01*
X038683Y012970D02*
X039470Y012970D01*
X039470Y012872D02*
X038683Y012872D01*
X038683Y012773D02*
X039470Y012773D01*
X039470Y012675D02*
X038683Y012675D01*
X038683Y012576D02*
X039470Y012576D01*
X039470Y012478D02*
X038683Y012478D01*
X040395Y012120D02*
X040439Y012077D01*
X042226Y012077D01*
X043013Y011290D01*
X043584Y011290D01*
X042817Y010896D02*
X042817Y009321D01*
X043013Y009124D01*
X044785Y009124D01*
X044982Y009321D01*
X044982Y009327D01*
X045078Y009424D01*
X042817Y010896D02*
X042592Y011120D01*
X041395Y011120D01*
X042620Y012864D02*
X042423Y013061D01*
X041454Y013061D01*
X041395Y013120D01*
X042620Y012864D02*
X043584Y012864D01*
X041832Y014439D02*
X041439Y014046D01*
X040454Y014046D01*
X040257Y014242D01*
X040273Y014242D01*
X040395Y014120D01*
X041832Y014439D02*
X043584Y014439D01*
X039470Y018573D02*
X039470Y020935D01*
X039285Y021120D01*
X034395Y021120D01*
X034883Y021132D01*
X033348Y021132D01*
X032600Y021132D02*
X031990Y021132D01*
X029824Y020148D02*
X029824Y019538D01*
X028624Y019754D02*
X028506Y019636D01*
X028506Y019164D01*
X028506Y018435D01*
X028348Y018278D01*
X028348Y017833D01*
X028348Y017018D01*
X028368Y016998D01*
X028151Y017833D02*
X028151Y018553D01*
X028171Y018573D01*
X027954Y018317D02*
X027817Y018455D01*
X027817Y018731D01*
X027994Y018908D01*
X027994Y019164D01*
X027994Y019636D01*
X027876Y019754D01*
X027462Y020542D02*
X026970Y020049D01*
X026970Y017833D01*
X026773Y017833D02*
X026773Y020246D01*
X027265Y020738D01*
X028250Y020738D01*
X028446Y020935D01*
X028446Y021207D01*
X028462Y021223D01*
X027974Y021711D01*
X027974Y022864D01*
X027836Y023002D01*
X027836Y023494D01*
X027836Y024479D01*
X027088Y024479D02*
X027088Y023494D01*
X027069Y023475D01*
X027069Y022943D01*
X026950Y022825D01*
X026950Y021998D01*
X026462Y021510D01*
X026462Y021223D01*
X025966Y020857D02*
X025966Y021719D01*
X025462Y022223D01*
X025966Y020857D02*
X026380Y020443D01*
X026380Y017833D01*
X026576Y017833D02*
X026576Y020443D01*
X027265Y021132D01*
X027372Y021132D01*
X027462Y021223D01*
X027462Y020542D02*
X029037Y020542D01*
X029431Y020935D01*
X029431Y021191D01*
X029462Y021223D01*
X026183Y018868D02*
X026084Y018967D01*
X025356Y018967D01*
X025297Y019026D01*
X025297Y018514D02*
X025297Y017983D01*
X026281Y016998D01*
X026183Y017833D02*
X026183Y018868D01*
X027167Y018278D02*
X027462Y018573D01*
X027757Y018278D01*
X027757Y017833D01*
X027561Y017833D02*
X027509Y017833D01*
X027462Y017786D01*
X027462Y016998D01*
X027561Y017833D02*
X027364Y017833D01*
X027167Y017833D02*
X027167Y018278D01*
X027954Y018317D02*
X027954Y017833D01*
X029872Y016112D02*
X031104Y016112D01*
X031596Y016605D01*
X032600Y014656D02*
X032383Y014439D01*
X032600Y014656D02*
X033131Y014656D01*
X026694Y010502D02*
X026084Y010502D01*
X022521Y010896D02*
X022521Y010109D01*
X021773Y010896D02*
X020946Y010896D01*
X020946Y010109D01*
X020198Y010896D02*
X019785Y010896D01*
X019391Y010502D01*
X019391Y010089D01*
X019372Y010069D01*
X017797Y010109D02*
X017797Y010699D01*
X017797Y010896D01*
X017049Y010896D02*
X016222Y010896D01*
X016222Y010109D01*
X015474Y010896D02*
X015061Y010896D01*
X014667Y010502D01*
X014667Y010089D01*
X014647Y010069D01*
X015061Y008337D02*
X014667Y007943D01*
X014667Y007530D01*
X014647Y007510D01*
X015061Y008337D02*
X015474Y008337D01*
X016222Y008337D02*
X017049Y008337D01*
X017797Y008337D02*
X017797Y007549D01*
X016222Y007549D02*
X016222Y008337D01*
X019372Y007510D02*
X019391Y007530D01*
X019391Y007943D01*
X019785Y008337D01*
X020198Y008337D01*
X020946Y008337D02*
X020946Y007549D01*
X020946Y008337D02*
X021773Y008337D01*
X022521Y008337D02*
X022521Y007549D01*
X022521Y005778D02*
X022521Y004990D01*
X021773Y005778D02*
X020946Y005778D01*
X020946Y004990D01*
X020198Y005778D02*
X019785Y005778D01*
X019391Y005384D01*
X019391Y004971D01*
X019372Y004951D01*
X017797Y004990D02*
X017797Y005778D01*
X017049Y005778D02*
X016222Y005778D01*
X016222Y004990D01*
X015474Y005778D02*
X015061Y005778D01*
X014667Y005384D01*
X014667Y004971D01*
X014647Y004951D01*
X014647Y012628D02*
X014667Y012648D01*
X014667Y013061D01*
X015061Y013455D01*
X015474Y013455D01*
X016222Y013455D02*
X017049Y013455D01*
X017797Y013455D02*
X017797Y012668D01*
X016222Y012668D02*
X016222Y013455D01*
X016222Y015227D02*
X016222Y016014D01*
X017049Y016014D01*
X017797Y016014D02*
X017797Y015227D01*
X019372Y015187D02*
X019391Y015207D01*
X019391Y015620D01*
X019785Y016014D01*
X020198Y016014D01*
X020946Y016014D02*
X020946Y015227D01*
X020198Y015227D02*
X020198Y014656D01*
X020179Y014636D01*
X020198Y013455D02*
X019785Y013455D01*
X019391Y013061D01*
X019391Y012648D01*
X019372Y012628D01*
X020946Y012668D02*
X020946Y013455D01*
X021773Y013455D01*
X022521Y013455D02*
X022521Y012668D01*
X022521Y015227D02*
X022521Y015994D01*
X022541Y016014D01*
X022521Y016014D01*
X021773Y016014D02*
X020946Y016014D01*
X020946Y017786D02*
X020946Y018573D01*
X021773Y018573D01*
X022521Y018573D02*
X022521Y017786D01*
X020198Y018573D02*
X019785Y018573D01*
X019391Y018179D01*
X019391Y017766D01*
X019372Y017746D01*
X017797Y017786D02*
X017797Y018573D01*
X017049Y018573D02*
X016222Y018573D01*
X016222Y017786D01*
X015474Y018573D02*
X015061Y018573D01*
X014667Y018179D01*
X014667Y017766D01*
X014647Y017746D01*
X015061Y016014D02*
X014667Y015620D01*
X014667Y015207D01*
X014647Y015187D01*
X015061Y016014D02*
X015474Y016014D01*
X014647Y020305D02*
X014667Y020325D01*
X014667Y020738D01*
X015061Y021132D01*
X015474Y021132D01*
X016222Y021132D02*
X017049Y021132D01*
X017797Y021132D02*
X017797Y020345D01*
X016222Y020345D02*
X016222Y021132D01*
X016222Y022904D02*
X016222Y023691D01*
X017049Y023691D01*
X017797Y023691D02*
X017797Y022904D01*
X019372Y022864D02*
X019391Y022884D01*
X019391Y023298D01*
X019785Y023691D01*
X020198Y023691D01*
X020946Y023691D02*
X020946Y022904D01*
X020946Y023691D02*
X021773Y023691D01*
X022521Y023691D02*
X022521Y022904D01*
X022521Y021132D02*
X022521Y020345D01*
X021773Y021132D02*
X020946Y021132D01*
X020946Y020345D01*
X020198Y021132D02*
X019785Y021132D01*
X019391Y020738D01*
X019391Y020325D01*
X019372Y020305D01*
X014667Y022884D02*
X014647Y022864D01*
X014667Y022884D02*
X014667Y023298D01*
X015061Y023691D01*
X015474Y023691D01*
X014647Y025423D02*
X014667Y025443D01*
X014667Y025857D01*
X015061Y026250D01*
X015474Y026250D01*
X016222Y026250D02*
X017049Y026250D01*
X017797Y026250D02*
X017797Y025463D01*
X016222Y025463D02*
X016222Y026250D01*
X034352Y026268D02*
X037502Y026268D01*
X037502Y026366D02*
X034352Y026366D01*
X034352Y026465D02*
X037502Y026465D01*
X037502Y026563D02*
X034352Y026563D01*
X034352Y026662D02*
X037502Y026662D01*
X037502Y026760D02*
X034352Y026760D01*
X034352Y026859D02*
X037502Y026859D01*
X037502Y026957D02*
X034352Y026957D01*
X034352Y027056D02*
X037502Y027056D01*
X037502Y027154D02*
X034352Y027154D01*
X034352Y027253D02*
X037502Y027253D01*
X037502Y027351D02*
X034352Y027351D01*
X034352Y027450D02*
X037502Y027450D01*
X037502Y027548D02*
X034352Y027548D01*
X034352Y027628D02*
X037502Y027628D01*
X037502Y025857D01*
X037328Y025857D01*
X037328Y025867D01*
X037240Y025955D01*
X036188Y025955D01*
X036100Y025867D01*
X036100Y025857D01*
X035753Y025857D01*
X035753Y025867D01*
X035665Y025955D01*
X034613Y025955D01*
X034583Y025925D01*
X034352Y025925D01*
X034352Y027628D01*
X034352Y026169D02*
X037502Y026169D01*
X037502Y026071D02*
X034352Y026071D01*
X034352Y025972D02*
X037502Y025972D01*
X037502Y025874D02*
X037322Y025874D01*
X037098Y025655D02*
X037891Y025655D01*
X038092Y025857D01*
X038092Y026250D01*
X038289Y026447D01*
X038642Y026447D01*
X038642Y026250D02*
X038486Y026250D01*
X038289Y026053D01*
X038289Y025463D01*
X038683Y025148D02*
X038998Y025463D01*
X039293Y025463D01*
X040041Y025463D02*
X041065Y025463D01*
X041813Y025463D02*
X042423Y025463D01*
X042423Y026447D02*
X041813Y026447D01*
X041065Y026447D02*
X040651Y026447D01*
X040376Y026723D01*
X039431Y026723D01*
X039352Y026644D01*
X039117Y026644D01*
X039117Y026447D02*
X039431Y026447D01*
X039549Y026565D01*
X039903Y026565D01*
X040041Y026427D01*
X040041Y025463D01*
X039667Y026250D02*
X039117Y026250D01*
X036868Y025657D02*
X036868Y025443D01*
X036911Y025400D01*
X036911Y024675D01*
X036124Y024675D01*
X036124Y025657D01*
X036868Y025657D01*
X036868Y025578D02*
X036124Y025578D01*
X036124Y025480D02*
X036868Y025480D01*
X036911Y025381D02*
X036124Y025381D01*
X036124Y025283D02*
X036911Y025283D01*
X036911Y025184D02*
X036124Y025184D01*
X036124Y025086D02*
X036911Y025086D01*
X036911Y024987D02*
X036124Y024987D01*
X036124Y024889D02*
X036911Y024889D01*
X036911Y024790D02*
X036124Y024790D01*
X036124Y024692D02*
X036911Y024692D01*
X036635Y024065D02*
X035612Y024065D01*
X036635Y024065D02*
X036635Y023317D01*
X036517Y022510D02*
X034746Y022510D01*
X034746Y022490D01*
X035345Y022490D01*
X035345Y022170D01*
X035445Y022170D01*
X036215Y022170D01*
X036215Y022343D01*
X036204Y022386D01*
X036181Y022425D01*
X036150Y022456D01*
X036111Y022479D01*
X036068Y022490D01*
X035445Y022490D01*
X035445Y022170D01*
X035445Y022070D01*
X035445Y021750D01*
X036068Y021750D01*
X036111Y021762D01*
X036150Y021784D01*
X036181Y021816D01*
X036204Y021855D01*
X036215Y021898D01*
X036215Y022070D01*
X035445Y022070D01*
X035345Y022070D01*
X035345Y021750D01*
X034746Y021750D01*
X034746Y021526D01*
X036517Y021526D01*
X036517Y022510D01*
X036517Y022426D02*
X036180Y022426D01*
X036215Y022328D02*
X036517Y022328D01*
X036517Y022229D02*
X036215Y022229D01*
X036215Y022032D02*
X036517Y022032D01*
X036517Y021934D02*
X036215Y021934D01*
X036192Y021835D02*
X036517Y021835D01*
X036517Y021737D02*
X034746Y021737D01*
X034746Y021638D02*
X036517Y021638D01*
X036517Y021540D02*
X034746Y021540D01*
X035345Y021835D02*
X035445Y021835D01*
X035445Y021934D02*
X035345Y021934D01*
X035345Y022032D02*
X035445Y022032D01*
X035445Y022131D02*
X036517Y022131D01*
X035445Y022229D02*
X035345Y022229D01*
X035345Y022328D02*
X035445Y022328D01*
X035445Y022426D02*
X035345Y022426D01*
X035533Y025266D02*
X035533Y025645D01*
X035523Y025655D01*
X035747Y025874D02*
X036107Y025874D01*
X039864Y021723D02*
X042029Y021723D01*
X042029Y021490D01*
X041445Y021490D01*
X041445Y021170D01*
X041345Y021170D01*
X041345Y021070D01*
X041445Y021070D01*
X041445Y020750D01*
X042029Y020750D01*
X042029Y020542D01*
X039864Y020542D01*
X039864Y021723D01*
X039864Y021638D02*
X042029Y021638D01*
X042029Y021540D02*
X039864Y021540D01*
X039864Y021441D02*
X040626Y021441D01*
X040641Y021456D02*
X040609Y021425D01*
X040587Y021386D01*
X040575Y021343D01*
X040575Y021170D01*
X041345Y021170D01*
X041345Y021490D01*
X040723Y021490D01*
X040680Y021479D01*
X040641Y021456D01*
X040575Y021343D02*
X039864Y021343D01*
X039864Y021244D02*
X040575Y021244D01*
X040575Y021070D02*
X040575Y020898D01*
X040587Y020855D01*
X040609Y020816D01*
X040641Y020784D01*
X040680Y020762D01*
X040723Y020750D01*
X041345Y020750D01*
X041345Y021070D01*
X040575Y021070D01*
X040575Y021047D02*
X039864Y021047D01*
X039864Y020949D02*
X040575Y020949D01*
X040589Y020850D02*
X039864Y020850D01*
X039864Y020752D02*
X040718Y020752D01*
X041345Y021146D02*
X039864Y021146D01*
X039864Y020653D02*
X042029Y020653D01*
X042029Y020555D02*
X039864Y020555D01*
X041345Y020752D02*
X041445Y020752D01*
X041445Y020850D02*
X041345Y020850D01*
X041345Y020949D02*
X041445Y020949D01*
X041445Y021047D02*
X041345Y021047D01*
X041345Y021244D02*
X041445Y021244D01*
X041445Y021343D02*
X041345Y021343D01*
X041345Y021441D02*
X041445Y021441D01*
D43*
X040691Y023337D02*
X040636Y023391D01*
X040431Y023391D01*
X040161Y023591D02*
X040061Y023691D01*
X039761Y023991D01*
X039691Y023991D01*
X039691Y023791D02*
X039961Y023791D01*
X040061Y023691D01*
X039691Y023391D02*
X039524Y023391D01*
X039509Y023376D01*
X042383Y023691D02*
X042398Y023677D01*
X042398Y023534D01*
X032383Y011290D02*
X031941Y011290D01*
X031547Y010896D01*
X031941Y010502D01*
X032383Y010502D01*
M02*
