G75*
G70*
%OFA0B0*%
%FSLAX24Y24*%
%IPPOS*%
%LPD*%
%AMOC8*
5,1,8,0,0,1.08239X$1,22.5*
%
%ADD10R,0.0500X0.1000*%
%ADD11R,0.0591X0.0512*%
%ADD12R,0.0354X0.0276*%
%ADD13R,0.0512X0.0591*%
%ADD14C,0.0000*%
%ADD15R,0.0276X0.0354*%
D10*
X035895Y010272D03*
X036895Y010272D03*
X037895Y010272D03*
X038895Y010272D03*
X039895Y010272D03*
X039895Y019788D03*
X038895Y019788D03*
X037895Y019788D03*
X036895Y019788D03*
X035895Y019788D03*
D11*
X030809Y014026D03*
X030809Y013278D03*
X028643Y013632D03*
X028643Y012884D03*
X026478Y017412D03*
X026478Y018160D03*
D12*
X027226Y018042D03*
X027738Y018042D03*
X028250Y018042D03*
X028250Y017530D03*
X027738Y017530D03*
X027226Y017530D03*
X027265Y013711D03*
X026675Y013711D03*
X026675Y013199D03*
X027265Y013199D03*
X027856Y013199D03*
X027856Y013711D03*
D13*
X029254Y015817D03*
X030002Y015817D03*
X039096Y007943D03*
X039844Y007943D03*
X039844Y006959D03*
X039096Y006959D03*
X043033Y008534D03*
X043781Y008534D03*
D14*
X044194Y003416D02*
X007974Y003416D01*
X007344Y004990D02*
X007346Y005040D01*
X007352Y005090D01*
X007362Y005139D01*
X007376Y005187D01*
X007393Y005234D01*
X007414Y005279D01*
X007439Y005323D01*
X007467Y005364D01*
X007499Y005403D01*
X007533Y005440D01*
X007570Y005474D01*
X007610Y005504D01*
X007652Y005531D01*
X007696Y005555D01*
X007742Y005576D01*
X007789Y005592D01*
X007837Y005605D01*
X007887Y005614D01*
X007936Y005619D01*
X007987Y005620D01*
X008037Y005617D01*
X008086Y005610D01*
X008135Y005599D01*
X008183Y005584D01*
X008229Y005566D01*
X008274Y005544D01*
X008317Y005518D01*
X008358Y005489D01*
X008397Y005457D01*
X008433Y005422D01*
X008465Y005384D01*
X008495Y005344D01*
X008522Y005301D01*
X008545Y005257D01*
X008564Y005211D01*
X008580Y005163D01*
X008592Y005114D01*
X008600Y005065D01*
X008604Y005015D01*
X008604Y004965D01*
X008600Y004915D01*
X008592Y004866D01*
X008580Y004817D01*
X008564Y004769D01*
X008545Y004723D01*
X008522Y004679D01*
X008495Y004636D01*
X008465Y004596D01*
X008433Y004558D01*
X008397Y004523D01*
X008358Y004491D01*
X008317Y004462D01*
X008274Y004436D01*
X008229Y004414D01*
X008183Y004396D01*
X008135Y004381D01*
X008086Y004370D01*
X008037Y004363D01*
X007987Y004360D01*
X007936Y004361D01*
X007887Y004366D01*
X007837Y004375D01*
X007789Y004388D01*
X007742Y004404D01*
X007696Y004425D01*
X007652Y004449D01*
X007610Y004476D01*
X007570Y004506D01*
X007533Y004540D01*
X007499Y004577D01*
X007467Y004616D01*
X007439Y004657D01*
X007414Y004701D01*
X007393Y004746D01*
X007376Y004793D01*
X007362Y004841D01*
X007352Y004890D01*
X007346Y004940D01*
X007344Y004990D01*
X006399Y004990D02*
X006401Y004913D01*
X006407Y004836D01*
X006416Y004759D01*
X006429Y004683D01*
X006446Y004607D01*
X006467Y004533D01*
X006491Y004459D01*
X006519Y004387D01*
X006550Y004317D01*
X006585Y004248D01*
X006623Y004180D01*
X006664Y004115D01*
X006709Y004052D01*
X006757Y003991D01*
X006807Y003932D01*
X006860Y003876D01*
X006916Y003823D01*
X006975Y003773D01*
X007036Y003725D01*
X007099Y003680D01*
X007164Y003639D01*
X007232Y003601D01*
X007301Y003566D01*
X007371Y003535D01*
X007443Y003507D01*
X007517Y003483D01*
X007591Y003462D01*
X007667Y003445D01*
X007743Y003432D01*
X007820Y003423D01*
X007897Y003417D01*
X007974Y003415D01*
X007897Y003417D01*
X007820Y003423D01*
X007743Y003432D01*
X007667Y003445D01*
X007591Y003462D01*
X007517Y003483D01*
X007443Y003507D01*
X007371Y003535D01*
X007301Y003566D01*
X007232Y003601D01*
X007164Y003639D01*
X007099Y003680D01*
X007036Y003725D01*
X006975Y003773D01*
X006916Y003823D01*
X006860Y003876D01*
X006807Y003932D01*
X006757Y003991D01*
X006709Y004052D01*
X006664Y004115D01*
X006623Y004180D01*
X006585Y004248D01*
X006550Y004317D01*
X006519Y004387D01*
X006491Y004459D01*
X006467Y004533D01*
X006446Y004607D01*
X006429Y004683D01*
X006416Y004759D01*
X006407Y004836D01*
X006401Y004913D01*
X006399Y004990D01*
X006399Y026250D01*
X007344Y026250D02*
X007346Y026300D01*
X007352Y026350D01*
X007362Y026399D01*
X007376Y026447D01*
X007393Y026494D01*
X007414Y026539D01*
X007439Y026583D01*
X007467Y026624D01*
X007499Y026663D01*
X007533Y026700D01*
X007570Y026734D01*
X007610Y026764D01*
X007652Y026791D01*
X007696Y026815D01*
X007742Y026836D01*
X007789Y026852D01*
X007837Y026865D01*
X007887Y026874D01*
X007936Y026879D01*
X007987Y026880D01*
X008037Y026877D01*
X008086Y026870D01*
X008135Y026859D01*
X008183Y026844D01*
X008229Y026826D01*
X008274Y026804D01*
X008317Y026778D01*
X008358Y026749D01*
X008397Y026717D01*
X008433Y026682D01*
X008465Y026644D01*
X008495Y026604D01*
X008522Y026561D01*
X008545Y026517D01*
X008564Y026471D01*
X008580Y026423D01*
X008592Y026374D01*
X008600Y026325D01*
X008604Y026275D01*
X008604Y026225D01*
X008600Y026175D01*
X008592Y026126D01*
X008580Y026077D01*
X008564Y026029D01*
X008545Y025983D01*
X008522Y025939D01*
X008495Y025896D01*
X008465Y025856D01*
X008433Y025818D01*
X008397Y025783D01*
X008358Y025751D01*
X008317Y025722D01*
X008274Y025696D01*
X008229Y025674D01*
X008183Y025656D01*
X008135Y025641D01*
X008086Y025630D01*
X008037Y025623D01*
X007987Y025620D01*
X007936Y025621D01*
X007887Y025626D01*
X007837Y025635D01*
X007789Y025648D01*
X007742Y025664D01*
X007696Y025685D01*
X007652Y025709D01*
X007610Y025736D01*
X007570Y025766D01*
X007533Y025800D01*
X007499Y025837D01*
X007467Y025876D01*
X007439Y025917D01*
X007414Y025961D01*
X007393Y026006D01*
X007376Y026053D01*
X007362Y026101D01*
X007352Y026150D01*
X007346Y026200D01*
X007344Y026250D01*
X006399Y026250D02*
X006401Y026327D01*
X006407Y026404D01*
X006416Y026481D01*
X006429Y026557D01*
X006446Y026633D01*
X006467Y026707D01*
X006491Y026781D01*
X006519Y026853D01*
X006550Y026923D01*
X006585Y026992D01*
X006623Y027060D01*
X006664Y027125D01*
X006709Y027188D01*
X006757Y027249D01*
X006807Y027308D01*
X006860Y027364D01*
X006916Y027417D01*
X006975Y027467D01*
X007036Y027515D01*
X007099Y027560D01*
X007164Y027601D01*
X007232Y027639D01*
X007301Y027674D01*
X007371Y027705D01*
X007443Y027733D01*
X007517Y027757D01*
X007591Y027778D01*
X007667Y027795D01*
X007743Y027808D01*
X007820Y027817D01*
X007897Y027823D01*
X007974Y027825D01*
X044194Y027825D01*
X043564Y026250D02*
X043566Y026300D01*
X043572Y026350D01*
X043582Y026399D01*
X043596Y026447D01*
X043613Y026494D01*
X043634Y026539D01*
X043659Y026583D01*
X043687Y026624D01*
X043719Y026663D01*
X043753Y026700D01*
X043790Y026734D01*
X043830Y026764D01*
X043872Y026791D01*
X043916Y026815D01*
X043962Y026836D01*
X044009Y026852D01*
X044057Y026865D01*
X044107Y026874D01*
X044156Y026879D01*
X044207Y026880D01*
X044257Y026877D01*
X044306Y026870D01*
X044355Y026859D01*
X044403Y026844D01*
X044449Y026826D01*
X044494Y026804D01*
X044537Y026778D01*
X044578Y026749D01*
X044617Y026717D01*
X044653Y026682D01*
X044685Y026644D01*
X044715Y026604D01*
X044742Y026561D01*
X044765Y026517D01*
X044784Y026471D01*
X044800Y026423D01*
X044812Y026374D01*
X044820Y026325D01*
X044824Y026275D01*
X044824Y026225D01*
X044820Y026175D01*
X044812Y026126D01*
X044800Y026077D01*
X044784Y026029D01*
X044765Y025983D01*
X044742Y025939D01*
X044715Y025896D01*
X044685Y025856D01*
X044653Y025818D01*
X044617Y025783D01*
X044578Y025751D01*
X044537Y025722D01*
X044494Y025696D01*
X044449Y025674D01*
X044403Y025656D01*
X044355Y025641D01*
X044306Y025630D01*
X044257Y025623D01*
X044207Y025620D01*
X044156Y025621D01*
X044107Y025626D01*
X044057Y025635D01*
X044009Y025648D01*
X043962Y025664D01*
X043916Y025685D01*
X043872Y025709D01*
X043830Y025736D01*
X043790Y025766D01*
X043753Y025800D01*
X043719Y025837D01*
X043687Y025876D01*
X043659Y025917D01*
X043634Y025961D01*
X043613Y026006D01*
X043596Y026053D01*
X043582Y026101D01*
X043572Y026150D01*
X043566Y026200D01*
X043564Y026250D01*
X044194Y027825D02*
X044271Y027823D01*
X044348Y027817D01*
X044425Y027808D01*
X044501Y027795D01*
X044577Y027778D01*
X044651Y027757D01*
X044725Y027733D01*
X044797Y027705D01*
X044867Y027674D01*
X044936Y027639D01*
X045004Y027601D01*
X045069Y027560D01*
X045132Y027515D01*
X045193Y027467D01*
X045252Y027417D01*
X045308Y027364D01*
X045361Y027308D01*
X045411Y027249D01*
X045459Y027188D01*
X045504Y027125D01*
X045545Y027060D01*
X045583Y026992D01*
X045618Y026923D01*
X045649Y026853D01*
X045677Y026781D01*
X045701Y026707D01*
X045722Y026633D01*
X045739Y026557D01*
X045752Y026481D01*
X045761Y026404D01*
X045767Y026327D01*
X045769Y026250D01*
X045769Y004990D01*
X043564Y004990D02*
X043566Y005040D01*
X043572Y005090D01*
X043582Y005139D01*
X043596Y005187D01*
X043613Y005234D01*
X043634Y005279D01*
X043659Y005323D01*
X043687Y005364D01*
X043719Y005403D01*
X043753Y005440D01*
X043790Y005474D01*
X043830Y005504D01*
X043872Y005531D01*
X043916Y005555D01*
X043962Y005576D01*
X044009Y005592D01*
X044057Y005605D01*
X044107Y005614D01*
X044156Y005619D01*
X044207Y005620D01*
X044257Y005617D01*
X044306Y005610D01*
X044355Y005599D01*
X044403Y005584D01*
X044449Y005566D01*
X044494Y005544D01*
X044537Y005518D01*
X044578Y005489D01*
X044617Y005457D01*
X044653Y005422D01*
X044685Y005384D01*
X044715Y005344D01*
X044742Y005301D01*
X044765Y005257D01*
X044784Y005211D01*
X044800Y005163D01*
X044812Y005114D01*
X044820Y005065D01*
X044824Y005015D01*
X044824Y004965D01*
X044820Y004915D01*
X044812Y004866D01*
X044800Y004817D01*
X044784Y004769D01*
X044765Y004723D01*
X044742Y004679D01*
X044715Y004636D01*
X044685Y004596D01*
X044653Y004558D01*
X044617Y004523D01*
X044578Y004491D01*
X044537Y004462D01*
X044494Y004436D01*
X044449Y004414D01*
X044403Y004396D01*
X044355Y004381D01*
X044306Y004370D01*
X044257Y004363D01*
X044207Y004360D01*
X044156Y004361D01*
X044107Y004366D01*
X044057Y004375D01*
X044009Y004388D01*
X043962Y004404D01*
X043916Y004425D01*
X043872Y004449D01*
X043830Y004476D01*
X043790Y004506D01*
X043753Y004540D01*
X043719Y004577D01*
X043687Y004616D01*
X043659Y004657D01*
X043634Y004701D01*
X043613Y004746D01*
X043596Y004793D01*
X043582Y004841D01*
X043572Y004890D01*
X043566Y004940D01*
X043564Y004990D01*
X044194Y003415D02*
X044271Y003417D01*
X044348Y003423D01*
X044425Y003432D01*
X044501Y003445D01*
X044577Y003462D01*
X044651Y003483D01*
X044725Y003507D01*
X044797Y003535D01*
X044867Y003566D01*
X044936Y003601D01*
X045004Y003639D01*
X045069Y003680D01*
X045132Y003725D01*
X045193Y003773D01*
X045252Y003823D01*
X045308Y003876D01*
X045361Y003932D01*
X045411Y003991D01*
X045459Y004052D01*
X045504Y004115D01*
X045545Y004180D01*
X045583Y004248D01*
X045618Y004317D01*
X045649Y004387D01*
X045677Y004459D01*
X045701Y004533D01*
X045722Y004607D01*
X045739Y004683D01*
X045752Y004759D01*
X045761Y004836D01*
X045767Y004913D01*
X045769Y004990D01*
X045767Y004913D01*
X045761Y004836D01*
X045752Y004759D01*
X045739Y004683D01*
X045722Y004607D01*
X045701Y004533D01*
X045677Y004459D01*
X045649Y004387D01*
X045618Y004317D01*
X045583Y004248D01*
X045545Y004180D01*
X045504Y004115D01*
X045459Y004052D01*
X045411Y003991D01*
X045361Y003932D01*
X045308Y003876D01*
X045252Y003823D01*
X045193Y003773D01*
X045132Y003725D01*
X045069Y003680D01*
X045004Y003639D01*
X044936Y003601D01*
X044867Y003566D01*
X044797Y003535D01*
X044725Y003507D01*
X044651Y003483D01*
X044577Y003462D01*
X044501Y003445D01*
X044425Y003432D01*
X044348Y003423D01*
X044271Y003417D01*
X044194Y003415D01*
X044271Y003417D01*
X044348Y003423D01*
X044425Y003432D01*
X044501Y003445D01*
X044577Y003462D01*
X044651Y003483D01*
X044725Y003507D01*
X044797Y003535D01*
X044867Y003566D01*
X044936Y003601D01*
X045004Y003639D01*
X045069Y003680D01*
X045132Y003725D01*
X045193Y003773D01*
X045252Y003823D01*
X045308Y003876D01*
X045361Y003932D01*
X045411Y003991D01*
X045459Y004052D01*
X045504Y004115D01*
X045545Y004180D01*
X045583Y004248D01*
X045618Y004317D01*
X045649Y004387D01*
X045677Y004459D01*
X045701Y004533D01*
X045722Y004607D01*
X045739Y004683D01*
X045752Y004759D01*
X045761Y004836D01*
X045767Y004913D01*
X045769Y004990D01*
X043407Y022038D02*
X043409Y022065D01*
X043415Y022092D01*
X043424Y022118D01*
X043437Y022142D01*
X043453Y022165D01*
X043472Y022184D01*
X043494Y022201D01*
X043518Y022215D01*
X043543Y022225D01*
X043570Y022232D01*
X043597Y022235D01*
X043625Y022234D01*
X043652Y022229D01*
X043678Y022221D01*
X043702Y022209D01*
X043725Y022193D01*
X043746Y022175D01*
X043763Y022154D01*
X043778Y022130D01*
X043789Y022105D01*
X043797Y022079D01*
X043801Y022052D01*
X043801Y022024D01*
X043797Y021997D01*
X043789Y021971D01*
X043778Y021946D01*
X043763Y021922D01*
X043746Y021901D01*
X043725Y021883D01*
X043703Y021867D01*
X043678Y021855D01*
X043652Y021847D01*
X043625Y021842D01*
X043597Y021841D01*
X043570Y021844D01*
X043543Y021851D01*
X043518Y021861D01*
X043494Y021875D01*
X043472Y021892D01*
X043453Y021911D01*
X043437Y021934D01*
X043424Y021958D01*
X043415Y021984D01*
X043409Y022011D01*
X043407Y022038D01*
X043407Y023770D02*
X043409Y023797D01*
X043415Y023824D01*
X043424Y023850D01*
X043437Y023874D01*
X043453Y023897D01*
X043472Y023916D01*
X043494Y023933D01*
X043518Y023947D01*
X043543Y023957D01*
X043570Y023964D01*
X043597Y023967D01*
X043625Y023966D01*
X043652Y023961D01*
X043678Y023953D01*
X043702Y023941D01*
X043725Y023925D01*
X043746Y023907D01*
X043763Y023886D01*
X043778Y023862D01*
X043789Y023837D01*
X043797Y023811D01*
X043801Y023784D01*
X043801Y023756D01*
X043797Y023729D01*
X043789Y023703D01*
X043778Y023678D01*
X043763Y023654D01*
X043746Y023633D01*
X043725Y023615D01*
X043703Y023599D01*
X043678Y023587D01*
X043652Y023579D01*
X043625Y023574D01*
X043597Y023573D01*
X043570Y023576D01*
X043543Y023583D01*
X043518Y023593D01*
X043494Y023607D01*
X043472Y023624D01*
X043453Y023643D01*
X043437Y023666D01*
X043424Y023690D01*
X043415Y023716D01*
X043409Y023743D01*
X043407Y023770D01*
X045769Y026250D02*
X045767Y026327D01*
X045761Y026404D01*
X045752Y026481D01*
X045739Y026557D01*
X045722Y026633D01*
X045701Y026707D01*
X045677Y026781D01*
X045649Y026853D01*
X045618Y026923D01*
X045583Y026992D01*
X045545Y027060D01*
X045504Y027125D01*
X045459Y027188D01*
X045411Y027249D01*
X045361Y027308D01*
X045308Y027364D01*
X045252Y027417D01*
X045193Y027467D01*
X045132Y027515D01*
X045069Y027560D01*
X045004Y027601D01*
X044936Y027639D01*
X044867Y027674D01*
X044797Y027705D01*
X044725Y027733D01*
X044651Y027757D01*
X044577Y027778D01*
X044501Y027795D01*
X044425Y027808D01*
X044348Y027817D01*
X044271Y027823D01*
X044194Y027825D01*
X044271Y027823D01*
X044348Y027817D01*
X044425Y027808D01*
X044501Y027795D01*
X044577Y027778D01*
X044651Y027757D01*
X044725Y027733D01*
X044797Y027705D01*
X044867Y027674D01*
X044936Y027639D01*
X045004Y027601D01*
X045069Y027560D01*
X045132Y027515D01*
X045193Y027467D01*
X045252Y027417D01*
X045308Y027364D01*
X045361Y027308D01*
X045411Y027249D01*
X045459Y027188D01*
X045504Y027125D01*
X045545Y027060D01*
X045583Y026992D01*
X045618Y026923D01*
X045649Y026853D01*
X045677Y026781D01*
X045701Y026707D01*
X045722Y026633D01*
X045739Y026557D01*
X045752Y026481D01*
X045761Y026404D01*
X045767Y026327D01*
X045769Y026250D01*
X007974Y027825D02*
X007897Y027823D01*
X007820Y027817D01*
X007743Y027808D01*
X007667Y027795D01*
X007591Y027778D01*
X007517Y027757D01*
X007443Y027733D01*
X007371Y027705D01*
X007301Y027674D01*
X007232Y027639D01*
X007164Y027601D01*
X007099Y027560D01*
X007036Y027515D01*
X006975Y027467D01*
X006916Y027417D01*
X006860Y027364D01*
X006807Y027308D01*
X006757Y027249D01*
X006709Y027188D01*
X006664Y027125D01*
X006623Y027060D01*
X006585Y026992D01*
X006550Y026923D01*
X006519Y026853D01*
X006491Y026781D01*
X006467Y026707D01*
X006446Y026633D01*
X006429Y026557D01*
X006416Y026481D01*
X006407Y026404D01*
X006401Y026327D01*
X006399Y026250D01*
X006401Y026327D01*
X006407Y026404D01*
X006416Y026481D01*
X006429Y026557D01*
X006446Y026633D01*
X006467Y026707D01*
X006491Y026781D01*
X006519Y026853D01*
X006550Y026923D01*
X006585Y026992D01*
X006623Y027060D01*
X006664Y027125D01*
X006709Y027188D01*
X006757Y027249D01*
X006807Y027308D01*
X006860Y027364D01*
X006916Y027417D01*
X006975Y027467D01*
X007036Y027515D01*
X007099Y027560D01*
X007164Y027601D01*
X007232Y027639D01*
X007301Y027674D01*
X007371Y027705D01*
X007443Y027733D01*
X007517Y027757D01*
X007591Y027778D01*
X007667Y027795D01*
X007743Y027808D01*
X007820Y027817D01*
X007897Y027823D01*
X007974Y027825D01*
X006399Y004990D02*
X006401Y004913D01*
X006407Y004836D01*
X006416Y004759D01*
X006429Y004683D01*
X006446Y004607D01*
X006467Y004533D01*
X006491Y004459D01*
X006519Y004387D01*
X006550Y004317D01*
X006585Y004248D01*
X006623Y004180D01*
X006664Y004115D01*
X006709Y004052D01*
X006757Y003991D01*
X006807Y003932D01*
X006860Y003876D01*
X006916Y003823D01*
X006975Y003773D01*
X007036Y003725D01*
X007099Y003680D01*
X007164Y003639D01*
X007232Y003601D01*
X007301Y003566D01*
X007371Y003535D01*
X007443Y003507D01*
X007517Y003483D01*
X007591Y003462D01*
X007667Y003445D01*
X007743Y003432D01*
X007820Y003423D01*
X007897Y003417D01*
X007974Y003415D01*
D15*
X029372Y016565D03*
X029883Y016565D03*
X029883Y017589D03*
X029372Y017589D03*
M02*
