G75*
G70*
%OFA0B0*%
%FSLAX24Y24*%
%IPPOS*%
%LPD*%
%AMOC8*
5,1,8,0,0,1.08239X$1,22.5*
%
%ADD10C,0.0100*%
%ADD11C,0.0080*%
%ADD12C,0.0050*%
%ADD13C,0.0060*%
%ADD14C,0.0000*%
%ADD15C,0.0070*%
%ADD16R,0.0018X0.0018*%
%ADD17R,0.0035X0.0018*%
%ADD18R,0.0124X0.0018*%
%ADD19R,0.0089X0.0018*%
%ADD20R,0.0053X0.0018*%
%ADD21R,0.0071X0.0018*%
%ADD22R,0.0106X0.0018*%
%ADD23R,0.0142X0.0018*%
%ADD24R,0.0159X0.0018*%
%ADD25R,0.0301X0.0018*%
%ADD26R,0.0266X0.0018*%
%ADD27R,0.0230X0.0018*%
%ADD28R,0.0177X0.0018*%
%ADD29R,0.0195X0.0018*%
%ADD30R,0.0213X0.0018*%
%ADD31R,0.0319X0.0018*%
%ADD32R,0.0283X0.0018*%
%ADD33R,0.0337X0.0018*%
%ADD34R,0.0248X0.0018*%
%ADD35R,0.0354X0.0018*%
%ADD36R,0.0407X0.0018*%
%ADD37R,0.0461X0.0018*%
%ADD38R,0.0531X0.0018*%
%ADD39R,0.0602X0.0018*%
%ADD40R,0.0673X0.0018*%
%ADD41R,0.0762X0.0018*%
%ADD42R,0.0815X0.0018*%
%ADD43R,0.0886X0.0018*%
%ADD44R,0.0868X0.0018*%
%ADD45R,0.0478X0.0018*%
%ADD46R,0.0443X0.0018*%
%ADD47R,0.0567X0.0018*%
%ADD48R,0.0585X0.0018*%
%ADD49R,0.0425X0.0018*%
%ADD50R,0.0372X0.0018*%
%ADD51R,0.0390X0.0018*%
%ADD52R,0.0620X0.0018*%
%ADD53R,0.0638X0.0018*%
D10*
X007752Y007012D02*
X007752Y007385D01*
X007752Y007619D02*
X008312Y007619D01*
X008126Y007806D01*
X008312Y007993D01*
X007752Y007993D01*
X007845Y008227D02*
X007752Y008321D01*
X007752Y008507D01*
X007845Y008601D01*
X008032Y008601D01*
X008032Y008414D01*
X008219Y008227D02*
X007845Y008227D01*
X008219Y008227D02*
X008312Y008321D01*
X008312Y008507D01*
X008219Y008601D01*
X008742Y008726D02*
X008835Y008632D01*
X009022Y008632D01*
X009116Y008726D01*
X009116Y008913D01*
X009022Y009006D01*
X008929Y009006D01*
X008929Y008632D01*
X008742Y008726D02*
X008742Y008913D01*
X009116Y009240D02*
X009116Y009427D01*
X009209Y009333D02*
X008835Y009333D01*
X008742Y009427D01*
X008835Y009645D02*
X008742Y009739D01*
X008742Y009925D01*
X008835Y010019D01*
X009022Y010019D01*
X009116Y009925D01*
X009116Y009739D01*
X009022Y009645D01*
X008835Y009645D01*
X008835Y010253D02*
X008742Y010346D01*
X008742Y010533D01*
X008835Y010627D01*
X009022Y010627D01*
X009116Y010533D01*
X009116Y010346D01*
X009022Y010253D01*
X008835Y010253D01*
X009116Y010861D02*
X009116Y011047D01*
X009209Y010954D02*
X008835Y010954D01*
X008742Y011047D01*
X008742Y011266D02*
X009302Y011266D01*
X009116Y011359D02*
X009116Y011546D01*
X009022Y011639D01*
X008742Y011639D01*
X009022Y011266D02*
X009116Y011359D01*
X008126Y011445D02*
X008126Y011258D01*
X008032Y011165D01*
X007845Y011165D01*
X007752Y011258D01*
X007752Y011445D01*
X007845Y011538D01*
X008032Y011538D01*
X008126Y011445D01*
X008126Y011772D02*
X007752Y011772D01*
X007939Y011772D02*
X008126Y011959D01*
X008126Y012052D01*
X008032Y012279D02*
X008126Y012372D01*
X008126Y012652D01*
X008312Y012652D02*
X007752Y012652D01*
X007752Y012372D01*
X007845Y012279D01*
X008032Y012279D01*
X008032Y012886D02*
X008126Y012980D01*
X008126Y013167D01*
X008032Y013260D01*
X007939Y013260D01*
X007939Y012886D01*
X008032Y012886D02*
X007845Y012886D01*
X007752Y012980D01*
X007752Y013167D01*
X007752Y013494D02*
X008126Y013494D01*
X007939Y013494D02*
X008126Y013681D01*
X008126Y013774D01*
X008742Y013790D02*
X008835Y013883D01*
X008742Y013977D01*
X008835Y014070D01*
X009116Y014070D01*
X009116Y013697D02*
X008835Y013697D01*
X008742Y013790D01*
X008835Y013463D02*
X009022Y013463D01*
X009116Y013369D01*
X009116Y013182D01*
X009022Y013089D01*
X008835Y013089D01*
X008742Y013182D01*
X008742Y013369D01*
X008835Y013463D01*
X008742Y012855D02*
X008742Y012481D01*
X009302Y012481D01*
X008126Y010930D02*
X008126Y010650D01*
X008032Y010557D01*
X007845Y010557D01*
X007752Y010650D01*
X007752Y010930D01*
X007939Y010323D02*
X007939Y009949D01*
X008032Y009949D02*
X008126Y010042D01*
X008126Y010229D01*
X008032Y010323D01*
X007939Y010323D01*
X007752Y010229D02*
X007752Y010042D01*
X007845Y009949D01*
X008032Y009949D01*
X008126Y009723D02*
X008126Y009629D01*
X007939Y009443D01*
X007752Y009443D02*
X008126Y009443D01*
X008742Y008398D02*
X009116Y008398D01*
X008742Y008398D02*
X008742Y008118D01*
X008835Y008025D01*
X009116Y008025D01*
X009302Y007713D02*
X008742Y007713D01*
X008742Y007806D02*
X008742Y007619D01*
X008835Y007385D02*
X008742Y007292D01*
X008742Y007012D01*
X009302Y007012D01*
X009302Y007292D01*
X009209Y007385D01*
X009116Y007385D01*
X009022Y007292D01*
X009022Y007012D01*
X009022Y007292D02*
X008929Y007385D01*
X008835Y007385D01*
X008312Y007385D02*
X008312Y007012D01*
X007752Y007012D01*
X008032Y007012D02*
X008032Y007199D01*
X009302Y007619D02*
X009302Y007713D01*
X013486Y007156D02*
X013486Y008731D01*
X015061Y008731D01*
X015061Y007943D01*
X018210Y007943D01*
X018210Y007156D01*
X019785Y007156D01*
X019785Y007943D01*
X022935Y007943D01*
X022935Y007156D01*
X021360Y007156D01*
X021360Y008731D01*
X019785Y008731D01*
X019785Y007943D01*
X019785Y007156D02*
X021360Y007156D01*
X022935Y007943D02*
X022935Y008731D01*
X021360Y008731D01*
X021360Y009715D02*
X019785Y009715D01*
X019785Y010502D01*
X021360Y010502D01*
X021360Y009715D01*
X022935Y009715D01*
X022935Y010502D01*
X021360Y010502D01*
X021360Y011290D01*
X022935Y011290D01*
X022935Y010502D01*
X021360Y011290D02*
X019785Y011290D01*
X019785Y010502D01*
X019785Y011290D02*
X018210Y011290D01*
X018210Y010502D01*
X018210Y009715D01*
X016635Y009715D01*
X016635Y011290D01*
X018210Y011290D01*
X018210Y010502D02*
X015061Y010502D01*
X015061Y009715D01*
X013486Y009715D01*
X013486Y011290D01*
X015061Y011290D01*
X015061Y010502D01*
X015061Y011290D02*
X016635Y011290D01*
X016635Y012274D02*
X015061Y012274D01*
X015061Y013061D01*
X018210Y013061D01*
X018210Y012274D02*
X018210Y013849D01*
X019785Y013849D01*
X019785Y013061D01*
X022935Y013061D01*
X022935Y012274D01*
X021360Y012274D01*
X021360Y013849D01*
X022935Y013849D01*
X022935Y013061D01*
X021360Y012274D02*
X019785Y012274D01*
X019785Y013061D01*
X019785Y013849D02*
X021360Y013849D01*
X021360Y014833D02*
X019785Y014833D01*
X019785Y015620D01*
X022935Y015620D01*
X022935Y014833D01*
X021360Y014833D01*
X021360Y016408D01*
X022935Y016408D01*
X022935Y015620D01*
X021360Y016408D02*
X019785Y016408D01*
X019785Y015620D01*
X019785Y014833D02*
X018210Y014833D01*
X018210Y016408D01*
X019785Y016408D01*
X019785Y017392D02*
X018210Y017392D01*
X018210Y018179D01*
X015061Y018179D01*
X015061Y018967D01*
X016635Y018967D01*
X016635Y017392D01*
X015061Y017392D01*
X015061Y018179D01*
X015061Y017392D02*
X013486Y017392D01*
X013486Y018967D01*
X015061Y018967D01*
X015061Y019951D02*
X013486Y019951D01*
X013486Y021526D01*
X015061Y021526D01*
X015061Y020738D01*
X018210Y020738D01*
X018210Y019951D01*
X016635Y019951D01*
X016635Y021526D01*
X018210Y021526D01*
X018210Y020738D01*
X018210Y021526D02*
X019785Y021526D01*
X019785Y020738D01*
X022935Y020738D01*
X022935Y019951D01*
X021360Y019951D01*
X021360Y021526D01*
X022935Y021526D01*
X022935Y020738D01*
X021360Y019951D02*
X019785Y019951D01*
X019785Y020738D01*
X019785Y021526D02*
X021360Y021526D01*
X021360Y022510D02*
X019785Y022510D01*
X019785Y023298D01*
X022935Y023298D01*
X022935Y024085D01*
X021360Y024085D01*
X021360Y022510D01*
X022935Y022510D01*
X022935Y023298D01*
X021360Y024085D02*
X019785Y024085D01*
X018210Y024085D01*
X018210Y023298D01*
X015061Y023298D01*
X015061Y022510D01*
X013486Y022510D01*
X013486Y024085D01*
X015061Y024085D01*
X015061Y023298D01*
X015061Y024085D02*
X016635Y024085D01*
X016635Y022510D01*
X015061Y022510D01*
X015061Y021526D02*
X016635Y021526D01*
X016635Y022510D02*
X018210Y022510D01*
X019785Y022510D01*
X019785Y023298D02*
X019785Y024085D01*
X018210Y024085D02*
X016635Y024085D01*
X018210Y023298D02*
X018210Y022510D01*
X015061Y020738D02*
X015061Y019951D01*
X016635Y019951D01*
X016635Y018967D02*
X018210Y018967D01*
X018210Y018179D01*
X018210Y017392D02*
X016635Y017392D01*
X016635Y016408D02*
X015061Y016408D01*
X015061Y015620D01*
X018210Y015620D01*
X018210Y014833D02*
X016635Y014833D01*
X016635Y016408D01*
X018210Y016408D01*
X019785Y017392D02*
X019785Y018179D01*
X022935Y018179D01*
X022935Y017392D01*
X021360Y017392D01*
X021360Y018967D01*
X022935Y018967D01*
X022935Y018179D01*
X021360Y017392D02*
X019785Y017392D01*
X019785Y018179D02*
X019785Y018967D01*
X021360Y018967D01*
X019785Y018967D02*
X018210Y018967D01*
X018210Y019951D02*
X019785Y019951D01*
X015061Y016408D02*
X013486Y016408D01*
X013486Y014833D01*
X015061Y014833D01*
X015061Y015620D01*
X015061Y014833D02*
X016635Y014833D01*
X016635Y013849D02*
X015061Y013849D01*
X015061Y013061D01*
X015061Y013849D02*
X013486Y013849D01*
X013486Y012274D01*
X015061Y012274D01*
X016635Y012274D02*
X016635Y013849D01*
X018210Y013849D01*
X018210Y012274D02*
X016635Y012274D01*
X018210Y012274D02*
X019785Y012274D01*
X019785Y009715D02*
X018210Y009715D01*
X018210Y008731D02*
X016635Y008731D01*
X016635Y007156D01*
X015061Y007156D01*
X015061Y007943D01*
X015061Y007156D02*
X013486Y007156D01*
X013486Y006172D02*
X015061Y006172D01*
X015061Y005384D01*
X018210Y005384D01*
X018210Y004597D01*
X019785Y004597D01*
X019785Y005384D01*
X022935Y005384D01*
X022935Y004597D01*
X021360Y004597D01*
X021360Y006172D01*
X019785Y006172D01*
X019785Y005384D01*
X019785Y006172D02*
X018210Y006172D01*
X018210Y005384D01*
X018210Y006172D02*
X016635Y006172D01*
X016635Y004597D01*
X015061Y004597D01*
X015061Y005384D01*
X015061Y006172D02*
X016635Y006172D01*
X016635Y007156D02*
X018210Y007156D01*
X018210Y007943D02*
X018210Y008731D01*
X019785Y008731D01*
X016635Y008731D02*
X015061Y008731D01*
X015061Y009715D02*
X016635Y009715D01*
X013486Y006172D02*
X013486Y004597D01*
X015061Y004597D01*
X016635Y004597D02*
X018210Y004597D01*
X019785Y004597D02*
X021360Y004597D01*
X022935Y005384D02*
X022935Y006172D01*
X021360Y006172D01*
X009302Y014912D02*
X008742Y014912D01*
X008742Y015286D01*
X008742Y015520D02*
X009116Y015520D01*
X009116Y015800D01*
X009022Y015893D01*
X008742Y015893D01*
X008835Y016128D02*
X009022Y016128D01*
X009116Y016221D01*
X009116Y016408D01*
X009022Y016501D01*
X008929Y016501D01*
X008929Y016128D01*
X008835Y016128D02*
X008742Y016221D01*
X008742Y016408D01*
X008742Y016735D02*
X009116Y016735D01*
X009116Y016922D02*
X009116Y017015D01*
X009116Y016922D02*
X008929Y016735D01*
X009022Y017242D02*
X008835Y017242D01*
X008742Y017335D01*
X008742Y017615D01*
X008649Y017615D02*
X009116Y017615D01*
X009116Y017335D01*
X009022Y017242D01*
X008555Y017429D02*
X008555Y017522D01*
X008649Y017615D01*
X008835Y017849D02*
X008742Y017943D01*
X008742Y018223D01*
X008649Y018223D02*
X009116Y018223D01*
X008649Y018223D02*
X008555Y018130D01*
X008555Y018036D01*
X008835Y017849D02*
X009116Y017849D01*
X009022Y019065D02*
X008835Y019065D01*
X008742Y019158D01*
X008742Y019438D01*
X008835Y019673D02*
X008742Y019766D01*
X008742Y019953D01*
X008835Y020046D01*
X009022Y020046D01*
X009116Y019953D01*
X009116Y019766D01*
X009022Y019673D01*
X008835Y019673D01*
X009116Y019438D02*
X009116Y019158D01*
X009022Y019065D01*
X009116Y020280D02*
X009116Y020561D01*
X009022Y020654D01*
X008742Y020654D01*
X008742Y020888D02*
X009116Y020888D01*
X009116Y021168D01*
X009022Y021262D01*
X008742Y021262D01*
X008835Y021496D02*
X009022Y021496D01*
X009116Y021589D01*
X009116Y021776D01*
X009022Y021869D01*
X008929Y021869D01*
X008929Y021496D01*
X008835Y021496D02*
X008742Y021589D01*
X008742Y021776D01*
X008835Y022103D02*
X008742Y022197D01*
X008742Y022477D01*
X008835Y022805D02*
X008742Y022898D01*
X008835Y022805D02*
X009209Y022805D01*
X009116Y022898D02*
X009116Y022711D01*
X009116Y022477D02*
X009116Y022197D01*
X009022Y022103D01*
X008835Y022103D01*
X008835Y023116D02*
X009022Y023116D01*
X009116Y023210D01*
X009116Y023397D01*
X009022Y023490D01*
X008929Y023490D01*
X008929Y023116D01*
X008835Y023116D02*
X008742Y023210D01*
X008742Y023397D01*
X008835Y023724D02*
X009022Y023724D01*
X009116Y023817D01*
X009116Y024098D01*
X009302Y024098D02*
X008742Y024098D01*
X008742Y023817D01*
X008835Y023724D01*
X013486Y025069D02*
X013486Y026644D01*
X015061Y026644D01*
X015061Y025857D01*
X018210Y025857D01*
X018210Y025069D01*
X016635Y025069D01*
X016635Y026644D01*
X018210Y026644D01*
X018210Y025857D01*
X016635Y026644D02*
X015061Y026644D01*
X015061Y025857D02*
X015061Y025069D01*
X016635Y025069D01*
X015061Y025069D02*
X013486Y025069D01*
X009116Y020280D02*
X008742Y020280D01*
X009302Y015286D02*
X009302Y014912D01*
X009022Y014912D02*
X009022Y015099D01*
X032187Y017786D02*
X032187Y018573D01*
X033761Y018573D01*
X033761Y017786D01*
X032187Y017786D01*
X032187Y018770D02*
X032187Y019557D01*
X033761Y019557D01*
X033761Y018770D01*
X032187Y018770D01*
X032187Y019754D02*
X032187Y020542D01*
X033761Y020542D01*
X033761Y019754D01*
X032187Y019754D01*
X032187Y020738D02*
X032187Y021526D01*
X033761Y021526D01*
X033761Y020738D01*
X032187Y020738D01*
X034352Y022904D02*
X034352Y024479D01*
X035139Y024479D01*
X035139Y022904D01*
X034352Y022904D01*
X035730Y023101D02*
X035730Y024282D01*
X036517Y024282D01*
X036517Y023101D01*
X035730Y023101D01*
X037108Y022904D02*
X037108Y024479D01*
X037895Y024479D01*
X037895Y022904D01*
X037108Y022904D01*
X038486Y022904D02*
X038486Y024479D01*
X039273Y024479D01*
X039273Y022904D01*
X038486Y022904D01*
X039470Y023101D02*
X039470Y024282D01*
X040651Y024282D01*
X040651Y023101D01*
X039470Y023101D01*
X040848Y022904D02*
X040848Y024479D01*
X041635Y024479D01*
X041635Y022904D01*
X040848Y022904D01*
X040651Y025069D02*
X040651Y025857D01*
X042226Y025857D01*
X042226Y025069D01*
X040651Y025069D01*
X040454Y025069D02*
X038880Y025069D01*
X038880Y025857D01*
X040454Y025857D01*
X040454Y025069D01*
X040651Y026053D02*
X040651Y026841D01*
X042226Y026841D01*
X042226Y026053D01*
X040651Y026053D01*
X039470Y026053D02*
X039470Y026841D01*
X038289Y026841D01*
X038289Y026053D01*
X039470Y026053D01*
X037305Y025660D02*
X036124Y025660D01*
X036124Y026841D01*
X037305Y026841D01*
X037305Y025660D01*
X035730Y025660D02*
X035730Y026841D01*
X034549Y026841D01*
X034549Y025660D01*
X035730Y025660D01*
D11*
X038060Y016501D02*
X038060Y016221D01*
X038060Y016361D02*
X038481Y016361D01*
X038341Y016221D01*
X038411Y016041D02*
X038130Y015760D01*
X038060Y015830D01*
X038060Y015971D01*
X038130Y016041D01*
X038411Y016041D01*
X038481Y015971D01*
X038481Y015830D01*
X038411Y015760D01*
X038130Y015760D01*
X038130Y015580D02*
X038060Y015510D01*
X038060Y015370D01*
X038130Y015300D01*
X038411Y015580D01*
X038130Y015580D01*
X038130Y015300D02*
X038411Y015300D01*
X038481Y015370D01*
X038481Y015510D01*
X038411Y015580D01*
X037731Y015607D02*
X037731Y015677D01*
X037310Y015677D01*
X037310Y015607D02*
X037310Y015747D01*
X037380Y015914D02*
X037520Y015914D01*
X037591Y015984D01*
X037591Y016124D01*
X037520Y016194D01*
X037450Y016194D01*
X037450Y015914D01*
X037380Y015914D02*
X037310Y015984D01*
X037310Y016124D01*
X037310Y015427D02*
X037591Y015427D01*
X037591Y015147D02*
X037380Y015147D01*
X037310Y015217D01*
X037310Y015427D01*
X037310Y014966D02*
X037310Y014756D01*
X037380Y014686D01*
X037520Y014686D01*
X037591Y014756D01*
X037591Y014966D01*
X037731Y014966D02*
X037310Y014966D01*
X038060Y014910D02*
X038130Y014840D01*
X038200Y014840D01*
X038270Y014910D01*
X038270Y015050D01*
X038200Y015120D01*
X038130Y015120D01*
X038060Y015050D01*
X038060Y014910D01*
X038270Y014910D02*
X038341Y014840D01*
X038411Y014840D01*
X038481Y014910D01*
X038481Y015050D01*
X038411Y015120D01*
X038341Y015120D01*
X038270Y015050D01*
X038481Y014659D02*
X038481Y014379D01*
X038060Y014379D01*
X038060Y014199D02*
X038200Y014059D01*
X038200Y014129D02*
X038200Y013919D01*
X038060Y013919D02*
X038481Y013919D01*
X038481Y014129D01*
X038411Y014199D01*
X038270Y014199D01*
X038200Y014129D01*
X038270Y014379D02*
X038270Y014519D01*
X037591Y014436D02*
X037591Y014296D01*
X037520Y014226D01*
X037380Y014226D01*
X037310Y014296D01*
X037310Y014436D01*
X037380Y014506D01*
X037520Y014506D01*
X037591Y014436D01*
X037520Y014046D02*
X037310Y014046D01*
X037310Y013905D02*
X037520Y013905D01*
X037591Y013976D01*
X037520Y014046D01*
X037520Y013905D02*
X037591Y013835D01*
X037591Y013765D01*
X037310Y013765D01*
X038060Y013739D02*
X038270Y013739D01*
X038341Y013669D01*
X038341Y013458D01*
X038060Y013458D01*
X036317Y005708D02*
X036397Y005628D01*
X036397Y005227D01*
X036477Y005467D02*
X036317Y005467D01*
X036134Y005467D02*
X036053Y005548D01*
X035893Y005548D01*
X035813Y005467D01*
X035813Y005387D01*
X036134Y005387D01*
X036134Y005307D02*
X036134Y005467D01*
X036134Y005307D02*
X036053Y005227D01*
X035893Y005227D01*
X035618Y005227D02*
X035618Y005548D01*
X035458Y005548D02*
X035378Y005548D01*
X035458Y005548D02*
X035618Y005387D01*
X035188Y005307D02*
X035188Y005467D01*
X035108Y005548D01*
X034868Y005548D01*
X034868Y005708D02*
X034868Y005227D01*
X035108Y005227D01*
X035188Y005307D01*
X034673Y005227D02*
X034512Y005227D01*
X034593Y005227D02*
X034593Y005548D01*
X034673Y005548D01*
X034593Y005708D02*
X034593Y005788D01*
X034329Y005548D02*
X034089Y005548D01*
X034009Y005467D01*
X034009Y005227D01*
X033813Y005307D02*
X033733Y005227D01*
X033493Y005227D01*
X033493Y005467D01*
X033573Y005548D01*
X033733Y005548D01*
X033733Y005387D02*
X033493Y005387D01*
X033733Y005387D02*
X033813Y005307D01*
X033298Y005227D02*
X033298Y005548D01*
X033057Y005548D01*
X032977Y005467D01*
X032977Y005227D01*
X032782Y005307D02*
X032702Y005227D01*
X032462Y005227D01*
X032462Y005708D01*
X032462Y005548D02*
X032702Y005548D01*
X032782Y005467D01*
X032782Y005307D01*
X032266Y005307D02*
X032266Y005227D01*
X032186Y005227D01*
X032186Y005307D01*
X032266Y005307D01*
X032008Y005227D02*
X032008Y005708D01*
X031768Y005548D02*
X032008Y005387D01*
X031768Y005227D01*
X031579Y005307D02*
X031579Y005467D01*
X031499Y005548D01*
X031339Y005548D01*
X031258Y005467D01*
X031258Y005387D01*
X031579Y005387D01*
X031579Y005307D02*
X031499Y005227D01*
X031339Y005227D01*
X031063Y005227D02*
X030903Y005227D01*
X030983Y005227D02*
X030983Y005548D01*
X031063Y005548D01*
X030983Y005708D02*
X030983Y005788D01*
X030719Y005708D02*
X030639Y005708D01*
X030639Y005227D01*
X030719Y005227D02*
X030559Y005227D01*
X030376Y005307D02*
X030296Y005227D01*
X030135Y005227D01*
X030055Y005307D01*
X030135Y005387D02*
X030055Y005467D01*
X030055Y005628D01*
X030135Y005708D01*
X030296Y005708D01*
X030376Y005628D01*
X030376Y005307D01*
X030296Y005387D02*
X030296Y005548D01*
X030135Y005548D01*
X030135Y005387D01*
X030296Y005387D01*
X029860Y005307D02*
X029780Y005227D01*
X029540Y005227D01*
X029540Y005147D02*
X029540Y005548D01*
X029780Y005548D01*
X029860Y005467D01*
X029860Y005307D01*
X029700Y005067D02*
X029620Y005067D01*
X029540Y005147D01*
X029344Y005227D02*
X029344Y005548D01*
X029264Y005548D01*
X029184Y005467D01*
X029104Y005548D01*
X029024Y005467D01*
X029024Y005227D01*
X029184Y005227D02*
X029184Y005467D01*
X028829Y005307D02*
X028749Y005227D01*
X028508Y005227D01*
X028508Y005467D01*
X028588Y005548D01*
X028749Y005548D01*
X028749Y005387D02*
X028508Y005387D01*
X028749Y005387D02*
X028829Y005307D01*
X028313Y005227D02*
X028153Y005227D01*
X028233Y005227D02*
X028233Y005548D01*
X028313Y005548D01*
X028233Y005708D02*
X028233Y005788D01*
X027969Y005708D02*
X027889Y005708D01*
X027889Y005227D01*
X027969Y005227D02*
X027809Y005227D01*
X027626Y005227D02*
X027545Y005227D01*
X027545Y005307D01*
X027626Y005307D01*
X027626Y005227D01*
X027368Y005307D02*
X027288Y005227D01*
X027047Y005227D01*
X026852Y005307D02*
X026772Y005227D01*
X026612Y005227D01*
X026532Y005307D01*
X026532Y005467D01*
X026612Y005548D01*
X026772Y005548D01*
X026852Y005467D01*
X026852Y005307D01*
X027047Y005548D02*
X027288Y005548D01*
X027368Y005467D01*
X027368Y005307D01*
X026336Y005227D02*
X026336Y005548D01*
X026256Y005548D01*
X026176Y005467D01*
X026096Y005548D01*
X026016Y005467D01*
X026016Y005227D01*
X026176Y005227D02*
X026176Y005467D01*
X025818Y004200D02*
X025818Y003919D01*
X025748Y003849D01*
X025581Y003919D02*
X025511Y003989D01*
X025301Y003989D01*
X025301Y004059D02*
X025301Y003849D01*
X025511Y003849D01*
X025581Y003919D01*
X025511Y004130D02*
X025371Y004130D01*
X025301Y004059D01*
X025121Y004059D02*
X025051Y004130D01*
X024841Y004130D01*
X024841Y004270D02*
X024841Y003849D01*
X025051Y003849D01*
X025121Y003919D01*
X025121Y004059D01*
X024661Y004130D02*
X024520Y004130D01*
X024591Y004200D02*
X024591Y003919D01*
X024520Y003849D01*
X024354Y003849D02*
X024284Y003849D01*
X024284Y003919D01*
X024354Y003919D01*
X024354Y003849D01*
X024123Y003919D02*
X024123Y004059D01*
X024053Y004130D01*
X023843Y004130D01*
X023843Y004270D02*
X023843Y003849D01*
X024053Y003849D01*
X024123Y003919D01*
X023663Y003919D02*
X023663Y004059D01*
X023593Y004130D01*
X023453Y004130D01*
X023383Y004059D01*
X023383Y003989D01*
X023663Y003989D01*
X023663Y003919D02*
X023593Y003849D01*
X023453Y003849D01*
X025748Y004130D02*
X025888Y004130D01*
X026068Y004130D02*
X026279Y004130D01*
X026349Y004059D01*
X026279Y003989D01*
X026139Y003989D01*
X026068Y003919D01*
X026139Y003849D01*
X026349Y003849D01*
X026529Y003849D02*
X026529Y004059D01*
X026599Y004130D01*
X026669Y004059D01*
X026669Y003849D01*
X026809Y003849D02*
X026809Y004130D01*
X026739Y004130D01*
X026669Y004059D01*
X026983Y004130D02*
X027053Y004130D01*
X027193Y003989D01*
X027193Y003849D02*
X027193Y004130D01*
X027373Y004059D02*
X027373Y003849D01*
X027583Y003849D01*
X027653Y003919D01*
X027583Y003989D01*
X027373Y003989D01*
X027373Y004059D02*
X027443Y004130D01*
X027583Y004130D01*
X027833Y004130D02*
X028043Y004130D01*
X028114Y004059D01*
X028114Y003919D01*
X028043Y003849D01*
X027833Y003849D01*
X027833Y004270D01*
X028294Y004059D02*
X028574Y004059D01*
X028754Y004130D02*
X028754Y003849D01*
X028964Y003849D01*
X029034Y003919D01*
X029034Y004130D01*
X029201Y004130D02*
X029341Y004130D01*
X029271Y004200D02*
X029271Y003919D01*
X029201Y003849D01*
X029501Y003849D02*
X029571Y003849D01*
X029571Y003919D01*
X029501Y003919D01*
X029501Y003849D01*
X029752Y003849D02*
X029752Y004059D01*
X029822Y004130D01*
X029892Y004059D01*
X029892Y003849D01*
X030032Y003849D02*
X030032Y004130D01*
X029962Y004130D01*
X029892Y004059D01*
X030212Y004059D02*
X030212Y003919D01*
X030282Y003849D01*
X030422Y003849D01*
X030492Y003919D01*
X030492Y004059D01*
X030422Y004130D01*
X030282Y004130D01*
X030212Y004059D01*
X030666Y004130D02*
X030876Y003989D01*
X030666Y003849D01*
X030876Y003849D02*
X030876Y004270D01*
X031056Y004200D02*
X031056Y004059D01*
X031126Y003989D01*
X031126Y004130D01*
X031266Y004130D01*
X031266Y003989D01*
X031126Y003989D01*
X031056Y003919D02*
X031126Y003849D01*
X031266Y003849D01*
X031336Y003919D01*
X031336Y004200D01*
X031266Y004270D01*
X031126Y004270D01*
X031056Y004200D01*
X031516Y004130D02*
X031516Y003779D01*
X031586Y003709D01*
X031657Y003709D01*
X031727Y003849D02*
X031516Y003849D01*
X031727Y003849D02*
X031797Y003919D01*
X031797Y004130D01*
X031977Y004130D02*
X032187Y004130D01*
X032257Y004059D01*
X032257Y003919D01*
X032187Y003849D01*
X031977Y003849D01*
X031977Y004270D01*
X032431Y004130D02*
X032501Y004130D01*
X032641Y003989D01*
X032641Y003849D02*
X032641Y004130D01*
X032821Y004059D02*
X032821Y003849D01*
X033031Y003849D01*
X033101Y003919D01*
X033031Y003989D01*
X032821Y003989D01*
X032821Y004059D02*
X032891Y004130D01*
X033031Y004130D01*
X033281Y004059D02*
X033281Y003849D01*
X033281Y004059D02*
X033351Y004130D01*
X033491Y004130D01*
X033562Y004059D01*
X033562Y003849D02*
X033562Y004270D01*
X033722Y003919D02*
X033722Y003849D01*
X033792Y003849D01*
X033792Y003919D01*
X033722Y003919D01*
X033972Y003919D02*
X033972Y004059D01*
X034042Y004130D01*
X034182Y004130D01*
X034252Y004059D01*
X034252Y003919D01*
X034182Y003849D01*
X034042Y003849D01*
X033972Y003919D01*
X034426Y004130D02*
X034496Y004130D01*
X034636Y003989D01*
X034636Y003849D02*
X034636Y004130D01*
X034816Y004130D02*
X035026Y004130D01*
X035096Y004059D01*
X035096Y003919D01*
X035026Y003849D01*
X034816Y003849D01*
X034816Y004270D01*
X035276Y004059D02*
X035276Y003849D01*
X035276Y004059D02*
X035346Y004130D01*
X035557Y004130D01*
X035557Y003849D01*
X035737Y003849D02*
X035737Y004059D01*
X035807Y004130D01*
X035947Y004130D01*
X035947Y003989D02*
X035737Y003989D01*
X035737Y003849D02*
X035947Y003849D01*
X036017Y003919D01*
X035947Y003989D01*
X036197Y003919D02*
X036267Y003989D01*
X036407Y003989D01*
X036477Y004059D01*
X036407Y004130D01*
X036197Y004130D01*
X036197Y003919D02*
X036267Y003849D01*
X036477Y003849D01*
X034329Y005227D02*
X034329Y005548D01*
D12*
X035395Y010522D02*
X035592Y010522D01*
X035395Y010522D02*
X035395Y019538D01*
X035395Y019577D02*
X035592Y019577D01*
X036202Y019577D02*
X036596Y019577D01*
X037187Y019577D02*
X037580Y019577D01*
X038191Y019577D02*
X038584Y019577D01*
X039194Y019577D02*
X039588Y019577D01*
X040198Y019577D02*
X048387Y019577D01*
X048387Y019538D02*
X048387Y010522D01*
X040198Y010522D01*
X039588Y010522D02*
X039194Y010522D01*
X038584Y010522D02*
X038191Y010522D01*
X037580Y010522D02*
X037187Y010522D01*
X036596Y010522D02*
X036202Y010522D01*
X033092Y023967D02*
X033092Y025109D01*
X032856Y025109D01*
X032856Y023967D01*
X032108Y026565D02*
X033801Y026565D01*
X033801Y026998D01*
X033840Y026998D01*
X032108Y026998D02*
X032108Y026565D01*
D13*
X034908Y026083D02*
X035135Y026083D01*
X035021Y026083D02*
X035021Y026424D01*
X035135Y026310D01*
X035276Y026367D02*
X035276Y026140D01*
X035333Y026083D01*
X035446Y026083D01*
X035503Y026140D01*
X035503Y026367D01*
X035446Y026424D01*
X035333Y026424D01*
X035276Y026367D01*
X035390Y026197D02*
X035276Y026083D01*
X036483Y026083D02*
X036710Y026083D01*
X036483Y026310D01*
X036483Y026367D01*
X036539Y026424D01*
X036653Y026424D01*
X036710Y026367D01*
X036851Y026367D02*
X036851Y026140D01*
X036908Y026083D01*
X037021Y026083D01*
X037078Y026140D01*
X037078Y026367D01*
X037021Y026424D01*
X036908Y026424D01*
X036851Y026367D01*
X036964Y026197D02*
X036851Y026083D01*
X038648Y026564D02*
X038875Y026337D01*
X038875Y026280D01*
X039016Y026337D02*
X039016Y026621D01*
X038875Y026621D02*
X038648Y026621D01*
X038648Y026564D01*
X039016Y026337D02*
X039073Y026280D01*
X039187Y026280D01*
X039243Y026337D01*
X039243Y026621D01*
X039264Y025636D02*
X039264Y025580D01*
X039491Y025353D01*
X039491Y025296D01*
X039632Y025353D02*
X039689Y025296D01*
X039802Y025296D01*
X039859Y025353D01*
X040001Y025296D02*
X040114Y025409D01*
X040057Y025409D02*
X040227Y025409D01*
X040227Y025296D02*
X040227Y025636D01*
X040057Y025636D01*
X040001Y025580D01*
X040001Y025466D01*
X040057Y025409D01*
X039859Y025580D02*
X039802Y025636D01*
X039689Y025636D01*
X039632Y025580D01*
X039632Y025523D01*
X039689Y025466D01*
X039632Y025409D01*
X039632Y025353D01*
X039689Y025466D02*
X039746Y025466D01*
X039491Y025636D02*
X039264Y025636D01*
X041036Y025636D02*
X041149Y025580D01*
X041263Y025466D01*
X041092Y025466D01*
X041036Y025409D01*
X041036Y025353D01*
X041092Y025296D01*
X041206Y025296D01*
X041263Y025353D01*
X041263Y025466D01*
X041404Y025409D02*
X041404Y025353D01*
X041461Y025296D01*
X041574Y025296D01*
X041631Y025353D01*
X041772Y025296D02*
X041886Y025409D01*
X041829Y025409D02*
X041999Y025409D01*
X041999Y025296D02*
X041999Y025636D01*
X041829Y025636D01*
X041772Y025580D01*
X041772Y025466D01*
X041829Y025409D01*
X041631Y025580D02*
X041574Y025636D01*
X041461Y025636D01*
X041404Y025580D01*
X041404Y025523D01*
X041461Y025466D01*
X041404Y025409D01*
X041461Y025466D02*
X041517Y025466D01*
X041461Y026280D02*
X041461Y026621D01*
X041631Y026450D01*
X041404Y026450D01*
X041263Y026450D02*
X041263Y026621D01*
X041036Y026621D01*
X041092Y026507D02*
X041036Y026450D01*
X041036Y026337D01*
X041092Y026280D01*
X041206Y026280D01*
X041263Y026337D01*
X041263Y026450D02*
X041149Y026507D01*
X041092Y026507D01*
X041772Y026564D02*
X041829Y026621D01*
X041942Y026621D01*
X041999Y026564D01*
X041999Y026337D01*
X041942Y026280D01*
X041829Y026280D01*
X041772Y026337D01*
X041358Y024094D02*
X041302Y024094D01*
X041245Y024037D01*
X041245Y023924D01*
X041302Y023867D01*
X041358Y023867D01*
X041415Y023924D01*
X041415Y024037D01*
X041358Y024094D01*
X041245Y024037D02*
X041188Y024094D01*
X041132Y024094D01*
X041075Y024037D01*
X041075Y023924D01*
X041132Y023867D01*
X041188Y023867D01*
X041245Y023924D01*
X041245Y023726D02*
X041245Y023499D01*
X041415Y023669D01*
X041075Y023669D01*
X041132Y023358D02*
X041075Y023301D01*
X041075Y023187D01*
X041132Y023131D01*
X041358Y023131D01*
X041415Y023187D01*
X041415Y023301D01*
X041358Y023358D01*
X040424Y023581D02*
X040424Y023865D01*
X040197Y023865D02*
X040197Y023581D01*
X040254Y023524D01*
X040368Y023524D01*
X040424Y023581D01*
X040056Y023581D02*
X039999Y023524D01*
X039886Y023524D01*
X039829Y023581D01*
X039829Y023638D01*
X039886Y023695D01*
X040056Y023695D01*
X040056Y023581D01*
X040056Y023695D02*
X039943Y023808D01*
X039829Y023865D01*
X039053Y023867D02*
X039053Y024094D01*
X038996Y024094D01*
X038769Y023867D01*
X038713Y023867D01*
X038713Y023669D02*
X039053Y023669D01*
X038883Y023499D01*
X038883Y023726D01*
X038996Y023358D02*
X039053Y023301D01*
X039053Y023187D01*
X038996Y023131D01*
X038769Y023131D01*
X038713Y023187D01*
X038713Y023301D01*
X038769Y023358D01*
X037675Y023301D02*
X037675Y023187D01*
X037618Y023131D01*
X037391Y023131D01*
X037335Y023187D01*
X037335Y023301D01*
X037391Y023358D01*
X037505Y023499D02*
X037505Y023726D01*
X037505Y023867D02*
X037505Y024037D01*
X037448Y024094D01*
X037391Y024094D01*
X037335Y024037D01*
X037335Y023924D01*
X037391Y023867D01*
X037505Y023867D01*
X037618Y023981D01*
X037675Y024094D01*
X037675Y023669D02*
X037505Y023499D01*
X037618Y023358D02*
X037675Y023301D01*
X037675Y023669D02*
X037335Y023669D01*
X036437Y022874D02*
X036437Y022591D01*
X036380Y022534D01*
X036266Y022534D01*
X036210Y022591D01*
X036210Y022874D01*
X036068Y022817D02*
X036068Y022761D01*
X036012Y022704D01*
X035898Y022704D01*
X035841Y022647D01*
X035841Y022591D01*
X035898Y022534D01*
X036012Y022534D01*
X036068Y022591D01*
X036068Y022647D01*
X036012Y022704D01*
X035898Y022704D02*
X035841Y022761D01*
X035841Y022817D01*
X035898Y022874D01*
X036012Y022874D01*
X036068Y022817D01*
X034919Y023187D02*
X034862Y023131D01*
X034636Y023131D01*
X034579Y023187D01*
X034579Y023301D01*
X034636Y023358D01*
X034636Y023499D02*
X034579Y023556D01*
X034579Y023669D01*
X034636Y023726D01*
X034692Y023726D01*
X034749Y023669D01*
X034749Y023499D01*
X034636Y023499D01*
X034749Y023499D02*
X034862Y023612D01*
X034919Y023726D01*
X034919Y023867D02*
X034919Y024094D01*
X034862Y024094D01*
X034636Y023867D01*
X034579Y023867D01*
X034125Y023668D02*
X033955Y023668D01*
X033898Y023611D01*
X033898Y023554D01*
X033955Y023498D01*
X034125Y023498D01*
X034125Y023328D02*
X034125Y023668D01*
X033955Y023498D02*
X033898Y023441D01*
X033898Y023384D01*
X033955Y023328D01*
X034125Y023328D01*
X033757Y023328D02*
X033757Y023554D01*
X033643Y023668D01*
X033530Y023554D01*
X033530Y023328D01*
X033530Y023498D02*
X033757Y023498D01*
X033388Y023668D02*
X033162Y023668D01*
X033275Y023668D02*
X033275Y023328D01*
X033020Y023384D02*
X033020Y023611D01*
X032963Y023668D01*
X032850Y023668D01*
X032793Y023611D01*
X032652Y023611D02*
X032652Y023384D01*
X032595Y023328D01*
X032482Y023328D01*
X032425Y023384D01*
X032425Y023611D01*
X032482Y023668D01*
X032595Y023668D01*
X032652Y023611D01*
X032793Y023384D02*
X032850Y023328D01*
X032963Y023328D01*
X033020Y023384D01*
X032284Y023328D02*
X032284Y023668D01*
X032057Y023328D01*
X032057Y023668D01*
X034862Y023358D02*
X034919Y023301D01*
X034919Y023187D01*
X033535Y021306D02*
X033364Y021306D01*
X033308Y021249D01*
X033308Y021135D01*
X033364Y021079D01*
X033535Y021079D01*
X033535Y020965D02*
X033535Y021306D01*
X033421Y021079D02*
X033308Y020965D01*
X033166Y021135D02*
X032939Y021135D01*
X032798Y021135D02*
X032628Y021135D01*
X032571Y021079D01*
X032571Y021022D01*
X032628Y020965D01*
X032741Y020965D01*
X032798Y021022D01*
X032798Y021135D01*
X032685Y021249D01*
X032571Y021306D01*
X032996Y021306D02*
X032996Y020965D01*
X033166Y021135D02*
X032996Y021306D01*
X032996Y020321D02*
X033166Y020151D01*
X032939Y020151D01*
X032996Y019981D02*
X032996Y020321D01*
X032798Y020321D02*
X032571Y020321D01*
X032571Y020265D01*
X032798Y020038D01*
X032798Y019981D01*
X033308Y019981D02*
X033421Y020094D01*
X033364Y020094D02*
X033535Y020094D01*
X033535Y019981D02*
X033535Y020321D01*
X033364Y020321D01*
X033308Y020265D01*
X033308Y020151D01*
X033364Y020094D01*
X033364Y019337D02*
X033308Y019280D01*
X033308Y019167D01*
X033364Y019110D01*
X033535Y019110D01*
X033535Y018997D02*
X033535Y019337D01*
X033364Y019337D01*
X033166Y019280D02*
X033110Y019337D01*
X032996Y019337D01*
X032939Y019280D01*
X032939Y019224D01*
X032996Y019167D01*
X032939Y019110D01*
X032939Y019054D01*
X032996Y018997D01*
X033110Y018997D01*
X033166Y019054D01*
X033308Y018997D02*
X033421Y019110D01*
X033053Y019167D02*
X032996Y019167D01*
X032798Y019224D02*
X032741Y019167D01*
X032571Y019167D01*
X032571Y019280D02*
X032628Y019337D01*
X032741Y019337D01*
X032798Y019280D01*
X032798Y019224D01*
X032798Y019054D02*
X032741Y018997D01*
X032628Y018997D01*
X032571Y019054D01*
X032571Y019280D01*
X032628Y018353D02*
X032571Y018296D01*
X032798Y018069D01*
X032741Y018013D01*
X032628Y018013D01*
X032571Y018069D01*
X032571Y018296D01*
X032628Y018353D02*
X032741Y018353D01*
X032798Y018296D01*
X032798Y018069D01*
X032939Y018183D02*
X033166Y018183D01*
X032996Y018353D01*
X032996Y018013D01*
X033308Y018013D02*
X033421Y018126D01*
X033364Y018126D02*
X033535Y018126D01*
X033535Y018013D02*
X033535Y018353D01*
X033364Y018353D01*
X033308Y018296D01*
X033308Y018183D01*
X033364Y018126D01*
X031293Y017699D02*
X031293Y017472D01*
X031236Y017416D01*
X031123Y017416D01*
X031066Y017472D01*
X030925Y017472D02*
X030868Y017416D01*
X030755Y017416D01*
X030698Y017472D01*
X030698Y017529D01*
X030755Y017586D01*
X030925Y017586D01*
X030925Y017472D01*
X030925Y017586D02*
X030811Y017699D01*
X030698Y017756D01*
X030556Y017699D02*
X030556Y017643D01*
X030500Y017586D01*
X030386Y017586D01*
X030330Y017529D01*
X030330Y017472D01*
X030386Y017416D01*
X030500Y017416D01*
X030556Y017472D01*
X030556Y017529D01*
X030500Y017586D01*
X030386Y017586D02*
X030330Y017643D01*
X030330Y017699D01*
X030386Y017756D01*
X030500Y017756D01*
X030556Y017699D01*
X031066Y017699D02*
X031123Y017756D01*
X031236Y017756D01*
X031293Y017699D01*
X030703Y017109D02*
X030703Y016882D01*
X030646Y016825D01*
X030532Y016825D01*
X030476Y016882D01*
X030334Y016882D02*
X030277Y016825D01*
X030164Y016825D01*
X030107Y016882D01*
X030107Y016939D01*
X030164Y016995D01*
X030334Y016995D01*
X030334Y016882D01*
X030334Y016995D02*
X030221Y017109D01*
X030107Y017165D01*
X029966Y017109D02*
X029966Y017052D01*
X029909Y016995D01*
X029739Y016995D01*
X029739Y016882D02*
X029739Y017109D01*
X029796Y017165D01*
X029909Y017165D01*
X029966Y017109D01*
X029966Y016882D02*
X029909Y016825D01*
X029796Y016825D01*
X029739Y016882D01*
X030476Y017109D02*
X030532Y017165D01*
X030646Y017165D01*
X030703Y017109D01*
X028417Y016690D02*
X028360Y016577D01*
X028247Y016463D01*
X028247Y016633D01*
X028190Y016690D01*
X028133Y016690D01*
X028076Y016633D01*
X028076Y016520D01*
X028133Y016463D01*
X028247Y016463D01*
X028247Y016322D02*
X028133Y016322D01*
X028076Y016265D01*
X028076Y016152D01*
X028133Y016095D01*
X028247Y016095D02*
X028303Y016208D01*
X028303Y016265D01*
X028247Y016322D01*
X028417Y016322D02*
X028417Y016095D01*
X028247Y016095D01*
X028360Y015953D02*
X028417Y015897D01*
X028417Y015783D01*
X028360Y015726D01*
X028133Y015726D01*
X028076Y015783D01*
X028076Y015897D01*
X028133Y015953D01*
X027826Y015897D02*
X027826Y015783D01*
X027769Y015726D01*
X027543Y015726D01*
X027486Y015783D01*
X027486Y015897D01*
X027543Y015953D01*
X027543Y016095D02*
X027486Y016152D01*
X027486Y016265D01*
X027543Y016322D01*
X027656Y016322D01*
X027713Y016265D01*
X027713Y016208D01*
X027656Y016095D01*
X027826Y016095D01*
X027826Y016322D01*
X027656Y016463D02*
X027656Y016690D01*
X027486Y016633D02*
X027826Y016633D01*
X027656Y016463D01*
X027236Y016520D02*
X027236Y016633D01*
X027179Y016690D01*
X027122Y016690D01*
X027065Y016633D01*
X027009Y016690D01*
X026952Y016690D01*
X026895Y016633D01*
X026895Y016520D01*
X026952Y016463D01*
X026952Y016322D02*
X026895Y016265D01*
X026895Y016152D01*
X026952Y016095D01*
X027065Y016095D02*
X027122Y016208D01*
X027122Y016265D01*
X027065Y016322D01*
X026952Y016322D01*
X027065Y016095D02*
X027236Y016095D01*
X027236Y016322D01*
X027179Y016463D02*
X027236Y016520D01*
X027065Y016577D02*
X027065Y016633D01*
X026645Y016690D02*
X026645Y016463D01*
X026475Y016463D01*
X026532Y016577D01*
X026532Y016633D01*
X026475Y016690D01*
X026362Y016690D01*
X026305Y016633D01*
X026305Y016520D01*
X026362Y016463D01*
X026362Y016322D02*
X026305Y016265D01*
X026305Y016152D01*
X026362Y016095D01*
X026475Y016095D02*
X026532Y016208D01*
X026532Y016265D01*
X026475Y016322D01*
X026362Y016322D01*
X026475Y016095D02*
X026645Y016095D01*
X026645Y016322D01*
X026588Y015953D02*
X026645Y015897D01*
X026645Y015783D01*
X026588Y015726D01*
X026362Y015726D01*
X026305Y015783D01*
X026305Y015897D01*
X026362Y015953D01*
X026305Y015509D02*
X026305Y015282D01*
X026532Y015509D01*
X026588Y015509D01*
X026645Y015452D01*
X026645Y015339D01*
X026588Y015282D01*
X026645Y015141D02*
X026645Y014914D01*
X026475Y014914D01*
X026532Y015027D01*
X026532Y015084D01*
X026475Y015141D01*
X026362Y015141D01*
X026305Y015084D01*
X026305Y014970D01*
X026362Y014914D01*
X026362Y014772D02*
X026305Y014716D01*
X026305Y014602D01*
X026362Y014545D01*
X026588Y014545D01*
X026645Y014602D01*
X026645Y014716D01*
X026588Y014772D01*
X026895Y014716D02*
X026952Y014772D01*
X026895Y014716D02*
X026895Y014602D01*
X026952Y014545D01*
X027179Y014545D01*
X027236Y014602D01*
X027236Y014716D01*
X027179Y014772D01*
X027236Y014914D02*
X027065Y014914D01*
X027122Y015027D01*
X027122Y015084D01*
X027065Y015141D01*
X026952Y015141D01*
X026895Y015084D01*
X026895Y014970D01*
X026952Y014914D01*
X027236Y014914D02*
X027236Y015141D01*
X027122Y015282D02*
X027236Y015395D01*
X026895Y015395D01*
X026895Y015282D02*
X026895Y015509D01*
X026952Y015726D02*
X026895Y015783D01*
X026895Y015897D01*
X026952Y015953D01*
X026952Y015726D02*
X027179Y015726D01*
X027236Y015783D01*
X027236Y015897D01*
X027179Y015953D01*
X027543Y015509D02*
X027486Y015452D01*
X027486Y015339D01*
X027543Y015282D01*
X027769Y015509D01*
X027543Y015509D01*
X027769Y015509D02*
X027826Y015452D01*
X027826Y015339D01*
X027769Y015282D01*
X027543Y015282D01*
X027543Y015141D02*
X027486Y015084D01*
X027486Y014970D01*
X027543Y014914D01*
X027656Y014914D02*
X027713Y015027D01*
X027713Y015084D01*
X027656Y015141D01*
X027543Y015141D01*
X027656Y014914D02*
X027826Y014914D01*
X027826Y015141D01*
X028076Y015084D02*
X028417Y015084D01*
X028247Y014914D01*
X028247Y015141D01*
X028303Y015282D02*
X028247Y015339D01*
X028247Y015509D01*
X028360Y015509D02*
X028417Y015452D01*
X028417Y015339D01*
X028360Y015282D01*
X028303Y015282D01*
X028133Y015282D02*
X028076Y015339D01*
X028076Y015452D01*
X028133Y015509D01*
X028360Y015509D01*
X027826Y015897D02*
X027769Y015953D01*
X029542Y015337D02*
X029542Y015110D01*
X029599Y015053D01*
X029712Y015053D01*
X029769Y015110D01*
X029542Y015337D01*
X029599Y015394D01*
X029712Y015394D01*
X029769Y015337D01*
X029769Y015110D01*
X029910Y015337D02*
X030137Y015110D01*
X030137Y015053D01*
X030279Y015110D02*
X030336Y015053D01*
X030449Y015053D01*
X030506Y015110D01*
X030506Y015337D01*
X030449Y015394D01*
X030336Y015394D01*
X030279Y015337D01*
X030137Y015394D02*
X029910Y015394D01*
X029910Y015337D01*
X028417Y014716D02*
X028417Y014602D01*
X028360Y014545D01*
X028133Y014545D01*
X028076Y014602D01*
X028076Y014716D01*
X028133Y014772D01*
X028360Y014772D02*
X028417Y014716D01*
X027826Y014716D02*
X027826Y014602D01*
X027769Y014545D01*
X027543Y014545D01*
X027486Y014602D01*
X027486Y014716D01*
X027543Y014772D01*
X027769Y014772D02*
X027826Y014716D01*
X031232Y013604D02*
X031232Y013491D01*
X031289Y013434D01*
X031403Y013434D01*
X031403Y013604D01*
X031346Y013661D01*
X031289Y013661D01*
X031232Y013604D01*
X031403Y013434D02*
X031516Y013548D01*
X031573Y013661D01*
X031516Y013293D02*
X031459Y013293D01*
X031403Y013236D01*
X031346Y013293D01*
X031289Y013293D01*
X031232Y013236D01*
X031232Y013123D01*
X031289Y013066D01*
X031289Y012924D02*
X031232Y012868D01*
X031232Y012754D01*
X031289Y012698D01*
X031516Y012698D01*
X031573Y012754D01*
X031573Y012868D01*
X031516Y012924D01*
X031516Y013066D02*
X031573Y013123D01*
X031573Y013236D01*
X031516Y013293D01*
X031403Y013236D02*
X031403Y013179D01*
X039067Y008707D02*
X039294Y008707D01*
X039294Y008537D01*
X039181Y008594D01*
X039124Y008594D01*
X039067Y008537D01*
X039067Y008424D01*
X039124Y008367D01*
X039237Y008367D01*
X039294Y008424D01*
X039435Y008424D02*
X039435Y008480D01*
X039492Y008537D01*
X039662Y008537D01*
X039662Y008424D01*
X039606Y008367D01*
X039492Y008367D01*
X039435Y008424D01*
X039549Y008650D02*
X039662Y008537D01*
X039549Y008650D02*
X039435Y008707D01*
X039804Y008650D02*
X039860Y008707D01*
X039974Y008707D01*
X040031Y008650D01*
X040031Y008424D01*
X039974Y008367D01*
X039860Y008367D01*
X039804Y008424D01*
X039860Y006542D02*
X039974Y006542D01*
X040031Y006485D01*
X040031Y006258D01*
X039974Y006202D01*
X039860Y006202D01*
X039804Y006258D01*
X039662Y006258D02*
X039606Y006202D01*
X039492Y006202D01*
X039435Y006258D01*
X039435Y006315D01*
X039492Y006372D01*
X039662Y006372D01*
X039662Y006258D01*
X039662Y006372D02*
X039549Y006485D01*
X039435Y006542D01*
X039294Y006372D02*
X039124Y006372D01*
X039067Y006315D01*
X039067Y006258D01*
X039124Y006202D01*
X039237Y006202D01*
X039294Y006258D01*
X039294Y006372D01*
X039181Y006485D01*
X039067Y006542D01*
X039804Y006485D02*
X039860Y006542D01*
X043004Y009014D02*
X043061Y008957D01*
X043174Y008957D01*
X043231Y009014D01*
X043231Y009071D01*
X043174Y009128D01*
X043061Y009128D01*
X043004Y009071D01*
X043004Y009014D01*
X043061Y009128D02*
X043004Y009184D01*
X043004Y009241D01*
X043061Y009298D01*
X043174Y009298D01*
X043231Y009241D01*
X043231Y009184D01*
X043174Y009128D01*
X043372Y009128D02*
X043599Y009128D01*
X043429Y009298D01*
X043429Y008957D01*
X043741Y008957D02*
X043854Y009071D01*
X043797Y009071D02*
X043968Y009071D01*
X043968Y008957D02*
X043968Y009298D01*
X043797Y009298D01*
X043741Y009241D01*
X043741Y009128D01*
X043797Y009071D01*
X022708Y008510D02*
X022708Y008170D01*
X022708Y008283D02*
X022538Y008283D01*
X022481Y008340D01*
X022481Y008454D01*
X022538Y008510D01*
X022708Y008510D01*
X022594Y008283D02*
X022481Y008170D01*
X022339Y008340D02*
X022113Y008340D01*
X022169Y008170D02*
X022169Y008510D01*
X022339Y008340D01*
X022169Y007723D02*
X022339Y007553D01*
X022113Y007553D01*
X022169Y007383D02*
X022169Y007723D01*
X022481Y007666D02*
X022538Y007723D01*
X022651Y007723D01*
X022708Y007666D01*
X022708Y007439D01*
X022651Y007383D01*
X022538Y007383D01*
X022481Y007439D01*
X021133Y007439D02*
X021076Y007383D01*
X020963Y007383D01*
X020906Y007439D01*
X020765Y007439D02*
X020708Y007383D01*
X020595Y007383D01*
X020538Y007439D01*
X020538Y007496D01*
X020595Y007553D01*
X020651Y007553D01*
X020595Y007553D02*
X020538Y007609D01*
X020538Y007666D01*
X020595Y007723D01*
X020708Y007723D01*
X020765Y007666D01*
X020906Y007666D02*
X020963Y007723D01*
X021076Y007723D01*
X021133Y007666D01*
X021133Y007439D01*
X021133Y008170D02*
X021133Y008510D01*
X020963Y008510D01*
X020906Y008454D01*
X020906Y008340D01*
X020963Y008283D01*
X021133Y008283D01*
X021020Y008283D02*
X020906Y008170D01*
X020765Y008227D02*
X020708Y008170D01*
X020595Y008170D01*
X020538Y008227D01*
X020538Y008283D01*
X020595Y008340D01*
X020651Y008340D01*
X020595Y008340D02*
X020538Y008397D01*
X020538Y008454D01*
X020595Y008510D01*
X020708Y008510D01*
X020765Y008454D01*
X019558Y007723D02*
X019388Y007723D01*
X019331Y007666D01*
X019331Y007439D01*
X019388Y007383D01*
X019558Y007383D01*
X019558Y007723D01*
X019190Y007666D02*
X019133Y007723D01*
X019020Y007723D01*
X018963Y007666D01*
X018963Y007609D01*
X019190Y007383D01*
X018963Y007383D01*
X017983Y007439D02*
X017927Y007383D01*
X017813Y007383D01*
X017757Y007439D01*
X017615Y007383D02*
X017388Y007609D01*
X017388Y007666D01*
X017445Y007723D01*
X017558Y007723D01*
X017615Y007666D01*
X017757Y007666D02*
X017813Y007723D01*
X017927Y007723D01*
X017983Y007666D01*
X017983Y007439D01*
X017615Y007383D02*
X017388Y007383D01*
X017247Y007439D02*
X017020Y007666D01*
X017020Y007439D01*
X017077Y007383D01*
X017190Y007383D01*
X017247Y007439D01*
X017247Y007666D01*
X017190Y007723D01*
X017077Y007723D01*
X017020Y007666D01*
X016409Y007666D02*
X016352Y007723D01*
X016238Y007723D01*
X016182Y007666D01*
X016040Y007609D02*
X015927Y007723D01*
X015927Y007383D01*
X016040Y007383D02*
X015813Y007383D01*
X015672Y007439D02*
X015615Y007383D01*
X015502Y007383D01*
X015445Y007439D01*
X015445Y007666D01*
X015502Y007723D01*
X015615Y007723D01*
X015672Y007666D01*
X015672Y007609D01*
X015615Y007553D01*
X015445Y007553D01*
X014834Y007723D02*
X014834Y007383D01*
X014664Y007383D01*
X014607Y007439D01*
X014607Y007666D01*
X014664Y007723D01*
X014834Y007723D01*
X014465Y007609D02*
X014352Y007723D01*
X014352Y007383D01*
X014465Y007383D02*
X014239Y007383D01*
X014097Y007439D02*
X014040Y007383D01*
X013927Y007383D01*
X013870Y007439D01*
X013870Y007666D01*
X014097Y007439D01*
X014097Y007666D01*
X014040Y007723D01*
X013927Y007723D01*
X013870Y007666D01*
X015445Y008227D02*
X015445Y008454D01*
X015502Y008510D01*
X015615Y008510D01*
X015672Y008454D01*
X015672Y008397D01*
X015615Y008340D01*
X015445Y008340D01*
X015445Y008227D02*
X015502Y008170D01*
X015615Y008170D01*
X015672Y008227D01*
X015813Y008170D02*
X016040Y008170D01*
X015927Y008170D02*
X015927Y008510D01*
X016040Y008397D01*
X016182Y008454D02*
X016182Y008340D01*
X016238Y008283D01*
X016409Y008283D01*
X016409Y008170D02*
X016409Y008510D01*
X016238Y008510D01*
X016182Y008454D01*
X016295Y008283D02*
X016182Y008170D01*
X016409Y007666D02*
X016409Y007439D01*
X016352Y007383D01*
X016238Y007383D01*
X016182Y007439D01*
X017020Y008227D02*
X017077Y008170D01*
X017190Y008170D01*
X017247Y008227D01*
X017020Y008454D01*
X017020Y008227D01*
X017020Y008454D02*
X017077Y008510D01*
X017190Y008510D01*
X017247Y008454D01*
X017247Y008227D01*
X017388Y008170D02*
X017615Y008170D01*
X017388Y008397D01*
X017388Y008454D01*
X017445Y008510D01*
X017558Y008510D01*
X017615Y008454D01*
X017757Y008454D02*
X017757Y008340D01*
X017813Y008283D01*
X017983Y008283D01*
X017983Y008170D02*
X017983Y008510D01*
X017813Y008510D01*
X017757Y008454D01*
X017870Y008283D02*
X017757Y008170D01*
X017813Y009942D02*
X017757Y009998D01*
X017813Y009942D02*
X017927Y009942D01*
X017983Y009998D01*
X017983Y010225D01*
X017927Y010282D01*
X017813Y010282D01*
X017757Y010225D01*
X017615Y010225D02*
X017558Y010282D01*
X017445Y010282D01*
X017388Y010225D01*
X017388Y010169D01*
X017615Y009942D01*
X017388Y009942D01*
X017247Y009942D02*
X017020Y010169D01*
X017020Y010225D01*
X017077Y010282D01*
X017190Y010282D01*
X017247Y010225D01*
X017247Y009942D02*
X017020Y009942D01*
X016409Y009998D02*
X016409Y010225D01*
X016352Y010282D01*
X016238Y010282D01*
X016182Y010225D01*
X016040Y010225D02*
X015984Y010282D01*
X015870Y010282D01*
X015813Y010225D01*
X015813Y010169D01*
X016040Y009942D01*
X015813Y009942D01*
X015672Y009942D02*
X015445Y009942D01*
X015559Y009942D02*
X015559Y010282D01*
X015672Y010169D01*
X016182Y009998D02*
X016238Y009942D01*
X016352Y009942D01*
X016409Y009998D01*
X016409Y010729D02*
X016409Y011069D01*
X016238Y011069D01*
X016182Y011013D01*
X016182Y010899D01*
X016238Y010843D01*
X016409Y010843D01*
X016295Y010843D02*
X016182Y010729D01*
X016040Y010729D02*
X015813Y010956D01*
X015813Y011013D01*
X015870Y011069D01*
X015984Y011069D01*
X016040Y011013D01*
X016040Y010729D02*
X015813Y010729D01*
X015672Y010729D02*
X015445Y010729D01*
X015559Y010729D02*
X015559Y011069D01*
X015672Y010956D01*
X014834Y010282D02*
X014664Y010282D01*
X014607Y010225D01*
X014607Y009998D01*
X014664Y009942D01*
X014834Y009942D01*
X014834Y010282D01*
X014465Y010169D02*
X014352Y010282D01*
X014352Y009942D01*
X014465Y009942D02*
X014239Y009942D01*
X014097Y009942D02*
X013870Y009942D01*
X013984Y009942D02*
X013984Y010282D01*
X014097Y010169D01*
X017020Y010729D02*
X017247Y010729D01*
X017020Y010956D01*
X017020Y011013D01*
X017077Y011069D01*
X017190Y011069D01*
X017247Y011013D01*
X017388Y011013D02*
X017445Y011069D01*
X017558Y011069D01*
X017615Y011013D01*
X017757Y011013D02*
X017757Y010899D01*
X017813Y010843D01*
X017983Y010843D01*
X017870Y010843D02*
X017757Y010729D01*
X017615Y010729D02*
X017388Y010956D01*
X017388Y011013D01*
X017388Y010729D02*
X017615Y010729D01*
X017757Y011013D02*
X017813Y011069D01*
X017983Y011069D01*
X017983Y010729D01*
X018963Y010225D02*
X018963Y010169D01*
X019020Y010112D01*
X018963Y010055D01*
X018963Y009998D01*
X019020Y009942D01*
X019133Y009942D01*
X019190Y009998D01*
X019331Y009998D02*
X019331Y010225D01*
X019388Y010282D01*
X019558Y010282D01*
X019558Y009942D01*
X019388Y009942D01*
X019331Y009998D01*
X019190Y010225D02*
X019133Y010282D01*
X019020Y010282D01*
X018963Y010225D01*
X019020Y010112D02*
X019076Y010112D01*
X020538Y010112D02*
X020538Y009998D01*
X020595Y009942D01*
X020708Y009942D01*
X020765Y009998D01*
X020765Y010112D02*
X020651Y010169D01*
X020595Y010169D01*
X020538Y010112D01*
X020538Y010282D02*
X020765Y010282D01*
X020765Y010112D01*
X020906Y010225D02*
X020963Y010282D01*
X021076Y010282D01*
X021133Y010225D01*
X021133Y009998D01*
X021076Y009942D01*
X020963Y009942D01*
X020906Y009998D01*
X020906Y010729D02*
X021020Y010843D01*
X020963Y010843D02*
X021133Y010843D01*
X021133Y010729D02*
X021133Y011069D01*
X020963Y011069D01*
X020906Y011013D01*
X020906Y010899D01*
X020963Y010843D01*
X020765Y010899D02*
X020651Y010956D01*
X020595Y010956D01*
X020538Y010899D01*
X020538Y010786D01*
X020595Y010729D01*
X020708Y010729D01*
X020765Y010786D01*
X020765Y010899D02*
X020765Y011069D01*
X020538Y011069D01*
X022113Y011069D02*
X022226Y011013D01*
X022339Y010899D01*
X022169Y010899D01*
X022113Y010843D01*
X022113Y010786D01*
X022169Y010729D01*
X022283Y010729D01*
X022339Y010786D01*
X022339Y010899D01*
X022481Y010899D02*
X022538Y010843D01*
X022708Y010843D01*
X022594Y010843D02*
X022481Y010729D01*
X022481Y010899D02*
X022481Y011013D01*
X022538Y011069D01*
X022708Y011069D01*
X022708Y010729D01*
X022651Y010282D02*
X022708Y010225D01*
X022708Y009998D01*
X022651Y009942D01*
X022538Y009942D01*
X022481Y009998D01*
X022339Y009998D02*
X022283Y009942D01*
X022169Y009942D01*
X022113Y009998D01*
X022113Y010055D01*
X022169Y010112D01*
X022339Y010112D01*
X022339Y009998D01*
X022339Y010112D02*
X022226Y010225D01*
X022113Y010282D01*
X022481Y010225D02*
X022538Y010282D01*
X022651Y010282D01*
X022651Y012501D02*
X022538Y012501D01*
X022481Y012557D01*
X022339Y012557D02*
X022339Y012614D01*
X022283Y012671D01*
X022169Y012671D01*
X022113Y012614D01*
X022113Y012557D01*
X022169Y012501D01*
X022283Y012501D01*
X022339Y012557D01*
X022283Y012671D02*
X022339Y012728D01*
X022339Y012784D01*
X022283Y012841D01*
X022169Y012841D01*
X022113Y012784D01*
X022113Y012728D01*
X022169Y012671D01*
X022481Y012784D02*
X022538Y012841D01*
X022651Y012841D01*
X022708Y012784D01*
X022708Y012557D01*
X022651Y012501D01*
X022708Y013288D02*
X022708Y013628D01*
X022538Y013628D01*
X022481Y013572D01*
X022481Y013458D01*
X022538Y013402D01*
X022708Y013402D01*
X022594Y013402D02*
X022481Y013288D01*
X022339Y013345D02*
X022339Y013402D01*
X022283Y013458D01*
X022169Y013458D01*
X022113Y013402D01*
X022113Y013345D01*
X022169Y013288D01*
X022283Y013288D01*
X022339Y013345D01*
X022283Y013458D02*
X022339Y013515D01*
X022339Y013572D01*
X022283Y013628D01*
X022169Y013628D01*
X022113Y013572D01*
X022113Y013515D01*
X022169Y013458D01*
X021133Y013402D02*
X020963Y013402D01*
X020906Y013458D01*
X020906Y013572D01*
X020963Y013628D01*
X021133Y013628D01*
X021133Y013288D01*
X021020Y013402D02*
X020906Y013288D01*
X020765Y013288D02*
X020765Y013345D01*
X020538Y013572D01*
X020538Y013628D01*
X020765Y013628D01*
X020765Y012841D02*
X020538Y012841D01*
X020538Y012784D01*
X020765Y012557D01*
X020765Y012501D01*
X020906Y012557D02*
X020963Y012501D01*
X021076Y012501D01*
X021133Y012557D01*
X021133Y012784D01*
X021076Y012841D01*
X020963Y012841D01*
X020906Y012784D01*
X019558Y012841D02*
X019558Y012501D01*
X019388Y012501D01*
X019331Y012557D01*
X019331Y012784D01*
X019388Y012841D01*
X019558Y012841D01*
X019190Y012671D02*
X018963Y012671D01*
X019020Y012841D02*
X019190Y012671D01*
X019020Y012501D02*
X019020Y012841D01*
X017983Y012784D02*
X017983Y012557D01*
X017927Y012501D01*
X017813Y012501D01*
X017757Y012557D01*
X017615Y012501D02*
X017388Y012728D01*
X017388Y012784D01*
X017445Y012841D01*
X017558Y012841D01*
X017615Y012784D01*
X017757Y012784D02*
X017813Y012841D01*
X017927Y012841D01*
X017983Y012784D01*
X017615Y012501D02*
X017388Y012501D01*
X017247Y012671D02*
X017020Y012671D01*
X017077Y012841D02*
X017247Y012671D01*
X017077Y012501D02*
X017077Y012841D01*
X016409Y012784D02*
X016409Y012557D01*
X016352Y012501D01*
X016238Y012501D01*
X016182Y012557D01*
X016040Y012501D02*
X015813Y012728D01*
X015813Y012784D01*
X015870Y012841D01*
X015984Y012841D01*
X016040Y012784D01*
X016182Y012784D02*
X016238Y012841D01*
X016352Y012841D01*
X016409Y012784D01*
X016040Y012501D02*
X015813Y012501D01*
X015672Y012557D02*
X015615Y012501D01*
X015502Y012501D01*
X015445Y012557D01*
X015445Y012614D01*
X015502Y012671D01*
X015559Y012671D01*
X015502Y012671D02*
X015445Y012728D01*
X015445Y012784D01*
X015502Y012841D01*
X015615Y012841D01*
X015672Y012784D01*
X014834Y012841D02*
X014834Y012501D01*
X014664Y012501D01*
X014607Y012557D01*
X014607Y012784D01*
X014664Y012841D01*
X014834Y012841D01*
X014465Y012728D02*
X014352Y012841D01*
X014352Y012501D01*
X014465Y012501D02*
X014239Y012501D01*
X014097Y012501D02*
X013870Y012728D01*
X013870Y012784D01*
X013927Y012841D01*
X014040Y012841D01*
X014097Y012784D01*
X014097Y012501D02*
X013870Y012501D01*
X015445Y013345D02*
X015502Y013288D01*
X015615Y013288D01*
X015672Y013345D01*
X015813Y013288D02*
X016040Y013288D01*
X015813Y013515D01*
X015813Y013572D01*
X015870Y013628D01*
X015984Y013628D01*
X016040Y013572D01*
X016182Y013572D02*
X016182Y013458D01*
X016238Y013402D01*
X016409Y013402D01*
X016295Y013402D02*
X016182Y013288D01*
X016409Y013288D02*
X016409Y013628D01*
X016238Y013628D01*
X016182Y013572D01*
X015672Y013572D02*
X015615Y013628D01*
X015502Y013628D01*
X015445Y013572D01*
X015445Y013515D01*
X015502Y013458D01*
X015445Y013402D01*
X015445Y013345D01*
X015502Y013458D02*
X015559Y013458D01*
X017020Y013458D02*
X017247Y013458D01*
X017077Y013628D01*
X017077Y013288D01*
X017388Y013288D02*
X017615Y013288D01*
X017388Y013515D01*
X017388Y013572D01*
X017445Y013628D01*
X017558Y013628D01*
X017615Y013572D01*
X017757Y013572D02*
X017757Y013458D01*
X017813Y013402D01*
X017983Y013402D01*
X017870Y013402D02*
X017757Y013288D01*
X017983Y013288D02*
X017983Y013628D01*
X017813Y013628D01*
X017757Y013572D01*
X017813Y015060D02*
X017757Y015117D01*
X017813Y015060D02*
X017927Y015060D01*
X017983Y015117D01*
X017983Y015343D01*
X017927Y015400D01*
X017813Y015400D01*
X017757Y015343D01*
X017615Y015343D02*
X017558Y015400D01*
X017445Y015400D01*
X017388Y015343D01*
X017388Y015287D01*
X017615Y015060D01*
X017388Y015060D01*
X017247Y015117D02*
X017247Y015230D01*
X017077Y015230D01*
X017020Y015173D01*
X017020Y015117D01*
X017077Y015060D01*
X017190Y015060D01*
X017247Y015117D01*
X017247Y015230D02*
X017133Y015343D01*
X017020Y015400D01*
X016409Y015343D02*
X016409Y015117D01*
X016352Y015060D01*
X016238Y015060D01*
X016182Y015117D01*
X016040Y015060D02*
X015813Y015287D01*
X015813Y015343D01*
X015870Y015400D01*
X015984Y015400D01*
X016040Y015343D01*
X016182Y015343D02*
X016238Y015400D01*
X016352Y015400D01*
X016409Y015343D01*
X016040Y015060D02*
X015813Y015060D01*
X015672Y015117D02*
X015615Y015060D01*
X015502Y015060D01*
X015445Y015117D01*
X015445Y015230D01*
X015502Y015287D01*
X015559Y015287D01*
X015672Y015230D01*
X015672Y015400D01*
X015445Y015400D01*
X014834Y015400D02*
X014834Y015060D01*
X014664Y015060D01*
X014607Y015117D01*
X014607Y015343D01*
X014664Y015400D01*
X014834Y015400D01*
X014465Y015287D02*
X014352Y015400D01*
X014352Y015060D01*
X014465Y015060D02*
X014239Y015060D01*
X014097Y015117D02*
X014040Y015060D01*
X013927Y015060D01*
X013870Y015117D01*
X013870Y015173D01*
X013927Y015230D01*
X013984Y015230D01*
X013927Y015230D02*
X013870Y015287D01*
X013870Y015343D01*
X013927Y015400D01*
X014040Y015400D01*
X014097Y015343D01*
X015445Y015904D02*
X015502Y015847D01*
X015615Y015847D01*
X015672Y015904D01*
X015672Y016017D02*
X015559Y016074D01*
X015502Y016074D01*
X015445Y016017D01*
X015445Y015904D01*
X015672Y016017D02*
X015672Y016187D01*
X015445Y016187D01*
X015813Y016131D02*
X015870Y016187D01*
X015984Y016187D01*
X016040Y016131D01*
X016182Y016131D02*
X016182Y016017D01*
X016238Y015961D01*
X016409Y015961D01*
X016409Y015847D02*
X016409Y016187D01*
X016238Y016187D01*
X016182Y016131D01*
X016295Y015961D02*
X016182Y015847D01*
X016040Y015847D02*
X015813Y016074D01*
X015813Y016131D01*
X015813Y015847D02*
X016040Y015847D01*
X017020Y015904D02*
X017020Y015961D01*
X017077Y016017D01*
X017247Y016017D01*
X017247Y015904D01*
X017190Y015847D01*
X017077Y015847D01*
X017020Y015904D01*
X017133Y016131D02*
X017247Y016017D01*
X017388Y016074D02*
X017388Y016131D01*
X017445Y016187D01*
X017558Y016187D01*
X017615Y016131D01*
X017757Y016131D02*
X017757Y016017D01*
X017813Y015961D01*
X017983Y015961D01*
X017870Y015961D02*
X017757Y015847D01*
X017615Y015847D02*
X017388Y016074D01*
X017388Y015847D02*
X017615Y015847D01*
X017757Y016131D02*
X017813Y016187D01*
X017983Y016187D01*
X017983Y015847D01*
X017133Y016131D02*
X017020Y016187D01*
X018963Y015400D02*
X019190Y015400D01*
X019190Y015230D01*
X019076Y015287D01*
X019020Y015287D01*
X018963Y015230D01*
X018963Y015117D01*
X019020Y015060D01*
X019133Y015060D01*
X019190Y015117D01*
X019331Y015117D02*
X019331Y015343D01*
X019388Y015400D01*
X019558Y015400D01*
X019558Y015060D01*
X019388Y015060D01*
X019331Y015117D01*
X020538Y015117D02*
X020538Y015343D01*
X020595Y015400D01*
X020708Y015400D01*
X020765Y015343D01*
X020765Y015287D01*
X020708Y015230D01*
X020538Y015230D01*
X020538Y015117D02*
X020595Y015060D01*
X020708Y015060D01*
X020765Y015117D01*
X020906Y015117D02*
X020963Y015060D01*
X021076Y015060D01*
X021133Y015117D01*
X021133Y015343D01*
X021076Y015400D01*
X020963Y015400D01*
X020906Y015343D01*
X021744Y015343D02*
X021744Y015117D01*
X021801Y015060D01*
X021914Y015060D01*
X021971Y015117D01*
X021744Y015343D01*
X021801Y015400D01*
X021914Y015400D01*
X021971Y015343D01*
X021971Y015117D01*
X022113Y015060D02*
X022339Y015060D01*
X022226Y015060D02*
X022226Y015400D01*
X022339Y015287D01*
X022481Y015343D02*
X022538Y015400D01*
X022651Y015400D01*
X022708Y015343D01*
X022708Y015117D01*
X022651Y015060D01*
X022538Y015060D01*
X022481Y015117D01*
X022481Y015847D02*
X022594Y015961D01*
X022538Y015961D02*
X022708Y015961D01*
X022708Y015847D02*
X022708Y016187D01*
X022538Y016187D01*
X022481Y016131D01*
X022481Y016017D01*
X022538Y015961D01*
X022339Y016074D02*
X022226Y016187D01*
X022226Y015847D01*
X022339Y015847D02*
X022113Y015847D01*
X021971Y015904D02*
X021744Y016131D01*
X021744Y015904D01*
X021801Y015847D01*
X021914Y015847D01*
X021971Y015904D01*
X021971Y016131D01*
X021914Y016187D01*
X021801Y016187D01*
X021744Y016131D01*
X021133Y016187D02*
X021133Y015847D01*
X021133Y015961D02*
X020963Y015961D01*
X020906Y016017D01*
X020906Y016131D01*
X020963Y016187D01*
X021133Y016187D01*
X021020Y015961D02*
X020906Y015847D01*
X020765Y015904D02*
X020708Y015847D01*
X020595Y015847D01*
X020538Y015904D01*
X020538Y016131D01*
X020595Y016187D01*
X020708Y016187D01*
X020765Y016131D01*
X020765Y016074D01*
X020708Y016017D01*
X020538Y016017D01*
X020538Y017619D02*
X020765Y017619D01*
X020651Y017619D02*
X020651Y017959D01*
X020765Y017846D01*
X020906Y017902D02*
X020963Y017959D01*
X021076Y017959D01*
X021133Y017902D01*
X021133Y017676D01*
X021076Y017619D01*
X020963Y017619D01*
X020906Y017676D01*
X020396Y017619D02*
X020170Y017619D01*
X020283Y017619D02*
X020283Y017959D01*
X020396Y017846D01*
X020396Y018406D02*
X020170Y018406D01*
X020283Y018406D02*
X020283Y018747D01*
X020396Y018633D01*
X020538Y018406D02*
X020765Y018406D01*
X020651Y018406D02*
X020651Y018747D01*
X020765Y018633D01*
X020906Y018576D02*
X020963Y018520D01*
X021133Y018520D01*
X021020Y018520D02*
X020906Y018406D01*
X020906Y018576D02*
X020906Y018690D01*
X020963Y018747D01*
X021133Y018747D01*
X021133Y018406D01*
X021744Y018406D02*
X021971Y018406D01*
X021744Y018633D01*
X021744Y018690D01*
X021801Y018747D01*
X021914Y018747D01*
X021971Y018690D01*
X022226Y018747D02*
X022226Y018406D01*
X022339Y018406D02*
X022113Y018406D01*
X022339Y018633D02*
X022226Y018747D01*
X022481Y018690D02*
X022481Y018576D01*
X022538Y018520D01*
X022708Y018520D01*
X022594Y018520D02*
X022481Y018406D01*
X022708Y018406D02*
X022708Y018747D01*
X022538Y018747D01*
X022481Y018690D01*
X022538Y017959D02*
X022651Y017959D01*
X022708Y017902D01*
X022708Y017676D01*
X022651Y017619D01*
X022538Y017619D01*
X022481Y017676D01*
X022339Y017619D02*
X022113Y017619D01*
X022226Y017619D02*
X022226Y017959D01*
X022339Y017846D01*
X022481Y017902D02*
X022538Y017959D01*
X021971Y017902D02*
X021914Y017959D01*
X021801Y017959D01*
X021744Y017902D01*
X021744Y017846D01*
X021971Y017619D01*
X021744Y017619D01*
X019558Y017619D02*
X019388Y017619D01*
X019331Y017676D01*
X019331Y017902D01*
X019388Y017959D01*
X019558Y017959D01*
X019558Y017619D01*
X019190Y017676D02*
X019133Y017619D01*
X019020Y017619D01*
X018963Y017676D01*
X018963Y017732D01*
X019020Y017789D01*
X019190Y017789D01*
X019190Y017676D01*
X019190Y017789D02*
X019076Y017902D01*
X018963Y017959D01*
X017983Y017902D02*
X017983Y017676D01*
X017927Y017619D01*
X017813Y017619D01*
X017757Y017676D01*
X017615Y017619D02*
X017388Y017846D01*
X017388Y017902D01*
X017445Y017959D01*
X017558Y017959D01*
X017615Y017902D01*
X017757Y017902D02*
X017813Y017959D01*
X017927Y017959D01*
X017983Y017902D01*
X017615Y017619D02*
X017388Y017619D01*
X017247Y017676D02*
X017247Y017732D01*
X017190Y017789D01*
X017077Y017789D01*
X017020Y017732D01*
X017020Y017676D01*
X017077Y017619D01*
X017190Y017619D01*
X017247Y017676D01*
X017190Y017789D02*
X017247Y017846D01*
X017247Y017902D01*
X017190Y017959D01*
X017077Y017959D01*
X017020Y017902D01*
X017020Y017846D01*
X017077Y017789D01*
X016409Y017902D02*
X016352Y017959D01*
X016238Y017959D01*
X016182Y017902D01*
X016040Y017902D02*
X015984Y017959D01*
X015870Y017959D01*
X015813Y017902D01*
X015813Y017846D01*
X016040Y017619D01*
X015813Y017619D01*
X015672Y017619D02*
X015672Y017676D01*
X015445Y017902D01*
X015445Y017959D01*
X015672Y017959D01*
X015672Y018406D02*
X015672Y018463D01*
X015445Y018690D01*
X015445Y018747D01*
X015672Y018747D01*
X015813Y018690D02*
X015870Y018747D01*
X015984Y018747D01*
X016040Y018690D01*
X016182Y018690D02*
X016182Y018576D01*
X016238Y018520D01*
X016409Y018520D01*
X016409Y018406D02*
X016409Y018747D01*
X016238Y018747D01*
X016182Y018690D01*
X016295Y018520D02*
X016182Y018406D01*
X016040Y018406D02*
X015813Y018633D01*
X015813Y018690D01*
X015813Y018406D02*
X016040Y018406D01*
X016409Y017902D02*
X016409Y017676D01*
X016352Y017619D01*
X016238Y017619D01*
X016182Y017676D01*
X017020Y018463D02*
X017077Y018406D01*
X017190Y018406D01*
X017247Y018463D01*
X017247Y018520D01*
X017190Y018576D01*
X017077Y018576D01*
X017020Y018520D01*
X017020Y018463D01*
X017077Y018576D02*
X017020Y018633D01*
X017020Y018690D01*
X017077Y018747D01*
X017190Y018747D01*
X017247Y018690D01*
X017247Y018633D01*
X017190Y018576D01*
X017388Y018633D02*
X017615Y018406D01*
X017388Y018406D01*
X017388Y018633D02*
X017388Y018690D01*
X017445Y018747D01*
X017558Y018747D01*
X017615Y018690D01*
X017757Y018690D02*
X017757Y018576D01*
X017813Y018520D01*
X017983Y018520D01*
X017870Y018520D02*
X017757Y018406D01*
X017983Y018406D02*
X017983Y018747D01*
X017813Y018747D01*
X017757Y018690D01*
X017813Y020178D02*
X017757Y020235D01*
X017813Y020178D02*
X017927Y020178D01*
X017983Y020235D01*
X017983Y020461D01*
X017927Y020518D01*
X017813Y020518D01*
X017757Y020461D01*
X017615Y020461D02*
X017558Y020518D01*
X017445Y020518D01*
X017388Y020461D01*
X017388Y020405D01*
X017445Y020348D01*
X017388Y020291D01*
X017388Y020235D01*
X017445Y020178D01*
X017558Y020178D01*
X017615Y020235D01*
X017502Y020348D02*
X017445Y020348D01*
X017247Y020235D02*
X017020Y020461D01*
X017020Y020235D01*
X017077Y020178D01*
X017190Y020178D01*
X017247Y020235D01*
X017247Y020461D01*
X017190Y020518D01*
X017077Y020518D01*
X017020Y020461D01*
X017077Y020965D02*
X017190Y020965D01*
X017247Y021022D01*
X017020Y021249D01*
X017020Y021022D01*
X017077Y020965D01*
X017247Y021022D02*
X017247Y021249D01*
X017190Y021306D01*
X017077Y021306D01*
X017020Y021249D01*
X017388Y021249D02*
X017388Y021192D01*
X017445Y021135D01*
X017388Y021079D01*
X017388Y021022D01*
X017445Y020965D01*
X017558Y020965D01*
X017615Y021022D01*
X017757Y020965D02*
X017870Y021079D01*
X017813Y021079D02*
X017983Y021079D01*
X017983Y020965D02*
X017983Y021306D01*
X017813Y021306D01*
X017757Y021249D01*
X017757Y021135D01*
X017813Y021079D01*
X017615Y021249D02*
X017558Y021306D01*
X017445Y021306D01*
X017388Y021249D01*
X017445Y021135D02*
X017502Y021135D01*
X016409Y021079D02*
X016238Y021079D01*
X016182Y021135D01*
X016182Y021249D01*
X016238Y021306D01*
X016409Y021306D01*
X016409Y020965D01*
X016295Y021079D02*
X016182Y020965D01*
X016040Y020965D02*
X015813Y021192D01*
X015813Y021249D01*
X015870Y021306D01*
X015984Y021306D01*
X016040Y021249D01*
X016040Y020965D02*
X015813Y020965D01*
X015672Y021022D02*
X015615Y020965D01*
X015502Y020965D01*
X015445Y021022D01*
X015445Y021249D01*
X015502Y021306D01*
X015615Y021306D01*
X015672Y021249D01*
X015672Y021192D01*
X015615Y021135D01*
X015445Y021135D01*
X015502Y020518D02*
X015615Y020518D01*
X015672Y020461D01*
X015672Y020405D01*
X015615Y020348D01*
X015445Y020348D01*
X015445Y020235D02*
X015445Y020461D01*
X015502Y020518D01*
X015445Y020235D02*
X015502Y020178D01*
X015615Y020178D01*
X015672Y020235D01*
X015813Y020178D02*
X016040Y020178D01*
X015813Y020405D01*
X015813Y020461D01*
X015870Y020518D01*
X015984Y020518D01*
X016040Y020461D01*
X016182Y020461D02*
X016238Y020518D01*
X016352Y020518D01*
X016409Y020461D01*
X016409Y020235D01*
X016352Y020178D01*
X016238Y020178D01*
X016182Y020235D01*
X014834Y020178D02*
X014664Y020178D01*
X014607Y020235D01*
X014607Y020461D01*
X014664Y020518D01*
X014834Y020518D01*
X014834Y020178D01*
X014465Y020178D02*
X014239Y020178D01*
X014352Y020178D02*
X014352Y020518D01*
X014465Y020405D01*
X014097Y020348D02*
X013984Y020405D01*
X013927Y020405D01*
X013870Y020348D01*
X013870Y020235D01*
X013927Y020178D01*
X014040Y020178D01*
X014097Y020235D01*
X014097Y020348D02*
X014097Y020518D01*
X013870Y020518D01*
X013927Y022737D02*
X013870Y022794D01*
X013870Y022850D01*
X013927Y022907D01*
X014097Y022907D01*
X014097Y022794D01*
X014040Y022737D01*
X013927Y022737D01*
X014097Y022907D02*
X013984Y023021D01*
X013870Y023077D01*
X014352Y023077D02*
X014352Y022737D01*
X014465Y022737D02*
X014239Y022737D01*
X014465Y022964D02*
X014352Y023077D01*
X014607Y023021D02*
X014664Y023077D01*
X014834Y023077D01*
X014834Y022737D01*
X014664Y022737D01*
X014607Y022794D01*
X014607Y023021D01*
X015445Y022737D02*
X015672Y022737D01*
X015559Y022737D02*
X015559Y023077D01*
X015672Y022964D01*
X015813Y022964D02*
X015870Y022907D01*
X015813Y022850D01*
X015813Y022794D01*
X015870Y022737D01*
X015984Y022737D01*
X016040Y022794D01*
X016182Y022794D02*
X016238Y022737D01*
X016352Y022737D01*
X016409Y022794D01*
X016409Y023021D01*
X016352Y023077D01*
X016238Y023077D01*
X016182Y023021D01*
X016040Y023021D02*
X015984Y023077D01*
X015870Y023077D01*
X015813Y023021D01*
X015813Y022964D01*
X015870Y022907D02*
X015927Y022907D01*
X015984Y023524D02*
X016040Y023581D01*
X015984Y023524D02*
X015870Y023524D01*
X015813Y023581D01*
X015813Y023638D01*
X015870Y023695D01*
X015927Y023695D01*
X015870Y023695D02*
X015813Y023751D01*
X015813Y023808D01*
X015870Y023865D01*
X015984Y023865D01*
X016040Y023808D01*
X016182Y023808D02*
X016182Y023695D01*
X016238Y023638D01*
X016409Y023638D01*
X016409Y023524D02*
X016409Y023865D01*
X016238Y023865D01*
X016182Y023808D01*
X016295Y023638D02*
X016182Y023524D01*
X015672Y023524D02*
X015445Y023524D01*
X015559Y023524D02*
X015559Y023865D01*
X015672Y023751D01*
X017020Y023751D02*
X017020Y023808D01*
X017077Y023865D01*
X017190Y023865D01*
X017247Y023808D01*
X017388Y023808D02*
X017388Y023751D01*
X017445Y023695D01*
X017388Y023638D01*
X017388Y023581D01*
X017445Y023524D01*
X017558Y023524D01*
X017615Y023581D01*
X017757Y023524D02*
X017870Y023638D01*
X017813Y023638D02*
X017983Y023638D01*
X017983Y023524D02*
X017983Y023865D01*
X017813Y023865D01*
X017757Y023808D01*
X017757Y023695D01*
X017813Y023638D01*
X017615Y023808D02*
X017558Y023865D01*
X017445Y023865D01*
X017388Y023808D01*
X017445Y023695D02*
X017502Y023695D01*
X017247Y023524D02*
X017020Y023751D01*
X017020Y023524D02*
X017247Y023524D01*
X017190Y023077D02*
X017247Y023021D01*
X017190Y023077D02*
X017077Y023077D01*
X017020Y023021D01*
X017020Y022964D01*
X017247Y022737D01*
X017020Y022737D01*
X017388Y022794D02*
X017388Y022850D01*
X017445Y022907D01*
X017502Y022907D01*
X017445Y022907D02*
X017388Y022964D01*
X017388Y023021D01*
X017445Y023077D01*
X017558Y023077D01*
X017615Y023021D01*
X017757Y023021D02*
X017813Y023077D01*
X017927Y023077D01*
X017983Y023021D01*
X017983Y022794D01*
X017927Y022737D01*
X017813Y022737D01*
X017757Y022794D01*
X017615Y022794D02*
X017558Y022737D01*
X017445Y022737D01*
X017388Y022794D01*
X018963Y022794D02*
X019020Y022737D01*
X019133Y022737D01*
X019190Y022794D01*
X019190Y022850D01*
X019133Y022907D01*
X019020Y022907D01*
X018963Y022850D01*
X018963Y022794D01*
X019020Y022907D02*
X018963Y022964D01*
X018963Y023021D01*
X019020Y023077D01*
X019133Y023077D01*
X019190Y023021D01*
X019190Y022964D01*
X019133Y022907D01*
X019331Y022794D02*
X019331Y023021D01*
X019388Y023077D01*
X019558Y023077D01*
X019558Y022737D01*
X019388Y022737D01*
X019331Y022794D01*
X020170Y022794D02*
X020226Y022737D01*
X020340Y022737D01*
X020396Y022794D01*
X020396Y022907D02*
X020283Y022964D01*
X020226Y022964D01*
X020170Y022907D01*
X020170Y022794D01*
X020396Y022907D02*
X020396Y023077D01*
X020170Y023077D01*
X020651Y023077D02*
X020651Y022737D01*
X020538Y022737D02*
X020765Y022737D01*
X020906Y022794D02*
X020963Y022737D01*
X021076Y022737D01*
X021133Y022794D01*
X021133Y023021D01*
X021076Y023077D01*
X020963Y023077D01*
X020906Y023021D01*
X020765Y022964D02*
X020651Y023077D01*
X020651Y023524D02*
X020651Y023865D01*
X020765Y023751D01*
X020906Y023695D02*
X020906Y023808D01*
X020963Y023865D01*
X021133Y023865D01*
X021133Y023524D01*
X021133Y023638D02*
X020963Y023638D01*
X020906Y023695D01*
X021020Y023638D02*
X020906Y023524D01*
X020765Y023524D02*
X020538Y023524D01*
X020396Y023581D02*
X020340Y023524D01*
X020226Y023524D01*
X020170Y023581D01*
X020170Y023695D01*
X020226Y023751D01*
X020283Y023751D01*
X020396Y023695D01*
X020396Y023865D01*
X020170Y023865D01*
X021744Y023865D02*
X021858Y023808D01*
X021971Y023695D01*
X021801Y023695D01*
X021744Y023638D01*
X021744Y023581D01*
X021801Y023524D01*
X021914Y023524D01*
X021971Y023581D01*
X021971Y023695D01*
X022113Y023524D02*
X022339Y023524D01*
X022226Y023524D02*
X022226Y023865D01*
X022339Y023751D01*
X022481Y023695D02*
X022481Y023808D01*
X022538Y023865D01*
X022708Y023865D01*
X022708Y023524D01*
X022708Y023638D02*
X022538Y023638D01*
X022481Y023695D01*
X022594Y023638D02*
X022481Y023524D01*
X022538Y023077D02*
X022651Y023077D01*
X022708Y023021D01*
X022708Y022794D01*
X022651Y022737D01*
X022538Y022737D01*
X022481Y022794D01*
X022339Y022737D02*
X022113Y022737D01*
X022226Y022737D02*
X022226Y023077D01*
X022339Y022964D01*
X022481Y023021D02*
X022538Y023077D01*
X021971Y022907D02*
X021971Y022794D01*
X021914Y022737D01*
X021801Y022737D01*
X021744Y022794D01*
X021744Y022850D01*
X021801Y022907D01*
X021971Y022907D01*
X021858Y023021D01*
X021744Y023077D01*
X021801Y021306D02*
X021971Y021135D01*
X021744Y021135D01*
X021801Y020965D02*
X021801Y021306D01*
X022226Y021306D02*
X022226Y020965D01*
X022339Y020965D02*
X022113Y020965D01*
X022339Y021192D02*
X022226Y021306D01*
X022481Y021249D02*
X022481Y021135D01*
X022538Y021079D01*
X022708Y021079D01*
X022594Y021079D02*
X022481Y020965D01*
X022708Y020965D02*
X022708Y021306D01*
X022538Y021306D01*
X022481Y021249D01*
X022538Y020518D02*
X022651Y020518D01*
X022708Y020461D01*
X022708Y020235D01*
X022651Y020178D01*
X022538Y020178D01*
X022481Y020235D01*
X022339Y020178D02*
X022113Y020178D01*
X022226Y020178D02*
X022226Y020518D01*
X022339Y020405D01*
X022481Y020461D02*
X022538Y020518D01*
X021971Y020348D02*
X021744Y020348D01*
X021801Y020178D02*
X021801Y020518D01*
X021971Y020348D01*
X021133Y020235D02*
X021076Y020178D01*
X020963Y020178D01*
X020906Y020235D01*
X020765Y020178D02*
X020538Y020178D01*
X020651Y020178D02*
X020651Y020518D01*
X020765Y020405D01*
X020906Y020461D02*
X020963Y020518D01*
X021076Y020518D01*
X021133Y020461D01*
X021133Y020235D01*
X020396Y020235D02*
X020340Y020178D01*
X020226Y020178D01*
X020170Y020235D01*
X020170Y020291D01*
X020226Y020348D01*
X020283Y020348D01*
X020226Y020348D02*
X020170Y020405D01*
X020170Y020461D01*
X020226Y020518D01*
X020340Y020518D01*
X020396Y020461D01*
X020340Y020965D02*
X020396Y021022D01*
X020340Y020965D02*
X020226Y020965D01*
X020170Y021022D01*
X020170Y021079D01*
X020226Y021135D01*
X020283Y021135D01*
X020226Y021135D02*
X020170Y021192D01*
X020170Y021249D01*
X020226Y021306D01*
X020340Y021306D01*
X020396Y021249D01*
X020651Y021306D02*
X020651Y020965D01*
X020538Y020965D02*
X020765Y020965D01*
X020906Y020965D02*
X021020Y021079D01*
X020963Y021079D02*
X021133Y021079D01*
X021133Y020965D02*
X021133Y021306D01*
X020963Y021306D01*
X020906Y021249D01*
X020906Y021135D01*
X020963Y021079D01*
X020765Y021192D02*
X020651Y021306D01*
X019558Y020518D02*
X019388Y020518D01*
X019331Y020461D01*
X019331Y020235D01*
X019388Y020178D01*
X019558Y020178D01*
X019558Y020518D01*
X019190Y020518D02*
X018963Y020518D01*
X018963Y020461D01*
X019190Y020235D01*
X019190Y020178D01*
X014834Y017959D02*
X014834Y017619D01*
X014664Y017619D01*
X014607Y017676D01*
X014607Y017902D01*
X014664Y017959D01*
X014834Y017959D01*
X014465Y017846D02*
X014352Y017959D01*
X014352Y017619D01*
X014465Y017619D02*
X014239Y017619D01*
X014097Y017789D02*
X013870Y017789D01*
X013927Y017959D02*
X014097Y017789D01*
X013927Y017619D02*
X013927Y017959D01*
X014097Y025296D02*
X014097Y025353D01*
X013870Y025580D01*
X013870Y025636D01*
X014097Y025636D01*
X014352Y025636D02*
X014465Y025523D01*
X014607Y025580D02*
X014664Y025636D01*
X014834Y025636D01*
X014834Y025296D01*
X014664Y025296D01*
X014607Y025353D01*
X014607Y025580D01*
X014352Y025636D02*
X014352Y025296D01*
X014465Y025296D02*
X014239Y025296D01*
X015445Y025466D02*
X015672Y025466D01*
X015502Y025636D01*
X015502Y025296D01*
X015813Y025353D02*
X015870Y025296D01*
X015984Y025296D01*
X016040Y025353D01*
X016182Y025353D02*
X016238Y025296D01*
X016352Y025296D01*
X016409Y025353D01*
X016409Y025580D01*
X016352Y025636D01*
X016238Y025636D01*
X016182Y025580D01*
X016040Y025580D02*
X015984Y025636D01*
X015870Y025636D01*
X015813Y025580D01*
X015813Y025523D01*
X015870Y025466D01*
X015813Y025409D01*
X015813Y025353D01*
X015870Y025466D02*
X015927Y025466D01*
X015984Y026083D02*
X016040Y026140D01*
X015984Y026083D02*
X015870Y026083D01*
X015813Y026140D01*
X015813Y026197D01*
X015870Y026254D01*
X015927Y026254D01*
X015870Y026254D02*
X015813Y026310D01*
X015813Y026367D01*
X015870Y026424D01*
X015984Y026424D01*
X016040Y026367D01*
X016182Y026367D02*
X016182Y026254D01*
X016238Y026197D01*
X016409Y026197D01*
X016409Y026083D02*
X016409Y026424D01*
X016238Y026424D01*
X016182Y026367D01*
X016295Y026197D02*
X016182Y026083D01*
X015672Y026254D02*
X015445Y026254D01*
X015502Y026424D02*
X015672Y026254D01*
X015502Y026424D02*
X015502Y026083D01*
X017020Y026140D02*
X017077Y026083D01*
X017190Y026083D01*
X017247Y026140D01*
X017247Y026254D02*
X017133Y026310D01*
X017077Y026310D01*
X017020Y026254D01*
X017020Y026140D01*
X017247Y026254D02*
X017247Y026424D01*
X017020Y026424D01*
X017388Y026367D02*
X017388Y026310D01*
X017445Y026254D01*
X017388Y026197D01*
X017388Y026140D01*
X017445Y026083D01*
X017558Y026083D01*
X017615Y026140D01*
X017757Y026083D02*
X017870Y026197D01*
X017813Y026197D02*
X017983Y026197D01*
X017983Y026083D02*
X017983Y026424D01*
X017813Y026424D01*
X017757Y026367D01*
X017757Y026254D01*
X017813Y026197D01*
X017615Y026367D02*
X017558Y026424D01*
X017445Y026424D01*
X017388Y026367D01*
X017445Y026254D02*
X017502Y026254D01*
X017558Y025636D02*
X017445Y025636D01*
X017388Y025580D01*
X017388Y025523D01*
X017445Y025466D01*
X017388Y025409D01*
X017388Y025353D01*
X017445Y025296D01*
X017558Y025296D01*
X017615Y025353D01*
X017757Y025353D02*
X017813Y025296D01*
X017927Y025296D01*
X017983Y025353D01*
X017983Y025580D01*
X017927Y025636D01*
X017813Y025636D01*
X017757Y025580D01*
X017615Y025580D02*
X017558Y025636D01*
X017502Y025466D02*
X017445Y025466D01*
X017247Y025466D02*
X017247Y025636D01*
X017020Y025636D01*
X017077Y025523D02*
X017020Y025466D01*
X017020Y025353D01*
X017077Y025296D01*
X017190Y025296D01*
X017247Y025353D01*
X017247Y025466D02*
X017133Y025523D01*
X017077Y025523D01*
X017077Y005951D02*
X017020Y005895D01*
X017020Y005838D01*
X017077Y005781D01*
X017190Y005781D01*
X017247Y005838D01*
X017247Y005895D01*
X017190Y005951D01*
X017077Y005951D01*
X017077Y005781D02*
X017020Y005724D01*
X017020Y005668D01*
X017077Y005611D01*
X017190Y005611D01*
X017247Y005668D01*
X017247Y005724D01*
X017190Y005781D01*
X017388Y005611D02*
X017615Y005611D01*
X017502Y005611D02*
X017502Y005951D01*
X017615Y005838D01*
X017757Y005895D02*
X017757Y005781D01*
X017813Y005724D01*
X017983Y005724D01*
X017983Y005611D02*
X017983Y005951D01*
X017813Y005951D01*
X017757Y005895D01*
X017870Y005724D02*
X017757Y005611D01*
X017813Y005164D02*
X017927Y005164D01*
X017983Y005107D01*
X017983Y004880D01*
X017927Y004824D01*
X017813Y004824D01*
X017757Y004880D01*
X017615Y004824D02*
X017388Y004824D01*
X017502Y004824D02*
X017502Y005164D01*
X017615Y005050D01*
X017757Y005107D02*
X017813Y005164D01*
X017247Y005107D02*
X017247Y005050D01*
X017190Y004994D01*
X017077Y004994D01*
X017020Y004937D01*
X017020Y004880D01*
X017077Y004824D01*
X017190Y004824D01*
X017247Y004880D01*
X017247Y004937D01*
X017190Y004994D01*
X017077Y004994D02*
X017020Y005050D01*
X017020Y005107D01*
X017077Y005164D01*
X017190Y005164D01*
X017247Y005107D01*
X016409Y005107D02*
X016409Y004880D01*
X016352Y004824D01*
X016238Y004824D01*
X016182Y004880D01*
X016040Y004824D02*
X015813Y004824D01*
X015927Y004824D02*
X015927Y005164D01*
X016040Y005050D01*
X016182Y005107D02*
X016238Y005164D01*
X016352Y005164D01*
X016409Y005107D01*
X016409Y005611D02*
X016409Y005951D01*
X016238Y005951D01*
X016182Y005895D01*
X016182Y005781D01*
X016238Y005724D01*
X016409Y005724D01*
X016295Y005724D02*
X016182Y005611D01*
X016040Y005611D02*
X015813Y005611D01*
X015927Y005611D02*
X015927Y005951D01*
X016040Y005838D01*
X015672Y005951D02*
X015445Y005951D01*
X015445Y005895D01*
X015672Y005668D01*
X015672Y005611D01*
X015672Y005164D02*
X015445Y005164D01*
X015445Y005107D01*
X015672Y004880D01*
X015672Y004824D01*
X014834Y004824D02*
X014834Y005164D01*
X014664Y005164D01*
X014607Y005107D01*
X014607Y004880D01*
X014664Y004824D01*
X014834Y004824D01*
X014465Y004880D02*
X014409Y004824D01*
X014295Y004824D01*
X014239Y004880D01*
X014239Y005107D01*
X014295Y005164D01*
X014409Y005164D01*
X014465Y005107D01*
X014465Y005050D01*
X014409Y004994D01*
X014239Y004994D01*
X018963Y004824D02*
X019190Y004824D01*
X019076Y004824D02*
X019076Y005164D01*
X019190Y005050D01*
X019331Y005107D02*
X019388Y005164D01*
X019558Y005164D01*
X019558Y004824D01*
X019388Y004824D01*
X019331Y004880D01*
X019331Y005107D01*
X020538Y004824D02*
X020765Y004824D01*
X020651Y004824D02*
X020651Y005164D01*
X020765Y005050D01*
X020906Y005107D02*
X020963Y005164D01*
X021076Y005164D01*
X021133Y005107D01*
X021133Y004880D01*
X021076Y004824D01*
X020963Y004824D01*
X020906Y004880D01*
X022113Y004824D02*
X022339Y004824D01*
X022113Y005050D01*
X022113Y005107D01*
X022169Y005164D01*
X022283Y005164D01*
X022339Y005107D01*
X022481Y005107D02*
X022538Y005164D01*
X022651Y005164D01*
X022708Y005107D01*
X022708Y004880D01*
X022651Y004824D01*
X022538Y004824D01*
X022481Y004880D01*
X022481Y005611D02*
X022594Y005724D01*
X022538Y005724D02*
X022708Y005724D01*
X022708Y005611D02*
X022708Y005951D01*
X022538Y005951D01*
X022481Y005895D01*
X022481Y005781D01*
X022538Y005724D01*
X022339Y005611D02*
X022113Y005838D01*
X022113Y005895D01*
X022169Y005951D01*
X022283Y005951D01*
X022339Y005895D01*
X022339Y005611D02*
X022113Y005611D01*
X021133Y005611D02*
X021133Y005951D01*
X020963Y005951D01*
X020906Y005895D01*
X020906Y005781D01*
X020963Y005724D01*
X021133Y005724D01*
X021020Y005724D02*
X020906Y005611D01*
X020765Y005611D02*
X020538Y005611D01*
X020651Y005611D02*
X020651Y005951D01*
X020765Y005838D01*
D14*
X007974Y003416D02*
X044194Y003416D01*
X043564Y004990D02*
X043566Y005040D01*
X043572Y005090D01*
X043582Y005139D01*
X043596Y005187D01*
X043613Y005234D01*
X043634Y005279D01*
X043659Y005323D01*
X043687Y005364D01*
X043719Y005403D01*
X043753Y005440D01*
X043790Y005474D01*
X043830Y005504D01*
X043872Y005531D01*
X043916Y005555D01*
X043962Y005576D01*
X044009Y005592D01*
X044057Y005605D01*
X044107Y005614D01*
X044156Y005619D01*
X044207Y005620D01*
X044257Y005617D01*
X044306Y005610D01*
X044355Y005599D01*
X044403Y005584D01*
X044449Y005566D01*
X044494Y005544D01*
X044537Y005518D01*
X044578Y005489D01*
X044617Y005457D01*
X044653Y005422D01*
X044685Y005384D01*
X044715Y005344D01*
X044742Y005301D01*
X044765Y005257D01*
X044784Y005211D01*
X044800Y005163D01*
X044812Y005114D01*
X044820Y005065D01*
X044824Y005015D01*
X044824Y004965D01*
X044820Y004915D01*
X044812Y004866D01*
X044800Y004817D01*
X044784Y004769D01*
X044765Y004723D01*
X044742Y004679D01*
X044715Y004636D01*
X044685Y004596D01*
X044653Y004558D01*
X044617Y004523D01*
X044578Y004491D01*
X044537Y004462D01*
X044494Y004436D01*
X044449Y004414D01*
X044403Y004396D01*
X044355Y004381D01*
X044306Y004370D01*
X044257Y004363D01*
X044207Y004360D01*
X044156Y004361D01*
X044107Y004366D01*
X044057Y004375D01*
X044009Y004388D01*
X043962Y004404D01*
X043916Y004425D01*
X043872Y004449D01*
X043830Y004476D01*
X043790Y004506D01*
X043753Y004540D01*
X043719Y004577D01*
X043687Y004616D01*
X043659Y004657D01*
X043634Y004701D01*
X043613Y004746D01*
X043596Y004793D01*
X043582Y004841D01*
X043572Y004890D01*
X043566Y004940D01*
X043564Y004990D01*
X044194Y003415D02*
X044271Y003417D01*
X044348Y003423D01*
X044425Y003432D01*
X044501Y003445D01*
X044577Y003462D01*
X044651Y003483D01*
X044725Y003507D01*
X044797Y003535D01*
X044867Y003566D01*
X044936Y003601D01*
X045004Y003639D01*
X045069Y003680D01*
X045132Y003725D01*
X045193Y003773D01*
X045252Y003823D01*
X045308Y003876D01*
X045361Y003932D01*
X045411Y003991D01*
X045459Y004052D01*
X045504Y004115D01*
X045545Y004180D01*
X045583Y004248D01*
X045618Y004317D01*
X045649Y004387D01*
X045677Y004459D01*
X045701Y004533D01*
X045722Y004607D01*
X045739Y004683D01*
X045752Y004759D01*
X045761Y004836D01*
X045767Y004913D01*
X045769Y004990D01*
X045769Y026250D01*
X043564Y026250D02*
X043566Y026300D01*
X043572Y026350D01*
X043582Y026399D01*
X043596Y026447D01*
X043613Y026494D01*
X043634Y026539D01*
X043659Y026583D01*
X043687Y026624D01*
X043719Y026663D01*
X043753Y026700D01*
X043790Y026734D01*
X043830Y026764D01*
X043872Y026791D01*
X043916Y026815D01*
X043962Y026836D01*
X044009Y026852D01*
X044057Y026865D01*
X044107Y026874D01*
X044156Y026879D01*
X044207Y026880D01*
X044257Y026877D01*
X044306Y026870D01*
X044355Y026859D01*
X044403Y026844D01*
X044449Y026826D01*
X044494Y026804D01*
X044537Y026778D01*
X044578Y026749D01*
X044617Y026717D01*
X044653Y026682D01*
X044685Y026644D01*
X044715Y026604D01*
X044742Y026561D01*
X044765Y026517D01*
X044784Y026471D01*
X044800Y026423D01*
X044812Y026374D01*
X044820Y026325D01*
X044824Y026275D01*
X044824Y026225D01*
X044820Y026175D01*
X044812Y026126D01*
X044800Y026077D01*
X044784Y026029D01*
X044765Y025983D01*
X044742Y025939D01*
X044715Y025896D01*
X044685Y025856D01*
X044653Y025818D01*
X044617Y025783D01*
X044578Y025751D01*
X044537Y025722D01*
X044494Y025696D01*
X044449Y025674D01*
X044403Y025656D01*
X044355Y025641D01*
X044306Y025630D01*
X044257Y025623D01*
X044207Y025620D01*
X044156Y025621D01*
X044107Y025626D01*
X044057Y025635D01*
X044009Y025648D01*
X043962Y025664D01*
X043916Y025685D01*
X043872Y025709D01*
X043830Y025736D01*
X043790Y025766D01*
X043753Y025800D01*
X043719Y025837D01*
X043687Y025876D01*
X043659Y025917D01*
X043634Y025961D01*
X043613Y026006D01*
X043596Y026053D01*
X043582Y026101D01*
X043572Y026150D01*
X043566Y026200D01*
X043564Y026250D01*
X044194Y027825D02*
X044271Y027823D01*
X044348Y027817D01*
X044425Y027808D01*
X044501Y027795D01*
X044577Y027778D01*
X044651Y027757D01*
X044725Y027733D01*
X044797Y027705D01*
X044867Y027674D01*
X044936Y027639D01*
X045004Y027601D01*
X045069Y027560D01*
X045132Y027515D01*
X045193Y027467D01*
X045252Y027417D01*
X045308Y027364D01*
X045361Y027308D01*
X045411Y027249D01*
X045459Y027188D01*
X045504Y027125D01*
X045545Y027060D01*
X045583Y026992D01*
X045618Y026923D01*
X045649Y026853D01*
X045677Y026781D01*
X045701Y026707D01*
X045722Y026633D01*
X045739Y026557D01*
X045752Y026481D01*
X045761Y026404D01*
X045767Y026327D01*
X045769Y026250D01*
X045767Y026327D01*
X045761Y026404D01*
X045752Y026481D01*
X045739Y026557D01*
X045722Y026633D01*
X045701Y026707D01*
X045677Y026781D01*
X045649Y026853D01*
X045618Y026923D01*
X045583Y026992D01*
X045545Y027060D01*
X045504Y027125D01*
X045459Y027188D01*
X045411Y027249D01*
X045361Y027308D01*
X045308Y027364D01*
X045252Y027417D01*
X045193Y027467D01*
X045132Y027515D01*
X045069Y027560D01*
X045004Y027601D01*
X044936Y027639D01*
X044867Y027674D01*
X044797Y027705D01*
X044725Y027733D01*
X044651Y027757D01*
X044577Y027778D01*
X044501Y027795D01*
X044425Y027808D01*
X044348Y027817D01*
X044271Y027823D01*
X044194Y027825D01*
X007974Y027825D01*
X007344Y026250D02*
X007346Y026300D01*
X007352Y026350D01*
X007362Y026399D01*
X007376Y026447D01*
X007393Y026494D01*
X007414Y026539D01*
X007439Y026583D01*
X007467Y026624D01*
X007499Y026663D01*
X007533Y026700D01*
X007570Y026734D01*
X007610Y026764D01*
X007652Y026791D01*
X007696Y026815D01*
X007742Y026836D01*
X007789Y026852D01*
X007837Y026865D01*
X007887Y026874D01*
X007936Y026879D01*
X007987Y026880D01*
X008037Y026877D01*
X008086Y026870D01*
X008135Y026859D01*
X008183Y026844D01*
X008229Y026826D01*
X008274Y026804D01*
X008317Y026778D01*
X008358Y026749D01*
X008397Y026717D01*
X008433Y026682D01*
X008465Y026644D01*
X008495Y026604D01*
X008522Y026561D01*
X008545Y026517D01*
X008564Y026471D01*
X008580Y026423D01*
X008592Y026374D01*
X008600Y026325D01*
X008604Y026275D01*
X008604Y026225D01*
X008600Y026175D01*
X008592Y026126D01*
X008580Y026077D01*
X008564Y026029D01*
X008545Y025983D01*
X008522Y025939D01*
X008495Y025896D01*
X008465Y025856D01*
X008433Y025818D01*
X008397Y025783D01*
X008358Y025751D01*
X008317Y025722D01*
X008274Y025696D01*
X008229Y025674D01*
X008183Y025656D01*
X008135Y025641D01*
X008086Y025630D01*
X008037Y025623D01*
X007987Y025620D01*
X007936Y025621D01*
X007887Y025626D01*
X007837Y025635D01*
X007789Y025648D01*
X007742Y025664D01*
X007696Y025685D01*
X007652Y025709D01*
X007610Y025736D01*
X007570Y025766D01*
X007533Y025800D01*
X007499Y025837D01*
X007467Y025876D01*
X007439Y025917D01*
X007414Y025961D01*
X007393Y026006D01*
X007376Y026053D01*
X007362Y026101D01*
X007352Y026150D01*
X007346Y026200D01*
X007344Y026250D01*
X006399Y026250D02*
X006401Y026327D01*
X006407Y026404D01*
X006416Y026481D01*
X006429Y026557D01*
X006446Y026633D01*
X006467Y026707D01*
X006491Y026781D01*
X006519Y026853D01*
X006550Y026923D01*
X006585Y026992D01*
X006623Y027060D01*
X006664Y027125D01*
X006709Y027188D01*
X006757Y027249D01*
X006807Y027308D01*
X006860Y027364D01*
X006916Y027417D01*
X006975Y027467D01*
X007036Y027515D01*
X007099Y027560D01*
X007164Y027601D01*
X007232Y027639D01*
X007301Y027674D01*
X007371Y027705D01*
X007443Y027733D01*
X007517Y027757D01*
X007591Y027778D01*
X007667Y027795D01*
X007743Y027808D01*
X007820Y027817D01*
X007897Y027823D01*
X007974Y027825D01*
X007897Y027823D01*
X007820Y027817D01*
X007743Y027808D01*
X007667Y027795D01*
X007591Y027778D01*
X007517Y027757D01*
X007443Y027733D01*
X007371Y027705D01*
X007301Y027674D01*
X007232Y027639D01*
X007164Y027601D01*
X007099Y027560D01*
X007036Y027515D01*
X006975Y027467D01*
X006916Y027417D01*
X006860Y027364D01*
X006807Y027308D01*
X006757Y027249D01*
X006709Y027188D01*
X006664Y027125D01*
X006623Y027060D01*
X006585Y026992D01*
X006550Y026923D01*
X006519Y026853D01*
X006491Y026781D01*
X006467Y026707D01*
X006446Y026633D01*
X006429Y026557D01*
X006416Y026481D01*
X006407Y026404D01*
X006401Y026327D01*
X006399Y026250D01*
X006399Y004990D01*
X007344Y004990D02*
X007346Y005040D01*
X007352Y005090D01*
X007362Y005139D01*
X007376Y005187D01*
X007393Y005234D01*
X007414Y005279D01*
X007439Y005323D01*
X007467Y005364D01*
X007499Y005403D01*
X007533Y005440D01*
X007570Y005474D01*
X007610Y005504D01*
X007652Y005531D01*
X007696Y005555D01*
X007742Y005576D01*
X007789Y005592D01*
X007837Y005605D01*
X007887Y005614D01*
X007936Y005619D01*
X007987Y005620D01*
X008037Y005617D01*
X008086Y005610D01*
X008135Y005599D01*
X008183Y005584D01*
X008229Y005566D01*
X008274Y005544D01*
X008317Y005518D01*
X008358Y005489D01*
X008397Y005457D01*
X008433Y005422D01*
X008465Y005384D01*
X008495Y005344D01*
X008522Y005301D01*
X008545Y005257D01*
X008564Y005211D01*
X008580Y005163D01*
X008592Y005114D01*
X008600Y005065D01*
X008604Y005015D01*
X008604Y004965D01*
X008600Y004915D01*
X008592Y004866D01*
X008580Y004817D01*
X008564Y004769D01*
X008545Y004723D01*
X008522Y004679D01*
X008495Y004636D01*
X008465Y004596D01*
X008433Y004558D01*
X008397Y004523D01*
X008358Y004491D01*
X008317Y004462D01*
X008274Y004436D01*
X008229Y004414D01*
X008183Y004396D01*
X008135Y004381D01*
X008086Y004370D01*
X008037Y004363D01*
X007987Y004360D01*
X007936Y004361D01*
X007887Y004366D01*
X007837Y004375D01*
X007789Y004388D01*
X007742Y004404D01*
X007696Y004425D01*
X007652Y004449D01*
X007610Y004476D01*
X007570Y004506D01*
X007533Y004540D01*
X007499Y004577D01*
X007467Y004616D01*
X007439Y004657D01*
X007414Y004701D01*
X007393Y004746D01*
X007376Y004793D01*
X007362Y004841D01*
X007352Y004890D01*
X007346Y004940D01*
X007344Y004990D01*
X006399Y004990D02*
X006401Y004913D01*
X006407Y004836D01*
X006416Y004759D01*
X006429Y004683D01*
X006446Y004607D01*
X006467Y004533D01*
X006491Y004459D01*
X006519Y004387D01*
X006550Y004317D01*
X006585Y004248D01*
X006623Y004180D01*
X006664Y004115D01*
X006709Y004052D01*
X006757Y003991D01*
X006807Y003932D01*
X006860Y003876D01*
X006916Y003823D01*
X006975Y003773D01*
X007036Y003725D01*
X007099Y003680D01*
X007164Y003639D01*
X007232Y003601D01*
X007301Y003566D01*
X007371Y003535D01*
X007443Y003507D01*
X007517Y003483D01*
X007591Y003462D01*
X007667Y003445D01*
X007743Y003432D01*
X007820Y003423D01*
X007897Y003417D01*
X007974Y003415D01*
X007897Y003417D01*
X007820Y003423D01*
X007743Y003432D01*
X007667Y003445D01*
X007591Y003462D01*
X007517Y003483D01*
X007443Y003507D01*
X007371Y003535D01*
X007301Y003566D01*
X007232Y003601D01*
X007164Y003639D01*
X007099Y003680D01*
X007036Y003725D01*
X006975Y003773D01*
X006916Y003823D01*
X006860Y003876D01*
X006807Y003932D01*
X006757Y003991D01*
X006709Y004052D01*
X006664Y004115D01*
X006623Y004180D01*
X006585Y004248D01*
X006550Y004317D01*
X006519Y004387D01*
X006491Y004459D01*
X006467Y004533D01*
X006446Y004607D01*
X006429Y004683D01*
X006416Y004759D01*
X006407Y004836D01*
X006401Y004913D01*
X006399Y004990D01*
X006401Y004913D01*
X006407Y004836D01*
X006416Y004759D01*
X006429Y004683D01*
X006446Y004607D01*
X006467Y004533D01*
X006491Y004459D01*
X006519Y004387D01*
X006550Y004317D01*
X006585Y004248D01*
X006623Y004180D01*
X006664Y004115D01*
X006709Y004052D01*
X006757Y003991D01*
X006807Y003932D01*
X006860Y003876D01*
X006916Y003823D01*
X006975Y003773D01*
X007036Y003725D01*
X007099Y003680D01*
X007164Y003639D01*
X007232Y003601D01*
X007301Y003566D01*
X007371Y003535D01*
X007443Y003507D01*
X007517Y003483D01*
X007591Y003462D01*
X007667Y003445D01*
X007743Y003432D01*
X007820Y003423D01*
X007897Y003417D01*
X007974Y003415D01*
X043407Y022038D02*
X043409Y022065D01*
X043415Y022092D01*
X043424Y022118D01*
X043437Y022142D01*
X043453Y022165D01*
X043472Y022184D01*
X043494Y022201D01*
X043518Y022215D01*
X043543Y022225D01*
X043570Y022232D01*
X043597Y022235D01*
X043625Y022234D01*
X043652Y022229D01*
X043678Y022221D01*
X043702Y022209D01*
X043725Y022193D01*
X043746Y022175D01*
X043763Y022154D01*
X043778Y022130D01*
X043789Y022105D01*
X043797Y022079D01*
X043801Y022052D01*
X043801Y022024D01*
X043797Y021997D01*
X043789Y021971D01*
X043778Y021946D01*
X043763Y021922D01*
X043746Y021901D01*
X043725Y021883D01*
X043703Y021867D01*
X043678Y021855D01*
X043652Y021847D01*
X043625Y021842D01*
X043597Y021841D01*
X043570Y021844D01*
X043543Y021851D01*
X043518Y021861D01*
X043494Y021875D01*
X043472Y021892D01*
X043453Y021911D01*
X043437Y021934D01*
X043424Y021958D01*
X043415Y021984D01*
X043409Y022011D01*
X043407Y022038D01*
X043407Y023770D02*
X043409Y023797D01*
X043415Y023824D01*
X043424Y023850D01*
X043437Y023874D01*
X043453Y023897D01*
X043472Y023916D01*
X043494Y023933D01*
X043518Y023947D01*
X043543Y023957D01*
X043570Y023964D01*
X043597Y023967D01*
X043625Y023966D01*
X043652Y023961D01*
X043678Y023953D01*
X043702Y023941D01*
X043725Y023925D01*
X043746Y023907D01*
X043763Y023886D01*
X043778Y023862D01*
X043789Y023837D01*
X043797Y023811D01*
X043801Y023784D01*
X043801Y023756D01*
X043797Y023729D01*
X043789Y023703D01*
X043778Y023678D01*
X043763Y023654D01*
X043746Y023633D01*
X043725Y023615D01*
X043703Y023599D01*
X043678Y023587D01*
X043652Y023579D01*
X043625Y023574D01*
X043597Y023573D01*
X043570Y023576D01*
X043543Y023583D01*
X043518Y023593D01*
X043494Y023607D01*
X043472Y023624D01*
X043453Y023643D01*
X043437Y023666D01*
X043424Y023690D01*
X043415Y023716D01*
X043409Y023743D01*
X043407Y023770D01*
X045769Y026250D02*
X045767Y026327D01*
X045761Y026404D01*
X045752Y026481D01*
X045739Y026557D01*
X045722Y026633D01*
X045701Y026707D01*
X045677Y026781D01*
X045649Y026853D01*
X045618Y026923D01*
X045583Y026992D01*
X045545Y027060D01*
X045504Y027125D01*
X045459Y027188D01*
X045411Y027249D01*
X045361Y027308D01*
X045308Y027364D01*
X045252Y027417D01*
X045193Y027467D01*
X045132Y027515D01*
X045069Y027560D01*
X045004Y027601D01*
X044936Y027639D01*
X044867Y027674D01*
X044797Y027705D01*
X044725Y027733D01*
X044651Y027757D01*
X044577Y027778D01*
X044501Y027795D01*
X044425Y027808D01*
X044348Y027817D01*
X044271Y027823D01*
X044194Y027825D01*
X007974Y027825D02*
X007897Y027823D01*
X007820Y027817D01*
X007743Y027808D01*
X007667Y027795D01*
X007591Y027778D01*
X007517Y027757D01*
X007443Y027733D01*
X007371Y027705D01*
X007301Y027674D01*
X007232Y027639D01*
X007164Y027601D01*
X007099Y027560D01*
X007036Y027515D01*
X006975Y027467D01*
X006916Y027417D01*
X006860Y027364D01*
X006807Y027308D01*
X006757Y027249D01*
X006709Y027188D01*
X006664Y027125D01*
X006623Y027060D01*
X006585Y026992D01*
X006550Y026923D01*
X006519Y026853D01*
X006491Y026781D01*
X006467Y026707D01*
X006446Y026633D01*
X006429Y026557D01*
X006416Y026481D01*
X006407Y026404D01*
X006401Y026327D01*
X006399Y026250D01*
X044194Y003415D02*
X044271Y003417D01*
X044348Y003423D01*
X044425Y003432D01*
X044501Y003445D01*
X044577Y003462D01*
X044651Y003483D01*
X044725Y003507D01*
X044797Y003535D01*
X044867Y003566D01*
X044936Y003601D01*
X045004Y003639D01*
X045069Y003680D01*
X045132Y003725D01*
X045193Y003773D01*
X045252Y003823D01*
X045308Y003876D01*
X045361Y003932D01*
X045411Y003991D01*
X045459Y004052D01*
X045504Y004115D01*
X045545Y004180D01*
X045583Y004248D01*
X045618Y004317D01*
X045649Y004387D01*
X045677Y004459D01*
X045701Y004533D01*
X045722Y004607D01*
X045739Y004683D01*
X045752Y004759D01*
X045761Y004836D01*
X045767Y004913D01*
X045769Y004990D01*
X045767Y004913D01*
X045761Y004836D01*
X045752Y004759D01*
X045739Y004683D01*
X045722Y004607D01*
X045701Y004533D01*
X045677Y004459D01*
X045649Y004387D01*
X045618Y004317D01*
X045583Y004248D01*
X045545Y004180D01*
X045504Y004115D01*
X045459Y004052D01*
X045411Y003991D01*
X045361Y003932D01*
X045308Y003876D01*
X045252Y003823D01*
X045193Y003773D01*
X045132Y003725D01*
X045069Y003680D01*
X045004Y003639D01*
X044936Y003601D01*
X044867Y003566D01*
X044797Y003535D01*
X044725Y003507D01*
X044651Y003483D01*
X044577Y003462D01*
X044501Y003445D01*
X044425Y003432D01*
X044348Y003423D01*
X044271Y003417D01*
X044194Y003415D01*
D15*
X033483Y026829D02*
X033483Y027156D01*
X033646Y026993D02*
X033319Y026993D01*
X032892Y026914D02*
X032565Y026914D01*
D16*
X030887Y026311D03*
X030887Y026294D03*
X030887Y026276D03*
X030905Y026258D03*
X030905Y026240D03*
X030905Y026223D03*
X030870Y026223D03*
X030870Y026205D03*
X030852Y026240D03*
X030852Y026258D03*
X030852Y026276D03*
X030834Y026294D03*
X030834Y026311D03*
X030817Y026347D03*
X030817Y026364D03*
X030852Y026382D03*
X030852Y026400D03*
X030834Y026418D03*
X030834Y026435D03*
X030834Y026453D03*
X030817Y026488D03*
X030799Y026542D03*
X030781Y026559D03*
X030781Y026577D03*
X030781Y026595D03*
X030763Y026612D03*
X030763Y026630D03*
X030746Y026648D03*
X030746Y026666D03*
X030710Y026648D03*
X030710Y026630D03*
X030728Y026595D03*
X030746Y026559D03*
X030746Y026542D03*
X030693Y026683D03*
X030675Y026719D03*
X030675Y026736D03*
X030710Y026736D03*
X030639Y026807D03*
X030639Y026825D03*
X030604Y026825D03*
X030604Y026807D03*
X030622Y026860D03*
X030657Y026860D03*
X030586Y026860D03*
X030586Y026878D03*
X030569Y026896D03*
X030569Y026914D03*
X030551Y026931D03*
X030551Y026949D03*
X030569Y026985D03*
X030569Y027002D03*
X030551Y027020D03*
X030551Y027038D03*
X030533Y027055D03*
X030533Y027073D03*
X030515Y027091D03*
X030515Y027109D03*
X030515Y027126D03*
X030498Y027144D03*
X030498Y027162D03*
X030480Y027179D03*
X030480Y027197D03*
X030462Y027215D03*
X030444Y027197D03*
X030444Y027179D03*
X030462Y027162D03*
X030462Y027144D03*
X030480Y027126D03*
X030480Y027109D03*
X030498Y027073D03*
X030498Y027055D03*
X030515Y027038D03*
X030515Y027020D03*
X030533Y027002D03*
X030533Y026985D03*
X030728Y026843D03*
X030870Y026347D03*
X030870Y026329D03*
X030923Y026170D03*
X030941Y026152D03*
X030941Y026134D03*
X030905Y026134D03*
X030905Y026116D03*
X030905Y026099D03*
X030958Y026099D03*
X030958Y026081D03*
X030976Y026028D03*
X030994Y026010D03*
X030994Y025992D03*
X030994Y025975D03*
X031011Y025957D03*
X031011Y025939D03*
X031029Y025922D03*
X031029Y025904D03*
X031029Y025886D03*
X031047Y025868D03*
X031047Y025851D03*
X031047Y025833D03*
X031065Y025815D03*
X031065Y025798D03*
X031065Y025780D03*
X031029Y025780D03*
X031029Y025798D03*
X031011Y025833D03*
X031011Y025851D03*
X030994Y025886D03*
X030994Y025904D03*
X030976Y025939D03*
X030976Y025957D03*
X030958Y025975D03*
X030958Y025992D03*
X031047Y025744D03*
X031082Y025744D03*
X031065Y025709D03*
X031065Y025691D03*
X031100Y025691D03*
X031100Y025709D03*
X031082Y025656D03*
X031082Y025638D03*
X031118Y025638D03*
X031118Y025656D03*
X031135Y025603D03*
X031135Y025585D03*
X031100Y025585D03*
X031100Y025603D03*
X031118Y025549D03*
X031153Y025549D03*
X031224Y025231D03*
X031224Y025213D03*
X031242Y025177D03*
X031242Y025160D03*
X031242Y025142D03*
X031259Y025124D03*
X031259Y025107D03*
X031259Y025089D03*
X031277Y025071D03*
X031277Y025053D03*
X031277Y025036D03*
X031295Y025000D03*
X031295Y024983D03*
X031313Y024947D03*
X031313Y024929D03*
X031330Y024876D03*
X031348Y024841D03*
X030834Y025053D03*
X030728Y025053D03*
X030728Y025036D03*
X030728Y025071D03*
X030710Y025107D03*
X030710Y025124D03*
X030693Y025160D03*
X030693Y025177D03*
X030675Y025213D03*
X030675Y025231D03*
X030657Y025266D03*
X030657Y025284D03*
X030657Y025301D03*
X030639Y025337D03*
X030639Y025355D03*
X030622Y025390D03*
X030622Y025408D03*
X030604Y025443D03*
X030604Y025461D03*
X030569Y025567D03*
X030569Y025585D03*
X030267Y025496D03*
X030285Y025443D03*
X030285Y025425D03*
X030303Y025408D03*
X030303Y025390D03*
X030320Y025355D03*
X030338Y025319D03*
X030338Y025301D03*
X030356Y025284D03*
X030356Y025266D03*
X030374Y025231D03*
X030374Y025213D03*
X030391Y025160D03*
X030480Y025107D03*
X030462Y024965D03*
X030462Y024947D03*
X030480Y024894D03*
X030498Y024841D03*
X030498Y024823D03*
X029931Y024557D03*
X029931Y024540D03*
X029948Y024504D03*
X029948Y024486D03*
X029966Y024451D03*
X030002Y024345D03*
X030019Y024309D03*
X030019Y024292D03*
X030037Y024256D03*
X030037Y024238D03*
X030055Y024203D03*
X030055Y024185D03*
X030072Y024168D03*
X030072Y024150D03*
X030090Y024114D03*
X030090Y024097D03*
X030108Y024079D03*
X030108Y024061D03*
X029842Y024238D03*
X029913Y024593D03*
X029895Y024646D03*
X029878Y024681D03*
X029860Y024735D03*
X029824Y024823D03*
X029807Y024876D03*
X029789Y024912D03*
X029736Y024947D03*
X029718Y024929D03*
X029328Y024841D03*
X029328Y024823D03*
X029311Y024876D03*
X029293Y024912D03*
X029293Y024929D03*
X029275Y024965D03*
X029257Y025000D03*
X029257Y025018D03*
X029240Y025036D03*
X029240Y025053D03*
X029222Y025089D03*
X029222Y025107D03*
X029151Y025248D03*
X029009Y025177D03*
X029009Y025160D03*
X028992Y025142D03*
X028992Y025124D03*
X029027Y025124D03*
X029027Y025142D03*
X029009Y025089D03*
X029045Y025089D03*
X029063Y025053D03*
X029027Y025053D03*
X029045Y025000D03*
X029080Y025000D03*
X029063Y024965D03*
X029098Y024965D03*
X029080Y024805D03*
X029187Y024664D03*
X029204Y024628D03*
X028939Y024486D03*
X028956Y024433D03*
X028956Y024416D03*
X028974Y024362D03*
X028992Y024309D03*
X028992Y024292D03*
X029009Y024238D03*
X029009Y024221D03*
X029027Y024168D03*
X028885Y024610D03*
X028761Y025000D03*
X028726Y025000D03*
X028744Y025036D03*
X028744Y025053D03*
X028708Y025053D03*
X028708Y025036D03*
X028691Y025089D03*
X028691Y025107D03*
X028673Y025124D03*
X028673Y025142D03*
X028655Y025160D03*
X028655Y025177D03*
X028691Y025195D03*
X028691Y025213D03*
X028673Y025231D03*
X028673Y025248D03*
X028673Y025266D03*
X028655Y025284D03*
X028655Y025301D03*
X028655Y025319D03*
X028637Y025337D03*
X028602Y025319D03*
X028602Y025301D03*
X028602Y025284D03*
X028620Y025266D03*
X028620Y025248D03*
X028637Y025231D03*
X028637Y025213D03*
X028708Y025160D03*
X028708Y025142D03*
X028726Y025124D03*
X028726Y025107D03*
X028726Y025089D03*
X028939Y025213D03*
X028992Y025213D03*
X028992Y025195D03*
X028885Y025514D03*
X028885Y025532D03*
X028868Y025549D03*
X028868Y025567D03*
X028850Y025603D03*
X028832Y025638D03*
X028815Y025673D03*
X028815Y025691D03*
X028797Y025709D03*
X028797Y025727D03*
X028779Y025762D03*
X028761Y025798D03*
X028744Y025833D03*
X028744Y025851D03*
X028726Y025868D03*
X028726Y025886D03*
X028708Y025904D03*
X028708Y025922D03*
X028691Y025939D03*
X028885Y025957D03*
X028903Y025939D03*
X028921Y025904D03*
X028974Y026046D03*
X029045Y026046D03*
X029240Y026134D03*
X029240Y026152D03*
X029222Y026170D03*
X029222Y026205D03*
X029257Y026205D03*
X029275Y026187D03*
X029275Y026170D03*
X029257Y026099D03*
X029275Y026063D03*
X029293Y026028D03*
X029293Y026010D03*
X029311Y025992D03*
X029311Y025975D03*
X029328Y025957D03*
X029328Y025939D03*
X029346Y025922D03*
X029346Y025904D03*
X029381Y025833D03*
X029452Y025798D03*
X029470Y025762D03*
X029488Y025709D03*
X029506Y025673D03*
X029506Y025656D03*
X029470Y025656D03*
X029488Y025620D03*
X029523Y025620D03*
X029541Y025585D03*
X029541Y025567D03*
X029506Y025567D03*
X029523Y025532D03*
X029523Y025514D03*
X029541Y025496D03*
X029541Y025479D03*
X029576Y025479D03*
X029576Y025496D03*
X029559Y025514D03*
X029559Y025532D03*
X029559Y025443D03*
X029594Y025443D03*
X030126Y025744D03*
X030055Y025939D03*
X030037Y025975D03*
X030019Y026010D03*
X030019Y026028D03*
X030002Y026046D03*
X030002Y026063D03*
X029984Y026099D03*
X029966Y026134D03*
X029948Y026170D03*
X029931Y026205D03*
X029948Y026240D03*
X029913Y026240D03*
X029878Y026311D03*
X029807Y026329D03*
X029771Y026418D03*
X029771Y026435D03*
X029754Y026471D03*
X029754Y026488D03*
X029771Y026595D03*
X029807Y026630D03*
X029878Y026683D03*
X029824Y026719D03*
X029824Y026736D03*
X029807Y026772D03*
X029807Y026790D03*
X029789Y026825D03*
X029683Y026807D03*
X029683Y026666D03*
X029399Y026488D03*
X029417Y026435D03*
X029435Y026400D03*
X029435Y026382D03*
X029435Y026364D03*
X029240Y026258D03*
X029204Y026258D03*
X029187Y026382D03*
X029187Y026400D03*
X029169Y026418D03*
X029169Y026435D03*
X029169Y026453D03*
X029151Y026471D03*
X029133Y026506D03*
X029133Y026524D03*
X029116Y026542D03*
X029098Y026595D03*
X029098Y026612D03*
X029045Y026683D03*
X029080Y026701D03*
X028921Y026524D03*
X028939Y026488D03*
X028956Y026435D03*
X028637Y026400D03*
X028159Y026400D03*
X028159Y026418D03*
X028141Y026435D03*
X028141Y026453D03*
X028124Y026471D03*
X028124Y026488D03*
X028106Y026506D03*
X028106Y026524D03*
X028088Y026559D03*
X028088Y026577D03*
X028070Y026595D03*
X028106Y026453D03*
X028106Y026435D03*
X028124Y026418D03*
X028124Y026400D03*
X028354Y025868D03*
X028389Y025798D03*
X028425Y025709D03*
X028443Y025673D03*
X028460Y025638D03*
X028407Y025638D03*
X028478Y025585D03*
X028496Y025549D03*
X028513Y025514D03*
X028531Y025479D03*
X028531Y025461D03*
X028549Y025425D03*
X028567Y025390D03*
X028567Y025372D03*
X028584Y025355D03*
X028584Y025337D03*
X028620Y025408D03*
X028602Y025443D03*
X028602Y025461D03*
X029328Y026063D03*
X029311Y026099D03*
X030090Y026435D03*
X030161Y026400D03*
X030179Y026418D03*
X030196Y026435D03*
X030250Y026418D03*
X030250Y026400D03*
X030267Y026382D03*
X030267Y026364D03*
X030214Y026488D03*
X030072Y026860D03*
X029328Y026878D03*
X029328Y026896D03*
X029293Y027020D03*
X029293Y027038D03*
X029293Y027055D03*
X029275Y027073D03*
X029275Y027091D03*
X030320Y027463D03*
X030338Y027445D03*
X030338Y027427D03*
X030356Y027392D03*
X030356Y027374D03*
X030374Y027357D03*
X030374Y027339D03*
X030391Y027321D03*
X030391Y027303D03*
X030409Y027286D03*
X030409Y027268D03*
X030409Y027250D03*
X030427Y027233D03*
X030427Y027215D03*
X030391Y026028D03*
X030409Y025975D03*
X030427Y025939D03*
X030427Y025922D03*
X030444Y025886D03*
X026317Y025301D03*
D17*
X025528Y025248D03*
X024554Y025248D03*
X022871Y024894D03*
X022729Y025160D03*
X021117Y025248D03*
X020851Y024894D03*
X020656Y025177D03*
X019859Y025160D03*
X020266Y025922D03*
X019947Y026276D03*
X020833Y026276D03*
X019345Y026187D03*
X028168Y026382D03*
X028239Y026152D03*
X028327Y026152D03*
X028345Y026170D03*
X028292Y026010D03*
X028292Y025992D03*
X028310Y025975D03*
X028310Y025957D03*
X028327Y025939D03*
X028327Y025922D03*
X028345Y025904D03*
X028345Y025886D03*
X028363Y025851D03*
X028363Y025833D03*
X028381Y025815D03*
X028398Y025780D03*
X028398Y025762D03*
X028416Y025744D03*
X028416Y025727D03*
X028434Y025691D03*
X028451Y025656D03*
X028487Y025567D03*
X028505Y025532D03*
X028522Y025496D03*
X028540Y025443D03*
X028558Y025408D03*
X028646Y025195D03*
X028699Y025071D03*
X028753Y024965D03*
X028788Y024876D03*
X028806Y024823D03*
X028823Y024788D03*
X028823Y024770D03*
X028735Y024770D03*
X028859Y024681D03*
X028859Y024664D03*
X028877Y024646D03*
X028877Y024628D03*
X028894Y024593D03*
X028894Y024575D03*
X028912Y024557D03*
X028912Y024540D03*
X028912Y024522D03*
X028930Y024504D03*
X028947Y024469D03*
X028947Y024451D03*
X028965Y024398D03*
X028965Y024380D03*
X028983Y024345D03*
X028983Y024327D03*
X029001Y024274D03*
X029001Y024256D03*
X029018Y024203D03*
X029018Y024185D03*
X029213Y024575D03*
X029195Y024646D03*
X029178Y024681D03*
X029178Y024699D03*
X029178Y024717D03*
X029160Y024735D03*
X029160Y024752D03*
X029160Y024770D03*
X029142Y024805D03*
X029125Y024859D03*
X029302Y024894D03*
X029319Y024859D03*
X029337Y024805D03*
X029337Y024788D03*
X029355Y024770D03*
X029355Y024752D03*
X029355Y024735D03*
X029373Y024699D03*
X029408Y024593D03*
X029408Y024575D03*
X029408Y024557D03*
X029284Y024947D03*
X029266Y024983D03*
X029231Y025071D03*
X029178Y025213D03*
X029071Y025585D03*
X029071Y025603D03*
X029054Y025620D03*
X029054Y025638D03*
X029036Y025656D03*
X029018Y025691D03*
X029001Y025727D03*
X028983Y025762D03*
X028965Y025798D03*
X028947Y025833D03*
X028930Y025868D03*
X028930Y025886D03*
X028912Y025922D03*
X028859Y026010D03*
X028859Y026099D03*
X028877Y026116D03*
X028930Y026152D03*
X028947Y026170D03*
X028965Y026187D03*
X028983Y026205D03*
X029036Y026240D03*
X029054Y026258D03*
X029125Y026152D03*
X029213Y026187D03*
X029249Y026223D03*
X029284Y026258D03*
X029302Y026276D03*
X029337Y026294D03*
X029355Y026311D03*
X029444Y026347D03*
X029426Y026418D03*
X029408Y026453D03*
X029408Y026471D03*
X029444Y026559D03*
X029497Y026595D03*
X029514Y026612D03*
X029568Y026648D03*
X029585Y026666D03*
X029656Y026719D03*
X029709Y026754D03*
X029780Y026612D03*
X029833Y026648D03*
X029851Y026666D03*
X029904Y026701D03*
X029922Y026719D03*
X029940Y026736D03*
X029975Y026754D03*
X029993Y026772D03*
X030010Y026790D03*
X030064Y026825D03*
X030223Y026453D03*
X030241Y026435D03*
X030276Y026347D03*
X030276Y026329D03*
X030294Y026294D03*
X030312Y026240D03*
X030329Y026205D03*
X030329Y026187D03*
X030347Y026152D03*
X030347Y026134D03*
X030365Y026116D03*
X030365Y026099D03*
X030382Y026081D03*
X030382Y026063D03*
X030382Y026046D03*
X030400Y026010D03*
X030400Y025992D03*
X030418Y025957D03*
X030436Y025904D03*
X030453Y025868D03*
X030542Y025638D03*
X030542Y025620D03*
X030560Y025603D03*
X030577Y025549D03*
X030577Y025532D03*
X030577Y025514D03*
X030595Y025496D03*
X030595Y025479D03*
X030613Y025425D03*
X030631Y025372D03*
X030648Y025319D03*
X030666Y025248D03*
X030684Y025195D03*
X030701Y025142D03*
X030719Y025089D03*
X030808Y025018D03*
X030825Y025036D03*
X030861Y025071D03*
X030879Y025089D03*
X030896Y025107D03*
X030914Y025124D03*
X030932Y025142D03*
X030949Y025160D03*
X030967Y025177D03*
X030985Y025195D03*
X031091Y025284D03*
X031109Y025301D03*
X031127Y025319D03*
X031144Y025337D03*
X031197Y025337D03*
X031197Y025319D03*
X031215Y025284D03*
X031215Y025266D03*
X031233Y025195D03*
X031286Y025018D03*
X031304Y024965D03*
X031321Y024912D03*
X031321Y024894D03*
X031339Y024859D03*
X031357Y024823D03*
X031357Y024805D03*
X031162Y025443D03*
X031144Y025514D03*
X031020Y025815D03*
X031003Y025868D03*
X030985Y025922D03*
X030949Y026116D03*
X030879Y026170D03*
X030914Y026205D03*
X030843Y026134D03*
X030825Y026329D03*
X030861Y026364D03*
X030808Y026382D03*
X030808Y026400D03*
X030790Y026418D03*
X030790Y026435D03*
X030790Y026453D03*
X030772Y026488D03*
X030737Y026577D03*
X030719Y026612D03*
X030701Y026666D03*
X030684Y026701D03*
X030737Y026683D03*
X030719Y026825D03*
X030631Y026878D03*
X030613Y026843D03*
X030595Y026967D03*
X030542Y026967D03*
X030347Y027410D03*
X029302Y027002D03*
X029302Y026985D03*
X029319Y026949D03*
X029319Y026931D03*
X029337Y026914D03*
X029337Y026843D03*
X029302Y026807D03*
X029266Y026790D03*
X029249Y026772D03*
X029195Y026736D03*
X029160Y026719D03*
X029107Y026577D03*
X029142Y026488D03*
X028965Y026418D03*
X028947Y026453D03*
X028947Y026471D03*
X028930Y026506D03*
X028912Y026542D03*
X028912Y026559D03*
X028930Y026595D03*
X028983Y026630D03*
X029284Y026152D03*
X029302Y026134D03*
X029302Y026116D03*
X029319Y026081D03*
X029337Y026046D03*
X029337Y026028D03*
X029355Y026010D03*
X029355Y025992D03*
X029373Y025957D03*
X029390Y025922D03*
X029444Y025922D03*
X029497Y025957D03*
X029514Y025975D03*
X029585Y026028D03*
X029656Y026081D03*
X029727Y026134D03*
X029780Y026170D03*
X029798Y026187D03*
X029816Y026205D03*
X029851Y026223D03*
X029869Y026240D03*
X029922Y026223D03*
X029940Y026187D03*
X029957Y026152D03*
X029975Y026116D03*
X029993Y026081D03*
X030028Y025992D03*
X030046Y025957D03*
X030117Y025762D03*
X030134Y025727D03*
X030134Y025709D03*
X030099Y025656D03*
X030081Y025638D03*
X030064Y025620D03*
X030312Y025372D03*
X030365Y025248D03*
X030382Y025195D03*
X030382Y025177D03*
X030400Y025142D03*
X030400Y025124D03*
X030418Y025107D03*
X030418Y025089D03*
X030418Y025071D03*
X030436Y025053D03*
X030436Y025036D03*
X030436Y025018D03*
X030453Y025000D03*
X030453Y024983D03*
X030471Y024929D03*
X030471Y024912D03*
X030489Y024876D03*
X030489Y024859D03*
X030471Y024788D03*
X030453Y024770D03*
X030382Y024717D03*
X030365Y024699D03*
X030294Y024646D03*
X030276Y024628D03*
X030134Y024504D03*
X030117Y024486D03*
X030064Y024451D03*
X030046Y024433D03*
X030028Y024416D03*
X029993Y024380D03*
X029975Y024416D03*
X029975Y024433D03*
X029957Y024469D03*
X029940Y024522D03*
X029922Y024575D03*
X029904Y024610D03*
X029904Y024628D03*
X029886Y024664D03*
X029869Y024699D03*
X029869Y024717D03*
X029851Y024752D03*
X029851Y024770D03*
X029833Y024788D03*
X029833Y024805D03*
X029816Y024841D03*
X029816Y024859D03*
X029798Y024894D03*
X029780Y024929D03*
X029780Y024947D03*
X029762Y024965D03*
X029762Y024983D03*
X029621Y025337D03*
X029497Y025585D03*
X029461Y025673D03*
X029444Y025709D03*
X029426Y025762D03*
X029408Y025798D03*
X029426Y025833D03*
X029284Y026046D03*
X029266Y026081D03*
X029249Y026116D03*
X029054Y026063D03*
X029018Y026028D03*
X029001Y026010D03*
X028965Y026028D03*
X028717Y025992D03*
X028682Y025975D03*
X028646Y025992D03*
X028753Y025815D03*
X028770Y025780D03*
X028788Y025744D03*
X028823Y025656D03*
X028841Y025620D03*
X028859Y025585D03*
X029816Y026294D03*
X029816Y026311D03*
X029798Y026347D03*
X029798Y026364D03*
X029780Y026382D03*
X029780Y026400D03*
X029762Y026453D03*
X029727Y026542D03*
X029886Y026294D03*
X029922Y024309D03*
X029904Y024292D03*
X029886Y024274D03*
X029869Y024256D03*
X030028Y024274D03*
X030046Y024221D03*
X030081Y024132D03*
D18*
X029966Y024327D03*
X030019Y025549D03*
X030214Y026471D03*
X030090Y026843D03*
X029771Y026807D03*
X026618Y025284D03*
X026618Y024929D03*
X026139Y024876D03*
X025944Y024876D03*
X026139Y025177D03*
X025661Y025160D03*
X024952Y025160D03*
X024704Y025142D03*
X023996Y024912D03*
X023748Y025160D03*
X023057Y024894D03*
X022507Y024894D03*
X022525Y025177D03*
X021746Y025177D03*
X021533Y025177D03*
X021267Y025160D03*
X021551Y024876D03*
X021728Y024876D03*
X020771Y024823D03*
X020789Y025071D03*
X019655Y025177D03*
X019389Y025142D03*
X019389Y024929D03*
X019637Y024894D03*
X019159Y025177D03*
X019106Y025939D03*
X019141Y026205D03*
X019797Y026187D03*
X020027Y026205D03*
X019797Y025939D03*
X020984Y026170D03*
X021232Y026187D03*
X022259Y025939D03*
X022791Y026418D03*
X023269Y026418D03*
X024988Y026418D03*
X025466Y026418D03*
X025803Y026347D03*
X026086Y026347D03*
X026069Y025922D03*
X026317Y025868D03*
X026334Y025886D03*
X025803Y025922D03*
D19*
X025750Y025975D03*
X025732Y026010D03*
X025732Y026028D03*
X025714Y026046D03*
X025714Y026063D03*
X025714Y026081D03*
X025714Y026099D03*
X025714Y026116D03*
X025714Y026134D03*
X025714Y026152D03*
X025714Y026170D03*
X025714Y026187D03*
X025714Y026205D03*
X025714Y026223D03*
X025732Y026240D03*
X025732Y026258D03*
X025750Y026294D03*
X025395Y026294D03*
X025395Y026311D03*
X025378Y026258D03*
X025378Y026240D03*
X025360Y026223D03*
X025360Y026205D03*
X025342Y026170D03*
X025342Y026152D03*
X025324Y026116D03*
X025324Y026099D03*
X025307Y026081D03*
X025307Y026063D03*
X025289Y026028D03*
X025289Y026010D03*
X025271Y025975D03*
X025147Y026046D03*
X025130Y026099D03*
X025112Y026152D03*
X025094Y026187D03*
X025076Y026240D03*
X025059Y026294D03*
X024952Y026294D03*
X024952Y026311D03*
X024952Y026329D03*
X024952Y026276D03*
X024952Y026258D03*
X024952Y026240D03*
X024952Y026223D03*
X024952Y026205D03*
X024952Y026187D03*
X024952Y026170D03*
X024952Y026152D03*
X024952Y026134D03*
X024952Y026116D03*
X024952Y026099D03*
X024952Y026081D03*
X024952Y026063D03*
X024952Y026046D03*
X024952Y026028D03*
X024952Y026010D03*
X024952Y025992D03*
X024952Y025975D03*
X024952Y025957D03*
X024952Y025939D03*
X024952Y025922D03*
X024952Y025904D03*
X024952Y025886D03*
X024952Y025868D03*
X025183Y025160D03*
X025183Y025142D03*
X025165Y025089D03*
X025165Y025071D03*
X025165Y025053D03*
X025165Y025036D03*
X025165Y025018D03*
X025165Y025000D03*
X025165Y024983D03*
X025165Y024965D03*
X025165Y024947D03*
X025165Y024929D03*
X025165Y024912D03*
X025165Y024894D03*
X025165Y024876D03*
X025165Y024859D03*
X025165Y024841D03*
X024970Y024841D03*
X024970Y024859D03*
X024970Y024876D03*
X024970Y024894D03*
X024970Y024912D03*
X024970Y024929D03*
X024970Y024947D03*
X024970Y024965D03*
X024970Y024983D03*
X024970Y025000D03*
X024970Y025018D03*
X024970Y025036D03*
X024970Y025053D03*
X024970Y025071D03*
X024970Y025089D03*
X024970Y025107D03*
X024704Y025107D03*
X024704Y025124D03*
X024704Y025089D03*
X024704Y025071D03*
X024633Y025177D03*
X024474Y025160D03*
X024456Y025142D03*
X024456Y025124D03*
X024456Y025107D03*
X024261Y025107D03*
X024261Y025124D03*
X024261Y025142D03*
X024261Y025160D03*
X024261Y025177D03*
X024261Y025195D03*
X024261Y025213D03*
X024261Y025231D03*
X024261Y025089D03*
X024261Y025071D03*
X024261Y025053D03*
X024261Y025036D03*
X024261Y025018D03*
X024261Y025000D03*
X024261Y024983D03*
X024261Y024965D03*
X024261Y024947D03*
X024244Y024912D03*
X023978Y024965D03*
X023978Y024983D03*
X023978Y025000D03*
X023978Y025018D03*
X023978Y025036D03*
X023978Y025053D03*
X023978Y025071D03*
X023978Y025089D03*
X023978Y025107D03*
X023978Y025124D03*
X023978Y025142D03*
X023978Y025160D03*
X023978Y025177D03*
X023978Y025195D03*
X023978Y025213D03*
X023978Y025231D03*
X023783Y025231D03*
X023783Y025213D03*
X023783Y025195D03*
X023765Y025124D03*
X023765Y025107D03*
X023500Y025142D03*
X023482Y025071D03*
X023482Y025053D03*
X023482Y025036D03*
X023482Y025018D03*
X023482Y025000D03*
X023482Y024983D03*
X023482Y024965D03*
X023482Y024947D03*
X023482Y024929D03*
X023482Y024912D03*
X023482Y024894D03*
X023482Y024876D03*
X023482Y024859D03*
X023482Y024841D03*
X023110Y024965D03*
X023110Y024983D03*
X023092Y024929D03*
X023110Y025071D03*
X023110Y025089D03*
X023110Y025107D03*
X023092Y025124D03*
X022756Y024965D03*
X022756Y024947D03*
X022756Y024929D03*
X022756Y024912D03*
X022738Y024894D03*
X022649Y024823D03*
X022490Y024929D03*
X022490Y024947D03*
X022490Y024965D03*
X022490Y025018D03*
X022490Y025124D03*
X022490Y025142D03*
X022507Y025160D03*
X022702Y025177D03*
X022259Y025160D03*
X022259Y025142D03*
X022259Y025124D03*
X022259Y025107D03*
X022259Y025089D03*
X022259Y025071D03*
X022259Y025053D03*
X022259Y025036D03*
X022259Y025018D03*
X022259Y025000D03*
X022259Y024983D03*
X022259Y024965D03*
X022259Y024947D03*
X022171Y024823D03*
X021799Y024947D03*
X021799Y024965D03*
X021817Y025000D03*
X021817Y025018D03*
X021817Y025036D03*
X021817Y025053D03*
X021799Y025089D03*
X021799Y025107D03*
X021781Y025142D03*
X021763Y025160D03*
X021781Y024929D03*
X021781Y024912D03*
X021763Y024894D03*
X021515Y024894D03*
X021498Y024912D03*
X021498Y024929D03*
X021480Y024947D03*
X021480Y024965D03*
X021462Y025000D03*
X021462Y025018D03*
X021462Y025036D03*
X021462Y025053D03*
X021480Y025089D03*
X021480Y025107D03*
X021498Y025142D03*
X021515Y025160D03*
X021285Y025107D03*
X021285Y025089D03*
X021285Y025071D03*
X021019Y025142D03*
X021019Y025160D03*
X021002Y025107D03*
X021002Y025089D03*
X021002Y025071D03*
X021002Y025053D03*
X021002Y025036D03*
X021002Y025018D03*
X021002Y025000D03*
X021002Y024983D03*
X021002Y024965D03*
X021002Y024947D03*
X021002Y024929D03*
X021002Y024912D03*
X021002Y024894D03*
X021002Y024876D03*
X021002Y024859D03*
X021002Y024841D03*
X020824Y025107D03*
X020824Y025160D03*
X020665Y024965D03*
X020647Y024947D03*
X020647Y024929D03*
X020257Y024929D03*
X020257Y024912D03*
X020257Y024947D03*
X020257Y024965D03*
X020257Y024983D03*
X020257Y025000D03*
X020257Y025018D03*
X020257Y025036D03*
X020257Y025053D03*
X020257Y025071D03*
X020257Y025089D03*
X020257Y025107D03*
X020257Y025124D03*
X020257Y025142D03*
X020257Y025160D03*
X020257Y025177D03*
X020257Y025195D03*
X020257Y025213D03*
X020257Y025231D03*
X020257Y025248D03*
X020257Y025266D03*
X020257Y025284D03*
X020257Y025301D03*
X020257Y025319D03*
X020257Y025337D03*
X020257Y025355D03*
X020257Y025372D03*
X019832Y025177D03*
X019868Y024983D03*
X019885Y024947D03*
X019885Y024929D03*
X019868Y024912D03*
X019779Y024823D03*
X019602Y024841D03*
X019620Y024929D03*
X019620Y024947D03*
X019620Y025142D03*
X019407Y025089D03*
X019407Y025071D03*
X019407Y025053D03*
X019407Y025036D03*
X019407Y025018D03*
X019407Y025000D03*
X019407Y024983D03*
X019407Y024965D03*
X019407Y024859D03*
X019407Y024841D03*
X019230Y024823D03*
X019124Y024929D03*
X019106Y024947D03*
X019106Y024965D03*
X019088Y025018D03*
X019088Y025036D03*
X019088Y025053D03*
X019106Y025107D03*
X019106Y025124D03*
X019124Y025142D03*
X019407Y025213D03*
X019407Y025231D03*
X019407Y025248D03*
X019407Y025266D03*
X019407Y025284D03*
X019407Y025301D03*
X019407Y025319D03*
X019407Y025337D03*
X019407Y025355D03*
X019407Y025372D03*
X019407Y025390D03*
X019407Y025408D03*
X019407Y025425D03*
X019265Y025851D03*
X019354Y025939D03*
X019354Y026010D03*
X019549Y026010D03*
X019549Y025992D03*
X019549Y025975D03*
X019549Y025957D03*
X019549Y025939D03*
X019549Y025922D03*
X019549Y025904D03*
X019549Y025886D03*
X019549Y025868D03*
X019549Y026028D03*
X019549Y026046D03*
X019549Y026063D03*
X019549Y026081D03*
X019549Y026099D03*
X019549Y026116D03*
X019549Y026134D03*
X019549Y026152D03*
X019549Y026170D03*
X019549Y026187D03*
X019549Y026205D03*
X019549Y026223D03*
X019549Y026240D03*
X019549Y026258D03*
X019549Y026382D03*
X019549Y026400D03*
X019549Y026418D03*
X019549Y026435D03*
X019319Y026205D03*
X019106Y026170D03*
X019088Y026116D03*
X019088Y026046D03*
X019088Y026028D03*
X019088Y026010D03*
X019088Y025992D03*
X019088Y025975D03*
X019779Y025975D03*
X019779Y025992D03*
X019779Y026010D03*
X019779Y026099D03*
X019779Y026116D03*
X019779Y026134D03*
X020063Y026152D03*
X020063Y026170D03*
X020080Y026134D03*
X020080Y026116D03*
X020080Y026099D03*
X020080Y026010D03*
X020080Y025992D03*
X020080Y025975D03*
X020063Y025957D03*
X020257Y026116D03*
X020275Y026170D03*
X020293Y026187D03*
X020523Y026170D03*
X020541Y026152D03*
X020541Y026134D03*
X020541Y025992D03*
X020541Y025975D03*
X020523Y025957D03*
X020736Y025957D03*
X020736Y025975D03*
X020736Y025992D03*
X020736Y026010D03*
X020736Y026028D03*
X020736Y026046D03*
X020736Y026063D03*
X020736Y026081D03*
X020736Y026099D03*
X020736Y026116D03*
X020736Y026134D03*
X020736Y026152D03*
X020754Y026187D03*
X020984Y026134D03*
X021250Y026134D03*
X021250Y026116D03*
X021250Y026099D03*
X021250Y026152D03*
X021480Y026152D03*
X021480Y026170D03*
X021480Y026187D03*
X021480Y026205D03*
X021480Y026223D03*
X021480Y026240D03*
X021480Y026258D03*
X021480Y026134D03*
X021480Y026116D03*
X021480Y026099D03*
X021480Y026081D03*
X021480Y026063D03*
X021480Y026046D03*
X021480Y026028D03*
X021480Y026010D03*
X021480Y025992D03*
X021480Y025975D03*
X021480Y025957D03*
X021480Y025939D03*
X021480Y025922D03*
X021480Y025904D03*
X021480Y025886D03*
X021480Y025868D03*
X021693Y025851D03*
X021781Y025975D03*
X021781Y025992D03*
X021781Y026010D03*
X021781Y026028D03*
X021781Y026046D03*
X021781Y026063D03*
X021781Y026081D03*
X021781Y026099D03*
X021781Y026116D03*
X021781Y026134D03*
X021781Y026152D03*
X021781Y026170D03*
X021781Y026187D03*
X021781Y026276D03*
X021781Y026294D03*
X021781Y026311D03*
X021781Y026329D03*
X021781Y026347D03*
X022029Y026347D03*
X022029Y026364D03*
X022029Y026382D03*
X022029Y026400D03*
X022029Y026418D03*
X022029Y026435D03*
X022029Y026453D03*
X022029Y026329D03*
X022029Y026311D03*
X022029Y026294D03*
X022029Y026276D03*
X022029Y026258D03*
X022029Y026240D03*
X022029Y026223D03*
X022029Y026205D03*
X022029Y026187D03*
X022029Y026170D03*
X022029Y026152D03*
X022029Y026134D03*
X022029Y026116D03*
X022029Y026099D03*
X022029Y026081D03*
X022029Y026063D03*
X022029Y026046D03*
X022029Y026028D03*
X022029Y026010D03*
X022029Y025992D03*
X022029Y025975D03*
X022029Y025957D03*
X022029Y025939D03*
X022029Y025922D03*
X022029Y025904D03*
X022029Y025886D03*
X022029Y025868D03*
X022242Y025992D03*
X022242Y026010D03*
X022242Y026028D03*
X022242Y026046D03*
X022242Y026063D03*
X022242Y026081D03*
X022242Y026099D03*
X022242Y026116D03*
X022242Y026134D03*
X022242Y026152D03*
X022242Y026170D03*
X022242Y026187D03*
X022242Y026205D03*
X022242Y026223D03*
X022242Y026240D03*
X022242Y026258D03*
X022525Y025992D03*
X022525Y025975D03*
X022525Y025957D03*
X022507Y025939D03*
X022419Y025851D03*
X022756Y025868D03*
X022756Y025886D03*
X022756Y025904D03*
X022756Y025922D03*
X022756Y025939D03*
X022756Y025957D03*
X022756Y025975D03*
X022756Y025992D03*
X022756Y026010D03*
X022756Y026028D03*
X022756Y026046D03*
X022756Y026063D03*
X022756Y026081D03*
X022756Y026099D03*
X022756Y026116D03*
X022756Y026134D03*
X022756Y026152D03*
X022756Y026170D03*
X022756Y026187D03*
X022756Y026205D03*
X022756Y026223D03*
X022756Y026240D03*
X022756Y026258D03*
X022756Y026276D03*
X022756Y026294D03*
X022756Y026311D03*
X022756Y026329D03*
X022862Y026294D03*
X022880Y026240D03*
X022897Y026187D03*
X022915Y026152D03*
X022933Y026099D03*
X022950Y026046D03*
X023092Y026028D03*
X023092Y026010D03*
X023074Y025975D03*
X023110Y026063D03*
X023110Y026081D03*
X023128Y026099D03*
X023128Y026116D03*
X023145Y026152D03*
X023145Y026170D03*
X023163Y026205D03*
X023163Y026223D03*
X023181Y026240D03*
X023181Y026258D03*
X023198Y026294D03*
X023198Y026311D03*
X021480Y026382D03*
X021480Y026400D03*
X021480Y026418D03*
X021480Y026435D03*
X020736Y025939D03*
X020736Y025922D03*
X020736Y025904D03*
X020736Y025886D03*
X020736Y025868D03*
X022259Y025319D03*
X022259Y025301D03*
X022259Y025284D03*
X022259Y025266D03*
X022259Y025248D03*
X025431Y025107D03*
X025431Y025089D03*
X025431Y025071D03*
X025431Y025053D03*
X025431Y025036D03*
X025431Y025018D03*
X025431Y025000D03*
X025431Y024983D03*
X025431Y024965D03*
X025431Y024947D03*
X025431Y024929D03*
X025431Y024912D03*
X025431Y024894D03*
X025431Y024876D03*
X025431Y024859D03*
X025431Y024841D03*
X025679Y025107D03*
X025679Y025124D03*
X025696Y025213D03*
X025696Y025231D03*
X025891Y025142D03*
X025891Y025124D03*
X025874Y025107D03*
X025874Y025089D03*
X025874Y025071D03*
X025874Y024983D03*
X025874Y024965D03*
X025874Y024947D03*
X025891Y024929D03*
X025909Y025160D03*
X026175Y025142D03*
X026193Y025124D03*
X026193Y025107D03*
X026210Y025071D03*
X026210Y025053D03*
X026210Y025036D03*
X026210Y025018D03*
X026210Y025000D03*
X026210Y024983D03*
X026193Y024947D03*
X026193Y024929D03*
X026175Y024912D03*
X026157Y024894D03*
X026334Y024894D03*
X026653Y024983D03*
X026671Y025018D03*
X026671Y025036D03*
X026689Y025071D03*
X026689Y025089D03*
X026689Y025107D03*
X026689Y025124D03*
X026689Y025142D03*
X026671Y025177D03*
X026671Y025195D03*
X026653Y025231D03*
X026653Y025868D03*
X026653Y025886D03*
X026653Y025904D03*
X026653Y025922D03*
X026653Y025939D03*
X026653Y025957D03*
X026653Y025975D03*
X026653Y025992D03*
X026653Y026010D03*
X026653Y026028D03*
X026653Y026046D03*
X026653Y026063D03*
X026653Y026081D03*
X026653Y026099D03*
X026653Y026187D03*
X026653Y026205D03*
X026653Y026223D03*
X026653Y026240D03*
X026653Y026258D03*
X026653Y026276D03*
X026653Y026294D03*
X026653Y026311D03*
X026653Y026329D03*
X026653Y026347D03*
X026653Y026364D03*
X026653Y026382D03*
X026653Y026400D03*
X026317Y026418D03*
X026139Y026276D03*
X026157Y026240D03*
X026157Y026223D03*
X026157Y026205D03*
X026175Y026170D03*
X026175Y026152D03*
X026175Y026134D03*
X026175Y026116D03*
X026175Y026099D03*
X026157Y026063D03*
X026157Y026046D03*
X026157Y026028D03*
X026139Y025992D03*
X026299Y025851D03*
X028265Y026134D03*
X028283Y026081D03*
X028443Y026046D03*
X028513Y026028D03*
X028584Y026010D03*
X028513Y026294D03*
X028567Y026329D03*
X028584Y026347D03*
X028620Y026364D03*
X029027Y026648D03*
X029080Y026099D03*
X029063Y025957D03*
X028974Y025975D03*
X029257Y025904D03*
X029381Y025868D03*
X029399Y025851D03*
X029063Y025549D03*
X028956Y025248D03*
X028974Y025231D03*
X028868Y024717D03*
X029009Y024664D03*
X029098Y024628D03*
X029187Y024593D03*
X029470Y024504D03*
X029931Y024345D03*
X030746Y025000D03*
X029771Y025018D03*
X030533Y025656D03*
X029895Y026258D03*
X030604Y026736D03*
D20*
X030551Y026701D03*
X030693Y026807D03*
X030622Y026896D03*
X030622Y026914D03*
X030604Y026931D03*
X030604Y026949D03*
X030409Y026595D03*
X030374Y026577D03*
X030356Y026559D03*
X030338Y026542D03*
X030320Y026524D03*
X030303Y026506D03*
X030267Y026488D03*
X030285Y026453D03*
X030285Y026311D03*
X030303Y026276D03*
X030303Y026258D03*
X030320Y026223D03*
X030338Y026170D03*
X030126Y025939D03*
X030143Y025691D03*
X030126Y025673D03*
X030037Y025603D03*
X030019Y025585D03*
X030002Y025567D03*
X029612Y025372D03*
X029612Y025355D03*
X029594Y025390D03*
X029594Y025408D03*
X029576Y025425D03*
X029559Y025461D03*
X029523Y025549D03*
X029506Y025603D03*
X029470Y025691D03*
X029417Y025815D03*
X029381Y025939D03*
X029364Y025975D03*
X029470Y025939D03*
X029541Y025992D03*
X029559Y026010D03*
X029612Y026046D03*
X029630Y026063D03*
X029683Y026099D03*
X029700Y026116D03*
X029754Y026152D03*
X029257Y026240D03*
X029204Y026294D03*
X029116Y026294D03*
X029080Y026276D03*
X029009Y026223D03*
X028903Y026134D03*
X028832Y026081D03*
X028815Y026063D03*
X028797Y026046D03*
X028744Y026010D03*
X028673Y025957D03*
X028637Y025939D03*
X028939Y025851D03*
X028956Y025815D03*
X028974Y025780D03*
X028992Y025744D03*
X029009Y025709D03*
X029027Y025673D03*
X029063Y025567D03*
X029240Y025408D03*
X029293Y025390D03*
X029630Y025319D03*
X029771Y025000D03*
X029364Y024717D03*
X029381Y024646D03*
X029381Y024628D03*
X029399Y024610D03*
X029435Y024522D03*
X029541Y024486D03*
X029576Y024469D03*
X029630Y024451D03*
X029984Y024362D03*
X030002Y024398D03*
X030090Y024469D03*
X030161Y024522D03*
X030179Y024540D03*
X030196Y024557D03*
X030214Y024575D03*
X030232Y024593D03*
X030250Y024610D03*
X030320Y024664D03*
X030338Y024681D03*
X030409Y024735D03*
X030427Y024752D03*
X030498Y024805D03*
X030551Y025071D03*
X030763Y024983D03*
X030763Y024965D03*
X031011Y025213D03*
X031029Y025231D03*
X031047Y025248D03*
X031065Y025266D03*
X031206Y025301D03*
X031224Y025248D03*
X031189Y025372D03*
X031189Y025390D03*
X031171Y025425D03*
X031153Y025461D03*
X031153Y025479D03*
X031153Y025496D03*
X031135Y025532D03*
X031118Y025567D03*
X031100Y025620D03*
X031082Y025673D03*
X031065Y025727D03*
X031065Y025762D03*
X030799Y026099D03*
X030817Y026116D03*
X030870Y026152D03*
X030781Y026506D03*
X030037Y026807D03*
X029754Y026790D03*
X029736Y026772D03*
X029683Y026736D03*
X029630Y026701D03*
X029612Y026683D03*
X029541Y026630D03*
X029470Y026577D03*
X029381Y026506D03*
X029222Y026754D03*
X029133Y026701D03*
X029098Y026683D03*
X028956Y026612D03*
X029346Y026860D03*
X029311Y026967D03*
X028159Y026364D03*
X028159Y026347D03*
X028177Y026329D03*
X028177Y026311D03*
X028194Y026294D03*
X028194Y026276D03*
X028194Y026258D03*
X028212Y026240D03*
X028212Y026223D03*
X028230Y026205D03*
X028230Y026187D03*
X028265Y026116D03*
X028265Y026099D03*
X028283Y026063D03*
X028283Y026046D03*
X028283Y026028D03*
X028372Y026187D03*
X028389Y026205D03*
X028443Y026240D03*
X028567Y025585D03*
X028744Y025532D03*
X029027Y025107D03*
X029045Y025036D03*
X029063Y025018D03*
X029080Y024983D03*
X029080Y024947D03*
X029098Y024929D03*
X029098Y024912D03*
X029116Y024894D03*
X029116Y024876D03*
X029133Y024841D03*
X029133Y024823D03*
X029151Y024788D03*
X028832Y024735D03*
X028815Y024805D03*
X028797Y024841D03*
X028797Y024859D03*
X028779Y024894D03*
X028779Y024912D03*
X028761Y024929D03*
X028761Y024947D03*
X028744Y024983D03*
X028726Y025018D03*
X029169Y026170D03*
X026653Y026418D03*
X026653Y025851D03*
X026033Y025248D03*
X025431Y024823D03*
X025165Y024823D03*
X024970Y024823D03*
X024811Y025248D03*
X025271Y025248D03*
X024952Y025851D03*
X023606Y025248D03*
X023482Y024823D03*
X023960Y024823D03*
X022614Y025248D03*
X022472Y024823D03*
X021639Y025248D03*
X021002Y024823D03*
X020736Y025248D03*
X020257Y025390D03*
X020736Y025851D03*
X020399Y026276D03*
X021090Y026276D03*
X021480Y025851D03*
X022029Y025851D03*
X022242Y025851D03*
X022756Y025851D03*
X019761Y025851D03*
X019549Y025851D03*
X019088Y025851D03*
X019212Y026276D03*
X019230Y025248D03*
X019407Y024823D03*
X019602Y024823D03*
D21*
X019611Y024859D03*
X019611Y024965D03*
X019611Y024983D03*
X019611Y025000D03*
X019611Y025018D03*
X019611Y025089D03*
X019611Y025107D03*
X019611Y025124D03*
X019735Y025248D03*
X019877Y024965D03*
X019097Y024983D03*
X019097Y025000D03*
X019097Y025071D03*
X019097Y025089D03*
X019079Y025868D03*
X019079Y025886D03*
X019079Y025904D03*
X019097Y026134D03*
X019097Y026152D03*
X019363Y025992D03*
X019363Y025975D03*
X019363Y025957D03*
X019770Y025904D03*
X019770Y025886D03*
X019770Y025868D03*
X019770Y026028D03*
X019770Y026046D03*
X019770Y026063D03*
X019770Y026081D03*
X019770Y026223D03*
X019770Y026240D03*
X019770Y026258D03*
X019770Y026276D03*
X019770Y026294D03*
X019770Y026311D03*
X019770Y026329D03*
X019770Y026347D03*
X019770Y026364D03*
X019770Y026382D03*
X019770Y026400D03*
X019770Y026418D03*
X019770Y026435D03*
X019770Y026453D03*
X019558Y026364D03*
X020089Y026081D03*
X020089Y026063D03*
X020089Y026046D03*
X020089Y026028D03*
X020266Y026134D03*
X020266Y026152D03*
X020550Y026116D03*
X020550Y026028D03*
X020550Y026010D03*
X020745Y026170D03*
X020993Y026116D03*
X020993Y026099D03*
X020993Y026081D03*
X020993Y026063D03*
X020993Y026046D03*
X020993Y026028D03*
X020993Y026010D03*
X020993Y025992D03*
X020993Y025975D03*
X020993Y025957D03*
X020993Y025939D03*
X020993Y025922D03*
X020993Y025904D03*
X020993Y025886D03*
X020993Y025868D03*
X020993Y025851D03*
X021258Y025851D03*
X021258Y025868D03*
X021258Y025886D03*
X021258Y025904D03*
X021258Y025922D03*
X021258Y025939D03*
X021258Y025957D03*
X021258Y025975D03*
X021258Y025992D03*
X021258Y026010D03*
X021258Y026028D03*
X021258Y026046D03*
X021258Y026063D03*
X021258Y026081D03*
X021258Y026223D03*
X021258Y026240D03*
X021258Y026258D03*
X021489Y026364D03*
X021772Y026364D03*
X021772Y025957D03*
X021772Y025939D03*
X022233Y025904D03*
X022233Y025886D03*
X022233Y025868D03*
X022534Y026010D03*
X022534Y026028D03*
X022534Y026046D03*
X022534Y026063D03*
X022534Y026081D03*
X022534Y026099D03*
X022534Y026116D03*
X022534Y026134D03*
X022534Y026152D03*
X022534Y026170D03*
X022534Y026187D03*
X022534Y026205D03*
X022534Y026223D03*
X022534Y026240D03*
X022534Y026258D03*
X022853Y026311D03*
X022853Y026329D03*
X022871Y026276D03*
X022871Y026258D03*
X022888Y026223D03*
X022888Y026205D03*
X022906Y026170D03*
X022924Y026134D03*
X022924Y026116D03*
X022942Y026081D03*
X022942Y026063D03*
X022959Y026028D03*
X022959Y026010D03*
X022977Y025992D03*
X022977Y025975D03*
X023083Y025992D03*
X023101Y026046D03*
X023136Y026134D03*
X023154Y026187D03*
X023190Y026276D03*
X023207Y026329D03*
X023296Y026329D03*
X023296Y026311D03*
X023296Y026294D03*
X023296Y026276D03*
X023296Y026258D03*
X023296Y026240D03*
X023296Y026223D03*
X023296Y026205D03*
X023296Y026187D03*
X023296Y026170D03*
X023296Y026152D03*
X023296Y026134D03*
X023296Y026116D03*
X023296Y026099D03*
X023296Y026081D03*
X023296Y026063D03*
X023296Y026046D03*
X023296Y026028D03*
X023296Y026010D03*
X023296Y025992D03*
X023296Y025975D03*
X023296Y025957D03*
X023296Y025939D03*
X023296Y025922D03*
X023296Y025904D03*
X023296Y025886D03*
X023296Y025868D03*
X023296Y025851D03*
X023030Y025851D03*
X023296Y025408D03*
X023296Y025390D03*
X023296Y025372D03*
X023296Y025355D03*
X023296Y025337D03*
X023296Y025231D03*
X023296Y025213D03*
X023296Y025195D03*
X023296Y025177D03*
X023296Y025160D03*
X023296Y025142D03*
X023296Y025124D03*
X023296Y025107D03*
X023296Y025089D03*
X023296Y025071D03*
X023296Y025053D03*
X023296Y025036D03*
X023296Y025018D03*
X023296Y025000D03*
X023296Y024983D03*
X023296Y024965D03*
X023296Y024947D03*
X023296Y024929D03*
X023296Y024912D03*
X023296Y024894D03*
X023296Y024876D03*
X023296Y024859D03*
X023296Y024841D03*
X023296Y024823D03*
X023119Y025000D03*
X023119Y025018D03*
X023119Y025036D03*
X023119Y025053D03*
X023491Y025089D03*
X023491Y025107D03*
X023491Y025124D03*
X023774Y025089D03*
X023774Y025071D03*
X023774Y025053D03*
X023774Y025036D03*
X023774Y025018D03*
X023774Y025000D03*
X023774Y024983D03*
X023774Y024965D03*
X023774Y024947D03*
X023774Y024929D03*
X023774Y024912D03*
X023774Y024894D03*
X023774Y024876D03*
X023774Y024859D03*
X023774Y024841D03*
X023774Y024823D03*
X023969Y024841D03*
X023969Y024859D03*
X023969Y024876D03*
X024253Y024929D03*
X024447Y024929D03*
X024447Y024912D03*
X024447Y024894D03*
X024447Y024876D03*
X024447Y024859D03*
X024447Y024841D03*
X024447Y024823D03*
X024447Y024947D03*
X024447Y024965D03*
X024447Y024983D03*
X024447Y025000D03*
X024447Y025018D03*
X024447Y025036D03*
X024447Y025053D03*
X024447Y025071D03*
X024447Y025089D03*
X024713Y025053D03*
X024713Y025036D03*
X024713Y025018D03*
X024713Y025000D03*
X024713Y024983D03*
X024713Y024965D03*
X024713Y024947D03*
X024713Y024929D03*
X024713Y024912D03*
X024713Y024894D03*
X024713Y024876D03*
X024713Y024859D03*
X024713Y024841D03*
X024713Y024823D03*
X024979Y025195D03*
X024979Y025213D03*
X024979Y025231D03*
X025174Y025124D03*
X025174Y025107D03*
X025688Y025089D03*
X025688Y025071D03*
X025688Y025053D03*
X025688Y025036D03*
X025688Y025018D03*
X025688Y025000D03*
X025688Y024983D03*
X025688Y024965D03*
X025688Y024947D03*
X025688Y024929D03*
X025688Y024912D03*
X025688Y024894D03*
X025688Y024876D03*
X025688Y024859D03*
X025688Y024841D03*
X025688Y024823D03*
X025865Y025000D03*
X025865Y025018D03*
X025865Y025036D03*
X025865Y025053D03*
X026201Y025089D03*
X026201Y024965D03*
X026343Y025319D03*
X025493Y025851D03*
X025493Y025868D03*
X025493Y025886D03*
X025493Y025904D03*
X025493Y025922D03*
X025493Y025939D03*
X025493Y025957D03*
X025493Y025975D03*
X025493Y025992D03*
X025493Y026010D03*
X025493Y026028D03*
X025493Y026046D03*
X025493Y026063D03*
X025493Y026081D03*
X025493Y026099D03*
X025493Y026116D03*
X025493Y026134D03*
X025493Y026152D03*
X025493Y026170D03*
X025493Y026187D03*
X025493Y026205D03*
X025493Y026223D03*
X025493Y026240D03*
X025493Y026258D03*
X025493Y026276D03*
X025493Y026294D03*
X025493Y026311D03*
X025493Y026329D03*
X025404Y026329D03*
X025386Y026276D03*
X025351Y026187D03*
X025333Y026134D03*
X025298Y026046D03*
X025280Y025992D03*
X025174Y025992D03*
X025174Y025975D03*
X025156Y026010D03*
X025156Y026028D03*
X025138Y026063D03*
X025138Y026081D03*
X025121Y026116D03*
X025121Y026134D03*
X025103Y026170D03*
X025085Y026205D03*
X025085Y026223D03*
X025068Y026258D03*
X025068Y026276D03*
X025050Y026311D03*
X025050Y026329D03*
X025227Y025851D03*
X022747Y024983D03*
X022481Y024983D03*
X022481Y025000D03*
X022481Y025089D03*
X022481Y025107D03*
X022481Y024859D03*
X022481Y024841D03*
X022251Y024912D03*
X022251Y024929D03*
X021985Y024929D03*
X021985Y024912D03*
X021985Y024894D03*
X021985Y024876D03*
X021985Y024859D03*
X021985Y024841D03*
X021985Y024823D03*
X021985Y024947D03*
X021985Y024965D03*
X021985Y024983D03*
X021985Y025000D03*
X021985Y025018D03*
X021985Y025036D03*
X021985Y025053D03*
X021985Y025071D03*
X021985Y025089D03*
X021985Y025107D03*
X021985Y025124D03*
X021985Y025142D03*
X021985Y025160D03*
X021985Y025177D03*
X021985Y025195D03*
X021985Y025213D03*
X021985Y025231D03*
X021985Y025337D03*
X021985Y025355D03*
X021985Y025372D03*
X021985Y025390D03*
X021985Y025408D03*
X022251Y025337D03*
X021790Y025124D03*
X021808Y025071D03*
X021808Y024983D03*
X021471Y024983D03*
X021471Y025071D03*
X021489Y025124D03*
X021294Y025053D03*
X021294Y025036D03*
X021294Y025018D03*
X021294Y025000D03*
X021294Y024983D03*
X021294Y024965D03*
X021294Y024947D03*
X021294Y024929D03*
X021294Y024912D03*
X021294Y024894D03*
X021294Y024876D03*
X021294Y024859D03*
X021294Y024841D03*
X021294Y024823D03*
X021294Y025195D03*
X021294Y025213D03*
X021294Y025231D03*
X021010Y025124D03*
X020833Y025124D03*
X020833Y025142D03*
X020656Y024912D03*
X028239Y026170D03*
X028363Y026063D03*
X028416Y026223D03*
X028469Y026258D03*
X028487Y026276D03*
X028540Y026311D03*
X028646Y026382D03*
X028770Y026028D03*
X029054Y026081D03*
X029107Y026116D03*
X029125Y026134D03*
X029213Y026276D03*
X029178Y026329D03*
X029195Y026347D03*
X029054Y026666D03*
X029408Y025904D03*
X029426Y025780D03*
X029444Y025744D03*
X029461Y025727D03*
X029497Y025638D03*
X029337Y025372D03*
X029036Y025071D03*
X028806Y025514D03*
X028682Y025549D03*
X028629Y025567D03*
X028505Y025603D03*
X028451Y025620D03*
X028965Y024681D03*
X029054Y024646D03*
X029355Y024681D03*
X029373Y024664D03*
X029408Y024540D03*
X029692Y024433D03*
X029727Y024416D03*
X029780Y024398D03*
X029833Y024380D03*
X029886Y024362D03*
X030506Y025089D03*
X030595Y025053D03*
X030648Y025036D03*
X031180Y025355D03*
X031180Y025408D03*
X030896Y026187D03*
X030790Y026471D03*
X030772Y026524D03*
X030577Y026719D03*
X030524Y026683D03*
X030506Y026666D03*
X030489Y026648D03*
X030453Y026630D03*
X030436Y026612D03*
X030648Y026790D03*
D22*
X029816Y026524D03*
X029178Y026311D03*
X029125Y025939D03*
X029195Y025922D03*
X028930Y025992D03*
X029054Y025532D03*
X028859Y025496D03*
X028806Y024752D03*
X028894Y024699D03*
X029160Y024610D03*
X030701Y025018D03*
X026680Y025053D03*
X026662Y025000D03*
X026644Y024965D03*
X026627Y024947D03*
X026680Y025160D03*
X026662Y025213D03*
X026644Y025248D03*
X026627Y025266D03*
X026166Y025160D03*
X025936Y025177D03*
X025900Y024912D03*
X025918Y024894D03*
X025670Y025142D03*
X025422Y025142D03*
X025422Y025124D03*
X025209Y025177D03*
X024961Y025142D03*
X024961Y025124D03*
X024749Y025177D03*
X024483Y025177D03*
X024235Y024894D03*
X024146Y024823D03*
X023987Y024929D03*
X023987Y024947D03*
X023756Y025142D03*
X023526Y025177D03*
X023508Y025160D03*
X023083Y025142D03*
X023066Y025160D03*
X023101Y024947D03*
X023083Y024912D03*
X022942Y024823D03*
X022729Y025000D03*
X022499Y024912D03*
X022233Y024894D03*
X021276Y025124D03*
X021276Y025142D03*
X021046Y025177D03*
X020816Y025177D03*
X020816Y025089D03*
X020674Y024983D03*
X020674Y024894D03*
X019859Y024894D03*
X019859Y025000D03*
X019629Y024912D03*
X019398Y024947D03*
X019398Y025107D03*
X019398Y025124D03*
X019629Y025160D03*
X019132Y025160D03*
X019132Y024912D03*
X019150Y024894D03*
X019345Y025922D03*
X019345Y026028D03*
X019097Y025957D03*
X019115Y026187D03*
X019788Y026170D03*
X019788Y026152D03*
X019788Y025957D03*
X019947Y025851D03*
X020036Y025922D03*
X020054Y025939D03*
X020054Y026187D03*
X020302Y026205D03*
X020497Y026205D03*
X020514Y026187D03*
X020514Y025939D03*
X020497Y025922D03*
X020762Y026205D03*
X020993Y026152D03*
X021241Y026170D03*
X021755Y025922D03*
X022251Y025957D03*
X022251Y025975D03*
X022499Y025922D03*
X023030Y025904D03*
X023030Y025886D03*
X023030Y025868D03*
X025227Y025868D03*
X025227Y025886D03*
X025227Y025904D03*
X025741Y025992D03*
X025758Y025957D03*
X025776Y025939D03*
X026095Y025939D03*
X026113Y025957D03*
X026131Y025975D03*
X026148Y026010D03*
X026166Y026081D03*
X026166Y026187D03*
X026148Y026258D03*
X026131Y026294D03*
X026113Y026311D03*
X026095Y026329D03*
X026325Y026400D03*
X026343Y026382D03*
X026361Y026364D03*
X026379Y026347D03*
X026396Y026329D03*
X026414Y026311D03*
X026432Y026294D03*
X026449Y026276D03*
X026467Y026258D03*
X026485Y026240D03*
X026503Y026223D03*
X026520Y026205D03*
X026538Y026187D03*
X026538Y026099D03*
X026520Y026081D03*
X026503Y026063D03*
X026485Y026046D03*
X026467Y026028D03*
X026449Y026010D03*
X026432Y025992D03*
X026414Y025975D03*
X026396Y025957D03*
X026379Y025939D03*
X026361Y025922D03*
X026343Y025904D03*
X025741Y026276D03*
X025758Y026311D03*
X025776Y026329D03*
D23*
X025457Y026364D03*
X025457Y026382D03*
X025457Y026400D03*
X024979Y026400D03*
X025227Y025939D03*
X025227Y025922D03*
X025422Y025160D03*
X024695Y025160D03*
X024554Y025231D03*
X024005Y024894D03*
X022694Y025018D03*
X023030Y025922D03*
X023030Y025939D03*
X023260Y026364D03*
X023260Y026382D03*
X023260Y026400D03*
X022782Y026400D03*
X022268Y025922D03*
X021099Y026258D03*
X019115Y025922D03*
X019381Y025160D03*
X019381Y024912D03*
X020692Y025000D03*
X026414Y024823D03*
X026591Y024912D03*
X026591Y025301D03*
X026432Y025390D03*
X029036Y025514D03*
X029373Y025355D03*
X029709Y026294D03*
X030471Y026790D03*
X030595Y026772D03*
X030648Y026754D03*
D24*
X030356Y026807D03*
X029824Y026276D03*
X029435Y026329D03*
X029346Y025886D03*
X029754Y025036D03*
X030515Y025673D03*
X026033Y024823D03*
X025643Y025177D03*
X025537Y025231D03*
X025271Y025231D03*
X024935Y025177D03*
X024811Y025231D03*
X023730Y025177D03*
X023606Y025231D03*
X022950Y025231D03*
X022171Y024841D03*
X021639Y024823D03*
X021250Y025177D03*
X020771Y025053D03*
X020736Y025036D03*
X020718Y025018D03*
X019815Y025018D03*
X019372Y024894D03*
X019230Y025231D03*
X019815Y025922D03*
X019815Y026205D03*
X019939Y026258D03*
X020399Y026258D03*
X020842Y026258D03*
X020984Y026187D03*
X021214Y026205D03*
X021693Y025868D03*
X022791Y026347D03*
X022791Y026364D03*
X022791Y026382D03*
X023252Y026347D03*
X023021Y025957D03*
X024988Y026347D03*
X024988Y026364D03*
X024988Y026382D03*
X025448Y026347D03*
X025218Y025957D03*
X025944Y025851D03*
X025944Y026418D03*
X019301Y026046D03*
D25*
X019726Y025036D03*
X020133Y024823D03*
X021639Y025195D03*
X022596Y025036D03*
X026441Y024859D03*
X028921Y026400D03*
X030214Y025886D03*
X030480Y025709D03*
D26*
X030639Y025851D03*
X030728Y025922D03*
X030746Y025939D03*
X030763Y025957D03*
X030781Y025975D03*
X030799Y025992D03*
X030852Y026046D03*
X030055Y025514D03*
X029736Y025071D03*
X029399Y025319D03*
X028939Y025284D03*
X026423Y024841D03*
X025944Y025868D03*
X025944Y026400D03*
X022614Y025195D03*
X021639Y024859D03*
X020381Y025886D03*
X020399Y026223D03*
X019744Y025213D03*
X019744Y025195D03*
X019708Y025053D03*
D27*
X019691Y025071D03*
X019779Y024859D03*
X019230Y024859D03*
X019230Y025213D03*
X019159Y026099D03*
X020399Y026240D03*
X020842Y026223D03*
X021639Y025213D03*
X021639Y024841D03*
X020754Y024859D03*
X022561Y025071D03*
X022649Y024859D03*
X022968Y024859D03*
X022968Y025195D03*
X024563Y025195D03*
X024811Y025195D03*
X025271Y025195D03*
X026033Y024841D03*
X030498Y025691D03*
D28*
X030134Y025922D03*
X030843Y026081D03*
X030099Y026488D03*
X029957Y026506D03*
X029036Y025496D03*
X028947Y025266D03*
X026556Y025319D03*
X026556Y024894D03*
X026042Y025231D03*
X026609Y026134D03*
X026609Y026152D03*
X024146Y024841D03*
X022658Y024841D03*
X022180Y024859D03*
X021117Y025231D03*
X020727Y025231D03*
X020373Y025851D03*
X019947Y025868D03*
X019256Y025868D03*
X019221Y026258D03*
X019363Y025177D03*
X019239Y024841D03*
X019770Y024841D03*
X021701Y025886D03*
X022410Y025868D03*
D29*
X021710Y025904D03*
X021639Y025231D03*
X022189Y024876D03*
X022614Y025231D03*
X022950Y024841D03*
X024811Y025213D03*
X025271Y025213D03*
X025413Y025177D03*
X025537Y025213D03*
X026600Y026116D03*
X026600Y026170D03*
X028956Y026577D03*
X029116Y026364D03*
X029576Y026311D03*
X030214Y026825D03*
X030037Y025532D03*
X029754Y025053D03*
X020842Y026240D03*
X020736Y025213D03*
X019744Y025231D03*
D30*
X019947Y025886D03*
X019947Y026240D03*
X019256Y025886D03*
X020745Y025195D03*
X020762Y024841D03*
X021117Y025213D03*
X022410Y025886D03*
X022959Y025213D03*
X023597Y025213D03*
X024146Y024859D03*
X024554Y025213D03*
X021099Y026223D03*
X021099Y026240D03*
X020975Y026205D03*
X029319Y026524D03*
X029390Y025337D03*
D31*
X028930Y025301D03*
X030064Y025496D03*
X026467Y025337D03*
X025936Y025886D03*
X025936Y026382D03*
X025581Y025195D03*
X020142Y024894D03*
X020142Y024876D03*
X020142Y024859D03*
X020142Y024841D03*
X019735Y024876D03*
X019203Y026063D03*
D32*
X019186Y026081D03*
X019221Y026223D03*
X020390Y025904D03*
X021772Y026205D03*
X021772Y026223D03*
X021772Y026240D03*
X021772Y026258D03*
X022251Y025231D03*
X022251Y025213D03*
X022251Y025195D03*
X022251Y025177D03*
X022587Y025053D03*
X026042Y025195D03*
X026042Y024859D03*
X026449Y025355D03*
X028770Y026418D03*
X029302Y026542D03*
X030825Y026010D03*
D33*
X029718Y025089D03*
X029417Y025301D03*
X026458Y024876D03*
X022614Y024876D03*
D34*
X022623Y025213D03*
X022977Y025177D03*
X022977Y024876D03*
X023597Y025195D03*
X024146Y024876D03*
X026042Y025213D03*
X026432Y025372D03*
X029142Y026559D03*
X030170Y025904D03*
X030666Y025868D03*
X030684Y025886D03*
X030701Y025904D03*
X030825Y026028D03*
X030861Y026063D03*
X022410Y025904D03*
X021117Y025195D03*
X020745Y024876D03*
X020373Y025868D03*
X019947Y025904D03*
X019947Y026223D03*
X019221Y026240D03*
X019256Y025904D03*
D35*
X019274Y025195D03*
X019274Y024876D03*
X025936Y025904D03*
X028947Y025479D03*
X028983Y026382D03*
X030241Y025868D03*
D36*
X030055Y025443D03*
X029700Y025107D03*
X028921Y025319D03*
D37*
X029692Y025124D03*
X029922Y025319D03*
X029940Y025337D03*
X029957Y025355D03*
X030028Y025408D03*
X030436Y025744D03*
X029532Y026825D03*
D38*
X030418Y025762D03*
X029869Y025301D03*
X029674Y025142D03*
X028947Y025425D03*
X028930Y025408D03*
X028894Y025355D03*
D39*
X029656Y025160D03*
D40*
X029638Y025177D03*
X030418Y025815D03*
X030418Y025833D03*
D41*
X029630Y025195D03*
D42*
X029621Y025213D03*
D43*
X029603Y025231D03*
X029674Y025284D03*
D44*
X029647Y025266D03*
X029630Y025248D03*
D45*
X028903Y025337D03*
D46*
X029984Y025372D03*
X030002Y025390D03*
X030037Y025425D03*
D47*
X028894Y025372D03*
D48*
X028903Y025390D03*
D49*
X028930Y025443D03*
X030081Y025461D03*
D50*
X028939Y025461D03*
X025944Y026364D03*
X024120Y026028D03*
X020399Y026046D03*
X020399Y026063D03*
X020399Y026081D03*
X020399Y026099D03*
D51*
X024129Y026081D03*
X024129Y026063D03*
X024129Y026046D03*
X030081Y025479D03*
X030276Y025851D03*
X030453Y025727D03*
D52*
X030409Y025780D03*
D53*
X030418Y025798D03*
M02*
