M48
; DRILL file {KiCad (5.1.5-0-10_14)} date Friday, September 25, 2020 at 03:53:27 PM
; FORMAT={-:-/ absolute / inch / decimal}
; #@! TF.CreationDate,2020-09-25T15:53:27-04:00
; #@! TF.GenerationSoftware,Kicad,Pcbnew,(5.1.5-0-10_14)
; #@! TF.FileFunction,Plated,3,4,Blind
FMAT,2
INCH
T1C0.0039
T2C0.0079
%
G90
G05
T1
X5.0512Y-3.9154
X5.0823Y-3.6024
X5.0827Y-3.6409
X5.0945Y-3.563
X5.1122Y-3.7835
X5.1555Y-3.8346
X5.1755Y-3.8764
X5.1783Y-3.5484
X5.1791Y-3.8602
X5.1812Y-3.6808
X5.1917Y-3.5626
X5.1929Y-3.5807
X5.1952Y-3.65
X5.2075Y-3.9745
X5.2193Y-3.9594
X5.2528Y-3.7342
X5.2628Y-3.7717
X5.2795Y-3.8091
X5.2819Y-3.5445
X5.3051Y-3.6407
X5.3051Y-3.9173
X5.3228Y-3.852
X5.3433Y-3.6673
X5.3435Y-3.7982
X5.3445Y-3.8297
X5.3465Y-3.8602
X5.3632Y-3.6654
X5.3665Y-3.5453
X5.3848Y-3.7972
X5.3848Y-3.8917
X5.4163Y-3.7028
X5.4163Y-3.8287
X5.4163Y-3.8917
X5.4165Y-3.8602
X5.4281Y-3.6318
X5.4419Y-3.5817
X5.4476Y-3.7654
X5.4478Y-3.6663
X5.4793Y-3.8287
X5.4793Y-3.8917
X5.4953Y-3.9693
X5.5108Y-3.7657
X5.5128Y-3.6604
X5.5423Y-3.7657
X5.5423Y-3.8602
X5.5433Y-3.6033
X5.5738Y-3.7972
X5.5738Y-3.8287
X5.5738Y-3.8917
X5.5738Y-3.9262
X5.6073Y-3.9252
X5.6083Y-3.8287
X5.6161Y-3.7036
X5.6192Y-3.663
X5.6213Y-3.5787
X5.623Y-3.5453
X5.6251Y-3.688
X5.6307Y-3.9666
X5.6447Y-3.7421
X5.6476Y-3.8937
X5.6535Y-4.0049
X5.6579Y-3.8409
X5.6594Y-3.935
X5.6595Y-3.7697
X5.6801Y-3.7431
X5.6801Y-3.9419
X5.7043Y-3.6169
X5.7077Y-3.998
X5.7152Y-3.5575
X5.7196Y-3.9427
X5.7543Y-3.6791
X5.7543Y-3.6963
X5.7572Y-3.8979
X5.7575Y-3.9962
X5.7583Y-3.8794
X5.7598Y-3.8071
X5.7606Y-4.0126
X5.7614Y-3.978
X5.7628Y-3.7776
X5.763Y-3.5748
X5.7665Y-3.628
X5.7682Y-3.7354
X5.7776Y-3.6427
X5.7843Y-3.7319
X5.7879Y-3.9354
X5.8138Y-3.804
X5.8141Y-3.619
X5.8189Y-3.5842
X5.8228Y-3.5473
X5.8902Y-3.6362
T2
X5.0571Y-4.0157
T0
M30
