G04 #@! TF.GenerationSoftware,KiCad,Pcbnew,(5.1.2-1)-1*
G04 #@! TF.CreationDate,2020-02-27T10:54:54-05:00*
G04 #@! TF.ProjectId,NAND Backpack,4e414e44-2042-4616-936b-7061636b2e6b,rev?*
G04 #@! TF.SameCoordinates,Original*
G04 #@! TF.FileFunction,Copper,L2,Bot*
G04 #@! TF.FilePolarity,Positive*
%FSLAX46Y46*%
G04 Gerber Fmt 4.6, Leading zero omitted, Abs format (unit mm)*
G04 Created by KiCad (PCBNEW (5.1.2-1)-1) date 2020-02-27 10:54:54*
%MOMM*%
%LPD*%
G04 APERTURE LIST*
%ADD10R,0.680000X0.380000*%
%ADD11R,0.730000X0.230000*%
%ADD12C,0.500000*%
%ADD13C,0.152400*%
%ADD14C,0.130000*%
G04 APERTURE END LIST*
D10*
X140460000Y-56500000D03*
X140460000Y-59500000D03*
D11*
X139700000Y-57200000D03*
X139700000Y-57600000D03*
X139700000Y-58000000D03*
X139700000Y-58400000D03*
X139700000Y-58800000D03*
X141260000Y-58800000D03*
X141260000Y-58400000D03*
X141260000Y-58000000D03*
X141260000Y-57600000D03*
X141260000Y-57200000D03*
D12*
X142900000Y-56600000D03*
X146300000Y-57600000D03*
X150300000Y-62000000D03*
X139150000Y-61000000D03*
X145900000Y-61100000D03*
X142200000Y-61300000D03*
X145800000Y-54100000D03*
X139650000Y-59400002D03*
X139800000Y-54100000D03*
X143700000Y-61300000D03*
X147300000Y-54650000D03*
X150450000Y-56000000D03*
X149700000Y-54200000D03*
X142150004Y-57726210D03*
X145344033Y-56376212D03*
D13*
X142383799Y-56083799D02*
X142650001Y-56350001D01*
X139939039Y-56083799D02*
X142383799Y-56083799D01*
X142650001Y-56350001D02*
X142900000Y-56600000D01*
X139700000Y-56322838D02*
X139939039Y-56083799D01*
X139700000Y-57200000D02*
X139700000Y-56322838D01*
X146300000Y-58000000D02*
X150300000Y-62000000D01*
X146300000Y-57600000D02*
X146300000Y-58000000D01*
X139182600Y-57600000D02*
X139700000Y-57600000D01*
X138500000Y-58257492D02*
X139157492Y-57600000D01*
X139157492Y-57600000D02*
X139182600Y-57600000D01*
X139150000Y-61000000D02*
X138500000Y-60350000D01*
X138500000Y-60350000D02*
X138500000Y-58257492D01*
X139700000Y-58000000D02*
X139185165Y-58000000D01*
X145650001Y-61349999D02*
X145900000Y-61100000D01*
X145150001Y-61849999D02*
X145650001Y-61349999D01*
X139185165Y-58000000D02*
X138802411Y-58382754D01*
X138802411Y-59852411D02*
X140799999Y-61849999D01*
X140799999Y-61849999D02*
X145150001Y-61849999D01*
X138802411Y-58382754D02*
X138802411Y-59852411D01*
X141846447Y-61300000D02*
X142200000Y-61300000D01*
X139104822Y-59604822D02*
X140800000Y-61300000D01*
X139250000Y-58400000D02*
X139104822Y-58545178D01*
X139104822Y-58545178D02*
X139104822Y-59604822D01*
X139700000Y-58400000D02*
X139250000Y-58400000D01*
X140800000Y-61300000D02*
X141846447Y-61300000D01*
X145800000Y-54100000D02*
X139800000Y-54100000D01*
X139700000Y-59350002D02*
X139650000Y-59400002D01*
X139700000Y-58800000D02*
X139700000Y-59350002D01*
X141691343Y-58400000D02*
X141260000Y-58400000D01*
X141796165Y-58504822D02*
X141691343Y-58400000D01*
X147300000Y-55552698D02*
X144347876Y-58504822D01*
X147300000Y-54650000D02*
X147300000Y-55552698D01*
X144347876Y-58504822D02*
X141796165Y-58504822D01*
X149450001Y-53950001D02*
X149700000Y-54200000D01*
X147299999Y-53950001D02*
X149450001Y-53950001D01*
X145820235Y-56604790D02*
X145820234Y-55429766D01*
X150450000Y-54950000D02*
X149949999Y-54449999D01*
X141260000Y-58000000D02*
X141719016Y-58000000D01*
X149949999Y-54449999D02*
X149700000Y-54200000D01*
X141719016Y-58000000D02*
X141921427Y-58202411D01*
X144222614Y-58202411D02*
X145820235Y-56604790D01*
X141921427Y-58202411D02*
X144222614Y-58202411D01*
X150450000Y-56000000D02*
X150450000Y-54950000D01*
X145820234Y-55429766D02*
X147299999Y-53950001D01*
X141260000Y-57600000D02*
X142023794Y-57600000D01*
X142023794Y-57600000D02*
X142150004Y-57726210D01*
X141260000Y-57200000D02*
X144520245Y-57200000D01*
X145094034Y-56626211D02*
X145344033Y-56376212D01*
X144520245Y-57200000D02*
X145094034Y-56626211D01*
D14*
G36*
X152656000Y-62656000D02*
G01*
X138344000Y-62656000D01*
X138344000Y-60752896D01*
X138581000Y-60989897D01*
X138581000Y-61056042D01*
X138602866Y-61165971D01*
X138645759Y-61269522D01*
X138708029Y-61362716D01*
X138787284Y-61441971D01*
X138880478Y-61504241D01*
X138984029Y-61547134D01*
X139093958Y-61569000D01*
X139206042Y-61569000D01*
X139315971Y-61547134D01*
X139419522Y-61504241D01*
X139512716Y-61441971D01*
X139591971Y-61362716D01*
X139654241Y-61269522D01*
X139656111Y-61265008D01*
X140506818Y-62115715D01*
X140519198Y-62130800D01*
X140579375Y-62180186D01*
X140648031Y-62216883D01*
X140722526Y-62239481D01*
X140799998Y-62247111D01*
X140819412Y-62245199D01*
X145130587Y-62245199D01*
X145150001Y-62247111D01*
X145169415Y-62245199D01*
X145227474Y-62239481D01*
X145301969Y-62216883D01*
X145370625Y-62180186D01*
X145430802Y-62130800D01*
X145443186Y-62115710D01*
X145889897Y-61669000D01*
X145956042Y-61669000D01*
X146065971Y-61647134D01*
X146169522Y-61604241D01*
X146262716Y-61541971D01*
X146341971Y-61462716D01*
X146404241Y-61369522D01*
X146447134Y-61265971D01*
X146469000Y-61156042D01*
X146469000Y-61043958D01*
X146447134Y-60934029D01*
X146404241Y-60830478D01*
X146341971Y-60737284D01*
X146262716Y-60658029D01*
X146169522Y-60595759D01*
X146065971Y-60552866D01*
X145956042Y-60531000D01*
X145843958Y-60531000D01*
X145734029Y-60552866D01*
X145630478Y-60595759D01*
X145537284Y-60658029D01*
X145458029Y-60737284D01*
X145395759Y-60830478D01*
X145352866Y-60934029D01*
X145331000Y-61043958D01*
X145331000Y-61110103D01*
X144986305Y-61454799D01*
X142749356Y-61454799D01*
X142769000Y-61356042D01*
X142769000Y-61243958D01*
X142747134Y-61134029D01*
X142704241Y-61030478D01*
X142641971Y-60937284D01*
X142562716Y-60858029D01*
X142469522Y-60795759D01*
X142365971Y-60752866D01*
X142256042Y-60731000D01*
X142143958Y-60731000D01*
X142034029Y-60752866D01*
X141930478Y-60795759D01*
X141837284Y-60858029D01*
X141790513Y-60904800D01*
X140963697Y-60904800D01*
X140063916Y-60005019D01*
X140120000Y-60010543D01*
X140800000Y-60010543D01*
X140862535Y-60004384D01*
X140922666Y-59986143D01*
X140978084Y-59956522D01*
X141026658Y-59916658D01*
X141066522Y-59868084D01*
X141096143Y-59812666D01*
X141114384Y-59752535D01*
X141120543Y-59690000D01*
X141120543Y-59310000D01*
X141114384Y-59247465D01*
X141109111Y-59230082D01*
X141121250Y-59230000D01*
X141200000Y-59151250D01*
X141200000Y-58850000D01*
X140658750Y-58850000D01*
X140580000Y-58928750D01*
X140585397Y-58980830D01*
X140588138Y-58989457D01*
X140375767Y-58989457D01*
X140379384Y-58977535D01*
X140385543Y-58915000D01*
X140385543Y-58685000D01*
X140379384Y-58622465D01*
X140372569Y-58600000D01*
X140379384Y-58577535D01*
X140385543Y-58515000D01*
X140385543Y-58285000D01*
X140379384Y-58222465D01*
X140372569Y-58200000D01*
X140379384Y-58177535D01*
X140385543Y-58115000D01*
X140385543Y-57885000D01*
X140379384Y-57822465D01*
X140372569Y-57800000D01*
X140379384Y-57777535D01*
X140385543Y-57715000D01*
X140385543Y-57485000D01*
X140379384Y-57422465D01*
X140372569Y-57400000D01*
X140379384Y-57377535D01*
X140385543Y-57315000D01*
X140385543Y-57085000D01*
X140379384Y-57022465D01*
X140375767Y-57010543D01*
X140584233Y-57010543D01*
X140580616Y-57022465D01*
X140574457Y-57085000D01*
X140574457Y-57315000D01*
X140580616Y-57377535D01*
X140587431Y-57400000D01*
X140580616Y-57422465D01*
X140574457Y-57485000D01*
X140574457Y-57715000D01*
X140580616Y-57777535D01*
X140587431Y-57800000D01*
X140580616Y-57822465D01*
X140574457Y-57885000D01*
X140574457Y-58115000D01*
X140580616Y-58177535D01*
X140587431Y-58200000D01*
X140580616Y-58222465D01*
X140574457Y-58285000D01*
X140574457Y-58515000D01*
X140580616Y-58577535D01*
X140589413Y-58606533D01*
X140585397Y-58619170D01*
X140580000Y-58671250D01*
X140658750Y-58750000D01*
X140678507Y-58750000D01*
X140716916Y-58781522D01*
X140772334Y-58811143D01*
X140832465Y-58829384D01*
X140895000Y-58835543D01*
X141340000Y-58835543D01*
X141340000Y-58850000D01*
X141320000Y-58850000D01*
X141320000Y-59151250D01*
X141398750Y-59230000D01*
X141620836Y-59231497D01*
X141682661Y-59226228D01*
X141742271Y-59208998D01*
X141797373Y-59180471D01*
X141845852Y-59141742D01*
X141885844Y-59094299D01*
X141915811Y-59039965D01*
X141934603Y-58980830D01*
X141940000Y-58928750D01*
X141911272Y-58900022D01*
X144328462Y-58900022D01*
X144347876Y-58901934D01*
X144367290Y-58900022D01*
X144425349Y-58894304D01*
X144499844Y-58871706D01*
X144568500Y-58835009D01*
X144628677Y-58785623D01*
X144641061Y-58770533D01*
X145735073Y-57676521D01*
X145752866Y-57765971D01*
X145795759Y-57869522D01*
X145858029Y-57962716D01*
X145903716Y-58008403D01*
X145910518Y-58077472D01*
X145933117Y-58151968D01*
X145960079Y-58202410D01*
X145969814Y-58220624D01*
X146019200Y-58280801D01*
X146034285Y-58293181D01*
X149731000Y-61989898D01*
X149731000Y-62056042D01*
X149752866Y-62165971D01*
X149795759Y-62269522D01*
X149858029Y-62362716D01*
X149937284Y-62441971D01*
X150030478Y-62504241D01*
X150134029Y-62547134D01*
X150243958Y-62569000D01*
X150356042Y-62569000D01*
X150465971Y-62547134D01*
X150569522Y-62504241D01*
X150662716Y-62441971D01*
X150741971Y-62362716D01*
X150804241Y-62269522D01*
X150847134Y-62165971D01*
X150869000Y-62056042D01*
X150869000Y-61943958D01*
X150847134Y-61834029D01*
X150804241Y-61730478D01*
X150741971Y-61637284D01*
X150662716Y-61558029D01*
X150569522Y-61495759D01*
X150465971Y-61452866D01*
X150356042Y-61431000D01*
X150289898Y-61431000D01*
X146773871Y-57914975D01*
X146804241Y-57869522D01*
X146847134Y-57765971D01*
X146869000Y-57656042D01*
X146869000Y-57543958D01*
X146847134Y-57434029D01*
X146804241Y-57330478D01*
X146741971Y-57237284D01*
X146662716Y-57158029D01*
X146569522Y-57095759D01*
X146465971Y-57052866D01*
X146376521Y-57035074D01*
X147565716Y-55845879D01*
X147580801Y-55833499D01*
X147630187Y-55773322D01*
X147666884Y-55704666D01*
X147689482Y-55630171D01*
X147695200Y-55572112D01*
X147697112Y-55552698D01*
X147695200Y-55533284D01*
X147695200Y-55059487D01*
X147741971Y-55012716D01*
X147804241Y-54919522D01*
X147847134Y-54815971D01*
X147869000Y-54706042D01*
X147869000Y-54593958D01*
X147847134Y-54484029D01*
X147804241Y-54380478D01*
X147780670Y-54345201D01*
X149148735Y-54345201D01*
X149152866Y-54365971D01*
X149195759Y-54469522D01*
X149258029Y-54562716D01*
X149337284Y-54641971D01*
X149430478Y-54704241D01*
X149534029Y-54747134D01*
X149643958Y-54769000D01*
X149710104Y-54769000D01*
X150054801Y-55113698D01*
X150054800Y-55590513D01*
X150008029Y-55637284D01*
X149945759Y-55730478D01*
X149902866Y-55834029D01*
X149881000Y-55943958D01*
X149881000Y-56056042D01*
X149902866Y-56165971D01*
X149945759Y-56269522D01*
X150008029Y-56362716D01*
X150087284Y-56441971D01*
X150180478Y-56504241D01*
X150284029Y-56547134D01*
X150393958Y-56569000D01*
X150506042Y-56569000D01*
X150615971Y-56547134D01*
X150719522Y-56504241D01*
X150812716Y-56441971D01*
X150891971Y-56362716D01*
X150954241Y-56269522D01*
X150997134Y-56165971D01*
X151019000Y-56056042D01*
X151019000Y-55943958D01*
X150997134Y-55834029D01*
X150954241Y-55730478D01*
X150891971Y-55637284D01*
X150845200Y-55590513D01*
X150845200Y-54969413D01*
X150847112Y-54949999D01*
X150839482Y-54872527D01*
X150831772Y-54847111D01*
X150816884Y-54798032D01*
X150780187Y-54729376D01*
X150730801Y-54669199D01*
X150715716Y-54656819D01*
X150269000Y-54210104D01*
X150269000Y-54143958D01*
X150247134Y-54034029D01*
X150204241Y-53930478D01*
X150141971Y-53837284D01*
X150062716Y-53758029D01*
X149969522Y-53695759D01*
X149865971Y-53652866D01*
X149756042Y-53631000D01*
X149684255Y-53631000D01*
X149670625Y-53619814D01*
X149601969Y-53583117D01*
X149527474Y-53560519D01*
X149469415Y-53554801D01*
X149450001Y-53552889D01*
X149430587Y-53554801D01*
X147319413Y-53554801D01*
X147299999Y-53552889D01*
X147280585Y-53554801D01*
X147222526Y-53560519D01*
X147148031Y-53583117D01*
X147079375Y-53619814D01*
X147019198Y-53669200D01*
X147006818Y-53684285D01*
X146269323Y-54421780D01*
X146304241Y-54369522D01*
X146347134Y-54265971D01*
X146369000Y-54156042D01*
X146369000Y-54043958D01*
X146347134Y-53934029D01*
X146304241Y-53830478D01*
X146241971Y-53737284D01*
X146162716Y-53658029D01*
X146069522Y-53595759D01*
X145965971Y-53552866D01*
X145856042Y-53531000D01*
X145743958Y-53531000D01*
X145634029Y-53552866D01*
X145530478Y-53595759D01*
X145437284Y-53658029D01*
X145390513Y-53704800D01*
X140209487Y-53704800D01*
X140162716Y-53658029D01*
X140069522Y-53595759D01*
X139965971Y-53552866D01*
X139856042Y-53531000D01*
X139743958Y-53531000D01*
X139634029Y-53552866D01*
X139530478Y-53595759D01*
X139437284Y-53658029D01*
X139358029Y-53737284D01*
X139295759Y-53830478D01*
X139252866Y-53934029D01*
X139231000Y-54043958D01*
X139231000Y-54156042D01*
X139252866Y-54265971D01*
X139295759Y-54369522D01*
X139358029Y-54462716D01*
X139437284Y-54541971D01*
X139530478Y-54604241D01*
X139634029Y-54647134D01*
X139743958Y-54669000D01*
X139856042Y-54669000D01*
X139965971Y-54647134D01*
X140069522Y-54604241D01*
X140162716Y-54541971D01*
X140209487Y-54495200D01*
X145390513Y-54495200D01*
X145437284Y-54541971D01*
X145530478Y-54604241D01*
X145634029Y-54647134D01*
X145743958Y-54669000D01*
X145856042Y-54669000D01*
X145965971Y-54647134D01*
X146069522Y-54604241D01*
X146121780Y-54569323D01*
X145554518Y-55136586D01*
X145539433Y-55148966D01*
X145490047Y-55209143D01*
X145453350Y-55277799D01*
X145434639Y-55339482D01*
X145430752Y-55352294D01*
X145423122Y-55429766D01*
X145425034Y-55449180D01*
X145425035Y-55812177D01*
X145400075Y-55807212D01*
X145287991Y-55807212D01*
X145178062Y-55829078D01*
X145074511Y-55871971D01*
X144981317Y-55934241D01*
X144902062Y-56013496D01*
X144839792Y-56106690D01*
X144796899Y-56210241D01*
X144775033Y-56320170D01*
X144775033Y-56386315D01*
X144356549Y-56804800D01*
X143431050Y-56804800D01*
X143447134Y-56765971D01*
X143469000Y-56656042D01*
X143469000Y-56543958D01*
X143447134Y-56434029D01*
X143404241Y-56330478D01*
X143341971Y-56237284D01*
X143262716Y-56158029D01*
X143169522Y-56095759D01*
X143065971Y-56052866D01*
X142956042Y-56031000D01*
X142889898Y-56031000D01*
X142676983Y-55818087D01*
X142664600Y-55802998D01*
X142604423Y-55753612D01*
X142535767Y-55716915D01*
X142461272Y-55694317D01*
X142403213Y-55688599D01*
X142383799Y-55686687D01*
X142364385Y-55688599D01*
X139958452Y-55688599D01*
X139939038Y-55686687D01*
X139861566Y-55694317D01*
X139787071Y-55716915D01*
X139718415Y-55753612D01*
X139658238Y-55802998D01*
X139645854Y-55818088D01*
X139434285Y-56029657D01*
X139419200Y-56042037D01*
X139385553Y-56083036D01*
X139369813Y-56102215D01*
X139333117Y-56170870D01*
X139310518Y-56245366D01*
X139302888Y-56322838D01*
X139304801Y-56342261D01*
X139304800Y-56767431D01*
X139272465Y-56770616D01*
X139212334Y-56788857D01*
X139156916Y-56818478D01*
X139108342Y-56858342D01*
X139068478Y-56906916D01*
X139038857Y-56962334D01*
X139020616Y-57022465D01*
X139014457Y-57085000D01*
X139014457Y-57230406D01*
X139005524Y-57233116D01*
X138936868Y-57269813D01*
X138876691Y-57319199D01*
X138864311Y-57334284D01*
X138344000Y-57854596D01*
X138344000Y-53344000D01*
X152656001Y-53344000D01*
X152656000Y-62656000D01*
X152656000Y-62656000D01*
G37*
X152656000Y-62656000D02*
X138344000Y-62656000D01*
X138344000Y-60752896D01*
X138581000Y-60989897D01*
X138581000Y-61056042D01*
X138602866Y-61165971D01*
X138645759Y-61269522D01*
X138708029Y-61362716D01*
X138787284Y-61441971D01*
X138880478Y-61504241D01*
X138984029Y-61547134D01*
X139093958Y-61569000D01*
X139206042Y-61569000D01*
X139315971Y-61547134D01*
X139419522Y-61504241D01*
X139512716Y-61441971D01*
X139591971Y-61362716D01*
X139654241Y-61269522D01*
X139656111Y-61265008D01*
X140506818Y-62115715D01*
X140519198Y-62130800D01*
X140579375Y-62180186D01*
X140648031Y-62216883D01*
X140722526Y-62239481D01*
X140799998Y-62247111D01*
X140819412Y-62245199D01*
X145130587Y-62245199D01*
X145150001Y-62247111D01*
X145169415Y-62245199D01*
X145227474Y-62239481D01*
X145301969Y-62216883D01*
X145370625Y-62180186D01*
X145430802Y-62130800D01*
X145443186Y-62115710D01*
X145889897Y-61669000D01*
X145956042Y-61669000D01*
X146065971Y-61647134D01*
X146169522Y-61604241D01*
X146262716Y-61541971D01*
X146341971Y-61462716D01*
X146404241Y-61369522D01*
X146447134Y-61265971D01*
X146469000Y-61156042D01*
X146469000Y-61043958D01*
X146447134Y-60934029D01*
X146404241Y-60830478D01*
X146341971Y-60737284D01*
X146262716Y-60658029D01*
X146169522Y-60595759D01*
X146065971Y-60552866D01*
X145956042Y-60531000D01*
X145843958Y-60531000D01*
X145734029Y-60552866D01*
X145630478Y-60595759D01*
X145537284Y-60658029D01*
X145458029Y-60737284D01*
X145395759Y-60830478D01*
X145352866Y-60934029D01*
X145331000Y-61043958D01*
X145331000Y-61110103D01*
X144986305Y-61454799D01*
X142749356Y-61454799D01*
X142769000Y-61356042D01*
X142769000Y-61243958D01*
X142747134Y-61134029D01*
X142704241Y-61030478D01*
X142641971Y-60937284D01*
X142562716Y-60858029D01*
X142469522Y-60795759D01*
X142365971Y-60752866D01*
X142256042Y-60731000D01*
X142143958Y-60731000D01*
X142034029Y-60752866D01*
X141930478Y-60795759D01*
X141837284Y-60858029D01*
X141790513Y-60904800D01*
X140963697Y-60904800D01*
X140063916Y-60005019D01*
X140120000Y-60010543D01*
X140800000Y-60010543D01*
X140862535Y-60004384D01*
X140922666Y-59986143D01*
X140978084Y-59956522D01*
X141026658Y-59916658D01*
X141066522Y-59868084D01*
X141096143Y-59812666D01*
X141114384Y-59752535D01*
X141120543Y-59690000D01*
X141120543Y-59310000D01*
X141114384Y-59247465D01*
X141109111Y-59230082D01*
X141121250Y-59230000D01*
X141200000Y-59151250D01*
X141200000Y-58850000D01*
X140658750Y-58850000D01*
X140580000Y-58928750D01*
X140585397Y-58980830D01*
X140588138Y-58989457D01*
X140375767Y-58989457D01*
X140379384Y-58977535D01*
X140385543Y-58915000D01*
X140385543Y-58685000D01*
X140379384Y-58622465D01*
X140372569Y-58600000D01*
X140379384Y-58577535D01*
X140385543Y-58515000D01*
X140385543Y-58285000D01*
X140379384Y-58222465D01*
X140372569Y-58200000D01*
X140379384Y-58177535D01*
X140385543Y-58115000D01*
X140385543Y-57885000D01*
X140379384Y-57822465D01*
X140372569Y-57800000D01*
X140379384Y-57777535D01*
X140385543Y-57715000D01*
X140385543Y-57485000D01*
X140379384Y-57422465D01*
X140372569Y-57400000D01*
X140379384Y-57377535D01*
X140385543Y-57315000D01*
X140385543Y-57085000D01*
X140379384Y-57022465D01*
X140375767Y-57010543D01*
X140584233Y-57010543D01*
X140580616Y-57022465D01*
X140574457Y-57085000D01*
X140574457Y-57315000D01*
X140580616Y-57377535D01*
X140587431Y-57400000D01*
X140580616Y-57422465D01*
X140574457Y-57485000D01*
X140574457Y-57715000D01*
X140580616Y-57777535D01*
X140587431Y-57800000D01*
X140580616Y-57822465D01*
X140574457Y-57885000D01*
X140574457Y-58115000D01*
X140580616Y-58177535D01*
X140587431Y-58200000D01*
X140580616Y-58222465D01*
X140574457Y-58285000D01*
X140574457Y-58515000D01*
X140580616Y-58577535D01*
X140589413Y-58606533D01*
X140585397Y-58619170D01*
X140580000Y-58671250D01*
X140658750Y-58750000D01*
X140678507Y-58750000D01*
X140716916Y-58781522D01*
X140772334Y-58811143D01*
X140832465Y-58829384D01*
X140895000Y-58835543D01*
X141340000Y-58835543D01*
X141340000Y-58850000D01*
X141320000Y-58850000D01*
X141320000Y-59151250D01*
X141398750Y-59230000D01*
X141620836Y-59231497D01*
X141682661Y-59226228D01*
X141742271Y-59208998D01*
X141797373Y-59180471D01*
X141845852Y-59141742D01*
X141885844Y-59094299D01*
X141915811Y-59039965D01*
X141934603Y-58980830D01*
X141940000Y-58928750D01*
X141911272Y-58900022D01*
X144328462Y-58900022D01*
X144347876Y-58901934D01*
X144367290Y-58900022D01*
X144425349Y-58894304D01*
X144499844Y-58871706D01*
X144568500Y-58835009D01*
X144628677Y-58785623D01*
X144641061Y-58770533D01*
X145735073Y-57676521D01*
X145752866Y-57765971D01*
X145795759Y-57869522D01*
X145858029Y-57962716D01*
X145903716Y-58008403D01*
X145910518Y-58077472D01*
X145933117Y-58151968D01*
X145960079Y-58202410D01*
X145969814Y-58220624D01*
X146019200Y-58280801D01*
X146034285Y-58293181D01*
X149731000Y-61989898D01*
X149731000Y-62056042D01*
X149752866Y-62165971D01*
X149795759Y-62269522D01*
X149858029Y-62362716D01*
X149937284Y-62441971D01*
X150030478Y-62504241D01*
X150134029Y-62547134D01*
X150243958Y-62569000D01*
X150356042Y-62569000D01*
X150465971Y-62547134D01*
X150569522Y-62504241D01*
X150662716Y-62441971D01*
X150741971Y-62362716D01*
X150804241Y-62269522D01*
X150847134Y-62165971D01*
X150869000Y-62056042D01*
X150869000Y-61943958D01*
X150847134Y-61834029D01*
X150804241Y-61730478D01*
X150741971Y-61637284D01*
X150662716Y-61558029D01*
X150569522Y-61495759D01*
X150465971Y-61452866D01*
X150356042Y-61431000D01*
X150289898Y-61431000D01*
X146773871Y-57914975D01*
X146804241Y-57869522D01*
X146847134Y-57765971D01*
X146869000Y-57656042D01*
X146869000Y-57543958D01*
X146847134Y-57434029D01*
X146804241Y-57330478D01*
X146741971Y-57237284D01*
X146662716Y-57158029D01*
X146569522Y-57095759D01*
X146465971Y-57052866D01*
X146376521Y-57035074D01*
X147565716Y-55845879D01*
X147580801Y-55833499D01*
X147630187Y-55773322D01*
X147666884Y-55704666D01*
X147689482Y-55630171D01*
X147695200Y-55572112D01*
X147697112Y-55552698D01*
X147695200Y-55533284D01*
X147695200Y-55059487D01*
X147741971Y-55012716D01*
X147804241Y-54919522D01*
X147847134Y-54815971D01*
X147869000Y-54706042D01*
X147869000Y-54593958D01*
X147847134Y-54484029D01*
X147804241Y-54380478D01*
X147780670Y-54345201D01*
X149148735Y-54345201D01*
X149152866Y-54365971D01*
X149195759Y-54469522D01*
X149258029Y-54562716D01*
X149337284Y-54641971D01*
X149430478Y-54704241D01*
X149534029Y-54747134D01*
X149643958Y-54769000D01*
X149710104Y-54769000D01*
X150054801Y-55113698D01*
X150054800Y-55590513D01*
X150008029Y-55637284D01*
X149945759Y-55730478D01*
X149902866Y-55834029D01*
X149881000Y-55943958D01*
X149881000Y-56056042D01*
X149902866Y-56165971D01*
X149945759Y-56269522D01*
X150008029Y-56362716D01*
X150087284Y-56441971D01*
X150180478Y-56504241D01*
X150284029Y-56547134D01*
X150393958Y-56569000D01*
X150506042Y-56569000D01*
X150615971Y-56547134D01*
X150719522Y-56504241D01*
X150812716Y-56441971D01*
X150891971Y-56362716D01*
X150954241Y-56269522D01*
X150997134Y-56165971D01*
X151019000Y-56056042D01*
X151019000Y-55943958D01*
X150997134Y-55834029D01*
X150954241Y-55730478D01*
X150891971Y-55637284D01*
X150845200Y-55590513D01*
X150845200Y-54969413D01*
X150847112Y-54949999D01*
X150839482Y-54872527D01*
X150831772Y-54847111D01*
X150816884Y-54798032D01*
X150780187Y-54729376D01*
X150730801Y-54669199D01*
X150715716Y-54656819D01*
X150269000Y-54210104D01*
X150269000Y-54143958D01*
X150247134Y-54034029D01*
X150204241Y-53930478D01*
X150141971Y-53837284D01*
X150062716Y-53758029D01*
X149969522Y-53695759D01*
X149865971Y-53652866D01*
X149756042Y-53631000D01*
X149684255Y-53631000D01*
X149670625Y-53619814D01*
X149601969Y-53583117D01*
X149527474Y-53560519D01*
X149469415Y-53554801D01*
X149450001Y-53552889D01*
X149430587Y-53554801D01*
X147319413Y-53554801D01*
X147299999Y-53552889D01*
X147280585Y-53554801D01*
X147222526Y-53560519D01*
X147148031Y-53583117D01*
X147079375Y-53619814D01*
X147019198Y-53669200D01*
X147006818Y-53684285D01*
X146269323Y-54421780D01*
X146304241Y-54369522D01*
X146347134Y-54265971D01*
X146369000Y-54156042D01*
X146369000Y-54043958D01*
X146347134Y-53934029D01*
X146304241Y-53830478D01*
X146241971Y-53737284D01*
X146162716Y-53658029D01*
X146069522Y-53595759D01*
X145965971Y-53552866D01*
X145856042Y-53531000D01*
X145743958Y-53531000D01*
X145634029Y-53552866D01*
X145530478Y-53595759D01*
X145437284Y-53658029D01*
X145390513Y-53704800D01*
X140209487Y-53704800D01*
X140162716Y-53658029D01*
X140069522Y-53595759D01*
X139965971Y-53552866D01*
X139856042Y-53531000D01*
X139743958Y-53531000D01*
X139634029Y-53552866D01*
X139530478Y-53595759D01*
X139437284Y-53658029D01*
X139358029Y-53737284D01*
X139295759Y-53830478D01*
X139252866Y-53934029D01*
X139231000Y-54043958D01*
X139231000Y-54156042D01*
X139252866Y-54265971D01*
X139295759Y-54369522D01*
X139358029Y-54462716D01*
X139437284Y-54541971D01*
X139530478Y-54604241D01*
X139634029Y-54647134D01*
X139743958Y-54669000D01*
X139856042Y-54669000D01*
X139965971Y-54647134D01*
X140069522Y-54604241D01*
X140162716Y-54541971D01*
X140209487Y-54495200D01*
X145390513Y-54495200D01*
X145437284Y-54541971D01*
X145530478Y-54604241D01*
X145634029Y-54647134D01*
X145743958Y-54669000D01*
X145856042Y-54669000D01*
X145965971Y-54647134D01*
X146069522Y-54604241D01*
X146121780Y-54569323D01*
X145554518Y-55136586D01*
X145539433Y-55148966D01*
X145490047Y-55209143D01*
X145453350Y-55277799D01*
X145434639Y-55339482D01*
X145430752Y-55352294D01*
X145423122Y-55429766D01*
X145425034Y-55449180D01*
X145425035Y-55812177D01*
X145400075Y-55807212D01*
X145287991Y-55807212D01*
X145178062Y-55829078D01*
X145074511Y-55871971D01*
X144981317Y-55934241D01*
X144902062Y-56013496D01*
X144839792Y-56106690D01*
X144796899Y-56210241D01*
X144775033Y-56320170D01*
X144775033Y-56386315D01*
X144356549Y-56804800D01*
X143431050Y-56804800D01*
X143447134Y-56765971D01*
X143469000Y-56656042D01*
X143469000Y-56543958D01*
X143447134Y-56434029D01*
X143404241Y-56330478D01*
X143341971Y-56237284D01*
X143262716Y-56158029D01*
X143169522Y-56095759D01*
X143065971Y-56052866D01*
X142956042Y-56031000D01*
X142889898Y-56031000D01*
X142676983Y-55818087D01*
X142664600Y-55802998D01*
X142604423Y-55753612D01*
X142535767Y-55716915D01*
X142461272Y-55694317D01*
X142403213Y-55688599D01*
X142383799Y-55686687D01*
X142364385Y-55688599D01*
X139958452Y-55688599D01*
X139939038Y-55686687D01*
X139861566Y-55694317D01*
X139787071Y-55716915D01*
X139718415Y-55753612D01*
X139658238Y-55802998D01*
X139645854Y-55818088D01*
X139434285Y-56029657D01*
X139419200Y-56042037D01*
X139385553Y-56083036D01*
X139369813Y-56102215D01*
X139333117Y-56170870D01*
X139310518Y-56245366D01*
X139302888Y-56322838D01*
X139304801Y-56342261D01*
X139304800Y-56767431D01*
X139272465Y-56770616D01*
X139212334Y-56788857D01*
X139156916Y-56818478D01*
X139108342Y-56858342D01*
X139068478Y-56906916D01*
X139038857Y-56962334D01*
X139020616Y-57022465D01*
X139014457Y-57085000D01*
X139014457Y-57230406D01*
X139005524Y-57233116D01*
X138936868Y-57269813D01*
X138876691Y-57319199D01*
X138864311Y-57334284D01*
X138344000Y-57854596D01*
X138344000Y-53344000D01*
X152656001Y-53344000D01*
X152656000Y-62656000D01*
M02*
